<?xml version="1.0" encoding="UTF-8" standalone="no"?>
<!-- Created with Inkscape (http://www.inkscape.org/) -->

<svg
   xmlns:osb="http://www.openswatchbook.org/uri/2009/osb"
   xmlns:dc="http://purl.org/dc/elements/1.1/"
   xmlns:cc="http://creativecommons.org/ns#"
   xmlns:rdf="http://www.w3.org/1999/02/22-rdf-syntax-ns#"
   xmlns:svg="http://www.w3.org/2000/svg"
   xmlns="http://www.w3.org/2000/svg"
   xmlns:sodipodi="http://sodipodi.sourceforge.net/DTD/sodipodi-0.dtd"
   xmlns:inkscape="http://www.inkscape.org/namespaces/inkscape"
   id="svg2"
   version="1.1"
   inkscape:version="0.91 r13725"
   width="1365.6824"
   height="1713.0957"
   viewBox="0 0 1365.6824 1713.0957"
   sodipodi:docname="chigraphsmall.svg">
  <metadata
     id="metadata8">
    <rdf:RDF>
      <cc:Work
         rdf:about="">
        <dc:format>image/svg+xml</dc:format>
        <dc:type
           rdf:resource="http://purl.org/dc/dcmitype/StillImage" />
        <dc:title></dc:title>
      </cc:Work>
    </rdf:RDF>
  </metadata>
  <defs
     id="defs6">
    <linearGradient
       id="linearGradient5711"
       osb:paint="solid">
      <stop
         style="stop-color:#37c8ab;stop-opacity:1;"
         offset="0"
         id="stop5713" />
    </linearGradient>
  </defs>
  <sodipodi:namedview
     pagecolor="#ffffff"
     bordercolor="#666666"
     borderopacity="1"
     objecttolerance="10"
     gridtolerance="10"
     guidetolerance="10"
     inkscape:pageopacity="0"
     inkscape:pageshadow="2"
     inkscape:window-width="1920"
     inkscape:window-height="1007"
     id="namedview4"
     showgrid="false"
     showguides="false"
     inkscape:zoom="0.25"
     inkscape:cx="1052.9881"
     inkscape:cy="797.35459"
     inkscape:window-x="0"
     inkscape:window-y="0"
     inkscape:window-maximized="1"
     inkscape:current-layer="flowRoot4265"
     fit-margin-top="100"
     fit-margin-left="100"
     fit-margin-right="100"
     fit-margin-bottom="100" />
  <g
     inkscape:groupmode="layer"
     id="layer2"
     inkscape:label="Image"
     style="display:inline"
     transform="translate(-271.43841,-905.39238)">
    <path
       style="fill:#ff7f2a;fill-rule:evenodd;stroke:none;stroke-width:1px;stroke-linecap:butt;stroke-linejoin:miter;stroke-opacity:1"
       d="m 948.90159,1721.5624 c 0,0 24.8598,21.3431 30.3184,26.0219 5.4587,4.6788 17.1557,8.5778 31.19221,14.8163 14.0364,6.2384 37.4306,17.9354 49.9074,22.6143 12.4769,4.6788 110.7321,28.8527 121.6494,31.1921 10.9172,2.3394 32.7517,9.3577 43.6689,16.3759 10.9173,7.0182 35.0912,24.9537 45.2286,36.6507 10.1375,11.6971 35.871,46.0085 41.3296,60.8247 5.4587,14.8163 14.8163,42.1094 17.1557,51.467 2.3394,9.3577 5.4586,29.6326 -0.7798,41.3296 -6.2384,11.6971 -11.697,22.6143 -11.697,22.6143 0,0 7.798,-14.0364 2.3394,-29.6325 -5.4587,-15.5961 -10.1375,-34.3114 -17.1557,-42.8892 -7.0182,-8.5778 -29.6325,-28.8527 -29.6325,-28.8527 0,0 9.3576,23.3941 11.697,36.6507 2.3394,13.2567 6.2384,34.3114 0,55.3661 -6.2384,21.0547 -22.6143,51.467 -22.6143,51.467 0,0 7.0182,-15.5961 1.5596,-35.0911 -5.4586,-19.4951 -10.1374,-35.0912 -18.7153,-48.3479 -8.5778,-13.2566 -2.3394,-15.596 -22.6143,-30.4123 -20.2749,-14.8163 -38.2103,-38.2104 -53.0266,-45.2286 -14.8163,-7.0182 -30.5464,0.2924 -30.5464,0.2924 l -0.012,0 c 0,0 -84.7526,-67.8527 -100.7433,-85.7733 -15.9907,-17.9206 -24.5375,-28.673 -27.5702,-32.8086 -3.0327,-4.1355 -29.77581,-39.7011 -35.01421,-47.9722 -5.2383,-8.271 -25.9246,-40.6746 -25.9246,-40.6746 z"
       id="path3367"
       inkscape:connector-curvature="0" />
    <path
       style="fill:#ff7f2a;fill-rule:evenodd;stroke:none;stroke-width:1px;stroke-linecap:butt;stroke-linejoin:miter;stroke-opacity:1"
       d="m 1134.1304,1926.0429 c 0,0 -11.0366,8.6942 -12.2063,12.2034 -1.1697,3.5091 -5.4586,21.0546 -6.2384,28.4628 -0.7798,7.4081 -2.7294,17.9355 -3.5092,27.2931 -0.7798,9.3576 6.6284,67.453 12.087,77.2005 5.4586,9.7476 21.4446,42.8892 26.1234,48.7378 4.6788,5.8485 30.8022,34.7012 38.6003,39.7699 7.798,5.0688 32.3618,23.784 36.6507,26.1235 4.289,2.3394 18.3254,6.2384 18.3254,6.2384 0,0 -10.9172,6.2384 -26.9032,3.899 -15.986,-2.3394 -22.2244,0.7798 -46.0084,-12.4769 -23.784,-13.2566 -45.2286,-26.5133 -49.9074,-31.582 -4.6788,-5.0687 -8.188,-7.798 -8.188,-7.798 0,0 0.5481,25.8862 31.4268,50.6994 30.8786,24.8132 56.7946,42.4581 56.7946,42.4581 0,0 -74.4396,-13.7851 -115.2435,-68.3742 -40.8039,-54.589 -78.2994,-110.8322 -86.57051,-136.7482 -8.271,-25.916 -33.0842,-100.3556 -44.1123,-120.7576 -11.0281,-20.4019 -17.6449,-41.9067 -23.7104,-47.4208 -6.0654,-5.514 -13.316,-14.6121 -13.316,-14.6121 l -0.9747,-1.5109 c 0,0 106.41851,40.8806 127.86311,49.0686 21.4446,8.1879 89.017,29.1262 89.017,29.1262 z"
       id="path3369"
       inkscape:connector-curvature="0"
       sodipodi:nodetypes="cssssssscssscscsssscc" />
    <path
       style="fill:#ff7f2a;fill-rule:evenodd;stroke:none;stroke-width:1px;stroke-linecap:butt;stroke-linejoin:miter;stroke-opacity:1"
       d="m 845.09379,1246.9505 c 0,0 10.9173,18.7153 20.2749,26.5133 9.3577,7.798 38.9902,21.8345 44.4488,24.9537 5.4587,3.1192 76.4208,36.6508 100.59471,39.77 24.1739,3.1192 42.8892,13.2566 56.1458,21.8345 13.2567,8.5778 88.8976,54.5862 88.8976,54.5862 0,0 -42.1094,-11.697 -55.366,-10.9172 -13.2567,0.7798 -33.5316,0.7798 -42.1094,0 -8.5778,-0.7798 -27.2931,-9.3577 -27.2931,-9.3577 0,0 18.7153,34.3114 54.5862,29.6326 35.871,-4.6789 27.2931,0 27.2931,0 0,0 -14.0364,7.0182 -19.495,12.4768 -5.4587,5.4586 -30.4124,25.7335 -55.3661,31.1922 -24.9537,5.4586 -61.60451,3.1192 -77.98031,1.5596 -16.3759,-1.5596 -72.5218,-30.4124 -87.338,-28.8528 -14.8163,1.5596 -37.4306,-3.1192 -37.4306,-3.1192 z"
       id="path3359"
       inkscape:connector-curvature="0" />
    <path
       style="fill:#ff7f2a;fill-rule:evenodd;stroke:none;stroke-width:1px;stroke-linecap:butt;stroke-linejoin:miter;stroke-opacity:1"
       d="m 589.3183,1229.015 c 0,0 -39.38008,41.3296 -56.14585,52.6367 -16.76578,11.3072 -38.21037,19.4951 -48.34782,29.6326 -10.13744,10.1374 -60.43477,60.8246 -72.52172,78.3702 -12.08695,17.5456 -33.92145,58.4853 -39.76998,102.9341 -5.84852,44.4488 13.64656,97.0855 13.64656,97.0855 0,0 -16.37587,-33.9215 10.13745,-80.7097 26.51332,-46.7882 40.54978,-51.8569 40.54978,-51.8569 0,0 -7.01823,5.4586 -5.45863,19.4951 1.55961,14.0365 5.45863,32.3618 -0.3899,44.0589 -5.84852,11.697 -17.54558,22.6143 -17.54558,22.6143 0,0 15.59607,3.1192 22.2244,-3.899 6.62833,-7.0183 48.73772,-37.0407 56.53576,-50.2974 7.79803,-13.2566 26.90322,-29.6325 33.92145,-31.1921 7.01823,-1.5596 80.60961,-57.0958 80.60961,-57.0958 z"
       id="path3353"
       inkscape:connector-curvature="0" />
    <path
       style="fill:#e56234;fill-opacity:1;fill-rule:evenodd;stroke:none;stroke-width:1px;stroke-linecap:butt;stroke-linejoin:miter;stroke-opacity:1"
       d="m 1135.0092,1926.8313 c 0,0 -197.95411,-65.6172 -218.35611,-77.748 -20.402,-12.1309 -61.2059,-24.2618 -99.2528,-64.5144 -38.0469,-40.2525 -121.309,-133.4398 -135.6455,-167.0755 -14.3365,-33.6357 -85.46762,-164.3185 -94.29008,-210.085 -8.82251,-45.7666 -12.68234,-148.8792 -2.20564,-199.6084 10.4767,-50.7292 8.27106,-73.3368 27.57023,-110.8323 19.29916,-37.4955 35.28985,-59.0002 44.66375,-65.6171 9.37384,-6.6168 13.78504,-13.7851 29.22444,-17.6449 15.4393,-3.8598 28.673,-8.8225 42.4581,-8.2711 13.7851,0.5514 23.7104,3.3084 31.9814,8.2711 8.2711,4.9626 20.402,15.4393 28.1217,23.159 7.7196,7.7196 33.0842,42.4581 34.7385,51.832 1.6542,9.3738 12.6823,41.3553 14.8879,54.589 2.2056,13.2337 11.028,70.5797 12.6823,92.6359 1.6542,22.0562 3.8598,47.9722 5.514,63.4115 1.6542,15.4393 8.2711,212.8421 19.2992,266.8797 11.028,54.0376 25.916,76.0938 40.2525,102.0098 14.3365,25.916 59.5516,97.0472 74.4396,117.4491 14.88791,20.402 39.14971,51.2807 54.58901,65.0657 15.4393,13.7851 92.6359,78.2995 92.6359,78.2995 z"
       id="path3351"
       inkscape:connector-curvature="0" />
    <path
       style="fill:#ff9719;fill-opacity:1;fill-rule:evenodd;stroke:none;stroke-width:1px;stroke-linecap:butt;stroke-linejoin:miter;stroke-opacity:1"
       d="m 653.08182,1229.8562 c 0,0 -1.65424,111.9351 17.64487,190.7859 19.2992,78.8508 39.7012,137.2997 39.7012,137.2997 0,0 -24.4891,31.3221 -37.4955,59.0002 -24.23375,51.5702 -50.05801,105.5737 -67.82276,132.337 -17.76475,26.7633 -48.81423,92.5663 -56.24324,145.0194 -2.20562,18.7477 -9.37388,66.7199 -9.37388,76.0938 0,9.3739 -0.5514,41.3553 -8.27106,61.2059 -7.71966,19.8505 -31.98145,60.103 -31.98145,60.103 0,0 9.82462,-12.413 4.96264,-39.7011 -4.80309,-26.9576 -34.18707,-66.1685 -44.11235,-88.2247 -9.92528,-22.0562 -10.47668,-39.1497 -11.57949,-55.1404 -1.10281,-15.9907 -0.5514,-65.6171 -0.5514,-65.6171 -17.43867,21.8013 -39.0713,53.852 -33.59831,90.393 2.75703,15.4393 6.57949,37.5328 6.57949,37.5328 0,0 -27.57021,-31.9814 -31.43004,-75.5424 -3.85984,-43.561 0.5514,-53.4862 2.75702,-62.8601 2.20561,-9.3739 6.77478,-29.6773 24.26179,-52.3834 17.48701,-22.7061 66.52547,-63.8986 85.46767,-114.6921 14.61685,-38.4674 17.64494,-52.9348 22.05617,-80.505 4.41124,-27.5702 9.92528,-166.5241 11.57949,-181.4121 1.65421,-14.8879 8.27107,-47.9721 30.87863,-78.2994 22.60759,-30.3272 86.57051,-95.3929 86.57051,-95.3929 z"
       id="path3355"
       inkscape:connector-curvature="0"
       sodipodi:nodetypes="cscszcsscssscccsszczssc" />
    <path
       style="fill:#ff961a;fill-opacity:1;fill-rule:evenodd;stroke:none;stroke-width:1px;stroke-linecap:butt;stroke-linejoin:miter;stroke-opacity:1"
       d="m 796.99829,1243.0899 c 0,0 8.2711,31.43 7.1683,48.5236 -1.1028,17.0935 2.757,115.7949 -4.4112,150.5334 -7.1683,34.7384 -13.7852,110.2808 -13.7852,110.2808 0,0 25.9161,19.2991 33.6357,40.2525 7.7197,20.9534 14.3365,38.5983 22.0562,56.2432 7.7197,17.645 12.1309,59.5517 12.1309,59.5517 0,0 18.7477,-39.7011 23.159,-56.2432 4.4112,-16.5421 24.2618,-51.832 25.3646,-78.2994 1.1028,-26.4674 2.2056,-37.4955 2.2056,-62.8601 0,-25.3646 9.9253,-65.0657 -5.5141,-99.2528 -15.4393,-34.1871 -19.8505,-62.8601 -46.3179,-100.3556 -26.4674,-37.4955 -55.6919,-68.3741 -55.6919,-68.3741 z"
       id="path3361"
       inkscape:connector-curvature="0" />
    <path
       style="fill:#ff961a;fill-opacity:1;fill-rule:evenodd;stroke:none;stroke-width:1px;stroke-linecap:butt;stroke-linejoin:miter;stroke-opacity:1"
       d="m 830.98429,1754.7975 c 0,0 -17.9952,24.8088 -21.8551,34.7341 -3.8598,9.9252 -14.8879,31.43 -15.9907,41.3553 -1.1028,9.9253 -12.1309,43.0095 -11.0281,52.3834 1.1028,9.3739 6.6169,28.1216 8.8225,30.3273 2.2056,2.2056 8.4434,9.0292 8.4434,9.0292 l -0.034,-0.034 24.6752,35.6688 22.0561,22.6076 19.2992,22.0562 3.8598,-44.6638 -10.4767,-47.9722 -21.5047,-52.9348 c 0,0 -20.9534,-39.7011 -20.9534,-51.832 0,-12.1309 14.6868,-50.7248 14.6868,-50.7248 z"
       id="path3365"
       inkscape:connector-curvature="0" />
    <path
       style="fill:#ff7a0a;fill-opacity:1;fill-rule:evenodd;stroke:none;stroke-width:1px;stroke-linecap:butt;stroke-linejoin:miter;stroke-opacity:1"
       d="m 906.99079,1475.7375 c 0,0 6.3359,32.4471 7.8955,42.1947 1.5596,9.7475 5.0687,24.1739 4.6788,37.4305 -0.3899,13.2567 0,32.7518 -2.7293,45.6185 -2.7293,12.8668 -3.4911,52.3535 -10.108,75.5125 -6.6169,23.159 -17.6449,40.8039 -26.4674,80.505 -8.8225,39.7011 -13.2337,82.7107 -12.1309,92.6359 1.1028,9.9253 2.2056,56.2433 7.7196,72.7854 5.5141,16.5422 4.4113,35.2899 11.0281,51.832 6.6169,16.5422 16.5422,48.5236 22.0562,57.3461 5.5141,8.8224 18.7478,28.1216 18.7478,28.1216 0,0 -60.1031,-10.4767 -90.4303,-60.6545 -30.3273,-50.1778 -38.0469,-76.6452 -38.0469,-76.6452 0,0 18.1963,21.5048 24.2618,25.3646 6.0654,3.8598 21.5047,12.6823 25.3646,13.2337 3.8598,0.5514 11.028,0.5514 11.028,0.5514 0,0 -11.028,-10.4767 -23.1589,-50.1778 -12.1309,-39.7011 -20.402,-81.0564 -20.9534,-95.3929 -0.5514,-14.3365 7.7197,-46.8694 18.7477,-68.3741 11.0281,-21.5048 19.3119,-39.4816 19.3119,-39.4816 l 0,-0.012 c 0,0 23.65,-53.5384 23.7475,-58.2172 0.097,-4.6788 12.7693,-30.9972 13.3541,-32.8492 0.5849,-1.8521 10.9957,-26.8658 11.4093,-43.5458 0.4135,-16.68 2.757,-57.6218 2.2056,-59.6895 -0.5514,-2.0678 1.9299,-31.5679 2.0678,-33.2221 0.1378,-1.6542 0.4008,-4.8698 0.4008,-4.8698 z"
       id="path3363"
       inkscape:connector-curvature="0" />
    <ellipse
       style="fill:#5fd3bc;fill-rule:evenodd;stroke:none;stroke-width:1px;stroke-linecap:butt;stroke-linejoin:miter;stroke-opacity:1"
       id="path3371"
       cx="1428.9717"
       cy="2094.7917"
       rx="12.866757"
       ry="12.476855" />
    <ellipse
       style="fill:#5fd3bc;fill-rule:evenodd;stroke:none;stroke-width:1px;stroke-linecap:butt;stroke-linejoin:miter;stroke-opacity:1"
       id="path3373"
       cx="1287.6323"
       cy="2177.3533"
       rx="14.036463"
       ry="13.549086" />
    <circle
       style="fill:#5fd3bc;fill-rule:evenodd;stroke:none;stroke-width:1px;stroke-linecap:butt;stroke-linejoin:miter;stroke-opacity:1"
       id="path3375"
       cx="1532.0892"
       cy="1980.593"
       r="5.0315642" />
    <circle
       style="fill:#5fd3bc;fill-rule:evenodd;stroke:none;stroke-width:1px;stroke-linecap:butt;stroke-linejoin:miter;stroke-opacity:1"
       id="path3377"
       cx="1362.6396"
       cy="1841.7944"
       r="5.6048374" />
    <circle
       style="fill:#5fd3bc;fill-rule:evenodd;stroke:none;stroke-width:1px;stroke-linecap:butt;stroke-linejoin:miter;stroke-opacity:1"
       id="path3381"
       cx="711.91797"
       cy="1991.5896"
       r="4.1670747" />
    <circle
       style="fill:#5fd3bc;fill-rule:evenodd;stroke:none;stroke-width:1px;stroke-linecap:butt;stroke-linejoin:miter;stroke-opacity:1"
       id="path3383"
       cx="784.10925"
       cy="2161.7986"
       r="10.545608" />
    <circle
       style="fill:#5fd3bc;fill-rule:evenodd;stroke:none;stroke-width:1px;stroke-linecap:butt;stroke-linejoin:miter;stroke-opacity:1"
       id="path3385"
       cx="651.42761"
       cy="2248.7136"
       r="6.0654473" />
    <circle
       style="fill:#5fd3bc;fill-rule:evenodd;stroke:none;stroke-width:1px;stroke-linecap:butt;stroke-linejoin:miter;stroke-opacity:1"
       id="path3387"
       cx="904.24646"
       cy="2326.5994"
       r="10.20098" />
    <circle
       style="fill:#5fd3bc;fill-rule:evenodd;stroke:none;stroke-width:1px;stroke-linecap:butt;stroke-linejoin:miter;stroke-opacity:1"
       id="path3389"
       cx="1057.1516"
       cy="2326.9294"
       r="13.110446" />
    <circle
       style="fill:#5fd3bc;fill-rule:evenodd;stroke:none;stroke-width:1px;stroke-linecap:butt;stroke-linejoin:miter;stroke-opacity:1"
       id="path3391"
       cx="1250.3905"
       cy="2393.1814"
       r="11.717342" />
    <circle
       style="fill:#5fd3bc;fill-rule:evenodd;stroke:none;stroke-width:1px;stroke-linecap:butt;stroke-linejoin:miter;stroke-opacity:1"
       id="path3393"
       cx="1174.2968"
       cy="2287.5876"
       r="7.306107" />
    <circle
       style="fill:#5fd3bc;fill-rule:evenodd;stroke:none;stroke-width:1px;stroke-linecap:butt;stroke-linejoin:miter;stroke-opacity:1"
       id="path3395"
       cx="1128.1166"
       cy="2502.4973"
       r="15.990725" />
    <circle
       style="fill:#5fd3bc;fill-rule:evenodd;stroke:none;stroke-width:1px;stroke-linecap:butt;stroke-linejoin:miter;stroke-opacity:1"
       id="path3397"
       cx="1443.9829"
       cy="2412.3669"
       r="22.2244" />
    <circle
       style="fill:#5fd3bc;fill-rule:evenodd;stroke:none;stroke-width:1px;stroke-linecap:butt;stroke-linejoin:miter;stroke-opacity:1"
       id="path3399"
       cx="1114.0558"
       cy="1503.3528"
       r="9.9252777" />
    <path
       style="fill:#6c5353;fill-rule:evenodd;stroke:none;stroke-width:1px;stroke-linecap:butt;stroke-linejoin:miter;stroke-opacity:1"
       d="m 823.74149,1104.136 c 0,0 -3.3085,0.2757 -4.5491,2.3434 -1.2407,2.0678 -2.6192,5.3762 -2.4814,6.7548 0.1379,1.3785 2.7571,6.479 2.7571,6.479 0,0 23.2863,17.285 27.1854,21.9638 3.899,4.6788 48.3478,52.2468 53.8064,61.6045 5.4586,9.3576 61.6045,86.5582 65.5035,94.3562 3.899,7.798 35.09111,56.9257 37.43061,61.6045 2.3394,4.6788 0,9.1627 0,9.1627 0,0 -8.77281,3.899 -7.60311,7.0182 1.1697,3.1192 11.11221,16.9607 14.23141,17.9355 3.1192,0.9747 7.4081,2.3394 10.7223,0.7798 3.3141,-1.5596 5.2637,-3.7041 6.0435,-4.6788 0.7798,-0.9748 -1.7546,-3.8991 -1.7546,-3.8991 0,0 -71.43631,-123.1715 -78.05321,-133.0967 -6.6168,-9.9253 -68.9255,-92.636 -77.748,-99.8042 -8.8225,-7.1683 -45.4908,-48.5236 -45.4908,-48.5236 z"
       id="path3357"
       inkscape:connector-curvature="0" />
    <path
       style="fill:#6c5353;fill-rule:evenodd;stroke:none;stroke-width:1px;stroke-linecap:butt;stroke-linejoin:miter;stroke-opacity:1"
       d="m 761.15699,1013.7057 c 0,0 -12.6822,10.4767 11.3038,35.0142 23.9861,24.5374 30.8787,26.1917 35.2899,24.5374 4.4113,-1.6542 9.9253,-4.4112 8.8225,-8.8224 -1.1028,-4.4113 1.6542,-7.9954 -12.1309,-27.2945 -13.7851,-19.2992 -30.3273,-23.7104 -33.0843,-23.7104 -2.757,0 -10.201,0.2757 -10.201,0.2757 z"
       id="path3347"
       inkscape:connector-curvature="0" />
    <path
       style="display:inline;fill:#6c5353;fill-rule:evenodd;stroke:none;stroke-width:1px;stroke-linecap:butt;stroke-linejoin:miter;stroke-opacity:1"
       d="m 675.87699,1019.1276 c 0,0 12.6823,10.4767 -11.3038,35.0141 -23.98609,24.5375 -30.87865,26.1917 -35.28988,24.5375 -4.41124,-1.6542 -9.92527,-4.4112 -8.82247,-8.8224 1.1028,-4.4113 -1.65419,-7.9954 12.1309,-27.2945 13.78509,-19.2992 30.32726,-23.7104 33.08425,-23.7104 2.757,0 10.201,0.2757 10.201,0.2757 z"
       id="path3347-3"
       inkscape:connector-curvature="0" />
    <g
       transform="translate(58.79394,-36.970563)"
       style="font-style:normal;font-weight:normal;font-size:625px;line-height:125%;font-family:sans-serif;letter-spacing:0px;word-spacing:0px;fill:#000000;fill-opacity:1;stroke:none;stroke-width:1px;stroke-linecap:butt;stroke-linejoin:miter;stroke-opacity:1"
       id="flowRoot4265" />
  </g>
  <g
     inkscape:groupmode="layer"
     id="layer1"
     inkscape:label="Vector"
     style="display:inline"
     transform="translate(-271.43841,-905.39238)">
    <path
       style="fill:#6c5353;fill-rule:evenodd;stroke:none;stroke-width:1px;stroke-linecap:butt;stroke-linejoin:miter;stroke-opacity:1"
       d="m 630.74536,1089.8201 c 0,0 4.09397,-2.9243 5.75105,-1.7546 1.65708,1.1697 3.41164,3.9965 3.41164,3.9965 l 0.0975,1.3647 c 0,0 -4.87378,2.3394 -6.92076,4.2889 -2.04698,1.9495 -75.94732,83.617 -91.38664,108.9816 -15.43932,25.3646 -33.08426,56.2433 -44.11234,73.8882 -11.02809,17.6449 -35.28988,68.3741 -35.28988,68.3741 0,0 -5.23834,12.5445 -8.27107,15.9908 -3.03272,3.4462 -9.37387,12.2687 -12.82015,11.8551 -3.44627,-0.4135 -3.44627,0.965 -7.30611,0.5514 -3.85982,-0.4135 -12.13089,-7.7196 -12.13089,-7.7196 0,0 -1.10281,-2.6192 7.16826,-10.8902 8.27106,-8.2711 14.75006,-15.0258 18.05849,-17.5071 3.30843,-2.4814 12.958,-8.5468 14.61221,-12.4066 1.65421,-3.8599 7.30611,-17.2314 8.40892,-18.3342 1.10281,-1.1029 52.93481,-94.9794 73.88818,-123.6525 20.95336,-28.673 57.34605,-62.8601 62.86008,-69.4769 5.51407,-6.6169 23.98153,-27.5496 23.98153,-27.5496 z"
       id="path3343"
       inkscape:connector-curvature="0" />
  </g>
</svg>
