<?xml version="1.0" encoding="UTF-8" standalone="no"?>
<!DOCTYPE svg PUBLIC "-//W3C//DTD SVG 1.1//EN"
 "http://www.w3.org/Graphics/SVG/1.1/DTD/svg11.dtd">
<!-- Generated by graphviz version 2.40.1 (20161225.0304)
 -->
<!-- Title: lib/core/include/chi/BitcodeParser.hpp Pages: 1 -->
<svg width="592pt" height="106pt"
 viewBox="0.00 0.00 592.00 106.00" xmlns="http://www.w3.org/2000/svg" xmlns:xlink="http://www.w3.org/1999/xlink">
<g id="graph0" class="graph" transform="scale(1 1) rotate(0) translate(4 102)">
<title>lib/core/include/chi/BitcodeParser.hpp</title>
<polygon fill="#ffffff" stroke="transparent" points="-4,4 -4,-102 588,-102 588,4 -4,4"/>
<!-- Node4 -->
<g id="node1" class="node">
<title>Node4</title>
<polygon fill="#bfbfbf" stroke="#000000" points="254,-67.5 254,-97.5 354,-97.5 354,-67.5 254,-67.5"/>
<text text-anchor="start" x="262" y="-85.5" font-family="Helvetica,sans-Serif" font-size="10.00" fill="#000000">lib/core/include/chi</text>
<text text-anchor="middle" x="304" y="-74.5" font-family="Helvetica,sans-Serif" font-size="10.00" fill="#000000">/BitcodeParser.hpp</text>
</g>
<!-- Node5 -->
<g id="node2" class="node">
<title>Node5</title>
<g id="a_node2"><a xlink:href="BitcodeParser_8cpp.html" target="_top" xlink:title="lib/core/src/BitcodeParser.cpp">
<polygon fill="#ffffff" stroke="#000000" points="0,-6 0,-25 148,-25 148,-6 0,-6"/>
<text text-anchor="middle" x="74" y="-13" font-family="Helvetica,sans-Serif" font-size="10.00" fill="#000000">lib/core/src/BitcodeParser.cpp</text>
</a>
</g>
</g>
<!-- Node4&#45;&gt;Node5 -->
<g id="edge1" class="edge">
<title>Node4&#45;&gt;Node5</title>
<path fill="none" stroke="#191970" d="M244.1142,-65.055C200.2533,-52.2781 142.3835,-35.4204 106.7063,-25.0275"/>
<polygon fill="#191970" stroke="#191970" points="243.2299,-68.4428 253.8097,-67.8794 245.1877,-61.7222 243.2299,-68.4428"/>
</g>
<!-- Node6 -->
<g id="node3" class="node">
<title>Node6</title>
<g id="a_node3"><a xlink:href="CCompiler_8cpp.html" target="_top" xlink:title="lib/core/src/CCompiler.cpp">
<polygon fill="#ffffff" stroke="#000000" points="166.5,-6 166.5,-25 297.5,-25 297.5,-6 166.5,-6"/>
<text text-anchor="middle" x="232" y="-13" font-family="Helvetica,sans-Serif" font-size="10.00" fill="#000000">lib/core/src/CCompiler.cpp</text>
</a>
</g>
</g>
<!-- Node4&#45;&gt;Node6 -->
<g id="edge2" class="edge">
<title>Node4&#45;&gt;Node6</title>
<path fill="none" stroke="#191970" d="M280.0393,-60.2032C267.2084,-48.2634 252.0715,-34.1776 242.268,-25.055"/>
<polygon fill="#191970" stroke="#191970" points="277.9571,-63.0466 287.6621,-67.2967 282.7257,-57.9221 277.9571,-63.0466"/>
</g>
<!-- Node7 -->
<g id="node4" class="node">
<title>Node7</title>
<g id="a_node4"><a xlink:href="Context_8cpp.html" target="_top" xlink:title="lib/core/src/Context.cpp">
<polygon fill="#ffffff" stroke="#000000" points="316,-6 316,-25 436,-25 436,-6 316,-6"/>
<text text-anchor="middle" x="376" y="-13" font-family="Helvetica,sans-Serif" font-size="10.00" fill="#000000">lib/core/src/Context.cpp</text>
</a>
</g>
</g>
<!-- Node4&#45;&gt;Node7 -->
<g id="edge3" class="edge">
<title>Node4&#45;&gt;Node7</title>
<path fill="none" stroke="#191970" d="M327.9607,-60.2032C340.7916,-48.2634 355.9285,-34.1776 365.732,-25.055"/>
<polygon fill="#191970" stroke="#191970" points="325.2743,-57.9221 320.3379,-67.2967 330.0429,-63.0466 325.2743,-57.9221"/>
</g>
<!-- Node8 -->
<g id="node5" class="node">
<title>Node8</title>
<g id="a_node5"><a xlink:href="DefaultModuleCache_8cpp.html" target="_top" xlink:title="lib/core/src/DefaultModule\lCache.cpp">
<polygon fill="#ffffff" stroke="#000000" points="454,-.5 454,-30.5 584,-30.5 584,-.5 454,-.5"/>
<text text-anchor="start" x="462" y="-18.5" font-family="Helvetica,sans-Serif" font-size="10.00" fill="#000000">lib/core/src/DefaultModule</text>
<text text-anchor="middle" x="519" y="-7.5" font-family="Helvetica,sans-Serif" font-size="10.00" fill="#000000">Cache.cpp</text>
</a>
</g>
</g>
<!-- Node4&#45;&gt;Node8 -->
<g id="edge4" class="edge">
<title>Node4&#45;&gt;Node8</title>
<path fill="none" stroke="#191970" d="M362.0426,-64.4123C396.0013,-53.8298 438.3798,-40.6235 470.5394,-30.6017"/>
<polygon fill="#191970" stroke="#191970" points="360.756,-61.1471 352.2502,-67.4639 362.8387,-67.8302 360.756,-61.1471"/>
</g>
</g>
</svg>
