<?xml version="1.0" encoding="UTF-8" standalone="no"?>
<!DOCTYPE svg PUBLIC "-//W3C//DTD SVG 1.1//EN"
 "http://www.w3.org/Graphics/SVG/1.1/DTD/svg11.dtd">
<!-- Generated by graphviz version 2.40.1 (20161225.0304)
 -->
<!-- Title: src/ChigModule.cpp Pages: 1 -->
<!--zoomable 196 -->
<svg id="main" version="1.1" xmlns="http://www.w3.org/2000/svg" xmlns:xlink="http://www.w3.org/1999/xlink" xml:space="preserve" onload="init(evt)">
<style type="text/css"><![CDATA[
.edge:hover path { stroke: red; }
.edge:hover polygon { stroke: red; fill: red; }
]]></style>
<script type="text/javascript"><![CDATA[
var edges = document.getElementsByTagName('g');
if (edges && edges.length) {
  for (var i=0;i<edges.length;i++) {
    if (edges[i].id.substr(0,4)=='edge') {
      edges[i].setAttribute('class','edge');
    }
  }
}
]]></script>
        <defs>
                <circle id="rim" cx="0" cy="0" r="7"/>
                <circle id="rim2" cx="0" cy="0" r="3.5"/>
                <g id="zoomPlus">
                        <use xlink:href="#rim" fill="#404040">
                                <set attributeName="fill" to="#808080" begin="zoomplus.mouseover" end="zoomplus.mouseout"/>
                        </use>
                        <path d="M-4,0h8M0,-4v8" fill="none" stroke="white" stroke-width="1.5" pointer-events="none"/>
                </g>
                <g id="zoomMin">
                        <use xlink:href="#rim" fill="#404040">
                                <set attributeName="fill" to="#808080" begin="zoomminus.mouseover" end="zoomminus.mouseout"/>
                        </use>
                        <path d="M-4,0h8" fill="none" stroke="white" stroke-width="1.5" pointer-events="none"/>
                </g>
                <g id="dirArrow">
                        <path fill="none" stroke="white" stroke-width="1.5" d="M0,-3.0v7 M-2.5,-0.5L0,-3.0L2.5,-0.5"/>
                </g>
               <g id="resetDef">
                       <use xlink:href="#rim2" fill="#404040">
                               <set attributeName="fill" to="#808080" begin="reset.mouseover" end="reset.mouseout"/>
                       </use>
               </g>
        </defs>

<script type="text/javascript">
var viewWidth = 1200;
var viewHeight = 196;
var sectionId = 'dynsection-0';
</script>
<script xlink:href="svgpan.js"/>
<svg id="graph" class="graph">
<g id="viewport">
<title>src/ChigModule.cpp</title>
<polygon fill="#ffffff" stroke="transparent" points="-4,4 -4,-192 1195.5,-192 1195.5,4 -4,4"/>
<!-- Node0 -->
<g id="node1" class="node">
<title>Node0</title>
<polygon fill="#bfbfbf" stroke="#000000" points="242,-168.5 242,-187.5 345,-187.5 345,-168.5 242,-168.5"/>
<text text-anchor="middle" x="293.5" y="-175.5" font-family="Helvetica,sans-Serif" font-size="10.00" fill="#000000">src/ChigModule.cpp</text>
</g>
<!-- Node1 -->
<g id="node2" class="node">
<title>Node1</title>
<g id="a_node2"><a xlink:href="ChigModule_8hpp.html" target="_top" xlink:title="Defines the ChigModule class. ">
<polygon fill="#ffffff" stroke="#000000" points="240,-112.5 240,-131.5 347,-131.5 347,-112.5 240,-112.5"/>
<text text-anchor="middle" x="293.5" y="-119.5" font-family="Helvetica,sans-Serif" font-size="10.00" fill="#000000">chig/ChigModule.hpp</text>
</a>
</g>
</g>
<!-- Node0&#45;&gt;Node1 -->
<g id="edge1" class="edge">
<title>Node0&#45;&gt;Node1</title>
<path fill="none" stroke="#191970" d="M293.5,-168.2455C293.5,-160.9382 293.5,-150.6944 293.5,-141.7046"/>
<polygon fill="#191970" stroke="#191970" points="297.0001,-141.6426 293.5,-131.6427 290.0001,-141.6427 297.0001,-141.6426"/>
</g>
<!-- Node9 -->
<g id="node10" class="node">
<title>Node9</title>
<g id="a_node10"><a xlink:href="Context_8hpp.html" target="_top" xlink:title="Defines the Context class and related functions. ">
<polygon fill="#ffffff" stroke="#000000" points="455.5,-112.5 455.5,-131.5 545.5,-131.5 545.5,-112.5 455.5,-112.5"/>
<text text-anchor="middle" x="500.5" y="-119.5" font-family="Helvetica,sans-Serif" font-size="10.00" fill="#000000">chig/Context.hpp</text>
</a>
</g>
</g>
<!-- Node0&#45;&gt;Node9 -->
<g id="edge9" class="edge">
<title>Node0&#45;&gt;Node9</title>
<path fill="none" stroke="#191970" d="M329.0846,-168.3733C364.1016,-158.9001 417.6881,-144.4032 455.6125,-134.1435"/>
<polygon fill="#191970" stroke="#191970" points="456.6408,-137.4912 465.3798,-131.5011 454.8127,-130.7341 456.6408,-137.4912"/>
</g>
<!-- Node16 -->
<g id="node17" class="node">
<title>Node16</title>
<g id="a_node17"><a xlink:href="Result_8hpp.html" target="_top" xlink:title="Defines the Result class and related functions. ">
<polygon fill="#ffffff" stroke="#000000" points="117.5,-112.5 117.5,-131.5 201.5,-131.5 201.5,-112.5 117.5,-112.5"/>
<text text-anchor="middle" x="159.5" y="-119.5" font-family="Helvetica,sans-Serif" font-size="10.00" fill="#000000">chig/Result.hpp</text>
</a>
</g>
</g>
<!-- Node0&#45;&gt;Node16 -->
<g id="edge22" class="edge">
<title>Node0&#45;&gt;Node16</title>
<path fill="none" stroke="#191970" d="M270.4646,-168.3733C248.7612,-159.3032 216.0382,-145.6279 191.745,-135.4755"/>
<polygon fill="#191970" stroke="#191970" points="192.8111,-132.1278 182.2348,-131.5011 190.1119,-138.5865 192.8111,-132.1278"/>
</g>
<!-- Node2 -->
<g id="node3" class="node">
<title>Node2</title>
<g id="a_node3"><a xlink:href="Fwd_8hpp.html" target="_top" xlink:title="Forward declares all the chigraph data types. ">
<polygon fill="#ffffff" stroke="#000000" points="267.5,-56.5 267.5,-75.5 341.5,-75.5 341.5,-56.5 267.5,-56.5"/>
<text text-anchor="middle" x="304.5" y="-63.5" font-family="Helvetica,sans-Serif" font-size="10.00" fill="#000000">chig/Fwd.hpp</text>
</a>
</g>
</g>
<!-- Node1&#45;&gt;Node2 -->
<g id="edge2" class="edge">
<title>Node1&#45;&gt;Node2</title>
<path fill="none" stroke="#191970" d="M295.4161,-112.2455C296.8514,-104.9382 298.8636,-94.6944 300.6295,-85.7046"/>
<polygon fill="#191970" stroke="#191970" points="304.1127,-86.1298 302.6059,-75.6427 297.244,-84.7805 304.1127,-86.1298"/>
</g>
<!-- Node3 -->
<g id="node4" class="node">
<title>Node3</title>
<g id="a_node4"><a xlink:href="ToString_8hpp_source.html" target="_top" xlink:title="chig/ToString.hpp">
<polygon fill="#ffffff" stroke="#000000" points="0,-56.5 0,-75.5 93,-75.5 93,-56.5 0,-56.5"/>
<text text-anchor="middle" x="46.5" y="-63.5" font-family="Helvetica,sans-Serif" font-size="10.00" fill="#000000">chig/ToString.hpp</text>
</a>
</g>
</g>
<!-- Node1&#45;&gt;Node3 -->
<g id="edge3" class="edge">
<title>Node1&#45;&gt;Node3</title>
<path fill="none" stroke="#191970" d="M251.3198,-112.4369C209.0477,-102.8529 143.8938,-88.0812 98.4583,-77.78"/>
<polygon fill="#191970" stroke="#191970" points="99.0326,-74.3215 88.5062,-75.5237 97.4848,-81.1482 99.0326,-74.3215"/>
</g>
<!-- Node5 -->
<g id="node6" class="node">
<title>Node5</title>
<polygon fill="#ffffff" stroke="#bfbfbf" points="111.5,-56.5 111.5,-75.5 185.5,-75.5 185.5,-56.5 111.5,-56.5"/>
<text text-anchor="middle" x="148.5" y="-63.5" font-family="Helvetica,sans-Serif" font-size="10.00" fill="#000000">chig/json.hpp</text>
</g>
<!-- Node1&#45;&gt;Node5 -->
<g id="edge5" class="edge">
<title>Node1&#45;&gt;Node5</title>
<path fill="none" stroke="#191970" d="M268.5736,-112.3733C244.8798,-103.2226 209.0489,-89.3844 182.6932,-79.2057"/>
<polygon fill="#191970" stroke="#191970" points="183.6906,-75.8389 173.1011,-75.5011 181.1686,-82.3689 183.6906,-75.8389"/>
</g>
<!-- Node6 -->
<g id="node7" class="node">
<title>Node6</title>
<polygon fill="#ffffff" stroke="#bfbfbf" points="204,-56.5 204,-75.5 249,-75.5 249,-56.5 204,-56.5"/>
<text text-anchor="middle" x="226.5" y="-63.5" font-family="Helvetica,sans-Serif" font-size="10.00" fill="#000000">gsl/gsl</text>
</g>
<!-- Node1&#45;&gt;Node6 -->
<g id="edge6" class="edge">
<title>Node1&#45;&gt;Node6</title>
<path fill="none" stroke="#191970" d="M281.8295,-112.2455C271.9339,-103.9746 257.5373,-91.9416 245.9099,-82.2232"/>
<polygon fill="#191970" stroke="#191970" points="247.9542,-79.3703 238.0368,-75.6427 243.465,-84.7413 247.9542,-79.3703"/>
</g>
<!-- Node7 -->
<g id="node8" class="node">
<title>Node7</title>
<polygon fill="#ffffff" stroke="#bfbfbf" points="359.5,-56.5 359.5,-75.5 437.5,-75.5 437.5,-56.5 359.5,-56.5"/>
<text text-anchor="middle" x="398.5" y="-63.5" font-family="Helvetica,sans-Serif" font-size="10.00" fill="#000000">unordered_set</text>
</g>
<!-- Node1&#45;&gt;Node7 -->
<g id="edge7" class="edge">
<title>Node1&#45;&gt;Node7</title>
<path fill="none" stroke="#191970" d="M311.7896,-112.2455C328.2762,-103.4527 352.7352,-90.4079 371.4765,-80.4125"/>
<polygon fill="#191970" stroke="#191970" points="373.2435,-83.4368 380.42,-75.6427 369.9494,-77.2604 373.2435,-83.4368"/>
</g>
<!-- Node8 -->
<g id="node9" class="node">
<title>Node8</title>
<polygon fill="#ffffff" stroke="#bfbfbf" points="455.5,-56.5 455.5,-75.5 545.5,-75.5 545.5,-56.5 455.5,-56.5"/>
<text text-anchor="middle" x="500.5" y="-63.5" font-family="Helvetica,sans-Serif" font-size="10.00" fill="#000000">llvm/IR/Module.h</text>
</g>
<!-- Node1&#45;&gt;Node8 -->
<g id="edge8" class="edge">
<title>Node1&#45;&gt;Node8</title>
<path fill="none" stroke="#191970" d="M329.0846,-112.3733C364.1016,-102.9001 417.6881,-88.4032 455.6125,-78.1435"/>
<polygon fill="#191970" stroke="#191970" points="456.6408,-81.4912 465.3798,-75.5011 454.8127,-74.7341 456.6408,-81.4912"/>
</g>
<!-- Node4 -->
<g id="node5" class="node">
<title>Node4</title>
<polygon fill="#ffffff" stroke="#bfbfbf" points="20.5,-.5 20.5,-19.5 72.5,-19.5 72.5,-.5 20.5,-.5"/>
<text text-anchor="middle" x="46.5" y="-7.5" font-family="Helvetica,sans-Serif" font-size="10.00" fill="#000000">sstream</text>
</g>
<!-- Node3&#45;&gt;Node4 -->
<g id="edge4" class="edge">
<title>Node3&#45;&gt;Node4</title>
<path fill="none" stroke="#191970" d="M46.5,-56.2455C46.5,-48.9382 46.5,-38.6944 46.5,-29.7046"/>
<polygon fill="#191970" stroke="#191970" points="50.0001,-29.6426 46.5,-19.6427 43.0001,-29.6427 50.0001,-29.6426"/>
</g>
<!-- Node9&#45;&gt;Node2 -->
<g id="edge13" class="edge">
<title>Node9&#45;&gt;Node2</title>
<path fill="none" stroke="#191970" d="M466.8064,-112.3733C433.7913,-102.9404 383.3427,-88.5265 347.4614,-78.2747"/>
<polygon fill="#191970" stroke="#191970" points="348.3307,-74.8831 337.7539,-75.5011 346.4076,-81.6137 348.3307,-74.8831"/>
</g>
<!-- Node9&#45;&gt;Node3 -->
<g id="edge14" class="edge">
<title>Node9&#45;&gt;Node3</title>
<path fill="none" stroke="#191970" d="M455.3178,-117.6938C383.1815,-110.6184 237.3319,-95.4938 103.2579,-76.0333"/>
<polygon fill="#191970" stroke="#191970" points="103.6171,-72.5487 93.2158,-74.5642 102.6038,-79.4749 103.6171,-72.5487"/>
</g>
<!-- Node9&#45;&gt;Node5 -->
<g id="edge15" class="edge">
<title>Node9&#45;&gt;Node5</title>
<path fill="none" stroke="#191970" d="M455.4973,-116.165C397.6821,-108.4634 294.0097,-93.9622 195.7211,-76.1334"/>
<polygon fill="#191970" stroke="#191970" points="196.0821,-72.6414 185.6155,-74.2849 194.8225,-79.5272 196.0821,-72.6414"/>
</g>
<!-- Node9&#45;&gt;Node6 -->
<g id="edge19" class="edge">
<title>Node9&#45;&gt;Node6</title>
<path fill="none" stroke="#191970" d="M455.1139,-114.9755C408.3294,-107.3788 333.1376,-94.1812 259.0973,-75.9174"/>
<polygon fill="#191970" stroke="#191970" points="259.6845,-72.4566 249.1342,-73.4268 257.9868,-79.2476 259.6845,-72.4566"/>
</g>
<!-- Node9&#45;&gt;Node7 -->
<g id="edge12" class="edge">
<title>Node9&#45;&gt;Node7</title>
<path fill="none" stroke="#191970" d="M482.733,-112.2455C466.7905,-103.4928 443.1741,-90.527 425.0011,-80.5496"/>
<polygon fill="#191970" stroke="#191970" points="426.5137,-77.3873 416.0634,-75.6427 423.1448,-83.5233 426.5137,-77.3873"/>
</g>
<!-- Node9&#45;&gt;Node8 -->
<g id="edge17" class="edge">
<title>Node9&#45;&gt;Node8</title>
<path fill="none" stroke="#191970" d="M500.5,-112.2455C500.5,-104.9382 500.5,-94.6944 500.5,-85.7046"/>
<polygon fill="#191970" stroke="#191970" points="504.0001,-85.6426 500.5,-75.6427 497.0001,-85.6427 504.0001,-85.6426"/>
</g>
<!-- Node10 -->
<g id="node11" class="node">
<title>Node10</title>
<polygon fill="#ffffff" stroke="#bfbfbf" points="563.5,-56.5 563.5,-75.5 615.5,-75.5 615.5,-56.5 563.5,-56.5"/>
<text text-anchor="middle" x="589.5" y="-63.5" font-family="Helvetica,sans-Serif" font-size="10.00" fill="#000000">memory</text>
</g>
<!-- Node9&#45;&gt;Node10 -->
<g id="edge10" class="edge">
<title>Node9&#45;&gt;Node10</title>
<path fill="none" stroke="#191970" d="M516.0026,-112.2455C529.658,-103.6534 549.7657,-91.0014 565.4989,-81.1018"/>
<polygon fill="#191970" stroke="#191970" points="567.5751,-83.9307 574.175,-75.6427 563.8471,-78.006 567.5751,-83.9307"/>
</g>
<!-- Node11 -->
<g id="node12" class="node">
<title>Node11</title>
<polygon fill="#ffffff" stroke="#bfbfbf" points="634,-56.5 634,-75.5 717,-75.5 717,-56.5 634,-56.5"/>
<text text-anchor="middle" x="675.5" y="-63.5" font-family="Helvetica,sans-Serif" font-size="10.00" fill="#000000">unordered_map</text>
</g>
<!-- Node9&#45;&gt;Node11 -->
<g id="edge11" class="edge">
<title>Node9&#45;&gt;Node11</title>
<path fill="none" stroke="#191970" d="M530.5836,-112.3733C559.6834,-103.0613 603.9523,-88.8953 635.903,-78.671"/>
<polygon fill="#191970" stroke="#191970" points="637.3515,-81.8824 645.809,-75.5011 635.218,-75.2155 637.3515,-81.8824"/>
</g>
<!-- Node12 -->
<g id="node13" class="node">
<title>Node12</title>
<polygon fill="#ffffff" stroke="#bfbfbf" points="735.5,-56.5 735.5,-75.5 853.5,-75.5 853.5,-56.5 735.5,-56.5"/>
<text text-anchor="middle" x="794.5" y="-63.5" font-family="Helvetica,sans-Serif" font-size="10.00" fill="#000000">llvm/IR/LLVMContext.h</text>
</g>
<!-- Node9&#45;&gt;Node12 -->
<g id="edge16" class="edge">
<title>Node9&#45;&gt;Node12</title>
<path fill="none" stroke="#191970" d="M545.7932,-113.3727C596.3635,-103.7403 678.4319,-88.1082 734.3539,-77.4564"/>
<polygon fill="#191970" stroke="#191970" points="735.3095,-80.8374 744.478,-75.528 733.9996,-73.961 735.3095,-80.8374"/>
</g>
<!-- Node13 -->
<g id="node14" class="node">
<title>Node13</title>
<polygon fill="#ffffff" stroke="#bfbfbf" points="871.5,-56.5 871.5,-75.5 951.5,-75.5 951.5,-56.5 871.5,-56.5"/>
<text text-anchor="middle" x="911.5" y="-63.5" font-family="Helvetica,sans-Serif" font-size="10.00" fill="#000000">llvm/IR/Type.h</text>
</g>
<!-- Node9&#45;&gt;Node13 -->
<g id="edge18" class="edge">
<title>Node9&#45;&gt;Node13</title>
<path fill="none" stroke="#191970" d="M545.5232,-117.3759C612.2622,-110.2809 741.5787,-95.6133 861.3564,-76.0894"/>
<polygon fill="#191970" stroke="#191970" points="862.1349,-79.5084 871.434,-74.4313 860.9984,-72.6013 862.1349,-79.5084"/>
</g>
<!-- Node14 -->
<g id="node15" class="node">
<title>Node14</title>
<polygon fill="#ffffff" stroke="#bfbfbf" points="970,-56.5 970,-75.5 1077,-75.5 1077,-56.5 970,-56.5"/>
<text text-anchor="middle" x="1023.5" y="-63.5" font-family="Helvetica,sans-Serif" font-size="10.00" fill="#000000">boost/filesystem.hpp</text>
</g>
<!-- Node9&#45;&gt;Node14 -->
<g id="edge20" class="edge">
<title>Node9&#45;&gt;Node14</title>
<path fill="none" stroke="#191970" d="M545.6513,-118.3561C626.4913,-111.6422 801.4977,-96.2478 959.9822,-75.9996"/>
<polygon fill="#191970" stroke="#191970" points="960.4427,-79.4693 969.9141,-74.7214 959.5491,-72.5265 960.4427,-79.4693"/>
</g>
<!-- Node15 -->
<g id="node16" class="node">
<title>Node15</title>
<polygon fill="#ffffff" stroke="#bfbfbf" points="1095.5,-56.5 1095.5,-75.5 1191.5,-75.5 1191.5,-56.5 1095.5,-56.5"/>
<text text-anchor="middle" x="1143.5" y="-63.5" font-family="Helvetica,sans-Serif" font-size="10.00" fill="#000000">boost/optional.hpp</text>
</g>
<!-- Node9&#45;&gt;Node15 -->
<g id="edge21" class="edge">
<title>Node9&#45;&gt;Node15</title>
<path fill="none" stroke="#191970" d="M545.867,-119.915C642.9223,-115.1362 878.0531,-101.8619 1085.193,-76.0583"/>
<polygon fill="#191970" stroke="#191970" points="1085.8622,-79.5017 1095.3469,-74.7804 1084.9881,-72.5565 1085.8622,-79.5017"/>
</g>
<!-- Node16&#45;&gt;Node3 -->
<g id="edge23" class="edge">
<title>Node16&#45;&gt;Node3</title>
<path fill="none" stroke="#191970" d="M140.0746,-112.3733C122.0979,-103.4644 95.1559,-90.1127 74.791,-80.0203"/>
<polygon fill="#191970" stroke="#191970" points="76.1861,-76.8055 65.6719,-75.5011 73.0778,-83.0776 76.1861,-76.8055"/>
</g>
<!-- Node16&#45;&gt;Node5 -->
<g id="edge24" class="edge">
<title>Node16&#45;&gt;Node5</title>
<path fill="none" stroke="#191970" d="M157.5839,-112.2455C156.1486,-104.9382 154.1364,-94.6944 152.3705,-85.7046"/>
<polygon fill="#191970" stroke="#191970" points="155.756,-84.7805 150.3941,-75.6427 148.8873,-86.1298 155.756,-84.7805"/>
</g>
<!-- Node16&#45;&gt;Node6 -->
<g id="edge25" class="edge">
<title>Node16&#45;&gt;Node6</title>
<path fill="none" stroke="#191970" d="M171.1705,-112.2455C181.0661,-103.9746 195.4627,-91.9416 207.0901,-82.2232"/>
<polygon fill="#191970" stroke="#191970" points="209.535,-84.7413 214.9632,-75.6427 205.0458,-79.3703 209.535,-84.7413"/>
</g>
</g>
</svg>
        <g id="navigator" transform="translate(0 0)" fill="#404254">
                <rect fill="#f2f5e9" fill-opacity="0.5" stroke="#606060" stroke-width=".5" x="0" y="0" width="60" height="60"/>
                <use id="zoomplus" xlink:href="#zoomPlus" x="17" y="9" onmousedown="handleZoom(evt,'in')"/>
                <use id="zoomminus" xlink:href="#zoomMin" x="42" y="9" onmousedown="handleZoom(evt,'out')"/>
                <use id="reset" xlink:href="#resetDef" x="30" y="36" onmousedown="handleReset()"/>
                <g id="arrowUp" xlink:href="#dirArrow" transform="translate(30 24)" onmousedown="handlePan(0,-1)">
                  <use xlink:href="#rim" fill="#404040">
                        <set attributeName="fill" to="#808080" begin="arrowUp.mouseover" end="arrowUp.mouseout"/>
                  </use>
                  <path fill="none" stroke="white" stroke-width="1.5" d="M0,-3.0v7 M-2.5,-0.5L0,-3.0L2.5,-0.5"/>
                </g>
                <g id="arrowRight" xlink:href="#dirArrow" transform="rotate(90) translate(36 -43)" onmousedown="handlePan(1,0)">
                  <use xlink:href="#rim" fill="#404040">
                        <set attributeName="fill" to="#808080" begin="arrowRight.mouseover" end="arrowRight.mouseout"/>
                  </use>
                  <path fill="none" stroke="white" stroke-width="1.5" d="M0,-3.0v7 M-2.5,-0.5L0,-3.0L2.5,-0.5"/>
                </g>
                <g id="arrowDown" xlink:href="#dirArrow" transform="rotate(180) translate(-30 -48)" onmousedown="handlePan(0,1)">
                  <use xlink:href="#rim" fill="#404040">
                        <set attributeName="fill" to="#808080" begin="arrowDown.mouseover" end="arrowDown.mouseout"/>
                  </use>
                  <path fill="none" stroke="white" stroke-width="1.5" d="M0,-3.0v7 M-2.5,-0.5L0,-3.0L2.5,-0.5"/>
                </g>
                <g id="arrowLeft" xlink:href="#dirArrow" transform="rotate(270) translate(-36 17)" onmousedown="handlePan(-1,0)">
                  <use xlink:href="#rim" fill="#404040">
                        <set attributeName="fill" to="#808080" begin="arrowLeft.mouseover" end="arrowLeft.mouseout"/>
                  </use>
                  <path fill="none" stroke="white" stroke-width="1.5" d="M0,-3.0v7 M-2.5,-0.5L0,-3.0L2.5,-0.5"/>
                </g>
        </g>
        <svg viewBox="0 0 15 15" width="100%" height="30px" preserveAspectRatio="xMaxYMin meet">
         <g id="arrow_out" transform="scale(0.3 0.3)">
          <a xlink:href="ChigModule_8cpp__incl_org.svg" target="_base">
           <rect id="button" ry="5" rx="5" y="6" x="6" height="38" width="38"
                fill="#f2f5e9" fill-opacity="0.5" stroke="#606060" stroke-width="1.0"/>
           <path id="arrow"
             d="M 11.500037,31.436501 C 11.940474,20.09759 22.043105,11.32322 32.158766,21.979434 L 37.068811,17.246167 C 37.068811,17.246167 37.088388,32 37.088388,32 L 22.160133,31.978069 C 22.160133,31.978069 26.997745,27.140456 26.997745,27.140456 C 18.528582,18.264221 13.291696,25.230495 11.500037,31.436501 z"
             style="fill:#404040;"/>
          </a>
         </g>
        </svg>
</svg>
