<?xml version="1.0" encoding="UTF-8" standalone="no"?>
<!DOCTYPE svg PUBLIC "-//W3C//DTD SVG 1.1//EN"
 "http://www.w3.org/Graphics/SVG/1.1/DTD/svg11.dtd">
<!-- Generated by graphviz version 2.40.1 (20161225.0304)
 -->
<!-- Title: include/chig/ChigModule.hpp Pages: 1 -->
<!--zoomable 364 -->
<svg id="main" version="1.1" xmlns="http://www.w3.org/2000/svg" xmlns:xlink="http://www.w3.org/1999/xlink" xml:space="preserve" onload="init(evt)">
<style type="text/css"><![CDATA[
.edge:hover path { stroke: red; }
.edge:hover polygon { stroke: red; fill: red; }
]]></style>
<script type="text/javascript"><![CDATA[
var edges = document.getElementsByTagName('g');
if (edges && edges.length) {
  for (var i=0;i<edges.length;i++) {
    if (edges[i].id.substr(0,4)=='edge') {
      edges[i].setAttribute('class','edge');
    }
  }
}
]]></script>
        <defs>
                <circle id="rim" cx="0" cy="0" r="7"/>
                <circle id="rim2" cx="0" cy="0" r="3.5"/>
                <g id="zoomPlus">
                        <use xlink:href="#rim" fill="#404040">
                                <set attributeName="fill" to="#808080" begin="zoomplus.mouseover" end="zoomplus.mouseout"/>
                        </use>
                        <path d="M-4,0h8M0,-4v8" fill="none" stroke="white" stroke-width="1.5" pointer-events="none"/>
                </g>
                <g id="zoomMin">
                        <use xlink:href="#rim" fill="#404040">
                                <set attributeName="fill" to="#808080" begin="zoomminus.mouseover" end="zoomminus.mouseout"/>
                        </use>
                        <path d="M-4,0h8" fill="none" stroke="white" stroke-width="1.5" pointer-events="none"/>
                </g>
                <g id="dirArrow">
                        <path fill="none" stroke="white" stroke-width="1.5" d="M0,-3.0v7 M-2.5,-0.5L0,-3.0L2.5,-0.5"/>
                </g>
               <g id="resetDef">
                       <use xlink:href="#rim2" fill="#404040">
                               <set attributeName="fill" to="#808080" begin="reset.mouseover" end="reset.mouseout"/>
                       </use>
               </g>
        </defs>

<script type="text/javascript">
var viewWidth = 1080;
var viewHeight = 364;
var sectionId = 'dynsection-1';
</script>
<script xlink:href="svgpan.js"/>
<svg id="graph" class="graph">
<g id="viewport">
<title>include/chig/ChigModule.hpp</title>
<polygon fill="#ffffff" stroke="transparent" points="-4,4 -4,-360 1075.5,-360 1075.5,4 -4,4"/>
<!-- Node14 -->
<g id="node1" class="node">
<title>Node14</title>
<polygon fill="#bfbfbf" stroke="#000000" points="816,-336.5 816,-355.5 972,-355.5 972,-336.5 816,-336.5"/>
<text text-anchor="middle" x="894" y="-343.5" font-family="Helvetica,sans-Serif" font-size="10.00" fill="#000000">include/chig/ChigModule.hpp</text>
</g>
<!-- Node15 -->
<g id="node2" class="node">
<title>Node15</title>
<g id="a_node2"><a xlink:href="CModule_8hpp.html" target="_top" xlink:title="Defines the CModule class. ">
<polygon fill="#ffffff" stroke="#000000" points="718.5,-168.5 718.5,-187.5 859.5,-187.5 859.5,-168.5 718.5,-168.5"/>
<text text-anchor="middle" x="789" y="-175.5" font-family="Helvetica,sans-Serif" font-size="10.00" fill="#000000">include/chig/CModule.hpp</text>
</a>
</g>
</g>
<!-- Node14&#45;&gt;Node15 -->
<g id="edge1" class="edge">
<title>Node14&#45;&gt;Node15</title>
<path fill="none" stroke="#191970" d="M890.5192,-325.9638C887.6298,-312.4295 882.7217,-294.4628 875,-280 854.491,-241.5863 817.7242,-204.5835 799.6389,-187.636"/>
<polygon fill="#191970" stroke="#191970" points="887.1482,-326.9657 892.4889,-336.1159 894.0201,-325.6323 887.1482,-326.9657"/>
</g>
<!-- Node18 -->
<g id="node5" class="node">
<title>Node18</title>
<g id="a_node5"><a xlink:href="DataType_8hpp.html" target="_top" xlink:title="Defines the DataType class. ">
<polygon fill="#ffffff" stroke="#000000" points="720,-280.5 720,-299.5 866,-299.5 866,-280.5 720,-280.5"/>
<text text-anchor="middle" x="793" y="-287.5" font-family="Helvetica,sans-Serif" font-size="10.00" fill="#000000">include/chig/DataType.hpp</text>
</a>
</g>
</g>
<!-- Node14&#45;&gt;Node18 -->
<g id="edge4" class="edge">
<title>Node14&#45;&gt;Node18</title>
<path fill="none" stroke="#191970" d="M867.5281,-331.3225C849.4875,-321.3198 826.1123,-308.3593 810.3913,-299.6427"/>
<polygon fill="#191970" stroke="#191970" points="865.9643,-334.4574 876.4071,-336.2455 869.3587,-328.3354 865.9643,-334.4574"/>
</g>
<!-- Node19 -->
<g id="node6" class="node">
<title>Node19</title>
<g id="a_node6"><a xlink:href="JsonModule_8hpp.html" target="_top" xlink:title="Defines the JsonModule class. ">
<polygon fill="#ffffff" stroke="#000000" points="506.5,-56.5 506.5,-75.5 661.5,-75.5 661.5,-56.5 506.5,-56.5"/>
<text text-anchor="middle" x="584" y="-63.5" font-family="Helvetica,sans-Serif" font-size="10.00" fill="#000000">include/chig/JsonModule.hpp</text>
</a>
</g>
</g>
<!-- Node14&#45;&gt;Node19 -->
<g id="edge34" class="edge">
<title>Node14&#45;&gt;Node19</title>
<path fill="none" stroke="#191970" d="M818.4416,-334.806C724.3943,-318.7009 576,-285.1802 576,-234 576,-234 576,-234 576,-178 576,-139.9867 580.6417,-94.9002 582.8538,-75.5719"/>
<polygon fill="#191970" stroke="#191970" points="818.0537,-338.2898 828.4958,-336.4971 819.2149,-331.3868 818.0537,-338.2898"/>
</g>
<!-- Node23 -->
<g id="node10" class="node">
<title>Node23</title>
<g id="a_node10"><a xlink:href="LangModule_8hpp.html" target="_top" xlink:title="Defines the LangModule class. ">
<polygon fill="#ffffff" stroke="#000000" points="878,-168.5 878,-187.5 1036,-187.5 1036,-168.5 878,-168.5"/>
<text text-anchor="middle" x="957" y="-175.5" font-family="Helvetica,sans-Serif" font-size="10.00" fill="#000000">include/chig/LangModule.hpp</text>
</a>
</g>
</g>
<!-- Node14&#45;&gt;Node23 -->
<g id="edge35" class="edge">
<title>Node14&#45;&gt;Node23</title>
<path fill="none" stroke="#191970" d="M901.2275,-326.7267C914.6922,-290.8207 943.1692,-214.8822 953.3145,-187.8279"/>
<polygon fill="#191970" stroke="#191970" points="897.8018,-325.894 897.5677,-336.4862 904.3561,-328.3519 897.8018,-325.894"/>
</g>
<!-- Node32 -->
<g id="node19" class="node">
<title>Node32</title>
<g id="a_node19"><a xlink:href="ChigModule_8cpp.html" target="_top" xlink:title="src/ChigModule.cpp">
<polygon fill="#ffffff" stroke="#000000" points="960.5,-280.5 960.5,-299.5 1071.5,-299.5 1071.5,-280.5 960.5,-280.5"/>
<text text-anchor="middle" x="1016" y="-287.5" font-family="Helvetica,sans-Serif" font-size="10.00" fill="#000000">src/ChigModule.cpp</text>
</a>
</g>
</g>
<!-- Node14&#45;&gt;Node32 -->
<g id="edge36" class="edge">
<title>Node14&#45;&gt;Node32</title>
<path fill="none" stroke="#191970" d="M924.2584,-332.1109C946.3819,-321.9559 975.8094,-308.4482 995.3011,-299.5011"/>
<polygon fill="#191970" stroke="#191970" points="922.6007,-329.0206 914.9725,-336.3733 925.521,-335.3824 922.6007,-329.0206"/>
</g>
<!-- Node16 -->
<g id="node3" class="node">
<title>Node16</title>
<g id="a_node3"><a xlink:href="CModule_8cpp.html" target="_top" xlink:title="src/CModule.cpp">
<polygon fill="#ffffff" stroke="#000000" points="718,-112.5 718,-131.5 814,-131.5 814,-112.5 718,-112.5"/>
<text text-anchor="middle" x="766" y="-119.5" font-family="Helvetica,sans-Serif" font-size="10.00" fill="#000000">src/CModule.cpp</text>
</a>
</g>
</g>
<!-- Node15&#45;&gt;Node16 -->
<g id="edge2" class="edge">
<title>Node15&#45;&gt;Node16</title>
<path fill="none" stroke="#191970" d="M781.0934,-158.7493C777.3383,-149.6064 773.0149,-139.0798 769.9604,-131.6427"/>
<polygon fill="#191970" stroke="#191970" points="777.9569,-160.3251 784.9937,-168.2455 784.432,-157.6656 777.9569,-160.3251"/>
</g>
<!-- Node17 -->
<g id="node4" class="node">
<title>Node17</title>
<g id="a_node4"><a xlink:href="Context_8cpp.html" target="_top" xlink:title="src/Context.cpp">
<polygon fill="#ffffff" stroke="#000000" points="689,-.5 689,-19.5 781,-19.5 781,-.5 689,-.5"/>
<text text-anchor="middle" x="735" y="-7.5" font-family="Helvetica,sans-Serif" font-size="10.00" fill="#000000">src/Context.cpp</text>
</a>
</g>
</g>
<!-- Node15&#45;&gt;Node17 -->
<g id="edge3" class="edge">
<title>Node15&#45;&gt;Node17</title>
<path fill="none" stroke="#191970" d="M806.5207,-161.1707C817.8863,-148.1299 829.4718,-129.4087 823,-112 807.8416,-71.2249 768.2557,-35.856 747.7405,-19.5623"/>
<polygon fill="#191970" stroke="#191970" points="803.9356,-158.8106 799.6359,-168.4938 809.0356,-163.6054 803.9356,-158.8106"/>
</g>
<!-- Node18&#45;&gt;Node15 -->
<g id="edge5" class="edge">
<title>Node18&#45;&gt;Node15</title>
<path fill="none" stroke="#191970" d="M796.8853,-269.9319C798.911,-256.8437 800.6541,-239.3954 799,-224 797.638,-211.3236 794.2226,-197.015 791.7621,-187.7707"/>
<polygon fill="#191970" stroke="#191970" points="793.3735,-269.6986 795.1107,-280.1501 800.2702,-270.8964 793.3735,-269.6986"/>
</g>
<!-- Node18&#45;&gt;Node19 -->
<g id="edge6" class="edge">
<title>Node18&#45;&gt;Node19</title>
<path fill="none" stroke="#191970" d="M728.6693,-278.3263C690.0522,-270.0771 645.812,-258.0194 632,-244 607.7401,-219.3759 590.2469,-109.5843 585.3726,-75.8756"/>
<polygon fill="#191970" stroke="#191970" points="728.3584,-281.8365 738.8615,-280.4453 729.7833,-274.983 728.3584,-281.8365"/>
</g>
<!-- Node18&#45;&gt;Node23 -->
<g id="edge11" class="edge">
<title>Node18&#45;&gt;Node23</title>
<path fill="none" stroke="#191970" d="M815.431,-274.6813C849.8389,-251.1832 914.6405,-206.9284 943.0528,-187.5249"/>
<polygon fill="#191970" stroke="#191970" points="813.2667,-271.921 806.9825,-280.4509 817.2145,-277.7016 813.2667,-271.921"/>
</g>
<!-- Node25 -->
<g id="node12" class="node">
<title>Node25</title>
<g id="a_node12"><a xlink:href="NodeType_8hpp.html" target="_top" xlink:title="Defines the NodeType class. ">
<polygon fill="#ffffff" stroke="#000000" points="641.5,-224.5 641.5,-243.5 790.5,-243.5 790.5,-224.5 641.5,-224.5"/>
<text text-anchor="middle" x="716" y="-231.5" font-family="Helvetica,sans-Serif" font-size="10.00" fill="#000000">include/chig/NodeType.hpp</text>
</a>
</g>
</g>
<!-- Node18&#45;&gt;Node25 -->
<g id="edge14" class="edge">
<title>Node18&#45;&gt;Node25</title>
<path fill="none" stroke="#191970" d="M771.2884,-274.2097C757.7647,-264.3743 740.8042,-252.0394 729.2587,-243.6427"/>
<polygon fill="#191970" stroke="#191970" points="769.4416,-277.1944 779.5876,-280.2455 773.5589,-271.5332 769.4416,-277.1944"/>
</g>
<!-- Node19&#45;&gt;Node17 -->
<g id="edge7" class="edge">
<title>Node19&#45;&gt;Node17</title>
<path fill="none" stroke="#191970" d="M619.623,-52.7888C647.1938,-42.5639 684.7149,-28.6488 709.3809,-19.5011"/>
<polygon fill="#191970" stroke="#191970" points="618.1168,-49.6144 609.9578,-56.3733 620.5509,-56.1776 618.1168,-49.6144"/>
</g>
<!-- Node20 -->
<g id="node7" class="node">
<title>Node20</title>
<g id="a_node7"><a xlink:href="FunctionCompiler_8cpp.html" target="_top" xlink:title="src/FunctionCompiler.cpp">
<polygon fill="#ffffff" stroke="#000000" points="531,-.5 531,-19.5 671,-19.5 671,-.5 531,-.5"/>
<text text-anchor="middle" x="601" y="-7.5" font-family="Helvetica,sans-Serif" font-size="10.00" fill="#000000">src/FunctionCompiler.cpp</text>
</a>
</g>
</g>
<!-- Node19&#45;&gt;Node20 -->
<g id="edge8" class="edge">
<title>Node19&#45;&gt;Node20</title>
<path fill="none" stroke="#191970" d="M589.9337,-46.4538C592.6881,-37.3803 595.8393,-26.9998 598.0728,-19.6427"/>
<polygon fill="#191970" stroke="#191970" points="586.517,-45.66 586.9612,-56.2455 593.2151,-47.6934 586.517,-45.66"/>
</g>
<!-- Node21 -->
<g id="node8" class="node">
<title>Node21</title>
<g id="a_node8"><a xlink:href="GraphFunction_8cpp.html" target="_top" xlink:title="src/GraphFunction.cpp">
<polygon fill="#ffffff" stroke="#000000" points="387.5,-.5 387.5,-19.5 512.5,-19.5 512.5,-.5 387.5,-.5"/>
<text text-anchor="middle" x="450" y="-7.5" font-family="Helvetica,sans-Serif" font-size="10.00" fill="#000000">src/GraphFunction.cpp</text>
</a>
</g>
</g>
<!-- Node19&#45;&gt;Node21 -->
<g id="edge9" class="edge">
<title>Node19&#45;&gt;Node21</title>
<path fill="none" stroke="#191970" d="M551.4172,-52.3833C527.0464,-42.1985 494.3358,-28.5284 472.7348,-19.5011"/>
<polygon fill="#191970" stroke="#191970" points="550.3883,-55.7466 560.9646,-56.3733 553.0875,-49.2879 550.3883,-55.7466"/>
</g>
<!-- Node22 -->
<g id="node9" class="node">
<title>Node22</title>
<g id="a_node9"><a xlink:href="JsonModule_8cpp.html" target="_top" xlink:title="src/JsonModule.cpp">
<polygon fill="#ffffff" stroke="#000000" points="0,-.5 0,-19.5 110,-19.5 110,-.5 0,-.5"/>
<text text-anchor="middle" x="55" y="-7.5" font-family="Helvetica,sans-Serif" font-size="10.00" fill="#000000">src/JsonModule.cpp</text>
</a>
</g>
</g>
<!-- Node19&#45;&gt;Node22 -->
<g id="edge10" class="edge">
<title>Node19&#45;&gt;Node22</title>
<path fill="none" stroke="#191970" d="M496.1024,-58.7921C402.4766,-50.7669 250.0223,-36.7033 119,-20 116.0995,-19.6302 113.1281,-19.2324 110.1299,-18.8161"/>
<polygon fill="#191970" stroke="#191970" points="495.8371,-62.2821 506.0985,-59.6451 496.4324,-55.3074 495.8371,-62.2821"/>
</g>
<!-- Node23&#45;&gt;Node17 -->
<g id="edge12" class="edge">
<title>Node23&#45;&gt;Node17</title>
<path fill="none" stroke="#191970" d="M976.247,-161.5712C989.8811,-147.8927 1003.9604,-128.1191 993,-112 945.402,-41.9994 841.5592,-20.0388 781.1319,-13.1494"/>
<polygon fill="#191970" stroke="#191970" points="973.7791,-159.0873 968.8801,-168.4814 978.5681,-164.1927 973.7791,-159.0873"/>
</g>
<!-- Node24 -->
<g id="node11" class="node">
<title>Node24</title>
<g id="a_node11"><a xlink:href="LangModule_8cpp.html" target="_top" xlink:title="src/LangModule.cpp">
<polygon fill="#ffffff" stroke="#000000" points="870.5,-112.5 870.5,-131.5 983.5,-131.5 983.5,-112.5 870.5,-112.5"/>
<text text-anchor="middle" x="927" y="-119.5" font-family="Helvetica,sans-Serif" font-size="10.00" fill="#000000">src/LangModule.cpp</text>
</a>
</g>
</g>
<!-- Node23&#45;&gt;Node24 -->
<g id="edge13" class="edge">
<title>Node23&#45;&gt;Node24</title>
<path fill="none" stroke="#191970" d="M947.002,-159.3372C942.0324,-150.0605 936.2356,-139.2398 932.1657,-131.6427"/>
<polygon fill="#191970" stroke="#191970" points="943.9669,-161.0835 951.7744,-168.2455 950.1373,-157.7779 943.9669,-161.0835"/>
</g>
<!-- Node25&#45;&gt;Node15 -->
<g id="edge15" class="edge">
<title>Node25&#45;&gt;Node15</title>
<path fill="none" stroke="#191970" d="M736.951,-217.928C749.7107,-208.1397 765.5885,-195.9595 776.4301,-187.6427"/>
<polygon fill="#191970" stroke="#191970" points="734.5196,-215.3819 728.7156,-224.2455 738.7803,-220.9359 734.5196,-215.3819"/>
</g>
<!-- Node25&#45;&gt;Node17 -->
<g id="edge32" class="edge">
<title>Node25&#45;&gt;Node17</title>
<path fill="none" stroke="#191970" d="M712.3183,-214.2065C710.9881,-206.1132 709.6536,-196.639 709,-188 706.4519,-154.3185 704.7957,-145.5151 709,-112 713.3445,-77.367 725.6793,-37.634 731.6629,-19.6899"/>
<polygon fill="#191970" stroke="#191970" points="708.8922,-214.9326 714.0653,-224.1787 715.7872,-213.7247 708.8922,-214.9326"/>
</g>
<!-- Node25&#45;&gt;Node19 -->
<g id="edge16" class="edge">
<title>Node25&#45;&gt;Node19</title>
<path fill="none" stroke="#191970" d="M700.2008,-217.0925C692.5676,-208.6155 683.467,-198.0388 676,-188 652.1568,-155.9446 652.5968,-143.4809 628,-112 617.5218,-98.5891 603.7276,-84.6668 594.3987,-75.7015"/>
<polygon fill="#191970" stroke="#191970" points="697.6361,-219.4744 706.9683,-224.4905 702.8011,-214.7496 697.6361,-219.4744"/>
</g>
<!-- Node25&#45;&gt;Node22 -->
<g id="edge33" class="edge">
<title>Node25&#45;&gt;Node22</title>
<path fill="none" stroke="#191970" d="M631.0728,-227.4351C529.4016,-219.0575 365.4048,-203.7545 306,-188 245.1916,-171.8733 230.4677,-163.4801 176,-132 139.9828,-111.1835 129.9312,-105.8923 101,-76 83.7102,-58.1358 68.2249,-33.2057 60.3936,-19.6723"/>
<polygon fill="#191970" stroke="#191970" points="631.0686,-230.9463 641.3207,-228.2734 631.6394,-223.9696 631.0686,-230.9463"/>
</g>
<!-- Node25&#45;&gt;Node23 -->
<g id="edge17" class="edge">
<title>Node25&#45;&gt;Node23</title>
<path fill="none" stroke="#191970" d="M767.1588,-222.1125C811.5304,-211.8021 874.9168,-197.0733 916.0142,-187.5237"/>
<polygon fill="#191970" stroke="#191970" points="766.1038,-218.7643 757.1555,-224.4369 767.6882,-225.5826 766.1038,-218.7643"/>
</g>
<!-- Node26 -->
<g id="node13" class="node">
<title>Node26</title>
<g id="a_node13"><a xlink:href="NodeInstance_8hpp.html" target="_top" xlink:title="Defines the NodeInstance class and related functions. ">
<polygon fill="#ffffff" stroke="#000000" points="315,-168.5 315,-187.5 481,-187.5 481,-168.5 315,-168.5"/>
<text text-anchor="middle" x="398" y="-175.5" font-family="Helvetica,sans-Serif" font-size="10.00" fill="#000000">include/chig/NodeInstance.hpp</text>
</a>
</g>
</g>
<!-- Node25&#45;&gt;Node26 -->
<g id="edge18" class="edge">
<title>Node25&#45;&gt;Node26</title>
<path fill="none" stroke="#191970" d="M651.7964,-222.6937C593.1275,-212.3621 507.3364,-197.2542 452.0808,-187.5237"/>
<polygon fill="#191970" stroke="#191970" points="651.2397,-226.1494 661.6952,-224.4369 652.4538,-219.2555 651.2397,-226.1494"/>
</g>
<!-- Node26&#45;&gt;Node20 -->
<g id="edge29" class="edge">
<title>Node26&#45;&gt;Node20</title>
<path fill="none" stroke="#191970" d="M400.1694,-158.1298C402.4945,-144.1692 407.2668,-125.6284 417,-112 453.1928,-61.3231 522.7938,-32.9046 565.2479,-19.5747"/>
<polygon fill="#191970" stroke="#191970" points="396.6849,-157.7773 398.7813,-168.1627 403.6189,-158.7367 396.6849,-157.7773"/>
</g>
<!-- Node26&#45;&gt;Node22 -->
<g id="edge30" class="edge">
<title>Node26&#45;&gt;Node22</title>
<path fill="none" stroke="#191970" d="M323.1884,-166.5142C288.7908,-159.4417 248.1414,-148.4808 214,-132 150.3919,-101.2951 87.6832,-42.5727 64.4442,-19.5741"/>
<polygon fill="#191970" stroke="#191970" points="322.6898,-169.9835 333.1798,-168.4966 324.0522,-163.1173 322.6898,-169.9835"/>
</g>
<!-- Node27 -->
<g id="node14" class="node">
<title>Node27</title>
<g id="a_node14"><a xlink:href="Graph_8hpp.html" target="_top" xlink:title="Defines the internal Graph structure. ">
<polygon fill="#ffffff" stroke="#000000" points="223,-112.5 223,-131.5 351,-131.5 351,-112.5 223,-112.5"/>
<text text-anchor="middle" x="287" y="-119.5" font-family="Helvetica,sans-Serif" font-size="10.00" fill="#000000">include/chig/Graph.hpp</text>
</a>
</g>
</g>
<!-- Node26&#45;&gt;Node27 -->
<g id="edge19" class="edge">
<title>Node26&#45;&gt;Node27</title>
<path fill="none" stroke="#191970" d="M369.9266,-163.8368C349.8615,-153.7139 323.4078,-140.3679 305.8326,-131.5011"/>
<polygon fill="#191970" stroke="#191970" points="368.4138,-166.9938 378.9184,-168.3733 371.5668,-160.7441 368.4138,-166.9938"/>
</g>
<!-- Node31 -->
<g id="node18" class="node">
<title>Node31</title>
<g id="a_node18"><a xlink:href="NodeInstance_8cpp.html" target="_top" xlink:title="src/NodeInstance.cpp">
<polygon fill="#ffffff" stroke="#000000" points="426.5,-112.5 426.5,-131.5 547.5,-131.5 547.5,-112.5 426.5,-112.5"/>
<text text-anchor="middle" x="487" y="-119.5" font-family="Helvetica,sans-Serif" font-size="10.00" fill="#000000">src/NodeInstance.cpp</text>
</a>
</g>
</g>
<!-- Node26&#45;&gt;Node31 -->
<g id="edge31" class="edge">
<title>Node26&#45;&gt;Node31</title>
<path fill="none" stroke="#191970" d="M422.2064,-162.769C437.9775,-152.8456 458.076,-140.1994 471.675,-131.6427"/>
<polygon fill="#191970" stroke="#191970" points="420.1026,-159.9575 413.5026,-168.2455 423.8305,-165.8823 420.1026,-159.9575"/>
</g>
<!-- Node28 -->
<g id="node15" class="node">
<title>Node28</title>
<g id="a_node15"><a xlink:href="GraphFunction_8hpp.html" target="_top" xlink:title="Declares the GraphFunction class. ">
<polygon fill="#ffffff" stroke="#000000" points="253,-56.5 253,-75.5 423,-75.5 423,-56.5 253,-56.5"/>
<text text-anchor="middle" x="338" y="-63.5" font-family="Helvetica,sans-Serif" font-size="10.00" fill="#000000">include/chig/GraphFunction.hpp</text>
</a>
</g>
</g>
<!-- Node27&#45;&gt;Node28 -->
<g id="edge20" class="edge">
<title>Node27&#45;&gt;Node28</title>
<path fill="none" stroke="#191970" d="M302.6749,-104.7884C311.3994,-95.2085 321.9354,-83.6396 329.2183,-75.6427"/>
<polygon fill="#191970" stroke="#191970" points="300.0291,-102.4954 295.8835,-112.2455 305.2046,-107.2088 300.0291,-102.4954"/>
</g>
<!-- Node29 -->
<g id="node16" class="node">
<title>Node29</title>
<g id="a_node16"><a xlink:href="FunctionValidator_8cpp.html" target="_top" xlink:title="src/FunctionValidator.cpp">
<polygon fill="#ffffff" stroke="#000000" points="128,-.5 128,-19.5 268,-19.5 268,-.5 128,-.5"/>
<text text-anchor="middle" x="198" y="-7.5" font-family="Helvetica,sans-Serif" font-size="10.00" fill="#000000">src/FunctionValidator.cpp</text>
</a>
</g>
</g>
<!-- Node27&#45;&gt;Node29 -->
<g id="edge27" class="edge">
<title>Node27&#45;&gt;Node29</title>
<path fill="none" stroke="#191970" d="M266.602,-105.6497C256.9793,-97.3592 245.7234,-86.7793 237,-76 222.0966,-57.5844 209.0633,-32.8697 202.5047,-19.5187"/>
<polygon fill="#191970" stroke="#191970" points="264.6198,-108.5549 274.5332,-112.2933 269.1148,-103.1888 264.6198,-108.5549"/>
</g>
<!-- Node30 -->
<g id="node17" class="node">
<title>Node30</title>
<g id="a_node17"><a xlink:href="Graph_8cpp.html" target="_top" xlink:title="src/Graph.cpp">
<polygon fill="#ffffff" stroke="#000000" points="286.5,-.5 286.5,-19.5 369.5,-19.5 369.5,-.5 286.5,-.5"/>
<text text-anchor="middle" x="328" y="-7.5" font-family="Helvetica,sans-Serif" font-size="10.00" fill="#000000">src/Graph.cpp</text>
</a>
</g>
</g>
<!-- Node27&#45;&gt;Node30 -->
<g id="edge28" class="edge">
<title>Node27&#45;&gt;Node30</title>
<path fill="none" stroke="#191970" d="M265.0427,-106.0148C249.7038,-92.7962 233.6707,-73.4332 244,-56 254.6791,-37.9764 275.1949,-26.5513 293.2773,-19.5956"/>
<polygon fill="#191970" stroke="#191970" points="262.8781,-108.7656 272.8573,-112.3245 267.2756,-103.3193 262.8781,-108.7656"/>
</g>
<!-- Node28&#45;&gt;Node17 -->
<g id="edge21" class="edge">
<title>Node28&#45;&gt;Node17</title>
<path fill="none" stroke="#191970" d="M426.5778,-55.2253C495.7194,-46.5397 594.1293,-33.5739 680,-20 682.8758,-19.5454 685.833,-19.06 688.8128,-18.5573"/>
<polygon fill="#191970" stroke="#191970" points="426.0816,-51.76 416.5939,-56.4753 426.9512,-58.7058 426.0816,-51.76"/>
</g>
<!-- Node28&#45;&gt;Node20 -->
<g id="edge22" class="edge">
<title>Node28&#45;&gt;Node20</title>
<path fill="none" stroke="#191970" d="M392.914,-54.3073C441.3763,-43.9883 511.1405,-29.1336 556.2728,-19.5237"/>
<polygon fill="#191970" stroke="#191970" points="391.9643,-50.931 382.9125,-56.4369 393.4222,-57.7775 391.9643,-50.931"/>
</g>
<!-- Node28&#45;&gt;Node21 -->
<g id="edge25" class="edge">
<title>Node28&#45;&gt;Node21</title>
<path fill="none" stroke="#191970" d="M366.3263,-51.8368C386.5721,-41.7139 413.2642,-28.3679 430.9978,-19.5011"/>
<polygon fill="#191970" stroke="#191970" points="364.6325,-48.7706 357.2535,-56.3733 367.763,-55.0316 364.6325,-48.7706"/>
</g>
<!-- Node28&#45;&gt;Node22 -->
<g id="edge26" class="edge">
<title>Node28&#45;&gt;Node22</title>
<path fill="none" stroke="#191970" d="M279.5634,-54.4366C227.3911,-44.1127 151.8961,-29.1738 103.1285,-19.5237"/>
<polygon fill="#191970" stroke="#191970" points="279.1829,-57.9291 289.6721,-56.4369 280.5418,-51.0622 279.1829,-57.9291"/>
</g>
<!-- Node28&#45;&gt;Node29 -->
<g id="edge23" class="edge">
<title>Node28&#45;&gt;Node29</title>
<path fill="none" stroke="#191970" d="M304.6351,-52.6541C279.1048,-42.4419 244.5216,-28.6086 221.7528,-19.5011"/>
<polygon fill="#191970" stroke="#191970" points="303.3485,-55.909 313.9331,-56.3733 305.9483,-49.4096 303.3485,-55.909"/>
</g>
<!-- Node28&#45;&gt;Node30 -->
<g id="edge24" class="edge">
<title>Node28&#45;&gt;Node30</title>
<path fill="none" stroke="#191970" d="M334.4567,-46.1575C332.8491,-37.155 331.0214,-26.9199 329.7219,-19.6427"/>
<polygon fill="#191970" stroke="#191970" points="331.0546,-47.0166 336.2581,-56.2455 337.9456,-45.786 331.0546,-47.0166"/>
</g>
</g>
</svg>
        <g id="navigator" transform="translate(0 0)" fill="#404254">
                <rect fill="#f2f5e9" fill-opacity="0.5" stroke="#606060" stroke-width=".5" x="0" y="0" width="60" height="60"/>
                <use id="zoomplus" xlink:href="#zoomPlus" x="17" y="9" onmousedown="handleZoom(evt,'in')"/>
                <use id="zoomminus" xlink:href="#zoomMin" x="42" y="9" onmousedown="handleZoom(evt,'out')"/>
                <use id="reset" xlink:href="#resetDef" x="30" y="36" onmousedown="handleReset()"/>
                <g id="arrowUp" xlink:href="#dirArrow" transform="translate(30 24)" onmousedown="handlePan(0,-1)">
                  <use xlink:href="#rim" fill="#404040">
                        <set attributeName="fill" to="#808080" begin="arrowUp.mouseover" end="arrowUp.mouseout"/>
                  </use>
                  <path fill="none" stroke="white" stroke-width="1.5" d="M0,-3.0v7 M-2.5,-0.5L0,-3.0L2.5,-0.5"/>
                </g>
                <g id="arrowRight" xlink:href="#dirArrow" transform="rotate(90) translate(36 -43)" onmousedown="handlePan(1,0)">
                  <use xlink:href="#rim" fill="#404040">
                        <set attributeName="fill" to="#808080" begin="arrowRight.mouseover" end="arrowRight.mouseout"/>
                  </use>
                  <path fill="none" stroke="white" stroke-width="1.5" d="M0,-3.0v7 M-2.5,-0.5L0,-3.0L2.5,-0.5"/>
                </g>
                <g id="arrowDown" xlink:href="#dirArrow" transform="rotate(180) translate(-30 -48)" onmousedown="handlePan(0,1)">
                  <use xlink:href="#rim" fill="#404040">
                        <set attributeName="fill" to="#808080" begin="arrowDown.mouseover" end="arrowDown.mouseout"/>
                  </use>
                  <path fill="none" stroke="white" stroke-width="1.5" d="M0,-3.0v7 M-2.5,-0.5L0,-3.0L2.5,-0.5"/>
                </g>
                <g id="arrowLeft" xlink:href="#dirArrow" transform="rotate(270) translate(-36 17)" onmousedown="handlePan(-1,0)">
                  <use xlink:href="#rim" fill="#404040">
                        <set attributeName="fill" to="#808080" begin="arrowLeft.mouseover" end="arrowLeft.mouseout"/>
                  </use>
                  <path fill="none" stroke="white" stroke-width="1.5" d="M0,-3.0v7 M-2.5,-0.5L0,-3.0L2.5,-0.5"/>
                </g>
        </g>
        <svg viewBox="0 0 15 15" width="100%" height="30px" preserveAspectRatio="xMaxYMin meet">
         <g id="arrow_out" transform="scale(0.3 0.3)">
          <a xlink:href="ChigModule_8hpp__dep__incl_org.svg" target="_base">
           <rect id="button" ry="5" rx="5" y="6" x="6" height="38" width="38"
                fill="#f2f5e9" fill-opacity="0.5" stroke="#606060" stroke-width="1.0"/>
           <path id="arrow"
             d="M 11.500037,31.436501 C 11.940474,20.09759 22.043105,11.32322 32.158766,21.979434 L 37.068811,17.246167 C 37.068811,17.246167 37.088388,32 37.088388,32 L 22.160133,31.978069 C 22.160133,31.978069 26.997745,27.140456 26.997745,27.140456 C 18.528582,18.264221 13.291696,25.230495 11.500037,31.436501 z"
             style="fill:#404040;"/>
          </a>
         </g>
        </svg>
</svg>
