<?xml version="1.0" encoding="UTF-8" standalone="no"?>
<!DOCTYPE svg PUBLIC "-//W3C//DTD SVG 1.1//EN"
 "http://www.w3.org/Graphics/SVG/1.1/DTD/svg11.dtd">
<!-- Generated by graphviz version 2.40.1 (20161225.0304)
 -->
<!-- Title: include/chig/ChigModule.hpp Pages: 1 -->
<!--zoomable 252 -->
<svg id="main" version="1.1" xmlns="http://www.w3.org/2000/svg" xmlns:xlink="http://www.w3.org/1999/xlink" xml:space="preserve" onload="init(evt)">
<style type="text/css"><![CDATA[
.edge:hover path { stroke: red; }
.edge:hover polygon { stroke: red; fill: red; }
]]></style>
<script type="text/javascript"><![CDATA[
var edges = document.getElementsByTagName('g');
if (edges && edges.length) {
  for (var i=0;i<edges.length;i++) {
    if (edges[i].id.substr(0,4)=='edge') {
      edges[i].setAttribute('class','edge');
    }
  }
}
]]></script>
        <defs>
                <circle id="rim" cx="0" cy="0" r="7"/>
                <circle id="rim2" cx="0" cy="0" r="3.5"/>
                <g id="zoomPlus">
                        <use xlink:href="#rim" fill="#404040">
                                <set attributeName="fill" to="#808080" begin="zoomplus.mouseover" end="zoomplus.mouseout"/>
                        </use>
                        <path d="M-4,0h8M0,-4v8" fill="none" stroke="white" stroke-width="1.5" pointer-events="none"/>
                </g>
                <g id="zoomMin">
                        <use xlink:href="#rim" fill="#404040">
                                <set attributeName="fill" to="#808080" begin="zoomminus.mouseover" end="zoomminus.mouseout"/>
                        </use>
                        <path d="M-4,0h8" fill="none" stroke="white" stroke-width="1.5" pointer-events="none"/>
                </g>
                <g id="dirArrow">
                        <path fill="none" stroke="white" stroke-width="1.5" d="M0,-3.0v7 M-2.5,-0.5L0,-3.0L2.5,-0.5"/>
                </g>
               <g id="resetDef">
                       <use xlink:href="#rim2" fill="#404040">
                               <set attributeName="fill" to="#808080" begin="reset.mouseover" end="reset.mouseout"/>
                       </use>
               </g>
        </defs>

<script type="text/javascript">
var viewWidth = 1392;
var viewHeight = 252;
var sectionId = 'dynsection-1';
</script>
<script xlink:href="svgpan.js"/>
<svg id="graph" class="graph">
<g id="viewport">
<title>include/chig/ChigModule.hpp</title>
<polygon fill="#ffffff" stroke="transparent" points="-4,4 -4,-248 1387.5,-248 1387.5,4 -4,4"/>
<!-- Node8 -->
<g id="node1" class="node">
<title>Node8</title>
<polygon fill="#bfbfbf" stroke="#000000" points="1139,-224.5 1139,-243.5 1295,-243.5 1295,-224.5 1139,-224.5"/>
<text text-anchor="middle" x="1217" y="-231.5" font-family="Helvetica,sans-Serif" font-size="10.00" fill="#000000">include/chig/ChigModule.hpp</text>
</g>
<!-- Node9 -->
<g id="node2" class="node">
<title>Node9</title>
<g id="a_node2"><a xlink:href="CModule_8hpp.html" target="_top" xlink:title="Defines the CModule class. ">
<polygon fill="#ffffff" stroke="#000000" points="1201.5,-56.5 1201.5,-75.5 1342.5,-75.5 1342.5,-56.5 1201.5,-56.5"/>
<text text-anchor="middle" x="1272" y="-63.5" font-family="Helvetica,sans-Serif" font-size="10.00" fill="#000000">include/chig/CModule.hpp</text>
</a>
</g>
</g>
<!-- Node8&#45;&gt;Node9 -->
<g id="edge1" class="edge">
<title>Node8&#45;&gt;Node9</title>
<path fill="none" stroke="#191970" d="M1223.3097,-214.7267C1235.0647,-178.8207 1259.9255,-102.8822 1268.7825,-75.8279"/>
<polygon fill="#191970" stroke="#191970" points="1219.8997,-213.8936 1220.1146,-224.4862 1226.5523,-216.0716 1219.8997,-213.8936"/>
</g>
<!-- Node12 -->
<g id="node5" class="node">
<title>Node12</title>
<g id="a_node5"><a xlink:href="DataType_8hpp.html" target="_top" xlink:title="Defines the DataType class. ">
<polygon fill="#ffffff" stroke="#000000" points="879,-168.5 879,-187.5 1025,-187.5 1025,-168.5 879,-168.5"/>
<text text-anchor="middle" x="952" y="-175.5" font-family="Helvetica,sans-Serif" font-size="10.00" fill="#000000">include/chig/DataType.hpp</text>
</a>
</g>
</g>
<!-- Node8&#45;&gt;Node12 -->
<g id="edge4" class="edge">
<title>Node8&#45;&gt;Node12</title>
<path fill="none" stroke="#191970" d="M1161.6684,-222.3073C1112.8376,-211.9883 1042.5429,-197.1336 997.0674,-187.5237"/>
<polygon fill="#191970" stroke="#191970" points="1161.2384,-225.7936 1171.746,-224.4369 1162.6857,-218.9449 1161.2384,-225.7936"/>
</g>
<!-- Node25 -->
<g id="node18" class="node">
<title>Node25</title>
<g id="a_node18"><a xlink:href="LangModule_8hpp.html" target="_top" xlink:title="Defines the LangModule class. ">
<polygon fill="#ffffff" stroke="#000000" points="1058,-112.5 1058,-131.5 1216,-131.5 1216,-112.5 1058,-112.5"/>
<text text-anchor="middle" x="1137" y="-119.5" font-family="Helvetica,sans-Serif" font-size="10.00" fill="#000000">include/chig/LangModule.hpp</text>
</a>
</g>
</g>
<!-- Node8&#45;&gt;Node25 -->
<g id="edge26" class="edge">
<title>Node8&#45;&gt;Node25</title>
<path fill="none" stroke="#191970" d="M1204.2936,-216.2111C1187.1421,-192.1989 1157.1914,-150.2679 1143.8035,-131.5249"/>
<polygon fill="#191970" stroke="#191970" points="1201.5187,-218.3479 1210.1792,-224.4509 1207.2149,-214.2792 1201.5187,-218.3479"/>
</g>
<!-- Node26 -->
<g id="node19" class="node">
<title>Node26</title>
<g id="a_node19"><a xlink:href="ChigModule_8cpp.html" target="_top" xlink:title="src/ChigModule.cpp">
<polygon fill="#ffffff" stroke="#000000" points="1272.5,-168.5 1272.5,-187.5 1383.5,-187.5 1383.5,-168.5 1272.5,-168.5"/>
<text text-anchor="middle" x="1328" y="-175.5" font-family="Helvetica,sans-Serif" font-size="10.00" fill="#000000">src/ChigModule.cpp</text>
</a>
</g>
</g>
<!-- Node8&#45;&gt;Node26 -->
<g id="edge29" class="edge">
<title>Node8&#45;&gt;Node26</title>
<path fill="none" stroke="#191970" d="M1245.0734,-219.8368C1265.1385,-209.7139 1291.5922,-196.3679 1309.1674,-187.5011"/>
<polygon fill="#191970" stroke="#191970" points="1243.4332,-216.7441 1236.0816,-224.3733 1246.5862,-222.9938 1243.4332,-216.7441"/>
</g>
<!-- Node10 -->
<g id="node3" class="node">
<title>Node10</title>
<g id="a_node3"><a xlink:href="CModule_8cpp.html" target="_top" xlink:title="src/CModule.cpp">
<polygon fill="#ffffff" stroke="#000000" points="1261,-.5 1261,-19.5 1357,-19.5 1357,-.5 1261,-.5"/>
<text text-anchor="middle" x="1309" y="-7.5" font-family="Helvetica,sans-Serif" font-size="10.00" fill="#000000">src/CModule.cpp</text>
</a>
</g>
</g>
<!-- Node9&#45;&gt;Node10 -->
<g id="edge2" class="edge">
<title>Node9&#45;&gt;Node10</title>
<path fill="none" stroke="#191970" d="M1284.1376,-47.6296C1290.3093,-38.2887 1297.5566,-27.3197 1302.6289,-19.6427"/>
<polygon fill="#191970" stroke="#191970" points="1281.0373,-45.9728 1278.4449,-56.2455 1286.8777,-49.8316 1281.0373,-45.9728"/>
</g>
<!-- Node11 -->
<g id="node4" class="node">
<title>Node11</title>
<g id="a_node4"><a xlink:href="Context_8cpp.html" target="_top" xlink:title="src/Context.cpp">
<polygon fill="#ffffff" stroke="#000000" points="1151,-.5 1151,-19.5 1243,-19.5 1243,-.5 1151,-.5"/>
<text text-anchor="middle" x="1197" y="-7.5" font-family="Helvetica,sans-Serif" font-size="10.00" fill="#000000">src/Context.cpp</text>
</a>
</g>
</g>
<!-- Node9&#45;&gt;Node11 -->
<g id="edge3" class="edge">
<title>Node9&#45;&gt;Node11</title>
<path fill="none" stroke="#191970" d="M1250.8523,-50.2097C1237.6799,-40.3743 1221.16,-28.0394 1209.9143,-19.6427"/>
<polygon fill="#191970" stroke="#191970" points="1248.8291,-53.0671 1258.936,-56.2455 1253.0172,-47.4581 1248.8291,-53.0671"/>
</g>
<!-- Node13 -->
<g id="node6" class="node">
<title>Node13</title>
<g id="a_node6"><a xlink:href="GraphModule_8hpp.html" target="_top" xlink:title="Defines the GraphModule class. ">
<polygon fill="#ffffff" stroke="#000000" points="717,-56.5 717,-75.5 881,-75.5 881,-56.5 717,-56.5"/>
<text text-anchor="middle" x="799" y="-63.5" font-family="Helvetica,sans-Serif" font-size="10.00" fill="#000000">include/chig/GraphModule.hpp</text>
</a>
</g>
</g>
<!-- Node12&#45;&gt;Node13 -->
<g id="edge5" class="edge">
<title>Node12&#45;&gt;Node13</title>
<path fill="none" stroke="#191970" d="M876.3206,-165.6294C855.0434,-158.8344 833.5061,-148.3077 818,-132 803.2107,-116.4462 799.8255,-90.1355 799.1191,-75.8844"/>
<polygon fill="#191970" stroke="#191970" points="875.4743,-169.0287 886.0557,-168.4962 877.4517,-162.3138 875.4743,-169.0287"/>
</g>
<!-- Node18 -->
<g id="node11" class="node">
<title>Node18</title>
<g id="a_node11"><a xlink:href="JsonSerializer_8cpp_source.html" target="_top" xlink:title="src/JsonSerializer.cpp">
<polygon fill="#ffffff" stroke="#000000" points="1013,-.5 1013,-19.5 1133,-19.5 1133,-.5 1013,-.5"/>
<text text-anchor="middle" x="1073" y="-7.5" font-family="Helvetica,sans-Serif" font-size="10.00" fill="#000000">src/JsonSerializer.cpp</text>
</a>
</g>
</g>
<!-- Node12&#45;&gt;Node18 -->
<g id="edge25" class="edge">
<title>Node12&#45;&gt;Node18</title>
<path fill="none" stroke="#191970" d="M965.7611,-160.2196C971.9627,-151.8647 979.1822,-141.6404 985,-132 1004.5125,-99.6668 1000.2855,-86.1699 1023,-56 1033.7838,-41.6767 1049.3888,-28.1455 1060.2881,-19.5154"/>
<polygon fill="#191970" stroke="#191970" points="962.7875,-158.349 959.5458,-168.4357 968.3702,-162.5721 962.7875,-158.349"/>
</g>
<!-- Node20 -->
<g id="node13" class="node">
<title>Node20</title>
<g id="a_node13"><a xlink:href="NodeType_8hpp.html" target="_top" xlink:title="Defines the NodeType class. ">
<polygon fill="#ffffff" stroke="#000000" points="826.5,-112.5 826.5,-131.5 975.5,-131.5 975.5,-112.5 826.5,-112.5"/>
<text text-anchor="middle" x="901" y="-119.5" font-family="Helvetica,sans-Serif" font-size="10.00" fill="#000000">include/chig/NodeType.hpp</text>
</a>
</g>
</g>
<!-- Node12&#45;&gt;Node20 -->
<g id="edge13" class="edge">
<title>Node12&#45;&gt;Node20</title>
<path fill="none" stroke="#191970" d="M936.3251,-160.7884C927.6006,-151.2085 917.0646,-139.6396 909.7817,-131.6427"/>
<polygon fill="#191970" stroke="#191970" points="933.7954,-163.2088 943.1165,-168.2455 938.9709,-158.4954 933.7954,-163.2088"/>
</g>
<!-- Node13&#45;&gt;Node11 -->
<g id="edge6" class="edge">
<title>Node13&#45;&gt;Node11</title>
<path fill="none" stroke="#191970" d="M887.8378,-55.2379C957.1822,-46.5591 1055.8801,-33.5963 1142,-20 1144.8759,-19.546 1147.8331,-19.061 1150.813,-18.5586"/>
<polygon fill="#191970" stroke="#191970" points="887.3145,-51.776 877.8246,-56.4869 888.181,-58.7221 887.3145,-51.776"/>
</g>
<!-- Node14 -->
<g id="node7" class="node">
<title>Node14</title>
<g id="a_node7"><a xlink:href="FunctionCompiler_8cpp.html" target="_top" xlink:title="src/FunctionCompiler.cpp">
<polygon fill="#ffffff" stroke="#000000" points="729,-.5 729,-19.5 869,-19.5 869,-.5 729,-.5"/>
<text text-anchor="middle" x="799" y="-7.5" font-family="Helvetica,sans-Serif" font-size="10.00" fill="#000000">src/FunctionCompiler.cpp</text>
</a>
</g>
</g>
<!-- Node13&#45;&gt;Node14 -->
<g id="edge7" class="edge">
<title>Node13&#45;&gt;Node14</title>
<path fill="none" stroke="#191970" d="M799,-46.1575C799,-37.155 799,-26.9199 799,-19.6427"/>
<polygon fill="#191970" stroke="#191970" points="795.5001,-46.2455 799,-56.2455 802.5001,-46.2456 795.5001,-46.2455"/>
</g>
<!-- Node15 -->
<g id="node8" class="node">
<title>Node15</title>
<g id="a_node8"><a xlink:href="GraphFunction_8cpp.html" target="_top" xlink:title="src/GraphFunction.cpp">
<polygon fill="#ffffff" stroke="#000000" points="585.5,-.5 585.5,-19.5 710.5,-19.5 710.5,-.5 585.5,-.5"/>
<text text-anchor="middle" x="648" y="-7.5" font-family="Helvetica,sans-Serif" font-size="10.00" fill="#000000">src/GraphFunction.cpp</text>
</a>
</g>
</g>
<!-- Node13&#45;&gt;Node15 -->
<g id="edge8" class="edge">
<title>Node13&#45;&gt;Node15</title>
<path fill="none" stroke="#191970" d="M763.377,-52.7888C735.8062,-42.5639 698.2851,-28.6488 673.6191,-19.5011"/>
<polygon fill="#191970" stroke="#191970" points="762.4491,-56.1776 773.0422,-56.3733 764.8832,-49.6144 762.4491,-56.1776"/>
</g>
<!-- Node16 -->
<g id="node9" class="node">
<title>Node16</title>
<g id="a_node9"><a xlink:href="GraphModule_8cpp.html" target="_top" xlink:title="src/GraphModule.cpp">
<polygon fill="#ffffff" stroke="#000000" points="297.5,-.5 297.5,-19.5 416.5,-19.5 416.5,-.5 297.5,-.5"/>
<text text-anchor="middle" x="357" y="-7.5" font-family="Helvetica,sans-Serif" font-size="10.00" fill="#000000">src/GraphModule.cpp</text>
</a>
</g>
</g>
<!-- Node13&#45;&gt;Node16 -->
<g id="edge9" class="edge">
<title>Node13&#45;&gt;Node16</title>
<path fill="none" stroke="#191970" d="M706.8574,-55.2817C631.1095,-46.3227 521.0161,-32.9629 425,-20 422.2802,-19.6328 419.5002,-19.2509 416.6928,-18.8598"/>
<polygon fill="#191970" stroke="#191970" points="706.5066,-58.7645 716.8481,-56.4613 707.3275,-51.8128 706.5066,-58.7645"/>
</g>
<!-- Node17 -->
<g id="node10" class="node">
<title>Node17</title>
<g id="a_node10"><a xlink:href="JsonDeserializer_8cpp_source.html" target="_top" xlink:title="src/JsonDeserializer.cpp">
<polygon fill="#ffffff" stroke="#000000" points="434.5,-.5 434.5,-19.5 567.5,-19.5 567.5,-.5 434.5,-.5"/>
<text text-anchor="middle" x="501" y="-7.5" font-family="Helvetica,sans-Serif" font-size="10.00" fill="#000000">src/JsonDeserializer.cpp</text>
</a>
</g>
</g>
<!-- Node13&#45;&gt;Node17 -->
<g id="edge10" class="edge">
<title>Node13&#45;&gt;Node17</title>
<path fill="none" stroke="#191970" d="M738.1515,-54.5654C683.1914,-44.2373 603.2459,-29.214 551.6795,-19.5237"/>
<polygon fill="#191970" stroke="#191970" points="737.6362,-58.0297 748.1106,-56.4369 738.929,-51.1501 737.6362,-58.0297"/>
</g>
<!-- Node13&#45;&gt;Node18 -->
<g id="edge11" class="edge">
<title>Node13&#45;&gt;Node18</title>
<path fill="none" stroke="#191970" d="M855.8942,-54.372C906.3958,-44.0505 979.2837,-29.1537 1026.402,-19.5237"/>
<polygon fill="#191970" stroke="#191970" points="854.8876,-51.0053 845.791,-56.4369 856.2893,-57.8635 854.8876,-51.0053"/>
</g>
<!-- Node19 -->
<g id="node12" class="node">
<title>Node19</title>
<g id="a_node12"><a xlink:href="StructType_8cpp_source.html" target="_top" xlink:title="src/StructType.cpp">
<polygon fill="#ffffff" stroke="#000000" points="887.5,-.5 887.5,-19.5 994.5,-19.5 994.5,-.5 887.5,-.5"/>
<text text-anchor="middle" x="941" y="-7.5" font-family="Helvetica,sans-Serif" font-size="10.00" fill="#000000">src/StructType.cpp</text>
</a>
</g>
</g>
<!-- Node13&#45;&gt;Node19 -->
<g id="edge12" class="edge">
<title>Node13&#45;&gt;Node19</title>
<path fill="none" stroke="#191970" d="M832.8415,-52.6541C858.7366,-42.4419 893.8138,-28.6086 916.9079,-19.5011"/>
<polygon fill="#191970" stroke="#191970" points="831.4293,-49.4486 823.4107,-56.3733 833.9975,-55.9605 831.4293,-49.4486"/>
</g>
<!-- Node20&#45;&gt;Node9 -->
<g id="edge14" class="edge">
<title>Node20&#45;&gt;Node9</title>
<path fill="none" stroke="#191970" d="M974.635,-110.8853C1043.1092,-100.5496 1144.0413,-85.3145 1208.9057,-75.5237"/>
<polygon fill="#191970" stroke="#191970" points="973.7212,-107.4835 964.3556,-112.4369 974.766,-114.4051 973.7212,-107.4835"/>
</g>
<!-- Node20&#45;&gt;Node16 -->
<g id="edge23" class="edge">
<title>Node20&#45;&gt;Node16</title>
<path fill="none" stroke="#191970" d="M816.1164,-117.4263C708.3379,-110.859 528.8348,-97.1655 466,-76 427.4246,-63.0061 387.9918,-34.5952 368.8622,-19.642"/>
<polygon fill="#191970" stroke="#191970" points="816.1242,-120.933 826.3163,-118.0396 816.5444,-113.9456 816.1242,-120.933"/>
</g>
<!-- Node21 -->
<g id="node14" class="node">
<title>Node21</title>
<g id="a_node14"><a xlink:href="NodeInstance_8hpp.html" target="_top" xlink:title="Defines the NodeInstance class and related functions. ">
<polygon fill="#ffffff" stroke="#000000" points="475,-56.5 475,-75.5 641,-75.5 641,-56.5 475,-56.5"/>
<text text-anchor="middle" x="558" y="-63.5" font-family="Helvetica,sans-Serif" font-size="10.00" fill="#000000">include/chig/NodeInstance.hpp</text>
</a>
</g>
</g>
<!-- Node20&#45;&gt;Node21 -->
<g id="edge15" class="edge">
<title>Node20&#45;&gt;Node21</title>
<path fill="none" stroke="#191970" d="M832.532,-110.8215C769.233,-100.487 676.1783,-85.2944 616.3325,-75.5237"/>
<polygon fill="#191970" stroke="#191970" points="831.9926,-114.2797 842.4259,-112.4369 833.1206,-107.3712 831.9926,-114.2797"/>
</g>
<!-- Node24 -->
<g id="node17" class="node">
<title>Node24</title>
<g id="a_node17"><a xlink:href="LangModule_8cpp.html" target="_top" xlink:title="src/LangModule.cpp">
<polygon fill="#ffffff" stroke="#000000" points="1031.5,-56.5 1031.5,-75.5 1144.5,-75.5 1144.5,-56.5 1031.5,-56.5"/>
<text text-anchor="middle" x="1088" y="-63.5" font-family="Helvetica,sans-Serif" font-size="10.00" fill="#000000">src/LangModule.cpp</text>
</a>
</g>
</g>
<!-- Node20&#45;&gt;Node24 -->
<g id="edge24" class="edge">
<title>Node20&#45;&gt;Node24</title>
<path fill="none" stroke="#191970" d="M942.8877,-109.4561C977.2143,-99.1765 1025.0565,-84.8494 1056.273,-75.5011"/>
<polygon fill="#191970" stroke="#191970" points="941.722,-106.1515 933.1464,-112.3733 943.7302,-112.8573 941.722,-106.1515"/>
</g>
<!-- Node21&#45;&gt;Node14 -->
<g id="edge16" class="edge">
<title>Node21&#45;&gt;Node14</title>
<path fill="none" stroke="#191970" d="M609.1588,-54.1125C653.5304,-43.8021 716.9168,-29.0733 758.0142,-19.5237"/>
<polygon fill="#191970" stroke="#191970" points="608.1038,-50.7643 599.1555,-56.4369 609.6882,-57.5826 608.1038,-50.7643"/>
</g>
<!-- Node21&#45;&gt;Node15 -->
<g id="edge18" class="edge">
<title>Node21&#45;&gt;Node15</title>
<path fill="none" stroke="#191970" d="M582.4784,-50.769C598.4266,-40.8456 618.751,-28.1994 632.5028,-19.6427"/>
<polygon fill="#191970" stroke="#191970" points="580.3183,-47.9908 573.6768,-56.2455 584.0165,-53.9342 580.3183,-47.9908"/>
</g>
<!-- Node21&#45;&gt;Node16 -->
<g id="edge19" class="edge">
<title>Node21&#45;&gt;Node16</title>
<path fill="none" stroke="#191970" d="M513.4506,-53.5882C476.5216,-43.2996 424.7998,-28.8895 391.1022,-19.5011"/>
<polygon fill="#191970" stroke="#191970" points="512.8744,-57.0609 523.4469,-56.3733 514.7531,-50.3177 512.8744,-57.0609"/>
</g>
<!-- Node21&#45;&gt;Node17 -->
<g id="edge20" class="edge">
<title>Node21&#45;&gt;Node17</title>
<path fill="none" stroke="#191970" d="M540.7729,-49.0751C530.9659,-39.4402 519.036,-27.7196 510.8149,-19.6427"/>
<polygon fill="#191970" stroke="#191970" points="538.4851,-51.734 548.0714,-56.2455 543.3909,-46.7406 538.4851,-51.734"/>
</g>
<!-- Node21&#45;&gt;Node18 -->
<g id="edge21" class="edge">
<title>Node21&#45;&gt;Node18</title>
<path fill="none" stroke="#191970" d="M651.352,-57.499C741.6758,-49.0077 882.3835,-35.078 1004,-20 1006.883,-19.6426 1009.8318,-19.2643 1012.8089,-18.8721"/>
<polygon fill="#191970" stroke="#191970" points="650.7671,-54.0384 641.1373,-58.4563 651.4203,-61.0079 650.7671,-54.0384"/>
</g>
<!-- Node22 -->
<g id="node15" class="node">
<title>Node22</title>
<g id="a_node15"><a xlink:href="FunctionValidator_8cpp.html" target="_top" xlink:title="src/FunctionValidator.cpp">
<polygon fill="#ffffff" stroke="#000000" points="0,-.5 0,-19.5 140,-19.5 140,-.5 0,-.5"/>
<text text-anchor="middle" x="70" y="-7.5" font-family="Helvetica,sans-Serif" font-size="10.00" fill="#000000">src/FunctionValidator.cpp</text>
</a>
</g>
</g>
<!-- Node21&#45;&gt;Node22 -->
<g id="edge17" class="edge">
<title>Node21&#45;&gt;Node22</title>
<path fill="none" stroke="#191970" d="M464.772,-55.8881C381.8454,-46.8046 257.2932,-32.9432 149,-20 146.1173,-19.6555 143.176,-19.3002 140.205,-18.9382"/>
<polygon fill="#191970" stroke="#191970" points="464.6055,-59.3907 474.9269,-56.9994 465.367,-52.4323 464.6055,-59.3907"/>
</g>
<!-- Node23 -->
<g id="node16" class="node">
<title>Node23</title>
<g id="a_node16"><a xlink:href="NodeInstance_8cpp.html" target="_top" xlink:title="src/NodeInstance.cpp">
<polygon fill="#ffffff" stroke="#000000" points="158.5,-.5 158.5,-19.5 279.5,-19.5 279.5,-.5 158.5,-.5"/>
<text text-anchor="middle" x="219" y="-7.5" font-family="Helvetica,sans-Serif" font-size="10.00" fill="#000000">src/NodeInstance.cpp</text>
</a>
</g>
</g>
<!-- Node21&#45;&gt;Node23 -->
<g id="edge22" class="edge">
<title>Node21&#45;&gt;Node23</title>
<path fill="none" stroke="#191970" d="M489.9439,-54.7577C427.3913,-44.4245 335.6784,-29.2743 276.6522,-19.5237"/>
<polygon fill="#191970" stroke="#191970" points="489.6722,-58.2602 500.109,-56.4369 490.8132,-51.3538 489.6722,-58.2602"/>
</g>
<!-- Node25&#45;&gt;Node11 -->
<g id="edge27" class="edge">
<title>Node25&#45;&gt;Node11</title>
<path fill="none" stroke="#191970" d="M1146.872,-103.5723C1159.7883,-79.4618 1181.945,-38.1028 1191.8974,-19.5249"/>
<polygon fill="#191970" stroke="#191970" points="1143.7526,-101.9833 1142.1156,-112.4509 1149.923,-105.2889 1143.7526,-101.9833"/>
</g>
<!-- Node25&#45;&gt;Node24 -->
<g id="edge28" class="edge">
<title>Node25&#45;&gt;Node24</title>
<path fill="none" stroke="#191970" d="M1121.6878,-104.5004C1113.3553,-94.9775 1103.3647,-83.5596 1096.4373,-75.6427"/>
<polygon fill="#191970" stroke="#191970" points="1119.2457,-107.0245 1128.4649,-112.2455 1124.5138,-102.415 1119.2457,-107.0245"/>
</g>
</g>
</svg>
        <g id="navigator" transform="translate(0 0)" fill="#404254">
                <rect fill="#f2f5e9" fill-opacity="0.5" stroke="#606060" stroke-width=".5" x="0" y="0" width="60" height="60"/>
                <use id="zoomplus" xlink:href="#zoomPlus" x="17" y="9" onmousedown="handleZoom(evt,'in')"/>
                <use id="zoomminus" xlink:href="#zoomMin" x="42" y="9" onmousedown="handleZoom(evt,'out')"/>
                <use id="reset" xlink:href="#resetDef" x="30" y="36" onmousedown="handleReset()"/>
                <g id="arrowUp" xlink:href="#dirArrow" transform="translate(30 24)" onmousedown="handlePan(0,-1)">
                  <use xlink:href="#rim" fill="#404040">
                        <set attributeName="fill" to="#808080" begin="arrowUp.mouseover" end="arrowUp.mouseout"/>
                  </use>
                  <path fill="none" stroke="white" stroke-width="1.5" d="M0,-3.0v7 M-2.5,-0.5L0,-3.0L2.5,-0.5"/>
                </g>
                <g id="arrowRight" xlink:href="#dirArrow" transform="rotate(90) translate(36 -43)" onmousedown="handlePan(1,0)">
                  <use xlink:href="#rim" fill="#404040">
                        <set attributeName="fill" to="#808080" begin="arrowRight.mouseover" end="arrowRight.mouseout"/>
                  </use>
                  <path fill="none" stroke="white" stroke-width="1.5" d="M0,-3.0v7 M-2.5,-0.5L0,-3.0L2.5,-0.5"/>
                </g>
                <g id="arrowDown" xlink:href="#dirArrow" transform="rotate(180) translate(-30 -48)" onmousedown="handlePan(0,1)">
                  <use xlink:href="#rim" fill="#404040">
                        <set attributeName="fill" to="#808080" begin="arrowDown.mouseover" end="arrowDown.mouseout"/>
                  </use>
                  <path fill="none" stroke="white" stroke-width="1.5" d="M0,-3.0v7 M-2.5,-0.5L0,-3.0L2.5,-0.5"/>
                </g>
                <g id="arrowLeft" xlink:href="#dirArrow" transform="rotate(270) translate(-36 17)" onmousedown="handlePan(-1,0)">
                  <use xlink:href="#rim" fill="#404040">
                        <set attributeName="fill" to="#808080" begin="arrowLeft.mouseover" end="arrowLeft.mouseout"/>
                  </use>
                  <path fill="none" stroke="white" stroke-width="1.5" d="M0,-3.0v7 M-2.5,-0.5L0,-3.0L2.5,-0.5"/>
                </g>
        </g>
        <svg viewBox="0 0 15 15" width="100%" height="30px" preserveAspectRatio="xMaxYMin meet">
         <g id="arrow_out" transform="scale(0.3 0.3)">
          <a xlink:href="ChigModule_8hpp__dep__incl_org.svg" target="_base">
           <rect id="button" ry="5" rx="5" y="6" x="6" height="38" width="38"
                fill="#f2f5e9" fill-opacity="0.5" stroke="#606060" stroke-width="1.0"/>
           <path id="arrow"
             d="M 11.500037,31.436501 C 11.940474,20.09759 22.043105,11.32322 32.158766,21.979434 L 37.068811,17.246167 C 37.068811,17.246167 37.088388,32 37.088388,32 L 22.160133,31.978069 C 22.160133,31.978069 26.997745,27.140456 26.997745,27.140456 C 18.528582,18.264221 13.291696,25.230495 11.500037,31.436501 z"
             style="fill:#404040;"/>
          </a>
         </g>
        </svg>
</svg>
