<?xml version="1.0" encoding="UTF-8" standalone="no"?>
<!DOCTYPE svg PUBLIC "-//W3C//DTD SVG 1.1//EN"
 "http://www.w3.org/Graphics/SVG/1.1/DTD/svg11.dtd">
<!-- Generated by graphviz version 2.40.1 (20161225.0304)
 -->
<!-- Title: src/ChigModule.cpp Pages: 1 -->
<!--zoomable 263 -->
<svg id="main" version="1.1" xmlns="http://www.w3.org/2000/svg" xmlns:xlink="http://www.w3.org/1999/xlink" xml:space="preserve" onload="init(evt)">
<style type="text/css"><![CDATA[
.edge:hover path { stroke: red; }
.edge:hover polygon { stroke: red; fill: red; }
]]></style>
<script type="text/javascript"><![CDATA[
var edges = document.getElementsByTagName('g');
if (edges && edges.length) {
  for (var i=0;i<edges.length;i++) {
    if (edges[i].id.substr(0,4)=='edge') {
      edges[i].setAttribute('class','edge');
    }
  }
}
]]></script>
        <defs>
                <circle id="rim" cx="0" cy="0" r="7"/>
                <circle id="rim2" cx="0" cy="0" r="3.5"/>
                <g id="zoomPlus">
                        <use xlink:href="#rim" fill="#404040">
                                <set attributeName="fill" to="#808080" begin="zoomplus.mouseover" end="zoomplus.mouseout"/>
                        </use>
                        <path d="M-4,0h8M0,-4v8" fill="none" stroke="white" stroke-width="1.5" pointer-events="none"/>
                </g>
                <g id="zoomMin">
                        <use xlink:href="#rim" fill="#404040">
                                <set attributeName="fill" to="#808080" begin="zoomminus.mouseover" end="zoomminus.mouseout"/>
                        </use>
                        <path d="M-4,0h8" fill="none" stroke="white" stroke-width="1.5" pointer-events="none"/>
                </g>
                <g id="dirArrow">
                        <path fill="none" stroke="white" stroke-width="1.5" d="M0,-3.0v7 M-2.5,-0.5L0,-3.0L2.5,-0.5"/>
                </g>
               <g id="resetDef">
                       <use xlink:href="#rim2" fill="#404040">
                               <set attributeName="fill" to="#808080" begin="reset.mouseover" end="reset.mouseout"/>
                       </use>
               </g>
        </defs>

<script type="text/javascript">
var viewWidth = 1762;
var viewHeight = 263;
var sectionId = 'dynsection-0';
</script>
<script xlink:href="svgpan.js"/>
<svg id="graph" class="graph">
<g id="viewport">
<title>src/ChigModule.cpp</title>
<polygon fill="#ffffff" stroke="transparent" points="-4,4 -4,-259 1758,-259 1758,4 -4,4"/>
<!-- Node0 -->
<g id="node1" class="node">
<title>Node0</title>
<polygon fill="#bfbfbf" stroke="#000000" points="628,-235.5 628,-254.5 739,-254.5 739,-235.5 628,-235.5"/>
<text text-anchor="middle" x="683.5" y="-242.5" font-family="Helvetica,sans-Serif" font-size="10.00" fill="#000000">src/ChigModule.cpp</text>
</g>
<!-- Node1 -->
<g id="node2" class="node">
<title>Node1</title>
<g id="a_node2"><a xlink:href="ChigModule_8hpp.html" target="_top" xlink:title="Defines the ChigModule class. ">
<polygon fill="#ffffff" stroke="#000000" points="365.5,-179.5 365.5,-198.5 483.5,-198.5 483.5,-179.5 365.5,-179.5"/>
<text text-anchor="middle" x="424.5" y="-186.5" font-family="Helvetica,sans-Serif" font-size="10.00" fill="#000000">chig/ChigModule.hpp</text>
</a>
</g>
</g>
<!-- Node0&#45;&gt;Node1 -->
<g id="edge1" class="edge">
<title>Node0&#45;&gt;Node1</title>
<path fill="none" stroke="#191970" d="M639.2706,-235.4369C594.7585,-225.8127 526.051,-210.957 478.3831,-200.6504"/>
<polygon fill="#191970" stroke="#191970" points="479.0608,-197.2161 468.547,-198.5237 477.5814,-204.058 479.0608,-197.2161"/>
</g>
<!-- Node15 -->
<g id="node16" class="node">
<title>Node15</title>
<g id="a_node16"><a xlink:href="Context_8hpp.html" target="_top" xlink:title="Defines the Context class and related functions. ">
<polygon fill="#ffffff" stroke="#000000" points="913,-179.5 913,-198.5 1012,-198.5 1012,-179.5 913,-179.5"/>
<text text-anchor="middle" x="962.5" y="-186.5" font-family="Helvetica,sans-Serif" font-size="10.00" fill="#000000">chig/Context.hpp</text>
</a>
</g>
</g>
<!-- Node0&#45;&gt;Node15 -->
<g id="edge18" class="edge">
<title>Node0&#45;&gt;Node15</title>
<path fill="none" stroke="#191970" d="M731.1448,-235.4369C779.2947,-225.7724 853.7271,-210.8326 905.0993,-200.5213"/>
<polygon fill="#191970" stroke="#191970" points="905.9361,-203.9232 915.0517,-198.5237 904.5585,-197.0601 905.9361,-203.9232"/>
</g>
<!-- Node2 -->
<g id="node3" class="node">
<title>Node2</title>
<g id="a_node3"><a xlink:href="Fwd_8hpp.html" target="_top" xlink:title="Forward declares all the chigraph data types. ">
<polygon fill="#ffffff" stroke="#000000" points="491.5,-118 491.5,-137 571.5,-137 571.5,-118 491.5,-118"/>
<text text-anchor="middle" x="531.5" y="-125" font-family="Helvetica,sans-Serif" font-size="10.00" fill="#000000">chig/Fwd.hpp</text>
</a>
</g>
</g>
<!-- Node1&#45;&gt;Node2 -->
<g id="edge2" class="edge">
<title>Node1&#45;&gt;Node2</title>
<path fill="none" stroke="#191970" d="M441.2188,-179.3906C458.5722,-169.4165 485.9323,-153.6908 505.9882,-142.1633"/>
<polygon fill="#191970" stroke="#191970" points="507.9728,-145.0596 514.8987,-137.0419 504.4846,-138.9907 507.9728,-145.0596"/>
</g>
<!-- Node3 -->
<g id="node4" class="node">
<title>Node3</title>
<g id="a_node4"><a xlink:href="Result_8hpp.html" target="_top" xlink:title="Defines the Result class and related functions. ">
<polygon fill="#ffffff" stroke="#000000" points="227.5,-118 227.5,-137 319.5,-137 319.5,-118 227.5,-118"/>
<text text-anchor="middle" x="273.5" y="-125" font-family="Helvetica,sans-Serif" font-size="10.00" fill="#000000">chig/Result.hpp</text>
</a>
</g>
</g>
<!-- Node1&#45;&gt;Node3 -->
<g id="edge3" class="edge">
<title>Node1&#45;&gt;Node3</title>
<path fill="none" stroke="#191970" d="M400.9063,-179.3906C375.5304,-169.0554 334.9919,-152.5447 306.4707,-140.9284"/>
<polygon fill="#191970" stroke="#191970" points="307.5096,-137.5725 296.9281,-137.0419 304.8692,-144.0554 307.5096,-137.5725"/>
</g>
<!-- Node4 -->
<g id="node5" class="node">
<title>Node4</title>
<g id="a_node5"><a xlink:href="ToString_8hpp_source.html" target="_top" xlink:title="chig/ToString.hpp">
<polygon fill="#ffffff" stroke="#000000" points="223,-56.5 223,-75.5 324,-75.5 324,-56.5 223,-56.5"/>
<text text-anchor="middle" x="273.5" y="-63.5" font-family="Helvetica,sans-Serif" font-size="10.00" fill="#000000">chig/ToString.hpp</text>
</a>
</g>
</g>
<!-- Node1&#45;&gt;Node4 -->
<g id="edge8" class="edge">
<title>Node1&#45;&gt;Node4</title>
<path fill="none" stroke="#191970" d="M365.2917,-183.1127C288.9293,-174.913 164.2282,-159.2251 150.5,-143 125.0836,-112.961 176.4651,-90.9142 220.3953,-78.2889"/>
<polygon fill="#191970" stroke="#191970" points="221.4881,-81.6183 230.1984,-75.5866 219.6278,-74.87 221.4881,-81.6183"/>
</g>
<!-- Node6 -->
<g id="node7" class="node">
<title>Node6</title>
<polygon fill="#ffffff" stroke="#bfbfbf" points="124,-56.5 124,-75.5 205,-75.5 205,-56.5 124,-56.5"/>
<text text-anchor="middle" x="164.5" y="-63.5" font-family="Helvetica,sans-Serif" font-size="10.00" fill="#000000">chig/json.hpp</text>
</g>
<!-- Node1&#45;&gt;Node6 -->
<g id="edge9" class="edge">
<title>Node1&#45;&gt;Node6</title>
<path fill="none" stroke="#191970" d="M365.4832,-183.5053C286.5809,-175.5538 154.9056,-159.9267 140.5,-143 126.2577,-126.2652 138.497,-101.1108 150.1021,-84.149"/>
<polygon fill="#191970" stroke="#191970" points="153.2245,-85.8092 156.3118,-75.6742 147.5781,-81.6719 153.2245,-85.8092"/>
</g>
<!-- Node7 -->
<g id="node8" class="node">
<title>Node7</title>
<polygon fill="#ffffff" stroke="#bfbfbf" points="342.5,-56.5 342.5,-75.5 390.5,-75.5 390.5,-56.5 342.5,-56.5"/>
<text text-anchor="middle" x="366.5" y="-63.5" font-family="Helvetica,sans-Serif" font-size="10.00" fill="#000000">gsl/gsl</text>
</g>
<!-- Node1&#45;&gt;Node7 -->
<g id="edge17" class="edge">
<title>Node1&#45;&gt;Node7</title>
<path fill="none" stroke="#191970" d="M404.6759,-179.3695C391.1785,-171.6136 374.3843,-159.3161 366.5,-143 357.8046,-125.0055 359.2652,-101.7681 361.9853,-85.5482"/>
<polygon fill="#191970" stroke="#191970" points="365.4478,-86.0807 363.9604,-75.5908 358.5816,-84.7187 365.4478,-86.0807"/>
</g>
<!-- Node8 -->
<g id="node9" class="node">
<title>Node8</title>
<polygon fill="#ffffff" stroke="#bfbfbf" points="160,-118 160,-137 209,-137 209,-118 160,-118"/>
<text text-anchor="middle" x="184.5" y="-125" font-family="Helvetica,sans-Serif" font-size="10.00" fill="#000000">cstdlib</text>
</g>
<!-- Node1&#45;&gt;Node8 -->
<g id="edge10" class="edge">
<title>Node1&#45;&gt;Node8</title>
<path fill="none" stroke="#191970" d="M366.7928,-179.4418C325.0024,-171.7208 267.4853,-159.4355 218.5,-143 216.6549,-142.3809 214.7754,-141.6941 212.8947,-140.9639"/>
<polygon fill="#191970" stroke="#191970" points="214.212,-137.721 203.6375,-137.0642 211.4944,-144.172 214.212,-137.721"/>
</g>
<!-- Node9 -->
<g id="node10" class="node">
<title>Node9</title>
<polygon fill="#ffffff" stroke="#bfbfbf" points="0,-118 0,-137 65,-137 65,-118 0,-118"/>
<text text-anchor="middle" x="32.5" y="-125" font-family="Helvetica,sans-Serif" font-size="10.00" fill="#000000">functional</text>
</g>
<!-- Node1&#45;&gt;Node9 -->
<g id="edge11" class="edge">
<title>Node1&#45;&gt;Node9</title>
<path fill="none" stroke="#191970" d="M365.3022,-184.4785C296.1032,-178.4192 178.4442,-165.7035 79.5,-143 75.8519,-142.1629 72.0844,-141.1619 68.3438,-140.077"/>
<polygon fill="#191970" stroke="#191970" points="69.1932,-136.6761 58.6055,-137.0641 67.1243,-143.3634 69.1932,-136.6761"/>
</g>
<!-- Node10 -->
<g id="node11" class="node">
<title>Node10</title>
<polygon fill="#ffffff" stroke="#bfbfbf" points="589.5,-118 589.5,-137 633.5,-137 633.5,-118 589.5,-118"/>
<text text-anchor="middle" x="611.5" y="-125" font-family="Helvetica,sans-Serif" font-size="10.00" fill="#000000">string</text>
</g>
<!-- Node1&#45;&gt;Node10 -->
<g id="edge12" class="edge">
<title>Node1&#45;&gt;Node10</title>
<path fill="none" stroke="#191970" d="M463.931,-179.4399C495.8644,-171.208 541.7488,-158.2623 580.5,-143 581.8647,-142.4625 583.2505,-141.8869 584.6411,-141.2852"/>
<polygon fill="#191970" stroke="#191970" points="586.1224,-144.4563 593.7136,-137.0655 583.1703,-138.1093 586.1224,-144.4563"/>
</g>
<!-- Node11 -->
<g id="node12" class="node">
<title>Node11</title>
<polygon fill="#ffffff" stroke="#bfbfbf" points="652,-118 652,-137 745,-137 745,-118 652,-118"/>
<text text-anchor="middle" x="698.5" y="-125" font-family="Helvetica,sans-Serif" font-size="10.00" fill="#000000">unordered_map</text>
</g>
<!-- Node1&#45;&gt;Node11 -->
<g id="edge13" class="edge">
<title>Node1&#45;&gt;Node11</title>
<path fill="none" stroke="#191970" d="M474.0484,-179.4562C518.363,-170.7042 585.0008,-157.0096 642.5,-143 646.8063,-141.9508 651.2841,-140.8051 655.7475,-139.627"/>
<polygon fill="#191970" stroke="#191970" points="656.6781,-143.0012 665.4239,-137.0211 654.8577,-136.242 656.6781,-143.0012"/>
</g>
<!-- Node12 -->
<g id="node13" class="node">
<title>Node12</title>
<polygon fill="#ffffff" stroke="#bfbfbf" points="763.5,-118 763.5,-137 849.5,-137 849.5,-118 763.5,-118"/>
<text text-anchor="middle" x="806.5" y="-125" font-family="Helvetica,sans-Serif" font-size="10.00" fill="#000000">unordered_set</text>
</g>
<!-- Node1&#45;&gt;Node12 -->
<g id="edge14" class="edge">
<title>Node1&#45;&gt;Node12</title>
<path fill="none" stroke="#191970" d="M483.6907,-183.4751C550.1033,-176.6465 660.81,-163.3709 754.5,-143 758.6941,-142.0881 763.0425,-141.0098 767.3574,-139.8532"/>
<polygon fill="#191970" stroke="#191970" points="768.6027,-143.1385 777.2762,-137.054 766.7014,-136.4017 768.6027,-143.1385"/>
</g>
<!-- Node13 -->
<g id="node14" class="node">
<title>Node13</title>
<polygon fill="#ffffff" stroke="#bfbfbf" points="868,-118 868,-137 915,-137 915,-118 868,-118"/>
<text text-anchor="middle" x="891.5" y="-125" font-family="Helvetica,sans-Serif" font-size="10.00" fill="#000000">vector</text>
</g>
<!-- Node1&#45;&gt;Node13 -->
<g id="edge15" class="edge">
<title>Node1&#45;&gt;Node13</title>
<path fill="none" stroke="#191970" d="M483.5472,-185.1824C585.3075,-178.1967 789.4461,-162.2864 858.5,-143 860.4204,-142.4637 862.3678,-141.8246 864.3065,-141.1163"/>
<polygon fill="#191970" stroke="#191970" points="865.8934,-144.2462 873.7623,-137.1518 863.1868,-137.7906 865.8934,-144.2462"/>
</g>
<!-- Node14 -->
<g id="node15" class="node">
<title>Node14</title>
<polygon fill="#ffffff" stroke="#bfbfbf" points="375.5,-118 375.5,-137 473.5,-137 473.5,-118 375.5,-118"/>
<text text-anchor="middle" x="424.5" y="-125" font-family="Helvetica,sans-Serif" font-size="10.00" fill="#000000">llvm/IR/Module.h</text>
</g>
<!-- Node1&#45;&gt;Node14 -->
<g id="edge16" class="edge">
<title>Node1&#45;&gt;Node14</title>
<path fill="none" stroke="#191970" d="M424.5,-179.3906C424.5,-170.8657 424.5,-158.1392 424.5,-147.4235"/>
<polygon fill="#191970" stroke="#191970" points="428.0001,-147.2448 424.5,-137.2449 421.0001,-147.2449 428.0001,-147.2448"/>
</g>
<!-- Node3&#45;&gt;Node4 -->
<g id="edge4" class="edge">
<title>Node3&#45;&gt;Node4</title>
<path fill="none" stroke="#191970" d="M273.5,-117.8906C273.5,-109.3657 273.5,-96.6392 273.5,-85.9235"/>
<polygon fill="#191970" stroke="#191970" points="277.0001,-85.7448 273.5,-75.7449 270.0001,-85.7449 277.0001,-85.7448"/>
</g>
<!-- Node3&#45;&gt;Node6 -->
<g id="edge6" class="edge">
<title>Node3&#45;&gt;Node6</title>
<path fill="none" stroke="#191970" d="M256.4688,-117.8906C238.711,-107.8713 210.667,-92.0483 190.2118,-80.5071"/>
<polygon fill="#191970" stroke="#191970" points="191.8409,-77.4077 181.4117,-75.5419 188.4011,-83.5042 191.8409,-77.4077"/>
</g>
<!-- Node3&#45;&gt;Node7 -->
<g id="edge7" class="edge">
<title>Node3&#45;&gt;Node7</title>
<path fill="none" stroke="#191970" d="M288.0313,-117.8906C302.9094,-108.0519 326.2504,-92.6167 343.6128,-81.1351"/>
<polygon fill="#191970" stroke="#191970" points="345.6602,-83.9773 352.0708,-75.5419 341.799,-78.1385 345.6602,-83.9773"/>
</g>
<!-- Node5 -->
<g id="node6" class="node">
<title>Node5</title>
<polygon fill="#ffffff" stroke="#bfbfbf" points="245.5,-.5 245.5,-19.5 301.5,-19.5 301.5,-.5 245.5,-.5"/>
<text text-anchor="middle" x="273.5" y="-7.5" font-family="Helvetica,sans-Serif" font-size="10.00" fill="#000000">sstream</text>
</g>
<!-- Node4&#45;&gt;Node5 -->
<g id="edge5" class="edge">
<title>Node4&#45;&gt;Node5</title>
<path fill="none" stroke="#191970" d="M273.5,-56.2455C273.5,-48.9382 273.5,-38.6944 273.5,-29.7046"/>
<polygon fill="#191970" stroke="#191970" points="277.0001,-29.6426 273.5,-19.6427 270.0001,-29.6427 277.0001,-29.6426"/>
</g>
<!-- Node15&#45;&gt;Node2 -->
<g id="edge24" class="edge">
<title>Node15&#45;&gt;Node2</title>
<path fill="none" stroke="#191970" d="M912.8653,-185.9896C839.523,-180.875 698.1807,-168.4649 580.5,-143 576.5417,-142.1435 572.4466,-141.1034 568.3876,-139.9718"/>
<polygon fill="#191970" stroke="#191970" points="569.054,-136.5185 558.4712,-137.0227 567.0586,-143.2281 569.054,-136.5185"/>
</g>
<!-- Node15&#45;&gt;Node4 -->
<g id="edge25" class="edge">
<title>Node15&#45;&gt;Node4</title>
<path fill="none" stroke="#191970" d="M965.4121,-179.3435C969.6913,-162.9531 975.3725,-129.744 957.5,-112 909.9963,-64.8379 438.4669,-82.3184 334.3088,-75.6926"/>
<polygon fill="#191970" stroke="#191970" points="334.4437,-72.1916 324.1855,-74.8411 333.8569,-79.167 334.4437,-72.1916"/>
</g>
<!-- Node15&#45;&gt;Node6 -->
<g id="edge26" class="edge">
<title>Node15&#45;&gt;Node6</title>
<path fill="none" stroke="#191970" d="M960.9447,-179.3871C957.6363,-162.4365 948.169,-127.5571 924.5,-112 860.5935,-69.9958 329.0371,-84.8494 215.2708,-75.79"/>
<polygon fill="#191970" stroke="#191970" points="215.3624,-72.2817 205.0636,-74.7687 214.6654,-79.247 215.3624,-72.2817"/>
</g>
<!-- Node15&#45;&gt;Node7 -->
<g id="edge31" class="edge">
<title>Node15&#45;&gt;Node7</title>
<path fill="none" stroke="#191970" d="M1012.2216,-187.1203C1155.4985,-181.4651 1560.2719,-163.715 1579.5,-143 1588.8732,-132.902 1589.056,-121.9252 1579.5,-112 1558.4862,-90.1742 595.891,-70.4319 400.7776,-66.6505"/>
<polygon fill="#191970" stroke="#191970" points="400.6115,-63.1467 390.5459,-66.4532 400.4765,-70.1454 400.6115,-63.1467"/>
</g>
<!-- Node15&#45;&gt;Node10 -->
<g id="edge20" class="edge">
<title>Node15&#45;&gt;Node10</title>
<path fill="none" stroke="#191970" d="M912.8351,-186.5671C849.2002,-182.3856 736.0597,-171.3424 643.5,-143 641.6407,-142.4307 639.7545,-141.7668 637.8761,-141.0402"/>
<polygon fill="#191970" stroke="#191970" points="639.2753,-137.8321 628.7106,-137.0327 636.4709,-144.2458 639.2753,-137.8321"/>
</g>
<!-- Node15&#45;&gt;Node11 -->
<g id="edge21" class="edge">
<title>Node15&#45;&gt;Node11</title>
<path fill="none" stroke="#191970" d="M916.0744,-179.4602C873.8138,-170.6038 809.77,-156.7505 754.5,-143 750.3701,-141.9725 746.0806,-140.8628 741.7962,-139.7257"/>
<polygon fill="#191970" stroke="#191970" points="742.4528,-136.2777 731.8861,-137.0491 740.6275,-143.0356 742.4528,-136.2777"/>
</g>
<!-- Node15&#45;&gt;Node12 -->
<g id="edge22" class="edge">
<title>Node15&#45;&gt;Node12</title>
<path fill="none" stroke="#191970" d="M938.125,-179.3906C911.7944,-169.0103 869.662,-152.4004 840.1771,-140.7766"/>
<polygon fill="#191970" stroke="#191970" points="841.2907,-137.4534 830.7038,-137.0419 838.7233,-143.9657 841.2907,-137.4534"/>
</g>
<!-- Node15&#45;&gt;Node13 -->
<g id="edge23" class="edge">
<title>Node15&#45;&gt;Node13</title>
<path fill="none" stroke="#191970" d="M951.4063,-179.3906C940.5285,-169.9683 923.7252,-155.4134 910.68,-144.1137"/>
<polygon fill="#191970" stroke="#191970" points="912.6004,-141.1466 902.7502,-137.2449 908.0173,-146.4377 912.6004,-141.1466"/>
</g>
<!-- Node15&#45;&gt;Node14 -->
<g id="edge28" class="edge">
<title>Node15&#45;&gt;Node14</title>
<path fill="none" stroke="#191970" d="M912.7243,-186.9477C825.1382,-182.7336 638.0061,-171.0308 482.5,-143 477.3119,-142.0648 471.9099,-140.8941 466.581,-139.6175"/>
<polygon fill="#191970" stroke="#191970" points="467.0518,-136.1264 456.4988,-137.066 465.3344,-142.9125 467.0518,-136.1264"/>
</g>
<!-- Node16 -->
<g id="node17" class="node">
<title>Node16</title>
<polygon fill="#ffffff" stroke="#bfbfbf" points="1512.5,-118 1512.5,-137 1570.5,-137 1570.5,-118 1512.5,-118"/>
<text text-anchor="middle" x="1541.5" y="-125" font-family="Helvetica,sans-Serif" font-size="10.00" fill="#000000">memory</text>
</g>
<!-- Node15&#45;&gt;Node16 -->
<g id="edge19" class="edge">
<title>Node15&#45;&gt;Node16</title>
<path fill="none" stroke="#191970" d="M1012.2037,-186.6953C1127.612,-181.0339 1410.9352,-165.2659 1503.5,-143 1506.2926,-142.3283 1509.148,-141.4837 1511.9771,-140.5375"/>
<polygon fill="#191970" stroke="#191970" points="1513.2217,-143.8089 1521.3655,-137.0317 1510.7729,-137.2511 1513.2217,-143.8089"/>
</g>
<!-- Node17 -->
<g id="node18" class="node">
<title>Node17</title>
<polygon fill="#ffffff" stroke="#bfbfbf" points="1627,-118 1627,-137 1754,-137 1754,-118 1627,-118"/>
<text text-anchor="middle" x="1690.5" y="-125" font-family="Helvetica,sans-Serif" font-size="10.00" fill="#000000">llvm/IR/LLVMContext.h</text>
</g>
<!-- Node15&#45;&gt;Node17 -->
<g id="edge27" class="edge">
<title>Node15&#45;&gt;Node17</title>
<path fill="none" stroke="#191970" d="M1012.0484,-187.6144C1121.0433,-184.1027 1389.6531,-172.907 1612.5,-143 1620.5745,-141.9164 1629.0708,-140.5088 1637.3654,-138.9841"/>
<polygon fill="#191970" stroke="#191970" points="1638.1746,-142.393 1647.3412,-137.0803 1636.8623,-135.5171 1638.1746,-142.393"/>
</g>
<!-- Node18 -->
<g id="node19" class="node">
<title>Node18</title>
<polygon fill="#ffffff" stroke="#bfbfbf" points="1010,-118 1010,-137 1097,-137 1097,-118 1010,-118"/>
<text text-anchor="middle" x="1053.5" y="-125" font-family="Helvetica,sans-Serif" font-size="10.00" fill="#000000">llvm/IR/Type.h</text>
</g>
<!-- Node15&#45;&gt;Node18 -->
<g id="edge29" class="edge">
<title>Node15&#45;&gt;Node18</title>
<path fill="none" stroke="#191970" d="M976.7188,-179.3906C991.1434,-169.6421 1013.6976,-154.3994 1030.636,-142.9521"/>
<polygon fill="#191970" stroke="#191970" points="1033.0556,-145.5412 1039.3811,-137.0419 1029.1359,-139.7415 1033.0556,-145.5412"/>
</g>
<!-- Node19 -->
<g id="node20" class="node">
<title>Node19</title>
<polygon fill="#ffffff" stroke="#bfbfbf" points="1115.5,-112.5 1115.5,-142.5 1231.5,-142.5 1231.5,-112.5 1115.5,-112.5"/>
<text text-anchor="start" x="1123.5" y="-130.5" font-family="Helvetica,sans-Serif" font-size="10.00" fill="#000000">llvm/Support/raw_os</text>
<text text-anchor="middle" x="1173.5" y="-119.5" font-family="Helvetica,sans-Serif" font-size="10.00" fill="#000000">_ostream.h</text>
</g>
<!-- Node15&#45;&gt;Node19 -->
<g id="edge30" class="edge">
<title>Node15&#45;&gt;Node19</title>
<path fill="none" stroke="#191970" d="M995.4688,-179.3906C1026.5369,-170.3352 1073.8702,-156.539 1111.9228,-145.4479"/>
<polygon fill="#191970" stroke="#191970" points="1113.2625,-148.7031 1121.8836,-142.5446 1111.3037,-141.9827 1113.2625,-148.7031"/>
</g>
<!-- Node20 -->
<g id="node21" class="node">
<title>Node20</title>
<polygon fill="#ffffff" stroke="#bfbfbf" points="1250,-118 1250,-137 1369,-137 1369,-118 1250,-118"/>
<text text-anchor="middle" x="1309.5" y="-125" font-family="Helvetica,sans-Serif" font-size="10.00" fill="#000000">boost/filesystem.hpp</text>
</g>
<!-- Node15&#45;&gt;Node20 -->
<g id="edge32" class="edge">
<title>Node15&#45;&gt;Node20</title>
<path fill="none" stroke="#191970" d="M1012.1172,-181.663C1067.8452,-173.2197 1160.9122,-158.5107 1240.5,-143 1246.3673,-141.8565 1252.4986,-140.5874 1258.5813,-139.2817"/>
<polygon fill="#191970" stroke="#191970" points="1259.6954,-142.6208 1268.7169,-137.0655 1258.2001,-135.7824 1259.6954,-142.6208"/>
</g>
<!-- Node21 -->
<g id="node22" class="node">
<title>Node21</title>
<polygon fill="#ffffff" stroke="#bfbfbf" points="1387,-118 1387,-137 1494,-137 1494,-118 1387,-118"/>
<text text-anchor="middle" x="1440.5" y="-125" font-family="Helvetica,sans-Serif" font-size="10.00" fill="#000000">boost/optional.hpp</text>
</g>
<!-- Node15&#45;&gt;Node21 -->
<g id="edge33" class="edge">
<title>Node15&#45;&gt;Node21</title>
<path fill="none" stroke="#191970" d="M1012.1188,-185.688C1090.4254,-179.9736 1247.2607,-166.5501 1378.5,-143 1384.2368,-141.9706 1390.2299,-140.711 1396.1324,-139.359"/>
<polygon fill="#191970" stroke="#191970" points="1397.0064,-142.7487 1405.9194,-137.0208 1395.3798,-135.9403 1397.0064,-142.7487"/>
</g>
</g>
</svg>
        <g id="navigator" transform="translate(0 0)" fill="#404254">
                <rect fill="#f2f5e9" fill-opacity="0.5" stroke="#606060" stroke-width=".5" x="0" y="0" width="60" height="60"/>
                <use id="zoomplus" xlink:href="#zoomPlus" x="17" y="9" onmousedown="handleZoom(evt,'in')"/>
                <use id="zoomminus" xlink:href="#zoomMin" x="42" y="9" onmousedown="handleZoom(evt,'out')"/>
                <use id="reset" xlink:href="#resetDef" x="30" y="36" onmousedown="handleReset()"/>
                <g id="arrowUp" xlink:href="#dirArrow" transform="translate(30 24)" onmousedown="handlePan(0,-1)">
                  <use xlink:href="#rim" fill="#404040">
                        <set attributeName="fill" to="#808080" begin="arrowUp.mouseover" end="arrowUp.mouseout"/>
                  </use>
                  <path fill="none" stroke="white" stroke-width="1.5" d="M0,-3.0v7 M-2.5,-0.5L0,-3.0L2.5,-0.5"/>
                </g>
                <g id="arrowRight" xlink:href="#dirArrow" transform="rotate(90) translate(36 -43)" onmousedown="handlePan(1,0)">
                  <use xlink:href="#rim" fill="#404040">
                        <set attributeName="fill" to="#808080" begin="arrowRight.mouseover" end="arrowRight.mouseout"/>
                  </use>
                  <path fill="none" stroke="white" stroke-width="1.5" d="M0,-3.0v7 M-2.5,-0.5L0,-3.0L2.5,-0.5"/>
                </g>
                <g id="arrowDown" xlink:href="#dirArrow" transform="rotate(180) translate(-30 -48)" onmousedown="handlePan(0,1)">
                  <use xlink:href="#rim" fill="#404040">
                        <set attributeName="fill" to="#808080" begin="arrowDown.mouseover" end="arrowDown.mouseout"/>
                  </use>
                  <path fill="none" stroke="white" stroke-width="1.5" d="M0,-3.0v7 M-2.5,-0.5L0,-3.0L2.5,-0.5"/>
                </g>
                <g id="arrowLeft" xlink:href="#dirArrow" transform="rotate(270) translate(-36 17)" onmousedown="handlePan(-1,0)">
                  <use xlink:href="#rim" fill="#404040">
                        <set attributeName="fill" to="#808080" begin="arrowLeft.mouseover" end="arrowLeft.mouseout"/>
                  </use>
                  <path fill="none" stroke="white" stroke-width="1.5" d="M0,-3.0v7 M-2.5,-0.5L0,-3.0L2.5,-0.5"/>
                </g>
        </g>
        <svg viewBox="0 0 15 15" width="100%" height="30px" preserveAspectRatio="xMaxYMin meet">
         <g id="arrow_out" transform="scale(0.3 0.3)">
          <a xlink:href="ChigModule_8cpp__incl_org.svg" target="_base">
           <rect id="button" ry="5" rx="5" y="6" x="6" height="38" width="38"
                fill="#f2f5e9" fill-opacity="0.5" stroke="#606060" stroke-width="1.0"/>
           <path id="arrow"
             d="M 11.500037,31.436501 C 11.940474,20.09759 22.043105,11.32322 32.158766,21.979434 L 37.068811,17.246167 C 37.068811,17.246167 37.088388,32 37.088388,32 L 22.160133,31.978069 C 22.160133,31.978069 26.997745,27.140456 26.997745,27.140456 C 18.528582,18.264221 13.291696,25.230495 11.500037,31.436501 z"
             style="fill:#404040;"/>
          </a>
         </g>
        </svg>
</svg>
