<?xml version="1.0" encoding="UTF-8" standalone="no"?>
<!DOCTYPE svg PUBLIC "-//W3C//DTD SVG 1.1//EN"
 "http://www.w3.org/Graphics/SVG/1.1/DTD/svg11.dtd">
<!-- Generated by graphviz version 2.40.1 (20161225.0304)
 -->
<!-- Title: libchigraph/src/ChiModule.cpp Pages: 1 -->
<svg width="1678pt" height="207pt"
 viewBox="0.00 0.00 1678.00 207.00" xmlns="http://www.w3.org/2000/svg" xmlns:xlink="http://www.w3.org/1999/xlink">
<g id="graph0" class="graph" transform="scale(1 1) rotate(0) translate(4 203)">
<title>libchigraph/src/ChiModule.cpp</title>
<polygon fill="#ffffff" stroke="transparent" points="-4,4 -4,-203 1674,-203 1674,4 -4,4"/>
<!-- Node0 -->
<g id="node1" class="node">
<title>Node0</title>
<polygon fill="#bfbfbf" stroke="#000000" points="499.5,-179.5 499.5,-198.5 646.5,-198.5 646.5,-179.5 499.5,-179.5"/>
<text text-anchor="middle" x="573" y="-186.5" font-family="Helvetica,sans-Serif" font-size="10.00" fill="#000000">libchigraph/src/ChiModule.cpp</text>
</g>
<!-- Node1 -->
<g id="node2" class="node">
<title>Node1</title>
<g id="a_node2"><a xlink:href="ChiModule_8hpp.html" target="_top" xlink:title="Defines the ChiModule class. ">
<polygon fill="#ffffff" stroke="#000000" points="340.5,-123.5 340.5,-142.5 437.5,-142.5 437.5,-123.5 340.5,-123.5"/>
<text text-anchor="middle" x="389" y="-130.5" font-family="Helvetica,sans-Serif" font-size="10.00" fill="#000000">chi/ChiModule.hpp</text>
</a>
</g>
</g>
<!-- Node0&#45;&gt;Node1 -->
<g id="edge1" class="edge">
<title>Node0&#45;&gt;Node1</title>
<path fill="none" stroke="#191970" d="M541.3693,-179.3733C510.6404,-170.021 463.824,-155.7725 430.1978,-145.5385"/>
<polygon fill="#191970" stroke="#191970" points="430.8038,-142.0644 420.218,-142.5011 428.7656,-148.7612 430.8038,-142.0644"/>
</g>
<!-- Node11 -->
<g id="node12" class="node">
<title>Node11</title>
<g id="a_node12"><a xlink:href="Context_8hpp.html" target="_top" xlink:title="Defines the Context class and related functions. ">
<polygon fill="#ffffff" stroke="#000000" points="805.5,-123.5 805.5,-142.5 890.5,-142.5 890.5,-123.5 805.5,-123.5"/>
<text text-anchor="middle" x="848" y="-130.5" font-family="Helvetica,sans-Serif" font-size="10.00" fill="#000000">chi/Context.hpp</text>
</a>
</g>
</g>
<!-- Node0&#45;&gt;Node11 -->
<g id="edge12" class="edge">
<title>Node0&#45;&gt;Node11</title>
<path fill="none" stroke="#191970" d="M619.9617,-179.4369C668.6141,-169.5295 744.4906,-154.0783 795.1963,-143.7528"/>
<polygon fill="#191970" stroke="#191970" points="796.2001,-147.1203 805.3006,-141.6951 794.8033,-140.261 796.2001,-147.1203"/>
</g>
<!-- Node21 -->
<g id="node22" class="node">
<title>Node21</title>
<g id="a_node22"><a xlink:href="Result_8hpp.html" target="_top" xlink:title="Defines the Result class and related functions. ">
<polygon fill="#ffffff" stroke="#000000" points="533.5,-123.5 533.5,-142.5 612.5,-142.5 612.5,-123.5 533.5,-123.5"/>
<text text-anchor="middle" x="573" y="-130.5" font-family="Helvetica,sans-Serif" font-size="10.00" fill="#000000">chi/Result.hpp</text>
</a>
</g>
</g>
<!-- Node0&#45;&gt;Node21 -->
<g id="edge28" class="edge">
<title>Node0&#45;&gt;Node21</title>
<path fill="none" stroke="#191970" d="M573,-179.2455C573,-171.9382 573,-161.6944 573,-152.7046"/>
<polygon fill="#191970" stroke="#191970" points="576.5001,-152.6426 573,-142.6427 569.5001,-152.6427 576.5001,-152.6426"/>
</g>
<!-- Node2 -->
<g id="node3" class="node">
<title>Node2</title>
<g id="a_node3"><a xlink:href="Fwd_8hpp.html" target="_top" xlink:title="Forward declares all the chigraph data types. ">
<polygon fill="#ffffff" stroke="#000000" points="354.5,-62 354.5,-81 423.5,-81 423.5,-62 354.5,-62"/>
<text text-anchor="middle" x="389" y="-69" font-family="Helvetica,sans-Serif" font-size="10.00" fill="#000000">chi/Fwd.hpp</text>
</a>
</g>
</g>
<!-- Node1&#45;&gt;Node2 -->
<g id="edge2" class="edge">
<title>Node1&#45;&gt;Node2</title>
<path fill="none" stroke="#191970" d="M389,-123.3906C389,-114.8657 389,-102.1392 389,-91.4235"/>
<polygon fill="#191970" stroke="#191970" points="392.5001,-91.2448 389,-81.2449 385.5001,-91.2449 392.5001,-91.2448"/>
</g>
<!-- Node3 -->
<g id="node4" class="node">
<title>Node3</title>
<g id="a_node4"><a xlink:href="HashFilesystemPath_8hpp_source.html" target="_top" xlink:title="chi/HashFilesystemPath.hpp">
<polygon fill="#ffffff" stroke="#000000" points="48,-62 48,-81 190,-81 190,-62 48,-62"/>
<text text-anchor="middle" x="119" y="-69" font-family="Helvetica,sans-Serif" font-size="10.00" fill="#000000">chi/HashFilesystemPath.hpp</text>
</a>
</g>
</g>
<!-- Node1&#45;&gt;Node3 -->
<g id="edge3" class="edge">
<title>Node1&#45;&gt;Node3</title>
<path fill="none" stroke="#191970" d="M347.1087,-123.4581C299.6174,-112.6406 222.1528,-94.9959 170.8785,-83.3168"/>
<polygon fill="#191970" stroke="#191970" points="171.5171,-79.8727 160.9895,-81.0643 169.9625,-86.6978 171.5171,-79.8727"/>
</g>
<!-- Node4 -->
<g id="node5" class="node">
<title>Node4</title>
<polygon fill="#ffffff" stroke="#bfbfbf" points="164.5,-.5 164.5,-19.5 271.5,-19.5 271.5,-.5 164.5,-.5"/>
<text text-anchor="middle" x="218" y="-7.5" font-family="Helvetica,sans-Serif" font-size="10.00" fill="#000000">boost/filesystem.hpp</text>
</g>
<!-- Node1&#45;&gt;Node4 -->
<g id="edge8" class="edge">
<title>Node1&#45;&gt;Node4</title>
<path fill="none" stroke="#191970" d="M340.497,-123.7514C301.6398,-115.3879 251.3319,-102.0964 237,-87 222.4578,-71.682 218.5213,-47.0742 217.7018,-29.8097"/>
<polygon fill="#191970" stroke="#191970" points="221.1995,-29.6366 217.5332,-19.6964 214.2005,-29.7533 221.1995,-29.6366"/>
</g>
<!-- Node5 -->
<g id="node6" class="node">
<title>Node5</title>
<g id="a_node6"><a xlink:href="ToString_8hpp_source.html" target="_top" xlink:title="chi/ToString.hpp">
<polygon fill="#ffffff" stroke="#000000" points="529,-62 529,-81 617,-81 617,-62 529,-62"/>
<text text-anchor="middle" x="573" y="-69" font-family="Helvetica,sans-Serif" font-size="10.00" fill="#000000">chi/ToString.hpp</text>
</a>
</g>
</g>
<!-- Node1&#45;&gt;Node5 -->
<g id="edge5" class="edge">
<title>Node1&#45;&gt;Node5</title>
<path fill="none" stroke="#191970" d="M417.75,-123.3906C449.2117,-112.8749 499.8008,-95.966 534.6314,-84.3243"/>
<polygon fill="#191970" stroke="#191970" points="536.0772,-87.5315 544.4519,-81.0419 533.8581,-80.8925 536.0772,-87.5315"/>
</g>
<!-- Node7 -->
<g id="node8" class="node">
<title>Node7</title>
<polygon fill="#ffffff" stroke="#bfbfbf" points="441.5,-62 441.5,-81 510.5,-81 510.5,-62 441.5,-62"/>
<text text-anchor="middle" x="476" y="-69" font-family="Helvetica,sans-Serif" font-size="10.00" fill="#000000">chi/json.hpp</text>
</g>
<!-- Node1&#45;&gt;Node7 -->
<g id="edge7" class="edge">
<title>Node1&#45;&gt;Node7</title>
<path fill="none" stroke="#191970" d="M402.5938,-123.3906C416.3843,-113.6421 437.9472,-98.3994 454.141,-86.9521"/>
<polygon fill="#191970" stroke="#191970" points="456.3563,-89.6723 462.5017,-81.0419 452.3156,-83.9563 456.3563,-89.6723"/>
</g>
<!-- Node8 -->
<g id="node9" class="node">
<title>Node8</title>
<polygon fill="#ffffff" stroke="#bfbfbf" points="635,-56.5 635,-86.5 729,-86.5 729,-56.5 635,-56.5"/>
<text text-anchor="start" x="643" y="-74.5" font-family="Helvetica,sans-Serif" font-size="10.00" fill="#000000">boost/utility/string</text>
<text text-anchor="middle" x="682" y="-63.5" font-family="Helvetica,sans-Serif" font-size="10.00" fill="#000000">_view.hpp</text>
</g>
<!-- Node1&#45;&gt;Node8 -->
<g id="edge9" class="edge">
<title>Node1&#45;&gt;Node8</title>
<path fill="none" stroke="#191970" d="M437.8049,-124.6802C483.7287,-116.593 554.6067,-103.449 624.8115,-87.1848"/>
<polygon fill="#191970" stroke="#191970" points="625.7706,-90.555 634.7106,-84.8693 624.1762,-83.739 625.7706,-90.555"/>
</g>
<!-- Node9 -->
<g id="node10" class="node">
<title>Node9</title>
<polygon fill="#ffffff" stroke="#bfbfbf" points="0,-62 0,-81 30,-81 30,-62 0,-62"/>
<text text-anchor="middle" x="15" y="-69" font-family="Helvetica,sans-Serif" font-size="10.00" fill="#000000">set</text>
</g>
<!-- Node1&#45;&gt;Node9 -->
<g id="edge10" class="edge">
<title>Node1&#45;&gt;Node9</title>
<path fill="none" stroke="#191970" d="M340.4703,-129.2737C257.7906,-122.4852 93.2915,-106.9448 39,-87 38.1445,-86.6857 37.2881,-86.3367 36.4355,-85.9595"/>
<polygon fill="#191970" stroke="#191970" points="38.0989,-82.88 27.6474,-81.143 34.7345,-89.0185 38.0989,-82.88"/>
</g>
<!-- Node10 -->
<g id="node11" class="node">
<title>Node10</title>
<polygon fill="#ffffff" stroke="#bfbfbf" points="246,-62 246,-81 336,-81 336,-62 246,-62"/>
<text text-anchor="middle" x="291" y="-69" font-family="Helvetica,sans-Serif" font-size="10.00" fill="#000000">llvm/IR/Module.h</text>
</g>
<!-- Node1&#45;&gt;Node10 -->
<g id="edge11" class="edge">
<title>Node1&#45;&gt;Node10</title>
<path fill="none" stroke="#191970" d="M373.6875,-123.3906C357.9376,-113.5067 333.1877,-97.9749 314.8663,-86.4773"/>
<polygon fill="#191970" stroke="#191970" points="316.5357,-83.3929 306.205,-81.0419 312.8148,-89.3221 316.5357,-83.3929"/>
</g>
<!-- Node3&#45;&gt;Node4 -->
<g id="edge4" class="edge">
<title>Node3&#45;&gt;Node4</title>
<path fill="none" stroke="#191970" d="M134.4688,-61.8906C150.4521,-51.9616 175.6103,-36.333 194.1433,-24.8201"/>
<polygon fill="#191970" stroke="#191970" points="195.9924,-27.7918 202.6399,-19.5419 192.2985,-21.8457 195.9924,-27.7918"/>
</g>
<!-- Node6 -->
<g id="node7" class="node">
<title>Node6</title>
<polygon fill="#ffffff" stroke="#bfbfbf" points="547,-.5 547,-19.5 599,-19.5 599,-.5 547,-.5"/>
<text text-anchor="middle" x="573" y="-7.5" font-family="Helvetica,sans-Serif" font-size="10.00" fill="#000000">sstream</text>
</g>
<!-- Node5&#45;&gt;Node6 -->
<g id="edge6" class="edge">
<title>Node5&#45;&gt;Node6</title>
<path fill="none" stroke="#191970" d="M573,-61.8906C573,-53.3657 573,-40.6392 573,-29.9235"/>
<polygon fill="#191970" stroke="#191970" points="576.5001,-29.7448 573,-19.7449 569.5001,-29.7449 576.5001,-29.7448"/>
</g>
<!-- Node11&#45;&gt;Node2 -->
<g id="edge16" class="edge">
<title>Node11&#45;&gt;Node2</title>
<path fill="none" stroke="#191970" d="M805.2227,-131.5896C729.1994,-128.3513 565.9533,-118.0887 432,-87 428.7534,-86.2465 425.4147,-85.3231 422.1014,-84.3057"/>
<polygon fill="#191970" stroke="#191970" points="422.9497,-80.8989 412.3559,-81.0479 420.7303,-87.5378 422.9497,-80.8989"/>
</g>
<!-- Node11&#45;&gt;Node4 -->
<g id="edge26" class="edge">
<title>Node11&#45;&gt;Node4</title>
<path fill="none" stroke="#191970" d="M845.4167,-123.396C840.3009,-106.4595 827.1386,-71.6017 802,-56 758.6363,-29.0874 424.2339,-16.098 281.8532,-11.7434"/>
<polygon fill="#191970" stroke="#191970" points="281.6331,-8.2353 271.5323,-11.4326 281.4224,-15.2321 281.6331,-8.2353"/>
</g>
<!-- Node11&#45;&gt;Node5 -->
<g id="edge17" class="edge">
<title>Node11&#45;&gt;Node5</title>
<path fill="none" stroke="#191970" d="M805.211,-125.1898C760.335,-116.7524 687.8686,-102.4303 626,-87 621.9711,-85.9952 617.7884,-84.8867 613.6192,-83.7384"/>
<polygon fill="#191970" stroke="#191970" points="614.5696,-80.3699 603.9945,-81.0167 612.6647,-87.1058 614.5696,-80.3699"/>
</g>
<!-- Node11&#45;&gt;Node7 -->
<g id="edge18" class="edge">
<title>Node11&#45;&gt;Node7</title>
<path fill="none" stroke="#191970" d="M805.2911,-129.7462C742.2031,-124.3265 620.7003,-111.5381 520,-87 516.7738,-86.2139 513.4524,-85.282 510.149,-84.2711"/>
<polygon fill="#191970" stroke="#191970" points="510.9992,-80.8664 500.4063,-81.0688 508.8134,-87.5164 510.9992,-80.8664"/>
</g>
<!-- Node11&#45;&gt;Node8 -->
<g id="edge25" class="edge">
<title>Node11&#45;&gt;Node8</title>
<path fill="none" stroke="#191970" d="M822.0625,-123.3906C798.1403,-114.5279 761.9606,-101.1239 732.3652,-90.1594"/>
<polygon fill="#191970" stroke="#191970" points="733.2013,-86.7367 722.6082,-86.5446 730.7694,-93.3007 733.2013,-86.7367"/>
</g>
<!-- Node11&#45;&gt;Node10 -->
<g id="edge22" class="edge">
<title>Node11&#45;&gt;Node10</title>
<path fill="none" stroke="#191970" d="M805.2317,-131.8008C717.989,-128.7608 513.4988,-118.5956 345,-87 340.2187,-86.1035 335.2508,-84.9679 330.3505,-83.7206"/>
<polygon fill="#191970" stroke="#191970" points="331.0355,-80.28 320.4682,-81.0438 329.2054,-87.0366 331.0355,-80.28"/>
</g>
<!-- Node12 -->
<g id="node13" class="node">
<title>Node12</title>
<polygon fill="#ffffff" stroke="#bfbfbf" points="849,-62 849,-81 901,-81 901,-62 849,-62"/>
<text text-anchor="middle" x="875" y="-69" font-family="Helvetica,sans-Serif" font-size="10.00" fill="#000000">memory</text>
</g>
<!-- Node11&#45;&gt;Node12 -->
<g id="edge13" class="edge">
<title>Node11&#45;&gt;Node12</title>
<path fill="none" stroke="#191970" d="M852.2188,-123.3906C856.0796,-114.5965 861.9034,-101.3312 866.6961,-90.4145"/>
<polygon fill="#191970" stroke="#191970" points="869.9066,-91.8083 870.7218,-81.2449 863.4971,-88.9943 869.9066,-91.8083"/>
</g>
<!-- Node13 -->
<g id="node14" class="node">
<title>Node13</title>
<polygon fill="#ffffff" stroke="#bfbfbf" points="919.5,-62 919.5,-81 1002.5,-81 1002.5,-62 919.5,-62"/>
<text text-anchor="middle" x="961" y="-69" font-family="Helvetica,sans-Serif" font-size="10.00" fill="#000000">unordered_map</text>
</g>
<!-- Node11&#45;&gt;Node13 -->
<g id="edge14" class="edge">
<title>Node11&#45;&gt;Node13</title>
<path fill="none" stroke="#191970" d="M865.6563,-123.3906C884.1486,-113.3262 913.401,-97.4057 934.6308,-85.8514"/>
<polygon fill="#191970" stroke="#191970" points="936.3575,-88.8965 943.4677,-81.0419 933.0112,-82.7481 936.3575,-88.8965"/>
</g>
<!-- Node14 -->
<g id="node15" class="node">
<title>Node14</title>
<polygon fill="#ffffff" stroke="#bfbfbf" points="1021,-62 1021,-81 1099,-81 1099,-62 1021,-62"/>
<text text-anchor="middle" x="1060" y="-69" font-family="Helvetica,sans-Serif" font-size="10.00" fill="#000000">unordered_set</text>
</g>
<!-- Node11&#45;&gt;Node14 -->
<g id="edge15" class="edge">
<title>Node11&#45;&gt;Node14</title>
<path fill="none" stroke="#191970" d="M883.626,-123.4366C916.9242,-114.3966 967.9755,-100.2768 1012,-87 1015.1021,-86.0645 1018.3102,-85.0756 1021.5288,-84.0683"/>
<polygon fill="#191970" stroke="#191970" points="1022.6469,-87.3856 1031.1209,-81.0263 1020.5307,-80.7131 1022.6469,-87.3856"/>
</g>
<!-- Node15 -->
<g id="node16" class="node">
<title>Node15</title>
<g id="a_node16"><a xlink:href="Flags_8hpp_source.html" target="_top" xlink:title="chi/Flags.hpp">
<polygon fill="#ffffff" stroke="#000000" points="1117.5,-62 1117.5,-81 1192.5,-81 1192.5,-62 1117.5,-62"/>
<text text-anchor="middle" x="1155" y="-69" font-family="Helvetica,sans-Serif" font-size="10.00" fill="#000000">chi/Flags.hpp</text>
</a>
</g>
</g>
<!-- Node11&#45;&gt;Node15 -->
<g id="edge19" class="edge">
<title>Node11&#45;&gt;Node15</title>
<path fill="none" stroke="#191970" d="M890.7282,-127.3604C942.5746,-120.0778 1032.4341,-106.0405 1108,-87 1111.4368,-86.134 1114.9863,-85.1447 1118.523,-84.0942"/>
<polygon fill="#191970" stroke="#191970" points="1119.8506,-87.3464 1128.352,-81.0236 1117.7633,-80.6648 1119.8506,-87.3464"/>
</g>
<!-- Node16 -->
<g id="node17" class="node">
<title>Node16</title>
<polygon fill="#ffffff" stroke="#bfbfbf" points="1210.5,-56.5 1210.5,-86.5 1321.5,-86.5 1321.5,-56.5 1210.5,-56.5"/>
<text text-anchor="start" x="1218.5" y="-74.5" font-family="Helvetica,sans-Serif" font-size="10.00" fill="#000000">llvm/ExecutionEngine</text>
<text text-anchor="middle" x="1266" y="-63.5" font-family="Helvetica,sans-Serif" font-size="10.00" fill="#000000">/GenericValue.h</text>
</g>
<!-- Node11&#45;&gt;Node16 -->
<g id="edge20" class="edge">
<title>Node11&#45;&gt;Node16</title>
<path fill="none" stroke="#191970" d="M890.7365,-128.958C955.683,-122.4853 1083.2653,-108.479 1200.3783,-87.196"/>
<polygon fill="#191970" stroke="#191970" points="1201.0272,-90.6355 1210.2289,-85.3839 1199.7606,-83.751 1201.0272,-90.6355"/>
</g>
<!-- Node17 -->
<g id="node18" class="node">
<title>Node17</title>
<polygon fill="#ffffff" stroke="#bfbfbf" points="1340,-62 1340,-81 1458,-81 1458,-62 1340,-62"/>
<text text-anchor="middle" x="1399" y="-69" font-family="Helvetica,sans-Serif" font-size="10.00" fill="#000000">llvm/IR/LLVMContext.h</text>
</g>
<!-- Node11&#45;&gt;Node17 -->
<g id="edge21" class="edge">
<title>Node11&#45;&gt;Node17</title>
<path fill="none" stroke="#191970" d="M890.5521,-130.7989C974.9742,-126.0244 1169.454,-112.9926 1331,-87 1337.5862,-85.9403 1344.4871,-84.6188 1351.2621,-83.1973"/>
<polygon fill="#191970" stroke="#191970" points="1352.0231,-86.6137 1361.0468,-81.0619 1350.5305,-79.7746 1352.0231,-86.6137"/>
</g>
<!-- Node18 -->
<g id="node19" class="node">
<title>Node18</title>
<polygon fill="#ffffff" stroke="#bfbfbf" points="1476,-62 1476,-81 1556,-81 1556,-62 1476,-62"/>
<text text-anchor="middle" x="1516" y="-69" font-family="Helvetica,sans-Serif" font-size="10.00" fill="#000000">llvm/IR/Type.h</text>
</g>
<!-- Node11&#45;&gt;Node18 -->
<g id="edge23" class="edge">
<title>Node11&#45;&gt;Node18</title>
<path fill="none" stroke="#191970" d="M890.8781,-131.1114C1012.181,-125.5623 1356.1569,-108.3486 1467,-87 1471.2383,-86.1837 1475.6245,-85.1224 1479.9514,-83.9379"/>
<polygon fill="#191970" stroke="#191970" points="1481.2484,-87.2041 1489.8422,-81.0077 1479.2599,-80.4925 1481.2484,-87.2041"/>
</g>
<!-- Node19 -->
<g id="node20" class="node">
<title>Node19</title>
<polygon fill="#ffffff" stroke="#bfbfbf" points="747.5,-62 747.5,-81 792.5,-81 792.5,-62 747.5,-62"/>
<text text-anchor="middle" x="770" y="-69" font-family="Helvetica,sans-Serif" font-size="10.00" fill="#000000">gsl/gsl</text>
</g>
<!-- Node11&#45;&gt;Node19 -->
<g id="edge24" class="edge">
<title>Node11&#45;&gt;Node19</title>
<path fill="none" stroke="#191970" d="M835.8125,-123.3906C823.563,-113.7324 804.4737,-98.6812 790.0023,-87.271"/>
<polygon fill="#191970" stroke="#191970" points="792.1217,-84.485 782.1019,-81.0419 787.7876,-89.9819 792.1217,-84.485"/>
</g>
<!-- Node20 -->
<g id="node21" class="node">
<title>Node20</title>
<polygon fill="#ffffff" stroke="#bfbfbf" points="1574,-62 1574,-81 1670,-81 1670,-62 1574,-62"/>
<text text-anchor="middle" x="1622" y="-69" font-family="Helvetica,sans-Serif" font-size="10.00" fill="#000000">boost/optional.hpp</text>
</g>
<!-- Node11&#45;&gt;Node20 -->
<g id="edge27" class="edge">
<title>Node11&#45;&gt;Node20</title>
<path fill="none" stroke="#191970" d="M890.8,-131.387C1024.6158,-126.1655 1433.9568,-108.7921 1565,-87 1570.4375,-86.0958 1576.1044,-84.8879 1581.6647,-83.5439"/>
<polygon fill="#191970" stroke="#191970" points="1582.6751,-86.8979 1591.4856,-81.0136 1580.9286,-80.1193 1582.6751,-86.8979"/>
</g>
<!-- Node21&#45;&gt;Node5 -->
<g id="edge29" class="edge">
<title>Node21&#45;&gt;Node5</title>
<path fill="none" stroke="#191970" d="M573,-123.3906C573,-114.8657 573,-102.1392 573,-91.4235"/>
<polygon fill="#191970" stroke="#191970" points="576.5001,-91.2448 573,-81.2449 569.5001,-91.2449 576.5001,-91.2448"/>
</g>
<!-- Node21&#45;&gt;Node7 -->
<g id="edge30" class="edge">
<title>Node21&#45;&gt;Node7</title>
<path fill="none" stroke="#191970" d="M557.8438,-123.3906C542.3257,-113.5519 517.9807,-98.1167 499.8716,-86.6351"/>
<polygon fill="#191970" stroke="#191970" points="501.3696,-83.4407 491.0498,-81.0419 497.6213,-89.3526 501.3696,-83.4407"/>
</g>
<!-- Node21&#45;&gt;Node19 -->
<g id="edge31" class="edge">
<title>Node21&#45;&gt;Node19</title>
<path fill="none" stroke="#191970" d="M612.6415,-124.0665C646.4686,-115.9442 696.1363,-102.8282 738,-87 739.4074,-86.4679 740.8369,-85.8965 742.2716,-85.2983"/>
<polygon fill="#191970" stroke="#191970" points="743.9478,-88.3823 751.634,-81.0903 741.0781,-81.9975 743.9478,-88.3823"/>
</g>
</g>
</svg>
