<?xml version="1.0" encoding="UTF-8" standalone="no"?>
<!DOCTYPE svg PUBLIC "-//W3C//DTD SVG 1.1//EN"
 "http://www.w3.org/Graphics/SVG/1.1/DTD/svg11.dtd">
<!-- Generated by graphviz version 2.40.1 (20161225.0304)
 -->
<!-- Title: libchigraph/src/ChiModule.cpp Pages: 1 -->
<svg width="1537pt" height="207pt"
 viewBox="0.00 0.00 1537.00 207.00" xmlns="http://www.w3.org/2000/svg" xmlns:xlink="http://www.w3.org/1999/xlink">
<g id="graph0" class="graph" transform="scale(1 1) rotate(0) translate(4 203)">
<title>libchigraph/src/ChiModule.cpp</title>
<polygon fill="#ffffff" stroke="transparent" points="-4,4 -4,-203 1533,-203 1533,4 -4,4"/>
<!-- Node0 -->
<g id="node1" class="node">
<title>Node0</title>
<polygon fill="#bfbfbf" stroke="#000000" points="573.5,-179.5 573.5,-198.5 720.5,-198.5 720.5,-179.5 573.5,-179.5"/>
<text text-anchor="middle" x="647" y="-186.5" font-family="Helvetica,sans-Serif" font-size="10.00" fill="#000000">libchigraph/src/ChiModule.cpp</text>
</g>
<!-- Node1 -->
<g id="node2" class="node">
<title>Node1</title>
<g id="a_node2"><a xlink:href="ChiModule_8hpp.html" target="_top" xlink:title="Defines the ChiModule class. ">
<polygon fill="#ffffff" stroke="#000000" points="398.5,-123.5 398.5,-142.5 495.5,-142.5 495.5,-123.5 398.5,-123.5"/>
<text text-anchor="middle" x="447" y="-130.5" font-family="Helvetica,sans-Serif" font-size="10.00" fill="#000000">chi/ChiModule.hpp</text>
</a>
</g>
</g>
<!-- Node0&#45;&gt;Node1 -->
<g id="edge1" class="edge">
<title>Node0&#45;&gt;Node1</title>
<path fill="none" stroke="#191970" d="M612.6188,-179.3733C578.9299,-169.9404 527.4518,-155.5265 490.8382,-145.2747"/>
<polygon fill="#191970" stroke="#191970" points="491.506,-141.8271 480.9326,-142.5011 489.6185,-148.5679 491.506,-141.8271"/>
</g>
<!-- Node11 -->
<g id="node12" class="node">
<title>Node11</title>
<g id="a_node12"><a xlink:href="Context_8hpp.html" target="_top" xlink:title="Defines the Context class and related functions. ">
<polygon fill="#ffffff" stroke="#000000" points="776.5,-123.5 776.5,-142.5 861.5,-142.5 861.5,-123.5 776.5,-123.5"/>
<text text-anchor="middle" x="819" y="-130.5" font-family="Helvetica,sans-Serif" font-size="10.00" fill="#000000">chi/Context.hpp</text>
</a>
</g>
</g>
<!-- Node0&#45;&gt;Node11 -->
<g id="edge12" class="edge">
<title>Node0&#45;&gt;Node11</title>
<path fill="none" stroke="#191970" d="M676.5679,-179.3733C705.1688,-170.0613 748.6788,-155.8953 780.0819,-145.671"/>
<polygon fill="#191970" stroke="#191970" points="781.3928,-148.9251 789.818,-142.5011 779.2257,-142.269 781.3928,-148.9251"/>
</g>
<!-- Node19 -->
<g id="node20" class="node">
<title>Node19</title>
<g id="a_node20"><a xlink:href="Result_8hpp.html" target="_top" xlink:title="Defines the Result class and related functions. ">
<polygon fill="#ffffff" stroke="#000000" points="607.5,-123.5 607.5,-142.5 686.5,-142.5 686.5,-123.5 607.5,-123.5"/>
<text text-anchor="middle" x="647" y="-130.5" font-family="Helvetica,sans-Serif" font-size="10.00" fill="#000000">chi/Result.hpp</text>
</a>
</g>
</g>
<!-- Node0&#45;&gt;Node19 -->
<g id="edge27" class="edge">
<title>Node0&#45;&gt;Node19</title>
<path fill="none" stroke="#191970" d="M647,-179.2455C647,-171.9382 647,-161.6944 647,-152.7046"/>
<polygon fill="#191970" stroke="#191970" points="650.5001,-152.6426 647,-142.6427 643.5001,-152.6427 650.5001,-152.6426"/>
</g>
<!-- Node2 -->
<g id="node3" class="node">
<title>Node2</title>
<g id="a_node3"><a xlink:href="Fwd_8hpp.html" target="_top" xlink:title="Forward declares all the chigraph data types. ">
<polygon fill="#ffffff" stroke="#000000" points="412.5,-62 412.5,-81 481.5,-81 481.5,-62 412.5,-62"/>
<text text-anchor="middle" x="447" y="-69" font-family="Helvetica,sans-Serif" font-size="10.00" fill="#000000">chi/Fwd.hpp</text>
</a>
</g>
</g>
<!-- Node1&#45;&gt;Node2 -->
<g id="edge2" class="edge">
<title>Node1&#45;&gt;Node2</title>
<path fill="none" stroke="#191970" d="M447,-123.3906C447,-114.8657 447,-102.1392 447,-91.4235"/>
<polygon fill="#191970" stroke="#191970" points="450.5001,-91.2448 447,-81.2449 443.5001,-91.2449 450.5001,-91.2448"/>
</g>
<!-- Node3 -->
<g id="node4" class="node">
<title>Node3</title>
<g id="a_node4"><a xlink:href="HashFilesystemPath_8hpp_source.html" target="_top" xlink:title="chi/HashFilesystemPath.hpp">
<polygon fill="#ffffff" stroke="#000000" points="0,-62 0,-81 142,-81 142,-62 0,-62"/>
<text text-anchor="middle" x="71" y="-69" font-family="Helvetica,sans-Serif" font-size="10.00" fill="#000000">chi/HashFilesystemPath.hpp</text>
</a>
</g>
</g>
<!-- Node1&#45;&gt;Node3 -->
<g id="edge3" class="edge">
<title>Node1&#45;&gt;Node3</title>
<path fill="none" stroke="#191970" d="M398.286,-125.6587C340.4448,-116.8589 241.089,-101.4813 156,-87 148.3058,-85.6905 140.2279,-84.273 132.2402,-82.8456"/>
<polygon fill="#191970" stroke="#191970" points="132.6683,-79.3664 122.2063,-81.0394 131.4281,-86.2557 132.6683,-79.3664"/>
</g>
<!-- Node4 -->
<g id="node5" class="node">
<title>Node4</title>
<polygon fill="#ffffff" stroke="#bfbfbf" points="103.5,-.5 103.5,-19.5 210.5,-19.5 210.5,-.5 103.5,-.5"/>
<text text-anchor="middle" x="157" y="-7.5" font-family="Helvetica,sans-Serif" font-size="10.00" fill="#000000">boost/filesystem.hpp</text>
</g>
<!-- Node1&#45;&gt;Node4 -->
<g id="edge8" class="edge">
<title>Node1&#45;&gt;Node4</title>
<path fill="none" stroke="#191970" d="M398.2575,-129.8314C332.6554,-124.6566 220.5264,-112.3217 189,-87 171.3346,-72.8113 163.3086,-47.1899 159.7384,-29.4191"/>
<polygon fill="#191970" stroke="#191970" points="163.1844,-28.806 158.0449,-19.5412 156.2851,-29.9889 163.1844,-28.806"/>
</g>
<!-- Node5 -->
<g id="node6" class="node">
<title>Node5</title>
<g id="a_node6"><a xlink:href="ToString_8hpp_source.html" target="_top" xlink:title="chi/ToString.hpp">
<polygon fill="#ffffff" stroke="#000000" points="198,-62 198,-81 286,-81 286,-62 198,-62"/>
<text text-anchor="middle" x="242" y="-69" font-family="Helvetica,sans-Serif" font-size="10.00" fill="#000000">chi/ToString.hpp</text>
</a>
</g>
</g>
<!-- Node1&#45;&gt;Node5 -->
<g id="edge5" class="edge">
<title>Node1&#45;&gt;Node5</title>
<path fill="none" stroke="#191970" d="M414.9688,-123.3906C379.6154,-112.7846 322.5843,-95.6753 283.7522,-84.0257"/>
<polygon fill="#191970" stroke="#191970" points="284.3903,-80.5631 273.8063,-81.0419 282.3788,-87.2678 284.3903,-80.5631"/>
</g>
<!-- Node7 -->
<g id="node8" class="node">
<title>Node7</title>
<polygon fill="#ffffff" stroke="#bfbfbf" points="612.5,-62 612.5,-81 681.5,-81 681.5,-62 612.5,-62"/>
<text text-anchor="middle" x="647" y="-69" font-family="Helvetica,sans-Serif" font-size="10.00" fill="#000000">chi/json.hpp</text>
</g>
<!-- Node1&#45;&gt;Node7 -->
<g id="edge7" class="edge">
<title>Node1&#45;&gt;Node7</title>
<path fill="none" stroke="#191970" d="M481.2403,-123.4569C512.9523,-114.4877 561.3565,-100.4646 603,-87 605.584,-86.1645 608.2459,-85.282 610.9211,-84.379"/>
<polygon fill="#191970" stroke="#191970" points="612.2326,-87.6293 620.5509,-81.0676 609.9562,-81.0097 612.2326,-87.6293"/>
</g>
<!-- Node8 -->
<g id="node9" class="node">
<title>Node8</title>
<polygon fill="#ffffff" stroke="#bfbfbf" points="500,-56.5 500,-86.5 594,-86.5 594,-56.5 500,-56.5"/>
<text text-anchor="start" x="508" y="-74.5" font-family="Helvetica,sans-Serif" font-size="10.00" fill="#000000">boost/utility/string</text>
<text text-anchor="middle" x="547" y="-63.5" font-family="Helvetica,sans-Serif" font-size="10.00" fill="#000000">_view.hpp</text>
</g>
<!-- Node1&#45;&gt;Node8 -->
<g id="edge9" class="edge">
<title>Node1&#45;&gt;Node8</title>
<path fill="none" stroke="#191970" d="M462.625,-123.3906C476.2841,-114.9903 496.5768,-102.5103 513.8382,-91.8945"/>
<polygon fill="#191970" stroke="#191970" points="515.8527,-94.7646 522.5372,-86.5446 512.1857,-88.8019 515.8527,-94.7646"/>
</g>
<!-- Node9 -->
<g id="node10" class="node">
<title>Node9</title>
<polygon fill="#ffffff" stroke="#bfbfbf" points="700,-62 700,-81 778,-81 778,-62 700,-62"/>
<text text-anchor="middle" x="739" y="-69" font-family="Helvetica,sans-Serif" font-size="10.00" fill="#000000">unordered_set</text>
</g>
<!-- Node1&#45;&gt;Node9 -->
<g id="edge10" class="edge">
<title>Node1&#45;&gt;Node9</title>
<path fill="none" stroke="#191970" d="M495.5418,-125.6994C545.067,-117.8194 623.9524,-104.0731 691,-87 694.5616,-86.0931 698.2454,-85.0669 701.9158,-83.985"/>
<polygon fill="#191970" stroke="#191970" points="702.9777,-87.3203 711.5065,-81.0345 700.9194,-80.6297 702.9777,-87.3203"/>
</g>
<!-- Node10 -->
<g id="node11" class="node">
<title>Node10</title>
<polygon fill="#ffffff" stroke="#bfbfbf" points="304,-62 304,-81 394,-81 394,-62 304,-62"/>
<text text-anchor="middle" x="349" y="-69" font-family="Helvetica,sans-Serif" font-size="10.00" fill="#000000">llvm/IR/Module.h</text>
</g>
<!-- Node1&#45;&gt;Node10 -->
<g id="edge11" class="edge">
<title>Node1&#45;&gt;Node10</title>
<path fill="none" stroke="#191970" d="M431.6875,-123.3906C415.9376,-113.5067 391.1877,-97.9749 372.8663,-86.4773"/>
<polygon fill="#191970" stroke="#191970" points="374.5357,-83.3929 364.205,-81.0419 370.8148,-89.3221 374.5357,-83.3929"/>
</g>
<!-- Node3&#45;&gt;Node4 -->
<g id="edge4" class="edge">
<title>Node3&#45;&gt;Node4</title>
<path fill="none" stroke="#191970" d="M84.4375,-61.8906C98.0695,-52.1421 119.3846,-36.8994 135.3922,-25.4521"/>
<polygon fill="#191970" stroke="#191970" points="137.5586,-28.2057 143.6569,-19.5419 133.4868,-22.5118 137.5586,-28.2057"/>
</g>
<!-- Node6 -->
<g id="node7" class="node">
<title>Node6</title>
<polygon fill="#ffffff" stroke="#bfbfbf" points="229,-.5 229,-19.5 281,-19.5 281,-.5 229,-.5"/>
<text text-anchor="middle" x="255" y="-7.5" font-family="Helvetica,sans-Serif" font-size="10.00" fill="#000000">sstream</text>
</g>
<!-- Node5&#45;&gt;Node6 -->
<g id="edge6" class="edge">
<title>Node5&#45;&gt;Node6</title>
<path fill="none" stroke="#191970" d="M244.0313,-61.8906C245.8522,-53.276 248.5802,-40.3708 250.8599,-29.5858"/>
<polygon fill="#191970" stroke="#191970" points="254.2962,-30.2525 252.9401,-19.7449 247.4476,-28.8048 254.2962,-30.2525"/>
</g>
<!-- Node11&#45;&gt;Node2 -->
<g id="edge16" class="edge">
<title>Node11&#45;&gt;Node2</title>
<path fill="none" stroke="#191970" d="M776.2911,-129.7462C713.2031,-124.3265 591.7003,-111.5381 491,-87 487.7738,-86.2139 484.4524,-85.282 481.149,-84.2711"/>
<polygon fill="#191970" stroke="#191970" points="481.9992,-80.8664 471.4063,-81.0688 479.8134,-87.5164 481.9992,-80.8664"/>
</g>
<!-- Node11&#45;&gt;Node4 -->
<g id="edge25" class="edge">
<title>Node11&#45;&gt;Node4</title>
<path fill="none" stroke="#191970" d="M861.7606,-132.6385C984.3169,-131.1616 1330.2247,-123.7462 1364,-87 1373.3237,-76.8562 1373.5879,-65.8944 1364,-56 1321.2192,-11.8518 351.0363,-25.0237 220.9197,-19.5992"/>
<polygon fill="#191970" stroke="#191970" points="220.7513,-16.0827 210.5579,-18.9715 220.3279,-23.0699 220.7513,-16.0827"/>
</g>
<!-- Node11&#45;&gt;Node5 -->
<g id="edge17" class="edge">
<title>Node11&#45;&gt;Node5</title>
<path fill="none" stroke="#191970" d="M776.1746,-129.4719C655.2693,-119.4806 318.5303,-91.4288 295,-87 290.3011,-86.1156 285.4214,-84.9875 280.6097,-83.7441"/>
<polygon fill="#191970" stroke="#191970" points="281.4789,-80.3533 270.9084,-81.0715 279.6196,-87.1018 281.4789,-80.3533"/>
</g>
<!-- Node11&#45;&gt;Node7 -->
<g id="edge18" class="edge">
<title>Node11&#45;&gt;Node7</title>
<path fill="none" stroke="#191970" d="M792.125,-123.3906C762.8414,-112.92 715.831,-96.1111 683.2863,-84.4745"/>
<polygon fill="#191970" stroke="#191970" points="684.2809,-81.1131 673.6863,-81.0419 681.9241,-87.7045 684.2809,-81.1131"/>
</g>
<!-- Node11&#45;&gt;Node8 -->
<g id="edge24" class="edge">
<title>Node11&#45;&gt;Node8</title>
<path fill="none" stroke="#191970" d="M776.2043,-124.6766C734.6345,-116.4156 669.5216,-103.0128 604.0781,-87.1861"/>
<polygon fill="#191970" stroke="#191970" points="604.5444,-83.6973 594,-84.7299 602.8869,-90.4983 604.5444,-83.6973"/>
</g>
<!-- Node11&#45;&gt;Node9 -->
<g id="edge15" class="edge">
<title>Node11&#45;&gt;Node9</title>
<path fill="none" stroke="#191970" d="M806.5,-123.3906C793.9364,-113.7324 774.3577,-98.6812 759.5151,-87.271"/>
<polygon fill="#191970" stroke="#191970" points="761.4735,-84.3618 751.4122,-81.0419 757.2072,-89.9115 761.4735,-84.3618"/>
</g>
<!-- Node11&#45;&gt;Node10 -->
<g id="edge21" class="edge">
<title>Node11&#45;&gt;Node10</title>
<path fill="none" stroke="#191970" d="M776.1753,-129.1935C684.8956,-120.9284 473.7531,-100.9616 403,-87 398.2843,-86.0694 393.383,-84.9228 388.5424,-83.6777"/>
<polygon fill="#191970" stroke="#191970" points="389.3384,-80.2671 378.7704,-81.0213 387.5021,-87.022 389.3384,-80.2671"/>
</g>
<!-- Node12 -->
<g id="node13" class="node">
<title>Node12</title>
<polygon fill="#ffffff" stroke="#bfbfbf" points="1072,-62 1072,-81 1124,-81 1124,-62 1072,-62"/>
<text text-anchor="middle" x="1098" y="-69" font-family="Helvetica,sans-Serif" font-size="10.00" fill="#000000">memory</text>
</g>
<!-- Node11&#45;&gt;Node12 -->
<g id="edge13" class="edge">
<title>Node11&#45;&gt;Node12</title>
<path fill="none" stroke="#191970" d="M861.6009,-127.9989C910.8734,-121.5231 994.0548,-108.4495 1063,-87 1065.1139,-86.3424 1067.2703,-85.5934 1069.4223,-84.788"/>
<polygon fill="#191970" stroke="#191970" points="1070.7504,-88.0263 1078.684,-81.0043 1068.103,-81.5462 1070.7504,-88.0263"/>
</g>
<!-- Node13 -->
<g id="node14" class="node">
<title>Node13</title>
<polygon fill="#ffffff" stroke="#bfbfbf" points="1142.5,-62 1142.5,-81 1225.5,-81 1225.5,-62 1142.5,-62"/>
<text text-anchor="middle" x="1184" y="-69" font-family="Helvetica,sans-Serif" font-size="10.00" fill="#000000">unordered_map</text>
</g>
<!-- Node11&#45;&gt;Node13 -->
<g id="edge14" class="edge">
<title>Node11&#45;&gt;Node13</title>
<path fill="none" stroke="#191970" d="M861.5222,-128.8127C922.2328,-122.3737 1037.03,-108.4866 1133,-87 1137.1145,-86.0788 1141.3799,-84.9945 1145.6122,-83.8344"/>
<polygon fill="#191970" stroke="#191970" points="1146.701,-87.1632 1155.3408,-81.0309 1144.7626,-80.4369 1146.701,-87.1632"/>
</g>
<!-- Node14 -->
<g id="node15" class="node">
<title>Node14</title>
<polygon fill="#ffffff" stroke="#bfbfbf" points="1243.5,-56.5 1243.5,-86.5 1354.5,-86.5 1354.5,-56.5 1243.5,-56.5"/>
<text text-anchor="start" x="1251.5" y="-74.5" font-family="Helvetica,sans-Serif" font-size="10.00" fill="#000000">llvm/ExecutionEngine</text>
<text text-anchor="middle" x="1299" y="-63.5" font-family="Helvetica,sans-Serif" font-size="10.00" fill="#000000">/GenericValue.h</text>
</g>
<!-- Node11&#45;&gt;Node14 -->
<g id="edge19" class="edge">
<title>Node11&#45;&gt;Node14</title>
<path fill="none" stroke="#191970" d="M861.7739,-130.0787C935.6807,-124.6391 1092.1792,-111.398 1233.1208,-87.208"/>
<polygon fill="#191970" stroke="#191970" points="1233.9883,-90.6097 1243.2404,-85.4474 1232.7884,-83.7133 1233.9883,-90.6097"/>
</g>
<!-- Node15 -->
<g id="node16" class="node">
<title>Node15</title>
<polygon fill="#ffffff" stroke="#bfbfbf" points="1411,-62 1411,-81 1529,-81 1529,-62 1411,-62"/>
<text text-anchor="middle" x="1470" y="-69" font-family="Helvetica,sans-Serif" font-size="10.00" fill="#000000">llvm/IR/LLVMContext.h</text>
</g>
<!-- Node11&#45;&gt;Node15 -->
<g id="edge20" class="edge">
<title>Node11&#45;&gt;Node15</title>
<path fill="none" stroke="#191970" d="M861.6327,-131.5019C957.6528,-127.7145 1198.013,-115.9187 1397,-87 1404.3994,-85.9246 1412.1725,-84.5464 1419.7748,-83.0565"/>
<polygon fill="#191970" stroke="#191970" points="1420.5248,-86.4757 1429.6247,-81.0497 1419.1272,-79.6166 1420.5248,-86.4757"/>
</g>
<!-- Node16 -->
<g id="node17" class="node">
<title>Node16</title>
<polygon fill="#ffffff" stroke="#bfbfbf" points="860,-62 860,-81 940,-81 940,-62 860,-62"/>
<text text-anchor="middle" x="900" y="-69" font-family="Helvetica,sans-Serif" font-size="10.00" fill="#000000">llvm/IR/Type.h</text>
</g>
<!-- Node11&#45;&gt;Node16 -->
<g id="edge22" class="edge">
<title>Node11&#45;&gt;Node16</title>
<path fill="none" stroke="#191970" d="M831.6563,-123.3906C844.3768,-113.7324 864.2004,-98.6812 879.2284,-87.271"/>
<polygon fill="#191970" stroke="#191970" points="881.5846,-89.8766 887.4326,-81.0419 877.3516,-84.3015 881.5846,-89.8766"/>
</g>
<!-- Node17 -->
<g id="node18" class="node">
<title>Node17</title>
<polygon fill="#ffffff" stroke="#bfbfbf" points="796.5,-62 796.5,-81 841.5,-81 841.5,-62 796.5,-62"/>
<text text-anchor="middle" x="819" y="-69" font-family="Helvetica,sans-Serif" font-size="10.00" fill="#000000">gsl/gsl</text>
</g>
<!-- Node11&#45;&gt;Node17 -->
<g id="edge23" class="edge">
<title>Node11&#45;&gt;Node17</title>
<path fill="none" stroke="#191970" d="M819,-123.3906C819,-114.8657 819,-102.1392 819,-91.4235"/>
<polygon fill="#191970" stroke="#191970" points="822.5001,-91.2448 819,-81.2449 815.5001,-91.2449 822.5001,-91.2448"/>
</g>
<!-- Node18 -->
<g id="node19" class="node">
<title>Node18</title>
<polygon fill="#ffffff" stroke="#bfbfbf" points="958,-62 958,-81 1054,-81 1054,-62 958,-62"/>
<text text-anchor="middle" x="1006" y="-69" font-family="Helvetica,sans-Serif" font-size="10.00" fill="#000000">boost/optional.hpp</text>
</g>
<!-- Node11&#45;&gt;Node18 -->
<g id="edge26" class="edge">
<title>Node11&#45;&gt;Node18</title>
<path fill="none" stroke="#191970" d="M848.2188,-123.3906C880.3307,-112.8298 932.049,-95.8208 967.4608,-84.1747"/>
<polygon fill="#191970" stroke="#191970" points="968.5804,-87.4909 976.9864,-81.0419 966.3935,-80.8413 968.5804,-87.4909"/>
</g>
<!-- Node19&#45;&gt;Node5 -->
<g id="edge28" class="edge">
<title>Node19&#45;&gt;Node5</title>
<path fill="none" stroke="#191970" d="M607.3361,-129.8304C541.8042,-124.1451 407.0297,-110.5543 295,-87 290.5525,-86.0649 285.9347,-84.9446 281.3622,-83.7398"/>
<polygon fill="#191970" stroke="#191970" points="282.08,-80.3068 271.5083,-81.0062 280.2088,-87.0521 282.08,-80.3068"/>
</g>
<!-- Node19&#45;&gt;Node7 -->
<g id="edge29" class="edge">
<title>Node19&#45;&gt;Node7</title>
<path fill="none" stroke="#191970" d="M647,-123.3906C647,-114.8657 647,-102.1392 647,-91.4235"/>
<polygon fill="#191970" stroke="#191970" points="650.5001,-91.2448 647,-81.2449 643.5001,-91.2449 650.5001,-91.2448"/>
</g>
<!-- Node19&#45;&gt;Node17 -->
<g id="edge30" class="edge">
<title>Node19&#45;&gt;Node17</title>
<path fill="none" stroke="#191970" d="M680.2608,-123.4414C708.9127,-114.884 751.1855,-101.4822 787,-87 788.3592,-86.4504 789.7416,-85.8694 791.1312,-85.2675"/>
<polygon fill="#191970" stroke="#191970" points="792.5978,-88.4455 800.2371,-81.1044 789.6872,-82.0792 792.5978,-88.4455"/>
</g>
</g>
</svg>
