<?xml version="1.0" encoding="UTF-8" standalone="no"?>
<!DOCTYPE svg PUBLIC "-//W3C//DTD SVG 1.1//EN"
 "http://www.w3.org/Graphics/SVG/1.1/DTD/svg11.dtd">
<!-- Generated by graphviz version 2.40.1 (20161225.0304)
 -->
<!-- Title: libchigraph/include/chi/ChiModule.hpp Pages: 1 -->
<!--zoomable 374 -->
<svg id="main" version="1.1" xmlns="http://www.w3.org/2000/svg" xmlns:xlink="http://www.w3.org/1999/xlink" xml:space="preserve" onload="init(evt)">
<style type="text/css"><![CDATA[
.edge:hover path { stroke: red; }
.edge:hover polygon { stroke: red; fill: red; }
]]></style>
<script type="text/javascript"><![CDATA[
var edges = document.getElementsByTagName('g');
if (edges && edges.length) {
  for (var i=0;i<edges.length;i++) {
    if (edges[i].id.substr(0,4)=='edge') {
      edges[i].setAttribute('class','edge');
    }
  }
}
]]></script>
        <defs>
                <circle id="rim" cx="0" cy="0" r="7"/>
                <circle id="rim2" cx="0" cy="0" r="3.5"/>
                <g id="zoomPlus">
                        <use xlink:href="#rim" fill="#404040">
                                <set attributeName="fill" to="#808080" begin="zoomplus.mouseover" end="zoomplus.mouseout"/>
                        </use>
                        <path d="M-4,0h8M0,-4v8" fill="none" stroke="white" stroke-width="1.5" pointer-events="none"/>
                </g>
                <g id="zoomMin">
                        <use xlink:href="#rim" fill="#404040">
                                <set attributeName="fill" to="#808080" begin="zoomminus.mouseover" end="zoomminus.mouseout"/>
                        </use>
                        <path d="M-4,0h8" fill="none" stroke="white" stroke-width="1.5" pointer-events="none"/>
                </g>
                <g id="dirArrow">
                        <path fill="none" stroke="white" stroke-width="1.5" d="M0,-3.0v7 M-2.5,-0.5L0,-3.0L2.5,-0.5"/>
                </g>
               <g id="resetDef">
                       <use xlink:href="#rim2" fill="#404040">
                               <set attributeName="fill" to="#808080" begin="reset.mouseover" end="reset.mouseout"/>
                       </use>
               </g>
        </defs>

<script type="text/javascript">
var viewWidth = 1826;
var viewHeight = 374;
var sectionId = 'dynsection-1';
</script>
<script xlink:href="svgpan.js"/>
<svg id="graph" class="graph">
<g id="viewport">
<title>libchigraph/include/chi/ChiModule.hpp</title>
<polygon fill="#ffffff" stroke="transparent" points="-4,4 -4,-370 1821.9824,-370 1821.9824,4 -4,4"/>
<!-- Node10 -->
<g id="node1" class="node">
<title>Node10</title>
<polygon fill="#bfbfbf" stroke="#000000" points="490,-335.5 490,-365.5 590,-365.5 590,-335.5 490,-335.5"/>
<text text-anchor="start" x="498" y="-353.5" font-family="Helvetica,sans-Serif" font-size="10.00" fill="#000000">libchigraph/include</text>
<text text-anchor="middle" x="540" y="-342.5" font-family="Helvetica,sans-Serif" font-size="10.00" fill="#000000">/chi/ChiModule.hpp</text>
</g>
<!-- Node11 -->
<g id="node2" class="node">
<title>Node11</title>
<g id="a_node2"><a xlink:href="CModule_8hpp.html" target="_top" xlink:title="Defines the CModule class. ">
<polygon fill="#ffffff" stroke="#000000" points="178.5,-134.5 178.5,-164.5 275.5,-164.5 275.5,-134.5 178.5,-134.5"/>
<text text-anchor="start" x="186.5" y="-152.5" font-family="Helvetica,sans-Serif" font-size="10.00" fill="#000000">libchigraph/include</text>
<text text-anchor="middle" x="227" y="-141.5" font-family="Helvetica,sans-Serif" font-size="10.00" fill="#000000">/chi/CModule.hpp</text>
</a>
</g>
</g>
<!-- Node10&#45;&gt;Node11 -->
<g id="edge1" class="edge">
<title>Node10&#45;&gt;Node11</title>
<path fill="none" stroke="#191970" d="M506.3788,-330.1903C468.0298,-306.898 403.5734,-267.3618 349,-232 313.5945,-209.0584 273.1476,-181.4177 248.8662,-164.6658"/>
<polygon fill="#191970" stroke="#191970" points="504.7148,-333.2746 515.08,-335.4686 508.3454,-327.2896 504.7148,-333.2746"/>
</g>
<!-- Node14 -->
<g id="node5" class="node">
<title>Node14</title>
<g id="a_node5"><a xlink:href="DataType_8hpp.html" target="_top" xlink:title="Defines the DataType class. ">
<polygon fill="#ffffff" stroke="#000000" points="549.5,-268.5 549.5,-298.5 646.5,-298.5 646.5,-268.5 549.5,-268.5"/>
<text text-anchor="start" x="557.5" y="-286.5" font-family="Helvetica,sans-Serif" font-size="10.00" fill="#000000">libchigraph/include</text>
<text text-anchor="middle" x="598" y="-275.5" font-family="Helvetica,sans-Serif" font-size="10.00" fill="#000000">/chi/DataType.hpp</text>
</a>
</g>
</g>
<!-- Node10&#45;&gt;Node14 -->
<g id="edge4" class="edge">
<title>Node10&#45;&gt;Node14</title>
<path fill="none" stroke="#191970" d="M559.7906,-327.6385C568.0778,-318.0653 577.4847,-307.1987 584.891,-298.6432"/>
<polygon fill="#191970" stroke="#191970" points="557.0599,-325.4453 553.1611,-335.2967 562.3524,-330.0268 557.0599,-325.4453"/>
</g>
<!-- Node30 -->
<g id="node21" class="node">
<title>Node30</title>
<g id="a_node21"><a xlink:href="LangModule_8hpp.html" target="_top" xlink:title="Defines the LangModule class. ">
<polygon fill="#ffffff" stroke="#000000" points="357.5,-201.5 357.5,-231.5 464.5,-231.5 464.5,-201.5 357.5,-201.5"/>
<text text-anchor="start" x="365.5" y="-219.5" font-family="Helvetica,sans-Serif" font-size="10.00" fill="#000000">libchigraph/include</text>
<text text-anchor="middle" x="411" y="-208.5" font-family="Helvetica,sans-Serif" font-size="10.00" fill="#000000">/chi/LangModule.hpp</text>
</a>
</g>
</g>
<!-- Node10&#45;&gt;Node30 -->
<g id="edge36" class="edge">
<title>Node10&#45;&gt;Node30</title>
<path fill="none" stroke="#191970" d="M518.1982,-327.8532C491.8766,-300.5114 448.3309,-255.2779 425.6919,-231.7614"/>
<polygon fill="#191970" stroke="#191970" points="515.9959,-330.6121 525.4528,-335.389 521.0389,-325.7574 515.9959,-330.6121"/>
</g>
<!-- Node31 -->
<g id="node22" class="node">
<title>Node31</title>
<g id="a_node22"><a xlink:href="ChiModule_8cpp.html" target="_top" xlink:title="libchigraph/src/ChiModule.cpp">
<polygon fill="#ffffff" stroke="#000000" points="664.5,-274 664.5,-293 811.5,-293 811.5,-274 664.5,-274"/>
<text text-anchor="middle" x="738" y="-281" font-family="Helvetica,sans-Serif" font-size="10.00" fill="#000000">libchigraph/src/ChiModule.cpp</text>
</a>
</g>
</g>
<!-- Node10&#45;&gt;Node31 -->
<g id="edge39" class="edge">
<title>Node10&#45;&gt;Node31</title>
<path fill="none" stroke="#191970" d="M594.1921,-332.1623C631.6333,-319.4928 679.9113,-303.1563 709.9098,-293.0053"/>
<polygon fill="#191970" stroke="#191970" points="592.7856,-328.9432 584.4351,-335.4639 595.0293,-335.5739 592.7856,-328.9432"/>
</g>
<!-- Node12 -->
<g id="node3" class="node">
<title>Node12</title>
<g id="a_node3"><a xlink:href="CModule_8cpp.html" target="_top" xlink:title="libchigraph/src/CModule.cpp">
<polygon fill="#ffffff" stroke="#000000" points="0,-73 0,-92 140,-92 140,-73 0,-73"/>
<text text-anchor="middle" x="70" y="-80" font-family="Helvetica,sans-Serif" font-size="10.00" fill="#000000">libchigraph/src/CModule.cpp</text>
</a>
</g>
</g>
<!-- Node11&#45;&gt;Node12 -->
<g id="edge2" class="edge">
<title>Node11&#45;&gt;Node12</title>
<path fill="none" stroke="#191970" d="M182.5345,-130.5243C153.1631,-117.99 115.9087,-102.0916 92.5047,-92.1039"/>
<polygon fill="#191970" stroke="#191970" points="181.1948,-133.7579 191.7661,-134.4639 183.9424,-127.3197 181.1948,-133.7579"/>
</g>
<!-- Node13 -->
<g id="node4" class="node">
<title>Node13</title>
<g id="a_node4"><a xlink:href="Context_8cpp.html" target="_top" xlink:title="libchigraph/src/Context.cpp">
<polygon fill="#ffffff" stroke="#000000" points="158.5,-73 158.5,-92 293.5,-92 293.5,-73 158.5,-73"/>
<text text-anchor="middle" x="226" y="-80" font-family="Helvetica,sans-Serif" font-size="10.00" fill="#000000">libchigraph/src/Context.cpp</text>
</a>
</g>
</g>
<!-- Node11&#45;&gt;Node13 -->
<g id="edge3" class="edge">
<title>Node11&#45;&gt;Node13</title>
<path fill="none" stroke="#191970" d="M226.6212,-124.1199C226.4538,-112.9072 226.2672,-100.4031 226.1426,-92.055"/>
<polygon fill="#191970" stroke="#191970" points="223.1241,-124.35 226.7731,-134.2967 230.1234,-124.2455 223.1241,-124.35"/>
</g>
<!-- Node15 -->
<g id="node6" class="node">
<title>Node15</title>
<g id="a_node6"><a xlink:href="GraphModule_8hpp.html" target="_top" xlink:title="Defines the GraphModule class. ">
<polygon fill="#ffffff" stroke="#000000" points="670,-134.5 670,-164.5 782,-164.5 782,-134.5 670,-134.5"/>
<text text-anchor="start" x="678" y="-152.5" font-family="Helvetica,sans-Serif" font-size="10.00" fill="#000000">libchigraph/include</text>
<text text-anchor="middle" x="726" y="-141.5" font-family="Helvetica,sans-Serif" font-size="10.00" fill="#000000">/chi/GraphModule.hpp</text>
</a>
</g>
</g>
<!-- Node14&#45;&gt;Node15 -->
<g id="edge5" class="edge">
<title>Node14&#45;&gt;Node15</title>
<path fill="none" stroke="#191970" d="M650.9226,-264.0201C666.7873,-256.084 683.1096,-245.5276 695,-232 712.1724,-212.4631 720.208,-182.4929 723.669,-164.5614"/>
<polygon fill="#191970" stroke="#191970" points="649.2169,-260.955 641.6715,-268.3926 652.2082,-267.2837 649.2169,-260.955"/>
</g>
<!-- Node21 -->
<g id="node12" class="node">
<title>Node21</title>
<g id="a_node12"><a xlink:href="JsonSerializer_8cpp_source.html" target="_top" xlink:title="libchigraph/src/JsonSerializer.cpp">
<polygon fill="#ffffff" stroke="#000000" points="999.5,-73 999.5,-92 1162.5,-92 1162.5,-73 999.5,-73"/>
<text text-anchor="middle" x="1081" y="-80" font-family="Helvetica,sans-Serif" font-size="10.00" fill="#000000">libchigraph/src/JsonSerializer.cpp</text>
</a>
</g>
</g>
<!-- Node14&#45;&gt;Node21 -->
<g id="edge35" class="edge">
<title>Node14&#45;&gt;Node21</title>
<path fill="none" stroke="#191970" d="M643.619,-264.5157C744.4335,-222.5618 983.1775,-123.2087 1058.0971,-92.031"/>
<polygon fill="#191970" stroke="#191970" points="642.1912,-261.3188 634.3035,-268.3923 644.8807,-267.7816 642.1912,-261.3188"/>
</g>
<!-- Node24 -->
<g id="node15" class="node">
<title>Node24</title>
<g id="a_node15"><a xlink:href="GraphStruct_8hpp.html" target="_top" xlink:title="Define GraphStruct. ">
<polygon fill="#ffffff" stroke="#000000" points="506.5,-134.5 506.5,-164.5 613.5,-164.5 613.5,-134.5 506.5,-134.5"/>
<text text-anchor="start" x="514.5" y="-152.5" font-family="Helvetica,sans-Serif" font-size="10.00" fill="#000000">libchigraph/include</text>
<text text-anchor="middle" x="560" y="-141.5" font-family="Helvetica,sans-Serif" font-size="10.00" fill="#000000">/chi/GraphStruct.hpp</text>
</a>
</g>
</g>
<!-- Node14&#45;&gt;Node24 -->
<g id="edge15" class="edge">
<title>Node14&#45;&gt;Node24</title>
<path fill="none" stroke="#191970" d="M588.1438,-258.7485C584.9886,-250.3362 581.634,-240.8299 579,-232 572.0676,-208.7605 566.1785,-181.206 562.8677,-164.5529"/>
<polygon fill="#191970" stroke="#191970" points="584.9782,-260.2683 591.8317,-268.348 591.5126,-257.7579 584.9782,-260.2683"/>
</g>
<!-- Node25 -->
<g id="node16" class="node">
<title>Node25</title>
<g id="a_node16"><a xlink:href="NodeType_8hpp.html" target="_top" xlink:title="Defines the NodeType class. ">
<polygon fill="#ffffff" stroke="#000000" points="588,-201.5 588,-231.5 686,-231.5 686,-201.5 588,-201.5"/>
<text text-anchor="start" x="596" y="-219.5" font-family="Helvetica,sans-Serif" font-size="10.00" fill="#000000">libchigraph/include</text>
<text text-anchor="middle" x="637" y="-208.5" font-family="Helvetica,sans-Serif" font-size="10.00" fill="#000000">/chi/NodeType.hpp</text>
</a>
</g>
</g>
<!-- Node14&#45;&gt;Node25 -->
<g id="edge21" class="edge">
<title>Node14&#45;&gt;Node25</title>
<path fill="none" stroke="#191970" d="M611.9796,-259.4837C617.3838,-250.1996 623.4044,-239.8565 628.1853,-231.6432"/>
<polygon fill="#191970" stroke="#191970" points="608.8556,-257.8934 606.8497,-268.2967 614.9053,-261.4149 608.8556,-257.8934"/>
</g>
<!-- Node15&#45;&gt;Node13 -->
<g id="edge6" class="edge">
<title>Node15&#45;&gt;Node13</title>
<path fill="none" stroke="#191970" d="M659.7874,-139.163C647.5659,-137.361 634.906,-135.565 623,-134 481.1012,-115.348 444.3962,-120.1424 303,-98 292.2224,-96.3122 280.6612,-94.1657 269.8588,-92.0118"/>
<polygon fill="#191970" stroke="#191970" points="659.5175,-142.6613 669.9241,-140.673 660.549,-135.7377 659.5175,-142.6613"/>
</g>
<!-- Node16 -->
<g id="node7" class="node">
<title>Node16</title>
<g id="a_node7"><a xlink:href="FunctionCompiler_8cpp.html" target="_top" xlink:title="libchigraph/src/Function\lCompiler.cpp">
<polygon fill="#ffffff" stroke="#000000" points="1364,-67.5 1364,-97.5 1484,-97.5 1484,-67.5 1364,-67.5"/>
<text text-anchor="start" x="1372" y="-85.5" font-family="Helvetica,sans-Serif" font-size="10.00" fill="#000000">libchigraph/src/Function</text>
<text text-anchor="middle" x="1424" y="-74.5" font-family="Helvetica,sans-Serif" font-size="10.00" fill="#000000">Compiler.cpp</text>
</a>
</g>
</g>
<!-- Node15&#45;&gt;Node16 -->
<g id="edge7" class="edge">
<title>Node15&#45;&gt;Node16</title>
<path fill="none" stroke="#191970" d="M792.3254,-147.1081C907.4057,-142.2817 1151.2887,-129.0655 1355,-98 1357.913,-97.5558 1360.8862,-97.0586 1363.8828,-96.5224"/>
<polygon fill="#191970" stroke="#191970" points="792.1098,-143.6139 782.2623,-147.5224 792.3978,-150.608 792.1098,-143.6139"/>
</g>
<!-- Node17 -->
<g id="node8" class="node">
<title>Node17</title>
<g id="a_node8"><a xlink:href="GraphFunction_8cpp.html" target="_top" xlink:title="libchigraph/src/GraphFunction.cpp">
<polygon fill="#ffffff" stroke="#000000" points="1180.5,-73 1180.5,-92 1345.5,-92 1345.5,-73 1180.5,-73"/>
<text text-anchor="middle" x="1263" y="-80" font-family="Helvetica,sans-Serif" font-size="10.00" fill="#000000">libchigraph/src/GraphFunction.cpp</text>
</a>
</g>
</g>
<!-- Node15&#45;&gt;Node17 -->
<g id="edge8" class="edge">
<title>Node15&#45;&gt;Node17</title>
<path fill="none" stroke="#191970" d="M792.1167,-142.9873C879.3179,-134.1412 1037.4698,-117.2102 1172,-98 1184.2162,-96.2556 1197.3163,-94.1583 1209.6634,-92.0782"/>
<polygon fill="#191970" stroke="#191970" points="791.6958,-139.512 782.0984,-143.9997 792.3996,-146.4765 791.6958,-139.512"/>
</g>
<!-- Node18 -->
<g id="node9" class="node">
<title>Node18</title>
<g id="a_node9"><a xlink:href="GraphModule_8cpp.html" target="_top" xlink:title="libchigraph/src/GraphModule.cpp">
<polygon fill="#ffffff" stroke="#000000" points="484.5,-73 484.5,-92 643.5,-92 643.5,-73 484.5,-73"/>
<text text-anchor="middle" x="564" y="-80" font-family="Helvetica,sans-Serif" font-size="10.00" fill="#000000">libchigraph/src/GraphModule.cpp</text>
</a>
</g>
</g>
<!-- Node15&#45;&gt;Node18 -->
<g id="edge9" class="edge">
<title>Node15&#45;&gt;Node18</title>
<path fill="none" stroke="#191970" d="M680.1184,-130.5243C649.8117,-117.99 611.3708,-102.0916 587.2214,-92.1039"/>
<polygon fill="#191970" stroke="#191970" points="679.0655,-133.8763 689.644,-134.4639 681.7408,-127.4077 679.0655,-133.8763"/>
</g>
<!-- Node19 -->
<g id="node10" class="node">
<title>Node19</title>
<g id="a_node10"><a xlink:href="GraphStruct_8cpp_source.html" target="_top" xlink:title="libchigraph/src/GraphStruct.cpp">
<polygon fill="#ffffff" stroke="#000000" points="312,-73 312,-92 466,-92 466,-73 312,-73"/>
<text text-anchor="middle" x="389" y="-80" font-family="Helvetica,sans-Serif" font-size="10.00" fill="#000000">libchigraph/src/GraphStruct.cpp</text>
</a>
</g>
</g>
<!-- Node15&#45;&gt;Node19 -->
<g id="edge10" class="edge">
<title>Node15&#45;&gt;Node19</title>
<path fill="none" stroke="#191970" d="M660.147,-136.4076C594.5573,-123.3675 495.4431,-103.6623 436.9679,-92.0366"/>
<polygon fill="#191970" stroke="#191970" points="659.4824,-139.8439 669.973,-138.3611 660.8475,-132.9782 659.4824,-139.8439"/>
</g>
<!-- Node20 -->
<g id="node11" class="node">
<title>Node20</title>
<g id="a_node11"><a xlink:href="JsonDeserializer_8cpp_source.html" target="_top" xlink:title="libchigraph/src/JsonDeserializer.cpp">
<polygon fill="#ffffff" stroke="#000000" points="808.5,-73 808.5,-92 981.5,-92 981.5,-73 808.5,-73"/>
<text text-anchor="middle" x="895" y="-80" font-family="Helvetica,sans-Serif" font-size="10.00" fill="#000000">libchigraph/src/JsonDeserializer.cpp</text>
</a>
</g>
</g>
<!-- Node15&#45;&gt;Node20 -->
<g id="edge11" class="edge">
<title>Node15&#45;&gt;Node20</title>
<path fill="none" stroke="#191970" d="M773.454,-130.6869C805.133,-118.1278 845.4733,-102.1349 870.7752,-92.1039"/>
<polygon fill="#191970" stroke="#191970" points="771.9331,-127.5248 763.9269,-134.4639 774.5129,-134.032 771.9331,-127.5248"/>
</g>
<!-- Node15&#45;&gt;Node21 -->
<g id="edge12" class="edge">
<title>Node15&#45;&gt;Node21</title>
<path fill="none" stroke="#191970" d="M792.1527,-137.0148C861.1852,-123.9862 967.9084,-103.8441 1030.4708,-92.0365"/>
<polygon fill="#191970" stroke="#191970" points="791.4282,-133.5897 782.2508,-138.8837 792.7265,-140.4683 791.4282,-133.5897"/>
</g>
<!-- Node22 -->
<g id="node13" class="node">
<title>Node22</title>
<g id="a_node13"><a xlink:href="Debugger_8hpp.html" target="_top" xlink:title="libchigraphdebugger\l/include/chi/Debugger.hpp">
<polygon fill="#ffffff" stroke="#000000" points="661.5,-67.5 661.5,-97.5 790.5,-97.5 790.5,-67.5 661.5,-67.5"/>
<text text-anchor="start" x="669.5" y="-85.5" font-family="Helvetica,sans-Serif" font-size="10.00" fill="#000000">libchigraphdebugger</text>
<text text-anchor="middle" x="726" y="-74.5" font-family="Helvetica,sans-Serif" font-size="10.00" fill="#000000">/include/chi/Debugger.hpp</text>
</a>
</g>
</g>
<!-- Node15&#45;&gt;Node22 -->
<g id="edge13" class="edge">
<title>Node15&#45;&gt;Node22</title>
<path fill="none" stroke="#191970" d="M726,-124.0249C726,-115.128 726,-105.4287 726,-97.6432"/>
<polygon fill="#191970" stroke="#191970" points="722.5001,-124.2966 726,-134.2967 729.5001,-124.2967 722.5001,-124.2966"/>
</g>
<!-- Node23 -->
<g id="node14" class="node">
<title>Node23</title>
<g id="a_node14"><a xlink:href="Debugger_8cpp.html" target="_top" xlink:title="libchigraphdebugger\l/src/Debugger.cpp">
<polygon fill="#ffffff" stroke="#000000" points="1226.5,-.5 1226.5,-30.5 1329.5,-30.5 1329.5,-.5 1226.5,-.5"/>
<text text-anchor="start" x="1234.5" y="-18.5" font-family="Helvetica,sans-Serif" font-size="10.00" fill="#000000">libchigraphdebugger</text>
<text text-anchor="middle" x="1278" y="-7.5" font-family="Helvetica,sans-Serif" font-size="10.00" fill="#000000">/src/Debugger.cpp</text>
</a>
</g>
</g>
<!-- Node22&#45;&gt;Node23 -->
<g id="edge14" class="edge">
<title>Node22&#45;&gt;Node23</title>
<path fill="none" stroke="#191970" d="M800.6107,-67.0076C961.8887,-41.9158 1140.4514,-26.1869 1226.4944,-19.3638"/>
<polygon fill="#191970" stroke="#191970" points="799.8396,-63.5858 790.5043,-68.596 800.9265,-70.5009 799.8396,-63.5858"/>
</g>
<!-- Node24&#45;&gt;Node13 -->
<g id="edge16" class="edge">
<title>Node24&#45;&gt;Node13</title>
<path fill="none" stroke="#191970" d="M496.397,-133.9422C409.5896,-115.4339 385.9875,-114.0515 303,-98 293.2267,-96.1096 282.7661,-94.037 272.8048,-92.0398"/>
<polygon fill="#191970" stroke="#191970" points="495.9205,-137.4196 506.4325,-136.0975 497.3904,-130.5756 495.9205,-137.4196"/>
</g>
<!-- Node24&#45;&gt;Node18 -->
<g id="edge17" class="edge">
<title>Node24&#45;&gt;Node18</title>
<path fill="none" stroke="#191970" d="M561.5152,-124.1199C562.1846,-112.9072 562.9312,-100.4031 563.4296,-92.055"/>
<polygon fill="#191970" stroke="#191970" points="558.0099,-124.1058 560.9077,-134.2967 564.9975,-124.5231 558.0099,-124.1058"/>
</g>
<!-- Node24&#45;&gt;Node19 -->
<g id="edge18" class="edge">
<title>Node24&#45;&gt;Node19</title>
<path fill="none" stroke="#191970" d="M511.9844,-130.6869C479.9306,-118.1278 439.1128,-102.1349 413.5115,-92.1039"/>
<polygon fill="#191970" stroke="#191970" points="511.0366,-134.0745 521.6243,-134.4639 513.5903,-127.5569 511.0366,-134.0745"/>
</g>
<!-- Node24&#45;&gt;Node20 -->
<g id="edge19" class="edge">
<title>Node24&#45;&gt;Node20</title>
<path fill="none" stroke="#191970" d="M623.9756,-136.7049C689.1423,-123.6715 788.7011,-103.7598 847.2779,-92.0444"/>
<polygon fill="#191970" stroke="#191970" points="622.9429,-133.342 613.8235,-138.7353 624.3158,-140.2061 622.9429,-133.342"/>
</g>
<!-- Node24&#45;&gt;Node21 -->
<g id="edge20" class="edge">
<title>Node24&#45;&gt;Node21</title>
<path fill="none" stroke="#191970" d="M623.8615,-139.2683C636.1719,-137.4181 648.9761,-135.5777 661,-134 807.2829,-114.8055 844.8986,-118.5301 991,-98 1003.2466,-96.2791 1016.3855,-94.168 1028.7361,-92.0641"/>
<polygon fill="#191970" stroke="#191970" points="623.0249,-135.8552 613.6649,-140.8192 624.0775,-142.7756 623.0249,-135.8552"/>
</g>
<!-- Node25&#45;&gt;Node11 -->
<g id="edge22" class="edge">
<title>Node25&#45;&gt;Node11</title>
<path fill="none" stroke="#191970" d="M577.8651,-206.8365C496.4493,-193.532 351.3504,-169.8207 275.7862,-157.4724"/>
<polygon fill="#191970" stroke="#191970" points="577.5181,-210.3261 587.9517,-208.4848 578.6471,-203.4178 577.5181,-210.3261"/>
</g>
<!-- Node25&#45;&gt;Node18 -->
<g id="edge33" class="edge">
<title>Node25&#45;&gt;Node18</title>
<path fill="none" stroke="#191970" d="M637.0424,-190.8465C636.0523,-173.7679 632.7266,-151.363 623,-134 612.8997,-115.9698 593.9937,-101.1947 580.2995,-92.1656"/>
<polygon fill="#191970" stroke="#191970" points="633.5566,-191.3207 637.3996,-201.194 640.5524,-191.0791 633.5566,-191.3207"/>
</g>
<!-- Node26 -->
<g id="node17" class="node">
<title>Node26</title>
<g id="a_node17"><a xlink:href="NodeInstance_8hpp.html" target="_top" xlink:title="Defines the NodeInstance class and related functions. ">
<polygon fill="#ffffff" stroke="#000000" points="1113,-134.5 1113,-164.5 1227,-164.5 1227,-134.5 1113,-134.5"/>
<text text-anchor="start" x="1121" y="-152.5" font-family="Helvetica,sans-Serif" font-size="10.00" fill="#000000">libchigraph/include</text>
<text text-anchor="middle" x="1170" y="-141.5" font-family="Helvetica,sans-Serif" font-size="10.00" fill="#000000">/chi/NodeInstance.hpp</text>
</a>
</g>
</g>
<!-- Node25&#45;&gt;Node26 -->
<g id="edge23" class="edge">
<title>Node25&#45;&gt;Node26</title>
<path fill="none" stroke="#191970" d="M696.1329,-209.0668C799.3788,-196.0884 1011.2015,-169.4615 1112.9597,-156.6702"/>
<polygon fill="#191970" stroke="#191970" points="695.6733,-205.5969 686.188,-210.3169 696.5465,-212.5423 695.6733,-205.5969"/>
</g>
<!-- Node29 -->
<g id="node20" class="node">
<title>Node29</title>
<g id="a_node20"><a xlink:href="LangModule_8cpp.html" target="_top" xlink:title="libchigraph/src/LangModule.cpp">
<polygon fill="#ffffff" stroke="#000000" points="334,-140 334,-159 488,-159 488,-140 334,-140"/>
<text text-anchor="middle" x="411" y="-147" font-family="Helvetica,sans-Serif" font-size="10.00" fill="#000000">libchigraph/src/LangModule.cpp</text>
</a>
</g>
</g>
<!-- Node25&#45;&gt;Node29 -->
<g id="edge34" class="edge">
<title>Node25&#45;&gt;Node29</title>
<path fill="none" stroke="#191970" d="M578.1646,-199.0576C535.0988,-186.2904 478.2847,-169.4472 443.219,-159.0516"/>
<polygon fill="#191970" stroke="#191970" points="577.379,-202.4752 587.9614,-201.962 579.3686,-195.764 577.379,-202.4752"/>
</g>
<!-- Node26&#45;&gt;Node13 -->
<g id="edge24" class="edge">
<title>Node26&#45;&gt;Node13</title>
<path fill="none" stroke="#191970" d="M1102.6358,-146.7156C926.888,-139.2562 457.4018,-118.0271 303,-98 291.5055,-96.5091 279.1552,-94.2994 267.7847,-92.0127"/>
<polygon fill="#191970" stroke="#191970" points="1102.6451,-150.219 1112.7841,-147.1449 1102.941,-143.2253 1102.6451,-150.219"/>
</g>
<!-- Node26&#45;&gt;Node16 -->
<g id="edge25" class="edge">
<title>Node26&#45;&gt;Node16</title>
<path fill="none" stroke="#191970" d="M1236.7701,-131.8874C1277.1831,-121.2273 1328.185,-107.774 1366.7488,-97.6017"/>
<polygon fill="#191970" stroke="#191970" points="1235.7791,-128.529 1227.0026,-134.4639 1237.5645,-135.2975 1235.7791,-128.529"/>
</g>
<!-- Node26&#45;&gt;Node17 -->
<g id="edge27" class="edge">
<title>Node26&#45;&gt;Node17</title>
<path fill="none" stroke="#191970" d="M1199.5494,-128.2117C1216.4103,-116.0646 1236.7159,-101.4358 1249.7371,-92.055"/>
<polygon fill="#191970" stroke="#191970" points="1197.171,-125.6115 1191.1031,-134.2967 1201.2627,-131.2911 1197.171,-125.6115"/>
</g>
<!-- Node26&#45;&gt;Node18 -->
<g id="edge28" class="edge">
<title>Node26&#45;&gt;Node18</title>
<path fill="none" stroke="#191970" d="M1102.7002,-144.3772C1003.866,-136.4962 813.7624,-119.976 653,-98 640.7238,-96.3219 627.5489,-94.2034 615.1989,-92.0761"/>
<polygon fill="#191970" stroke="#191970" points="1102.5997,-147.8802 1112.845,-145.1814 1103.1528,-140.9021 1102.5997,-147.8802"/>
</g>
<!-- Node26&#45;&gt;Node20 -->
<g id="edge29" class="edge">
<title>Node26&#45;&gt;Node20</title>
<path fill="none" stroke="#191970" d="M1102.7029,-133.104C1049.7845,-120.2111 977.9073,-102.6992 934.0746,-92.02"/>
<polygon fill="#191970" stroke="#191970" points="1102.1414,-136.5695 1112.6857,-135.5362 1103.7984,-129.7684 1102.1414,-136.5695"/>
</g>
<!-- Node26&#45;&gt;Node21 -->
<g id="edge30" class="edge">
<title>Node26&#45;&gt;Node21</title>
<path fill="none" stroke="#191970" d="M1141.7215,-128.2117C1125.5859,-116.0646 1106.1536,-101.4358 1093.6924,-92.055"/>
<polygon fill="#191970" stroke="#191970" points="1139.7103,-131.0785 1149.8045,-134.2967 1143.9203,-125.486 1139.7103,-131.0785"/>
</g>
<!-- Node26&#45;&gt;Node23 -->
<g id="edge32" class="edge">
<title>Node26&#45;&gt;Node23</title>
<path fill="none" stroke="#191970" d="M1237.3144,-146.5272C1397.9309,-139.109 1791.7366,-118.8731 1811,-98 1820.3441,-87.875 1820.262,-77.2001 1811,-67 1779.01,-31.7701 1457.2381,-19.9504 1329.6857,-16.6298"/>
<polygon fill="#191970" stroke="#191970" points="1236.9074,-143.0421 1227.0785,-146.9971 1237.2285,-150.0347 1236.9074,-143.0421"/>
</g>
<!-- Node27 -->
<g id="node18" class="node">
<title>Node27</title>
<g id="a_node18"><a xlink:href="FunctionValidator_8cpp.html" target="_top" xlink:title="libchigraph/src/Function\lValidator.cpp">
<polygon fill="#ffffff" stroke="#000000" points="1502,-67.5 1502,-97.5 1622,-97.5 1622,-67.5 1502,-67.5"/>
<text text-anchor="start" x="1510" y="-85.5" font-family="Helvetica,sans-Serif" font-size="10.00" fill="#000000">libchigraph/src/Function</text>
<text text-anchor="middle" x="1562" y="-74.5" font-family="Helvetica,sans-Serif" font-size="10.00" fill="#000000">Validator.cpp</text>
</a>
</g>
</g>
<!-- Node26&#45;&gt;Node27 -->
<g id="edge26" class="edge">
<title>Node26&#45;&gt;Node27</title>
<path fill="none" stroke="#191970" d="M1237.2639,-140.0338C1302.7505,-130.5213 1404.9943,-114.8833 1493,-98 1495.8939,-97.4448 1498.8516,-96.8575 1501.8358,-96.249"/>
<polygon fill="#191970" stroke="#191970" points="1236.4732,-136.6117 1227.0772,-141.5071 1237.4752,-143.5396 1236.4732,-136.6117"/>
</g>
<!-- Node28 -->
<g id="node19" class="node">
<title>Node28</title>
<g id="a_node19"><a xlink:href="NodeInstance_8cpp.html" target="_top" xlink:title="libchigraph/src/NodeInstance.cpp">
<polygon fill="#ffffff" stroke="#000000" points="1640.5,-73 1640.5,-92 1801.5,-92 1801.5,-73 1640.5,-73"/>
<text text-anchor="middle" x="1721" y="-80" font-family="Helvetica,sans-Serif" font-size="10.00" fill="#000000">libchigraph/src/NodeInstance.cpp</text>
</a>
</g>
</g>
<!-- Node26&#45;&gt;Node28 -->
<g id="edge31" class="edge">
<title>Node26&#45;&gt;Node28</title>
<path fill="none" stroke="#191970" d="M1237.3344,-143.2403C1327.2647,-134.5915 1491.4603,-117.7924 1631,-98 1643.2444,-96.2633 1656.3824,-94.1459 1668.7329,-92.0411"/>
<polygon fill="#191970" stroke="#191970" points="1236.8942,-139.7663 1227.2734,-144.2036 1237.5615,-146.7344 1236.8942,-139.7663"/>
</g>
<!-- Node30&#45;&gt;Node13 -->
<g id="edge37" class="edge">
<title>Node30&#45;&gt;Node13</title>
<path fill="none" stroke="#191970" d="M374.3687,-196.2487C358.7986,-187.2141 340.6607,-176.1131 325,-165 307.2102,-152.3761 259.0807,-111.1161 237.1541,-92.17"/>
<polygon fill="#191970" stroke="#191970" points="372.7852,-199.3753 383.2012,-201.3138 376.2676,-193.3029 372.7852,-199.3753"/>
</g>
<!-- Node30&#45;&gt;Node29 -->
<g id="edge38" class="edge">
<title>Node30&#45;&gt;Node29</title>
<path fill="none" stroke="#191970" d="M411,-191.1199C411,-179.9072 411,-167.4031 411,-159.055"/>
<polygon fill="#191970" stroke="#191970" points="407.5001,-191.2966 411,-201.2967 414.5001,-191.2967 407.5001,-191.2966"/>
</g>
</g>
</svg>
        <g id="navigator" transform="translate(0 0)" fill="#404254">
                <rect fill="#f2f5e9" fill-opacity="0.5" stroke="#606060" stroke-width=".5" x="0" y="0" width="60" height="60"/>
                <use id="zoomplus" xlink:href="#zoomPlus" x="17" y="9" onmousedown="handleZoom(evt,'in')"/>
                <use id="zoomminus" xlink:href="#zoomMin" x="42" y="9" onmousedown="handleZoom(evt,'out')"/>
                <use id="reset" xlink:href="#resetDef" x="30" y="36" onmousedown="handleReset()"/>
                <g id="arrowUp" xlink:href="#dirArrow" transform="translate(30 24)" onmousedown="handlePan(0,-1)">
                  <use xlink:href="#rim" fill="#404040">
                        <set attributeName="fill" to="#808080" begin="arrowUp.mouseover" end="arrowUp.mouseout"/>
                  </use>
                  <path fill="none" stroke="white" stroke-width="1.5" d="M0,-3.0v7 M-2.5,-0.5L0,-3.0L2.5,-0.5"/>
                </g>
                <g id="arrowRight" xlink:href="#dirArrow" transform="rotate(90) translate(36 -43)" onmousedown="handlePan(1,0)">
                  <use xlink:href="#rim" fill="#404040">
                        <set attributeName="fill" to="#808080" begin="arrowRight.mouseover" end="arrowRight.mouseout"/>
                  </use>
                  <path fill="none" stroke="white" stroke-width="1.5" d="M0,-3.0v7 M-2.5,-0.5L0,-3.0L2.5,-0.5"/>
                </g>
                <g id="arrowDown" xlink:href="#dirArrow" transform="rotate(180) translate(-30 -48)" onmousedown="handlePan(0,1)">
                  <use xlink:href="#rim" fill="#404040">
                        <set attributeName="fill" to="#808080" begin="arrowDown.mouseover" end="arrowDown.mouseout"/>
                  </use>
                  <path fill="none" stroke="white" stroke-width="1.5" d="M0,-3.0v7 M-2.5,-0.5L0,-3.0L2.5,-0.5"/>
                </g>
                <g id="arrowLeft" xlink:href="#dirArrow" transform="rotate(270) translate(-36 17)" onmousedown="handlePan(-1,0)">
                  <use xlink:href="#rim" fill="#404040">
                        <set attributeName="fill" to="#808080" begin="arrowLeft.mouseover" end="arrowLeft.mouseout"/>
                  </use>
                  <path fill="none" stroke="white" stroke-width="1.5" d="M0,-3.0v7 M-2.5,-0.5L0,-3.0L2.5,-0.5"/>
                </g>
        </g>
        <svg viewBox="0 0 15 15" width="100%" height="30px" preserveAspectRatio="xMaxYMin meet">
         <g id="arrow_out" transform="scale(0.3 0.3)">
          <a xlink:href="ChiModule_8hpp__dep__incl_org.svg" target="_base">
           <rect id="button" ry="5" rx="5" y="6" x="6" height="38" width="38"
                fill="#f2f5e9" fill-opacity="0.5" stroke="#606060" stroke-width="1.0"/>
           <path id="arrow"
             d="M 11.500037,31.436501 C 11.940474,20.09759 22.043105,11.32322 32.158766,21.979434 L 37.068811,17.246167 C 37.068811,17.246167 37.088388,32 37.088388,32 L 22.160133,31.978069 C 22.160133,31.978069 26.997745,27.140456 26.997745,27.140456 C 18.528582,18.264221 13.291696,25.230495 11.500037,31.436501 z"
             style="fill:#404040;"/>
          </a>
         </g>
        </svg>
</svg>
