<?xml version="1.0" encoding="UTF-8" standalone="no"?>
<!DOCTYPE svg PUBLIC "-//W3C//DTD SVG 1.1//EN"
 "http://www.w3.org/Graphics/SVG/1.1/DTD/svg11.dtd">
<!-- Generated by graphviz version 2.40.1 (20161225.0304)
 -->
<!-- Title: chi::Debugger::terminate Pages: 1 -->
<svg width="454pt" height="66pt"
 viewBox="0.00 0.00 454.00 66.00" xmlns="http://www.w3.org/2000/svg" xmlns:xlink="http://www.w3.org/1999/xlink">
<g id="graph0" class="graph" transform="scale(1 1) rotate(0) translate(4 62)">
<title>chi::Debugger::terminate</title>
<polygon fill="#ffffff" stroke="transparent" points="-4,4 -4,-62 450,-62 450,4 -4,4"/>
<!-- Node205 -->
<g id="node1" class="node">
<title>Node205</title>
<polygon fill="#bfbfbf" stroke="#000000" points="0,-19.5 0,-38.5 123,-38.5 123,-19.5 0,-19.5"/>
<text text-anchor="middle" x="61.5" y="-26.5" font-family="Helvetica,sans-Serif" font-size="10.00" fill="#000000">chi::Debugger::terminate</text>
</g>
<!-- Node206 -->
<g id="node2" class="node">
<title>Node206</title>
<g id="a_node2"><a xlink:href="structchi_1_1Result.html#a59ef40f4a327cbdea263d6e4b5af2ad8" target="_top" xlink:title="Add a entry to the result, either a warning or an error. ">
<polygon fill="#ffffff" stroke="#000000" points="169.5,-38.5 169.5,-57.5 277.5,-57.5 277.5,-38.5 169.5,-38.5"/>
<text text-anchor="middle" x="223.5" y="-45.5" font-family="Helvetica,sans-Serif" font-size="10.00" fill="#000000">chi::Result::addEntry</text>
</a>
</g>
</g>
<!-- Node205&#45;&gt;Node206 -->
<g id="edge1" class="edge">
<title>Node205&#45;&gt;Node206</title>
<path fill="none" stroke="#191970" d="M123.2074,-36.2373C134.9642,-37.6162 147.2968,-39.0626 159.1341,-40.4509"/>
<polygon fill="#191970" stroke="#191970" points="159.0425,-43.9641 169.3822,-41.6528 159.858,-37.0117 159.0425,-43.9641"/>
</g>
<!-- Node208 -->
<g id="node4" class="node">
<title>Node208</title>
<g id="a_node4"><a xlink:href="classchi_1_1Debugger.html#a17c4ded82e7df22e6d513568d590d58a" target="_top" xlink:title="Check if this debugger is attached to a process It&#39;s true if the process is stopped or if it&#39;s curret...">
<polygon fill="#ffffff" stroke="#000000" points="159,-.5 159,-19.5 288,-19.5 288,-.5 159,-.5"/>
<text text-anchor="middle" x="223.5" y="-7.5" font-family="Helvetica,sans-Serif" font-size="10.00" fill="#000000">chi::Debugger::isAttached</text>
</a>
</g>
</g>
<!-- Node205&#45;&gt;Node208 -->
<g id="edge3" class="edge">
<title>Node205&#45;&gt;Node208</title>
<path fill="none" stroke="#191970" d="M123.2074,-21.7627C131.5622,-20.7828 140.2078,-19.7688 148.7598,-18.7658"/>
<polygon fill="#191970" stroke="#191970" points="149.2088,-22.2372 158.733,-17.5961 148.3934,-15.2849 149.2088,-22.2372"/>
</g>
<!-- Node207 -->
<g id="node3" class="node">
<title>Node207</title>
<g id="a_node3"><a xlink:href="structchi_1_1Result.html#aa078d3cb3dfb2fb63e81b71acea036e0" target="_top" xlink:title="Get the JSON associated with the context that&#39;s been added. ">
<polygon fill="#ffffff" stroke="#000000" points="324,-38.5 324,-57.5 446,-57.5 446,-38.5 324,-38.5"/>
<text text-anchor="middle" x="385" y="-45.5" font-family="Helvetica,sans-Serif" font-size="10.00" fill="#000000">chi::Result::contextJson</text>
</a>
</g>
</g>
<!-- Node206&#45;&gt;Node207 -->
<g id="edge2" class="edge">
<title>Node206&#45;&gt;Node207</title>
<path fill="none" stroke="#191970" d="M277.7264,-48C289.3241,-48 301.7429,-48 313.8682,-48"/>
<polygon fill="#191970" stroke="#191970" points="313.96,-51.5001 323.96,-48 313.9599,-44.5001 313.96,-51.5001"/>
</g>
</g>
</svg>
