<?xml version="1.0" encoding="UTF-8" standalone="no"?>
<!DOCTYPE svg PUBLIC "-//W3C//DTD SVG 1.1//EN"
 "http://www.w3.org/Graphics/SVG/1.1/DTD/svg11.dtd">
<!-- Generated by graphviz version 2.40.1 (20161225.0304)
 -->
<!-- Title: chig::Debugger::nodeFromFrame Pages: 1 -->
<svg width="472pt" height="61pt"
 viewBox="0.00 0.00 472.00 61.00" xmlns="http://www.w3.org/2000/svg" xmlns:xlink="http://www.w3.org/1999/xlink">
<g id="graph0" class="graph" transform="scale(1 1) rotate(0) translate(4 57)">
<title>chig::Debugger::nodeFromFrame</title>
<polygon fill="#ffffff" stroke="transparent" points="-4,4 -4,-57 468,-57 468,4 -4,4"/>
<!-- Node89 -->
<g id="node1" class="node">
<title>Node89</title>
<polygon fill="#bfbfbf" stroke="#000000" points="0,-.5 0,-30.5 131,-30.5 131,-.5 0,-.5"/>
<text text-anchor="start" x="8" y="-18.5" font-family="Helvetica,sans-Serif" font-size="10.00" fill="#000000">chig::Debugger::nodeFrom</text>
<text text-anchor="middle" x="65.5" y="-7.5" font-family="Helvetica,sans-Serif" font-size="10.00" fill="#000000">Frame</text>
</g>
<!-- Node90 -->
<g id="node2" class="node">
<title>Node90</title>
<g id="a_node2"><a xlink:href="classchig_1_1Debugger.html#a4cb57c7595304ab8f85144e4fc24ae94" target="_top" xlink:title="Get the output of a node. ">
<polygon fill="#ffffff" stroke="#000000" points="167,-22.5 167,-52.5 309,-52.5 309,-22.5 167,-22.5"/>
<text text-anchor="start" x="175" y="-40.5" font-family="Helvetica,sans-Serif" font-size="10.00" fill="#000000">chig::Debugger::inspectNode</text>
<text text-anchor="middle" x="238" y="-29.5" font-family="Helvetica,sans-Serif" font-size="10.00" fill="#000000">Output</text>
</a>
</g>
</g>
<!-- Node89&#45;&gt;Node90 -->
<g id="edge1" class="edge">
<title>Node89&#45;&gt;Node90</title>
<path fill="none" stroke="#191970" d="M141.3904,-25.1788C149.8113,-26.2527 158.3659,-27.3438 166.7268,-28.4101"/>
<polygon fill="#191970" stroke="#191970" points="141.5694,-21.6733 131.2069,-23.88 140.6838,-28.6171 141.5694,-21.6733"/>
</g>
<!-- Node91 -->
<g id="node3" class="node">
<title>Node91</title>
<g id="a_node3"><a xlink:href="classchig_1_1Debugger.html#a9c77e0119f3b81fabce49ea20879fd33" target="_top" xlink:title="Check if the process is executing. ">
<polygon fill="#ffffff" stroke="#000000" points="345,-6 345,-25 464,-25 464,-6 345,-6"/>
<text text-anchor="middle" x="404.5" y="-13" font-family="Helvetica,sans-Serif" font-size="10.00" fill="#000000">chig::Debugger::running</text>
</a>
</g>
</g>
<!-- Node89&#45;&gt;Node91 -->
<g id="edge3" class="edge">
<title>Node89&#45;&gt;Node91</title>
<path fill="none" stroke="#191970" d="M141.1887,-13.8446C149.8923,-13.7029 158.6396,-13.5824 167,-13.5 230.108,-12.8783 245.8923,-12.8393 309,-13.5 320.6078,-13.6215 333.008,-13.8261 344.8992,-14.0593"/>
<polygon fill="#191970" stroke="#191970" points="140.9556,-10.348 131.0173,-14.0196 141.0761,-17.3469 140.9556,-10.348"/>
</g>
<!-- Node90&#45;&gt;Node91 -->
<g id="edge2" class="edge">
<title>Node90&#45;&gt;Node91</title>
<path fill="none" stroke="#191970" d="M319.2201,-26.7682C327.8767,-25.6244 336.5626,-24.4767 344.9031,-23.3747"/>
<polygon fill="#191970" stroke="#191970" points="318.5493,-23.3263 309.0939,-28.1062 319.4663,-30.266 318.5493,-23.3263"/>
</g>
</g>
</svg>
