<?xml version="1.0" encoding="UTF-8" standalone="no"?>
<!DOCTYPE svg PUBLIC "-//W3C//DTD SVG 1.1//EN"
 "http://www.w3.org/Graphics/SVG/1.1/DTD/svg11.dtd">
<!-- Generated by graphviz version 2.40.1 (20161225.0304)
 -->
<!-- Title: chig::Debugger::inspectNodeOutput Pages: 1 -->
<!--zoomable 653 -->
<svg id="main" version="1.1" xmlns="http://www.w3.org/2000/svg" xmlns:xlink="http://www.w3.org/1999/xlink" xml:space="preserve" onload="init(evt)">
<style type="text/css"><![CDATA[
.edge:hover path { stroke: red; }
.edge:hover polygon { stroke: red; fill: red; }
]]></style>
<script type="text/javascript"><![CDATA[
var edges = document.getElementsByTagName('g');
if (edges && edges.length) {
  for (var i=0;i<edges.length;i++) {
    if (edges[i].id.substr(0,4)=='edge') {
      edges[i].setAttribute('class','edge');
    }
  }
}
]]></script>
        <defs>
                <circle id="rim" cx="0" cy="0" r="7"/>
                <circle id="rim2" cx="0" cy="0" r="3.5"/>
                <g id="zoomPlus">
                        <use xlink:href="#rim" fill="#404040">
                                <set attributeName="fill" to="#808080" begin="zoomplus.mouseover" end="zoomplus.mouseout"/>
                        </use>
                        <path d="M-4,0h8M0,-4v8" fill="none" stroke="white" stroke-width="1.5" pointer-events="none"/>
                </g>
                <g id="zoomMin">
                        <use xlink:href="#rim" fill="#404040">
                                <set attributeName="fill" to="#808080" begin="zoomminus.mouseover" end="zoomminus.mouseout"/>
                        </use>
                        <path d="M-4,0h8" fill="none" stroke="white" stroke-width="1.5" pointer-events="none"/>
                </g>
                <g id="dirArrow">
                        <path fill="none" stroke="white" stroke-width="1.5" d="M0,-3.0v7 M-2.5,-0.5L0,-3.0L2.5,-0.5"/>
                </g>
               <g id="resetDef">
                       <use xlink:href="#rim2" fill="#404040">
                               <set attributeName="fill" to="#808080" begin="reset.mouseover" end="reset.mouseout"/>
                       </use>
               </g>
        </defs>

<script type="text/javascript">
var viewWidth = 1000;
var viewHeight = 653;
var sectionId = 'dynsection-0';
</script>
<script xlink:href="svgpan.js"/>
<svg id="graph" class="graph">
<g id="viewport">
<title>chig::Debugger::inspectNodeOutput</title>
<polygon fill="#ffffff" stroke="transparent" points="-4,4 -4,-648.946 996,-648.946 996,4 -4,4"/>
<!-- Node2 -->
<g id="node1" class="node">
<title>Node2</title>
<polygon fill="#bfbfbf" stroke="#000000" points="0,-331.446 0,-361.446 142,-361.446 142,-331.446 0,-331.446"/>
<text text-anchor="start" x="8" y="-349.446" font-family="Helvetica,sans-Serif" font-size="10.00" fill="#000000">chig::Debugger::inspectNode</text>
<text text-anchor="middle" x="71" y="-338.446" font-family="Helvetica,sans-Serif" font-size="10.00" fill="#000000">Output</text>
</g>
<!-- Node3 -->
<g id="node2" class="node">
<title>Node3</title>
<g id="a_node2"><a xlink:href="structchig_1_1GraphModule.html#aca14e257ae2353a36d40a66d4ce96036" target="_top" xlink:title="Create the associations from line number and function in debug info. ">
<polygon fill="#ffffff" stroke="#000000" points="186,-470.446 186,-500.446 309,-500.446 309,-470.446 186,-470.446"/>
<text text-anchor="start" x="194" y="-488.446" font-family="Helvetica,sans-Serif" font-size="10.00" fill="#000000">chig::GraphModule::</text>
<text text-anchor="middle" x="247.5" y="-477.446" font-family="Helvetica,sans-Serif" font-size="10.00" fill="#000000">createLineNumberAssoc</text>
</a>
</g>
</g>
<!-- Node2&#45;&gt;Node3 -->
<g id="edge1" class="edge">
<title>Node2&#45;&gt;Node3</title>
<path fill="none" stroke="#191970" d="M90.2246,-361.5861C121.6561,-386.3395 184.1456,-435.5522 220.1739,-463.9258"/>
<polygon fill="#191970" stroke="#191970" points="218.2774,-466.8873 228.2991,-470.3247 222.6084,-461.3879 218.2774,-466.8873"/>
</g>
<!-- Node8 -->
<g id="node7" class="node">
<title>Node8</title>
<g id="a_node7"><a xlink:href="classchig_1_1Debugger.html#ad9fbd67fd159aa09811bc5a0c6ecef82" target="_top" xlink:title="Get the process This will only be valid if there&#39;s an attached process. ">
<polygon fill="#ffffff" stroke="#000000" points="178,-358.946 178,-377.946 317,-377.946 317,-358.946 178,-358.946"/>
<text text-anchor="middle" x="247.5" y="-365.946" font-family="Helvetica,sans-Serif" font-size="10.00" fill="#000000">chig::Debugger::lldbProcess</text>
</a>
</g>
</g>
<!-- Node2&#45;&gt;Node8 -->
<g id="edge7" class="edge">
<title>Node2&#45;&gt;Node8</title>
<path fill="none" stroke="#191970" d="M142.0264,-355.2992C150.4948,-356.3547 159.1835,-357.4377 167.7637,-358.5072"/>
<polygon fill="#191970" stroke="#191970" points="167.4106,-361.9902 177.7668,-359.7541 168.2765,-355.044 167.4106,-361.9902"/>
</g>
<!-- Node9 -->
<g id="node8" class="node">
<title>Node9</title>
<g id="a_node8"><a xlink:href="structchig_1_1NodeInstance.html#acb8bab6d96bbfa9facdfb5aca22d43a1" target="_top" xlink:title="Get the containing GraphModule. ">
<polygon fill="#ffffff" stroke="#000000" points="197,-309.446 197,-339.446 298,-339.446 298,-309.446 197,-309.446"/>
<text text-anchor="start" x="205" y="-327.446" font-family="Helvetica,sans-Serif" font-size="10.00" fill="#000000">chig::NodeInstance</text>
<text text-anchor="middle" x="247.5" y="-316.446" font-family="Helvetica,sans-Serif" font-size="10.00" fill="#000000">::module</text>
</a>
</g>
</g>
<!-- Node2&#45;&gt;Node9 -->
<g id="edge8" class="edge">
<title>Node2&#45;&gt;Node9</title>
<path fill="none" stroke="#191970" d="M142.0264,-337.5929C156.826,-335.7482 172.298,-333.8197 186.689,-332.0259"/>
<polygon fill="#191970" stroke="#191970" points="187.4615,-335.4568 196.9517,-330.7467 186.5956,-328.5105 187.4615,-335.4568"/>
</g>
<!-- Node29 -->
<g id="node28" class="node">
<title>Node29</title>
<g id="a_node28"><a xlink:href="structchig_1_1NodeInstance.html#afacc72392d31c168d5a769f13d0fa3ec" target="_top" xlink:title="Get the ID as a string. ">
<polygon fill="#ffffff" stroke="#000000" points="197,-260.446 197,-290.446 298,-290.446 298,-260.446 197,-260.446"/>
<text text-anchor="start" x="205" y="-278.446" font-family="Helvetica,sans-Serif" font-size="10.00" fill="#000000">chig::NodeInstance</text>
<text text-anchor="middle" x="247.5" y="-267.446" font-family="Helvetica,sans-Serif" font-size="10.00" fill="#000000">::stringId</text>
</a>
</g>
</g>
<!-- Node2&#45;&gt;Node29 -->
<g id="edge46" class="edge">
<title>Node2&#45;&gt;Node29</title>
<path fill="none" stroke="#191970" d="M103.492,-331.3509C124.5536,-321.7712 152.6835,-309.3585 178,-299.446 182.7082,-297.6026 187.6232,-295.7551 192.5684,-293.9488"/>
<polygon fill="#191970" stroke="#191970" points="193.8396,-297.2112 202.0689,-290.5382 191.4744,-290.6229 193.8396,-297.2112"/>
</g>
<!-- Node4 -->
<g id="node3" class="node">
<title>Node4</title>
<g id="a_node3"><a xlink:href="structchig_1_1GraphModule.html#a3aca789690eb2e7dedc764ae20154c9d" target="_top" xlink:title="Get functions. ">
<polygon fill="#ffffff" stroke="#000000" points="353,-567.446 353,-597.446 457,-597.446 457,-567.446 353,-567.446"/>
<text text-anchor="start" x="361" y="-585.446" font-family="Helvetica,sans-Serif" font-size="10.00" fill="#000000">chig::GraphModule::</text>
<text text-anchor="middle" x="405" y="-574.446" font-family="Helvetica,sans-Serif" font-size="10.00" fill="#000000">functions</text>
</a>
</g>
</g>
<!-- Node3&#45;&gt;Node4 -->
<g id="edge2" class="edge">
<title>Node3&#45;&gt;Node4</title>
<path fill="none" stroke="#191970" d="M272.1094,-500.6023C298.9243,-517.1169 341.9717,-543.6286 371.7727,-561.9823"/>
<polygon fill="#191970" stroke="#191970" points="370.2133,-565.1323 380.5634,-567.3962 373.8841,-559.172 370.2133,-565.1323"/>
</g>
<!-- Node5 -->
<g id="node4" class="node">
<title>Node5</title>
<g id="a_node4"><a xlink:href="structchig_1_1GraphModule.html#a64831f6b192140fb9014025717df72ac" target="_top" xlink:title="Get a struct by name. ">
<polygon fill="#ffffff" stroke="#000000" points="692,-614.446 692,-644.446 796,-644.446 796,-614.446 692,-614.446"/>
<text text-anchor="start" x="700" y="-632.446" font-family="Helvetica,sans-Serif" font-size="10.00" fill="#000000">chig::GraphModule::</text>
<text text-anchor="middle" x="744" y="-621.446" font-family="Helvetica,sans-Serif" font-size="10.00" fill="#000000">structFromName</text>
</a>
</g>
</g>
<!-- Node4&#45;&gt;Node5 -->
<g id="edge3" class="edge">
<title>Node4&#45;&gt;Node5</title>
<path fill="none" stroke="#191970" d="M424.6611,-597.6007C441.6847,-609.7034 467.5173,-625.7121 493,-632.446 555.6074,-648.9902 630.1004,-645.3177 681.5877,-639.3238"/>
<polygon fill="#191970" stroke="#191970" points="682.0687,-642.7911 691.5681,-638.0994 681.2163,-635.8432 682.0687,-642.7911"/>
</g>
<!-- Node6 -->
<g id="node5" class="node">
<title>Node6</title>
<g id="a_node5"><a xlink:href="structchig_1_1GraphModule.html#af766a22d33074aafe823b19218321d6e" target="_top" xlink:title="Create a new struct in the module. ">
<polygon fill="#ffffff" stroke="#000000" points="510.5,-592.446 510.5,-622.446 614.5,-622.446 614.5,-592.446 510.5,-592.446"/>
<text text-anchor="start" x="518.5" y="-610.446" font-family="Helvetica,sans-Serif" font-size="10.00" fill="#000000">chig::GraphModule::</text>
<text text-anchor="middle" x="562.5" y="-599.446" font-family="Helvetica,sans-Serif" font-size="10.00" fill="#000000">getOrCreateStruct</text>
</a>
</g>
</g>
<!-- Node4&#45;&gt;Node6 -->
<g id="edge4" class="edge">
<title>Node4&#45;&gt;Node6</title>
<path fill="none" stroke="#191970" d="M457.0079,-590.7013C470.7793,-592.8872 485.7888,-595.2697 500.0522,-597.5337"/>
<polygon fill="#191970" stroke="#191970" points="499.8527,-601.0458 510.2778,-599.1568 500.9502,-594.1323 499.8527,-601.0458"/>
</g>
<!-- Node7 -->
<g id="node6" class="node">
<title>Node7</title>
<g id="a_node6"><a xlink:href="structchig_1_1GraphModule.html#a7d3e60b0ac5dcc4304c4cfc0a8b13d07" target="_top" xlink:title="Remove a struct from the module by name. ">
<polygon fill="#ffffff" stroke="#000000" points="510.5,-543.446 510.5,-573.446 614.5,-573.446 614.5,-543.446 510.5,-543.446"/>
<text text-anchor="start" x="518.5" y="-561.446" font-family="Helvetica,sans-Serif" font-size="10.00" fill="#000000">chig::GraphModule::</text>
<text text-anchor="middle" x="562.5" y="-550.446" font-family="Helvetica,sans-Serif" font-size="10.00" fill="#000000">removeStruct</text>
</a>
</g>
</g>
<!-- Node4&#45;&gt;Node7 -->
<g id="edge6" class="edge">
<title>Node4&#45;&gt;Node7</title>
<path fill="none" stroke="#191970" d="M457.0079,-574.521C470.7793,-572.4225 485.7888,-570.1354 500.0522,-567.9619"/>
<polygon fill="#191970" stroke="#191970" points="500.9192,-571.3703 510.2778,-566.4037 499.8647,-564.4501 500.9192,-571.3703"/>
</g>
<!-- Node6&#45;&gt;Node5 -->
<g id="edge5" class="edge">
<title>Node6&#45;&gt;Node5</title>
<path fill="none" stroke="#191970" d="M614.5106,-613.7504C635.4904,-616.2934 659.8708,-619.2486 681.7811,-621.9044"/>
<polygon fill="#191970" stroke="#191970" points="681.6333,-625.412 691.9818,-623.1408 682.4756,-618.4628 681.6333,-625.412"/>
</g>
<!-- Node10 -->
<g id="node9" class="node">
<title>Node10</title>
<g id="a_node9"><a xlink:href="namespacechig.html#ad3c2fc880f6843f9a8a0f5ee0d62249d" target="_top" xlink:title="Connects two nodes&#39; data connections. ">
<polygon fill="#ffffff" stroke="#000000" points="357.5,-352.946 357.5,-371.946 452.5,-371.946 452.5,-352.946 357.5,-352.946"/>
<text text-anchor="middle" x="405" y="-359.946" font-family="Helvetica,sans-Serif" font-size="10.00" fill="#000000">chig::connectData</text>
</a>
</g>
</g>
<!-- Node9&#45;&gt;Node10 -->
<g id="edge9" class="edge">
<title>Node9&#45;&gt;Node10</title>
<path fill="none" stroke="#191970" d="M298.2009,-336.6786C316.5628,-341.1088 337.2649,-346.1036 355.5203,-350.5081"/>
<polygon fill="#191970" stroke="#191970" points="354.838,-353.9438 365.38,-352.8869 356.4799,-347.1391 354.838,-353.9438"/>
</g>
<!-- Node14 -->
<g id="node13" class="node">
<title>Node14</title>
<g id="a_node13"><a xlink:href="namespacechig.html#a26aa6586df79345493de9fc130291c18" target="_top" xlink:title="Disconnect a data connection. ">
<polygon fill="#ffffff" stroke="#000000" points="508.5,-314.946 508.5,-333.946 616.5,-333.946 616.5,-314.946 508.5,-314.946"/>
<text text-anchor="middle" x="562.5" y="-321.946" font-family="Helvetica,sans-Serif" font-size="10.00" fill="#000000">chig::disconnectData</text>
</a>
</g>
</g>
<!-- Node9&#45;&gt;Node14 -->
<g id="edge44" class="edge">
<title>Node9&#45;&gt;Node14</title>
<path fill="none" stroke="#191970" d="M298.1102,-324.446C352.4147,-324.446 438.8187,-324.446 497.9715,-324.446"/>
<polygon fill="#191970" stroke="#191970" points="498.3188,-327.9461 508.3188,-324.446 498.3187,-320.9461 498.3188,-327.9461"/>
</g>
<!-- Node25 -->
<g id="node24" class="node">
<title>Node25</title>
<g id="a_node24"><a xlink:href="namespacechig.html#a8a2e0029b591b2c20b39d570753f123f" target="_top" xlink:title="Connects two nodes&#39; exec connections. ">
<polygon fill="#ffffff" stroke="#000000" points="356,-115.946 356,-134.946 454,-134.946 454,-115.946 356,-115.946"/>
<text text-anchor="middle" x="405" y="-122.946" font-family="Helvetica,sans-Serif" font-size="10.00" fill="#000000">chig::connectExec</text>
</a>
</g>
</g>
<!-- Node9&#45;&gt;Node25 -->
<g id="edge31" class="edge">
<title>Node9&#45;&gt;Node25</title>
<path fill="none" stroke="#191970" d="M298.271,-311.3881C305.041,-308.2117 311.524,-304.2871 317,-299.446 365.4972,-256.5723 390.6426,-180.6674 400.2632,-144.997"/>
<polygon fill="#191970" stroke="#191970" points="403.656,-145.8566 402.7592,-135.2998 396.877,-144.1117 403.656,-145.8566"/>
</g>
<!-- Node26 -->
<g id="node25" class="node">
<title>Node26</title>
<g id="a_node25"><a xlink:href="namespacechig.html#ad24a330508033631ef29b2f6e5cf6210" target="_top" xlink:title="Disconnect a exec connection. ">
<polygon fill="#ffffff" stroke="#000000" points="507.5,-48.946 507.5,-67.946 617.5,-67.946 617.5,-48.946 507.5,-48.946"/>
<text text-anchor="middle" x="562.5" y="-55.946" font-family="Helvetica,sans-Serif" font-size="10.00" fill="#000000">chig::disconnectExec</text>
</a>
</g>
</g>
<!-- Node9&#45;&gt;Node26 -->
<g id="edge45" class="edge">
<title>Node9&#45;&gt;Node26</title>
<path fill="none" stroke="#191970" d="M298.2197,-313.3979C305.3322,-309.9414 311.9314,-305.4036 317,-299.446 373.5425,-232.9872 292.5719,-169.3926 353,-106.446 389.834,-68.0769 450.6003,-57.5544 497.2283,-55.764"/>
<polygon fill="#191970" stroke="#191970" points="497.3433,-59.2622 507.2489,-55.5033 497.1613,-52.2646 497.3433,-59.2622"/>
</g>
<!-- Node11 -->
<g id="node10" class="node">
<title>Node11</title>
<g id="a_node10"><a xlink:href="structchig_1_1Result.html#aabb30a56760c3a817518912d9eabb491" target="_top" xlink:title="Add a entry to the result, either a warning or an error. ">
<polygon fill="#ffffff" stroke="#000000" points="687.5,-157.946 687.5,-176.946 800.5,-176.946 800.5,-157.946 687.5,-157.946"/>
<text text-anchor="middle" x="744" y="-164.946" font-family="Helvetica,sans-Serif" font-size="10.00" fill="#000000">chig::Result::addEntry</text>
</a>
</g>
</g>
<!-- Node10&#45;&gt;Node11 -->
<g id="edge10" class="edge">
<title>Node10&#45;&gt;Node11</title>
<path fill="none" stroke="#191970" d="M419.1239,-352.8065C457.8473,-326.5994 569.3863,-252.5894 668,-201.446 681.9393,-194.2168 697.7338,-187.0005 711.2989,-181.0881"/>
<polygon fill="#191970" stroke="#191970" points="712.9221,-184.1999 720.7239,-177.0318 710.1549,-177.7701 712.9221,-184.1999"/>
</g>
<!-- Node12 -->
<g id="node11" class="node">
<title>Node12</title>
<g id="a_node11"><a xlink:href="structchig_1_1NodeType.html#ae03c2c70c06ea281a87b1b40c0514064" target="_top" xlink:title="Get the data inputs for the node. ">
<polygon fill="#ffffff" stroke="#000000" points="675.5,-448.946 675.5,-467.946 812.5,-467.946 812.5,-448.946 675.5,-448.946"/>
<text text-anchor="middle" x="744" y="-455.946" font-family="Helvetica,sans-Serif" font-size="10.00" fill="#000000">chig::NodeType::dataInputs</text>
</a>
</g>
</g>
<!-- Node10&#45;&gt;Node12 -->
<g id="edge11" class="edge">
<title>Node10&#45;&gt;Node12</title>
<path fill="none" stroke="#191970" d="M417.3491,-371.9479C433.7118,-384.0349 463.9121,-404.6339 493,-415.446 548.538,-436.0898 614.7155,-446.9038 665.1722,-452.5223"/>
<polygon fill="#191970" stroke="#191970" points="665.0531,-456.0294 675.3682,-453.6111 665.7964,-449.069 665.0531,-456.0294"/>
</g>
<!-- Node13 -->
<g id="node12" class="node">
<title>Node13</title>
<g id="a_node12"><a xlink:href="structchig_1_1NodeType.html#aed44920726e20a4403f3d43f88cadb54" target="_top" xlink:title="Get the data outputs for the node. ">
<polygon fill="#ffffff" stroke="#000000" points="672,-393.946 672,-412.946 816,-412.946 816,-393.946 672,-393.946"/>
<text text-anchor="middle" x="744" y="-400.946" font-family="Helvetica,sans-Serif" font-size="10.00" fill="#000000">chig::NodeType::dataOutputs</text>
</a>
</g>
</g>
<!-- Node10&#45;&gt;Node13 -->
<g id="edge12" class="edge">
<title>Node10&#45;&gt;Node13</title>
<path fill="none" stroke="#191970" d="M425.457,-371.9646C442.9662,-379.6002 469.0647,-389.7855 493,-394.446 548.5421,-405.2608 612.2713,-407.4239 661.6151,-406.9277"/>
<polygon fill="#191970" stroke="#191970" points="661.968,-410.4232 671.9181,-406.7836 661.8701,-403.4239 661.968,-410.4232"/>
</g>
<!-- Node10&#45;&gt;Node14 -->
<g id="edge13" class="edge">
<title>Node10&#45;&gt;Node14</title>
<path fill="none" stroke="#191970" d="M444.7439,-352.857C465.5277,-347.8425 491.1611,-341.658 513.1995,-336.3408"/>
<polygon fill="#191970" stroke="#191970" points="514.1417,-339.7139 523.0419,-333.9661 512.4999,-332.9092 514.1417,-339.7139"/>
</g>
<!-- Node15 -->
<g id="node14" class="node">
<title>Node15</title>
<g id="a_node14"><a xlink:href="structchig_1_1NodeInstance.html#ac06ee5988ee5f130088fee83a550f4d2" target="_top" xlink:title="Get the containing GraphFunction. ">
<polygon fill="#ffffff" stroke="#000000" points="693.5,-309.446 693.5,-339.446 794.5,-339.446 794.5,-309.446 693.5,-309.446"/>
<text text-anchor="start" x="701.5" y="-327.446" font-family="Helvetica,sans-Serif" font-size="10.00" fill="#000000">chig::NodeInstance</text>
<text text-anchor="middle" x="744" y="-316.446" font-family="Helvetica,sans-Serif" font-size="10.00" fill="#000000">::function</text>
</a>
</g>
</g>
<!-- Node10&#45;&gt;Node15 -->
<g id="edge27" class="edge">
<title>Node10&#45;&gt;Node15</title>
<path fill="none" stroke="#191970" d="M447.3806,-371.9807C493.3915,-380.7363 568.7686,-390.409 632,-376.446 660.0249,-370.2575 689.3679,-356.3208 710.9863,-344.4321"/>
<polygon fill="#191970" stroke="#191970" points="712.7594,-347.4505 719.752,-339.4909 709.322,-341.3526 712.7594,-347.4505"/>
</g>
<!-- Node17 -->
<g id="node16" class="node">
<title>Node17</title>
<g id="a_node16"><a xlink:href="structchig_1_1NodeType.html#aec01c9c30813ec9f0e15dda0f7ae34f3" target="_top" xlink:title="Get the qualified name of the node type, like module.name():name() ">
<polygon fill="#ffffff" stroke="#000000" points="668,-90.946 668,-109.946 820,-109.946 820,-90.946 668,-90.946"/>
<text text-anchor="middle" x="744" y="-97.946" font-family="Helvetica,sans-Serif" font-size="10.00" fill="#000000">chig::NodeType::qualifiedName</text>
</a>
</g>
</g>
<!-- Node10&#45;&gt;Node17 -->
<g id="edge28" class="edge">
<title>Node10&#45;&gt;Node17</title>
<path fill="none" stroke="#191970" d="M408.59,-352.6461C418.3727,-327.1519 447.8278,-257.933 493,-217.446 553.6681,-163.0704 643.9953,-129.417 698.1359,-112.8771"/>
<polygon fill="#191970" stroke="#191970" points="699.2293,-116.2033 707.8087,-109.9867 697.2252,-109.4964 699.2293,-116.2033"/>
</g>
<!-- Node22 -->
<g id="node21" class="node">
<title>Node22</title>
<g id="a_node21"><a xlink:href="structchig_1_1NodeType.html#ae32c95d458c85ea3633a3e5cb9fd321c" target="_top" xlink:title="Create the JSON necessary to store the object. ">
<polygon fill="#ffffff" stroke="#000000" points="681.5,-495.946 681.5,-514.946 806.5,-514.946 806.5,-495.946 681.5,-495.946"/>
<text text-anchor="middle" x="744" y="-502.946" font-family="Helvetica,sans-Serif" font-size="10.00" fill="#000000">chig::NodeType::toJSON</text>
</a>
</g>
</g>
<!-- Node10&#45;&gt;Node22 -->
<g id="edge29" class="edge">
<title>Node10&#45;&gt;Node22</title>
<path fill="none" stroke="#191970" d="M412.0647,-371.9491C425.6724,-389.5375 457.3448,-427.1289 493,-446.446 548.5329,-476.5325 619.0968,-491.3768 671.2543,-498.6412"/>
<polygon fill="#191970" stroke="#191970" points="671.0561,-502.1456 681.4304,-499.9953 671.9795,-495.2068 671.0561,-502.1456"/>
</g>
<!-- Node24 -->
<g id="node23" class="node">
<title>Node24</title>
<g id="a_node23"><a xlink:href="structchig_1_1NodeInstance.html#a5c9d6934e14f56ff4317ff08e170e83a" target="_top" xlink:title="Get the type of the instance. ">
<polygon fill="#ffffff" stroke="#000000" points="693.5,-256.446 693.5,-286.446 794.5,-286.446 794.5,-256.446 693.5,-256.446"/>
<text text-anchor="start" x="701.5" y="-274.446" font-family="Helvetica,sans-Serif" font-size="10.00" fill="#000000">chig::NodeInstance</text>
<text text-anchor="middle" x="744" y="-263.446" font-family="Helvetica,sans-Serif" font-size="10.00" fill="#000000">::type</text>
</a>
</g>
</g>
<!-- Node10&#45;&gt;Node24 -->
<g id="edge30" class="edge">
<title>Node10&#45;&gt;Node24</title>
<path fill="none" stroke="#191970" d="M452.7489,-368.8241C500.8614,-372.9629 575.8252,-372.998 632,-343.446 654.3615,-331.6823 647.4215,-314.1071 668,-299.446 673.0354,-295.8586 678.583,-292.6775 684.3184,-289.869"/>
<polygon fill="#191970" stroke="#191970" points="685.761,-293.0579 693.4391,-285.7574 682.8842,-286.6764 685.761,-293.0579"/>
</g>
<!-- Node14&#45;&gt;Node11 -->
<g id="edge14" class="edge">
<title>Node14&#45;&gt;Node11</title>
<path fill="none" stroke="#191970" d="M608.8058,-314.9187C617.3165,-311.479 625.5394,-306.8024 632,-300.446 665.3741,-267.6105 636.1053,-235.7203 668,-201.446 676.1492,-192.6889 686.972,-186.0404 697.8881,-181.0525"/>
<polygon fill="#191970" stroke="#191970" points="699.5475,-184.1532 707.4402,-177.0854 696.8626,-177.6886 699.5475,-184.1532"/>
</g>
<!-- Node14&#45;&gt;Node12 -->
<g id="edge15" class="edge">
<title>Node14&#45;&gt;Node12</title>
<path fill="none" stroke="#191970" d="M571.0018,-334.1196C587.9654,-352.9905 627.8492,-395.2438 668,-422.446 680.8387,-431.1443 696.1073,-438.8221 709.5791,-444.8287"/>
<polygon fill="#191970" stroke="#191970" points="708.4422,-448.15 719.0106,-448.8978 711.2152,-441.7227 708.4422,-448.15"/>
</g>
<!-- Node14&#45;&gt;Node13 -->
<g id="edge16" class="edge">
<title>Node14&#45;&gt;Node13</title>
<path fill="none" stroke="#191970" d="M584.3931,-333.9753C616.4166,-347.9139 676.1907,-373.9312 712.8047,-389.8679"/>
<polygon fill="#191970" stroke="#191970" points="711.4633,-393.1012 722.0292,-393.883 714.257,-386.6828 711.4633,-393.1012"/>
</g>
<!-- Node14&#45;&gt;Node15 -->
<g id="edge17" class="edge">
<title>Node14&#45;&gt;Node15</title>
<path fill="none" stroke="#191970" d="M616.956,-324.446C637.7743,-324.446 661.6435,-324.446 683.0308,-324.446"/>
<polygon fill="#191970" stroke="#191970" points="683.3064,-327.9461 693.3064,-324.446 683.3064,-320.9461 683.3064,-327.9461"/>
</g>
<!-- Node16 -->
<g id="node15" class="node">
<title>Node16</title>
<g id="a_node15"><a xlink:href="structchig_1_1NodeInstance.html#a0560b8b35612fc845d6464866c425c71" target="_top" xlink:title="Get the ID of the instance, unique to the graph. ">
<polygon fill="#ffffff" stroke="#000000" points="687,-210.946 687,-229.946 801,-229.946 801,-210.946 687,-210.946"/>
<text text-anchor="middle" x="744" y="-217.946" font-family="Helvetica,sans-Serif" font-size="10.00" fill="#000000">chig::NodeInstance::id</text>
</a>
</g>
</g>
<!-- Node14&#45;&gt;Node16 -->
<g id="edge18" class="edge">
<title>Node14&#45;&gt;Node16</title>
<path fill="none" stroke="#191970" d="M604.4203,-314.8637C614.0999,-311.3729 623.9178,-306.6883 632,-300.446 654.8284,-282.8147 645.1463,-264.0445 668,-246.446 674.7502,-241.2481 682.607,-237.0503 690.6577,-233.6713"/>
<polygon fill="#191970" stroke="#191970" points="692.0365,-236.8917 700.143,-230.07 689.5518,-230.3475 692.0365,-236.8917"/>
</g>
<!-- Node14&#45;&gt;Node17 -->
<g id="edge19" class="edge">
<title>Node14&#45;&gt;Node17</title>
<path fill="none" stroke="#191970" d="M566.4309,-314.6238C578.2197,-286.1099 615.7203,-201.959 668,-148.446 681.3661,-134.7647 699.3539,-123.1813 714.4744,-114.8231"/>
<polygon fill="#191970" stroke="#191970" points="716.268,-117.8334 723.4516,-110.0457 712.9795,-111.6539 716.268,-117.8334"/>
</g>
<!-- Node14&#45;&gt;Node22 -->
<g id="edge24" class="edge">
<title>Node14&#45;&gt;Node22</title>
<path fill="none" stroke="#191970" d="M566.6446,-334.2256C578.4728,-361.0108 614.9847,-436.2958 668,-477.446 675.9144,-483.5892 685.3104,-488.4817 694.7503,-492.344"/>
<polygon fill="#191970" stroke="#191970" points="693.5594,-495.6353 704.1516,-495.8709 696.0182,-489.0813 693.5594,-495.6353"/>
</g>
<!-- Node14&#45;&gt;Node24 -->
<g id="edge26" class="edge">
<title>Node14&#45;&gt;Node24</title>
<path fill="none" stroke="#191970" d="M595.3683,-314.8481C619.8735,-307.6923 654.0427,-297.7146 683.4412,-289.1299"/>
<polygon fill="#191970" stroke="#191970" points="684.5894,-292.4408 693.2074,-286.278 682.6272,-285.7215 684.5894,-292.4408"/>
</g>
<!-- Node18 -->
<g id="node17" class="node">
<title>Node18</title>
<g id="a_node17"><a xlink:href="structchig_1_1NodeType.html#ad18d6f37b20e92bcd580bcf7c7504e64" target="_top" xlink:title="Get the ChigModule this NodeType belongs to. ">
<polygon fill="#ffffff" stroke="#000000" points="863,-71.946 863,-90.946 985,-90.946 985,-71.946 863,-71.946"/>
<text text-anchor="middle" x="924" y="-78.946" font-family="Helvetica,sans-Serif" font-size="10.00" fill="#000000">chig::NodeType::module</text>
</a>
</g>
</g>
<!-- Node17&#45;&gt;Node18 -->
<g id="edge20" class="edge">
<title>Node17&#45;&gt;Node18</title>
<path fill="none" stroke="#191970" d="M820.0753,-92.4159C830.9093,-91.2723 842.0193,-90.0996 852.7565,-88.9662"/>
<polygon fill="#191970" stroke="#191970" points="853.3382,-92.4243 862.9155,-87.8938 852.6033,-85.463 853.3382,-92.4243"/>
</g>
<!-- Node19 -->
<g id="node18" class="node">
<title>Node19</title>
<g id="a_node18"><a xlink:href="structchig_1_1ChigModule.html#ad730121a133fbc474fcb71d49f31f7b3" target="_top" xlink:title="Get the full name of the module. ">
<polygon fill="#ffffff" stroke="#000000" points="856,-33.946 856,-52.946 992,-52.946 992,-33.946 856,-33.946"/>
<text text-anchor="middle" x="924" y="-40.946" font-family="Helvetica,sans-Serif" font-size="10.00" fill="#000000">chig::ChigModule::fullName</text>
</a>
</g>
</g>
<!-- Node17&#45;&gt;Node19 -->
<g id="edge21" class="edge">
<title>Node17&#45;&gt;Node19</title>
<path fill="none" stroke="#191970" d="M771.0232,-90.815C793.6245,-82.8715 826.7701,-71.4809 856,-62.446 863.2471,-60.206 870.964,-57.9387 878.5001,-55.7882"/>
<polygon fill="#191970" stroke="#191970" points="879.5728,-59.1223 888.2482,-53.0405 877.6737,-52.3848 879.5728,-59.1223"/>
</g>
<!-- Node20 -->
<g id="node19" class="node">
<title>Node20</title>
<g id="a_node19"><a xlink:href="structchig_1_1NodeType.html#aeba0c62eaae2a477171d83a65c877f53" target="_top" xlink:title="Get the name of the NodeType in the ChigModule. ">
<polygon fill="#ffffff" stroke="#000000" points="866.5,-147.946 866.5,-166.946 981.5,-166.946 981.5,-147.946 866.5,-147.946"/>
<text text-anchor="middle" x="924" y="-154.946" font-family="Helvetica,sans-Serif" font-size="10.00" fill="#000000">chig::NodeType::name</text>
</a>
</g>
</g>
<!-- Node17&#45;&gt;Node20 -->
<g id="edge22" class="edge">
<title>Node17&#45;&gt;Node20</title>
<path fill="none" stroke="#191970" d="M771.0232,-110.0771C793.6245,-118.0206 826.7701,-129.4112 856,-138.446 863.2471,-140.6861 870.964,-142.9534 878.5001,-145.1039"/>
<polygon fill="#191970" stroke="#191970" points="877.6737,-148.5073 888.2482,-147.8515 879.5728,-141.7698 877.6737,-148.5073"/>
</g>
<!-- Node21 -->
<g id="node20" class="node">
<title>Node21</title>
<g id="a_node20"><a xlink:href="structchig_1_1NodeType.html#a07fe116ce84fbf50afd292e82203aedf" target="_top" xlink:title="A virtual function that is called when this node needs to be called. ">
<polygon fill="#ffffff" stroke="#000000" points="860,-109.946 860,-128.946 988,-128.946 988,-109.946 860,-109.946"/>
<text text-anchor="middle" x="924" y="-116.946" font-family="Helvetica,sans-Serif" font-size="10.00" fill="#000000">chig::NodeType::codegen</text>
</a>
</g>
</g>
<!-- Node17&#45;&gt;Node21 -->
<g id="edge23" class="edge">
<title>Node17&#45;&gt;Node21</title>
<path fill="none" stroke="#191970" d="M820.0753,-108.4762C829.9026,-109.5135 839.9569,-110.5748 849.7542,-111.609"/>
<polygon fill="#191970" stroke="#191970" points="849.5384,-115.1056 859.8506,-112.6747 850.2732,-108.1442 849.5384,-115.1056"/>
</g>
<!-- Node23 -->
<g id="node22" class="node">
<title>Node23</title>
<g id="a_node22"><a xlink:href="structchig_1_1NodeType.html#a4225c75840cda9382e6f5ff169d59513" target="_top" xlink:title="Clones the type. ">
<polygon fill="#ffffff" stroke="#000000" points="867,-495.946 867,-514.946 981,-514.946 981,-495.946 867,-495.946"/>
<text text-anchor="middle" x="924" y="-502.946" font-family="Helvetica,sans-Serif" font-size="10.00" fill="#000000">chig::NodeType::clone</text>
</a>
</g>
</g>
<!-- Node22&#45;&gt;Node23 -->
<g id="edge25" class="edge">
<title>Node22&#45;&gt;Node23</title>
<path fill="none" stroke="#191970" d="M806.7026,-505.446C822.9188,-505.446 840.441,-505.446 856.8737,-505.446"/>
<polygon fill="#191970" stroke="#191970" points="856.9431,-508.9461 866.9431,-505.446 856.943,-501.9461 856.9431,-508.9461"/>
</g>
<!-- Node25&#45;&gt;Node11 -->
<g id="edge32" class="edge">
<title>Node25&#45;&gt;Node11</title>
<path fill="none" stroke="#191970" d="M454.2935,-131.5532C513.0357,-138.831 611.4627,-151.0255 677.056,-159.1521"/>
<polygon fill="#191970" stroke="#191970" points="676.9359,-162.6639 687.2904,-160.4201 677.7966,-155.717 676.9359,-162.6639"/>
</g>
<!-- Node25&#45;&gt;Node15 -->
<g id="edge41" class="edge">
<title>Node25&#45;&gt;Node15</title>
<path fill="none" stroke="#191970" d="M413.4725,-135.1244C428.3341,-151.689 460.6105,-185.868 493,-208.446 555.6545,-252.1212 637.3767,-286.3131 690.2672,-305.9403"/>
<polygon fill="#191970" stroke="#191970" points="689.2027,-309.2778 699.7964,-309.4347 691.6127,-302.7058 689.2027,-309.2778"/>
</g>
<!-- Node25&#45;&gt;Node17 -->
<g id="edge42" class="edge">
<title>Node25&#45;&gt;Node17</title>
<path fill="none" stroke="#191970" d="M411.0375,-115.8019C423.5572,-96.8359 454.4241,-55.1656 493,-39.446 550.2101,-16.1331 572.133,-24.2003 632,-39.446 666.3573,-48.1955 701.5528,-69.865 723.0961,-84.8687"/>
<polygon fill="#191970" stroke="#191970" points="721.2786,-87.8715 731.4509,-90.8337 725.346,-82.1745 721.2786,-87.8715"/>
</g>
<!-- Node25&#45;&gt;Node24 -->
<g id="edge43" class="edge">
<title>Node25&#45;&gt;Node24</title>
<path fill="none" stroke="#191970" d="M426.7877,-134.982C471.7895,-154.6581 578.3047,-201.1244 668,-239.446 677.8769,-243.6659 688.492,-248.1607 698.5643,-252.4069"/>
<polygon fill="#191970" stroke="#191970" points="697.4385,-255.7304 708.0131,-256.3847 700.1546,-249.2788 697.4385,-255.7304"/>
</g>
<!-- Node25&#45;&gt;Node26 -->
<g id="edge33" class="edge">
<title>Node25&#45;&gt;Node26</title>
<path fill="none" stroke="#191970" d="M420.0468,-115.8235C437.1587,-105.2214 466.2056,-88.2446 493,-77.446 498.8626,-75.0833 505.1187,-72.9131 511.3844,-70.9513"/>
<polygon fill="#191970" stroke="#191970" points="512.5929,-74.2436 521.1834,-68.0426 510.6009,-67.533 512.5929,-74.2436"/>
</g>
<!-- Node27 -->
<g id="node26" class="node">
<title>Node27</title>
<g id="a_node26"><a xlink:href="structchig_1_1NodeType.html#afc4ee5b526c87f79a4b4e2a902e209a8" target="_top" xlink:title="Get the execution outputs for the node. ">
<polygon fill="#ffffff" stroke="#000000" points="671,-10.946 671,-29.946 817,-29.946 817,-10.946 671,-10.946"/>
<text text-anchor="middle" x="744" y="-17.946" font-family="Helvetica,sans-Serif" font-size="10.00" fill="#000000">chig::NodeType::execOutputs</text>
</a>
</g>
</g>
<!-- Node25&#45;&gt;Node27 -->
<g id="edge40" class="edge">
<title>Node25&#45;&gt;Node27</title>
<path fill="none" stroke="#191970" d="M409.4738,-115.8892C420.2364,-94.1907 449.9124,-41.5344 493,-21.446 557.6117,8.6774 642.1455,.7091 694.754,-8.9682"/>
<polygon fill="#191970" stroke="#191970" points="694.3523,-12.4552 704.8347,-10.9157 695.6801,-5.5823 694.3523,-12.4552"/>
</g>
<!-- Node28 -->
<g id="node27" class="node">
<title>Node28</title>
<g id="a_node27"><a xlink:href="structchig_1_1NodeType.html#ad5ef2ca8fec103e87c31ed39564fa050" target="_top" xlink:title="Get the execution inputs for the node. ">
<polygon fill="#ffffff" stroke="#000000" points="493,-86.946 493,-105.946 632,-105.946 632,-86.946 493,-86.946"/>
<text text-anchor="middle" x="562.5" y="-93.946" font-family="Helvetica,sans-Serif" font-size="10.00" fill="#000000">chig::NodeType::execInputs</text>
</a>
</g>
</g>
<!-- Node25&#45;&gt;Node28 -->
<g id="edge39" class="edge">
<title>Node25&#45;&gt;Node28</title>
<path fill="none" stroke="#191970" d="M454.4019,-116.3498C469.1286,-113.6382 485.4532,-110.6324 500.8598,-107.7957"/>
<polygon fill="#191970" stroke="#191970" points="501.6247,-111.2138 510.8255,-105.9607 500.357,-104.3295 501.6247,-111.2138"/>
</g>
<!-- Node26&#45;&gt;Node11 -->
<g id="edge34" class="edge">
<title>Node26&#45;&gt;Node11</title>
<path fill="none" stroke="#191970" d="M611.9141,-67.9963C618.9511,-70.4665 625.8706,-73.5645 632,-77.446 652.771,-90.5994 649.3994,-103.3693 668,-119.446 682.8618,-132.2913 701.4829,-144.1094 716.5733,-152.8049"/>
<polygon fill="#191970" stroke="#191970" points="715.0161,-155.9446 725.4478,-157.7968 718.448,-149.8436 715.0161,-155.9446"/>
</g>
<!-- Node26&#45;&gt;Node16 -->
<g id="edge36" class="edge">
<title>Node26&#45;&gt;Node16</title>
<path fill="none" stroke="#191970" d="M617.6495,-67.8293C622.9091,-70.3336 627.8266,-73.4848 632,-77.446 669.0034,-112.5689 633.8043,-148.5842 668,-186.446 675.943,-195.2406 686.5931,-201.8893 697.4018,-206.8646"/>
<polygon fill="#191970" stroke="#191970" points="696.3004,-210.1974 706.8771,-210.8179 698.9958,-203.7372 696.3004,-210.1974"/>
</g>
<!-- Node26&#45;&gt;Node17 -->
<g id="edge37" class="edge">
<title>Node26&#45;&gt;Node17</title>
<path fill="none" stroke="#191970" d="M603.6852,-67.9765C630.0468,-74.0767 664.4575,-82.0395 692.6042,-88.5528"/>
<polygon fill="#191970" stroke="#191970" points="692.1324,-92.036 702.6641,-90.8807 693.7106,-85.2163 692.1324,-92.036"/>
</g>
<!-- Node26&#45;&gt;Node24 -->
<g id="edge38" class="edge">
<title>Node26&#45;&gt;Node24</title>
<path fill="none" stroke="#191970" d="M617.7226,-67.2496C623.035,-69.8562 627.9442,-73.1899 632,-77.446 682.8819,-130.8411 620.7408,-182.8195 668,-239.446 672.4991,-244.837 678.064,-249.3368 684.1211,-253.0892"/>
<polygon fill="#191970" stroke="#191970" points="682.8234,-256.3674 693.2808,-258.0686 686.1667,-250.2174 682.8234,-256.3674"/>
</g>
<!-- Node26&#45;&gt;Node27 -->
<g id="edge35" class="edge">
<title>Node26&#45;&gt;Node27</title>
<path fill="none" stroke="#191970" d="M608.3001,-48.857C632.6826,-43.7522 662.8567,-37.4347 688.5557,-32.0542"/>
<polygon fill="#191970" stroke="#191970" points="689.4587,-35.4411 698.5292,-29.9661 688.0242,-28.5897 689.4587,-35.4411"/>
</g>
</g>
</svg>
        <g id="navigator" transform="translate(0 0)" fill="#404254">
                <rect fill="#f2f5e9" fill-opacity="0.5" stroke="#606060" stroke-width=".5" x="0" y="0" width="60" height="60"/>
                <use id="zoomplus" xlink:href="#zoomPlus" x="17" y="9" onmousedown="handleZoom(evt,'in')"/>
                <use id="zoomminus" xlink:href="#zoomMin" x="42" y="9" onmousedown="handleZoom(evt,'out')"/>
                <use id="reset" xlink:href="#resetDef" x="30" y="36" onmousedown="handleReset()"/>
                <g id="arrowUp" xlink:href="#dirArrow" transform="translate(30 24)" onmousedown="handlePan(0,-1)">
                  <use xlink:href="#rim" fill="#404040">
                        <set attributeName="fill" to="#808080" begin="arrowUp.mouseover" end="arrowUp.mouseout"/>
                  </use>
                  <path fill="none" stroke="white" stroke-width="1.5" d="M0,-3.0v7 M-2.5,-0.5L0,-3.0L2.5,-0.5"/>
                </g>
                <g id="arrowRight" xlink:href="#dirArrow" transform="rotate(90) translate(36 -43)" onmousedown="handlePan(1,0)">
                  <use xlink:href="#rim" fill="#404040">
                        <set attributeName="fill" to="#808080" begin="arrowRight.mouseover" end="arrowRight.mouseout"/>
                  </use>
                  <path fill="none" stroke="white" stroke-width="1.5" d="M0,-3.0v7 M-2.5,-0.5L0,-3.0L2.5,-0.5"/>
                </g>
                <g id="arrowDown" xlink:href="#dirArrow" transform="rotate(180) translate(-30 -48)" onmousedown="handlePan(0,1)">
                  <use xlink:href="#rim" fill="#404040">
                        <set attributeName="fill" to="#808080" begin="arrowDown.mouseover" end="arrowDown.mouseout"/>
                  </use>
                  <path fill="none" stroke="white" stroke-width="1.5" d="M0,-3.0v7 M-2.5,-0.5L0,-3.0L2.5,-0.5"/>
                </g>
                <g id="arrowLeft" xlink:href="#dirArrow" transform="rotate(270) translate(-36 17)" onmousedown="handlePan(-1,0)">
                  <use xlink:href="#rim" fill="#404040">
                        <set attributeName="fill" to="#808080" begin="arrowLeft.mouseover" end="arrowLeft.mouseout"/>
                  </use>
                  <path fill="none" stroke="white" stroke-width="1.5" d="M0,-3.0v7 M-2.5,-0.5L0,-3.0L2.5,-0.5"/>
                </g>
        </g>
        <svg viewBox="0 0 15 15" width="100%" height="30px" preserveAspectRatio="xMaxYMin meet">
         <g id="arrow_out" transform="scale(0.3 0.3)">
          <a xlink:href="classchig_1_1Debugger_a4cb57c7595304ab8f85144e4fc24ae94_cgraph_org.svg" target="_base">
           <rect id="button" ry="5" rx="5" y="6" x="6" height="38" width="38"
                fill="#f2f5e9" fill-opacity="0.5" stroke="#606060" stroke-width="1.0"/>
           <path id="arrow"
             d="M 11.500037,31.436501 C 11.940474,20.09759 22.043105,11.32322 32.158766,21.979434 L 37.068811,17.246167 C 37.068811,17.246167 37.088388,32 37.088388,32 L 22.160133,31.978069 C 22.160133,31.978069 26.997745,27.140456 26.997745,27.140456 C 18.528582,18.264221 13.291696,25.230495 11.500037,31.436501 z"
             style="fill:#404040;"/>
          </a>
         </g>
        </svg>
</svg>
