<?xml version="1.0" encoding="UTF-8" standalone="no"?>
<!DOCTYPE svg PUBLIC "-//W3C//DTD SVG 1.1//EN"
 "http://www.w3.org/Graphics/SVG/1.1/DTD/svg11.dtd">
<!-- Generated by graphviz version 2.40.1 (20161225.0304)
 -->
<!-- Title: chi::Debugger::processContinue Pages: 1 -->
<svg width="486pt" height="66pt"
 viewBox="0.00 0.00 486.00 66.00" xmlns="http://www.w3.org/2000/svg" xmlns:xlink="http://www.w3.org/1999/xlink">
<g id="graph0" class="graph" transform="scale(1 1) rotate(0) translate(4 62)">
<title>chi::Debugger::processContinue</title>
<polygon fill="#ffffff" stroke="transparent" points="-4,4 -4,-62 482,-62 482,4 -4,4"/>
<!-- Node114 -->
<g id="node1" class="node">
<title>Node114</title>
<polygon fill="#bfbfbf" stroke="#000000" points="0,-19.5 0,-38.5 155,-38.5 155,-19.5 0,-19.5"/>
<text text-anchor="middle" x="77.5" y="-26.5" font-family="Helvetica,sans-Serif" font-size="10.00" fill="#000000">chi::Debugger::processContinue</text>
</g>
<!-- Node115 -->
<g id="node2" class="node">
<title>Node115</title>
<g id="a_node2"><a xlink:href="structchi_1_1Result.html#a59ef40f4a327cbdea263d6e4b5af2ad8" target="_top" xlink:title="Add a entry to the result, either a warning or an error. ">
<polygon fill="#ffffff" stroke="#000000" points="201.5,-38.5 201.5,-57.5 309.5,-57.5 309.5,-38.5 201.5,-38.5"/>
<text text-anchor="middle" x="255.5" y="-45.5" font-family="Helvetica,sans-Serif" font-size="10.00" fill="#000000">chi::Result::addEntry</text>
</a>
</g>
</g>
<!-- Node114&#45;&gt;Node115 -->
<g id="edge1" class="edge">
<title>Node114&#45;&gt;Node115</title>
<path fill="none" stroke="#191970" d="M155.0556,-37.2784C167.1565,-38.5701 179.5444,-39.8924 191.3043,-41.1477"/>
<polygon fill="#191970" stroke="#191970" points="191.1392,-44.6498 201.4542,-42.2311 191.8822,-37.6894 191.1392,-44.6498"/>
</g>
<!-- Node117 -->
<g id="node4" class="node">
<title>Node117</title>
<g id="a_node4"><a xlink:href="classchi_1_1Debugger.html#a17c4ded82e7df22e6d513568d590d58a" target="_top" xlink:title="Check if this debugger is attached to a process It&#39;s true if the process is stopped or if it&#39;s curret...">
<polygon fill="#ffffff" stroke="#000000" points="191,-.5 191,-19.5 320,-19.5 320,-.5 191,-.5"/>
<text text-anchor="middle" x="255.5" y="-7.5" font-family="Helvetica,sans-Serif" font-size="10.00" fill="#000000">chi::Debugger::isAttached</text>
</a>
</g>
</g>
<!-- Node114&#45;&gt;Node117 -->
<g id="edge3" class="edge">
<title>Node114&#45;&gt;Node117</title>
<path fill="none" stroke="#191970" d="M155.0556,-20.7216C163.6747,-19.8016 172.4395,-18.866 181.0192,-17.9502"/>
<polygon fill="#191970" stroke="#191970" points="181.4142,-21.428 190.9862,-16.8863 180.6712,-14.4675 181.4142,-21.428"/>
</g>
<!-- Node116 -->
<g id="node3" class="node">
<title>Node116</title>
<g id="a_node3"><a xlink:href="structchi_1_1Result.html#aa078d3cb3dfb2fb63e81b71acea036e0" target="_top" xlink:title="Get the JSON associated with the context that&#39;s been added. ">
<polygon fill="#ffffff" stroke="#000000" points="356,-38.5 356,-57.5 478,-57.5 478,-38.5 356,-38.5"/>
<text text-anchor="middle" x="417" y="-45.5" font-family="Helvetica,sans-Serif" font-size="10.00" fill="#000000">chi::Result::contextJson</text>
</a>
</g>
</g>
<!-- Node115&#45;&gt;Node116 -->
<g id="edge2" class="edge">
<title>Node115&#45;&gt;Node116</title>
<path fill="none" stroke="#191970" d="M309.7264,-48C321.3241,-48 333.7429,-48 345.8682,-48"/>
<polygon fill="#191970" stroke="#191970" points="345.96,-51.5001 355.96,-48 345.9599,-44.5001 345.96,-51.5001"/>
</g>
</g>
</svg>
