<?xml version="1.0" encoding="UTF-8" standalone="no"?>
<!DOCTYPE svg PUBLIC "-//W3C//DTD SVG 1.1//EN"
 "http://www.w3.org/Graphics/SVG/1.1/DTD/svg11.dtd">
<!-- Generated by graphviz version 2.40.1 (20161225.0304)
 -->
<!-- Title: chi::Debugger::setBreakpoint Pages: 1 -->
<!--zoomable 872 -->
<svg id="main" version="1.1" xmlns="http://www.w3.org/2000/svg" xmlns:xlink="http://www.w3.org/1999/xlink" xml:space="preserve" onload="init(evt)">
<style type="text/css"><![CDATA[
.edge:hover path { stroke: red; }
.edge:hover polygon { stroke: red; fill: red; }
]]></style>
<script type="text/javascript"><![CDATA[
var edges = document.getElementsByTagName('g');
if (edges && edges.length) {
  for (var i=0;i<edges.length;i++) {
    if (edges[i].id.substr(0,4)=='edge') {
      edges[i].setAttribute('class','edge');
    }
  }
}
]]></script>
        <defs>
                <circle id="rim" cx="0" cy="0" r="7"/>
                <circle id="rim2" cx="0" cy="0" r="3.5"/>
                <g id="zoomPlus">
                        <use xlink:href="#rim" fill="#404040">
                                <set attributeName="fill" to="#808080" begin="zoomplus.mouseover" end="zoomplus.mouseout"/>
                        </use>
                        <path d="M-4,0h8M0,-4v8" fill="none" stroke="white" stroke-width="1.5" pointer-events="none"/>
                </g>
                <g id="zoomMin">
                        <use xlink:href="#rim" fill="#404040">
                                <set attributeName="fill" to="#808080" begin="zoomminus.mouseover" end="zoomminus.mouseout"/>
                        </use>
                        <path d="M-4,0h8" fill="none" stroke="white" stroke-width="1.5" pointer-events="none"/>
                </g>
                <g id="dirArrow">
                        <path fill="none" stroke="white" stroke-width="1.5" d="M0,-3.0v7 M-2.5,-0.5L0,-3.0L2.5,-0.5"/>
                </g>
               <g id="resetDef">
                       <use xlink:href="#rim2" fill="#404040">
                               <set attributeName="fill" to="#808080" begin="reset.mouseover" end="reset.mouseout"/>
                       </use>
               </g>
        </defs>

<script type="text/javascript">
var viewWidth = 1201;
var viewHeight = 872;
var sectionId = 'dynsection-16';
</script>
<script xlink:href="svgpan.js"/>
<svg id="graph" class="graph">
<g id="viewport">
<title>chi::Debugger::setBreakpoint</title>
<polygon fill="#ffffff" stroke="transparent" points="-4,4 -4,-868.4905 1197,-868.4905 1197,4 -4,4"/>
<!-- Node160 -->
<g id="node1" class="node">
<title>Node160</title>
<polygon fill="#bfbfbf" stroke="#000000" points="0,-325.4905 0,-344.4905 143,-344.4905 143,-325.4905 0,-325.4905"/>
<text text-anchor="middle" x="71.5" y="-332.4905" font-family="Helvetica,sans-Serif" font-size="10.00" fill="#000000">chi::Debugger::setBreakpoint</text>
</g>
<!-- Node161 -->
<g id="node2" class="node">
<title>Node161</title>
<g id="a_node2"><a xlink:href="structchi_1_1Result.html#a59ef40f4a327cbdea263d6e4b5af2ad8" target="_top" xlink:title="Add a entry to the result, either a warning or an error. ">
<polygon fill="#ffffff" stroke="#000000" points="904.5,-458.4905 904.5,-477.4905 1012.5,-477.4905 1012.5,-458.4905 904.5,-458.4905"/>
<text text-anchor="middle" x="958.5" y="-465.4905" font-family="Helvetica,sans-Serif" font-size="10.00" fill="#000000">chi::Result::addEntry</text>
</a>
</g>
</g>
<!-- Node160&#45;&gt;Node161 -->
<g id="edge1" class="edge">
<title>Node160&#45;&gt;Node161</title>
<path fill="none" stroke="#191970" d="M74.3997,-344.8535C93.1261,-406.2961 202.9409,-733.9905 415,-733.9905 415,-733.9905 415,-733.9905 591.5,-733.9905 713.4846,-733.9905 759.6063,-721.9906 849,-638.9905 877.276,-612.7368 864.8049,-592.8683 885,-559.9905 902.1034,-532.146 926.5033,-503.2058 942.42,-485.3937"/>
<polygon fill="#191970" stroke="#191970" points="945.3631,-487.358 949.4831,-477.5971 940.1753,-482.6583 945.3631,-487.358"/>
</g>
<!-- Node163 -->
<g id="node4" class="node">
<title>Node163</title>
<g id="a_node4"><a xlink:href="namespacechi.html#a46ba4fa933baeba58beefc9e573b0668" target="_top" xlink:title="Get the mapped line number from a node. ">
<polygon fill="#ffffff" stroke="#000000" points="179,-363.4905 179,-382.4905 308,-382.4905 308,-363.4905 179,-363.4905"/>
<text text-anchor="middle" x="243.5" y="-370.4905" font-family="Helvetica,sans-Serif" font-size="10.00" fill="#000000">chi::lineNumberFromNode</text>
</a>
</g>
</g>
<!-- Node160&#45;&gt;Node163 -->
<g id="edge3" class="edge">
<title>Node160&#45;&gt;Node163</title>
<path fill="none" stroke="#191970" d="M114.9029,-344.5795C137.9068,-349.6618 166.3509,-355.9459 190.6342,-361.3108"/>
<polygon fill="#191970" stroke="#191970" points="189.8896,-364.7307 200.4092,-363.4704 191.3998,-357.8955 189.8896,-364.7307"/>
</g>
<!-- Node170 -->
<g id="node11" class="node">
<title>Node170</title>
<g id="a_node11"><a xlink:href="structchi_1_1NodeInstance.html#a72d113cfee45f4017adf28b034c6f215" target="_top" xlink:title="Get the containing GraphModule. ">
<polygon fill="#ffffff" stroke="#000000" points="364.5,-338.9905 364.5,-368.9905 465.5,-368.9905 465.5,-338.9905 364.5,-338.9905"/>
<text text-anchor="start" x="372.5" y="-356.9905" font-family="Helvetica,sans-Serif" font-size="10.00" fill="#000000">chi::NodeInstance::</text>
<text text-anchor="middle" x="415" y="-345.9905" font-family="Helvetica,sans-Serif" font-size="10.00" fill="#000000">module</text>
</a>
</g>
</g>
<!-- Node160&#45;&gt;Node170 -->
<g id="edge57" class="edge">
<title>Node160&#45;&gt;Node170</title>
<path fill="none" stroke="#191970" d="M143.0907,-338.9504C205.5062,-342.4028 295.0486,-347.3556 354.0879,-350.6212"/>
<polygon fill="#191970" stroke="#191970" points="354.2019,-354.1328 364.3799,-351.1905 354.5885,-347.1435 354.2019,-354.1328"/>
</g>
<!-- Node180 -->
<g id="node21" class="node">
<title>Node180</title>
<g id="a_node21"><a xlink:href="structchi_1_1NodeInstance.html#a993d848a1b95077007e232d177f58308" target="_top" xlink:title="Get the ID as a string. ">
<polygon fill="#ffffff" stroke="#000000" points="908,-184.9905 908,-214.9905 1009,-214.9905 1009,-184.9905 908,-184.9905"/>
<text text-anchor="start" x="916" y="-202.9905" font-family="Helvetica,sans-Serif" font-size="10.00" fill="#000000">chi::NodeInstance::</text>
<text text-anchor="middle" x="958.5" y="-191.9905" font-family="Helvetica,sans-Serif" font-size="10.00" fill="#000000">stringId</text>
</a>
</g>
</g>
<!-- Node160&#45;&gt;Node180 -->
<g id="edge64" class="edge">
<title>Node160&#45;&gt;Node180</title>
<path fill="none" stroke="#191970" d="M81.8097,-325.3068C121.4463,-289.1329 269.1103,-163.9905 415,-163.9905 415,-163.9905 415,-163.9905 591.5,-163.9905 706.2556,-163.9905 734.9872,-169.9552 849,-182.9905 864.8359,-184.801 881.8909,-187.2203 897.7171,-189.6646"/>
<polygon fill="#191970" stroke="#191970" points="897.4923,-193.1721 907.9146,-191.2683 898.5798,-186.2571 897.4923,-193.1721"/>
</g>
<!-- Node188 -->
<g id="node29" class="node">
<title>Node188</title>
<g id="a_node29"><a xlink:href="structchi_1_1GraphModule.html#a1c1a23b9aa7967948e97dc9650099188" target="_top" xlink:title="Get the path to the source file It&#39;s not garunteed to exist, because it could have not been saved...">
<polygon fill="#ffffff" stroke="#000000" points="179.5,-87.9905 179.5,-117.9905 307.5,-117.9905 307.5,-87.9905 179.5,-87.9905"/>
<text text-anchor="start" x="187.5" y="-105.9905" font-family="Helvetica,sans-Serif" font-size="10.00" fill="#000000">chi::GraphModule::source</text>
<text text-anchor="middle" x="243.5" y="-94.9905" font-family="Helvetica,sans-Serif" font-size="10.00" fill="#000000">FilePath</text>
</a>
</g>
</g>
<!-- Node160&#45;&gt;Node188 -->
<g id="edge58" class="edge">
<title>Node160&#45;&gt;Node188</title>
<path fill="none" stroke="#191970" d="M75.4318,-325.2471C87.5189,-296.1325 126.5131,-208.2014 179,-149.9905 187.8586,-140.1658 199.0812,-131.1319 209.6722,-123.6656"/>
<polygon fill="#191970" stroke="#191970" points="211.6666,-126.542 217.9733,-118.0287 207.7342,-120.7509 211.6666,-126.542"/>
</g>
<!-- Node162 -->
<g id="node3" class="node">
<title>Node162</title>
<g id="a_node3"><a xlink:href="structchi_1_1Result.html#aa078d3cb3dfb2fb63e81b71acea036e0" target="_top" xlink:title="Get the JSON associated with the context that&#39;s been added. ">
<polygon fill="#ffffff" stroke="#000000" points="1069.5,-458.4905 1069.5,-477.4905 1191.5,-477.4905 1191.5,-458.4905 1069.5,-458.4905"/>
<text text-anchor="middle" x="1130.5" y="-465.4905" font-family="Helvetica,sans-Serif" font-size="10.00" fill="#000000">chi::Result::contextJson</text>
</a>
</g>
</g>
<!-- Node161&#45;&gt;Node162 -->
<g id="edge2" class="edge">
<title>Node161&#45;&gt;Node162</title>
<path fill="none" stroke="#191970" d="M1012.9219,-467.9905C1027.6156,-467.9905 1043.7374,-467.9905 1059.2052,-467.9905"/>
<polygon fill="#191970" stroke="#191970" points="1059.2538,-471.4906 1069.2537,-467.9905 1059.2537,-464.4906 1059.2538,-471.4906"/>
</g>
<!-- Node164 -->
<g id="node5" class="node">
<title>Node164</title>
<g id="a_node5"><a xlink:href="structchi_1_1GraphModule.html#a0f4f97f458bbbacd6ff3c1be55441b98" target="_top" xlink:title="Create the associations from line number and function in debug info. ">
<polygon fill="#ffffff" stroke="#000000" points="352,-512.9905 352,-542.9905 478,-542.9905 478,-512.9905 352,-512.9905"/>
<text text-anchor="start" x="360" y="-530.9905" font-family="Helvetica,sans-Serif" font-size="10.00" fill="#000000">chi::GraphModule::create</text>
<text text-anchor="middle" x="415" y="-519.9905" font-family="Helvetica,sans-Serif" font-size="10.00" fill="#000000">LineNumberAssoc</text>
</a>
</g>
</g>
<!-- Node163&#45;&gt;Node164 -->
<g id="edge4" class="edge">
<title>Node163&#45;&gt;Node164</title>
<path fill="none" stroke="#191970" d="M254.2281,-382.6864C281.2704,-407.127 352.7608,-471.7393 390.643,-505.9769"/>
<polygon fill="#191970" stroke="#191970" points="388.4227,-508.6878 398.1885,-512.7964 393.1163,-503.4945 388.4227,-508.6878"/>
</g>
<!-- Node163&#45;&gt;Node170 -->
<g id="edge12" class="edge">
<title>Node163&#45;&gt;Node170</title>
<path fill="none" stroke="#191970" d="M308.3368,-365.8074C323.3654,-364.1424 339.3067,-362.3763 354.1568,-360.7311"/>
<polygon fill="#191970" stroke="#191970" points="354.6849,-364.1941 364.2386,-359.6142 353.914,-357.2367 354.6849,-364.1941"/>
</g>
<!-- Node165 -->
<g id="node6" class="node">
<title>Node165</title>
<g id="a_node6"><a xlink:href="structchi_1_1GraphModule.html#a45255dbf09b56ac93b35ebc4d77bba5c" target="_top" xlink:title="Get functions. ">
<polygon fill="#ffffff" stroke="#000000" points="522,-792.4905 522,-811.4905 661,-811.4905 661,-792.4905 522,-792.4905"/>
<text text-anchor="middle" x="591.5" y="-799.4905" font-family="Helvetica,sans-Serif" font-size="10.00" fill="#000000">chi::GraphModule::functions</text>
</a>
</g>
</g>
<!-- Node164&#45;&gt;Node165 -->
<g id="edge5" class="edge">
<title>Node164&#45;&gt;Node165</title>
<path fill="none" stroke="#191970" d="M424.7408,-543.1122C454.953,-590.0138 547.006,-732.9176 579.7692,-783.7795"/>
<polygon fill="#191970" stroke="#191970" points="576.9749,-785.9048 585.3326,-792.4162 582.8596,-782.114 576.9749,-785.9048"/>
</g>
<!-- Node166 -->
<g id="node7" class="node">
<title>Node166</title>
<g id="a_node7"><a xlink:href="structchi_1_1GraphModule.html#aad5b2fd794606b66cec221408cf07af4" target="_top" xlink:title="Get a struct by name. ">
<polygon fill="#ffffff" stroke="#000000" points="896.5,-833.9905 896.5,-863.9905 1020.5,-863.9905 1020.5,-833.9905 896.5,-833.9905"/>
<text text-anchor="start" x="904.5" y="-851.9905" font-family="Helvetica,sans-Serif" font-size="10.00" fill="#000000">chi::GraphModule::struct</text>
<text text-anchor="middle" x="958.5" y="-840.9905" font-family="Helvetica,sans-Serif" font-size="10.00" fill="#000000">FromName</text>
</a>
</g>
</g>
<!-- Node165&#45;&gt;Node166 -->
<g id="edge6" class="edge">
<title>Node165&#45;&gt;Node166</title>
<path fill="none" stroke="#191970" d="M606.1086,-811.5015C625.801,-823.6988 662.3944,-844.2051 697,-851.9905 759.836,-866.1269 833.3297,-863.6753 886.3751,-858.6788"/>
<polygon fill="#191970" stroke="#191970" points="886.7637,-862.1575 896.3681,-857.6848 886.0707,-855.1919 886.7637,-862.1575"/>
</g>
<!-- Node167 -->
<g id="node8" class="node">
<title>Node167</title>
<g id="a_node8"><a xlink:href="structchi_1_1GraphModule.html#a63117b26fc55e86e740926994f54fe55" target="_top" xlink:title="Create a new struct in the module. ">
<polygon fill="#ffffff" stroke="#000000" points="697,-811.9905 697,-841.9905 849,-841.9905 849,-811.9905 697,-811.9905"/>
<text text-anchor="start" x="705" y="-829.9905" font-family="Helvetica,sans-Serif" font-size="10.00" fill="#000000">chi::GraphModule::getOrCreate</text>
<text text-anchor="middle" x="773" y="-818.9905" font-family="Helvetica,sans-Serif" font-size="10.00" fill="#000000">Struct</text>
</a>
</g>
</g>
<!-- Node165&#45;&gt;Node167 -->
<g id="edge7" class="edge">
<title>Node165&#45;&gt;Node167</title>
<path fill="none" stroke="#191970" d="M660.6351,-811.5132C669.1316,-812.6835 677.8964,-813.8908 686.6076,-815.0907"/>
<polygon fill="#191970" stroke="#191970" points="686.4058,-818.5959 696.7899,-816.4932 687.361,-811.6613 686.4058,-818.5959"/>
</g>
<!-- Node169 -->
<g id="node10" class="node">
<title>Node169</title>
<g id="a_node10"><a xlink:href="structchi_1_1GraphModule.html#a779d5c125ca7b556b114bb448f83dc3b" target="_top" xlink:title="Remove a struct from the module by name. ">
<polygon fill="#ffffff" stroke="#000000" points="707.5,-762.9905 707.5,-792.9905 838.5,-792.9905 838.5,-762.9905 707.5,-762.9905"/>
<text text-anchor="start" x="715.5" y="-780.9905" font-family="Helvetica,sans-Serif" font-size="10.00" fill="#000000">chi::GraphModule::remove</text>
<text text-anchor="middle" x="773" y="-769.9905" font-family="Helvetica,sans-Serif" font-size="10.00" fill="#000000">Struct</text>
</a>
</g>
</g>
<!-- Node165&#45;&gt;Node169 -->
<g id="edge10" class="edge">
<title>Node165&#45;&gt;Node169</title>
<path fill="none" stroke="#191970" d="M661.1536,-792.7801C673.0248,-791.2103 685.406,-789.5732 697.4219,-787.9843"/>
<polygon fill="#191970" stroke="#191970" points="697.9553,-791.4443 707.4102,-786.6635 697.0376,-784.5047 697.9553,-791.4443"/>
</g>
<!-- Node167&#45;&gt;Node166 -->
<g id="edge8" class="edge">
<title>Node167&#45;&gt;Node166</title>
<path fill="none" stroke="#191970" d="M849.253,-836.034C861.5099,-837.4876 874.1639,-838.9883 886.3213,-840.4302"/>
<polygon fill="#191970" stroke="#191970" points="886.0545,-843.923 896.3972,-841.6252 886.879,-836.9717 886.0545,-843.923"/>
</g>
<!-- Node168 -->
<g id="node9" class="node">
<title>Node168</title>
<g id="a_node9"><a xlink:href="structchi_1_1ChiModule.html#af3cdb7e3d333fedc74ad862dcc5bca9f" target="_top" xlink:title="Update the last edit time, signifying that it&#39;s been edited. ">
<polygon fill="#ffffff" stroke="#000000" points="891,-643.9905 891,-673.9905 1026,-673.9905 1026,-643.9905 891,-643.9905"/>
<text text-anchor="start" x="899" y="-661.9905" font-family="Helvetica,sans-Serif" font-size="10.00" fill="#000000">chi::ChiModule::updateLast</text>
<text text-anchor="middle" x="958.5" y="-650.9905" font-family="Helvetica,sans-Serif" font-size="10.00" fill="#000000">EditTime</text>
</a>
</g>
</g>
<!-- Node167&#45;&gt;Node168 -->
<g id="edge9" class="edge">
<title>Node167&#45;&gt;Node168</title>
<path fill="none" stroke="#191970" d="M833.1827,-811.9062C838.7592,-809.366 844.1344,-806.4148 849,-802.9905 894.1551,-771.2104 928.9337,-715.1638 946.2909,-683.1707"/>
<polygon fill="#191970" stroke="#191970" points="949.5246,-684.543 951.1106,-674.0675 943.3382,-681.2676 949.5246,-684.543"/>
</g>
<!-- Node169&#45;&gt;Node168 -->
<g id="edge11" class="edge">
<title>Node169&#45;&gt;Node168</title>
<path fill="none" stroke="#191970" d="M817.8817,-762.9118C828.3862,-758.6709 839.3267,-753.6481 849,-747.9905 881.4392,-729.0176 914.32,-700.8253 935.4652,-681.2753"/>
<polygon fill="#191970" stroke="#191970" points="938.0658,-683.6348 942.9693,-674.2429 933.2792,-678.5271 938.0658,-683.6348"/>
</g>
<!-- Node171 -->
<g id="node12" class="node">
<title>Node171</title>
<g id="a_node12"><a xlink:href="namespacechi.html#ab69b013712d615bf9901d7bf2b0b11fb" target="_top" xlink:title="Connects two nodes&#39; data connections. ">
<polygon fill="#ffffff" stroke="#000000" points="546.5,-306.4905 546.5,-325.4905 636.5,-325.4905 636.5,-306.4905 546.5,-306.4905"/>
<text text-anchor="middle" x="591.5" y="-313.4905" font-family="Helvetica,sans-Serif" font-size="10.00" fill="#000000">chi::connectData</text>
</a>
</g>
</g>
<!-- Node170&#45;&gt;Node171 -->
<g id="edge13" class="edge">
<title>Node170&#45;&gt;Node171</title>
<path fill="none" stroke="#191970" d="M457.7257,-338.9135C481.4133,-332.8167 511.1268,-326.2776 536.5299,-321.5215"/>
<polygon fill="#191970" stroke="#191970" points="537.1821,-324.9604 546.3941,-319.7269 535.9291,-318.0734 537.1821,-324.9604"/>
</g>
<!-- Node174 -->
<g id="node15" class="node">
<title>Node174</title>
<g id="a_node15"><a xlink:href="namespacechi.html#a4694f9910cf90fd7c202fe117c4f257e" target="_top" xlink:title="Disconnect a data connection. ">
<polygon fill="#ffffff" stroke="#000000" points="721.5,-192.4905 721.5,-211.4905 824.5,-211.4905 824.5,-192.4905 721.5,-192.4905"/>
<text text-anchor="middle" x="773" y="-199.4905" font-family="Helvetica,sans-Serif" font-size="10.00" fill="#000000">chi::disconnectData</text>
</a>
</g>
</g>
<!-- Node170&#45;&gt;Node174 -->
<g id="edge55" class="edge">
<title>Node170&#45;&gt;Node174</title>
<path fill="none" stroke="#191970" d="M430.282,-338.9251C450.7699,-324.2511 488.453,-303.1995 522,-287.9905 586.7829,-258.6203 663.5602,-230.4957 714.989,-214.4841"/>
<polygon fill="#191970" stroke="#191970" points="716.068,-217.8142 724.6068,-211.5422 714.0203,-211.1204 716.068,-217.8142"/>
</g>
<!-- Node184 -->
<g id="node25" class="node">
<title>Node184</title>
<g id="a_node25"><a xlink:href="namespacechi.html#a79423caa23a58e57b775c5137a03ee31" target="_top" xlink:title="Connects two nodes&#39; exec connections. ">
<polygon fill="#ffffff" stroke="#000000" points="545.5,-477.4905 545.5,-496.4905 637.5,-496.4905 637.5,-477.4905 545.5,-477.4905"/>
<text text-anchor="middle" x="591.5" y="-484.4905" font-family="Helvetica,sans-Serif" font-size="10.00" fill="#000000">chi::connectExec</text>
</a>
</g>
</g>
<!-- Node170&#45;&gt;Node184 -->
<g id="edge38" class="edge">
<title>Node170&#45;&gt;Node184</title>
<path fill="none" stroke="#191970" d="M441.8066,-369.181C478.829,-394.4953 544.4928,-444.2681 575.0314,-470.4487"/>
<polygon fill="#191970" stroke="#191970" points="572.8426,-473.1848 582.6605,-477.1674 577.469,-467.9316 572.8426,-473.1848"/>
</g>
<!-- Node185 -->
<g id="node26" class="node">
<title>Node185</title>
<g id="a_node26"><a xlink:href="namespacechi.html#a103b99abd766aa4d303a5004fe783c03" target="_top" xlink:title="Disconnect a exec connection. ">
<polygon fill="#ffffff" stroke="#000000" points="720.5,-458.4905 720.5,-477.4905 825.5,-477.4905 825.5,-458.4905 720.5,-458.4905"/>
<text text-anchor="middle" x="773" y="-465.4905" font-family="Helvetica,sans-Serif" font-size="10.00" fill="#000000">chi::disconnectExec</text>
</a>
</g>
</g>
<!-- Node170&#45;&gt;Node185 -->
<g id="edge56" class="edge">
<title>Node170&#45;&gt;Node185</title>
<path fill="none" stroke="#191970" d="M465.6727,-363.6346C522.1089,-379.2706 616.057,-409.2936 697,-434.9905 715.7518,-440.9436 737.1187,-447.6875 752.411,-454.0494"/>
<polygon fill="#191970" stroke="#191970" points="751.3691,-457.4207 761.9206,-458.3784 754.2693,-451.0497 751.3691,-457.4207"/>
</g>
<!-- Node171&#45;&gt;Node161 -->
<g id="edge14" class="edge">
<title>Node171&#45;&gt;Node161</title>
<path fill="none" stroke="#191970" d="M610.7569,-325.6205C631.7648,-336.0074 666.4776,-352.8245 697,-365.9905 776.7027,-400.3707 872.0933,-436.2895 922.7533,-454.961"/>
<polygon fill="#191970" stroke="#191970" points="921.6774,-458.2944 932.271,-458.4598 924.0927,-451.7243 921.6774,-458.2944"/>
</g>
<!-- Node171&#45;&gt;Node168 -->
<g id="edge37" class="edge">
<title>Node171&#45;&gt;Node168</title>
<path fill="none" stroke="#191970" d="M595.7256,-325.8776C608.0295,-353.814 646.2011,-434.6964 697,-486.9905 733.178,-524.2333 861.0633,-601.72 923.5785,-638.6137"/>
<polygon fill="#191970" stroke="#191970" points="921.9157,-641.6962 932.3091,-643.7529 925.4667,-635.6638 921.9157,-641.6962"/>
</g>
<!-- Node171&#45;&gt;Node170 -->
<g id="edge33" class="edge">
<title>Node171&#45;&gt;Node170</title>
<path fill="none" stroke="#191970" d="M568.7603,-325.5907C545.3542,-332.5154 507.8777,-341.1661 475.784,-347.3545"/>
<polygon fill="#191970" stroke="#191970" points="474.7596,-343.9856 465.5778,-349.2718 476.0521,-350.8652 474.7596,-343.9856"/>
</g>
<!-- Node172 -->
<g id="node13" class="node">
<title>Node172</title>
<g id="a_node13"><a xlink:href="structchi_1_1NodeType.html#a7d2edfc21ff54a1ff8ad98fffb969268" target="_top" xlink:title="Get the data inputs for the node. ">
<polygon fill="#ffffff" stroke="#000000" points="893,-142.4905 893,-161.4905 1024,-161.4905 1024,-142.4905 893,-142.4905"/>
<text text-anchor="middle" x="958.5" y="-149.4905" font-family="Helvetica,sans-Serif" font-size="10.00" fill="#000000">chi::NodeType::dataInputs</text>
</a>
</g>
</g>
<!-- Node171&#45;&gt;Node172 -->
<g id="edge15" class="edge">
<title>Node171&#45;&gt;Node172</title>
<path fill="none" stroke="#191970" d="M595.9344,-306.1381C607.9777,-280.6699 643.9857,-212.5815 697,-182.9905 753.6527,-151.3685 827.8569,-145.2798 882.7423,-146.1329"/>
<polygon fill="#191970" stroke="#191970" points="882.6777,-149.6323 892.7572,-146.3684 882.8423,-142.6342 882.6777,-149.6323"/>
</g>
<!-- Node173 -->
<g id="node14" class="node">
<title>Node173</title>
<g id="a_node14"><a xlink:href="structchi_1_1NodeType.html#aade37588d98e93b19a9a47e16c850684" target="_top" xlink:title="Get the data outputs for the node. ">
<polygon fill="#ffffff" stroke="#000000" points="889,-96.4905 889,-115.4905 1028,-115.4905 1028,-96.4905 889,-96.4905"/>
<text text-anchor="middle" x="958.5" y="-103.4905" font-family="Helvetica,sans-Serif" font-size="10.00" fill="#000000">chi::NodeType::dataOutputs</text>
</a>
</g>
</g>
<!-- Node171&#45;&gt;Node173 -->
<g id="edge16" class="edge">
<title>Node171&#45;&gt;Node173</title>
<path fill="none" stroke="#191970" d="M594.1311,-306.473C602.9351,-276.5885 634.3998,-184.1717 697,-142.9905 750.5513,-107.762 823.5979,-99.9754 878.8776,-100.1649"/>
<polygon fill="#191970" stroke="#191970" points="878.9421,-103.6658 888.9841,-100.2882 879.0276,-96.6663 878.9421,-103.6658"/>
</g>
<!-- Node171&#45;&gt;Node174 -->
<g id="edge17" class="edge">
<title>Node171&#45;&gt;Node174</title>
<path fill="none" stroke="#191970" d="M605.2896,-306.3965C619.66,-296.1897 642.6053,-279.2973 661,-262.9905 678.1688,-247.7704 677.4697,-238.0315 697,-225.9905 704.1957,-221.5541 712.2853,-217.8683 720.4324,-214.8275"/>
<polygon fill="#191970" stroke="#191970" points="721.6537,-218.1088 729.9726,-211.5479 719.3779,-211.489 721.6537,-218.1088"/>
</g>
<!-- Node175 -->
<g id="node16" class="node">
<title>Node175</title>
<g id="a_node16"><a xlink:href="structchi_1_1NodeInstance.html#a8f64930fd9578431a11cad0702b4100c" target="_top" xlink:title="Get the containing GraphFunction. ">
<polygon fill="#ffffff" stroke="#000000" points="908,-233.9905 908,-263.9905 1009,-263.9905 1009,-233.9905 908,-233.9905"/>
<text text-anchor="start" x="916" y="-251.9905" font-family="Helvetica,sans-Serif" font-size="10.00" fill="#000000">chi::NodeInstance::</text>
<text text-anchor="middle" x="958.5" y="-240.9905" font-family="Helvetica,sans-Serif" font-size="10.00" fill="#000000">function</text>
</a>
</g>
</g>
<!-- Node171&#45;&gt;Node175 -->
<g id="edge32" class="edge">
<title>Node171&#45;&gt;Node175</title>
<path fill="none" stroke="#191970" d="M606.1236,-306.4017C625.8325,-294.0516 662.4443,-273.0951 697,-263.9905 764.13,-246.3033 844.1891,-244.3768 897.8849,-245.7036"/>
<polygon fill="#191970" stroke="#191970" points="897.8297,-249.2034 907.9278,-245.9973 898.0344,-242.2064 897.8297,-249.2034"/>
</g>
<!-- Node176 -->
<g id="node17" class="node">
<title>Node176</title>
<g id="a_node17"><a xlink:href="structchi_1_1NodeType.html#a7031e3c04e9a0227b09f8f854ce8b7f9" target="_top" xlink:title="Get the qualified name of the node type, like module.name():name() ">
<polygon fill="#ffffff" stroke="#000000" points="885,-306.4905 885,-325.4905 1032,-325.4905 1032,-306.4905 885,-306.4905"/>
<text text-anchor="middle" x="958.5" y="-313.4905" font-family="Helvetica,sans-Serif" font-size="10.00" fill="#000000">chi::NodeType::qualifiedName</text>
</a>
</g>
</g>
<!-- Node171&#45;&gt;Node176 -->
<g id="edge34" class="edge">
<title>Node171&#45;&gt;Node176</title>
<path fill="none" stroke="#191970" d="M636.5014,-315.9905C695.6395,-315.9905 800.661,-315.9905 874.6535,-315.9905"/>
<polygon fill="#191970" stroke="#191970" points="874.8802,-319.4906 884.8802,-315.9905 874.8801,-312.4906 874.8802,-319.4906"/>
</g>
<!-- Node181 -->
<g id="node22" class="node">
<title>Node181</title>
<g id="a_node22"><a xlink:href="structchi_1_1NodeType.html#ac99bef32e3e5e564119dbb8de69d2273" target="_top" xlink:title="Create the JSON necessary to store the object. ">
<polygon fill="#ffffff" stroke="#000000" points="898.5,-42.4905 898.5,-61.4905 1018.5,-61.4905 1018.5,-42.4905 898.5,-42.4905"/>
<text text-anchor="middle" x="958.5" y="-49.4905" font-family="Helvetica,sans-Serif" font-size="10.00" fill="#000000">chi::NodeType::toJSON</text>
</a>
</g>
</g>
<!-- Node171&#45;&gt;Node181 -->
<g id="edge35" class="edge">
<title>Node171&#45;&gt;Node181</title>
<path fill="none" stroke="#191970" d="M594.7982,-306.4508C608.2398,-268.115 659.9317,-126.0008 697,-97.9905 751.8168,-56.5687 831.4479,-47.7873 888.4157,-47.6795"/>
<polygon fill="#191970" stroke="#191970" points="888.3976,-51.1793 898.4216,-47.7487 888.446,-44.1795 888.3976,-51.1793"/>
</g>
<!-- Node183 -->
<g id="node24" class="node">
<title>Node183</title>
<g id="a_node24"><a xlink:href="structchi_1_1NodeInstance.html#a5d6678d5a90e6b1adb7dafb868b974b1" target="_top" xlink:title="Get the type of the instance. ">
<polygon fill="#ffffff" stroke="#000000" points="898.5,-382.4905 898.5,-401.4905 1018.5,-401.4905 1018.5,-382.4905 898.5,-382.4905"/>
<text text-anchor="middle" x="958.5" y="-389.4905" font-family="Helvetica,sans-Serif" font-size="10.00" fill="#000000">chi::NodeInstance::type</text>
</a>
</g>
</g>
<!-- Node171&#45;&gt;Node183 -->
<g id="edge36" class="edge">
<title>Node171&#45;&gt;Node183</title>
<path fill="none" stroke="#191970" d="M636.5014,-325.3096C703.5916,-339.2029 829.7344,-365.3251 902.6319,-380.4211"/>
<polygon fill="#191970" stroke="#191970" points="902.051,-383.875 912.553,-382.4756 903.4705,-377.0204 902.051,-383.875"/>
</g>
<!-- Node174&#45;&gt;Node161 -->
<g id="edge18" class="edge">
<title>Node174&#45;&gt;Node161</title>
<path fill="none" stroke="#191970" d="M776.4635,-211.5875C788.0789,-242.8631 828.1423,-343.6993 885,-410.9905 899.0265,-427.5909 918.6193,-442.4909 934.049,-452.8902"/>
<polygon fill="#191970" stroke="#191970" points="932.2949,-455.9251 942.5791,-458.4719 936.1278,-450.0677 932.2949,-455.9251"/>
</g>
<!-- Node174&#45;&gt;Node168 -->
<g id="edge31" class="edge">
<title>Node174&#45;&gt;Node168</title>
<path fill="none" stroke="#191970" d="M776.2598,-211.8096C787.2189,-244.9754 823.4768,-355.9666 849,-448.9905 867.0262,-514.6901 848.952,-540.1811 885,-597.9905 894.9752,-613.9875 910.5861,-627.8065 924.8599,-638.2271"/>
<polygon fill="#191970" stroke="#191970" points="922.8563,-641.0969 933.0568,-643.9606 926.8686,-635.3608 922.8563,-641.0969"/>
</g>
<!-- Node174&#45;&gt;Node170 -->
<g id="edge22" class="edge">
<title>Node174&#45;&gt;Node170</title>
<path fill="none" stroke="#191970" d="M757.1491,-211.6131C717.0855,-229.5389 608.781,-266.6471 522,-305.9905 502.9007,-314.6494 482.4607,-325.2022 464.6165,-334.3325"/>
<polygon fill="#191970" stroke="#191970" points="462.8611,-331.2988 455.5427,-338.9598 466.0412,-337.5347 462.8611,-331.2988"/>
</g>
<!-- Node174&#45;&gt;Node172 -->
<g id="edge19" class="edge">
<title>Node174&#45;&gt;Node172</title>
<path fill="none" stroke="#191970" d="M808.3278,-192.4682C838.1455,-184.431 881.0172,-172.8753 913.3265,-164.1666"/>
<polygon fill="#191970" stroke="#191970" points="914.2438,-167.5444 922.9883,-161.5624 912.422,-160.7856 914.2438,-167.5444"/>
</g>
<!-- Node174&#45;&gt;Node173 -->
<g id="edge20" class="edge">
<title>Node174&#45;&gt;Node173</title>
<path fill="none" stroke="#191970" d="M786.6318,-192.3435C807.2243,-178.0642 847.8158,-151.0488 885,-132.9905 895.6874,-127.8002 907.6442,-123.0069 918.7579,-118.9444"/>
<polygon fill="#191970" stroke="#191970" points="920.003,-122.2165 928.2544,-115.5709 917.6597,-115.6203 920.003,-122.2165"/>
</g>
<!-- Node174&#45;&gt;Node175 -->
<g id="edge21" class="edge">
<title>Node174&#45;&gt;Node175</title>
<path fill="none" stroke="#191970" d="M810.5387,-211.5016C835.5397,-217.8361 868.9557,-226.3027 897.7051,-233.5869"/>
<polygon fill="#191970" stroke="#191970" points="897.1047,-237.0453 907.658,-236.1087 898.824,-230.2597 897.1047,-237.0453"/>
</g>
<!-- Node174&#45;&gt;Node176 -->
<g id="edge23" class="edge">
<title>Node174&#45;&gt;Node176</title>
<path fill="none" stroke="#191970" d="M787.7506,-211.5773C809.0715,-225.3804 849.8067,-251.5501 885,-272.9905 900.8458,-282.644 918.8207,-293.1674 933.0284,-301.3874"/>
<polygon fill="#191970" stroke="#191970" points="931.3496,-304.4595 941.7607,-306.4243 934.8472,-298.3959 931.3496,-304.4595"/>
</g>
<!-- Node174&#45;&gt;Node180 -->
<g id="edge27" class="edge">
<title>Node174&#45;&gt;Node180</title>
<path fill="none" stroke="#191970" d="M824.6721,-201.4334C847.271,-201.1897 873.9472,-200.9021 897.5122,-200.648"/>
<polygon fill="#191970" stroke="#191970" points="897.7845,-204.1454 907.7462,-200.5377 897.709,-197.1458 897.7845,-204.1454"/>
</g>
<!-- Node174&#45;&gt;Node181 -->
<g id="edge28" class="edge">
<title>Node174&#45;&gt;Node181</title>
<path fill="none" stroke="#191970" d="M780.4789,-192.2284C797.2439,-170.861 839.9113,-119.283 885,-86.9905 896.7201,-78.5965 910.7691,-71.3351 923.4305,-65.6364"/>
<polygon fill="#191970" stroke="#191970" points="924.9932,-68.7739 932.7807,-61.5903 922.2131,-62.3496 924.9932,-68.7739"/>
</g>
<!-- Node174&#45;&gt;Node183 -->
<g id="edge30" class="edge">
<title>Node174&#45;&gt;Node183</title>
<path fill="none" stroke="#191970" d="M779.9776,-211.6088C796.7139,-234.3617 841.0232,-292.7496 885,-334.9905 900.9657,-350.326 920.9101,-365.5832 935.9931,-376.4479"/>
<polygon fill="#191970" stroke="#191970" points="934.0645,-379.3711 944.2451,-382.3048 938.116,-373.6627 934.0645,-379.3711"/>
</g>
<!-- Node177 -->
<g id="node18" class="node">
<title>Node177</title>
<g id="a_node18"><a xlink:href="structchi_1_1NodeType.html#a4fd551737d6b3bb4d6609f1ee8e054aa" target="_top" xlink:title="Get the ChiModule this NodeType belongs to. ">
<polygon fill="#ffffff" stroke="#000000" points="1072,-287.4905 1072,-306.4905 1189,-306.4905 1189,-287.4905 1072,-287.4905"/>
<text text-anchor="middle" x="1130.5" y="-294.4905" font-family="Helvetica,sans-Serif" font-size="10.00" fill="#000000">chi::NodeType::module</text>
</a>
</g>
</g>
<!-- Node176&#45;&gt;Node177 -->
<g id="edge24" class="edge">
<title>Node176&#45;&gt;Node177</title>
<path fill="none" stroke="#191970" d="M1032.4417,-307.8225C1042.2403,-306.7401 1052.252,-305.6342 1061.9542,-304.5624"/>
<polygon fill="#191970" stroke="#191970" points="1062.3759,-308.0372 1071.9311,-303.4603 1061.6072,-301.0795 1062.3759,-308.0372"/>
</g>
<!-- Node178 -->
<g id="node19" class="node">
<title>Node178</title>
<g id="a_node19"><a xlink:href="structchi_1_1ChiModule.html#a92ab6d528ac41a91b6ac21ededfccc38" target="_top" xlink:title="Get the full name of the module. ">
<polygon fill="#ffffff" stroke="#000000" points="1068,-170.4905 1068,-189.4905 1193,-189.4905 1193,-170.4905 1068,-170.4905"/>
<text text-anchor="middle" x="1130.5" y="-177.4905" font-family="Helvetica,sans-Serif" font-size="10.00" fill="#000000">chi::ChiModule::fullName</text>
</a>
</g>
</g>
<!-- Node176&#45;&gt;Node178 -->
<g id="edge25" class="edge">
<title>Node176&#45;&gt;Node178</title>
<path fill="none" stroke="#191970" d="M977.6685,-306.3295C992.9547,-298.2653 1014.608,-286.0213 1032,-272.9905 1063.5962,-249.3174 1096.1095,-216.7011 1114.7507,-197.05"/>
<polygon fill="#191970" stroke="#191970" points="1117.3358,-199.4101 1121.6271,-189.7232 1112.2316,-194.6197 1117.3358,-199.4101"/>
</g>
<!-- Node179 -->
<g id="node20" class="node">
<title>Node179</title>
<g id="a_node20"><a xlink:href="structchi_1_1NodeType.html#ad301375a4b84ddc699337e285ee78cc3" target="_top" xlink:title="Get the name of the NodeType in the ChiModule. ">
<polygon fill="#ffffff" stroke="#000000" points="1075.5,-325.4905 1075.5,-344.4905 1185.5,-344.4905 1185.5,-325.4905 1075.5,-325.4905"/>
<text text-anchor="middle" x="1130.5" y="-332.4905" font-family="Helvetica,sans-Serif" font-size="10.00" fill="#000000">chi::NodeType::name</text>
</a>
</g>
</g>
<!-- Node176&#45;&gt;Node179 -->
<g id="edge26" class="edge">
<title>Node176&#45;&gt;Node179</title>
<path fill="none" stroke="#191970" d="M1032.4417,-324.1585C1043.3436,-325.3627 1054.5092,-326.5961 1065.219,-327.7792"/>
<polygon fill="#191970" stroke="#191970" points="1065.0001,-331.2762 1075.324,-328.8954 1065.7688,-324.3185 1065.0001,-331.2762"/>
</g>
<!-- Node182 -->
<g id="node23" class="node">
<title>Node182</title>
<g id="a_node23"><a xlink:href="structchi_1_1NodeType.html#a9de5373607ac5fb322665c487010ecf2" target="_top" xlink:title="Clones the type. ">
<polygon fill="#ffffff" stroke="#000000" points="1076,-42.4905 1076,-61.4905 1185,-61.4905 1185,-42.4905 1076,-42.4905"/>
<text text-anchor="middle" x="1130.5" y="-49.4905" font-family="Helvetica,sans-Serif" font-size="10.00" fill="#000000">chi::NodeType::clone</text>
</a>
</g>
</g>
<!-- Node181&#45;&gt;Node182 -->
<g id="edge29" class="edge">
<title>Node181&#45;&gt;Node182</title>
<path fill="none" stroke="#191970" d="M1018.6573,-51.9905C1033.915,-51.9905 1050.3692,-51.9905 1065.8398,-51.9905"/>
<polygon fill="#191970" stroke="#191970" points="1065.8418,-55.4906 1075.8418,-51.9905 1065.8418,-48.4906 1065.8418,-55.4906"/>
</g>
<!-- Node184&#45;&gt;Node161 -->
<g id="edge39" class="edge">
<title>Node184&#45;&gt;Node161</title>
<path fill="none" stroke="#191970" d="M614.8963,-496.5648C635.9595,-504.6354 667.9743,-515.5568 697,-519.9905 763.781,-530.1912 783.0975,-534.8437 849,-519.9905 880.4753,-512.8965 913.5235,-495.6494 934.9719,-482.9544"/>
<polygon fill="#191970" stroke="#191970" points="936.9554,-485.8448 943.6891,-477.6652 933.3242,-479.8603 936.9554,-485.8448"/>
</g>
<!-- Node184&#45;&gt;Node168 -->
<g id="edge54" class="edge">
<title>Node184&#45;&gt;Node168</title>
<path fill="none" stroke="#191970" d="M593.7495,-496.5612C601.5873,-527.4512 630.8966,-624.6549 697,-661.9905 758.2544,-696.5873 841.1571,-688.2049 897.0624,-676.1963"/>
<polygon fill="#191970" stroke="#191970" points="897.8399,-679.609 906.8298,-674.0026 896.3058,-672.7791 897.8399,-679.609"/>
</g>
<!-- Node184&#45;&gt;Node170 -->
<g id="edge51" class="edge">
<title>Node184&#45;&gt;Node170</title>
<path fill="none" stroke="#191970" d="M573.017,-477.3949C540.4279,-455.937 472.8658,-405.1459 437.5754,-375.6932"/>
<polygon fill="#191970" stroke="#191970" points="439.6337,-372.8495 429.7447,-369.0471 435.1042,-378.1865 439.6337,-372.8495"/>
</g>
<!-- Node184&#45;&gt;Node175 -->
<g id="edge50" class="edge">
<title>Node184&#45;&gt;Node175</title>
<path fill="none" stroke="#191970" d="M597.8087,-477.3444C612.6992,-455.2121 652.1694,-400.1429 697,-366.9905 759.9012,-320.4748 844.0568,-286.6181 899.7064,-267.3971"/>
<polygon fill="#191970" stroke="#191970" points="901.0725,-270.6294 909.4112,-264.0936 898.8168,-264.0027 901.0725,-270.6294"/>
</g>
<!-- Node184&#45;&gt;Node176 -->
<g id="edge52" class="edge">
<title>Node184&#45;&gt;Node176</title>
<path fill="none" stroke="#191970" d="M612.0179,-477.4304C673.4353,-448.8135 856.0367,-363.7322 928.4395,-329.9969"/>
<polygon fill="#191970" stroke="#191970" points="930.3143,-332.9847 937.9004,-325.5886 927.3578,-326.6396 930.3143,-332.9847"/>
</g>
<!-- Node184&#45;&gt;Node183 -->
<g id="edge53" class="edge">
<title>Node184&#45;&gt;Node183</title>
<path fill="none" stroke="#191970" d="M632.2922,-496.5392C684.8004,-506.7437 777.7487,-517.6379 849,-486.9905 870.3713,-477.798 867.7577,-464.609 885,-448.9905 901.6074,-433.9471 921.8065,-418.4645 936.8239,-407.4389"/>
<polygon fill="#191970" stroke="#191970" points="938.967,-410.2081 945.0008,-401.4993 934.8531,-404.5446 938.967,-410.2081"/>
</g>
<!-- Node184&#45;&gt;Node185 -->
<g id="edge40" class="edge">
<title>Node184&#45;&gt;Node185</title>
<path fill="none" stroke="#191970" d="M637.7697,-482.1468C659.8254,-479.8379 686.5381,-477.0416 710.3772,-474.546"/>
<polygon fill="#191970" stroke="#191970" points="710.8148,-478.0194 720.3961,-473.4972 710.086,-471.0575 710.8148,-478.0194"/>
</g>
<!-- Node186 -->
<g id="node27" class="node">
<title>Node186</title>
<g id="a_node27"><a xlink:href="structchi_1_1NodeType.html#ad64eac82c28fd530c943a4605a76c4af" target="_top" xlink:title="Get the execution outputs for the node. ">
<polygon fill="#ffffff" stroke="#000000" points="888,-569.4905 888,-588.4905 1029,-588.4905 1029,-569.4905 888,-569.4905"/>
<text text-anchor="middle" x="958.5" y="-576.4905" font-family="Helvetica,sans-Serif" font-size="10.00" fill="#000000">chi::NodeType::execOutputs</text>
</a>
</g>
</g>
<!-- Node184&#45;&gt;Node186 -->
<g id="edge49" class="edge">
<title>Node184&#45;&gt;Node186</title>
<path fill="none" stroke="#191970" d="M594.5665,-496.5167C604.2168,-524.6851 636.9446,-607.5701 697,-638.9905 756.8581,-670.3077 783.5552,-655.7454 849,-638.9905 882.4424,-630.4287 916.6512,-609.3007 937.7315,-594.5538"/>
<polygon fill="#191970" stroke="#191970" points="939.8355,-597.3519 945.9217,-588.6796 935.7558,-591.6637 939.8355,-597.3519"/>
</g>
<!-- Node187 -->
<g id="node28" class="node">
<title>Node187</title>
<g id="a_node28"><a xlink:href="structchi_1_1NodeType.html#a436716b15e57346da8e824c157f926a5" target="_top" xlink:title="Get the execution inputs for the node. ">
<polygon fill="#ffffff" stroke="#000000" points="706,-610.4905 706,-629.4905 840,-629.4905 840,-610.4905 706,-610.4905"/>
<text text-anchor="middle" x="773" y="-617.4905" font-family="Helvetica,sans-Serif" font-size="10.00" fill="#000000">chi::NodeType::execInputs</text>
</a>
</g>
</g>
<!-- Node184&#45;&gt;Node187 -->
<g id="edge48" class="edge">
<title>Node184&#45;&gt;Node187</title>
<path fill="none" stroke="#191970" d="M598.2321,-496.6961C613.4004,-517.8518 652.4249,-568.4279 697,-595.9905 704.1899,-600.4363 712.2765,-604.127 720.4223,-607.1698"/>
<polygon fill="#191970" stroke="#191970" points="719.3671,-610.508 729.9618,-610.4506 721.6437,-603.8886 719.3671,-610.508"/>
</g>
<!-- Node185&#45;&gt;Node161 -->
<g id="edge41" class="edge">
<title>Node185&#45;&gt;Node161</title>
<path fill="none" stroke="#191970" d="M825.6607,-467.9905C847.0247,-467.9905 871.9027,-467.9905 894.3148,-467.9905"/>
<polygon fill="#191970" stroke="#191970" points="894.4173,-471.4906 904.4173,-467.9905 894.4172,-464.4906 894.4173,-471.4906"/>
</g>
<!-- Node185&#45;&gt;Node168 -->
<g id="edge47" class="edge">
<title>Node185&#45;&gt;Node168</title>
<path fill="none" stroke="#191970" d="M788.23,-477.6869C804.7643,-488.7871 831.1873,-508.2624 849,-529.9905 870.68,-556.4359 863.4317,-571.4539 885,-597.9905 897.2403,-613.0503 913.6499,-627.0892 927.8587,-637.8932"/>
<polygon fill="#191970" stroke="#191970" points="925.8027,-640.7259 935.9222,-643.8639 929.9684,-635.1002 925.8027,-640.7259"/>
</g>
<!-- Node185&#45;&gt;Node170 -->
<g id="edge43" class="edge">
<title>Node185&#45;&gt;Node170</title>
<path fill="none" stroke="#191970" d="M720.2526,-460.2569C712.4547,-457.8905 704.5172,-455.3769 697,-452.9905 610.5399,-425.5421 509.2412,-393.1577 454.6713,-372.7433"/>
<polygon fill="#191970" stroke="#191970" points="455.6307,-369.3635 445.0398,-369.0747 453.139,-375.905 455.6307,-369.3635"/>
</g>
<!-- Node185&#45;&gt;Node176 -->
<g id="edge44" class="edge">
<title>Node185&#45;&gt;Node176</title>
<path fill="none" stroke="#191970" d="M785.2883,-458.3241C800.4658,-446.3034 826.9774,-425.0394 849,-405.9905 865.4161,-391.7911 868.4101,-386.9864 885,-372.9905 902.2302,-358.4544 922.5254,-342.8217 937.419,-331.611"/>
<polygon fill="#191970" stroke="#191970" points="939.591,-334.3571 945.4999,-325.563 935.3966,-328.7529 939.591,-334.3571"/>
</g>
<!-- Node185&#45;&gt;Node180 -->
<g id="edge45" class="edge">
<title>Node185&#45;&gt;Node180</title>
<path fill="none" stroke="#191970" d="M774.5673,-458.4295C781.0093,-422.1903 808.8015,-291.9137 885,-223.9905 889.0708,-220.3618 893.7005,-217.2804 898.6092,-214.664"/>
<polygon fill="#191970" stroke="#191970" points="900.0971,-217.8321 907.6859,-210.4388 897.1429,-211.486 900.0971,-217.8321"/>
</g>
<!-- Node185&#45;&gt;Node183 -->
<g id="edge46" class="edge">
<title>Node185&#45;&gt;Node183</title>
<path fill="none" stroke="#191970" d="M796.4937,-458.365C829.2484,-444.9453 888.7761,-420.5566 925.8354,-405.3733"/>
<polygon fill="#191970" stroke="#191970" points="927.2705,-408.5677 935.1971,-401.5378 924.6166,-402.0903 927.2705,-408.5677"/>
</g>
<!-- Node185&#45;&gt;Node186 -->
<g id="edge42" class="edge">
<title>Node185&#45;&gt;Node186</title>
<path fill="none" stroke="#191970" d="M789.1374,-477.6468C821.5602,-497.048 894.8082,-540.8784 933.4887,-564.0241"/>
<polygon fill="#191970" stroke="#191970" points="932.1538,-567.3041 942.532,-569.4355 935.7481,-561.2973 932.1538,-567.3041"/>
</g>
<!-- Node188&#45;&gt;Node178 -->
<g id="edge63" class="edge">
<title>Node188&#45;&gt;Node178</title>
<path fill="none" stroke="#191970" d="M277.3058,-87.9637C338.6272,-62.1171 472.8485,-11.9905 591.5,-11.9905 591.5,-11.9905 591.5,-11.9905 773,-11.9905 888.4889,-11.9905 932.3947,25.4601 1032,-32.9905 1057.7926,-48.1261 1101.326,-125.2649 1120.6968,-161.342"/>
<polygon fill="#191970" stroke="#191970" points="1117.6985,-163.1582 1125.4848,-170.3431 1123.8785,-159.8707 1117.6985,-163.1582"/>
</g>
<!-- Node189 -->
<g id="node30" class="node">
<title>Node189</title>
<g id="a_node30"><a xlink:href="structchi_1_1ChiModule.html#a5c28c9fe74ad3cb704b613843b267512" target="_top" xlink:title="Get the Context that this module belongs to. ">
<polygon fill="#ffffff" stroke="#000000" points="355.5,-75.4905 355.5,-94.4905 474.5,-94.4905 474.5,-75.4905 355.5,-75.4905"/>
<text text-anchor="middle" x="415" y="-82.4905" font-family="Helvetica,sans-Serif" font-size="10.00" fill="#000000">chi::ChiModule::context</text>
</a>
</g>
</g>
<!-- Node188&#45;&gt;Node189 -->
<g id="edge59" class="edge">
<title>Node188&#45;&gt;Node189</title>
<path fill="none" stroke="#191970" d="M307.8482,-96.2367C320.026,-94.9586 332.8191,-93.6159 345.1568,-92.321"/>
<polygon fill="#191970" stroke="#191970" points="345.81,-95.7717 355.39,-91.2469 345.0792,-88.81 345.81,-95.7717"/>
</g>
<!-- Node192 -->
<g id="node33" class="node">
<title>Node192</title>
<g id="a_node33"><a xlink:href="structchi_1_1Context.html#a24fd4f52e8cc081116a45de3a698d846" target="_top" xlink:title="Get the workspace path of the Context. ">
<polygon fill="#ffffff" stroke="#000000" points="344,-113.4905 344,-132.4905 486,-132.4905 486,-113.4905 344,-113.4905"/>
<text text-anchor="middle" x="415" y="-120.4905" font-family="Helvetica,sans-Serif" font-size="10.00" fill="#000000">chi::Context::workspacePath</text>
</a>
</g>
</g>
<!-- Node188&#45;&gt;Node192 -->
<g id="edge62" class="edge">
<title>Node188&#45;&gt;Node192</title>
<path fill="none" stroke="#191970" d="M307.8482,-110.4946C316.3192,-111.4825 325.0879,-112.5051 333.794,-113.5204"/>
<polygon fill="#191970" stroke="#191970" points="333.6257,-117.0244 343.9638,-114.7064 334.4366,-110.0715 333.6257,-117.0244"/>
</g>
<!-- Node190 -->
<g id="node31" class="node">
<title>Node190</title>
<g id="a_node31"><a xlink:href="structchi_1_1ChiModule.html#a653e3aed05912857334655e06937b28d" target="_top" xlink:title="Adds forward declartions for the functions in this module. ">
<polygon fill="#ffffff" stroke="#000000" points="523,-97.9905 523,-127.9905 660,-127.9905 660,-97.9905 523,-97.9905"/>
<text text-anchor="start" x="531" y="-115.9905" font-family="Helvetica,sans-Serif" font-size="10.00" fill="#000000">chi::ChiModule::addForward</text>
<text text-anchor="middle" x="591.5" y="-104.9905" font-family="Helvetica,sans-Serif" font-size="10.00" fill="#000000">Declarations</text>
</a>
</g>
</g>
<!-- Node189&#45;&gt;Node190 -->
<g id="edge60" class="edge">
<title>Node189&#45;&gt;Node190</title>
<path fill="none" stroke="#191970" d="M474.7548,-94.47C486.9863,-96.4104 500.0358,-98.4806 512.8146,-100.5078"/>
<polygon fill="#191970" stroke="#191970" points="512.5593,-104.011 522.9842,-102.1211 513.6561,-97.0974 512.5593,-104.011"/>
</g>
<!-- Node191 -->
<g id="node32" class="node">
<title>Node191</title>
<g id="a_node32"><a xlink:href="structchi_1_1ChiModule.html#a987c71edb997c5f041f69622cb0c86fe" target="_top" xlink:title="Generate a llvm::Module from the module. ">
<polygon fill="#ffffff" stroke="#000000" points="529,-48.9905 529,-78.9905 654,-78.9905 654,-48.9905 529,-48.9905"/>
<text text-anchor="start" x="537" y="-66.9905" font-family="Helvetica,sans-Serif" font-size="10.00" fill="#000000">chi::ChiModule::generate</text>
<text text-anchor="middle" x="591.5" y="-55.9905" font-family="Helvetica,sans-Serif" font-size="10.00" fill="#000000">Module</text>
</a>
</g>
</g>
<!-- Node189&#45;&gt;Node191 -->
<g id="edge61" class="edge">
<title>Node189&#45;&gt;Node191</title>
<path fill="none" stroke="#191970" d="M474.7548,-77.8808C488.8935,-76.1986 504.1252,-74.3863 518.7684,-72.6441"/>
<polygon fill="#191970" stroke="#191970" points="519.2749,-76.1086 528.7913,-71.4516 518.4478,-69.1576 519.2749,-76.1086"/>
</g>
</g>
</svg>
        <g id="navigator" transform="translate(0 0)" fill="#404254">
                <rect fill="#f2f5e9" fill-opacity="0.5" stroke="#606060" stroke-width=".5" x="0" y="0" width="60" height="60"/>
                <use id="zoomplus" xlink:href="#zoomPlus" x="17" y="9" onmousedown="handleZoom(evt,'in')"/>
                <use id="zoomminus" xlink:href="#zoomMin" x="42" y="9" onmousedown="handleZoom(evt,'out')"/>
                <use id="reset" xlink:href="#resetDef" x="30" y="36" onmousedown="handleReset()"/>
                <g id="arrowUp" xlink:href="#dirArrow" transform="translate(30 24)" onmousedown="handlePan(0,-1)">
                  <use xlink:href="#rim" fill="#404040">
                        <set attributeName="fill" to="#808080" begin="arrowUp.mouseover" end="arrowUp.mouseout"/>
                  </use>
                  <path fill="none" stroke="white" stroke-width="1.5" d="M0,-3.0v7 M-2.5,-0.5L0,-3.0L2.5,-0.5"/>
                </g>
                <g id="arrowRight" xlink:href="#dirArrow" transform="rotate(90) translate(36 -43)" onmousedown="handlePan(1,0)">
                  <use xlink:href="#rim" fill="#404040">
                        <set attributeName="fill" to="#808080" begin="arrowRight.mouseover" end="arrowRight.mouseout"/>
                  </use>
                  <path fill="none" stroke="white" stroke-width="1.5" d="M0,-3.0v7 M-2.5,-0.5L0,-3.0L2.5,-0.5"/>
                </g>
                <g id="arrowDown" xlink:href="#dirArrow" transform="rotate(180) translate(-30 -48)" onmousedown="handlePan(0,1)">
                  <use xlink:href="#rim" fill="#404040">
                        <set attributeName="fill" to="#808080" begin="arrowDown.mouseover" end="arrowDown.mouseout"/>
                  </use>
                  <path fill="none" stroke="white" stroke-width="1.5" d="M0,-3.0v7 M-2.5,-0.5L0,-3.0L2.5,-0.5"/>
                </g>
                <g id="arrowLeft" xlink:href="#dirArrow" transform="rotate(270) translate(-36 17)" onmousedown="handlePan(-1,0)">
                  <use xlink:href="#rim" fill="#404040">
                        <set attributeName="fill" to="#808080" begin="arrowLeft.mouseover" end="arrowLeft.mouseout"/>
                  </use>
                  <path fill="none" stroke="white" stroke-width="1.5" d="M0,-3.0v7 M-2.5,-0.5L0,-3.0L2.5,-0.5"/>
                </g>
        </g>
        <svg viewBox="0 0 15 15" width="100%" height="30px" preserveAspectRatio="xMaxYMin meet">
         <g id="arrow_out" transform="scale(0.3 0.3)">
          <a xlink:href="classchi_1_1Debugger_a91a4d103d38bb2b1132ec7f83f4d77e2_cgraph_org.svg" target="_base">
           <rect id="button" ry="5" rx="5" y="6" x="6" height="38" width="38"
                fill="#f2f5e9" fill-opacity="0.5" stroke="#606060" stroke-width="1.0"/>
           <path id="arrow"
             d="M 11.500037,31.436501 C 11.940474,20.09759 22.043105,11.32322 32.158766,21.979434 L 37.068811,17.246167 C 37.068811,17.246167 37.088388,32 37.088388,32 L 22.160133,31.978069 C 22.160133,31.978069 26.997745,27.140456 26.997745,27.140456 C 18.528582,18.264221 13.291696,25.230495 11.500037,31.436501 z"
             style="fill:#404040;"/>
          </a>
         </g>
        </svg>
</svg>
