<?xml version="1.0" encoding="UTF-8" standalone="no"?>
<!DOCTYPE svg PUBLIC "-//W3C//DTD SVG 1.1//EN"
 "http://www.w3.org/Graphics/SVG/1.1/DTD/svg11.dtd">
<!-- Generated by graphviz version 2.40.1 (20161225.0304)
 -->
<!-- Title: chi::Debugger::start Pages: 1 -->
<svg width="640pt" height="165pt"
 viewBox="0.00 0.00 640.00 164.50" xmlns="http://www.w3.org/2000/svg" xmlns:xlink="http://www.w3.org/1999/xlink">
<g id="graph0" class="graph" transform="scale(1 1) rotate(0) translate(4 160.5)">
<title>chi::Debugger::start</title>
<polygon fill="#ffffff" stroke="transparent" points="-4,4 -4,-160.5 636,-160.5 636,4 -4,4"/>
<!-- Node195 -->
<g id="node1" class="node">
<title>Node195</title>
<polygon fill="#bfbfbf" stroke="#000000" points="0,-80 0,-99 102,-99 102,-80 0,-80"/>
<text text-anchor="middle" x="51" y="-87" font-family="Helvetica,sans-Serif" font-size="10.00" fill="#000000">chi::Debugger::start</text>
</g>
<!-- Node196 -->
<g id="node2" class="node">
<title>Node196</title>
<g id="a_node2"><a xlink:href="structchi_1_1Result.html#a59ef40f4a327cbdea263d6e4b5af2ad8" target="_top" xlink:title="Add a entry to the result, either a warning or an error. ">
<polygon fill="#ffffff" stroke="#000000" points="340,-137 340,-156 448,-156 448,-137 340,-137"/>
<text text-anchor="middle" x="394" y="-144" font-family="Helvetica,sans-Serif" font-size="10.00" fill="#000000">chi::Result::addEntry</text>
</a>
</g>
</g>
<!-- Node195&#45;&gt;Node196 -->
<g id="edge1" class="edge">
<title>Node195&#45;&gt;Node196</title>
<path fill="none" stroke="#191970" d="M68.0503,-99.0173C85.1627,-108.0637 112.5631,-121.1957 138,-127.5 201.873,-143.3303 277.2299,-147.2202 329.5741,-147.6774"/>
<polygon fill="#191970" stroke="#191970" points="329.7094,-151.1779 339.7259,-147.7255 329.7427,-144.178 329.7094,-151.1779"/>
</g>
<!-- Node198 -->
<g id="node4" class="node">
<title>Node198</title>
<g id="a_node4"><a xlink:href="structchi_1_1Context.html#a43685d443899a5d086a3e89265e99cf6" target="_top" xlink:title="Compile a module to a llvm::Module. ">
<polygon fill="#ffffff" stroke="#000000" points="138,-99 138,-118 278,-118 278,-99 138,-99"/>
<text text-anchor="middle" x="208" y="-106" font-family="Helvetica,sans-Serif" font-size="10.00" fill="#000000">chi::Context::compileModule</text>
</a>
</g>
</g>
<!-- Node195&#45;&gt;Node198 -->
<g id="edge3" class="edge">
<title>Node195&#45;&gt;Node198</title>
<path fill="none" stroke="#191970" d="M102.4077,-95.7213C110.5709,-96.7092 119.1796,-97.751 127.8156,-98.7962"/>
<polygon fill="#191970" stroke="#191970" points="127.5927,-102.2946 137.9408,-100.0215 128.4338,-95.3453 127.5927,-102.2946"/>
</g>
<!-- Node200 -->
<g id="node6" class="node">
<title>Node200</title>
<g id="a_node6"><a xlink:href="structchi_1_1ChiModule.html#a5c28c9fe74ad3cb704b613843b267512" target="_top" xlink:title="Get the Context that this module belongs to. ">
<polygon fill="#ffffff" stroke="#000000" points="148.5,-58 148.5,-77 267.5,-77 267.5,-58 148.5,-58"/>
<text text-anchor="middle" x="208" y="-65" font-family="Helvetica,sans-Serif" font-size="10.00" fill="#000000">chi::ChiModule::context</text>
</a>
</g>
</g>
<!-- Node195&#45;&gt;Node200 -->
<g id="edge6" class="edge">
<title>Node195&#45;&gt;Node200</title>
<path fill="none" stroke="#191970" d="M102.4077,-82.2964C113.8658,-80.6908 126.2017,-78.9622 138.2585,-77.2727"/>
<polygon fill="#191970" stroke="#191970" points="138.8777,-80.7202 148.2952,-75.8663 137.9062,-73.7879 138.8777,-80.7202"/>
</g>
<!-- Node203 -->
<g id="node9" class="node">
<title>Node203</title>
<g id="a_node9"><a xlink:href="classchi_1_1Debugger.html#aeec97926d904907c3f2513a822a31696" target="_top" xlink:title="Get the module that&#39;s being debugged by this debugger. ">
<polygon fill="#ffffff" stroke="#000000" points="151,-20 151,-39 265,-39 265,-20 151,-20"/>
<text text-anchor="middle" x="208" y="-27" font-family="Helvetica,sans-Serif" font-size="10.00" fill="#000000">chi::Debugger::module</text>
</a>
</g>
</g>
<!-- Node195&#45;&gt;Node203 -->
<g id="edge9" class="edge">
<title>Node195&#45;&gt;Node203</title>
<path fill="none" stroke="#191970" d="M68.9324,-79.9106C86.2507,-70.9249 113.399,-57.556 138,-48.5 144.4312,-46.1326 151.2915,-43.9131 158.1078,-41.8856"/>
<polygon fill="#191970" stroke="#191970" points="159.354,-45.1697 168.008,-39.0576 157.4312,-38.4389 159.354,-45.1697"/>
</g>
<!-- Node197 -->
<g id="node3" class="node">
<title>Node197</title>
<g id="a_node3"><a xlink:href="structchi_1_1Result.html#aa078d3cb3dfb2fb63e81b71acea036e0" target="_top" xlink:title="Get the JSON associated with the context that&#39;s been added. ">
<polygon fill="#ffffff" stroke="#000000" points="510,-137 510,-156 632,-156 632,-137 510,-137"/>
<text text-anchor="middle" x="571" y="-144" font-family="Helvetica,sans-Serif" font-size="10.00" fill="#000000">chi::Result::contextJson</text>
</a>
</g>
</g>
<!-- Node196&#45;&gt;Node197 -->
<g id="edge2" class="edge">
<title>Node196&#45;&gt;Node197</title>
<path fill="none" stroke="#191970" d="M448.0676,-146.5C464.3848,-146.5 482.5522,-146.5 499.8063,-146.5"/>
<polygon fill="#191970" stroke="#191970" points="499.8388,-150.0001 509.8388,-146.5 499.8388,-143.0001 499.8388,-150.0001"/>
</g>
<!-- Node198&#45;&gt;Node196 -->
<g id="edge4" class="edge">
<title>Node198&#45;&gt;Node196</title>
<path fill="none" stroke="#191970" d="M254.9357,-118.089C280.0332,-123.2165 311.1186,-129.5672 337.5304,-134.9632"/>
<polygon fill="#191970" stroke="#191970" points="336.9036,-138.4074 347.4019,-136.9799 338.3048,-131.549 336.9036,-138.4074"/>
</g>
<!-- Node199 -->
<g id="node5" class="node">
<title>Node199</title>
<g id="a_node5"><a xlink:href="structchi_1_1Context.html#a8628a178e0a8a944065f2605d01a36d5" target="_top" xlink:title="Gets the module by the full name. ">
<polygon fill="#ffffff" stroke="#000000" points="314,-99 314,-118 474,-118 474,-99 314,-99"/>
<text text-anchor="middle" x="394" y="-106" font-family="Helvetica,sans-Serif" font-size="10.00" fill="#000000">chi::Context::moduleByFullName</text>
</a>
</g>
</g>
<!-- Node198&#45;&gt;Node199 -->
<g id="edge5" class="edge">
<title>Node198&#45;&gt;Node199</title>
<path fill="none" stroke="#191970" d="M278.0536,-108.5C286.4174,-108.5 295.0454,-108.5 303.6432,-108.5"/>
<polygon fill="#191970" stroke="#191970" points="303.7048,-112.0001 313.7048,-108.5 303.7048,-105.0001 303.7048,-112.0001"/>
</g>
<!-- Node201 -->
<g id="node7" class="node">
<title>Node201</title>
<g id="a_node7"><a xlink:href="structchi_1_1ChiModule.html#a653e3aed05912857334655e06937b28d" target="_top" xlink:title="Adds forward declartions for the functions in this module. ">
<polygon fill="#ffffff" stroke="#000000" points="325.5,-49.5 325.5,-79.5 462.5,-79.5 462.5,-49.5 325.5,-49.5"/>
<text text-anchor="start" x="333.5" y="-67.5" font-family="Helvetica,sans-Serif" font-size="10.00" fill="#000000">chi::ChiModule::addForward</text>
<text text-anchor="middle" x="394" y="-56.5" font-family="Helvetica,sans-Serif" font-size="10.00" fill="#000000">Declarations</text>
</a>
</g>
</g>
<!-- Node200&#45;&gt;Node201 -->
<g id="edge7" class="edge">
<title>Node200&#45;&gt;Node201</title>
<path fill="none" stroke="#191970" d="M267.619,-66.5384C282.6986,-66.2952 299.1282,-66.0302 315.0009,-65.7742"/>
<polygon fill="#191970" stroke="#191970" points="315.3891,-69.2685 325.3313,-65.6076 315.2761,-62.2694 315.3891,-69.2685"/>
</g>
<!-- Node202 -->
<g id="node8" class="node">
<title>Node202</title>
<g id="a_node8"><a xlink:href="structchi_1_1ChiModule.html#a987c71edb997c5f041f69622cb0c86fe" target="_top" xlink:title="Generate a llvm::Module from the module. ">
<polygon fill="#ffffff" stroke="#000000" points="331.5,-.5 331.5,-30.5 456.5,-30.5 456.5,-.5 331.5,-.5"/>
<text text-anchor="start" x="339.5" y="-18.5" font-family="Helvetica,sans-Serif" font-size="10.00" fill="#000000">chi::ChiModule::generate</text>
<text text-anchor="middle" x="394" y="-7.5" font-family="Helvetica,sans-Serif" font-size="10.00" fill="#000000">Module</text>
</a>
</g>
</g>
<!-- Node200&#45;&gt;Node202 -->
<g id="edge8" class="edge">
<title>Node200&#45;&gt;Node202</title>
<path fill="none" stroke="#191970" d="M243.6337,-57.9176C254.6582,-54.9288 266.838,-51.6024 278,-48.5 295.4538,-43.6488 314.3597,-38.3074 331.7425,-33.3612"/>
<polygon fill="#191970" stroke="#191970" points="333.1208,-36.6079 341.7788,-30.5013 331.2025,-29.8758 333.1208,-36.6079"/>
</g>
</g>
</svg>
