<?xml version="1.0" encoding="UTF-8" standalone="no"?>
<!DOCTYPE svg PUBLIC "-//W3C//DTD SVG 1.1//EN"
 "http://www.w3.org/Graphics/SVG/1.1/DTD/svg11.dtd">
<!-- Generated by graphviz version 2.40.1 (20161225.0304)
 -->
<!-- Title: chi::Debugger::setBreakpoint Pages: 1 -->
<!--zoomable 704 -->
<svg id="main" version="1.1" xmlns="http://www.w3.org/2000/svg" xmlns:xlink="http://www.w3.org/1999/xlink" xml:space="preserve" onload="init(evt)">
<style type="text/css"><![CDATA[
.edge:hover path { stroke: red; }
.edge:hover polygon { stroke: red; fill: red; }
]]></style>
<script type="text/javascript"><![CDATA[
var edges = document.getElementsByTagName('g');
if (edges && edges.length) {
  for (var i=0;i<edges.length;i++) {
    if (edges[i].id.substr(0,4)=='edge') {
      edges[i].setAttribute('class','edge');
    }
  }
}
]]></script>
        <defs>
                <circle id="rim" cx="0" cy="0" r="7"/>
                <circle id="rim2" cx="0" cy="0" r="3.5"/>
                <g id="zoomPlus">
                        <use xlink:href="#rim" fill="#404040">
                                <set attributeName="fill" to="#808080" begin="zoomplus.mouseover" end="zoomplus.mouseout"/>
                        </use>
                        <path d="M-4,0h8M0,-4v8" fill="none" stroke="white" stroke-width="1.5" pointer-events="none"/>
                </g>
                <g id="zoomMin">
                        <use xlink:href="#rim" fill="#404040">
                                <set attributeName="fill" to="#808080" begin="zoomminus.mouseover" end="zoomminus.mouseout"/>
                        </use>
                        <path d="M-4,0h8" fill="none" stroke="white" stroke-width="1.5" pointer-events="none"/>
                </g>
                <g id="dirArrow">
                        <path fill="none" stroke="white" stroke-width="1.5" d="M0,-3.0v7 M-2.5,-0.5L0,-3.0L2.5,-0.5"/>
                </g>
               <g id="resetDef">
                       <use xlink:href="#rim2" fill="#404040">
                               <set attributeName="fill" to="#808080" begin="reset.mouseover" end="reset.mouseout"/>
                       </use>
               </g>
        </defs>

<script type="text/javascript">
var viewWidth = 1007;
var viewHeight = 704;
var sectionId = 'dynsection-14';
</script>
<script xlink:href="svgpan.js"/>
<svg id="graph" class="graph">
<g id="viewport">
<title>chi::Debugger::setBreakpoint</title>
<polygon fill="#ffffff" stroke="transparent" points="-4,4 -4,-700.3294 1003,-700.3294 1003,4 -4,4"/>
<!-- Node150 -->
<g id="node1" class="node">
<title>Node150</title>
<polygon fill="#bfbfbf" stroke="#000000" points="0,-234 0,-253 143,-253 143,-234 0,-234"/>
<text text-anchor="middle" x="71.5" y="-241" font-family="Helvetica,sans-Serif" font-size="10.00" fill="#000000">chi::Debugger::setBreakpoint</text>
</g>
<!-- Node151 -->
<g id="node2" class="node">
<title>Node151</title>
<g id="a_node2"><a xlink:href="structchi_1_1Result.html#a59ef40f4a327cbdea263d6e4b5af2ad8" target="_top" xlink:title="Add a entry to the result, either a warning or an error. ">
<polygon fill="#ffffff" stroke="#000000" points="710.5,-538 710.5,-557 818.5,-557 818.5,-538 710.5,-538"/>
<text text-anchor="middle" x="764.5" y="-545" font-family="Helvetica,sans-Serif" font-size="10.00" fill="#000000">chi::Result::addEntry</text>
</a>
</g>
</g>
<!-- Node150&#45;&gt;Node151 -->
<g id="edge1" class="edge">
<title>Node150&#45;&gt;Node151</title>
<path fill="none" stroke="#191970" d="M76.3467,-253.0613C106.6346,-311.4384 276.5697,-619.3546 521,-680.5 578.7753,-694.9528 601.1425,-705.921 655,-680.5 668.1593,-674.2888 724.5907,-600.6612 750.8992,-565.7056"/>
<polygon fill="#191970" stroke="#191970" points="753.9764,-567.4361 757.1781,-557.3366 748.3771,-563.2352 753.9764,-567.4361"/>
</g>
<!-- Node152 -->
<g id="node3" class="node">
<title>Node152</title>
<g id="a_node3"><a xlink:href="structchi_1_1NodeInstance.html#a72d113cfee45f4017adf28b034c6f215" target="_top" xlink:title="Get the containing GraphModule. ">
<polygon fill="#ffffff" stroke="#000000" points="192.5,-304.5 192.5,-334.5 293.5,-334.5 293.5,-304.5 192.5,-304.5"/>
<text text-anchor="start" x="200.5" y="-322.5" font-family="Helvetica,sans-Serif" font-size="10.00" fill="#000000">chi::NodeInstance::</text>
<text text-anchor="middle" x="243" y="-311.5" font-family="Helvetica,sans-Serif" font-size="10.00" fill="#000000">module</text>
</a>
</g>
</g>
<!-- Node150&#45;&gt;Node152 -->
<g id="edge2" class="edge">
<title>Node150&#45;&gt;Node152</title>
<path fill="none" stroke="#191970" d="M93.2206,-253.1255C119.9141,-264.9547 165.8404,-285.3068 199.8186,-300.3642"/>
<polygon fill="#191970" stroke="#191970" points="198.4989,-303.6076 209.0595,-304.4593 201.335,-297.2079 198.4989,-303.6076"/>
</g>
<!-- Node162 -->
<g id="node13" class="node">
<title>Node162</title>
<g id="a_node13"><a xlink:href="structchi_1_1NodeInstance.html#a993d848a1b95077007e232d177f58308" target="_top" xlink:title="Get the ID as a string. ">
<polygon fill="#ffffff" stroke="#000000" points="714,-272.5 714,-302.5 815,-302.5 815,-272.5 714,-272.5"/>
<text text-anchor="start" x="722" y="-290.5" font-family="Helvetica,sans-Serif" font-size="10.00" fill="#000000">chi::NodeInstance::</text>
<text text-anchor="middle" x="764.5" y="-279.5" font-family="Helvetica,sans-Serif" font-size="10.00" fill="#000000">stringId</text>
</a>
</g>
</g>
<!-- Node150&#45;&gt;Node162 -->
<g id="edge44" class="edge">
<title>Node150&#45;&gt;Node162</title>
<path fill="none" stroke="#191970" d="M143.2654,-241.4281C253.7162,-239.2309 471.8022,-238.8274 655,-262.5 670.9432,-264.5602 687.9738,-267.8861 703.738,-271.449"/>
<polygon fill="#191970" stroke="#191970" points="703.357,-274.9538 713.8903,-273.8135 704.9449,-268.1363 703.357,-274.9538"/>
</g>
<!-- Node170 -->
<g id="node21" class="node">
<title>Node170</title>
<g id="a_node21"><a xlink:href="structchi_1_1GraphModule.html#a1c1a23b9aa7967948e97dc9650099188" target="_top" xlink:title="Get the path to the source file It&#39;s not garunteed to exist, because it could have not been saved...">
<polygon fill="#ffffff" stroke="#000000" points="179,-57.5 179,-87.5 307,-87.5 307,-57.5 179,-57.5"/>
<text text-anchor="start" x="187" y="-75.5" font-family="Helvetica,sans-Serif" font-size="10.00" fill="#000000">chi::GraphModule::source</text>
<text text-anchor="middle" x="243" y="-64.5" font-family="Helvetica,sans-Serif" font-size="10.00" fill="#000000">FilePath</text>
</a>
</g>
</g>
<!-- Node150&#45;&gt;Node170 -->
<g id="edge39" class="edge">
<title>Node150&#45;&gt;Node170</title>
<path fill="none" stroke="#191970" d="M81.212,-233.8163C107.8056,-207.3002 182.343,-132.9801 220.2479,-95.1858"/>
<polygon fill="#191970" stroke="#191970" points="223.1398,-97.2449 227.7499,-87.7056 218.1972,-92.2879 223.1398,-97.2449"/>
</g>
<!-- Node153 -->
<g id="node4" class="node">
<title>Node153</title>
<g id="a_node4"><a xlink:href="namespacechi.html#ab69b013712d615bf9901d7bf2b0b11fb" target="_top" xlink:title="Connects two nodes&#39; data connections. ">
<polygon fill="#ffffff" stroke="#000000" points="369,-310 369,-329 459,-329 459,-310 369,-310"/>
<text text-anchor="middle" x="414" y="-317" font-family="Helvetica,sans-Serif" font-size="10.00" fill="#000000">chi::connectData</text>
</a>
</g>
</g>
<!-- Node152&#45;&gt;Node153 -->
<g id="edge3" class="edge">
<title>Node152&#45;&gt;Node153</title>
<path fill="none" stroke="#191970" d="M293.8427,-319.5C314.3171,-319.5 337.9832,-319.5 358.8702,-319.5"/>
<polygon fill="#191970" stroke="#191970" points="358.8743,-323.0001 368.8743,-319.5 358.8743,-316.0001 358.8743,-323.0001"/>
</g>
<!-- Node156 -->
<g id="node7" class="node">
<title>Node156</title>
<g id="a_node7"><a xlink:href="namespacechi.html#a4694f9910cf90fd7c202fe117c4f257e" target="_top" xlink:title="Disconnect a data connection. ">
<polygon fill="#ffffff" stroke="#000000" points="536.5,-272 536.5,-291 639.5,-291 639.5,-272 536.5,-272"/>
<text text-anchor="middle" x="588" y="-279" font-family="Helvetica,sans-Serif" font-size="10.00" fill="#000000">chi::disconnectData</text>
</a>
</g>
</g>
<!-- Node152&#45;&gt;Node156 -->
<g id="edge37" class="edge">
<title>Node152&#45;&gt;Node156</title>
<path fill="none" stroke="#191970" d="M293.6964,-308.7439C309.4372,-305.7075 326.8847,-302.6492 343,-300.5 404.9834,-292.2338 476.3048,-287.2048 525.9517,-284.4158"/>
<polygon fill="#191970" stroke="#191970" points="526.4121,-287.8959 536.2057,-283.8543 526.0293,-280.9064 526.4121,-287.8959"/>
</g>
<!-- Node166 -->
<g id="node17" class="node">
<title>Node166</title>
<g id="a_node17"><a xlink:href="namespacechi.html#a79423caa23a58e57b775c5137a03ee31" target="_top" xlink:title="Connects two nodes&#39; exec connections. ">
<polygon fill="#ffffff" stroke="#000000" points="368,-557 368,-576 460,-576 460,-557 368,-557"/>
<text text-anchor="middle" x="414" y="-564" font-family="Helvetica,sans-Serif" font-size="10.00" fill="#000000">chi::connectExec</text>
</a>
</g>
</g>
<!-- Node152&#45;&gt;Node166 -->
<g id="edge24" class="edge">
<title>Node152&#45;&gt;Node166</title>
<path fill="none" stroke="#191970" d="M253.122,-334.5929C271.0666,-361.302 309.7058,-418.5969 343,-466.5 363.1273,-495.4589 386.9313,-528.8061 401.2288,-548.7405"/>
<polygon fill="#191970" stroke="#191970" points="398.406,-550.8102 407.0815,-556.8918 404.0921,-546.7275 398.406,-550.8102"/>
</g>
<!-- Node167 -->
<g id="node18" class="node">
<title>Node167</title>
<g id="a_node18"><a xlink:href="namespacechi.html#a103b99abd766aa4d303a5004fe783c03" target="_top" xlink:title="Disconnect a exec connection. ">
<polygon fill="#ffffff" stroke="#000000" points="535.5,-538 535.5,-557 640.5,-557 640.5,-538 535.5,-538"/>
<text text-anchor="middle" x="588" y="-545" font-family="Helvetica,sans-Serif" font-size="10.00" fill="#000000">chi::disconnectExec</text>
</a>
</g>
</g>
<!-- Node152&#45;&gt;Node167 -->
<g id="edge38" class="edge">
<title>Node152&#45;&gt;Node167</title>
<path fill="none" stroke="#191970" d="M265.9036,-334.6363C328.5878,-376.0624 502.4453,-490.9595 565.1116,-532.3737"/>
<polygon fill="#191970" stroke="#191970" points="563.2516,-535.3398 573.5241,-537.9333 567.1111,-529.4999 563.2516,-535.3398"/>
</g>
<!-- Node153&#45;&gt;Node151 -->
<g id="edge4" class="edge">
<title>Node153&#45;&gt;Node151</title>
<path fill="none" stroke="#191970" d="M422.7519,-329.0948C440.1834,-347.8471 481.0131,-390.0113 521,-418.5 590.7971,-468.2269 615.1568,-469.5977 691,-509.5 706.0806,-517.4342 722.9671,-526.1746 736.7477,-533.2705"/>
<polygon fill="#191970" stroke="#191970" points="735.2378,-536.4297 745.7315,-537.8902 738.439,-530.2046 735.2378,-536.4297"/>
</g>
<!-- Node154 -->
<g id="node5" class="node">
<title>Node154</title>
<g id="a_node5"><a xlink:href="structchi_1_1NodeType.html#a7d2edfc21ff54a1ff8ad98fffb969268" target="_top" xlink:title="Get the data inputs for the node. ">
<polygon fill="#ffffff" stroke="#000000" points="699,-196 699,-215 830,-215 830,-196 699,-196"/>
<text text-anchor="middle" x="764.5" y="-203" font-family="Helvetica,sans-Serif" font-size="10.00" fill="#000000">chi::NodeType::dataInputs</text>
</a>
</g>
</g>
<!-- Node153&#45;&gt;Node154 -->
<g id="edge5" class="edge">
<title>Node153&#45;&gt;Node154</title>
<path fill="none" stroke="#191970" d="M423.2354,-309.7688C440.5482,-292.2086 479.8635,-255.4737 521,-238.5 574.2924,-216.5106 639.1741,-208.541 688.5591,-205.9172"/>
<polygon fill="#191970" stroke="#191970" points="689.027,-209.3992 698.8524,-205.4354 688.6996,-202.4069 689.027,-209.3992"/>
</g>
<!-- Node155 -->
<g id="node6" class="node">
<title>Node155</title>
<g id="a_node6"><a xlink:href="structchi_1_1NodeType.html#aade37588d98e93b19a9a47e16c850684" target="_top" xlink:title="Get the data outputs for the node. ">
<polygon fill="#ffffff" stroke="#000000" points="695,-234 695,-253 834,-253 834,-234 695,-234"/>
<text text-anchor="middle" x="764.5" y="-241" font-family="Helvetica,sans-Serif" font-size="10.00" fill="#000000">chi::NodeType::dataOutputs</text>
</a>
</g>
</g>
<!-- Node153&#45;&gt;Node155 -->
<g id="edge6" class="edge">
<title>Node153&#45;&gt;Node155</title>
<path fill="none" stroke="#191970" d="M427.4006,-309.9938C446.9286,-296.711 484.8302,-273.0447 521,-262.5 574.2068,-246.9884 636.5565,-242.3633 684.8436,-241.5516"/>
<polygon fill="#191970" stroke="#191970" points="684.9674,-245.0505 694.9257,-241.4337 684.8855,-238.051 684.9674,-245.0505"/>
</g>
<!-- Node153&#45;&gt;Node156 -->
<g id="edge7" class="edge">
<title>Node153&#45;&gt;Node156</title>
<path fill="none" stroke="#191970" d="M457.9075,-309.911C481.179,-304.8287 509.9538,-298.5446 534.5195,-293.1797"/>
<polygon fill="#191970" stroke="#191970" points="535.3852,-296.5732 544.4082,-291.0201 533.8917,-289.7343 535.3852,-296.5732"/>
</g>
<!-- Node157 -->
<g id="node8" class="node">
<title>Node157</title>
<g id="a_node8"><a xlink:href="structchi_1_1NodeInstance.html#a8f64930fd9578431a11cad0702b4100c" target="_top" xlink:title="Get the containing GraphFunction. ">
<polygon fill="#ffffff" stroke="#000000" points="714,-321.5 714,-351.5 815,-351.5 815,-321.5 714,-321.5"/>
<text text-anchor="start" x="722" y="-339.5" font-family="Helvetica,sans-Serif" font-size="10.00" fill="#000000">chi::NodeInstance::</text>
<text text-anchor="middle" x="764.5" y="-328.5" font-family="Helvetica,sans-Serif" font-size="10.00" fill="#000000">function</text>
</a>
</g>
</g>
<!-- Node153&#45;&gt;Node157 -->
<g id="edge20" class="edge">
<title>Node153&#45;&gt;Node157</title>
<path fill="none" stroke="#191970" d="M459.1042,-321.6877C521.3599,-324.7072 633.8144,-330.1615 703.5161,-333.5421"/>
<polygon fill="#191970" stroke="#191970" points="703.742,-337.0571 713.8999,-334.0458 704.0812,-330.0654 703.742,-337.0571"/>
</g>
<!-- Node158 -->
<g id="node9" class="node">
<title>Node158</title>
<g id="a_node9"><a xlink:href="structchi_1_1NodeType.html#a7031e3c04e9a0227b09f8f854ce8b7f9" target="_top" xlink:title="Get the qualified name of the node type, like module.name():name() ">
<polygon fill="#ffffff" stroke="#000000" points="691,-386 691,-405 838,-405 838,-386 691,-386"/>
<text text-anchor="middle" x="764.5" y="-393" font-family="Helvetica,sans-Serif" font-size="10.00" fill="#000000">chi::NodeType::qualifiedName</text>
</a>
</g>
</g>
<!-- Node153&#45;&gt;Node158 -->
<g id="edge21" class="edge">
<title>Node153&#45;&gt;Node158</title>
<path fill="none" stroke="#191970" d="M458.0362,-329.0485C522.2627,-342.9749 641.505,-368.8306 710.7957,-383.8551"/>
<polygon fill="#191970" stroke="#191970" points="710.1294,-387.2919 720.644,-385.9906 711.6128,-380.4509 710.1294,-387.2919"/>
</g>
<!-- Node163 -->
<g id="node14" class="node">
<title>Node163</title>
<g id="a_node14"><a xlink:href="structchi_1_1NodeType.html#ac99bef32e3e5e564119dbb8de69d2273" target="_top" xlink:title="Create the JSON necessary to store the object. ">
<polygon fill="#ffffff" stroke="#000000" points="704.5,-139 704.5,-158 824.5,-158 824.5,-139 704.5,-139"/>
<text text-anchor="middle" x="764.5" y="-146" font-family="Helvetica,sans-Serif" font-size="10.00" fill="#000000">chi::NodeType::toJSON</text>
</a>
</g>
</g>
<!-- Node153&#45;&gt;Node163 -->
<g id="edge22" class="edge">
<title>Node153&#45;&gt;Node163</title>
<path fill="none" stroke="#191970" d="M419.9067,-309.9855C434.255,-287.7239 473.297,-232.0499 521,-204.5 574.3518,-173.6877 643.456,-159.8278 694.4111,-153.594"/>
<polygon fill="#191970" stroke="#191970" points="694.8177,-157.0704 704.3501,-152.4461 694.0145,-150.1166 694.8177,-157.0704"/>
</g>
<!-- Node165 -->
<g id="node16" class="node">
<title>Node165</title>
<g id="a_node16"><a xlink:href="structchi_1_1NodeInstance.html#a5d6678d5a90e6b1adb7dafb868b974b1" target="_top" xlink:title="Get the type of the instance. ">
<polygon fill="#ffffff" stroke="#000000" points="704.5,-481 704.5,-500 824.5,-500 824.5,-481 704.5,-481"/>
<text text-anchor="middle" x="764.5" y="-488" font-family="Helvetica,sans-Serif" font-size="10.00" fill="#000000">chi::NodeInstance::type</text>
</a>
</g>
</g>
<!-- Node153&#45;&gt;Node165 -->
<g id="edge23" class="edge">
<title>Node153&#45;&gt;Node165</title>
<path fill="none" stroke="#191970" d="M433.5954,-329.0601C492.2515,-357.6769 666.6433,-442.7582 735.791,-476.4936"/>
<polygon fill="#191970" stroke="#191970" points="734.3044,-479.6626 744.8266,-480.9018 737.3738,-473.3714 734.3044,-479.6626"/>
</g>
<!-- Node156&#45;&gt;Node151 -->
<g id="edge8" class="edge">
<title>Node156&#45;&gt;Node151</title>
<path fill="none" stroke="#191970" d="M589.9269,-291.001C597.2292,-324.841 626.1365,-441.1147 691,-509.5 700.7682,-519.7986 713.9461,-527.8084 726.4461,-533.762"/>
<polygon fill="#191970" stroke="#191970" points="725.2452,-537.0582 735.8051,-537.9177 728.086,-530.6606 725.2452,-537.0582"/>
</g>
<!-- Node156&#45;&gt;Node154 -->
<g id="edge9" class="edge">
<title>Node156&#45;&gt;Node154</title>
<path fill="none" stroke="#191970" d="M602.4309,-271.9682C621.843,-259.5145 657.7752,-237.7399 691,-224.5 697.1696,-222.0415 703.7582,-219.8146 710.3617,-217.8235"/>
<polygon fill="#191970" stroke="#191970" points="711.3432,-221.1833 720.0003,-215.0755 709.4239,-214.4515 711.3432,-221.1833"/>
</g>
<!-- Node156&#45;&gt;Node155 -->
<g id="edge10" class="edge">
<title>Node156&#45;&gt;Node155</title>
<path fill="none" stroke="#191970" d="M632.5384,-271.911C656.1442,-266.8287 685.3325,-260.5446 710.2511,-255.1797"/>
<polygon fill="#191970" stroke="#191970" points="711.2426,-258.5465 720.2819,-253.0201 709.7692,-251.7033 711.2426,-258.5465"/>
</g>
<!-- Node156&#45;&gt;Node157 -->
<g id="edge11" class="edge">
<title>Node156&#45;&gt;Node157</title>
<path fill="none" stroke="#191970" d="M618.744,-291.0803C642.88,-298.6014 677.1808,-309.29 706.4447,-318.4091"/>
<polygon fill="#191970" stroke="#191970" points="705.5654,-321.8011 716.1539,-321.4346 707.648,-315.118 705.5654,-321.8011"/>
</g>
<!-- Node156&#45;&gt;Node158 -->
<g id="edge12" class="edge">
<title>Node156&#45;&gt;Node158</title>
<path fill="none" stroke="#191970" d="M598.5321,-291.0042C616.5447,-306.9452 654.8333,-339.4839 691,-361.5 703.5367,-369.1316 718.0707,-376.1928 730.8886,-381.8798"/>
<polygon fill="#191970" stroke="#191970" points="729.7266,-385.1905 740.2944,-385.9475 732.5052,-378.7656 729.7266,-385.1905"/>
</g>
<!-- Node156&#45;&gt;Node162 -->
<g id="edge16" class="edge">
<title>Node156&#45;&gt;Node162</title>
<path fill="none" stroke="#191970" d="M639.5256,-283.2516C659.6373,-283.9353 682.8461,-284.7242 703.7634,-285.4353"/>
<polygon fill="#191970" stroke="#191970" points="703.7111,-288.9354 713.8243,-285.7773 703.949,-281.9395 703.7111,-288.9354"/>
</g>
<!-- Node156&#45;&gt;Node163 -->
<g id="edge17" class="edge">
<title>Node156&#45;&gt;Node163</title>
<path fill="none" stroke="#191970" d="M596.657,-271.9659C613.5311,-253.7542 652.5465,-213.4382 691,-186.5 704.0649,-177.3475 719.6253,-168.9851 733.0578,-162.4495"/>
<polygon fill="#191970" stroke="#191970" points="734.8559,-165.4707 742.3966,-158.0283 731.8606,-159.1439 734.8559,-165.4707"/>
</g>
<!-- Node156&#45;&gt;Node165 -->
<g id="edge19" class="edge">
<title>Node156&#45;&gt;Node165</title>
<path fill="none" stroke="#191970" d="M594.8979,-291.1349C610.9892,-313.4439 652.5665,-370.1292 691,-414.5 709.4209,-435.7667 732.1329,-458.8129 747.3933,-473.8833"/>
<polygon fill="#191970" stroke="#191970" points="745.0428,-476.4804 754.6321,-480.9855 749.9452,-471.4837 745.0428,-476.4804"/>
</g>
<!-- Node159 -->
<g id="node10" class="node">
<title>Node159</title>
<g id="a_node10"><a xlink:href="structchi_1_1NodeType.html#a4fd551737d6b3bb4d6609f1ee8e054aa" target="_top" xlink:title="Get the ChiModule this NodeType belongs to. ">
<polygon fill="#ffffff" stroke="#000000" points="878,-405 878,-424 995,-424 995,-405 878,-405"/>
<text text-anchor="middle" x="936.5" y="-412" font-family="Helvetica,sans-Serif" font-size="10.00" fill="#000000">chi::NodeType::module</text>
</a>
</g>
</g>
<!-- Node158&#45;&gt;Node159 -->
<g id="edge13" class="edge">
<title>Node158&#45;&gt;Node159</title>
<path fill="none" stroke="#191970" d="M838.4417,-403.668C848.2403,-404.7504 858.252,-405.8563 867.9542,-406.9281"/>
<polygon fill="#191970" stroke="#191970" points="867.6072,-410.411 877.9311,-408.0302 868.3759,-403.4533 867.6072,-410.411"/>
</g>
<!-- Node160 -->
<g id="node11" class="node">
<title>Node160</title>
<g id="a_node11"><a xlink:href="structchi_1_1ChiModule.html#a92ab6d528ac41a91b6ac21ededfccc38" target="_top" xlink:title="Get the full name of the module. ">
<polygon fill="#ffffff" stroke="#000000" points="874,-272 874,-291 999,-291 999,-272 874,-272"/>
<text text-anchor="middle" x="936.5" y="-279" font-family="Helvetica,sans-Serif" font-size="10.00" fill="#000000">chi::ChiModule::fullName</text>
</a>
</g>
</g>
<!-- Node158&#45;&gt;Node160 -->
<g id="edge14" class="edge">
<title>Node158&#45;&gt;Node160</title>
<path fill="none" stroke="#191970" d="M789.1184,-385.9282C803.7807,-379.7896 822.4921,-371.173 838,-361.5 868.4486,-342.5078 900.0292,-315.2944 918.973,-298.0119"/>
<polygon fill="#191970" stroke="#191970" points="921.5379,-300.4074 926.5082,-291.0507 916.7878,-295.2656 921.5379,-300.4074"/>
</g>
<!-- Node161 -->
<g id="node12" class="node">
<title>Node161</title>
<g id="a_node12"><a xlink:href="structchi_1_1NodeType.html#ad301375a4b84ddc699337e285ee78cc3" target="_top" xlink:title="Get the name of the NodeType in the ChiModule. ">
<polygon fill="#ffffff" stroke="#000000" points="881.5,-367 881.5,-386 991.5,-386 991.5,-367 881.5,-367"/>
<text text-anchor="middle" x="936.5" y="-374" font-family="Helvetica,sans-Serif" font-size="10.00" fill="#000000">chi::NodeType::name</text>
</a>
</g>
</g>
<!-- Node158&#45;&gt;Node161 -->
<g id="edge15" class="edge">
<title>Node158&#45;&gt;Node161</title>
<path fill="none" stroke="#191970" d="M838.4417,-387.332C849.3436,-386.1277 860.5092,-384.8943 871.219,-383.7113"/>
<polygon fill="#191970" stroke="#191970" points="871.7688,-387.1719 881.324,-382.595 871.0001,-380.2142 871.7688,-387.1719"/>
</g>
<!-- Node164 -->
<g id="node15" class="node">
<title>Node164</title>
<g id="a_node15"><a xlink:href="structchi_1_1NodeType.html#a9de5373607ac5fb322665c487010ecf2" target="_top" xlink:title="Clones the type. ">
<polygon fill="#ffffff" stroke="#000000" points="882,-139 882,-158 991,-158 991,-139 882,-139"/>
<text text-anchor="middle" x="936.5" y="-146" font-family="Helvetica,sans-Serif" font-size="10.00" fill="#000000">chi::NodeType::clone</text>
</a>
</g>
</g>
<!-- Node163&#45;&gt;Node164 -->
<g id="edge18" class="edge">
<title>Node163&#45;&gt;Node164</title>
<path fill="none" stroke="#191970" d="M824.6573,-148.5C839.915,-148.5 856.3692,-148.5 871.8398,-148.5"/>
<polygon fill="#191970" stroke="#191970" points="871.8418,-152.0001 881.8418,-148.5 871.8418,-145.0001 871.8418,-152.0001"/>
</g>
<!-- Node166&#45;&gt;Node151 -->
<g id="edge25" class="edge">
<title>Node166&#45;&gt;Node151</title>
<path fill="none" stroke="#191970" d="M437.7424,-576.075C459.1139,-584.146 491.5892,-595.0677 521,-599.5 579.8906,-608.375 596.9018,-612.5943 655,-599.5 686.4753,-592.4061 719.5235,-575.1589 740.9719,-562.4639"/>
<polygon fill="#191970" stroke="#191970" points="742.9554,-565.3544 749.6891,-557.1747 739.3242,-559.3698 742.9554,-565.3544"/>
</g>
<!-- Node166&#45;&gt;Node157 -->
<g id="edge34" class="edge">
<title>Node166&#45;&gt;Node157</title>
<path fill="none" stroke="#191970" d="M420.4328,-556.8619C435.6075,-534.7463 475.7807,-479.7099 521,-446.5 578.4281,-404.3237 654.6029,-373.1589 706.354,-354.9753"/>
<polygon fill="#191970" stroke="#191970" points="707.7386,-358.1998 716.044,-351.6218 705.4492,-351.5848 707.7386,-358.1998"/>
</g>
<!-- Node166&#45;&gt;Node158 -->
<g id="edge35" class="edge">
<title>Node166&#45;&gt;Node158</title>
<path fill="none" stroke="#191970" d="M433.5954,-556.9399C492.2515,-528.3231 666.6433,-443.2418 735.791,-409.5064"/>
<polygon fill="#191970" stroke="#191970" points="737.3738,-412.6286 744.8266,-405.0982 734.3044,-406.3374 737.3738,-412.6286"/>
</g>
<!-- Node166&#45;&gt;Node165 -->
<g id="edge36" class="edge">
<title>Node166&#45;&gt;Node165</title>
<path fill="none" stroke="#191970" d="M455.1981,-576.0153C504.8235,-585.383 589.6596,-594.605 655,-566.5 676.3713,-557.3075 672.4064,-542.4826 691,-528.5 703.472,-519.1209 718.5942,-510.8591 731.8716,-504.4553"/>
<polygon fill="#191970" stroke="#191970" points="733.564,-507.5281 741.1493,-500.1313 730.6069,-501.1833 733.564,-507.5281"/>
</g>
<!-- Node166&#45;&gt;Node167 -->
<g id="edge26" class="edge">
<title>Node166&#45;&gt;Node167</title>
<path fill="none" stroke="#191970" d="M460.172,-561.4582C480.1625,-559.2754 503.8725,-556.6863 525.4106,-554.3345"/>
<polygon fill="#191970" stroke="#191970" points="525.8959,-557.8024 535.4568,-553.2375 525.136,-550.8437 525.8959,-557.8024"/>
</g>
<!-- Node168 -->
<g id="node19" class="node">
<title>Node168</title>
<g id="a_node19"><a xlink:href="structchi_1_1NodeType.html#aa93f41674ea15d335db358d8aa4745a1" target="_top" xlink:title="Get the execution outputs for the node. ">
<polygon fill="#ffffff" stroke="#000000" points="694,-652 694,-671 835,-671 835,-652 694,-652"/>
<text text-anchor="middle" x="764.5" y="-659" font-family="Helvetica,sans-Serif" font-size="10.00" fill="#000000">chi::NodeType::execOutputs</text>
</a>
</g>
</g>
<!-- Node166&#45;&gt;Node168 -->
<g id="edge33" class="edge">
<title>Node166&#45;&gt;Node168</title>
<path fill="none" stroke="#191970" d="M419.3574,-576.3208C432.7803,-599.753 470.4325,-658.61 521,-680.5 590.0255,-710.3801 680.3027,-689.7301 729.2409,-674.229"/>
<polygon fill="#191970" stroke="#191970" points="730.6212,-677.4599 739.0338,-671.0194 728.441,-670.808 730.6212,-677.4599"/>
</g>
<!-- Node169 -->
<g id="node20" class="node">
<title>Node169</title>
<g id="a_node20"><a xlink:href="structchi_1_1NodeType.html#abacc3220df0b18bfbe9ee86b6dc427cd" target="_top" xlink:title="Get the execution inputs for the node. ">
<polygon fill="#ffffff" stroke="#000000" points="521,-652 521,-671 655,-671 655,-652 521,-652"/>
<text text-anchor="middle" x="588" y="-659" font-family="Helvetica,sans-Serif" font-size="10.00" fill="#000000">chi::NodeType::execInputs</text>
</a>
</g>
</g>
<!-- Node166&#45;&gt;Node169 -->
<g id="edge32" class="edge">
<title>Node166&#45;&gt;Node169</title>
<path fill="none" stroke="#191970" d="M426.2437,-576.0653C445.5248,-590.7871 484.5321,-619.2087 521,-637.5 529.1046,-641.5651 538.0682,-645.2717 546.7323,-648.4913"/>
<polygon fill="#191970" stroke="#191970" points="545.7307,-651.85 556.3253,-651.9126 548.0822,-645.2567 545.7307,-651.85"/>
</g>
<!-- Node167&#45;&gt;Node151 -->
<g id="edge27" class="edge">
<title>Node167&#45;&gt;Node151</title>
<path fill="none" stroke="#191970" d="M640.9558,-547.5C659.6331,-547.5 680.8356,-547.5 700.3383,-547.5"/>
<polygon fill="#191970" stroke="#191970" points="700.3598,-551.0001 710.3597,-547.5 700.3597,-544.0001 700.3598,-551.0001"/>
</g>
<!-- Node167&#45;&gt;Node158 -->
<g id="edge29" class="edge">
<title>Node167&#45;&gt;Node158</title>
<path fill="none" stroke="#191970" d="M599.0409,-537.9917C628.3854,-512.7205 708.5856,-443.6529 745.4748,-411.8843"/>
<polygon fill="#191970" stroke="#191970" points="748.1699,-414.1824 753.4633,-405.0047 743.6019,-408.8782 748.1699,-414.1824"/>
</g>
<!-- Node167&#45;&gt;Node162 -->
<g id="edge30" class="edge">
<title>Node167&#45;&gt;Node162</title>
<path fill="none" stroke="#191970" d="M589.4065,-537.8449C595.0735,-502.4108 619.471,-378.1791 691,-312.5 695.0953,-308.7396 699.7791,-305.542 704.7556,-302.8234"/>
<polygon fill="#191970" stroke="#191970" points="706.4471,-305.8944 713.9651,-298.4292 703.4326,-299.5767 706.4471,-305.8944"/>
</g>
<!-- Node167&#45;&gt;Node165 -->
<g id="edge31" class="edge">
<title>Node167&#45;&gt;Node165</title>
<path fill="none" stroke="#191970" d="M617.5421,-537.9595C647.0686,-528.424 692.6415,-513.7064 725.2053,-503.1901"/>
<polygon fill="#191970" stroke="#191970" points="726.4211,-506.4755 734.8615,-500.0716 724.2698,-499.8143 726.4211,-506.4755"/>
</g>
<!-- Node167&#45;&gt;Node168 -->
<g id="edge28" class="edge">
<title>Node167&#45;&gt;Node168</title>
<path fill="none" stroke="#191970" d="M602.7447,-557.0235C633.2962,-576.7565 703.7444,-622.2584 740.7736,-646.1753"/>
<polygon fill="#191970" stroke="#191970" points="739.124,-649.2764 749.4231,-651.762 742.9219,-643.3962 739.124,-649.2764"/>
</g>
<!-- Node170&#45;&gt;Node160 -->
<g id="edge43" class="edge">
<title>Node170&#45;&gt;Node160</title>
<path fill="none" stroke="#191970" d="M307.1491,-75.5016C451.623,-82.7083 793.3993,-102.4208 838,-129.5 864.2889,-145.4612 907.9121,-225.7754 927.0307,-262.7795"/>
<polygon fill="#191970" stroke="#191970" points="924.067,-264.6711 931.7385,-271.9786 930.2984,-261.4821 924.067,-264.6711"/>
</g>
<!-- Node171 -->
<g id="node22" class="node">
<title>Node171</title>
<g id="a_node22"><a xlink:href="structchi_1_1ChiModule.html#a5c28c9fe74ad3cb704b613843b267512" target="_top" xlink:title="Get the Context that this module belongs to. ">
<polygon fill="#ffffff" stroke="#000000" points="354.5,-6 354.5,-25 473.5,-25 473.5,-6 354.5,-6"/>
<text text-anchor="middle" x="414" y="-13" font-family="Helvetica,sans-Serif" font-size="10.00" fill="#000000">chi::ChiModule::context</text>
</a>
</g>
</g>
<!-- Node170&#45;&gt;Node171 -->
<g id="edge40" class="edge">
<title>Node170&#45;&gt;Node171</title>
<path fill="none" stroke="#191970" d="M280.1946,-57.3339C298.8813,-49.9793 321.9681,-41.2908 343,-34.5 350.261,-32.1556 358.0038,-29.8697 365.607,-27.743"/>
<polygon fill="#191970" stroke="#191970" points="366.7463,-31.0601 375.4697,-25.0473 364.9007,-24.3077 366.7463,-31.0601"/>
</g>
<!-- Node173 -->
<g id="node24" class="node">
<title>Node173</title>
<g id="a_node24"><a xlink:href="structchi_1_1Context.html#a24fd4f52e8cc081116a45de3a698d846" target="_top" xlink:title="Get the workspace path of the Context. ">
<polygon fill="#ffffff" stroke="#000000" points="343,-44 343,-63 485,-63 485,-44 343,-44"/>
<text text-anchor="middle" x="414" y="-51" font-family="Helvetica,sans-Serif" font-size="10.00" fill="#000000">chi::Context::workspacePath</text>
</a>
</g>
</g>
<!-- Node170&#45;&gt;Node173 -->
<g id="edge42" class="edge">
<title>Node170&#45;&gt;Node173</title>
<path fill="none" stroke="#191970" d="M307.1606,-65.371C315.5388,-64.4401 324.2091,-63.4768 332.8207,-62.5199"/>
<polygon fill="#191970" stroke="#191970" points="333.3298,-65.985 342.8821,-61.402 332.5568,-59.0278 333.3298,-65.985"/>
</g>
<!-- Node172 -->
<g id="node23" class="node">
<title>Node172</title>
<g id="a_node23"><a xlink:href="structchi_1_1ChiModule.html#a987c71edb997c5f041f69622cb0c86fe" target="_top" xlink:title="Generate a llvm::Module from the module. ">
<polygon fill="#ffffff" stroke="#000000" points="525.5,-.5 525.5,-30.5 650.5,-30.5 650.5,-.5 525.5,-.5"/>
<text text-anchor="start" x="533.5" y="-18.5" font-family="Helvetica,sans-Serif" font-size="10.00" fill="#000000">chi::ChiModule::generate</text>
<text text-anchor="middle" x="588" y="-7.5" font-family="Helvetica,sans-Serif" font-size="10.00" fill="#000000">Module</text>
</a>
</g>
</g>
<!-- Node171&#45;&gt;Node172 -->
<g id="edge41" class="edge">
<title>Node171&#45;&gt;Node172</title>
<path fill="none" stroke="#191970" d="M473.8809,-15.5C487.1198,-15.5 501.2896,-15.5 514.9846,-15.5"/>
<polygon fill="#191970" stroke="#191970" points="515.3415,-19.0001 525.3414,-15.5 515.3414,-12.0001 515.3415,-19.0001"/>
</g>
</g>
</svg>
        <g id="navigator" transform="translate(0 0)" fill="#404254">
                <rect fill="#f2f5e9" fill-opacity="0.5" stroke="#606060" stroke-width=".5" x="0" y="0" width="60" height="60"/>
                <use id="zoomplus" xlink:href="#zoomPlus" x="17" y="9" onmousedown="handleZoom(evt,'in')"/>
                <use id="zoomminus" xlink:href="#zoomMin" x="42" y="9" onmousedown="handleZoom(evt,'out')"/>
                <use id="reset" xlink:href="#resetDef" x="30" y="36" onmousedown="handleReset()"/>
                <g id="arrowUp" xlink:href="#dirArrow" transform="translate(30 24)" onmousedown="handlePan(0,-1)">
                  <use xlink:href="#rim" fill="#404040">
                        <set attributeName="fill" to="#808080" begin="arrowUp.mouseover" end="arrowUp.mouseout"/>
                  </use>
                  <path fill="none" stroke="white" stroke-width="1.5" d="M0,-3.0v7 M-2.5,-0.5L0,-3.0L2.5,-0.5"/>
                </g>
                <g id="arrowRight" xlink:href="#dirArrow" transform="rotate(90) translate(36 -43)" onmousedown="handlePan(1,0)">
                  <use xlink:href="#rim" fill="#404040">
                        <set attributeName="fill" to="#808080" begin="arrowRight.mouseover" end="arrowRight.mouseout"/>
                  </use>
                  <path fill="none" stroke="white" stroke-width="1.5" d="M0,-3.0v7 M-2.5,-0.5L0,-3.0L2.5,-0.5"/>
                </g>
                <g id="arrowDown" xlink:href="#dirArrow" transform="rotate(180) translate(-30 -48)" onmousedown="handlePan(0,1)">
                  <use xlink:href="#rim" fill="#404040">
                        <set attributeName="fill" to="#808080" begin="arrowDown.mouseover" end="arrowDown.mouseout"/>
                  </use>
                  <path fill="none" stroke="white" stroke-width="1.5" d="M0,-3.0v7 M-2.5,-0.5L0,-3.0L2.5,-0.5"/>
                </g>
                <g id="arrowLeft" xlink:href="#dirArrow" transform="rotate(270) translate(-36 17)" onmousedown="handlePan(-1,0)">
                  <use xlink:href="#rim" fill="#404040">
                        <set attributeName="fill" to="#808080" begin="arrowLeft.mouseover" end="arrowLeft.mouseout"/>
                  </use>
                  <path fill="none" stroke="white" stroke-width="1.5" d="M0,-3.0v7 M-2.5,-0.5L0,-3.0L2.5,-0.5"/>
                </g>
        </g>
        <svg viewBox="0 0 15 15" width="100%" height="30px" preserveAspectRatio="xMaxYMin meet">
         <g id="arrow_out" transform="scale(0.3 0.3)">
          <a xlink:href="classchi_1_1Debugger_a91a4d103d38bb2b1132ec7f83f4d77e2_cgraph_org.svg" target="_base">
           <rect id="button" ry="5" rx="5" y="6" x="6" height="38" width="38"
                fill="#f2f5e9" fill-opacity="0.5" stroke="#606060" stroke-width="1.0"/>
           <path id="arrow"
             d="M 11.500037,31.436501 C 11.940474,20.09759 22.043105,11.32322 32.158766,21.979434 L 37.068811,17.246167 C 37.068811,17.246167 37.088388,32 37.088388,32 L 22.160133,31.978069 C 22.160133,31.978069 26.997745,27.140456 26.997745,27.140456 C 18.528582,18.264221 13.291696,25.230495 11.500037,31.436501 z"
             style="fill:#404040;"/>
          </a>
         </g>
        </svg>
</svg>
