<?xml version="1.0" encoding="UTF-8" standalone="no"?>
<!DOCTYPE svg PUBLIC "-//W3C//DTD SVG 1.1//EN"
 "http://www.w3.org/Graphics/SVG/1.1/DTD/svg11.dtd">
<!-- Generated by graphviz version 2.40.1 (20161225.0304)
 -->
<!-- Title: include/chig/CModule.hpp Pages: 1 -->
<svg width="1444pt" height="319pt"
 viewBox="0.00 0.00 1444.00 319.00" xmlns="http://www.w3.org/2000/svg" xmlns:xlink="http://www.w3.org/1999/xlink">
<g id="graph0" class="graph" transform="scale(1 1) rotate(0) translate(4 315)">
<title>include/chig/CModule.hpp</title>
<polygon fill="#ffffff" stroke="transparent" points="-4,4 -4,-315 1440,-315 1440,4 -4,4"/>
<!-- Node0 -->
<g id="node1" class="node">
<title>Node0</title>
<polygon fill="#bfbfbf" stroke="#000000" points="246,-291.5 246,-310.5 374,-310.5 374,-291.5 246,-291.5"/>
<text text-anchor="middle" x="310" y="-298.5" font-family="Helvetica,sans-Serif" font-size="10.00" fill="#000000">include/chig/CModule.hpp</text>
</g>
<!-- Node1 -->
<g id="node2" class="node">
<title>Node1</title>
<polygon fill="#ffffff" stroke="#bfbfbf" points="74.5,-235.5 74.5,-254.5 133.5,-254.5 133.5,-235.5 74.5,-235.5"/>
<text text-anchor="middle" x="104" y="-242.5" font-family="Helvetica,sans-Serif" font-size="10.00" fill="#000000">functional</text>
</g>
<!-- Node0&#45;&gt;Node1 -->
<g id="edge1" class="edge">
<title>Node0&#45;&gt;Node1</title>
<path fill="none" stroke="#191970" d="M274.5873,-291.3733C238.0499,-281.4408 181.1972,-265.9856 143.2949,-255.6821"/>
<polygon fill="#191970" stroke="#191970" points="144.1838,-252.2968 133.6158,-253.0509 142.3475,-259.0517 144.1838,-252.2968"/>
</g>
<!-- Node2 -->
<g id="node3" class="node">
<title>Node2</title>
<polygon fill="#ffffff" stroke="#bfbfbf" points="0,-62 0,-81 52,-81 52,-62 0,-62"/>
<text text-anchor="middle" x="26" y="-69" font-family="Helvetica,sans-Serif" font-size="10.00" fill="#000000">memory</text>
</g>
<!-- Node0&#45;&gt;Node2 -->
<g id="edge2" class="edge">
<title>Node0&#45;&gt;Node2</title>
<path fill="none" stroke="#191970" d="M266.0793,-291.4974C239.7816,-284.3701 206.6022,-272.7405 181,-255 113.9792,-208.5594 58.916,-126.0133 36.6417,-89.6064"/>
<polygon fill="#191970" stroke="#191970" points="39.6246,-87.7752 31.4706,-81.0103 33.6262,-91.3835 39.6246,-87.7752"/>
</g>
<!-- Node3 -->
<g id="node4" class="node">
<title>Node3</title>
<polygon fill="#ffffff" stroke="#bfbfbf" points="190.5,-235.5 190.5,-254.5 231.5,-254.5 231.5,-235.5 190.5,-235.5"/>
<text text-anchor="middle" x="211" y="-242.5" font-family="Helvetica,sans-Serif" font-size="10.00" fill="#000000">string</text>
</g>
<!-- Node0&#45;&gt;Node3 -->
<g id="edge3" class="edge">
<title>Node0&#45;&gt;Node3</title>
<path fill="none" stroke="#191970" d="M292.7555,-291.2455C277.4239,-282.5731 254.7801,-269.7645 237.2084,-259.825"/>
<polygon fill="#191970" stroke="#191970" points="238.4741,-256.5198 228.0469,-254.6427 235.0276,-262.6126 238.4741,-256.5198"/>
</g>
<!-- Node4 -->
<g id="node5" class="node">
<title>Node4</title>
<polygon fill="#ffffff" stroke="#bfbfbf" points="70.5,-62 70.5,-81 153.5,-81 153.5,-62 70.5,-62"/>
<text text-anchor="middle" x="112" y="-69" font-family="Helvetica,sans-Serif" font-size="10.00" fill="#000000">unordered_map</text>
</g>
<!-- Node0&#45;&gt;Node4 -->
<g id="edge4" class="edge">
<title>Node0&#45;&gt;Node4</title>
<path fill="none" stroke="#191970" d="M303.0153,-291.0641C279.78,-258.119 204.9241,-152.8736 176,-123 163.184,-109.7633 147.0047,-96.7711 134.1203,-87.1475"/>
<polygon fill="#191970" stroke="#191970" points="135.9446,-84.1454 125.8085,-81.0616 131.8092,-89.7933 135.9446,-84.1454"/>
</g>
<!-- Node5 -->
<g id="node6" class="node">
<title>Node5</title>
<polygon fill="#ffffff" stroke="#bfbfbf" points="288,-235.5 288,-254.5 332,-254.5 332,-235.5 288,-235.5"/>
<text text-anchor="middle" x="310" y="-242.5" font-family="Helvetica,sans-Serif" font-size="10.00" fill="#000000">vector</text>
</g>
<!-- Node0&#45;&gt;Node5 -->
<g id="edge5" class="edge">
<title>Node0&#45;&gt;Node5</title>
<path fill="none" stroke="#191970" d="M310,-291.2455C310,-283.9382 310,-273.6944 310,-264.7046"/>
<polygon fill="#191970" stroke="#191970" points="313.5001,-264.6426 310,-254.6427 306.5001,-264.6427 313.5001,-264.6426"/>
</g>
<!-- Node6 -->
<g id="node7" class="node">
<title>Node6</title>
<g id="a_node7"><a xlink:href="ChigModule_8hpp.html" target="_top" xlink:title="Defines the ChigModule class. ">
<polygon fill="#ffffff" stroke="#000000" points="901.5,-123.5 901.5,-142.5 1008.5,-142.5 1008.5,-123.5 901.5,-123.5"/>
<text text-anchor="middle" x="955" y="-130.5" font-family="Helvetica,sans-Serif" font-size="10.00" fill="#000000">chig/ChigModule.hpp</text>
</a>
</g>
</g>
<!-- Node0&#45;&gt;Node6 -->
<g id="edge6" class="edge">
<title>Node0&#45;&gt;Node6</title>
<path fill="none" stroke="#191970" d="M374.3415,-299.1982C461.4883,-295.6341 611.3072,-285.1867 656,-255 688.1608,-233.2778 667.343,-201.4501 699,-179 729.1999,-157.5833 825.7452,-144.7297 891.2518,-138.2563"/>
<polygon fill="#191970" stroke="#191970" points="891.865,-141.7136 901.4838,-137.2718 891.1946,-134.7457 891.865,-141.7136"/>
</g>
<!-- Node7 -->
<g id="node8" class="node">
<title>Node7</title>
<g id="a_node8"><a xlink:href="Fwd_8hpp.html" target="_top" xlink:title="Forward declares all the chigraph data types. ">
<polygon fill="#ffffff" stroke="#000000" points="172,-62 172,-81 246,-81 246,-62 172,-62"/>
<text text-anchor="middle" x="209" y="-69" font-family="Helvetica,sans-Serif" font-size="10.00" fill="#000000">chig/Fwd.hpp</text>
</a>
</g>
</g>
<!-- Node0&#45;&gt;Node7 -->
<g id="edge17" class="edge">
<title>Node0&#45;&gt;Node7</title>
<path fill="none" stroke="#191970" d="M319.0741,-291.3243C326.5963,-282.5913 336.7231,-268.9994 341,-255 343.5971,-246.499 343.3671,-243.5679 341,-235 325.5533,-179.0899 312.2445,-166.6108 274,-123 261.8908,-109.1918 245.7103,-96.3574 232.5226,-86.9549"/>
<polygon fill="#191970" stroke="#191970" points="234.1714,-83.8395 223.9575,-81.024 230.1863,-89.5944 234.1714,-83.8395"/>
</g>
<!-- Node10 -->
<g id="node11" class="node">
<title>Node10</title>
<polygon fill="#ffffff" stroke="#bfbfbf" points="886,-62 886,-81 960,-81 960,-62 886,-62"/>
<text text-anchor="middle" x="923" y="-69" font-family="Helvetica,sans-Serif" font-size="10.00" fill="#000000">chig/json.hpp</text>
</g>
<!-- Node0&#45;&gt;Node10 -->
<g id="edge45" class="edge">
<title>Node0&#45;&gt;Node10</title>
<path fill="none" stroke="#191970" d="M335.5594,-291.4309C432.3388,-255.1978 776.4437,-126.369 887.8898,-84.6449"/>
<polygon fill="#191970" stroke="#191970" points="889.1935,-87.8941 897.3315,-81.11 886.7391,-81.3385 889.1935,-87.8941"/>
</g>
<!-- Node16 -->
<g id="node17" class="node">
<title>Node16</title>
<g id="a_node17"><a xlink:href="NodeType_8hpp.html" target="_top" xlink:title="Defines the NodeType class. ">
<polygon fill="#ffffff" stroke="#000000" points="999.5,-235.5 999.5,-254.5 1100.5,-254.5 1100.5,-235.5 999.5,-235.5"/>
<text text-anchor="middle" x="1050" y="-242.5" font-family="Helvetica,sans-Serif" font-size="10.00" fill="#000000">chig/NodeType.hpp</text>
</a>
</g>
</g>
<!-- Node0&#45;&gt;Node16 -->
<g id="edge18" class="edge">
<title>Node0&#45;&gt;Node16</title>
<path fill="none" stroke="#191970" d="M374.0537,-296.1527C515.1789,-285.4729 851.3051,-260.0364 989.2903,-249.5942"/>
<polygon fill="#191970" stroke="#191970" points="989.5638,-253.0837 999.2711,-248.8389 989.0355,-246.1036 989.5638,-253.0837"/>
</g>
<!-- Node6&#45;&gt;Node7 -->
<g id="edge7" class="edge">
<title>Node6&#45;&gt;Node7</title>
<path fill="none" stroke="#191970" d="M901.1686,-131.3232C788.1209,-127.3486 517.8764,-115.4678 293,-87 280.9315,-85.4722 267.9723,-83.332 255.9325,-81.1288"/>
<polygon fill="#191970" stroke="#191970" points="256.5495,-77.6835 246.075,-79.2753 255.256,-84.563 256.5495,-77.6835"/>
</g>
<!-- Node8 -->
<g id="node9" class="node">
<title>Node8</title>
<g id="a_node9"><a xlink:href="ToString_8hpp_source.html" target="_top" xlink:title="chig/ToString.hpp">
<polygon fill="#ffffff" stroke="#000000" points="1244.5,-62 1244.5,-81 1337.5,-81 1337.5,-62 1244.5,-62"/>
<text text-anchor="middle" x="1291" y="-69" font-family="Helvetica,sans-Serif" font-size="10.00" fill="#000000">chig/ToString.hpp</text>
</a>
</g>
</g>
<!-- Node6&#45;&gt;Node8 -->
<g id="edge8" class="edge">
<title>Node6&#45;&gt;Node8</title>
<path fill="none" stroke="#191970" d="M1008.6887,-126.0414C1065.4935,-118.2529 1157.5792,-104.4111 1236,-87 1240.4232,-86.018 1245.0187,-84.893 1249.5843,-83.7073"/>
<polygon fill="#191970" stroke="#191970" points="1250.7086,-87.0292 1259.4528,-81.0467 1248.8864,-80.2706 1250.7086,-87.0292"/>
</g>
<!-- Node6&#45;&gt;Node10 -->
<g id="edge10" class="edge">
<title>Node6&#45;&gt;Node10</title>
<path fill="none" stroke="#191970" d="M950,-123.3906C945.4242,-114.5965 938.5219,-101.3312 932.8417,-90.4145"/>
<polygon fill="#191970" stroke="#191970" points="935.7912,-88.5003 928.0705,-81.2449 929.5815,-91.7314 935.7912,-88.5003"/>
</g>
<!-- Node11 -->
<g id="node12" class="node">
<title>Node11</title>
<g id="a_node12"><a xlink:href="HashFilesystemPath_8hpp_source.html" target="_top" xlink:title="chig/HashFilesystemPath.hpp">
<polygon fill="#ffffff" stroke="#000000" points="1016.5,-62 1016.5,-81 1163.5,-81 1163.5,-62 1016.5,-62"/>
<text text-anchor="middle" x="1090" y="-69" font-family="Helvetica,sans-Serif" font-size="10.00" fill="#000000">chig/HashFilesystemPath.hpp</text>
</a>
</g>
</g>
<!-- Node6&#45;&gt;Node11 -->
<g id="edge11" class="edge">
<title>Node6&#45;&gt;Node11</title>
<path fill="none" stroke="#191970" d="M976.0938,-123.3906C998.5827,-113.1457 1034.3918,-96.8326 1059.8524,-85.2339"/>
<polygon fill="#191970" stroke="#191970" points="1061.4052,-88.3727 1069.0544,-81.0419 1058.5032,-82.0025 1061.4052,-88.3727"/>
</g>
<!-- Node12 -->
<g id="node13" class="node">
<title>Node12</title>
<polygon fill="#ffffff" stroke="#bfbfbf" points="934.5,-.5 934.5,-19.5 1041.5,-19.5 1041.5,-.5 934.5,-.5"/>
<text text-anchor="middle" x="988" y="-7.5" font-family="Helvetica,sans-Serif" font-size="10.00" fill="#000000">boost/filesystem.hpp</text>
</g>
<!-- Node6&#45;&gt;Node12 -->
<g id="edge14" class="edge">
<title>Node6&#45;&gt;Node12</title>
<path fill="none" stroke="#191970" d="M958.1573,-123.1739C961.1005,-113.8904 965.543,-99.5553 969,-87 974.353,-67.5583 979.7996,-45.1607 983.4808,-29.5521"/>
<polygon fill="#191970" stroke="#191970" points="986.9563,-30.0597 985.8226,-19.5257 980.1398,-28.4676 986.9563,-30.0597"/>
</g>
<!-- Node13 -->
<g id="node14" class="node">
<title>Node13</title>
<polygon fill="#ffffff" stroke="#bfbfbf" points="1181.5,-62 1181.5,-81 1226.5,-81 1226.5,-62 1181.5,-62"/>
<text text-anchor="middle" x="1204" y="-69" font-family="Helvetica,sans-Serif" font-size="10.00" fill="#000000">gsl/gsl</text>
</g>
<!-- Node6&#45;&gt;Node13 -->
<g id="edge13" class="edge">
<title>Node6&#45;&gt;Node13</title>
<path fill="none" stroke="#191970" d="M1008.8979,-125.563C1053.6627,-118.4591 1118.585,-105.992 1173,-87 1174.4203,-86.5043 1175.8588,-85.9576 1177.2984,-85.3746"/>
<polygon fill="#191970" stroke="#191970" points="1178.963,-88.4632 1186.6345,-81.1558 1176.0804,-82.0843 1178.963,-88.4632"/>
</g>
<!-- Node14 -->
<g id="node15" class="node">
<title>Node14</title>
<polygon fill="#ffffff" stroke="#bfbfbf" points="682,-62 682,-81 760,-81 760,-62 682,-62"/>
<text text-anchor="middle" x="721" y="-69" font-family="Helvetica,sans-Serif" font-size="10.00" fill="#000000">unordered_set</text>
</g>
<!-- Node6&#45;&gt;Node14 -->
<g id="edge15" class="edge">
<title>Node6&#45;&gt;Node14</title>
<path fill="none" stroke="#191970" d="M912.6714,-123.4213C874.8266,-114.6463 817.9491,-100.9377 769,-87 765.7995,-86.0887 762.4916,-85.1064 759.1786,-84.0943"/>
<polygon fill="#191970" stroke="#191970" points="759.9159,-80.6577 749.3269,-81.0097 757.8242,-87.3379 759.9159,-80.6577"/>
</g>
<!-- Node15 -->
<g id="node16" class="node">
<title>Node15</title>
<polygon fill="#ffffff" stroke="#bfbfbf" points="778,-62 778,-81 868,-81 868,-62 778,-62"/>
<text text-anchor="middle" x="823" y="-69" font-family="Helvetica,sans-Serif" font-size="10.00" fill="#000000">llvm/IR/Module.h</text>
</g>
<!-- Node6&#45;&gt;Node15 -->
<g id="edge16" class="edge">
<title>Node6&#45;&gt;Node15</title>
<path fill="none" stroke="#191970" d="M934.375,-123.3906C912.4827,-113.1908 877.6807,-96.9763 852.8073,-85.3875"/>
<polygon fill="#191970" stroke="#191970" points="854.0228,-82.0926 843.4802,-81.0419 851.0665,-88.4377 854.0228,-82.0926"/>
</g>
<!-- Node9 -->
<g id="node10" class="node">
<title>Node9</title>
<polygon fill="#ffffff" stroke="#bfbfbf" points="1265,-.5 1265,-19.5 1317,-19.5 1317,-.5 1265,-.5"/>
<text text-anchor="middle" x="1291" y="-7.5" font-family="Helvetica,sans-Serif" font-size="10.00" fill="#000000">sstream</text>
</g>
<!-- Node8&#45;&gt;Node9 -->
<g id="edge9" class="edge">
<title>Node8&#45;&gt;Node9</title>
<path fill="none" stroke="#191970" d="M1291,-61.8906C1291,-53.3657 1291,-40.6392 1291,-29.9235"/>
<polygon fill="#191970" stroke="#191970" points="1294.5001,-29.7448 1291,-19.7449 1287.5001,-29.7449 1294.5001,-29.7448"/>
</g>
<!-- Node11&#45;&gt;Node12 -->
<g id="edge12" class="edge">
<title>Node11&#45;&gt;Node12</title>
<path fill="none" stroke="#191970" d="M1074.0625,-61.8906C1057.5949,-51.9616 1031.6742,-36.333 1012.5796,-24.8201"/>
<polygon fill="#191970" stroke="#191970" points="1014.1966,-21.7081 1003.8256,-19.5419 1010.5822,-27.7027 1014.1966,-21.7081"/>
</g>
<!-- Node17 -->
<g id="node18" class="node">
<title>Node17</title>
<g id="a_node18"><a xlink:href="Context_8hpp.html" target="_top" xlink:title="Defines the Context class and related functions. ">
<polygon fill="#ffffff" stroke="#000000" points="524,-123.5 524,-142.5 614,-142.5 614,-123.5 524,-123.5"/>
<text text-anchor="middle" x="569" y="-130.5" font-family="Helvetica,sans-Serif" font-size="10.00" fill="#000000">chig/Context.hpp</text>
</a>
</g>
</g>
<!-- Node16&#45;&gt;Node17 -->
<g id="edge19" class="edge">
<title>Node16&#45;&gt;Node17</title>
<path fill="none" stroke="#191970" d="M1050.3336,-235.127C1050.2402,-220.3915 1047.6694,-192.8949 1031,-179 1000.3105,-153.4187 740.0433,-139.8702 624.2117,-135.0603"/>
<polygon fill="#191970" stroke="#191970" points="624.2634,-131.5595 614.1289,-134.6485 623.9777,-138.5537 624.2634,-131.5595"/>
</g>
<!-- Node22 -->
<g id="node23" class="node">
<title>Node22</title>
<g id="a_node23"><a xlink:href="DataType_8hpp.html" target="_top" xlink:title="Defines the DataType class. ">
<polygon fill="#ffffff" stroke="#000000" points="1078,-179.5 1078,-198.5 1176,-198.5 1176,-179.5 1078,-179.5"/>
<text text-anchor="middle" x="1127" y="-186.5" font-family="Helvetica,sans-Serif" font-size="10.00" fill="#000000">chig/DataType.hpp</text>
</a>
</g>
</g>
<!-- Node16&#45;&gt;Node22 -->
<g id="edge33" class="edge">
<title>Node16&#45;&gt;Node22</title>
<path fill="none" stroke="#191970" d="M1063.4124,-235.2455C1075.0057,-226.814 1091.9748,-214.4729 1105.4678,-204.6598"/>
<polygon fill="#191970" stroke="#191970" points="1107.7126,-207.355 1113.7413,-198.6427 1103.5953,-201.6938 1107.7126,-207.355"/>
</g>
<!-- Node23 -->
<g id="node24" class="node">
<title>Node23</title>
<g id="a_node24"><a xlink:href="Result_8hpp.html" target="_top" xlink:title="Defines the Result class and related functions. ">
<polygon fill="#ffffff" stroke="#000000" points="1162,-123.5 1162,-142.5 1246,-142.5 1246,-123.5 1162,-123.5"/>
<text text-anchor="middle" x="1204" y="-130.5" font-family="Helvetica,sans-Serif" font-size="10.00" fill="#000000">chig/Result.hpp</text>
</a>
</g>
</g>
<!-- Node16&#45;&gt;Node23 -->
<g id="edge36" class="edge">
<title>Node16&#45;&gt;Node23</title>
<path fill="none" stroke="#191970" d="M1100.7697,-239.2748C1129.1207,-233.533 1163.0492,-222.033 1185,-199 1196.7993,-186.619 1201.3411,-167.3922 1203.0539,-152.878"/>
<polygon fill="#191970" stroke="#191970" points="1206.5437,-153.1448 1203.8856,-142.8889 1199.5679,-152.5639 1206.5437,-153.1448"/>
</g>
<!-- Node24 -->
<g id="node25" class="node">
<title>Node24</title>
<polygon fill="#ffffff" stroke="#bfbfbf" points="1232.5,-179.5 1232.5,-198.5 1279.5,-198.5 1279.5,-179.5 1232.5,-179.5"/>
<text text-anchor="middle" x="1256" y="-186.5" font-family="Helvetica,sans-Serif" font-size="10.00" fill="#000000">iterator</text>
</g>
<!-- Node16&#45;&gt;Node24 -->
<g id="edge40" class="edge">
<title>Node16&#45;&gt;Node24</title>
<path fill="none" stroke="#191970" d="M1085.4127,-235.3733C1123.7925,-224.9399 1184.588,-208.413 1222.2891,-198.1641"/>
<polygon fill="#191970" stroke="#191970" points="1223.5409,-201.4509 1232.2726,-195.4502 1221.7046,-194.6961 1223.5409,-201.4509"/>
</g>
<!-- Node25 -->
<g id="node26" class="node">
<title>Node25</title>
<polygon fill="#ffffff" stroke="#bfbfbf" points="1298,-179.5 1298,-198.5 1338,-198.5 1338,-179.5 1298,-179.5"/>
<text text-anchor="middle" x="1318" y="-186.5" font-family="Helvetica,sans-Serif" font-size="10.00" fill="#000000">utility</text>
</g>
<!-- Node16&#45;&gt;Node25 -->
<g id="edge41" class="edge">
<title>Node16&#45;&gt;Node25</title>
<path fill="none" stroke="#191970" d="M1100.8287,-237.366C1147.3501,-229.8978 1218.191,-217.3198 1287.9921,-198.9889"/>
<polygon fill="#191970" stroke="#191970" points="1289.0717,-202.3234 1297.8317,-196.3641 1287.2675,-195.5599 1289.0717,-202.3234"/>
</g>
<!-- Node26 -->
<g id="node27" class="node">
<title>Node26</title>
<polygon fill="#ffffff" stroke="#bfbfbf" points="708,-179.5 708,-198.5 806,-198.5 806,-179.5 708,-179.5"/>
<text text-anchor="middle" x="757" y="-186.5" font-family="Helvetica,sans-Serif" font-size="10.00" fill="#000000">llvm/IR/DIBuilder.h</text>
</g>
<!-- Node16&#45;&gt;Node26 -->
<g id="edge42" class="edge">
<title>Node16&#45;&gt;Node26</title>
<path fill="none" stroke="#191970" d="M999.9644,-235.4369C949.1395,-225.7229 870.4299,-210.6794 816.4542,-200.3633"/>
<polygon fill="#191970" stroke="#191970" points="816.8198,-196.8698 806.3405,-198.4303 815.5056,-203.7454 816.8198,-196.8698"/>
</g>
<!-- Node27 -->
<g id="node28" class="node">
<title>Node27</title>
<polygon fill="#ffffff" stroke="#bfbfbf" points="824,-179.5 824,-198.5 920,-198.5 920,-179.5 824,-179.5"/>
<text text-anchor="middle" x="872" y="-186.5" font-family="Helvetica,sans-Serif" font-size="10.00" fill="#000000">llvm/IR/Function.h</text>
</g>
<!-- Node16&#45;&gt;Node27 -->
<g id="edge43" class="edge">
<title>Node16&#45;&gt;Node27</title>
<path fill="none" stroke="#191970" d="M1019.4007,-235.3733C989.6739,-226.021 944.3841,-211.7725 911.8544,-201.5385"/>
<polygon fill="#191970" stroke="#191970" points="912.7895,-198.1636 902.2,-198.5011 910.6887,-204.8409 912.7895,-198.1636"/>
</g>
<!-- Node28 -->
<g id="node29" class="node">
<title>Node28</title>
<polygon fill="#ffffff" stroke="#bfbfbf" points="938.5,-179.5 938.5,-198.5 1021.5,-198.5 1021.5,-179.5 938.5,-179.5"/>
<text text-anchor="middle" x="980" y="-186.5" font-family="Helvetica,sans-Serif" font-size="10.00" fill="#000000">llvm/IR/Value.h</text>
</g>
<!-- Node16&#45;&gt;Node28 -->
<g id="edge44" class="edge">
<title>Node16&#45;&gt;Node28</title>
<path fill="none" stroke="#191970" d="M1037.8069,-235.2455C1027.3679,-226.8943 1012.1345,-214.7076 999.926,-204.9408"/>
<polygon fill="#191970" stroke="#191970" points="1002.0485,-202.1566 992.0533,-198.6427 997.6756,-207.6227 1002.0485,-202.1566"/>
</g>
<!-- Node17&#45;&gt;Node2 -->
<g id="edge20" class="edge">
<title>Node17&#45;&gt;Node2</title>
<path fill="none" stroke="#191970" d="M523.8822,-130.8012C416.4572,-125.2623 148.0087,-109.5511 61,-87 58.666,-86.3951 56.2906,-85.6503 53.9324,-84.8174"/>
<polygon fill="#191970" stroke="#191970" points="55.0695,-81.5026 44.4851,-81.0306 52.465,-88 55.0695,-81.5026"/>
</g>
<!-- Node17&#45;&gt;Node4 -->
<g id="edge21" class="edge">
<title>Node17&#45;&gt;Node4</title>
<path fill="none" stroke="#191970" d="M523.8195,-130.5754C448.4044,-125.9292 292.3824,-113.7576 163,-87 158.769,-86.125 154.3851,-85.0536 150.0446,-83.8866"/>
<polygon fill="#191970" stroke="#191970" points="150.6653,-80.4238 140.0882,-81.0374 148.7393,-87.1536 150.6653,-80.4238"/>
</g>
<!-- Node17&#45;&gt;Node7 -->
<g id="edge23" class="edge">
<title>Node17&#45;&gt;Node7</title>
<path fill="none" stroke="#191970" d="M523.8413,-128.3876C463.3082,-121.7259 352.7299,-107.8742 260,-87 255.8866,-86.074 251.6218,-84.9867 247.39,-83.8247"/>
<polygon fill="#191970" stroke="#191970" points="248.2402,-80.4274 237.6619,-81.019 246.3003,-87.1532 248.2402,-80.4274"/>
</g>
<!-- Node17&#45;&gt;Node8 -->
<g id="edge24" class="edge">
<title>Node17&#45;&gt;Node8</title>
<path fill="none" stroke="#191970" d="M614.2364,-131.096C744.0122,-125.4407 1115.9163,-107.8327 1236,-87 1241.0629,-86.1217 1246.3286,-84.9642 1251.5079,-83.6766"/>
<polygon fill="#191970" stroke="#191970" points="1252.519,-87.0294 1261.285,-81.079 1250.7216,-80.2641 1252.519,-87.0294"/>
</g>
<!-- Node17&#45;&gt;Node10 -->
<g id="edge25" class="edge">
<title>Node17&#45;&gt;Node10</title>
<path fill="none" stroke="#191970" d="M614.0795,-125.2435C618.7776,-124.4698 623.4841,-123.709 628,-123 738.464,-105.6559 768.2377,-112.9593 877,-87 880.4658,-86.1728 884.0416,-85.196 887.5965,-84.1416"/>
<polygon fill="#191970" stroke="#191970" points="888.9721,-87.3775 897.4509,-81.0244 886.8609,-80.7034 888.9721,-87.3775"/>
</g>
<!-- Node17&#45;&gt;Node12 -->
<g id="edge31" class="edge">
<title>Node17&#45;&gt;Node12</title>
<path fill="none" stroke="#191970" d="M523.7512,-128.6445C449.3114,-121.0187 307.7381,-104.3977 293,-87 284.0944,-76.4873 283.5848,-66.0589 293,-56 314.3984,-33.1385 756.2861,-17.1542 924.1062,-11.8875"/>
<polygon fill="#191970" stroke="#191970" points="924.3942,-15.3804 934.2804,-11.5709 924.1763,-8.3838 924.3942,-15.3804"/>
</g>
<!-- Node17&#45;&gt;Node13 -->
<g id="edge30" class="edge">
<title>Node17&#45;&gt;Node13</title>
<path fill="none" stroke="#191970" d="M614.06,-131.817C735.5352,-128.271 1067.7128,-116.1198 1173,-87 1174.7145,-86.5258 1176.4464,-85.9545 1178.1688,-85.3147"/>
<polygon fill="#191970" stroke="#191970" points="1179.9991,-88.3333 1187.7431,-81.1027 1177.1803,-81.9259 1179.9991,-88.3333"/>
</g>
<!-- Node17&#45;&gt;Node14 -->
<g id="edge22" class="edge">
<title>Node17&#45;&gt;Node14</title>
<path fill="none" stroke="#191970" d="M592.75,-123.3906C618.2939,-113.0554 659.1009,-96.5447 687.811,-84.9284"/>
<polygon fill="#191970" stroke="#191970" points="689.4596,-88.0371 697.4168,-81.0419 686.834,-81.5481 689.4596,-88.0371"/>
</g>
<!-- Node17&#45;&gt;Node15 -->
<g id="edge27" class="edge">
<title>Node17&#45;&gt;Node15</title>
<path fill="none" stroke="#191970" d="M613.6494,-123.4472C654.291,-114.582 715.8755,-100.7232 769,-87 772.8733,-85.9994 776.8917,-84.9216 780.9091,-83.817"/>
<polygon fill="#191970" stroke="#191970" points="782.1247,-87.1113 790.8106,-81.0446 780.2372,-80.3705 782.1247,-87.1113"/>
</g>
<!-- Node18 -->
<g id="node19" class="node">
<title>Node18</title>
<polygon fill="#ffffff" stroke="#bfbfbf" points="302,-62 302,-81 420,-81 420,-62 302,-62"/>
<text text-anchor="middle" x="361" y="-69" font-family="Helvetica,sans-Serif" font-size="10.00" fill="#000000">llvm/IR/LLVMContext.h</text>
</g>
<!-- Node17&#45;&gt;Node18 -->
<g id="edge26" class="edge">
<title>Node17&#45;&gt;Node18</title>
<path fill="none" stroke="#191970" d="M536.5,-123.3906C500.553,-112.7621 442.5173,-95.6025 403.112,-83.9514"/>
<polygon fill="#191970" stroke="#191970" points="403.8538,-80.521 393.2718,-81.0419 401.869,-87.2337 403.8538,-80.521"/>
</g>
<!-- Node19 -->
<g id="node20" class="node">
<title>Node19</title>
<polygon fill="#ffffff" stroke="#bfbfbf" points="1356,-62 1356,-81 1436,-81 1436,-62 1356,-62"/>
<text text-anchor="middle" x="1396" y="-69" font-family="Helvetica,sans-Serif" font-size="10.00" fill="#000000">llvm/IR/Type.h</text>
</g>
<!-- Node17&#45;&gt;Node19 -->
<g id="edge28" class="edge">
<title>Node17&#45;&gt;Node19</title>
<path fill="none" stroke="#191970" d="M614.2112,-131.7946C758.1953,-127.7252 1204.8826,-113.2594 1347,-87 1351.413,-86.1846 1355.9834,-85.0913 1360.479,-83.8607"/>
<polygon fill="#191970" stroke="#191970" points="1361.52,-87.2027 1370.111,-81.0023 1359.5285,-80.492 1361.52,-87.2027"/>
</g>
<!-- Node20 -->
<g id="node21" class="node">
<title>Node20</title>
<polygon fill="#ffffff" stroke="#bfbfbf" points="438.5,-56.5 438.5,-86.5 549.5,-86.5 549.5,-56.5 438.5,-56.5"/>
<text text-anchor="start" x="446.5" y="-74.5" font-family="Helvetica,sans-Serif" font-size="10.00" fill="#000000">llvm/ExecutionEngine</text>
<text text-anchor="middle" x="494" y="-63.5" font-family="Helvetica,sans-Serif" font-size="10.00" fill="#000000">/GenericValue.h</text>
</g>
<!-- Node17&#45;&gt;Node20 -->
<g id="edge29" class="edge">
<title>Node17&#45;&gt;Node20</title>
<path fill="none" stroke="#191970" d="M557.2813,-123.3906C547.4129,-115.2986 532.9277,-103.4207 520.3054,-93.0705"/>
<polygon fill="#191970" stroke="#191970" points="522.2991,-90.179 512.3471,-86.5446 517.8605,-95.5919 522.2991,-90.179"/>
</g>
<!-- Node21 -->
<g id="node22" class="node">
<title>Node21</title>
<polygon fill="#ffffff" stroke="#bfbfbf" points="568,-62 568,-81 664,-81 664,-62 568,-62"/>
<text text-anchor="middle" x="616" y="-69" font-family="Helvetica,sans-Serif" font-size="10.00" fill="#000000">boost/optional.hpp</text>
</g>
<!-- Node17&#45;&gt;Node21 -->
<g id="edge32" class="edge">
<title>Node17&#45;&gt;Node21</title>
<path fill="none" stroke="#191970" d="M576.3438,-123.3906C583.2702,-114.3273 593.826,-100.5149 602.306,-89.4188"/>
<polygon fill="#191970" stroke="#191970" points="605.2615,-91.3155 608.5527,-81.2449 599.6997,-87.065 605.2615,-91.3155"/>
</g>
<!-- Node22&#45;&gt;Node6 -->
<g id="edge34" class="edge">
<title>Node22&#45;&gt;Node6</title>
<path fill="none" stroke="#191970" d="M1097.4321,-179.3733C1068.8312,-170.0613 1025.3212,-155.8953 993.9181,-145.671"/>
<polygon fill="#191970" stroke="#191970" points="994.7743,-142.269 984.182,-142.5011 992.6072,-148.9251 994.7743,-142.269"/>
</g>
<!-- Node22&#45;&gt;Node19 -->
<g id="edge35" class="edge">
<title>Node22&#45;&gt;Node19</title>
<path fill="none" stroke="#191970" d="M1156.8926,-179.4303C1183.0961,-170.7652 1222.0414,-157.2134 1255,-143 1296.0315,-125.3051 1341.9006,-101.1991 1369.8595,-85.9929"/>
<polygon fill="#191970" stroke="#191970" points="1371.8723,-88.8813 1378.9647,-81.0105 1368.512,-82.7405 1371.8723,-88.8813"/>
</g>
<!-- Node23&#45;&gt;Node8 -->
<g id="edge37" class="edge">
<title>Node23&#45;&gt;Node8</title>
<path fill="none" stroke="#191970" d="M1217.5938,-123.3906C1231.3843,-113.6421 1252.9472,-98.3994 1269.141,-86.9521"/>
<polygon fill="#191970" stroke="#191970" points="1271.3563,-89.6723 1277.5017,-81.0419 1267.3156,-83.9563 1271.3563,-89.6723"/>
</g>
<!-- Node23&#45;&gt;Node10 -->
<g id="edge38" class="edge">
<title>Node23&#45;&gt;Node10</title>
<path fill="none" stroke="#191970" d="M1161.9315,-123.7928C1110.5825,-112.5545 1023.9829,-93.6012 970.3477,-81.8626"/>
<polygon fill="#191970" stroke="#191970" points="970.9236,-78.4058 960.4065,-79.6868 969.427,-85.244 970.9236,-78.4058"/>
</g>
<!-- Node23&#45;&gt;Node13 -->
<g id="edge39" class="edge">
<title>Node23&#45;&gt;Node13</title>
<path fill="none" stroke="#191970" d="M1204,-123.3906C1204,-114.8657 1204,-102.1392 1204,-91.4235"/>
<polygon fill="#191970" stroke="#191970" points="1207.5001,-91.2448 1204,-81.2449 1200.5001,-91.2449 1207.5001,-91.2448"/>
</g>
</g>
</svg>
