<?xml version="1.0" encoding="UTF-8" standalone="no"?>
<!DOCTYPE svg PUBLIC "-//W3C//DTD SVG 1.1//EN"
 "http://www.w3.org/Graphics/SVG/1.1/DTD/svg11.dtd">
<!-- Generated by graphviz version 2.40.1 (20161225.0304)
 -->
<!-- Title: libchigraph/include/chi/CModule.hpp Pages: 1 -->
<svg width="1537pt" height="330pt"
 viewBox="0.00 0.00 1537.00 330.00" xmlns="http://www.w3.org/2000/svg" xmlns:xlink="http://www.w3.org/1999/xlink">
<g id="graph0" class="graph" transform="scale(1 1) rotate(0) translate(4 326)">
<title>libchigraph/include/chi/CModule.hpp</title>
<polygon fill="#ffffff" stroke="transparent" points="-4,4 -4,-326 1533,-326 1533,4 -4,4"/>
<!-- Node0 -->
<g id="node1" class="node">
<title>Node0</title>
<polygon fill="#bfbfbf" stroke="#000000" points="453.5,-291.5 453.5,-321.5 550.5,-321.5 550.5,-291.5 453.5,-291.5"/>
<text text-anchor="start" x="461.5" y="-309.5" font-family="Helvetica,sans-Serif" font-size="10.00" fill="#000000">libchigraph/include</text>
<text text-anchor="middle" x="502" y="-298.5" font-family="Helvetica,sans-Serif" font-size="10.00" fill="#000000">/chi/CModule.hpp</text>
</g>
<!-- Node1 -->
<g id="node2" class="node">
<title>Node1</title>
<polygon fill="#ffffff" stroke="#bfbfbf" points="261.5,-235.5 261.5,-254.5 320.5,-254.5 320.5,-235.5 261.5,-235.5"/>
<text text-anchor="middle" x="291" y="-242.5" font-family="Helvetica,sans-Serif" font-size="10.00" fill="#000000">functional</text>
</g>
<!-- Node0&#45;&gt;Node1 -->
<g id="edge1" class="edge">
<title>Node0&#45;&gt;Node1</title>
<path fill="none" stroke="#191970" d="M453.3274,-292.3134C415.9975,-281.4329 365.1374,-266.6088 330.3553,-256.4708"/>
<polygon fill="#191970" stroke="#191970" points="331.1334,-253.0521 320.5534,-253.6139 329.1745,-259.7724 331.1334,-253.0521"/>
</g>
<!-- Node2 -->
<g id="node3" class="node">
<title>Node2</title>
<polygon fill="#ffffff" stroke="#bfbfbf" points="0,-62 0,-81 52,-81 52,-62 0,-62"/>
<text text-anchor="middle" x="26" y="-69" font-family="Helvetica,sans-Serif" font-size="10.00" fill="#000000">memory</text>
</g>
<!-- Node0&#45;&gt;Node2 -->
<g id="edge2" class="edge">
<title>Node0&#45;&gt;Node2</title>
<path fill="none" stroke="#191970" d="M471.5,-291.4422C384.9502,-248.7128 138.6478,-127.114 54.5503,-85.5952"/>
<polygon fill="#191970" stroke="#191970" points="55.8601,-82.3386 45.3439,-81.05 52.7613,-88.6153 55.8601,-82.3386"/>
</g>
<!-- Node3 -->
<g id="node4" class="node">
<title>Node3</title>
<polygon fill="#ffffff" stroke="#bfbfbf" points="895.5,-235.5 895.5,-254.5 936.5,-254.5 936.5,-235.5 895.5,-235.5"/>
<text text-anchor="middle" x="916" y="-242.5" font-family="Helvetica,sans-Serif" font-size="10.00" fill="#000000">string</text>
</g>
<!-- Node0&#45;&gt;Node3 -->
<g id="edge3" class="edge">
<title>Node0&#45;&gt;Node3</title>
<path fill="none" stroke="#191970" d="M550.5793,-303.1196C622.2153,-297.4556 760.3667,-283.9412 885.1319,-255.0919"/>
<polygon fill="#191970" stroke="#191970" points="886.3047,-258.4116 895.2372,-252.7142 884.7014,-251.5977 886.3047,-258.4116"/>
</g>
<!-- Node4 -->
<g id="node5" class="node">
<title>Node4</title>
<polygon fill="#ffffff" stroke="#bfbfbf" points="70.5,-62 70.5,-81 153.5,-81 153.5,-62 70.5,-62"/>
<text text-anchor="middle" x="112" y="-69" font-family="Helvetica,sans-Serif" font-size="10.00" fill="#000000">unordered_map</text>
</g>
<!-- Node0&#45;&gt;Node4 -->
<g id="edge4" class="edge">
<title>Node0&#45;&gt;Node4</title>
<path fill="none" stroke="#191970" d="M492.5181,-291.3296C467.2771,-251.4207 397.9925,-145.0578 363,-123 361.9344,-122.3283 236.5907,-96.7988 163.4594,-81.9424"/>
<polygon fill="#191970" stroke="#191970" points="164.0017,-78.4812 153.5051,-79.9207 162.6084,-85.3411 164.0017,-78.4812"/>
</g>
<!-- Node5 -->
<g id="node6" class="node">
<title>Node5</title>
<polygon fill="#ffffff" stroke="#bfbfbf" points="955,-235.5 955,-254.5 999,-254.5 999,-235.5 955,-235.5"/>
<text text-anchor="middle" x="977" y="-242.5" font-family="Helvetica,sans-Serif" font-size="10.00" fill="#000000">vector</text>
</g>
<!-- Node0&#45;&gt;Node5 -->
<g id="edge5" class="edge">
<title>Node0&#45;&gt;Node5</title>
<path fill="none" stroke="#191970" d="M550.8022,-303.982C631.2543,-299.1492 796.7308,-286.3352 944.6265,-254.9354"/>
<polygon fill="#191970" stroke="#191970" points="945.7555,-258.2724 954.792,-252.7415 944.2787,-251.43 945.7555,-258.2724"/>
</g>
<!-- Node6 -->
<g id="node7" class="node">
<title>Node6</title>
<g id="a_node7"><a xlink:href="ChiModule_8hpp.html" target="_top" xlink:title="Defines the ChiModule class. ">
<polygon fill="#ffffff" stroke="#000000" points="453.5,-123.5 453.5,-142.5 550.5,-142.5 550.5,-123.5 453.5,-123.5"/>
<text text-anchor="middle" x="502" y="-130.5" font-family="Helvetica,sans-Serif" font-size="10.00" fill="#000000">chi/ChiModule.hpp</text>
</a>
</g>
</g>
<!-- Node0&#45;&gt;Node6 -->
<g id="edge6" class="edge">
<title>Node0&#45;&gt;Node6</title>
<path fill="none" stroke="#191970" d="M502,-291.4065C502,-260.1485 502,-188.3214 502,-153.1492"/>
<polygon fill="#191970" stroke="#191970" points="505.5001,-152.738 502,-142.738 498.5001,-152.738 505.5001,-152.738"/>
</g>
<!-- Node7 -->
<g id="node8" class="node">
<title>Node7</title>
<g id="a_node8"><a xlink:href="Fwd_8hpp.html" target="_top" xlink:title="Forward declares all the chigraph data types. ">
<polygon fill="#ffffff" stroke="#000000" points="210.5,-62 210.5,-81 279.5,-81 279.5,-62 210.5,-62"/>
<text text-anchor="middle" x="245" y="-69" font-family="Helvetica,sans-Serif" font-size="10.00" fill="#000000">chi/Fwd.hpp</text>
</a>
</g>
</g>
<!-- Node0&#45;&gt;Node7 -->
<g id="edge17" class="edge">
<title>Node0&#45;&gt;Node7</title>
<path fill="none" stroke="#191970" d="M497.9045,-291.4276C487.6492,-256.5287 457.5444,-169.6034 401,-123 360.652,-89.7455 338.5514,-103.6879 289,-87 286.5822,-86.1858 284.0933,-85.3372 281.5873,-84.4751"/>
<polygon fill="#191970" stroke="#191970" points="282.5465,-81.1032 271.9517,-81.127 280.2489,-87.7154 282.5465,-81.1032"/>
</g>
<!-- Node12 -->
<g id="node13" class="node">
<title>Node12</title>
<polygon fill="#ffffff" stroke="#bfbfbf" points="774.5,-62 774.5,-81 843.5,-81 843.5,-62 774.5,-62"/>
<text text-anchor="middle" x="809" y="-69" font-family="Helvetica,sans-Serif" font-size="10.00" fill="#000000">chi/json.hpp</text>
</g>
<!-- Node0&#45;&gt;Node12 -->
<g id="edge46" class="edge">
<title>Node0&#45;&gt;Node12</title>
<path fill="none" stroke="#191970" d="M510.4079,-291.394C525.3836,-265.5884 558.899,-212.5563 599,-179 652.4404,-134.2814 727.6001,-101.5217 772.0078,-84.5764"/>
<polygon fill="#191970" stroke="#191970" points="773.3985,-87.793 781.5331,-81.0048 770.9408,-81.2386 773.3985,-87.793"/>
</g>
<!-- Node16 -->
<g id="node17" class="node">
<title>Node16</title>
<g id="a_node17"><a xlink:href="NodeType_8hpp.html" target="_top" xlink:title="Defines the NodeType class. ">
<polygon fill="#ffffff" stroke="#000000" points="782.5,-235.5 782.5,-254.5 877.5,-254.5 877.5,-235.5 782.5,-235.5"/>
<text text-anchor="middle" x="830" y="-242.5" font-family="Helvetica,sans-Serif" font-size="10.00" fill="#000000">chi/NodeType.hpp</text>
</a>
</g>
</g>
<!-- Node0&#45;&gt;Node16 -->
<g id="edge18" class="edge">
<title>Node0&#45;&gt;Node16</title>
<path fill="none" stroke="#191970" d="M550.7507,-297.3592C609.8328,-286.2813 709.2665,-267.6375 772.1643,-255.8442"/>
<polygon fill="#191970" stroke="#191970" points="773.1322,-259.2238 782.3159,-253.9408 771.8422,-252.3437 773.1322,-259.2238"/>
</g>
<!-- Node6&#45;&gt;Node7 -->
<g id="edge7" class="edge">
<title>Node6&#45;&gt;Node7</title>
<path fill="none" stroke="#191970" d="M453.353,-124.3047C409.9005,-116.11 344.6966,-102.7566 289,-87 286.0556,-86.167 283.022,-85.2423 279.9896,-84.2711"/>
<polygon fill="#191970" stroke="#191970" points="281.0125,-80.9227 270.4186,-81.0659 278.7895,-87.5604 281.0125,-80.9227"/>
</g>
<!-- Node8 -->
<g id="node9" class="node">
<title>Node8</title>
<g id="a_node9"><a xlink:href="HashFilesystemPath_8hpp_source.html" target="_top" xlink:title="chi/HashFilesystemPath.hpp">
<polygon fill="#ffffff" stroke="#000000" points="298,-62 298,-81 440,-81 440,-62 298,-62"/>
<text text-anchor="middle" x="369" y="-69" font-family="Helvetica,sans-Serif" font-size="10.00" fill="#000000">chi/HashFilesystemPath.hpp</text>
</a>
</g>
</g>
<!-- Node6&#45;&gt;Node8 -->
<g id="edge8" class="edge">
<title>Node6&#45;&gt;Node8</title>
<path fill="none" stroke="#191970" d="M481.2188,-123.3906C459.1606,-113.1908 424.095,-96.9763 399.0331,-85.3875"/>
<polygon fill="#191970" stroke="#191970" points="400.1809,-82.0622 389.6353,-81.0419 397.2429,-88.4158 400.1809,-82.0622"/>
</g>
<!-- Node9 -->
<g id="node10" class="node">
<title>Node9</title>
<polygon fill="#ffffff" stroke="#bfbfbf" points="315.5,-.5 315.5,-19.5 422.5,-19.5 422.5,-.5 315.5,-.5"/>
<text text-anchor="middle" x="369" y="-7.5" font-family="Helvetica,sans-Serif" font-size="10.00" fill="#000000">boost/filesystem.hpp</text>
</g>
<!-- Node6&#45;&gt;Node9 -->
<g id="edge13" class="edge">
<title>Node6&#45;&gt;Node9</title>
<path fill="none" stroke="#191970" d="M453.2709,-127.2237C370.1705,-117.141 209.1583,-96.4998 201,-87 166.893,-47.2846 244.5117,-26.9155 305.2907,-17.3652"/>
<polygon fill="#191970" stroke="#191970" points="305.8926,-20.8142 315.2627,-15.8693 304.8541,-13.8916 305.8926,-20.8142"/>
</g>
<!-- Node10 -->
<g id="node11" class="node">
<title>Node10</title>
<g id="a_node11"><a xlink:href="ToString_8hpp_source.html" target="_top" xlink:title="chi/ToString.hpp">
<polygon fill="#ffffff" stroke="#000000" points="900,-62 900,-81 988,-81 988,-62 900,-62"/>
<text text-anchor="middle" x="944" y="-69" font-family="Helvetica,sans-Serif" font-size="10.00" fill="#000000">chi/ToString.hpp</text>
</a>
</g>
</g>
<!-- Node6&#45;&gt;Node10 -->
<g id="edge10" class="edge">
<title>Node6&#45;&gt;Node10</title>
<path fill="none" stroke="#191970" d="M550.6288,-127.2258C618.4596,-119.0352 745.2799,-103.2264 853,-87 864.8855,-85.2096 877.6175,-83.1379 889.6797,-81.1034"/>
<polygon fill="#191970" stroke="#191970" points="890.3509,-84.5396 899.6213,-79.4101 889.1755,-77.6389 890.3509,-84.5396"/>
</g>
<!-- Node6&#45;&gt;Node12 -->
<g id="edge12" class="edge">
<title>Node6&#45;&gt;Node12</title>
<path fill="none" stroke="#191970" d="M550.6869,-124.9329C620.9578,-113.2212 744.6524,-92.3242 765,-87 768.1341,-86.1799 771.363,-85.2377 774.5806,-84.2315"/>
<polygon fill="#191970" stroke="#191970" points="775.7017,-87.5473 784.0932,-81.0793 773.4998,-80.9026 775.7017,-87.5473"/>
</g>
<!-- Node13 -->
<g id="node14" class="node">
<title>Node13</title>
<polygon fill="#ffffff" stroke="#bfbfbf" points="662,-56.5 662,-86.5 756,-86.5 756,-56.5 662,-56.5"/>
<text text-anchor="start" x="670" y="-74.5" font-family="Helvetica,sans-Serif" font-size="10.00" fill="#000000">boost/utility/string</text>
<text text-anchor="middle" x="709" y="-63.5" font-family="Helvetica,sans-Serif" font-size="10.00" fill="#000000">_view.hpp</text>
</g>
<!-- Node6&#45;&gt;Node13 -->
<g id="edge14" class="edge">
<title>Node6&#45;&gt;Node13</title>
<path fill="none" stroke="#191970" d="M534.3438,-123.3906C565.7624,-114.0561 614.1366,-99.6841 652.0153,-88.4302"/>
<polygon fill="#191970" stroke="#191970" points="653.31,-91.6969 661.899,-85.4938 651.3163,-84.9868 653.31,-91.6969"/>
</g>
<!-- Node14 -->
<g id="node15" class="node">
<title>Node14</title>
<polygon fill="#ffffff" stroke="#bfbfbf" points="458,-62 458,-81 536,-81 536,-62 458,-62"/>
<text text-anchor="middle" x="497" y="-69" font-family="Helvetica,sans-Serif" font-size="10.00" fill="#000000">unordered_set</text>
</g>
<!-- Node6&#45;&gt;Node14 -->
<g id="edge15" class="edge">
<title>Node6&#45;&gt;Node14</title>
<path fill="none" stroke="#191970" d="M501.2188,-123.3906C500.5257,-114.8657 499.491,-102.1392 498.6198,-91.4235"/>
<polygon fill="#191970" stroke="#191970" points="502.0912,-90.9283 497.7923,-81.2449 495.1142,-91.4956 502.0912,-90.9283"/>
</g>
<!-- Node15 -->
<g id="node16" class="node">
<title>Node15</title>
<polygon fill="#ffffff" stroke="#bfbfbf" points="554,-62 554,-81 644,-81 644,-62 554,-62"/>
<text text-anchor="middle" x="599" y="-69" font-family="Helvetica,sans-Serif" font-size="10.00" fill="#000000">llvm/IR/Module.h</text>
</g>
<!-- Node6&#45;&gt;Node15 -->
<g id="edge16" class="edge">
<title>Node6&#45;&gt;Node15</title>
<path fill="none" stroke="#191970" d="M517.1563,-123.3906C532.6743,-113.5519 557.0193,-98.1167 575.1284,-86.6351"/>
<polygon fill="#191970" stroke="#191970" points="577.3787,-89.3526 583.9502,-81.0419 573.6304,-83.4407 577.3787,-89.3526"/>
</g>
<!-- Node8&#45;&gt;Node9 -->
<g id="edge9" class="edge">
<title>Node8&#45;&gt;Node9</title>
<path fill="none" stroke="#191970" d="M369,-61.8906C369,-53.3657 369,-40.6392 369,-29.9235"/>
<polygon fill="#191970" stroke="#191970" points="372.5001,-29.7448 369,-19.7449 365.5001,-29.7449 372.5001,-29.7448"/>
</g>
<!-- Node11 -->
<g id="node12" class="node">
<title>Node11</title>
<polygon fill="#ffffff" stroke="#bfbfbf" points="918,-.5 918,-19.5 970,-19.5 970,-.5 918,-.5"/>
<text text-anchor="middle" x="944" y="-7.5" font-family="Helvetica,sans-Serif" font-size="10.00" fill="#000000">sstream</text>
</g>
<!-- Node10&#45;&gt;Node11 -->
<g id="edge11" class="edge">
<title>Node10&#45;&gt;Node11</title>
<path fill="none" stroke="#191970" d="M944,-61.8906C944,-53.3657 944,-40.6392 944,-29.9235"/>
<polygon fill="#191970" stroke="#191970" points="947.5001,-29.7448 944,-19.7449 940.5001,-29.7449 947.5001,-29.7448"/>
</g>
<!-- Node17 -->
<g id="node18" class="node">
<title>Node17</title>
<g id="a_node18"><a xlink:href="Context_8hpp.html" target="_top" xlink:title="Defines the Context class and related functions. ">
<polygon fill="#ffffff" stroke="#000000" points="787.5,-123.5 787.5,-142.5 872.5,-142.5 872.5,-123.5 787.5,-123.5"/>
<text text-anchor="middle" x="830" y="-130.5" font-family="Helvetica,sans-Serif" font-size="10.00" fill="#000000">chi/Context.hpp</text>
</a>
</g>
</g>
<!-- Node16&#45;&gt;Node17 -->
<g id="edge19" class="edge">
<title>Node16&#45;&gt;Node17</title>
<path fill="none" stroke="#191970" d="M830,-235.4509C830,-217.184 830,-176.9553 830,-152.6976"/>
<polygon fill="#191970" stroke="#191970" points="833.5001,-152.5249 830,-142.5249 826.5001,-152.5249 833.5001,-152.5249"/>
</g>
<!-- Node23 -->
<g id="node24" class="node">
<title>Node23</title>
<g id="a_node24"><a xlink:href="DataType_8hpp.html" target="_top" xlink:title="Defines the DataType class. ">
<polygon fill="#ffffff" stroke="#000000" points="708.5,-179.5 708.5,-198.5 801.5,-198.5 801.5,-179.5 708.5,-179.5"/>
<text text-anchor="middle" x="755" y="-186.5" font-family="Helvetica,sans-Serif" font-size="10.00" fill="#000000">chi/DataType.hpp</text>
</a>
</g>
</g>
<!-- Node16&#45;&gt;Node23 -->
<g id="edge34" class="edge">
<title>Node16&#45;&gt;Node23</title>
<path fill="none" stroke="#191970" d="M816.936,-235.2455C805.6438,-226.814 789.1155,-214.4729 775.9729,-204.6598"/>
<polygon fill="#191970" stroke="#191970" points="778.0211,-201.8211 767.9143,-198.6427 773.8331,-207.4301 778.0211,-201.8211"/>
</g>
<!-- Node24 -->
<g id="node25" class="node">
<title>Node24</title>
<g id="a_node25"><a xlink:href="Result_8hpp.html" target="_top" xlink:title="Defines the Result class and related functions. ">
<polygon fill="#ffffff" stroke="#000000" points="899.5,-123.5 899.5,-142.5 978.5,-142.5 978.5,-123.5 899.5,-123.5"/>
<text text-anchor="middle" x="939" y="-130.5" font-family="Helvetica,sans-Serif" font-size="10.00" fill="#000000">chi/Result.hpp</text>
</a>
</g>
</g>
<!-- Node16&#45;&gt;Node24 -->
<g id="edge37" class="edge">
<title>Node16&#45;&gt;Node24</title>
<path fill="none" stroke="#191970" d="M837.9265,-235.2899C848.798,-222.1366 869.1393,-198.1061 888,-179 898.209,-168.6581 910.2565,-157.7375 920.0782,-149.1331"/>
<polygon fill="#191970" stroke="#191970" points="922.4511,-151.7082 927.7156,-142.5138 917.8665,-146.4184 922.4511,-151.7082"/>
</g>
<!-- Node25 -->
<g id="node26" class="node">
<title>Node25</title>
<polygon fill="#ffffff" stroke="#bfbfbf" points="896.5,-179.5 896.5,-198.5 943.5,-198.5 943.5,-179.5 896.5,-179.5"/>
<text text-anchor="middle" x="920" y="-186.5" font-family="Helvetica,sans-Serif" font-size="10.00" fill="#000000">iterator</text>
</g>
<!-- Node16&#45;&gt;Node25 -->
<g id="edge41" class="edge">
<title>Node16&#45;&gt;Node25</title>
<path fill="none" stroke="#191970" d="M845.6768,-235.2455C859.4856,-226.6534 879.8193,-214.0014 895.7292,-204.1018"/>
<polygon fill="#191970" stroke="#191970" points="897.8613,-206.8974 904.5028,-198.6427 894.1632,-200.954 897.8613,-206.8974"/>
</g>
<!-- Node26 -->
<g id="node27" class="node">
<title>Node26</title>
<polygon fill="#ffffff" stroke="#bfbfbf" points="962,-179.5 962,-198.5 1002,-198.5 1002,-179.5 962,-179.5"/>
<text text-anchor="middle" x="982" y="-186.5" font-family="Helvetica,sans-Serif" font-size="10.00" fill="#000000">utility</text>
</g>
<!-- Node16&#45;&gt;Node26 -->
<g id="edge42" class="edge">
<title>Node16&#45;&gt;Node26</title>
<path fill="none" stroke="#191970" d="M856.1297,-235.3733C882.7399,-225.5695 923.9539,-210.3854 951.9112,-200.0854"/>
<polygon fill="#191970" stroke="#191970" points="953.3864,-203.2719 961.5598,-196.5306 950.9664,-196.7035 953.3864,-203.2719"/>
</g>
<!-- Node27 -->
<g id="node28" class="node">
<title>Node27</title>
<polygon fill="#ffffff" stroke="#bfbfbf" points="1020,-179.5 1020,-198.5 1118,-198.5 1118,-179.5 1020,-179.5"/>
<text text-anchor="middle" x="1069" y="-186.5" font-family="Helvetica,sans-Serif" font-size="10.00" fill="#000000">llvm/IR/DIBuilder.h</text>
</g>
<!-- Node16&#45;&gt;Node27 -->
<g id="edge43" class="edge">
<title>Node16&#45;&gt;Node27</title>
<path fill="none" stroke="#191970" d="M870.814,-235.4369C911.6311,-225.8731 974.4959,-211.1432 1018.4472,-200.845"/>
<polygon fill="#191970" stroke="#191970" points="1019.4165,-204.2128 1028.3543,-198.5237 1017.8195,-197.3973 1019.4165,-204.2128"/>
</g>
<!-- Node28 -->
<g id="node29" class="node">
<title>Node28</title>
<polygon fill="#ffffff" stroke="#bfbfbf" points="1136,-179.5 1136,-198.5 1232,-198.5 1232,-179.5 1136,-179.5"/>
<text text-anchor="middle" x="1184" y="-186.5" font-family="Helvetica,sans-Serif" font-size="10.00" fill="#000000">llvm/IR/Function.h</text>
</g>
<!-- Node16&#45;&gt;Node28 -->
<g id="edge44" class="edge">
<title>Node16&#45;&gt;Node28</title>
<path fill="none" stroke="#191970" d="M877.5708,-236.5634C880.7604,-236.0258 883.9259,-235.5001 887,-235 990.3413,-218.187 1018.8849,-216.4137 1125.9037,-199.147"/>
<polygon fill="#191970" stroke="#191970" points="1126.5013,-202.5959 1135.8121,-197.5405 1125.3809,-195.6862 1126.5013,-202.5959"/>
</g>
<!-- Node29 -->
<g id="node30" class="node">
<title>Node29</title>
<polygon fill="#ffffff" stroke="#bfbfbf" points="607.5,-179.5 607.5,-198.5 690.5,-198.5 690.5,-179.5 607.5,-179.5"/>
<text text-anchor="middle" x="649" y="-186.5" font-family="Helvetica,sans-Serif" font-size="10.00" fill="#000000">llvm/IR/Value.h</text>
</g>
<!-- Node16&#45;&gt;Node29 -->
<g id="edge45" class="edge">
<title>Node16&#45;&gt;Node29</title>
<path fill="none" stroke="#191970" d="M798.885,-235.3733C768.6571,-226.021 722.604,-211.7725 689.5261,-201.5385"/>
<polygon fill="#191970" stroke="#191970" points="690.2967,-198.1133 679.709,-198.5011 688.2277,-204.8005 690.2967,-198.1133"/>
</g>
<!-- Node17&#45;&gt;Node2 -->
<g id="edge20" class="edge">
<title>Node17&#45;&gt;Node2</title>
<path fill="none" stroke="#191970" d="M787.3278,-131.3359C636.1858,-125.3196 131.5874,-104.1485 61,-87 58.657,-86.4308 56.2752,-85.7116 53.9125,-84.8964"/>
<polygon fill="#191970" stroke="#191970" points="55.0428,-81.5794 44.457,-81.1426 52.46,-88.0855 55.0428,-81.5794"/>
</g>
<!-- Node17&#45;&gt;Node4 -->
<g id="edge21" class="edge">
<title>Node17&#45;&gt;Node4</title>
<path fill="none" stroke="#191970" d="M787.1471,-131.3371C685.2346,-127.0621 420.5126,-114.0735 201,-87 188.839,-85.5001 175.8118,-83.4722 163.5795,-81.3781"/>
<polygon fill="#191970" stroke="#191970" points="163.9825,-77.8954 153.5279,-79.6137 162.7722,-84.79 163.9825,-77.8954"/>
</g>
<!-- Node17&#45;&gt;Node7 -->
<g id="edge23" class="edge">
<title>Node17&#45;&gt;Node7</title>
<path fill="none" stroke="#191970" d="M787.4139,-130.7783C677.0983,-124.7995 384.0368,-107.4314 289,-87 285.5705,-86.2627 282.0419,-85.3312 278.546,-84.2923"/>
<polygon fill="#191970" stroke="#191970" points="279.4818,-80.9163 268.8896,-81.1523 277.3171,-87.5732 279.4818,-80.9163"/>
</g>
<!-- Node17&#45;&gt;Node9 -->
<g id="edge32" class="edge">
<title>Node17&#45;&gt;Node9</title>
<path fill="none" stroke="#191970" d="M837.9376,-123.4405C850.1901,-107.4906 870.5537,-75.3012 853,-56 825.2775,-25.5178 558.2692,-14.7741 433.1275,-11.3919"/>
<polygon fill="#191970" stroke="#191970" points="433.0067,-7.8876 422.9183,-11.1238 432.8229,-14.8852 433.0067,-7.8876"/>
</g>
<!-- Node17&#45;&gt;Node10 -->
<g id="edge24" class="edge">
<title>Node17&#45;&gt;Node10</title>
<path fill="none" stroke="#191970" d="M847.8125,-123.3906C866.4685,-113.3262 895.9797,-97.4057 917.3974,-85.8514"/>
<polygon fill="#191970" stroke="#191970" points="919.1734,-88.8702 926.3126,-81.0419 915.8498,-82.7095 919.1734,-88.8702"/>
</g>
<!-- Node17&#45;&gt;Node12 -->
<g id="edge25" class="edge">
<title>Node17&#45;&gt;Node12</title>
<path fill="none" stroke="#191970" d="M826.7188,-123.3906C823.7465,-114.6862 819.2786,-101.6015 815.573,-90.7494"/>
<polygon fill="#191970" stroke="#191970" points="818.8712,-89.5773 812.3275,-81.2449 812.2468,-91.8394 818.8712,-89.5773"/>
</g>
<!-- Node17&#45;&gt;Node13 -->
<g id="edge31" class="edge">
<title>Node17&#45;&gt;Node13</title>
<path fill="none" stroke="#191970" d="M811.0938,-123.3906C794.1872,-114.7976 768.8815,-101.9356 747.6946,-91.1671"/>
<polygon fill="#191970" stroke="#191970" points="749.1004,-87.9555 738.5999,-86.5446 745.9287,-94.1957 749.1004,-87.9555"/>
</g>
<!-- Node17&#45;&gt;Node14 -->
<g id="edge22" class="edge">
<title>Node17&#45;&gt;Node14</title>
<path fill="none" stroke="#191970" d="M787.1069,-128.1457C730.9795,-121.3236 629.7869,-107.4062 545,-87 541.3816,-86.1291 537.6417,-85.1202 533.9203,-84.0431"/>
<polygon fill="#191970" stroke="#191970" points="534.7953,-80.6509 524.2092,-81.0806 532.7527,-87.3462 534.7953,-80.6509"/>
</g>
<!-- Node17&#45;&gt;Node15 -->
<g id="edge28" class="edge">
<title>Node17&#45;&gt;Node15</title>
<path fill="none" stroke="#191970" d="M792.2907,-123.4937C756.4065,-114.378 700.9295,-100.1046 653,-87 649.2441,-85.9731 645.3463,-84.8895 641.4424,-83.7919"/>
<polygon fill="#191970" stroke="#191970" points="642.3781,-80.4193 631.8026,-81.059 640.4688,-87.1539 642.3781,-80.4193"/>
</g>
<!-- Node18 -->
<g id="node19" class="node">
<title>Node18</title>
<polygon fill="#ffffff" stroke="#bfbfbf" points="1005.5,-56.5 1005.5,-86.5 1116.5,-86.5 1116.5,-56.5 1005.5,-56.5"/>
<text text-anchor="start" x="1013.5" y="-74.5" font-family="Helvetica,sans-Serif" font-size="10.00" fill="#000000">llvm/ExecutionEngine</text>
<text text-anchor="middle" x="1061" y="-63.5" font-family="Helvetica,sans-Serif" font-size="10.00" fill="#000000">/GenericValue.h</text>
</g>
<!-- Node17&#45;&gt;Node18 -->
<g id="edge26" class="edge">
<title>Node17&#45;&gt;Node18</title>
<path fill="none" stroke="#191970" d="M865.8403,-123.4581C900.3325,-114.2751 953.3046,-100.1722 995.3612,-88.9753"/>
<polygon fill="#191970" stroke="#191970" points="996.4876,-92.2974 1005.2505,-86.3424 994.6866,-85.533 996.4876,-92.2974"/>
</g>
<!-- Node19 -->
<g id="node20" class="node">
<title>Node19</title>
<polygon fill="#ffffff" stroke="#bfbfbf" points="1135,-62 1135,-81 1253,-81 1253,-62 1135,-62"/>
<text text-anchor="middle" x="1194" y="-69" font-family="Helvetica,sans-Serif" font-size="10.00" fill="#000000">llvm/IR/LLVMContext.h</text>
</g>
<!-- Node17&#45;&gt;Node19 -->
<g id="edge27" class="edge">
<title>Node17&#45;&gt;Node19</title>
<path fill="none" stroke="#191970" d="M872.6519,-125.9495C878.8067,-124.949 885.0644,-123.9411 891,-123 995.3592,-106.453 1022.2001,-106.7541 1126,-87 1131.8675,-85.8834 1137.9986,-84.6215 1144.0738,-83.312"/>
<polygon fill="#191970" stroke="#191970" points="1145.1778,-86.6526 1154.1888,-81.0802 1143.6695,-79.8171 1145.1778,-86.6526"/>
</g>
<!-- Node20 -->
<g id="node21" class="node">
<title>Node20</title>
<polygon fill="#ffffff" stroke="#bfbfbf" points="1449,-62 1449,-81 1529,-81 1529,-62 1449,-62"/>
<text text-anchor="middle" x="1489" y="-69" font-family="Helvetica,sans-Serif" font-size="10.00" fill="#000000">llvm/IR/Type.h</text>
</g>
<!-- Node17&#45;&gt;Node20 -->
<g id="edge29" class="edge">
<title>Node17&#45;&gt;Node20</title>
<path fill="none" stroke="#191970" d="M872.5875,-125.4778C878.7518,-124.5465 885.0293,-123.6835 891,-123 1133.9373,-95.1883 1199.6901,-132.2013 1440,-87 1444.2418,-86.2021 1448.6302,-85.1523 1452.9583,-83.9743"/>
<polygon fill="#191970" stroke="#191970" points="1454.2524,-87.2416 1462.8505,-81.0511 1452.2685,-80.5286 1454.2524,-87.2416"/>
</g>
<!-- Node21 -->
<g id="node22" class="node">
<title>Node21</title>
<polygon fill="#ffffff" stroke="#bfbfbf" points="1385.5,-62 1385.5,-81 1430.5,-81 1430.5,-62 1385.5,-62"/>
<text text-anchor="middle" x="1408" y="-69" font-family="Helvetica,sans-Serif" font-size="10.00" fill="#000000">gsl/gsl</text>
</g>
<!-- Node17&#45;&gt;Node21 -->
<g id="edge30" class="edge">
<title>Node17&#45;&gt;Node21</title>
<path fill="none" stroke="#191970" d="M872.593,-125.5248C878.7565,-124.5867 885.0323,-123.7092 891,-123 1105.6381,-97.4914 1167.2603,-143.1064 1376,-87 1377.9225,-86.4832 1379.8685,-85.8507 1381.8016,-85.1397"/>
<polygon fill="#191970" stroke="#191970" points="1383.3848,-88.2689 1391.19,-81.1045 1380.6206,-81.8378 1383.3848,-88.2689"/>
</g>
<!-- Node22 -->
<g id="node23" class="node">
<title>Node22</title>
<polygon fill="#ffffff" stroke="#bfbfbf" points="1271,-62 1271,-81 1367,-81 1367,-62 1271,-62"/>
<text text-anchor="middle" x="1319" y="-69" font-family="Helvetica,sans-Serif" font-size="10.00" fill="#000000">boost/optional.hpp</text>
</g>
<!-- Node17&#45;&gt;Node22 -->
<g id="edge33" class="edge">
<title>Node17&#45;&gt;Node22</title>
<path fill="none" stroke="#191970" d="M872.6084,-125.6485C878.7696,-124.6922 885.0407,-123.7767 891,-123 1055.2738,-101.5883 1099.0465,-116.8413 1262,-87 1267.102,-86.0657 1272.413,-84.8955 1277.6512,-83.6192"/>
<polygon fill="#191970" stroke="#191970" points="1278.7491,-86.9507 1287.5607,-81.0679 1277.0038,-80.1718 1278.7491,-86.9507"/>
</g>
<!-- Node23&#45;&gt;Node6 -->
<g id="edge35" class="edge">
<title>Node23&#45;&gt;Node6</title>
<path fill="none" stroke="#191970" d="M711.7952,-179.4369C668.4053,-169.8328 601.4791,-155.0191 554.9274,-144.7152"/>
<polygon fill="#191970" stroke="#191970" points="555.5467,-141.2676 545.0266,-142.5237 554.0338,-148.1022 555.5467,-141.2676"/>
</g>
<!-- Node23&#45;&gt;Node20 -->
<g id="edge36" class="edge">
<title>Node23&#45;&gt;Node20</title>
<path fill="none" stroke="#191970" d="M801.5769,-184.6393C912.9565,-173.6552 1203.0686,-141.7499 1440,-87 1443.8509,-86.1101 1447.8362,-85.0642 1451.7941,-83.9427"/>
<polygon fill="#191970" stroke="#191970" points="1452.9056,-87.2635 1461.4839,-81.0456 1450.9004,-80.5569 1452.9056,-87.2635"/>
</g>
<!-- Node24&#45;&gt;Node10 -->
<g id="edge38" class="edge">
<title>Node24&#45;&gt;Node10</title>
<path fill="none" stroke="#191970" d="M939.7813,-123.3906C940.4743,-114.8657 941.509,-102.1392 942.3802,-91.4235"/>
<polygon fill="#191970" stroke="#191970" points="945.8858,-91.4956 943.2077,-81.2449 938.9088,-90.9283 945.8858,-91.4956"/>
</g>
<!-- Node24&#45;&gt;Node12 -->
<g id="edge39" class="edge">
<title>Node24&#45;&gt;Node12</title>
<path fill="none" stroke="#191970" d="M918.6875,-123.3906C897.1269,-113.1908 862.8522,-96.9763 838.3556,-85.3875"/>
<polygon fill="#191970" stroke="#191970" points="839.7061,-82.1545 829.1699,-81.0419 836.7126,-88.4822 839.7061,-82.1545"/>
</g>
<!-- Node24&#45;&gt;Node21 -->
<g id="edge40" class="edge">
<title>Node24&#45;&gt;Node21</title>
<path fill="none" stroke="#191970" d="M978.5481,-130.5897C1071.5216,-124.6415 1301.7242,-108.1954 1376,-87 1377.9144,-86.4537 1379.8542,-85.7991 1381.7828,-85.0721"/>
<polygon fill="#191970" stroke="#191970" points="1383.3823,-88.1934 1391.1612,-81.0004 1380.5945,-81.7724 1383.3823,-88.1934"/>
</g>
</g>
</svg>
