<?xml version="1.0" encoding="UTF-8" standalone="no"?>
<!DOCTYPE svg PUBLIC "-//W3C//DTD SVG 1.1//EN"
 "http://www.w3.org/Graphics/SVG/1.1/DTD/svg11.dtd">
<!-- Generated by graphviz version 2.40.1 (20161225.0304)
 -->
<!-- Title: libchigraph/include/chi/CModule.hpp Pages: 1 -->
<svg width="1676pt" height="330pt"
 viewBox="0.00 0.00 1676.00 330.00" xmlns="http://www.w3.org/2000/svg" xmlns:xlink="http://www.w3.org/1999/xlink">
<g id="graph0" class="graph" transform="scale(1 1) rotate(0) translate(4 326)">
<title>libchigraph/include/chi/CModule.hpp</title>
<polygon fill="#ffffff" stroke="transparent" points="-4,4 -4,-326 1672,-326 1672,4 -4,4"/>
<!-- Node0 -->
<g id="node1" class="node">
<title>Node0</title>
<polygon fill="#bfbfbf" stroke="#000000" points="503.5,-291.5 503.5,-321.5 600.5,-321.5 600.5,-291.5 503.5,-291.5"/>
<text text-anchor="start" x="511.5" y="-309.5" font-family="Helvetica,sans-Serif" font-size="10.00" fill="#000000">libchigraph/include</text>
<text text-anchor="middle" x="552" y="-298.5" font-family="Helvetica,sans-Serif" font-size="10.00" fill="#000000">/chi/CModule.hpp</text>
</g>
<!-- Node1 -->
<g id="node2" class="node">
<title>Node1</title>
<polygon fill="#ffffff" stroke="#bfbfbf" points="311.5,-235.5 311.5,-254.5 370.5,-254.5 370.5,-235.5 311.5,-235.5"/>
<text text-anchor="middle" x="341" y="-242.5" font-family="Helvetica,sans-Serif" font-size="10.00" fill="#000000">functional</text>
</g>
<!-- Node0&#45;&gt;Node1 -->
<g id="edge1" class="edge">
<title>Node0&#45;&gt;Node1</title>
<path fill="none" stroke="#191970" d="M503.3274,-292.3134C465.9975,-281.4329 415.1374,-266.6088 380.3553,-256.4708"/>
<polygon fill="#191970" stroke="#191970" points="381.1334,-253.0521 370.5534,-253.6139 379.1745,-259.7724 381.1334,-253.0521"/>
</g>
<!-- Node2 -->
<g id="node3" class="node">
<title>Node2</title>
<polygon fill="#ffffff" stroke="#bfbfbf" points="0,-62 0,-81 52,-81 52,-62 0,-62"/>
<text text-anchor="middle" x="26" y="-69" font-family="Helvetica,sans-Serif" font-size="10.00" fill="#000000">memory</text>
</g>
<!-- Node0&#45;&gt;Node2 -->
<g id="edge2" class="edge">
<title>Node0&#45;&gt;Node2</title>
<path fill="none" stroke="#191970" d="M518.2962,-291.4422C422.3638,-248.5827 148.821,-126.3725 56.7052,-85.2181"/>
<polygon fill="#191970" stroke="#191970" points="57.9338,-81.9336 47.3758,-81.05 55.0784,-88.3248 57.9338,-81.9336"/>
</g>
<!-- Node3 -->
<g id="node4" class="node">
<title>Node3</title>
<polygon fill="#ffffff" stroke="#bfbfbf" points="945.5,-235.5 945.5,-254.5 986.5,-254.5 986.5,-235.5 945.5,-235.5"/>
<text text-anchor="middle" x="966" y="-242.5" font-family="Helvetica,sans-Serif" font-size="10.00" fill="#000000">string</text>
</g>
<!-- Node0&#45;&gt;Node3 -->
<g id="edge3" class="edge">
<title>Node0&#45;&gt;Node3</title>
<path fill="none" stroke="#191970" d="M600.5793,-303.1196C672.2153,-297.4556 810.3667,-283.9412 935.1319,-255.0919"/>
<polygon fill="#191970" stroke="#191970" points="936.3047,-258.4116 945.2372,-252.7142 934.7014,-251.5977 936.3047,-258.4116"/>
</g>
<!-- Node4 -->
<g id="node5" class="node">
<title>Node4</title>
<polygon fill="#ffffff" stroke="#bfbfbf" points="70.5,-62 70.5,-81 153.5,-81 153.5,-62 70.5,-62"/>
<text text-anchor="middle" x="112" y="-69" font-family="Helvetica,sans-Serif" font-size="10.00" fill="#000000">unordered_map</text>
</g>
<!-- Node0&#45;&gt;Node4 -->
<g id="edge4" class="edge">
<title>Node0&#45;&gt;Node4</title>
<path fill="none" stroke="#191970" d="M542.589,-291.2133C517.524,-251.0157 448.6375,-143.9998 413,-123 315.906,-65.7863 271.9431,-111.7621 162,-87 158.0726,-86.1155 154.0074,-85.0729 149.9695,-83.9536"/>
<polygon fill="#191970" stroke="#191970" points="150.6636,-80.51 140.083,-81.0592 148.6968,-87.228 150.6636,-80.51"/>
</g>
<!-- Node5 -->
<g id="node6" class="node">
<title>Node5</title>
<polygon fill="#ffffff" stroke="#bfbfbf" points="1005,-235.5 1005,-254.5 1049,-254.5 1049,-235.5 1005,-235.5"/>
<text text-anchor="middle" x="1027" y="-242.5" font-family="Helvetica,sans-Serif" font-size="10.00" fill="#000000">vector</text>
</g>
<!-- Node0&#45;&gt;Node5 -->
<g id="edge5" class="edge">
<title>Node0&#45;&gt;Node5</title>
<path fill="none" stroke="#191970" d="M600.8022,-303.982C681.2543,-299.1492 846.7308,-286.3352 994.6265,-254.9354"/>
<polygon fill="#191970" stroke="#191970" points="995.7555,-258.2724 1004.792,-252.7415 994.2787,-251.43 995.7555,-258.2724"/>
</g>
<!-- Node6 -->
<g id="node7" class="node">
<title>Node6</title>
<g id="a_node7"><a xlink:href="ChiModule_8hpp.html" target="_top" xlink:title="Defines the ChiModule class. ">
<polygon fill="#ffffff" stroke="#000000" points="503.5,-123.5 503.5,-142.5 600.5,-142.5 600.5,-123.5 503.5,-123.5"/>
<text text-anchor="middle" x="552" y="-130.5" font-family="Helvetica,sans-Serif" font-size="10.00" fill="#000000">chi/ChiModule.hpp</text>
</a>
</g>
</g>
<!-- Node0&#45;&gt;Node6 -->
<g id="edge6" class="edge">
<title>Node0&#45;&gt;Node6</title>
<path fill="none" stroke="#191970" d="M552,-291.4065C552,-260.1485 552,-188.3214 552,-153.1492"/>
<polygon fill="#191970" stroke="#191970" points="555.5001,-152.738 552,-142.738 548.5001,-152.738 555.5001,-152.738"/>
</g>
<!-- Node7 -->
<g id="node8" class="node">
<title>Node7</title>
<g id="a_node8"><a xlink:href="Fwd_8hpp.html" target="_top" xlink:title="Forward declares all the chigraph data types. ">
<polygon fill="#ffffff" stroke="#000000" points="171.5,-62 171.5,-81 240.5,-81 240.5,-62 171.5,-62"/>
<text text-anchor="middle" x="206" y="-69" font-family="Helvetica,sans-Serif" font-size="10.00" fill="#000000">chi/Fwd.hpp</text>
</a>
</g>
</g>
<!-- Node0&#45;&gt;Node7 -->
<g id="edge17" class="edge">
<title>Node0&#45;&gt;Node7</title>
<path fill="none" stroke="#191970" d="M548.4492,-291.432C539.2026,-255.7612 510.8282,-165.932 451,-123 377.2651,-70.0887 337.752,-110.1525 250,-87 246.8676,-86.1735 243.6398,-85.2269 240.423,-84.2179"/>
<polygon fill="#191970" stroke="#191970" points="241.505,-80.8893 230.9116,-81.0613 239.3001,-87.533 241.505,-80.8893"/>
</g>
<!-- Node12 -->
<g id="node13" class="node">
<title>Node12</title>
<polygon fill="#ffffff" stroke="#bfbfbf" points="725.5,-62 725.5,-81 794.5,-81 794.5,-62 725.5,-62"/>
<text text-anchor="middle" x="760" y="-69" font-family="Helvetica,sans-Serif" font-size="10.00" fill="#000000">chi/json.hpp</text>
</g>
<!-- Node0&#45;&gt;Node12 -->
<g id="edge47" class="edge">
<title>Node0&#45;&gt;Node12</title>
<path fill="none" stroke="#191970" d="M562.3633,-291.3985C579.3979,-266.9307 614.8445,-217.4831 649,-179 679.4512,-144.6905 718.7477,-108.2518 741.486,-87.8366"/>
<polygon fill="#191970" stroke="#191970" points="743.9346,-90.3425 749.067,-81.0738 739.2748,-85.1189 743.9346,-90.3425"/>
</g>
<!-- Node16 -->
<g id="node17" class="node">
<title>Node16</title>
<g id="a_node17"><a xlink:href="NodeType_8hpp.html" target="_top" xlink:title="Defines the NodeType class. ">
<polygon fill="#ffffff" stroke="#000000" points="832.5,-235.5 832.5,-254.5 927.5,-254.5 927.5,-235.5 832.5,-235.5"/>
<text text-anchor="middle" x="880" y="-242.5" font-family="Helvetica,sans-Serif" font-size="10.00" fill="#000000">chi/NodeType.hpp</text>
</a>
</g>
</g>
<!-- Node0&#45;&gt;Node16 -->
<g id="edge18" class="edge">
<title>Node0&#45;&gt;Node16</title>
<path fill="none" stroke="#191970" d="M600.7507,-297.3592C659.8328,-286.2813 759.2665,-267.6375 822.1643,-255.8442"/>
<polygon fill="#191970" stroke="#191970" points="823.1322,-259.2238 832.3159,-253.9408 821.8422,-252.3437 823.1322,-259.2238"/>
</g>
<!-- Node6&#45;&gt;Node7 -->
<g id="edge7" class="edge">
<title>Node6&#45;&gt;Node7</title>
<path fill="none" stroke="#191970" d="M503.167,-125.2097C498.3807,-124.4578 493.5966,-123.711 489,-123 382.8419,-106.5798 354.236,-112.9618 250,-87 246.7778,-86.1975 243.4592,-85.2544 240.1576,-84.2364"/>
<polygon fill="#191970" stroke="#191970" points="241.0106,-80.8324 230.4175,-81.0234 238.8176,-87.48 241.0106,-80.8324"/>
</g>
<!-- Node8 -->
<g id="node9" class="node">
<title>Node8</title>
<g id="a_node9"><a xlink:href="HashFilesystemPath_8hpp_source.html" target="_top" xlink:title="chi/HashFilesystemPath.hpp">
<polygon fill="#ffffff" stroke="#000000" points="307,-62 307,-81 449,-81 449,-62 307,-62"/>
<text text-anchor="middle" x="378" y="-69" font-family="Helvetica,sans-Serif" font-size="10.00" fill="#000000">chi/HashFilesystemPath.hpp</text>
</a>
</g>
</g>
<!-- Node6&#45;&gt;Node8 -->
<g id="edge8" class="edge">
<title>Node6&#45;&gt;Node8</title>
<path fill="none" stroke="#191970" d="M524.8125,-123.3906C495.1883,-112.92 447.6313,-96.1111 414.7082,-84.4745"/>
<polygon fill="#191970" stroke="#191970" points="415.5914,-81.0745 404.9966,-81.0419 413.2586,-87.6744 415.5914,-81.0745"/>
</g>
<!-- Node9 -->
<g id="node10" class="node">
<title>Node9</title>
<polygon fill="#ffffff" stroke="#bfbfbf" points="423.5,-.5 423.5,-19.5 530.5,-19.5 530.5,-.5 423.5,-.5"/>
<text text-anchor="middle" x="477" y="-7.5" font-family="Helvetica,sans-Serif" font-size="10.00" fill="#000000">boost/filesystem.hpp</text>
</g>
<!-- Node6&#45;&gt;Node9 -->
<g id="edge13" class="edge">
<title>Node6&#45;&gt;Node9</title>
<path fill="none" stroke="#191970" d="M535.2937,-123.4264C522.6334,-115.3155 505.7968,-102.5388 496,-87 485.0217,-69.5872 480.386,-46.2521 478.429,-29.8502"/>
<polygon fill="#191970" stroke="#191970" points="481.8999,-29.3789 477.457,-19.7607 474.9321,-30.0502 481.8999,-29.3789"/>
</g>
<!-- Node10 -->
<g id="node11" class="node">
<title>Node10</title>
<g id="a_node11"><a xlink:href="ToString_8hpp_source.html" target="_top" xlink:title="chi/ToString.hpp">
<polygon fill="#ffffff" stroke="#000000" points="1197,-62 1197,-81 1285,-81 1285,-62 1197,-62"/>
<text text-anchor="middle" x="1241" y="-69" font-family="Helvetica,sans-Serif" font-size="10.00" fill="#000000">chi/ToString.hpp</text>
</a>
</g>
</g>
<!-- Node6&#45;&gt;Node10 -->
<g id="edge10" class="edge">
<title>Node6&#45;&gt;Node10</title>
<path fill="none" stroke="#191970" d="M600.5888,-130.8236C729.0013,-124.8578 1075.2379,-107.3283 1188,-87 1192.7616,-86.1416 1197.7056,-85.0192 1202.5751,-83.7704"/>
<polygon fill="#191970" stroke="#191970" points="1203.6693,-87.0995 1212.3833,-81.0732 1201.8132,-80.35 1203.6693,-87.0995"/>
</g>
<!-- Node6&#45;&gt;Node12 -->
<g id="edge12" class="edge">
<title>Node6&#45;&gt;Node12</title>
<path fill="none" stroke="#191970" d="M588.6788,-123.4467C622.0496,-114.5811 672.5772,-100.722 716,-87 718.5895,-86.1817 721.2555,-85.3118 723.9335,-84.418"/>
<polygon fill="#191970" stroke="#191970" points="725.2384,-87.6709 733.5693,-81.1251 722.9747,-81.047 725.2384,-87.6709"/>
</g>
<!-- Node13 -->
<g id="node14" class="node">
<title>Node13</title>
<polygon fill="#ffffff" stroke="#bfbfbf" points="505,-56.5 505,-86.5 599,-86.5 599,-56.5 505,-56.5"/>
<text text-anchor="start" x="513" y="-74.5" font-family="Helvetica,sans-Serif" font-size="10.00" fill="#000000">boost/utility/string</text>
<text text-anchor="middle" x="552" y="-63.5" font-family="Helvetica,sans-Serif" font-size="10.00" fill="#000000">_view.hpp</text>
</g>
<!-- Node6&#45;&gt;Node13 -->
<g id="edge14" class="edge">
<title>Node6&#45;&gt;Node13</title>
<path fill="none" stroke="#191970" d="M552,-123.3906C552,-116.2234 552,-106.0862 552,-96.671"/>
<polygon fill="#191970" stroke="#191970" points="555.5001,-96.5446 552,-86.5446 548.5001,-96.5446 555.5001,-96.5446"/>
</g>
<!-- Node14 -->
<g id="node15" class="node">
<title>Node14</title>
<polygon fill="#ffffff" stroke="#bfbfbf" points="259,-62 259,-81 289,-81 289,-62 259,-62"/>
<text text-anchor="middle" x="274" y="-69" font-family="Helvetica,sans-Serif" font-size="10.00" fill="#000000">set</text>
</g>
<!-- Node6&#45;&gt;Node14 -->
<g id="edge15" class="edge">
<title>Node6&#45;&gt;Node14</title>
<path fill="none" stroke="#191970" d="M503.3768,-125.2501C435.0377,-114.1967 316.7815,-94.4211 298,-87 297.1524,-86.6651 296.3027,-86.2984 295.4558,-85.9062"/>
<polygon fill="#191970" stroke="#191970" points="297.1336,-82.8344 286.6961,-81.0152 293.7211,-88.9462 297.1336,-82.8344"/>
</g>
<!-- Node15 -->
<g id="node16" class="node">
<title>Node15</title>
<polygon fill="#ffffff" stroke="#bfbfbf" points="617,-62 617,-81 707,-81 707,-62 617,-62"/>
<text text-anchor="middle" x="662" y="-69" font-family="Helvetica,sans-Serif" font-size="10.00" fill="#000000">llvm/IR/Module.h</text>
</g>
<!-- Node6&#45;&gt;Node15 -->
<g id="edge16" class="edge">
<title>Node6&#45;&gt;Node15</title>
<path fill="none" stroke="#191970" d="M569.1875,-123.3906C587.1082,-113.3713 615.4095,-97.5483 636.0523,-86.0071"/>
<polygon fill="#191970" stroke="#191970" points="637.9128,-88.9769 644.9332,-81.0419 634.4967,-82.867 637.9128,-88.9769"/>
</g>
<!-- Node8&#45;&gt;Node9 -->
<g id="edge9" class="edge">
<title>Node8&#45;&gt;Node9</title>
<path fill="none" stroke="#191970" d="M393.4688,-61.8906C409.4521,-51.9616 434.6103,-36.333 453.1433,-24.8201"/>
<polygon fill="#191970" stroke="#191970" points="454.9924,-27.7918 461.6399,-19.5419 451.2985,-21.8457 454.9924,-27.7918"/>
</g>
<!-- Node11 -->
<g id="node12" class="node">
<title>Node11</title>
<polygon fill="#ffffff" stroke="#bfbfbf" points="1215,-.5 1215,-19.5 1267,-19.5 1267,-.5 1215,-.5"/>
<text text-anchor="middle" x="1241" y="-7.5" font-family="Helvetica,sans-Serif" font-size="10.00" fill="#000000">sstream</text>
</g>
<!-- Node10&#45;&gt;Node11 -->
<g id="edge11" class="edge">
<title>Node10&#45;&gt;Node11</title>
<path fill="none" stroke="#191970" d="M1241,-61.8906C1241,-53.3657 1241,-40.6392 1241,-29.9235"/>
<polygon fill="#191970" stroke="#191970" points="1244.5001,-29.7448 1241,-19.7449 1237.5001,-29.7449 1244.5001,-29.7448"/>
</g>
<!-- Node17 -->
<g id="node18" class="node">
<title>Node17</title>
<g id="a_node18"><a xlink:href="Context_8hpp.html" target="_top" xlink:title="Defines the Context class and related functions. ">
<polygon fill="#ffffff" stroke="#000000" points="895.5,-123.5 895.5,-142.5 980.5,-142.5 980.5,-123.5 895.5,-123.5"/>
<text text-anchor="middle" x="938" y="-130.5" font-family="Helvetica,sans-Serif" font-size="10.00" fill="#000000">chi/Context.hpp</text>
</a>
</g>
</g>
<!-- Node16&#45;&gt;Node17 -->
<g id="edge19" class="edge">
<title>Node16&#45;&gt;Node17</title>
<path fill="none" stroke="#191970" d="M882.5931,-235.2315C886.3132,-222.0121 893.8511,-197.9069 904,-179 909.3683,-168.9991 916.7205,-158.759 923.2149,-150.4867"/>
<polygon fill="#191970" stroke="#191970" points="925.9729,-152.6426 929.5533,-142.6711 920.536,-148.2334 925.9729,-152.6426"/>
</g>
<!-- Node25 -->
<g id="node26" class="node">
<title>Node25</title>
<g id="a_node26"><a xlink:href="DataType_8hpp.html" target="_top" xlink:title="Defines the DataType class. ">
<polygon fill="#ffffff" stroke="#000000" points="758.5,-179.5 758.5,-198.5 851.5,-198.5 851.5,-179.5 758.5,-179.5"/>
<text text-anchor="middle" x="805" y="-186.5" font-family="Helvetica,sans-Serif" font-size="10.00" fill="#000000">chi/DataType.hpp</text>
</a>
</g>
</g>
<!-- Node16&#45;&gt;Node25 -->
<g id="edge35" class="edge">
<title>Node16&#45;&gt;Node25</title>
<path fill="none" stroke="#191970" d="M866.936,-235.2455C855.6438,-226.814 839.1155,-214.4729 825.9729,-204.6598"/>
<polygon fill="#191970" stroke="#191970" points="828.0211,-201.8211 817.9143,-198.6427 823.8331,-207.4301 828.0211,-201.8211"/>
</g>
<!-- Node26 -->
<g id="node27" class="node">
<title>Node26</title>
<g id="a_node27"><a xlink:href="Result_8hpp.html" target="_top" xlink:title="Defines the Result class and related functions. ">
<polygon fill="#ffffff" stroke="#000000" points="1128.5,-123.5 1128.5,-142.5 1207.5,-142.5 1207.5,-123.5 1128.5,-123.5"/>
<text text-anchor="middle" x="1168" y="-130.5" font-family="Helvetica,sans-Serif" font-size="10.00" fill="#000000">chi/Result.hpp</text>
</a>
</g>
</g>
<!-- Node16&#45;&gt;Node26 -->
<g id="edge38" class="edge">
<title>Node16&#45;&gt;Node26</title>
<path fill="none" stroke="#191970" d="M885.7103,-235.1236C894.7852,-220.3838 913.9572,-192.8815 938,-179 968.0244,-161.665 1059.863,-147.0394 1118.0022,-139.1882"/>
<polygon fill="#191970" stroke="#191970" points="1118.6374,-142.6347 1128.0893,-137.8482 1117.7155,-135.6956 1118.6374,-142.6347"/>
</g>
<!-- Node27 -->
<g id="node28" class="node">
<title>Node27</title>
<polygon fill="#ffffff" stroke="#bfbfbf" points="946.5,-179.5 946.5,-198.5 993.5,-198.5 993.5,-179.5 946.5,-179.5"/>
<text text-anchor="middle" x="970" y="-186.5" font-family="Helvetica,sans-Serif" font-size="10.00" fill="#000000">iterator</text>
</g>
<!-- Node16&#45;&gt;Node27 -->
<g id="edge42" class="edge">
<title>Node16&#45;&gt;Node27</title>
<path fill="none" stroke="#191970" d="M895.6768,-235.2455C909.4856,-226.6534 929.8193,-214.0014 945.7292,-204.1018"/>
<polygon fill="#191970" stroke="#191970" points="947.8613,-206.8974 954.5028,-198.6427 944.1632,-200.954 947.8613,-206.8974"/>
</g>
<!-- Node28 -->
<g id="node29" class="node">
<title>Node28</title>
<polygon fill="#ffffff" stroke="#bfbfbf" points="1012,-179.5 1012,-198.5 1052,-198.5 1052,-179.5 1012,-179.5"/>
<text text-anchor="middle" x="1032" y="-186.5" font-family="Helvetica,sans-Serif" font-size="10.00" fill="#000000">utility</text>
</g>
<!-- Node16&#45;&gt;Node28 -->
<g id="edge43" class="edge">
<title>Node16&#45;&gt;Node28</title>
<path fill="none" stroke="#191970" d="M906.1297,-235.3733C932.7399,-225.5695 973.9539,-210.3854 1001.9112,-200.0854"/>
<polygon fill="#191970" stroke="#191970" points="1003.3864,-203.2719 1011.5598,-196.5306 1000.9664,-196.7035 1003.3864,-203.2719"/>
</g>
<!-- Node29 -->
<g id="node30" class="node">
<title>Node29</title>
<polygon fill="#ffffff" stroke="#bfbfbf" points="1070,-179.5 1070,-198.5 1168,-198.5 1168,-179.5 1070,-179.5"/>
<text text-anchor="middle" x="1119" y="-186.5" font-family="Helvetica,sans-Serif" font-size="10.00" fill="#000000">llvm/IR/DIBuilder.h</text>
</g>
<!-- Node16&#45;&gt;Node29 -->
<g id="edge44" class="edge">
<title>Node16&#45;&gt;Node29</title>
<path fill="none" stroke="#191970" d="M920.814,-235.4369C961.6311,-225.8731 1024.4959,-211.1432 1068.4472,-200.845"/>
<polygon fill="#191970" stroke="#191970" points="1069.4165,-204.2128 1078.3543,-198.5237 1067.8195,-197.3973 1069.4165,-204.2128"/>
</g>
<!-- Node30 -->
<g id="node31" class="node">
<title>Node30</title>
<polygon fill="#ffffff" stroke="#bfbfbf" points="1186,-179.5 1186,-198.5 1282,-198.5 1282,-179.5 1186,-179.5"/>
<text text-anchor="middle" x="1234" y="-186.5" font-family="Helvetica,sans-Serif" font-size="10.00" fill="#000000">llvm/IR/Function.h</text>
</g>
<!-- Node16&#45;&gt;Node30 -->
<g id="edge45" class="edge">
<title>Node16&#45;&gt;Node30</title>
<path fill="none" stroke="#191970" d="M927.5708,-236.5634C930.7604,-236.0258 933.9259,-235.5001 937,-235 1040.3413,-218.187 1068.8849,-216.4137 1175.9037,-199.147"/>
<polygon fill="#191970" stroke="#191970" points="1176.5013,-202.5959 1185.8121,-197.5405 1175.3809,-195.6862 1176.5013,-202.5959"/>
</g>
<!-- Node31 -->
<g id="node32" class="node">
<title>Node31</title>
<polygon fill="#ffffff" stroke="#bfbfbf" points="657.5,-179.5 657.5,-198.5 740.5,-198.5 740.5,-179.5 657.5,-179.5"/>
<text text-anchor="middle" x="699" y="-186.5" font-family="Helvetica,sans-Serif" font-size="10.00" fill="#000000">llvm/IR/Value.h</text>
</g>
<!-- Node16&#45;&gt;Node31 -->
<g id="edge46" class="edge">
<title>Node16&#45;&gt;Node31</title>
<path fill="none" stroke="#191970" d="M848.885,-235.3733C818.6571,-226.021 772.604,-211.7725 739.5261,-201.5385"/>
<polygon fill="#191970" stroke="#191970" points="740.2967,-198.1133 729.709,-198.5011 738.2277,-204.8005 740.2967,-198.1133"/>
</g>
<!-- Node17&#45;&gt;Node2 -->
<g id="edge20" class="edge">
<title>Node17&#45;&gt;Node2</title>
<path fill="none" stroke="#191970" d="M895.4072,-131.6746C730.9558,-126.433 142.5121,-106.4858 61,-87 58.5116,-86.4051 55.98,-85.6386 53.4746,-84.7655"/>
<polygon fill="#191970" stroke="#191970" points="54.672,-81.4749 44.0874,-81.0078 52.0705,-87.9736 54.672,-81.4749"/>
</g>
<!-- Node17&#45;&gt;Node4 -->
<g id="edge21" class="edge">
<title>Node17&#45;&gt;Node4</title>
<path fill="none" stroke="#191970" d="M895.1545,-131.8216C754.0162,-127.7266 304.5731,-112.9303 162,-87 157.5544,-86.1915 152.9497,-85.1123 148.4153,-83.8982"/>
<polygon fill="#191970" stroke="#191970" points="149.2694,-80.5018 138.6902,-81.0774 147.3193,-87.2247 149.2694,-80.5018"/>
</g>
<!-- Node17&#45;&gt;Node7 -->
<g id="edge23" class="edge">
<title>Node17&#45;&gt;Node7</title>
<path fill="none" stroke="#191970" d="M895.4897,-131.67C765.4714,-127.3638 374.4417,-112.5794 250,-87 246.3755,-86.255 242.6434,-85.2822 238.9573,-84.1867"/>
<polygon fill="#191970" stroke="#191970" points="240.0062,-80.8474 229.4138,-81.0723 237.8345,-87.502 240.0062,-80.8474"/>
</g>
<!-- Node17&#45;&gt;Node9 -->
<g id="edge33" class="edge">
<title>Node17&#45;&gt;Node9</title>
<path fill="none" stroke="#191970" d="M980.5223,-128.0394C1006.4393,-122.5781 1037.628,-111.1046 1054,-87 1061.7412,-75.6026 1063.3472,-66.1221 1054,-56 1036.7833,-37.3561 687.3949,-19.4905 540.834,-12.7858"/>
<polygon fill="#191970" stroke="#191970" points="540.7881,-9.2802 530.6395,-12.3225 540.4702,-16.273 540.7881,-9.2802"/>
</g>
<!-- Node17&#45;&gt;Node10 -->
<g id="edge24" class="edge">
<title>Node17&#45;&gt;Node10</title>
<path fill="none" stroke="#191970" d="M980.743,-126.505C1030.7424,-118.5918 1115.8668,-104.1363 1188,-87 1192.0923,-86.0278 1196.3387,-84.9336 1200.5661,-83.7877"/>
<polygon fill="#191970" stroke="#191970" points="1201.6312,-87.1241 1210.3143,-81.0533 1199.7406,-80.3842 1201.6312,-87.1241"/>
</g>
<!-- Node17&#45;&gt;Node12 -->
<g id="edge25" class="edge">
<title>Node17&#45;&gt;Node12</title>
<path fill="none" stroke="#191970" d="M910.0028,-123.462C882.8779,-114.2039 840.5899,-99.7249 804,-87 801.5904,-86.162 799.1076,-85.2955 796.606,-84.4203"/>
<polygon fill="#191970" stroke="#191970" points="797.5753,-81.0513 786.9805,-81.0429 795.2576,-87.6565 797.5753,-81.0513"/>
</g>
<!-- Node17&#45;&gt;Node13 -->
<g id="edge32" class="edge">
<title>Node17&#45;&gt;Node13</title>
<path fill="none" stroke="#191970" d="M895.4995,-128.8834C834.272,-122.5582 717.5806,-109.031 609.3587,-87.1248"/>
<polygon fill="#191970" stroke="#191970" points="609.7495,-83.6321 599.2498,-85.0486 608.3412,-90.4889 609.7495,-83.6321"/>
</g>
<!-- Node17&#45;&gt;Node15 -->
<g id="edge29" class="edge">
<title>Node17&#45;&gt;Node15</title>
<path fill="none" stroke="#191970" d="M895.4359,-125.0515C850.7883,-116.5014 778.6694,-102.0885 717,-87 712.8805,-85.9921 708.6031,-84.8886 704.3354,-83.7495"/>
<polygon fill="#191970" stroke="#191970" points="705.0428,-80.3145 694.4739,-81.0553 703.1979,-87.0671 705.0428,-80.3145"/>
</g>
<!-- Node18 -->
<g id="node19" class="node">
<title>Node18</title>
<polygon fill="#ffffff" stroke="#bfbfbf" points="1101,-62 1101,-81 1179,-81 1179,-62 1101,-62"/>
<text text-anchor="middle" x="1140" y="-69" font-family="Helvetica,sans-Serif" font-size="10.00" fill="#000000">unordered_set</text>
</g>
<!-- Node17&#45;&gt;Node18 -->
<g id="edge22" class="edge">
<title>Node17&#45;&gt;Node18</title>
<path fill="none" stroke="#191970" d="M969.5625,-123.3906C1004.3985,-112.7846 1060.595,-95.6753 1098.8588,-84.0257"/>
<polygon fill="#191970" stroke="#191970" points="1100.1121,-87.3028 1108.6591,-81.0419 1098.0733,-80.6063 1100.1121,-87.3028"/>
</g>
<!-- Node19 -->
<g id="node20" class="node">
<title>Node19</title>
<g id="a_node20"><a xlink:href="Flags_8hpp_source.html" target="_top" xlink:title="chi/Flags.hpp">
<polygon fill="#ffffff" stroke="#000000" points="1302.5,-62 1302.5,-81 1377.5,-81 1377.5,-62 1302.5,-62"/>
<text text-anchor="middle" x="1340" y="-69" font-family="Helvetica,sans-Serif" font-size="10.00" fill="#000000">chi/Flags.hpp</text>
</a>
</g>
</g>
<!-- Node17&#45;&gt;Node19 -->
<g id="edge26" class="edge">
<title>Node17&#45;&gt;Node19</title>
<path fill="none" stroke="#191970" d="M980.6744,-130.2075C1047.9741,-125.1965 1182.5713,-112.7091 1294,-87 1297.472,-86.1989 1301.0518,-85.2397 1304.6093,-84.1963"/>
<polygon fill="#191970" stroke="#191970" points="1305.9788,-87.4347 1314.4674,-81.0948 1303.878,-80.7573 1305.9788,-87.4347"/>
</g>
<!-- Node20 -->
<g id="node21" class="node">
<title>Node20</title>
<polygon fill="#ffffff" stroke="#bfbfbf" points="1395.5,-56.5 1395.5,-86.5 1506.5,-86.5 1506.5,-56.5 1395.5,-56.5"/>
<text text-anchor="start" x="1403.5" y="-74.5" font-family="Helvetica,sans-Serif" font-size="10.00" fill="#000000">llvm/ExecutionEngine</text>
<text text-anchor="middle" x="1451" y="-63.5" font-family="Helvetica,sans-Serif" font-size="10.00" fill="#000000">/GenericValue.h</text>
</g>
<!-- Node17&#45;&gt;Node20 -->
<g id="edge27" class="edge">
<title>Node17&#45;&gt;Node20</title>
<path fill="none" stroke="#191970" d="M980.6656,-130.5614C1059.0388,-125.6641 1231.2985,-112.9602 1385.1396,-87.1905"/>
<polygon fill="#191970" stroke="#191970" points="1385.9723,-90.5993 1395.245,-85.4741 1384.8001,-83.6981 1385.9723,-90.5993"/>
</g>
<!-- Node21 -->
<g id="node22" class="node">
<title>Node21</title>
<polygon fill="#ffffff" stroke="#bfbfbf" points="813,-62 813,-81 931,-81 931,-62 813,-62"/>
<text text-anchor="middle" x="872" y="-69" font-family="Helvetica,sans-Serif" font-size="10.00" fill="#000000">llvm/IR/LLVMContext.h</text>
</g>
<!-- Node17&#45;&gt;Node21 -->
<g id="edge28" class="edge">
<title>Node17&#45;&gt;Node21</title>
<path fill="none" stroke="#191970" d="M927.6875,-123.3906C917.5758,-113.9683 901.9558,-99.4134 889.8293,-88.1137"/>
<polygon fill="#191970" stroke="#191970" points="892.1601,-85.5015 882.4579,-81.2449 887.388,-90.6228 892.1601,-85.5015"/>
</g>
<!-- Node22 -->
<g id="node23" class="node">
<title>Node22</title>
<polygon fill="#ffffff" stroke="#bfbfbf" points="1588,-62 1588,-81 1668,-81 1668,-62 1588,-62"/>
<text text-anchor="middle" x="1628" y="-69" font-family="Helvetica,sans-Serif" font-size="10.00" fill="#000000">llvm/IR/Type.h</text>
</g>
<!-- Node17&#45;&gt;Node22 -->
<g id="edge30" class="edge">
<title>Node17&#45;&gt;Node22</title>
<path fill="none" stroke="#191970" d="M980.768,-130.515C1114.6968,-122.6519 1520.578,-98.1754 1579,-87 1583.2394,-86.1891 1587.6262,-85.1311 1591.9534,-83.9485"/>
<polygon fill="#191970" stroke="#191970" points="1593.2495,-87.2151 1601.8447,-81.0203 1591.2625,-80.503 1593.2495,-87.2151"/>
</g>
<!-- Node23 -->
<g id="node24" class="node">
<title>Node23</title>
<polygon fill="#ffffff" stroke="#bfbfbf" points="1524.5,-62 1524.5,-81 1569.5,-81 1569.5,-62 1524.5,-62"/>
<text text-anchor="middle" x="1547" y="-69" font-family="Helvetica,sans-Serif" font-size="10.00" fill="#000000">gsl/gsl</text>
</g>
<!-- Node17&#45;&gt;Node23 -->
<g id="edge31" class="edge">
<title>Node17&#45;&gt;Node23</title>
<path fill="none" stroke="#191970" d="M980.5582,-130.5558C1105.3593,-123.2564 1464.845,-101.242 1516,-87 1517.7137,-86.5229 1519.4449,-85.9493 1521.1669,-85.3078"/>
<polygon fill="#191970" stroke="#191970" points="1522.9991,-88.3254 1530.74,-81.0914 1520.1775,-81.9192 1522.9991,-88.3254"/>
</g>
<!-- Node24 -->
<g id="node25" class="node">
<title>Node24</title>
<polygon fill="#ffffff" stroke="#bfbfbf" points="949,-62 949,-81 1045,-81 1045,-62 949,-62"/>
<text text-anchor="middle" x="997" y="-69" font-family="Helvetica,sans-Serif" font-size="10.00" fill="#000000">boost/optional.hpp</text>
</g>
<!-- Node17&#45;&gt;Node24 -->
<g id="edge34" class="edge">
<title>Node17&#45;&gt;Node24</title>
<path fill="none" stroke="#191970" d="M947.2188,-123.3906C956.0858,-114.1478 969.6912,-99.966 980.4389,-88.7628"/>
<polygon fill="#191970" stroke="#191970" points="983.2541,-90.8841 987.6513,-81.2449 978.2027,-86.0381 983.2541,-90.8841"/>
</g>
<!-- Node25&#45;&gt;Node6 -->
<g id="edge36" class="edge">
<title>Node25&#45;&gt;Node6</title>
<path fill="none" stroke="#191970" d="M761.7952,-179.4369C718.4053,-169.8328 651.4791,-155.0191 604.9274,-144.7152"/>
<polygon fill="#191970" stroke="#191970" points="605.5467,-141.2676 595.0266,-142.5237 604.0338,-148.1022 605.5467,-141.2676"/>
</g>
<!-- Node25&#45;&gt;Node22 -->
<g id="edge37" class="edge">
<title>Node25&#45;&gt;Node22</title>
<path fill="none" stroke="#191970" d="M851.7274,-184.4328C928.2076,-176.8117 1084.8372,-160.5925 1217,-143 1378.3792,-121.5184 1420.4817,-124.1032 1579,-87 1582.8483,-86.0992 1586.832,-85.0461 1590.7889,-83.9204"/>
<polygon fill="#191970" stroke="#191970" points="1591.9026,-87.2405 1600.4774,-81.0177 1589.8936,-80.5349 1591.9026,-87.2405"/>
</g>
<!-- Node26&#45;&gt;Node10 -->
<g id="edge39" class="edge">
<title>Node26&#45;&gt;Node10</title>
<path fill="none" stroke="#191970" d="M1179.4063,-123.3906C1190.6969,-113.8786 1208.1967,-99.1357 1221.6619,-87.7917"/>
<polygon fill="#191970" stroke="#191970" points="1224.0402,-90.3646 1229.4329,-81.2449 1219.5301,-85.0111 1224.0402,-90.3646"/>
</g>
<!-- Node26&#45;&gt;Node12 -->
<g id="edge40" class="edge">
<title>Node26&#45;&gt;Node12</title>
<path fill="none" stroke="#191970" d="M1128.4574,-130.7677C1061.0877,-126.3527 920.0717,-114.4472 804,-87 800.7685,-86.2359 797.4435,-85.3189 794.1379,-84.3177"/>
<polygon fill="#191970" stroke="#191970" points="794.9843,-80.9121 784.3917,-81.1298 792.808,-87.5653 794.9843,-80.9121"/>
</g>
<!-- Node26&#45;&gt;Node23 -->
<g id="edge41" class="edge">
<title>Node26&#45;&gt;Node23</title>
<path fill="none" stroke="#191970" d="M1207.5203,-132.0167C1273.0273,-129.4562 1407.628,-120.2309 1516,-87 1517.6611,-86.4906 1519.3419,-85.899 1521.0168,-85.2501"/>
<polygon fill="#191970" stroke="#191970" points="1522.6583,-88.3504 1530.3668,-81.082 1519.8082,-81.9569 1522.6583,-88.3504"/>
</g>
</g>
</svg>
