<?xml version="1.0" encoding="UTF-8" standalone="no"?>
<!DOCTYPE svg PUBLIC "-//W3C//DTD SVG 1.1//EN"
 "http://www.w3.org/Graphics/SVG/1.1/DTD/svg11.dtd">
<!-- Generated by graphviz version 2.40.1 (20161225.0304)
 -->
<!-- Title: include/chig/DataType.hpp Pages: 1 -->
<svg width="593pt" height="196pt"
 viewBox="0.00 0.00 593.00 196.00" xmlns="http://www.w3.org/2000/svg" xmlns:xlink="http://www.w3.org/1999/xlink">
<g id="graph0" class="graph" transform="scale(1 1) rotate(0) translate(4 192)">
<title>include/chig/DataType.hpp</title>
<polygon fill="#ffffff" stroke="transparent" points="-4,4 -4,-192 589,-192 589,4 -4,4"/>
<!-- Node0 -->
<g id="node1" class="node">
<title>Node0</title>
<polygon fill="#bfbfbf" stroke="#000000" points="286,-168.5 286,-187.5 432,-187.5 432,-168.5 286,-168.5"/>
<text text-anchor="middle" x="359" y="-175.5" font-family="Helvetica,sans-Serif" font-size="10.00" fill="#000000">include/chig/DataType.hpp</text>
</g>
<!-- Node1 -->
<g id="node2" class="node">
<title>Node1</title>
<g id="a_node2"><a xlink:href="ChigModule_8hpp.html" target="_top" xlink:title="Defines the ChigModule class. ">
<polygon fill="#ffffff" stroke="#000000" points="240,-112.5 240,-131.5 358,-131.5 358,-112.5 240,-112.5"/>
<text text-anchor="middle" x="299" y="-119.5" font-family="Helvetica,sans-Serif" font-size="10.00" fill="#000000">chig/ChigModule.hpp</text>
</a>
</g>
</g>
<!-- Node0&#45;&gt;Node1 -->
<g id="edge1" class="edge">
<title>Node0&#45;&gt;Node1</title>
<path fill="none" stroke="#191970" d="M348.5488,-168.2455C339.7731,-160.0549 327.0446,-148.1749 316.686,-138.5069"/>
<polygon fill="#191970" stroke="#191970" points="319.0301,-135.9072 309.3314,-131.6427 314.2539,-141.0246 319.0301,-135.9072"/>
</g>
<!-- Node9 -->
<g id="node10" class="node">
<title>Node9</title>
<polygon fill="#ffffff" stroke="#bfbfbf" points="376.5,-112.5 376.5,-131.5 463.5,-131.5 463.5,-112.5 376.5,-112.5"/>
<text text-anchor="middle" x="420" y="-119.5" font-family="Helvetica,sans-Serif" font-size="10.00" fill="#000000">llvm/IR/Type.h</text>
</g>
<!-- Node0&#45;&gt;Node9 -->
<g id="edge9" class="edge">
<title>Node0&#45;&gt;Node9</title>
<path fill="none" stroke="#191970" d="M369.6254,-168.2455C378.5473,-160.0549 391.488,-148.1749 402.0192,-138.5069"/>
<polygon fill="#191970" stroke="#191970" points="404.4968,-140.9837 409.4964,-131.6427 399.7629,-135.8271 404.4968,-140.9837"/>
</g>
<!-- Node2 -->
<g id="node3" class="node">
<title>Node2</title>
<g id="a_node3"><a xlink:href="Fwd_8hpp.html" target="_top" xlink:title="Forward declares all the chigraph data types. ">
<polygon fill="#ffffff" stroke="#000000" points="0,-56.5 0,-75.5 80,-75.5 80,-56.5 0,-56.5"/>
<text text-anchor="middle" x="40" y="-63.5" font-family="Helvetica,sans-Serif" font-size="10.00" fill="#000000">chig/Fwd.hpp</text>
</a>
</g>
</g>
<!-- Node1&#45;&gt;Node2 -->
<g id="edge2" class="edge">
<title>Node1&#45;&gt;Node2</title>
<path fill="none" stroke="#191970" d="M254.7706,-112.4369C209.0445,-102.5502 137.7853,-87.1428 90.0309,-76.8175"/>
<polygon fill="#191970" stroke="#191970" points="90.7289,-73.3876 80.2151,-74.6951 89.2495,-80.2295 90.7289,-73.3876"/>
</g>
<!-- Node3 -->
<g id="node4" class="node">
<title>Node3</title>
<g id="a_node4"><a xlink:href="ToString_8hpp_source.html" target="_top" xlink:title="chig/ToString.hpp">
<polygon fill="#ffffff" stroke="#000000" points="98.5,-56.5 98.5,-75.5 199.5,-75.5 199.5,-56.5 98.5,-56.5"/>
<text text-anchor="middle" x="149" y="-63.5" font-family="Helvetica,sans-Serif" font-size="10.00" fill="#000000">chig/ToString.hpp</text>
</a>
</g>
</g>
<!-- Node1&#45;&gt;Node3 -->
<g id="edge3" class="edge">
<title>Node1&#45;&gt;Node3</title>
<path fill="none" stroke="#191970" d="M273.2141,-112.3733C248.5953,-103.1822 211.31,-89.2624 184.0125,-79.0713"/>
<polygon fill="#191970" stroke="#191970" points="185.042,-75.7198 174.4494,-75.5011 182.5937,-82.2777 185.042,-75.7198"/>
</g>
<!-- Node5 -->
<g id="node6" class="node">
<title>Node5</title>
<polygon fill="#ffffff" stroke="#bfbfbf" points="217.5,-56.5 217.5,-75.5 298.5,-75.5 298.5,-56.5 217.5,-56.5"/>
<text text-anchor="middle" x="258" y="-63.5" font-family="Helvetica,sans-Serif" font-size="10.00" fill="#000000">chig/json.hpp</text>
</g>
<!-- Node1&#45;&gt;Node5 -->
<g id="edge5" class="edge">
<title>Node1&#45;&gt;Node5</title>
<path fill="none" stroke="#191970" d="M291.8583,-112.2455C286.1556,-104.4564 278.01,-93.3308 271.1375,-83.9439"/>
<polygon fill="#191970" stroke="#191970" points="273.7913,-81.6437 265.0598,-75.6427 268.1432,-85.7789 273.7913,-81.6437"/>
</g>
<!-- Node6 -->
<g id="node7" class="node">
<title>Node6</title>
<polygon fill="#ffffff" stroke="#bfbfbf" points="317,-56.5 317,-75.5 365,-75.5 365,-56.5 317,-56.5"/>
<text text-anchor="middle" x="341" y="-63.5" font-family="Helvetica,sans-Serif" font-size="10.00" fill="#000000">gsl/gsl</text>
</g>
<!-- Node1&#45;&gt;Node6 -->
<g id="edge6" class="edge">
<title>Node1&#45;&gt;Node6</title>
<path fill="none" stroke="#191970" d="M306.3158,-112.2455C312.2179,-104.3761 320.6742,-93.101 327.7594,-83.6542"/>
<polygon fill="#191970" stroke="#191970" points="330.568,-85.7427 333.768,-75.6427 324.9679,-81.5427 330.568,-85.7427"/>
</g>
<!-- Node7 -->
<g id="node8" class="node">
<title>Node7</title>
<polygon fill="#ffffff" stroke="#bfbfbf" points="383,-56.5 383,-75.5 469,-75.5 469,-56.5 383,-56.5"/>
<text text-anchor="middle" x="426" y="-63.5" font-family="Helvetica,sans-Serif" font-size="10.00" fill="#000000">unordered_set</text>
</g>
<!-- Node1&#45;&gt;Node7 -->
<g id="edge7" class="edge">
<title>Node1&#45;&gt;Node7</title>
<path fill="none" stroke="#191970" d="M320.8321,-112.3733C341.3103,-103.3435 372.1399,-89.7494 395.1319,-79.6111"/>
<polygon fill="#191970" stroke="#191970" points="396.715,-82.7383 404.4528,-75.5011 393.8907,-76.3333 396.715,-82.7383"/>
</g>
<!-- Node8 -->
<g id="node9" class="node">
<title>Node8</title>
<polygon fill="#ffffff" stroke="#bfbfbf" points="487,-56.5 487,-75.5 585,-75.5 585,-56.5 487,-56.5"/>
<text text-anchor="middle" x="536" y="-63.5" font-family="Helvetica,sans-Serif" font-size="10.00" fill="#000000">llvm/IR/Module.h</text>
</g>
<!-- Node1&#45;&gt;Node8 -->
<g id="edge8" class="edge">
<title>Node1&#45;&gt;Node8</title>
<path fill="none" stroke="#191970" d="M339.4725,-112.4369C379.948,-102.8731 442.2867,-88.1432 485.8703,-77.845"/>
<polygon fill="#191970" stroke="#191970" points="486.7673,-81.2295 495.6945,-75.5237 485.1576,-74.4171 486.7673,-81.2295"/>
</g>
<!-- Node4 -->
<g id="node5" class="node">
<title>Node4</title>
<polygon fill="#ffffff" stroke="#bfbfbf" points="121,-.5 121,-19.5 177,-19.5 177,-.5 121,-.5"/>
<text text-anchor="middle" x="149" y="-7.5" font-family="Helvetica,sans-Serif" font-size="10.00" fill="#000000">sstream</text>
</g>
<!-- Node3&#45;&gt;Node4 -->
<g id="edge4" class="edge">
<title>Node3&#45;&gt;Node4</title>
<path fill="none" stroke="#191970" d="M149,-56.2455C149,-48.9382 149,-38.6944 149,-29.7046"/>
<polygon fill="#191970" stroke="#191970" points="152.5001,-29.6426 149,-19.6427 145.5001,-29.6427 152.5001,-29.6426"/>
</g>
</g>
</svg>
