<?xml version="1.0" encoding="UTF-8" standalone="no"?>
<!DOCTYPE svg PUBLIC "-//W3C//DTD SVG 1.1//EN"
 "http://www.w3.org/Graphics/SVG/1.1/DTD/svg11.dtd">
<!-- Generated by graphviz version 2.40.1 (20161225.0304)
 -->
<!-- Title: lib Pages: 1 -->
<svg width="186pt" height="220pt"
 viewBox="0.00 0.00 186.00 220.00" xmlns="http://www.w3.org/2000/svg" xmlns:xlink="http://www.w3.org/1999/xlink">
<g id="graph0" class="graph" transform="scale(1 1) rotate(0) translate(4 216)">
<title>lib</title>
<polygon fill="#ffffff" stroke="transparent" points="-4,4 -4,-216 182,-216 182,4 -4,4"/>
<g id="clust1" class="cluster">
<title>clusterdir_97aefd0d527b934f1d99a682da8fe6a9</title>
<g id="a_clust1"><a xlink:href="dir_97aefd0d527b934f1d99a682da8fe6a9.html" target="_top">
<polygon fill="#eeeeff" stroke="#000000" points="8,-8 8,-204 170,-204 170,-8 8,-8"/>
</a>
</g>
</g>
<!-- dir_97aefd0d527b934f1d99a682da8fe6a9 -->
<g id="node1" class="node">
<title>dir_97aefd0d527b934f1d99a682da8fe6a9</title>
<text text-anchor="middle" x="135" y="-175.5" font-family="Helvetica,sans-Serif" font-size="10.00" fill="#000000">lib</text>
</g>
<!-- dir_a2d5e495f4b604d04f57d90095a59dd6 -->
<g id="node2" class="node">
<title>dir_a2d5e495f4b604d04f57d90095a59dd6</title>
<g id="a_node2"><a xlink:href="dir_a2d5e495f4b604d04f57d90095a59dd6.html" target="_top" xlink:title="core">
<polygon fill="#ffffff" stroke="#ff0000" points="142,-124 88,-124 88,-88 142,-88 142,-124"/>
<text text-anchor="middle" x="115" y="-103.5" font-family="Helvetica,sans-Serif" font-size="10.00" fill="#000000">core</text>
</a>
</g>
</g>
<!-- dir_2e3059805f6f515f917d8ef98610afb5 -->
<g id="node5" class="node">
<title>dir_2e3059805f6f515f917d8ef98610afb5</title>
<g id="a_node5"><a xlink:href="dir_2e3059805f6f515f917d8ef98610afb5.html" target="_top" xlink:title="support">
<polygon fill="#ffffff" stroke="#ff0000" points="142,-52 88,-52 88,-16 142,-16 142,-52"/>
<text text-anchor="middle" x="115" y="-31.5" font-family="Helvetica,sans-Serif" font-size="10.00" fill="#000000">support</text>
</a>
</g>
</g>
<!-- dir_a2d5e495f4b604d04f57d90095a59dd6&#45;&gt;dir_2e3059805f6f515f917d8ef98610afb5 -->
<g id="edge1" class="edge">
<title>dir_a2d5e495f4b604d04f57d90095a59dd6&#45;&gt;dir_2e3059805f6f515f917d8ef98610afb5</title>
<path fill="none" stroke="#000000" d="M115,-87.8314C115,-80.131 115,-70.9743 115,-62.4166"/>
<polygon fill="#000000" stroke="#000000" points="118.5001,-62.4132 115,-52.4133 111.5001,-62.4133 118.5001,-62.4132"/>
<g id="a_edge1&#45;headlabel"><a xlink:href="dir_000001_000004.html" target="_top" xlink:title="23">
<text text-anchor="middle" x="121.3393" y="-63.5079" font-family="Helvetica,sans-Serif" font-size="10.00" fill="#000000">23</text>
</a>
</g>
</g>
<!-- dir_1cbd5753998ce0765ace9f45e04c4c24 -->
<g id="node3" class="node">
<title>dir_1cbd5753998ce0765ace9f45e04c4c24</title>
<g id="a_node3"><a xlink:href="dir_1cbd5753998ce0765ace9f45e04c4c24.html" target="_top" xlink:title="debugger">
<polygon fill="#ffffff" stroke="#ff0000" points="90,-196 34,-196 34,-160 90,-160 90,-196"/>
<text text-anchor="middle" x="62" y="-175.5" font-family="Helvetica,sans-Serif" font-size="10.00" fill="#000000">debugger</text>
</a>
</g>
</g>
<!-- dir_1cbd5753998ce0765ace9f45e04c4c24&#45;&gt;dir_a2d5e495f4b604d04f57d90095a59dd6 -->
<g id="edge3" class="edge">
<title>dir_1cbd5753998ce0765ace9f45e04c4c24&#45;&gt;dir_a2d5e495f4b604d04f57d90095a59dd6</title>
<path fill="none" stroke="#000000" d="M75.3741,-159.8314C81.4162,-151.6232 88.6763,-141.7606 95.3221,-132.7323"/>
<polygon fill="#000000" stroke="#000000" points="98.3363,-134.5415 101.4458,-124.4133 92.6989,-130.3918 98.3363,-134.5415"/>
<g id="a_edge3&#45;headlabel"><a xlink:href="dir_000009_000001.html" target="_top" xlink:title="6">
<text text-anchor="middle" x="98.4919" y="-136.6195" font-family="Helvetica,sans-Serif" font-size="10.00" fill="#000000">6</text>
</a>
</g>
</g>
<!-- dir_1cbd5753998ce0765ace9f45e04c4c24&#45;&gt;dir_2e3059805f6f515f917d8ef98610afb5 -->
<g id="edge2" class="edge">
<title>dir_1cbd5753998ce0765ace9f45e04c4c24&#45;&gt;dir_2e3059805f6f515f917d8ef98610afb5</title>
<path fill="none" stroke="#000000" d="M90.0745,-162.7922C114.8345,-149.0912 147.5202,-130.1815 151,-124 162.4219,-103.71 150.9818,-79.0628 138.0555,-60.695"/>
<polygon fill="#000000" stroke="#000000" points="140.494,-58.1145 131.6842,-52.2291 134.9009,-62.3238 140.494,-58.1145"/>
<g id="a_edge2&#45;headlabel"><a xlink:href="dir_000009_000004.html" target="_top" xlink:title="1">
<text text-anchor="middle" x="144.9241" y="-56.7793" font-family="Helvetica,sans-Serif" font-size="10.00" fill="#000000">1</text>
</a>
</g>
</g>
<!-- dir_bebe3f37bca5b73c04625641ec90b011 -->
<g id="node4" class="node">
<title>dir_bebe3f37bca5b73c04625641ec90b011</title>
<g id="a_node4"><a xlink:href="dir_bebe3f37bca5b73c04625641ec90b011.html" target="_top" xlink:title="fetcher">
<polygon fill="#ffffff" stroke="#ff0000" points="70,-124 16,-124 16,-88 70,-88 70,-124"/>
<text text-anchor="middle" x="43" y="-103.5" font-family="Helvetica,sans-Serif" font-size="10.00" fill="#000000">fetcher</text>
</a>
</g>
</g>
<!-- dir_bebe3f37bca5b73c04625641ec90b011&#45;&gt;dir_2e3059805f6f515f917d8ef98610afb5 -->
<g id="edge4" class="edge">
<title>dir_bebe3f37bca5b73c04625641ec90b011&#45;&gt;dir_2e3059805f6f515f917d8ef98610afb5</title>
<path fill="none" stroke="#000000" d="M61.1686,-87.8314C69.7152,-79.2848 80.0557,-68.9443 89.3802,-59.6198"/>
<polygon fill="#000000" stroke="#000000" points="91.9905,-61.9592 96.5867,-52.4133 87.0408,-57.0095 91.9905,-61.9592"/>
<g id="a_edge4&#45;headlabel"><a xlink:href="dir_000014_000004.html" target="_top" xlink:title="1">
<text text-anchor="middle" x="91.4564" y="-64.0087" font-family="Helvetica,sans-Serif" font-size="10.00" fill="#000000">1</text>
</a>
</g>
</g>
</g>
</svg>
