<?xml version="1.0" encoding="UTF-8" standalone="no"?>
<!DOCTYPE svg PUBLIC "-//W3C//DTD SVG 1.1//EN"
 "http://www.w3.org/Graphics/SVG/1.1/DTD/svg11.dtd">
<!-- Generated by graphviz version 2.40.1 (20161225.0304)
 -->
<!-- Title: lib/debugger Pages: 1 -->
<svg width="256pt" height="231pt"
 viewBox="0.00 0.00 256.00 231.00" xmlns="http://www.w3.org/2000/svg" xmlns:xlink="http://www.w3.org/1999/xlink">
<g id="graph0" class="graph" transform="scale(1 1) rotate(0) translate(4 227)">
<title>lib/debugger</title>
<polygon fill="#ffffff" stroke="transparent" points="-4,4 -4,-227 252,-227 252,4 -4,4"/>
<g id="clust1" class="cluster">
<title>clusterdir_97aefd0d527b934f1d99a682da8fe6a9</title>
<g id="a_clust1"><a xlink:href="dir_97aefd0d527b934f1d99a682da8fe6a9.html" target="_top" xlink:title="lib">
<polygon fill="#ddddee" stroke="#000000" points="8,-128 8,-215 240,-215 240,-128 8,-128"/>
<text text-anchor="middle" x="124" y="-203" font-family="Helvetica,sans-Serif" font-size="10.00" fill="#000000">lib</text>
</a>
</g>
</g>
<g id="clust2" class="cluster">
<title>clusterdir_1cbd5753998ce0765ace9f45e04c4c24</title>
<g id="a_clust2"><a xlink:href="dir_1cbd5753998ce0765ace9f45e04c4c24.html" target="_top">
<polygon fill="#eeeeff" stroke="#000000" points="16,-136 16,-188 232,-188 232,-136 16,-136"/>
</a>
</g>
</g>
<!-- dir_1cbd5753998ce0765ace9f45e04c4c24 -->
<g id="node1" class="node">
<title>dir_1cbd5753998ce0765ace9f45e04c4c24</title>
<text text-anchor="middle" x="196" y="-159.5" font-family="Helvetica,sans-Serif" font-size="10.00" fill="#000000">debugger</text>
</g>
<!-- dir_930c202b9243d6c08a26ca2f5d01a088 -->
<g id="node2" class="node">
<title>dir_930c202b9243d6c08a26ca2f5d01a088</title>
<g id="a_node2"><a xlink:href="dir_930c202b9243d6c08a26ca2f5d01a088.html" target="_top" xlink:title="include">
<polygon fill="#ffffff" stroke="#ff0000" points="78,-180 24,-180 24,-144 78,-144 78,-180"/>
<text text-anchor="middle" x="51" y="-159.5" font-family="Helvetica,sans-Serif" font-size="10.00" fill="#000000">include</text>
</a>
</g>
</g>
<!-- dir_a2d5e495f4b604d04f57d90095a59dd6 -->
<g id="node5" class="node">
<title>dir_a2d5e495f4b604d04f57d90095a59dd6</title>
<g id="a_node5"><a xlink:href="dir_a2d5e495f4b604d04f57d90095a59dd6.html" target="_top" xlink:title="core">
<polygon fill="#ffffff" stroke="#ff0000" points="95,-108 41,-108 41,-72 95,-72 95,-108"/>
<text text-anchor="middle" x="68" y="-87.5" font-family="Helvetica,sans-Serif" font-size="10.00" fill="#000000">core</text>
</a>
</g>
</g>
<!-- dir_930c202b9243d6c08a26ca2f5d01a088&#45;&gt;dir_a2d5e495f4b604d04f57d90095a59dd6 -->
<g id="edge4" class="edge">
<title>dir_930c202b9243d6c08a26ca2f5d01a088&#45;&gt;dir_a2d5e495f4b604d04f57d90095a59dd6</title>
<path fill="none" stroke="#000000" d="M55.2898,-143.8314C57.108,-136.131 59.2699,-126.9743 61.2905,-118.4166"/>
<polygon fill="#000000" stroke="#000000" points="64.7608,-118.95 63.6524,-108.4133 57.9481,-117.3414 64.7608,-118.95"/>
<g id="a_edge4&#45;headlabel"><a xlink:href="dir_000010_000001.html" target="_top" xlink:title="2">
<text text-anchor="middle" x="66.6981" y="-120.6008" font-family="Helvetica,sans-Serif" font-size="10.00" fill="#000000">2</text>
</a>
</g>
</g>
<!-- dir_ab88dfd421746d41dcca358217f36851 -->
<g id="node3" class="node">
<title>dir_ab88dfd421746d41dcca358217f36851</title>
<g id="a_node3"><a xlink:href="dir_ab88dfd421746d41dcca358217f36851.html" target="_top" xlink:title="src">
<polygon fill="#ffffff" stroke="#000000" points="150,-180 96,-180 96,-144 150,-144 150,-180"/>
<text text-anchor="middle" x="123" y="-159.5" font-family="Helvetica,sans-Serif" font-size="10.00" fill="#000000">src</text>
</a>
</g>
</g>
<!-- dir_2e3059805f6f515f917d8ef98610afb5 -->
<g id="node4" class="node">
<title>dir_2e3059805f6f515f917d8ef98610afb5</title>
<g id="a_node4"><a xlink:href="dir_2e3059805f6f515f917d8ef98610afb5.html" target="_top" xlink:title="support">
<polygon fill="#ffffff" stroke="#ff0000" points="122,-36 68,-36 68,0 122,0 122,-36"/>
<text text-anchor="middle" x="95" y="-15.5" font-family="Helvetica,sans-Serif" font-size="10.00" fill="#000000">support</text>
</a>
</g>
</g>
<!-- dir_ab88dfd421746d41dcca358217f36851&#45;&gt;dir_2e3059805f6f515f917d8ef98610afb5 -->
<g id="edge1" class="edge">
<title>dir_ab88dfd421746d41dcca358217f36851&#45;&gt;dir_2e3059805f6f515f917d8ef98610afb5</title>
<path fill="none" stroke="#000000" d="M119.4538,-143.7623C114.6569,-119.0928 106.0561,-74.8598 100.4392,-45.9731"/>
<polygon fill="#000000" stroke="#000000" points="103.8619,-45.2377 98.5174,-36.0896 96.9905,-46.5738 103.8619,-45.2377"/>
<g id="a_edge1&#45;headlabel"><a xlink:href="dir_000013_000004.html" target="_top" xlink:title="1">
<text text-anchor="middle" x="107.335" y="-45.7243" font-family="Helvetica,sans-Serif" font-size="10.00" fill="#000000">1</text>
</a>
</g>
</g>
<!-- dir_ab88dfd421746d41dcca358217f36851&#45;&gt;dir_a2d5e495f4b604d04f57d90095a59dd6 -->
<g id="edge2" class="edge">
<title>dir_ab88dfd421746d41dcca358217f36851&#45;&gt;dir_a2d5e495f4b604d04f57d90095a59dd6</title>
<path fill="none" stroke="#000000" d="M109.1212,-143.8314C102.7864,-135.5386 95.1616,-125.557 88.2074,-116.4533"/>
<polygon fill="#000000" stroke="#000000" points="90.9175,-114.2353 82.0657,-108.4133 85.3548,-118.4847 90.9175,-114.2353"/>
<g id="a_edge2&#45;headlabel"><a xlink:href="dir_000013_000001.html" target="_top" xlink:title="4">
<text text-anchor="middle" x="95.3558" y="-112.8683" font-family="Helvetica,sans-Serif" font-size="10.00" fill="#000000">4</text>
</a>
</g>
</g>
<!-- dir_a2d5e495f4b604d04f57d90095a59dd6&#45;&gt;dir_2e3059805f6f515f917d8ef98610afb5 -->
<g id="edge3" class="edge">
<title>dir_a2d5e495f4b604d04f57d90095a59dd6&#45;&gt;dir_2e3059805f6f515f917d8ef98610afb5</title>
<path fill="none" stroke="#000000" d="M74.8132,-71.8314C77.7644,-63.9617 81.2858,-54.5712 84.555,-45.8533"/>
<polygon fill="#000000" stroke="#000000" points="87.8609,-47.0055 88.095,-36.4133 81.3066,-44.5476 87.8609,-47.0055"/>
<g id="a_edge3&#45;headlabel"><a xlink:href="dir_000001_000004.html" target="_top" xlink:title="23">
<text text-anchor="middle" x="89.2573" y="-48.8682" font-family="Helvetica,sans-Serif" font-size="10.00" fill="#000000">23</text>
</a>
</g>
</g>
</g>
</svg>
