<?xml version="1.0" encoding="UTF-8" standalone="no"?>
<!DOCTYPE svg PUBLIC "-//W3C//DTD SVG 1.1//EN"
 "http://www.w3.org/Graphics/SVG/1.1/DTD/svg11.dtd">
<!-- Generated by graphviz version 2.40.1 (20161225.0304)
 -->
<!-- Title: libchig Pages: 1 -->
<svg width="238pt" height="148pt"
 viewBox="0.00 0.00 238.00 148.00" xmlns="http://www.w3.org/2000/svg" xmlns:xlink="http://www.w3.org/1999/xlink">
<g id="graph0" class="graph" transform="scale(1 1) rotate(0) translate(4 144)">
<title>libchig</title>
<polygon fill="#ffffff" stroke="transparent" points="-4,4 -4,-144 234,-144 234,4 -4,4"/>
<g id="clust1" class="cluster">
<title>clusterdir_dd1823b115988dc5433ea160a3de4758</title>
<g id="a_clust1"><a xlink:href="dir_dd1823b115988dc5433ea160a3de4758.html" target="_top">
<polygon fill="#eeeeff" stroke="#000000" points="8,-8 8,-132 222,-132 222,-8 8,-8"/>
</a>
</g>
</g>
<!-- dir_dd1823b115988dc5433ea160a3de4758 -->
<g id="node1" class="node">
<title>dir_dd1823b115988dc5433ea160a3de4758</title>
<text text-anchor="middle" x="187" y="-103.5" font-family="Helvetica,sans-Serif" font-size="10.00" fill="#000000">libchig</text>
</g>
<!-- dir_1f33b5db7fddaf2623d82ff75c170704 -->
<g id="node2" class="node">
<title>dir_1f33b5db7fddaf2623d82ff75c170704</title>
<g id="a_node2"><a xlink:href="dir_1f33b5db7fddaf2623d82ff75c170704.html" target="_top" xlink:title="ctollvm">
<polygon fill="#ffffff" stroke="#000000" points="142,-124 88,-124 88,-88 142,-88 142,-124"/>
<text text-anchor="middle" x="115" y="-103.5" font-family="Helvetica,sans-Serif" font-size="10.00" fill="#000000">ctollvm</text>
</a>
</g>
</g>
<!-- dir_2df3c658836db959e203baafb685799e -->
<g id="node3" class="node">
<title>dir_2df3c658836db959e203baafb685799e</title>
<g id="a_node3"><a xlink:href="dir_2df3c658836db959e203baafb685799e.html" target="_top" xlink:title="include">
<polygon fill="#ffffff" stroke="#ff0000" points="70,-52 16,-52 16,-16 70,-16 70,-52"/>
<text text-anchor="middle" x="43" y="-31.5" font-family="Helvetica,sans-Serif" font-size="10.00" fill="#000000">include</text>
</a>
</g>
</g>
<!-- dir_9bf335b5320363225b181f82b328b05f -->
<g id="node4" class="node">
<title>dir_9bf335b5320363225b181f82b328b05f</title>
<g id="a_node4"><a xlink:href="dir_9bf335b5320363225b181f82b328b05f.html" target="_top" xlink:title="src">
<polygon fill="#ffffff" stroke="#000000" points="70,-124 16,-124 16,-88 70,-88 70,-124"/>
<text text-anchor="middle" x="43" y="-103.5" font-family="Helvetica,sans-Serif" font-size="10.00" fill="#000000">src</text>
</a>
</g>
</g>
<!-- dir_9bf335b5320363225b181f82b328b05f&#45;&gt;dir_2df3c658836db959e203baafb685799e -->
<g id="edge1" class="edge">
<title>dir_9bf335b5320363225b181f82b328b05f&#45;&gt;dir_2df3c658836db959e203baafb685799e</title>
<path fill="none" stroke="#000000" d="M43,-87.8314C43,-80.131 43,-70.9743 43,-62.4166"/>
<polygon fill="#000000" stroke="#000000" points="46.5001,-62.4132 43,-52.4133 39.5001,-62.4133 46.5001,-62.4132"/>
<g id="a_edge1&#45;headlabel"><a xlink:href="dir_000004_000002.html" target="_top" xlink:title="48">
<text text-anchor="middle" x="49.3393" y="-63.5079" font-family="Helvetica,sans-Serif" font-size="10.00" fill="#000000">48</text>
</a>
</g>
</g>
</g>
</svg>
