<?xml version="1.0" encoding="UTF-8" standalone="no"?>
<!DOCTYPE svg PUBLIC "-//W3C//DTD SVG 1.1//EN"
 "http://www.w3.org/Graphics/SVG/1.1/DTD/svg11.dtd">
<!-- Generated by graphviz version 2.40.1 (20161225.0304)
 -->
<!-- Title: libchigraph/include/chi/FunctionCompiler.hpp Pages: 1 -->
<svg width="534pt" height="207pt"
 viewBox="0.00 0.00 534.00 207.00" xmlns="http://www.w3.org/2000/svg" xmlns:xlink="http://www.w3.org/1999/xlink">
<g id="graph0" class="graph" transform="scale(1 1) rotate(0) translate(4 203)">
<title>libchigraph/include/chi/FunctionCompiler.hpp</title>
<polygon fill="#ffffff" stroke="transparent" points="-4,4 -4,-203 530,-203 530,4 -4,4"/>
<!-- Node0 -->
<g id="node1" class="node">
<title>Node0</title>
<polygon fill="#bfbfbf" stroke="#000000" points="182,-168.5 182,-198.5 312,-198.5 312,-168.5 182,-168.5"/>
<text text-anchor="start" x="190" y="-186.5" font-family="Helvetica,sans-Serif" font-size="10.00" fill="#000000">libchigraph/include</text>
<text text-anchor="middle" x="247" y="-175.5" font-family="Helvetica,sans-Serif" font-size="10.00" fill="#000000">/chi/FunctionCompiler.hpp</text>
</g>
<!-- Node1 -->
<g id="node2" class="node">
<title>Node1</title>
<g id="a_node2"><a xlink:href="Fwd_8hpp.html" target="_top" xlink:title="Forward declares all the chigraph data types. ">
<polygon fill="#ffffff" stroke="#000000" points="14.5,-112.5 14.5,-131.5 83.5,-131.5 83.5,-112.5 14.5,-112.5"/>
<text text-anchor="middle" x="49" y="-119.5" font-family="Helvetica,sans-Serif" font-size="10.00" fill="#000000">chi/Fwd.hpp</text>
</a>
</g>
</g>
<!-- Node0&#45;&gt;Node1 -->
<g id="edge1" class="edge">
<title>Node0&#45;&gt;Node1</title>
<path fill="none" stroke="#191970" d="M198.5638,-168.4554C165.0922,-158.059 121.0798,-144.3884 89.4781,-134.5727"/>
<polygon fill="#191970" stroke="#191970" points="90.2711,-131.1542 79.683,-131.5303 88.1947,-137.8391 90.2711,-131.1542"/>
</g>
<!-- Node2 -->
<g id="node3" class="node">
<title>Node2</title>
<g id="a_node3"><a xlink:href="Result_8hpp.html" target="_top" xlink:title="Defines the Result class and related functions. ">
<polygon fill="#ffffff" stroke="#000000" points="101.5,-112.5 101.5,-131.5 180.5,-131.5 180.5,-112.5 101.5,-112.5"/>
<text text-anchor="middle" x="141" y="-119.5" font-family="Helvetica,sans-Serif" font-size="10.00" fill="#000000">chi/Result.hpp</text>
</a>
</g>
</g>
<!-- Node0&#45;&gt;Node2 -->
<g id="edge2" class="edge">
<title>Node0&#45;&gt;Node2</title>
<path fill="none" stroke="#191970" d="M221.0695,-168.4554C204.4691,-158.8241 183.0256,-146.3828 166.5083,-136.7996"/>
<polygon fill="#191970" stroke="#191970" points="167.8323,-133.5214 157.4262,-131.5303 164.3194,-139.5761 167.8323,-133.5214"/>
</g>
<!-- Node7 -->
<g id="node8" class="node">
<title>Node7</title>
<polygon fill="#ffffff" stroke="#bfbfbf" points="198,-112.5 198,-131.5 296,-131.5 296,-112.5 198,-112.5"/>
<text text-anchor="middle" x="247" y="-119.5" font-family="Helvetica,sans-Serif" font-size="10.00" fill="#000000">llvm/IR/DIBuilder.h</text>
</g>
<!-- Node0&#45;&gt;Node7 -->
<g id="edge7" class="edge">
<title>Node0&#45;&gt;Node7</title>
<path fill="none" stroke="#191970" d="M247,-168.2977C247,-160.3834 247,-150.6043 247,-142.0759"/>
<polygon fill="#191970" stroke="#191970" points="250.5001,-141.8469 247,-131.8469 243.5001,-141.847 250.5001,-141.8469"/>
</g>
<!-- Node8 -->
<g id="node9" class="node">
<title>Node8</title>
<polygon fill="#ffffff" stroke="#bfbfbf" points="314.5,-112.5 314.5,-131.5 417.5,-131.5 417.5,-112.5 314.5,-112.5"/>
<text text-anchor="middle" x="366" y="-119.5" font-family="Helvetica,sans-Serif" font-size="10.00" fill="#000000">llvm/IR/DebugInfo.h</text>
</g>
<!-- Node0&#45;&gt;Node8 -->
<g id="edge8" class="edge">
<title>Node0&#45;&gt;Node8</title>
<path fill="none" stroke="#191970" d="M276.1107,-168.4554C295.1824,-158.599 319.9482,-145.7999 338.6539,-136.1327"/>
<polygon fill="#191970" stroke="#191970" points="340.2824,-139.2309 347.5592,-131.5303 337.0685,-133.0122 340.2824,-139.2309"/>
</g>
<!-- Node9 -->
<g id="node10" class="node">
<title>Node9</title>
<polygon fill="#ffffff" stroke="#bfbfbf" points="436,-112.5 436,-131.5 526,-131.5 526,-112.5 436,-112.5"/>
<text text-anchor="middle" x="481" y="-119.5" font-family="Helvetica,sans-Serif" font-size="10.00" fill="#000000">llvm/IR/Module.h</text>
</g>
<!-- Node0&#45;&gt;Node9 -->
<g id="edge9" class="edge">
<title>Node0&#45;&gt;Node9</title>
<path fill="none" stroke="#191970" d="M304.2428,-168.4554C344.3138,-157.9239 397.1679,-144.0328 434.6099,-134.1923"/>
<polygon fill="#191970" stroke="#191970" points="435.9564,-137.4573 444.7383,-131.5303 434.1771,-130.6872 435.9564,-137.4573"/>
</g>
<!-- Node3 -->
<g id="node4" class="node">
<title>Node3</title>
<g id="a_node4"><a xlink:href="ToString_8hpp_source.html" target="_top" xlink:title="chi/ToString.hpp">
<polygon fill="#ffffff" stroke="#000000" points="0,-56.5 0,-75.5 88,-75.5 88,-56.5 0,-56.5"/>
<text text-anchor="middle" x="44" y="-63.5" font-family="Helvetica,sans-Serif" font-size="10.00" fill="#000000">chi/ToString.hpp</text>
</a>
</g>
</g>
<!-- Node2&#45;&gt;Node3 -->
<g id="edge3" class="edge">
<title>Node2&#45;&gt;Node3</title>
<path fill="none" stroke="#191970" d="M124.1039,-112.2455C109.082,-103.5731 86.8957,-90.7645 69.679,-80.825"/>
<polygon fill="#191970" stroke="#191970" points="71.1128,-77.6114 60.7025,-75.6427 67.6129,-83.6737 71.1128,-77.6114"/>
</g>
<!-- Node5 -->
<g id="node6" class="node">
<title>Node5</title>
<polygon fill="#ffffff" stroke="#bfbfbf" points="106.5,-56.5 106.5,-75.5 175.5,-75.5 175.5,-56.5 106.5,-56.5"/>
<text text-anchor="middle" x="141" y="-63.5" font-family="Helvetica,sans-Serif" font-size="10.00" fill="#000000">chi/json.hpp</text>
</g>
<!-- Node2&#45;&gt;Node5 -->
<g id="edge5" class="edge">
<title>Node2&#45;&gt;Node5</title>
<path fill="none" stroke="#191970" d="M141,-112.2455C141,-104.9382 141,-94.6944 141,-85.7046"/>
<polygon fill="#191970" stroke="#191970" points="144.5001,-85.6426 141,-75.6427 137.5001,-85.6427 144.5001,-85.6426"/>
</g>
<!-- Node6 -->
<g id="node7" class="node">
<title>Node6</title>
<polygon fill="#ffffff" stroke="#bfbfbf" points="193.5,-56.5 193.5,-75.5 238.5,-75.5 238.5,-56.5 193.5,-56.5"/>
<text text-anchor="middle" x="216" y="-63.5" font-family="Helvetica,sans-Serif" font-size="10.00" fill="#000000">gsl/gsl</text>
</g>
<!-- Node2&#45;&gt;Node6 -->
<g id="edge6" class="edge">
<title>Node2&#45;&gt;Node6</title>
<path fill="none" stroke="#191970" d="M154.064,-112.2455C165.3562,-103.814 181.8845,-91.4729 195.0271,-81.6598"/>
<polygon fill="#191970" stroke="#191970" points="197.1669,-84.4301 203.0857,-75.6427 192.9789,-78.8211 197.1669,-84.4301"/>
</g>
<!-- Node4 -->
<g id="node5" class="node">
<title>Node4</title>
<polygon fill="#ffffff" stroke="#bfbfbf" points="18,-.5 18,-19.5 70,-19.5 70,-.5 18,-.5"/>
<text text-anchor="middle" x="44" y="-7.5" font-family="Helvetica,sans-Serif" font-size="10.00" fill="#000000">sstream</text>
</g>
<!-- Node3&#45;&gt;Node4 -->
<g id="edge4" class="edge">
<title>Node3&#45;&gt;Node4</title>
<path fill="none" stroke="#191970" d="M44,-56.2455C44,-48.9382 44,-38.6944 44,-29.7046"/>
<polygon fill="#191970" stroke="#191970" points="47.5001,-29.6426 44,-19.6427 40.5001,-29.6427 47.5001,-29.6426"/>
</g>
</g>
</svg>
