<?xml version="1.0" encoding="UTF-8" standalone="no"?>
<!DOCTYPE svg PUBLIC "-//W3C//DTD SVG 1.1//EN"
 "http://www.w3.org/Graphics/SVG/1.1/DTD/svg11.dtd">
<!-- Generated by graphviz version 2.40.1 (20161225.0304)
 -->
<!-- Title: libchig/include/chig/FunctionCompiler.hpp Pages: 1 -->
<svg width="545pt" height="207pt"
 viewBox="0.00 0.00 544.50 207.00" xmlns="http://www.w3.org/2000/svg" xmlns:xlink="http://www.w3.org/1999/xlink">
<g id="graph0" class="graph" transform="scale(1 1) rotate(0) translate(4 203)">
<title>libchig/include/chig/FunctionCompiler.hpp</title>
<polygon fill="#ffffff" stroke="transparent" points="-4,4 -4,-203 540.5,-203 540.5,4 -4,4"/>
<!-- Node0 -->
<g id="node1" class="node">
<title>Node0</title>
<polygon fill="#bfbfbf" stroke="#000000" points="200.5,-168.5 200.5,-198.5 314.5,-198.5 314.5,-168.5 200.5,-168.5"/>
<text text-anchor="start" x="208.5" y="-186.5" font-family="Helvetica,sans-Serif" font-size="10.00" fill="#000000">libchig/include/chig</text>
<text text-anchor="middle" x="257.5" y="-175.5" font-family="Helvetica,sans-Serif" font-size="10.00" fill="#000000">/FunctionCompiler.hpp</text>
</g>
<!-- Node1 -->
<g id="node2" class="node">
<title>Node1</title>
<g id="a_node2"><a xlink:href="Fwd_8hpp.html" target="_top" xlink:title="Forward declares all the chigraph data types. ">
<polygon fill="#ffffff" stroke="#000000" points="14.5,-112.5 14.5,-131.5 88.5,-131.5 88.5,-112.5 14.5,-112.5"/>
<text text-anchor="middle" x="51.5" y="-119.5" font-family="Helvetica,sans-Serif" font-size="10.00" fill="#000000">chig/Fwd.hpp</text>
</a>
</g>
</g>
<!-- Node0&#45;&gt;Node1 -->
<g id="edge1" class="edge">
<title>Node0&#45;&gt;Node1</title>
<path fill="none" stroke="#191970" d="M207.1067,-168.4554C172.1321,-158.0139 126.0954,-144.27 93.1873,-134.4455"/>
<polygon fill="#191970" stroke="#191970" points="94.006,-131.0373 83.4227,-131.5303 92.0035,-137.7448 94.006,-131.0373"/>
</g>
<!-- Node2 -->
<g id="node3" class="node">
<title>Node2</title>
<g id="a_node3"><a xlink:href="Result_8hpp.html" target="_top" xlink:title="Defines the Result class and related functions. ">
<polygon fill="#ffffff" stroke="#000000" points="106.5,-112.5 106.5,-131.5 190.5,-131.5 190.5,-112.5 106.5,-112.5"/>
<text text-anchor="middle" x="148.5" y="-119.5" font-family="Helvetica,sans-Serif" font-size="10.00" fill="#000000">chig/Result.hpp</text>
</a>
</g>
</g>
<!-- Node0&#45;&gt;Node2 -->
<g id="edge2" class="edge">
<title>Node0&#45;&gt;Node2</title>
<path fill="none" stroke="#191970" d="M230.8356,-168.4554C213.6059,-158.734 191.3025,-146.15 174.2554,-136.5317"/>
<polygon fill="#191970" stroke="#191970" points="175.8204,-133.3961 165.3911,-131.5303 172.3806,-139.4926 175.8204,-133.3961"/>
</g>
<!-- Node7 -->
<g id="node8" class="node">
<title>Node7</title>
<polygon fill="#ffffff" stroke="#bfbfbf" points="208.5,-112.5 208.5,-131.5 306.5,-131.5 306.5,-112.5 208.5,-112.5"/>
<text text-anchor="middle" x="257.5" y="-119.5" font-family="Helvetica,sans-Serif" font-size="10.00" fill="#000000">llvm/IR/DIBuilder.h</text>
</g>
<!-- Node0&#45;&gt;Node7 -->
<g id="edge7" class="edge">
<title>Node0&#45;&gt;Node7</title>
<path fill="none" stroke="#191970" d="M257.5,-168.2977C257.5,-160.3834 257.5,-150.6043 257.5,-142.0759"/>
<polygon fill="#191970" stroke="#191970" points="261.0001,-141.8469 257.5,-131.8469 254.0001,-141.847 261.0001,-141.8469"/>
</g>
<!-- Node8 -->
<g id="node9" class="node">
<title>Node8</title>
<polygon fill="#ffffff" stroke="#bfbfbf" points="325,-112.5 325,-131.5 428,-131.5 428,-112.5 325,-112.5"/>
<text text-anchor="middle" x="376.5" y="-119.5" font-family="Helvetica,sans-Serif" font-size="10.00" fill="#000000">llvm/IR/DebugInfo.h</text>
</g>
<!-- Node0&#45;&gt;Node8 -->
<g id="edge8" class="edge">
<title>Node0&#45;&gt;Node8</title>
<path fill="none" stroke="#191970" d="M286.6107,-168.4554C305.6824,-158.599 330.4482,-145.7999 349.1539,-136.1327"/>
<polygon fill="#191970" stroke="#191970" points="350.7824,-139.2309 358.0592,-131.5303 347.5685,-133.0122 350.7824,-139.2309"/>
</g>
<!-- Node9 -->
<g id="node10" class="node">
<title>Node9</title>
<polygon fill="#ffffff" stroke="#bfbfbf" points="446.5,-112.5 446.5,-131.5 536.5,-131.5 536.5,-112.5 446.5,-112.5"/>
<text text-anchor="middle" x="491.5" y="-119.5" font-family="Helvetica,sans-Serif" font-size="10.00" fill="#000000">llvm/IR/Module.h</text>
</g>
<!-- Node0&#45;&gt;Node9 -->
<g id="edge9" class="edge">
<title>Node0&#45;&gt;Node9</title>
<path fill="none" stroke="#191970" d="M314.7428,-168.4554C354.8138,-157.9239 407.6679,-144.0328 445.1099,-134.1923"/>
<polygon fill="#191970" stroke="#191970" points="446.4564,-137.4573 455.2383,-131.5303 444.6771,-130.6872 446.4564,-137.4573"/>
</g>
<!-- Node3 -->
<g id="node4" class="node">
<title>Node3</title>
<g id="a_node4"><a xlink:href="ToString_8hpp_source.html" target="_top" xlink:title="chig/ToString.hpp">
<polygon fill="#ffffff" stroke="#000000" points="0,-56.5 0,-75.5 93,-75.5 93,-56.5 0,-56.5"/>
<text text-anchor="middle" x="46.5" y="-63.5" font-family="Helvetica,sans-Serif" font-size="10.00" fill="#000000">chig/ToString.hpp</text>
</a>
</g>
</g>
<!-- Node2&#45;&gt;Node3 -->
<g id="edge3" class="edge">
<title>Node2&#45;&gt;Node3</title>
<path fill="none" stroke="#191970" d="M130.733,-112.2455C114.7905,-103.4928 91.1741,-90.527 73.0011,-80.5496"/>
<polygon fill="#191970" stroke="#191970" points="74.5137,-77.3873 64.0634,-75.6427 71.1448,-83.5233 74.5137,-77.3873"/>
</g>
<!-- Node5 -->
<g id="node6" class="node">
<title>Node5</title>
<polygon fill="#ffffff" stroke="#bfbfbf" points="111.5,-56.5 111.5,-75.5 185.5,-75.5 185.5,-56.5 111.5,-56.5"/>
<text text-anchor="middle" x="148.5" y="-63.5" font-family="Helvetica,sans-Serif" font-size="10.00" fill="#000000">chig/json.hpp</text>
</g>
<!-- Node2&#45;&gt;Node5 -->
<g id="edge5" class="edge">
<title>Node2&#45;&gt;Node5</title>
<path fill="none" stroke="#191970" d="M148.5,-112.2455C148.5,-104.9382 148.5,-94.6944 148.5,-85.7046"/>
<polygon fill="#191970" stroke="#191970" points="152.0001,-85.6426 148.5,-75.6427 145.0001,-85.6427 152.0001,-85.6426"/>
</g>
<!-- Node6 -->
<g id="node7" class="node">
<title>Node6</title>
<polygon fill="#ffffff" stroke="#bfbfbf" points="204,-56.5 204,-75.5 249,-75.5 249,-56.5 204,-56.5"/>
<text text-anchor="middle" x="226.5" y="-63.5" font-family="Helvetica,sans-Serif" font-size="10.00" fill="#000000">gsl/gsl</text>
</g>
<!-- Node2&#45;&gt;Node6 -->
<g id="edge6" class="edge">
<title>Node2&#45;&gt;Node6</title>
<path fill="none" stroke="#191970" d="M162.0866,-112.2455C173.8305,-103.814 191.0199,-91.4729 204.6882,-81.6598"/>
<polygon fill="#191970" stroke="#191970" points="206.9871,-84.3179 213.0691,-75.6427 202.9046,-78.6316 206.9871,-84.3179"/>
</g>
<!-- Node4 -->
<g id="node5" class="node">
<title>Node4</title>
<polygon fill="#ffffff" stroke="#bfbfbf" points="20.5,-.5 20.5,-19.5 72.5,-19.5 72.5,-.5 20.5,-.5"/>
<text text-anchor="middle" x="46.5" y="-7.5" font-family="Helvetica,sans-Serif" font-size="10.00" fill="#000000">sstream</text>
</g>
<!-- Node3&#45;&gt;Node4 -->
<g id="edge4" class="edge">
<title>Node3&#45;&gt;Node4</title>
<path fill="none" stroke="#191970" d="M46.5,-56.2455C46.5,-48.9382 46.5,-38.6944 46.5,-29.7046"/>
<polygon fill="#191970" stroke="#191970" points="50.0001,-29.6426 46.5,-19.6427 43.0001,-29.6427 50.0001,-29.6426"/>
</g>
</g>
</svg>
