<?xml version="1.0" encoding="UTF-8" standalone="no"?>
<!DOCTYPE svg PUBLIC "-//W3C//DTD SVG 1.1//EN"
 "http://www.w3.org/Graphics/SVG/1.1/DTD/svg11.dtd">
<!-- Generated by graphviz version 2.40.1 (20161225.0304)
 -->
<!-- Title: lib/core/include/chi/GraphModule.hpp Pages: 1 -->
<!--zoomable 162 -->
<svg id="main" version="1.1" xmlns="http://www.w3.org/2000/svg" xmlns:xlink="http://www.w3.org/1999/xlink" xml:space="preserve" onload="init(evt)">
<style type="text/css"><![CDATA[
.edge:hover path { stroke: red; }
.edge:hover polygon { stroke: red; fill: red; }
]]></style>
<script type="text/javascript"><![CDATA[
var edges = document.getElementsByTagName('g');
if (edges && edges.length) {
  for (var i=0;i<edges.length;i++) {
    if (edges[i].id.substr(0,4)=='edge') {
      edges[i].setAttribute('class','edge');
    }
  }
}
]]></script>
        <defs>
                <circle id="rim" cx="0" cy="0" r="7"/>
                <circle id="rim2" cx="0" cy="0" r="3.5"/>
                <g id="zoomPlus">
                        <use xlink:href="#rim" fill="#404040">
                                <set attributeName="fill" to="#808080" begin="zoomplus.mouseover" end="zoomplus.mouseout"/>
                        </use>
                        <path d="M-4,0h8M0,-4v8" fill="none" stroke="white" stroke-width="1.5" pointer-events="none"/>
                </g>
                <g id="zoomMin">
                        <use xlink:href="#rim" fill="#404040">
                                <set attributeName="fill" to="#808080" begin="zoomminus.mouseover" end="zoomminus.mouseout"/>
                        </use>
                        <path d="M-4,0h8" fill="none" stroke="white" stroke-width="1.5" pointer-events="none"/>
                </g>
                <g id="dirArrow">
                        <path fill="none" stroke="white" stroke-width="1.5" d="M0,-3.0v7 M-2.5,-0.5L0,-3.0L2.5,-0.5"/>
                </g>
               <g id="resetDef">
                       <use xlink:href="#rim2" fill="#404040">
                               <set attributeName="fill" to="#808080" begin="reset.mouseover" end="reset.mouseout"/>
                       </use>
               </g>
        </defs>

<script type="text/javascript">
var viewWidth = 1645;
var viewHeight = 162;
var sectionId = 'dynsection-1';
</script>
<script xlink:href="svgpan.js"/>
<svg id="graph" class="graph">
<g id="viewport">
<title>lib/core/include/chi/GraphModule.hpp</title>
<polygon fill="#ffffff" stroke="transparent" points="-4,4 -4,-158 1640.5,-158 1640.5,4 -4,4"/>
<!-- Node12 -->
<g id="node1" class="node">
<title>Node12</title>
<polygon fill="#bfbfbf" stroke="#000000" points="769,-123.5 769,-153.5 867,-153.5 867,-123.5 769,-123.5"/>
<text text-anchor="start" x="777" y="-141.5" font-family="Helvetica,sans-Serif" font-size="10.00" fill="#000000">lib/core/include/chi</text>
<text text-anchor="middle" x="818" y="-130.5" font-family="Helvetica,sans-Serif" font-size="10.00" fill="#000000">/GraphModule.hpp</text>
</g>
<!-- Node13 -->
<g id="node2" class="node">
<title>Node13</title>
<g id="a_node2"><a xlink:href="Context_8cpp.html" target="_top" xlink:title="lib/core/src/Context.cpp">
<polygon fill="#ffffff" stroke="#000000" points="0,-62 0,-81 120,-81 120,-62 0,-62"/>
<text text-anchor="middle" x="60" y="-69" font-family="Helvetica,sans-Serif" font-size="10.00" fill="#000000">lib/core/src/Context.cpp</text>
</a>
</g>
</g>
<!-- Node12&#45;&gt;Node13 -->
<g id="edge1" class="edge">
<title>Node12&#45;&gt;Node13</title>
<path fill="none" stroke="#191970" d="M758.8099,-136.9918C639.209,-133.3031 360.4329,-121.4543 129,-87 118.7992,-85.4814 107.8637,-83.2905 97.7739,-81.0321"/>
<polygon fill="#191970" stroke="#191970" points="758.756,-140.4916 768.8567,-137.2939 758.9665,-133.4948 758.756,-140.4916"/>
</g>
<!-- Node14 -->
<g id="node3" class="node">
<title>Node14</title>
<g id="a_node3"><a xlink:href="FunctionCompiler_8cpp.html" target="_top" xlink:title="lib/core/src/FunctionCompiler.cpp">
<polygon fill="#ffffff" stroke="#000000" points="138,-62 138,-81 300,-81 300,-62 138,-62"/>
<text text-anchor="middle" x="219" y="-69" font-family="Helvetica,sans-Serif" font-size="10.00" fill="#000000">lib/core/src/FunctionCompiler.cpp</text>
</a>
</g>
</g>
<!-- Node12&#45;&gt;Node14 -->
<g id="edge2" class="edge">
<title>Node12&#45;&gt;Node14</title>
<path fill="none" stroke="#191970" d="M758.7274,-133.8527C663.6286,-126.0931 471.1761,-109.1421 309,-87 296.5897,-85.3056 283.2681,-83.1809 270.7796,-81.0528"/>
<polygon fill="#191970" stroke="#191970" points="758.4786,-137.3439 768.7289,-134.6641 759.0447,-130.3668 758.4786,-137.3439"/>
</g>
<!-- Node15 -->
<g id="node4" class="node">
<title>Node15</title>
<g id="a_node4"><a xlink:href="FunctionValidator_8cpp.html" target="_top" xlink:title="lib/core/src/FunctionValidator.cpp">
<polygon fill="#ffffff" stroke="#000000" points="318,-62 318,-81 480,-81 480,-62 318,-62"/>
<text text-anchor="middle" x="399" y="-69" font-family="Helvetica,sans-Serif" font-size="10.00" fill="#000000">lib/core/src/FunctionValidator.cpp</text>
</a>
</g>
</g>
<!-- Node12&#45;&gt;Node15 -->
<g id="edge3" class="edge">
<title>Node12&#45;&gt;Node15</title>
<path fill="none" stroke="#191970" d="M758.7181,-129.4991C692.8112,-119.4274 583.223,-102.4873 489,-87 477.5791,-85.1228 465.3534,-83.0558 453.7106,-81.0599"/>
<polygon fill="#191970" stroke="#191970" points="758.498,-133.006 768.9117,-131.0553 759.5544,-126.0861 758.498,-133.006"/>
</g>
<!-- Node16 -->
<g id="node5" class="node">
<title>Node16</title>
<g id="a_node5"><a xlink:href="GraphFunction_8cpp.html" target="_top" xlink:title="lib/core/src/GraphFunction.cpp">
<polygon fill="#ffffff" stroke="#000000" points="498,-62 498,-81 648,-81 648,-62 498,-62"/>
<text text-anchor="middle" x="573" y="-69" font-family="Helvetica,sans-Serif" font-size="10.00" fill="#000000">lib/core/src/GraphFunction.cpp</text>
</a>
</g>
</g>
<!-- Node12&#45;&gt;Node16 -->
<g id="edge4" class="edge">
<title>Node12&#45;&gt;Node16</title>
<path fill="none" stroke="#191970" d="M758.9291,-122.3459C711.7644,-109.4478 647.2761,-91.8122 607.9657,-81.0621"/>
<polygon fill="#191970" stroke="#191970" points="758.1462,-125.7603 768.7153,-125.0221 759.9928,-119.0082 758.1462,-125.7603"/>
</g>
<!-- Node17 -->
<g id="node6" class="node">
<title>Node17</title>
<g id="a_node6"><a xlink:href="GraphModule_8cpp.html" target="_top" xlink:title="lib/core/src/GraphModule.cpp">
<polygon fill="#ffffff" stroke="#000000" points="666,-62 666,-81 810,-81 810,-62 666,-62"/>
<text text-anchor="middle" x="738" y="-69" font-family="Helvetica,sans-Serif" font-size="10.00" fill="#000000">lib/core/src/GraphModule.cpp</text>
</a>
</g>
</g>
<!-- Node12&#45;&gt;Node17 -->
<g id="edge5" class="edge">
<title>Node12&#45;&gt;Node17</title>
<path fill="none" stroke="#191970" d="M791.7798,-116.5406C777.4383,-104.5296 760.4044,-90.2637 749.4089,-81.055"/>
<polygon fill="#191970" stroke="#191970" points="789.933,-119.5592 799.8468,-123.2967 794.4275,-114.1927 789.933,-119.5592"/>
</g>
<!-- Node18 -->
<g id="node7" class="node">
<title>Node18</title>
<g id="a_node7"><a xlink:href="GraphStruct_8cpp.html" target="_top" xlink:title="lib/core/src/GraphStruct.cpp">
<polygon fill="#ffffff" stroke="#000000" points="828.5,-62 828.5,-81 967.5,-81 967.5,-62 828.5,-62"/>
<text text-anchor="middle" x="898" y="-69" font-family="Helvetica,sans-Serif" font-size="10.00" fill="#000000">lib/core/src/GraphStruct.cpp</text>
</a>
</g>
</g>
<!-- Node12&#45;&gt;Node18 -->
<g id="edge6" class="edge">
<title>Node12&#45;&gt;Node18</title>
<path fill="none" stroke="#191970" d="M844.2202,-116.5406C858.5617,-104.5296 875.5956,-90.2637 886.5911,-81.055"/>
<polygon fill="#191970" stroke="#191970" points="841.5725,-114.1927 836.1532,-123.2967 846.067,-119.5592 841.5725,-114.1927"/>
</g>
<!-- Node19 -->
<g id="node8" class="node">
<title>Node19</title>
<g id="a_node8"><a xlink:href="JsonDeserializer_8cpp.html" target="_top" xlink:title="lib/core/src/JsonDeserializer.cpp">
<polygon fill="#ffffff" stroke="#000000" points="986,-62 986,-81 1144,-81 1144,-62 986,-62"/>
<text text-anchor="middle" x="1065" y="-69" font-family="Helvetica,sans-Serif" font-size="10.00" fill="#000000">lib/core/src/JsonDeserializer.cpp</text>
</a>
</g>
</g>
<!-- Node12&#45;&gt;Node19 -->
<g id="edge7" class="edge">
<title>Node12&#45;&gt;Node19</title>
<path fill="none" stroke="#191970" d="M876.9822,-122.5008C924.6607,-109.5677 990.1771,-91.7961 1029.9479,-81.0081"/>
<polygon fill="#191970" stroke="#191970" points="875.8295,-119.1869 867.0946,-125.1828 877.6621,-125.9428 875.8295,-119.1869"/>
</g>
<!-- Node20 -->
<g id="node9" class="node">
<title>Node20</title>
<g id="a_node9"><a xlink:href="JsonSerializer_8cpp.html" target="_top" xlink:title="lib/core/src/JsonSerializer.cpp">
<polygon fill="#ffffff" stroke="#000000" points="1162,-62 1162,-81 1310,-81 1310,-62 1162,-62"/>
<text text-anchor="middle" x="1236" y="-69" font-family="Helvetica,sans-Serif" font-size="10.00" fill="#000000">lib/core/src/JsonSerializer.cpp</text>
</a>
</g>
</g>
<!-- Node12&#45;&gt;Node20 -->
<g id="edge8" class="edge">
<title>Node12&#45;&gt;Node20</title>
<path fill="none" stroke="#191970" d="M877.1335,-129.9951C944.141,-120.2216 1056.5793,-103.4102 1153,-87 1163.8383,-85.1554 1175.4499,-83.0612 1186.4516,-81.0221"/>
<polygon fill="#191970" stroke="#191970" points="876.5731,-126.5397 867.1815,-131.4436 877.5814,-133.4667 876.5731,-126.5397"/>
</g>
<!-- Node21 -->
<g id="node10" class="node">
<title>Node21</title>
<g id="a_node10"><a xlink:href="NodeInstance_8cpp.html" target="_top" xlink:title="lib/core/src/NodeInstance.cpp">
<polygon fill="#ffffff" stroke="#000000" points="1328,-62 1328,-81 1474,-81 1474,-62 1328,-62"/>
<text text-anchor="middle" x="1401" y="-69" font-family="Helvetica,sans-Serif" font-size="10.00" fill="#000000">lib/core/src/NodeInstance.cpp</text>
</a>
</g>
</g>
<!-- Node12&#45;&gt;Node21 -->
<g id="edge9" class="edge">
<title>Node12&#45;&gt;Node21</title>
<path fill="none" stroke="#191970" d="M877.4052,-134.0262C971.4176,-126.5793 1160.1263,-110.139 1319,-87 1330.4696,-85.3295 1342.7785,-83.1894 1354.282,-81.0363"/>
<polygon fill="#191970" stroke="#191970" points="876.933,-130.5525 867.2382,-134.8257 877.4818,-137.5309 876.933,-130.5525"/>
</g>
<!-- Node22 -->
<g id="node11" class="node">
<title>Node22</title>
<g id="a_node11"><a xlink:href="Debugger_8hpp_source.html" target="_top" xlink:title="lib/debugger/include\l/chi/Debugger/Debugger.hpp">
<polygon fill="#ffffff" stroke="#000000" points="1492,-56.5 1492,-86.5 1632,-86.5 1632,-56.5 1492,-56.5"/>
<text text-anchor="start" x="1500" y="-74.5" font-family="Helvetica,sans-Serif" font-size="10.00" fill="#000000">lib/debugger/include</text>
<text text-anchor="middle" x="1562" y="-63.5" font-family="Helvetica,sans-Serif" font-size="10.00" fill="#000000">/chi/Debugger/Debugger.hpp</text>
</a>
</g>
</g>
<!-- Node12&#45;&gt;Node22 -->
<g id="edge10" class="edge">
<title>Node12&#45;&gt;Node22</title>
<path fill="none" stroke="#191970" d="M877.1394,-136.2337C993.5695,-131.2615 1260.5303,-117.334 1483,-87 1485.9082,-86.6035 1488.8709,-86.1677 1491.8595,-85.7018"/>
<polygon fill="#191970" stroke="#191970" points="876.8582,-132.7423 867.0142,-136.6596 877.1525,-139.7361 876.8582,-132.7423"/>
</g>
<!-- Node23 -->
<g id="node12" class="node">
<title>Node23</title>
<g id="a_node12"><a xlink:href="Debugger_8cpp.html" target="_top" xlink:title="lib/debugger/src/Debugger.cpp">
<polygon fill="#ffffff" stroke="#000000" points="1487.5,-.5 1487.5,-19.5 1636.5,-19.5 1636.5,-.5 1487.5,-.5"/>
<text text-anchor="middle" x="1562" y="-7.5" font-family="Helvetica,sans-Serif" font-size="10.00" fill="#000000">lib/debugger/src/Debugger.cpp</text>
</a>
</g>
</g>
<!-- Node22&#45;&gt;Node23 -->
<g id="edge11" class="edge">
<title>Node22&#45;&gt;Node23</title>
<path fill="none" stroke="#191970" d="M1562,-46.2849C1562,-36.9858 1562,-26.9883 1562,-19.8469"/>
<polygon fill="#191970" stroke="#191970" points="1558.5001,-46.2977 1562,-56.2977 1565.5001,-46.2978 1558.5001,-46.2977"/>
</g>
</g>
</svg>
        <g id="navigator" transform="translate(0 0)" fill="#404254">
                <rect fill="#f2f5e9" fill-opacity="0.5" stroke="#606060" stroke-width=".5" x="0" y="0" width="60" height="60"/>
                <use id="zoomplus" xlink:href="#zoomPlus" x="17" y="9" onmousedown="handleZoom(evt,'in')"/>
                <use id="zoomminus" xlink:href="#zoomMin" x="42" y="9" onmousedown="handleZoom(evt,'out')"/>
                <use id="reset" xlink:href="#resetDef" x="30" y="36" onmousedown="handleReset()"/>
                <g id="arrowUp" xlink:href="#dirArrow" transform="translate(30 24)" onmousedown="handlePan(0,-1)">
                  <use xlink:href="#rim" fill="#404040">
                        <set attributeName="fill" to="#808080" begin="arrowUp.mouseover" end="arrowUp.mouseout"/>
                  </use>
                  <path fill="none" stroke="white" stroke-width="1.5" d="M0,-3.0v7 M-2.5,-0.5L0,-3.0L2.5,-0.5"/>
                </g>
                <g id="arrowRight" xlink:href="#dirArrow" transform="rotate(90) translate(36 -43)" onmousedown="handlePan(1,0)">
                  <use xlink:href="#rim" fill="#404040">
                        <set attributeName="fill" to="#808080" begin="arrowRight.mouseover" end="arrowRight.mouseout"/>
                  </use>
                  <path fill="none" stroke="white" stroke-width="1.5" d="M0,-3.0v7 M-2.5,-0.5L0,-3.0L2.5,-0.5"/>
                </g>
                <g id="arrowDown" xlink:href="#dirArrow" transform="rotate(180) translate(-30 -48)" onmousedown="handlePan(0,1)">
                  <use xlink:href="#rim" fill="#404040">
                        <set attributeName="fill" to="#808080" begin="arrowDown.mouseover" end="arrowDown.mouseout"/>
                  </use>
                  <path fill="none" stroke="white" stroke-width="1.5" d="M0,-3.0v7 M-2.5,-0.5L0,-3.0L2.5,-0.5"/>
                </g>
                <g id="arrowLeft" xlink:href="#dirArrow" transform="rotate(270) translate(-36 17)" onmousedown="handlePan(-1,0)">
                  <use xlink:href="#rim" fill="#404040">
                        <set attributeName="fill" to="#808080" begin="arrowLeft.mouseover" end="arrowLeft.mouseout"/>
                  </use>
                  <path fill="none" stroke="white" stroke-width="1.5" d="M0,-3.0v7 M-2.5,-0.5L0,-3.0L2.5,-0.5"/>
                </g>
        </g>
        <svg viewBox="0 0 15 15" width="100%" height="30px" preserveAspectRatio="xMaxYMin meet">
         <g id="arrow_out" transform="scale(0.3 0.3)">
          <a xlink:href="GraphModule_8hpp__dep__incl_org.svg" target="_base">
           <rect id="button" ry="5" rx="5" y="6" x="6" height="38" width="38"
                fill="#f2f5e9" fill-opacity="0.5" stroke="#606060" stroke-width="1.0"/>
           <path id="arrow"
             d="M 11.500037,31.436501 C 11.940474,20.09759 22.043105,11.32322 32.158766,21.979434 L 37.068811,17.246167 C 37.068811,17.246167 37.088388,32 37.088388,32 L 22.160133,31.978069 C 22.160133,31.978069 26.997745,27.140456 26.997745,27.140456 C 18.528582,18.264221 13.291696,25.230495 11.500037,31.436501 z"
             style="fill:#404040;"/>
          </a>
         </g>
        </svg>
</svg>
