<?xml version="1.0" encoding="UTF-8" standalone="no"?>
<!DOCTYPE svg PUBLIC "-//W3C//DTD SVG 1.1//EN"
 "http://www.w3.org/Graphics/SVG/1.1/DTD/svg11.dtd">
<!-- Generated by graphviz version 2.40.1 (20161225.0304)
 -->
<!-- Title: libchigraph/src/GraphFunction.cpp Pages: 1 -->
<!--zoomable 274 -->
<svg id="main" version="1.1" xmlns="http://www.w3.org/2000/svg" xmlns:xlink="http://www.w3.org/1999/xlink" xml:space="preserve" onload="init(evt)">
<style type="text/css"><![CDATA[
.edge:hover path { stroke: red; }
.edge:hover polygon { stroke: red; fill: red; }
]]></style>
<script type="text/javascript"><![CDATA[
var edges = document.getElementsByTagName('g');
if (edges && edges.length) {
  for (var i=0;i<edges.length;i++) {
    if (edges[i].id.substr(0,4)=='edge') {
      edges[i].setAttribute('class','edge');
    }
  }
}
]]></script>
        <defs>
                <circle id="rim" cx="0" cy="0" r="7"/>
                <circle id="rim2" cx="0" cy="0" r="3.5"/>
                <g id="zoomPlus">
                        <use xlink:href="#rim" fill="#404040">
                                <set attributeName="fill" to="#808080" begin="zoomplus.mouseover" end="zoomplus.mouseout"/>
                        </use>
                        <path d="M-4,0h8M0,-4v8" fill="none" stroke="white" stroke-width="1.5" pointer-events="none"/>
                </g>
                <g id="zoomMin">
                        <use xlink:href="#rim" fill="#404040">
                                <set attributeName="fill" to="#808080" begin="zoomminus.mouseover" end="zoomminus.mouseout"/>
                        </use>
                        <path d="M-4,0h8" fill="none" stroke="white" stroke-width="1.5" pointer-events="none"/>
                </g>
                <g id="dirArrow">
                        <path fill="none" stroke="white" stroke-width="1.5" d="M0,-3.0v7 M-2.5,-0.5L0,-3.0L2.5,-0.5"/>
                </g>
               <g id="resetDef">
                       <use xlink:href="#rim2" fill="#404040">
                               <set attributeName="fill" to="#808080" begin="reset.mouseover" end="reset.mouseout"/>
                       </use>
               </g>
        </defs>

<script type="text/javascript">
var viewWidth = 2644;
var viewHeight = 274;
var sectionId = 'dynsection-0';
</script>
<script xlink:href="svgpan.js"/>
<svg id="graph" class="graph">
<g id="viewport">
<title>libchigraph/src/GraphFunction.cpp</title>
<polygon fill="#ffffff" stroke="transparent" points="-4,4 -4,-270 2639.5,-270 2639.5,4 -4,4"/>
<!-- Node0 -->
<g id="node1" class="node">
<title>Node0</title>
<polygon fill="#bfbfbf" stroke="#000000" points="1477,-246.5 1477,-265.5 1642,-265.5 1642,-246.5 1477,-246.5"/>
<text text-anchor="middle" x="1559.5" y="-253.5" font-family="Helvetica,sans-Serif" font-size="10.00" fill="#000000">libchigraph/src/GraphFunction.cpp</text>
</g>
<!-- Node1 -->
<g id="node2" class="node">
<title>Node1</title>
<g id="a_node2"><a xlink:href="GraphFunction_8hpp.html" target="_top" xlink:title="Declares the GraphFunction class. ">
<polygon fill="#ffffff" stroke="#000000" points="586,-123.5 586,-142.5 701,-142.5 701,-123.5 586,-123.5"/>
<text text-anchor="middle" x="643.5" y="-130.5" font-family="Helvetica,sans-Serif" font-size="10.00" fill="#000000">chi/GraphFunction.hpp</text>
</a>
</g>
</g>
<!-- Node0&#45;&gt;Node1 -->
<g id="edge1" class="edge">
<title>Node0&#45;&gt;Node1</title>
<path fill="none" stroke="#191970" d="M1476.7487,-253.2181C1319.4068,-247.4781 982.6219,-232.9081 868.5,-210 796.9599,-195.6395 716.9615,-164.4085 674.2797,-146.4449"/>
<polygon fill="#191970" stroke="#191970" points="675.5788,-143.194 665.0066,-142.5028 672.8402,-149.6361 675.5788,-143.194"/>
</g>
<!-- Node11 -->
<g id="node12" class="node">
<title>Node11</title>
<g id="a_node12"><a xlink:href="Context_8hpp.html" target="_top" xlink:title="Defines the Context class and related functions. ">
<polygon fill="#ffffff" stroke="#000000" points="750,-123.5 750,-142.5 835,-142.5 835,-123.5 750,-123.5"/>
<text text-anchor="middle" x="792.5" y="-130.5" font-family="Helvetica,sans-Serif" font-size="10.00" fill="#000000">chi/Context.hpp</text>
</a>
</g>
</g>
<!-- Node0&#45;&gt;Node11 -->
<g id="edge12" class="edge">
<title>Node0&#45;&gt;Node11</title>
<path fill="none" stroke="#191970" d="M1476.9141,-253.7554C1333.4147,-249.1977 1044.0403,-236.9188 946.5,-210 897.0985,-196.3663 844.7958,-166.4586 815.6348,-148.1894"/>
<polygon fill="#191970" stroke="#191970" points="817.3287,-145.1188 807.0131,-142.7022 813.5702,-151.0242 817.3287,-145.1188"/>
</g>
<!-- Node17 -->
<g id="node18" class="node">
<title>Node17</title>
<g id="a_node18"><a xlink:href="DataType_8hpp.html" target="_top" xlink:title="Defines the DataType class. ">
<polygon fill="#ffffff" stroke="#000000" points="1171,-185 1171,-204 1264,-204 1264,-185 1171,-185"/>
<text text-anchor="middle" x="1217.5" y="-192" font-family="Helvetica,sans-Serif" font-size="10.00" fill="#000000">chi/DataType.hpp</text>
</a>
</g>
</g>
<!-- Node0&#45;&gt;Node17 -->
<g id="edge23" class="edge">
<title>Node0&#45;&gt;Node17</title>
<path fill="none" stroke="#191970" d="M1500.8019,-246.4624C1446.6366,-237.5248 1364.0181,-223.5471 1292.5,-210 1285.9171,-208.7531 1279.0199,-207.3965 1272.1871,-206.0217"/>
<polygon fill="#191970" stroke="#191970" points="1272.7632,-202.5673 1262.2664,-204.0051 1271.3688,-209.427 1272.7632,-202.5673"/>
</g>
<!-- Node19 -->
<g id="node20" class="node">
<title>Node19</title>
<g id="a_node20"><a xlink:href="FunctionValidator_8hpp.html" target="_top" xlink:title="Defines functions for validating GraphFunction objects. ">
<polygon fill="#ffffff" stroke="#000000" points="1220,-123.5 1220,-142.5 1347,-142.5 1347,-123.5 1220,-123.5"/>
<text text-anchor="middle" x="1283.5" y="-130.5" font-family="Helvetica,sans-Serif" font-size="10.00" fill="#000000">chi/FunctionValidator.hpp</text>
</a>
</g>
</g>
<!-- Node0&#45;&gt;Node19 -->
<g id="edge26" class="edge">
<title>Node0&#45;&gt;Node19</title>
<path fill="none" stroke="#191970" d="M1507.7766,-246.4228C1474.1841,-239.0661 1430.018,-227.2154 1393.5,-210 1358.8447,-193.6627 1323.3478,-166.565 1302.3742,-149.2574"/>
<polygon fill="#191970" stroke="#191970" points="1304.4837,-146.4587 1294.5724,-142.7149 1299.9858,-151.8224 1304.4837,-146.4587"/>
</g>
<!-- Node20 -->
<g id="node21" class="node">
<title>Node20</title>
<g id="a_node21"><a xlink:href="GraphModule_8hpp.html" target="_top" xlink:title="Defines the GraphModule class. ">
<polygon fill="#ffffff" stroke="#000000" points="1403,-185 1403,-204 1512,-204 1512,-185 1403,-185"/>
<text text-anchor="middle" x="1457.5" y="-192" font-family="Helvetica,sans-Serif" font-size="10.00" fill="#000000">chi/GraphModule.hpp</text>
</a>
</g>
</g>
<!-- Node0&#45;&gt;Node20 -->
<g id="edge28" class="edge">
<title>Node0&#45;&gt;Node20</title>
<path fill="none" stroke="#191970" d="M1543.5625,-246.3906C1527.0949,-236.4616 1501.1742,-220.833 1482.0796,-209.3201"/>
<polygon fill="#191970" stroke="#191970" points="1483.6966,-206.2081 1473.3256,-204.0419 1480.0822,-212.2027 1483.6966,-206.2081"/>
</g>
<!-- Node26 -->
<g id="node27" class="node">
<title>Node26</title>
<g id="a_node27"><a xlink:href="NameMangler_8hpp.html" target="_top" xlink:title="Definitions for mangling functions. ">
<polygon fill="#ffffff" stroke="#000000" points="1042,-185 1042,-204 1153,-204 1153,-185 1042,-185"/>
<text text-anchor="middle" x="1097.5" y="-192" font-family="Helvetica,sans-Serif" font-size="10.00" fill="#000000">chi/NameMangler.hpp</text>
</a>
</g>
</g>
<!-- Node0&#45;&gt;Node26 -->
<g id="edge41" class="edge">
<title>Node0&#45;&gt;Node26</title>
<path fill="none" stroke="#191970" d="M1476.7468,-249.4139C1395.9439,-242.2832 1269.6961,-229.2795 1161.5,-210 1155.6597,-208.9593 1149.5575,-207.7037 1143.5395,-206.363"/>
<polygon fill="#191970" stroke="#191970" points="1144.0843,-202.8966 1133.5523,-204.0493 1142.5044,-209.716 1144.0843,-202.8966"/>
</g>
<!-- Node28 -->
<g id="node29" class="node">
<title>Node28</title>
<g id="a_node29"><a xlink:href="NodeInstance_8hpp.html" target="_top" xlink:title="Defines the NodeInstance class and related functions. ">
<polygon fill="#ffffff" stroke="#000000" points="1689,-123.5 1689,-142.5 1800,-142.5 1800,-123.5 1689,-123.5"/>
<text text-anchor="middle" x="1744.5" y="-130.5" font-family="Helvetica,sans-Serif" font-size="10.00" fill="#000000">chi/NodeInstance.hpp</text>
</a>
</g>
</g>
<!-- Node0&#45;&gt;Node28 -->
<g id="edge44" class="edge">
<title>Node0&#45;&gt;Node28</title>
<path fill="none" stroke="#191970" d="M1556.9072,-246.4352C1553.208,-230.4775 1548.5017,-198.277 1564.5,-179 1572.4252,-169.4506 1635.873,-154.7585 1685.2231,-144.558"/>
<polygon fill="#191970" stroke="#191970" points="1686.1038,-147.9504 1695.1993,-142.5168 1684.7006,-141.0924 1686.1038,-147.9504"/>
</g>
<!-- Node31 -->
<g id="node32" class="node">
<title>Node31</title>
<polygon fill="#ffffff" stroke="#bfbfbf" points="1821.5,-62 1821.5,-81 1935.5,-81 1935.5,-62 1821.5,-62"/>
<text text-anchor="middle" x="1878.5" y="-69" font-family="Helvetica,sans-Serif" font-size="10.00" fill="#000000">boost/uuid/uuid_io.hpp</text>
</g>
<!-- Node0&#45;&gt;Node31 -->
<g id="edge67" class="edge">
<title>Node0&#45;&gt;Node31</title>
<path fill="none" stroke="#191970" d="M1561.3033,-246.3969C1564.9611,-229.7802 1574.9058,-195.8323 1597.5,-179 1674.141,-121.9038 1724.9818,-187.6151 1809.5,-143 1833.5706,-130.2937 1854.181,-106.0896 1866.4528,-89.3873"/>
<polygon fill="#191970" stroke="#191970" points="1869.467,-91.1868 1872.3816,-81.0007 1863.751,-87.1459 1869.467,-91.1868"/>
</g>
<!-- Node32 -->
<g id="node33" class="node">
<title>Node32</title>
<g id="a_node33"><a xlink:href="NodeType_8hpp.html" target="_top" xlink:title="Defines the NodeType class. ">
<polygon fill="#ffffff" stroke="#000000" points="950,-123.5 950,-142.5 1045,-142.5 1045,-123.5 950,-123.5"/>
<text text-anchor="middle" x="997.5" y="-130.5" font-family="Helvetica,sans-Serif" font-size="10.00" fill="#000000">chi/NodeType.hpp</text>
</a>
</g>
</g>
<!-- Node0&#45;&gt;Node32 -->
<g id="edge50" class="edge">
<title>Node0&#45;&gt;Node32</title>
<path fill="none" stroke="#191970" d="M1476.8292,-253.3256C1337.5759,-248.1547 1067.8814,-235.0258 1032.5,-210 1013.6369,-196.6579 1004.7395,-170.6288 1000.6833,-152.5483"/>
<polygon fill="#191970" stroke="#191970" points="1004.0753,-151.6544 998.7375,-142.5024 997.203,-152.9855 1004.0753,-151.6544"/>
</g>
<!-- Node34 -->
<g id="node35" class="node">
<title>Node34</title>
<g id="a_node35"><a xlink:href="Result_8hpp.html" target="_top" xlink:title="Defines the Result class and related functions. ">
<polygon fill="#ffffff" stroke="#000000" points="853,-123.5 853,-142.5 932,-142.5 932,-123.5 853,-123.5"/>
<text text-anchor="middle" x="892.5" y="-130.5" font-family="Helvetica,sans-Serif" font-size="10.00" fill="#000000">chi/Result.hpp</text>
</a>
</g>
</g>
<!-- Node0&#45;&gt;Node34 -->
<g id="edge57" class="edge">
<title>Node0&#45;&gt;Node34</title>
<path fill="none" stroke="#191970" d="M1476.8646,-254.2862C1344.2199,-250.6752 1090.1029,-239.9741 1005.5,-210 967.9664,-196.7022 931.1065,-167.7738 910.1508,-149.4063"/>
<polygon fill="#191970" stroke="#191970" points="912.4644,-146.7799 902.6819,-142.7114 907.7921,-151.9924 912.4644,-146.7799"/>
</g>
<!-- Node35 -->
<g id="node36" class="node">
<title>Node35</title>
<polygon fill="#ffffff" stroke="#bfbfbf" points="1606.5,-185 1606.5,-204 1732.5,-204 1732.5,-185 1606.5,-185"/>
<text text-anchor="middle" x="1669.5" y="-192" font-family="Helvetica,sans-Serif" font-size="10.00" fill="#000000">llvm/AsmParser/Parser.h</text>
</g>
<!-- Node0&#45;&gt;Node35 -->
<g id="edge59" class="edge">
<title>Node0&#45;&gt;Node35</title>
<path fill="none" stroke="#191970" d="M1576.6875,-246.3906C1594.6082,-236.3713 1622.9095,-220.5483 1643.5523,-209.0071"/>
<polygon fill="#191970" stroke="#191970" points="1645.4128,-211.9769 1652.4332,-204.0419 1641.9967,-205.867 1645.4128,-211.9769"/>
</g>
<!-- Node36 -->
<g id="node37" class="node">
<title>Node36</title>
<polygon fill="#ffffff" stroke="#bfbfbf" points="1750.5,-185 1750.5,-204 1848.5,-204 1848.5,-185 1750.5,-185"/>
<text text-anchor="middle" x="1799.5" y="-192" font-family="Helvetica,sans-Serif" font-size="10.00" fill="#000000">llvm/IR/DIBuilder.h</text>
</g>
<!-- Node0&#45;&gt;Node36 -->
<g id="edge60" class="edge">
<title>Node0&#45;&gt;Node36</title>
<path fill="none" stroke="#191970" d="M1597.8854,-246.4589C1634.7456,-237.259 1691.9786,-222.8746 1741.5,-210 1745.6422,-208.9231 1749.9478,-207.7929 1754.2578,-206.6542"/>
<polygon fill="#191970" stroke="#191970" points="1755.4802,-209.951 1764.2478,-204.0028 1753.6845,-203.1852 1755.4802,-209.951"/>
</g>
<!-- Node37 -->
<g id="node38" class="node">
<title>Node37</title>
<polygon fill="#ffffff" stroke="#bfbfbf" points="1867,-185 1867,-204 1986,-204 1986,-185 1867,-185"/>
<text text-anchor="middle" x="1926.5" y="-192" font-family="Helvetica,sans-Serif" font-size="10.00" fill="#000000">llvm/IR/DerivedTypes.h</text>
</g>
<!-- Node0&#45;&gt;Node37 -->
<g id="edge61" class="edge">
<title>Node0&#45;&gt;Node37</title>
<path fill="none" stroke="#191970" d="M1630.1766,-246.4671C1690.7033,-237.9746 1780.0894,-224.6519 1857.5,-210 1863.5958,-208.8462 1869.9736,-207.544 1876.2844,-206.1969"/>
<polygon fill="#191970" stroke="#191970" points="1877.0711,-209.6077 1886.0962,-204.058 1875.5802,-202.7683 1877.0711,-209.6077"/>
</g>
<!-- Node38 -->
<g id="node39" class="node">
<title>Node38</title>
<polygon fill="#ffffff" stroke="#bfbfbf" points="2004,-185 2004,-204 2093,-204 2093,-185 2004,-185"/>
<text text-anchor="middle" x="2048.5" y="-192" font-family="Helvetica,sans-Serif" font-size="10.00" fill="#000000">llvm/IR/Verifier.h</text>
</g>
<!-- Node0&#45;&gt;Node38 -->
<g id="edge62" class="edge">
<title>Node0&#45;&gt;Node38</title>
<path fill="none" stroke="#191970" d="M1642.1231,-251.7076C1730.3039,-246.0993 1873.7802,-234.0177 1995.5,-210 2000.0131,-209.1095 2004.6965,-208.0082 2009.3277,-206.8065"/>
<polygon fill="#191970" stroke="#191970" points="2010.5863,-210.0902 2019.2964,-204.0582 2008.7258,-203.3419 2010.5863,-210.0902"/>
</g>
<!-- Node39 -->
<g id="node40" class="node">
<title>Node39</title>
<polygon fill="#ffffff" stroke="#bfbfbf" points="2111.5,-185 2111.5,-204 2241.5,-204 2241.5,-185 2111.5,-185"/>
<text text-anchor="middle" x="2176.5" y="-192" font-family="Helvetica,sans-Serif" font-size="10.00" fill="#000000">llvm/Support/SourceMgr.h</text>
</g>
<!-- Node0&#45;&gt;Node39 -->
<g id="edge63" class="edge">
<title>Node0&#45;&gt;Node39</title>
<path fill="none" stroke="#191970" d="M1642.1926,-252.1371C1748.9602,-246.4309 1940.3226,-233.7637 2102.5,-210 2109.9951,-208.9017 2117.8716,-207.5109 2125.5767,-206.0153"/>
<polygon fill="#191970" stroke="#191970" points="2126.4484,-209.4101 2135.5605,-204.0045 2125.0663,-202.5479 2126.4484,-209.4101"/>
</g>
<!-- Node40 -->
<g id="node41" class="node">
<title>Node40</title>
<polygon fill="#ffffff" stroke="#bfbfbf" points="2259.5,-185 2259.5,-204 2387.5,-204 2387.5,-185 2259.5,-185"/>
<text text-anchor="middle" x="2323.5" y="-192" font-family="Helvetica,sans-Serif" font-size="10.00" fill="#000000">boost/dynamic_bitset.hpp</text>
</g>
<!-- Node0&#45;&gt;Node40 -->
<g id="edge64" class="edge">
<title>Node0&#45;&gt;Node40</title>
<path fill="none" stroke="#191970" d="M1642.0566,-254.3088C1772.0432,-250.7916 2032.1181,-240.2954 2250.5,-210 2257.9954,-208.9602 2265.8705,-207.588 2273.5618,-206.0893"/>
<polygon fill="#191970" stroke="#191970" points="2274.4182,-209.4869 2283.5197,-204.0635 2273.0226,-202.6274 2274.4182,-209.4869"/>
</g>
<!-- Node41 -->
<g id="node42" class="node">
<title>Node41</title>
<polygon fill="#ffffff" stroke="#bfbfbf" points="2406,-179.5 2406,-209.5 2513,-209.5 2513,-179.5 2406,-179.5"/>
<text text-anchor="start" x="2414" y="-197.5" font-family="Helvetica,sans-Serif" font-size="10.00" fill="#000000">boost/range/counting</text>
<text text-anchor="middle" x="2459.5" y="-186.5" font-family="Helvetica,sans-Serif" font-size="10.00" fill="#000000">_range.hpp</text>
</g>
<!-- Node0&#45;&gt;Node41 -->
<g id="edge65" class="edge">
<title>Node0&#45;&gt;Node41</title>
<path fill="none" stroke="#191970" d="M1642.1501,-253.4192C1819.8353,-247.5582 2234.4211,-232.1259 2395.441,-209.9148"/>
<polygon fill="#191970" stroke="#191970" points="2396.2758,-213.3309 2405.6752,-208.4421 2395.2786,-206.4022 2396.2758,-213.3309"/>
</g>
<!-- Node42 -->
<g id="node43" class="node">
<title>Node42</title>
<polygon fill="#ffffff" stroke="#bfbfbf" points="2531.5,-185 2531.5,-204 2635.5,-204 2635.5,-185 2531.5,-185"/>
<text text-anchor="middle" x="2583.5" y="-192" font-family="Helvetica,sans-Serif" font-size="10.00" fill="#000000">boost/range/join.hpp</text>
</g>
<!-- Node0&#45;&gt;Node42 -->
<g id="edge66" class="edge">
<title>Node0&#45;&gt;Node42</title>
<path fill="none" stroke="#191970" d="M1642.0268,-254.1905C1843.0158,-249.4398 2353.7512,-235.2074 2522.5,-210 2528.5232,-209.1003 2534.815,-207.8576 2540.9731,-206.464"/>
<polygon fill="#191970" stroke="#191970" points="2542.2397,-209.7589 2551.1392,-204.0101 2540.5972,-202.9543 2542.2397,-209.7589"/>
</g>
<!-- Node2 -->
<g id="node3" class="node">
<title>Node2</title>
<g id="a_node3"><a xlink:href="Fwd_8hpp.html" target="_top" xlink:title="Forward declares all the chigraph data types. ">
<polygon fill="#ffffff" stroke="#000000" points="1218,-62 1218,-81 1287,-81 1287,-62 1218,-62"/>
<text text-anchor="middle" x="1252.5" y="-69" font-family="Helvetica,sans-Serif" font-size="10.00" fill="#000000">chi/Fwd.hpp</text>
</a>
</g>
</g>
<!-- Node1&#45;&gt;Node2 -->
<g id="edge2" class="edge">
<title>Node1&#45;&gt;Node2</title>
<path fill="none" stroke="#191970" d="M701.1795,-126.8049C714.1113,-125.4853 727.7696,-124.1456 740.5,-123 948.2748,-104.3018 1004.3706,-130.0255 1208.5,-87 1212.1207,-86.2368 1215.8504,-85.2524 1219.535,-84.15"/>
<polygon fill="#191970" stroke="#191970" points="1220.6616,-87.464 1229.0768,-81.0271 1218.4842,-80.8113 1220.6616,-87.464"/>
</g>
<!-- Node3 -->
<g id="node4" class="node">
<title>Node3</title>
<g id="a_node4"><a xlink:href="HashUuid_8hpp_source.html" target="_top" xlink:title="chi/HashUuid.hpp">
<polygon fill="#ffffff" stroke="#000000" points="218,-62 218,-81 311,-81 311,-62 218,-62"/>
<text text-anchor="middle" x="264.5" y="-69" font-family="Helvetica,sans-Serif" font-size="10.00" fill="#000000">chi/HashUuid.hpp</text>
</a>
</g>
</g>
<!-- Node1&#45;&gt;Node3 -->
<g id="edge3" class="edge">
<title>Node1&#45;&gt;Node3</title>
<path fill="none" stroke="#191970" d="M585.7422,-126.4981C521.7838,-118.8686 415.7752,-104.947 325.5,-87 320.3407,-85.9743 314.9647,-84.7863 309.636,-83.5332"/>
<polygon fill="#191970" stroke="#191970" points="310.0603,-80.0343 299.5161,-81.0689 308.4041,-86.8356 310.0603,-80.0343"/>
</g>
<!-- Node4 -->
<g id="node5" class="node">
<title>Node4</title>
<polygon fill="#ffffff" stroke="#bfbfbf" points="214,-.5 214,-19.5 315,-19.5 315,-.5 214,-.5"/>
<text text-anchor="middle" x="264.5" y="-7.5" font-family="Helvetica,sans-Serif" font-size="10.00" fill="#000000">boost/uuid/uuid.hpp</text>
</g>
<!-- Node1&#45;&gt;Node4 -->
<g id="edge11" class="edge">
<title>Node1&#45;&gt;Node4</title>
<path fill="none" stroke="#191970" d="M585.826,-131.1134C473.3094,-126.8366 233.2953,-114.5556 208.5,-87 190.6377,-67.1492 217.6224,-41.6875 239.9643,-25.6023"/>
<polygon fill="#191970" stroke="#191970" points="242.2471,-28.2801 248.5004,-19.7275 238.2785,-22.5138 242.2471,-28.2801"/>
</g>
<!-- Node6 -->
<g id="node7" class="node">
<title>Node6</title>
<polygon fill="#ffffff" stroke="#bfbfbf" points="1060,-62 1060,-81 1129,-81 1129,-62 1060,-62"/>
<text text-anchor="middle" x="1094.5" y="-69" font-family="Helvetica,sans-Serif" font-size="10.00" fill="#000000">chi/json.hpp</text>
</g>
<!-- Node1&#45;&gt;Node6 -->
<g id="edge6" class="edge">
<title>Node1&#45;&gt;Node6</title>
<path fill="none" stroke="#191970" d="M701.015,-126.8464C809.2069,-115.2225 1033.7146,-90.8527 1050.5,-87 1053.919,-86.2152 1057.4405,-85.2523 1060.9321,-84.194"/>
<polygon fill="#191970" stroke="#191970" points="1062.1723,-87.4708 1070.5827,-81.0276 1059.9899,-80.8197 1062.1723,-87.4708"/>
</g>
<!-- Node7 -->
<g id="node8" class="node">
<title>Node7</title>
<polygon fill="#ffffff" stroke="#bfbfbf" points="602,-62 602,-81 685,-81 685,-62 602,-62"/>
<text text-anchor="middle" x="643.5" y="-69" font-family="Helvetica,sans-Serif" font-size="10.00" fill="#000000">unordered_map</text>
</g>
<!-- Node1&#45;&gt;Node7 -->
<g id="edge7" class="edge">
<title>Node1&#45;&gt;Node7</title>
<path fill="none" stroke="#191970" d="M643.5,-123.3906C643.5,-114.8657 643.5,-102.1392 643.5,-91.4235"/>
<polygon fill="#191970" stroke="#191970" points="647.0001,-91.2448 643.5,-81.2449 640.0001,-91.2449 647.0001,-91.2448"/>
</g>
<!-- Node8 -->
<g id="node9" class="node">
<title>Node8</title>
<polygon fill="#ffffff" stroke="#bfbfbf" points="1115,-.5 1115,-19.5 1222,-19.5 1222,-.5 1115,-.5"/>
<text text-anchor="middle" x="1168.5" y="-7.5" font-family="Helvetica,sans-Serif" font-size="10.00" fill="#000000">boost/filesystem.hpp</text>
</g>
<!-- Node1&#45;&gt;Node8 -->
<g id="edge8" class="edge">
<title>Node1&#45;&gt;Node8</title>
<path fill="none" stroke="#191970" d="M585.9366,-127.6863C506.959,-119.8059 373.0613,-104.1 358.5,-87 349.5675,-76.5101 349.0379,-66.0147 358.5,-56 371.2858,-42.4674 915.7363,-19.9006 1104.6996,-12.4615"/>
<polygon fill="#191970" stroke="#191970" points="1104.9082,-15.9561 1114.7632,-12.0664 1104.6335,-8.9615 1104.9082,-15.9561"/>
</g>
<!-- Node9 -->
<g id="node10" class="node">
<title>Node9</title>
<polygon fill="#ffffff" stroke="#bfbfbf" points="839.5,-56.5 839.5,-86.5 933.5,-86.5 933.5,-56.5 839.5,-56.5"/>
<text text-anchor="start" x="847.5" y="-74.5" font-family="Helvetica,sans-Serif" font-size="10.00" fill="#000000">boost/utility/string</text>
<text text-anchor="middle" x="886.5" y="-63.5" font-family="Helvetica,sans-Serif" font-size="10.00" fill="#000000">_view.hpp</text>
</g>
<!-- Node1&#45;&gt;Node9 -->
<g id="edge9" class="edge">
<title>Node1&#45;&gt;Node9</title>
<path fill="none" stroke="#191970" d="M683.7104,-123.463C719.563,-114.8804 773.7125,-101.7244 829.7343,-87.163"/>
<polygon fill="#191970" stroke="#191970" points="830.6802,-90.5334 839.4728,-84.6223 828.9131,-83.7602 830.6802,-90.5334"/>
</g>
<!-- Node10 -->
<g id="node11" class="node">
<title>Node10</title>
<polygon fill="#ffffff" stroke="#bfbfbf" points="0,-62 0,-81 161,-81 161,-62 0,-62"/>
<text text-anchor="middle" x="80.5" y="-69" font-family="Helvetica,sans-Serif" font-size="10.00" fill="#000000">boost/uuid/random_generator.hpp</text>
</g>
<!-- Node1&#45;&gt;Node10 -->
<g id="edge10" class="edge">
<title>Node1&#45;&gt;Node10</title>
<path fill="none" stroke="#191970" d="M585.7263,-128.5143C497.2212,-121.3733 322.8366,-106.2406 175.5,-87 165.682,-85.7179 155.3198,-84.1989 145.1912,-82.6215"/>
<polygon fill="#191970" stroke="#191970" points="145.5944,-79.1418 135.1694,-81.0312 144.4972,-86.0553 145.5944,-79.1418"/>
</g>
<!-- Node3&#45;&gt;Node4 -->
<g id="edge4" class="edge">
<title>Node3&#45;&gt;Node4</title>
<path fill="none" stroke="#191970" d="M264.5,-61.8906C264.5,-53.3657 264.5,-40.6392 264.5,-29.9235"/>
<polygon fill="#191970" stroke="#191970" points="268.0001,-29.7448 264.5,-19.7449 261.0001,-29.7449 268.0001,-29.7448"/>
</g>
<!-- Node5 -->
<g id="node6" class="node">
<title>Node5</title>
<polygon fill="#ffffff" stroke="#bfbfbf" points="850,-.5 850,-19.5 909,-19.5 909,-.5 850,-.5"/>
<text text-anchor="middle" x="879.5" y="-7.5" font-family="Helvetica,sans-Serif" font-size="10.00" fill="#000000">functional</text>
</g>
<!-- Node3&#45;&gt;Node5 -->
<g id="edge5" class="edge">
<title>Node3&#45;&gt;Node5</title>
<path fill="none" stroke="#191970" d="M297.8477,-61.9632C306.7679,-59.7048 316.4474,-57.5152 325.5,-56 516.4071,-24.047 748.2159,-13.9268 839.666,-11.042"/>
<polygon fill="#191970" stroke="#191970" points="839.9681,-14.5345 849.8572,-10.7325 839.7555,-7.5378 839.9681,-14.5345"/>
</g>
<!-- Node11&#45;&gt;Node2 -->
<g id="edge17" class="edge">
<title>Node11&#45;&gt;Node2</title>
<path fill="none" stroke="#191970" d="M835.0245,-124.3472C837.8877,-123.8618 840.7327,-123.4068 843.5,-123 1004.7759,-99.2904 1049.3666,-122.3356 1208.5,-87 1211.9245,-86.2396 1215.4497,-85.2928 1218.9435,-84.2445"/>
<polygon fill="#191970" stroke="#191970" points="1220.178,-87.5233 1228.5972,-81.0916 1218.0047,-80.8692 1220.178,-87.5233"/>
</g>
<!-- Node11&#45;&gt;Node6 -->
<g id="edge18" class="edge">
<title>Node11&#45;&gt;Node6</title>
<path fill="none" stroke="#191970" d="M835.0637,-124.5834C837.9175,-124.0409 840.7496,-123.5088 843.5,-123 935.3233,-106.0151 960.1492,-110.5951 1050.5,-87 1053.6345,-86.1814 1056.8637,-85.2402 1060.0814,-84.2348"/>
<polygon fill="#191970" stroke="#191970" points="1061.2021,-87.5506 1069.5943,-81.0836 1059.0009,-80.9057 1061.2021,-87.5506"/>
</g>
<!-- Node11&#45;&gt;Node7 -->
<g id="edge14" class="edge">
<title>Node11&#45;&gt;Node7</title>
<path fill="none" stroke="#191970" d="M769.2188,-123.3906C744.179,-113.0554 704.1775,-96.5447 676.034,-84.9284"/>
<polygon fill="#191970" stroke="#191970" points="677.1967,-81.622 666.6178,-81.0419 674.526,-88.0925 677.1967,-81.622"/>
</g>
<!-- Node11&#45;&gt;Node8 -->
<g id="edge21" class="edge">
<title>Node11&#45;&gt;Node8</title>
<path fill="none" stroke="#191970" d="M835.2796,-124.5302C866.267,-117.308 908.5093,-105.1708 942.5,-87 961.7217,-76.7244 960.9904,-65.7178 980.5,-56 1019.4016,-36.6229 1066.9835,-25.0837 1104.5445,-18.4087"/>
<polygon fill="#191970" stroke="#191970" points="1105.5868,-21.7817 1114.8573,-16.6525 1104.4116,-14.881 1105.5868,-21.7817"/>
</g>
<!-- Node11&#45;&gt;Node9 -->
<g id="edge22" class="edge">
<title>Node11&#45;&gt;Node9</title>
<path fill="none" stroke="#191970" d="M807.1875,-123.3906C819.9093,-115.0673 838.7527,-102.7389 854.8806,-92.1872"/>
<polygon fill="#191970" stroke="#191970" points="857.0531,-94.9484 863.505,-86.5446 853.2206,-89.0907 857.0531,-94.9484"/>
</g>
<!-- Node12 -->
<g id="node13" class="node">
<title>Node12</title>
<polygon fill="#ffffff" stroke="#bfbfbf" points="989.5,-62 989.5,-81 1041.5,-81 1041.5,-62 989.5,-62"/>
<text text-anchor="middle" x="1015.5" y="-69" font-family="Helvetica,sans-Serif" font-size="10.00" fill="#000000">memory</text>
</g>
<!-- Node11&#45;&gt;Node12 -->
<g id="edge13" class="edge">
<title>Node11&#45;&gt;Node12</title>
<path fill="none" stroke="#191970" d="M835.0733,-123.8662C872.4313,-115.4807 928.0489,-102.094 975.5,-87 977.9219,-86.2296 980.4089,-85.3892 982.9006,-84.5111"/>
<polygon fill="#191970" stroke="#191970" points="984.2347,-87.7496 992.4063,-81.0061 981.8129,-81.1818 984.2347,-87.7496"/>
</g>
<!-- Node13 -->
<g id="node14" class="node">
<title>Node13</title>
<g id="a_node14"><a xlink:href="Flags_8hpp_source.html" target="_top" xlink:title="chi/Flags.hpp">
<polygon fill="#ffffff" stroke="#000000" points="368,-62 368,-81 443,-81 443,-62 368,-62"/>
<text text-anchor="middle" x="405.5" y="-69" font-family="Helvetica,sans-Serif" font-size="10.00" fill="#000000">chi/Flags.hpp</text>
</a>
</g>
</g>
<!-- Node11&#45;&gt;Node13 -->
<g id="edge15" class="edge">
<title>Node11&#45;&gt;Node13</title>
<path fill="none" stroke="#191970" d="M749.7827,-127.7015C664.749,-117.0864 480.0036,-93.6603 451.5,-87 448.0303,-86.1892 444.4519,-85.2235 440.8954,-84.1761"/>
<polygon fill="#191970" stroke="#191970" points="441.6283,-80.7373 431.0386,-81.0687 439.5236,-87.4135 441.6283,-80.7373"/>
</g>
<!-- Node15 -->
<g id="node16" class="node">
<title>Node15</title>
<polygon fill="#ffffff" stroke="#bfbfbf" points="703.5,-62 703.5,-81 821.5,-81 821.5,-62 703.5,-62"/>
<text text-anchor="middle" x="762.5" y="-69" font-family="Helvetica,sans-Serif" font-size="10.00" fill="#000000">llvm/IR/LLVMContext.h</text>
</g>
<!-- Node11&#45;&gt;Node15 -->
<g id="edge19" class="edge">
<title>Node11&#45;&gt;Node15</title>
<path fill="none" stroke="#191970" d="M787.8125,-123.3906C783.5227,-114.5965 777.0518,-101.3312 771.7266,-90.4145"/>
<polygon fill="#191970" stroke="#191970" points="774.7836,-88.6981 767.2536,-81.2449 768.4922,-91.7671 774.7836,-88.6981"/>
</g>
<!-- Node16 -->
<g id="node17" class="node">
<title>Node16</title>
<polygon fill="#ffffff" stroke="#bfbfbf" points="461,-62 461,-81 584,-81 584,-62 461,-62"/>
<text text-anchor="middle" x="522.5" y="-69" font-family="Helvetica,sans-Serif" font-size="10.00" fill="#000000">llvm/Support/CodeGen.h</text>
</g>
<!-- Node11&#45;&gt;Node16 -->
<g id="edge20" class="edge">
<title>Node11&#45;&gt;Node16</title>
<path fill="none" stroke="#191970" d="M750.6087,-123.4581C703.1174,-112.6406 625.6528,-94.9959 574.3785,-83.3168"/>
<polygon fill="#191970" stroke="#191970" points="575.0171,-79.8727 564.4895,-81.0643 573.4625,-86.6978 575.0171,-79.8727"/>
</g>
<!-- Node14 -->
<g id="node15" class="node">
<title>Node14</title>
<polygon fill="#ffffff" stroke="#bfbfbf" points="374.5,-.5 374.5,-19.5 436.5,-19.5 436.5,-.5 374.5,-.5"/>
<text text-anchor="middle" x="405.5" y="-7.5" font-family="Helvetica,sans-Serif" font-size="10.00" fill="#000000">type_traits</text>
</g>
<!-- Node13&#45;&gt;Node14 -->
<g id="edge16" class="edge">
<title>Node13&#45;&gt;Node14</title>
<path fill="none" stroke="#191970" d="M405.5,-61.8906C405.5,-53.3657 405.5,-40.6392 405.5,-29.9235"/>
<polygon fill="#191970" stroke="#191970" points="409.0001,-29.7448 405.5,-19.7449 402.0001,-29.7449 409.0001,-29.7448"/>
</g>
<!-- Node17&#45;&gt;Node2 -->
<g id="edge24" class="edge">
<title>Node17&#45;&gt;Node2</title>
<path fill="none" stroke="#191970" d="M1214.0243,-184.9288C1209.4893,-170.9062 1202.9692,-144.1498 1210.5,-123 1215.2166,-109.7536 1224.9615,-97.4474 1233.8779,-88.1885"/>
<polygon fill="#191970" stroke="#191970" points="1236.3462,-90.6702 1241.0444,-81.174 1231.4497,-85.6677 1236.3462,-90.6702"/>
</g>
<!-- Node18 -->
<g id="node19" class="node">
<title>Node18</title>
<polygon fill="#ffffff" stroke="#bfbfbf" points="1122,-123.5 1122,-142.5 1163,-142.5 1163,-123.5 1122,-123.5"/>
<text text-anchor="middle" x="1142.5" y="-130.5" font-family="Helvetica,sans-Serif" font-size="10.00" fill="#000000">string</text>
</g>
<!-- Node17&#45;&gt;Node18 -->
<g id="edge25" class="edge">
<title>Node17&#45;&gt;Node18</title>
<path fill="none" stroke="#191970" d="M1205.7813,-184.8906C1194.1812,-175.3786 1176.2021,-160.6357 1162.3679,-149.2917"/>
<polygon fill="#191970" stroke="#191970" points="1164.336,-146.3792 1154.384,-142.7449 1159.8974,-151.7921 1164.336,-146.3792"/>
</g>
<!-- Node19&#45;&gt;Node2 -->
<g id="edge27" class="edge">
<title>Node19&#45;&gt;Node2</title>
<path fill="none" stroke="#191970" d="M1278.6563,-123.3906C1274.2234,-114.5965 1267.5369,-101.3312 1262.0341,-90.4145"/>
<polygon fill="#191970" stroke="#191970" points="1265.0386,-88.5992 1257.412,-81.2449 1258.7878,-91.75 1265.0386,-88.5992"/>
</g>
<!-- Node20&#45;&gt;Node2 -->
<g id="edge38" class="edge">
<title>Node20&#45;&gt;Node2</title>
<path fill="none" stroke="#191970" d="M1502.0501,-184.9742C1553.7113,-173.4812 1632.9297,-154.2984 1641.5,-143 1646.872,-135.918 1647.4503,-129.6035 1641.5,-123 1589.9,-65.7355 1371.7025,-103.9222 1296.5,-87 1293.0777,-86.2299 1289.5539,-85.2767 1286.061,-84.2244"/>
<polygon fill="#191970" stroke="#191970" points="1287.0011,-80.8495 1276.4085,-81.0661 1284.8242,-87.5024 1287.0011,-80.8495"/>
</g>
<!-- Node21 -->
<g id="node22" class="node">
<title>Node21</title>
<g id="a_node22"><a xlink:href="ChiModule_8hpp.html" target="_top" xlink:title="Defines the ChiModule class. ">
<polygon fill="#ffffff" stroke="#000000" points="1365,-123.5 1365,-142.5 1462,-142.5 1462,-123.5 1365,-123.5"/>
<text text-anchor="middle" x="1413.5" y="-130.5" font-family="Helvetica,sans-Serif" font-size="10.00" fill="#000000">chi/ChiModule.hpp</text>
</a>
</g>
</g>
<!-- Node20&#45;&gt;Node21 -->
<g id="edge29" class="edge">
<title>Node20&#45;&gt;Node21</title>
<path fill="none" stroke="#191970" d="M1450.625,-184.8906C1444.1407,-175.8273 1434.2586,-162.0149 1426.3199,-150.9188"/>
<polygon fill="#191970" stroke="#191970" points="1429.1371,-148.8412 1420.4719,-142.7449 1423.4441,-152.9143 1429.1371,-148.8412"/>
</g>
<!-- Node24 -->
<g id="node25" class="node">
<title>Node24</title>
<polygon fill="#ffffff" stroke="#bfbfbf" points="1543,-123.5 1543,-142.5 1632,-142.5 1632,-123.5 1543,-123.5"/>
<text text-anchor="middle" x="1587.5" y="-130.5" font-family="Helvetica,sans-Serif" font-size="10.00" fill="#000000">boost/bimap.hpp</text>
</g>
<!-- Node20&#45;&gt;Node24 -->
<g id="edge39" class="edge">
<title>Node20&#45;&gt;Node24</title>
<path fill="none" stroke="#191970" d="M1477.8125,-184.8906C1499.3731,-174.6908 1533.6478,-158.4763 1558.1444,-146.8875"/>
<polygon fill="#191970" stroke="#191970" points="1559.7874,-149.9822 1567.3301,-142.5419 1556.7939,-143.6545 1559.7874,-149.9822"/>
</g>
<!-- Node25 -->
<g id="node26" class="node">
<title>Node25</title>
<polygon fill="#ffffff" stroke="#bfbfbf" points="1480,-123.5 1480,-142.5 1525,-142.5 1525,-123.5 1480,-123.5"/>
<text text-anchor="middle" x="1502.5" y="-130.5" font-family="Helvetica,sans-Serif" font-size="10.00" fill="#000000">gsl/gsl</text>
</g>
<!-- Node20&#45;&gt;Node25 -->
<g id="edge40" class="edge">
<title>Node20&#45;&gt;Node25</title>
<path fill="none" stroke="#191970" d="M1464.5313,-184.8906C1471.163,-175.8273 1481.2696,-162.0149 1489.3887,-150.9188"/>
<polygon fill="#191970" stroke="#191970" points="1492.2891,-152.882 1495.3696,-142.7449 1486.6399,-148.7484 1492.2891,-152.882"/>
</g>
<!-- Node21&#45;&gt;Node2 -->
<g id="edge30" class="edge">
<title>Node21&#45;&gt;Node2</title>
<path fill="none" stroke="#191970" d="M1388.3438,-123.3906C1361.051,-112.9652 1317.308,-96.2559 1286.8603,-84.6252"/>
<polygon fill="#191970" stroke="#191970" points="1288.0702,-81.3408 1277.4796,-81.0419 1285.5723,-87.8799 1288.0702,-81.3408"/>
</g>
<!-- Node21&#45;&gt;Node6 -->
<g id="edge34" class="edge">
<title>Node21&#45;&gt;Node6</title>
<path fill="none" stroke="#191970" d="M1364.77,-124.5726C1361.6334,-124.0381 1358.5227,-123.5101 1355.5,-123 1258.6683,-106.6574 1232.5302,-111.7531 1137.5,-87 1134.5243,-86.2249 1131.4642,-85.3293 1128.4135,-84.3675"/>
<polygon fill="#191970" stroke="#191970" points="1129.4098,-81.0099 1118.8157,-81.136 1127.1761,-87.644 1129.4098,-81.0099"/>
</g>
<!-- Node21&#45;&gt;Node8 -->
<g id="edge35" class="edge">
<title>Node21&#45;&gt;Node8</title>
<path fill="none" stroke="#191970" d="M1454.0001,-123.4613C1496.9628,-112.9366 1559.6109,-96.265 1566.5,-87 1574.7211,-75.9437 1575.666,-66.2864 1566.5,-56 1544.674,-31.5061 1338.8551,-18.131 1232.0916,-12.7895"/>
<polygon fill="#191970" stroke="#191970" points="1232.2381,-9.2926 1222.0784,-12.2976 1231.8946,-16.2842 1232.2381,-9.2926"/>
</g>
<!-- Node21&#45;&gt;Node9 -->
<g id="edge36" class="edge">
<title>Node21&#45;&gt;Node9</title>
<path fill="none" stroke="#191970" d="M1364.8065,-124.3318C1361.6609,-123.8562 1358.5382,-123.4072 1355.5,-123 1189.5507,-100.7603 1146.5295,-108.6328 980.5,-87 968.5835,-85.4473 955.8594,-83.5275 943.7461,-81.5739"/>
<polygon fill="#191970" stroke="#191970" points="944.1805,-78.0985 933.7456,-79.9323 943.0466,-85.006 944.1805,-78.0985"/>
</g>
<!-- Node22 -->
<g id="node23" class="node">
<title>Node22</title>
<g id="a_node23"><a xlink:href="HashFilesystemPath_8hpp_source.html" target="_top" xlink:title="chi/HashFilesystemPath.hpp">
<polygon fill="#ffffff" stroke="#000000" points="1305.5,-62 1305.5,-81 1447.5,-81 1447.5,-62 1305.5,-62"/>
<text text-anchor="middle" x="1376.5" y="-69" font-family="Helvetica,sans-Serif" font-size="10.00" fill="#000000">chi/HashFilesystemPath.hpp</text>
</a>
</g>
</g>
<!-- Node21&#45;&gt;Node22 -->
<g id="edge31" class="edge">
<title>Node21&#45;&gt;Node22</title>
<path fill="none" stroke="#191970" d="M1407.7188,-123.3906C1402.374,-114.5068 1394.2841,-101.0601 1387.6789,-90.0811"/>
<polygon fill="#191970" stroke="#191970" points="1390.5171,-88.0093 1382.3628,-81.2449 1384.5189,-91.618 1390.5171,-88.0093"/>
</g>
<!-- Node23 -->
<g id="node24" class="node">
<title>Node23</title>
<polygon fill="#ffffff" stroke="#bfbfbf" points="1465.5,-62 1465.5,-81 1495.5,-81 1495.5,-62 1465.5,-62"/>
<text text-anchor="middle" x="1480.5" y="-69" font-family="Helvetica,sans-Serif" font-size="10.00" fill="#000000">set</text>
</g>
<!-- Node21&#45;&gt;Node23 -->
<g id="edge37" class="edge">
<title>Node21&#45;&gt;Node23</title>
<path fill="none" stroke="#191970" d="M1423.9688,-123.3906C1434.2337,-113.9683 1450.0903,-99.4134 1462.4006,-88.1137"/>
<polygon fill="#191970" stroke="#191970" points="1464.8834,-90.5856 1469.8837,-81.2449 1460.1499,-85.4287 1464.8834,-90.5856"/>
</g>
<!-- Node22&#45;&gt;Node5 -->
<g id="edge33" class="edge">
<title>Node22&#45;&gt;Node5</title>
<path fill="none" stroke="#191970" d="M1329.9203,-61.9349C1318.6799,-59.8072 1306.6846,-57.6858 1295.5,-56 1158.0207,-35.2782 993.6577,-19.8348 919.3991,-13.3555"/>
<polygon fill="#191970" stroke="#191970" points="919.3752,-9.8404 909.1106,-12.465 918.7716,-16.8144 919.3752,-9.8404"/>
</g>
<!-- Node22&#45;&gt;Node8 -->
<g id="edge32" class="edge">
<title>Node22&#45;&gt;Node8</title>
<path fill="none" stroke="#191970" d="M1344,-61.8906C1308.053,-51.2621 1250.0173,-34.1025 1210.612,-22.4514"/>
<polygon fill="#191970" stroke="#191970" points="1211.3538,-19.021 1200.7718,-19.5419 1209.369,-25.7337 1211.3538,-19.021"/>
</g>
<!-- Node26&#45;&gt;Node18 -->
<g id="edge42" class="edge">
<title>Node26&#45;&gt;Node18</title>
<path fill="none" stroke="#191970" d="M1104.5313,-184.8906C1111.163,-175.8273 1121.2696,-162.0149 1129.3887,-150.9188"/>
<polygon fill="#191970" stroke="#191970" points="1132.2891,-152.882 1135.3696,-142.7449 1126.6399,-148.7484 1132.2891,-152.882"/>
</g>
<!-- Node27 -->
<g id="node28" class="node">
<title>Node27</title>
<polygon fill="#ffffff" stroke="#bfbfbf" points="1063.5,-123.5 1063.5,-142.5 1103.5,-142.5 1103.5,-123.5 1063.5,-123.5"/>
<text text-anchor="middle" x="1083.5" y="-130.5" font-family="Helvetica,sans-Serif" font-size="10.00" fill="#000000">utility</text>
</g>
<!-- Node26&#45;&gt;Node27 -->
<g id="edge43" class="edge">
<title>Node26&#45;&gt;Node27</title>
<path fill="none" stroke="#191970" d="M1095.3125,-184.8906C1093.3514,-176.276 1090.4137,-163.3708 1087.9585,-152.5858"/>
<polygon fill="#191970" stroke="#191970" points="1091.3507,-151.7185 1085.7183,-142.7449 1084.5254,-153.2723 1091.3507,-151.7185"/>
</g>
<!-- Node28&#45;&gt;Node2 -->
<g id="edge45" class="edge">
<title>Node28&#45;&gt;Node2</title>
<path fill="none" stroke="#191970" d="M1688.7466,-124.7946C1683.9317,-124.159 1679.1323,-123.5512 1674.5,-123 1506.9218,-103.0614 1461.3087,-123.3054 1296.5,-87 1293.0743,-86.2453 1289.5482,-85.3024 1286.0539,-84.2564"/>
<polygon fill="#191970" stroke="#191970" points="1286.9919,-80.8809 1276.3995,-81.1067 1284.8208,-87.5357 1286.9919,-80.8809"/>
</g>
<!-- Node28&#45;&gt;Node4 -->
<g id="edge47" class="edge">
<title>Node28&#45;&gt;Node4</title>
<path fill="none" stroke="#191970" d="M1723.7348,-123.4915C1680.3521,-103.7035 1582.7683,-59.6229 1566.5,-56 1305.8757,2.0403 631.9565,-37.1641 365.5,-20 352.3985,-19.1561 338.3678,-17.9563 325.0586,-16.6793"/>
<polygon fill="#191970" stroke="#191970" points="325.3441,-13.1906 315.0489,-15.6924 324.6572,-20.1568 325.3441,-13.1906"/>
</g>
<!-- Node29 -->
<g id="node30" class="node">
<title>Node29</title>
<polygon fill="#ffffff" stroke="#bfbfbf" points="1513.5,-62 1513.5,-81 1557.5,-81 1557.5,-62 1513.5,-62"/>
<text text-anchor="middle" x="1535.5" y="-69" font-family="Helvetica,sans-Serif" font-size="10.00" fill="#000000">vector</text>
</g>
<!-- Node28&#45;&gt;Node29 -->
<g id="edge46" class="edge">
<title>Node28&#45;&gt;Node29</title>
<path fill="none" stroke="#191970" d="M1701.6738,-123.4638C1666.3407,-115.1566 1615.1126,-102.0957 1571.5,-87 1569.6191,-86.349 1567.6981,-85.6444 1565.7706,-84.9069"/>
<polygon fill="#191970" stroke="#191970" points="1566.8182,-81.555 1556.2358,-81.0421 1564.1886,-88.0423 1566.8182,-81.555"/>
</g>
<!-- Node30 -->
<g id="node31" class="node">
<title>Node30</title>
<polygon fill="#ffffff" stroke="#bfbfbf" points="1651.5,-62 1651.5,-81 1803.5,-81 1803.5,-62 1651.5,-62"/>
<text text-anchor="middle" x="1727.5" y="-69" font-family="Helvetica,sans-Serif" font-size="10.00" fill="#000000">boost/uuid/uuid_generators.hpp</text>
</g>
<!-- Node28&#45;&gt;Node30 -->
<g id="edge48" class="edge">
<title>Node28&#45;&gt;Node30</title>
<path fill="none" stroke="#191970" d="M1741.8438,-123.3906C1739.4625,-114.776 1735.8952,-101.8708 1732.914,-91.0858"/>
<polygon fill="#191970" stroke="#191970" points="1736.2316,-89.9509 1730.1937,-81.2449 1729.4846,-91.8159 1736.2316,-89.9509"/>
</g>
<!-- Node28&#45;&gt;Node31 -->
<g id="edge49" class="edge">
<title>Node28&#45;&gt;Node31</title>
<path fill="none" stroke="#191970" d="M1765.4375,-123.3906C1787.7598,-113.1457 1823.3037,-96.8326 1848.5757,-85.2339"/>
<polygon fill="#191970" stroke="#191970" points="1850.081,-88.3942 1857.7095,-81.0419 1847.1611,-82.0322 1850.081,-88.3942"/>
</g>
<!-- Node32&#45;&gt;Node2 -->
<g id="edge54" class="edge">
<title>Node32&#45;&gt;Node2</title>
<path fill="none" stroke="#191970" d="M1045.265,-124.3427C1088.306,-116.1271 1153.1379,-102.7205 1208.5,-87 1211.4435,-86.1642 1214.4766,-85.2374 1217.5086,-84.2648"/>
<polygon fill="#191970" stroke="#191970" points="1218.7096,-87.5538 1227.0789,-81.0573 1216.485,-80.9166 1218.7096,-87.5538"/>
</g>
<!-- Node32&#45;&gt;Node6 -->
<g id="edge55" class="edge">
<title>Node32&#45;&gt;Node6</title>
<path fill="none" stroke="#191970" d="M1012.6563,-123.3906C1028.1743,-113.5519 1052.5193,-98.1167 1070.6284,-86.6351"/>
<polygon fill="#191970" stroke="#191970" points="1072.8787,-89.3526 1079.4502,-81.0419 1069.1304,-83.4407 1072.8787,-89.3526"/>
</g>
<!-- Node32&#45;&gt;Node7 -->
<g id="edge52" class="edge">
<title>Node32&#45;&gt;Node7</title>
<path fill="none" stroke="#191970" d="M949.9312,-124.5507C946.7412,-124.0161 943.575,-123.4946 940.5,-123 831.4045,-105.4512 802.3302,-111.1334 694.5,-87 690.3854,-86.0791 686.1199,-84.995 681.8876,-83.835"/>
<polygon fill="#191970" stroke="#191970" points="682.7372,-80.4375 672.1591,-81.0316 680.7989,-87.1638 682.7372,-80.4375"/>
</g>
<!-- Node32&#45;&gt;Node12 -->
<g id="edge51" class="edge">
<title>Node32&#45;&gt;Node12</title>
<path fill="none" stroke="#191970" d="M1000.3125,-123.3906C1002.8339,-114.776 1006.611,-101.8708 1009.7676,-91.0858"/>
<polygon fill="#191970" stroke="#191970" points="1013.1979,-91.8254 1012.6478,-81.2449 1006.4797,-89.8591 1013.1979,-91.8254"/>
</g>
<!-- Node32&#45;&gt;Node29 -->
<g id="edge53" class="edge">
<title>Node32&#45;&gt;Node29</title>
<path fill="none" stroke="#191970" d="M1045.0351,-124.3168C1048.2333,-123.8387 1051.4104,-123.3937 1054.5,-123 1253.5294,-97.6369 1311.2233,-140.8529 1504.5,-87 1506.2136,-86.5225 1507.9448,-85.9487 1509.6667,-85.307"/>
<polygon fill="#191970" stroke="#191970" points="1511.4991,-88.3244 1519.2396,-81.0901 1508.6772,-81.9184 1511.4991,-88.3244"/>
</g>
<!-- Node33 -->
<g id="node34" class="node">
<title>Node33</title>
<polygon fill="#ffffff" stroke="#bfbfbf" points="1147,-62 1147,-81 1200,-81 1200,-62 1147,-62"/>
<text text-anchor="middle" x="1173.5" y="-69" font-family="Helvetica,sans-Serif" font-size="10.00" fill="#000000">gsl/span</text>
</g>
<!-- Node32&#45;&gt;Node33 -->
<g id="edge56" class="edge">
<title>Node32&#45;&gt;Node33</title>
<path fill="none" stroke="#191970" d="M1029.1958,-123.4711C1057.7561,-114.6759 1100.774,-100.9082 1137.5,-87 1139.1188,-86.387 1140.7713,-85.7427 1142.4348,-85.0795"/>
<polygon fill="#191970" stroke="#191970" points="1144.0192,-88.212 1151.9255,-81.1593 1141.3467,-81.7422 1144.0192,-88.212"/>
</g>
<!-- Node34&#45;&gt;Node6 -->
<g id="edge58" class="edge">
<title>Node34&#45;&gt;Node6</title>
<path fill="none" stroke="#191970" d="M927.1882,-123.4973C959.3129,-114.5559 1008.3417,-100.5511 1050.5,-87 1053.0854,-86.169 1055.7484,-85.2897 1058.4243,-84.3891"/>
<polygon fill="#191970" stroke="#191970" points="1059.7341,-87.64 1068.0557,-81.0824 1057.461,-81.0194 1059.7341,-87.64"/>
</g>
</g>
</svg>
        <g id="navigator" transform="translate(0 0)" fill="#404254">
                <rect fill="#f2f5e9" fill-opacity="0.5" stroke="#606060" stroke-width=".5" x="0" y="0" width="60" height="60"/>
                <use id="zoomplus" xlink:href="#zoomPlus" x="17" y="9" onmousedown="handleZoom(evt,'in')"/>
                <use id="zoomminus" xlink:href="#zoomMin" x="42" y="9" onmousedown="handleZoom(evt,'out')"/>
                <use id="reset" xlink:href="#resetDef" x="30" y="36" onmousedown="handleReset()"/>
                <g id="arrowUp" xlink:href="#dirArrow" transform="translate(30 24)" onmousedown="handlePan(0,-1)">
                  <use xlink:href="#rim" fill="#404040">
                        <set attributeName="fill" to="#808080" begin="arrowUp.mouseover" end="arrowUp.mouseout"/>
                  </use>
                  <path fill="none" stroke="white" stroke-width="1.5" d="M0,-3.0v7 M-2.5,-0.5L0,-3.0L2.5,-0.5"/>
                </g>
                <g id="arrowRight" xlink:href="#dirArrow" transform="rotate(90) translate(36 -43)" onmousedown="handlePan(1,0)">
                  <use xlink:href="#rim" fill="#404040">
                        <set attributeName="fill" to="#808080" begin="arrowRight.mouseover" end="arrowRight.mouseout"/>
                  </use>
                  <path fill="none" stroke="white" stroke-width="1.5" d="M0,-3.0v7 M-2.5,-0.5L0,-3.0L2.5,-0.5"/>
                </g>
                <g id="arrowDown" xlink:href="#dirArrow" transform="rotate(180) translate(-30 -48)" onmousedown="handlePan(0,1)">
                  <use xlink:href="#rim" fill="#404040">
                        <set attributeName="fill" to="#808080" begin="arrowDown.mouseover" end="arrowDown.mouseout"/>
                  </use>
                  <path fill="none" stroke="white" stroke-width="1.5" d="M0,-3.0v7 M-2.5,-0.5L0,-3.0L2.5,-0.5"/>
                </g>
                <g id="arrowLeft" xlink:href="#dirArrow" transform="rotate(270) translate(-36 17)" onmousedown="handlePan(-1,0)">
                  <use xlink:href="#rim" fill="#404040">
                        <set attributeName="fill" to="#808080" begin="arrowLeft.mouseover" end="arrowLeft.mouseout"/>
                  </use>
                  <path fill="none" stroke="white" stroke-width="1.5" d="M0,-3.0v7 M-2.5,-0.5L0,-3.0L2.5,-0.5"/>
                </g>
        </g>
        <svg viewBox="0 0 15 15" width="100%" height="30px" preserveAspectRatio="xMaxYMin meet">
         <g id="arrow_out" transform="scale(0.3 0.3)">
          <a xlink:href="GraphFunction_8cpp__incl_org.svg" target="_base">
           <rect id="button" ry="5" rx="5" y="6" x="6" height="38" width="38"
                fill="#f2f5e9" fill-opacity="0.5" stroke="#606060" stroke-width="1.0"/>
           <path id="arrow"
             d="M 11.500037,31.436501 C 11.940474,20.09759 22.043105,11.32322 32.158766,21.979434 L 37.068811,17.246167 C 37.068811,17.246167 37.088388,32 37.088388,32 L 22.160133,31.978069 C 22.160133,31.978069 26.997745,27.140456 26.997745,27.140456 C 18.528582,18.264221 13.291696,25.230495 11.500037,31.436501 z"
             style="fill:#404040;"/>
          </a>
         </g>
        </svg>
</svg>
