<?xml version="1.0" encoding="UTF-8" standalone="no"?>
<!DOCTYPE svg PUBLIC "-//W3C//DTD SVG 1.1//EN"
 "http://www.w3.org/Graphics/SVG/1.1/DTD/svg11.dtd">
<!-- Generated by graphviz version 2.40.1 (20161225.0304)
 -->
<!-- Title: libchigraph/include/chi/GraphModule.hpp Pages: 1 -->
<!--zoomable 173 -->
<svg id="main" version="1.1" xmlns="http://www.w3.org/2000/svg" xmlns:xlink="http://www.w3.org/1999/xlink" xml:space="preserve" onload="init(evt)">
<style type="text/css"><![CDATA[
.edge:hover path { stroke: red; }
.edge:hover polygon { stroke: red; fill: red; }
]]></style>
<script type="text/javascript"><![CDATA[
var edges = document.getElementsByTagName('g');
if (edges && edges.length) {
  for (var i=0;i<edges.length;i++) {
    if (edges[i].id.substr(0,4)=='edge') {
      edges[i].setAttribute('class','edge');
    }
  }
}
]]></script>
        <defs>
                <circle id="rim" cx="0" cy="0" r="7"/>
                <circle id="rim2" cx="0" cy="0" r="3.5"/>
                <g id="zoomPlus">
                        <use xlink:href="#rim" fill="#404040">
                                <set attributeName="fill" to="#808080" begin="zoomplus.mouseover" end="zoomplus.mouseout"/>
                        </use>
                        <path d="M-4,0h8M0,-4v8" fill="none" stroke="white" stroke-width="1.5" pointer-events="none"/>
                </g>
                <g id="zoomMin">
                        <use xlink:href="#rim" fill="#404040">
                                <set attributeName="fill" to="#808080" begin="zoomminus.mouseover" end="zoomminus.mouseout"/>
                        </use>
                        <path d="M-4,0h8" fill="none" stroke="white" stroke-width="1.5" pointer-events="none"/>
                </g>
                <g id="dirArrow">
                        <path fill="none" stroke="white" stroke-width="1.5" d="M0,-3.0v7 M-2.5,-0.5L0,-3.0L2.5,-0.5"/>
                </g>
               <g id="resetDef">
                       <use xlink:href="#rim2" fill="#404040">
                               <set attributeName="fill" to="#808080" begin="reset.mouseover" end="reset.mouseout"/>
                       </use>
               </g>
        </defs>

<script type="text/javascript">
var viewWidth = 1334;
var viewHeight = 173;
var sectionId = 'dynsection-1';
</script>
<script xlink:href="svgpan.js"/>
<svg id="graph" class="graph">
<g id="viewport">
<title>libchigraph/include/chi/GraphModule.hpp</title>
<polygon fill="#ffffff" stroke="transparent" points="-4,4 -4,-169 1330,-169 1330,4 -4,4"/>
<!-- Node21 -->
<g id="node1" class="node">
<title>Node21</title>
<polygon fill="#bfbfbf" stroke="#000000" points="585.5,-134.5 585.5,-164.5 697.5,-164.5 697.5,-134.5 585.5,-134.5"/>
<text text-anchor="start" x="593.5" y="-152.5" font-family="Helvetica,sans-Serif" font-size="10.00" fill="#000000">libchigraph/include</text>
<text text-anchor="middle" x="641.5" y="-141.5" font-family="Helvetica,sans-Serif" font-size="10.00" fill="#000000">/chi/GraphModule.hpp</text>
</g>
<!-- Node22 -->
<g id="node2" class="node">
<title>Node22</title>
<g id="a_node2"><a xlink:href="Context_8cpp.html" target="_top" xlink:title="libchigraph/src/Context.cpp">
<polygon fill="#ffffff" stroke="#000000" points="0,-73 0,-92 135,-92 135,-73 0,-73"/>
<text text-anchor="middle" x="67.5" y="-80" font-family="Helvetica,sans-Serif" font-size="10.00" fill="#000000">libchigraph/src/Context.cpp</text>
</a>
</g>
</g>
<!-- Node21&#45;&gt;Node22 -->
<g id="edge1" class="edge">
<title>Node21&#45;&gt;Node22</title>
<path fill="none" stroke="#191970" d="M575.2881,-144.6599C479.7895,-137.2213 297.9925,-121.3471 144.5,-98 133.7151,-96.3596 122.1512,-94.2307 111.3484,-92.0789"/>
<polygon fill="#191970" stroke="#191970" points="575.1381,-148.1587 585.378,-145.4394 575.6773,-141.1795 575.1381,-148.1587"/>
</g>
<!-- Node23 -->
<g id="node3" class="node">
<title>Node23</title>
<g id="a_node3"><a xlink:href="FunctionCompiler_8cpp.html" target="_top" xlink:title="libchigraph/src/Function\lCompiler.cpp">
<polygon fill="#ffffff" stroke="#000000" points="153.5,-67.5 153.5,-97.5 273.5,-97.5 273.5,-67.5 153.5,-67.5"/>
<text text-anchor="start" x="161.5" y="-85.5" font-family="Helvetica,sans-Serif" font-size="10.00" fill="#000000">libchigraph/src/Function</text>
<text text-anchor="middle" x="213.5" y="-74.5" font-family="Helvetica,sans-Serif" font-size="10.00" fill="#000000">Compiler.cpp</text>
</a>
</g>
</g>
<!-- Node21&#45;&gt;Node23 -->
<g id="edge2" class="edge">
<title>Node21&#45;&gt;Node23</title>
<path fill="none" stroke="#191970" d="M575.1943,-141.4751C503.1488,-132.4033 384.7702,-116.4693 283.5,-98 280.3163,-97.4194 277.0572,-96.7968 273.7709,-96.1468"/>
<polygon fill="#191970" stroke="#191970" points="575.1228,-144.9934 585.4803,-142.7633 575.9927,-138.0477 575.1228,-144.9934"/>
</g>
<!-- Node24 -->
<g id="node4" class="node">
<title>Node24</title>
<g id="a_node4"><a xlink:href="GraphFunction_8cpp.html" target="_top" xlink:title="libchigraph/src/GraphFunction.cpp">
<polygon fill="#ffffff" stroke="#000000" points="292,-73 292,-92 457,-92 457,-73 292,-73"/>
<text text-anchor="middle" x="374.5" y="-80" font-family="Helvetica,sans-Serif" font-size="10.00" fill="#000000">libchigraph/src/GraphFunction.cpp</text>
</a>
</g>
</g>
<!-- Node21&#45;&gt;Node24 -->
<g id="edge3" class="edge">
<title>Node21&#45;&gt;Node24</title>
<path fill="none" stroke="#191970" d="M575.2131,-132.8662C524.0109,-120.0177 454.9616,-102.6907 412.6465,-92.0723"/>
<polygon fill="#191970" stroke="#191970" points="574.6512,-136.3337 585.2024,-135.3729 576.355,-129.5442 574.6512,-136.3337"/>
</g>
<!-- Node25 -->
<g id="node5" class="node">
<title>Node25</title>
<g id="a_node5"><a xlink:href="GraphModule_8cpp.html" target="_top" xlink:title="libchigraph/src/GraphModule.cpp">
<polygon fill="#ffffff" stroke="#000000" points="475,-73 475,-92 634,-92 634,-73 475,-73"/>
<text text-anchor="middle" x="554.5" y="-80" font-family="Helvetica,sans-Serif" font-size="10.00" fill="#000000">libchigraph/src/GraphModule.cpp</text>
</a>
</g>
</g>
<!-- Node21&#45;&gt;Node25 -->
<g id="edge4" class="edge">
<title>Node21&#45;&gt;Node25</title>
<path fill="none" stroke="#191970" d="M613.422,-127.8767C597.736,-115.7967 578.9766,-101.3498 566.9072,-92.055"/>
<polygon fill="#191970" stroke="#191970" points="611.6999,-130.9681 621.7584,-134.2967 615.971,-125.4221 611.6999,-130.9681"/>
</g>
<!-- Node26 -->
<g id="node6" class="node">
<title>Node26</title>
<g id="a_node6"><a xlink:href="GraphStruct_8cpp_source.html" target="_top" xlink:title="libchigraph/src/GraphStruct.cpp">
<polygon fill="#ffffff" stroke="#000000" points="652.5,-73 652.5,-92 806.5,-92 806.5,-73 652.5,-73"/>
<text text-anchor="middle" x="729.5" y="-80" font-family="Helvetica,sans-Serif" font-size="10.00" fill="#000000">libchigraph/src/GraphStruct.cpp</text>
</a>
</g>
</g>
<!-- Node21&#45;&gt;Node26 -->
<g id="edge5" class="edge">
<title>Node21&#45;&gt;Node26</title>
<path fill="none" stroke="#191970" d="M669.4608,-128.2117C685.4151,-116.0646 704.6291,-101.4358 716.9502,-92.055"/>
<polygon fill="#191970" stroke="#191970" points="667.3048,-125.4542 661.4686,-134.2967 671.5452,-131.0237 667.3048,-125.4542"/>
</g>
<!-- Node27 -->
<g id="node7" class="node">
<title>Node27</title>
<g id="a_node7"><a xlink:href="JsonDeserializer_8cpp_source.html" target="_top" xlink:title="libchigraph/src/JsonDeserializer.cpp">
<polygon fill="#ffffff" stroke="#000000" points="825,-73 825,-92 998,-92 998,-73 825,-73"/>
<text text-anchor="middle" x="911.5" y="-80" font-family="Helvetica,sans-Serif" font-size="10.00" fill="#000000">libchigraph/src/JsonDeserializer.cpp</text>
</a>
</g>
</g>
<!-- Node21&#45;&gt;Node27 -->
<g id="edge6" class="edge">
<title>Node21&#45;&gt;Node27</title>
<path fill="none" stroke="#191970" d="M707.5735,-133.104C759.5297,-120.2111 830.1001,-102.6992 873.1359,-92.02"/>
<polygon fill="#191970" stroke="#191970" points="706.6349,-129.7307 697.7722,-135.5362 708.3208,-136.5246 706.6349,-129.7307"/>
</g>
<!-- Node28 -->
<g id="node8" class="node">
<title>Node28</title>
<g id="a_node8"><a xlink:href="JsonSerializer_8cpp_source.html" target="_top" xlink:title="libchigraph/src/JsonSerializer.cpp">
<polygon fill="#ffffff" stroke="#000000" points="1016,-73 1016,-92 1179,-92 1179,-73 1016,-73"/>
<text text-anchor="middle" x="1097.5" y="-80" font-family="Helvetica,sans-Serif" font-size="10.00" fill="#000000">libchigraph/src/JsonSerializer.cpp</text>
</a>
</g>
</g>
<!-- Node21&#45;&gt;Node28 -->
<g id="edge7" class="edge">
<title>Node21&#45;&gt;Node28</title>
<path fill="none" stroke="#191970" d="M707.7232,-140.8051C781.104,-131.0252 902.902,-114.3621 1007.5,-98 1019.2484,-96.1622 1031.8377,-94.0709 1043.7669,-92.0323"/>
<polygon fill="#191970" stroke="#191970" points="707.1482,-137.3506 697.697,-142.1386 708.0712,-144.2895 707.1482,-137.3506"/>
</g>
<!-- Node29 -->
<g id="node9" class="node">
<title>Node29</title>
<g id="a_node9"><a xlink:href="Debugger_8hpp.html" target="_top" xlink:title="libchigraphdebugger\l/include/chi/Debugger.hpp">
<polygon fill="#ffffff" stroke="#000000" points="1197,-67.5 1197,-97.5 1326,-97.5 1326,-67.5 1197,-67.5"/>
<text text-anchor="start" x="1205" y="-85.5" font-family="Helvetica,sans-Serif" font-size="10.00" fill="#000000">libchigraphdebugger</text>
<text text-anchor="middle" x="1261.5" y="-74.5" font-family="Helvetica,sans-Serif" font-size="10.00" fill="#000000">/include/chi/Debugger.hpp</text>
</a>
</g>
</g>
<!-- Node21&#45;&gt;Node29 -->
<g id="edge8" class="edge">
<title>Node21&#45;&gt;Node29</title>
<path fill="none" stroke="#191970" d="M707.9424,-145.7247C811.1903,-139.3004 1016.2053,-124.3126 1188.5,-98 1191.1896,-97.5892 1193.9292,-97.1416 1196.6924,-96.6658"/>
<polygon fill="#191970" stroke="#191970" points="707.4366,-142.2491 697.6703,-146.3564 707.8663,-149.2359 707.4366,-142.2491"/>
</g>
<!-- Node30 -->
<g id="node10" class="node">
<title>Node30</title>
<g id="a_node10"><a xlink:href="Debugger_8cpp.html" target="_top" xlink:title="libchigraphdebugger\l/src/Debugger.cpp">
<polygon fill="#ffffff" stroke="#000000" points="1210,-.5 1210,-30.5 1313,-30.5 1313,-.5 1210,-.5"/>
<text text-anchor="start" x="1218" y="-18.5" font-family="Helvetica,sans-Serif" font-size="10.00" fill="#000000">libchigraphdebugger</text>
<text text-anchor="middle" x="1261.5" y="-7.5" font-family="Helvetica,sans-Serif" font-size="10.00" fill="#000000">/src/Debugger.cpp</text>
</a>
</g>
</g>
<!-- Node29&#45;&gt;Node30 -->
<g id="edge9" class="edge">
<title>Node29&#45;&gt;Node30</title>
<path fill="none" stroke="#191970" d="M1261.5,-57.0249C1261.5,-48.128 1261.5,-38.4287 1261.5,-30.6432"/>
<polygon fill="#191970" stroke="#191970" points="1258.0001,-57.2966 1261.5,-67.2967 1265.0001,-57.2967 1258.0001,-57.2966"/>
</g>
</g>
</svg>
        <g id="navigator" transform="translate(0 0)" fill="#404254">
                <rect fill="#f2f5e9" fill-opacity="0.5" stroke="#606060" stroke-width=".5" x="0" y="0" width="60" height="60"/>
                <use id="zoomplus" xlink:href="#zoomPlus" x="17" y="9" onmousedown="handleZoom(evt,'in')"/>
                <use id="zoomminus" xlink:href="#zoomMin" x="42" y="9" onmousedown="handleZoom(evt,'out')"/>
                <use id="reset" xlink:href="#resetDef" x="30" y="36" onmousedown="handleReset()"/>
                <g id="arrowUp" xlink:href="#dirArrow" transform="translate(30 24)" onmousedown="handlePan(0,-1)">
                  <use xlink:href="#rim" fill="#404040">
                        <set attributeName="fill" to="#808080" begin="arrowUp.mouseover" end="arrowUp.mouseout"/>
                  </use>
                  <path fill="none" stroke="white" stroke-width="1.5" d="M0,-3.0v7 M-2.5,-0.5L0,-3.0L2.5,-0.5"/>
                </g>
                <g id="arrowRight" xlink:href="#dirArrow" transform="rotate(90) translate(36 -43)" onmousedown="handlePan(1,0)">
                  <use xlink:href="#rim" fill="#404040">
                        <set attributeName="fill" to="#808080" begin="arrowRight.mouseover" end="arrowRight.mouseout"/>
                  </use>
                  <path fill="none" stroke="white" stroke-width="1.5" d="M0,-3.0v7 M-2.5,-0.5L0,-3.0L2.5,-0.5"/>
                </g>
                <g id="arrowDown" xlink:href="#dirArrow" transform="rotate(180) translate(-30 -48)" onmousedown="handlePan(0,1)">
                  <use xlink:href="#rim" fill="#404040">
                        <set attributeName="fill" to="#808080" begin="arrowDown.mouseover" end="arrowDown.mouseout"/>
                  </use>
                  <path fill="none" stroke="white" stroke-width="1.5" d="M0,-3.0v7 M-2.5,-0.5L0,-3.0L2.5,-0.5"/>
                </g>
                <g id="arrowLeft" xlink:href="#dirArrow" transform="rotate(270) translate(-36 17)" onmousedown="handlePan(-1,0)">
                  <use xlink:href="#rim" fill="#404040">
                        <set attributeName="fill" to="#808080" begin="arrowLeft.mouseover" end="arrowLeft.mouseout"/>
                  </use>
                  <path fill="none" stroke="white" stroke-width="1.5" d="M0,-3.0v7 M-2.5,-0.5L0,-3.0L2.5,-0.5"/>
                </g>
        </g>
        <svg viewBox="0 0 15 15" width="100%" height="30px" preserveAspectRatio="xMaxYMin meet">
         <g id="arrow_out" transform="scale(0.3 0.3)">
          <a xlink:href="GraphModule_8hpp__dep__incl_org.svg" target="_base">
           <rect id="button" ry="5" rx="5" y="6" x="6" height="38" width="38"
                fill="#f2f5e9" fill-opacity="0.5" stroke="#606060" stroke-width="1.0"/>
           <path id="arrow"
             d="M 11.500037,31.436501 C 11.940474,20.09759 22.043105,11.32322 32.158766,21.979434 L 37.068811,17.246167 C 37.068811,17.246167 37.088388,32 37.088388,32 L 22.160133,31.978069 C 22.160133,31.978069 26.997745,27.140456 26.997745,27.140456 C 18.528582,18.264221 13.291696,25.230495 11.500037,31.436501 z"
             style="fill:#404040;"/>
          </a>
         </g>
        </svg>
</svg>
