<?xml version="1.0" encoding="UTF-8" standalone="no"?>
<!DOCTYPE svg PUBLIC "-//W3C//DTD SVG 1.1//EN"
 "http://www.w3.org/Graphics/SVG/1.1/DTD/svg11.dtd">
<!-- Generated by graphviz version 2.40.1 (20161225.0304)
 -->
<!-- Title: libchigraph/include/chi/GraphModule.hpp Pages: 1 -->
<svg width="1536pt" height="274pt"
 viewBox="0.00 0.00 1536.00 274.00" xmlns="http://www.w3.org/2000/svg" xmlns:xlink="http://www.w3.org/1999/xlink">
<g id="graph0" class="graph" transform="scale(1 1) rotate(0) translate(4 270)">
<title>libchigraph/include/chi/GraphModule.hpp</title>
<polygon fill="#ffffff" stroke="transparent" points="-4,4 -4,-270 1532,-270 1532,4 -4,4"/>
<!-- Node0 -->
<g id="node1" class="node">
<title>Node0</title>
<polygon fill="#bfbfbf" stroke="#000000" points="698,-235.5 698,-265.5 810,-265.5 810,-235.5 698,-235.5"/>
<text text-anchor="start" x="706" y="-253.5" font-family="Helvetica,sans-Serif" font-size="10.00" fill="#000000">libchigraph/include</text>
<text text-anchor="middle" x="754" y="-242.5" font-family="Helvetica,sans-Serif" font-size="10.00" fill="#000000">/chi/GraphModule.hpp</text>
</g>
<!-- Node1 -->
<g id="node2" class="node">
<title>Node1</title>
<g id="a_node2"><a xlink:href="Context_8hpp.html" target="_top" xlink:title="Defines the Context class and related functions. ">
<polygon fill="#ffffff" stroke="#000000" points="636.5,-123.5 636.5,-142.5 721.5,-142.5 721.5,-123.5 636.5,-123.5"/>
<text text-anchor="middle" x="679" y="-130.5" font-family="Helvetica,sans-Serif" font-size="10.00" fill="#000000">chi/Context.hpp</text>
</a>
</g>
</g>
<!-- Node0&#45;&gt;Node1 -->
<g id="edge1" class="edge">
<title>Node0&#45;&gt;Node1</title>
<path fill="none" stroke="#191970" d="M733.1306,-235.4148C721.5908,-226.0947 707.8408,-213.2197 699,-199 690.121,-184.7189 684.9646,-166.2415 682.1187,-152.4712"/>
<polygon fill="#191970" stroke="#191970" points="685.5557,-151.809 680.3048,-142.6069 678.6712,-153.0751 685.5557,-151.809"/>
</g>
<!-- Node17 -->
<g id="node18" class="node">
<title>Node17</title>
<g id="a_node18"><a xlink:href="DataType_8hpp.html" target="_top" xlink:title="Defines the DataType class. ">
<polygon fill="#ffffff" stroke="#000000" points="707.5,-179.5 707.5,-198.5 800.5,-198.5 800.5,-179.5 707.5,-179.5"/>
<text text-anchor="middle" x="754" y="-186.5" font-family="Helvetica,sans-Serif" font-size="10.00" fill="#000000">chi/DataType.hpp</text>
</a>
</g>
</g>
<!-- Node0&#45;&gt;Node17 -->
<g id="edge17" class="edge">
<title>Node0&#45;&gt;Node17</title>
<path fill="none" stroke="#191970" d="M754,-235.2977C754,-227.3834 754,-217.6043 754,-209.0759"/>
<polygon fill="#191970" stroke="#191970" points="757.5001,-208.8469 754,-198.8469 750.5001,-208.847 757.5001,-208.8469"/>
</g>
<!-- Node20 -->
<g id="node21" class="node">
<title>Node20</title>
<polygon fill="#ffffff" stroke="#bfbfbf" points="818.5,-179.5 818.5,-198.5 907.5,-198.5 907.5,-179.5 818.5,-179.5"/>
<text text-anchor="middle" x="863" y="-186.5" font-family="Helvetica,sans-Serif" font-size="10.00" fill="#000000">boost/bimap.hpp</text>
</g>
<!-- Node0&#45;&gt;Node20 -->
<g id="edge29" class="edge">
<title>Node0&#45;&gt;Node20</title>
<path fill="none" stroke="#191970" d="M780.6644,-235.4554C797.8941,-225.734 820.1975,-213.15 837.2446,-203.5317"/>
<polygon fill="#191970" stroke="#191970" points="839.1194,-206.4926 846.1089,-198.5303 835.6796,-200.3961 839.1194,-206.4926"/>
</g>
<!-- Node2 -->
<g id="node3" class="node">
<title>Node2</title>
<polygon fill="#ffffff" stroke="#bfbfbf" points="276,-62 276,-81 328,-81 328,-62 276,-62"/>
<text text-anchor="middle" x="302" y="-69" font-family="Helvetica,sans-Serif" font-size="10.00" fill="#000000">memory</text>
</g>
<!-- Node1&#45;&gt;Node2 -->
<g id="edge2" class="edge">
<title>Node1&#45;&gt;Node2</title>
<path fill="none" stroke="#191970" d="M636.2574,-130.9692C570.9248,-127.0352 442.774,-116.034 338,-87 335.6762,-86.356 333.3058,-85.5933 330.9465,-84.7571"/>
<polygon fill="#191970" stroke="#191970" points="332.0431,-81.4275 321.456,-81.0215 329.4792,-87.941 332.0431,-81.4275"/>
</g>
<!-- Node3 -->
<g id="node4" class="node">
<title>Node3</title>
<polygon fill="#ffffff" stroke="#bfbfbf" points="346.5,-62 346.5,-81 429.5,-81 429.5,-62 346.5,-62"/>
<text text-anchor="middle" x="388" y="-69" font-family="Helvetica,sans-Serif" font-size="10.00" fill="#000000">unordered_map</text>
</g>
<!-- Node1&#45;&gt;Node3 -->
<g id="edge3" class="edge">
<title>Node1&#45;&gt;Node3</title>
<path fill="none" stroke="#191970" d="M636.2184,-126.2045C587.9857,-118.2185 507.37,-103.8915 439,-87 435.1678,-86.0532 431.1967,-84.9916 427.2394,-83.8797"/>
<polygon fill="#191970" stroke="#191970" points="428.0977,-80.4843 417.518,-81.0491 426.1407,-87.2052 428.0977,-80.4843"/>
</g>
<!-- Node4 -->
<g id="node5" class="node">
<title>Node4</title>
<polygon fill="#ffffff" stroke="#bfbfbf" points="1146,-62 1146,-81 1224,-81 1224,-62 1146,-62"/>
<text text-anchor="middle" x="1185" y="-69" font-family="Helvetica,sans-Serif" font-size="10.00" fill="#000000">unordered_set</text>
</g>
<!-- Node1&#45;&gt;Node4 -->
<g id="edge4" class="edge">
<title>Node1&#45;&gt;Node4</title>
<path fill="none" stroke="#191970" d="M721.7654,-131.7276C803.3323,-128.6368 986.4253,-118.4999 1137,-87 1140.9375,-86.1763 1145.0075,-85.1491 1149.0357,-84.018"/>
<polygon fill="#191970" stroke="#191970" points="1150.3027,-87.2915 1158.8631,-81.0489 1148.2782,-80.5906 1150.3027,-87.2915"/>
</g>
<!-- Node5 -->
<g id="node6" class="node">
<title>Node5</title>
<g id="a_node6"><a xlink:href="Fwd_8hpp.html" target="_top" xlink:title="Forward declares all the chigraph data types. ">
<polygon fill="#ffffff" stroke="#000000" points="751.5,-62 751.5,-81 820.5,-81 820.5,-62 751.5,-62"/>
<text text-anchor="middle" x="786" y="-69" font-family="Helvetica,sans-Serif" font-size="10.00" fill="#000000">chi/Fwd.hpp</text>
</a>
</g>
</g>
<!-- Node1&#45;&gt;Node5 -->
<g id="edge5" class="edge">
<title>Node1&#45;&gt;Node5</title>
<path fill="none" stroke="#191970" d="M695.7188,-123.3906C713.0722,-113.4165 740.4323,-97.6908 760.4882,-86.1633"/>
<polygon fill="#191970" stroke="#191970" points="762.4728,-89.0596 769.3987,-81.0419 758.9846,-82.9907 762.4728,-89.0596"/>
</g>
<!-- Node6 -->
<g id="node7" class="node">
<title>Node6</title>
<g id="a_node7"><a xlink:href="ToString_8hpp_source.html" target="_top" xlink:title="chi/ToString.hpp">
<polygon fill="#ffffff" stroke="#000000" points="1242,-62 1242,-81 1330,-81 1330,-62 1242,-62"/>
<text text-anchor="middle" x="1286" y="-69" font-family="Helvetica,sans-Serif" font-size="10.00" fill="#000000">chi/ToString.hpp</text>
</a>
</g>
</g>
<!-- Node1&#45;&gt;Node6 -->
<g id="edge6" class="edge">
<title>Node1&#45;&gt;Node6</title>
<path fill="none" stroke="#191970" d="M721.7848,-132.3763C815.3067,-130.3753 1044.6473,-121.9911 1233,-87 1237.757,-86.1163 1242.6982,-84.9786 1247.5661,-83.7214"/>
<polygon fill="#191970" stroke="#191970" points="1248.6637,-87.0494 1257.3729,-81.0161 1246.8022,-80.3015 1248.6637,-87.0494"/>
</g>
<!-- Node8 -->
<g id="node9" class="node">
<title>Node8</title>
<polygon fill="#ffffff" stroke="#bfbfbf" points="838.5,-62 838.5,-81 907.5,-81 907.5,-62 838.5,-62"/>
<text text-anchor="middle" x="873" y="-69" font-family="Helvetica,sans-Serif" font-size="10.00" fill="#000000">chi/json.hpp</text>
</g>
<!-- Node1&#45;&gt;Node8 -->
<g id="edge8" class="edge">
<title>Node1&#45;&gt;Node8</title>
<path fill="none" stroke="#191970" d="M712.1424,-123.4247C742.8376,-114.4332 789.6902,-100.3956 830,-87 832.438,-86.1898 834.9471,-85.3366 837.4703,-84.4643"/>
<polygon fill="#191970" stroke="#191970" points="838.8816,-87.6781 847.1514,-81.0554 836.5566,-81.0755 838.8816,-87.6781"/>
</g>
<!-- Node9 -->
<g id="node10" class="node">
<title>Node9</title>
<polygon fill="#ffffff" stroke="#bfbfbf" points="447.5,-56.5 447.5,-86.5 558.5,-86.5 558.5,-56.5 447.5,-56.5"/>
<text text-anchor="start" x="455.5" y="-74.5" font-family="Helvetica,sans-Serif" font-size="10.00" fill="#000000">llvm/ExecutionEngine</text>
<text text-anchor="middle" x="503" y="-63.5" font-family="Helvetica,sans-Serif" font-size="10.00" fill="#000000">/GenericValue.h</text>
</g>
<!-- Node1&#45;&gt;Node9 -->
<g id="edge9" class="edge">
<title>Node1&#45;&gt;Node9</title>
<path fill="none" stroke="#191970" d="M651.5,-123.3906C625.9161,-114.4508 587.1094,-100.8905 555.5823,-89.8739"/>
<polygon fill="#191970" stroke="#191970" points="556.6493,-86.5393 546.0544,-86.5446 554.3401,-93.1475 556.6493,-86.5393"/>
</g>
<!-- Node10 -->
<g id="node11" class="node">
<title>Node10</title>
<polygon fill="#ffffff" stroke="#bfbfbf" points="577,-62 577,-81 695,-81 695,-62 577,-62"/>
<text text-anchor="middle" x="636" y="-69" font-family="Helvetica,sans-Serif" font-size="10.00" fill="#000000">llvm/IR/LLVMContext.h</text>
</g>
<!-- Node1&#45;&gt;Node10 -->
<g id="edge10" class="edge">
<title>Node1&#45;&gt;Node10</title>
<path fill="none" stroke="#191970" d="M672.2813,-123.3906C666.007,-114.417 656.4777,-100.7879 648.7596,-89.7491"/>
<polygon fill="#191970" stroke="#191970" points="651.4121,-87.4348 642.8135,-81.2449 645.6753,-91.4459 651.4121,-87.4348"/>
</g>
<!-- Node11 -->
<g id="node12" class="node">
<title>Node11</title>
<polygon fill="#ffffff" stroke="#bfbfbf" points="926,-62 926,-81 1016,-81 1016,-62 926,-62"/>
<text text-anchor="middle" x="971" y="-69" font-family="Helvetica,sans-Serif" font-size="10.00" fill="#000000">llvm/IR/Module.h</text>
</g>
<!-- Node1&#45;&gt;Node11 -->
<g id="edge11" class="edge">
<title>Node1&#45;&gt;Node11</title>
<path fill="none" stroke="#191970" d="M721.8074,-125.9041C769.6417,-117.7022 849.2687,-103.2324 917,-87 921.1082,-86.0154 925.372,-84.9203 929.6212,-83.7803"/>
<polygon fill="#191970" stroke="#191970" points="930.7231,-87.1071 939.4293,-81.0695 928.8582,-80.36 930.7231,-87.1071"/>
</g>
<!-- Node12 -->
<g id="node13" class="node">
<title>Node12</title>
<polygon fill="#ffffff" stroke="#bfbfbf" points="0,-62 0,-81 80,-81 80,-62 0,-62"/>
<text text-anchor="middle" x="40" y="-69" font-family="Helvetica,sans-Serif" font-size="10.00" fill="#000000">llvm/IR/Type.h</text>
</g>
<!-- Node1&#45;&gt;Node12 -->
<g id="edge12" class="edge">
<title>Node1&#45;&gt;Node12</title>
<path fill="none" stroke="#191970" d="M636.4598,-130.9486C519.383,-125.1014 194.138,-107.4478 89,-87 84.8124,-86.1856 80.4798,-85.1347 76.2025,-83.9641"/>
<polygon fill="#191970" stroke="#191970" points="76.9984,-80.5497 66.4164,-81.0703 75.0134,-87.2624 76.9984,-80.5497"/>
</g>
<!-- Node13 -->
<g id="node14" class="node">
<title>Node13</title>
<polygon fill="#ffffff" stroke="#bfbfbf" points="98.5,-62 98.5,-81 143.5,-81 143.5,-62 98.5,-62"/>
<text text-anchor="middle" x="121" y="-69" font-family="Helvetica,sans-Serif" font-size="10.00" fill="#000000">gsl/gsl</text>
</g>
<!-- Node1&#45;&gt;Node13 -->
<g id="edge13" class="edge">
<title>Node1&#45;&gt;Node13</title>
<path fill="none" stroke="#191970" d="M636.2695,-131.26C527.7677,-126.523 243.7978,-112.046 153,-87 151.0809,-86.4706 149.1375,-85.8286 147.2063,-85.1108"/>
<polygon fill="#191970" stroke="#191970" points="148.3904,-81.8098 137.8221,-81.06 145.6161,-88.2366 148.3904,-81.8098"/>
</g>
<!-- Node14 -->
<g id="node15" class="node">
<title>Node14</title>
<polygon fill="#ffffff" stroke="#bfbfbf" points="1034,-56.5 1034,-86.5 1128,-86.5 1128,-56.5 1034,-56.5"/>
<text text-anchor="start" x="1042" y="-74.5" font-family="Helvetica,sans-Serif" font-size="10.00" fill="#000000">boost/utility/string</text>
<text text-anchor="middle" x="1081" y="-63.5" font-family="Helvetica,sans-Serif" font-size="10.00" fill="#000000">_view.hpp</text>
</g>
<!-- Node1&#45;&gt;Node14 -->
<g id="edge14" class="edge">
<title>Node1&#45;&gt;Node14</title>
<path fill="none" stroke="#191970" d="M721.6588,-129.2391C785.431,-123.2001 909.5023,-109.8447 1023.7884,-87.0841"/>
<polygon fill="#191970" stroke="#191970" points="1024.6461,-90.4816 1033.7546,-85.07 1023.2594,-83.6203 1024.6461,-90.4816"/>
</g>
<!-- Node15 -->
<g id="node16" class="node">
<title>Node15</title>
<polygon fill="#ffffff" stroke="#bfbfbf" points="1317.5,-.5 1317.5,-19.5 1424.5,-19.5 1424.5,-.5 1317.5,-.5"/>
<text text-anchor="middle" x="1371" y="-7.5" font-family="Helvetica,sans-Serif" font-size="10.00" fill="#000000">boost/filesystem.hpp</text>
</g>
<!-- Node1&#45;&gt;Node15 -->
<g id="edge15" class="edge">
<title>Node1&#45;&gt;Node15</title>
<path fill="none" stroke="#191970" d="M683.6981,-123.2704C692.5667,-106.1347 713.5611,-70.9719 743,-56 852.403,-.3604 1167.0793,-32.227 1307.2411,-19.8665"/>
<polygon fill="#191970" stroke="#191970" points="1307.8254,-23.3258 1317.43,-18.8534 1307.1327,-16.3601 1307.8254,-23.3258"/>
</g>
<!-- Node16 -->
<g id="node17" class="node">
<title>Node16</title>
<polygon fill="#ffffff" stroke="#bfbfbf" points="162,-62 162,-81 258,-81 258,-62 162,-62"/>
<text text-anchor="middle" x="210" y="-69" font-family="Helvetica,sans-Serif" font-size="10.00" fill="#000000">boost/optional.hpp</text>
</g>
<!-- Node1&#45;&gt;Node16 -->
<g id="edge16" class="edge">
<title>Node1&#45;&gt;Node16</title>
<path fill="none" stroke="#191970" d="M636.2695,-130.4105C561.0815,-125.3702 400.445,-112.4358 267,-87 261.9662,-86.0405 256.7259,-84.8651 251.5514,-83.5945"/>
<polygon fill="#191970" stroke="#191970" points="252.3108,-80.1759 241.7534,-81.0657 250.5614,-86.9538 252.3108,-80.1759"/>
</g>
<!-- Node7 -->
<g id="node8" class="node">
<title>Node7</title>
<polygon fill="#ffffff" stroke="#bfbfbf" points="1247,-.5 1247,-19.5 1299,-19.5 1299,-.5 1247,-.5"/>
<text text-anchor="middle" x="1273" y="-7.5" font-family="Helvetica,sans-Serif" font-size="10.00" fill="#000000">sstream</text>
</g>
<!-- Node6&#45;&gt;Node7 -->
<g id="edge7" class="edge">
<title>Node6&#45;&gt;Node7</title>
<path fill="none" stroke="#191970" d="M1283.9688,-61.8906C1282.1478,-53.276 1279.4198,-40.3708 1277.1401,-29.5858"/>
<polygon fill="#191970" stroke="#191970" points="1280.5524,-28.8048 1275.0599,-19.7449 1273.7038,-30.2525 1280.5524,-28.8048"/>
</g>
<!-- Node17&#45;&gt;Node12 -->
<g id="edge28" class="edge">
<title>Node17&#45;&gt;Node12</title>
<path fill="none" stroke="#191970" d="M707.4747,-182.8163C576.7612,-165.2918 208.0056,-114.7743 89,-87 85.1511,-86.1017 81.1671,-85.0502 77.2099,-83.9254"/>
<polygon fill="#191970" stroke="#191970" points="78.1048,-80.5399 67.5211,-81.024 76.0967,-87.2457 78.1048,-80.5399"/>
</g>
<!-- Node18 -->
<g id="node19" class="node">
<title>Node18</title>
<g id="a_node19"><a xlink:href="ChiModule_8hpp.html" target="_top" xlink:title="Defines the ChiModule class. ">
<polygon fill="#ffffff" stroke="#000000" points="1032.5,-123.5 1032.5,-142.5 1129.5,-142.5 1129.5,-123.5 1032.5,-123.5"/>
<text text-anchor="middle" x="1081" y="-130.5" font-family="Helvetica,sans-Serif" font-size="10.00" fill="#000000">chi/ChiModule.hpp</text>
</a>
</g>
</g>
<!-- Node17&#45;&gt;Node18 -->
<g id="edge18" class="edge">
<title>Node17&#45;&gt;Node18</title>
<path fill="none" stroke="#191970" d="M800.7456,-180.6217C803.877,-180.07 806.9838,-179.5253 810,-179 883.0277,-166.282 967.2066,-152.0621 1022.1182,-142.8452"/>
<polygon fill="#191970" stroke="#191970" points="1022.7384,-146.2902 1032.0215,-141.184 1021.5802,-139.3867 1022.7384,-146.2902"/>
</g>
<!-- Node18&#45;&gt;Node4 -->
<g id="edge26" class="edge">
<title>Node18&#45;&gt;Node4</title>
<path fill="none" stroke="#191970" d="M1097.25,-123.3906C1114.1169,-113.4165 1140.7099,-97.6908 1160.2035,-86.1633"/>
<polygon fill="#191970" stroke="#191970" points="1162.038,-89.1447 1168.8641,-81.0419 1158.4749,-83.1194 1162.038,-89.1447"/>
</g>
<!-- Node18&#45;&gt;Node5 -->
<g id="edge19" class="edge">
<title>Node18&#45;&gt;Node5</title>
<path fill="none" stroke="#191970" d="M1032.3817,-126.4108C981.4479,-118.9692 899.3577,-105.4489 830,-87 826.8693,-86.1672 823.6427,-85.2163 820.4266,-84.2044"/>
<polygon fill="#191970" stroke="#191970" points="821.5099,-80.8763 810.9163,-81.0434 819.3019,-87.5189 821.5099,-80.8763"/>
</g>
<!-- Node18&#45;&gt;Node6 -->
<g id="edge22" class="edge">
<title>Node18&#45;&gt;Node6</title>
<path fill="none" stroke="#191970" d="M1113.0313,-123.3906C1148.3846,-112.7846 1205.4157,-95.6753 1244.2478,-84.0257"/>
<polygon fill="#191970" stroke="#191970" points="1245.6212,-87.2678 1254.1937,-81.0419 1243.6097,-80.5631 1245.6212,-87.2678"/>
</g>
<!-- Node18&#45;&gt;Node8 -->
<g id="edge23" class="edge">
<title>Node18&#45;&gt;Node8</title>
<path fill="none" stroke="#191970" d="M1044.3212,-123.4467C1010.9504,-114.5811 960.4228,-100.722 917,-87 914.4105,-86.1817 911.7445,-85.3118 909.0665,-84.418"/>
<polygon fill="#191970" stroke="#191970" points="910.0253,-81.047 899.4307,-81.1251 907.7616,-87.6709 910.0253,-81.047"/>
</g>
<!-- Node18&#45;&gt;Node11 -->
<g id="edge27" class="edge">
<title>Node18&#45;&gt;Node11</title>
<path fill="none" stroke="#191970" d="M1063.8125,-123.3906C1045.8918,-113.3713 1017.5905,-97.5483 996.9477,-86.0071"/>
<polygon fill="#191970" stroke="#191970" points="998.5033,-82.867 988.0668,-81.0419 995.0872,-88.9769 998.5033,-82.867"/>
</g>
<!-- Node18&#45;&gt;Node14 -->
<g id="edge25" class="edge">
<title>Node18&#45;&gt;Node14</title>
<path fill="none" stroke="#191970" d="M1081,-123.3906C1081,-116.2234 1081,-106.0862 1081,-96.671"/>
<polygon fill="#191970" stroke="#191970" points="1084.5001,-96.5446 1081,-86.5446 1077.5001,-96.5446 1084.5001,-96.5446"/>
</g>
<!-- Node18&#45;&gt;Node15 -->
<g id="edge24" class="edge">
<title>Node18&#45;&gt;Node15</title>
<path fill="none" stroke="#191970" d="M1129.7425,-129.8314C1195.3446,-124.6566 1307.4736,-112.3217 1339,-87 1356.6654,-72.8113 1364.6914,-47.1899 1368.2616,-29.4191"/>
<polygon fill="#191970" stroke="#191970" points="1371.7149,-29.9889 1369.9551,-19.5412 1364.8156,-28.806 1371.7149,-29.9889"/>
</g>
<!-- Node19 -->
<g id="node20" class="node">
<title>Node19</title>
<g id="a_node20"><a xlink:href="HashFilesystemPath_8hpp_source.html" target="_top" xlink:title="chi/HashFilesystemPath.hpp">
<polygon fill="#ffffff" stroke="#000000" points="1386,-62 1386,-81 1528,-81 1528,-62 1386,-62"/>
<text text-anchor="middle" x="1457" y="-69" font-family="Helvetica,sans-Serif" font-size="10.00" fill="#000000">chi/HashFilesystemPath.hpp</text>
</a>
</g>
</g>
<!-- Node18&#45;&gt;Node19 -->
<g id="edge20" class="edge">
<title>Node18&#45;&gt;Node19</title>
<path fill="none" stroke="#191970" d="M1129.714,-125.6587C1187.5552,-116.8589 1286.911,-101.4813 1372,-87 1379.6942,-85.6905 1387.7721,-84.273 1395.7598,-82.8456"/>
<polygon fill="#191970" stroke="#191970" points="1396.5719,-86.2557 1405.7937,-81.0394 1395.3317,-79.3664 1396.5719,-86.2557"/>
</g>
<!-- Node19&#45;&gt;Node15 -->
<g id="edge21" class="edge">
<title>Node19&#45;&gt;Node15</title>
<path fill="none" stroke="#191970" d="M1443.5625,-61.8906C1429.9305,-52.1421 1408.6154,-36.8994 1392.6078,-25.4521"/>
<polygon fill="#191970" stroke="#191970" points="1394.5132,-22.5118 1384.3431,-19.5419 1390.4414,-28.2057 1394.5132,-22.5118"/>
</g>
</g>
</svg>
