<?xml version="1.0" encoding="UTF-8" standalone="no"?>
<!DOCTYPE svg PUBLIC "-//W3C//DTD SVG 1.1//EN"
 "http://www.w3.org/Graphics/SVG/1.1/DTD/svg11.dtd">
<!-- Generated by graphviz version 2.40.1 (20161225.0304)
 -->
<!-- Title: libchigraph/include/chi/GraphModule.hpp Pages: 1 -->
<!--zoomable 173 -->
<svg id="main" version="1.1" xmlns="http://www.w3.org/2000/svg" xmlns:xlink="http://www.w3.org/1999/xlink" xml:space="preserve" onload="init(evt)">
<style type="text/css"><![CDATA[
.edge:hover path { stroke: red; }
.edge:hover polygon { stroke: red; fill: red; }
]]></style>
<script type="text/javascript"><![CDATA[
var edges = document.getElementsByTagName('g');
if (edges && edges.length) {
  for (var i=0;i<edges.length;i++) {
    if (edges[i].id.substr(0,4)=='edge') {
      edges[i].setAttribute('class','edge');
    }
  }
}
]]></script>
        <defs>
                <circle id="rim" cx="0" cy="0" r="7"/>
                <circle id="rim2" cx="0" cy="0" r="3.5"/>
                <g id="zoomPlus">
                        <use xlink:href="#rim" fill="#404040">
                                <set attributeName="fill" to="#808080" begin="zoomplus.mouseover" end="zoomplus.mouseout"/>
                        </use>
                        <path d="M-4,0h8M0,-4v8" fill="none" stroke="white" stroke-width="1.5" pointer-events="none"/>
                </g>
                <g id="zoomMin">
                        <use xlink:href="#rim" fill="#404040">
                                <set attributeName="fill" to="#808080" begin="zoomminus.mouseover" end="zoomminus.mouseout"/>
                        </use>
                        <path d="M-4,0h8" fill="none" stroke="white" stroke-width="1.5" pointer-events="none"/>
                </g>
                <g id="dirArrow">
                        <path fill="none" stroke="white" stroke-width="1.5" d="M0,-3.0v7 M-2.5,-0.5L0,-3.0L2.5,-0.5"/>
                </g>
               <g id="resetDef">
                       <use xlink:href="#rim2" fill="#404040">
                               <set attributeName="fill" to="#808080" begin="reset.mouseover" end="reset.mouseout"/>
                       </use>
               </g>
        </defs>

<script type="text/javascript">
var viewWidth = 1651;
var viewHeight = 173;
var sectionId = 'dynsection-1';
</script>
<script xlink:href="svgpan.js"/>
<svg id="graph" class="graph">
<g id="viewport">
<title>libchigraph/include/chi/GraphModule.hpp</title>
<polygon fill="#ffffff" stroke="transparent" points="-4,4 -4,-169 1647,-169 1647,4 -4,4"/>
<!-- Node11 -->
<g id="node1" class="node">
<title>Node11</title>
<polygon fill="#bfbfbf" stroke="#000000" points="723.5,-134.5 723.5,-164.5 835.5,-164.5 835.5,-134.5 723.5,-134.5"/>
<text text-anchor="start" x="731.5" y="-152.5" font-family="Helvetica,sans-Serif" font-size="10.00" fill="#000000">libchigraph/include</text>
<text text-anchor="middle" x="779.5" y="-141.5" font-family="Helvetica,sans-Serif" font-size="10.00" fill="#000000">/chi/GraphModule.hpp</text>
</g>
<!-- Node12 -->
<g id="node2" class="node">
<title>Node12</title>
<g id="a_node2"><a xlink:href="Context_8cpp.html" target="_top" xlink:title="libchigraph/src/Context.cpp">
<polygon fill="#ffffff" stroke="#000000" points="0,-73 0,-92 135,-92 135,-73 0,-73"/>
<text text-anchor="middle" x="67.5" y="-80" font-family="Helvetica,sans-Serif" font-size="10.00" fill="#000000">libchigraph/src/Context.cpp</text>
</a>
</g>
</g>
<!-- Node11&#45;&gt;Node12 -->
<g id="edge1" class="edge">
<title>Node11&#45;&gt;Node12</title>
<path fill="none" stroke="#191970" d="M713.0615,-146.6895C597.177,-141.2133 350.7558,-127.0207 144.5,-98 133.2923,-96.4231 121.2581,-94.2393 110.1113,-92.0081"/>
<polygon fill="#191970" stroke="#191970" points="713.0405,-150.1923 723.1926,-147.1617 713.3664,-143.1999 713.0405,-150.1923"/>
</g>
<!-- Node13 -->
<g id="node3" class="node">
<title>Node13</title>
<g id="a_node3"><a xlink:href="FunctionCompiler_8cpp.html" target="_top" xlink:title="libchigraph/src/Function\lCompiler.cpp">
<polygon fill="#ffffff" stroke="#000000" points="153.5,-67.5 153.5,-97.5 273.5,-97.5 273.5,-67.5 153.5,-67.5"/>
<text text-anchor="start" x="161.5" y="-85.5" font-family="Helvetica,sans-Serif" font-size="10.00" fill="#000000">libchigraph/src/Function</text>
<text text-anchor="middle" x="213.5" y="-74.5" font-family="Helvetica,sans-Serif" font-size="10.00" fill="#000000">Compiler.cpp</text>
</a>
</g>
</g>
<!-- Node11&#45;&gt;Node13 -->
<g id="edge2" class="edge">
<title>Node11&#45;&gt;Node13</title>
<path fill="none" stroke="#191970" d="M713.2148,-145.1248C617.6269,-138.2514 435.7224,-123.059 282.5,-98 279.592,-97.5244 276.6228,-97.0018 273.6294,-96.445"/>
<polygon fill="#191970" stroke="#191970" points="713.0911,-148.6248 723.3143,-145.8431 713.5878,-141.6424 713.0911,-148.6248"/>
</g>
<!-- Node14 -->
<g id="node4" class="node">
<title>Node14</title>
<g id="a_node4"><a xlink:href="FunctionValidator_8cpp.html" target="_top" xlink:title="libchigraph/src/Function\lValidator.cpp">
<polygon fill="#ffffff" stroke="#000000" points="291.5,-67.5 291.5,-97.5 411.5,-97.5 411.5,-67.5 291.5,-67.5"/>
<text text-anchor="start" x="299.5" y="-85.5" font-family="Helvetica,sans-Serif" font-size="10.00" fill="#000000">libchigraph/src/Function</text>
<text text-anchor="middle" x="351.5" y="-74.5" font-family="Helvetica,sans-Serif" font-size="10.00" fill="#000000">Validator.cpp</text>
</a>
</g>
</g>
<!-- Node11&#45;&gt;Node14 -->
<g id="edge3" class="edge">
<title>Node11&#45;&gt;Node14</title>
<path fill="none" stroke="#191970" d="M713.1943,-141.4751C641.1488,-132.4033 522.7702,-116.4693 421.5,-98 418.3163,-97.4194 415.0572,-96.7968 411.7709,-96.1468"/>
<polygon fill="#191970" stroke="#191970" points="713.1228,-144.9934 723.4803,-142.7633 713.9927,-138.0477 713.1228,-144.9934"/>
</g>
<!-- Node15 -->
<g id="node5" class="node">
<title>Node15</title>
<g id="a_node5"><a xlink:href="GraphFunction_8cpp.html" target="_top" xlink:title="libchigraph/src/GraphFunction.cpp">
<polygon fill="#ffffff" stroke="#000000" points="430,-73 430,-92 595,-92 595,-73 430,-73"/>
<text text-anchor="middle" x="512.5" y="-80" font-family="Helvetica,sans-Serif" font-size="10.00" fill="#000000">libchigraph/src/GraphFunction.cpp</text>
</a>
</g>
</g>
<!-- Node11&#45;&gt;Node15 -->
<g id="edge4" class="edge">
<title>Node11&#45;&gt;Node15</title>
<path fill="none" stroke="#191970" d="M713.2131,-132.8662C662.0109,-120.0177 592.9616,-102.6907 550.6465,-92.0723"/>
<polygon fill="#191970" stroke="#191970" points="712.6512,-136.3337 723.2024,-135.3729 714.355,-129.5442 712.6512,-136.3337"/>
</g>
<!-- Node16 -->
<g id="node6" class="node">
<title>Node16</title>
<g id="a_node6"><a xlink:href="GraphModule_8cpp.html" target="_top" xlink:title="libchigraph/src/GraphModule.cpp">
<polygon fill="#ffffff" stroke="#000000" points="613,-73 613,-92 772,-92 772,-73 613,-73"/>
<text text-anchor="middle" x="692.5" y="-80" font-family="Helvetica,sans-Serif" font-size="10.00" fill="#000000">libchigraph/src/GraphModule.cpp</text>
</a>
</g>
</g>
<!-- Node11&#45;&gt;Node16 -->
<g id="edge5" class="edge">
<title>Node11&#45;&gt;Node16</title>
<path fill="none" stroke="#191970" d="M751.422,-127.8767C735.736,-115.7967 716.9766,-101.3498 704.9072,-92.055"/>
<polygon fill="#191970" stroke="#191970" points="749.6999,-130.9681 759.7584,-134.2967 753.971,-125.4221 749.6999,-130.9681"/>
</g>
<!-- Node17 -->
<g id="node7" class="node">
<title>Node17</title>
<g id="a_node7"><a xlink:href="GraphStruct_8cpp.html" target="_top" xlink:title="libchigraph/src/GraphStruct.cpp">
<polygon fill="#ffffff" stroke="#000000" points="790.5,-73 790.5,-92 944.5,-92 944.5,-73 790.5,-73"/>
<text text-anchor="middle" x="867.5" y="-80" font-family="Helvetica,sans-Serif" font-size="10.00" fill="#000000">libchigraph/src/GraphStruct.cpp</text>
</a>
</g>
</g>
<!-- Node11&#45;&gt;Node17 -->
<g id="edge6" class="edge">
<title>Node11&#45;&gt;Node17</title>
<path fill="none" stroke="#191970" d="M807.4608,-128.2117C823.4151,-116.0646 842.6291,-101.4358 854.9502,-92.055"/>
<polygon fill="#191970" stroke="#191970" points="805.3048,-125.4542 799.4686,-134.2967 809.5452,-131.0237 805.3048,-125.4542"/>
</g>
<!-- Node18 -->
<g id="node8" class="node">
<title>Node18</title>
<g id="a_node8"><a xlink:href="JsonDeserializer_8cpp.html" target="_top" xlink:title="libchigraph/src/JsonDeserializer.cpp">
<polygon fill="#ffffff" stroke="#000000" points="963,-73 963,-92 1136,-92 1136,-73 963,-73"/>
<text text-anchor="middle" x="1049.5" y="-80" font-family="Helvetica,sans-Serif" font-size="10.00" fill="#000000">libchigraph/src/JsonDeserializer.cpp</text>
</a>
</g>
</g>
<!-- Node11&#45;&gt;Node18 -->
<g id="edge7" class="edge">
<title>Node11&#45;&gt;Node18</title>
<path fill="none" stroke="#191970" d="M845.5735,-133.104C897.5297,-120.2111 968.1001,-102.6992 1011.1359,-92.02"/>
<polygon fill="#191970" stroke="#191970" points="844.6349,-129.7307 835.7722,-135.5362 846.3208,-136.5246 844.6349,-129.7307"/>
</g>
<!-- Node19 -->
<g id="node9" class="node">
<title>Node19</title>
<g id="a_node9"><a xlink:href="JsonSerializer_8cpp.html" target="_top" xlink:title="libchigraph/src/JsonSerializer.cpp">
<polygon fill="#ffffff" stroke="#000000" points="1154,-73 1154,-92 1317,-92 1317,-73 1154,-73"/>
<text text-anchor="middle" x="1235.5" y="-80" font-family="Helvetica,sans-Serif" font-size="10.00" fill="#000000">libchigraph/src/JsonSerializer.cpp</text>
</a>
</g>
</g>
<!-- Node11&#45;&gt;Node19 -->
<g id="edge8" class="edge">
<title>Node11&#45;&gt;Node19</title>
<path fill="none" stroke="#191970" d="M845.7232,-140.8051C919.104,-131.0252 1040.902,-114.3621 1145.5,-98 1157.2484,-96.1622 1169.8377,-94.0709 1181.7669,-92.0323"/>
<polygon fill="#191970" stroke="#191970" points="845.1482,-137.3506 835.697,-142.1386 846.0712,-144.2895 845.1482,-137.3506"/>
</g>
<!-- Node20 -->
<g id="node10" class="node">
<title>Node20</title>
<g id="a_node10"><a xlink:href="NodeInstance_8cpp.html" target="_top" xlink:title="libchigraph/src/NodeInstance.cpp">
<polygon fill="#ffffff" stroke="#000000" points="1335,-73 1335,-92 1496,-92 1496,-73 1335,-73"/>
<text text-anchor="middle" x="1415.5" y="-80" font-family="Helvetica,sans-Serif" font-size="10.00" fill="#000000">libchigraph/src/NodeInstance.cpp</text>
</a>
</g>
</g>
<!-- Node11&#45;&gt;Node20 -->
<g id="edge9" class="edge">
<title>Node11&#45;&gt;Node20</title>
<path fill="none" stroke="#191970" d="M845.8306,-144.9446C948.9299,-137.4835 1153.7504,-121.1386 1326.5,-98 1338.9361,-96.3343 1352.2911,-94.1959 1364.7761,-92.0431"/>
<polygon fill="#191970" stroke="#191970" points="845.297,-141.4738 835.5736,-145.6818 845.7988,-148.4558 845.297,-141.4738"/>
</g>
<!-- Node21 -->
<g id="node11" class="node">
<title>Node21</title>
<g id="a_node11"><a xlink:href="Debugger_8hpp.html" target="_top" xlink:title="libchigraphdebugger\l/include/chi/Debugger.hpp">
<polygon fill="#ffffff" stroke="#000000" points="1514,-67.5 1514,-97.5 1643,-97.5 1643,-67.5 1514,-67.5"/>
<text text-anchor="start" x="1522" y="-85.5" font-family="Helvetica,sans-Serif" font-size="10.00" fill="#000000">libchigraphdebugger</text>
<text text-anchor="middle" x="1578.5" y="-74.5" font-family="Helvetica,sans-Serif" font-size="10.00" fill="#000000">/include/chi/Debugger.hpp</text>
</a>
</g>
</g>
<!-- Node11&#45;&gt;Node21 -->
<g id="edge10" class="edge">
<title>Node11&#45;&gt;Node21</title>
<path fill="none" stroke="#191970" d="M845.844,-147.8634C973.9359,-144.0259 1263.9866,-132.0394 1505.5,-98 1508.1942,-97.6203 1510.9375,-97.1986 1513.7039,-96.7443"/>
<polygon fill="#191970" stroke="#191970" points="845.6911,-144.3663 835.7979,-148.1575 845.8961,-151.3633 845.6911,-144.3663"/>
</g>
<!-- Node22 -->
<g id="node12" class="node">
<title>Node22</title>
<g id="a_node12"><a xlink:href="Debugger_8cpp.html" target="_top" xlink:title="libchigraphdebugger\l/src/Debugger.cpp">
<polygon fill="#ffffff" stroke="#000000" points="1527,-.5 1527,-30.5 1630,-30.5 1630,-.5 1527,-.5"/>
<text text-anchor="start" x="1535" y="-18.5" font-family="Helvetica,sans-Serif" font-size="10.00" fill="#000000">libchigraphdebugger</text>
<text text-anchor="middle" x="1578.5" y="-7.5" font-family="Helvetica,sans-Serif" font-size="10.00" fill="#000000">/src/Debugger.cpp</text>
</a>
</g>
</g>
<!-- Node21&#45;&gt;Node22 -->
<g id="edge11" class="edge">
<title>Node21&#45;&gt;Node22</title>
<path fill="none" stroke="#191970" d="M1578.5,-57.0249C1578.5,-48.128 1578.5,-38.4287 1578.5,-30.6432"/>
<polygon fill="#191970" stroke="#191970" points="1575.0001,-57.2966 1578.5,-67.2967 1582.0001,-57.2967 1575.0001,-57.2966"/>
</g>
</g>
</svg>
        <g id="navigator" transform="translate(0 0)" fill="#404254">
                <rect fill="#f2f5e9" fill-opacity="0.5" stroke="#606060" stroke-width=".5" x="0" y="0" width="60" height="60"/>
                <use id="zoomplus" xlink:href="#zoomPlus" x="17" y="9" onmousedown="handleZoom(evt,'in')"/>
                <use id="zoomminus" xlink:href="#zoomMin" x="42" y="9" onmousedown="handleZoom(evt,'out')"/>
                <use id="reset" xlink:href="#resetDef" x="30" y="36" onmousedown="handleReset()"/>
                <g id="arrowUp" xlink:href="#dirArrow" transform="translate(30 24)" onmousedown="handlePan(0,-1)">
                  <use xlink:href="#rim" fill="#404040">
                        <set attributeName="fill" to="#808080" begin="arrowUp.mouseover" end="arrowUp.mouseout"/>
                  </use>
                  <path fill="none" stroke="white" stroke-width="1.5" d="M0,-3.0v7 M-2.5,-0.5L0,-3.0L2.5,-0.5"/>
                </g>
                <g id="arrowRight" xlink:href="#dirArrow" transform="rotate(90) translate(36 -43)" onmousedown="handlePan(1,0)">
                  <use xlink:href="#rim" fill="#404040">
                        <set attributeName="fill" to="#808080" begin="arrowRight.mouseover" end="arrowRight.mouseout"/>
                  </use>
                  <path fill="none" stroke="white" stroke-width="1.5" d="M0,-3.0v7 M-2.5,-0.5L0,-3.0L2.5,-0.5"/>
                </g>
                <g id="arrowDown" xlink:href="#dirArrow" transform="rotate(180) translate(-30 -48)" onmousedown="handlePan(0,1)">
                  <use xlink:href="#rim" fill="#404040">
                        <set attributeName="fill" to="#808080" begin="arrowDown.mouseover" end="arrowDown.mouseout"/>
                  </use>
                  <path fill="none" stroke="white" stroke-width="1.5" d="M0,-3.0v7 M-2.5,-0.5L0,-3.0L2.5,-0.5"/>
                </g>
                <g id="arrowLeft" xlink:href="#dirArrow" transform="rotate(270) translate(-36 17)" onmousedown="handlePan(-1,0)">
                  <use xlink:href="#rim" fill="#404040">
                        <set attributeName="fill" to="#808080" begin="arrowLeft.mouseover" end="arrowLeft.mouseout"/>
                  </use>
                  <path fill="none" stroke="white" stroke-width="1.5" d="M0,-3.0v7 M-2.5,-0.5L0,-3.0L2.5,-0.5"/>
                </g>
        </g>
        <svg viewBox="0 0 15 15" width="100%" height="30px" preserveAspectRatio="xMaxYMin meet">
         <g id="arrow_out" transform="scale(0.3 0.3)">
          <a xlink:href="GraphModule_8hpp__dep__incl_org.svg" target="_base">
           <rect id="button" ry="5" rx="5" y="6" x="6" height="38" width="38"
                fill="#f2f5e9" fill-opacity="0.5" stroke="#606060" stroke-width="1.0"/>
           <path id="arrow"
             d="M 11.500037,31.436501 C 11.940474,20.09759 22.043105,11.32322 32.158766,21.979434 L 37.068811,17.246167 C 37.068811,17.246167 37.088388,32 37.088388,32 L 22.160133,31.978069 C 22.160133,31.978069 26.997745,27.140456 26.997745,27.140456 C 18.528582,18.264221 13.291696,25.230495 11.500037,31.436501 z"
             style="fill:#404040;"/>
          </a>
         </g>
        </svg>
</svg>
