<?xml version="1.0" encoding="UTF-8" standalone="no"?>
<!DOCTYPE svg PUBLIC "-//W3C//DTD SVG 1.1//EN"
 "http://www.w3.org/Graphics/SVG/1.1/DTD/svg11.dtd">
<!-- Generated by graphviz version 2.40.1 (20161225.0304)
 -->
<!-- Title: src/GraphFunction.cpp Pages: 1 -->
<svg width="1745pt" height="375pt"
 viewBox="0.00 0.00 1744.50 375.00" xmlns="http://www.w3.org/2000/svg" xmlns:xlink="http://www.w3.org/1999/xlink">
<g id="graph0" class="graph" transform="scale(1 1) rotate(0) translate(4 371)">
<title>src/GraphFunction.cpp</title>
<polygon fill="#ffffff" stroke="transparent" points="-4,4 -4,-371 1740.5,-371 1740.5,4 -4,4"/>
<!-- Node0 -->
<g id="node1" class="node">
<title>Node0</title>
<polygon fill="#bfbfbf" stroke="#000000" points="846,-347.5 846,-366.5 971,-366.5 971,-347.5 846,-347.5"/>
<text text-anchor="middle" x="908.5" y="-354.5" font-family="Helvetica,sans-Serif" font-size="10.00" fill="#000000">src/GraphFunction.cpp</text>
</g>
<!-- Node1 -->
<g id="node2" class="node">
<title>Node1</title>
<g id="a_node2"><a xlink:href="GraphFunction_8hpp.html" target="_top" xlink:title="Declares the GraphFunction class. ">
<polygon fill="#ffffff" stroke="#000000" points="236,-112.5 236,-131.5 367,-131.5 367,-112.5 236,-112.5"/>
<text text-anchor="middle" x="301.5" y="-119.5" font-family="Helvetica,sans-Serif" font-size="10.00" fill="#000000">chig/GraphFunction.hpp</text>
</a>
</g>
</g>
<!-- Node0&#45;&gt;Node1 -->
<g id="edge1" class="edge">
<title>Node0&#45;&gt;Node1</title>
<path fill="none" stroke="#191970" d="M845.6581,-352.884C743.0889,-345.7342 544.3284,-329.9549 476.5,-311 352.6086,-276.378 283.4766,-296.5817 214.5,-188 199.6584,-164.6367 230.0409,-146.4556 258.8921,-135.1447"/>
<polygon fill="#191970" stroke="#191970" points="260.384,-138.3247 268.5502,-131.5746 257.957,-131.759 260.384,-138.3247"/>
</g>
<!-- Node8 -->
<g id="node9" class="node">
<title>Node8</title>
<g id="a_node9"><a xlink:href="FunctionValidator_8hpp.html" target="_top" xlink:title="Defines functions for validating GraphFunction objects. ">
<polygon fill="#ffffff" stroke="#000000" points="223.5,-168.5 223.5,-187.5 369.5,-187.5 369.5,-168.5 223.5,-168.5"/>
<text text-anchor="middle" x="296.5" y="-175.5" font-family="Helvetica,sans-Serif" font-size="10.00" fill="#000000">chig/FunctionValidator.hpp</text>
</a>
</g>
</g>
<!-- Node0&#45;&gt;Node8 -->
<g id="edge8" class="edge">
<title>Node0&#45;&gt;Node8</title>
<path fill="none" stroke="#191970" d="M845.9838,-353.0463C777.8255,-347.676 665.9857,-335.749 572.5,-311 495.1904,-290.5334 477.0531,-279.7184 405.5,-244 374.4989,-228.5246 340.6309,-207.2803 319.0084,-193.1189"/>
<polygon fill="#191970" stroke="#191970" points="320.8082,-190.1131 310.5354,-187.5209 316.9495,-195.9536 320.8082,-190.1131"/>
</g>
<!-- Node12 -->
<g id="node13" class="node">
<title>Node12</title>
<g id="a_node13"><a xlink:href="GraphModule_8hpp.html" target="_top" xlink:title="Defines the GraphModule class. ">
<polygon fill="#ffffff" stroke="#000000" points="1108,-224.5 1108,-243.5 1233,-243.5 1233,-224.5 1108,-224.5"/>
<text text-anchor="middle" x="1170.5" y="-231.5" font-family="Helvetica,sans-Serif" font-size="10.00" fill="#000000">chig/GraphModule.hpp</text>
</a>
</g>
</g>
<!-- Node0&#45;&gt;Node12 -->
<g id="edge15" class="edge">
<title>Node0&#45;&gt;Node12</title>
<path fill="none" stroke="#191970" d="M899.5107,-347.3901C885.8854,-331.6511 863.3195,-300.1204 880.5,-280 894.4874,-263.619 1016.42,-248.8167 1097.6614,-240.6491"/>
<polygon fill="#191970" stroke="#191970" points="1098.245,-244.1085 1107.8505,-239.6379 1097.5537,-237.1427 1098.245,-244.1085"/>
</g>
<!-- Node23 -->
<g id="node24" class="node">
<title>Node23</title>
<g id="a_node24"><a xlink:href="NameMangler_8hpp.html" target="_top" xlink:title="Definitions for mangling functions. ">
<polygon fill="#ffffff" stroke="#000000" points="414,-224.5 414,-243.5 543,-243.5 543,-224.5 414,-224.5"/>
<text text-anchor="middle" x="478.5" y="-231.5" font-family="Helvetica,sans-Serif" font-size="10.00" fill="#000000">chig/NameMangler.hpp</text>
</a>
</g>
</g>
<!-- Node0&#45;&gt;Node23 -->
<g id="edge39" class="edge">
<title>Node0&#45;&gt;Node23</title>
<path fill="none" stroke="#191970" d="M845.9437,-349.5191C794.5943,-342.4345 720.3646,-330.0165 657.5,-311 601.856,-294.1678 540.259,-265.2374 505.774,-248.0355"/>
<polygon fill="#191970" stroke="#191970" points="507.2997,-244.8851 496.7939,-243.5145 504.152,-251.1375 507.2997,-244.8851"/>
</g>
<!-- Node26 -->
<g id="node27" class="node">
<title>Node26</title>
<g id="a_node27"><a xlink:href="NodeInstance_8hpp.html" target="_top" xlink:title="Defines the NodeInstance class and related functions. ">
<polygon fill="#ffffff" stroke="#000000" points="666.5,-286 666.5,-305 794.5,-305 794.5,-286 666.5,-286"/>
<text text-anchor="middle" x="730.5" y="-293" font-family="Helvetica,sans-Serif" font-size="10.00" fill="#000000">chig/NodeInstance.hpp</text>
</a>
</g>
</g>
<!-- Node0&#45;&gt;Node26 -->
<g id="edge43" class="edge">
<title>Node0&#45;&gt;Node26</title>
<path fill="none" stroke="#191970" d="M880.6875,-347.3906C850.2517,-336.8749 801.3123,-319.966 767.6174,-308.3243"/>
<polygon fill="#191970" stroke="#191970" points="768.712,-304.9995 758.1172,-305.0419 766.426,-311.6157 768.712,-304.9995"/>
</g>
<!-- Node29 -->
<g id="node30" class="node">
<title>Node29</title>
<polygon fill="#ffffff" stroke="#bfbfbf" points="930.5,-168.5 930.5,-187.5 1038.5,-187.5 1038.5,-168.5 930.5,-168.5"/>
<text text-anchor="middle" x="984.5" y="-175.5" font-family="Helvetica,sans-Serif" font-size="10.00" fill="#000000">llvm/IR/DIBuilder.h</text>
</g>
<!-- Node0&#45;&gt;Node29 -->
<g id="edge55" class="edge">
<title>Node0&#45;&gt;Node29</title>
<path fill="none" stroke="#191970" d="M896.76,-347.4549C887.369,-339.0029 874.9091,-325.7442 869.5,-311 864.7547,-298.0652 863.8491,-292.5656 869.5,-280 887.3979,-240.2018 929.3495,-209.6305 957.325,-192.7359"/>
<polygon fill="#191970" stroke="#191970" points="959.3535,-195.6044 966.2217,-187.5372 955.8218,-189.5606 959.3535,-195.6044"/>
</g>
<!-- Node33 -->
<g id="node34" class="node">
<title>Node33</title>
<polygon fill="#ffffff" stroke="#bfbfbf" points="889,-286 889,-305 1026,-305 1026,-286 889,-286"/>
<text text-anchor="middle" x="957.5" y="-293" font-family="Helvetica,sans-Serif" font-size="10.00" fill="#000000">llvm/AsmParser/Parser.h</text>
</g>
<!-- Node0&#45;&gt;Node33 -->
<g id="edge54" class="edge">
<title>Node0&#45;&gt;Node33</title>
<path fill="none" stroke="#191970" d="M916.1563,-347.3906C923.4489,-338.2376 934.6007,-324.2409 943.4852,-313.09"/>
<polygon fill="#191970" stroke="#191970" points="946.2417,-315.247 949.7358,-305.2449 940.767,-310.8849 946.2417,-315.247"/>
</g>
<!-- Node34 -->
<g id="node35" class="node">
<title>Node34</title>
<polygon fill="#ffffff" stroke="#bfbfbf" points="1044,-286 1044,-305 1143,-305 1143,-286 1044,-286"/>
<text text-anchor="middle" x="1093.5" y="-293" font-family="Helvetica,sans-Serif" font-size="10.00" fill="#000000">llvm/IR/Verifier.h</text>
</g>
<!-- Node0&#45;&gt;Node34 -->
<g id="edge56" class="edge">
<title>Node0&#45;&gt;Node34</title>
<path fill="none" stroke="#191970" d="M937.4063,-347.3906C969.039,-336.8749 1019.903,-319.966 1054.9229,-308.3243"/>
<polygon fill="#191970" stroke="#191970" points="1056.4115,-311.5178 1064.7967,-305.0419 1054.2032,-304.8753 1056.4115,-311.5178"/>
</g>
<!-- Node35 -->
<g id="node36" class="node">
<title>Node35</title>
<polygon fill="#ffffff" stroke="#bfbfbf" points="1161.5,-286 1161.5,-305 1303.5,-305 1303.5,-286 1161.5,-286"/>
<text text-anchor="middle" x="1232.5" y="-293" font-family="Helvetica,sans-Serif" font-size="10.00" fill="#000000">llvm/Support/SourceMgr.h</text>
</g>
<!-- Node0&#45;&gt;Node35 -->
<g id="edge57" class="edge">
<title>Node0&#45;&gt;Node35</title>
<path fill="none" stroke="#191970" d="M959.4531,-347.4714C1008.8251,-338.2203 1085.8132,-323.7463 1152.5,-311 1159.222,-309.7152 1166.2602,-308.3625 1173.255,-307.0134"/>
<polygon fill="#191970" stroke="#191970" points="1174.2758,-310.381 1183.4304,-305.0478 1172.948,-303.5081 1174.2758,-310.381"/>
</g>
<!-- Node36 -->
<g id="node37" class="node">
<title>Node36</title>
<polygon fill="#ffffff" stroke="#bfbfbf" points="1322,-286 1322,-305 1465,-305 1465,-286 1322,-286"/>
<text text-anchor="middle" x="1393.5" y="-293" font-family="Helvetica,sans-Serif" font-size="10.00" fill="#000000">boost/dynamic_bitset.hpp</text>
</g>
<!-- Node0&#45;&gt;Node36 -->
<g id="edge58" class="edge">
<title>Node0&#45;&gt;Node36</title>
<path fill="none" stroke="#191970" d="M971.3289,-351.3331C1050.9462,-343.8109 1192.2928,-329.3179 1312.5,-311 1320.4496,-309.7886 1328.8098,-308.3627 1337.0178,-306.8747"/>
<polygon fill="#191970" stroke="#191970" points="1337.7222,-310.3038 1346.9164,-305.0391 1336.4458,-303.4211 1337.7222,-310.3038"/>
</g>
<!-- Node37 -->
<g id="node38" class="node">
<title>Node37</title>
<polygon fill="#ffffff" stroke="#bfbfbf" points="1483,-280.5 1483,-310.5 1602,-310.5 1602,-280.5 1483,-280.5"/>
<text text-anchor="start" x="1491" y="-298.5" font-family="Helvetica,sans-Serif" font-size="10.00" fill="#000000">boost/range/counting</text>
<text text-anchor="middle" x="1542.5" y="-287.5" font-family="Helvetica,sans-Serif" font-size="10.00" fill="#000000">_range.hpp</text>
</g>
<!-- Node0&#45;&gt;Node37 -->
<g id="edge59" class="edge">
<title>Node0&#45;&gt;Node37</title>
<path fill="none" stroke="#191970" d="M971.2372,-354.8326C1074.1713,-350.6336 1285.4197,-339.3195 1472.8513,-311.1248"/>
<polygon fill="#191970" stroke="#191970" points="1473.5301,-314.5618 1482.8886,-309.5951 1472.4754,-307.6417 1473.5301,-314.5618"/>
</g>
<!-- Node38 -->
<g id="node39" class="node">
<title>Node38</title>
<polygon fill="#ffffff" stroke="#bfbfbf" points="1620.5,-286 1620.5,-305 1736.5,-305 1736.5,-286 1620.5,-286"/>
<text text-anchor="middle" x="1678.5" y="-293" font-family="Helvetica,sans-Serif" font-size="10.00" fill="#000000">boost/range/join.hpp</text>
</g>
<!-- Node0&#45;&gt;Node38 -->
<g id="edge60" class="edge">
<title>Node0&#45;&gt;Node38</title>
<path fill="none" stroke="#191970" d="M971.4003,-356.2927C1094.8055,-354.1543 1377.0581,-345.5558 1611.5,-311 1618.2455,-310.0057 1625.3157,-308.6837 1632.2301,-307.2296"/>
<polygon fill="#191970" stroke="#191970" points="1633.184,-310.6033 1642.1929,-305.0275 1631.6732,-303.7683 1633.184,-310.6033"/>
</g>
<!-- Node2 -->
<g id="node3" class="node">
<title>Node2</title>
<g id="a_node3"><a xlink:href="Fwd_8hpp.html" target="_top" xlink:title="Forward declares all the chigraph data types. ">
<polygon fill="#ffffff" stroke="#000000" points="149.5,-56.5 149.5,-75.5 229.5,-75.5 229.5,-56.5 149.5,-56.5"/>
<text text-anchor="middle" x="189.5" y="-63.5" font-family="Helvetica,sans-Serif" font-size="10.00" fill="#000000">chig/Fwd.hpp</text>
</a>
</g>
</g>
<!-- Node1&#45;&gt;Node2 -->
<g id="edge2" class="edge">
<title>Node1&#45;&gt;Node2</title>
<path fill="none" stroke="#191970" d="M282.2465,-112.3733C264.4288,-103.4644 237.7253,-90.1127 217.5406,-80.0203"/>
<polygon fill="#191970" stroke="#191970" points="219.0118,-76.8428 208.5022,-75.5011 215.8813,-83.1038 219.0118,-76.8428"/>
</g>
<!-- Node3 -->
<g id="node4" class="node">
<title>Node3</title>
<polygon fill="#ffffff" stroke="#bfbfbf" points="440,-56.5 440,-75.5 521,-75.5 521,-56.5 440,-56.5"/>
<text text-anchor="middle" x="480.5" y="-63.5" font-family="Helvetica,sans-Serif" font-size="10.00" fill="#000000">chig/json.hpp</text>
</g>
<!-- Node1&#45;&gt;Node3 -->
<g id="edge3" class="edge">
<title>Node1&#45;&gt;Node3</title>
<path fill="none" stroke="#191970" d="M332.2712,-112.3733C362.165,-103.021 407.7093,-88.7725 440.4217,-78.5385"/>
<polygon fill="#191970" stroke="#191970" points="441.6315,-81.8273 450.1303,-75.5011 439.5414,-75.1466 441.6315,-81.8273"/>
</g>
<!-- Node4 -->
<g id="node5" class="node">
<title>Node4</title>
<polygon fill="#ffffff" stroke="#bfbfbf" points="373.5,-56.5 373.5,-75.5 421.5,-75.5 421.5,-56.5 373.5,-56.5"/>
<text text-anchor="middle" x="397.5" y="-63.5" font-family="Helvetica,sans-Serif" font-size="10.00" fill="#000000">gsl/gsl</text>
</g>
<!-- Node1&#45;&gt;Node4 -->
<g id="edge4" class="edge">
<title>Node1&#45;&gt;Node4</title>
<path fill="none" stroke="#191970" d="M318.2219,-112.2455C333.0889,-103.5731 355.0466,-90.7645 372.0858,-80.825"/>
<polygon fill="#191970" stroke="#191970" points="374.0955,-83.7047 380.9697,-75.6427 370.5683,-77.6582 374.0955,-83.7047"/>
</g>
<!-- Node5 -->
<g id="node6" class="node">
<title>Node5</title>
<polygon fill="#ffffff" stroke="#bfbfbf" points="539,-56.5 539,-75.5 632,-75.5 632,-56.5 539,-56.5"/>
<text text-anchor="middle" x="585.5" y="-63.5" font-family="Helvetica,sans-Serif" font-size="10.00" fill="#000000">unordered_map</text>
</g>
<!-- Node1&#45;&gt;Node5 -->
<g id="edge5" class="edge">
<title>Node1&#45;&gt;Node5</title>
<path fill="none" stroke="#191970" d="M349.9986,-112.4369C399.4571,-102.6845 476.1575,-87.5605 528.491,-77.2412"/>
<polygon fill="#191970" stroke="#191970" points="529.4835,-80.613 538.6175,-75.2444 528.1293,-73.7452 529.4835,-80.613"/>
</g>
<!-- Node6 -->
<g id="node7" class="node">
<title>Node6</title>
<polygon fill="#ffffff" stroke="#bfbfbf" points="0,-56.5 0,-75.5 131,-75.5 131,-56.5 0,-56.5"/>
<text text-anchor="middle" x="65.5" y="-63.5" font-family="Helvetica,sans-Serif" font-size="10.00" fill="#000000">llvm/IR/DerivedTypes.h</text>
</g>
<!-- Node1&#45;&gt;Node6 -->
<g id="edge6" class="edge">
<title>Node1&#45;&gt;Node6</title>
<path fill="none" stroke="#191970" d="M261.1983,-112.4369C220.8936,-102.8731 158.8179,-88.1432 115.4182,-77.845"/>
<polygon fill="#191970" stroke="#191970" points="116.1734,-74.4271 105.6355,-75.5237 114.5572,-81.238 116.1734,-74.4271"/>
</g>
<!-- Node7 -->
<g id="node8" class="node">
<title>Node7</title>
<polygon fill="#ffffff" stroke="#bfbfbf" points="248,-56.5 248,-75.5 355,-75.5 355,-56.5 248,-56.5"/>
<text text-anchor="middle" x="301.5" y="-63.5" font-family="Helvetica,sans-Serif" font-size="10.00" fill="#000000">boost/optional.hpp</text>
</g>
<!-- Node1&#45;&gt;Node7 -->
<g id="edge7" class="edge">
<title>Node1&#45;&gt;Node7</title>
<path fill="none" stroke="#191970" d="M301.5,-112.2455C301.5,-104.9382 301.5,-94.6944 301.5,-85.7046"/>
<polygon fill="#191970" stroke="#191970" points="305.0001,-85.6426 301.5,-75.6427 298.0001,-85.6427 305.0001,-85.6426"/>
</g>
<!-- Node8&#45;&gt;Node2 -->
<g id="edge9" class="edge">
<title>Node8&#45;&gt;Node2</title>
<path fill="none" stroke="#191970" d="M276.8517,-168.4227C261.7073,-160.3096 240.9749,-147.532 226.5,-132 213.6722,-118.2354 203.6161,-99.2123 197.2458,-85.1241"/>
<polygon fill="#191970" stroke="#191970" points="200.4379,-83.6872 193.2718,-75.8836 194.0074,-86.4529 200.4379,-83.6872"/>
</g>
<!-- Node9 -->
<g id="node10" class="node">
<title>Node9</title>
<g id="a_node10"><a xlink:href="Result_8hpp.html" target="_top" xlink:title="Defines the Result class and related functions. ">
<polygon fill="#ffffff" stroke="#000000" points="434.5,-112.5 434.5,-131.5 526.5,-131.5 526.5,-112.5 434.5,-112.5"/>
<text text-anchor="middle" x="480.5" y="-119.5" font-family="Helvetica,sans-Serif" font-size="10.00" fill="#000000">chig/Result.hpp</text>
</a>
</g>
</g>
<!-- Node8&#45;&gt;Node9 -->
<g id="edge10" class="edge">
<title>Node8&#45;&gt;Node9</title>
<path fill="none" stroke="#191970" d="M328.1307,-168.3733C358.8596,-159.021 405.676,-144.7725 439.3022,-134.5385"/>
<polygon fill="#191970" stroke="#191970" points="440.7344,-137.7612 449.282,-131.5011 438.6962,-131.0644 440.7344,-137.7612"/>
</g>
<!-- Node9&#45;&gt;Node3 -->
<g id="edge13" class="edge">
<title>Node9&#45;&gt;Node3</title>
<path fill="none" stroke="#191970" d="M480.5,-112.2455C480.5,-104.9382 480.5,-94.6944 480.5,-85.7046"/>
<polygon fill="#191970" stroke="#191970" points="484.0001,-85.6426 480.5,-75.6427 477.0001,-85.6427 484.0001,-85.6426"/>
</g>
<!-- Node9&#45;&gt;Node4 -->
<g id="edge14" class="edge">
<title>Node9&#45;&gt;Node4</title>
<path fill="none" stroke="#191970" d="M466.0425,-112.2455C453.4268,-103.7337 434.9056,-91.2375 420.2955,-81.3801"/>
<polygon fill="#191970" stroke="#191970" points="422.0391,-78.3343 411.7918,-75.6427 418.1239,-84.1371 422.0391,-78.3343"/>
</g>
<!-- Node10 -->
<g id="node11" class="node">
<title>Node10</title>
<g id="a_node11"><a xlink:href="ToString_8hpp_source.html" target="_top" xlink:title="chig/ToString.hpp">
<polygon fill="#ffffff" stroke="#000000" points="650,-56.5 650,-75.5 751,-75.5 751,-56.5 650,-56.5"/>
<text text-anchor="middle" x="700.5" y="-63.5" font-family="Helvetica,sans-Serif" font-size="10.00" fill="#000000">chig/ToString.hpp</text>
</a>
</g>
</g>
<!-- Node9&#45;&gt;Node10 -->
<g id="edge11" class="edge">
<title>Node9&#45;&gt;Node10</title>
<path fill="none" stroke="#191970" d="M518.3193,-112.3733C555.6938,-102.8598 612.9724,-88.2797 653.3071,-78.0127"/>
<polygon fill="#191970" stroke="#191970" points="654.3466,-81.3598 663.1742,-75.5011 652.6198,-74.5761 654.3466,-81.3598"/>
</g>
<!-- Node11 -->
<g id="node12" class="node">
<title>Node11</title>
<polygon fill="#ffffff" stroke="#bfbfbf" points="672.5,-.5 672.5,-19.5 728.5,-19.5 728.5,-.5 672.5,-.5"/>
<text text-anchor="middle" x="700.5" y="-7.5" font-family="Helvetica,sans-Serif" font-size="10.00" fill="#000000">sstream</text>
</g>
<!-- Node10&#45;&gt;Node11 -->
<g id="edge12" class="edge">
<title>Node10&#45;&gt;Node11</title>
<path fill="none" stroke="#191970" d="M700.5,-56.2455C700.5,-48.9382 700.5,-38.6944 700.5,-29.7046"/>
<polygon fill="#191970" stroke="#191970" points="704.0001,-29.6426 700.5,-19.6427 697.0001,-29.6427 704.0001,-29.6426"/>
</g>
<!-- Node13 -->
<g id="node14" class="node">
<title>Node13</title>
<g id="a_node14"><a xlink:href="Context_8hpp.html" target="_top" xlink:title="Defines the Context class and related functions. ">
<polygon fill="#ffffff" stroke="#000000" points="769,-112.5 769,-131.5 868,-131.5 868,-112.5 769,-112.5"/>
<text text-anchor="middle" x="818.5" y="-119.5" font-family="Helvetica,sans-Serif" font-size="10.00" fill="#000000">chig/Context.hpp</text>
</a>
</g>
</g>
<!-- Node12&#45;&gt;Node13 -->
<g id="edge16" class="edge">
<title>Node12&#45;&gt;Node13</title>
<path fill="none" stroke="#191970" d="M1220.8978,-224.4463C1263.6945,-214.1898 1314.4991,-195.5595 1289.5,-168 1262.3799,-138.1022 999.3334,-126.9991 878.5674,-123.4538"/>
<polygon fill="#191970" stroke="#191970" points="878.4758,-119.9498 868.3799,-123.1627 878.2759,-126.947 878.4758,-119.9498"/>
</g>
<!-- Node20 -->
<g id="node21" class="node">
<title>Node20</title>
<g id="a_node21"><a xlink:href="DataType_8hpp.html" target="_top" xlink:title="Defines the DataType class. ">
<polygon fill="#ffffff" stroke="#000000" points="1056.5,-168.5 1056.5,-187.5 1164.5,-187.5 1164.5,-168.5 1056.5,-168.5"/>
<text text-anchor="middle" x="1110.5" y="-175.5" font-family="Helvetica,sans-Serif" font-size="10.00" fill="#000000">chig/DataType.hpp</text>
</a>
</g>
</g>
<!-- Node12&#45;&gt;Node20 -->
<g id="edge29" class="edge">
<title>Node12&#45;&gt;Node20</title>
<path fill="none" stroke="#191970" d="M1160.0488,-224.2455C1151.2731,-216.0549 1138.5446,-204.1749 1128.186,-194.5069"/>
<polygon fill="#191970" stroke="#191970" points="1130.5301,-191.9072 1120.8314,-187.6427 1125.7539,-197.0246 1130.5301,-191.9072"/>
</g>
<!-- Node22 -->
<g id="node23" class="node">
<title>Node22</title>
<polygon fill="#ffffff" stroke="#bfbfbf" points="1182.5,-168.5 1182.5,-187.5 1280.5,-187.5 1280.5,-168.5 1182.5,-168.5"/>
<text text-anchor="middle" x="1231.5" y="-175.5" font-family="Helvetica,sans-Serif" font-size="10.00" fill="#000000">boost/bimap.hpp</text>
</g>
<!-- Node12&#45;&gt;Node22 -->
<g id="edge38" class="edge">
<title>Node12&#45;&gt;Node22</title>
<path fill="none" stroke="#191970" d="M1181.1254,-224.2455C1190.0473,-216.0549 1202.988,-204.1749 1213.5192,-194.5069"/>
<polygon fill="#191970" stroke="#191970" points="1215.9968,-196.9837 1220.9964,-187.6427 1211.2629,-191.8271 1215.9968,-196.9837"/>
</g>
<!-- Node13&#45;&gt;Node2 -->
<g id="edge20" class="edge">
<title>Node13&#45;&gt;Node2</title>
<path fill="none" stroke="#191970" d="M768.9769,-113.2409C765.7747,-112.7876 762.5949,-112.3683 759.5,-112 532.2821,-84.9613 470.2393,-106.6417 239.5821,-75.9745"/>
<polygon fill="#191970" stroke="#191970" points="239.9156,-72.4879 229.5376,-74.6203 238.9803,-79.4251 239.9156,-72.4879"/>
</g>
<!-- Node13&#45;&gt;Node3 -->
<g id="edge22" class="edge">
<title>Node13&#45;&gt;Node3</title>
<path fill="none" stroke="#191970" d="M768.9327,-113.5545C765.7413,-113.0244 762.576,-112.5024 759.5,-112 660.9973,-95.9103 633.6167,-94.2019 531.2753,-76.079"/>
<polygon fill="#191970" stroke="#191970" points="531.5911,-72.5803 521.1324,-74.2729 530.3639,-79.4719 531.5911,-72.5803"/>
</g>
<!-- Node13&#45;&gt;Node4 -->
<g id="edge26" class="edge">
<title>Node13&#45;&gt;Node4</title>
<path fill="none" stroke="#191970" d="M768.9581,-113.3866C765.7605,-112.8976 762.5869,-112.4306 759.5,-112 614.2533,-91.7378 575.297,-104.8027 431.5,-76 431.3982,-75.9796 431.2963,-75.9591 431.1942,-75.9383"/>
<polygon fill="#191970" stroke="#191970" points="432.0534,-72.5451 421.5147,-73.634 430.4322,-79.3548 432.0534,-72.5451"/>
</g>
<!-- Node13&#45;&gt;Node5 -->
<g id="edge18" class="edge">
<title>Node13&#45;&gt;Node5</title>
<path fill="none" stroke="#191970" d="M778.7106,-112.4369C739.002,-102.8932 677.8896,-88.2052 635.0545,-77.9101"/>
<polygon fill="#191970" stroke="#191970" points="635.6663,-74.4575 625.1253,-75.5237 634.0305,-81.2637 635.6663,-74.4575"/>
</g>
<!-- Node13&#45;&gt;Node7 -->
<g id="edge28" class="edge">
<title>Node13&#45;&gt;Node7</title>
<path fill="none" stroke="#191970" d="M768.9671,-113.3201C765.7672,-112.8474 762.5907,-112.4022 759.5,-112 587.934,-89.676 541.1506,-97.5224 365.2012,-76.0058"/>
<polygon fill="#191970" stroke="#191970" points="365.436,-72.5082 355.0818,-74.7535 364.5762,-79.4552 365.436,-72.5082"/>
</g>
<!-- Node13&#45;&gt;Node10 -->
<g id="edge21" class="edge">
<title>Node13&#45;&gt;Node10</title>
<path fill="none" stroke="#191970" d="M798.2151,-112.3733C779.3579,-103.4241 751.054,-89.9917 729.7545,-79.8835"/>
<polygon fill="#191970" stroke="#191970" points="731.0551,-76.6266 720.5202,-75.5011 728.0539,-82.9506 731.0551,-76.6266"/>
</g>
<!-- Node14 -->
<g id="node15" class="node">
<title>Node14</title>
<polygon fill="#ffffff" stroke="#bfbfbf" points="1127.5,-56.5 1127.5,-75.5 1185.5,-75.5 1185.5,-56.5 1127.5,-56.5"/>
<text text-anchor="middle" x="1156.5" y="-63.5" font-family="Helvetica,sans-Serif" font-size="10.00" fill="#000000">memory</text>
</g>
<!-- Node13&#45;&gt;Node14 -->
<g id="edge17" class="edge">
<title>Node13&#45;&gt;Node14</title>
<path fill="none" stroke="#191970" d="M868.1551,-116.013C925.8462,-108.6957 1024.0508,-95.1264 1117.2409,-76.1001"/>
<polygon fill="#191970" stroke="#191970" points="1118.0292,-79.5112 1127.1139,-74.0597 1116.6124,-72.6561 1118.0292,-79.5112"/>
</g>
<!-- Node15 -->
<g id="node16" class="node">
<title>Node15</title>
<polygon fill="#ffffff" stroke="#bfbfbf" points="885.5,-56.5 885.5,-75.5 971.5,-75.5 971.5,-56.5 885.5,-56.5"/>
<text text-anchor="middle" x="928.5" y="-63.5" font-family="Helvetica,sans-Serif" font-size="10.00" fill="#000000">unordered_set</text>
</g>
<!-- Node13&#45;&gt;Node15 -->
<g id="edge19" class="edge">
<title>Node13&#45;&gt;Node15</title>
<path fill="none" stroke="#191970" d="M837.6605,-112.2455C855.0111,-103.4125 880.7901,-90.2887 900.4583,-80.2758"/>
<polygon fill="#191970" stroke="#191970" points="902.2353,-83.2986 909.559,-75.6427 899.0595,-77.0605 902.2353,-83.2986"/>
</g>
<!-- Node16 -->
<g id="node17" class="node">
<title>Node16</title>
<polygon fill="#ffffff" stroke="#bfbfbf" points="1204,-56.5 1204,-75.5 1331,-75.5 1331,-56.5 1204,-56.5"/>
<text text-anchor="middle" x="1267.5" y="-63.5" font-family="Helvetica,sans-Serif" font-size="10.00" fill="#000000">llvm/IR/LLVMContext.h</text>
</g>
<!-- Node13&#45;&gt;Node16 -->
<g id="edge23" class="edge">
<title>Node13&#45;&gt;Node16</title>
<path fill="none" stroke="#191970" d="M868.1004,-116.1625C938.1629,-107.8658 1070.3885,-92.0211 1193.8003,-76.0757"/>
<polygon fill="#191970" stroke="#191970" points="1194.3382,-79.5354 1203.806,-74.7802 1193.4393,-72.5933 1194.3382,-79.5354"/>
</g>
<!-- Node17 -->
<g id="node18" class="node">
<title>Node17</title>
<polygon fill="#ffffff" stroke="#bfbfbf" points="769.5,-56.5 769.5,-75.5 867.5,-75.5 867.5,-56.5 769.5,-56.5"/>
<text text-anchor="middle" x="818.5" y="-63.5" font-family="Helvetica,sans-Serif" font-size="10.00" fill="#000000">llvm/IR/Module.h</text>
</g>
<!-- Node13&#45;&gt;Node17 -->
<g id="edge24" class="edge">
<title>Node13&#45;&gt;Node17</title>
<path fill="none" stroke="#191970" d="M818.5,-112.2455C818.5,-104.9382 818.5,-94.6944 818.5,-85.7046"/>
<polygon fill="#191970" stroke="#191970" points="822.0001,-85.6426 818.5,-75.6427 815.0001,-85.6427 822.0001,-85.6426"/>
</g>
<!-- Node18 -->
<g id="node19" class="node">
<title>Node18</title>
<polygon fill="#ffffff" stroke="#bfbfbf" points="1349,-56.5 1349,-75.5 1436,-75.5 1436,-56.5 1349,-56.5"/>
<text text-anchor="middle" x="1392.5" y="-63.5" font-family="Helvetica,sans-Serif" font-size="10.00" fill="#000000">llvm/IR/Type.h</text>
</g>
<!-- Node13&#45;&gt;Node18 -->
<g id="edge25" class="edge">
<title>Node13&#45;&gt;Node18</title>
<path fill="none" stroke="#191970" d="M868.3536,-119.3062C959.7306,-113.9993 1160.3354,-100.6367 1338.7659,-76.1291"/>
<polygon fill="#191970" stroke="#191970" points="1339.4377,-79.5695 1348.8611,-74.7271 1338.4747,-72.636 1339.4377,-79.5695"/>
</g>
<!-- Node19 -->
<g id="node20" class="node">
<title>Node19</title>
<polygon fill="#ffffff" stroke="#bfbfbf" points="990,-56.5 990,-75.5 1109,-75.5 1109,-56.5 990,-56.5"/>
<text text-anchor="middle" x="1049.5" y="-63.5" font-family="Helvetica,sans-Serif" font-size="10.00" fill="#000000">boost/filesystem.hpp</text>
</g>
<!-- Node13&#45;&gt;Node19 -->
<g id="edge27" class="edge">
<title>Node13&#45;&gt;Node19</title>
<path fill="none" stroke="#191970" d="M857.9478,-112.4369C897.3156,-102.8932 957.9034,-88.2052 1000.3708,-77.9101"/>
<polygon fill="#191970" stroke="#191970" points="1001.321,-81.2812 1010.2149,-75.5237 999.6717,-74.4783 1001.321,-81.2812"/>
</g>
<!-- Node20&#45;&gt;Node18 -->
<g id="edge37" class="edge">
<title>Node20&#45;&gt;Node18</title>
<path fill="none" stroke="#191970" d="M1134.5432,-168.4509C1184.9073,-148.4482 1301.5758,-102.1117 1359.1442,-79.2477"/>
<polygon fill="#191970" stroke="#191970" points="1360.5158,-82.469 1368.5177,-75.5249 1357.9319,-75.9633 1360.5158,-82.469"/>
</g>
<!-- Node21 -->
<g id="node22" class="node">
<title>Node21</title>
<g id="a_node22"><a xlink:href="ChigModule_8hpp.html" target="_top" xlink:title="Defines the ChigModule class. ">
<polygon fill="#ffffff" stroke="#000000" points="632.5,-112.5 632.5,-131.5 750.5,-131.5 750.5,-112.5 632.5,-112.5"/>
<text text-anchor="middle" x="691.5" y="-119.5" font-family="Helvetica,sans-Serif" font-size="10.00" fill="#000000">chig/ChigModule.hpp</text>
</a>
</g>
</g>
<!-- Node20&#45;&gt;Node21 -->
<g id="edge30" class="edge">
<title>Node20&#45;&gt;Node21</title>
<path fill="none" stroke="#191970" d="M1056.2208,-169.2691C1053.2723,-168.8308 1050.3507,-168.4049 1047.5,-168 920.2225,-149.921 887.8966,-149.2201 760.5,-132 760.3988,-131.9863 760.2975,-131.9726 760.1961,-131.9589"/>
<polygon fill="#191970" stroke="#191970" points="760.9678,-128.5321 750.5846,-130.6389 760.0153,-135.467 760.9678,-128.5321"/>
</g>
<!-- Node21&#45;&gt;Node2 -->
<g id="edge31" class="edge">
<title>Node21&#45;&gt;Node2</title>
<path fill="none" stroke="#191970" d="M632.2615,-117.8867C547.4618,-111.578 386.4117,-98.0369 239.6459,-76.0436"/>
<polygon fill="#191970" stroke="#191970" points="239.9644,-72.552 229.5529,-74.5142 238.9156,-79.473 239.9644,-72.552"/>
</g>
<!-- Node21&#45;&gt;Node3 -->
<g id="edge33" class="edge">
<title>Node21&#45;&gt;Node3</title>
<path fill="none" stroke="#191970" d="M655.2278,-112.3733C619.5342,-102.9001 564.9121,-88.4032 526.2549,-78.1435"/>
<polygon fill="#191970" stroke="#191970" points="526.8621,-74.6835 516.2989,-75.5011 525.0664,-81.4493 526.8621,-74.6835"/>
</g>
<!-- Node21&#45;&gt;Node4 -->
<g id="edge34" class="edge">
<title>Node21&#45;&gt;Node4</title>
<path fill="none" stroke="#191970" d="M632.2607,-113.4369C579.3133,-105.3291 499.7788,-92.0289 431.5,-76 431.3989,-75.9763 431.2977,-75.9524 431.1963,-75.9284"/>
<polygon fill="#191970" stroke="#191970" points="432.116,-72.5512 421.558,-73.4345 430.3624,-79.328 432.116,-72.5512"/>
</g>
<!-- Node21&#45;&gt;Node10 -->
<g id="edge32" class="edge">
<title>Node21&#45;&gt;Node10</title>
<path fill="none" stroke="#191970" d="M693.0677,-112.2455C694.2421,-104.9382 695.8884,-94.6944 697.3332,-85.7046"/>
<polygon fill="#191970" stroke="#191970" points="700.8191,-86.0714 698.9503,-75.6427 693.9078,-84.9606 700.8191,-86.0714"/>
</g>
<!-- Node21&#45;&gt;Node15 -->
<g id="edge35" class="edge">
<title>Node21&#45;&gt;Node15</title>
<path fill="none" stroke="#191970" d="M731.9725,-112.4369C772.448,-102.8731 834.7867,-88.1432 878.3703,-77.845"/>
<polygon fill="#191970" stroke="#191970" points="879.2673,-81.2295 888.1945,-75.5237 877.6576,-74.4171 879.2673,-81.2295"/>
</g>
<!-- Node21&#45;&gt;Node17 -->
<g id="edge36" class="edge">
<title>Node21&#45;&gt;Node17</title>
<path fill="none" stroke="#191970" d="M713.3321,-112.3733C733.8103,-103.3435 764.6399,-89.7494 787.6319,-79.6111"/>
<polygon fill="#191970" stroke="#191970" points="789.215,-82.7383 796.9528,-75.5011 786.3907,-76.3333 789.215,-82.7383"/>
</g>
<!-- Node23&#45;&gt;Node4 -->
<g id="edge42" class="edge">
<title>Node23&#45;&gt;Node4</title>
<path fill="none" stroke="#191970" d="M458.4208,-224.4494C444.3416,-216.6614 426.342,-204.2899 416.5,-188 397.2745,-156.1791 395.3783,-111.4777 396.1549,-85.9543"/>
<polygon fill="#191970" stroke="#191970" points="399.6639,-85.8482 396.6472,-75.6919 392.672,-85.5127 399.6639,-85.8482"/>
</g>
<!-- Node24 -->
<g id="node25" class="node">
<title>Node24</title>
<polygon fill="#ffffff" stroke="#bfbfbf" points="425.5,-168.5 425.5,-187.5 469.5,-187.5 469.5,-168.5 425.5,-168.5"/>
<text text-anchor="middle" x="447.5" y="-175.5" font-family="Helvetica,sans-Serif" font-size="10.00" fill="#000000">string</text>
</g>
<!-- Node23&#45;&gt;Node24 -->
<g id="edge40" class="edge">
<title>Node23&#45;&gt;Node24</title>
<path fill="none" stroke="#191970" d="M473.1002,-224.2455C468.8773,-216.617 462.8827,-205.7881 457.7559,-196.5267"/>
<polygon fill="#191970" stroke="#191970" points="460.7432,-194.6965 452.8379,-187.6427 454.619,-198.0867 460.7432,-194.6965"/>
</g>
<!-- Node25 -->
<g id="node26" class="node">
<title>Node25</title>
<polygon fill="#ffffff" stroke="#bfbfbf" points="488,-168.5 488,-187.5 533,-187.5 533,-168.5 488,-168.5"/>
<text text-anchor="middle" x="510.5" y="-175.5" font-family="Helvetica,sans-Serif" font-size="10.00" fill="#000000">utility</text>
</g>
<!-- Node23&#45;&gt;Node25 -->
<g id="edge41" class="edge">
<title>Node23&#45;&gt;Node25</title>
<path fill="none" stroke="#191970" d="M484.074,-224.2455C488.4331,-216.617 494.6211,-205.7881 499.9133,-196.5267"/>
<polygon fill="#191970" stroke="#191970" points="503.0673,-198.0616 504.9899,-187.6427 496.9896,-194.5886 503.0673,-198.0616"/>
</g>
<!-- Node27 -->
<g id="node28" class="node">
<title>Node27</title>
<g id="a_node28"><a xlink:href="NodeType_8hpp.html" target="_top" xlink:title="Defines the NodeType class. ">
<polygon fill="#ffffff" stroke="#000000" points="618.5,-224.5 618.5,-243.5 728.5,-243.5 728.5,-224.5 618.5,-224.5"/>
<text text-anchor="middle" x="673.5" y="-231.5" font-family="Helvetica,sans-Serif" font-size="10.00" fill="#000000">chig/NodeType.hpp</text>
</a>
</g>
</g>
<!-- Node26&#45;&gt;Node27 -->
<g id="edge44" class="edge">
<title>Node26&#45;&gt;Node27</title>
<path fill="none" stroke="#191970" d="M721.5938,-285.8906C713.0272,-276.6478 699.8831,-262.466 689.4997,-251.2628"/>
<polygon fill="#191970" stroke="#191970" points="691.8965,-248.7 682.5318,-243.7449 686.7625,-253.4584 691.8965,-248.7"/>
</g>
<!-- Node32 -->
<g id="node33" class="node">
<title>Node32</title>
<polygon fill="#ffffff" stroke="#bfbfbf" points="747,-224.5 747,-243.5 794,-243.5 794,-224.5 747,-224.5"/>
<text text-anchor="middle" x="770.5" y="-231.5" font-family="Helvetica,sans-Serif" font-size="10.00" fill="#000000">vector</text>
</g>
<!-- Node26&#45;&gt;Node32 -->
<g id="edge53" class="edge">
<title>Node26&#45;&gt;Node32</title>
<path fill="none" stroke="#191970" d="M736.75,-285.8906C742.5865,-276.917 751.4509,-263.2879 758.6306,-252.2491"/>
<polygon fill="#191970" stroke="#191970" points="761.6436,-254.0361 764.1619,-243.7449 755.7755,-250.2194 761.6436,-254.0361"/>
</g>
<!-- Node27&#45;&gt;Node9 -->
<g id="edge47" class="edge">
<title>Node27&#45;&gt;Node9</title>
<path fill="none" stroke="#191970" d="M657.0449,-224.4509C623.2168,-204.8201 545.6821,-159.8259 505.568,-136.5472"/>
<polygon fill="#191970" stroke="#191970" points="507.3193,-133.5169 496.9134,-131.5249 503.8058,-139.5713 507.3193,-133.5169"/>
</g>
<!-- Node27&#45;&gt;Node13 -->
<g id="edge45" class="edge">
<title>Node27&#45;&gt;Node13</title>
<path fill="none" stroke="#191970" d="M655.8596,-224.4493C634.5297,-211.6743 603.3743,-188.2784 619.5,-168 623.9894,-162.3545 703.1805,-145.2992 760.2892,-133.6208"/>
<polygon fill="#191970" stroke="#191970" points="761.2156,-137.0041 770.3161,-131.5791 759.8188,-130.1449 761.2156,-137.0041"/>
</g>
<!-- Node27&#45;&gt;Node20 -->
<g id="edge46" class="edge">
<title>Node27&#45;&gt;Node20</title>
<path fill="none" stroke="#191970" d="M728.7984,-225.3514C732.0792,-224.8822 735.3319,-224.4281 738.5,-224 872.3056,-205.919 908.8304,-206.7889 1046.1603,-188.1384"/>
<polygon fill="#191970" stroke="#191970" points="1046.7918,-191.5847 1056.225,-186.7613 1045.8428,-184.6493 1046.7918,-191.5847"/>
</g>
<!-- Node27&#45;&gt;Node25 -->
<g id="edge49" class="edge">
<title>Node27&#45;&gt;Node25</title>
<path fill="none" stroke="#191970" d="M645.4793,-224.3733C616.9384,-214.5678 572.7314,-199.3801 542.7506,-189.08"/>
<polygon fill="#191970" stroke="#191970" points="543.7665,-185.7282 533.1718,-185.7891 541.492,-192.3484 543.7665,-185.7282"/>
</g>
<!-- Node28 -->
<g id="node29" class="node">
<title>Node28</title>
<polygon fill="#ffffff" stroke="#bfbfbf" points="737,-168.5 737,-187.5 790,-187.5 790,-168.5 737,-168.5"/>
<text text-anchor="middle" x="763.5" y="-175.5" font-family="Helvetica,sans-Serif" font-size="10.00" fill="#000000">iterator</text>
</g>
<!-- Node27&#45;&gt;Node28 -->
<g id="edge48" class="edge">
<title>Node27&#45;&gt;Node28</title>
<path fill="none" stroke="#191970" d="M689.1768,-224.2455C702.9856,-215.6534 723.3193,-203.0014 739.2292,-193.1018"/>
<polygon fill="#191970" stroke="#191970" points="741.3613,-195.8974 748.0028,-187.6427 737.6632,-189.954 741.3613,-195.8974"/>
</g>
<!-- Node27&#45;&gt;Node29 -->
<g id="edge50" class="edge">
<title>Node27&#45;&gt;Node29</title>
<path fill="none" stroke="#191970" d="M726.6094,-224.4369C780.6174,-214.712 864.2896,-199.6456 921.5864,-189.3285"/>
<polygon fill="#191970" stroke="#191970" points="922.3882,-192.7405 931.6096,-187.5237 921.1476,-185.8513 922.3882,-192.7405"/>
</g>
<!-- Node30 -->
<g id="node31" class="node">
<title>Node30</title>
<polygon fill="#ffffff" stroke="#bfbfbf" points="808.5,-168.5 808.5,-187.5 912.5,-187.5 912.5,-168.5 808.5,-168.5"/>
<text text-anchor="middle" x="860.5" y="-175.5" font-family="Helvetica,sans-Serif" font-size="10.00" fill="#000000">llvm/IR/Function.h</text>
</g>
<!-- Node27&#45;&gt;Node30 -->
<g id="edge51" class="edge">
<title>Node27&#45;&gt;Node30</title>
<path fill="none" stroke="#191970" d="M705.6464,-224.3733C737.0109,-214.9807 784.8665,-200.6496 819.0716,-190.4064"/>
<polygon fill="#191970" stroke="#191970" points="820.1975,-193.7229 828.773,-187.5011 818.1893,-187.0171 820.1975,-193.7229"/>
</g>
<!-- Node31 -->
<g id="node32" class="node">
<title>Node31</title>
<polygon fill="#ffffff" stroke="#bfbfbf" points="628,-168.5 628,-187.5 719,-187.5 719,-168.5 628,-168.5"/>
<text text-anchor="middle" x="673.5" y="-175.5" font-family="Helvetica,sans-Serif" font-size="10.00" fill="#000000">llvm/IR/Value.h</text>
</g>
<!-- Node27&#45;&gt;Node31 -->
<g id="edge52" class="edge">
<title>Node27&#45;&gt;Node31</title>
<path fill="none" stroke="#191970" d="M673.5,-224.2455C673.5,-216.9382 673.5,-206.6944 673.5,-197.7046"/>
<polygon fill="#191970" stroke="#191970" points="677.0001,-197.6426 673.5,-187.6427 670.0001,-197.6427 677.0001,-197.6426"/>
</g>
</g>
</svg>
