<?xml version="1.0" encoding="UTF-8" standalone="no"?>
<!DOCTYPE svg PUBLIC "-//W3C//DTD SVG 1.1//EN"
 "http://www.w3.org/Graphics/SVG/1.1/DTD/svg11.dtd">
<!-- Generated by graphviz version 2.40.1 (20161225.0304)
 -->
<!-- Title: lib/support/include/chi/Support/HashFilesystemPath.hpp Pages: 1 -->
<svg width="1798pt" height="307pt"
 viewBox="0.00 0.00 1797.50 307.00" xmlns="http://www.w3.org/2000/svg" xmlns:xlink="http://www.w3.org/1999/xlink">
<g id="graph0" class="graph" transform="scale(1 1) rotate(0) translate(4 303)">
<title>lib/support/include/chi/Support/HashFilesystemPath.hpp</title>
<polygon fill="#ffffff" stroke="transparent" points="-4,4 -4,-303 1793.5,-303 1793.5,4 -4,4"/>
<!-- Node3 -->
<g id="node1" class="node">
<title>Node3</title>
<polygon fill="#bfbfbf" stroke="#000000" points="937,-257.5 937,-298.5 1080,-298.5 1080,-257.5 937,-257.5"/>
<text text-anchor="start" x="945" y="-286.5" font-family="Helvetica,sans-Serif" font-size="10.00" fill="#000000">lib/support/include</text>
<text text-anchor="start" x="945" y="-275.5" font-family="Helvetica,sans-Serif" font-size="10.00" fill="#000000">/chi/Support/HashFilesystem</text>
<text text-anchor="middle" x="1008.5" y="-264.5" font-family="Helvetica,sans-Serif" font-size="10.00" fill="#000000">Path.hpp</text>
</g>
<!-- Node4 -->
<g id="node2" class="node">
<title>Node4</title>
<g id="a_node2"><a xlink:href="ChiModule_8hpp.html" target="_top" xlink:title="Defines the ChiModule class. ">
<polygon fill="#ffffff" stroke="#000000" points="959.5,-190.5 959.5,-220.5 1057.5,-220.5 1057.5,-190.5 959.5,-190.5"/>
<text text-anchor="start" x="967.5" y="-208.5" font-family="Helvetica,sans-Serif" font-size="10.00" fill="#000000">lib/core/include/chi</text>
<text text-anchor="middle" x="1008.5" y="-197.5" font-family="Helvetica,sans-Serif" font-size="10.00" fill="#000000">/ChiModule.hpp</text>
</a>
</g>
</g>
<!-- Node3&#45;&gt;Node4 -->
<g id="edge1" class="edge">
<title>Node3&#45;&gt;Node4</title>
<path fill="none" stroke="#191970" d="M1008.5,-247.3279C1008.5,-238.0871 1008.5,-228.3508 1008.5,-220.5991"/>
<polygon fill="#191970" stroke="#191970" points="1005.0001,-247.4183 1008.5,-257.4183 1012.0001,-247.4184 1005.0001,-247.4183"/>
</g>
<!-- Node5 -->
<g id="node3" class="node">
<title>Node5</title>
<g id="a_node3"><a xlink:href="GraphModule_8hpp.html" target="_top" xlink:title="Defines the GraphModule class. ">
<polygon fill="#ffffff" stroke="#000000" points="826.5,-123.5 826.5,-153.5 924.5,-153.5 924.5,-123.5 826.5,-123.5"/>
<text text-anchor="start" x="834.5" y="-141.5" font-family="Helvetica,sans-Serif" font-size="10.00" fill="#000000">lib/core/include/chi</text>
<text text-anchor="middle" x="875.5" y="-130.5" font-family="Helvetica,sans-Serif" font-size="10.00" fill="#000000">/GraphModule.hpp</text>
</a>
</g>
</g>
<!-- Node4&#45;&gt;Node5 -->
<g id="edge2" class="edge">
<title>Node4&#45;&gt;Node5</title>
<path fill="none" stroke="#191970" d="M969.6187,-185.9132C949.2357,-175.645 924.6428,-163.2561 905.7083,-153.7177"/>
<polygon fill="#191970" stroke="#191970" points="968.1467,-189.0906 978.6522,-190.4639 971.2961,-182.8391 968.1467,-189.0906"/>
</g>
<!-- Node17 -->
<g id="node15" class="node">
<title>Node17</title>
<g id="a_node15"><a xlink:href="LangModule_8hpp.html" target="_top" xlink:title="Defines the LangModule class. ">
<polygon fill="#ffffff" stroke="#000000" points="269.5,-123.5 269.5,-153.5 367.5,-153.5 367.5,-123.5 269.5,-123.5"/>
<text text-anchor="start" x="277.5" y="-141.5" font-family="Helvetica,sans-Serif" font-size="10.00" fill="#000000">lib/core/include/chi</text>
<text text-anchor="middle" x="318.5" y="-130.5" font-family="Helvetica,sans-Serif" font-size="10.00" fill="#000000">/LangModule.hpp</text>
</a>
</g>
</g>
<!-- Node4&#45;&gt;Node17 -->
<g id="edge14" class="edge">
<title>Node4&#45;&gt;Node17</title>
<path fill="none" stroke="#191970" d="M949.3668,-199.7581C815.5678,-186.766 491.637,-155.3118 367.7814,-143.2853"/>
<polygon fill="#191970" stroke="#191970" points="949.1386,-203.2523 959.4301,-200.7352 949.8152,-196.2851 949.1386,-203.2523"/>
</g>
<!-- Node19 -->
<g id="node17" class="node">
<title>Node19</title>
<g id="a_node17"><a xlink:href="ChiModule_8cpp.html" target="_top" xlink:title="lib/core/src/ChiModule.cpp">
<polygon fill="#ffffff" stroke="#000000" points="942.5,-129 942.5,-148 1074.5,-148 1074.5,-129 942.5,-129"/>
<text text-anchor="middle" x="1008.5" y="-136" font-family="Helvetica,sans-Serif" font-size="10.00" fill="#000000">lib/core/src/ChiModule.cpp</text>
</a>
</g>
</g>
<!-- Node4&#45;&gt;Node19 -->
<g id="edge18" class="edge">
<title>Node4&#45;&gt;Node19</title>
<path fill="none" stroke="#191970" d="M1008.5,-180.1199C1008.5,-168.9072 1008.5,-156.4031 1008.5,-148.055"/>
<polygon fill="#191970" stroke="#191970" points="1005.0001,-180.2966 1008.5,-190.2967 1012.0001,-180.2967 1005.0001,-180.2966"/>
</g>
<!-- Node20 -->
<g id="node18" class="node">
<title>Node20</title>
<g id="a_node18"><a xlink:href="DataType_8cpp.html" target="_top" xlink:title="lib/core/src/DataType.cpp">
<polygon fill="#ffffff" stroke="#000000" points="1092.5,-129 1092.5,-148 1220.5,-148 1220.5,-129 1092.5,-129"/>
<text text-anchor="middle" x="1156.5" y="-136" font-family="Helvetica,sans-Serif" font-size="10.00" fill="#000000">lib/core/src/DataType.cpp</text>
</a>
</g>
</g>
<!-- Node4&#45;&gt;Node20 -->
<g id="edge19" class="edge">
<title>Node4&#45;&gt;Node20</title>
<path fill="none" stroke="#191970" d="M1051.1373,-186.198C1078.7113,-173.7152 1113.414,-158.0051 1135.2854,-148.1039"/>
<polygon fill="#191970" stroke="#191970" points="1049.3806,-183.1512 1041.7141,-190.4639 1052.2675,-189.5282 1049.3806,-183.1512"/>
</g>
<!-- Node21 -->
<g id="node19" class="node">
<title>Node21</title>
<g id="a_node19"><a xlink:href="NodeType_8cpp.html" target="_top" xlink:title="lib/core/src/NodeType.cpp">
<polygon fill="#ffffff" stroke="#000000" points="1239,-129 1239,-148 1370,-148 1370,-129 1239,-129"/>
<text text-anchor="middle" x="1304.5" y="-136" font-family="Helvetica,sans-Serif" font-size="10.00" fill="#000000">lib/core/src/NodeType.cpp</text>
</a>
</g>
</g>
<!-- Node4&#45;&gt;Node21 -->
<g id="edge20" class="edge">
<title>Node4&#45;&gt;Node21</title>
<path fill="none" stroke="#191970" d="M1067.7667,-192.0849C1125.3789,-179.0443 1211.4288,-159.5668 1262.368,-148.0366"/>
<polygon fill="#191970" stroke="#191970" points="1066.6912,-188.7397 1057.7107,-194.3611 1068.2366,-195.567 1066.6912,-188.7397"/>
</g>
<!-- Node6 -->
<g id="node4" class="node">
<title>Node6</title>
<g id="a_node4"><a xlink:href="Context_8cpp.html" target="_top" xlink:title="lib/core/src/Context.cpp">
<polygon fill="#ffffff" stroke="#000000" points="337.5,-62 337.5,-81 457.5,-81 457.5,-62 337.5,-62"/>
<text text-anchor="middle" x="397.5" y="-69" font-family="Helvetica,sans-Serif" font-size="10.00" fill="#000000">lib/core/src/Context.cpp</text>
</a>
</g>
</g>
<!-- Node5&#45;&gt;Node6 -->
<g id="edge3" class="edge">
<title>Node5&#45;&gt;Node6</title>
<path fill="none" stroke="#191970" d="M816.1402,-132.8263C736.3235,-124.7871 590.1364,-108.6196 466.5,-87 456.8247,-85.3081 446.4581,-83.16 436.7772,-81.006"/>
<polygon fill="#191970" stroke="#191970" points="816.1831,-136.3479 826.4816,-133.8597 816.8792,-129.3826 816.1831,-136.3479"/>
</g>
<!-- Node7 -->
<g id="node5" class="node">
<title>Node7</title>
<g id="a_node5"><a xlink:href="FunctionCompiler_8cpp.html" target="_top" xlink:title="lib/core/src/FunctionCompiler.cpp">
<polygon fill="#ffffff" stroke="#000000" points="157.5,-62 157.5,-81 319.5,-81 319.5,-62 157.5,-62"/>
<text text-anchor="middle" x="238.5" y="-69" font-family="Helvetica,sans-Serif" font-size="10.00" fill="#000000">lib/core/src/FunctionCompiler.cpp</text>
</a>
</g>
</g>
<!-- Node5&#45;&gt;Node7 -->
<g id="edge4" class="edge">
<title>Node5&#45;&gt;Node7</title>
<path fill="none" stroke="#191970" d="M816.0587,-134.4042C715.4285,-127.1348 505.2062,-110.4996 328.5,-87 315.9267,-85.3279 302.4226,-83.1872 289.7974,-81.0341"/>
<polygon fill="#191970" stroke="#191970" points="816.0995,-137.9161 826.3243,-135.1407 816.6004,-130.934 816.0995,-137.9161"/>
</g>
<!-- Node8 -->
<g id="node6" class="node">
<title>Node8</title>
<g id="a_node6"><a xlink:href="FunctionValidator_8cpp.html" target="_top" xlink:title="lib/core/src/FunctionValidator.cpp">
<polygon fill="#ffffff" stroke="#000000" points="1627.5,-62 1627.5,-81 1789.5,-81 1789.5,-62 1627.5,-62"/>
<text text-anchor="middle" x="1708.5" y="-69" font-family="Helvetica,sans-Serif" font-size="10.00" fill="#000000">lib/core/src/FunctionValidator.cpp</text>
</a>
</g>
</g>
<!-- Node5&#45;&gt;Node8 -->
<g id="edge5" class="edge">
<title>Node5&#45;&gt;Node8</title>
<path fill="none" stroke="#191970" d="M934.6195,-123.0469C1236.3873,-76.3554 1318.784,-120.5659 1618.5,-87 1631.893,-85.5001 1646.3143,-83.2874 1659.6045,-81.0007"/>
<polygon fill="#191970" stroke="#191970" points="934.048,-119.5937 924.7107,-124.6003 935.1322,-126.5092 934.048,-119.5937"/>
</g>
<!-- Node9 -->
<g id="node7" class="node">
<title>Node9</title>
<g id="a_node7"><a xlink:href="GraphFunction_8cpp.html" target="_top" xlink:title="lib/core/src/GraphFunction.cpp">
<polygon fill="#ffffff" stroke="#000000" points="475.5,-62 475.5,-81 625.5,-81 625.5,-62 475.5,-62"/>
<text text-anchor="middle" x="550.5" y="-69" font-family="Helvetica,sans-Serif" font-size="10.00" fill="#000000">lib/core/src/GraphFunction.cpp</text>
</a>
</g>
</g>
<!-- Node5&#45;&gt;Node9 -->
<g id="edge6" class="edge">
<title>Node5&#45;&gt;Node9</title>
<path fill="none" stroke="#191970" d="M816.6787,-126.3738C753.5405,-113.3576 654.5463,-92.9495 596.7443,-81.0334"/>
<polygon fill="#191970" stroke="#191970" points="815.9916,-129.8056 826.4923,-128.3969 817.405,-122.9498 815.9916,-129.8056"/>
</g>
<!-- Node10 -->
<g id="node8" class="node">
<title>Node10</title>
<g id="a_node8"><a xlink:href="GraphModule_8cpp.html" target="_top" xlink:title="lib/core/src/GraphModule.cpp">
<polygon fill="#ffffff" stroke="#000000" points="643.5,-62 643.5,-81 787.5,-81 787.5,-62 643.5,-62"/>
<text text-anchor="middle" x="715.5" y="-69" font-family="Helvetica,sans-Serif" font-size="10.00" fill="#000000">lib/core/src/GraphModule.cpp</text>
</a>
</g>
</g>
<!-- Node5&#45;&gt;Node10 -->
<g id="edge7" class="edge">
<title>Node5&#45;&gt;Node10</title>
<path fill="none" stroke="#191970" d="M830.1849,-119.5243C800.2522,-106.99 762.286,-91.0916 738.4347,-81.1039"/>
<polygon fill="#191970" stroke="#191970" points="829.017,-122.8297 839.5929,-123.4639 831.7208,-116.3729 829.017,-122.8297"/>
</g>
<!-- Node11 -->
<g id="node9" class="node">
<title>Node11</title>
<g id="a_node9"><a xlink:href="GraphStruct_8cpp.html" target="_top" xlink:title="lib/core/src/GraphStruct.cpp">
<polygon fill="#ffffff" stroke="#000000" points="806,-62 806,-81 945,-81 945,-62 806,-62"/>
<text text-anchor="middle" x="875.5" y="-69" font-family="Helvetica,sans-Serif" font-size="10.00" fill="#000000">lib/core/src/GraphStruct.cpp</text>
</a>
</g>
</g>
<!-- Node5&#45;&gt;Node11 -->
<g id="edge8" class="edge">
<title>Node5&#45;&gt;Node11</title>
<path fill="none" stroke="#191970" d="M875.5,-113.1199C875.5,-101.9072 875.5,-89.4031 875.5,-81.055"/>
<polygon fill="#191970" stroke="#191970" points="872.0001,-113.2966 875.5,-123.2967 879.0001,-113.2967 872.0001,-113.2966"/>
</g>
<!-- Node12 -->
<g id="node10" class="node">
<title>Node12</title>
<g id="a_node10"><a xlink:href="JsonDeserializer_8cpp.html" target="_top" xlink:title="lib/core/src/JsonDeserializer.cpp">
<polygon fill="#ffffff" stroke="#000000" points="963.5,-62 963.5,-81 1121.5,-81 1121.5,-62 963.5,-62"/>
<text text-anchor="middle" x="1042.5" y="-69" font-family="Helvetica,sans-Serif" font-size="10.00" fill="#000000">lib/core/src/JsonDeserializer.cpp</text>
</a>
</g>
</g>
<!-- Node5&#45;&gt;Node12 -->
<g id="edge9" class="edge">
<title>Node5&#45;&gt;Node12</title>
<path fill="none" stroke="#191970" d="M922.3924,-119.6869C953.6965,-107.1278 993.5594,-91.1349 1018.5619,-81.1039"/>
<polygon fill="#191970" stroke="#191970" points="920.9558,-116.492 912.9781,-123.4639 923.5622,-122.9887 920.9558,-116.492"/>
</g>
<!-- Node13 -->
<g id="node11" class="node">
<title>Node13</title>
<g id="a_node11"><a xlink:href="JsonSerializer_8cpp.html" target="_top" xlink:title="lib/core/src/JsonSerializer.cpp">
<polygon fill="#ffffff" stroke="#000000" points="1139.5,-62 1139.5,-81 1287.5,-81 1287.5,-62 1139.5,-62"/>
<text text-anchor="middle" x="1213.5" y="-69" font-family="Helvetica,sans-Serif" font-size="10.00" fill="#000000">lib/core/src/JsonSerializer.cpp</text>
</a>
</g>
</g>
<!-- Node5&#45;&gt;Node13 -->
<g id="edge10" class="edge">
<title>Node5&#45;&gt;Node13</title>
<path fill="none" stroke="#191970" d="M934.6073,-122.8426C1022.0135,-103.4521 1046.0526,-102.6011 1130.5,-87 1140.8787,-85.0826 1151.9849,-83.0177 1162.5882,-81.0398"/>
<polygon fill="#191970" stroke="#191970" points="933.7891,-119.439 924.7943,-125.0376 935.3172,-126.2702 933.7891,-119.439"/>
</g>
<!-- Node14 -->
<g id="node12" class="node">
<title>Node14</title>
<g id="a_node12"><a xlink:href="NodeInstance_8cpp.html" target="_top" xlink:title="lib/core/src/NodeInstance.cpp">
<polygon fill="#ffffff" stroke="#000000" points="1305.5,-62 1305.5,-81 1451.5,-81 1451.5,-62 1305.5,-62"/>
<text text-anchor="middle" x="1378.5" y="-69" font-family="Helvetica,sans-Serif" font-size="10.00" fill="#000000">lib/core/src/NodeInstance.cpp</text>
</a>
</g>
</g>
<!-- Node5&#45;&gt;Node14 -->
<g id="edge11" class="edge">
<title>Node5&#45;&gt;Node14</title>
<path fill="none" stroke="#191970" d="M934.9342,-122.9235C1094.8195,-94.6197 1139.3172,-109.6052 1296.5,-87 1307.9725,-85.3501 1320.2825,-83.2177 1331.7862,-81.0655"/>
<polygon fill="#191970" stroke="#191970" points="933.9594,-119.5426 924.7377,-124.759 935.1996,-126.4319 933.9594,-119.5426"/>
</g>
<!-- Node15 -->
<g id="node13" class="node">
<title>Node15</title>
<g id="a_node13"><a xlink:href="Debugger_8hpp_source.html" target="_top" xlink:title="lib/debugger/include\l/chi/Debugger/Debugger.hpp">
<polygon fill="#ffffff" stroke="#000000" points="1469.5,-56.5 1469.5,-86.5 1609.5,-86.5 1609.5,-56.5 1469.5,-56.5"/>
<text text-anchor="start" x="1477.5" y="-74.5" font-family="Helvetica,sans-Serif" font-size="10.00" fill="#000000">lib/debugger/include</text>
<text text-anchor="middle" x="1539.5" y="-63.5" font-family="Helvetica,sans-Serif" font-size="10.00" fill="#000000">/chi/Debugger/Debugger.hpp</text>
</a>
</g>
</g>
<!-- Node5&#45;&gt;Node15 -->
<g id="edge12" class="edge">
<title>Node5&#45;&gt;Node15</title>
<path fill="none" stroke="#191970" d="M934.8247,-122.9927C1166.9006,-85.4406 1231.0385,-117.2264 1460.5,-87 1463.41,-86.6167 1466.3741,-86.1919 1469.364,-85.7352"/>
<polygon fill="#191970" stroke="#191970" points="934.0191,-119.5781 924.7195,-124.6542 935.1549,-126.4853 934.0191,-119.5781"/>
</g>
<!-- Node16 -->
<g id="node14" class="node">
<title>Node16</title>
<g id="a_node14"><a xlink:href="Debugger_8cpp.html" target="_top" xlink:title="lib/debugger/src/Debugger.cpp">
<polygon fill="#ffffff" stroke="#000000" points="1465,-.5 1465,-19.5 1614,-19.5 1614,-.5 1465,-.5"/>
<text text-anchor="middle" x="1539.5" y="-7.5" font-family="Helvetica,sans-Serif" font-size="10.00" fill="#000000">lib/debugger/src/Debugger.cpp</text>
</a>
</g>
</g>
<!-- Node15&#45;&gt;Node16 -->
<g id="edge13" class="edge">
<title>Node15&#45;&gt;Node16</title>
<path fill="none" stroke="#191970" d="M1539.5,-46.2849C1539.5,-36.9858 1539.5,-26.9883 1539.5,-19.8469"/>
<polygon fill="#191970" stroke="#191970" points="1536.0001,-46.2977 1539.5,-56.2977 1543.0001,-46.2978 1536.0001,-46.2977"/>
</g>
<!-- Node17&#45;&gt;Node6 -->
<g id="edge15" class="edge">
<title>Node17&#45;&gt;Node6</title>
<path fill="none" stroke="#191970" d="M344.3924,-116.5406C358.5547,-104.5296 375.3756,-90.2637 386.2337,-81.055"/>
<polygon fill="#191970" stroke="#191970" points="341.789,-114.1593 336.4263,-123.2967 346.3167,-119.4979 341.789,-114.1593"/>
</g>
<!-- Node17&#45;&gt;Node7 -->
<g id="edge16" class="edge">
<title>Node17&#45;&gt;Node7</title>
<path fill="none" stroke="#191970" d="M292.2798,-116.5406C277.9383,-104.5296 260.9044,-90.2637 249.9089,-81.055"/>
<polygon fill="#191970" stroke="#191970" points="290.433,-119.5592 300.3468,-123.2967 294.9275,-114.1927 290.433,-119.5592"/>
</g>
<!-- Node18 -->
<g id="node16" class="node">
<title>Node18</title>
<g id="a_node16"><a xlink:href="LangModule_8cpp.html" target="_top" xlink:title="lib/core/src/LangModule.cpp">
<polygon fill="#ffffff" stroke="#000000" points="0,-62 0,-81 139,-81 139,-62 0,-62"/>
<text text-anchor="middle" x="69.5" y="-69" font-family="Helvetica,sans-Serif" font-size="10.00" fill="#000000">lib/core/src/LangModule.cpp</text>
</a>
</g>
</g>
<!-- Node17&#45;&gt;Node18 -->
<g id="edge17" class="edge">
<title>Node17&#45;&gt;Node18</title>
<path fill="none" stroke="#191970" d="M259.6436,-122.6631C211.5646,-109.7262 145.1932,-91.8672 104.9236,-81.0316"/>
<polygon fill="#191970" stroke="#191970" points="258.7396,-126.0443 269.3056,-125.263 260.5585,-119.2848 258.7396,-126.0443"/>
</g>
</g>
</svg>
