<?xml version="1.0" encoding="UTF-8" standalone="no"?>
<!DOCTYPE svg PUBLIC "-//W3C//DTD SVG 1.1//EN"
 "http://www.w3.org/Graphics/SVG/1.1/DTD/svg11.dtd">
<!-- Generated by graphviz version 2.40.1 (20161225.0304)
 -->
<!-- Title: lib/support/include/chi/Support/HashUuid.hpp Pages: 1 -->
<!--zoomable 229 -->
<svg id="main" version="1.1" xmlns="http://www.w3.org/2000/svg" xmlns:xlink="http://www.w3.org/1999/xlink" xml:space="preserve" onload="init(evt)">
<style type="text/css"><![CDATA[
.edge:hover path { stroke: red; }
.edge:hover polygon { stroke: red; fill: red; }
]]></style>
<script type="text/javascript"><![CDATA[
var edges = document.getElementsByTagName('g');
if (edges && edges.length) {
  for (var i=0;i<edges.length;i++) {
    if (edges[i].id.substr(0,4)=='edge') {
      edges[i].setAttribute('class','edge');
    }
  }
}
]]></script>
        <defs>
                <circle id="rim" cx="0" cy="0" r="7"/>
                <circle id="rim2" cx="0" cy="0" r="3.5"/>
                <g id="zoomPlus">
                        <use xlink:href="#rim" fill="#404040">
                                <set attributeName="fill" to="#808080" begin="zoomplus.mouseover" end="zoomplus.mouseout"/>
                        </use>
                        <path d="M-4,0h8M0,-4v8" fill="none" stroke="white" stroke-width="1.5" pointer-events="none"/>
                </g>
                <g id="zoomMin">
                        <use xlink:href="#rim" fill="#404040">
                                <set attributeName="fill" to="#808080" begin="zoomminus.mouseover" end="zoomminus.mouseout"/>
                        </use>
                        <path d="M-4,0h8" fill="none" stroke="white" stroke-width="1.5" pointer-events="none"/>
                </g>
                <g id="dirArrow">
                        <path fill="none" stroke="white" stroke-width="1.5" d="M0,-3.0v7 M-2.5,-0.5L0,-3.0L2.5,-0.5"/>
                </g>
               <g id="resetDef">
                       <use xlink:href="#rim2" fill="#404040">
                               <set attributeName="fill" to="#808080" begin="reset.mouseover" end="reset.mouseout"/>
                       </use>
               </g>
        </defs>

<script type="text/javascript">
var viewWidth = 1487;
var viewHeight = 229;
var sectionId = 'dynsection-1';
</script>
<script xlink:href="svgpan.js"/>
<svg id="graph" class="graph">
<g id="viewport">
<title>lib/support/include/chi/Support/HashUuid.hpp</title>
<polygon fill="#ffffff" stroke="transparent" points="-4,4 -4,-225 1482.5,-225 1482.5,4 -4,4"/>
<!-- Node3 -->
<g id="node1" class="node">
<title>Node3</title>
<polygon fill="#bfbfbf" stroke="#000000" points="671.5,-190.5 671.5,-220.5 804.5,-220.5 804.5,-190.5 671.5,-190.5"/>
<text text-anchor="start" x="679.5" y="-208.5" font-family="Helvetica,sans-Serif" font-size="10.00" fill="#000000">lib/support/include</text>
<text text-anchor="middle" x="738" y="-197.5" font-family="Helvetica,sans-Serif" font-size="10.00" fill="#000000">/chi/Support/HashUuid.hpp</text>
</g>
<!-- Node4 -->
<g id="node2" class="node">
<title>Node4</title>
<g id="a_node2"><a xlink:href="GraphFunction_8hpp.html" target="_top" xlink:title="Declares the GraphFunction class. ">
<polygon fill="#ffffff" stroke="#000000" points="687,-123.5 687,-153.5 789,-153.5 789,-123.5 687,-123.5"/>
<text text-anchor="start" x="695" y="-141.5" font-family="Helvetica,sans-Serif" font-size="10.00" fill="#000000">lib/core/include/chi</text>
<text text-anchor="middle" x="738" y="-130.5" font-family="Helvetica,sans-Serif" font-size="10.00" fill="#000000">/GraphFunction.hpp</text>
</a>
</g>
</g>
<!-- Node3&#45;&gt;Node4 -->
<g id="edge1" class="edge">
<title>Node3&#45;&gt;Node4</title>
<path fill="none" stroke="#191970" d="M738,-180.0249C738,-171.128 738,-161.4287 738,-153.6432"/>
<polygon fill="#191970" stroke="#191970" points="734.5001,-180.2966 738,-190.2967 741.5001,-180.2967 734.5001,-180.2966"/>
</g>
<!-- Node5 -->
<g id="node3" class="node">
<title>Node5</title>
<g id="a_node3"><a xlink:href="Context_8cpp.html" target="_top" xlink:title="lib/core/src/Context.cpp">
<polygon fill="#ffffff" stroke="#000000" points="0,-62 0,-81 120,-81 120,-62 0,-62"/>
<text text-anchor="middle" x="60" y="-69" font-family="Helvetica,sans-Serif" font-size="10.00" fill="#000000">lib/core/src/Context.cpp</text>
</a>
</g>
</g>
<!-- Node4&#45;&gt;Node5 -->
<g id="edge2" class="edge">
<title>Node4&#45;&gt;Node5</title>
<path fill="none" stroke="#191970" d="M676.5294,-136.0805C566.2817,-131.1244 327.8725,-117.5993 129,-87 118.928,-85.4503 108.134,-83.2761 98.1448,-81.0454"/>
<polygon fill="#191970" stroke="#191970" points="676.6481,-139.5891 686.7928,-136.5337 676.957,-132.5959 676.6481,-139.5891"/>
</g>
<!-- Node6 -->
<g id="node4" class="node">
<title>Node6</title>
<g id="a_node4"><a xlink:href="FunctionCompiler_8cpp.html" target="_top" xlink:title="lib/core/src/FunctionCompiler.cpp">
<polygon fill="#ffffff" stroke="#000000" points="138,-62 138,-81 300,-81 300,-62 138,-62"/>
<text text-anchor="middle" x="219" y="-69" font-family="Helvetica,sans-Serif" font-size="10.00" fill="#000000">lib/core/src/FunctionCompiler.cpp</text>
</a>
</g>
</g>
<!-- Node4&#45;&gt;Node6 -->
<g id="edge3" class="edge">
<title>Node4&#45;&gt;Node6</title>
<path fill="none" stroke="#191970" d="M676.6497,-132.1315C593.2665,-123.2486 439.5741,-106.0687 309,-87 296.9198,-85.2358 283.9643,-83.1307 271.753,-81.0492"/>
<polygon fill="#191970" stroke="#191970" points="676.3959,-135.6241 686.7095,-133.1992 677.1348,-128.6632 676.3959,-135.6241"/>
</g>
<!-- Node7 -->
<g id="node5" class="node">
<title>Node7</title>
<g id="a_node5"><a xlink:href="FunctionValidator_8cpp.html" target="_top" xlink:title="lib/core/src/FunctionValidator.cpp">
<polygon fill="#ffffff" stroke="#000000" points="318,-62 318,-81 480,-81 480,-62 318,-62"/>
<text text-anchor="middle" x="399" y="-69" font-family="Helvetica,sans-Serif" font-size="10.00" fill="#000000">lib/core/src/FunctionValidator.cpp</text>
</a>
</g>
</g>
<!-- Node4&#45;&gt;Node7 -->
<g id="edge4" class="edge">
<title>Node4&#45;&gt;Node7</title>
<path fill="none" stroke="#191970" d="M677.0509,-126.454C611.212,-113.4416 507.6524,-92.9741 447.2364,-81.0334"/>
<polygon fill="#191970" stroke="#191970" points="676.3924,-129.8915 686.8812,-128.3969 677.7496,-123.0243 676.3924,-129.8915"/>
</g>
<!-- Node8 -->
<g id="node6" class="node">
<title>Node8</title>
<g id="a_node6"><a xlink:href="GraphFunction_8cpp.html" target="_top" xlink:title="lib/core/src/GraphFunction.cpp">
<polygon fill="#ffffff" stroke="#000000" points="498,-62 498,-81 648,-81 648,-62 498,-62"/>
<text text-anchor="middle" x="573" y="-69" font-family="Helvetica,sans-Serif" font-size="10.00" fill="#000000">lib/core/src/GraphFunction.cpp</text>
</a>
</g>
</g>
<!-- Node4&#45;&gt;Node8 -->
<g id="edge5" class="edge">
<title>Node4&#45;&gt;Node8</title>
<path fill="none" stroke="#191970" d="M691.6692,-119.6869C660.74,-107.1278 621.3545,-91.1349 596.6514,-81.1039"/>
<polygon fill="#191970" stroke="#191970" points="690.3887,-122.9444 700.9708,-123.4639 693.0223,-116.4587 690.3887,-122.9444"/>
</g>
<!-- Node9 -->
<g id="node7" class="node">
<title>Node9</title>
<g id="a_node7"><a xlink:href="GraphModule_8cpp.html" target="_top" xlink:title="lib/core/src/GraphModule.cpp">
<polygon fill="#ffffff" stroke="#000000" points="666,-62 666,-81 810,-81 810,-62 666,-62"/>
<text text-anchor="middle" x="738" y="-69" font-family="Helvetica,sans-Serif" font-size="10.00" fill="#000000">lib/core/src/GraphModule.cpp</text>
</a>
</g>
</g>
<!-- Node4&#45;&gt;Node9 -->
<g id="edge6" class="edge">
<title>Node4&#45;&gt;Node9</title>
<path fill="none" stroke="#191970" d="M738,-113.1199C738,-101.9072 738,-89.4031 738,-81.055"/>
<polygon fill="#191970" stroke="#191970" points="734.5001,-113.2966 738,-123.2967 741.5001,-113.2967 734.5001,-113.2966"/>
</g>
<!-- Node10 -->
<g id="node8" class="node">
<title>Node10</title>
<g id="a_node8"><a xlink:href="JsonDeserializer_8cpp.html" target="_top" xlink:title="lib/core/src/JsonDeserializer.cpp">
<polygon fill="#ffffff" stroke="#000000" points="828,-62 828,-81 986,-81 986,-62 828,-62"/>
<text text-anchor="middle" x="907" y="-69" font-family="Helvetica,sans-Serif" font-size="10.00" fill="#000000">lib/core/src/JsonDeserializer.cpp</text>
</a>
</g>
</g>
<!-- Node4&#45;&gt;Node10 -->
<g id="edge7" class="edge">
<title>Node4&#45;&gt;Node10</title>
<path fill="none" stroke="#191970" d="M785.454,-119.6869C817.133,-107.1278 857.4733,-91.1349 882.7752,-81.1039"/>
<polygon fill="#191970" stroke="#191970" points="783.9331,-116.5248 775.9269,-123.4639 786.5129,-123.032 783.9331,-116.5248"/>
</g>
<!-- Node11 -->
<g id="node9" class="node">
<title>Node11</title>
<g id="a_node9"><a xlink:href="JsonSerializer_8cpp.html" target="_top" xlink:title="lib/core/src/JsonSerializer.cpp">
<polygon fill="#ffffff" stroke="#000000" points="1004,-62 1004,-81 1152,-81 1152,-62 1004,-62"/>
<text text-anchor="middle" x="1078" y="-69" font-family="Helvetica,sans-Serif" font-size="10.00" fill="#000000">lib/core/src/JsonSerializer.cpp</text>
</a>
</g>
</g>
<!-- Node4&#45;&gt;Node11 -->
<g id="edge8" class="edge">
<title>Node4&#45;&gt;Node11</title>
<path fill="none" stroke="#191970" d="M799.1289,-126.454C865.162,-113.4416 969.0271,-92.9741 1029.6213,-81.0334"/>
<polygon fill="#191970" stroke="#191970" points="798.4042,-123.0294 789.2696,-128.3969 799.7576,-129.8974 798.4042,-123.0294"/>
</g>
<!-- Node12 -->
<g id="node10" class="node">
<title>Node12</title>
<g id="a_node10"><a xlink:href="NodeInstance_8cpp.html" target="_top" xlink:title="lib/core/src/NodeInstance.cpp">
<polygon fill="#ffffff" stroke="#000000" points="1170,-62 1170,-81 1316,-81 1316,-62 1170,-62"/>
<text text-anchor="middle" x="1243" y="-69" font-family="Helvetica,sans-Serif" font-size="10.00" fill="#000000">lib/core/src/NodeInstance.cpp</text>
</a>
</g>
</g>
<!-- Node4&#45;&gt;Node12 -->
<g id="edge9" class="edge">
<title>Node4&#45;&gt;Node12</title>
<path fill="none" stroke="#191970" d="M799.2106,-132.323C881.6289,-123.7148 1032.7508,-106.9062 1161,-87 1172.1671,-85.2667 1184.1417,-83.1507 1195.395,-81.0461"/>
<polygon fill="#191970" stroke="#191970" points="798.8476,-128.8417 789.2631,-133.3569 799.5713,-135.8042 798.8476,-128.8417"/>
</g>
<!-- Node13 -->
<g id="node11" class="node">
<title>Node13</title>
<g id="a_node11"><a xlink:href="Debugger_8hpp_source.html" target="_top" xlink:title="lib/debugger/include\l/chi/Debugger/Debugger.hpp">
<polygon fill="#ffffff" stroke="#000000" points="1334,-56.5 1334,-86.5 1474,-86.5 1474,-56.5 1334,-56.5"/>
<text text-anchor="start" x="1342" y="-74.5" font-family="Helvetica,sans-Serif" font-size="10.00" fill="#000000">lib/debugger/include</text>
<text text-anchor="middle" x="1404" y="-63.5" font-family="Helvetica,sans-Serif" font-size="10.00" fill="#000000">/chi/Debugger/Debugger.hpp</text>
</a>
</g>
</g>
<!-- Node4&#45;&gt;Node13 -->
<g id="edge10" class="edge">
<title>Node4&#45;&gt;Node13</title>
<path fill="none" stroke="#191970" d="M799.5431,-135.2581C906.7014,-129.1325 1134.3374,-113.9902 1325,-87 1327.9061,-86.5886 1330.8671,-86.1404 1333.8543,-85.6642"/>
<polygon fill="#191970" stroke="#191970" points="799.0312,-131.7813 789.2447,-135.8401 799.4263,-138.7701 799.0312,-131.7813"/>
</g>
<!-- Node14 -->
<g id="node12" class="node">
<title>Node14</title>
<g id="a_node12"><a xlink:href="Debugger_8cpp.html" target="_top" xlink:title="lib/debugger/src/Debugger.cpp">
<polygon fill="#ffffff" stroke="#000000" points="1329.5,-.5 1329.5,-19.5 1478.5,-19.5 1478.5,-.5 1329.5,-.5"/>
<text text-anchor="middle" x="1404" y="-7.5" font-family="Helvetica,sans-Serif" font-size="10.00" fill="#000000">lib/debugger/src/Debugger.cpp</text>
</a>
</g>
</g>
<!-- Node13&#45;&gt;Node14 -->
<g id="edge11" class="edge">
<title>Node13&#45;&gt;Node14</title>
<path fill="none" stroke="#191970" d="M1404,-46.2849C1404,-36.9858 1404,-26.9883 1404,-19.8469"/>
<polygon fill="#191970" stroke="#191970" points="1400.5001,-46.2977 1404,-56.2977 1407.5001,-46.2978 1400.5001,-46.2977"/>
</g>
</g>
</svg>
        <g id="navigator" transform="translate(0 0)" fill="#404254">
                <rect fill="#f2f5e9" fill-opacity="0.5" stroke="#606060" stroke-width=".5" x="0" y="0" width="60" height="60"/>
                <use id="zoomplus" xlink:href="#zoomPlus" x="17" y="9" onmousedown="handleZoom(evt,'in')"/>
                <use id="zoomminus" xlink:href="#zoomMin" x="42" y="9" onmousedown="handleZoom(evt,'out')"/>
                <use id="reset" xlink:href="#resetDef" x="30" y="36" onmousedown="handleReset()"/>
                <g id="arrowUp" xlink:href="#dirArrow" transform="translate(30 24)" onmousedown="handlePan(0,-1)">
                  <use xlink:href="#rim" fill="#404040">
                        <set attributeName="fill" to="#808080" begin="arrowUp.mouseover" end="arrowUp.mouseout"/>
                  </use>
                  <path fill="none" stroke="white" stroke-width="1.5" d="M0,-3.0v7 M-2.5,-0.5L0,-3.0L2.5,-0.5"/>
                </g>
                <g id="arrowRight" xlink:href="#dirArrow" transform="rotate(90) translate(36 -43)" onmousedown="handlePan(1,0)">
                  <use xlink:href="#rim" fill="#404040">
                        <set attributeName="fill" to="#808080" begin="arrowRight.mouseover" end="arrowRight.mouseout"/>
                  </use>
                  <path fill="none" stroke="white" stroke-width="1.5" d="M0,-3.0v7 M-2.5,-0.5L0,-3.0L2.5,-0.5"/>
                </g>
                <g id="arrowDown" xlink:href="#dirArrow" transform="rotate(180) translate(-30 -48)" onmousedown="handlePan(0,1)">
                  <use xlink:href="#rim" fill="#404040">
                        <set attributeName="fill" to="#808080" begin="arrowDown.mouseover" end="arrowDown.mouseout"/>
                  </use>
                  <path fill="none" stroke="white" stroke-width="1.5" d="M0,-3.0v7 M-2.5,-0.5L0,-3.0L2.5,-0.5"/>
                </g>
                <g id="arrowLeft" xlink:href="#dirArrow" transform="rotate(270) translate(-36 17)" onmousedown="handlePan(-1,0)">
                  <use xlink:href="#rim" fill="#404040">
                        <set attributeName="fill" to="#808080" begin="arrowLeft.mouseover" end="arrowLeft.mouseout"/>
                  </use>
                  <path fill="none" stroke="white" stroke-width="1.5" d="M0,-3.0v7 M-2.5,-0.5L0,-3.0L2.5,-0.5"/>
                </g>
        </g>
        <svg viewBox="0 0 15 15" width="100%" height="30px" preserveAspectRatio="xMaxYMin meet">
         <g id="arrow_out" transform="scale(0.3 0.3)">
          <a xlink:href="HashUuid_8hpp__dep__incl_org.svg" target="_base">
           <rect id="button" ry="5" rx="5" y="6" x="6" height="38" width="38"
                fill="#f2f5e9" fill-opacity="0.5" stroke="#606060" stroke-width="1.0"/>
           <path id="arrow"
             d="M 11.500037,31.436501 C 11.940474,20.09759 22.043105,11.32322 32.158766,21.979434 L 37.068811,17.246167 C 37.068811,17.246167 37.088388,32 37.088388,32 L 22.160133,31.978069 C 22.160133,31.978069 26.997745,27.140456 26.997745,27.140456 C 18.528582,18.264221 13.291696,25.230495 11.500037,31.436501 z"
             style="fill:#404040;"/>
          </a>
         </g>
        </svg>
</svg>
