<?xml version="1.0" encoding="UTF-8" standalone="no"?>
<!DOCTYPE svg PUBLIC "-//W3C//DTD SVG 1.1//EN"
 "http://www.w3.org/Graphics/SVG/1.1/DTD/svg11.dtd">
<!-- Generated by graphviz version 2.40.1 (20161225.0304)
 -->
<!-- Title: libchigraph/include/chi/JsonSerializer.hpp Pages: 1 -->
<svg width="348pt" height="95pt"
 viewBox="0.00 0.00 348.00 95.00" xmlns="http://www.w3.org/2000/svg" xmlns:xlink="http://www.w3.org/1999/xlink">
<g id="graph0" class="graph" transform="scale(1 1) rotate(0) translate(4 91)">
<title>libchigraph/include/chi/JsonSerializer.hpp</title>
<polygon fill="#ffffff" stroke="transparent" points="-4,4 -4,-91 344,-91 344,4 -4,4"/>
<!-- Node3 -->
<g id="node1" class="node">
<title>Node3</title>
<polygon fill="#bfbfbf" stroke="#000000" points="110.5,-56.5 110.5,-86.5 226.5,-86.5 226.5,-56.5 110.5,-56.5"/>
<text text-anchor="start" x="118.5" y="-74.5" font-family="Helvetica,sans-Serif" font-size="10.00" fill="#000000">libchigraph/include</text>
<text text-anchor="middle" x="168.5" y="-63.5" font-family="Helvetica,sans-Serif" font-size="10.00" fill="#000000">/chi/JsonSerializer.hpp</text>
</g>
<!-- Node4 -->
<g id="node2" class="node">
<title>Node4</title>
<g id="a_node2"><a xlink:href="GraphModule_8cpp.html" target="_top" xlink:title="libchigraph/src/GraphModule.cpp">
<polygon fill="#ffffff" stroke="#000000" points="0,-.5 0,-19.5 159,-19.5 159,-.5 0,-.5"/>
<text text-anchor="middle" x="79.5" y="-7.5" font-family="Helvetica,sans-Serif" font-size="10.00" fill="#000000">libchigraph/src/GraphModule.cpp</text>
</a>
</g>
</g>
<!-- Node3&#45;&gt;Node4 -->
<g id="edge1" class="edge">
<title>Node3&#45;&gt;Node4</title>
<path fill="none" stroke="#191970" d="M137.9459,-50.3868C122.8474,-39.9535 105.3662,-27.8738 93.4842,-19.6633"/>
<polygon fill="#191970" stroke="#191970" points="136.2833,-53.4922 146.5,-56.2977 140.2628,-47.7334 136.2833,-53.4922"/>
</g>
<!-- Node5 -->
<g id="node3" class="node">
<title>Node5</title>
<g id="a_node3"><a xlink:href="JsonSerializer_8cpp_source.html" target="_top" xlink:title="libchigraph/src/JsonSerializer.cpp">
<polygon fill="#ffffff" stroke="#000000" points="177,-.5 177,-19.5 340,-19.5 340,-.5 177,-.5"/>
<text text-anchor="middle" x="258.5" y="-7.5" font-family="Helvetica,sans-Serif" font-size="10.00" fill="#000000">libchigraph/src/JsonSerializer.cpp</text>
</a>
</g>
</g>
<!-- Node3&#45;&gt;Node5 -->
<g id="edge2" class="edge">
<title>Node3&#45;&gt;Node5</title>
<path fill="none" stroke="#191970" d="M199.3974,-50.3868C214.6655,-39.9535 232.3432,-27.8738 244.3586,-19.6633"/>
<polygon fill="#191970" stroke="#191970" points="197.029,-47.766 190.7472,-56.2977 200.9783,-53.5456 197.029,-47.766"/>
</g>
</g>
</svg>
