<?xml version="1.0" encoding="UTF-8" standalone="no"?>
<!DOCTYPE svg PUBLIC "-//W3C//DTD SVG 1.1//EN"
 "http://www.w3.org/Graphics/SVG/1.1/DTD/svg11.dtd">
<!-- Generated by graphviz version 2.40.1 (20161225.0304)
 -->
<!-- Title: src/LangModule.cpp Pages: 1 -->
<svg width="1374pt" height="308pt"
 viewBox="0.00 0.00 1374.00 308.00" xmlns="http://www.w3.org/2000/svg" xmlns:xlink="http://www.w3.org/1999/xlink">
<g id="graph0" class="graph" transform="scale(1 1) rotate(0) translate(4 304)">
<title>src/LangModule.cpp</title>
<polygon fill="#ffffff" stroke="transparent" points="-4,4 -4,-304 1370,-304 1370,4 -4,4"/>
<!-- Node0 -->
<g id="node1" class="node">
<title>Node0</title>
<polygon fill="#bfbfbf" stroke="#000000" points="843,-280.5 843,-299.5 956,-299.5 956,-280.5 843,-280.5"/>
<text text-anchor="middle" x="899.5" y="-287.5" font-family="Helvetica,sans-Serif" font-size="10.00" fill="#000000">src/LangModule.cpp</text>
</g>
<!-- Node1 -->
<g id="node2" class="node">
<title>Node1</title>
<g id="a_node2"><a xlink:href="LangModule_8hpp.html" target="_top" xlink:title="Defines the LangModule class. ">
<polygon fill="#ffffff" stroke="#000000" points="263,-168.5 263,-187.5 382,-187.5 382,-168.5 263,-168.5"/>
<text text-anchor="middle" x="322.5" y="-175.5" font-family="Helvetica,sans-Serif" font-size="10.00" fill="#000000">chig/LangModule.hpp</text>
</a>
</g>
</g>
<!-- Node0&#45;&gt;Node1 -->
<g id="edge1" class="edge">
<title>Node0&#45;&gt;Node1</title>
<path fill="none" stroke="#191970" d="M842.8491,-286.3295C769.429,-280.8145 637.7515,-268.3364 527.5,-244 466.0741,-230.4411 396.845,-206.1981 356.5995,-191.1702"/>
<polygon fill="#191970" stroke="#191970" points="357.6063,-187.8095 347.0144,-187.5603 355.1391,-194.3603 357.6063,-187.8095"/>
</g>
<!-- Node12 -->
<g id="node13" class="node">
<title>Node12</title>
<g id="a_node13"><a xlink:href="NodeType_8hpp.html" target="_top" xlink:title="Defines the NodeType class. ">
<polygon fill="#ffffff" stroke="#000000" points="536.5,-224.5 536.5,-243.5 646.5,-243.5 646.5,-224.5 536.5,-224.5"/>
<text text-anchor="middle" x="591.5" y="-231.5" font-family="Helvetica,sans-Serif" font-size="10.00" fill="#000000">chig/NodeType.hpp</text>
</a>
</g>
</g>
<!-- Node0&#45;&gt;Node12 -->
<g id="edge15" class="edge">
<title>Node0&#45;&gt;Node12</title>
<path fill="none" stroke="#191970" d="M846.9029,-280.4369C793.4159,-270.712 710.5508,-255.6456 653.8067,-245.3285"/>
<polygon fill="#191970" stroke="#191970" points="654.345,-241.8691 643.8802,-243.5237 653.0928,-248.7562 654.345,-241.8691"/>
</g>
<!-- Node25 -->
<g id="node26" class="node">
<title>Node25</title>
<polygon fill="#ffffff" stroke="#bfbfbf" points="665,-224.5 665,-243.5 802,-243.5 802,-224.5 665,-224.5"/>
<text text-anchor="middle" x="733.5" y="-231.5" font-family="Helvetica,sans-Serif" font-size="10.00" fill="#000000">llvm/AsmParser/Parser.h</text>
</g>
<!-- Node0&#45;&gt;Node25 -->
<g id="edge38" class="edge">
<title>Node0&#45;&gt;Node25</title>
<path fill="none" stroke="#191970" d="M870.9636,-280.3733C843.4798,-271.1016 801.7314,-257.0178 771.4548,-246.804"/>
<polygon fill="#191970" stroke="#191970" points="772.2582,-243.3813 761.664,-243.5011 770.0206,-250.0141 772.2582,-243.3813"/>
</g>
<!-- Node26 -->
<g id="node27" class="node">
<title>Node26</title>
<polygon fill="#ffffff" stroke="#bfbfbf" points="820,-224.5 820,-243.5 979,-243.5 979,-224.5 820,-224.5"/>
<text text-anchor="middle" x="899.5" y="-231.5" font-family="Helvetica,sans-Serif" font-size="10.00" fill="#000000">llvm/IR/DebugInfoMetadata.h</text>
</g>
<!-- Node0&#45;&gt;Node26 -->
<g id="edge39" class="edge">
<title>Node0&#45;&gt;Node26</title>
<path fill="none" stroke="#191970" d="M899.5,-280.2455C899.5,-272.9382 899.5,-262.6944 899.5,-253.7046"/>
<polygon fill="#191970" stroke="#191970" points="903.0001,-253.6426 899.5,-243.6427 896.0001,-253.6427 903.0001,-253.6426"/>
</g>
<!-- Node27 -->
<g id="node28" class="node">
<title>Node27</title>
<polygon fill="#ffffff" stroke="#bfbfbf" points="997,-224.5 997,-243.5 1104,-243.5 1104,-224.5 997,-224.5"/>
<text text-anchor="middle" x="1050.5" y="-231.5" font-family="Helvetica,sans-Serif" font-size="10.00" fill="#000000">llvm/IR/IRBuilder.h</text>
</g>
<!-- Node0&#45;&gt;Node27 -->
<g id="edge40" class="edge">
<title>Node0&#45;&gt;Node27</title>
<path fill="none" stroke="#191970" d="M925.4578,-280.3733C950.2407,-271.1822 987.7746,-257.2624 1015.254,-247.0713"/>
<polygon fill="#191970" stroke="#191970" points="1016.7219,-250.26 1024.8809,-243.5011 1014.2879,-243.6968 1016.7219,-250.26"/>
</g>
<!-- Node28 -->
<g id="node29" class="node">
<title>Node28</title>
<polygon fill="#ffffff" stroke="#bfbfbf" points="1122.5,-224.5 1122.5,-243.5 1264.5,-243.5 1264.5,-224.5 1122.5,-224.5"/>
<text text-anchor="middle" x="1193.5" y="-231.5" font-family="Helvetica,sans-Serif" font-size="10.00" fill="#000000">llvm/Support/SourceMgr.h</text>
</g>
<!-- Node0&#45;&gt;Node28 -->
<g id="edge41" class="edge">
<title>Node0&#45;&gt;Node28</title>
<path fill="none" stroke="#191970" d="M949.7063,-280.4369C1000.5507,-270.7522 1079.206,-255.7703 1133.3513,-245.4569"/>
<polygon fill="#191970" stroke="#191970" points="1134.3323,-248.8331 1143.5007,-243.5237 1133.0224,-241.9567 1134.3323,-248.8331"/>
</g>
<!-- Node29 -->
<g id="node30" class="node">
<title>Node29</title>
<polygon fill="#ffffff" stroke="#bfbfbf" points="1283,-224.5 1283,-243.5 1366,-243.5 1366,-224.5 1283,-224.5"/>
<text text-anchor="middle" x="1324.5" y="-231.5" font-family="Helvetica,sans-Serif" font-size="10.00" fill="#000000">gsl/gsl_assert</text>
</g>
<!-- Node0&#45;&gt;Node29 -->
<g id="edge42" class="edge">
<title>Node0&#45;&gt;Node29</title>
<path fill="none" stroke="#191970" d="M956.0675,-284.3114C1027.4606,-276.8494 1154.2386,-262.6621 1272.815,-244.0121"/>
<polygon fill="#191970" stroke="#191970" points="1273.4666,-247.4526 1282.7946,-242.4287 1272.3696,-240.5391 1273.4666,-247.4526"/>
</g>
<!-- Node2 -->
<g id="node3" class="node">
<title>Node2</title>
<g id="a_node3"><a xlink:href="Result_8hpp.html" target="_top" xlink:title="Defines the Result class and related functions. ">
<polygon fill="#ffffff" stroke="#000000" points="155.5,-112.5 155.5,-131.5 247.5,-131.5 247.5,-112.5 155.5,-112.5"/>
<text text-anchor="middle" x="201.5" y="-119.5" font-family="Helvetica,sans-Serif" font-size="10.00" fill="#000000">chig/Result.hpp</text>
</a>
</g>
</g>
<!-- Node1&#45;&gt;Node2 -->
<g id="edge2" class="edge">
<title>Node1&#45;&gt;Node2</title>
<path fill="none" stroke="#191970" d="M301.6994,-168.3733C282.2757,-159.3838 253.0776,-145.8706 231.2036,-135.7471"/>
<polygon fill="#191970" stroke="#191970" points="232.5745,-132.5249 222.0292,-131.5011 229.6344,-138.8776 232.5745,-132.5249"/>
</g>
<!-- Node7 -->
<g id="node8" class="node">
<title>Node7</title>
<g id="a_node8"><a xlink:href="ChigModule_8hpp.html" target="_top" xlink:title="Defines the ChigModule class. ">
<polygon fill="#ffffff" stroke="#000000" points="265.5,-112.5 265.5,-131.5 383.5,-131.5 383.5,-112.5 265.5,-112.5"/>
<text text-anchor="middle" x="324.5" y="-119.5" font-family="Helvetica,sans-Serif" font-size="10.00" fill="#000000">chig/ChigModule.hpp</text>
</a>
</g>
</g>
<!-- Node1&#45;&gt;Node7 -->
<g id="edge7" class="edge">
<title>Node1&#45;&gt;Node7</title>
<path fill="none" stroke="#191970" d="M322.8484,-168.2455C323.1093,-160.9382 323.4752,-150.6944 323.7963,-141.7046"/>
<polygon fill="#191970" stroke="#191970" points="327.2964,-141.7613 324.1556,-131.6427 320.3008,-141.5113 327.2964,-141.7613"/>
</g>
<!-- Node11 -->
<g id="node12" class="node">
<title>Node11</title>
<polygon fill="#ffffff" stroke="#bfbfbf" points="1086,-56.5 1086,-75.5 1179,-75.5 1179,-56.5 1086,-56.5"/>
<text text-anchor="middle" x="1132.5" y="-63.5" font-family="Helvetica,sans-Serif" font-size="10.00" fill="#000000">unordered_map</text>
</g>
<!-- Node1&#45;&gt;Node11 -->
<g id="edge14" class="edge">
<title>Node1&#45;&gt;Node11</title>
<path fill="none" stroke="#191970" d="M382.3336,-169.2888C385.4332,-168.85 388.5029,-168.4181 391.5,-168 692.8949,-125.9508 771.9542,-124.0091 1075.741,-76.2316"/>
<polygon fill="#191970" stroke="#191970" points="1076.3844,-79.6735 1085.7174,-74.6589 1075.2943,-72.7589 1076.3844,-79.6735"/>
</g>
<!-- Node3 -->
<g id="node4" class="node">
<title>Node3</title>
<g id="a_node4"><a xlink:href="ToString_8hpp_source.html" target="_top" xlink:title="chig/ToString.hpp">
<polygon fill="#ffffff" stroke="#000000" points="0,-56.5 0,-75.5 101,-75.5 101,-56.5 0,-56.5"/>
<text text-anchor="middle" x="50.5" y="-63.5" font-family="Helvetica,sans-Serif" font-size="10.00" fill="#000000">chig/ToString.hpp</text>
</a>
</g>
</g>
<!-- Node2&#45;&gt;Node3 -->
<g id="edge3" class="edge">
<title>Node2&#45;&gt;Node3</title>
<path fill="none" stroke="#191970" d="M175.5422,-112.3733C150.7593,-103.1822 113.2254,-89.2624 85.746,-79.0713"/>
<polygon fill="#191970" stroke="#191970" points="86.7121,-75.6968 76.1191,-75.5011 84.2781,-82.26 86.7121,-75.6968"/>
</g>
<!-- Node5 -->
<g id="node6" class="node">
<title>Node5</title>
<polygon fill="#ffffff" stroke="#bfbfbf" points="119,-56.5 119,-75.5 200,-75.5 200,-56.5 119,-56.5"/>
<text text-anchor="middle" x="159.5" y="-63.5" font-family="Helvetica,sans-Serif" font-size="10.00" fill="#000000">chig/json.hpp</text>
</g>
<!-- Node2&#45;&gt;Node5 -->
<g id="edge5" class="edge">
<title>Node2&#45;&gt;Node5</title>
<path fill="none" stroke="#191970" d="M194.1842,-112.2455C188.2821,-104.3761 179.8258,-93.101 172.7406,-83.6542"/>
<polygon fill="#191970" stroke="#191970" points="175.5321,-81.5427 166.732,-75.6427 169.932,-85.7427 175.5321,-81.5427"/>
</g>
<!-- Node6 -->
<g id="node7" class="node">
<title>Node6</title>
<polygon fill="#ffffff" stroke="#bfbfbf" points="218.5,-56.5 218.5,-75.5 266.5,-75.5 266.5,-56.5 218.5,-56.5"/>
<text text-anchor="middle" x="242.5" y="-63.5" font-family="Helvetica,sans-Serif" font-size="10.00" fill="#000000">gsl/gsl</text>
</g>
<!-- Node2&#45;&gt;Node6 -->
<g id="edge6" class="edge">
<title>Node2&#45;&gt;Node6</title>
<path fill="none" stroke="#191970" d="M208.6417,-112.2455C214.3444,-104.4564 222.49,-93.3308 229.3625,-83.9439"/>
<polygon fill="#191970" stroke="#191970" points="232.3568,-85.7789 235.4402,-75.6427 226.7087,-81.6437 232.3568,-85.7789"/>
</g>
<!-- Node4 -->
<g id="node5" class="node">
<title>Node4</title>
<polygon fill="#ffffff" stroke="#bfbfbf" points="22.5,-.5 22.5,-19.5 78.5,-19.5 78.5,-.5 22.5,-.5"/>
<text text-anchor="middle" x="50.5" y="-7.5" font-family="Helvetica,sans-Serif" font-size="10.00" fill="#000000">sstream</text>
</g>
<!-- Node3&#45;&gt;Node4 -->
<g id="edge4" class="edge">
<title>Node3&#45;&gt;Node4</title>
<path fill="none" stroke="#191970" d="M50.5,-56.2455C50.5,-48.9382 50.5,-38.6944 50.5,-29.7046"/>
<polygon fill="#191970" stroke="#191970" points="54.0001,-29.6426 50.5,-19.6427 47.0001,-29.6427 54.0001,-29.6426"/>
</g>
<!-- Node7&#45;&gt;Node3 -->
<g id="edge9" class="edge">
<title>Node7&#45;&gt;Node3</title>
<path fill="none" stroke="#191970" d="M277.709,-112.4369C230.5205,-102.7925 157.628,-87.8948 107.1876,-77.5858"/>
<polygon fill="#191970" stroke="#191970" points="107.5963,-74.097 97.098,-75.5237 106.1946,-80.9553 107.5963,-74.097"/>
</g>
<!-- Node7&#45;&gt;Node5 -->
<g id="edge10" class="edge">
<title>Node7&#45;&gt;Node5</title>
<path fill="none" stroke="#191970" d="M296.1355,-112.3733C268.8173,-103.1016 227.3204,-89.0178 197.2262,-78.804"/>
<polygon fill="#191970" stroke="#191970" points="198.0887,-75.4008 187.4944,-75.5011 195.839,-82.0294 198.0887,-75.4008"/>
</g>
<!-- Node7&#45;&gt;Node6 -->
<g id="edge11" class="edge">
<title>Node7&#45;&gt;Node6</title>
<path fill="none" stroke="#191970" d="M310.2167,-112.2455C297.753,-103.7337 279.4549,-91.2375 265.0208,-81.3801"/>
<polygon fill="#191970" stroke="#191970" points="266.8515,-78.392 256.6196,-75.6427 262.9038,-84.1726 266.8515,-78.392"/>
</g>
<!-- Node8 -->
<g id="node9" class="node">
<title>Node8</title>
<g id="a_node9"><a xlink:href="Fwd_8hpp.html" target="_top" xlink:title="Forward declares all the chigraph data types. ">
<polygon fill="#ffffff" stroke="#000000" points="284.5,-56.5 284.5,-75.5 364.5,-75.5 364.5,-56.5 284.5,-56.5"/>
<text text-anchor="middle" x="324.5" y="-63.5" font-family="Helvetica,sans-Serif" font-size="10.00" fill="#000000">chig/Fwd.hpp</text>
</a>
</g>
</g>
<!-- Node7&#45;&gt;Node8 -->
<g id="edge8" class="edge">
<title>Node7&#45;&gt;Node8</title>
<path fill="none" stroke="#191970" d="M324.5,-112.2455C324.5,-104.9382 324.5,-94.6944 324.5,-85.7046"/>
<polygon fill="#191970" stroke="#191970" points="328.0001,-85.6426 324.5,-75.6427 321.0001,-85.6427 328.0001,-85.6426"/>
</g>
<!-- Node9 -->
<g id="node10" class="node">
<title>Node9</title>
<polygon fill="#ffffff" stroke="#bfbfbf" points="382.5,-56.5 382.5,-75.5 468.5,-75.5 468.5,-56.5 382.5,-56.5"/>
<text text-anchor="middle" x="425.5" y="-63.5" font-family="Helvetica,sans-Serif" font-size="10.00" fill="#000000">unordered_set</text>
</g>
<!-- Node7&#45;&gt;Node9 -->
<g id="edge12" class="edge">
<title>Node7&#45;&gt;Node9</title>
<path fill="none" stroke="#191970" d="M342.0929,-112.2455C357.879,-103.4928 381.2639,-90.527 399.2587,-80.5496"/>
<polygon fill="#191970" stroke="#191970" points="401.0603,-83.5528 408.1087,-75.6427 397.6659,-77.4308 401.0603,-83.5528"/>
</g>
<!-- Node10 -->
<g id="node11" class="node">
<title>Node10</title>
<polygon fill="#ffffff" stroke="#bfbfbf" points="486.5,-56.5 486.5,-75.5 584.5,-75.5 584.5,-56.5 486.5,-56.5"/>
<text text-anchor="middle" x="535.5" y="-63.5" font-family="Helvetica,sans-Serif" font-size="10.00" fill="#000000">llvm/IR/Module.h</text>
</g>
<!-- Node7&#45;&gt;Node10 -->
<g id="edge13" class="edge">
<title>Node7&#45;&gt;Node10</title>
<path fill="none" stroke="#191970" d="M360.7722,-112.3733C396.4658,-102.9001 451.0879,-88.4032 489.7451,-78.1435"/>
<polygon fill="#191970" stroke="#191970" points="490.9336,-81.4493 499.7011,-75.5011 489.1379,-74.6835 490.9336,-81.4493"/>
</g>
<!-- Node12&#45;&gt;Node2 -->
<g id="edge32" class="edge">
<title>Node12&#45;&gt;Node2</title>
<path fill="none" stroke="#191970" d="M536.1976,-231.4728C453.0471,-226.8449 300.5419,-214.8955 253.5,-188 234.3856,-177.0716 219.7342,-156.0866 210.9278,-140.7026"/>
<polygon fill="#191970" stroke="#191970" points="213.8256,-138.7025 205.9966,-131.564 207.6652,-142.0267 213.8256,-138.7025"/>
</g>
<!-- Node13 -->
<g id="node14" class="node">
<title>Node13</title>
<g id="a_node14"><a xlink:href="Context_8hpp.html" target="_top" xlink:title="Defines the Context class and related functions. ">
<polygon fill="#ffffff" stroke="#000000" points="487,-112.5 487,-131.5 586,-131.5 586,-112.5 487,-112.5"/>
<text text-anchor="middle" x="536.5" y="-119.5" font-family="Helvetica,sans-Serif" font-size="10.00" fill="#000000">chig/Context.hpp</text>
</a>
</g>
</g>
<!-- Node12&#45;&gt;Node13 -->
<g id="edge16" class="edge">
<title>Node12&#45;&gt;Node13</title>
<path fill="none" stroke="#191970" d="M582.6072,-224.4656C574.7685,-215.6128 563.5309,-201.7618 556.5,-188 549.0101,-173.3398 543.7963,-155.3877 540.5742,-141.9093"/>
<polygon fill="#191970" stroke="#191970" points="543.916,-140.8126 538.33,-131.81 537.0827,-142.3312 543.916,-140.8126"/>
</g>
<!-- Node19 -->
<g id="node20" class="node">
<title>Node19</title>
<g id="a_node20"><a xlink:href="DataType_8hpp.html" target="_top" xlink:title="Defines the DataType class. ">
<polygon fill="#ffffff" stroke="#000000" points="400.5,-168.5 400.5,-187.5 508.5,-187.5 508.5,-168.5 400.5,-168.5"/>
<text text-anchor="middle" x="454.5" y="-175.5" font-family="Helvetica,sans-Serif" font-size="10.00" fill="#000000">chig/DataType.hpp</text>
</a>
</g>
</g>
<!-- Node12&#45;&gt;Node19 -->
<g id="edge29" class="edge">
<title>Node12&#45;&gt;Node19</title>
<path fill="none" stroke="#191970" d="M567.9489,-224.3733C545.6609,-215.2629 512.0063,-201.5062 487.1363,-191.3404"/>
<polygon fill="#191970" stroke="#191970" points="488.3247,-188.0451 477.7438,-187.5011 485.6761,-194.5247 488.3247,-188.0451"/>
</g>
<!-- Node20 -->
<g id="node21" class="node">
<title>Node20</title>
<polygon fill="#ffffff" stroke="#bfbfbf" points="565,-168.5 565,-187.5 618,-187.5 618,-168.5 565,-168.5"/>
<text text-anchor="middle" x="591.5" y="-175.5" font-family="Helvetica,sans-Serif" font-size="10.00" fill="#000000">iterator</text>
</g>
<!-- Node12&#45;&gt;Node20 -->
<g id="edge33" class="edge">
<title>Node12&#45;&gt;Node20</title>
<path fill="none" stroke="#191970" d="M591.5,-224.2455C591.5,-216.9382 591.5,-206.6944 591.5,-197.7046"/>
<polygon fill="#191970" stroke="#191970" points="595.0001,-197.6426 591.5,-187.6427 588.0001,-197.6427 595.0001,-197.6426"/>
</g>
<!-- Node21 -->
<g id="node22" class="node">
<title>Node21</title>
<polygon fill="#ffffff" stroke="#bfbfbf" points="636,-168.5 636,-187.5 681,-187.5 681,-168.5 636,-168.5"/>
<text text-anchor="middle" x="658.5" y="-175.5" font-family="Helvetica,sans-Serif" font-size="10.00" fill="#000000">utility</text>
</g>
<!-- Node12&#45;&gt;Node21 -->
<g id="edge34" class="edge">
<title>Node12&#45;&gt;Node21</title>
<path fill="none" stroke="#191970" d="M603.1705,-224.2455C613.0661,-215.9746 627.4627,-203.9416 639.0901,-194.2232"/>
<polygon fill="#191970" stroke="#191970" points="641.535,-196.7413 646.9632,-187.6427 637.0458,-191.3703 641.535,-196.7413"/>
</g>
<!-- Node22 -->
<g id="node23" class="node">
<title>Node22</title>
<polygon fill="#ffffff" stroke="#bfbfbf" points="699.5,-168.5 699.5,-187.5 807.5,-187.5 807.5,-168.5 699.5,-168.5"/>
<text text-anchor="middle" x="753.5" y="-175.5" font-family="Helvetica,sans-Serif" font-size="10.00" fill="#000000">llvm/IR/DIBuilder.h</text>
</g>
<!-- Node12&#45;&gt;Node22 -->
<g id="edge35" class="edge">
<title>Node12&#45;&gt;Node22</title>
<path fill="none" stroke="#191970" d="M619.3488,-224.3733C646.1703,-215.1016 686.9127,-201.0178 716.4598,-190.804"/>
<polygon fill="#191970" stroke="#191970" points="717.7069,-194.0762 726.0146,-187.5011 715.4198,-187.4603 717.7069,-194.0762"/>
</g>
<!-- Node23 -->
<g id="node24" class="node">
<title>Node23</title>
<polygon fill="#ffffff" stroke="#bfbfbf" points="825.5,-168.5 825.5,-187.5 929.5,-187.5 929.5,-168.5 825.5,-168.5"/>
<text text-anchor="middle" x="877.5" y="-175.5" font-family="Helvetica,sans-Serif" font-size="10.00" fill="#000000">llvm/IR/Function.h</text>
</g>
<!-- Node12&#45;&gt;Node23 -->
<g id="edge36" class="edge">
<title>Node12&#45;&gt;Node23</title>
<path fill="none" stroke="#191970" d="M640.3402,-224.4369C689.801,-214.7522 766.316,-199.7703 818.988,-189.4569"/>
<polygon fill="#191970" stroke="#191970" points="819.7202,-192.8801 828.8613,-187.5237 818.375,-186.0105 819.7202,-192.8801"/>
</g>
<!-- Node24 -->
<g id="node25" class="node">
<title>Node24</title>
<polygon fill="#ffffff" stroke="#bfbfbf" points="948,-168.5 948,-187.5 1039,-187.5 1039,-168.5 948,-168.5"/>
<text text-anchor="middle" x="993.5" y="-175.5" font-family="Helvetica,sans-Serif" font-size="10.00" fill="#000000">llvm/IR/Value.h</text>
</g>
<!-- Node12&#45;&gt;Node24 -->
<g id="edge37" class="edge">
<title>Node12&#45;&gt;Node24</title>
<path fill="none" stroke="#191970" d="M646.8041,-225.3929C650.0835,-224.9132 653.3343,-224.4455 656.5,-224 778.4408,-206.8394 811.9476,-207.2733 937.8791,-188.0253"/>
<polygon fill="#191970" stroke="#191970" points="938.562,-191.4615 947.9128,-186.4803 937.4966,-184.5431 938.562,-191.4615"/>
</g>
<!-- Node13&#45;&gt;Node3 -->
<g id="edge21" class="edge">
<title>Node13&#45;&gt;Node3</title>
<path fill="none" stroke="#191970" d="M486.7438,-117.626C408.8376,-110.561 253.1,-95.5686 111.4889,-76.2152"/>
<polygon fill="#191970" stroke="#191970" points="111.7027,-72.7117 101.3186,-74.8143 110.7474,-79.6462 111.7027,-72.7117"/>
</g>
<!-- Node13&#45;&gt;Node5 -->
<g id="edge22" class="edge">
<title>Node13&#45;&gt;Node5</title>
<path fill="none" stroke="#191970" d="M486.7804,-115.9118C424.5741,-108.0935 314.5632,-93.606 210.2027,-76.0378"/>
<polygon fill="#191970" stroke="#191970" points="210.5672,-72.5497 200.1227,-74.3281 209.3966,-79.4511 210.5672,-72.5497"/>
</g>
<!-- Node13&#45;&gt;Node6 -->
<g id="edge26" class="edge">
<title>Node13&#45;&gt;Node6</title>
<path fill="none" stroke="#191970" d="M486.5864,-115.0215C435.9523,-107.5368 355.1877,-94.4878 276.6253,-76.0498"/>
<polygon fill="#191970" stroke="#191970" points="277.0982,-72.5647 266.5596,-73.6544 275.4776,-79.3745 277.0982,-72.5647"/>
</g>
<!-- Node13&#45;&gt;Node8 -->
<g id="edge20" class="edge">
<title>Node13&#45;&gt;Node8</title>
<path fill="none" stroke="#191970" d="M500.0559,-112.3733C464.1931,-102.9001 409.3122,-88.4032 370.4718,-78.1435"/>
<polygon fill="#191970" stroke="#191970" points="371.0308,-74.6712 360.4685,-75.5011 369.243,-81.439 371.0308,-74.6712"/>
</g>
<!-- Node13&#45;&gt;Node9 -->
<g id="edge19" class="edge">
<title>Node13&#45;&gt;Node9</title>
<path fill="none" stroke="#191970" d="M517.4184,-112.3733C499.7598,-103.4644 473.2947,-90.1127 453.2902,-80.0203"/>
<polygon fill="#191970" stroke="#191970" points="454.8372,-76.8806 444.3326,-75.5011 451.6842,-83.1303 454.8372,-76.8806"/>
</g>
<!-- Node13&#45;&gt;Node10 -->
<g id="edge24" class="edge">
<title>Node13&#45;&gt;Node10</title>
<path fill="none" stroke="#191970" d="M536.3258,-112.2455C536.1953,-104.9382 536.0124,-94.6944 535.8519,-85.7046"/>
<polygon fill="#191970" stroke="#191970" points="539.3503,-85.5786 535.6722,-75.6427 532.3514,-85.7036 539.3503,-85.5786"/>
</g>
<!-- Node13&#45;&gt;Node11 -->
<g id="edge18" class="edge">
<title>Node13&#45;&gt;Node11</title>
<path fill="none" stroke="#191970" d="M586.2728,-119.354C680.1302,-114.0198 889.8555,-100.4624 1075.7834,-76.1305"/>
<polygon fill="#191970" stroke="#191970" points="1076.285,-79.5947 1085.7399,-74.814 1075.3674,-72.6551 1076.285,-79.5947"/>
</g>
<!-- Node14 -->
<g id="node15" class="node">
<title>Node14</title>
<polygon fill="#ffffff" stroke="#bfbfbf" points="602.5,-56.5 602.5,-75.5 660.5,-75.5 660.5,-56.5 602.5,-56.5"/>
<text text-anchor="middle" x="631.5" y="-63.5" font-family="Helvetica,sans-Serif" font-size="10.00" fill="#000000">memory</text>
</g>
<!-- Node13&#45;&gt;Node14 -->
<g id="edge17" class="edge">
<title>Node13&#45;&gt;Node14</title>
<path fill="none" stroke="#191970" d="M553.0477,-112.2455C567.7599,-103.5731 589.4888,-90.7645 606.3505,-80.825"/>
<polygon fill="#191970" stroke="#191970" points="608.3046,-83.736 615.1419,-75.6427 604.7498,-77.7057 608.3046,-83.736"/>
</g>
<!-- Node15 -->
<g id="node16" class="node">
<title>Node15</title>
<polygon fill="#ffffff" stroke="#bfbfbf" points="679,-56.5 679,-75.5 806,-75.5 806,-56.5 679,-56.5"/>
<text text-anchor="middle" x="742.5" y="-63.5" font-family="Helvetica,sans-Serif" font-size="10.00" fill="#000000">llvm/IR/LLVMContext.h</text>
</g>
<!-- Node13&#45;&gt;Node15 -->
<g id="edge23" class="edge">
<title>Node13&#45;&gt;Node15</title>
<path fill="none" stroke="#191970" d="M571.9127,-112.3733C606.7605,-102.9001 660.0882,-88.4032 697.8293,-78.1435"/>
<polygon fill="#191970" stroke="#191970" points="698.8178,-81.5019 707.5494,-75.5011 696.9815,-74.747 698.8178,-81.5019"/>
</g>
<!-- Node16 -->
<g id="node17" class="node">
<title>Node16</title>
<polygon fill="#ffffff" stroke="#bfbfbf" points="1197,-56.5 1197,-75.5 1284,-75.5 1284,-56.5 1197,-56.5"/>
<text text-anchor="middle" x="1240.5" y="-63.5" font-family="Helvetica,sans-Serif" font-size="10.00" fill="#000000">llvm/IR/Type.h</text>
</g>
<!-- Node13&#45;&gt;Node16 -->
<g id="edge25" class="edge">
<title>Node13&#45;&gt;Node16</title>
<path fill="none" stroke="#191970" d="M586.1871,-120.521C693.8892,-116.8783 957.0183,-105.6206 1186.6502,-76.1111"/>
<polygon fill="#191970" stroke="#191970" points="1187.4033,-79.5428 1196.8687,-74.7829 1186.5009,-72.6012 1187.4033,-79.5428"/>
</g>
<!-- Node17 -->
<g id="node18" class="node">
<title>Node17</title>
<polygon fill="#ffffff" stroke="#bfbfbf" points="824,-56.5 824,-75.5 943,-75.5 943,-56.5 824,-56.5"/>
<text text-anchor="middle" x="883.5" y="-63.5" font-family="Helvetica,sans-Serif" font-size="10.00" fill="#000000">boost/filesystem.hpp</text>
</g>
<!-- Node13&#45;&gt;Node17 -->
<g id="edge27" class="edge">
<title>Node13&#45;&gt;Node17</title>
<path fill="none" stroke="#191970" d="M586.2166,-113.9766C646.1084,-104.311 747.0621,-88.0188 814.4797,-77.1387"/>
<polygon fill="#191970" stroke="#191970" points="815.2725,-80.5562 824.5871,-75.5076 814.1571,-73.6456 815.2725,-80.5562"/>
</g>
<!-- Node18 -->
<g id="node19" class="node">
<title>Node18</title>
<polygon fill="#ffffff" stroke="#bfbfbf" points="961,-56.5 961,-75.5 1068,-75.5 1068,-56.5 961,-56.5"/>
<text text-anchor="middle" x="1014.5" y="-63.5" font-family="Helvetica,sans-Serif" font-size="10.00" fill="#000000">boost/optional.hpp</text>
</g>
<!-- Node13&#45;&gt;Node18 -->
<g id="edge28" class="edge">
<title>Node13&#45;&gt;Node18</title>
<path fill="none" stroke="#191970" d="M586.2257,-117.3093C662.4443,-109.942 812.9773,-94.6922 950.4602,-76.2284"/>
<polygon fill="#191970" stroke="#191970" points="951.3151,-79.6448 960.7559,-74.8363 950.377,-72.7079 951.3151,-79.6448"/>
</g>
<!-- Node19&#45;&gt;Node7 -->
<g id="edge30" class="edge">
<title>Node19&#45;&gt;Node7</title>
<path fill="none" stroke="#191970" d="M432.1522,-168.3733C411.0967,-159.3032 379.3505,-145.6279 355.7825,-135.4755"/>
<polygon fill="#191970" stroke="#191970" points="357.125,-132.243 346.5562,-131.5011 354.3556,-138.6719 357.125,-132.243"/>
</g>
<!-- Node19&#45;&gt;Node16 -->
<g id="edge31" class="edge">
<title>Node19&#45;&gt;Node16</title>
<path fill="none" stroke="#191970" d="M508.6664,-172.4853C616.5017,-161.4714 850.8458,-137.3483 887.5,-132 1018.8602,-112.8328 1053.143,-101.8383 1186.602,-76.3618"/>
<polygon fill="#191970" stroke="#191970" points="1187.6403,-79.7272 1196.8109,-74.4216 1186.3332,-72.8503 1187.6403,-79.7272"/>
</g>
</g>
</svg>
