<?xml version="1.0" encoding="UTF-8" standalone="no"?>
<!DOCTYPE svg PUBLIC "-//W3C//DTD SVG 1.1//EN"
 "http://www.w3.org/Graphics/SVG/1.1/DTD/svg11.dtd">
<!-- Generated by graphviz version 2.40.1 (20161225.0304)
 -->
<!-- Title: libchigraph/src/LangModule.cpp Pages: 1 -->
<svg width="2073pt" height="274pt"
 viewBox="0.00 0.00 2073.00 274.00" xmlns="http://www.w3.org/2000/svg" xmlns:xlink="http://www.w3.org/1999/xlink">
<g id="graph0" class="graph" transform="scale(1 1) rotate(0) translate(4 270)">
<title>libchigraph/src/LangModule.cpp</title>
<polygon fill="#ffffff" stroke="transparent" points="-4,4 -4,-270 2069,-270 2069,4 -4,4"/>
<!-- Node0 -->
<g id="node1" class="node">
<title>Node0</title>
<polygon fill="#bfbfbf" stroke="#000000" points="1295,-246.5 1295,-265.5 1449,-265.5 1449,-246.5 1295,-246.5"/>
<text text-anchor="middle" x="1372" y="-253.5" font-family="Helvetica,sans-Serif" font-size="10.00" fill="#000000">libchigraph/src/LangModule.cpp</text>
</g>
<!-- Node1 -->
<g id="node2" class="node">
<title>Node1</title>
<g id="a_node2"><a xlink:href="LangModule_8hpp.html" target="_top" xlink:title="Defines the LangModule class. ">
<polygon fill="#ffffff" stroke="#000000" points="460,-190.5 460,-209.5 564,-209.5 564,-190.5 460,-190.5"/>
<text text-anchor="middle" x="512" y="-197.5" font-family="Helvetica,sans-Serif" font-size="10.00" fill="#000000">chi/LangModule.hpp</text>
</a>
</g>
</g>
<!-- Node0&#45;&gt;Node1 -->
<g id="edge1" class="edge">
<title>Node0&#45;&gt;Node1</title>
<path fill="none" stroke="#191970" d="M1294.9239,-250.9811C1126.4612,-240.0114 728.2329,-214.0803 574.2729,-204.055"/>
<polygon fill="#191970" stroke="#191970" points="574.2592,-200.5468 564.0529,-203.3895 573.8043,-207.532 574.2592,-200.5468"/>
</g>
<!-- Node12 -->
<g id="node13" class="node">
<title>Node12</title>
<g id="a_node13"><a xlink:href="Context_8hpp.html" target="_top" xlink:title="Defines the Context class and related functions. ">
<polygon fill="#ffffff" stroke="#000000" points="721.5,-190.5 721.5,-209.5 806.5,-209.5 806.5,-190.5 721.5,-190.5"/>
<text text-anchor="middle" x="764" y="-197.5" font-family="Helvetica,sans-Serif" font-size="10.00" fill="#000000">chi/Context.hpp</text>
</a>
</g>
</g>
<!-- Node0&#45;&gt;Node12 -->
<g id="edge14" class="edge">
<title>Node0&#45;&gt;Node12</title>
<path fill="none" stroke="#191970" d="M1294.9964,-248.9076C1169.4722,-237.3461 923.9862,-214.7356 816.5091,-204.8364"/>
<polygon fill="#191970" stroke="#191970" points="816.8265,-201.3509 806.5476,-203.9189 816.1844,-208.3214 816.8265,-201.3509"/>
</g>
<!-- Node20 -->
<g id="node21" class="node">
<title>Node20</title>
<g id="a_node21"><a xlink:href="DataType_8hpp.html" target="_top" xlink:title="Defines the DataType class. ">
<polygon fill="#ffffff" stroke="#000000" points="208.5,-190.5 208.5,-209.5 301.5,-209.5 301.5,-190.5 208.5,-190.5"/>
<text text-anchor="middle" x="255" y="-197.5" font-family="Helvetica,sans-Serif" font-size="10.00" fill="#000000">chi/DataType.hpp</text>
</a>
</g>
</g>
<!-- Node0&#45;&gt;Node20 -->
<g id="edge29" class="edge">
<title>Node0&#45;&gt;Node20</title>
<path fill="none" stroke="#191970" d="M1294.9786,-252.1811C1136.8212,-244.333 763.9877,-225.8006 451,-210 404.1441,-207.6346 350.9891,-204.9207 311.8669,-202.9175"/>
<polygon fill="#191970" stroke="#191970" points="311.8955,-199.4145 301.7295,-202.3983 311.5374,-206.4053 311.8955,-199.4145"/>
</g>
<!-- Node22 -->
<g id="node23" class="node">
<title>Node22</title>
<g id="a_node23"><a xlink:href="LLVMVersion_8hpp_source.html" target="_top" xlink:title="chi/LLVMVersion.hpp">
<polygon fill="#ffffff" stroke="#000000" points="1317,-190.5 1317,-209.5 1427,-209.5 1427,-190.5 1317,-190.5"/>
<text text-anchor="middle" x="1372" y="-197.5" font-family="Helvetica,sans-Serif" font-size="10.00" fill="#000000">chi/LLVMVersion.hpp</text>
</a>
</g>
</g>
<!-- Node0&#45;&gt;Node22 -->
<g id="edge32" class="edge">
<title>Node0&#45;&gt;Node22</title>
<path fill="none" stroke="#191970" d="M1372,-246.2455C1372,-238.9382 1372,-228.6944 1372,-219.7046"/>
<polygon fill="#191970" stroke="#191970" points="1375.5001,-219.6426 1372,-209.6427 1368.5001,-219.6427 1375.5001,-219.6426"/>
</g>
<!-- Node24 -->
<g id="node25" class="node">
<title>Node24</title>
<g id="a_node25"><a xlink:href="NodeType_8hpp.html" target="_top" xlink:title="Defines the NodeType class. ">
<polygon fill="#ffffff" stroke="#000000" points="1106.5,-190.5 1106.5,-209.5 1201.5,-209.5 1201.5,-190.5 1106.5,-190.5"/>
<text text-anchor="middle" x="1154" y="-197.5" font-family="Helvetica,sans-Serif" font-size="10.00" fill="#000000">chi/NodeType.hpp</text>
</a>
</g>
</g>
<!-- Node0&#45;&gt;Node24 -->
<g id="edge34" class="edge">
<title>Node0&#45;&gt;Node24</title>
<path fill="none" stroke="#191970" d="M1334.5245,-246.3733C1297.4897,-236.8598 1240.7318,-222.2797 1200.7639,-212.0127"/>
<polygon fill="#191970" stroke="#191970" points="1201.5429,-208.5993 1190.9865,-209.5011 1199.8012,-215.3792 1201.5429,-208.5993"/>
</g>
<!-- Node26 -->
<g id="node27" class="node">
<title>Node26</title>
<g id="a_node27"><a xlink:href="Result_8hpp.html" target="_top" xlink:title="Defines the Result class and related functions. ">
<polygon fill="#ffffff" stroke="#000000" points="1219.5,-190.5 1219.5,-209.5 1298.5,-209.5 1298.5,-190.5 1219.5,-190.5"/>
<text text-anchor="middle" x="1259" y="-197.5" font-family="Helvetica,sans-Serif" font-size="10.00" fill="#000000">chi/Result.hpp</text>
</a>
</g>
</g>
<!-- Node0&#45;&gt;Node26 -->
<g id="edge40" class="edge">
<title>Node0&#45;&gt;Node26</title>
<path fill="none" stroke="#191970" d="M1352.5746,-246.3733C1334.5979,-237.4644 1307.6559,-224.1127 1287.291,-214.0203"/>
<polygon fill="#191970" stroke="#191970" points="1288.6861,-210.8055 1278.1719,-209.5011 1285.5778,-217.0776 1288.6861,-210.8055"/>
</g>
<!-- Node28 -->
<g id="node29" class="node">
<title>Node28</title>
<polygon fill="#ffffff" stroke="#bfbfbf" points="1445,-190.5 1445,-209.5 1571,-209.5 1571,-190.5 1445,-190.5"/>
<text text-anchor="middle" x="1508" y="-197.5" font-family="Helvetica,sans-Serif" font-size="10.00" fill="#000000">llvm/AsmParser/Parser.h</text>
</g>
<!-- Node0&#45;&gt;Node28 -->
<g id="edge43" class="edge">
<title>Node0&#45;&gt;Node28</title>
<path fill="none" stroke="#191970" d="M1395.3792,-246.3733C1417.5045,-237.2629 1450.9134,-223.5062 1475.6019,-213.3404"/>
<polygon fill="#191970" stroke="#191970" points="1477.0117,-216.5451 1484.9258,-209.5011 1474.3464,-210.0723 1477.0117,-216.5451"/>
</g>
<!-- Node29 -->
<g id="node30" class="node">
<title>Node29</title>
<polygon fill="#ffffff" stroke="#bfbfbf" points="1589.5,-190.5 1589.5,-209.5 1692.5,-209.5 1692.5,-190.5 1589.5,-190.5"/>
<text text-anchor="middle" x="1641" y="-197.5" font-family="Helvetica,sans-Serif" font-size="10.00" fill="#000000">llvm/IR/DebugInfo.h</text>
</g>
<!-- Node0&#45;&gt;Node29 -->
<g id="edge44" class="edge">
<title>Node0&#45;&gt;Node29</title>
<path fill="none" stroke="#191970" d="M1417.9371,-246.4369C1464.2645,-236.7925 1535.8268,-221.8948 1585.3469,-211.5858"/>
<polygon fill="#191970" stroke="#191970" points="1586.1756,-214.9884 1595.2524,-209.5237 1584.7489,-208.1353 1586.1756,-214.9884"/>
</g>
<!-- Node30 -->
<g id="node31" class="node">
<title>Node30</title>
<polygon fill="#ffffff" stroke="#bfbfbf" points="1711,-190.5 1711,-209.5 1809,-209.5 1809,-190.5 1711,-190.5"/>
<text text-anchor="middle" x="1760" y="-197.5" font-family="Helvetica,sans-Serif" font-size="10.00" fill="#000000">llvm/IR/IRBuilder.h</text>
</g>
<!-- Node0&#45;&gt;Node30 -->
<g id="edge45" class="edge">
<title>Node0&#45;&gt;Node30</title>
<path fill="none" stroke="#191970" d="M1445.1723,-246.4883C1509.8223,-237.9266 1606.9242,-224.6843 1700.9961,-210.1189"/>
<polygon fill="#191970" stroke="#191970" points="1701.6272,-213.5629 1710.9705,-208.5677 1700.5515,-206.646 1701.6272,-213.5629"/>
</g>
<!-- Node31 -->
<g id="node32" class="node">
<title>Node31</title>
<polygon fill="#ffffff" stroke="#bfbfbf" points="1827,-190.5 1827,-209.5 1917,-209.5 1917,-190.5 1827,-190.5"/>
<text text-anchor="middle" x="1872" y="-197.5" font-family="Helvetica,sans-Serif" font-size="10.00" fill="#000000">llvm/IR/Module.h</text>
</g>
<!-- Node0&#45;&gt;Node31 -->
<g id="edge46" class="edge">
<title>Node0&#45;&gt;Node31</title>
<path fill="none" stroke="#191970" d="M1449.1811,-249.9346C1536.112,-242.6751 1681.8093,-229.2235 1816.8466,-210.0686"/>
<polygon fill="#191970" stroke="#191970" points="1817.5606,-213.5022 1826.9634,-208.6198 1816.5682,-206.5728 1817.5606,-213.5022"/>
</g>
<!-- Node32 -->
<g id="node33" class="node">
<title>Node32</title>
<polygon fill="#ffffff" stroke="#bfbfbf" points="1935,-190.5 1935,-209.5 2065,-209.5 2065,-190.5 1935,-190.5"/>
<text text-anchor="middle" x="2000" y="-197.5" font-family="Helvetica,sans-Serif" font-size="10.00" fill="#000000">llvm/Support/SourceMgr.h</text>
</g>
<!-- Node0&#45;&gt;Node32 -->
<g id="edge47" class="edge">
<title>Node0&#45;&gt;Node32</title>
<path fill="none" stroke="#191970" d="M1449.1954,-250.8506C1554.3657,-243.5534 1748.7971,-229.0626 1924.6965,-210.0969"/>
<polygon fill="#191970" stroke="#191970" points="1925.0883,-213.575 1934.6523,-209.0164 1924.333,-206.6159 1925.0883,-213.575"/>
</g>
<!-- Node2 -->
<g id="node3" class="node">
<title>Node2</title>
<g id="a_node3"><a xlink:href="ChiModule_8hpp.html" target="_top" xlink:title="Defines the ChiModule class. ">
<polygon fill="#ffffff" stroke="#000000" points="129.5,-129 129.5,-148 226.5,-148 226.5,-129 129.5,-129"/>
<text text-anchor="middle" x="178" y="-136" font-family="Helvetica,sans-Serif" font-size="10.00" fill="#000000">chi/ChiModule.hpp</text>
</a>
</g>
</g>
<!-- Node1&#45;&gt;Node2 -->
<g id="edge2" class="edge">
<title>Node1&#45;&gt;Node2</title>
<path fill="none" stroke="#191970" d="M460.179,-190.4581C399.7771,-179.3362 300.1807,-160.9974 236.899,-149.3452"/>
<polygon fill="#191970" stroke="#191970" points="237.1494,-145.8325 226.6809,-147.4637 235.8818,-152.7168 237.1494,-145.8325"/>
</g>
<!-- Node3 -->
<g id="node4" class="node">
<title>Node3</title>
<g id="a_node4"><a xlink:href="Fwd_8hpp.html" target="_top" xlink:title="Forward declares all the chigraph data types. ">
<polygon fill="#ffffff" stroke="#000000" points="469.5,-62 469.5,-81 538.5,-81 538.5,-62 469.5,-62"/>
<text text-anchor="middle" x="504" y="-69" font-family="Helvetica,sans-Serif" font-size="10.00" fill="#000000">chi/Fwd.hpp</text>
</a>
</g>
</g>
<!-- Node1&#45;&gt;Node3 -->
<g id="edge12" class="edge">
<title>Node1&#45;&gt;Node3</title>
<path fill="none" stroke="#191970" d="M459.7301,-192.0959C417.6362,-184.5362 363.3512,-171.6701 350,-154 341.6941,-143.0073 341.9494,-134.181 350,-123 356.6669,-113.7407 416.4873,-95.597 459.5685,-83.5085"/>
<polygon fill="#191970" stroke="#191970" points="460.6026,-86.8538 469.2982,-80.8009 458.7259,-80.11 460.6026,-86.8538"/>
</g>
<!-- Node11 -->
<g id="node12" class="node">
<title>Node11</title>
<polygon fill="#ffffff" stroke="#bfbfbf" points="841.5,-129 841.5,-148 924.5,-148 924.5,-129 841.5,-129"/>
<text text-anchor="middle" x="883" y="-136" font-family="Helvetica,sans-Serif" font-size="10.00" fill="#000000">unordered_map</text>
</g>
<!-- Node1&#45;&gt;Node11 -->
<g id="edge13" class="edge">
<title>Node1&#45;&gt;Node11</title>
<path fill="none" stroke="#191970" d="M564.2622,-194.959C627.9844,-188.2466 738.7249,-174.7515 832,-154 836.1158,-153.0843 840.382,-152.0036 844.6147,-150.8456"/>
<polygon fill="#191970" stroke="#191970" points="845.7025,-154.1747 854.3439,-148.0446 843.7658,-147.4479 845.7025,-154.1747"/>
</g>
<!-- Node2&#45;&gt;Node3 -->
<g id="edge3" class="edge">
<title>Node2&#45;&gt;Node3</title>
<path fill="none" stroke="#191970" d="M215.2294,-128.9689C223.6811,-126.9088 232.6327,-124.8081 241,-123 326.2886,-104.5694 348.5023,-104.4346 434,-87 442.1505,-85.338 450.8158,-83.4874 459.1718,-81.66"/>
<polygon fill="#191970" stroke="#191970" points="460.1447,-85.0296 469.1555,-79.4567 458.6361,-78.1941 460.1447,-85.0296"/>
</g>
<!-- Node4 -->
<g id="node5" class="node">
<title>Node4</title>
<g id="a_node5"><a xlink:href="HashFilesystemPath_8hpp_source.html" target="_top" xlink:title="chi/HashFilesystemPath.hpp">
<polygon fill="#ffffff" stroke="#000000" points="0,-62 0,-81 142,-81 142,-62 0,-62"/>
<text text-anchor="middle" x="71" y="-69" font-family="Helvetica,sans-Serif" font-size="10.00" fill="#000000">chi/HashFilesystemPath.hpp</text>
</a>
</g>
</g>
<!-- Node2&#45;&gt;Node4 -->
<g id="edge4" class="edge">
<title>Node2&#45;&gt;Node4</title>
<path fill="none" stroke="#191970" d="M162.6695,-128.9005C144.9509,-117.8057 115.5772,-99.4128 94.8632,-86.4424"/>
<polygon fill="#191970" stroke="#191970" points="96.6351,-83.4224 86.3021,-81.0817 92.9201,-89.3553 96.6351,-83.4224"/>
</g>
<!-- Node5 -->
<g id="node6" class="node">
<title>Node5</title>
<polygon fill="#ffffff" stroke="#bfbfbf" points="116.5,-.5 116.5,-19.5 223.5,-19.5 223.5,-.5 116.5,-.5"/>
<text text-anchor="middle" x="170" y="-7.5" font-family="Helvetica,sans-Serif" font-size="10.00" fill="#000000">boost/filesystem.hpp</text>
</g>
<!-- Node2&#45;&gt;Node5 -->
<g id="edge8" class="edge">
<title>Node2&#45;&gt;Node5</title>
<path fill="none" stroke="#191970" d="M177.3987,-128.8416C176.0957,-107.9114 172.9886,-58.004 171.2437,-29.9762"/>
<polygon fill="#191970" stroke="#191970" points="174.723,-29.5336 170.6083,-19.7705 167.7365,-29.9686 174.723,-29.5336"/>
</g>
<!-- Node7 -->
<g id="node8" class="node">
<title>Node7</title>
<polygon fill="#ffffff" stroke="#bfbfbf" points="1124.5,-62 1124.5,-81 1193.5,-81 1193.5,-62 1124.5,-62"/>
<text text-anchor="middle" x="1159" y="-69" font-family="Helvetica,sans-Serif" font-size="10.00" fill="#000000">chi/json.hpp</text>
</g>
<!-- Node2&#45;&gt;Node7 -->
<g id="edge7" class="edge">
<title>Node2&#45;&gt;Node7</title>
<path fill="none" stroke="#191970" d="M226.5228,-133.6552C260.957,-130.3326 308.2826,-125.9995 350,-123 647.4395,-101.6141 722.8036,-111.5343 1020,-87 1051.6504,-84.3872 1087.2422,-80.3983 1114.4867,-77.1215"/>
<polygon fill="#191970" stroke="#191970" points="1114.9896,-80.5862 1124.494,-75.9048 1114.1447,-73.6374 1114.9896,-80.5862"/>
</g>
<!-- Node8 -->
<g id="node9" class="node">
<title>Node8</title>
<polygon fill="#ffffff" stroke="#bfbfbf" points="246,-56.5 246,-86.5 340,-86.5 340,-56.5 246,-56.5"/>
<text text-anchor="start" x="254" y="-74.5" font-family="Helvetica,sans-Serif" font-size="10.00" fill="#000000">boost/utility/string</text>
<text text-anchor="middle" x="293" y="-63.5" font-family="Helvetica,sans-Serif" font-size="10.00" fill="#000000">_view.hpp</text>
</g>
<!-- Node2&#45;&gt;Node8 -->
<g id="edge9" class="edge">
<title>Node2&#45;&gt;Node8</title>
<path fill="none" stroke="#191970" d="M194.4767,-128.9005C211.1057,-119.2123 237.2862,-103.9593 258.4807,-91.6113"/>
<polygon fill="#191970" stroke="#191970" points="260.3378,-94.58 267.2164,-86.5218 256.8139,-88.5317 260.3378,-94.58"/>
</g>
<!-- Node9 -->
<g id="node10" class="node">
<title>Node9</title>
<polygon fill="#ffffff" stroke="#bfbfbf" points="198,-62 198,-81 228,-81 228,-62 198,-62"/>
<text text-anchor="middle" x="213" y="-69" font-family="Helvetica,sans-Serif" font-size="10.00" fill="#000000">set</text>
</g>
<!-- Node2&#45;&gt;Node9 -->
<g id="edge10" class="edge">
<title>Node2&#45;&gt;Node9</title>
<path fill="none" stroke="#191970" d="M183.0146,-128.9005C188.2647,-118.8505 196.6429,-102.8122 203.2103,-90.2403"/>
<polygon fill="#191970" stroke="#191970" points="206.4666,-91.5657 207.9947,-81.0817 200.2622,-88.3246 206.4666,-91.5657"/>
</g>
<!-- Node10 -->
<g id="node11" class="node">
<title>Node10</title>
<polygon fill="#ffffff" stroke="#bfbfbf" points="384.5,-62 384.5,-81 425.5,-81 425.5,-62 384.5,-62"/>
<text text-anchor="middle" x="405" y="-69" font-family="Helvetica,sans-Serif" font-size="10.00" fill="#000000">ctime</text>
</g>
<!-- Node2&#45;&gt;Node10 -->
<g id="edge11" class="edge">
<title>Node2&#45;&gt;Node10</title>
<path fill="none" stroke="#191970" d="M210.5236,-128.9005C254.3531,-115.9641 331.7986,-93.1057 374.5417,-80.4899"/>
<polygon fill="#191970" stroke="#191970" points="375.7683,-83.7772 384.3685,-77.5895 373.7867,-77.0635 375.7683,-83.7772"/>
</g>
<!-- Node4&#45;&gt;Node5 -->
<g id="edge5" class="edge">
<title>Node4&#45;&gt;Node5</title>
<path fill="none" stroke="#191970" d="M86.4688,-61.8906C102.4521,-51.9616 127.6103,-36.333 146.1433,-24.8201"/>
<polygon fill="#191970" stroke="#191970" points="147.9924,-27.7918 154.6399,-19.5419 144.2985,-21.8457 147.9924,-27.7918"/>
</g>
<!-- Node6 -->
<g id="node7" class="node">
<title>Node6</title>
<polygon fill="#ffffff" stroke="#bfbfbf" points="39.5,-.5 39.5,-19.5 98.5,-19.5 98.5,-.5 39.5,-.5"/>
<text text-anchor="middle" x="69" y="-7.5" font-family="Helvetica,sans-Serif" font-size="10.00" fill="#000000">functional</text>
</g>
<!-- Node4&#45;&gt;Node6 -->
<g id="edge6" class="edge">
<title>Node4&#45;&gt;Node6</title>
<path fill="none" stroke="#191970" d="M70.6875,-61.8906C70.4103,-53.3657 69.9964,-40.6392 69.6479,-29.9235"/>
<polygon fill="#191970" stroke="#191970" points="73.1402,-29.6258 69.3169,-19.7449 66.1439,-29.8534 73.1402,-29.6258"/>
</g>
<!-- Node12&#45;&gt;Node3 -->
<g id="edge19" class="edge">
<title>Node12&#45;&gt;Node3</title>
<path fill="none" stroke="#191970" d="M743.4191,-190.4515C724.3977,-181.4785 695.4652,-167.453 671,-154 647.7567,-141.219 643.5035,-135.2959 620,-123 592.8371,-108.7897 560.9379,-94.8145 537.4727,-85.0158"/>
<polygon fill="#191970" stroke="#191970" points="538.5494,-81.6735 527.971,-81.0836 535.8726,-88.1416 538.5494,-81.6735"/>
</g>
<!-- Node12&#45;&gt;Node7 -->
<g id="edge24" class="edge">
<title>Node12&#45;&gt;Node7</title>
<path fill="none" stroke="#191970" d="M806.5504,-195.2129C870.6071,-187.5615 988.4256,-171.6315 1027,-154 1046.8233,-144.9392 1046.9223,-135.1762 1065,-123 1085.8609,-108.9492 1110.8975,-95.3791 1129.8851,-85.6989"/>
<polygon fill="#191970" stroke="#191970" points="1131.5817,-88.7634 1138.9416,-81.1421 1128.4354,-82.5103 1131.5817,-88.7634"/>
</g>
<!-- Node12&#45;&gt;Node8 -->
<g id="edge28" class="edge">
<title>Node12&#45;&gt;Node8</title>
<path fill="none" stroke="#191970" d="M721.4319,-197.2724C622.1793,-190.6292 381.4308,-172.7734 350,-154 327.8544,-140.7725 312.2491,-115.2192 303.0319,-96.0395"/>
<polygon fill="#191970" stroke="#191970" points="306.1101,-94.3526 298.7935,-86.6898 299.7346,-97.2428 306.1101,-94.3526"/>
</g>
<!-- Node12&#45;&gt;Node11 -->
<g id="edge16" class="edge">
<title>Node12&#45;&gt;Node11</title>
<path fill="none" stroke="#191970" d="M782.5938,-190.3906C802.1553,-180.2811 833.1501,-164.2628 855.5309,-152.6962"/>
<polygon fill="#191970" stroke="#191970" points="857.26,-155.7425 864.5368,-148.0419 854.0461,-149.5238 857.26,-155.7425"/>
</g>
<!-- Node13 -->
<g id="node14" class="node">
<title>Node13</title>
<polygon fill="#ffffff" stroke="#bfbfbf" points="1074,-129 1074,-148 1126,-148 1126,-129 1074,-129"/>
<text text-anchor="middle" x="1100" y="-136" font-family="Helvetica,sans-Serif" font-size="10.00" fill="#000000">memory</text>
</g>
<!-- Node12&#45;&gt;Node13 -->
<g id="edge15" class="edge">
<title>Node12&#45;&gt;Node13</title>
<path fill="none" stroke="#191970" d="M806.7515,-196.2747C864.8386,-190.5554 971.5918,-177.7011 1060,-154 1062.765,-153.2587 1065.6015,-152.3906 1068.4256,-151.4505"/>
<polygon fill="#191970" stroke="#191970" points="1069.6339,-154.7355 1077.8581,-148.0562 1067.2637,-148.149 1069.6339,-154.7355"/>
</g>
<!-- Node14 -->
<g id="node15" class="node">
<title>Node14</title>
<g id="a_node15"><a xlink:href="Flags_8hpp_source.html" target="_top" xlink:title="chi/Flags.hpp">
<polygon fill="#ffffff" stroke="#000000" points="942.5,-129 942.5,-148 1017.5,-148 1017.5,-129 942.5,-129"/>
<text text-anchor="middle" x="980" y="-136" font-family="Helvetica,sans-Serif" font-size="10.00" fill="#000000">chi/Flags.hpp</text>
</a>
</g>
</g>
<!-- Node12&#45;&gt;Node14 -->
<g id="edge17" class="edge">
<title>Node12&#45;&gt;Node14</title>
<path fill="none" stroke="#191970" d="M801.9991,-190.4234C836.5761,-181.5422 888.9431,-167.6733 934,-154 936.7973,-153.1511 939.681,-152.2477 942.5765,-151.3201"/>
<polygon fill="#191970" stroke="#191970" points="943.9429,-154.5556 952.3572,-148.1174 941.7646,-147.9032 943.9429,-154.5556"/>
</g>
<!-- Node16 -->
<g id="node17" class="node">
<title>Node16</title>
<g id="a_node17"><a xlink:href="ModuleCache_8hpp.html" target="_top" xlink:title="chi/ModuleCache.hpp">
<polygon fill="#ffffff" stroke="#000000" points="501,-129 501,-148 611,-148 611,-129 501,-129"/>
<text text-anchor="middle" x="556" y="-136" font-family="Helvetica,sans-Serif" font-size="10.00" fill="#000000">chi/ModuleCache.hpp</text>
</a>
</g>
</g>
<!-- Node12&#45;&gt;Node16 -->
<g id="edge20" class="edge">
<title>Node12&#45;&gt;Node16</title>
<path fill="none" stroke="#191970" d="M731.5,-190.3906C695.553,-179.7621 637.5173,-162.6025 598.112,-150.9514"/>
<polygon fill="#191970" stroke="#191970" points="598.8538,-147.521 588.2718,-148.0419 596.869,-154.2337 598.8538,-147.521"/>
</g>
<!-- Node17 -->
<g id="node18" class="node">
<title>Node17</title>
<polygon fill="#ffffff" stroke="#bfbfbf" points="584.5,-62 584.5,-81 713.5,-81 713.5,-62 584.5,-62"/>
<text text-anchor="middle" x="649" y="-69" font-family="Helvetica,sans-Serif" font-size="10.00" fill="#000000">boost/filesystem/path.hpp</text>
</g>
<!-- Node12&#45;&gt;Node17 -->
<g id="edge27" class="edge">
<title>Node12&#45;&gt;Node17</title>
<path fill="none" stroke="#191970" d="M745.2565,-190.4449C730.5432,-182.2593 710.2347,-169.374 696,-154 678.3997,-134.991 664.6962,-108.2297 656.738,-90.3981"/>
<polygon fill="#191970" stroke="#191970" points="659.8896,-88.8669 652.7302,-81.0571 653.4567,-91.627 659.8896,-88.8669"/>
</g>
<!-- Node18 -->
<g id="node19" class="node">
<title>Node18</title>
<polygon fill="#ffffff" stroke="#bfbfbf" points="705,-129 705,-148 823,-148 823,-129 705,-129"/>
<text text-anchor="middle" x="764" y="-136" font-family="Helvetica,sans-Serif" font-size="10.00" fill="#000000">llvm/IR/LLVMContext.h</text>
</g>
<!-- Node12&#45;&gt;Node18 -->
<g id="edge25" class="edge">
<title>Node12&#45;&gt;Node18</title>
<path fill="none" stroke="#191970" d="M764,-190.3906C764,-181.8657 764,-169.1392 764,-158.4235"/>
<polygon fill="#191970" stroke="#191970" points="767.5001,-158.2448 764,-148.2449 760.5001,-158.2449 767.5001,-158.2448"/>
</g>
<!-- Node19 -->
<g id="node20" class="node">
<title>Node19</title>
<polygon fill="#ffffff" stroke="#bfbfbf" points="359.5,-129 359.5,-148 482.5,-148 482.5,-129 359.5,-129"/>
<text text-anchor="middle" x="421" y="-136" font-family="Helvetica,sans-Serif" font-size="10.00" fill="#000000">llvm/Support/CodeGen.h</text>
</g>
<!-- Node12&#45;&gt;Node19 -->
<g id="edge26" class="edge">
<title>Node12&#45;&gt;Node19</title>
<path fill="none" stroke="#191970" d="M721.485,-193.4495C667.8586,-185.0402 572.8739,-169.6572 492,-154 485.8221,-152.804 479.3566,-151.4856 472.9499,-150.1381"/>
<polygon fill="#191970" stroke="#191970" points="473.4909,-146.6748 462.9805,-148.0097 472.0293,-153.5205 473.4909,-146.6748"/>
</g>
<!-- Node15 -->
<g id="node16" class="node">
<title>Node15</title>
<polygon fill="#ffffff" stroke="#bfbfbf" points="949,-62 949,-81 1011,-81 1011,-62 949,-62"/>
<text text-anchor="middle" x="980" y="-69" font-family="Helvetica,sans-Serif" font-size="10.00" fill="#000000">type_traits</text>
</g>
<!-- Node14&#45;&gt;Node15 -->
<g id="edge18" class="edge">
<title>Node14&#45;&gt;Node15</title>
<path fill="none" stroke="#191970" d="M980,-128.9005C980,-119.149 980,-103.7597 980,-91.3695"/>
<polygon fill="#191970" stroke="#191970" points="983.5001,-91.0816 980,-81.0817 976.5001,-91.0817 983.5001,-91.0816"/>
</g>
<!-- Node16&#45;&gt;Node3 -->
<g id="edge21" class="edge">
<title>Node16&#45;&gt;Node3</title>
<path fill="none" stroke="#191970" d="M548.5497,-128.9005C540.5179,-118.552 527.5585,-101.8542 517.6826,-89.1295"/>
<polygon fill="#191970" stroke="#191970" points="520.3328,-86.8356 511.4365,-81.0817 514.8028,-91.1275 520.3328,-86.8356"/>
</g>
<!-- Node16&#45;&gt;Node10 -->
<g id="edge23" class="edge">
<title>Node16&#45;&gt;Node10</title>
<path fill="none" stroke="#191970" d="M534.3654,-128.9005C508.2826,-117.3274 464.3034,-97.8134 434.9659,-84.7961"/>
<polygon fill="#191970" stroke="#191970" points="436.1852,-81.5081 425.6251,-80.6515 433.3461,-87.9066 436.1852,-81.5081"/>
</g>
<!-- Node16&#45;&gt;Node17 -->
<g id="edge22" class="edge">
<title>Node16&#45;&gt;Node17</title>
<path fill="none" stroke="#191970" d="M569.3246,-128.9005C584.5178,-117.9549 609.5703,-99.9064 627.5284,-86.9688"/>
<polygon fill="#191970" stroke="#191970" points="629.6323,-89.7668 635.7001,-81.0817 625.5405,-84.0872 629.6323,-89.7668"/>
</g>
<!-- Node20&#45;&gt;Node3 -->
<g id="edge30" class="edge">
<title>Node20&#45;&gt;Node3</title>
<path fill="none" stroke="#191970" d="M263.1546,-190.2673C277.2282,-174.0622 307.69,-141.5065 340,-123 360.5143,-111.2498 418.4529,-94.3179 459.635,-83.1188"/>
<polygon fill="#191970" stroke="#191970" points="460.7061,-86.455 469.4496,-80.4716 458.8832,-79.6965 460.7061,-86.455"/>
</g>
<!-- Node21 -->
<g id="node22" class="node">
<title>Node21</title>
<polygon fill="#ffffff" stroke="#bfbfbf" points="70.5,-129 70.5,-148 111.5,-148 111.5,-129 70.5,-129"/>
<text text-anchor="middle" x="91" y="-136" font-family="Helvetica,sans-Serif" font-size="10.00" fill="#000000">string</text>
</g>
<!-- Node20&#45;&gt;Node21 -->
<g id="edge31" class="edge">
<title>Node20&#45;&gt;Node21</title>
<path fill="none" stroke="#191970" d="M222.2538,-190.4795C194.5615,-182.0425 154.0684,-168.7921 120,-154 119.0051,-153.568 117.9981,-153.1148 116.9863,-152.6458"/>
<polygon fill="#191970" stroke="#191970" points="118.4597,-149.4696 107.9473,-148.15 115.3423,-155.7372 118.4597,-149.4696"/>
</g>
<!-- Node23 -->
<g id="node24" class="node">
<title>Node23</title>
<polygon fill="#ffffff" stroke="#bfbfbf" points="1438,-129 1438,-148 1562,-148 1562,-129 1438,-129"/>
<text text-anchor="middle" x="1500" y="-136" font-family="Helvetica,sans-Serif" font-size="10.00" fill="#000000">llvm/Config/llvm&#45;config.h</text>
</g>
<!-- Node22&#45;&gt;Node23 -->
<g id="edge33" class="edge">
<title>Node22&#45;&gt;Node23</title>
<path fill="none" stroke="#191970" d="M1392,-190.3906C1413.2289,-180.1908 1446.9762,-163.9763 1471.096,-152.3875"/>
<polygon fill="#191970" stroke="#191970" points="1472.6426,-155.5275 1480.1404,-148.0419 1469.6111,-149.2179 1472.6426,-155.5275"/>
</g>
<!-- Node24&#45;&gt;Node3 -->
<g id="edge38" class="edge">
<title>Node24&#45;&gt;Node3</title>
<path fill="none" stroke="#191970" d="M1154.8789,-190.3688C1155.8049,-173.7087 1154.9618,-139.6957 1135,-123 1087.1728,-82.998 636.7444,-95.6739 575,-87 566.4689,-85.8015 557.4377,-84.1397 548.78,-82.3469"/>
<polygon fill="#191970" stroke="#191970" points="549.3539,-78.8903 538.8406,-80.2022 547.8773,-85.7328 549.3539,-78.8903"/>
</g>
<!-- Node24&#45;&gt;Node7 -->
<g id="edge39" class="edge">
<title>Node24&#45;&gt;Node7</title>
<path fill="none" stroke="#191970" d="M1186.6897,-190.4174C1204.3362,-183.3899 1224.5862,-171.8899 1235,-154 1241.9313,-142.0927 1241.4552,-135.172 1235,-123 1226.1358,-106.2856 1209.1517,-93.999 1193.4837,-85.6276"/>
<polygon fill="#191970" stroke="#191970" points="1194.9941,-82.4697 1184.4821,-81.1471 1191.8749,-88.7364 1194.9941,-82.4697"/>
</g>
<!-- Node24&#45;&gt;Node11 -->
<g id="edge36" class="edge">
<title>Node24&#45;&gt;Node11</title>
<path fill="none" stroke="#191970" d="M1106.0817,-191.2547C1061.3243,-182.7858 992.7817,-169.0461 934,-154 930.2249,-153.0337 926.3118,-151.9659 922.4083,-150.8562"/>
<polygon fill="#191970" stroke="#191970" points="923.3895,-147.4966 912.8089,-148.0451 921.4222,-154.2145 923.3895,-147.4966"/>
</g>
<!-- Node24&#45;&gt;Node13 -->
<g id="edge35" class="edge">
<title>Node24&#45;&gt;Node13</title>
<path fill="none" stroke="#191970" d="M1145.5625,-190.3906C1137.4469,-181.1478 1124.9945,-166.966 1115.1576,-155.7628"/>
<polygon fill="#191970" stroke="#191970" points="1117.7846,-153.45 1108.5565,-148.2449 1112.5245,-158.0686 1117.7846,-153.45"/>
</g>
<!-- Node25 -->
<g id="node26" class="node">
<title>Node25</title>
<polygon fill="#ffffff" stroke="#bfbfbf" points="1182,-129 1182,-148 1226,-148 1226,-129 1182,-129"/>
<text text-anchor="middle" x="1204" y="-136" font-family="Helvetica,sans-Serif" font-size="10.00" fill="#000000">vector</text>
</g>
<!-- Node24&#45;&gt;Node25 -->
<g id="edge37" class="edge">
<title>Node24&#45;&gt;Node25</title>
<path fill="none" stroke="#191970" d="M1161.8125,-190.3906C1169.254,-181.2376 1180.6334,-167.2409 1189.6992,-156.09"/>
<polygon fill="#191970" stroke="#191970" points="1192.4847,-158.212 1196.0774,-148.2449 1187.0533,-153.7962 1192.4847,-158.212"/>
</g>
<!-- Node26&#45;&gt;Node7 -->
<g id="edge41" class="edge">
<title>Node26&#45;&gt;Node7</title>
<path fill="none" stroke="#191970" d="M1260.6834,-190.0559C1262.7793,-174.3986 1264.5937,-143.6583 1251,-123 1239.3471,-105.2912 1219.4089,-93.0651 1201.0668,-84.9854"/>
<polygon fill="#191970" stroke="#191970" points="1202.253,-81.6889 1191.6728,-81.131 1199.5958,-88.165 1202.253,-81.6889"/>
</g>
<!-- Node27 -->
<g id="node28" class="node">
<title>Node27</title>
<polygon fill="#ffffff" stroke="#bfbfbf" points="1320,-123.5 1320,-153.5 1420,-153.5 1420,-123.5 1320,-123.5"/>
<text text-anchor="start" x="1328" y="-141.5" font-family="Helvetica,sans-Serif" font-size="10.00" fill="#000000">boost/container/flat</text>
<text text-anchor="middle" x="1370" y="-130.5" font-family="Helvetica,sans-Serif" font-size="10.00" fill="#000000">_map.hpp</text>
</g>
<!-- Node26&#45;&gt;Node27 -->
<g id="edge42" class="edge">
<title>Node26&#45;&gt;Node27</title>
<path fill="none" stroke="#191970" d="M1276.3438,-190.3906C1291.714,-181.8747 1314.6516,-169.166 1333.9795,-158.4573"/>
<polygon fill="#191970" stroke="#191970" points="1335.7954,-161.4525 1342.8463,-153.5446 1332.4029,-155.3295 1335.7954,-161.4525"/>
</g>
</g>
</svg>
