<?xml version="1.0" encoding="UTF-8" standalone="no"?>
<!DOCTYPE svg PUBLIC "-//W3C//DTD SVG 1.1//EN"
 "http://www.w3.org/Graphics/SVG/1.1/DTD/svg11.dtd">
<!-- Generated by graphviz version 2.40.1 (20161225.0304)
 -->
<!-- Title: src/LangModule.cpp Pages: 1 -->
<svg width="1800pt" height="431pt"
 viewBox="0.00 0.00 1799.50 431.00" xmlns="http://www.w3.org/2000/svg" xmlns:xlink="http://www.w3.org/1999/xlink">
<g id="graph0" class="graph" transform="scale(1 1) rotate(0) translate(4 427)">
<title>src/LangModule.cpp</title>
<polygon fill="#ffffff" stroke="transparent" points="-4,4 -4,-427 1795.5,-427 1795.5,4 -4,4"/>
<!-- Node0 -->
<g id="node1" class="node">
<title>Node0</title>
<polygon fill="#bfbfbf" stroke="#000000" points="1110.5,-403.5 1110.5,-422.5 1223.5,-422.5 1223.5,-403.5 1110.5,-403.5"/>
<text text-anchor="middle" x="1167" y="-410.5" font-family="Helvetica,sans-Serif" font-size="10.00" fill="#000000">src/LangModule.cpp</text>
</g>
<!-- Node1 -->
<g id="node2" class="node">
<title>Node1</title>
<g id="a_node2"><a xlink:href="LangModule_8hpp.html" target="_top" xlink:title="Defines the LangModule class. ">
<polygon fill="#ffffff" stroke="#000000" points="878.5,-347.5 878.5,-366.5 997.5,-366.5 997.5,-347.5 878.5,-347.5"/>
<text text-anchor="middle" x="938" y="-354.5" font-family="Helvetica,sans-Serif" font-size="10.00" fill="#000000">chig/LangModule.hpp</text>
</a>
</g>
</g>
<!-- Node0&#45;&gt;Node1 -->
<g id="edge1" class="edge">
<title>Node0&#45;&gt;Node1</title>
<path fill="none" stroke="#191970" d="M1127.8937,-403.4369C1088.8668,-393.8932 1028.8035,-379.2052 986.7038,-368.9101"/>
<polygon fill="#191970" stroke="#191970" points="987.4902,-365.4993 976.945,-366.5237 985.8274,-372.299 987.4902,-365.4993"/>
</g>
<!-- Node16 -->
<g id="node17" class="node">
<title>Node16</title>
<g id="a_node17"><a xlink:href="Context_8hpp.html" target="_top" xlink:title="Defines the Context class and related functions. ">
<polygon fill="#ffffff" stroke="#000000" points="747.5,-179.5 747.5,-198.5 846.5,-198.5 846.5,-179.5 747.5,-179.5"/>
<text text-anchor="middle" x="797" y="-186.5" font-family="Helvetica,sans-Serif" font-size="10.00" fill="#000000">chig/Context.hpp</text>
</a>
</g>
</g>
<!-- Node0&#45;&gt;Node16 -->
<g id="edge57" class="edge">
<title>Node0&#45;&gt;Node16</title>
<path fill="none" stroke="#191970" d="M1110.2986,-410.2492C958.5296,-401.3991 551.0082,-367.3348 499,-255 495.2655,-246.9337 493.2139,-241.7478 499,-235 514.2927,-217.1656 654.6683,-201.7242 737.1856,-194.0891"/>
<polygon fill="#191970" stroke="#191970" points="737.5553,-197.57 747.1955,-193.1749 736.9186,-190.599 737.5553,-197.57"/>
</g>
<!-- Node32 -->
<g id="node33" class="node">
<title>Node32</title>
<polygon fill="#ffffff" stroke="#bfbfbf" points="1015.5,-347.5 1015.5,-366.5 1152.5,-366.5 1152.5,-347.5 1015.5,-347.5"/>
<text text-anchor="middle" x="1084" y="-354.5" font-family="Helvetica,sans-Serif" font-size="10.00" fill="#000000">llvm/AsmParser/Parser.h</text>
</g>
<!-- Node0&#45;&gt;Node32 -->
<g id="edge58" class="edge">
<title>Node0&#45;&gt;Node32</title>
<path fill="none" stroke="#191970" d="M1152.5425,-403.2455C1139.9268,-394.7337 1121.4056,-382.2375 1106.7955,-372.3801"/>
<polygon fill="#191970" stroke="#191970" points="1108.5391,-369.3343 1098.2918,-366.6427 1104.6239,-375.1371 1108.5391,-369.3343"/>
</g>
<!-- Node33 -->
<g id="node34" class="node">
<title>Node33</title>
<polygon fill="#ffffff" stroke="#bfbfbf" points="1170.5,-347.5 1170.5,-366.5 1329.5,-366.5 1329.5,-347.5 1170.5,-347.5"/>
<text text-anchor="middle" x="1250" y="-354.5" font-family="Helvetica,sans-Serif" font-size="10.00" fill="#000000">llvm/IR/DebugInfoMetadata.h</text>
</g>
<!-- Node0&#45;&gt;Node33 -->
<g id="edge59" class="edge">
<title>Node0&#45;&gt;Node33</title>
<path fill="none" stroke="#191970" d="M1181.4575,-403.2455C1194.0732,-394.7337 1212.5944,-382.2375 1227.2045,-372.3801"/>
<polygon fill="#191970" stroke="#191970" points="1229.3761,-375.1371 1235.7082,-366.6427 1225.4609,-369.3343 1229.3761,-375.1371"/>
</g>
<!-- Node34 -->
<g id="node35" class="node">
<title>Node34</title>
<polygon fill="#ffffff" stroke="#bfbfbf" points="1348,-347.5 1348,-366.5 1490,-366.5 1490,-347.5 1348,-347.5"/>
<text text-anchor="middle" x="1419" y="-354.5" font-family="Helvetica,sans-Serif" font-size="10.00" fill="#000000">llvm/Support/SourceMgr.h</text>
</g>
<!-- Node0&#45;&gt;Node34 -->
<g id="edge60" class="edge">
<title>Node0&#45;&gt;Node34</title>
<path fill="none" stroke="#191970" d="M1210.034,-403.4369C1253.2525,-393.8328 1319.9141,-379.0191 1366.2818,-368.7152"/>
<polygon fill="#191970" stroke="#191970" points="1367.1409,-372.1097 1376.1435,-366.5237 1365.6223,-365.2764 1367.1409,-372.1097"/>
</g>
<!-- Node35 -->
<g id="node36" class="node">
<title>Node35</title>
<polygon fill="#ffffff" stroke="#bfbfbf" points="1508.5,-347.5 1508.5,-366.5 1591.5,-366.5 1591.5,-347.5 1508.5,-347.5"/>
<text text-anchor="middle" x="1550" y="-354.5" font-family="Helvetica,sans-Serif" font-size="10.00" fill="#000000">gsl/gsl_assert</text>
</g>
<!-- Node0&#45;&gt;Node35 -->
<g id="edge61" class="edge">
<title>Node0&#45;&gt;Node35</title>
<path fill="none" stroke="#191970" d="M1223.5402,-406.1446C1287.6622,-398.1507 1395.5723,-384.0367 1498.3568,-367.0311"/>
<polygon fill="#191970" stroke="#191970" points="1498.9974,-370.4727 1508.2861,-365.3765 1497.8467,-363.5679 1498.9974,-370.4727"/>
</g>
<!-- Node2 -->
<g id="node3" class="node">
<title>Node2</title>
<g id="a_node3"><a xlink:href="ChigModule_8hpp.html" target="_top" xlink:title="Defines the ChigModule class. ">
<polygon fill="#ffffff" stroke="#000000" points="1342,-179.5 1342,-198.5 1460,-198.5 1460,-179.5 1342,-179.5"/>
<text text-anchor="middle" x="1401" y="-186.5" font-family="Helvetica,sans-Serif" font-size="10.00" fill="#000000">chig/ChigModule.hpp</text>
</a>
</g>
</g>
<!-- Node1&#45;&gt;Node2 -->
<g id="edge2" class="edge">
<title>Node1&#45;&gt;Node2</title>
<path fill="none" stroke="#191970" d="M997.5737,-347.5716C1132.5318,-325.9341 1451.0853,-273.1804 1466,-255 1481.5784,-236.0106 1455.4344,-216.1884 1431.8056,-203.2857"/>
<polygon fill="#191970" stroke="#191970" points="1433.1212,-200.0254 1422.6323,-198.5313 1429.9001,-206.2403 1433.1212,-200.0254"/>
</g>
<!-- Node10 -->
<g id="node11" class="node">
<title>Node10</title>
<polygon fill="#ffffff" stroke="#bfbfbf" points="1726.5,-118 1726.5,-137 1791.5,-137 1791.5,-118 1726.5,-118"/>
<text text-anchor="middle" x="1759" y="-125" font-family="Helvetica,sans-Serif" font-size="10.00" fill="#000000">functional</text>
</g>
<!-- Node1&#45;&gt;Node10 -->
<g id="edge53" class="edge">
<title>Node1&#45;&gt;Node10</title>
<path fill="none" stroke="#191970" d="M997.6781,-348.0239C1000.4895,-347.6639 1003.2743,-347.3204 1006,-347 1186.7931,-325.7484 1239.4812,-362.7781 1414,-311 1545.8792,-271.8727 1685.2872,-179.6055 1737.56,-142.9267"/>
<polygon fill="#191970" stroke="#191970" points="1739.5969,-145.7731 1745.7389,-137.1402 1735.5539,-140.0586 1739.5969,-145.7731"/>
</g>
<!-- Node11 -->
<g id="node12" class="node">
<title>Node11</title>
<polygon fill="#ffffff" stroke="#bfbfbf" points="1372,-118 1372,-137 1416,-137 1416,-118 1372,-118"/>
<text text-anchor="middle" x="1394" y="-125" font-family="Helvetica,sans-Serif" font-size="10.00" fill="#000000">string</text>
</g>
<!-- Node1&#45;&gt;Node11 -->
<g id="edge55" class="edge">
<title>Node1&#45;&gt;Node11</title>
<path fill="none" stroke="#191970" d="M997.6956,-348.1603C1000.5022,-347.7638 1003.2813,-347.3753 1006,-347 1112.9396,-332.2386 1417.8758,-341.0977 1483,-255 1495.2564,-238.7964 1483.5515,-199.9525 1469,-179 1457.9572,-163.0997 1440.2973,-150.6199 1424.8874,-141.9299"/>
<polygon fill="#191970" stroke="#191970" points="1426.1335,-138.628 1415.6626,-137.0122 1422.8405,-144.805 1426.1335,-138.628"/>
</g>
<!-- Node12 -->
<g id="node13" class="node">
<title>Node12</title>
<polygon fill="#ffffff" stroke="#bfbfbf" points="394.5,-118 394.5,-137 487.5,-137 487.5,-118 394.5,-118"/>
<text text-anchor="middle" x="441" y="-125" font-family="Helvetica,sans-Serif" font-size="10.00" fill="#000000">unordered_map</text>
</g>
<!-- Node1&#45;&gt;Node12 -->
<g id="edge56" class="edge">
<title>Node1&#45;&gt;Node12</title>
<path fill="none" stroke="#191970" d="M878.3885,-353.8049C787.7012,-348.2488 619.8274,-335.0359 565,-311 529.7675,-295.5543 522.1908,-285.6934 499,-255 473.1019,-220.7234 455.3271,-173.0373 446.7971,-146.7717"/>
<polygon fill="#191970" stroke="#191970" points="450.1351,-145.719 443.8008,-137.2263 443.4565,-147.8155 450.1351,-145.719"/>
</g>
<!-- Node1&#45;&gt;Node16 -->
<g id="edge19" class="edge">
<title>Node1&#45;&gt;Node16</title>
<path fill="none" stroke="#191970" d="M878.4051,-351.8349C771.1921,-341.1748 552.6745,-312.7454 507,-255 501.4857,-248.0283 501.2279,-241.7598 507,-235 521.7612,-217.7128 656.7408,-202.1838 737.2453,-194.3554"/>
<polygon fill="#191970" stroke="#191970" points="737.6424,-197.8335 747.2621,-193.3937 736.9734,-190.8655 737.6424,-197.8335"/>
</g>
<!-- Node17 -->
<g id="node18" class="node">
<title>Node17</title>
<polygon fill="#ffffff" stroke="#bfbfbf" points="0,-118 0,-137 58,-137 58,-118 0,-118"/>
<text text-anchor="middle" x="29" y="-125" font-family="Helvetica,sans-Serif" font-size="10.00" fill="#000000">memory</text>
</g>
<!-- Node1&#45;&gt;Node17 -->
<g id="edge54" class="edge">
<title>Node1&#45;&gt;Node17</title>
<path fill="none" stroke="#191970" d="M878.4261,-352.8415C798.1518,-346.6676 651.0126,-333.3383 527,-311 426.0059,-292.808 402.4746,-280.2106 303,-255 206.0312,-230.4245 168.735,-253.73 85,-199 64.6706,-185.7125 48.5316,-162.53 38.9002,-146.1703"/>
<polygon fill="#191970" stroke="#191970" points="41.7097,-144.0246 33.7649,-137.0152 35.6045,-147.4491 41.7097,-144.0246"/>
</g>
<!-- Node23 -->
<g id="node24" class="node">
<title>Node23</title>
<g id="a_node24"><a xlink:href="DataType_8hpp.html" target="_top" xlink:title="Defines the DataType class. ">
<polygon fill="#ffffff" stroke="#000000" points="1349,-235.5 1349,-254.5 1457,-254.5 1457,-235.5 1349,-235.5"/>
<text text-anchor="middle" x="1403" y="-242.5" font-family="Helvetica,sans-Serif" font-size="10.00" fill="#000000">chig/DataType.hpp</text>
</a>
</g>
</g>
<!-- Node1&#45;&gt;Node23 -->
<g id="edge35" class="edge">
<title>Node1&#45;&gt;Node23</title>
<path fill="none" stroke="#191970" d="M977.6456,-347.4509C1062.3229,-327.0556 1260.666,-279.2826 1353.4738,-256.9289"/>
<polygon fill="#191970" stroke="#191970" points="1354.5523,-260.2693 1363.4547,-254.5249 1352.9131,-253.4639 1354.5523,-260.2693"/>
</g>
<!-- Node24 -->
<g id="node25" class="node">
<title>Node24</title>
<g id="a_node25"><a xlink:href="NodeType_8hpp.html" target="_top" xlink:title="Defines the NodeType class. ">
<polygon fill="#ffffff" stroke="#000000" points="883,-291.5 883,-310.5 993,-310.5 993,-291.5 883,-291.5"/>
<text text-anchor="middle" x="938" y="-298.5" font-family="Helvetica,sans-Serif" font-size="10.00" fill="#000000">chig/NodeType.hpp</text>
</a>
</g>
</g>
<!-- Node1&#45;&gt;Node24 -->
<g id="edge39" class="edge">
<title>Node1&#45;&gt;Node24</title>
<path fill="none" stroke="#191970" d="M938,-347.2455C938,-339.9382 938,-329.6944 938,-320.7046"/>
<polygon fill="#191970" stroke="#191970" points="941.5001,-320.6426 938,-310.6427 934.5001,-320.6427 941.5001,-320.6426"/>
</g>
<!-- Node3 -->
<g id="node4" class="node">
<title>Node3</title>
<g id="a_node4"><a xlink:href="Fwd_8hpp.html" target="_top" xlink:title="Forward declares all the chigraph data types. ">
<polygon fill="#ffffff" stroke="#000000" points="1274,-118 1274,-137 1354,-137 1354,-118 1274,-118"/>
<text text-anchor="middle" x="1314" y="-125" font-family="Helvetica,sans-Serif" font-size="10.00" fill="#000000">chig/Fwd.hpp</text>
</a>
</g>
</g>
<!-- Node2&#45;&gt;Node3 -->
<g id="edge3" class="edge">
<title>Node2&#45;&gt;Node3</title>
<path fill="none" stroke="#191970" d="M1387.4063,-179.3906C1373.6157,-169.6421 1352.0528,-154.3994 1335.859,-142.9521"/>
<polygon fill="#191970" stroke="#191970" points="1337.6844,-139.9563 1327.4983,-137.0419 1333.6437,-145.6723 1337.6844,-139.9563"/>
</g>
<!-- Node4 -->
<g id="node5" class="node">
<title>Node4</title>
<g id="a_node5"><a xlink:href="Result_8hpp.html" target="_top" xlink:title="Defines the Result class and related functions. ">
<polygon fill="#ffffff" stroke="#000000" points="1578,-118 1578,-137 1670,-137 1670,-118 1578,-118"/>
<text text-anchor="middle" x="1624" y="-125" font-family="Helvetica,sans-Serif" font-size="10.00" fill="#000000">chig/Result.hpp</text>
</a>
</g>
</g>
<!-- Node2&#45;&gt;Node4 -->
<g id="edge4" class="edge">
<title>Node2&#45;&gt;Node4</title>
<path fill="none" stroke="#191970" d="M1435.5462,-179.4977C1469.3198,-170.2048 1522.1988,-155.6465 1568,-143 1571.8288,-141.9428 1575.8046,-140.8441 1579.7915,-139.7418"/>
<polygon fill="#191970" stroke="#191970" points="1580.9429,-143.0548 1589.6479,-137.0154 1579.0767,-136.3081 1580.9429,-143.0548"/>
</g>
<!-- Node5 -->
<g id="node6" class="node">
<title>Node5</title>
<g id="a_node6"><a xlink:href="ToString_8hpp_source.html" target="_top" xlink:title="chig/ToString.hpp">
<polygon fill="#ffffff" stroke="#000000" points="1431.5,-56.5 1431.5,-75.5 1532.5,-75.5 1532.5,-56.5 1431.5,-56.5"/>
<text text-anchor="middle" x="1482" y="-63.5" font-family="Helvetica,sans-Serif" font-size="10.00" fill="#000000">chig/ToString.hpp</text>
</a>
</g>
</g>
<!-- Node2&#45;&gt;Node5 -->
<g id="edge9" class="edge">
<title>Node2&#45;&gt;Node5</title>
<path fill="none" stroke="#191970" d="M1417.4859,-179.4917C1430.2573,-171.3326 1447.4919,-158.46 1458,-143 1469.7675,-125.6871 1475.9759,-102.3352 1479.1048,-85.902"/>
<polygon fill="#191970" stroke="#191970" points="1482.5984,-86.2325 1480.8095,-75.7898 1475.6958,-85.0689 1482.5984,-86.2325"/>
</g>
<!-- Node7 -->
<g id="node8" class="node">
<title>Node7</title>
<polygon fill="#ffffff" stroke="#bfbfbf" points="1035.5,-56.5 1035.5,-75.5 1116.5,-75.5 1116.5,-56.5 1035.5,-56.5"/>
<text text-anchor="middle" x="1076" y="-63.5" font-family="Helvetica,sans-Serif" font-size="10.00" fill="#000000">chig/json.hpp</text>
</g>
<!-- Node2&#45;&gt;Node7 -->
<g id="edge10" class="edge">
<title>Node2&#45;&gt;Node7</title>
<path fill="none" stroke="#191970" d="M1409.2534,-179.2694C1421.7208,-163.3569 1442.1708,-131.5825 1425,-112 1405.6501,-89.9323 1218.8294,-75.0818 1126.7659,-69.0428"/>
<polygon fill="#191970" stroke="#191970" points="1126.7636,-65.5354 1116.5589,-68.3839 1126.3126,-72.5209 1126.7636,-65.5354"/>
</g>
<!-- Node8 -->
<g id="node9" class="node">
<title>Node8</title>
<polygon fill="#ffffff" stroke="#bfbfbf" points="1600,-56.5 1600,-75.5 1648,-75.5 1648,-56.5 1600,-56.5"/>
<text text-anchor="middle" x="1624" y="-63.5" font-family="Helvetica,sans-Serif" font-size="10.00" fill="#000000">gsl/gsl</text>
</g>
<!-- Node2&#45;&gt;Node8 -->
<g id="edge18" class="edge">
<title>Node2&#45;&gt;Node8</title>
<path fill="none" stroke="#191970" d="M1460.0823,-183.2784C1537.4624,-175.1791 1664.9982,-159.5091 1679,-143 1687.9117,-132.4925 1684.8328,-124.4822 1679,-112 1673.0537,-99.2749 1661.6642,-88.8307 1650.785,-81.129"/>
<polygon fill="#191970" stroke="#191970" points="1652.564,-78.1101 1642.2833,-75.5491 1648.723,-83.9622 1652.564,-78.1101"/>
</g>
<!-- Node9 -->
<g id="node10" class="node">
<title>Node9</title>
<polygon fill="#ffffff" stroke="#bfbfbf" points="1510.5,-118 1510.5,-137 1559.5,-137 1559.5,-118 1510.5,-118"/>
<text text-anchor="middle" x="1535" y="-125" font-family="Helvetica,sans-Serif" font-size="10.00" fill="#000000">cstdlib</text>
</g>
<!-- Node2&#45;&gt;Node9 -->
<g id="edge11" class="edge">
<title>Node2&#45;&gt;Node9</title>
<path fill="none" stroke="#191970" d="M1421.9375,-179.3906C1444.2598,-169.1457 1479.8037,-152.8326 1505.0757,-141.2339"/>
<polygon fill="#191970" stroke="#191970" points="1506.581,-144.3942 1514.2095,-137.0419 1503.6611,-138.0322 1506.581,-144.3942"/>
</g>
<!-- Node2&#45;&gt;Node10 -->
<g id="edge12" class="edge">
<title>Node2&#45;&gt;Node10</title>
<path fill="none" stroke="#191970" d="M1460.0362,-183.3212C1523.02,-176.5552 1625.4317,-163.5161 1712,-143 1715.4487,-142.1827 1719.0063,-141.2263 1722.5481,-140.1969"/>
<polygon fill="#191970" stroke="#191970" points="1723.8638,-143.4538 1732.3847,-137.1574 1721.7971,-136.7658 1723.8638,-143.4538"/>
</g>
<!-- Node2&#45;&gt;Node11 -->
<g id="edge13" class="edge">
<title>Node2&#45;&gt;Node11</title>
<path fill="none" stroke="#191970" d="M1399.9063,-179.3906C1398.9359,-170.8657 1397.4874,-158.1392 1396.2677,-147.4235"/>
<polygon fill="#191970" stroke="#191970" points="1399.7177,-146.7849 1395.1092,-137.2449 1392.7626,-147.5766 1399.7177,-146.7849"/>
</g>
<!-- Node2&#45;&gt;Node12 -->
<g id="edge14" class="edge">
<title>Node2&#45;&gt;Node12</title>
<path fill="none" stroke="#191970" d="M1341.8129,-187.7212C1167.7762,-183.6871 659.6835,-169.8754 496,-143 490.8101,-142.1479 485.4109,-140.9839 480.1118,-139.6738"/>
<polygon fill="#191970" stroke="#191970" points="480.6896,-136.2059 470.1259,-137.018 478.8904,-142.9707 480.6896,-136.2059"/>
</g>
<!-- Node13 -->
<g id="node14" class="node">
<title>Node13</title>
<polygon fill="#ffffff" stroke="#bfbfbf" points="988,-118 988,-137 1074,-137 1074,-118 988,-118"/>
<text text-anchor="middle" x="1031" y="-125" font-family="Helvetica,sans-Serif" font-size="10.00" fill="#000000">unordered_set</text>
</g>
<!-- Node2&#45;&gt;Node13 -->
<g id="edge15" class="edge">
<title>Node2&#45;&gt;Node13</title>
<path fill="none" stroke="#191970" d="M1341.9263,-183.0675C1277.724,-176.0145 1172.3449,-162.6675 1083,-143 1078.8082,-142.0773 1074.4614,-140.992 1070.1474,-139.8313"/>
<polygon fill="#191970" stroke="#191970" points="1070.8048,-136.38 1060.2297,-137.027 1068.9001,-143.1159 1070.8048,-136.38"/>
</g>
<!-- Node14 -->
<g id="node15" class="node">
<title>Node14</title>
<polygon fill="#ffffff" stroke="#bfbfbf" points="1208.5,-118 1208.5,-137 1255.5,-137 1255.5,-118 1208.5,-118"/>
<text text-anchor="middle" x="1232" y="-125" font-family="Helvetica,sans-Serif" font-size="10.00" fill="#000000">vector</text>
</g>
<!-- Node2&#45;&gt;Node14 -->
<g id="edge16" class="edge">
<title>Node2&#45;&gt;Node14</title>
<path fill="none" stroke="#191970" d="M1369.5764,-179.4821C1341.7739,-170.7992 1300.2621,-157.1919 1265,-143 1263.6054,-142.4387 1262.1856,-141.8482 1260.7571,-141.2386"/>
<polygon fill="#191970" stroke="#191970" points="1261.9405,-137.9339 1251.3827,-137.049 1259.0843,-144.3247 1261.9405,-137.9339"/>
</g>
<!-- Node15 -->
<g id="node16" class="node">
<title>Node15</title>
<polygon fill="#ffffff" stroke="#bfbfbf" points="1092,-118 1092,-137 1190,-137 1190,-118 1092,-118"/>
<text text-anchor="middle" x="1141" y="-125" font-family="Helvetica,sans-Serif" font-size="10.00" fill="#000000">llvm/IR/Module.h</text>
</g>
<!-- Node2&#45;&gt;Node15 -->
<g id="edge17" class="edge">
<title>Node2&#45;&gt;Node15</title>
<path fill="none" stroke="#191970" d="M1356.7542,-179.4213C1315.754,-170.4274 1253.1178,-156.3883 1199,-143 1194.6715,-141.9292 1190.1699,-140.7834 1185.674,-139.6175"/>
<polygon fill="#191970" stroke="#191970" points="1186.471,-136.2083 1175.9101,-137.0548 1184.6939,-142.9789 1186.471,-136.2083"/>
</g>
<!-- Node4&#45;&gt;Node5 -->
<g id="edge5" class="edge">
<title>Node4&#45;&gt;Node5</title>
<path fill="none" stroke="#191970" d="M1601.8125,-117.8906C1578.0533,-107.6005 1540.1595,-91.1888 1513.3575,-79.5809"/>
<polygon fill="#191970" stroke="#191970" points="1514.5991,-76.3045 1504.0317,-75.5419 1511.817,-82.7279 1514.5991,-76.3045"/>
</g>
<!-- Node4&#45;&gt;Node7 -->
<g id="edge7" class="edge">
<title>Node4&#45;&gt;Node7</title>
<path fill="none" stroke="#191970" d="M1593.4179,-117.9841C1585.2286,-115.7256 1576.3343,-113.5306 1568,-112 1408.5118,-82.7101 1216.3231,-71.5953 1126.6677,-67.784"/>
<polygon fill="#191970" stroke="#191970" points="1126.6447,-64.2802 1116.5089,-67.365 1126.3561,-71.2743 1126.6447,-64.2802"/>
</g>
<!-- Node4&#45;&gt;Node8 -->
<g id="edge8" class="edge">
<title>Node4&#45;&gt;Node8</title>
<path fill="none" stroke="#191970" d="M1624,-117.8906C1624,-109.3657 1624,-96.6392 1624,-85.9235"/>
<polygon fill="#191970" stroke="#191970" points="1627.5001,-85.7448 1624,-75.7449 1620.5001,-85.7449 1627.5001,-85.7448"/>
</g>
<!-- Node6 -->
<g id="node7" class="node">
<title>Node6</title>
<polygon fill="#ffffff" stroke="#bfbfbf" points="1454,-.5 1454,-19.5 1510,-19.5 1510,-.5 1454,-.5"/>
<text text-anchor="middle" x="1482" y="-7.5" font-family="Helvetica,sans-Serif" font-size="10.00" fill="#000000">sstream</text>
</g>
<!-- Node5&#45;&gt;Node6 -->
<g id="edge6" class="edge">
<title>Node5&#45;&gt;Node6</title>
<path fill="none" stroke="#191970" d="M1482,-56.2455C1482,-48.9382 1482,-38.6944 1482,-29.7046"/>
<polygon fill="#191970" stroke="#191970" points="1485.5001,-29.6426 1482,-19.6427 1478.5001,-29.6427 1485.5001,-29.6426"/>
</g>
<!-- Node16&#45;&gt;Node3 -->
<g id="edge25" class="edge">
<title>Node16&#45;&gt;Node3</title>
<path fill="none" stroke="#191970" d="M846.5679,-187.409C932.389,-183.925 1113.8734,-173.3376 1264,-143 1268.209,-142.1494 1272.5677,-141.0848 1276.8773,-139.9142"/>
<polygon fill="#191970" stroke="#191970" points="1278.1269,-143.1958 1286.7506,-137.0409 1276.1709,-136.4746 1278.1269,-143.1958"/>
</g>
<!-- Node16&#45;&gt;Node5 -->
<g id="edge26" class="edge">
<title>Node16&#45;&gt;Node5</title>
<path fill="none" stroke="#191970" d="M799.2059,-179.3983C803.6569,-162.4654 815.4533,-127.6131 840,-112 888.3025,-81.2768 1270.6251,-70.2652 1421.2825,-67.0939"/>
<polygon fill="#191970" stroke="#191970" points="1421.3679,-70.593 1431.2937,-66.8876 1421.2236,-63.5945 1421.3679,-70.593"/>
</g>
<!-- Node16&#45;&gt;Node7 -->
<g id="edge27" class="edge">
<title>Node16&#45;&gt;Node7</title>
<path fill="none" stroke="#191970" d="M794.2341,-179.2853C790.2799,-163.1068 785.2076,-130.5893 802,-112 831.0458,-79.846 954.2785,-70.1673 1025.1886,-67.2541"/>
<polygon fill="#191970" stroke="#191970" points="1025.3939,-70.7489 1035.2537,-66.8715 1025.1279,-63.754 1025.3939,-70.7489"/>
</g>
<!-- Node16&#45;&gt;Node8 -->
<g id="edge32" class="edge">
<title>Node16&#45;&gt;Node8</title>
<path fill="none" stroke="#191970" d="M806.2829,-179.2274C825.6155,-158.9263 868.7607,-113.9078 873,-112 940.782,-81.4954 1466.9504,-82.4491 1541,-76 1556.9401,-74.6118 1574.5435,-72.5647 1589.4216,-70.6837"/>
<polygon fill="#191970" stroke="#191970" points="1590.2413,-74.107 1599.7108,-69.3552 1589.3449,-67.1646 1590.2413,-74.107"/>
</g>
<!-- Node16&#45;&gt;Node11 -->
<g id="edge21" class="edge">
<title>Node16&#45;&gt;Node11</title>
<path fill="none" stroke="#191970" d="M846.8997,-187.3787C966.4553,-183.1035 1266.5035,-169.9526 1363,-143 1364.7133,-142.5215 1366.4442,-141.9468 1368.166,-141.3045"/>
<polygon fill="#191970" stroke="#191970" points="1369.9991,-144.3215 1377.7384,-137.0859 1367.1762,-137.9159 1369.9991,-144.3215"/>
</g>
<!-- Node16&#45;&gt;Node12 -->
<g id="edge22" class="edge">
<title>Node16&#45;&gt;Node12</title>
<path fill="none" stroke="#191970" d="M747.3885,-183.3188C687.4426,-176.0178 583.7049,-161.9847 496,-143 491.5156,-142.0293 486.8564,-140.9034 482.2318,-139.7101"/>
<polygon fill="#191970" stroke="#191970" points="482.8106,-136.2415 472.2448,-137.0242 480.9926,-143.0013 482.8106,-136.2415"/>
</g>
<!-- Node16&#45;&gt;Node13 -->
<g id="edge23" class="edge">
<title>Node16&#45;&gt;Node13</title>
<path fill="none" stroke="#191970" d="M836.2973,-179.4415C873.0322,-170.4048 929.3654,-156.2872 978,-143 981.6356,-142.0067 985.4044,-140.953 989.1798,-139.8808"/>
<polygon fill="#191970" stroke="#191970" points="990.4583,-143.1551 999.102,-137.0284 988.5242,-136.4276 990.4583,-143.1551"/>
</g>
<!-- Node16&#45;&gt;Node14 -->
<g id="edge24" class="edge">
<title>Node16&#45;&gt;Node14</title>
<path fill="none" stroke="#191970" d="M846.5656,-185.3483C938.9222,-178.2108 1133.8713,-161.4831 1199,-143 1200.9181,-142.4557 1202.8638,-141.8106 1204.8013,-141.0978"/>
<polygon fill="#191970" stroke="#191970" points="1206.3927,-144.2256 1214.2542,-137.1229 1203.6793,-137.7728 1206.3927,-144.2256"/>
</g>
<!-- Node16&#45;&gt;Node15 -->
<g id="edge29" class="edge">
<title>Node16&#45;&gt;Node15</title>
<path fill="none" stroke="#191970" d="M846.628,-182.5786C903.8928,-174.8088 1000.7417,-160.5591 1083,-143 1087.7812,-141.9794 1092.7576,-140.8124 1097.697,-139.587"/>
<polygon fill="#191970" stroke="#191970" points="1098.8934,-142.8934 1107.7096,-137.0176 1097.1534,-136.1131 1098.8934,-142.8934"/>
</g>
<!-- Node16&#45;&gt;Node17 -->
<g id="edge20" class="edge">
<title>Node16&#45;&gt;Node17</title>
<path fill="none" stroke="#191970" d="M747.2639,-187.9916C633.2163,-185.1785 344.253,-175.2001 105,-143 92.9232,-141.3746 79.888,-138.9616 68.0809,-136.5208"/>
<polygon fill="#191970" stroke="#191970" points="68.5862,-133.05 58.0762,-134.3879 67.1266,-139.8961 68.5862,-133.05"/>
</g>
<!-- Node18 -->
<g id="node19" class="node">
<title>Node18</title>
<polygon fill="#ffffff" stroke="#bfbfbf" points="114.5,-118 114.5,-137 241.5,-137 241.5,-118 114.5,-118"/>
<text text-anchor="middle" x="178" y="-125" font-family="Helvetica,sans-Serif" font-size="10.00" fill="#000000">llvm/IR/LLVMContext.h</text>
</g>
<!-- Node16&#45;&gt;Node18 -->
<g id="edge28" class="edge">
<title>Node16&#45;&gt;Node18</title>
<path fill="none" stroke="#191970" d="M747.4471,-186.905C651.2915,-182.3808 432.861,-169.8602 251,-143 243.6031,-141.9075 235.8314,-140.5199 228.2297,-139.0257"/>
<polygon fill="#191970" stroke="#191970" points="228.8782,-135.586 218.3803,-137.0159 227.4786,-142.4446 228.8782,-135.586"/>
</g>
<!-- Node19 -->
<g id="node20" class="node">
<title>Node19</title>
<polygon fill="#ffffff" stroke="#bfbfbf" points="882.5,-118 882.5,-137 969.5,-137 969.5,-118 882.5,-118"/>
<text text-anchor="middle" x="926" y="-125" font-family="Helvetica,sans-Serif" font-size="10.00" fill="#000000">llvm/IR/Type.h</text>
</g>
<!-- Node16&#45;&gt;Node19 -->
<g id="edge30" class="edge">
<title>Node16&#45;&gt;Node19</title>
<path fill="none" stroke="#191970" d="M817.1563,-179.3906C838.551,-169.1908 872.562,-152.9763 896.8702,-141.3875"/>
<polygon fill="#191970" stroke="#191970" points="898.4648,-144.5047 905.9853,-137.0419 895.4524,-138.186 898.4648,-144.5047"/>
</g>
<!-- Node20 -->
<g id="node21" class="node">
<title>Node20</title>
<polygon fill="#ffffff" stroke="#bfbfbf" points="260,-112.5 260,-142.5 376,-142.5 376,-112.5 260,-112.5"/>
<text text-anchor="start" x="268" y="-130.5" font-family="Helvetica,sans-Serif" font-size="10.00" fill="#000000">llvm/Support/raw_os</text>
<text text-anchor="middle" x="318" y="-119.5" font-family="Helvetica,sans-Serif" font-size="10.00" fill="#000000">_ostream.h</text>
</g>
<!-- Node16&#45;&gt;Node20 -->
<g id="edge31" class="edge">
<title>Node16&#45;&gt;Node20</title>
<path fill="none" stroke="#191970" d="M747.2723,-185.3244C671.4714,-179.3105 522.337,-165.8653 386.2148,-143.085"/>
<polygon fill="#191970" stroke="#191970" points="386.4656,-139.5776 376.0212,-141.3572 385.2957,-146.4792 386.4656,-139.5776"/>
</g>
<!-- Node21 -->
<g id="node22" class="node">
<title>Node21</title>
<polygon fill="#ffffff" stroke="#bfbfbf" points="505.5,-118 505.5,-137 624.5,-137 624.5,-118 505.5,-118"/>
<text text-anchor="middle" x="565" y="-125" font-family="Helvetica,sans-Serif" font-size="10.00" fill="#000000">boost/filesystem.hpp</text>
</g>
<!-- Node16&#45;&gt;Node21 -->
<g id="edge33" class="edge">
<title>Node16&#45;&gt;Node21</title>
<path fill="none" stroke="#191970" d="M761.0046,-179.4581C720.6223,-168.7533 655.0189,-151.3628 610.9612,-139.6837"/>
<polygon fill="#191970" stroke="#191970" points="611.6429,-136.2436 601.0799,-137.0643 609.8492,-143.0099 611.6429,-136.2436"/>
</g>
<!-- Node22 -->
<g id="node23" class="node">
<title>Node22</title>
<polygon fill="#ffffff" stroke="#bfbfbf" points="642.5,-118 642.5,-137 749.5,-137 749.5,-118 642.5,-118"/>
<text text-anchor="middle" x="696" y="-125" font-family="Helvetica,sans-Serif" font-size="10.00" fill="#000000">boost/optional.hpp</text>
</g>
<!-- Node16&#45;&gt;Node22 -->
<g id="edge34" class="edge">
<title>Node16&#45;&gt;Node22</title>
<path fill="none" stroke="#191970" d="M781.2188,-179.3906C764.9125,-169.4616 739.246,-153.833 720.3386,-142.3201"/>
<polygon fill="#191970" stroke="#191970" points="722.0319,-139.2533 711.6704,-137.0419 718.3913,-145.2322 722.0319,-139.2533"/>
</g>
<!-- Node23&#45;&gt;Node2 -->
<g id="edge36" class="edge">
<title>Node23&#45;&gt;Node2</title>
<path fill="none" stroke="#191970" d="M1402.6516,-235.2455C1402.3907,-227.9382 1402.0248,-217.6944 1401.7037,-208.7046"/>
<polygon fill="#191970" stroke="#191970" points="1405.1992,-208.5113 1401.3444,-198.6427 1398.2036,-208.7613 1405.1992,-208.5113"/>
</g>
<!-- Node23&#45;&gt;Node3 -->
<g id="edge37" class="edge">
<title>Node23&#45;&gt;Node3</title>
<path fill="none" stroke="#191970" d="M1380.2404,-235.3977C1364.7238,-227.7243 1344.9048,-215.5152 1333,-199 1322.0006,-183.7407 1317.368,-162.5402 1315.4175,-147.1902"/>
<polygon fill="#191970" stroke="#191970" points="1318.8977,-146.817 1314.4185,-137.2156 1311.9325,-147.5147 1318.8977,-146.817"/>
</g>
<!-- Node23&#45;&gt;Node19 -->
<g id="edge38" class="edge">
<title>Node23&#45;&gt;Node19</title>
<path fill="none" stroke="#191970" d="M1360.4006,-235.471C1283.7943,-218.1752 1117.8224,-179.9742 979,-143 975.2004,-141.988 971.2578,-140.9024 967.3156,-139.7928"/>
<polygon fill="#191970" stroke="#191970" points="968.1757,-136.3985 957.5988,-137.0132 966.2505,-143.1286 968.1757,-136.3985"/>
</g>
<!-- Node24&#45;&gt;Node4 -->
<g id="edge42" class="edge">
<title>Node24&#45;&gt;Node4</title>
<path fill="none" stroke="#191970" d="M993.1252,-300.2449C1110.4972,-297.9852 1381.2907,-289.1228 1466,-255 1527.3004,-230.3069 1583.5598,-173.3932 1609.2808,-144.7004"/>
<polygon fill="#191970" stroke="#191970" points="1612.0021,-146.906 1615.9805,-137.0865 1606.7469,-142.2818 1612.0021,-146.906"/>
</g>
<!-- Node24&#45;&gt;Node7 -->
<g id="edge43" class="edge">
<title>Node24&#45;&gt;Node7</title>
<path fill="none" stroke="#191970" d="M882.9949,-297.5785C771.2049,-290.3577 520.9586,-272.76 437,-255 279.8172,-221.7506 -5.884,-228.2613 105,-112 136.9887,-78.46 829.2734,-68.6083 1024.9167,-66.4891"/>
<polygon fill="#191970" stroke="#191970" points="1025.2417,-69.986 1035.204,-66.3799 1025.1674,-62.9864 1025.2417,-69.986"/>
</g>
<!-- Node24&#45;&gt;Node15 -->
<g id="edge51" class="edge">
<title>Node24&#45;&gt;Node15</title>
<path fill="none" stroke="#191970" d="M938.5448,-291.4821C939.7817,-277.6874 943.821,-251.9399 957,-235 994.331,-187.0159 1059.5509,-156.34 1101.4743,-140.5231"/>
<polygon fill="#191970" stroke="#191970" points="1102.8953,-143.7301 1111.0816,-137.0043 1100.4878,-137.1571 1102.8953,-143.7301"/>
</g>
<!-- Node24&#45;&gt;Node16 -->
<g id="edge40" class="edge">
<title>Node24&#45;&gt;Node16</title>
<path fill="none" stroke="#191970" d="M931.0177,-291.0953C920.9276,-277.2859 901.1478,-252.0298 880,-235 864.2322,-222.3026 844.4778,-211.1961 828.197,-203.0788"/>
<polygon fill="#191970" stroke="#191970" points="829.5944,-199.8667 819.069,-198.6555 826.5417,-206.166 829.5944,-199.8667"/>
</g>
<!-- Node24&#45;&gt;Node18 -->
<g id="edge50" class="edge">
<title>Node24&#45;&gt;Node18</title>
<path fill="none" stroke="#191970" d="M882.7794,-299.738C800.0115,-296.8122 639.3648,-287.1145 507,-255 391.8754,-227.0684 262.9375,-168.5773 206.7538,-141.6371"/>
<polygon fill="#191970" stroke="#191970" points="207.9664,-138.336 197.4394,-137.1392 204.9224,-144.6395 207.9664,-138.336"/>
</g>
<!-- Node24&#45;&gt;Node23 -->
<g id="edge41" class="edge">
<title>Node24&#45;&gt;Node23</title>
<path fill="none" stroke="#191970" d="M993.0395,-295.4678C1068.5949,-287.7037 1208.9274,-272.6769 1338.6132,-255.1437"/>
<polygon fill="#191970" stroke="#191970" points="1339.2889,-258.5842 1348.726,-253.7684 1338.3455,-251.648 1339.2889,-258.5842"/>
</g>
<!-- Node25 -->
<g id="node26" class="node">
<title>Node25</title>
<polygon fill="#ffffff" stroke="#bfbfbf" points="966.5,-235.5 966.5,-254.5 1019.5,-254.5 1019.5,-235.5 966.5,-235.5"/>
<text text-anchor="middle" x="993" y="-242.5" font-family="Helvetica,sans-Serif" font-size="10.00" fill="#000000">iterator</text>
</g>
<!-- Node24&#45;&gt;Node25 -->
<g id="edge44" class="edge">
<title>Node24&#45;&gt;Node25</title>
<path fill="none" stroke="#191970" d="M947.5803,-291.2455C955.5458,-283.1352 967.0641,-271.4075 976.5079,-261.7919"/>
<polygon fill="#191970" stroke="#191970" points="979.0195,-264.2297 983.5295,-254.6427 974.0253,-259.3247 979.0195,-264.2297"/>
</g>
<!-- Node26 -->
<g id="node27" class="node">
<title>Node26</title>
<polygon fill="#ffffff" stroke="#bfbfbf" points="1037.5,-235.5 1037.5,-254.5 1082.5,-254.5 1082.5,-235.5 1037.5,-235.5"/>
<text text-anchor="middle" x="1060" y="-242.5" font-family="Helvetica,sans-Serif" font-size="10.00" fill="#000000">utility</text>
</g>
<!-- Node24&#45;&gt;Node26 -->
<g id="edge45" class="edge">
<title>Node24&#45;&gt;Node26</title>
<path fill="none" stroke="#191970" d="M958.9725,-291.3733C978.5567,-282.3838 1007.9961,-268.8706 1030.051,-258.7471"/>
<polygon fill="#191970" stroke="#191970" points="1031.6729,-261.8538 1039.3011,-254.5011 1028.7527,-255.4919 1031.6729,-261.8538"/>
</g>
<!-- Node27 -->
<g id="node28" class="node">
<title>Node27</title>
<polygon fill="#ffffff" stroke="#bfbfbf" points="1101,-235.5 1101,-254.5 1209,-254.5 1209,-235.5 1101,-235.5"/>
<text text-anchor="middle" x="1155" y="-242.5" font-family="Helvetica,sans-Serif" font-size="10.00" fill="#000000">llvm/IR/DIBuilder.h</text>
</g>
<!-- Node24&#45;&gt;Node27 -->
<g id="edge46" class="edge">
<title>Node24&#45;&gt;Node27</title>
<path fill="none" stroke="#191970" d="M975.3036,-291.3733C1012.1685,-281.8598 1068.666,-267.2797 1108.4506,-257.0127"/>
<polygon fill="#191970" stroke="#191970" points="1109.375,-260.3889 1118.1831,-254.5011 1107.6258,-253.611 1109.375,-260.3889"/>
</g>
<!-- Node28 -->
<g id="node29" class="node">
<title>Node28</title>
<polygon fill="#ffffff" stroke="#bfbfbf" points="1227,-235.5 1227,-254.5 1331,-254.5 1331,-235.5 1227,-235.5"/>
<text text-anchor="middle" x="1279" y="-242.5" font-family="Helvetica,sans-Serif" font-size="10.00" fill="#000000">llvm/IR/Function.h</text>
</g>
<!-- Node24&#45;&gt;Node28 -->
<g id="edge47" class="edge">
<title>Node24&#45;&gt;Node28</title>
<path fill="none" stroke="#191970" d="M993.1665,-291.9404C1054.4483,-281.8765 1153.1515,-265.6672 1217.0443,-255.1745"/>
<polygon fill="#191970" stroke="#191970" points="1217.6882,-258.6158 1226.9888,-253.5414 1216.5538,-251.7083 1217.6882,-258.6158"/>
</g>
<!-- Node29 -->
<g id="node30" class="node">
<title>Node29</title>
<polygon fill="#ffffff" stroke="#bfbfbf" points="516.5,-235.5 516.5,-254.5 623.5,-254.5 623.5,-235.5 516.5,-235.5"/>
<text text-anchor="middle" x="570" y="-242.5" font-family="Helvetica,sans-Serif" font-size="10.00" fill="#000000">llvm/IR/IRBuilder.h</text>
</g>
<!-- Node24&#45;&gt;Node29 -->
<g id="edge48" class="edge">
<title>Node24&#45;&gt;Node29</title>
<path fill="none" stroke="#191970" d="M882.8814,-292.8179C823.8695,-284.0283 727.207,-269.5466 633.5429,-255.0748"/>
<polygon fill="#191970" stroke="#191970" points="634.0293,-251.6085 623.6118,-253.5387 632.9592,-258.5263 634.0293,-251.6085"/>
</g>
<!-- Node30 -->
<g id="node31" class="node">
<title>Node30</title>
<polygon fill="#ffffff" stroke="#bfbfbf" points="642,-235.5 642,-254.5 762,-254.5 762,-235.5 642,-235.5"/>
<text text-anchor="middle" x="702" y="-242.5" font-family="Helvetica,sans-Serif" font-size="10.00" fill="#000000">llvm/IR/Instructions.h</text>
</g>
<!-- Node24&#45;&gt;Node30 -->
<g id="edge49" class="edge">
<title>Node24&#45;&gt;Node30</title>
<path fill="none" stroke="#191970" d="M897.6983,-291.4369C857.3936,-281.8731 795.3179,-267.1432 751.9182,-256.845"/>
<polygon fill="#191970" stroke="#191970" points="752.6734,-253.4271 742.1355,-254.5237 751.0572,-260.238 752.6734,-253.4271"/>
</g>
<!-- Node31 -->
<g id="node32" class="node">
<title>Node31</title>
<polygon fill="#ffffff" stroke="#bfbfbf" points="780.5,-235.5 780.5,-254.5 871.5,-254.5 871.5,-235.5 780.5,-235.5"/>
<text text-anchor="middle" x="826" y="-242.5" font-family="Helvetica,sans-Serif" font-size="10.00" fill="#000000">llvm/IR/Value.h</text>
</g>
<!-- Node24&#45;&gt;Node31 -->
<g id="edge52" class="edge">
<title>Node24&#45;&gt;Node31</title>
<path fill="none" stroke="#191970" d="M918.7465,-291.3733C900.9288,-282.4644 874.2253,-269.1127 854.0406,-259.0203"/>
<polygon fill="#191970" stroke="#191970" points="855.5118,-255.8428 845.0022,-254.5011 852.3813,-262.1038 855.5118,-255.8428"/>
</g>
</g>
</svg>
