<?xml version="1.0" encoding="UTF-8" standalone="no"?>
<!DOCTYPE svg PUBLIC "-//W3C//DTD SVG 1.1//EN"
 "http://www.w3.org/Graphics/SVG/1.1/DTD/svg11.dtd">
<!-- Generated by graphviz version 2.40.1 (20161225.0304)
 -->
<!-- Title: libchig/include/chig/LangModule.hpp Pages: 1 -->
<svg width="869pt" height="218pt"
 viewBox="0.00 0.00 868.50 218.00" xmlns="http://www.w3.org/2000/svg" xmlns:xlink="http://www.w3.org/1999/xlink">
<g id="graph0" class="graph" transform="scale(1 1) rotate(0) translate(4 214)">
<title>libchig/include/chig/LangModule.hpp</title>
<polygon fill="#ffffff" stroke="transparent" points="-4,4 -4,-214 864.5,-214 864.5,4 -4,4"/>
<!-- Node0 -->
<g id="node1" class="node">
<title>Node0</title>
<polygon fill="#bfbfbf" stroke="#000000" points="650.5,-179.5 650.5,-209.5 749.5,-209.5 749.5,-179.5 650.5,-179.5"/>
<text text-anchor="start" x="658.5" y="-197.5" font-family="Helvetica,sans-Serif" font-size="10.00" fill="#000000">libchig/include/chig</text>
<text text-anchor="middle" x="700" y="-186.5" font-family="Helvetica,sans-Serif" font-size="10.00" fill="#000000">/LangModule.hpp</text>
</g>
<!-- Node1 -->
<g id="node2" class="node">
<title>Node1</title>
<g id="a_node2"><a xlink:href="ChigModule_8hpp.html" target="_top" xlink:title="Defines the ChigModule class. ">
<polygon fill="#ffffff" stroke="#000000" points="428.5,-123.5 428.5,-142.5 535.5,-142.5 535.5,-123.5 428.5,-123.5"/>
<text text-anchor="middle" x="482" y="-130.5" font-family="Helvetica,sans-Serif" font-size="10.00" fill="#000000">chig/ChigModule.hpp</text>
</a>
</g>
</g>
<!-- Node0&#45;&gt;Node1 -->
<g id="edge1" class="edge">
<title>Node0&#45;&gt;Node1</title>
<path fill="none" stroke="#191970" d="M650.2596,-180.4677C612.6985,-169.8714 561.6488,-155.4697 525.6605,-145.3171"/>
<polygon fill="#191970" stroke="#191970" points="526.5077,-141.9195 515.933,-142.5728 524.6071,-148.6566 526.5077,-141.9195"/>
</g>
<!-- Node11 -->
<g id="node12" class="node">
<title>Node11</title>
<g id="a_node12"><a xlink:href="Result_8hpp.html" target="_top" xlink:title="Defines the Result class and related functions. ">
<polygon fill="#ffffff" stroke="#000000" points="658,-123.5 658,-142.5 742,-142.5 742,-123.5 658,-123.5"/>
<text text-anchor="middle" x="700" y="-130.5" font-family="Helvetica,sans-Serif" font-size="10.00" fill="#000000">chig/Result.hpp</text>
</a>
</g>
</g>
<!-- Node0&#45;&gt;Node11 -->
<g id="edge12" class="edge">
<title>Node0&#45;&gt;Node11</title>
<path fill="none" stroke="#191970" d="M700,-179.2977C700,-171.3834 700,-161.6043 700,-153.0759"/>
<polygon fill="#191970" stroke="#191970" points="703.5001,-152.8469 700,-142.8469 696.5001,-152.847 703.5001,-152.8469"/>
</g>
<!-- Node13 -->
<g id="node14" class="node">
<title>Node13</title>
<polygon fill="#ffffff" stroke="#bfbfbf" points="760.5,-123.5 760.5,-142.5 843.5,-142.5 843.5,-123.5 760.5,-123.5"/>
<text text-anchor="middle" x="802" y="-130.5" font-family="Helvetica,sans-Serif" font-size="10.00" fill="#000000">unordered_map</text>
</g>
<!-- Node0&#45;&gt;Node13 -->
<g id="edge16" class="edge">
<title>Node0&#45;&gt;Node13</title>
<path fill="none" stroke="#191970" d="M724.952,-179.4554C740.9259,-169.8241 761.5602,-157.3828 777.4543,-147.7996"/>
<polygon fill="#191970" stroke="#191970" points="779.437,-150.6912 786.1936,-142.5303 775.8226,-144.6965 779.437,-150.6912"/>
</g>
<!-- Node2 -->
<g id="node3" class="node">
<title>Node2</title>
<g id="a_node3"><a xlink:href="Fwd_8hpp.html" target="_top" xlink:title="Forward declares all the chigraph data types. ">
<polygon fill="#ffffff" stroke="#000000" points="316,-62 316,-81 390,-81 390,-62 316,-62"/>
<text text-anchor="middle" x="353" y="-69" font-family="Helvetica,sans-Serif" font-size="10.00" fill="#000000">chig/Fwd.hpp</text>
</a>
</g>
</g>
<!-- Node1&#45;&gt;Node2 -->
<g id="edge2" class="edge">
<title>Node1&#45;&gt;Node2</title>
<path fill="none" stroke="#191970" d="M461.8438,-123.3906C440.449,-113.1908 406.438,-96.9763 382.1298,-85.3875"/>
<polygon fill="#191970" stroke="#191970" points="383.5476,-82.186 373.0147,-81.0419 380.5352,-88.5047 383.5476,-82.186"/>
</g>
<!-- Node3 -->
<g id="node4" class="node">
<title>Node3</title>
<g id="a_node4"><a xlink:href="HashFilesystemPath_8hpp_source.html" target="_top" xlink:title="chig/HashFilesystemPath.hpp">
<polygon fill="#ffffff" stroke="#000000" points="408.5,-62 408.5,-81 555.5,-81 555.5,-62 408.5,-62"/>
<text text-anchor="middle" x="482" y="-69" font-family="Helvetica,sans-Serif" font-size="10.00" fill="#000000">chig/HashFilesystemPath.hpp</text>
</a>
</g>
</g>
<!-- Node1&#45;&gt;Node3 -->
<g id="edge3" class="edge">
<title>Node1&#45;&gt;Node3</title>
<path fill="none" stroke="#191970" d="M482,-123.3906C482,-114.8657 482,-102.1392 482,-91.4235"/>
<polygon fill="#191970" stroke="#191970" points="485.5001,-91.2448 482,-81.2449 478.5001,-91.2449 485.5001,-91.2448"/>
</g>
<!-- Node4 -->
<g id="node5" class="node">
<title>Node4</title>
<polygon fill="#ffffff" stroke="#bfbfbf" points="479.5,-.5 479.5,-19.5 586.5,-19.5 586.5,-.5 479.5,-.5"/>
<text text-anchor="middle" x="533" y="-7.5" font-family="Helvetica,sans-Serif" font-size="10.00" fill="#000000">boost/filesystem.hpp</text>
</g>
<!-- Node1&#45;&gt;Node4 -->
<g id="edge9" class="edge">
<title>Node1&#45;&gt;Node4</title>
<path fill="none" stroke="#191970" d="M515.5002,-123.3574C533.2612,-116.3494 553.524,-104.8886 564,-87 575.2445,-67.7991 561.6473,-43.7485 549.0843,-27.6834"/>
<polygon fill="#191970" stroke="#191970" points="551.4757,-25.0871 542.3756,-19.6614 546.106,-29.5778 551.4757,-25.0871"/>
</g>
<!-- Node5 -->
<g id="node6" class="node">
<title>Node5</title>
<g id="a_node6"><a xlink:href="ToString_8hpp_source.html" target="_top" xlink:title="chig/ToString.hpp">
<polygon fill="#ffffff" stroke="#000000" points="704.5,-62 704.5,-81 797.5,-81 797.5,-62 704.5,-62"/>
<text text-anchor="middle" x="751" y="-69" font-family="Helvetica,sans-Serif" font-size="10.00" fill="#000000">chig/ToString.hpp</text>
</a>
</g>
</g>
<!-- Node1&#45;&gt;Node5 -->
<g id="edge5" class="edge">
<title>Node1&#45;&gt;Node5</title>
<path fill="none" stroke="#191970" d="M529.9765,-123.4578C573.2651,-114.6537 638.6116,-100.8805 695,-87 699.1324,-85.9828 703.4236,-84.8799 707.7091,-83.7472"/>
<polygon fill="#191970" stroke="#191970" points="708.8757,-87.0577 717.6207,-81.0763 707.0544,-80.2988 708.8757,-87.0577"/>
</g>
<!-- Node7 -->
<g id="node8" class="node">
<title>Node7</title>
<polygon fill="#ffffff" stroke="#bfbfbf" points="612,-62 612,-81 686,-81 686,-62 612,-62"/>
<text text-anchor="middle" x="649" y="-69" font-family="Helvetica,sans-Serif" font-size="10.00" fill="#000000">chig/json.hpp</text>
</g>
<!-- Node1&#45;&gt;Node7 -->
<g id="edge7" class="edge">
<title>Node1&#45;&gt;Node7</title>
<path fill="none" stroke="#191970" d="M508.0938,-123.3906C536.4036,-112.9652 581.7768,-96.2559 613.3592,-84.6252"/>
<polygon fill="#191970" stroke="#191970" points="614.9151,-87.7821 623.0895,-81.0419 612.496,-81.2133 614.9151,-87.7821"/>
</g>
<!-- Node8 -->
<g id="node9" class="node">
<title>Node8</title>
<polygon fill="#ffffff" stroke="#bfbfbf" points="0,-56.5 0,-86.5 94,-86.5 94,-56.5 0,-56.5"/>
<text text-anchor="start" x="8" y="-74.5" font-family="Helvetica,sans-Serif" font-size="10.00" fill="#000000">boost/utility/string</text>
<text text-anchor="middle" x="47" y="-63.5" font-family="Helvetica,sans-Serif" font-size="10.00" fill="#000000">_view.hpp</text>
</g>
<!-- Node1&#45;&gt;Node8 -->
<g id="edge8" class="edge">
<title>Node1&#45;&gt;Node8</title>
<path fill="none" stroke="#191970" d="M428.252,-129.0184C356.4515,-123.139 225.1878,-110.4342 104.3983,-87.1016"/>
<polygon fill="#191970" stroke="#191970" points="104.7244,-83.5989 94.2377,-85.1085 103.3769,-90.468 104.7244,-83.5989"/>
</g>
<!-- Node9 -->
<g id="node10" class="node">
<title>Node9</title>
<polygon fill="#ffffff" stroke="#bfbfbf" points="112,-62 112,-81 190,-81 190,-62 112,-62"/>
<text text-anchor="middle" x="151" y="-69" font-family="Helvetica,sans-Serif" font-size="10.00" fill="#000000">unordered_set</text>
</g>
<!-- Node1&#45;&gt;Node9 -->
<g id="edge10" class="edge">
<title>Node1&#45;&gt;Node9</title>
<path fill="none" stroke="#191970" d="M428.3181,-126.7326C371.0374,-119.4749 277.873,-106.0293 199,-87 195.3821,-86.1271 191.6425,-85.1169 187.9213,-84.0389"/>
<polygon fill="#191970" stroke="#191970" points="188.7967,-80.6467 178.2105,-81.0752 186.7533,-87.3419 188.7967,-80.6467"/>
</g>
<!-- Node10 -->
<g id="node11" class="node">
<title>Node10</title>
<polygon fill="#ffffff" stroke="#bfbfbf" points="208,-62 208,-81 298,-81 298,-62 208,-62"/>
<text text-anchor="middle" x="253" y="-69" font-family="Helvetica,sans-Serif" font-size="10.00" fill="#000000">llvm/IR/Module.h</text>
</g>
<!-- Node1&#45;&gt;Node10 -->
<g id="edge11" class="edge">
<title>Node1&#45;&gt;Node10</title>
<path fill="none" stroke="#191970" d="M444.7242,-123.4607C409.2508,-114.3215 354.4043,-100.0319 307,-87 303.2455,-85.9678 299.3488,-84.8807 295.4455,-83.7807"/>
<polygon fill="#191970" stroke="#191970" points="296.3824,-80.4085 285.8067,-81.0444 294.4706,-87.1424 296.3824,-80.4085"/>
</g>
<!-- Node3&#45;&gt;Node4 -->
<g id="edge4" class="edge">
<title>Node3&#45;&gt;Node4</title>
<path fill="none" stroke="#191970" d="M489.9688,-61.8906C497.5591,-52.7376 509.1661,-38.7409 518.4132,-27.59"/>
<polygon fill="#191970" stroke="#191970" points="521.2297,-29.6766 524.9189,-19.7449 515.8413,-25.2083 521.2297,-29.6766"/>
</g>
<!-- Node6 -->
<g id="node7" class="node">
<title>Node6</title>
<polygon fill="#ffffff" stroke="#bfbfbf" points="725,-.5 725,-19.5 777,-19.5 777,-.5 725,-.5"/>
<text text-anchor="middle" x="751" y="-7.5" font-family="Helvetica,sans-Serif" font-size="10.00" fill="#000000">sstream</text>
</g>
<!-- Node5&#45;&gt;Node6 -->
<g id="edge6" class="edge">
<title>Node5&#45;&gt;Node6</title>
<path fill="none" stroke="#191970" d="M751,-61.8906C751,-53.3657 751,-40.6392 751,-29.9235"/>
<polygon fill="#191970" stroke="#191970" points="754.5001,-29.7448 751,-19.7449 747.5001,-29.7449 754.5001,-29.7448"/>
</g>
<!-- Node11&#45;&gt;Node5 -->
<g id="edge13" class="edge">
<title>Node11&#45;&gt;Node5</title>
<path fill="none" stroke="#191970" d="M707.9688,-123.3906C715.5591,-114.2376 727.1661,-100.2409 736.4132,-89.09"/>
<polygon fill="#191970" stroke="#191970" points="739.2297,-91.1766 742.9189,-81.2449 733.8413,-86.7083 739.2297,-91.1766"/>
</g>
<!-- Node11&#45;&gt;Node7 -->
<g id="edge14" class="edge">
<title>Node11&#45;&gt;Node7</title>
<path fill="none" stroke="#191970" d="M692.0313,-123.3906C684.4409,-114.2376 672.8339,-100.2409 663.5868,-89.09"/>
<polygon fill="#191970" stroke="#191970" points="666.1587,-86.7083 657.0811,-81.2449 660.7703,-91.1766 666.1587,-86.7083"/>
</g>
<!-- Node12 -->
<g id="node13" class="node">
<title>Node12</title>
<polygon fill="#ffffff" stroke="#bfbfbf" points="815.5,-62 815.5,-81 860.5,-81 860.5,-62 815.5,-62"/>
<text text-anchor="middle" x="838" y="-69" font-family="Helvetica,sans-Serif" font-size="10.00" fill="#000000">gsl/gsl</text>
</g>
<!-- Node11&#45;&gt;Node12 -->
<g id="edge15" class="edge">
<title>Node11&#45;&gt;Node12</title>
<path fill="none" stroke="#191970" d="M723.5499,-123.3347C745.3456,-114.2811 778.5752,-100.2029 807,-87 808.0096,-86.5311 809.0352,-86.049 810.0691,-85.558"/>
<polygon fill="#191970" stroke="#191970" points="811.9362,-88.5419 819.3967,-81.0191 808.8733,-82.2476 811.9362,-88.5419"/>
</g>
</g>
</svg>
