<?xml version="1.0" encoding="UTF-8" standalone="no"?>
<!DOCTYPE svg PUBLIC "-//W3C//DTD SVG 1.1//EN"
 "http://www.w3.org/Graphics/SVG/1.1/DTD/svg11.dtd">
<!-- Generated by graphviz version 2.40.1 (20161225.0304)
 -->
<!-- Title: libchigraph/src/LangModule.cpp Pages: 1 -->
<svg width="1841pt" height="263pt"
 viewBox="0.00 0.00 1840.50 263.00" xmlns="http://www.w3.org/2000/svg" xmlns:xlink="http://www.w3.org/1999/xlink">
<g id="graph0" class="graph" transform="scale(1 1) rotate(0) translate(4 259)">
<title>libchigraph/src/LangModule.cpp</title>
<polygon fill="#ffffff" stroke="transparent" points="-4,4 -4,-259 1836.5,-259 1836.5,4 -4,4"/>
<!-- Node0 -->
<g id="node1" class="node">
<title>Node0</title>
<polygon fill="#bfbfbf" stroke="#000000" points="1063,-235.5 1063,-254.5 1217,-254.5 1217,-235.5 1063,-235.5"/>
<text text-anchor="middle" x="1140" y="-242.5" font-family="Helvetica,sans-Serif" font-size="10.00" fill="#000000">libchigraph/src/LangModule.cpp</text>
</g>
<!-- Node1 -->
<g id="node2" class="node">
<title>Node1</title>
<g id="a_node2"><a xlink:href="LangModule_8hpp.html" target="_top" xlink:title="Defines the LangModule class. ">
<polygon fill="#ffffff" stroke="#000000" points="805,-179.5 805,-198.5 909,-198.5 909,-179.5 805,-179.5"/>
<text text-anchor="middle" x="857" y="-186.5" font-family="Helvetica,sans-Serif" font-size="10.00" fill="#000000">chi/LangModule.hpp</text>
</a>
</g>
</g>
<!-- Node0&#45;&gt;Node1 -->
<g id="edge1" class="edge">
<title>Node0&#45;&gt;Node1</title>
<path fill="none" stroke="#191970" d="M1091.6721,-235.4369C1042.8319,-225.7724 967.3324,-210.8326 915.2236,-200.5213"/>
<polygon fill="#191970" stroke="#191970" points="915.6178,-197.0315 905.1285,-198.5237 914.2589,-203.8983 915.6178,-197.0315"/>
</g>
<!-- Node11 -->
<g id="node12" class="node">
<title>Node11</title>
<g id="a_node12"><a xlink:href="Context_8hpp.html" target="_top" xlink:title="Defines the Context class and related functions. ">
<polygon fill="#ffffff" stroke="#000000" points="642.5,-123.5 642.5,-142.5 727.5,-142.5 727.5,-123.5 642.5,-123.5"/>
<text text-anchor="middle" x="685" y="-130.5" font-family="Helvetica,sans-Serif" font-size="10.00" fill="#000000">chi/Context.hpp</text>
</a>
</g>
</g>
<!-- Node0&#45;&gt;Node11 -->
<g id="edge13" class="edge">
<title>Node0&#45;&gt;Node11</title>
<path fill="none" stroke="#191970" d="M1062.8002,-239.311C973.3301,-231.9797 831.8004,-217.8944 782,-199 751.6126,-187.4709 721.4219,-164.6733 702.9879,-149.1333"/>
<polygon fill="#191970" stroke="#191970" points="705.2435,-146.4567 695.3871,-142.5706 700.6688,-151.755 705.2435,-146.4567"/>
</g>
<!-- Node17 -->
<g id="node18" class="node">
<title>Node17</title>
<g id="a_node18"><a xlink:href="DataType_8hpp.html" target="_top" xlink:title="Defines the DataType class. ">
<polygon fill="#ffffff" stroke="#000000" points="927.5,-179.5 927.5,-198.5 1020.5,-198.5 1020.5,-179.5 927.5,-179.5"/>
<text text-anchor="middle" x="974" y="-186.5" font-family="Helvetica,sans-Serif" font-size="10.00" fill="#000000">chi/DataType.hpp</text>
</a>
</g>
</g>
<!-- Node0&#45;&gt;Node17 -->
<g id="edge24" class="edge">
<title>Node0&#45;&gt;Node17</title>
<path fill="none" stroke="#191970" d="M1111.4636,-235.3733C1083.9798,-226.1016 1042.2314,-212.0178 1011.9548,-201.804"/>
<polygon fill="#191970" stroke="#191970" points="1012.7582,-198.3813 1002.164,-198.5011 1010.5206,-205.0141 1012.7582,-198.3813"/>
</g>
<!-- Node19 -->
<g id="node20" class="node">
<title>Node19</title>
<g id="a_node20"><a xlink:href="NodeType_8hpp.html" target="_top" xlink:title="Defines the NodeType class. ">
<polygon fill="#ffffff" stroke="#000000" points="1016.5,-123.5 1016.5,-142.5 1111.5,-142.5 1111.5,-123.5 1016.5,-123.5"/>
<text text-anchor="middle" x="1064" y="-130.5" font-family="Helvetica,sans-Serif" font-size="10.00" fill="#000000">chi/NodeType.hpp</text>
</a>
</g>
</g>
<!-- Node0&#45;&gt;Node19 -->
<g id="edge27" class="edge">
<title>Node0&#45;&gt;Node19</title>
<path fill="none" stroke="#191970" d="M1113.7512,-235.455C1097.6152,-228.1116 1078.1475,-216.2635 1068,-199 1059.8297,-185.1003 1059.4206,-166.5859 1060.7157,-152.7043"/>
<polygon fill="#191970" stroke="#191970" points="1064.1926,-153.1079 1062.004,-142.7416 1057.2504,-152.2101 1064.1926,-153.1079"/>
</g>
<!-- Node22 -->
<g id="node23" class="node">
<title>Node22</title>
<g id="a_node23"><a xlink:href="Result_8hpp.html" target="_top" xlink:title="Defines the Result class and related functions. ">
<polygon fill="#ffffff" stroke="#000000" points="745.5,-123.5 745.5,-142.5 824.5,-142.5 824.5,-123.5 745.5,-123.5"/>
<text text-anchor="middle" x="785" y="-130.5" font-family="Helvetica,sans-Serif" font-size="10.00" fill="#000000">chi/Result.hpp</text>
</a>
</g>
</g>
<!-- Node0&#45;&gt;Node22 -->
<g id="edge34" class="edge">
<title>Node0&#45;&gt;Node22</title>
<path fill="none" stroke="#191970" d="M1062.9344,-239.5092C967.4197,-231.9734 814.8567,-217.2588 796,-199 783.8968,-187.2805 781.9767,-167.6569 782.5862,-152.8464"/>
<polygon fill="#191970" stroke="#191970" points="786.0917,-152.9216 783.4187,-142.6695 779.115,-152.3508 786.0917,-152.9216"/>
</g>
<!-- Node23 -->
<g id="node24" class="node">
<title>Node23</title>
<polygon fill="#ffffff" stroke="#bfbfbf" points="1077,-179.5 1077,-198.5 1203,-198.5 1203,-179.5 1077,-179.5"/>
<text text-anchor="middle" x="1140" y="-186.5" font-family="Helvetica,sans-Serif" font-size="10.00" fill="#000000">llvm/AsmParser/Parser.h</text>
</g>
<!-- Node0&#45;&gt;Node23 -->
<g id="edge36" class="edge">
<title>Node0&#45;&gt;Node23</title>
<path fill="none" stroke="#191970" d="M1140,-235.2455C1140,-227.9382 1140,-217.6944 1140,-208.7046"/>
<polygon fill="#191970" stroke="#191970" points="1143.5001,-208.6426 1140,-198.6427 1136.5001,-208.6427 1143.5001,-208.6426"/>
</g>
<!-- Node24 -->
<g id="node25" class="node">
<title>Node24</title>
<polygon fill="#ffffff" stroke="#bfbfbf" points="1221.5,-179.5 1221.5,-198.5 1364.5,-198.5 1364.5,-179.5 1221.5,-179.5"/>
<text text-anchor="middle" x="1293" y="-186.5" font-family="Helvetica,sans-Serif" font-size="10.00" fill="#000000">llvm/IR/DebugInfoMetadata.h</text>
</g>
<!-- Node0&#45;&gt;Node24 -->
<g id="edge37" class="edge">
<title>Node0&#45;&gt;Node24</title>
<path fill="none" stroke="#191970" d="M1166.3016,-235.3733C1191.4128,-226.1822 1229.4438,-212.2624 1257.2872,-202.0713"/>
<polygon fill="#191970" stroke="#191970" points="1258.8538,-205.2251 1267.0416,-198.5011 1256.4478,-198.6516 1258.8538,-205.2251"/>
</g>
<!-- Node25 -->
<g id="node26" class="node">
<title>Node25</title>
<polygon fill="#ffffff" stroke="#bfbfbf" points="1383,-179.5 1383,-198.5 1481,-198.5 1481,-179.5 1383,-179.5"/>
<text text-anchor="middle" x="1432" y="-186.5" font-family="Helvetica,sans-Serif" font-size="10.00" fill="#000000">llvm/IR/IRBuilder.h</text>
</g>
<!-- Node0&#45;&gt;Node25 -->
<g id="edge38" class="edge">
<title>Node0&#45;&gt;Node25</title>
<path fill="none" stroke="#191970" d="M1189.8648,-235.4369C1240.5163,-225.7229 1318.9572,-210.6794 1372.7487,-200.3633"/>
<polygon fill="#191970" stroke="#191970" points="1373.6662,-203.7512 1382.8279,-198.4303 1372.3477,-196.8765 1373.6662,-203.7512"/>
</g>
<!-- Node26 -->
<g id="node27" class="node">
<title>Node26</title>
<polygon fill="#ffffff" stroke="#bfbfbf" points="1499,-179.5 1499,-198.5 1589,-198.5 1589,-179.5 1499,-179.5"/>
<text text-anchor="middle" x="1544" y="-186.5" font-family="Helvetica,sans-Serif" font-size="10.00" fill="#000000">llvm/IR/Module.h</text>
</g>
<!-- Node0&#45;&gt;Node26 -->
<g id="edge39" class="edge">
<title>Node0&#45;&gt;Node26</title>
<path fill="none" stroke="#191970" d="M1217.3246,-236.0179C1286.068,-227.7617 1389.5454,-214.6723 1489.0259,-199.0902"/>
<polygon fill="#191970" stroke="#191970" points="1489.6164,-202.5404 1498.9492,-197.5253 1488.526,-195.6258 1489.6164,-202.5404"/>
</g>
<!-- Node27 -->
<g id="node28" class="node">
<title>Node27</title>
<polygon fill="#ffffff" stroke="#bfbfbf" points="1607,-179.5 1607,-198.5 1737,-198.5 1737,-179.5 1607,-179.5"/>
<text text-anchor="middle" x="1672" y="-186.5" font-family="Helvetica,sans-Serif" font-size="10.00" fill="#000000">llvm/Support/SourceMgr.h</text>
</g>
<!-- Node0&#45;&gt;Node27 -->
<g id="edge40" class="edge">
<title>Node0&#45;&gt;Node27</title>
<path fill="none" stroke="#191970" d="M1217.072,-238.0707C1306.0274,-229.8895 1456.9872,-215.444 1596.6129,-199.1327"/>
<polygon fill="#191970" stroke="#191970" points="1597.1216,-202.5971 1606.6454,-197.9551 1596.3055,-195.6448 1597.1216,-202.5971"/>
</g>
<!-- Node28 -->
<g id="node29" class="node">
<title>Node28</title>
<polygon fill="#ffffff" stroke="#bfbfbf" points="1755.5,-179.5 1755.5,-198.5 1832.5,-198.5 1832.5,-179.5 1755.5,-179.5"/>
<text text-anchor="middle" x="1794" y="-186.5" font-family="Helvetica,sans-Serif" font-size="10.00" fill="#000000">gsl/gsl_assert</text>
</g>
<!-- Node0&#45;&gt;Node28 -->
<g id="edge41" class="edge">
<title>Node0&#45;&gt;Node28</title>
<path fill="none" stroke="#191970" d="M1217.353,-242.3395C1330.9152,-237.7214 1549.5361,-226.127 1745.1227,-198.9432"/>
<polygon fill="#191970" stroke="#191970" points="1745.8882,-202.37 1755.3032,-197.511 1744.9131,-195.4383 1745.8882,-202.37"/>
</g>
<!-- Node2 -->
<g id="node3" class="node">
<title>Node2</title>
<g id="a_node3"><a xlink:href="ChiModule_8hpp.html" target="_top" xlink:title="Defines the ChiModule class. ">
<polygon fill="#ffffff" stroke="#000000" points="244.5,-123.5 244.5,-142.5 341.5,-142.5 341.5,-123.5 244.5,-123.5"/>
<text text-anchor="middle" x="293" y="-130.5" font-family="Helvetica,sans-Serif" font-size="10.00" fill="#000000">chi/ChiModule.hpp</text>
</a>
</g>
</g>
<!-- Node1&#45;&gt;Node2 -->
<g id="edge2" class="edge">
<title>Node1&#45;&gt;Node2</title>
<path fill="none" stroke="#191970" d="M804.9512,-183.832C699.7018,-173.3817 462.2222,-149.8022 351.6715,-138.8255"/>
<polygon fill="#191970" stroke="#191970" points="351.9937,-135.3404 341.6968,-137.8351 351.302,-142.3062 351.9937,-135.3404"/>
</g>
<!-- Node3 -->
<g id="node4" class="node">
<title>Node3</title>
<g id="a_node4"><a xlink:href="Fwd_8hpp.html" target="_top" xlink:title="Forward declares all the chigraph data types. ">
<polygon fill="#ffffff" stroke="#000000" points="854.5,-62 854.5,-81 923.5,-81 923.5,-62 854.5,-62"/>
<text text-anchor="middle" x="889" y="-69" font-family="Helvetica,sans-Serif" font-size="10.00" fill="#000000">chi/Fwd.hpp</text>
</a>
</g>
</g>
<!-- Node1&#45;&gt;Node3 -->
<g id="edge11" class="edge">
<title>Node1&#45;&gt;Node3</title>
<path fill="none" stroke="#191970" d="M859.6187,-179.3845C864.8692,-160.1053 876.7729,-116.3963 883.71,-90.9241"/>
<polygon fill="#191970" stroke="#191970" points="887.0944,-91.8167 886.3451,-81.2484 880.3403,-89.9772 887.0944,-91.8167"/>
</g>
<!-- Node10 -->
<g id="node11" class="node">
<title>Node10</title>
<polygon fill="#ffffff" stroke="#bfbfbf" points="1012.5,-62 1012.5,-81 1095.5,-81 1095.5,-62 1012.5,-62"/>
<text text-anchor="middle" x="1054" y="-69" font-family="Helvetica,sans-Serif" font-size="10.00" fill="#000000">unordered_map</text>
</g>
<!-- Node1&#45;&gt;Node10 -->
<g id="edge12" class="edge">
<title>Node1&#45;&gt;Node10</title>
<path fill="none" stroke="#191970" d="M869.0553,-179.3555C886.2244,-165.8552 918.9737,-140.964 949,-123 972.873,-108.7173 1001.2696,-94.9708 1022.5089,-85.2778"/>
<polygon fill="#191970" stroke="#191970" points="1024.0454,-88.4244 1031.7219,-81.1222 1021.1672,-82.0435 1024.0454,-88.4244"/>
</g>
<!-- Node2&#45;&gt;Node3 -->
<g id="edge3" class="edge">
<title>Node2&#45;&gt;Node3</title>
<path fill="none" stroke="#191970" d="M341.9099,-130.5291C458.3826,-124.3862 749.5551,-107.4351 845,-87 848.4301,-86.2656 851.9591,-85.336 855.4553,-84.2983"/>
<polygon fill="#191970" stroke="#191970" points="856.6835,-87.5794 865.1121,-81.1598 854.5199,-80.9221 856.6835,-87.5794"/>
</g>
<!-- Node4 -->
<g id="node5" class="node">
<title>Node4</title>
<g id="a_node5"><a xlink:href="HashFilesystemPath_8hpp_source.html" target="_top" xlink:title="chi/HashFilesystemPath.hpp">
<polygon fill="#ffffff" stroke="#000000" points="48,-62 48,-81 190,-81 190,-62 48,-62"/>
<text text-anchor="middle" x="119" y="-69" font-family="Helvetica,sans-Serif" font-size="10.00" fill="#000000">chi/HashFilesystemPath.hpp</text>
</a>
</g>
</g>
<!-- Node2&#45;&gt;Node4 -->
<g id="edge4" class="edge">
<title>Node2&#45;&gt;Node4</title>
<path fill="none" stroke="#191970" d="M265.8125,-123.3906C236.1883,-112.92 188.6313,-96.1111 155.7082,-84.4745"/>
<polygon fill="#191970" stroke="#191970" points="156.5914,-81.0745 145.9966,-81.0419 154.2586,-87.6744 156.5914,-81.0745"/>
</g>
<!-- Node5 -->
<g id="node6" class="node">
<title>Node5</title>
<polygon fill="#ffffff" stroke="#bfbfbf" points="165.5,-.5 165.5,-19.5 272.5,-19.5 272.5,-.5 165.5,-.5"/>
<text text-anchor="middle" x="219" y="-7.5" font-family="Helvetica,sans-Serif" font-size="10.00" fill="#000000">boost/filesystem.hpp</text>
</g>
<!-- Node2&#45;&gt;Node5 -->
<g id="edge8" class="edge">
<title>Node2&#45;&gt;Node5</title>
<path fill="none" stroke="#191970" d="M276.2407,-123.4596C263.5513,-115.3669 246.7012,-102.5987 237,-87 226.1609,-69.5716 221.8428,-46.2391 220.126,-29.8421"/>
<polygon fill="#191970" stroke="#191970" points="223.6049,-29.4391 219.3048,-19.7561 216.6279,-30.0072 223.6049,-29.4391"/>
</g>
<!-- Node7 -->
<g id="node8" class="node">
<title>Node7</title>
<polygon fill="#ffffff" stroke="#bfbfbf" points="767.5,-62 767.5,-81 836.5,-81 836.5,-62 767.5,-62"/>
<text text-anchor="middle" x="802" y="-69" font-family="Helvetica,sans-Serif" font-size="10.00" fill="#000000">chi/json.hpp</text>
</g>
<!-- Node2&#45;&gt;Node7 -->
<g id="edge7" class="edge">
<title>Node2&#45;&gt;Node7</title>
<path fill="none" stroke="#191970" d="M341.802,-132.0105C427.1667,-129.4321 608.7236,-120.1697 758,-87 761.4244,-86.2391 764.9495,-85.292 768.4433,-84.2434"/>
<polygon fill="#191970" stroke="#191970" points="769.6779,-87.5222 778.0969,-81.0902 767.5044,-80.8682 769.6779,-87.5222"/>
</g>
<!-- Node8 -->
<g id="node9" class="node">
<title>Node8</title>
<polygon fill="#ffffff" stroke="#bfbfbf" points="246,-56.5 246,-86.5 340,-86.5 340,-56.5 246,-56.5"/>
<text text-anchor="start" x="254" y="-74.5" font-family="Helvetica,sans-Serif" font-size="10.00" fill="#000000">boost/utility/string</text>
<text text-anchor="middle" x="293" y="-63.5" font-family="Helvetica,sans-Serif" font-size="10.00" fill="#000000">_view.hpp</text>
</g>
<!-- Node2&#45;&gt;Node8 -->
<g id="edge9" class="edge">
<title>Node2&#45;&gt;Node8</title>
<path fill="none" stroke="#191970" d="M293,-123.3906C293,-116.2234 293,-106.0862 293,-96.671"/>
<polygon fill="#191970" stroke="#191970" points="296.5001,-96.5446 293,-86.5446 289.5001,-96.5446 296.5001,-96.5446"/>
</g>
<!-- Node9 -->
<g id="node10" class="node">
<title>Node9</title>
<polygon fill="#ffffff" stroke="#bfbfbf" points="0,-62 0,-81 30,-81 30,-62 0,-62"/>
<text text-anchor="middle" x="15" y="-69" font-family="Helvetica,sans-Serif" font-size="10.00" fill="#000000">set</text>
</g>
<!-- Node2&#45;&gt;Node9 -->
<g id="edge10" class="edge">
<title>Node2&#45;&gt;Node9</title>
<path fill="none" stroke="#191970" d="M244.1699,-129.8693C191.8524,-125.2218 107.145,-113.9261 39,-87 38.1524,-86.6651 37.3027,-86.2984 36.4558,-85.9062"/>
<polygon fill="#191970" stroke="#191970" points="38.1336,-82.8344 27.6961,-81.0152 34.7211,-88.9462 38.1336,-82.8344"/>
</g>
<!-- Node4&#45;&gt;Node5 -->
<g id="edge5" class="edge">
<title>Node4&#45;&gt;Node5</title>
<path fill="none" stroke="#191970" d="M134.625,-61.8906C150.7698,-51.9616 176.1822,-36.333 194.9023,-24.8201"/>
<polygon fill="#191970" stroke="#191970" points="196.8002,-27.7619 203.4847,-19.5419 193.1331,-21.7992 196.8002,-27.7619"/>
</g>
<!-- Node6 -->
<g id="node7" class="node">
<title>Node6</title>
<polygon fill="#ffffff" stroke="#bfbfbf" points="88.5,-.5 88.5,-19.5 147.5,-19.5 147.5,-.5 88.5,-.5"/>
<text text-anchor="middle" x="118" y="-7.5" font-family="Helvetica,sans-Serif" font-size="10.00" fill="#000000">functional</text>
</g>
<!-- Node4&#45;&gt;Node6 -->
<g id="edge6" class="edge">
<title>Node4&#45;&gt;Node6</title>
<path fill="none" stroke="#191970" d="M118.8438,-61.8906C118.7051,-53.3657 118.4982,-40.6392 118.324,-29.9235"/>
<polygon fill="#191970" stroke="#191970" points="121.8207,-29.6866 118.1585,-19.7449 114.8216,-29.8005 121.8207,-29.6866"/>
</g>
<!-- Node11&#45;&gt;Node3 -->
<g id="edge18" class="edge">
<title>Node11&#45;&gt;Node3</title>
<path fill="none" stroke="#191970" d="M720.4513,-123.4513C752.9935,-114.534 802.4642,-100.5937 845,-87 847.5868,-86.1733 850.2508,-85.2972 852.9275,-84.3989"/>
<polygon fill="#191970" stroke="#191970" points="854.2356,-87.6505 862.5603,-81.097 851.9657,-81.0288 854.2356,-87.6505"/>
</g>
<!-- Node11&#45;&gt;Node5 -->
<g id="edge22" class="edge">
<title>Node11&#45;&gt;Node5</title>
<path fill="none" stroke="#191970" d="M642.3247,-129.1953C571.2255,-122.3962 431.897,-106.9811 387,-87 367.0871,-78.1379 367.9989,-66.682 349,-56 323.1158,-41.4467 291.7963,-30.1974 266.3847,-22.4667"/>
<polygon fill="#191970" stroke="#191970" points="267.1859,-19.0539 256.6039,-19.5746 265.201,-25.7666 267.1859,-19.0539"/>
</g>
<!-- Node11&#45;&gt;Node7 -->
<g id="edge19" class="edge">
<title>Node11&#45;&gt;Node7</title>
<path fill="none" stroke="#191970" d="M703.2813,-123.3906C722.5141,-113.2811 752.9879,-97.2628 774.9925,-85.6962"/>
<polygon fill="#191970" stroke="#191970" points="776.624,-88.7928 783.8471,-81.0419 773.367,-82.5967 776.624,-88.7928"/>
</g>
<!-- Node11&#45;&gt;Node8 -->
<g id="edge23" class="edge">
<title>Node11&#45;&gt;Node8</title>
<path fill="none" stroke="#191970" d="M642.4275,-128.6104C579.1688,-121.7437 456.7681,-107.1333 354,-87 352.7333,-86.7518 351.4537,-86.4936 350.165,-86.2267"/>
<polygon fill="#191970" stroke="#191970" points="350.6893,-82.7586 340.1717,-84.0356 349.19,-89.5962 350.6893,-82.7586"/>
</g>
<!-- Node11&#45;&gt;Node10 -->
<g id="edge15" class="edge">
<title>Node11&#45;&gt;Node10</title>
<path fill="none" stroke="#191970" d="M727.5424,-124.4615C730.4013,-123.9485 733.2404,-123.4562 736,-123 854.1373,-103.4714 886.0046,-112.4921 1003,-87 1007.1706,-86.0913 1011.4939,-85.0068 1015.7796,-83.8395"/>
<polygon fill="#191970" stroke="#191970" points="1016.9784,-87.1366 1025.6214,-81.0089 1015.0436,-80.4093 1016.9784,-87.1366"/>
</g>
<!-- Node12 -->
<g id="node13" class="node">
<title>Node12</title>
<polygon fill="#ffffff" stroke="#bfbfbf" points="942,-62 942,-81 994,-81 994,-62 942,-62"/>
<text text-anchor="middle" x="968" y="-69" font-family="Helvetica,sans-Serif" font-size="10.00" fill="#000000">memory</text>
</g>
<!-- Node11&#45;&gt;Node12 -->
<g id="edge14" class="edge">
<title>Node11&#45;&gt;Node12</title>
<path fill="none" stroke="#191970" d="M727.5694,-124.6135C730.4217,-124.0638 733.252,-123.5218 736,-123 823.0138,-106.4788 847.2347,-112.6747 932,-87 934.1695,-86.3429 936.3839,-85.5943 938.5949,-84.7892"/>
<polygon fill="#191970" stroke="#191970" points="940.115,-87.9515 948.1158,-81.0061 937.5301,-81.4462 940.115,-87.9515"/>
</g>
<!-- Node13 -->
<g id="node14" class="node">
<title>Node13</title>
<g id="a_node14"><a xlink:href="Flags_8hpp_source.html" target="_top" xlink:title="chi/Flags.hpp">
<polygon fill="#ffffff" stroke="#000000" points="396.5,-62 396.5,-81 471.5,-81 471.5,-62 396.5,-62"/>
<text text-anchor="middle" x="434" y="-69" font-family="Helvetica,sans-Serif" font-size="10.00" fill="#000000">chi/Flags.hpp</text>
</a>
</g>
</g>
<!-- Node11&#45;&gt;Node13 -->
<g id="edge16" class="edge">
<title>Node11&#45;&gt;Node13</title>
<path fill="none" stroke="#191970" d="M642.1125,-124.5885C600.6237,-116.1558 536.1076,-102.2615 481,-87 477.8535,-86.1286 474.6055,-85.1744 471.3555,-84.1811"/>
<polygon fill="#191970" stroke="#191970" points="472.2889,-80.8055 461.6989,-81.128 470.1786,-87.4799 472.2889,-80.8055"/>
</g>
<!-- Node15 -->
<g id="node16" class="node">
<title>Node15</title>
<polygon fill="#ffffff" stroke="#bfbfbf" points="490,-62 490,-81 608,-81 608,-62 490,-62"/>
<text text-anchor="middle" x="549" y="-69" font-family="Helvetica,sans-Serif" font-size="10.00" fill="#000000">llvm/IR/LLVMContext.h</text>
</g>
<!-- Node11&#45;&gt;Node15 -->
<g id="edge20" class="edge">
<title>Node11&#45;&gt;Node15</title>
<path fill="none" stroke="#191970" d="M663.75,-123.3906C641.0945,-113.1457 605.0202,-96.8326 579.3709,-85.2339"/>
<polygon fill="#191970" stroke="#191970" points="580.6546,-81.9732 570.1008,-81.0419 577.7703,-88.3514 580.6546,-81.9732"/>
</g>
<!-- Node16 -->
<g id="node17" class="node">
<title>Node16</title>
<polygon fill="#ffffff" stroke="#bfbfbf" points="626.5,-62 626.5,-81 749.5,-81 749.5,-62 626.5,-62"/>
<text text-anchor="middle" x="688" y="-69" font-family="Helvetica,sans-Serif" font-size="10.00" fill="#000000">llvm/Support/CodeGen.h</text>
</g>
<!-- Node11&#45;&gt;Node16 -->
<g id="edge21" class="edge">
<title>Node11&#45;&gt;Node16</title>
<path fill="none" stroke="#191970" d="M685.4688,-123.3906C685.8846,-114.8657 686.5054,-102.1392 687.0281,-91.4235"/>
<polygon fill="#191970" stroke="#191970" points="690.5332,-91.4035 687.5246,-81.2449 683.5415,-91.0624 690.5332,-91.4035"/>
</g>
<!-- Node14 -->
<g id="node15" class="node">
<title>Node14</title>
<polygon fill="#ffffff" stroke="#bfbfbf" points="403,-.5 403,-19.5 465,-19.5 465,-.5 403,-.5"/>
<text text-anchor="middle" x="434" y="-7.5" font-family="Helvetica,sans-Serif" font-size="10.00" fill="#000000">type_traits</text>
</g>
<!-- Node13&#45;&gt;Node14 -->
<g id="edge17" class="edge">
<title>Node13&#45;&gt;Node14</title>
<path fill="none" stroke="#191970" d="M434,-61.8906C434,-53.3657 434,-40.6392 434,-29.9235"/>
<polygon fill="#191970" stroke="#191970" points="437.5001,-29.7448 434,-19.7449 430.5001,-29.7449 437.5001,-29.7448"/>
</g>
<!-- Node17&#45;&gt;Node3 -->
<g id="edge25" class="edge">
<title>Node17&#45;&gt;Node3</title>
<path fill="none" stroke="#191970" d="M967.0441,-179.3845C952.8484,-159.761 920.3433,-114.8274 902.0771,-89.5772"/>
<polygon fill="#191970" stroke="#191970" points="904.749,-87.2992 896.052,-81.2484 899.0775,-91.4021 904.749,-87.2992"/>
</g>
<!-- Node18 -->
<g id="node19" class="node">
<title>Node18</title>
<polygon fill="#ffffff" stroke="#bfbfbf" points="957.5,-123.5 957.5,-142.5 998.5,-142.5 998.5,-123.5 957.5,-123.5"/>
<text text-anchor="middle" x="978" y="-130.5" font-family="Helvetica,sans-Serif" font-size="10.00" fill="#000000">string</text>
</g>
<!-- Node17&#45;&gt;Node18 -->
<g id="edge26" class="edge">
<title>Node17&#45;&gt;Node18</title>
<path fill="none" stroke="#191970" d="M974.6967,-179.2455C975.2187,-171.9382 975.9504,-161.6944 976.5925,-152.7046"/>
<polygon fill="#191970" stroke="#191970" points="980.0898,-152.8667 977.3112,-142.6427 973.1076,-152.3679 980.0898,-152.8667"/>
</g>
<!-- Node19&#45;&gt;Node3 -->
<g id="edge31" class="edge">
<title>Node19&#45;&gt;Node3</title>
<path fill="none" stroke="#191970" d="M1036.9008,-123.4932C1010.4077,-114.1968 968.9277,-99.6361 933,-87 930.5933,-86.1536 928.1127,-85.2807 925.6129,-84.4008"/>
<polygon fill="#191970" stroke="#191970" points="926.5857,-81.0328 915.9909,-81.013 924.2609,-87.6355 926.5857,-81.0328"/>
</g>
<!-- Node19&#45;&gt;Node7 -->
<g id="edge32" class="edge">
<title>Node19&#45;&gt;Node7</title>
<path fill="none" stroke="#191970" d="M1016.2545,-123.778C961.9073,-113.1384 876.5817,-95.962 845,-87 842.2088,-86.2079 839.3378,-85.326 836.4666,-84.3959"/>
<polygon fill="#191970" stroke="#191970" points="837.415,-81.0215 826.8205,-81.1093 835.1574,-87.6475 837.415,-81.0215"/>
</g>
<!-- Node19&#45;&gt;Node10 -->
<g id="edge29" class="edge">
<title>Node19&#45;&gt;Node10</title>
<path fill="none" stroke="#191970" d="M1062.4375,-123.3906C1061.0513,-114.8657 1058.982,-102.1392 1057.2396,-91.4235"/>
<polygon fill="#191970" stroke="#191970" points="1060.6442,-90.5535 1055.5845,-81.2449 1053.7349,-91.677 1060.6442,-90.5535"/>
</g>
<!-- Node19&#45;&gt;Node12 -->
<g id="edge28" class="edge">
<title>Node19&#45;&gt;Node12</title>
<path fill="none" stroke="#191970" d="M1049,-123.3906C1033.6419,-113.5519 1009.5479,-98.1167 991.6255,-86.6351"/>
<polygon fill="#191970" stroke="#191970" points="993.203,-83.4891 982.8947,-81.0419 989.427,-89.3833 993.203,-83.4891"/>
</g>
<!-- Node20 -->
<g id="node21" class="node">
<title>Node20</title>
<polygon fill="#ffffff" stroke="#bfbfbf" points="1114,-62 1114,-81 1158,-81 1158,-62 1114,-62"/>
<text text-anchor="middle" x="1136" y="-69" font-family="Helvetica,sans-Serif" font-size="10.00" fill="#000000">vector</text>
</g>
<!-- Node19&#45;&gt;Node20 -->
<g id="edge30" class="edge">
<title>Node19&#45;&gt;Node20</title>
<path fill="none" stroke="#191970" d="M1075.25,-123.3906C1086.386,-113.8786 1103.646,-99.1357 1116.9268,-87.7917"/>
<polygon fill="#191970" stroke="#191970" points="1119.2608,-90.4011 1124.5914,-81.2449 1114.7144,-85.0784 1119.2608,-90.4011"/>
</g>
<!-- Node21 -->
<g id="node22" class="node">
<title>Node21</title>
<polygon fill="#ffffff" stroke="#bfbfbf" points="1176.5,-62 1176.5,-81 1229.5,-81 1229.5,-62 1176.5,-62"/>
<text text-anchor="middle" x="1203" y="-69" font-family="Helvetica,sans-Serif" font-size="10.00" fill="#000000">gsl/span</text>
</g>
<!-- Node19&#45;&gt;Node21 -->
<g id="edge33" class="edge">
<title>Node19&#45;&gt;Node21</title>
<path fill="none" stroke="#191970" d="M1085.7188,-123.3906C1108.874,-113.1457 1145.7441,-96.8326 1171.9591,-85.2339"/>
<polygon fill="#191970" stroke="#191970" points="1173.705,-88.2888 1181.4338,-81.0419 1170.8727,-81.8874 1173.705,-88.2888"/>
</g>
<!-- Node22&#45;&gt;Node7 -->
<g id="edge35" class="edge">
<title>Node22&#45;&gt;Node7</title>
<path fill="none" stroke="#191970" d="M787.6563,-123.3906C790.0375,-114.776 793.6048,-101.8708 796.586,-91.0858"/>
<polygon fill="#191970" stroke="#191970" points="800.0154,-91.8159 799.3063,-81.2449 793.2684,-89.9509 800.0154,-91.8159"/>
</g>
</g>
</svg>
