<?xml version="1.0" encoding="UTF-8" standalone="no"?>
<!DOCTYPE svg PUBLIC "-//W3C//DTD SVG 1.1//EN"
 "http://www.w3.org/Graphics/SVG/1.1/DTD/svg11.dtd">
<!-- Generated by graphviz version 2.40.1 (20161225.0304)
 -->
<!-- Title: libchigraph/include/chi/LangModule.hpp Pages: 1 -->
<!--zoomable 218 -->
<svg id="main" version="1.1" xmlns="http://www.w3.org/2000/svg" xmlns:xlink="http://www.w3.org/1999/xlink" xml:space="preserve" onload="init(evt)">
<style type="text/css"><![CDATA[
.edge:hover path { stroke: red; }
.edge:hover polygon { stroke: red; fill: red; }
]]></style>
<script type="text/javascript"><![CDATA[
var edges = document.getElementsByTagName('g');
if (edges && edges.length) {
  for (var i=0;i<edges.length;i++) {
    if (edges[i].id.substr(0,4)=='edge') {
      edges[i].setAttribute('class','edge');
    }
  }
}
]]></script>
        <defs>
                <circle id="rim" cx="0" cy="0" r="7"/>
                <circle id="rim2" cx="0" cy="0" r="3.5"/>
                <g id="zoomPlus">
                        <use xlink:href="#rim" fill="#404040">
                                <set attributeName="fill" to="#808080" begin="zoomplus.mouseover" end="zoomplus.mouseout"/>
                        </use>
                        <path d="M-4,0h8M0,-4v8" fill="none" stroke="white" stroke-width="1.5" pointer-events="none"/>
                </g>
                <g id="zoomMin">
                        <use xlink:href="#rim" fill="#404040">
                                <set attributeName="fill" to="#808080" begin="zoomminus.mouseover" end="zoomminus.mouseout"/>
                        </use>
                        <path d="M-4,0h8" fill="none" stroke="white" stroke-width="1.5" pointer-events="none"/>
                </g>
                <g id="dirArrow">
                        <path fill="none" stroke="white" stroke-width="1.5" d="M0,-3.0v7 M-2.5,-0.5L0,-3.0L2.5,-0.5"/>
                </g>
               <g id="resetDef">
                       <use xlink:href="#rim2" fill="#404040">
                               <set attributeName="fill" to="#808080" begin="reset.mouseover" end="reset.mouseout"/>
                       </use>
               </g>
        </defs>

<script type="text/javascript">
var viewWidth = 524;
var viewHeight = 218;
var sectionId = 'dynsection-0';
</script>
<script xlink:href="svgpan.js"/>
<svg id="graph" class="graph">
<g id="viewport">
<title>libchigraph/include/chi/LangModule.hpp</title>
<polygon fill="#ffffff" stroke="transparent" points="-4,4 -4,-214 519.5,-214 519.5,4 -4,4"/>
<!-- Node0 -->
<g id="node1" class="node">
<title>Node0</title>
<polygon fill="#bfbfbf" stroke="#000000" points="143,-179.5 143,-209.5 250,-209.5 250,-179.5 143,-179.5"/>
<text text-anchor="start" x="151" y="-197.5" font-family="Helvetica,sans-Serif" font-size="10.00" fill="#000000">libchigraph/include</text>
<text text-anchor="middle" x="196.5" y="-186.5" font-family="Helvetica,sans-Serif" font-size="10.00" fill="#000000">/chi/LangModule.hpp</text>
</g>
<!-- Node1 -->
<g id="node2" class="node">
<title>Node1</title>
<g id="a_node2"><a xlink:href="ChiModule_8hpp.html" target="_top" xlink:title="Defines the ChiModule class. ">
<polygon fill="#ffffff" stroke="#000000" points="148,-123.5 148,-142.5 245,-142.5 245,-123.5 148,-123.5"/>
<text text-anchor="middle" x="196.5" y="-130.5" font-family="Helvetica,sans-Serif" font-size="10.00" fill="#000000">chi/ChiModule.hpp</text>
</a>
</g>
</g>
<!-- Node0&#45;&gt;Node1 -->
<g id="edge1" class="edge">
<title>Node0&#45;&gt;Node1</title>
<path fill="none" stroke="#191970" d="M196.5,-179.2977C196.5,-171.3834 196.5,-161.6043 196.5,-153.0759"/>
<polygon fill="#191970" stroke="#191970" points="200.0001,-152.8469 196.5,-142.8469 193.0001,-152.847 200.0001,-152.8469"/>
</g>
<!-- Node2 -->
<g id="node3" class="node">
<title>Node2</title>
<g id="a_node3"><a xlink:href="Fwd_8hpp.html" target="_top" xlink:title="Forward declares all the chigraph data types. ">
<polygon fill="#ffffff" stroke="#000000" points="0,-62 0,-81 69,-81 69,-62 0,-62"/>
<text text-anchor="middle" x="34.5" y="-69" font-family="Helvetica,sans-Serif" font-size="10.00" fill="#000000">chi/Fwd.hpp</text>
</a>
</g>
</g>
<!-- Node0&#45;&gt;Node2 -->
<g id="edge10" class="edge">
<title>Node0&#45;&gt;Node2</title>
<path fill="none" stroke="#191970" d="M176.6356,-179.4178C145.7441,-155.9631 86.4898,-110.9737 55.1343,-87.1668"/>
<polygon fill="#191970" stroke="#191970" points="57.158,-84.3088 47.0771,-81.0493 52.9251,-89.884 57.158,-84.3088"/>
</g>
<!-- Node9 -->
<g id="node10" class="node">
<title>Node9</title>
<polygon fill="#ffffff" stroke="#bfbfbf" points="263,-123.5 263,-142.5 346,-142.5 346,-123.5 263,-123.5"/>
<text text-anchor="middle" x="304.5" y="-130.5" font-family="Helvetica,sans-Serif" font-size="10.00" fill="#000000">unordered_map</text>
</g>
<!-- Node0&#45;&gt;Node9 -->
<g id="edge11" class="edge">
<title>Node0&#45;&gt;Node9</title>
<path fill="none" stroke="#191970" d="M222.9198,-179.4554C239.9914,-169.734 262.0902,-157.15 278.9809,-147.5317"/>
<polygon fill="#191970" stroke="#191970" points="280.8059,-150.5202 287.7638,-142.5303 277.342,-144.4373 280.8059,-150.5202"/>
</g>
<!-- Node1&#45;&gt;Node2 -->
<g id="edge2" class="edge">
<title>Node1&#45;&gt;Node2</title>
<path fill="none" stroke="#191970" d="M171.1875,-123.3906C143.7253,-112.9652 99.7105,-96.2559 69.0737,-84.6252"/>
<polygon fill="#191970" stroke="#191970" points="70.226,-81.319 59.6348,-81.0419 67.7415,-87.8633 70.226,-81.319"/>
</g>
<!-- Node3 -->
<g id="node4" class="node">
<title>Node3</title>
<g id="a_node4"><a xlink:href="HashFilesystemPath_8hpp_source.html" target="_top" xlink:title="chi/HashFilesystemPath.hpp">
<polygon fill="#ffffff" stroke="#000000" points="125.5,-62 125.5,-81 267.5,-81 267.5,-62 125.5,-62"/>
<text text-anchor="middle" x="196.5" y="-69" font-family="Helvetica,sans-Serif" font-size="10.00" fill="#000000">chi/HashFilesystemPath.hpp</text>
</a>
</g>
</g>
<!-- Node1&#45;&gt;Node3 -->
<g id="edge3" class="edge">
<title>Node1&#45;&gt;Node3</title>
<path fill="none" stroke="#191970" d="M196.5,-123.3906C196.5,-114.8657 196.5,-102.1392 196.5,-91.4235"/>
<polygon fill="#191970" stroke="#191970" points="200.0001,-91.2448 196.5,-81.2449 193.0001,-91.2449 200.0001,-91.2448"/>
</g>
<!-- Node4 -->
<g id="node5" class="node">
<title>Node4</title>
<polygon fill="#ffffff" stroke="#bfbfbf" points="44,-.5 44,-19.5 151,-19.5 151,-.5 44,-.5"/>
<text text-anchor="middle" x="97.5" y="-7.5" font-family="Helvetica,sans-Serif" font-size="10.00" fill="#000000">boost/filesystem.hpp</text>
</g>
<!-- Node1&#45;&gt;Node4 -->
<g id="edge7" class="edge">
<title>Node1&#45;&gt;Node4</title>
<path fill="none" stroke="#191970" d="M168.4979,-123.4646C151.0465,-116.125 129.5107,-104.2777 116.5,-87 103.9827,-70.3775 99.6228,-46.5467 98.1513,-29.811"/>
<polygon fill="#191970" stroke="#191970" points="101.6271,-29.3043 97.5293,-19.5341 94.6399,-29.7273 101.6271,-29.3043"/>
</g>
<!-- Node6 -->
<g id="node7" class="node">
<title>Node6</title>
<polygon fill="#ffffff" stroke="#bfbfbf" points="286,-62 286,-81 355,-81 355,-62 286,-62"/>
<text text-anchor="middle" x="320.5" y="-69" font-family="Helvetica,sans-Serif" font-size="10.00" fill="#000000">chi/json.hpp</text>
</g>
<!-- Node1&#45;&gt;Node6 -->
<g id="edge6" class="edge">
<title>Node1&#45;&gt;Node6</title>
<path fill="none" stroke="#191970" d="M215.875,-123.3906C236.3495,-113.2359 268.8442,-97.1196 292.1885,-85.5416"/>
<polygon fill="#191970" stroke="#191970" points="293.8575,-88.6207 301.2611,-81.0419 290.7472,-82.3496 293.8575,-88.6207"/>
</g>
<!-- Node7 -->
<g id="node8" class="node">
<title>Node7</title>
<polygon fill="#ffffff" stroke="#bfbfbf" points="373.5,-56.5 373.5,-86.5 467.5,-86.5 467.5,-56.5 373.5,-56.5"/>
<text text-anchor="start" x="381.5" y="-74.5" font-family="Helvetica,sans-Serif" font-size="10.00" fill="#000000">boost/utility/string</text>
<text text-anchor="middle" x="420.5" y="-63.5" font-family="Helvetica,sans-Serif" font-size="10.00" fill="#000000">_view.hpp</text>
</g>
<!-- Node1&#45;&gt;Node7 -->
<g id="edge8" class="edge">
<title>Node1&#45;&gt;Node7</title>
<path fill="none" stroke="#191970" d="M231.5804,-123.425C263.5147,-114.702 312.2308,-101.3782 363.5067,-87.2698"/>
<polygon fill="#191970" stroke="#191970" points="364.7363,-90.5616 373.4489,-84.5332 362.8786,-83.8126 364.7363,-90.5616"/>
</g>
<!-- Node8 -->
<g id="node9" class="node">
<title>Node8</title>
<polygon fill="#ffffff" stroke="#bfbfbf" points="485.5,-62 485.5,-81 515.5,-81 515.5,-62 485.5,-62"/>
<text text-anchor="middle" x="500.5" y="-69" font-family="Helvetica,sans-Serif" font-size="10.00" fill="#000000">set</text>
</g>
<!-- Node1&#45;&gt;Node8 -->
<g id="edge9" class="edge">
<title>Node1&#45;&gt;Node8</title>
<path fill="none" stroke="#191970" d="M245.2282,-124.5623C248.3653,-124.0303 251.4766,-123.5058 254.5,-123 353.0857,-106.5082 383.2043,-122.8752 476.5,-87 477.3507,-86.6729 478.2029,-86.3129 479.052,-85.9264"/>
<polygon fill="#191970" stroke="#191970" points="480.7741,-88.9736 487.8227,-81.0636 477.3798,-82.8516 480.7741,-88.9736"/>
</g>
<!-- Node3&#45;&gt;Node4 -->
<g id="edge4" class="edge">
<title>Node3&#45;&gt;Node4</title>
<path fill="none" stroke="#191970" d="M181.0313,-61.8906C165.0479,-51.9616 139.8897,-36.333 121.3567,-24.8201"/>
<polygon fill="#191970" stroke="#191970" points="123.2015,-21.8457 112.8601,-19.5419 119.5076,-27.7918 123.2015,-21.8457"/>
</g>
<!-- Node5 -->
<g id="node6" class="node">
<title>Node5</title>
<polygon fill="#ffffff" stroke="#bfbfbf" points="169,-.5 169,-19.5 228,-19.5 228,-.5 169,-.5"/>
<text text-anchor="middle" x="198.5" y="-7.5" font-family="Helvetica,sans-Serif" font-size="10.00" fill="#000000">functional</text>
</g>
<!-- Node3&#45;&gt;Node5 -->
<g id="edge5" class="edge">
<title>Node3&#45;&gt;Node5</title>
<path fill="none" stroke="#191970" d="M196.8125,-61.8906C197.0897,-53.3657 197.5036,-40.6392 197.8521,-29.9235"/>
<polygon fill="#191970" stroke="#191970" points="201.3561,-29.8534 198.1831,-19.7449 194.3598,-29.6258 201.3561,-29.8534"/>
</g>
</g>
</svg>
        <g id="navigator" transform="translate(0 0)" fill="#404254">
                <rect fill="#f2f5e9" fill-opacity="0.5" stroke="#606060" stroke-width=".5" x="0" y="0" width="60" height="60"/>
                <use id="zoomplus" xlink:href="#zoomPlus" x="17" y="9" onmousedown="handleZoom(evt,'in')"/>
                <use id="zoomminus" xlink:href="#zoomMin" x="42" y="9" onmousedown="handleZoom(evt,'out')"/>
                <use id="reset" xlink:href="#resetDef" x="30" y="36" onmousedown="handleReset()"/>
                <g id="arrowUp" xlink:href="#dirArrow" transform="translate(30 24)" onmousedown="handlePan(0,-1)">
                  <use xlink:href="#rim" fill="#404040">
                        <set attributeName="fill" to="#808080" begin="arrowUp.mouseover" end="arrowUp.mouseout"/>
                  </use>
                  <path fill="none" stroke="white" stroke-width="1.5" d="M0,-3.0v7 M-2.5,-0.5L0,-3.0L2.5,-0.5"/>
                </g>
                <g id="arrowRight" xlink:href="#dirArrow" transform="rotate(90) translate(36 -43)" onmousedown="handlePan(1,0)">
                  <use xlink:href="#rim" fill="#404040">
                        <set attributeName="fill" to="#808080" begin="arrowRight.mouseover" end="arrowRight.mouseout"/>
                  </use>
                  <path fill="none" stroke="white" stroke-width="1.5" d="M0,-3.0v7 M-2.5,-0.5L0,-3.0L2.5,-0.5"/>
                </g>
                <g id="arrowDown" xlink:href="#dirArrow" transform="rotate(180) translate(-30 -48)" onmousedown="handlePan(0,1)">
                  <use xlink:href="#rim" fill="#404040">
                        <set attributeName="fill" to="#808080" begin="arrowDown.mouseover" end="arrowDown.mouseout"/>
                  </use>
                  <path fill="none" stroke="white" stroke-width="1.5" d="M0,-3.0v7 M-2.5,-0.5L0,-3.0L2.5,-0.5"/>
                </g>
                <g id="arrowLeft" xlink:href="#dirArrow" transform="rotate(270) translate(-36 17)" onmousedown="handlePan(-1,0)">
                  <use xlink:href="#rim" fill="#404040">
                        <set attributeName="fill" to="#808080" begin="arrowLeft.mouseover" end="arrowLeft.mouseout"/>
                  </use>
                  <path fill="none" stroke="white" stroke-width="1.5" d="M0,-3.0v7 M-2.5,-0.5L0,-3.0L2.5,-0.5"/>
                </g>
        </g>
        <svg viewBox="0 0 15 15" width="100%" height="30px" preserveAspectRatio="xMaxYMin meet">
         <g id="arrow_out" transform="scale(0.3 0.3)">
          <a xlink:href="LangModule_8hpp__incl_org.svg" target="_base">
           <rect id="button" ry="5" rx="5" y="6" x="6" height="38" width="38"
                fill="#f2f5e9" fill-opacity="0.5" stroke="#606060" stroke-width="1.0"/>
           <path id="arrow"
             d="M 11.500037,31.436501 C 11.940474,20.09759 22.043105,11.32322 32.158766,21.979434 L 37.068811,17.246167 C 37.068811,17.246167 37.088388,32 37.088388,32 L 22.160133,31.978069 C 22.160133,31.978069 26.997745,27.140456 26.997745,27.140456 C 18.528582,18.264221 13.291696,25.230495 11.500037,31.436501 z"
             style="fill:#404040;"/>
          </a>
         </g>
        </svg>
</svg>
