<?xml version="1.0" encoding="UTF-8" standalone="no"?>
<!DOCTYPE svg PUBLIC "-//W3C//DTD SVG 1.1//EN"
 "http://www.w3.org/Graphics/SVG/1.1/DTD/svg11.dtd">
<!-- Generated by graphviz version 2.40.1 (20161225.0304)
 -->
<!-- Title: lib/core/src/LangModule.cpp Pages: 1 -->
<!--zoomable 274 -->
<svg id="main" version="1.1" xmlns="http://www.w3.org/2000/svg" xmlns:xlink="http://www.w3.org/1999/xlink" xml:space="preserve" onload="init(evt)">
<style type="text/css"><![CDATA[
.edge:hover path { stroke: red; }
.edge:hover polygon { stroke: red; fill: red; }
]]></style>
<script type="text/javascript"><![CDATA[
var edges = document.getElementsByTagName('g');
if (edges && edges.length) {
  for (var i=0;i<edges.length;i++) {
    if (edges[i].id.substr(0,4)=='edge') {
      edges[i].setAttribute('class','edge');
    }
  }
}
]]></script>
        <defs>
                <circle id="rim" cx="0" cy="0" r="7"/>
                <circle id="rim2" cx="0" cy="0" r="3.5"/>
                <g id="zoomPlus">
                        <use xlink:href="#rim" fill="#404040">
                                <set attributeName="fill" to="#808080" begin="zoomplus.mouseover" end="zoomplus.mouseout"/>
                        </use>
                        <path d="M-4,0h8M0,-4v8" fill="none" stroke="white" stroke-width="1.5" pointer-events="none"/>
                </g>
                <g id="zoomMin">
                        <use xlink:href="#rim" fill="#404040">
                                <set attributeName="fill" to="#808080" begin="zoomminus.mouseover" end="zoomminus.mouseout"/>
                        </use>
                        <path d="M-4,0h8" fill="none" stroke="white" stroke-width="1.5" pointer-events="none"/>
                </g>
                <g id="dirArrow">
                        <path fill="none" stroke="white" stroke-width="1.5" d="M0,-3.0v7 M-2.5,-0.5L0,-3.0L2.5,-0.5"/>
                </g>
               <g id="resetDef">
                       <use xlink:href="#rim2" fill="#404040">
                               <set attributeName="fill" to="#808080" begin="reset.mouseover" end="reset.mouseout"/>
                       </use>
               </g>
        </defs>

<script type="text/javascript">
var viewWidth = 2189;
var viewHeight = 274;
var sectionId = 'dynsection-0';
</script>
<script xlink:href="svgpan.js"/>
<svg id="graph" class="graph">
<g id="viewport">
<title>lib/core/src/LangModule.cpp</title>
<polygon fill="#ffffff" stroke="transparent" points="-4,4 -4,-270 2184.5,-270 2184.5,4 -4,4"/>
<!-- Node0 -->
<g id="node1" class="node">
<title>Node0</title>
<polygon fill="#bfbfbf" stroke="#000000" points="1418,-246.5 1418,-265.5 1557,-265.5 1557,-246.5 1418,-246.5"/>
<text text-anchor="middle" x="1487.5" y="-253.5" font-family="Helvetica,sans-Serif" font-size="10.00" fill="#000000">lib/core/src/LangModule.cpp</text>
</g>
<!-- Node1 -->
<g id="node2" class="node">
<title>Node1</title>
<g id="a_node2"><a xlink:href="LangModule_8hpp.html" target="_top" xlink:title="Defines the LangModule class. ">
<polygon fill="#ffffff" stroke="#000000" points="501.5,-190.5 501.5,-209.5 605.5,-209.5 605.5,-190.5 501.5,-190.5"/>
<text text-anchor="middle" x="553.5" y="-197.5" font-family="Helvetica,sans-Serif" font-size="10.00" fill="#000000">chi/LangModule.hpp</text>
</a>
</g>
</g>
<!-- Node0&#45;&gt;Node1 -->
<g id="edge1" class="edge">
<title>Node0&#45;&gt;Node1</title>
<path fill="none" stroke="#191970" d="M1417.6802,-251.8138C1241.8997,-241.2745 783.1988,-213.7721 615.8027,-203.7355"/>
<polygon fill="#191970" stroke="#191970" points="615.8683,-200.2332 605.6767,-203.1284 615.4492,-207.2207 615.8683,-200.2332"/>
</g>
<!-- Node13 -->
<g id="node14" class="node">
<title>Node13</title>
<g id="a_node14"><a xlink:href="Context_8hpp.html" target="_top" xlink:title="Defines the Context class and related functions. ">
<polygon fill="#ffffff" stroke="#000000" points="763,-190.5 763,-209.5 848,-209.5 848,-190.5 763,-190.5"/>
<text text-anchor="middle" x="805.5" y="-197.5" font-family="Helvetica,sans-Serif" font-size="10.00" fill="#000000">chi/Context.hpp</text>
</a>
</g>
</g>
<!-- Node0&#45;&gt;Node13 -->
<g id="edge15" class="edge">
<title>Node0&#45;&gt;Node13</title>
<path fill="none" stroke="#191970" d="M1417.7191,-250.2702C1280.9857,-239.0428 980.5274,-214.3718 858.542,-204.3554"/>
<polygon fill="#191970" stroke="#191970" points="858.5921,-200.8478 848.3392,-203.5176 858.0192,-207.8243 858.5921,-200.8478"/>
</g>
<!-- Node21 -->
<g id="node22" class="node">
<title>Node21</title>
<g id="a_node22"><a xlink:href="DataType_8hpp.html" target="_top" xlink:title="Defines the DataType class. ">
<polygon fill="#ffffff" stroke="#000000" points="250,-190.5 250,-209.5 343,-209.5 343,-190.5 250,-190.5"/>
<text text-anchor="middle" x="296.5" y="-197.5" font-family="Helvetica,sans-Serif" font-size="10.00" fill="#000000">chi/DataType.hpp</text>
</a>
</g>
</g>
<!-- Node0&#45;&gt;Node21 -->
<g id="edge30" class="edge">
<title>Node0&#45;&gt;Node21</title>
<path fill="none" stroke="#191970" d="M1417.8304,-252.8937C1255.5811,-245.6347 839.8901,-226.892 492.5,-210 445.6398,-207.7214 392.4851,-205.0009 353.3641,-202.9731"/>
<polygon fill="#191970" stroke="#191970" points="353.3951,-199.4701 343.2271,-202.4469 353.0322,-206.4607 353.3951,-199.4701"/>
</g>
<!-- Node23 -->
<g id="node24" class="node">
<title>Node23</title>
<g id="a_node24"><a xlink:href="LLVMVersion_8hpp.html" target="_top" xlink:title="chi/LLVMVersion.hpp">
<polygon fill="#ffffff" stroke="#000000" points="1432.5,-190.5 1432.5,-209.5 1542.5,-209.5 1542.5,-190.5 1432.5,-190.5"/>
<text text-anchor="middle" x="1487.5" y="-197.5" font-family="Helvetica,sans-Serif" font-size="10.00" fill="#000000">chi/LLVMVersion.hpp</text>
</a>
</g>
</g>
<!-- Node0&#45;&gt;Node23 -->
<g id="edge33" class="edge">
<title>Node0&#45;&gt;Node23</title>
<path fill="none" stroke="#191970" d="M1487.5,-246.2455C1487.5,-238.9382 1487.5,-228.6944 1487.5,-219.7046"/>
<polygon fill="#191970" stroke="#191970" points="1491.0001,-219.6426 1487.5,-209.6427 1484.0001,-219.6427 1491.0001,-219.6426"/>
</g>
<!-- Node25 -->
<g id="node26" class="node">
<title>Node25</title>
<g id="a_node26"><a xlink:href="NodeType_8hpp.html" target="_top" xlink:title="Defines the NodeType class. ">
<polygon fill="#ffffff" stroke="#000000" points="1185,-190.5 1185,-209.5 1280,-209.5 1280,-190.5 1185,-190.5"/>
<text text-anchor="middle" x="1232.5" y="-197.5" font-family="Helvetica,sans-Serif" font-size="10.00" fill="#000000">chi/NodeType.hpp</text>
</a>
</g>
</g>
<!-- Node0&#45;&gt;Node25 -->
<g id="edge35" class="edge">
<title>Node0&#45;&gt;Node25</title>
<path fill="none" stroke="#191970" d="M1443.9537,-246.4369C1400.2207,-236.8328 1332.7655,-222.0191 1285.8458,-211.7152"/>
<polygon fill="#191970" stroke="#191970" points="1286.3847,-208.2502 1275.8667,-209.5237 1284.8832,-215.0872 1286.3847,-208.2502"/>
</g>
<!-- Node27 -->
<g id="node28" class="node">
<title>Node27</title>
<g id="a_node28"><a xlink:href="Result_8hpp.html" target="_top" xlink:title="Defines the Result class and related functions. ">
<polygon fill="#ffffff" stroke="#000000" points="1298.5,-190.5 1298.5,-209.5 1414.5,-209.5 1414.5,-190.5 1298.5,-190.5"/>
<text text-anchor="middle" x="1356.5" y="-197.5" font-family="Helvetica,sans-Serif" font-size="10.00" fill="#000000">chi/Support/Result.hpp</text>
</a>
</g>
</g>
<!-- Node0&#45;&gt;Node27 -->
<g id="edge41" class="edge">
<title>Node0&#45;&gt;Node27</title>
<path fill="none" stroke="#191970" d="M1464.9803,-246.3733C1443.7628,-237.3032 1411.7724,-223.6279 1388.0231,-213.4755"/>
<polygon fill="#191970" stroke="#191970" points="1389.2967,-210.2136 1378.7258,-209.5011 1386.5452,-216.6502 1389.2967,-210.2136"/>
</g>
<!-- Node29 -->
<g id="node30" class="node">
<title>Node29</title>
<polygon fill="#ffffff" stroke="#bfbfbf" points="1560.5,-190.5 1560.5,-209.5 1686.5,-209.5 1686.5,-190.5 1560.5,-190.5"/>
<text text-anchor="middle" x="1623.5" y="-197.5" font-family="Helvetica,sans-Serif" font-size="10.00" fill="#000000">llvm/AsmParser/Parser.h</text>
</g>
<!-- Node0&#45;&gt;Node29 -->
<g id="edge44" class="edge">
<title>Node0&#45;&gt;Node29</title>
<path fill="none" stroke="#191970" d="M1510.8792,-246.3733C1533.0045,-237.2629 1566.4134,-223.5062 1591.1019,-213.3404"/>
<polygon fill="#191970" stroke="#191970" points="1592.5117,-216.5451 1600.4258,-209.5011 1589.8464,-210.0723 1592.5117,-216.5451"/>
</g>
<!-- Node30 -->
<g id="node31" class="node">
<title>Node30</title>
<polygon fill="#ffffff" stroke="#bfbfbf" points="1705,-190.5 1705,-209.5 1808,-209.5 1808,-190.5 1705,-190.5"/>
<text text-anchor="middle" x="1756.5" y="-197.5" font-family="Helvetica,sans-Serif" font-size="10.00" fill="#000000">llvm/IR/DebugInfo.h</text>
</g>
<!-- Node0&#45;&gt;Node30 -->
<g id="edge45" class="edge">
<title>Node0&#45;&gt;Node30</title>
<path fill="none" stroke="#191970" d="M1533.4371,-246.4369C1579.7645,-236.7925 1651.3268,-221.8948 1700.8469,-211.5858"/>
<polygon fill="#191970" stroke="#191970" points="1701.6756,-214.9884 1710.7524,-209.5237 1700.2489,-208.1353 1701.6756,-214.9884"/>
</g>
<!-- Node31 -->
<g id="node32" class="node">
<title>Node31</title>
<polygon fill="#ffffff" stroke="#bfbfbf" points="1826.5,-190.5 1826.5,-209.5 1924.5,-209.5 1924.5,-190.5 1826.5,-190.5"/>
<text text-anchor="middle" x="1875.5" y="-197.5" font-family="Helvetica,sans-Serif" font-size="10.00" fill="#000000">llvm/IR/IRBuilder.h</text>
</g>
<!-- Node0&#45;&gt;Node31 -->
<g id="edge46" class="edge">
<title>Node0&#45;&gt;Node31</title>
<path fill="none" stroke="#191970" d="M1557.1256,-246.9576C1621.6936,-238.4208 1720.7142,-224.9461 1816.3333,-210.144"/>
<polygon fill="#191970" stroke="#191970" points="1817.1271,-213.5627 1826.4705,-208.5677 1816.0515,-206.6458 1817.1271,-213.5627"/>
</g>
<!-- Node32 -->
<g id="node33" class="node">
<title>Node32</title>
<polygon fill="#ffffff" stroke="#bfbfbf" points="1942.5,-190.5 1942.5,-209.5 2032.5,-209.5 2032.5,-190.5 1942.5,-190.5"/>
<text text-anchor="middle" x="1987.5" y="-197.5" font-family="Helvetica,sans-Serif" font-size="10.00" fill="#000000">llvm/IR/Module.h</text>
</g>
<!-- Node0&#45;&gt;Node32 -->
<g id="edge47" class="edge">
<title>Node0&#45;&gt;Node32</title>
<path fill="none" stroke="#191970" d="M1557.2404,-250.5528C1643.1396,-243.4523 1793.7137,-229.7354 1932.4928,-210.0477"/>
<polygon fill="#191970" stroke="#191970" points="1933.0606,-213.5021 1942.4634,-208.6198 1932.0682,-206.5728 1933.0606,-213.5021"/>
</g>
<!-- Node33 -->
<g id="node34" class="node">
<title>Node33</title>
<polygon fill="#ffffff" stroke="#bfbfbf" points="2050.5,-190.5 2050.5,-209.5 2180.5,-209.5 2180.5,-190.5 2050.5,-190.5"/>
<text text-anchor="middle" x="2115.5" y="-197.5" font-family="Helvetica,sans-Serif" font-size="10.00" fill="#000000">llvm/Support/SourceMgr.h</text>
</g>
<!-- Node0&#45;&gt;Node33 -->
<g id="edge48" class="edge">
<title>Node0&#45;&gt;Node33</title>
<path fill="none" stroke="#191970" d="M1557.1384,-251.3732C1660.2904,-244.2634 1860.0167,-229.5169 2039.9681,-210.1214"/>
<polygon fill="#191970" stroke="#191970" points="2040.5882,-213.5748 2050.1523,-209.0164 2039.8331,-206.6156 2040.5882,-213.5748"/>
</g>
<!-- Node2 -->
<g id="node3" class="node">
<title>Node2</title>
<g id="a_node3"><a xlink:href="ChiModule_8hpp.html" target="_top" xlink:title="Defines the ChiModule class. ">
<polygon fill="#ffffff" stroke="#000000" points="171,-129 171,-148 268,-148 268,-129 171,-129"/>
<text text-anchor="middle" x="219.5" y="-136" font-family="Helvetica,sans-Serif" font-size="10.00" fill="#000000">chi/ChiModule.hpp</text>
</a>
</g>
</g>
<!-- Node1&#45;&gt;Node2 -->
<g id="edge2" class="edge">
<title>Node1&#45;&gt;Node2</title>
<path fill="none" stroke="#191970" d="M501.679,-190.4581C441.2771,-179.3362 341.6807,-160.9974 278.399,-149.3452"/>
<polygon fill="#191970" stroke="#191970" points="278.6494,-145.8325 268.1809,-147.4637 277.3818,-152.7168 278.6494,-145.8325"/>
</g>
<!-- Node3 -->
<g id="node4" class="node">
<title>Node3</title>
<g id="a_node4"><a xlink:href="core_2include_2chi_2Fwd_8hpp.html" target="_top" xlink:title="Forward declares all the chigraph data types. ">
<polygon fill="#ffffff" stroke="#000000" points="537,-62 537,-81 606,-81 606,-62 537,-62"/>
<text text-anchor="middle" x="571.5" y="-69" font-family="Helvetica,sans-Serif" font-size="10.00" fill="#000000">chi/Fwd.hpp</text>
</a>
</g>
</g>
<!-- Node1&#45;&gt;Node3 -->
<g id="edge13" class="edge">
<title>Node1&#45;&gt;Node3</title>
<path fill="none" stroke="#191970" d="M501.4352,-194.2706C442.7354,-185.6492 359.394,-165.5801 391.5,-123 399.8071,-111.9828 476.2854,-92.9233 526.8459,-81.3372"/>
<polygon fill="#191970" stroke="#191970" points="527.9198,-84.6825 536.896,-79.0541 526.369,-77.8564 527.9198,-84.6825"/>
</g>
<!-- Node12 -->
<g id="node13" class="node">
<title>Node12</title>
<polygon fill="#ffffff" stroke="#bfbfbf" points="883,-129 883,-148 966,-148 966,-129 883,-129"/>
<text text-anchor="middle" x="924.5" y="-136" font-family="Helvetica,sans-Serif" font-size="10.00" fill="#000000">unordered_map</text>
</g>
<!-- Node1&#45;&gt;Node12 -->
<g id="edge14" class="edge">
<title>Node1&#45;&gt;Node12</title>
<path fill="none" stroke="#191970" d="M605.7622,-194.959C669.4844,-188.2466 780.2249,-174.7515 873.5,-154 877.6158,-153.0843 881.882,-152.0036 886.1147,-150.8456"/>
<polygon fill="#191970" stroke="#191970" points="887.2025,-154.1747 895.8439,-148.0446 885.2658,-147.4479 887.2025,-154.1747"/>
</g>
<!-- Node2&#45;&gt;Node3 -->
<g id="edge3" class="edge">
<title>Node2&#45;&gt;Node3</title>
<path fill="none" stroke="#191970" d="M256.035,-128.9975C264.6825,-126.8911 273.8931,-124.7634 282.5,-123 379.1324,-103.202 404.6433,-105.6696 501.5,-87 509.6678,-85.4256 518.3415,-83.6169 526.7003,-81.8036"/>
<polygon fill="#191970" stroke="#191970" points="527.6716,-85.1736 536.6848,-79.6048 526.1661,-78.3374 527.6716,-85.1736"/>
</g>
<!-- Node5 -->
<g id="node6" class="node">
<title>Node5</title>
<g id="a_node6"><a xlink:href="HashFilesystemPath_8hpp.html" target="_top" xlink:title="chi/Support/HashFilesystem\lPath.hpp">
<polygon fill="#ffffff" stroke="#000000" points="81.5,-56.5 81.5,-86.5 221.5,-86.5 221.5,-56.5 81.5,-56.5"/>
<text text-anchor="start" x="89.5" y="-74.5" font-family="Helvetica,sans-Serif" font-size="10.00" fill="#000000">chi/Support/HashFilesystem</text>
<text text-anchor="middle" x="151.5" y="-63.5" font-family="Helvetica,sans-Serif" font-size="10.00" fill="#000000">Path.hpp</text>
</a>
</g>
</g>
<!-- Node2&#45;&gt;Node5 -->
<g id="edge5" class="edge">
<title>Node2&#45;&gt;Node5</title>
<path fill="none" stroke="#191970" d="M209.7573,-128.9005C200.4512,-119.7313 186.0862,-105.5776 173.9496,-93.6195"/>
<polygon fill="#191970" stroke="#191970" points="176.3257,-91.0471 166.746,-86.5218 171.4128,-96.0334 176.3257,-91.0471"/>
</g>
<!-- Node6 -->
<g id="node7" class="node">
<title>Node6</title>
<polygon fill="#ffffff" stroke="#bfbfbf" points="0,-.5 0,-19.5 107,-19.5 107,-.5 0,-.5"/>
<text text-anchor="middle" x="53.5" y="-7.5" font-family="Helvetica,sans-Serif" font-size="10.00" fill="#000000">boost/filesystem.hpp</text>
</g>
<!-- Node2&#45;&gt;Node6 -->
<g id="edge9" class="edge">
<title>Node2&#45;&gt;Node6</title>
<path fill="none" stroke="#191970" d="M187.0534,-128.9243C146.2295,-116.6054 80.4587,-95.7536 72.5,-87 58.2913,-71.3722 54.2886,-46.8258 53.3625,-29.6604"/>
<polygon fill="#191970" stroke="#191970" points="56.8604,-29.5273 53.1218,-19.614 49.8624,-29.695 56.8604,-29.5273"/>
</g>
<!-- Node8 -->
<g id="node9" class="node">
<title>Node8</title>
<polygon fill="#ffffff" stroke="#bfbfbf" points="1184.5,-62 1184.5,-81 1290.5,-81 1290.5,-62 1184.5,-62"/>
<text text-anchor="middle" x="1237.5" y="-69" font-family="Helvetica,sans-Serif" font-size="10.00" fill="#000000">chi/Support/json.hpp</text>
</g>
<!-- Node2&#45;&gt;Node8 -->
<g id="edge8" class="edge">
<title>Node2&#45;&gt;Node8</title>
<path fill="none" stroke="#191970" d="M268.0215,-133.636C302.455,-130.3045 349.7804,-125.9687 391.5,-123 697.3665,-101.2353 774.7291,-110.0696 1080.5,-87 1111.2706,-84.6784 1145.3655,-81.3982 1173.8989,-78.4528"/>
<polygon fill="#191970" stroke="#191970" points="1174.5598,-81.9029 1184.1432,-77.3851 1173.8342,-74.9406 1174.5598,-81.9029"/>
</g>
<!-- Node9 -->
<g id="node10" class="node">
<title>Node9</title>
<polygon fill="#ffffff" stroke="#bfbfbf" points="287.5,-56.5 287.5,-86.5 381.5,-86.5 381.5,-56.5 287.5,-56.5"/>
<text text-anchor="start" x="295.5" y="-74.5" font-family="Helvetica,sans-Serif" font-size="10.00" fill="#000000">boost/utility/string</text>
<text text-anchor="middle" x="334.5" y="-63.5" font-family="Helvetica,sans-Serif" font-size="10.00" fill="#000000">_view.hpp</text>
</g>
<!-- Node2&#45;&gt;Node9 -->
<g id="edge10" class="edge">
<title>Node2&#45;&gt;Node9</title>
<path fill="none" stroke="#191970" d="M235.9767,-128.9005C252.6057,-119.2123 278.7862,-103.9593 299.9807,-91.6113"/>
<polygon fill="#191970" stroke="#191970" points="301.8378,-94.58 308.7164,-86.5218 298.3139,-88.5317 301.8378,-94.58"/>
</g>
<!-- Node10 -->
<g id="node11" class="node">
<title>Node10</title>
<polygon fill="#ffffff" stroke="#bfbfbf" points="239.5,-62 239.5,-81 269.5,-81 269.5,-62 239.5,-62"/>
<text text-anchor="middle" x="254.5" y="-69" font-family="Helvetica,sans-Serif" font-size="10.00" fill="#000000">set</text>
</g>
<!-- Node2&#45;&gt;Node10 -->
<g id="edge11" class="edge">
<title>Node2&#45;&gt;Node10</title>
<path fill="none" stroke="#191970" d="M224.5146,-128.9005C229.7647,-118.8505 238.1429,-102.8122 244.7103,-90.2403"/>
<polygon fill="#191970" stroke="#191970" points="247.9666,-91.5657 249.4947,-81.0817 241.7622,-88.3246 247.9666,-91.5657"/>
</g>
<!-- Node11 -->
<g id="node12" class="node">
<title>Node11</title>
<polygon fill="#ffffff" stroke="#bfbfbf" points="452,-62 452,-81 493,-81 493,-62 452,-62"/>
<text text-anchor="middle" x="472.5" y="-69" font-family="Helvetica,sans-Serif" font-size="10.00" fill="#000000">ctime</text>
</g>
<!-- Node2&#45;&gt;Node11 -->
<g id="edge12" class="edge">
<title>Node2&#45;&gt;Node11</title>
<path fill="none" stroke="#191970" d="M255.48,-128.9717C305.4515,-115.7381 394.999,-92.024 441.9183,-79.5987"/>
<polygon fill="#191970" stroke="#191970" points="443.026,-82.9261 451.7968,-76.9827 441.234,-76.1593 443.026,-82.9261"/>
</g>
<!-- Node4 -->
<g id="node5" class="node">
<title>Node4</title>
<g id="a_node5"><a xlink:href="support_2include_2chi_2Support_2Fwd_8hpp.html" target="_top" xlink:title="chi/Support/Fwd.hpp">
<polygon fill="#ffffff" stroke="#000000" points="518.5,-.5 518.5,-19.5 624.5,-19.5 624.5,-.5 518.5,-.5"/>
<text text-anchor="middle" x="571.5" y="-7.5" font-family="Helvetica,sans-Serif" font-size="10.00" fill="#000000">chi/Support/Fwd.hpp</text>
</a>
</g>
</g>
<!-- Node3&#45;&gt;Node4 -->
<g id="edge4" class="edge">
<title>Node3&#45;&gt;Node4</title>
<path fill="none" stroke="#191970" d="M571.5,-61.8906C571.5,-53.3657 571.5,-40.6392 571.5,-29.9235"/>
<polygon fill="#191970" stroke="#191970" points="575.0001,-29.7448 571.5,-19.7449 568.0001,-29.7449 575.0001,-29.7448"/>
</g>
<!-- Node5&#45;&gt;Node6 -->
<g id="edge6" class="edge">
<title>Node5&#45;&gt;Node6</title>
<path fill="none" stroke="#191970" d="M127.5265,-56.4554C112.3224,-46.9141 92.7241,-34.6151 77.5125,-25.0691"/>
<polygon fill="#191970" stroke="#191970" points="79.0172,-21.8813 68.6865,-19.5303 75.2963,-27.8105 79.0172,-21.8813"/>
</g>
<!-- Node7 -->
<g id="node8" class="node">
<title>Node7</title>
<polygon fill="#ffffff" stroke="#bfbfbf" points="125,-.5 125,-19.5 184,-19.5 184,-.5 125,-.5"/>
<text text-anchor="middle" x="154.5" y="-7.5" font-family="Helvetica,sans-Serif" font-size="10.00" fill="#000000">functional</text>
</g>
<!-- Node5&#45;&gt;Node7 -->
<g id="edge7" class="edge">
<title>Node5&#45;&gt;Node7</title>
<path fill="none" stroke="#191970" d="M152.2416,-56.2977C152.6276,-48.3834 153.1047,-38.6043 153.5207,-30.0759"/>
<polygon fill="#191970" stroke="#191970" points="157.0282,-30.0056 154.0197,-19.8469 150.0365,-29.6645 157.0282,-30.0056"/>
</g>
<!-- Node13&#45;&gt;Node3 -->
<g id="edge18" class="edge">
<title>Node13&#45;&gt;Node3</title>
<path fill="none" stroke="#191970" d="M786.2857,-190.3503C768.1808,-181.1916 740.3486,-166.9408 716.5,-154 704.854,-147.6806 635.7686,-108.2416 597.3112,-86.2605"/>
<polygon fill="#191970" stroke="#191970" points="598.666,-83.0035 588.2474,-81.0791 595.1919,-89.0806 598.666,-83.0035"/>
</g>
<!-- Node13&#45;&gt;Node8 -->
<g id="edge25" class="edge">
<title>Node13&#45;&gt;Node8</title>
<path fill="none" stroke="#191970" d="M848.1755,-196.2454C919.6628,-189.4948 1060.2384,-174.1161 1105.5,-154 1125.4174,-145.1479 1125.4223,-135.1762 1143.5,-123 1164.3609,-108.9492 1189.3975,-95.3791 1208.3851,-85.6989"/>
<polygon fill="#191970" stroke="#191970" points="1210.0817,-88.7634 1217.4416,-81.1421 1206.9354,-82.5103 1210.0817,-88.7634"/>
</g>
<!-- Node13&#45;&gt;Node9 -->
<g id="edge29" class="edge">
<title>Node13&#45;&gt;Node9</title>
<path fill="none" stroke="#191970" d="M762.9319,-197.2724C663.6793,-190.6292 422.9308,-172.7734 391.5,-154 369.3544,-140.7725 353.7491,-115.2192 344.5319,-96.0395"/>
<polygon fill="#191970" stroke="#191970" points="347.6101,-94.3526 340.2935,-86.6898 341.2346,-97.2428 347.6101,-94.3526"/>
</g>
<!-- Node13&#45;&gt;Node12 -->
<g id="edge17" class="edge">
<title>Node13&#45;&gt;Node12</title>
<path fill="none" stroke="#191970" d="M824.0938,-190.3906C843.6553,-180.2811 874.6501,-164.2628 897.0309,-152.6962"/>
<polygon fill="#191970" stroke="#191970" points="898.76,-155.7425 906.0368,-148.0419 895.5461,-149.5238 898.76,-155.7425"/>
</g>
<!-- Node14 -->
<g id="node15" class="node">
<title>Node14</title>
<polygon fill="#ffffff" stroke="#bfbfbf" points="1152.5,-129 1152.5,-148 1204.5,-148 1204.5,-129 1152.5,-129"/>
<text text-anchor="middle" x="1178.5" y="-136" font-family="Helvetica,sans-Serif" font-size="10.00" fill="#000000">memory</text>
</g>
<!-- Node13&#45;&gt;Node14 -->
<g id="edge16" class="edge">
<title>Node13&#45;&gt;Node14</title>
<path fill="none" stroke="#191970" d="M848.167,-197.2897C912.1182,-192.5166 1036.2411,-180.49 1138.5,-154 1141.2712,-153.2821 1144.112,-152.4304 1146.939,-151.5012"/>
<polygon fill="#191970" stroke="#191970" points="1148.1394,-154.789 1156.3763,-148.1254 1145.7817,-148.198 1148.1394,-154.789"/>
</g>
<!-- Node15 -->
<g id="node16" class="node">
<title>Node15</title>
<g id="a_node16"><a xlink:href="ModuleCache_8hpp.html" target="_top" xlink:title="chi/ModuleCache.hpp">
<polygon fill="#ffffff" stroke="#000000" points="542.5,-129 542.5,-148 652.5,-148 652.5,-129 542.5,-129"/>
<text text-anchor="middle" x="597.5" y="-136" font-family="Helvetica,sans-Serif" font-size="10.00" fill="#000000">chi/ModuleCache.hpp</text>
</a>
</g>
</g>
<!-- Node13&#45;&gt;Node15 -->
<g id="edge19" class="edge">
<title>Node13&#45;&gt;Node15</title>
<path fill="none" stroke="#191970" d="M773,-190.3906C737.053,-179.7621 679.0173,-162.6025 639.612,-150.9514"/>
<polygon fill="#191970" stroke="#191970" points="640.3538,-147.521 629.7718,-148.0419 638.369,-154.2337 640.3538,-147.521"/>
</g>
<!-- Node16 -->
<g id="node17" class="node">
<title>Node16</title>
<polygon fill="#ffffff" stroke="#bfbfbf" points="639,-62 639,-81 768,-81 768,-62 639,-62"/>
<text text-anchor="middle" x="703.5" y="-69" font-family="Helvetica,sans-Serif" font-size="10.00" fill="#000000">boost/filesystem/path.hpp</text>
</g>
<!-- Node13&#45;&gt;Node16 -->
<g id="edge28" class="edge">
<title>Node13&#45;&gt;Node16</title>
<path fill="none" stroke="#191970" d="M785.2842,-190.4283C770.3565,-182.4797 750.461,-169.9143 737.5,-154 722.2694,-135.299 712.989,-108.8314 708.0545,-90.9604"/>
<polygon fill="#191970" stroke="#191970" points="711.3988,-89.9109 705.5294,-81.0904 704.6172,-91.6459 711.3988,-89.9109"/>
</g>
<!-- Node17 -->
<g id="node18" class="node">
<title>Node17</title>
<g id="a_node18"><a xlink:href="Flags_8hpp.html" target="_top" xlink:title="chi/Support/Flags.hpp">
<polygon fill="#ffffff" stroke="#000000" points="984.5,-129 984.5,-148 1096.5,-148 1096.5,-129 984.5,-129"/>
<text text-anchor="middle" x="1040.5" y="-136" font-family="Helvetica,sans-Serif" font-size="10.00" fill="#000000">chi/Support/Flags.hpp</text>
</a>
</g>
</g>
<!-- Node13&#45;&gt;Node17 -->
<g id="edge23" class="edge">
<title>Node13&#45;&gt;Node17</title>
<path fill="none" stroke="#191970" d="M841.9609,-190.4581C882.9515,-179.7308 949.5969,-162.2895 994.226,-150.61"/>
<polygon fill="#191970" stroke="#191970" points="995.1655,-153.9821 1003.9536,-148.0643 993.3932,-147.2101 995.1655,-153.9821"/>
</g>
<!-- Node19 -->
<g id="node20" class="node">
<title>Node19</title>
<polygon fill="#ffffff" stroke="#bfbfbf" points="746.5,-129 746.5,-148 864.5,-148 864.5,-129 746.5,-129"/>
<text text-anchor="middle" x="805.5" y="-136" font-family="Helvetica,sans-Serif" font-size="10.00" fill="#000000">llvm/IR/LLVMContext.h</text>
</g>
<!-- Node13&#45;&gt;Node19 -->
<g id="edge26" class="edge">
<title>Node13&#45;&gt;Node19</title>
<path fill="none" stroke="#191970" d="M805.5,-190.3906C805.5,-181.8657 805.5,-169.1392 805.5,-158.4235"/>
<polygon fill="#191970" stroke="#191970" points="809.0001,-158.2448 805.5,-148.2449 802.0001,-158.2449 809.0001,-158.2448"/>
</g>
<!-- Node20 -->
<g id="node21" class="node">
<title>Node20</title>
<polygon fill="#ffffff" stroke="#bfbfbf" points="401,-129 401,-148 524,-148 524,-129 401,-129"/>
<text text-anchor="middle" x="462.5" y="-136" font-family="Helvetica,sans-Serif" font-size="10.00" fill="#000000">llvm/Support/CodeGen.h</text>
</g>
<!-- Node13&#45;&gt;Node20 -->
<g id="edge27" class="edge">
<title>Node13&#45;&gt;Node20</title>
<path fill="none" stroke="#191970" d="M762.985,-193.4495C709.3586,-185.0402 614.3739,-169.6572 533.5,-154 527.3221,-152.804 520.8566,-151.4856 514.4499,-150.1381"/>
<polygon fill="#191970" stroke="#191970" points="514.9909,-146.6748 504.4805,-148.0097 513.5293,-153.5205 514.9909,-146.6748"/>
</g>
<!-- Node15&#45;&gt;Node3 -->
<g id="edge20" class="edge">
<title>Node15&#45;&gt;Node3</title>
<path fill="none" stroke="#191970" d="M593.7748,-128.9005C589.9134,-118.95 583.774,-103.1292 578.9177,-90.6147"/>
<polygon fill="#191970" stroke="#191970" points="582.099,-89.1381 575.2183,-81.0817 575.5731,-91.6706 582.099,-89.1381"/>
</g>
<!-- Node15&#45;&gt;Node11 -->
<g id="edge22" class="edge">
<title>Node15&#45;&gt;Node11</title>
<path fill="none" stroke="#191970" d="M579.5905,-128.9005C558.6127,-117.6564 523.6504,-98.9166 499.4065,-85.9219"/>
<polygon fill="#191970" stroke="#191970" points="500.8435,-82.7211 490.3762,-81.0817 497.5365,-88.8907 500.8435,-82.7211"/>
</g>
<!-- Node15&#45;&gt;Node16 -->
<g id="edge21" class="edge">
<title>Node15&#45;&gt;Node16</title>
<path fill="none" stroke="#191970" d="M612.6872,-128.9005C630.2403,-117.8057 659.3394,-99.4128 679.8598,-86.4424"/>
<polygon fill="#191970" stroke="#191970" points="681.758,-89.3832 688.341,-81.0817 678.0179,-83.4661 681.758,-89.3832"/>
</g>
<!-- Node18 -->
<g id="node19" class="node">
<title>Node18</title>
<polygon fill="#ffffff" stroke="#bfbfbf" points="1009.5,-62 1009.5,-81 1071.5,-81 1071.5,-62 1009.5,-62"/>
<text text-anchor="middle" x="1040.5" y="-69" font-family="Helvetica,sans-Serif" font-size="10.00" fill="#000000">type_traits</text>
</g>
<!-- Node17&#45;&gt;Node18 -->
<g id="edge24" class="edge">
<title>Node17&#45;&gt;Node18</title>
<path fill="none" stroke="#191970" d="M1040.5,-128.9005C1040.5,-119.149 1040.5,-103.7597 1040.5,-91.3695"/>
<polygon fill="#191970" stroke="#191970" points="1044.0001,-91.0816 1040.5,-81.0817 1037.0001,-91.0817 1044.0001,-91.0816"/>
</g>
<!-- Node21&#45;&gt;Node3 -->
<g id="edge31" class="edge">
<title>Node21&#45;&gt;Node3</title>
<path fill="none" stroke="#191970" d="M304.2329,-190.3803C317.8837,-174.0454 347.908,-140.9178 380.5,-123 393.3998,-115.9082 474.691,-95.216 526.9805,-82.3214"/>
<polygon fill="#191970" stroke="#191970" points="527.8278,-85.7174 536.703,-79.9312 526.1566,-78.9199 527.8278,-85.7174"/>
</g>
<!-- Node22 -->
<g id="node23" class="node">
<title>Node22</title>
<polygon fill="#ffffff" stroke="#bfbfbf" points="112,-129 112,-148 153,-148 153,-129 112,-129"/>
<text text-anchor="middle" x="132.5" y="-136" font-family="Helvetica,sans-Serif" font-size="10.00" fill="#000000">string</text>
</g>
<!-- Node21&#45;&gt;Node22 -->
<g id="edge32" class="edge">
<title>Node21&#45;&gt;Node22</title>
<path fill="none" stroke="#191970" d="M263.7538,-190.4795C236.0615,-182.0425 195.5684,-168.7921 161.5,-154 160.5051,-153.568 159.4981,-153.1148 158.4863,-152.6458"/>
<polygon fill="#191970" stroke="#191970" points="159.9597,-149.4696 149.4473,-148.15 156.8423,-155.7372 159.9597,-149.4696"/>
</g>
<!-- Node24 -->
<g id="node25" class="node">
<title>Node24</title>
<polygon fill="#ffffff" stroke="#bfbfbf" points="1516.5,-129 1516.5,-148 1640.5,-148 1640.5,-129 1516.5,-129"/>
<text text-anchor="middle" x="1578.5" y="-136" font-family="Helvetica,sans-Serif" font-size="10.00" fill="#000000">llvm/Config/llvm&#45;config.h</text>
</g>
<!-- Node23&#45;&gt;Node24 -->
<g id="edge34" class="edge">
<title>Node23&#45;&gt;Node24</title>
<path fill="none" stroke="#191970" d="M1501.7188,-190.3906C1516.1434,-180.6421 1538.6976,-165.3994 1555.636,-153.9521"/>
<polygon fill="#191970" stroke="#191970" points="1558.0556,-156.5412 1564.3811,-148.0419 1554.1359,-150.7415 1558.0556,-156.5412"/>
</g>
<!-- Node25&#45;&gt;Node3 -->
<g id="edge39" class="edge">
<title>Node25&#45;&gt;Node3</title>
<path fill="none" stroke="#191970" d="M1233.3834,-190.3634C1234.3164,-173.695 1233.4837,-139.6694 1213.5,-123 1163.5764,-81.3562 693.6676,-97.4444 629.5,-87 623.9705,-86.1 618.2061,-84.8946 612.5492,-83.5518"/>
<polygon fill="#191970" stroke="#191970" points="613.11,-80.0834 602.5569,-81.0225 611.3923,-86.8694 613.11,-80.0834"/>
</g>
<!-- Node25&#45;&gt;Node8 -->
<g id="edge40" class="edge">
<title>Node25&#45;&gt;Node8</title>
<path fill="none" stroke="#191970" d="M1265.1897,-190.4174C1282.8362,-183.3899 1303.0862,-171.8899 1313.5,-154 1320.4313,-142.0927 1319.9552,-135.172 1313.5,-123 1304.6358,-106.2856 1287.6517,-93.999 1271.9837,-85.6276"/>
<polygon fill="#191970" stroke="#191970" points="1273.4941,-82.4697 1262.9821,-81.1471 1270.3749,-88.7364 1273.4941,-82.4697"/>
</g>
<!-- Node25&#45;&gt;Node12 -->
<g id="edge37" class="edge">
<title>Node25&#45;&gt;Node12</title>
<path fill="none" stroke="#191970" d="M1184.7844,-193.1839C1132.9202,-185.3753 1047.7745,-171.3869 975.5,-154 971.6129,-153.0649 967.5852,-152.0039 963.5752,-150.8863"/>
<polygon fill="#191970" stroke="#191970" points="964.3129,-147.456 953.7336,-148.0305 962.3621,-154.1787 964.3129,-147.456"/>
</g>
<!-- Node25&#45;&gt;Node14 -->
<g id="edge36" class="edge">
<title>Node25&#45;&gt;Node14</title>
<path fill="none" stroke="#191970" d="M1224.0625,-190.3906C1215.9469,-181.1478 1203.4945,-166.966 1193.6576,-155.7628"/>
<polygon fill="#191970" stroke="#191970" points="1196.2846,-153.45 1187.0565,-148.2449 1191.0245,-158.0686 1196.2846,-153.45"/>
</g>
<!-- Node26 -->
<g id="node27" class="node">
<title>Node26</title>
<polygon fill="#ffffff" stroke="#bfbfbf" points="1260.5,-129 1260.5,-148 1304.5,-148 1304.5,-129 1260.5,-129"/>
<text text-anchor="middle" x="1282.5" y="-136" font-family="Helvetica,sans-Serif" font-size="10.00" fill="#000000">vector</text>
</g>
<!-- Node25&#45;&gt;Node26 -->
<g id="edge38" class="edge">
<title>Node25&#45;&gt;Node26</title>
<path fill="none" stroke="#191970" d="M1240.3125,-190.3906C1247.754,-181.2376 1259.1334,-167.2409 1268.1992,-156.09"/>
<polygon fill="#191970" stroke="#191970" points="1270.9847,-158.212 1274.5774,-148.2449 1265.5533,-153.7962 1270.9847,-158.212"/>
</g>
<!-- Node27&#45;&gt;Node8 -->
<g id="edge42" class="edge">
<title>Node27&#45;&gt;Node8</title>
<path fill="none" stroke="#191970" d="M1355.3501,-190.4017C1353.0235,-174.6793 1346.4515,-143.172 1329.5,-123 1315.1598,-105.9354 1293.6455,-93.4524 1275.0269,-85.0535"/>
<polygon fill="#191970" stroke="#191970" points="1276.179,-81.7398 1265.6079,-81.0311 1273.4298,-88.1773 1276.179,-81.7398"/>
</g>
<!-- Node28 -->
<g id="node29" class="node">
<title>Node28</title>
<polygon fill="#ffffff" stroke="#bfbfbf" points="1398.5,-123.5 1398.5,-153.5 1498.5,-153.5 1498.5,-123.5 1398.5,-123.5"/>
<text text-anchor="start" x="1406.5" y="-141.5" font-family="Helvetica,sans-Serif" font-size="10.00" fill="#000000">boost/container/flat</text>
<text text-anchor="middle" x="1448.5" y="-130.5" font-family="Helvetica,sans-Serif" font-size="10.00" fill="#000000">_map.hpp</text>
</g>
<!-- Node27&#45;&gt;Node28 -->
<g id="edge43" class="edge">
<title>Node27&#45;&gt;Node28</title>
<path fill="none" stroke="#191970" d="M1370.875,-190.3906C1383.3261,-182.0673 1401.7686,-169.7389 1417.5534,-159.1872"/>
<polygon fill="#191970" stroke="#191970" points="1419.6258,-162.0118 1425.9943,-153.5446 1415.7356,-156.1923 1419.6258,-162.0118"/>
</g>
</g>
</svg>
        <g id="navigator" transform="translate(0 0)" fill="#404254">
                <rect fill="#f2f5e9" fill-opacity="0.5" stroke="#606060" stroke-width=".5" x="0" y="0" width="60" height="60"/>
                <use id="zoomplus" xlink:href="#zoomPlus" x="17" y="9" onmousedown="handleZoom(evt,'in')"/>
                <use id="zoomminus" xlink:href="#zoomMin" x="42" y="9" onmousedown="handleZoom(evt,'out')"/>
                <use id="reset" xlink:href="#resetDef" x="30" y="36" onmousedown="handleReset()"/>
                <g id="arrowUp" xlink:href="#dirArrow" transform="translate(30 24)" onmousedown="handlePan(0,-1)">
                  <use xlink:href="#rim" fill="#404040">
                        <set attributeName="fill" to="#808080" begin="arrowUp.mouseover" end="arrowUp.mouseout"/>
                  </use>
                  <path fill="none" stroke="white" stroke-width="1.5" d="M0,-3.0v7 M-2.5,-0.5L0,-3.0L2.5,-0.5"/>
                </g>
                <g id="arrowRight" xlink:href="#dirArrow" transform="rotate(90) translate(36 -43)" onmousedown="handlePan(1,0)">
                  <use xlink:href="#rim" fill="#404040">
                        <set attributeName="fill" to="#808080" begin="arrowRight.mouseover" end="arrowRight.mouseout"/>
                  </use>
                  <path fill="none" stroke="white" stroke-width="1.5" d="M0,-3.0v7 M-2.5,-0.5L0,-3.0L2.5,-0.5"/>
                </g>
                <g id="arrowDown" xlink:href="#dirArrow" transform="rotate(180) translate(-30 -48)" onmousedown="handlePan(0,1)">
                  <use xlink:href="#rim" fill="#404040">
                        <set attributeName="fill" to="#808080" begin="arrowDown.mouseover" end="arrowDown.mouseout"/>
                  </use>
                  <path fill="none" stroke="white" stroke-width="1.5" d="M0,-3.0v7 M-2.5,-0.5L0,-3.0L2.5,-0.5"/>
                </g>
                <g id="arrowLeft" xlink:href="#dirArrow" transform="rotate(270) translate(-36 17)" onmousedown="handlePan(-1,0)">
                  <use xlink:href="#rim" fill="#404040">
                        <set attributeName="fill" to="#808080" begin="arrowLeft.mouseover" end="arrowLeft.mouseout"/>
                  </use>
                  <path fill="none" stroke="white" stroke-width="1.5" d="M0,-3.0v7 M-2.5,-0.5L0,-3.0L2.5,-0.5"/>
                </g>
        </g>
        <svg viewBox="0 0 15 15" width="100%" height="30px" preserveAspectRatio="xMaxYMin meet">
         <g id="arrow_out" transform="scale(0.3 0.3)">
          <a xlink:href="LangModule_8cpp__incl_org.svg" target="_base">
           <rect id="button" ry="5" rx="5" y="6" x="6" height="38" width="38"
                fill="#f2f5e9" fill-opacity="0.5" stroke="#606060" stroke-width="1.0"/>
           <path id="arrow"
             d="M 11.500037,31.436501 C 11.940474,20.09759 22.043105,11.32322 32.158766,21.979434 L 37.068811,17.246167 C 37.068811,17.246167 37.088388,32 37.088388,32 L 22.160133,31.978069 C 22.160133,31.978069 26.997745,27.140456 26.997745,27.140456 C 18.528582,18.264221 13.291696,25.230495 11.500037,31.436501 z"
             style="fill:#404040;"/>
          </a>
         </g>
        </svg>
</svg>
