<?xml version="1.0" encoding="UTF-8" standalone="no"?>
<!DOCTYPE svg PUBLIC "-//W3C//DTD SVG 1.1//EN"
 "http://www.w3.org/Graphics/SVG/1.1/DTD/svg11.dtd">
<!-- Generated by graphviz version 2.40.1 (20161225.0304)
 -->
<!-- Title: libchigraph/include/chi/LLVMVersion.hpp Pages: 1 -->
<svg width="1285pt" height="106pt"
 viewBox="0.00 0.00 1285.00 106.00" xmlns="http://www.w3.org/2000/svg" xmlns:xlink="http://www.w3.org/1999/xlink">
<g id="graph0" class="graph" transform="scale(1 1) rotate(0) translate(4 102)">
<title>libchigraph/include/chi/LLVMVersion.hpp</title>
<polygon fill="#ffffff" stroke="transparent" points="-4,4 -4,-102 1281,-102 1281,4 -4,4"/>
<!-- Node2 -->
<g id="node1" class="node">
<title>Node2</title>
<polygon fill="#bfbfbf" stroke="#000000" points="576,-67.5 576,-97.5 689,-97.5 689,-67.5 576,-67.5"/>
<text text-anchor="start" x="584" y="-85.5" font-family="Helvetica,sans-Serif" font-size="10.00" fill="#000000">libchigraph/include</text>
<text text-anchor="middle" x="632.5" y="-74.5" font-family="Helvetica,sans-Serif" font-size="10.00" fill="#000000">/chi/LLVMVersion.hpp</text>
</g>
<!-- Node3 -->
<g id="node2" class="node">
<title>Node3</title>
<g id="a_node2"><a xlink:href="Context_8cpp.html" target="_top" xlink:title="libchigraph/src/Context.cpp">
<polygon fill="#ffffff" stroke="#000000" points="0,-6 0,-25 135,-25 135,-6 0,-6"/>
<text text-anchor="middle" x="67.5" y="-13" font-family="Helvetica,sans-Serif" font-size="10.00" fill="#000000">libchigraph/src/Context.cpp</text>
</a>
</g>
</g>
<!-- Node2&#45;&gt;Node3 -->
<g id="edge1" class="edge">
<title>Node2&#45;&gt;Node3</title>
<path fill="none" stroke="#191970" d="M565.6793,-77.4395C471.4399,-69.8506 294.2568,-53.9237 144.5,-31 133.7166,-29.3494 122.1533,-27.2167 111.3506,-25.0645"/>
<polygon fill="#191970" stroke="#191970" points="565.6752,-80.9502 575.9222,-78.2577 566.2327,-73.9725 565.6752,-80.9502"/>
</g>
<!-- Node4 -->
<g id="node3" class="node">
<title>Node4</title>
<g id="a_node3"><a xlink:href="FunctionCompiler_8cpp.html" target="_top" xlink:title="libchigraph/src/Function\lCompiler.cpp">
<polygon fill="#ffffff" stroke="#000000" points="153.5,-.5 153.5,-30.5 273.5,-30.5 273.5,-.5 153.5,-.5"/>
<text text-anchor="start" x="161.5" y="-18.5" font-family="Helvetica,sans-Serif" font-size="10.00" fill="#000000">libchigraph/src/Function</text>
<text text-anchor="middle" x="213.5" y="-7.5" font-family="Helvetica,sans-Serif" font-size="10.00" fill="#000000">Compiler.cpp</text>
</a>
</g>
</g>
<!-- Node2&#45;&gt;Node4 -->
<g id="edge2" class="edge">
<title>Node2&#45;&gt;Node4</title>
<path fill="none" stroke="#191970" d="M565.8187,-74.1992C495.2153,-65.0575 380.633,-49.2155 282.5,-31 279.6028,-30.4622 276.6425,-29.8891 273.6562,-29.2919"/>
<polygon fill="#191970" stroke="#191970" points="565.544,-77.6926 575.9092,-75.4988 566.4383,-70.75 565.544,-77.6926"/>
</g>
<!-- Node5 -->
<g id="node4" class="node">
<title>Node5</title>
<g id="a_node4"><a xlink:href="GraphModule_8cpp.html" target="_top" xlink:title="libchigraph/src/GraphModule.cpp">
<polygon fill="#ffffff" stroke="#000000" points="292,-6 292,-25 451,-25 451,-6 292,-6"/>
<text text-anchor="middle" x="371.5" y="-13" font-family="Helvetica,sans-Serif" font-size="10.00" fill="#000000">libchigraph/src/GraphModule.cpp</text>
</a>
</g>
</g>
<!-- Node2&#45;&gt;Node5 -->
<g id="edge3" class="edge">
<title>Node2&#45;&gt;Node5</title>
<path fill="none" stroke="#191970" d="M566.1182,-65.4595C516.2018,-52.6457 449.6312,-35.5567 408.7086,-25.0516"/>
<polygon fill="#191970" stroke="#191970" points="565.3107,-68.8656 575.8669,-67.962 567.0512,-62.0854 565.3107,-68.8656"/>
</g>
<!-- Node6 -->
<g id="node5" class="node">
<title>Node6</title>
<g id="a_node5"><a xlink:href="GraphStruct_8cpp.html" target="_top" xlink:title="libchigraph/src/GraphStruct.cpp">
<polygon fill="#ffffff" stroke="#000000" points="469.5,-6 469.5,-25 623.5,-25 623.5,-6 469.5,-6"/>
<text text-anchor="middle" x="546.5" y="-13" font-family="Helvetica,sans-Serif" font-size="10.00" fill="#000000">libchigraph/src/GraphStruct.cpp</text>
</a>
</g>
</g>
<!-- Node2&#45;&gt;Node6 -->
<g id="edge4" class="edge">
<title>Node2&#45;&gt;Node6</title>
<path fill="none" stroke="#191970" d="M604.7448,-60.8767C589.239,-48.7967 570.6952,-34.3498 558.7646,-25.055"/>
<polygon fill="#191970" stroke="#191970" points="602.9456,-63.9119 612.9853,-67.2967 607.2477,-58.3899 602.9456,-63.9119"/>
</g>
<!-- Node7 -->
<g id="node6" class="node">
<title>Node7</title>
<g id="a_node6"><a xlink:href="LangModule_8cpp.html" target="_top" xlink:title="libchigraph/src/LangModule.cpp">
<polygon fill="#ffffff" stroke="#000000" points="641.5,-6 641.5,-25 795.5,-25 795.5,-6 641.5,-6"/>
<text text-anchor="middle" x="718.5" y="-13" font-family="Helvetica,sans-Serif" font-size="10.00" fill="#000000">libchigraph/src/LangModule.cpp</text>
</a>
</g>
</g>
<!-- Node2&#45;&gt;Node7 -->
<g id="edge5" class="edge">
<title>Node2&#45;&gt;Node7</title>
<path fill="none" stroke="#191970" d="M660.2552,-60.8767C675.761,-48.7967 694.3048,-34.3498 706.2354,-25.055"/>
<polygon fill="#191970" stroke="#191970" points="657.7523,-58.3899 652.0147,-67.2967 662.0544,-63.9119 657.7523,-58.3899"/>
</g>
<!-- Node8 -->
<g id="node7" class="node">
<title>Node8</title>
<g id="a_node7"><a xlink:href="ModuleCache_8cpp.html" target="_top" xlink:title="libchigraph/src/ModuleCache.cpp">
<polygon fill="#ffffff" stroke="#000000" points="814,-6 814,-25 975,-25 975,-6 814,-6"/>
<text text-anchor="middle" x="894.5" y="-13" font-family="Helvetica,sans-Serif" font-size="10.00" fill="#000000">libchigraph/src/ModuleCache.cpp</text>
</a>
</g>
</g>
<!-- Node2&#45;&gt;Node8 -->
<g id="edge6" class="edge">
<title>Node2&#45;&gt;Node8</title>
<path fill="none" stroke="#191970" d="M698.8111,-65.5426C748.9162,-52.7295 815.878,-35.6056 857.0543,-25.0758"/>
<polygon fill="#191970" stroke="#191970" points="697.8486,-62.176 689.0275,-68.0445 699.5829,-68.9578 697.8486,-62.176"/>
</g>
<!-- Node9 -->
<g id="node8" class="node">
<title>Node9</title>
<g id="a_node8"><a xlink:href="NodeCompiler_8cpp_source.html" target="_top" xlink:title="libchigraph/src/NodeCompiler.cpp">
<polygon fill="#ffffff" stroke="#000000" points="993.5,-6 993.5,-25 1155.5,-25 1155.5,-6 993.5,-6"/>
<text text-anchor="middle" x="1074.5" y="-13" font-family="Helvetica,sans-Serif" font-size="10.00" fill="#000000">libchigraph/src/NodeCompiler.cpp</text>
</a>
</g>
</g>
<!-- Node2&#45;&gt;Node9 -->
<g id="edge7" class="edge">
<title>Node2&#45;&gt;Node9</title>
<path fill="none" stroke="#191970" d="M699.3923,-73.2261C770.2588,-63.2812 885.3812,-46.7835 984.5,-31 996.0867,-29.1549 1008.495,-27.0814 1020.2818,-25.0657"/>
<polygon fill="#191970" stroke="#191970" points="698.6826,-69.7912 689.2649,-74.6449 699.6538,-76.7235 698.6826,-69.7912"/>
</g>
<!-- Node10 -->
<g id="node9" class="node">
<title>Node10</title>
<g id="a_node9"><a xlink:href="Debugger_8cpp.html" target="_top" xlink:title="libchigraphdebugger\l/src/Debugger.cpp">
<polygon fill="#ffffff" stroke="#000000" points="1174,-.5 1174,-30.5 1277,-30.5 1277,-.5 1174,-.5"/>
<text text-anchor="start" x="1182" y="-18.5" font-family="Helvetica,sans-Serif" font-size="10.00" fill="#000000">libchigraphdebugger</text>
<text text-anchor="middle" x="1225.5" y="-7.5" font-family="Helvetica,sans-Serif" font-size="10.00" fill="#000000">/src/Debugger.cpp</text>
</a>
</g>
</g>
<!-- Node2&#45;&gt;Node10 -->
<g id="edge8" class="edge">
<title>Node2&#45;&gt;Node10</title>
<path fill="none" stroke="#191970" d="M699.261,-79.3073C800.4828,-73.7312 998.5706,-59.9389 1164.5,-31 1167.514,-30.4743 1170.5984,-29.8782 1173.7018,-29.2334"/>
<polygon fill="#191970" stroke="#191970" points="698.9762,-75.8175 689.18,-79.853 699.3546,-82.8072 698.9762,-75.8175"/>
</g>
</g>
</svg>
