<?xml version="1.0" encoding="UTF-8" standalone="no"?>
<!DOCTYPE svg PUBLIC "-//W3C//DTD SVG 1.1//EN"
 "http://www.w3.org/Graphics/SVG/1.1/DTD/svg11.dtd">
<!-- Generated by graphviz version 2.40.1 (20161225.0304)
 -->
<!-- Title: libchig/include/chig/NameMangler.hpp Pages: 1 -->
<svg width="171pt" height="95pt"
 viewBox="0.00 0.00 171.00 95.00" xmlns="http://www.w3.org/2000/svg" xmlns:xlink="http://www.w3.org/1999/xlink">
<g id="graph0" class="graph" transform="scale(1 1) rotate(0) translate(4 91)">
<title>libchig/include/chig/NameMangler.hpp</title>
<polygon fill="#ffffff" stroke="transparent" points="-4,4 -4,-91 167,-91 167,4 -4,4"/>
<!-- Node0 -->
<g id="node1" class="node">
<title>Node0</title>
<polygon fill="#bfbfbf" stroke="#000000" points="30,-56.5 30,-86.5 129,-86.5 129,-56.5 30,-56.5"/>
<text text-anchor="start" x="38" y="-74.5" font-family="Helvetica,sans-Serif" font-size="10.00" fill="#000000">libchig/include/chig</text>
<text text-anchor="middle" x="79.5" y="-63.5" font-family="Helvetica,sans-Serif" font-size="10.00" fill="#000000">/NameMangler.hpp</text>
</g>
<!-- Node1 -->
<g id="node2" class="node">
<title>Node1</title>
<polygon fill="#ffffff" stroke="#bfbfbf" points="0,-.5 0,-19.5 41,-19.5 41,-.5 0,-.5"/>
<text text-anchor="middle" x="20.5" y="-7.5" font-family="Helvetica,sans-Serif" font-size="10.00" fill="#000000">string</text>
</g>
<!-- Node0&#45;&gt;Node1 -->
<g id="edge1" class="edge">
<title>Node0&#45;&gt;Node1</title>
<path fill="none" stroke="#191970" d="M64.9157,-56.2977C56.47,-47.4941 45.8108,-36.3833 37.0516,-27.2529"/>
<polygon fill="#191970" stroke="#191970" points="39.3952,-24.6402 29.9466,-19.8469 34.3439,-29.4862 39.3952,-24.6402"/>
</g>
<!-- Node2 -->
<g id="node3" class="node">
<title>Node2</title>
<polygon fill="#ffffff" stroke="#bfbfbf" points="59.5,-.5 59.5,-19.5 99.5,-19.5 99.5,-.5 59.5,-.5"/>
<text text-anchor="middle" x="79.5" y="-7.5" font-family="Helvetica,sans-Serif" font-size="10.00" fill="#000000">utility</text>
</g>
<!-- Node0&#45;&gt;Node2 -->
<g id="edge2" class="edge">
<title>Node0&#45;&gt;Node2</title>
<path fill="none" stroke="#191970" d="M79.5,-56.2977C79.5,-48.3834 79.5,-38.6043 79.5,-30.0759"/>
<polygon fill="#191970" stroke="#191970" points="83.0001,-29.8469 79.5,-19.8469 76.0001,-29.847 83.0001,-29.8469"/>
</g>
<!-- Node3 -->
<g id="node4" class="node">
<title>Node3</title>
<polygon fill="#ffffff" stroke="#bfbfbf" points="118,-.5 118,-19.5 163,-19.5 163,-.5 118,-.5"/>
<text text-anchor="middle" x="140.5" y="-7.5" font-family="Helvetica,sans-Serif" font-size="10.00" fill="#000000">gsl/gsl</text>
</g>
<!-- Node0&#45;&gt;Node3 -->
<g id="edge3" class="edge">
<title>Node0&#45;&gt;Node3</title>
<path fill="none" stroke="#191970" d="M94.5787,-56.2977C103.3989,-47.4052 114.5541,-36.1586 123.6612,-26.9769"/>
<polygon fill="#191970" stroke="#191970" points="126.1759,-29.4116 130.7331,-19.8469 121.206,-24.4821 126.1759,-29.4116"/>
</g>
</g>
</svg>
