<?xml version="1.0" encoding="UTF-8" standalone="no"?>
<!DOCTYPE svg PUBLIC "-//W3C//DTD SVG 1.1//EN"
 "http://www.w3.org/Graphics/SVG/1.1/DTD/svg11.dtd">
<!-- Generated by graphviz version 2.40.1 (20161225.0304)
 -->
<!-- Title: chig::graphModuleToJson Pages: 1 -->
<svg width="444pt" height="39pt"
 viewBox="0.00 0.00 444.00 39.00" xmlns="http://www.w3.org/2000/svg" xmlns:xlink="http://www.w3.org/1999/xlink">
<g id="graph0" class="graph" transform="scale(1 1) rotate(0) translate(4 35)">
<title>chig::graphModuleToJson</title>
<polygon fill="#ffffff" stroke="transparent" points="-4,4 -4,-35 440,-35 440,4 -4,4"/>
<!-- Node243 -->
<g id="node1" class="node">
<title>Node243</title>
<polygon fill="#bfbfbf" stroke="#000000" points="0,-6 0,-25 138,-25 138,-6 0,-6"/>
<text text-anchor="middle" x="69" y="-13" font-family="Helvetica,sans-Serif" font-size="10.00" fill="#000000">chig::graphModuleToJson</text>
</g>
<!-- Node244 -->
<g id="node2" class="node">
<title>Node244</title>
<g id="a_node2"><a xlink:href="structchig_1_1GraphModule.html#accb1a64da697a29e28d78a9a09bd52ff" target="_top" xlink:title="Serialize to disk in the context. ">
<polygon fill="#ffffff" stroke="#000000" points="174,-.5 174,-30.5 287,-30.5 287,-.5 174,-.5"/>
<text text-anchor="start" x="182" y="-18.5" font-family="Helvetica,sans-Serif" font-size="10.00" fill="#000000">chig::GraphModule::</text>
<text text-anchor="middle" x="230.5" y="-7.5" font-family="Helvetica,sans-Serif" font-size="10.00" fill="#000000">saveToDisk</text>
</a>
</g>
</g>
<!-- Node243&#45;&gt;Node244 -->
<g id="edge1" class="edge">
<title>Node243&#45;&gt;Node244</title>
<path fill="none" stroke="#191970" d="M148.4374,-15.5C156.9913,-15.5 165.5649,-15.5 173.774,-15.5"/>
<polygon fill="#191970" stroke="#191970" points="148.4278,-12.0001 138.4278,-15.5 148.4278,-19.0001 148.4278,-12.0001"/>
</g>
<!-- Node245 -->
<g id="node3" class="node">
<title>Node245</title>
<g id="a_node3"><a xlink:href="structchig_1_1GraphModule.html#a6d4a66c7e72fc4f83bff139baf819170" target="_top" xlink:title="Get the possible DataType names. ">
<polygon fill="#ffffff" stroke="#000000" points="323,-.5 323,-30.5 436,-30.5 436,-.5 323,-.5"/>
<text text-anchor="start" x="331" y="-18.5" font-family="Helvetica,sans-Serif" font-size="10.00" fill="#000000">chig::GraphModule::</text>
<text text-anchor="middle" x="379.5" y="-7.5" font-family="Helvetica,sans-Serif" font-size="10.00" fill="#000000">typeNames</text>
</a>
</g>
</g>
<!-- Node244&#45;&gt;Node245 -->
<g id="edge2" class="edge">
<title>Node244&#45;&gt;Node245</title>
<path fill="none" stroke="#191970" d="M297.5076,-15.5C305.9902,-15.5 314.6037,-15.5 322.9022,-15.5"/>
<polygon fill="#191970" stroke="#191970" points="297.2556,-12.0001 287.2556,-15.5 297.2555,-19.0001 297.2556,-12.0001"/>
</g>
</g>
</svg>
