<?xml version="1.0" encoding="UTF-8" standalone="no"?>
<!DOCTYPE svg PUBLIC "-//W3C//DTD SVG 1.1//EN"
 "http://www.w3.org/Graphics/SVG/1.1/DTD/svg11.dtd">
<!-- Generated by graphviz version 2.40.1 (20161225.0304)
 -->
<!-- Title: chig::parseColonPair Pages: 1 -->
<svg width="255pt" height="88pt"
 viewBox="0.00 0.00 255.00 88.00" xmlns="http://www.w3.org/2000/svg" xmlns:xlink="http://www.w3.org/1999/xlink">
<g id="graph0" class="graph" transform="scale(1 1) rotate(0) translate(4 84)">
<title>chig::parseColonPair</title>
<polygon fill="#ffffff" stroke="transparent" points="-4,4 -4,-84 251,-84 251,4 -4,4"/>
<!-- Node442 -->
<g id="node1" class="node">
<title>Node442</title>
<polygon fill="#bfbfbf" stroke="#000000" points="0,-30 0,-49 107,-49 107,-30 0,-30"/>
<text text-anchor="middle" x="53.5" y="-37" font-family="Helvetica,sans-Serif" font-size="10.00" fill="#000000">chig::parseColonPair</text>
</g>
<!-- Node443 -->
<g id="node2" class="node">
<title>Node443</title>
<g id="a_node2"><a xlink:href="structchig_1_1GraphFunction.html#a2eddb58def91a9e0fce7212db3834827" target="_top" xlink:title="Get the GraphModule that contains this GraphFunction. ">
<polygon fill="#ffffff" stroke="#000000" points="143,-49.5 143,-79.5 247,-79.5 247,-49.5 143,-49.5"/>
<text text-anchor="start" x="151" y="-67.5" font-family="Helvetica,sans-Serif" font-size="10.00" fill="#000000">chig::GraphFunction</text>
<text text-anchor="middle" x="195" y="-56.5" font-family="Helvetica,sans-Serif" font-size="10.00" fill="#000000">::module</text>
</a>
</g>
</g>
<!-- Node442&#45;&gt;Node443 -->
<g id="edge1" class="edge">
<title>Node442&#45;&gt;Node443</title>
<path fill="none" stroke="#191970" d="M107.3987,-49.0227C115.6165,-50.4746 124.1562,-51.9834 132.5386,-53.4644"/>
<polygon fill="#191970" stroke="#191970" points="132.1965,-56.9581 142.653,-55.2514 133.4145,-50.0649 132.1965,-56.9581"/>
</g>
<!-- Node444 -->
<g id="node3" class="node">
<title>Node444</title>
<g id="a_node3"><a xlink:href="structchig_1_1GraphFunction.html#a3291c0b882b4f73e5d60af4ca75b1a37" target="_top" xlink:title="Get the name of the function. ">
<polygon fill="#ffffff" stroke="#000000" points="143,-.5 143,-30.5 247,-30.5 247,-.5 143,-.5"/>
<text text-anchor="start" x="151" y="-18.5" font-family="Helvetica,sans-Serif" font-size="10.00" fill="#000000">chig::GraphFunction</text>
<text text-anchor="middle" x="195" y="-7.5" font-family="Helvetica,sans-Serif" font-size="10.00" fill="#000000">::name</text>
</a>
</g>
</g>
<!-- Node442&#45;&gt;Node444 -->
<g id="edge2" class="edge">
<title>Node442&#45;&gt;Node444</title>
<path fill="none" stroke="#191970" d="M107.3987,-30.3582C115.6165,-28.9643 124.1562,-27.5159 132.5386,-26.0942"/>
<polygon fill="#191970" stroke="#191970" points="133.3791,-29.5017 142.653,-24.3786 132.2085,-22.6002 133.3791,-29.5017"/>
</g>
</g>
</svg>
