<?xml version="1.0" encoding="UTF-8" standalone="no"?>
<!DOCTYPE svg PUBLIC "-//W3C//DTD SVG 1.1//EN"
 "http://www.w3.org/Graphics/SVG/1.1/DTD/svg11.dtd">
<!-- Generated by graphviz version 2.40.1 (20161225.0304)
 -->
<!-- Title: chi::disconnectExec Pages: 1 -->
<svg width="1152pt" height="197pt"
 viewBox="0.00 0.00 1152.00 196.50" xmlns="http://www.w3.org/2000/svg" xmlns:xlink="http://www.w3.org/1999/xlink">
<g id="graph0" class="graph" transform="scale(1 1) rotate(0) translate(4 192.5)">
<title>chi::disconnectExec</title>
<polygon fill="#ffffff" stroke="transparent" points="-4,4 -4,-192.5 1148,-192.5 1148,4 -4,4"/>
<!-- Node166 -->
<g id="node1" class="node">
<title>Node166</title>
<polygon fill="#bfbfbf" stroke="#000000" points="0,-93 0,-112 105,-112 105,-93 0,-93"/>
<text text-anchor="middle" x="52.5" y="-100" font-family="Helvetica,sans-Serif" font-size="10.00" fill="#000000">chi::disconnectExec</text>
</g>
<!-- Node167 -->
<g id="node2" class="node">
<title>Node167</title>
<g id="a_node2"><a xlink:href="namespacechi.html#a79423caa23a58e57b775c5137a03ee31" target="_top" xlink:title="Connects two nodes&#39; exec connections. ">
<polygon fill="#ffffff" stroke="#000000" points="145.5,-153 145.5,-172 237.5,-172 237.5,-153 145.5,-153"/>
<text text-anchor="middle" x="191.5" y="-160" font-family="Helvetica,sans-Serif" font-size="10.00" fill="#000000">chi::connectExec</text>
</a>
</g>
</g>
<!-- Node166&#45;&gt;Node167 -->
<g id="edge1" class="edge">
<title>Node166&#45;&gt;Node167</title>
<path fill="none" stroke="#191970" d="M83.9169,-116.0613C109.8575,-127.2587 146.0383,-142.8763 169.1178,-152.8386"/>
<polygon fill="#191970" stroke="#191970" points="85.0932,-112.7569 74.525,-112.0072 82.319,-119.1837 85.0932,-112.7569"/>
</g>
<!-- Node171 -->
<g id="node6" class="node">
<title>Node171</title>
<g id="a_node6"><a xlink:href="structchi_1_1NodeInstance.html#a72d113cfee45f4017adf28b034c6f215" target="_top" xlink:title="Get the containing GraphModule. ">
<polygon fill="#ffffff" stroke="#000000" points="291.5,-117.5 291.5,-147.5 392.5,-147.5 392.5,-117.5 291.5,-117.5"/>
<text text-anchor="start" x="299.5" y="-135.5" font-family="Helvetica,sans-Serif" font-size="10.00" fill="#000000">chi::NodeInstance::</text>
<text text-anchor="middle" x="342" y="-124.5" font-family="Helvetica,sans-Serif" font-size="10.00" fill="#000000">module</text>
</a>
</g>
</g>
<!-- Node166&#45;&gt;Node171 -->
<g id="edge12" class="edge">
<title>Node166&#45;&gt;Node171</title>
<path fill="none" stroke="#191970" d="M115.4833,-109.0268C168.0872,-114.4779 242.131,-122.1509 291.0576,-127.221"/>
<polygon fill="#191970" stroke="#191970" points="115.5697,-105.5171 105.2621,-107.9676 114.8481,-112.4798 115.5697,-105.5171"/>
</g>
<!-- Node176 -->
<g id="node11" class="node">
<title>Node176</title>
<g id="a_node11"><a xlink:href="structchi_1_1GraphFunction.html#a2248f5089ddc01a46b9ba4129925a44c" target="_top" xlink:title="Remove a node from the function. ">
<polygon fill="#ffffff" stroke="#000000" points="142,-65.5 142,-95.5 241,-95.5 241,-65.5 142,-65.5"/>
<text text-anchor="start" x="150" y="-83.5" font-family="Helvetica,sans-Serif" font-size="10.00" fill="#000000">chi::GraphFunction</text>
<text text-anchor="middle" x="191.5" y="-72.5" font-family="Helvetica,sans-Serif" font-size="10.00" fill="#000000">::removeNode</text>
</a>
</g>
</g>
<!-- Node166&#45;&gt;Node176 -->
<g id="edge13" class="edge">
<title>Node166&#45;&gt;Node176</title>
<path fill="none" stroke="#191970" d="M115.0173,-92.6052C123.9319,-91.1942 133.0012,-89.7588 141.6307,-88.393"/>
<polygon fill="#191970" stroke="#191970" points="114.3798,-89.1624 105.0499,-94.1827 115.4742,-96.0764 114.3798,-89.1624"/>
</g>
<!-- Node183 -->
<g id="node18" class="node">
<title>Node183</title>
<g id="a_node18"><a xlink:href="structchi_1_1NodeInstance.html#a5e8c1bd26bd3fbba3a0f7191e7c7f594" target="_top" xlink:title="Set the type of the node instance. ">
<polygon fill="#ffffff" stroke="#000000" points="141,-16.5 141,-46.5 242,-46.5 242,-16.5 141,-16.5"/>
<text text-anchor="start" x="149" y="-34.5" font-family="Helvetica,sans-Serif" font-size="10.00" fill="#000000">chi::NodeInstance::</text>
<text text-anchor="middle" x="191.5" y="-23.5" font-family="Helvetica,sans-Serif" font-size="10.00" fill="#000000">setType</text>
</a>
</g>
</g>
<!-- Node166&#45;&gt;Node183 -->
<g id="edge20" class="edge">
<title>Node166&#45;&gt;Node183</title>
<path fill="none" stroke="#191970" d="M79.8119,-88.1278C97.2682,-78.9855 120.4134,-66.9446 141,-56.5 147.3687,-53.2688 154.2116,-49.8476 160.7404,-46.6074"/>
<polygon fill="#191970" stroke="#191970" points="77.9816,-85.1355 70.7516,-92.88 81.2331,-91.3345 77.9816,-85.1355"/>
</g>
<!-- Node168 -->
<g id="node3" class="node">
<title>Node168</title>
<g id="a_node3"><a xlink:href="namespacechi.html#a6a3fedb48e6702c016f996d8a7f445fc" target="_top" xlink:title="Load a GraphFunction–must already exist (use createGraphFunctionDeclarationFromJson) ...">
<polygon fill="#ffffff" stroke="#000000" points="278,-168 278,-187 406,-187 406,-168 278,-168"/>
<text text-anchor="middle" x="342" y="-175" font-family="Helvetica,sans-Serif" font-size="10.00" fill="#000000">chi::jsonToGraphFunction</text>
</a>
</g>
</g>
<!-- Node167&#45;&gt;Node168 -->
<g id="edge2" class="edge">
<title>Node167&#45;&gt;Node168</title>
<path fill="none" stroke="#191970" d="M247.86,-168.1173C257.6202,-169.09 267.8336,-170.108 277.784,-171.0997"/>
<polygon fill="#191970" stroke="#191970" points="248.1808,-164.632 237.883,-167.1229 247.4865,-171.5975 248.1808,-164.632"/>
</g>
<!-- Node167&#45;&gt;Node171 -->
<g id="edge5" class="edge">
<title>Node167&#45;&gt;Node171</title>
<path fill="none" stroke="#191970" d="M248.0331,-151.2309C262.247,-148.3976 277.4122,-145.3747 291.3196,-142.6024"/>
<polygon fill="#191970" stroke="#191970" points="247.0058,-147.8668 237.883,-153.2542 248.3743,-154.7317 247.0058,-147.8668"/>
</g>
<!-- Node169 -->
<g id="node4" class="node">
<title>Node169</title>
<g id="a_node4"><a xlink:href="namespacechi.html#a4489e333fecc4168278e94f8b3f81e3c" target="_top" xlink:title="Load a GraphModule from json. ">
<polygon fill="#ffffff" stroke="#000000" points="458,-169 458,-188 580,-188 580,-169 458,-169"/>
<text text-anchor="middle" x="519" y="-176" font-family="Helvetica,sans-Serif" font-size="10.00" fill="#000000">chi::jsonToGraphModule</text>
</a>
</g>
</g>
<!-- Node168&#45;&gt;Node169 -->
<g id="edge3" class="edge">
<title>Node168&#45;&gt;Node169</title>
<path fill="none" stroke="#191970" d="M416.5351,-177.9211C430.2608,-177.9986 444.4461,-178.0788 457.7254,-178.1538"/>
<polygon fill="#191970" stroke="#191970" points="416.171,-174.4191 406.1513,-177.8624 416.1314,-181.419 416.171,-174.4191"/>
</g>
<!-- Node170 -->
<g id="node5" class="node">
<title>Node170</title>
<g id="a_node5"><a xlink:href="structchi_1_1Context.html#a2db103f3a2f77710dfa51489f63ec97f" target="_top" xlink:title="Load a module from JSON – avoid this use the string overload. ">
<polygon fill="#ffffff" stroke="#000000" points="632,-169 632,-188 798,-188 798,-169 632,-169"/>
<text text-anchor="middle" x="715" y="-176" font-family="Helvetica,sans-Serif" font-size="10.00" fill="#000000">chi::Context::addModuleFromJson</text>
</a>
</g>
</g>
<!-- Node169&#45;&gt;Node170 -->
<g id="edge4" class="edge">
<title>Node169&#45;&gt;Node170</title>
<path fill="none" stroke="#191970" d="M590.3827,-178.5C603.8971,-178.5 618.1423,-178.5 631.9794,-178.5"/>
<polygon fill="#191970" stroke="#191970" points="590.2094,-175.0001 580.2094,-178.5 590.2094,-182.0001 590.2094,-175.0001"/>
</g>
<!-- Node172 -->
<g id="node7" class="node">
<title>Node172</title>
<g id="a_node7"><a xlink:href="classchi_1_1Debugger.html#a91a4d103d38bb2b1132ec7f83f4d77e2" target="_top" xlink:title="Set a breakpoint on a given node. ">
<polygon fill="#ffffff" stroke="#000000" points="643.5,-131 643.5,-150 786.5,-150 786.5,-131 643.5,-131"/>
<text text-anchor="middle" x="715" y="-138" font-family="Helvetica,sans-Serif" font-size="10.00" fill="#000000">chi::Debugger::setBreakpoint</text>
</a>
</g>
</g>
<!-- Node171&#45;&gt;Node172 -->
<g id="edge6" class="edge">
<title>Node171&#45;&gt;Node172</title>
<path fill="none" stroke="#191970" d="M402.9124,-133.8064C468.7463,-135.2184 573.5787,-137.4668 643.3294,-138.9628"/>
<polygon fill="#191970" stroke="#191970" points="402.7654,-130.3026 392.6926,-133.5872 402.6152,-137.301 402.7654,-130.3026"/>
</g>
<!-- Node174 -->
<g id="node9" class="node">
<title>Node174</title>
<g id="a_node9"><a xlink:href="classchi_1_1Debugger.html#ae142902fa85248f40cbeea7199c86ad9" target="_top" xlink:title="Get a NodeInstance from a frame. ">
<polygon fill="#ffffff" stroke="#000000" points="442,-93 442,-112 596,-112 596,-93 442,-93"/>
<text text-anchor="middle" x="519" y="-100" font-family="Helvetica,sans-Serif" font-size="10.00" fill="#000000">chi::Debugger::nodeFromFrame</text>
</a>
</g>
</g>
<!-- Node171&#45;&gt;Node174 -->
<g id="edge8" class="edge">
<title>Node171&#45;&gt;Node174</title>
<path fill="none" stroke="#191970" d="M402.6835,-122.2147C422.1257,-118.9194 443.5617,-115.2861 462.6787,-112.046"/>
<polygon fill="#191970" stroke="#191970" points="401.9956,-118.7813 392.7211,-123.9032 403.1654,-125.6828 401.9956,-118.7813"/>
</g>
<!-- Node173 -->
<g id="node8" class="node">
<title>Node173</title>
<g id="a_node8"><a xlink:href="classchi_1_1Debugger.html#a50f4de4ab6a18afa2eb82f5a5f43b06a" target="_top" xlink:title="Check if the process is executing. ">
<polygon fill="#ffffff" stroke="#000000" points="838.5,-93 838.5,-112 952.5,-112 952.5,-93 838.5,-93"/>
<text text-anchor="middle" x="895.5" y="-100" font-family="Helvetica,sans-Serif" font-size="10.00" fill="#000000">chi::Debugger::running</text>
</a>
</g>
</g>
<!-- Node172&#45;&gt;Node173 -->
<g id="edge7" class="edge">
<title>Node172&#45;&gt;Node173</title>
<path fill="none" stroke="#191970" d="M770.4847,-128.819C796.082,-123.4301 826.0838,-117.1139 850.2798,-112.0201"/>
<polygon fill="#191970" stroke="#191970" points="769.6122,-125.4259 760.5478,-130.911 771.0543,-132.2757 769.6122,-125.4259"/>
</g>
<!-- Node174&#45;&gt;Node173 -->
<g id="edge9" class="edge">
<title>Node174&#45;&gt;Node173</title>
<path fill="none" stroke="#191970" d="M606.4336,-102.5C677.8837,-102.5 776.8187,-102.5 838.4448,-102.5"/>
<polygon fill="#191970" stroke="#191970" points="606.099,-99.0001 596.0989,-102.5 606.0989,-106.0001 606.099,-99.0001"/>
</g>
<!-- Node175 -->
<g id="node10" class="node">
<title>Node175</title>
<g id="a_node10"><a xlink:href="classchi_1_1Debugger.html#a7b4b8117f767d7fc591ff1f54516c681" target="_top" xlink:title="Get the output of a node. ">
<polygon fill="#ffffff" stroke="#000000" points="646.5,-43.5 646.5,-73.5 783.5,-73.5 783.5,-43.5 646.5,-43.5"/>
<text text-anchor="start" x="654.5" y="-61.5" font-family="Helvetica,sans-Serif" font-size="10.00" fill="#000000">chi::Debugger::inspectNode</text>
<text text-anchor="middle" x="715" y="-50.5" font-family="Helvetica,sans-Serif" font-size="10.00" fill="#000000">Output</text>
</a>
</g>
</g>
<!-- Node174&#45;&gt;Node175 -->
<g id="edge10" class="edge">
<title>Node174&#45;&gt;Node175</title>
<path fill="none" stroke="#191970" d="M571.3071,-90.7576C594.8196,-85.4793 622.8534,-79.186 647.8907,-73.5654"/>
<polygon fill="#191970" stroke="#191970" points="570.5196,-87.3472 561.5291,-92.9527 572.0529,-94.1772 570.5196,-87.3472"/>
</g>
<!-- Node175&#45;&gt;Node173 -->
<g id="edge11" class="edge">
<title>Node175&#45;&gt;Node173</title>
<path fill="none" stroke="#191970" d="M786.3647,-75.8964C810.2571,-81.7206 835.9982,-87.9954 856.4775,-92.9876"/>
<polygon fill="#191970" stroke="#191970" points="787.1575,-72.4872 776.613,-73.5192 785.4996,-79.2881 787.1575,-72.4872"/>
</g>
<!-- Node177 -->
<g id="node12" class="node">
<title>Node177</title>
<g id="a_node12"><a xlink:href="structchi_1_1GraphFunction.html#a900c0b670ad04a76b6add803ade7ae0d" target="_top" xlink:title="chi::GraphFunction\l::nodes">
<polygon fill="#ffffff" stroke="#000000" points="292.5,-65.5 292.5,-95.5 391.5,-95.5 391.5,-65.5 292.5,-65.5"/>
<text text-anchor="start" x="300.5" y="-83.5" font-family="Helvetica,sans-Serif" font-size="10.00" fill="#000000">chi::GraphFunction</text>
<text text-anchor="middle" x="342" y="-72.5" font-family="Helvetica,sans-Serif" font-size="10.00" fill="#000000">::nodes</text>
</a>
</g>
</g>
<!-- Node176&#45;&gt;Node177 -->
<g id="edge14" class="edge">
<title>Node176&#45;&gt;Node177</title>
<path fill="none" stroke="#191970" d="M251.4115,-80.5C264.9875,-80.5 279.259,-80.5 292.3558,-80.5"/>
<polygon fill="#191970" stroke="#191970" points="251.1965,-77.0001 241.1964,-80.5 251.1964,-84.0001 251.1965,-77.0001"/>
</g>
<!-- Node178 -->
<g id="node13" class="node">
<title>Node178</title>
<g id="a_node13"><a xlink:href="structchi_1_1GraphFunction.html#a81f2a4203abba46ff8494a6a7e192094" target="_top" xlink:title="Remove a local variable from the function by name. ">
<polygon fill="#ffffff" stroke="#000000" points="285.5,-11.5 285.5,-41.5 398.5,-41.5 398.5,-11.5 285.5,-11.5"/>
<text text-anchor="start" x="293.5" y="-29.5" font-family="Helvetica,sans-Serif" font-size="10.00" fill="#000000">chi::GraphFunction</text>
<text text-anchor="middle" x="342" y="-18.5" font-family="Helvetica,sans-Serif" font-size="10.00" fill="#000000">::removeLocalVariable</text>
</a>
</g>
</g>
<!-- Node176&#45;&gt;Node178 -->
<g id="edge15" class="edge">
<title>Node176&#45;&gt;Node178</title>
<path fill="none" stroke="#191970" d="M242.9327,-62.0457C261.5499,-55.3658 282.3356,-47.9078 300.0414,-41.5549"/>
<polygon fill="#191970" stroke="#191970" points="241.6531,-58.7863 233.4226,-65.458 244.0172,-65.3751 241.6531,-58.7863"/>
</g>
<!-- Node179 -->
<g id="node14" class="node">
<title>Node179</title>
<g id="a_node14"><a xlink:href="structchi_1_1GraphFunction.html#a44f8f791775e4878b6bde37140cd131d" target="_top" xlink:title="Get the local variables. ">
<polygon fill="#ffffff" stroke="#000000" points="469.5,-.5 469.5,-30.5 568.5,-30.5 568.5,-.5 469.5,-.5"/>
<text text-anchor="start" x="477.5" y="-18.5" font-family="Helvetica,sans-Serif" font-size="10.00" fill="#000000">chi::GraphFunction</text>
<text text-anchor="middle" x="519" y="-7.5" font-family="Helvetica,sans-Serif" font-size="10.00" fill="#000000">::localVariables</text>
</a>
</g>
</g>
<!-- Node178&#45;&gt;Node179 -->
<g id="edge16" class="edge">
<title>Node178&#45;&gt;Node179</title>
<path fill="none" stroke="#191970" d="M408.9706,-22.338C428.992,-21.0937 450.5785,-19.7522 469.2835,-18.5897"/>
<polygon fill="#191970" stroke="#191970" points="408.7418,-18.8454 398.9782,-22.959 409.1761,-25.8319 408.7418,-18.8454"/>
</g>
<!-- Node180 -->
<g id="node15" class="node">
<title>Node180</title>
<g id="a_node15"><a xlink:href="namespacechi.html#afd8b8d8a207d88359ad1e6a48d8f3bb1" target="_top" xlink:title="Serialize a GraphFunction to json. ">
<polygon fill="#ffffff" stroke="#000000" points="650.5,-5 650.5,-24 779.5,-24 779.5,-5 650.5,-5"/>
<text text-anchor="middle" x="715" y="-12" font-family="Helvetica,sans-Serif" font-size="10.00" fill="#000000">chi::graphFunctionToJson</text>
</a>
</g>
</g>
<!-- Node179&#45;&gt;Node180 -->
<g id="edge17" class="edge">
<title>Node179&#45;&gt;Node180</title>
<path fill="none" stroke="#191970" d="M578.8312,-15.1947C601.3909,-15.0796 627.1488,-14.9482 650.1463,-14.8309"/>
<polygon fill="#191970" stroke="#191970" points="578.6944,-11.6953 568.7125,-15.2464 578.7302,-18.6952 578.6944,-11.6953"/>
</g>
<!-- Node181 -->
<g id="node16" class="node">
<title>Node181</title>
<g id="a_node16"><a xlink:href="namespacechi.html#a9a4f3fa54c612f0c559a353bb7382d5a" target="_top" xlink:title="Serialize a JsonModule to json. ">
<polygon fill="#ffffff" stroke="#000000" points="834,-5 834,-24 957,-24 957,-5 834,-5"/>
<text text-anchor="middle" x="895.5" y="-12" font-family="Helvetica,sans-Serif" font-size="10.00" fill="#000000">chi::graphModuleToJson</text>
</a>
</g>
</g>
<!-- Node180&#45;&gt;Node181 -->
<g id="edge18" class="edge">
<title>Node180&#45;&gt;Node181</title>
<path fill="none" stroke="#191970" d="M789.6852,-14.5C804.3322,-14.5 819.5432,-14.5 833.7116,-14.5"/>
<polygon fill="#191970" stroke="#191970" points="789.6548,-11.0001 779.6548,-14.5 789.6548,-18.0001 789.6548,-11.0001"/>
</g>
<!-- Node182 -->
<g id="node17" class="node">
<title>Node182</title>
<g id="a_node17"><a xlink:href="structchi_1_1GraphModule.html#a5cd9fb1738336d5d382ebb50753bda3e" target="_top" xlink:title="Serialize to disk in the context. ">
<polygon fill="#ffffff" stroke="#000000" points="993,-5 993,-24 1144,-24 1144,-5 993,-5"/>
<text text-anchor="middle" x="1068.5" y="-12" font-family="Helvetica,sans-Serif" font-size="10.00" fill="#000000">chi::GraphModule::saveToDisk</text>
</a>
</g>
</g>
<!-- Node181&#45;&gt;Node182 -->
<g id="edge19" class="edge">
<title>Node181&#45;&gt;Node182</title>
<path fill="none" stroke="#191970" d="M967.5243,-14.5C975.8612,-14.5 984.3827,-14.5 992.7672,-14.5"/>
<polygon fill="#191970" stroke="#191970" points="967.4684,-11.0001 957.4683,-14.5 967.4683,-18.0001 967.4684,-11.0001"/>
</g>
</g>
</svg>
