<?xml version="1.0" encoding="UTF-8" standalone="no"?>
<!DOCTYPE svg PUBLIC "-//W3C//DTD SVG 1.1//EN"
 "http://www.w3.org/Graphics/SVG/1.1/DTD/svg11.dtd">
<!-- Generated by graphviz version 2.40.1 (20161225.0304)
 -->
<!-- Title: chi::connectData Pages: 1 -->
<!--zoomable 336 -->
<svg id="main" version="1.1" xmlns="http://www.w3.org/2000/svg" xmlns:xlink="http://www.w3.org/1999/xlink" xml:space="preserve" onload="init(evt)">
<style type="text/css"><![CDATA[
.edge:hover path { stroke: red; }
.edge:hover polygon { stroke: red; fill: red; }
]]></style>
<script type="text/javascript"><![CDATA[
var edges = document.getElementsByTagName('g');
if (edges && edges.length) {
  for (var i=0;i<edges.length;i++) {
    if (edges[i].id.substr(0,4)=='edge') {
      edges[i].setAttribute('class','edge');
    }
  }
}
]]></script>
        <defs>
                <circle id="rim" cx="0" cy="0" r="7"/>
                <circle id="rim2" cx="0" cy="0" r="3.5"/>
                <g id="zoomPlus">
                        <use xlink:href="#rim" fill="#404040">
                                <set attributeName="fill" to="#808080" begin="zoomplus.mouseover" end="zoomplus.mouseout"/>
                        </use>
                        <path d="M-4,0h8M0,-4v8" fill="none" stroke="white" stroke-width="1.5" pointer-events="none"/>
                </g>
                <g id="zoomMin">
                        <use xlink:href="#rim" fill="#404040">
                                <set attributeName="fill" to="#808080" begin="zoomminus.mouseover" end="zoomminus.mouseout"/>
                        </use>
                        <path d="M-4,0h8" fill="none" stroke="white" stroke-width="1.5" pointer-events="none"/>
                </g>
                <g id="dirArrow">
                        <path fill="none" stroke="white" stroke-width="1.5" d="M0,-3.0v7 M-2.5,-0.5L0,-3.0L2.5,-0.5"/>
                </g>
               <g id="resetDef">
                       <use xlink:href="#rim2" fill="#404040">
                               <set attributeName="fill" to="#808080" begin="reset.mouseover" end="reset.mouseout"/>
                       </use>
               </g>
        </defs>

<script type="text/javascript">
var viewWidth = 581;
var viewHeight = 336;
var sectionId = 'dynsection-2';
</script>
<script xlink:href="svgpan.js"/>
<svg id="graph" class="graph">
<g id="viewport">
<title>chi::connectData</title>
<polygon fill="#ffffff" stroke="transparent" points="-4,4 -4,-332 577,-332 577,4 -4,4"/>
<!-- Node52 -->
<g id="node1" class="node">
<title>Node52</title>
<polygon fill="#bfbfbf" stroke="#000000" points="0,-158.5 0,-177.5 90,-177.5 90,-158.5 0,-158.5"/>
<text text-anchor="middle" x="45" y="-165.5" font-family="Helvetica,sans-Serif" font-size="10.00" fill="#000000">chi::connectData</text>
</g>
<!-- Node53 -->
<g id="node2" class="node">
<title>Node53</title>
<g id="a_node2"><a xlink:href="structchi_1_1Result.html#a59ef40f4a327cbdea263d6e4b5af2ad8" target="_top" xlink:title="Add a entry to the result, either a warning or an error. ">
<polygon fill="#ffffff" stroke="#000000" points="284.5,-308.5 284.5,-327.5 392.5,-327.5 392.5,-308.5 284.5,-308.5"/>
<text text-anchor="middle" x="338.5" y="-315.5" font-family="Helvetica,sans-Serif" font-size="10.00" fill="#000000">chi::Result::addEntry</text>
</a>
</g>
</g>
<!-- Node52&#45;&gt;Node53 -->
<g id="edge1" class="edge">
<title>Node52&#45;&gt;Node53</title>
<path fill="none" stroke="#191970" d="M50.5819,-177.5436C62.1503,-196.4613 90.6378,-238.8022 126,-261 171.0195,-289.26 229.887,-303.6392 274.244,-310.878"/>
<polygon fill="#191970" stroke="#191970" points="273.9137,-314.3686 284.332,-312.4428 274.9867,-307.4513 273.9137,-314.3686"/>
</g>
<!-- Node54 -->
<g id="node3" class="node">
<title>Node54</title>
<g id="a_node3"><a xlink:href="structchi_1_1NodeType.html#a7d2edfc21ff54a1ff8ad98fffb969268" target="_top" xlink:title="Get the data inputs for the node. ">
<polygon fill="#ffffff" stroke="#000000" points="273,-270.5 273,-289.5 404,-289.5 404,-270.5 273,-270.5"/>
<text text-anchor="middle" x="338.5" y="-277.5" font-family="Helvetica,sans-Serif" font-size="10.00" fill="#000000">chi::NodeType::dataInputs</text>
</a>
</g>
</g>
<!-- Node52&#45;&gt;Node54 -->
<g id="edge2" class="edge">
<title>Node52&#45;&gt;Node54</title>
<path fill="none" stroke="#191970" d="M54.5207,-177.7198C68.7596,-191.6779 97.0395,-217.23 126,-231 168.9593,-251.426 220.9358,-263.6051 262.7308,-270.7122"/>
<polygon fill="#191970" stroke="#191970" points="262.4167,-274.2072 272.8508,-272.3685 263.5474,-267.2992 262.4167,-274.2072"/>
</g>
<!-- Node55 -->
<g id="node4" class="node">
<title>Node55</title>
<g id="a_node4"><a xlink:href="structchi_1_1NodeType.html#aade37588d98e93b19a9a47e16c850684" target="_top" xlink:title="Get the data outputs for the node. ">
<polygon fill="#ffffff" stroke="#000000" points="269,-232.5 269,-251.5 408,-251.5 408,-232.5 269,-232.5"/>
<text text-anchor="middle" x="338.5" y="-239.5" font-family="Helvetica,sans-Serif" font-size="10.00" fill="#000000">chi::NodeType::dataOutputs</text>
</a>
</g>
</g>
<!-- Node52&#45;&gt;Node55 -->
<g id="edge3" class="edge">
<title>Node52&#45;&gt;Node55</title>
<path fill="none" stroke="#191970" d="M61.8366,-177.5528C77.8544,-186.2362 102.8739,-198.7642 126,-206 168.9618,-219.4421 218.474,-228.2006 258.8921,-233.7089"/>
<polygon fill="#191970" stroke="#191970" points="258.5899,-237.1994 268.9624,-235.0402 259.5074,-230.2597 258.5899,-237.1994"/>
</g>
<!-- Node56 -->
<g id="node5" class="node">
<title>Node56</title>
<g id="a_node5"><a xlink:href="namespacechi.html#a4694f9910cf90fd7c202fe117c4f257e" target="_top" xlink:title="Disconnect a data connection. ">
<polygon fill="#ffffff" stroke="#000000" points="126,-177.5 126,-196.5 229,-196.5 229,-177.5 126,-177.5"/>
<text text-anchor="middle" x="177.5" y="-184.5" font-family="Helvetica,sans-Serif" font-size="10.00" fill="#000000">chi::disconnectData</text>
</a>
</g>
</g>
<!-- Node52&#45;&gt;Node56 -->
<g id="edge4" class="edge">
<title>Node52&#45;&gt;Node56</title>
<path fill="none" stroke="#191970" d="M90.2284,-174.4856C98.4188,-175.6601 107.0874,-176.9031 115.6572,-178.132"/>
<polygon fill="#191970" stroke="#191970" points="115.2419,-181.6081 125.6375,-179.5631 116.2356,-174.679 115.2419,-181.6081"/>
</g>
<!-- Node57 -->
<g id="node6" class="node">
<title>Node57</title>
<g id="a_node6"><a xlink:href="structchi_1_1NodeInstance.html#a8f64930fd9578431a11cad0702b4100c" target="_top" xlink:title="Get the containing GraphFunction. ">
<polygon fill="#ffffff" stroke="#000000" points="288,-134 288,-164 389,-164 389,-134 288,-134"/>
<text text-anchor="start" x="296" y="-152" font-family="Helvetica,sans-Serif" font-size="10.00" fill="#000000">chi::NodeInstance::</text>
<text text-anchor="middle" x="338.5" y="-141" font-family="Helvetica,sans-Serif" font-size="10.00" fill="#000000">function</text>
</a>
</g>
</g>
<!-- Node52&#45;&gt;Node57 -->
<g id="edge17" class="edge">
<title>Node52&#45;&gt;Node57</title>
<path fill="none" stroke="#191970" d="M90.2162,-165.0729C140.4734,-161.8194 221.893,-156.5487 277.7013,-152.9359"/>
<polygon fill="#191970" stroke="#191970" points="278.0576,-156.4202 287.8106,-152.2814 277.6053,-149.4348 278.0576,-156.4202"/>
</g>
<!-- Node58 -->
<g id="node7" class="node">
<title>Node58</title>
<g id="a_node7"><a xlink:href="structchi_1_1NodeInstance.html#a5d6678d5a90e6b1adb7dafb868b974b1" target="_top" xlink:title="Get the type of the instance. ">
<polygon fill="#ffffff" stroke="#000000" points="278.5,-95.5 278.5,-114.5 398.5,-114.5 398.5,-95.5 278.5,-95.5"/>
<text text-anchor="middle" x="338.5" y="-102.5" font-family="Helvetica,sans-Serif" font-size="10.00" fill="#000000">chi::NodeInstance::type</text>
</a>
</g>
</g>
<!-- Node52&#45;&gt;Node58 -->
<g id="edge20" class="edge">
<title>Node52&#45;&gt;Node58</title>
<path fill="none" stroke="#191970" d="M89.5763,-158.4317C141.6598,-147.2519 227.831,-128.7552 283.885,-116.7232"/>
<polygon fill="#191970" stroke="#191970" points="284.9432,-120.0758 293.986,-114.555 283.4741,-113.2317 284.9432,-120.0758"/>
</g>
<!-- Node59 -->
<g id="node8" class="node">
<title>Node59</title>
<g id="a_node8"><a xlink:href="structchi_1_1NodeType.html#a7031e3c04e9a0227b09f8f854ce8b7f9" target="_top" xlink:title="Get the qualified name of the node type, like module.name():name() ">
<polygon fill="#ffffff" stroke="#000000" points="265,-57.5 265,-76.5 412,-76.5 412,-57.5 265,-57.5"/>
<text text-anchor="middle" x="338.5" y="-64.5" font-family="Helvetica,sans-Serif" font-size="10.00" fill="#000000">chi::NodeType::qualifiedName</text>
</a>
</g>
</g>
<!-- Node52&#45;&gt;Node59 -->
<g id="edge18" class="edge">
<title>Node52&#45;&gt;Node59</title>
<path fill="none" stroke="#191970" d="M60.6519,-158.3886C76.6224,-148.8974 102.3507,-134.4674 126,-125 185.5675,-101.1536 203.0472,-102.6968 265,-86 273.5064,-83.7074 282.5817,-81.3167 291.3488,-79.0354"/>
<polygon fill="#191970" stroke="#191970" points="292.2667,-82.4132 301.0695,-76.5173 290.5113,-75.6369 292.2667,-82.4132"/>
</g>
<!-- Node63 -->
<g id="node12" class="node">
<title>Node63</title>
<g id="a_node12"><a xlink:href="structchi_1_1NodeType.html#ac99bef32e3e5e564119dbb8de69d2273" target="_top" xlink:title="Create the JSON necessary to store the object. ">
<polygon fill="#ffffff" stroke="#000000" points="278.5,-19.5 278.5,-38.5 398.5,-38.5 398.5,-19.5 278.5,-19.5"/>
<text text-anchor="middle" x="338.5" y="-26.5" font-family="Helvetica,sans-Serif" font-size="10.00" fill="#000000">chi::NodeType::toJSON</text>
</a>
</g>
</g>
<!-- Node52&#45;&gt;Node63 -->
<g id="edge19" class="edge">
<title>Node52&#45;&gt;Node63</title>
<path fill="none" stroke="#191970" d="M52.4476,-158.4912C65.5969,-142.3238 94.5285,-109.4418 126,-91 169.8345,-65.3136 225.0658,-49.6225 268.233,-40.4533"/>
<polygon fill="#191970" stroke="#191970" points="268.9991,-43.8691 278.0898,-38.4277 267.5899,-37.0124 268.9991,-43.8691"/>
</g>
<!-- Node56&#45;&gt;Node53 -->
<g id="edge6" class="edge">
<title>Node56&#45;&gt;Node53</title>
<path fill="none" stroke="#191970" d="M182.1374,-196.5224C193.2362,-218.2714 223.5219,-271.8083 265,-299 268.1621,-301.0729 271.5384,-302.9199 275.0413,-304.5655"/>
<polygon fill="#191970" stroke="#191970" points="273.969,-307.9087 284.5491,-308.468 276.6271,-301.4329 273.969,-307.9087"/>
</g>
<!-- Node56&#45;&gt;Node54 -->
<g id="edge16" class="edge">
<title>Node56&#45;&gt;Node54</title>
<path fill="none" stroke="#191970" d="M185.9419,-196.5036C200.4992,-212.2984 231.9572,-243.9031 265,-261 269.4939,-263.3252 274.2929,-265.3803 279.2045,-267.1941"/>
<polygon fill="#191970" stroke="#191970" points="278.1438,-270.5299 288.7377,-270.392 280.3701,-263.8933 278.1438,-270.5299"/>
</g>
<!-- Node56&#45;&gt;Node55 -->
<g id="edge8" class="edge">
<title>Node56&#45;&gt;Node55</title>
<path fill="none" stroke="#191970" d="M198.4104,-196.555C215.9478,-204.3367 241.7798,-215.2627 265,-223 272.2162,-225.4045 279.9141,-227.6905 287.5098,-229.7892"/>
<polygon fill="#191970" stroke="#191970" points="286.8222,-233.2283 297.3872,-232.4345 288.6331,-226.4666 286.8222,-233.2283"/>
</g>
<!-- Node56&#45;&gt;Node57 -->
<g id="edge5" class="edge">
<title>Node56&#45;&gt;Node57</title>
<path fill="none" stroke="#191970" d="M218.1271,-177.411C236.2168,-173.1414 257.9005,-168.0235 277.8495,-163.315"/>
<polygon fill="#191970" stroke="#191970" points="278.8579,-166.6733 287.7865,-160.9697 277.2499,-159.8605 278.8579,-166.6733"/>
</g>
<!-- Node56&#45;&gt;Node58 -->
<g id="edge7" class="edge">
<title>Node56&#45;&gt;Node58</title>
<path fill="none" stroke="#191970" d="M188.3069,-177.4083C204.0916,-163.8707 234.8633,-139.227 265,-125 271.0261,-122.1552 277.5277,-119.6554 284.084,-117.475"/>
<polygon fill="#191970" stroke="#191970" points="285.1613,-120.8055 293.68,-114.5061 283.0923,-114.1182 285.1613,-120.8055"/>
</g>
<!-- Node56&#45;&gt;Node59 -->
<g id="edge9" class="edge">
<title>Node56&#45;&gt;Node59</title>
<path fill="none" stroke="#191970" d="M183.1107,-177.2159C195.2792,-156.9096 226.1547,-110.0805 265,-86 268.4306,-83.8733 272.0923,-81.9836 275.8807,-80.3045"/>
<polygon fill="#191970" stroke="#191970" points="277.4565,-83.4466 285.499,-76.5496 274.9109,-76.9259 277.4565,-83.4466"/>
</g>
<!-- Node56&#45;&gt;Node63 -->
<g id="edge13" class="edge">
<title>Node56&#45;&gt;Node63</title>
<path fill="none" stroke="#191970" d="M180.6515,-177.4993C189.5451,-152.2115 217.3387,-82.8213 265,-48 267.6605,-46.0562 270.5024,-44.3109 273.4648,-42.7438"/>
<polygon fill="#191970" stroke="#191970" points="275.0044,-45.8885 282.6527,-38.5569 272.1016,-39.5187 275.0044,-45.8885"/>
</g>
<!-- Node65 -->
<g id="node14" class="node">
<title>Node65</title>
<g id="a_node14"><a xlink:href="structchi_1_1NodeInstance.html#a993d848a1b95077007e232d177f58308" target="_top" xlink:title="Get the ID as a string. ">
<polygon fill="#ffffff" stroke="#000000" points="288,-183 288,-213 389,-213 389,-183 288,-183"/>
<text text-anchor="start" x="296" y="-201" font-family="Helvetica,sans-Serif" font-size="10.00" fill="#000000">chi::NodeInstance::</text>
<text text-anchor="middle" x="338.5" y="-190" font-family="Helvetica,sans-Serif" font-size="10.00" fill="#000000">stringId</text>
</a>
</g>
</g>
<!-- Node56&#45;&gt;Node65 -->
<g id="edge15" class="edge">
<title>Node56&#45;&gt;Node65</title>
<path fill="none" stroke="#191970" d="M229.3276,-190.541C244.7106,-191.592 261.7005,-192.7528 277.6035,-193.8394"/>
<polygon fill="#191970" stroke="#191970" points="277.6539,-197.3509 287.8693,-194.5408 278.1312,-190.3672 277.6539,-197.3509"/>
</g>
<!-- Node60 -->
<g id="node9" class="node">
<title>Node60</title>
<g id="a_node9"><a xlink:href="structchi_1_1NodeType.html#a4fd551737d6b3bb4d6609f1ee8e054aa" target="_top" xlink:title="Get the ChiModule this NodeType belongs to. ">
<polygon fill="#ffffff" stroke="#000000" points="452,-114.5 452,-133.5 569,-133.5 569,-114.5 452,-114.5"/>
<text text-anchor="middle" x="510.5" y="-121.5" font-family="Helvetica,sans-Serif" font-size="10.00" fill="#000000">chi::NodeType::module</text>
</a>
</g>
</g>
<!-- Node59&#45;&gt;Node60 -->
<g id="edge10" class="edge">
<title>Node59&#45;&gt;Node60</title>
<path fill="none" stroke="#191970" d="M382.1701,-76.5044C392.1152,-79.1584 402.5357,-82.3368 412,-86 428.872,-92.5303 431.2694,-98.1155 448,-105 453.4422,-107.2394 459.246,-109.3516 465.0413,-111.2962"/>
<polygon fill="#191970" stroke="#191970" points="464.1297,-114.6794 474.7209,-114.4033 466.2692,-108.0143 464.1297,-114.6794"/>
</g>
<!-- Node61 -->
<g id="node10" class="node">
<title>Node61</title>
<g id="a_node10"><a xlink:href="structchi_1_1ChiModule.html#a92ab6d528ac41a91b6ac21ededfccc38" target="_top" xlink:title="Get the full name of the module. ">
<polygon fill="#ffffff" stroke="#000000" points="448,-76.5 448,-95.5 573,-95.5 573,-76.5 448,-76.5"/>
<text text-anchor="middle" x="510.5" y="-83.5" font-family="Helvetica,sans-Serif" font-size="10.00" fill="#000000">chi::ChiModule::fullName</text>
</a>
</g>
</g>
<!-- Node59&#45;&gt;Node61 -->
<g id="edge11" class="edge">
<title>Node59&#45;&gt;Node61</title>
<path fill="none" stroke="#191970" d="M412.4417,-75.168C420.8567,-76.0975 429.4289,-77.0445 437.8274,-77.9722"/>
<polygon fill="#191970" stroke="#191970" points="437.6393,-81.4726 447.9631,-79.0919 438.4079,-74.515 437.6393,-81.4726"/>
</g>
<!-- Node62 -->
<g id="node11" class="node">
<title>Node62</title>
<g id="a_node11"><a xlink:href="structchi_1_1NodeType.html#ad301375a4b84ddc699337e285ee78cc3" target="_top" xlink:title="Get the name of the NodeType in the ChiModule. ">
<polygon fill="#ffffff" stroke="#000000" points="455.5,-38.5 455.5,-57.5 565.5,-57.5 565.5,-38.5 455.5,-38.5"/>
<text text-anchor="middle" x="510.5" y="-45.5" font-family="Helvetica,sans-Serif" font-size="10.00" fill="#000000">chi::NodeType::name</text>
</a>
</g>
</g>
<!-- Node59&#45;&gt;Node62 -->
<g id="edge12" class="edge">
<title>Node59&#45;&gt;Node62</title>
<path fill="none" stroke="#191970" d="M412.4417,-58.832C423.3436,-57.6277 434.5092,-56.3943 445.219,-55.2113"/>
<polygon fill="#191970" stroke="#191970" points="445.7688,-58.6719 455.324,-54.095 445.0001,-51.7142 445.7688,-58.6719"/>
</g>
<!-- Node64 -->
<g id="node13" class="node">
<title>Node64</title>
<g id="a_node13"><a xlink:href="structchi_1_1NodeType.html#a9de5373607ac5fb322665c487010ecf2" target="_top" xlink:title="Clones the type. ">
<polygon fill="#ffffff" stroke="#000000" points="456,-.5 456,-19.5 565,-19.5 565,-.5 456,-.5"/>
<text text-anchor="middle" x="510.5" y="-7.5" font-family="Helvetica,sans-Serif" font-size="10.00" fill="#000000">chi::NodeType::clone</text>
</a>
</g>
</g>
<!-- Node63&#45;&gt;Node64 -->
<g id="edge14" class="edge">
<title>Node63&#45;&gt;Node64</title>
<path fill="none" stroke="#191970" d="M398.6573,-22.3547C413.915,-20.6693 430.3692,-18.8517 445.8398,-17.1427"/>
<polygon fill="#191970" stroke="#191970" points="446.2866,-20.6147 455.8418,-16.0378 445.5179,-13.657 446.2866,-20.6147"/>
</g>
</g>
</svg>
        <g id="navigator" transform="translate(0 0)" fill="#404254">
                <rect fill="#f2f5e9" fill-opacity="0.5" stroke="#606060" stroke-width=".5" x="0" y="0" width="60" height="60"/>
                <use id="zoomplus" xlink:href="#zoomPlus" x="17" y="9" onmousedown="handleZoom(evt,'in')"/>
                <use id="zoomminus" xlink:href="#zoomMin" x="42" y="9" onmousedown="handleZoom(evt,'out')"/>
                <use id="reset" xlink:href="#resetDef" x="30" y="36" onmousedown="handleReset()"/>
                <g id="arrowUp" xlink:href="#dirArrow" transform="translate(30 24)" onmousedown="handlePan(0,-1)">
                  <use xlink:href="#rim" fill="#404040">
                        <set attributeName="fill" to="#808080" begin="arrowUp.mouseover" end="arrowUp.mouseout"/>
                  </use>
                  <path fill="none" stroke="white" stroke-width="1.5" d="M0,-3.0v7 M-2.5,-0.5L0,-3.0L2.5,-0.5"/>
                </g>
                <g id="arrowRight" xlink:href="#dirArrow" transform="rotate(90) translate(36 -43)" onmousedown="handlePan(1,0)">
                  <use xlink:href="#rim" fill="#404040">
                        <set attributeName="fill" to="#808080" begin="arrowRight.mouseover" end="arrowRight.mouseout"/>
                  </use>
                  <path fill="none" stroke="white" stroke-width="1.5" d="M0,-3.0v7 M-2.5,-0.5L0,-3.0L2.5,-0.5"/>
                </g>
                <g id="arrowDown" xlink:href="#dirArrow" transform="rotate(180) translate(-30 -48)" onmousedown="handlePan(0,1)">
                  <use xlink:href="#rim" fill="#404040">
                        <set attributeName="fill" to="#808080" begin="arrowDown.mouseover" end="arrowDown.mouseout"/>
                  </use>
                  <path fill="none" stroke="white" stroke-width="1.5" d="M0,-3.0v7 M-2.5,-0.5L0,-3.0L2.5,-0.5"/>
                </g>
                <g id="arrowLeft" xlink:href="#dirArrow" transform="rotate(270) translate(-36 17)" onmousedown="handlePan(-1,0)">
                  <use xlink:href="#rim" fill="#404040">
                        <set attributeName="fill" to="#808080" begin="arrowLeft.mouseover" end="arrowLeft.mouseout"/>
                  </use>
                  <path fill="none" stroke="white" stroke-width="1.5" d="M0,-3.0v7 M-2.5,-0.5L0,-3.0L2.5,-0.5"/>
                </g>
        </g>
        <svg viewBox="0 0 15 15" width="100%" height="30px" preserveAspectRatio="xMaxYMin meet">
         <g id="arrow_out" transform="scale(0.3 0.3)">
          <a xlink:href="namespacechi_ab69b013712d615bf9901d7bf2b0b11fb_cgraph_org.svg" target="_base">
           <rect id="button" ry="5" rx="5" y="6" x="6" height="38" width="38"
                fill="#f2f5e9" fill-opacity="0.5" stroke="#606060" stroke-width="1.0"/>
           <path id="arrow"
             d="M 11.500037,31.436501 C 11.940474,20.09759 22.043105,11.32322 32.158766,21.979434 L 37.068811,17.246167 C 37.068811,17.246167 37.088388,32 37.088388,32 L 22.160133,31.978069 C 22.160133,31.978069 26.997745,27.140456 26.997745,27.140456 C 18.528582,18.264221 13.291696,25.230495 11.500037,31.436501 z"
             style="fill:#404040;"/>
          </a>
         </g>
        </svg>
</svg>
