<?xml version="1.0" encoding="UTF-8" standalone="no"?>
<!DOCTYPE svg PUBLIC "-//W3C//DTD SVG 1.1//EN"
 "http://www.w3.org/Graphics/SVG/1.1/DTD/svg11.dtd">
<!-- Generated by graphviz version 2.40.1 (20161225.0304)
 -->
<!-- Title: chig::disconnectExec Pages: 1 -->
<svg width="1030pt" height="173pt"
 viewBox="0.00 0.00 1030.00 172.50" xmlns="http://www.w3.org/2000/svg" xmlns:xlink="http://www.w3.org/1999/xlink">
<g id="graph0" class="graph" transform="scale(1 1) rotate(0) translate(4 168.5)">
<title>chig::disconnectExec</title>
<polygon fill="#ffffff" stroke="transparent" points="-4,4 -4,-168.5 1026,-168.5 1026,4 -4,4"/>
<!-- Node133 -->
<g id="node1" class="node">
<title>Node133</title>
<polygon fill="#bfbfbf" stroke="#000000" points="0,-56 0,-75 119,-75 119,-56 0,-56"/>
<text text-anchor="middle" x="59.5" y="-63" font-family="Helvetica,sans-Serif" font-size="10.00" fill="#000000">chig::disconnectExec</text>
</g>
<!-- Node134 -->
<g id="node2" class="node">
<title>Node134</title>
<g id="a_node2"><a xlink:href="namespacechig.html#a8a2e0029b591b2c20b39d570753f123f" target="_top" xlink:title="Connects two nodes&#39; exec connections. ">
<polygon fill="#ffffff" stroke="#000000" points="155,-113 155,-132 259,-132 259,-113 155,-113"/>
<text text-anchor="middle" x="207" y="-120" font-family="Helvetica,sans-Serif" font-size="10.00" fill="#000000">chig::connectExec</text>
</a>
</g>
</g>
<!-- Node133&#45;&gt;Node134 -->
<g id="edge1" class="edge">
<title>Node133&#45;&gt;Node134</title>
<path fill="none" stroke="#191970" d="M93.6656,-78.703C120.7487,-89.169 157.953,-103.5462 182.2313,-112.9284"/>
<polygon fill="#191970" stroke="#191970" points="94.7776,-75.3805 84.1882,-75.0405 92.2543,-81.9099 94.7776,-75.3805"/>
</g>
<!-- Node135 -->
<g id="node3" class="node">
<title>Node135</title>
<g id="a_node3"><a xlink:href="structchig_1_1NodeInstance.html#ac06ee5988ee5f130088fee83a550f4d2" target="_top" xlink:title="Get the containing GraphFunction. ">
<polygon fill="#ffffff" stroke="#000000" points="295,-107.5 295,-137.5 405,-137.5 405,-107.5 295,-107.5"/>
<text text-anchor="start" x="303" y="-125.5" font-family="Helvetica,sans-Serif" font-size="10.00" fill="#000000">chig::NodeInstance</text>
<text text-anchor="middle" x="350" y="-114.5" font-family="Helvetica,sans-Serif" font-size="10.00" fill="#000000">::function</text>
</a>
</g>
</g>
<!-- Node133&#45;&gt;Node135 -->
<g id="edge17" class="edge">
<title>Node133&#45;&gt;Node135</title>
<path fill="none" stroke="#191970" d="M120.8079,-76.8887C160.2982,-84.2959 212.7205,-94.2618 259,-103.5 270.5537,-105.8063 282.9178,-108.3423 294.6906,-110.7894"/>
<polygon fill="#191970" stroke="#191970" points="121.2751,-73.4155 110.8017,-75.0147 119.9865,-80.2958 121.2751,-73.4155"/>
</g>
<!-- Node139 -->
<g id="node7" class="node">
<title>Node139</title>
<g id="a_node7"><a xlink:href="structchig_1_1GraphFunction.html#a398599d8fe1982a3c76462b1b2375a6e" target="_top" xlink:title="Remove a node from the function. ">
<polygon fill="#ffffff" stroke="#000000" points="596,-56.5 596,-86.5 709,-86.5 709,-56.5 596,-56.5"/>
<text text-anchor="start" x="604" y="-74.5" font-family="Helvetica,sans-Serif" font-size="10.00" fill="#000000">chig::GraphFunction</text>
<text text-anchor="middle" x="652.5" y="-63.5" font-family="Helvetica,sans-Serif" font-size="10.00" fill="#000000">::removeNode</text>
</a>
</g>
</g>
<!-- Node133&#45;&gt;Node139 -->
<g id="edge18" class="edge">
<title>Node133&#45;&gt;Node139</title>
<path fill="none" stroke="#191970" d="M129.4709,-64.0718C226.2585,-62.4221 406.4483,-60.5252 560,-65.5 571.5807,-65.8752 583.9642,-66.514 595.7828,-67.2383"/>
<polygon fill="#191970" stroke="#191970" points="129.1656,-60.5765 119.2284,-64.2508 129.288,-67.5754 129.1656,-60.5765"/>
</g>
<!-- Node143 -->
<g id="node11" class="node">
<title>Node143</title>
<g id="a_node11"><a xlink:href="structchig_1_1NodeInstance.html#ab7b23fb84fff7176f7a6e62ce3762153" target="_top" xlink:title="Set the type of the node instance. ">
<polygon fill="#ffffff" stroke="#000000" points="597.5,-.5 597.5,-30.5 707.5,-30.5 707.5,-.5 597.5,-.5"/>
<text text-anchor="start" x="605.5" y="-18.5" font-family="Helvetica,sans-Serif" font-size="10.00" fill="#000000">chig::NodeInstance</text>
<text text-anchor="middle" x="652.5" y="-7.5" font-family="Helvetica,sans-Serif" font-size="10.00" fill="#000000">::setType</text>
</a>
</g>
</g>
<!-- Node133&#45;&gt;Node143 -->
<g id="edge19" class="edge">
<title>Node133&#45;&gt;Node143</title>
<path fill="none" stroke="#191970" d="M129.1778,-59.625C248.3404,-49.5775 488.8867,-29.2954 597.3026,-20.1541"/>
<polygon fill="#191970" stroke="#191970" points="128.7447,-56.149 119.0742,-60.4769 129.3329,-63.1242 128.7447,-56.149"/>
</g>
<!-- Node134&#45;&gt;Node135 -->
<g id="edge2" class="edge">
<title>Node134&#45;&gt;Node135</title>
<path fill="none" stroke="#191970" d="M269.2958,-115.8C277.8104,-115.7071 286.5022,-115.7437 294.8771,-115.9099"/>
<polygon fill="#191970" stroke="#191970" points="268.9687,-112.305 259.0308,-115.9775 269.0899,-119.304 268.9687,-112.305"/>
</g>
<!-- Node137 -->
<g id="node5" class="node">
<title>Node137</title>
<g id="a_node5"><a xlink:href="structchig_1_1Graph.html#a1b1c12b94544f6bb8eb7b807ef2c0f7e" target="_top" xlink:title="Normal constructor (don&#39;t call this, let GraphFunction call it) ">
<polygon fill="#ffffff" stroke="#000000" points="748,-145 748,-164 855,-164 855,-145 748,-145"/>
<text text-anchor="middle" x="801.5" y="-152" font-family="Helvetica,sans-Serif" font-size="10.00" fill="#000000">chig::Graph::Graph</text>
</a>
</g>
</g>
<!-- Node134&#45;&gt;Node137 -->
<g id="edge16" class="edge">
<title>Node134&#45;&gt;Node137</title>
<path fill="none" stroke="#191970" d="M243.3859,-135.1613C259.0616,-140.0058 277.7258,-144.9721 295,-147.5 458.5894,-171.4397 655.0657,-163.9931 747.9014,-158.348"/>
<polygon fill="#191970" stroke="#191970" points="244.1518,-131.7317 233.5609,-132.0221 242.0213,-138.3996 244.1518,-131.7317"/>
</g>
<!-- Node135&#45;&gt;Node134 -->
<g id="edge6" class="edge">
<title>Node135&#45;&gt;Node134</title>
<path fill="none" stroke="#191970" d="M284.8194,-129.2265C276.1772,-129.2909 267.4109,-129.2229 259.0308,-129.0225"/>
<polygon fill="#191970" stroke="#191970" points="284.9255,-132.7255 294.8771,-129.0901 284.8305,-125.7261 284.9255,-132.7255"/>
</g>
<!-- Node136 -->
<g id="node4" class="node">
<title>Node136</title>
<g id="a_node4"><a xlink:href="namespacechig.html#ad3c2fc880f6843f9a8a0f5ee0d62249d" target="_top" xlink:title="Connects two nodes&#39; data connections. ">
<polygon fill="#ffffff" stroke="#000000" points="600.5,-122 600.5,-141 704.5,-141 704.5,-122 600.5,-122"/>
<text text-anchor="middle" x="652.5" y="-129" font-family="Helvetica,sans-Serif" font-size="10.00" fill="#000000">chig::connectData</text>
</a>
</g>
</g>
<!-- Node135&#45;&gt;Node136 -->
<g id="edge3" class="edge">
<title>Node135&#45;&gt;Node136</title>
<path fill="none" stroke="#191970" d="M415.189,-118.7738C470.553,-118.8479 548.9743,-121.3197 600.2764,-124.6962"/>
<polygon fill="#191970" stroke="#191970" points="415.1264,-115.2738 405.1314,-118.7882 415.1365,-122.2738 415.1264,-115.2738"/>
</g>
<!-- Node138 -->
<g id="node6" class="node">
<title>Node138</title>
<g id="a_node6"><a xlink:href="namespacechig.html#a26aa6586df79345493de9fc130291c18" target="_top" xlink:title="Disconnect a data connection. ">
<polygon fill="#ffffff" stroke="#000000" points="441,-75 441,-94 560,-94 560,-75 441,-75"/>
<text text-anchor="middle" x="500.5" y="-82" font-family="Helvetica,sans-Serif" font-size="10.00" fill="#000000">chig::disconnectData</text>
</a>
</g>
</g>
<!-- Node135&#45;&gt;Node138 -->
<g id="edge7" class="edge">
<title>Node135&#45;&gt;Node138</title>
<path fill="none" stroke="#191970" d="M396.3654,-104.5061C410.4413,-100.4787 426.1068,-96.4129 440.9239,-92.9243"/>
<polygon fill="#191970" stroke="#191970" points="395.0406,-101.2472 386.4319,-107.423 397.0129,-107.9637 395.0406,-101.2472"/>
</g>
<!-- Node136&#45;&gt;Node135 -->
<g id="edge4" class="edge">
<title>Node136&#45;&gt;Node135</title>
<path fill="none" stroke="#191970" d="M590.0547,-135.2279C535.585,-135.2339 457.3223,-132.8276 405.1314,-129.4924"/>
<polygon fill="#191970" stroke="#191970" points="590.2873,-138.7273 600.2764,-135.1963 590.2656,-131.7273 590.2873,-138.7273"/>
</g>
<!-- Node136&#45;&gt;Node137 -->
<g id="edge5" class="edge">
<title>Node136&#45;&gt;Node137</title>
<path fill="none" stroke="#191970" d="M714.6301,-141.0906C725.6836,-142.7968 737.1109,-144.5607 747.9016,-146.2264"/>
<polygon fill="#191970" stroke="#191970" points="715.0299,-137.6109 704.613,-139.5443 713.9619,-144.529 715.0299,-137.6109"/>
</g>
<!-- Node138&#45;&gt;Node135 -->
<g id="edge9" class="edge">
<title>Node138&#45;&gt;Node135</title>
<path fill="none" stroke="#191970" d="M471.5756,-97.2551C452.7884,-103.2187 427.6953,-109.9145 405.1861,-115.098"/>
<polygon fill="#191970" stroke="#191970" points="472.9154,-100.4984 481.3077,-94.0316 470.7144,-93.8534 472.9154,-100.4984"/>
</g>
<!-- Node138&#45;&gt;Node136 -->
<g id="edge8" class="edge">
<title>Node138&#45;&gt;Node136</title>
<path fill="none" stroke="#191970" d="M540.9313,-97.0018C566.2098,-104.8182 598.2671,-114.7306 621.5258,-121.9224"/>
<polygon fill="#191970" stroke="#191970" points="541.8471,-93.6215 531.2595,-94.0112 539.7792,-100.3091 541.8471,-93.6215"/>
</g>
<!-- Node138&#45;&gt;Node139 -->
<g id="edge10" class="edge">
<title>Node138&#45;&gt;Node139</title>
<path fill="none" stroke="#191970" d="M570.3424,-78.5266C578.7724,-77.8056 587.3042,-77.076 595.5191,-76.3734"/>
<polygon fill="#191970" stroke="#191970" points="569.8035,-75.0599 560.1382,-79.3994 570.4001,-82.0344 569.8035,-75.0599"/>
</g>
<!-- Node138&#45;&gt;Node143 -->
<g id="edge15" class="edge">
<title>Node138&#45;&gt;Node143</title>
<path fill="none" stroke="#191970" d="M530.8528,-70.7214C556.4173,-59.1165 592.9282,-42.5425 619.2721,-30.5837"/>
<polygon fill="#191970" stroke="#191970" points="529.2939,-67.5853 521.6349,-74.9058 532.1874,-73.9593 529.2939,-67.5853"/>
</g>
<!-- Node140 -->
<g id="node8" class="node">
<title>Node140</title>
<g id="a_node8"><a xlink:href="structchig_1_1GraphFunction.html#a70b74dd7330f7afb2b3ab38feebd57c5" target="_top" xlink:title="Add a node to the graph. ">
<polygon fill="#ffffff" stroke="#000000" points="745,-56.5 745,-86.5 858,-86.5 858,-56.5 745,-56.5"/>
<text text-anchor="start" x="753" y="-74.5" font-family="Helvetica,sans-Serif" font-size="10.00" fill="#000000">chig::GraphFunction</text>
<text text-anchor="middle" x="801.5" y="-63.5" font-family="Helvetica,sans-Serif" font-size="10.00" fill="#000000">::insertNode</text>
</a>
</g>
</g>
<!-- Node139&#45;&gt;Node140 -->
<g id="edge11" class="edge">
<title>Node139&#45;&gt;Node140</title>
<path fill="none" stroke="#191970" d="M719.5076,-71.5C727.9902,-71.5 736.6037,-71.5 744.9022,-71.5"/>
<polygon fill="#191970" stroke="#191970" points="719.2556,-68.0001 709.2556,-71.5 719.2555,-75.0001 719.2556,-68.0001"/>
</g>
<!-- Node141 -->
<g id="node9" class="node">
<title>Node141</title>
<g id="a_node9"><a xlink:href="structchig_1_1GraphFunction.html#a449ab966907b5e32dd00d5f6bb1b3ede" target="_top" xlink:title="Add a node to the graph using module, type, and json. ">
<polygon fill="#ffffff" stroke="#000000" points="901.5,-105.5 901.5,-135.5 1014.5,-135.5 1014.5,-105.5 901.5,-105.5"/>
<text text-anchor="start" x="909.5" y="-123.5" font-family="Helvetica,sans-Serif" font-size="10.00" fill="#000000">chig::GraphFunction</text>
<text text-anchor="middle" x="958" y="-112.5" font-family="Helvetica,sans-Serif" font-size="10.00" fill="#000000">::insertNode</text>
</a>
</g>
</g>
<!-- Node140&#45;&gt;Node141 -->
<g id="edge12" class="edge">
<title>Node140&#45;&gt;Node141</title>
<path fill="none" stroke="#191970" d="M859.3504,-89.6129C875.9883,-94.8222 893.9489,-100.4457 909.9271,-105.4484"/>
<polygon fill="#191970" stroke="#191970" points="860.3211,-86.2494 849.7322,-86.6014 858.2295,-92.9296 860.3211,-86.2494"/>
</g>
<!-- Node142 -->
<g id="node10" class="node">
<title>Node142</title>
<g id="a_node10"><a xlink:href="structchig_1_1GraphFunction.html#a1fd77fbd5bb46690fdc79cd9c6d35917" target="_top" xlink:title="Creates an entry node if it doesn&#39;t already exist, else just return it. ">
<polygon fill="#ffffff" stroke="#000000" points="894,-56.5 894,-86.5 1022,-86.5 1022,-56.5 894,-56.5"/>
<text text-anchor="start" x="902" y="-74.5" font-family="Helvetica,sans-Serif" font-size="10.00" fill="#000000">chig::GraphFunction</text>
<text text-anchor="middle" x="958" y="-63.5" font-family="Helvetica,sans-Serif" font-size="10.00" fill="#000000">::getOrInsertEntryNode</text>
</a>
</g>
</g>
<!-- Node140&#45;&gt;Node142 -->
<g id="edge13" class="edge">
<title>Node140&#45;&gt;Node142</title>
<path fill="none" stroke="#191970" d="M868.2454,-64.8153C876.7427,-64.7182 885.4251,-64.7294 893.8798,-64.8488"/>
<polygon fill="#191970" stroke="#191970" points="867.9399,-61.3198 858.0001,-64.9873 868.0575,-68.3188 867.9399,-61.3198"/>
</g>
<!-- Node142&#45;&gt;Node140 -->
<g id="edge14" class="edge">
<title>Node142&#45;&gt;Node140</title>
<path fill="none" stroke="#191970" d="M883.7643,-78.2421C875.0999,-78.2762 866.3697,-78.1998 858.0001,-78.0127"/>
<polygon fill="#191970" stroke="#191970" points="883.9117,-81.741 893.8798,-78.1512 883.8487,-74.7413 883.9117,-81.741"/>
</g>
</g>
</svg>
