<?xml version="1.0" encoding="UTF-8" standalone="no"?>
<!DOCTYPE svg PUBLIC "-//W3C//DTD SVG 1.1//EN"
 "http://www.w3.org/Graphics/SVG/1.1/DTD/svg11.dtd">
<!-- Generated by graphviz version 2.40.1 (20161225.0304)
 -->
<!-- Title: chig::connectData Pages: 1 -->
<svg width="817pt" height="146pt"
 viewBox="0.00 0.00 817.00 145.50" xmlns="http://www.w3.org/2000/svg" xmlns:xlink="http://www.w3.org/1999/xlink">
<g id="graph0" class="graph" transform="scale(1 1) rotate(0) translate(4 141.5)">
<title>chig::connectData</title>
<polygon fill="#ffffff" stroke="transparent" points="-4,4 -4,-141.5 813,-141.5 813,4 -4,4"/>
<!-- Node55 -->
<g id="node1" class="node">
<title>Node55</title>
<polygon fill="#bfbfbf" stroke="#000000" points="0,-82 0,-101 95,-101 95,-82 0,-82"/>
<text text-anchor="middle" x="47.5" y="-89" font-family="Helvetica,sans-Serif" font-size="10.00" fill="#000000">chig::connectData</text>
</g>
<!-- Node56 -->
<g id="node2" class="node">
<title>Node56</title>
<g id="a_node2"><a xlink:href="structchig_1_1NodeInstance.html#ac06ee5988ee5f130088fee83a550f4d2" target="_top" xlink:title="Get the containing GraphFunction. ">
<polygon fill="#ffffff" stroke="#000000" points="131,-76.5 131,-106.5 232,-106.5 232,-76.5 131,-76.5"/>
<text text-anchor="start" x="139" y="-94.5" font-family="Helvetica,sans-Serif" font-size="10.00" fill="#000000">chig::NodeInstance</text>
<text text-anchor="middle" x="181.5" y="-83.5" font-family="Helvetica,sans-Serif" font-size="10.00" fill="#000000">::function</text>
</a>
</g>
</g>
<!-- Node55&#45;&gt;Node56 -->
<g id="edge1" class="edge">
<title>Node55&#45;&gt;Node56</title>
<path fill="none" stroke="#191970" d="M105.3412,-84.8064C113.8324,-84.7013 122.5235,-84.7431 130.8553,-84.932"/>
<polygon fill="#191970" stroke="#191970" points="105.0499,-81.3113 95.1207,-85.0075 105.1876,-88.31 105.0499,-81.3113"/>
</g>
<!-- Node58 -->
<g id="node4" class="node">
<title>Node58</title>
<g id="a_node4"><a xlink:href="structchig_1_1Graph.html#a1b1c12b94544f6bb8eb7b807ef2c0f7e" target="_top" xlink:title="chig::Graph::Graph">
<polygon fill="#ffffff" stroke="#000000" points="414.5,-118 414.5,-137 513.5,-137 513.5,-118 414.5,-118"/>
<text text-anchor="middle" x="464" y="-125" font-family="Helvetica,sans-Serif" font-size="10.00" fill="#000000">chig::Graph::Graph</text>
</a>
</g>
</g>
<!-- Node55&#45;&gt;Node58 -->
<g id="edge15" class="edge">
<title>Node55&#45;&gt;Node58</title>
<path fill="none" stroke="#191970" d="M82.7577,-104.2551C97.4695,-108.9977 114.8616,-113.8631 131,-116.5 230.4741,-132.7536 348.8114,-131.9771 414.2462,-129.8236"/>
<polygon fill="#191970" stroke="#191970" points="83.6427,-100.8609 73.0491,-101.0203 81.4299,-107.502 83.6427,-100.8609"/>
</g>
<!-- Node56&#45;&gt;Node55 -->
<g id="edge2" class="edge">
<title>Node56&#45;&gt;Node55</title>
<path fill="none" stroke="#191970" d="M120.8329,-98.2231C112.2106,-98.2965 103.4472,-98.2196 95.1207,-97.9925"/>
<polygon fill="#191970" stroke="#191970" points="120.9107,-101.7224 130.8553,-98.068 120.8023,-94.7233 120.9107,-101.7224"/>
</g>
<!-- Node57 -->
<g id="node3" class="node">
<title>Node57</title>
<g id="a_node3"><a xlink:href="namespacechig.html#a8a2e0029b591b2c20b39d570753f123f" target="_top" xlink:title="chig::connectExec">
<polygon fill="#ffffff" stroke="#000000" points="273,-85 273,-104 371,-104 371,-85 273,-85"/>
<text text-anchor="middle" x="322" y="-92" font-family="Helvetica,sans-Serif" font-size="10.00" fill="#000000">chig::connectExec</text>
</a>
</g>
</g>
<!-- Node56&#45;&gt;Node57 -->
<g id="edge3" class="edge">
<title>Node56&#45;&gt;Node57</title>
<path fill="none" stroke="#191970" d="M242.2827,-86.1026C252.4642,-86.2016 262.9159,-86.4984 272.7612,-86.9745"/>
<polygon fill="#191970" stroke="#191970" points="242.2349,-82.6026 232.2237,-86.0704 242.2124,-89.6025 242.2349,-82.6026"/>
</g>
<!-- Node59 -->
<g id="node5" class="node">
<title>Node59</title>
<g id="a_node5"><a xlink:href="namespacechig.html#a26aa6586df79345493de9fc130291c18" target="_top" xlink:title="chig::disconnectData">
<polygon fill="#ffffff" stroke="#000000" points="268,-47 268,-66 376,-66 376,-47 268,-47"/>
<text text-anchor="middle" x="322" y="-54" font-family="Helvetica,sans-Serif" font-size="10.00" fill="#000000">chig::disconnectData</text>
</a>
</g>
</g>
<!-- Node56&#45;&gt;Node59 -->
<g id="edge6" class="edge">
<title>Node56&#45;&gt;Node59</title>
<path fill="none" stroke="#191970" d="M227.3137,-73.7142C240.2773,-70.0692 254.5093,-66.452 267.9114,-63.3854"/>
<polygon fill="#191970" stroke="#191970" points="226.3169,-70.359 217.6822,-76.4984 228.2609,-77.0837 226.3169,-70.359"/>
</g>
<!-- Node57&#45;&gt;Node56 -->
<g id="edge4" class="edge">
<title>Node57&#45;&gt;Node56</title>
<path fill="none" stroke="#191970" d="M262.7462,-99.9107C252.594,-99.8317 242.1277,-99.5538 232.2237,-99.0958"/>
<polygon fill="#191970" stroke="#191970" points="262.757,-103.4107 272.7612,-99.9228 262.7655,-96.4107 262.757,-103.4107"/>
</g>
<!-- Node57&#45;&gt;Node58 -->
<g id="edge5" class="edge">
<title>Node57&#45;&gt;Node58</title>
<path fill="none" stroke="#191970" d="M373.0563,-106.3652C389.4685,-110.1793 407.428,-114.353 423.02,-117.9765"/>
<polygon fill="#191970" stroke="#191970" points="373.605,-102.8995 363.0723,-104.045 372.0204,-109.7178 373.605,-102.8995"/>
</g>
<!-- Node59&#45;&gt;Node55 -->
<g id="edge14" class="edge">
<title>Node59&#45;&gt;Node55</title>
<path fill="none" stroke="#191970" d="M257.4816,-56.0644C220.2641,-56.7611 172.7185,-59.2697 131,-66.5 111.3187,-69.911 89.7337,-76.4511 73.4408,-81.9866"/>
<polygon fill="#191970" stroke="#191970" points="257.7444,-59.561 267.6916,-55.9135 257.6409,-52.5618 257.7444,-59.561"/>
</g>
<!-- Node59&#45;&gt;Node56 -->
<g id="edge7" class="edge">
<title>Node59&#45;&gt;Node56</title>
<path fill="none" stroke="#191970" d="M293.1802,-69.2532C275.6347,-74.7602 252.7243,-80.7804 232.2237,-85.3769"/>
<polygon fill="#191970" stroke="#191970" points="294.4226,-72.5292 302.8321,-66.0847 292.2392,-65.8784 294.4226,-72.5292"/>
</g>
<!-- Node60 -->
<g id="node6" class="node">
<title>Node60</title>
<g id="a_node6"><a xlink:href="structchig_1_1GraphFunction.html#a398599d8fe1982a3c76462b1b2375a6e" target="_top" xlink:title="chig::GraphFunction\l::removeNode">
<polygon fill="#ffffff" stroke="#000000" points="412,-49.5 412,-79.5 516,-79.5 516,-49.5 412,-49.5"/>
<text text-anchor="start" x="420" y="-67.5" font-family="Helvetica,sans-Serif" font-size="10.00" fill="#000000">chig::GraphFunction</text>
<text text-anchor="middle" x="464" y="-56.5" font-family="Helvetica,sans-Serif" font-size="10.00" fill="#000000">::removeNode</text>
</a>
</g>
</g>
<!-- Node59&#45;&gt;Node60 -->
<g id="edge8" class="edge">
<title>Node59&#45;&gt;Node60</title>
<path fill="none" stroke="#191970" d="M386.1337,-60.1132C394.77,-60.5997 403.5431,-61.094 411.9355,-61.5668"/>
<polygon fill="#191970" stroke="#191970" points="386.2703,-56.6154 376.0892,-59.5473 385.8765,-63.6043 386.2703,-56.6154"/>
</g>
<!-- Node64 -->
<g id="node10" class="node">
<title>Node64</title>
<g id="a_node10"><a xlink:href="structchig_1_1NodeInstance.html#ab7b23fb84fff7176f7a6e62ce3762153" target="_top" xlink:title="chig::NodeInstance\l::setType">
<polygon fill="#ffffff" stroke="#000000" points="413.5,-.5 413.5,-30.5 514.5,-30.5 514.5,-.5 413.5,-.5"/>
<text text-anchor="start" x="421.5" y="-18.5" font-family="Helvetica,sans-Serif" font-size="10.00" fill="#000000">chig::NodeInstance</text>
<text text-anchor="middle" x="464" y="-7.5" font-family="Helvetica,sans-Serif" font-size="10.00" fill="#000000">::setType</text>
</a>
</g>
</g>
<!-- Node59&#45;&gt;Node64 -->
<g id="edge13" class="edge">
<title>Node59&#45;&gt;Node64</title>
<path fill="none" stroke="#191970" d="M364.6776,-44.1776C380.0244,-39.7465 397.4827,-34.7057 413.4362,-30.0994"/>
<polygon fill="#191970" stroke="#191970" points="363.5712,-40.854 354.9346,-46.9907 365.513,-47.5793 363.5712,-40.854"/>
</g>
<!-- Node61 -->
<g id="node7" class="node">
<title>Node61</title>
<g id="a_node7"><a xlink:href="structchig_1_1GraphFunction.html#a70b74dd7330f7afb2b3ab38feebd57c5" target="_top" xlink:title="chig::GraphFunction\l::insertNode">
<polygon fill="#ffffff" stroke="#000000" points="552,-49.5 552,-79.5 656,-79.5 656,-49.5 552,-49.5"/>
<text text-anchor="start" x="560" y="-67.5" font-family="Helvetica,sans-Serif" font-size="10.00" fill="#000000">chig::GraphFunction</text>
<text text-anchor="middle" x="604" y="-56.5" font-family="Helvetica,sans-Serif" font-size="10.00" fill="#000000">::insertNode</text>
</a>
</g>
</g>
<!-- Node60&#45;&gt;Node61 -->
<g id="edge9" class="edge">
<title>Node60&#45;&gt;Node61</title>
<path fill="none" stroke="#191970" d="M526.3869,-64.5C534.8847,-64.5 543.5339,-64.5 551.8256,-64.5"/>
<polygon fill="#191970" stroke="#191970" points="526.1309,-61.0001 516.1308,-64.5 526.1308,-68.0001 526.1309,-61.0001"/>
</g>
<!-- Node62 -->
<g id="node8" class="node">
<title>Node62</title>
<g id="a_node8"><a xlink:href="structchig_1_1GraphFunction.html#a449ab966907b5e32dd00d5f6bb1b3ede" target="_top" xlink:title="chig::GraphFunction\l::insertNode">
<polygon fill="#ffffff" stroke="#000000" points="698.5,-98.5 698.5,-128.5 802.5,-128.5 802.5,-98.5 698.5,-98.5"/>
<text text-anchor="start" x="706.5" y="-116.5" font-family="Helvetica,sans-Serif" font-size="10.00" fill="#000000">chig::GraphFunction</text>
<text text-anchor="middle" x="750.5" y="-105.5" font-family="Helvetica,sans-Serif" font-size="10.00" fill="#000000">::insertNode</text>
</a>
</g>
</g>
<!-- Node61&#45;&gt;Node62 -->
<g id="edge10" class="edge">
<title>Node61&#45;&gt;Node62</title>
<path fill="none" stroke="#191970" d="M659.0285,-82.9055C674.3565,-88.0322 690.8212,-93.5392 705.4989,-98.4484"/>
<polygon fill="#191970" stroke="#191970" points="659.744,-79.4542 649.1502,-79.6014 657.5236,-86.0928 659.744,-79.4542"/>
</g>
<!-- Node63 -->
<g id="node9" class="node">
<title>Node63</title>
<g id="a_node9"><a xlink:href="structchig_1_1GraphFunction.html#a1fd77fbd5bb46690fdc79cd9c6d35917" target="_top" xlink:title="chig::GraphFunction\l::getOrInsertEntryNode">
<polygon fill="#ffffff" stroke="#000000" points="692,-49.5 692,-79.5 809,-79.5 809,-49.5 692,-49.5"/>
<text text-anchor="start" x="700" y="-67.5" font-family="Helvetica,sans-Serif" font-size="10.00" fill="#000000">chig::GraphFunction</text>
<text text-anchor="middle" x="750.5" y="-56.5" font-family="Helvetica,sans-Serif" font-size="10.00" fill="#000000">::getOrInsertEntryNode</text>
</a>
</g>
</g>
<!-- Node61&#45;&gt;Node63 -->
<g id="edge11" class="edge">
<title>Node61&#45;&gt;Node63</title>
<path fill="none" stroke="#191970" d="M666.2818,-57.8177C674.7669,-57.7122 683.453,-57.73 691.8706,-57.871"/>
<polygon fill="#191970" stroke="#191970" points="665.9962,-54.3223 656.0629,-58.0075 666.1262,-61.3211 665.9962,-54.3223"/>
</g>
<!-- Node63&#45;&gt;Node61 -->
<g id="edge12" class="edge">
<title>Node63&#45;&gt;Node61</title>
<path fill="none" stroke="#191970" d="M681.7835,-71.2385C673.1329,-71.2824 664.3977,-71.2005 656.0629,-70.9925"/>
<polygon fill="#191970" stroke="#191970" points="681.9092,-74.7374 691.8706,-71.129 681.8332,-67.7378 681.9092,-74.7374"/>
</g>
</g>
</svg>
