<?xml version="1.0" encoding="UTF-8" standalone="no"?>
<!DOCTYPE svg PUBLIC "-//W3C//DTD SVG 1.1//EN"
 "http://www.w3.org/Graphics/SVG/1.1/DTD/svg11.dtd">
<!-- Generated by graphviz version 2.40.1 (20161225.0304)
 -->
<!-- Title: chig::parseColonPair Pages: 1 -->
<svg width="1522pt" height="211pt"
 viewBox="0.00 0.00 1522.00 211.00" xmlns="http://www.w3.org/2000/svg" xmlns:xlink="http://www.w3.org/1999/xlink">
<g id="graph0" class="graph" transform="scale(1 1) rotate(0) translate(4 207)">
<title>chig::parseColonPair</title>
<polygon fill="#ffffff" stroke="transparent" points="-4,4 -4,-207 1518,-207 1518,4 -4,4"/>
<!-- Node521 -->
<g id="node1" class="node">
<title>Node521</title>
<polygon fill="#bfbfbf" stroke="#000000" points="0,-96 0,-115 107,-115 107,-96 0,-96"/>
<text text-anchor="middle" x="53.5" y="-103" font-family="Helvetica,sans-Serif" font-size="10.00" fill="#000000">chig::parseColonPair</text>
</g>
<!-- Node522 -->
<g id="node2" class="node">
<title>Node522</title>
<g id="a_node2"><a xlink:href="namespacechig.html#a860a6f4d8180f1fb71729896291891b7" target="_top" xlink:title="Create a forward declaration of a function in a module with an empty graph. ">
<polygon fill="#ffffff" stroke="#000000" points="165.5,-172.5 165.5,-202.5 296.5,-202.5 296.5,-172.5 165.5,-172.5"/>
<text text-anchor="start" x="173.5" y="-190.5" font-family="Helvetica,sans-Serif" font-size="10.00" fill="#000000">chig::createGraphFunction</text>
<text text-anchor="middle" x="231" y="-179.5" font-family="Helvetica,sans-Serif" font-size="10.00" fill="#000000">DeclarationFromJson</text>
</a>
</g>
</g>
<!-- Node521&#45;&gt;Node522 -->
<g id="edge1" class="edge">
<title>Node521&#45;&gt;Node522</title>
<path fill="none" stroke="#191970" d="M74.204,-121.1519C91.7399,-133.7883 117.955,-151.2571 143,-162.5 151.2589,-166.2075 160.2027,-169.5034 169.117,-172.3872"/>
<polygon fill="#191970" stroke="#191970" points="76.0103,-118.1362 65.8771,-115.0429 71.8696,-123.7802 76.0103,-118.1362"/>
</g>
<!-- Node531 -->
<g id="node11" class="node">
<title>Node531</title>
<g id="a_node11"><a xlink:href="namespacechig.html#a62056798e67720d435705b99f7e16cd0" target="_top" xlink:title="Load a GraphFunction–must already exist (use createGraphFunctionDeclarationFromJson) ...">
<polygon fill="#ffffff" stroke="#000000" points="164,-134 164,-153 298,-153 298,-134 164,-134"/>
<text text-anchor="middle" x="231" y="-141" font-family="Helvetica,sans-Serif" font-size="10.00" fill="#000000">chig::jsonToGraphFunction</text>
</a>
</g>
</g>
<!-- Node521&#45;&gt;Node531 -->
<g id="edge10" class="edge">
<title>Node521&#45;&gt;Node531</title>
<path fill="none" stroke="#191970" d="M108.3969,-117.2526C133.4954,-122.6258 162.8428,-128.9086 186.5313,-133.9799"/>
<polygon fill="#191970" stroke="#191970" points="108.8019,-113.76 98.2907,-115.089 107.3365,-120.6049 108.8019,-113.76"/>
</g>
<!-- Node532 -->
<g id="node12" class="node">
<title>Node532</title>
<g id="a_node12"><a xlink:href="namespacechig.html#a2af3c68005d33184e5e66b35c4737902" target="_top" xlink:title="Load a GraphStruct from json. ">
<polygon fill="#ffffff" stroke="#000000" points="170,-96 170,-115 292,-115 292,-96 170,-96"/>
<text text-anchor="middle" x="231" y="-103" font-family="Helvetica,sans-Serif" font-size="10.00" fill="#000000">chig::jsonToGraphStruct</text>
</a>
</g>
</g>
<!-- Node521&#45;&gt;Node532 -->
<g id="edge12" class="edge">
<title>Node521&#45;&gt;Node532</title>
<path fill="none" stroke="#191970" d="M117.6646,-105.5C134.7245,-105.5 153.1001,-105.5 169.9864,-105.5"/>
<polygon fill="#191970" stroke="#191970" points="117.2376,-102.0001 107.2375,-105.5 117.2375,-109.0001 117.2376,-102.0001"/>
</g>
<!-- Node533 -->
<g id="node13" class="node">
<title>Node533</title>
<g id="a_node13"><a xlink:href="structchig_1_1CModule.html#a2cabea4f20241d1c2451fd5b9c4dc9c7" target="_top" xlink:title="Create a node type that is in the module from the name and json. ">
<polygon fill="#ffffff" stroke="#000000" points="143,-58 143,-77 319,-77 319,-58 143,-58"/>
<text text-anchor="middle" x="231" y="-65" font-family="Helvetica,sans-Serif" font-size="10.00" fill="#000000">chig::CModule::nodeTypeFromName</text>
</a>
</g>
</g>
<!-- Node521&#45;&gt;Node533 -->
<g id="edge14" class="edge">
<title>Node521&#45;&gt;Node533</title>
<path fill="none" stroke="#191970" d="M108.3969,-93.7474C133.4954,-88.3742 162.8428,-82.0914 186.5313,-77.0201"/>
<polygon fill="#191970" stroke="#191970" points="107.3365,-90.3951 98.2907,-95.911 108.8019,-97.24 107.3365,-90.3951"/>
</g>
<!-- Node534 -->
<g id="node14" class="node">
<title>Node534</title>
<g id="a_node14"><a xlink:href="structchig_1_1GraphModule.html#a3a3e16c194c091ee109eabaca14e3c43" target="_top" xlink:title="Create a node type that is in the module from the name and json. ">
<polygon fill="#ffffff" stroke="#000000" points="177.5,-8.5 177.5,-38.5 284.5,-38.5 284.5,-8.5 177.5,-8.5"/>
<text text-anchor="start" x="185.5" y="-26.5" font-family="Helvetica,sans-Serif" font-size="10.00" fill="#000000">chig::GraphModule::</text>
<text text-anchor="middle" x="231" y="-15.5" font-family="Helvetica,sans-Serif" font-size="10.00" fill="#000000">nodeTypeFromName</text>
</a>
</g>
</g>
<!-- Node521&#45;&gt;Node534 -->
<g id="edge15" class="edge">
<title>Node521&#45;&gt;Node534</title>
<path fill="none" stroke="#191970" d="M74.204,-89.8481C91.7399,-77.2117 117.955,-59.7429 143,-48.5 153.7221,-43.6868 165.5986,-39.5673 177.066,-36.1426"/>
<polygon fill="#191970" stroke="#191970" points="71.8696,-87.2198 65.8771,-95.9571 76.0103,-92.8638 71.8696,-87.2198"/>
</g>
<!-- Node523 -->
<g id="node3" class="node">
<title>Node523</title>
<g id="a_node3"><a xlink:href="namespacechig.html#a3b1bc50c9d7b3cdb17ffcb3ad602f7ab" target="_top" xlink:title="Load a GraphModule from json. ">
<polygon fill="#ffffff" stroke="#000000" points="355,-134 355,-153 483,-153 483,-134 355,-134"/>
<text text-anchor="middle" x="419" y="-141" font-family="Helvetica,sans-Serif" font-size="10.00" fill="#000000">chig::jsonToGraphModule</text>
</a>
</g>
</g>
<!-- Node522&#45;&gt;Node523 -->
<g id="edge2" class="edge">
<title>Node522&#45;&gt;Node523</title>
<path fill="none" stroke="#191970" d="M304.9983,-170.1813C329.9767,-164.3352 356.931,-158.0268 378.356,-153.0124"/>
<polygon fill="#191970" stroke="#191970" points="304.1124,-166.7939 295.1731,-172.4808 305.7076,-173.6097 304.1124,-166.7939"/>
</g>
<!-- Node524 -->
<g id="node4" class="node">
<title>Node524</title>
<g id="a_node4"><a xlink:href="structchig_1_1Context.html#a077f8ef8c0dd541ec2e2d64bcd8f9fc0" target="_top" xlink:title="Load a module from JSON – avoid this use the string overload. ">
<polygon fill="#ffffff" stroke="#000000" points="519,-128.5 519,-158.5 647,-158.5 647,-128.5 519,-128.5"/>
<text text-anchor="start" x="527" y="-146.5" font-family="Helvetica,sans-Serif" font-size="10.00" fill="#000000">chig::Context::addModule</text>
<text text-anchor="middle" x="583" y="-135.5" font-family="Helvetica,sans-Serif" font-size="10.00" fill="#000000">FromJson</text>
</a>
</g>
</g>
<!-- Node523&#45;&gt;Node524 -->
<g id="edge3" class="edge">
<title>Node523&#45;&gt;Node524</title>
<path fill="none" stroke="#191970" d="M493.5641,-143.5C502.0037,-143.5 510.5492,-143.5 518.8391,-143.5"/>
<polygon fill="#191970" stroke="#191970" points="493.3465,-140.0001 483.3464,-143.5 493.3464,-147.0001 493.3465,-140.0001"/>
</g>
<!-- Node525 -->
<g id="node5" class="node">
<title>Node525</title>
<g id="a_node5"><a xlink:href="structchig_1_1Context.html#a75ab64b58e168998761ed6ebd5e493b2" target="_top" xlink:title="Load a module from disk. ">
<polygon fill="#ffffff" stroke="#000000" points="683,-134 683,-153 813,-153 813,-134 683,-134"/>
<text text-anchor="middle" x="748" y="-141" font-family="Helvetica,sans-Serif" font-size="10.00" fill="#000000">chig::Context::loadModule</text>
</a>
</g>
</g>
<!-- Node524&#45;&gt;Node525 -->
<g id="edge4" class="edge">
<title>Node524&#45;&gt;Node525</title>
<path fill="none" stroke="#191970" d="M657.4926,-143.5C665.9426,-143.5 674.5057,-143.5 682.8228,-143.5"/>
<polygon fill="#191970" stroke="#191970" points="657.2658,-140.0001 647.2658,-143.5 657.2657,-147.0001 657.2658,-140.0001"/>
</g>
<!-- Node526 -->
<g id="node6" class="node">
<title>Node526</title>
<g id="a_node6"><a xlink:href="structchig_1_1ChigModule.html#ad5feee65f261f3777edddd027eb89400" target="_top" xlink:title="Add a dependency to the module Loads the module from context() if it isn&#39;t already loaded...">
<polygon fill="#ffffff" stroke="#000000" points="849,-134 849,-153 1016,-153 1016,-134 849,-134"/>
<text text-anchor="middle" x="932.5" y="-141" font-family="Helvetica,sans-Serif" font-size="10.00" fill="#000000">chig::ChigModule::addDependency</text>
</a>
</g>
</g>
<!-- Node525&#45;&gt;Node526 -->
<g id="edge5" class="edge">
<title>Node525&#45;&gt;Node526</title>
<path fill="none" stroke="#191970" d="M823.2627,-143.5C831.734,-143.5 840.4033,-143.5 848.9713,-143.5"/>
<polygon fill="#191970" stroke="#191970" points="823.0478,-140.0001 813.0478,-143.5 823.0478,-147.0001 823.0478,-140.0001"/>
</g>
<!-- Node527 -->
<g id="node7" class="node">
<title>Node527</title>
<g id="a_node7"><a xlink:href="structchig_1_1ChigModule.html#a7f239dc07b0a4d74d6907da6f25127dc" target="_top" xlink:title="Get the dependencies. ">
<polygon fill="#ffffff" stroke="#000000" points="1052,-139 1052,-158 1210,-158 1210,-139 1052,-139"/>
<text text-anchor="middle" x="1131" y="-146" font-family="Helvetica,sans-Serif" font-size="10.00" fill="#000000">chig::ChigModule::dependencies</text>
</a>
</g>
</g>
<!-- Node526&#45;&gt;Node527 -->
<g id="edge6" class="edge">
<title>Node526&#45;&gt;Node527</title>
<path fill="none" stroke="#191970" d="M1026.1763,-145.8596C1034.7894,-146.0766 1043.4588,-146.2949 1051.9237,-146.5082"/>
<polygon fill="#191970" stroke="#191970" points="1026.1916,-142.359 1016.1066,-145.606 1026.0152,-149.3568 1026.1916,-142.359"/>
</g>
<!-- Node530 -->
<g id="node10" class="node">
<title>Node530</title>
<g id="a_node10"><a xlink:href="structchig_1_1GraphModule.html#a65458343d0344b6b806f9b0b780b32f4" target="_top" xlink:title="Construct a GraphModule. ">
<polygon fill="#ffffff" stroke="#000000" points="1079,-89.5 1079,-119.5 1183,-119.5 1183,-89.5 1079,-89.5"/>
<text text-anchor="start" x="1087" y="-107.5" font-family="Helvetica,sans-Serif" font-size="10.00" fill="#000000">chig::GraphModule::</text>
<text text-anchor="middle" x="1131" y="-96.5" font-family="Helvetica,sans-Serif" font-size="10.00" fill="#000000">GraphModule</text>
</a>
</g>
</g>
<!-- Node526&#45;&gt;Node530 -->
<g id="edge9" class="edge">
<title>Node526&#45;&gt;Node530</title>
<path fill="none" stroke="#191970" d="M991.0498,-131.9965C1018.8582,-126.5329 1051.8225,-120.0563 1078.7714,-114.7615"/>
<polygon fill="#191970" stroke="#191970" points="990.1962,-128.5972 981.0586,-133.9595 991.5458,-135.4659 990.1962,-128.5972"/>
</g>
<!-- Node528 -->
<g id="node8" class="node">
<title>Node528</title>
<g id="a_node8"><a xlink:href="namespacechig.html#aaef3bb08f472ae32b2d3b292e69a007a" target="_top" xlink:title="Serialize a JsonModule to json. ">
<polygon fill="#ffffff" stroke="#000000" points="1246,-95 1246,-114 1374,-114 1374,-95 1246,-95"/>
<text text-anchor="middle" x="1310" y="-102" font-family="Helvetica,sans-Serif" font-size="10.00" fill="#000000">chig::graphModuleToJson</text>
</a>
</g>
</g>
<!-- Node527&#45;&gt;Node528 -->
<g id="edge7" class="edge">
<title>Node527&#45;&gt;Node528</title>
<path fill="none" stroke="#191970" d="M1179.692,-136.531C1208.4638,-129.4586 1244.3949,-120.6264 1271.2355,-114.0287"/>
<polygon fill="#191970" stroke="#191970" points="1178.7158,-133.1667 1169.8403,-138.9527 1180.3868,-139.9644 1178.7158,-133.1667"/>
</g>
<!-- Node529 -->
<g id="node9" class="node">
<title>Node529</title>
<g id="a_node9"><a xlink:href="structchig_1_1GraphModule.html#accb1a64da697a29e28d78a9a09bd52ff" target="_top" xlink:title="Serialize to disk in the context. ">
<polygon fill="#ffffff" stroke="#000000" points="1410,-89.5 1410,-119.5 1514,-119.5 1514,-89.5 1410,-89.5"/>
<text text-anchor="start" x="1418" y="-107.5" font-family="Helvetica,sans-Serif" font-size="10.00" fill="#000000">chig::GraphModule::</text>
<text text-anchor="middle" x="1462" y="-96.5" font-family="Helvetica,sans-Serif" font-size="10.00" fill="#000000">saveToDisk</text>
</a>
</g>
</g>
<!-- Node528&#45;&gt;Node529 -->
<g id="edge8" class="edge">
<title>Node528&#45;&gt;Node529</title>
<path fill="none" stroke="#191970" d="M1384.0838,-104.5C1392.6912,-104.5 1401.3313,-104.5 1409.5622,-104.5"/>
<polygon fill="#191970" stroke="#191970" points="1384.0212,-101.0001 1374.0211,-104.5 1384.0211,-108.0001 1384.0212,-101.0001"/>
</g>
<!-- Node531&#45;&gt;Node523 -->
<g id="edge11" class="edge">
<title>Node531&#45;&gt;Node523</title>
<path fill="none" stroke="#191970" d="M308.1519,-143.5C323.6511,-143.5 339.7821,-143.5 354.7843,-143.5"/>
<polygon fill="#191970" stroke="#191970" points="308.0761,-140.0001 298.0761,-143.5 308.0761,-147.0001 308.0761,-140.0001"/>
</g>
<!-- Node532&#45;&gt;Node523 -->
<g id="edge13" class="edge">
<title>Node532&#45;&gt;Node523</title>
<path fill="none" stroke="#191970" d="M288.4365,-117.1095C315.1744,-122.514 346.5879,-128.8635 371.9008,-133.9799"/>
<polygon fill="#191970" stroke="#191970" points="288.9356,-113.6397 278.4403,-115.089 287.5487,-120.5009 288.9356,-113.6397"/>
</g>
<!-- Node535 -->
<g id="node15" class="node">
<title>Node535</title>
<g id="a_node15"><a xlink:href="structchig_1_1GraphFunction.html#a9eff598c36c450953054331757bf6d6b" target="_top" xlink:title="Rename a local variable. ">
<polygon fill="#ffffff" stroke="#000000" points="362.5,-49.5 362.5,-79.5 475.5,-79.5 475.5,-49.5 362.5,-49.5"/>
<text text-anchor="start" x="370.5" y="-67.5" font-family="Helvetica,sans-Serif" font-size="10.00" fill="#000000">chig::GraphFunction</text>
<text text-anchor="middle" x="419" y="-56.5" font-family="Helvetica,sans-Serif" font-size="10.00" fill="#000000">::renameLocalVariable</text>
</a>
</g>
</g>
<!-- Node534&#45;&gt;Node535 -->
<g id="edge16" class="edge">
<title>Node534&#45;&gt;Node535</title>
<path fill="none" stroke="#191970" d="M294.5234,-37.3535C316.4995,-42.1462 340.9677,-47.4823 362.3548,-52.1465"/>
<polygon fill="#191970" stroke="#191970" points="295.1378,-33.9053 284.6217,-35.1941 293.6462,-40.7446 295.1378,-33.9053"/>
</g>
<!-- Node538 -->
<g id="node18" class="node">
<title>Node538</title>
<g id="a_node18"><a xlink:href="structchig_1_1GraphFunction.html#a905a09106e02a246daac43a37c42b97b" target="_top" xlink:title="Set a new type to a local variable. ">
<polygon fill="#ffffff" stroke="#000000" points="365,-.5 365,-30.5 473,-30.5 473,-.5 365,-.5"/>
<text text-anchor="start" x="373" y="-18.5" font-family="Helvetica,sans-Serif" font-size="10.00" fill="#000000">chig::GraphFunction</text>
<text text-anchor="middle" x="419" y="-7.5" font-family="Helvetica,sans-Serif" font-size="10.00" fill="#000000">::retypeLocalVariable</text>
</a>
</g>
</g>
<!-- Node534&#45;&gt;Node538 -->
<g id="edge20" class="edge">
<title>Node534&#45;&gt;Node538</title>
<path fill="none" stroke="#191970" d="M294.8843,-20.7815C317.6733,-19.8118 343.1029,-18.7297 364.9811,-17.7987"/>
<polygon fill="#191970" stroke="#191970" points="294.4638,-17.2962 284.6217,-21.2182 294.7615,-24.2898 294.4638,-17.2962"/>
</g>
<!-- Node536 -->
<g id="node16" class="node">
<title>Node536</title>
<g id="a_node16"><a xlink:href="structchig_1_1GraphFunction.html#a72a81861d1331948804b2a267598ec79" target="_top" xlink:title="Get the local variables. ">
<polygon fill="#ffffff" stroke="#000000" points="531,-45.5 531,-75.5 635,-75.5 635,-45.5 531,-45.5"/>
<text text-anchor="start" x="539" y="-63.5" font-family="Helvetica,sans-Serif" font-size="10.00" fill="#000000">chig::GraphFunction</text>
<text text-anchor="middle" x="583" y="-52.5" font-family="Helvetica,sans-Serif" font-size="10.00" fill="#000000">::localVariables</text>
</a>
</g>
</g>
<!-- Node535&#45;&gt;Node536 -->
<g id="edge17" class="edge">
<title>Node535&#45;&gt;Node536</title>
<path fill="none" stroke="#191970" d="M486.1024,-62.8634C501.0348,-62.4992 516.6493,-62.1183 530.8744,-61.7714"/>
<polygon fill="#191970" stroke="#191970" points="485.8106,-59.3693 475.899,-63.1122 485.9814,-66.3673 485.8106,-59.3693"/>
</g>
<!-- Node537 -->
<g id="node17" class="node">
<title>Node537</title>
<g id="a_node17"><a xlink:href="namespacechig.html#ad0fd9448ab1cd1d73351fad5967a7b9b" target="_top" xlink:title="Serialize a GraphFunction to json. ">
<polygon fill="#ffffff" stroke="#000000" points="865.5,-51 865.5,-70 999.5,-70 999.5,-51 865.5,-51"/>
<text text-anchor="middle" x="932.5" y="-58" font-family="Helvetica,sans-Serif" font-size="10.00" fill="#000000">chig::graphFunctionToJson</text>
</a>
</g>
</g>
<!-- Node536&#45;&gt;Node537 -->
<g id="edge18" class="edge">
<title>Node536&#45;&gt;Node537</title>
<path fill="none" stroke="#191970" d="M645.3505,-60.5C707.2744,-60.5 801.9093,-60.5 865.4328,-60.5"/>
<polygon fill="#191970" stroke="#191970" points="645.3237,-57.0001 635.3237,-60.5 645.3236,-64.0001 645.3237,-57.0001"/>
</g>
<!-- Node537&#45;&gt;Node528 -->
<g id="edge19" class="edge">
<title>Node537&#45;&gt;Node528</title>
<path fill="none" stroke="#191970" d="M1009.7787,-62.1375C1065.6784,-64.2085 1142.8691,-68.8957 1210,-79.5 1232.9791,-83.1299 1258.4074,-89.52 1277.8718,-94.931"/>
<polygon fill="#191970" stroke="#191970" points="1009.7126,-58.6332 999.5961,-61.7804 1009.4672,-65.6289 1009.7126,-58.6332"/>
</g>
<!-- Node538&#45;&gt;Node536 -->
<g id="edge21" class="edge">
<title>Node538&#45;&gt;Node536</title>
<path fill="none" stroke="#191970" d="M482.8965,-33.0326C498.7775,-37.3902 515.6121,-42.0094 530.8532,-46.1914"/>
<polygon fill="#191970" stroke="#191970" points="483.724,-29.6303 473.1542,-30.3594 481.8716,-36.3808 483.724,-29.6303"/>
</g>
</g>
</svg>
