<?xml version="1.0" encoding="UTF-8" standalone="no"?>
<!DOCTYPE svg PUBLIC "-//W3C//DTD SVG 1.1//EN"
 "http://www.w3.org/Graphics/SVG/1.1/DTD/svg11.dtd">
<!-- Generated by graphviz version 2.40.1 (20161225.0304)
 -->
<!-- Title: chi::connectData Pages: 1 -->
<!--zoomable 355 -->
<svg id="main" version="1.1" xmlns="http://www.w3.org/2000/svg" xmlns:xlink="http://www.w3.org/1999/xlink" xml:space="preserve" onload="init(evt)">
<style type="text/css"><![CDATA[
.edge:hover path { stroke: red; }
.edge:hover polygon { stroke: red; fill: red; }
]]></style>
<script type="text/javascript"><![CDATA[
var edges = document.getElementsByTagName('g');
if (edges && edges.length) {
  for (var i=0;i<edges.length;i++) {
    if (edges[i].id.substr(0,4)=='edge') {
      edges[i].setAttribute('class','edge');
    }
  }
}
]]></script>
        <defs>
                <circle id="rim" cx="0" cy="0" r="7"/>
                <circle id="rim2" cx="0" cy="0" r="3.5"/>
                <g id="zoomPlus">
                        <use xlink:href="#rim" fill="#404040">
                                <set attributeName="fill" to="#808080" begin="zoomplus.mouseover" end="zoomplus.mouseout"/>
                        </use>
                        <path d="M-4,0h8M0,-4v8" fill="none" stroke="white" stroke-width="1.5" pointer-events="none"/>
                </g>
                <g id="zoomMin">
                        <use xlink:href="#rim" fill="#404040">
                                <set attributeName="fill" to="#808080" begin="zoomminus.mouseover" end="zoomminus.mouseout"/>
                        </use>
                        <path d="M-4,0h8" fill="none" stroke="white" stroke-width="1.5" pointer-events="none"/>
                </g>
                <g id="dirArrow">
                        <path fill="none" stroke="white" stroke-width="1.5" d="M0,-3.0v7 M-2.5,-0.5L0,-3.0L2.5,-0.5"/>
                </g>
               <g id="resetDef">
                       <use xlink:href="#rim2" fill="#404040">
                               <set attributeName="fill" to="#808080" begin="reset.mouseover" end="reset.mouseout"/>
                       </use>
               </g>
        </defs>

<script type="text/javascript">
var viewWidth = 581;
var viewHeight = 355;
var sectionId = 'dynsection-2';
</script>
<script xlink:href="svgpan.js"/>
<svg id="graph" class="graph">
<g id="viewport">
<title>chi::connectData</title>
<polygon fill="#ffffff" stroke="transparent" points="-4,4 -4,-351 577,-351 577,4 -4,4"/>
<!-- Node47 -->
<g id="node1" class="node">
<title>Node47</title>
<polygon fill="#bfbfbf" stroke="#000000" points="0,-177.5 0,-196.5 90,-196.5 90,-177.5 0,-177.5"/>
<text text-anchor="middle" x="45" y="-184.5" font-family="Helvetica,sans-Serif" font-size="10.00" fill="#000000">chi::connectData</text>
</g>
<!-- Node48 -->
<g id="node2" class="node">
<title>Node48</title>
<g id="a_node2"><a xlink:href="structchi_1_1Result.html#a59ef40f4a327cbdea263d6e4b5af2ad8" target="_top" xlink:title="Add a entry to the result, either a warning or an error. ">
<polygon fill="#ffffff" stroke="#000000" points="284.5,-327.5 284.5,-346.5 392.5,-346.5 392.5,-327.5 284.5,-327.5"/>
<text text-anchor="middle" x="338.5" y="-334.5" font-family="Helvetica,sans-Serif" font-size="10.00" fill="#000000">chi::Result::addEntry</text>
</a>
</g>
</g>
<!-- Node47&#45;&gt;Node48 -->
<g id="edge1" class="edge">
<title>Node47&#45;&gt;Node48</title>
<path fill="none" stroke="#191970" d="M50.5819,-196.5436C62.1503,-215.4613 90.6378,-257.8022 126,-280 171.0195,-308.26 229.887,-322.6392 274.244,-329.878"/>
<polygon fill="#191970" stroke="#191970" points="273.9137,-333.3686 284.332,-331.4428 274.9867,-326.4513 273.9137,-333.3686"/>
</g>
<!-- Node49 -->
<g id="node3" class="node">
<title>Node49</title>
<g id="a_node3"><a xlink:href="structchi_1_1NodeType.html#a7d2edfc21ff54a1ff8ad98fffb969268" target="_top" xlink:title="Get the data inputs for the node. ">
<polygon fill="#ffffff" stroke="#000000" points="273,-289.5 273,-308.5 404,-308.5 404,-289.5 273,-289.5"/>
<text text-anchor="middle" x="338.5" y="-296.5" font-family="Helvetica,sans-Serif" font-size="10.00" fill="#000000">chi::NodeType::dataInputs</text>
</a>
</g>
</g>
<!-- Node47&#45;&gt;Node49 -->
<g id="edge2" class="edge">
<title>Node47&#45;&gt;Node49</title>
<path fill="none" stroke="#191970" d="M54.5207,-196.7198C68.7596,-210.6779 97.0395,-236.23 126,-250 168.9593,-270.426 220.9358,-282.6051 262.7308,-289.7122"/>
<polygon fill="#191970" stroke="#191970" points="262.4167,-293.2072 272.8508,-291.3685 263.5474,-286.2992 262.4167,-293.2072"/>
</g>
<!-- Node50 -->
<g id="node4" class="node">
<title>Node50</title>
<g id="a_node4"><a xlink:href="structchi_1_1NodeType.html#aade37588d98e93b19a9a47e16c850684" target="_top" xlink:title="Get the data outputs for the node. ">
<polygon fill="#ffffff" stroke="#000000" points="269,-251.5 269,-270.5 408,-270.5 408,-251.5 269,-251.5"/>
<text text-anchor="middle" x="338.5" y="-258.5" font-family="Helvetica,sans-Serif" font-size="10.00" fill="#000000">chi::NodeType::dataOutputs</text>
</a>
</g>
</g>
<!-- Node47&#45;&gt;Node50 -->
<g id="edge3" class="edge">
<title>Node47&#45;&gt;Node50</title>
<path fill="none" stroke="#191970" d="M61.8366,-196.5528C77.8544,-205.2362 102.8739,-217.7642 126,-225 168.9618,-238.4421 218.474,-247.2006 258.8921,-252.7089"/>
<polygon fill="#191970" stroke="#191970" points="258.5899,-256.1994 268.9624,-254.0402 259.5074,-249.2597 258.5899,-256.1994"/>
</g>
<!-- Node51 -->
<g id="node5" class="node">
<title>Node51</title>
<g id="a_node5"><a xlink:href="namespacechi.html#a4694f9910cf90fd7c202fe117c4f257e" target="_top" xlink:title="Disconnect a data connection. ">
<polygon fill="#ffffff" stroke="#000000" points="126,-196.5 126,-215.5 229,-215.5 229,-196.5 126,-196.5"/>
<text text-anchor="middle" x="177.5" y="-203.5" font-family="Helvetica,sans-Serif" font-size="10.00" fill="#000000">chi::disconnectData</text>
</a>
</g>
</g>
<!-- Node47&#45;&gt;Node51 -->
<g id="edge4" class="edge">
<title>Node47&#45;&gt;Node51</title>
<path fill="none" stroke="#191970" d="M90.2284,-193.4856C98.4188,-194.6601 107.0874,-195.9031 115.6572,-197.132"/>
<polygon fill="#191970" stroke="#191970" points="115.2419,-200.6081 125.6375,-198.5631 116.2356,-193.679 115.2419,-200.6081"/>
</g>
<!-- Node52 -->
<g id="node6" class="node">
<title>Node52</title>
<g id="a_node6"><a xlink:href="structchi_1_1NodeInstance.html#a8f64930fd9578431a11cad0702b4100c" target="_top" xlink:title="Get the containing GraphFunction. ">
<polygon fill="#ffffff" stroke="#000000" points="288,-153 288,-183 389,-183 389,-153 288,-153"/>
<text text-anchor="start" x="296" y="-171" font-family="Helvetica,sans-Serif" font-size="10.00" fill="#000000">chi::NodeInstance::</text>
<text text-anchor="middle" x="338.5" y="-160" font-family="Helvetica,sans-Serif" font-size="10.00" fill="#000000">function</text>
</a>
</g>
</g>
<!-- Node47&#45;&gt;Node52 -->
<g id="edge18" class="edge">
<title>Node47&#45;&gt;Node52</title>
<path fill="none" stroke="#191970" d="M90.2162,-184.0729C140.4734,-180.8194 221.893,-175.5487 277.7013,-171.9359"/>
<polygon fill="#191970" stroke="#191970" points="278.0576,-175.4202 287.8106,-171.2814 277.6053,-168.4348 278.0576,-175.4202"/>
</g>
<!-- Node53 -->
<g id="node7" class="node">
<title>Node53</title>
<g id="a_node7"><a xlink:href="structchi_1_1NodeInstance.html#a5d6678d5a90e6b1adb7dafb868b974b1" target="_top" xlink:title="Get the type of the instance. ">
<polygon fill="#ffffff" stroke="#000000" points="278.5,-114.5 278.5,-133.5 398.5,-133.5 398.5,-114.5 278.5,-114.5"/>
<text text-anchor="middle" x="338.5" y="-121.5" font-family="Helvetica,sans-Serif" font-size="10.00" fill="#000000">chi::NodeInstance::type</text>
</a>
</g>
</g>
<!-- Node47&#45;&gt;Node53 -->
<g id="edge21" class="edge">
<title>Node47&#45;&gt;Node53</title>
<path fill="none" stroke="#191970" d="M89.5763,-177.4317C141.6598,-166.2519 227.831,-147.7552 283.885,-135.7232"/>
<polygon fill="#191970" stroke="#191970" points="284.9432,-139.0758 293.986,-133.555 283.4741,-132.2317 284.9432,-139.0758"/>
</g>
<!-- Node54 -->
<g id="node8" class="node">
<title>Node54</title>
<g id="a_node8"><a xlink:href="structchi_1_1NodeType.html#a7031e3c04e9a0227b09f8f854ce8b7f9" target="_top" xlink:title="Get the qualified name of the node type, like module.name():name() ">
<polygon fill="#ffffff" stroke="#000000" points="265,-76.5 265,-95.5 412,-95.5 412,-76.5 265,-76.5"/>
<text text-anchor="middle" x="338.5" y="-83.5" font-family="Helvetica,sans-Serif" font-size="10.00" fill="#000000">chi::NodeType::qualifiedName</text>
</a>
</g>
</g>
<!-- Node47&#45;&gt;Node54 -->
<g id="edge19" class="edge">
<title>Node47&#45;&gt;Node54</title>
<path fill="none" stroke="#191970" d="M60.6519,-177.3886C76.6224,-167.8974 102.3507,-153.4674 126,-144 185.5675,-120.1536 203.0472,-121.6968 265,-105 273.5064,-102.7074 282.5817,-100.3167 291.3488,-98.0354"/>
<polygon fill="#191970" stroke="#191970" points="292.2667,-101.4132 301.0695,-95.5173 290.5113,-94.6369 292.2667,-101.4132"/>
</g>
<!-- Node59 -->
<g id="node13" class="node">
<title>Node59</title>
<g id="a_node13"><a xlink:href="structchi_1_1NodeType.html#ac99bef32e3e5e564119dbb8de69d2273" target="_top" xlink:title="Create the JSON necessary to store the object. ">
<polygon fill="#ffffff" stroke="#000000" points="278.5,-38.5 278.5,-57.5 398.5,-57.5 398.5,-38.5 278.5,-38.5"/>
<text text-anchor="middle" x="338.5" y="-45.5" font-family="Helvetica,sans-Serif" font-size="10.00" fill="#000000">chi::NodeType::toJSON</text>
</a>
</g>
</g>
<!-- Node47&#45;&gt;Node59 -->
<g id="edge20" class="edge">
<title>Node47&#45;&gt;Node59</title>
<path fill="none" stroke="#191970" d="M52.4476,-177.4912C65.5969,-161.3238 94.5285,-128.4418 126,-110 169.8345,-84.3136 225.0658,-68.6225 268.233,-59.4533"/>
<polygon fill="#191970" stroke="#191970" points="268.9991,-62.8691 278.0898,-57.4277 267.5899,-56.0124 268.9991,-62.8691"/>
</g>
<!-- Node51&#45;&gt;Node48 -->
<g id="edge6" class="edge">
<title>Node51&#45;&gt;Node48</title>
<path fill="none" stroke="#191970" d="M182.1374,-215.5224C193.2362,-237.2714 223.5219,-290.8083 265,-318 268.1621,-320.0729 271.5384,-321.9199 275.0413,-323.5655"/>
<polygon fill="#191970" stroke="#191970" points="273.969,-326.9087 284.5491,-327.468 276.6271,-320.4329 273.969,-326.9087"/>
</g>
<!-- Node51&#45;&gt;Node49 -->
<g id="edge17" class="edge">
<title>Node51&#45;&gt;Node49</title>
<path fill="none" stroke="#191970" d="M185.9419,-215.5036C200.4992,-231.2984 231.9572,-262.9031 265,-280 269.4939,-282.3252 274.2929,-284.3803 279.2045,-286.1941"/>
<polygon fill="#191970" stroke="#191970" points="278.1438,-289.5299 288.7377,-289.392 280.3701,-282.8933 278.1438,-289.5299"/>
</g>
<!-- Node51&#45;&gt;Node50 -->
<g id="edge8" class="edge">
<title>Node51&#45;&gt;Node50</title>
<path fill="none" stroke="#191970" d="M198.4104,-215.555C215.9478,-223.3367 241.7798,-234.2627 265,-242 272.2162,-244.4045 279.9141,-246.6905 287.5098,-248.7892"/>
<polygon fill="#191970" stroke="#191970" points="286.8222,-252.2283 297.3872,-251.4345 288.6331,-245.4666 286.8222,-252.2283"/>
</g>
<!-- Node51&#45;&gt;Node52 -->
<g id="edge5" class="edge">
<title>Node51&#45;&gt;Node52</title>
<path fill="none" stroke="#191970" d="M218.1271,-196.411C236.2168,-192.1414 257.9005,-187.0235 277.8495,-182.315"/>
<polygon fill="#191970" stroke="#191970" points="278.8579,-185.6733 287.7865,-179.9697 277.2499,-178.8605 278.8579,-185.6733"/>
</g>
<!-- Node51&#45;&gt;Node53 -->
<g id="edge7" class="edge">
<title>Node51&#45;&gt;Node53</title>
<path fill="none" stroke="#191970" d="M188.3069,-196.4083C204.0916,-182.8707 234.8633,-158.227 265,-144 271.0261,-141.1552 277.5277,-138.6554 284.084,-136.475"/>
<polygon fill="#191970" stroke="#191970" points="285.1613,-139.8055 293.68,-133.5061 283.0923,-133.1182 285.1613,-139.8055"/>
</g>
<!-- Node51&#45;&gt;Node54 -->
<g id="edge9" class="edge">
<title>Node51&#45;&gt;Node54</title>
<path fill="none" stroke="#191970" d="M183.1107,-196.2159C195.2792,-175.9096 226.1547,-129.0805 265,-105 268.4306,-102.8733 272.0923,-100.9836 275.8807,-99.3045"/>
<polygon fill="#191970" stroke="#191970" points="277.4565,-102.4466 285.499,-95.5496 274.9109,-95.9259 277.4565,-102.4466"/>
</g>
<!-- Node51&#45;&gt;Node59 -->
<g id="edge14" class="edge">
<title>Node51&#45;&gt;Node59</title>
<path fill="none" stroke="#191970" d="M180.6515,-196.4993C189.5451,-171.2115 217.3387,-101.8213 265,-67 267.6605,-65.0562 270.5024,-63.3109 273.4648,-61.7438"/>
<polygon fill="#191970" stroke="#191970" points="275.0044,-64.8885 282.6527,-57.5569 272.1016,-58.5187 275.0044,-64.8885"/>
</g>
<!-- Node61 -->
<g id="node15" class="node">
<title>Node61</title>
<g id="a_node15"><a xlink:href="structchi_1_1NodeInstance.html#a993d848a1b95077007e232d177f58308" target="_top" xlink:title="Get the ID as a string. ">
<polygon fill="#ffffff" stroke="#000000" points="288,-202 288,-232 389,-232 389,-202 288,-202"/>
<text text-anchor="start" x="296" y="-220" font-family="Helvetica,sans-Serif" font-size="10.00" fill="#000000">chi::NodeInstance::</text>
<text text-anchor="middle" x="338.5" y="-209" font-family="Helvetica,sans-Serif" font-size="10.00" fill="#000000">stringId</text>
</a>
</g>
</g>
<!-- Node51&#45;&gt;Node61 -->
<g id="edge16" class="edge">
<title>Node51&#45;&gt;Node61</title>
<path fill="none" stroke="#191970" d="M229.3276,-209.541C244.7106,-210.592 261.7005,-211.7528 277.6035,-212.8394"/>
<polygon fill="#191970" stroke="#191970" points="277.6539,-216.3509 287.8693,-213.5408 278.1312,-209.3672 277.6539,-216.3509"/>
</g>
<!-- Node55 -->
<g id="node9" class="node">
<title>Node55</title>
<g id="a_node9"><a xlink:href="structchi_1_1NodeType.html#a4fd551737d6b3bb4d6609f1ee8e054aa" target="_top" xlink:title="Get the ChiModule this NodeType belongs to. ">
<polygon fill="#ffffff" stroke="#000000" points="452,-38.5 452,-57.5 569,-57.5 569,-38.5 452,-38.5"/>
<text text-anchor="middle" x="510.5" y="-45.5" font-family="Helvetica,sans-Serif" font-size="10.00" fill="#000000">chi::NodeType::module</text>
</a>
</g>
</g>
<!-- Node54&#45;&gt;Node55 -->
<g id="edge10" class="edge">
<title>Node54&#45;&gt;Node55</title>
<path fill="none" stroke="#191970" d="M381.9029,-76.411C404.9068,-71.3287 433.3509,-65.0446 457.6342,-59.6797"/>
<polygon fill="#191970" stroke="#191970" points="458.3998,-63.095 467.4092,-57.5201 456.8896,-56.2598 458.3998,-63.095"/>
</g>
<!-- Node56 -->
<g id="node10" class="node">
<title>Node56</title>
<g id="a_node10"><a xlink:href="structchi_1_1ChiModule.html#a92ab6d528ac41a91b6ac21ededfccc38" target="_top" xlink:title="Get the full name of the module. ">
<polygon fill="#ffffff" stroke="#000000" points="448,-152.5 448,-171.5 573,-171.5 573,-152.5 448,-152.5"/>
<text text-anchor="middle" x="510.5" y="-159.5" font-family="Helvetica,sans-Serif" font-size="10.00" fill="#000000">chi::ChiModule::fullName</text>
</a>
</g>
</g>
<!-- Node54&#45;&gt;Node56 -->
<g id="edge11" class="edge">
<title>Node54&#45;&gt;Node56</title>
<path fill="none" stroke="#191970" d="M390.5733,-95.549C398.0408,-98.0194 405.4148,-101.1178 412,-105 432.041,-116.815 428.2125,-130.7653 448,-143 451.3761,-145.0875 454.9973,-146.9593 458.7335,-148.6354"/>
<polygon fill="#191970" stroke="#191970" points="457.5985,-151.9509 468.1834,-152.4101 460.1951,-145.4503 457.5985,-151.9509"/>
</g>
<!-- Node57 -->
<g id="node11" class="node">
<title>Node57</title>
<g id="a_node11"><a xlink:href="structchi_1_1NodeType.html#ad301375a4b84ddc699337e285ee78cc3" target="_top" xlink:title="Get the name of the NodeType in the ChiModule. ">
<polygon fill="#ffffff" stroke="#000000" points="455.5,-114.5 455.5,-133.5 565.5,-133.5 565.5,-114.5 455.5,-114.5"/>
<text text-anchor="middle" x="510.5" y="-121.5" font-family="Helvetica,sans-Serif" font-size="10.00" fill="#000000">chi::NodeType::name</text>
</a>
</g>
</g>
<!-- Node54&#45;&gt;Node57 -->
<g id="edge12" class="edge">
<title>Node54&#45;&gt;Node57</title>
<path fill="none" stroke="#191970" d="M381.9029,-95.589C404.9068,-100.6713 433.3509,-106.9554 457.6342,-112.3203"/>
<polygon fill="#191970" stroke="#191970" points="456.8896,-115.7402 467.4092,-114.4799 458.3998,-108.905 456.8896,-115.7402"/>
</g>
<!-- Node58 -->
<g id="node12" class="node">
<title>Node58</title>
<g id="a_node12"><a xlink:href="structchi_1_1NodeType.html#a6094ca464bc8672da707a277b59d1d89" target="_top" xlink:title="A virtual function that is called when this node needs to be called. ">
<polygon fill="#ffffff" stroke="#000000" points="449.5,-76.5 449.5,-95.5 571.5,-95.5 571.5,-76.5 449.5,-76.5"/>
<text text-anchor="middle" x="510.5" y="-83.5" font-family="Helvetica,sans-Serif" font-size="10.00" fill="#000000">chi::NodeType::codegen</text>
</a>
</g>
</g>
<!-- Node54&#45;&gt;Node58 -->
<g id="edge13" class="edge">
<title>Node54&#45;&gt;Node58</title>
<path fill="none" stroke="#191970" d="M412.4417,-86C421.2764,-86 430.2844,-86 439.0826,-86"/>
<polygon fill="#191970" stroke="#191970" points="439.2917,-89.5001 449.2916,-86 439.2916,-82.5001 439.2917,-89.5001"/>
</g>
<!-- Node60 -->
<g id="node14" class="node">
<title>Node60</title>
<g id="a_node14"><a xlink:href="structchi_1_1NodeType.html#a9de5373607ac5fb322665c487010ecf2" target="_top" xlink:title="Clones the type. ">
<polygon fill="#ffffff" stroke="#000000" points="456,-.5 456,-19.5 565,-19.5 565,-.5 456,-.5"/>
<text text-anchor="middle" x="510.5" y="-7.5" font-family="Helvetica,sans-Serif" font-size="10.00" fill="#000000">chi::NodeType::clone</text>
</a>
</g>
</g>
<!-- Node59&#45;&gt;Node60 -->
<g id="edge15" class="edge">
<title>Node59&#45;&gt;Node60</title>
<path fill="none" stroke="#191970" d="M381.9029,-38.411C404.9068,-33.3287 433.3509,-27.0446 457.6342,-21.6797"/>
<polygon fill="#191970" stroke="#191970" points="458.3998,-25.095 467.4092,-19.5201 456.8896,-18.2598 458.3998,-25.095"/>
</g>
</g>
</svg>
        <g id="navigator" transform="translate(0 0)" fill="#404254">
                <rect fill="#f2f5e9" fill-opacity="0.5" stroke="#606060" stroke-width=".5" x="0" y="0" width="60" height="60"/>
                <use id="zoomplus" xlink:href="#zoomPlus" x="17" y="9" onmousedown="handleZoom(evt,'in')"/>
                <use id="zoomminus" xlink:href="#zoomMin" x="42" y="9" onmousedown="handleZoom(evt,'out')"/>
                <use id="reset" xlink:href="#resetDef" x="30" y="36" onmousedown="handleReset()"/>
                <g id="arrowUp" xlink:href="#dirArrow" transform="translate(30 24)" onmousedown="handlePan(0,-1)">
                  <use xlink:href="#rim" fill="#404040">
                        <set attributeName="fill" to="#808080" begin="arrowUp.mouseover" end="arrowUp.mouseout"/>
                  </use>
                  <path fill="none" stroke="white" stroke-width="1.5" d="M0,-3.0v7 M-2.5,-0.5L0,-3.0L2.5,-0.5"/>
                </g>
                <g id="arrowRight" xlink:href="#dirArrow" transform="rotate(90) translate(36 -43)" onmousedown="handlePan(1,0)">
                  <use xlink:href="#rim" fill="#404040">
                        <set attributeName="fill" to="#808080" begin="arrowRight.mouseover" end="arrowRight.mouseout"/>
                  </use>
                  <path fill="none" stroke="white" stroke-width="1.5" d="M0,-3.0v7 M-2.5,-0.5L0,-3.0L2.5,-0.5"/>
                </g>
                <g id="arrowDown" xlink:href="#dirArrow" transform="rotate(180) translate(-30 -48)" onmousedown="handlePan(0,1)">
                  <use xlink:href="#rim" fill="#404040">
                        <set attributeName="fill" to="#808080" begin="arrowDown.mouseover" end="arrowDown.mouseout"/>
                  </use>
                  <path fill="none" stroke="white" stroke-width="1.5" d="M0,-3.0v7 M-2.5,-0.5L0,-3.0L2.5,-0.5"/>
                </g>
                <g id="arrowLeft" xlink:href="#dirArrow" transform="rotate(270) translate(-36 17)" onmousedown="handlePan(-1,0)">
                  <use xlink:href="#rim" fill="#404040">
                        <set attributeName="fill" to="#808080" begin="arrowLeft.mouseover" end="arrowLeft.mouseout"/>
                  </use>
                  <path fill="none" stroke="white" stroke-width="1.5" d="M0,-3.0v7 M-2.5,-0.5L0,-3.0L2.5,-0.5"/>
                </g>
        </g>
        <svg viewBox="0 0 15 15" width="100%" height="30px" preserveAspectRatio="xMaxYMin meet">
         <g id="arrow_out" transform="scale(0.3 0.3)">
          <a xlink:href="namespacechi_ab69b013712d615bf9901d7bf2b0b11fb_cgraph_org.svg" target="_base">
           <rect id="button" ry="5" rx="5" y="6" x="6" height="38" width="38"
                fill="#f2f5e9" fill-opacity="0.5" stroke="#606060" stroke-width="1.0"/>
           <path id="arrow"
             d="M 11.500037,31.436501 C 11.940474,20.09759 22.043105,11.32322 32.158766,21.979434 L 37.068811,17.246167 C 37.068811,17.246167 37.088388,32 37.088388,32 L 22.160133,31.978069 C 22.160133,31.978069 26.997745,27.140456 26.997745,27.140456 C 18.528582,18.264221 13.291696,25.230495 11.500037,31.436501 z"
             style="fill:#404040;"/>
          </a>
         </g>
        </svg>
</svg>
