<?xml version="1.0" encoding="UTF-8" standalone="no"?>
<!DOCTYPE svg PUBLIC "-//W3C//DTD SVG 1.1//EN"
 "http://www.w3.org/Graphics/SVG/1.1/DTD/svg11.dtd">
<!-- Generated by graphviz version 2.40.1 (20161225.0304)
 -->
<!-- Title: chi::connectExec Pages: 1 -->
<!--zoomable 282 -->
<svg id="main" version="1.1" xmlns="http://www.w3.org/2000/svg" xmlns:xlink="http://www.w3.org/1999/xlink" xml:space="preserve" onload="init(evt)">
<style type="text/css"><![CDATA[
.edge:hover path { stroke: red; }
.edge:hover polygon { stroke: red; fill: red; }
]]></style>
<script type="text/javascript"><![CDATA[
var edges = document.getElementsByTagName('g');
if (edges && edges.length) {
  for (var i=0;i<edges.length;i++) {
    if (edges[i].id.substr(0,4)=='edge') {
      edges[i].setAttribute('class','edge');
    }
  }
}
]]></script>
        <defs>
                <circle id="rim" cx="0" cy="0" r="7"/>
                <circle id="rim2" cx="0" cy="0" r="3.5"/>
                <g id="zoomPlus">
                        <use xlink:href="#rim" fill="#404040">
                                <set attributeName="fill" to="#808080" begin="zoomplus.mouseover" end="zoomplus.mouseout"/>
                        </use>
                        <path d="M-4,0h8M0,-4v8" fill="none" stroke="white" stroke-width="1.5" pointer-events="none"/>
                </g>
                <g id="zoomMin">
                        <use xlink:href="#rim" fill="#404040">
                                <set attributeName="fill" to="#808080" begin="zoomminus.mouseover" end="zoomminus.mouseout"/>
                        </use>
                        <path d="M-4,0h8" fill="none" stroke="white" stroke-width="1.5" pointer-events="none"/>
                </g>
                <g id="dirArrow">
                        <path fill="none" stroke="white" stroke-width="1.5" d="M0,-3.0v7 M-2.5,-0.5L0,-3.0L2.5,-0.5"/>
                </g>
               <g id="resetDef">
                       <use xlink:href="#rim2" fill="#404040">
                               <set attributeName="fill" to="#808080" begin="reset.mouseover" end="reset.mouseout"/>
                       </use>
               </g>
        </defs>

<script type="text/javascript">
var viewWidth = 2019;
var viewHeight = 282;
var sectionId = 'dynsection-6';
</script>
<script xlink:href="svgpan.js"/>
<svg id="graph" class="graph">
<g id="viewport">
<title>chi::connectExec</title>
<polygon fill="#ffffff" stroke="transparent" points="-4,4 -4,-278.2986 2015,-278.2986 2015,4 -4,4"/>
<!-- Node109 -->
<g id="node1" class="node">
<title>Node109</title>
<polygon fill="#bfbfbf" stroke="#000000" points="0,-81 0,-100 92,-100 92,-81 0,-81"/>
<text text-anchor="middle" x="46" y="-88" font-family="Helvetica,sans-Serif" font-size="10.00" fill="#000000">chi::connectExec</text>
</g>
<!-- Node110 -->
<g id="node2" class="node">
<title>Node110</title>
<g id="a_node2"><a xlink:href="namespacechi.html#a6a3fedb48e6702c016f996d8a7f445fc" target="_top" xlink:title="Load a GraphFunction–must already exist (use createGraphFunctionDeclarationFromJson) ...">
<polygon fill="#ffffff" stroke="#000000" points="609,-128 609,-147 737,-147 737,-128 609,-128"/>
<text text-anchor="middle" x="673" y="-135" font-family="Helvetica,sans-Serif" font-size="10.00" fill="#000000">chi::jsonToGraphFunction</text>
</a>
</g>
</g>
<!-- Node109&#45;&gt;Node110 -->
<g id="edge1" class="edge">
<title>Node109&#45;&gt;Node110</title>
<path fill="none" stroke="#191970" d="M63.8849,-106.9089C99.1814,-138.1211 181.6336,-205.347 265,-232.5 395.2145,-274.9118 447.1967,-295.612 573,-241.5 594.3713,-232.3075 592.902,-220.2955 609,-203.5 628.217,-183.4503 650.8773,-160.1653 663.4224,-147.3055"/>
<polygon fill="#191970" stroke="#191970" points="66.1114,-104.2044 56.329,-100.1357 61.4391,-109.4168 66.1114,-104.2044"/>
</g>
<!-- Node120 -->
<g id="node12" class="node">
<title>Node120</title>
<g id="a_node12"><a xlink:href="structchi_1_1NodeInstance.html#a72d113cfee45f4017adf28b034c6f215" target="_top" xlink:title="Get the containing GraphModule. ">
<polygon fill="#ffffff" stroke="#000000" points="128,-75.5 128,-105.5 229,-105.5 229,-75.5 128,-75.5"/>
<text text-anchor="start" x="136" y="-93.5" font-family="Helvetica,sans-Serif" font-size="10.00" fill="#000000">chi::NodeInstance::</text>
<text text-anchor="middle" x="178.5" y="-82.5" font-family="Helvetica,sans-Serif" font-size="10.00" fill="#000000">module</text>
</a>
</g>
</g>
<!-- Node109&#45;&gt;Node120 -->
<g id="edge11" class="edge">
<title>Node109&#45;&gt;Node120</title>
<path fill="none" stroke="#191970" d="M102.4913,-83.8155C110.9307,-83.7015 119.5861,-83.7363 127.8935,-83.9201"/>
<polygon fill="#191970" stroke="#191970" points="102.2664,-80.3194 92.3421,-84.0285 102.4133,-87.3178 102.2664,-80.3194"/>
</g>
<!-- Node111 -->
<g id="node3" class="node">
<title>Node111</title>
<g id="a_node3"><a xlink:href="namespacechi.html#a4489e333fecc4168278e94f8b3f81e3c" target="_top" xlink:title="Load a GraphModule from json. ">
<polygon fill="#ffffff" stroke="#000000" points="773,-128 773,-147 895,-147 895,-128 773,-128"/>
<text text-anchor="middle" x="834" y="-135" font-family="Helvetica,sans-Serif" font-size="10.00" fill="#000000">chi::jsonToGraphModule</text>
</a>
</g>
</g>
<!-- Node110&#45;&gt;Node111 -->
<g id="edge2" class="edge">
<title>Node110&#45;&gt;Node111</title>
<path fill="none" stroke="#191970" d="M747.1006,-137.5C755.683,-137.5 764.363,-137.5 772.7471,-137.5"/>
<polygon fill="#191970" stroke="#191970" points="747.0941,-134.0001 737.0941,-137.5 747.094,-141.0001 747.0941,-134.0001"/>
</g>
<!-- Node112 -->
<g id="node4" class="node">
<title>Node112</title>
<g id="a_node4"><a xlink:href="structchi_1_1Context.html#a2db103f3a2f77710dfa51489f63ec97f" target="_top" xlink:title="Load a module from JSON – avoid this use the string overload. ">
<polygon fill="#ffffff" stroke="#000000" points="931,-128 931,-147 1097,-147 1097,-128 931,-128"/>
<text text-anchor="middle" x="1014" y="-135" font-family="Helvetica,sans-Serif" font-size="10.00" fill="#000000">chi::Context::addModuleFromJson</text>
</a>
</g>
</g>
<!-- Node111&#45;&gt;Node112 -->
<g id="edge3" class="edge">
<title>Node111&#45;&gt;Node112</title>
<path fill="none" stroke="#191970" d="M905.3335,-137.5C913.7586,-137.5 922.412,-137.5 930.9806,-137.5"/>
<polygon fill="#191970" stroke="#191970" points="905.191,-134.0001 895.191,-137.5 905.1909,-141.0001 905.191,-134.0001"/>
</g>
<!-- Node113 -->
<g id="node5" class="node">
<title>Node113</title>
<g id="a_node5"><a xlink:href="structchi_1_1Context.html#a844bdec56838399cb4d7a5f7ea223834" target="_top" xlink:title="Load a module from disk, also loads dependencies. ">
<polygon fill="#ffffff" stroke="#000000" points="1135,-128 1135,-147 1260,-147 1260,-128 1135,-128"/>
<text text-anchor="middle" x="1197.5" y="-135" font-family="Helvetica,sans-Serif" font-size="10.00" fill="#000000">chi::Context::loadModule</text>
</a>
</g>
</g>
<!-- Node112&#45;&gt;Node113 -->
<g id="edge4" class="edge">
<title>Node112&#45;&gt;Node113</title>
<path fill="none" stroke="#191970" d="M1107.3139,-137.5C1116.6809,-137.5 1126.0262,-137.5 1134.9591,-137.5"/>
<polygon fill="#191970" stroke="#191970" points="1107.1597,-134.0001 1097.1596,-137.5 1107.1596,-141.0001 1107.1597,-134.0001"/>
</g>
<!-- Node114 -->
<g id="node6" class="node">
<title>Node114</title>
<g id="a_node6"><a xlink:href="structchi_1_1ChiModule.html#a61a5581c1a0a6467a24edde9eaaa60e0" target="_top" xlink:title="Add a dependency to the module Loads the module from context() if it isn&#39;t already loaded...">
<polygon fill="#ffffff" stroke="#000000" points="1298,-128 1298,-147 1455,-147 1455,-128 1298,-128"/>
<text text-anchor="middle" x="1376.5" y="-135" font-family="Helvetica,sans-Serif" font-size="10.00" fill="#000000">chi::ChiModule::addDependency</text>
</a>
</g>
</g>
<!-- Node113&#45;&gt;Node114 -->
<g id="edge5" class="edge">
<title>Node113&#45;&gt;Node114</title>
<path fill="none" stroke="#191970" d="M1270.2562,-137.5C1279.3556,-137.5 1288.6944,-137.5 1297.8781,-137.5"/>
<polygon fill="#191970" stroke="#191970" points="1270.1055,-134.0001 1260.1055,-137.5 1270.1055,-141.0001 1270.1055,-134.0001"/>
</g>
<!-- Node115 -->
<g id="node7" class="node">
<title>Node115</title>
<g id="a_node7"><a xlink:href="structchi_1_1ChiModule.html#a9c0d4b1b54bca0194ea4061ae4883779" target="_top" xlink:title="Get the dependencies. ">
<polygon fill="#ffffff" stroke="#000000" points="1496,-90 1496,-109 1643,-109 1643,-90 1496,-90"/>
<text text-anchor="middle" x="1569.5" y="-97" font-family="Helvetica,sans-Serif" font-size="10.00" fill="#000000">chi::ChiModule::dependencies</text>
</a>
</g>
</g>
<!-- Node114&#45;&gt;Node115 -->
<g id="edge6" class="edge">
<title>Node114&#45;&gt;Node115</title>
<path fill="none" stroke="#191970" d="M1435.1016,-125.9619C1462.6289,-120.542 1495.0476,-114.159 1521.1482,-109.0201"/>
<polygon fill="#191970" stroke="#191970" points="1434.3375,-122.545 1425.202,-127.911 1435.6898,-129.4132 1434.3375,-122.545"/>
</g>
<!-- Node119 -->
<g id="node11" class="node">
<title>Node119</title>
<g id="a_node11"><a xlink:href="structchi_1_1GraphModule.html#adeeeec5c69812ddeb43a64d3009a4eda" target="_top" xlink:title="Construct a GraphModule. ">
<polygon fill="#ffffff" stroke="#000000" points="1491,-128 1491,-147 1648,-147 1648,-128 1491,-128"/>
<text text-anchor="middle" x="1569.5" y="-135" font-family="Helvetica,sans-Serif" font-size="10.00" fill="#000000">chi::GraphModule::GraphModule</text>
</a>
</g>
</g>
<!-- Node114&#45;&gt;Node119 -->
<g id="edge10" class="edge">
<title>Node114&#45;&gt;Node119</title>
<path fill="none" stroke="#191970" d="M1465.0225,-137.5C1473.607,-137.5 1482.2762,-137.5 1490.7559,-137.5"/>
<polygon fill="#191970" stroke="#191970" points="1465.0005,-134.0001 1455.0005,-137.5 1465.0005,-141.0001 1465.0005,-134.0001"/>
</g>
<!-- Node116 -->
<g id="node8" class="node">
<title>Node116</title>
<g id="a_node8"><a xlink:href="structchi_1_1Context.html#ae21e68cd2d6ec6a8d6923fa330b36827" target="_top" xlink:title="Compile a module to a llvm::Module. ">
<polygon fill="#ffffff" stroke="#000000" points="1684,-90 1684,-109 1824,-109 1824,-90 1684,-90"/>
<text text-anchor="middle" x="1754" y="-97" font-family="Helvetica,sans-Serif" font-size="10.00" fill="#000000">chi::Context::compileModule</text>
</a>
</g>
</g>
<!-- Node115&#45;&gt;Node116 -->
<g id="edge7" class="edge">
<title>Node115&#45;&gt;Node116</title>
<path fill="none" stroke="#191970" d="M1653.3096,-99.5C1663.4689,-99.5 1673.7658,-99.5 1683.7021,-99.5"/>
<polygon fill="#191970" stroke="#191970" points="1653.2147,-96.0001 1643.2147,-99.5 1653.2147,-103.0001 1653.2147,-96.0001"/>
</g>
<!-- Node117 -->
<g id="node9" class="node">
<title>Node117</title>
<g id="a_node9"><a xlink:href="namespacechi.html#a9a4f3fa54c612f0c559a353bb7382d5a" target="_top" xlink:title="Serialize a JsonModule to json. ">
<polygon fill="#ffffff" stroke="#000000" points="1692.5,-52 1692.5,-71 1815.5,-71 1815.5,-52 1692.5,-52"/>
<text text-anchor="middle" x="1754" y="-59" font-family="Helvetica,sans-Serif" font-size="10.00" fill="#000000">chi::graphModuleToJson</text>
</a>
</g>
</g>
<!-- Node115&#45;&gt;Node117 -->
<g id="edge8" class="edge">
<title>Node115&#45;&gt;Node117</title>
<path fill="none" stroke="#191970" d="M1625.8672,-87.8905C1652.1074,-82.486 1682.936,-76.1365 1707.7776,-71.0201"/>
<polygon fill="#191970" stroke="#191970" points="1625.1455,-84.4656 1616.0571,-89.911 1626.5576,-91.3217 1625.1455,-84.4656"/>
</g>
<!-- Node118 -->
<g id="node10" class="node">
<title>Node118</title>
<g id="a_node10"><a xlink:href="structchi_1_1GraphModule.html#a5cd9fb1738336d5d382ebb50753bda3e" target="_top" xlink:title="Serialize to disk in the context. ">
<polygon fill="#ffffff" stroke="#000000" points="1860,-52 1860,-71 2011,-71 2011,-52 1860,-52"/>
<text text-anchor="middle" x="1935.5" y="-59" font-family="Helvetica,sans-Serif" font-size="10.00" fill="#000000">chi::GraphModule::saveToDisk</text>
</a>
</g>
</g>
<!-- Node117&#45;&gt;Node118 -->
<g id="edge9" class="edge">
<title>Node117&#45;&gt;Node118</title>
<path fill="none" stroke="#191970" d="M1825.8263,-61.5C1836.9968,-61.5 1848.5676,-61.5 1859.8204,-61.5"/>
<polygon fill="#191970" stroke="#191970" points="1825.7009,-58.0001 1815.7009,-61.5 1825.7008,-65.0001 1825.7009,-58.0001"/>
</g>
<!-- Node120&#45;&gt;Node109 -->
<g id="edge16" class="edge">
<title>Node120&#45;&gt;Node109</title>
<path fill="none" stroke="#191970" d="M117.6256,-97.2302C109.1285,-97.2929 100.5126,-97.2067 92.3421,-96.9715"/>
<polygon fill="#191970" stroke="#191970" points="117.9458,-100.726 127.8935,-97.0799 117.8433,-93.7267 117.9458,-100.726"/>
</g>
<!-- Node121 -->
<g id="node13" class="node">
<title>Node121</title>
<g id="a_node13"><a xlink:href="structchi_1_1NodeInstance.html#a5e8c1bd26bd3fbba3a0f7191e7c7f594" target="_top" xlink:title="Set the type of the node instance. ">
<polygon fill="#ffffff" stroke="#000000" points="451,-49.5 451,-79.5 552,-79.5 552,-49.5 451,-49.5"/>
<text text-anchor="start" x="459" y="-67.5" font-family="Helvetica,sans-Serif" font-size="10.00" fill="#000000">chi::NodeInstance::</text>
<text text-anchor="middle" x="501.5" y="-56.5" font-family="Helvetica,sans-Serif" font-size="10.00" fill="#000000">setType</text>
</a>
</g>
</g>
<!-- Node120&#45;&gt;Node121 -->
<g id="edge12" class="edge">
<title>Node120&#45;&gt;Node121</title>
<path fill="none" stroke="#191970" d="M239.6093,-85.581C300.7904,-80.6562 393.8275,-73.1671 450.9723,-68.5672"/>
<polygon fill="#191970" stroke="#191970" points="239.011,-82.1177 229.3241,-86.4089 239.5727,-89.0952 239.011,-82.1177"/>
</g>
<!-- Node122 -->
<g id="node14" class="node">
<title>Node122</title>
<g id="a_node14"><a xlink:href="namespacechi.html#ab69b013712d615bf9901d7bf2b0b11fb" target="_top" xlink:title="Connects two nodes&#39; data connections. ">
<polygon fill="#ffffff" stroke="#000000" points="456.5,-128 456.5,-147 546.5,-147 546.5,-128 456.5,-128"/>
<text text-anchor="middle" x="501.5" y="-135" font-family="Helvetica,sans-Serif" font-size="10.00" fill="#000000">chi::connectData</text>
</a>
</g>
</g>
<!-- Node120&#45;&gt;Node122 -->
<g id="edge13" class="edge">
<title>Node120&#45;&gt;Node122</title>
<path fill="none" stroke="#191970" d="M239.3337,-93.938C306.3852,-101.6221 411.942,-117.3206 466.4028,-127.9957"/>
<polygon fill="#191970" stroke="#191970" points="239.6509,-90.4518 229.3241,-92.8198 238.8736,-97.4085 239.6509,-90.4518"/>
</g>
<!-- Node123 -->
<g id="node15" class="node">
<title>Node123</title>
<g id="a_node15"><a xlink:href="namespacechi.html#a4694f9910cf90fd7c202fe117c4f257e" target="_top" xlink:title="Disconnect a data connection. ">
<polygon fill="#ffffff" stroke="#000000" points="278,-43 278,-62 381,-62 381,-43 278,-43"/>
<text text-anchor="middle" x="329.5" y="-50" font-family="Helvetica,sans-Serif" font-size="10.00" fill="#000000">chi::disconnectData</text>
</a>
</g>
</g>
<!-- Node120&#45;&gt;Node123 -->
<g id="edge17" class="edge">
<title>Node120&#45;&gt;Node123</title>
<path fill="none" stroke="#191970" d="M224.661,-72.6084C241.4847,-67.8023 260.6099,-62.9341 277.8776,-59.0505"/>
<polygon fill="#191970" stroke="#191970" points="223.6656,-69.2528 215.0529,-75.423 225.6336,-75.9705 223.6656,-69.2528"/>
</g>
<!-- Node129 -->
<g id="node21" class="node">
<title>Node129</title>
<g id="a_node21"><a xlink:href="namespacechi.html#a103b99abd766aa4d303a5004fe783c03" target="_top" xlink:title="Disconnect a exec connection. ">
<polygon fill="#ffffff" stroke="#000000" points="277,-5 277,-24 382,-24 382,-5 277,-5"/>
<text text-anchor="middle" x="329.5" y="-12" font-family="Helvetica,sans-Serif" font-size="10.00" fill="#000000">chi::disconnectExec</text>
</a>
</g>
</g>
<!-- Node120&#45;&gt;Node129 -->
<g id="edge27" class="edge">
<title>Node120&#45;&gt;Node129</title>
<path fill="none" stroke="#191970" d="M197.4151,-68.5353C214.3215,-53.9716 240.1862,-36.0173 265,-24.5 268.8119,-22.7307 272.8272,-21.0833 276.9134,-19.5835"/>
<polygon fill="#191970" stroke="#191970" points="194.9356,-66.059 189.8791,-75.3693 199.638,-71.2444 194.9356,-66.059"/>
</g>
<!-- Node130 -->
<g id="node22" class="node">
<title>Node130</title>
<g id="a_node22"><a xlink:href="classchi_1_1Debugger.html#a91a4d103d38bb2b1132ec7f83f4d77e2" target="_top" xlink:title="Set a breakpoint on a given node. ">
<polygon fill="#ffffff" stroke="#000000" points="430,-213 430,-232 573,-232 573,-213 430,-213"/>
<text text-anchor="middle" x="501.5" y="-220" font-family="Helvetica,sans-Serif" font-size="10.00" fill="#000000">chi::Debugger::setBreakpoint</text>
</a>
</g>
</g>
<!-- Node120&#45;&gt;Node130 -->
<g id="edge32" class="edge">
<title>Node120&#45;&gt;Node130</title>
<path fill="none" stroke="#191970" d="M189.5681,-115.0391C203.1373,-141.9169 228.8665,-183.8159 265,-203.5 315.2794,-230.8902 380.6823,-234.1379 429.9623,-231.3852"/>
<polygon fill="#191970" stroke="#191970" points="192.6395,-113.3515 185.1224,-105.8853 186.3428,-116.4096 192.6395,-113.3515"/>
</g>
<!-- Node132 -->
<g id="node24" class="node">
<title>Node132</title>
<g id="a_node24"><a xlink:href="namespacechi.html#a46ba4fa933baeba58beefc9e573b0668" target="_top" xlink:title="Get the mapped line number from a node. ">
<polygon fill="#ffffff" stroke="#000000" points="265,-175 265,-194 394,-194 394,-175 265,-175"/>
<text text-anchor="middle" x="329.5" y="-182" font-family="Helvetica,sans-Serif" font-size="10.00" fill="#000000">chi::lineNumberFromNode</text>
</a>
</g>
</g>
<!-- Node120&#45;&gt;Node132 -->
<g id="edge34" class="edge">
<title>Node120&#45;&gt;Node132</title>
<path fill="none" stroke="#191970" d="M201.4931,-112.5925C218.1028,-127.642 241.637,-147.1763 265,-160.5 275.1713,-166.3006 287.0073,-171.1772 297.743,-174.9872"/>
<polygon fill="#191970" stroke="#191970" points="203.6498,-109.8201 193.9266,-105.6116 198.9031,-114.965 203.6498,-109.8201"/>
</g>
<!-- Node122&#45;&gt;Node110 -->
<g id="edge14" class="edge">
<title>Node122&#45;&gt;Node110</title>
<path fill="none" stroke="#191970" d="M556.667,-137.5C573.3105,-137.5 591.7229,-137.5 608.8958,-137.5"/>
<polygon fill="#191970" stroke="#191970" points="556.5596,-134.0001 546.5596,-137.5 556.5596,-141.0001 556.5596,-134.0001"/>
</g>
<!-- Node122&#45;&gt;Node120 -->
<g id="edge15" class="edge">
<title>Node122&#45;&gt;Node120</title>
<path fill="none" stroke="#191970" d="M446.2559,-134.6938C385.4004,-127.9131 288.356,-113.7398 229.3241,-102.9711"/>
<polygon fill="#191970" stroke="#191970" points="446.1217,-138.1996 456.4399,-135.7943 446.8738,-131.2401 446.1217,-138.1996"/>
</g>
<!-- Node123&#45;&gt;Node120 -->
<g id="edge18" class="edge">
<title>Node123&#45;&gt;Node120</title>
<path fill="none" stroke="#191970" d="M300.544,-65.2347C280.3782,-71.6178 252.9484,-78.8432 229.2009,-84.1562"/>
<polygon fill="#191970" stroke="#191970" points="301.6905,-68.5421 310.0902,-62.0849 299.4971,-61.8946 301.6905,-68.5421"/>
</g>
<!-- Node123&#45;&gt;Node121 -->
<g id="edge25" class="edge">
<title>Node123&#45;&gt;Node121</title>
<path fill="none" stroke="#191970" d="M391.1472,-56.801C410.7149,-58.1662 432.1157,-59.6592 450.8192,-60.9641"/>
<polygon fill="#191970" stroke="#191970" points="391.325,-53.305 381.1057,-56.1004 390.8378,-60.288 391.325,-53.305"/>
</g>
<!-- Node123&#45;&gt;Node122 -->
<g id="edge26" class="edge">
<title>Node123&#45;&gt;Node122</title>
<path fill="none" stroke="#191970" d="M358.1448,-66.6558C393.2968,-84.0275 451.9436,-113.0099 482.1746,-127.9497"/>
<polygon fill="#191970" stroke="#191970" points="359.4119,-63.378 348.8962,-62.0854 356.3106,-69.6536 359.4119,-63.378"/>
</g>
<!-- Node124 -->
<g id="node16" class="node">
<title>Node124</title>
<g id="a_node16"><a xlink:href="structchi_1_1GraphFunction.html#a2248f5089ddc01a46b9ba4129925a44c" target="_top" xlink:title="Remove a node from the function. ">
<polygon fill="#ffffff" stroke="#000000" points="452,-.5 452,-30.5 551,-30.5 551,-.5 452,-.5"/>
<text text-anchor="start" x="460" y="-18.5" font-family="Helvetica,sans-Serif" font-size="10.00" fill="#000000">chi::GraphFunction</text>
<text text-anchor="middle" x="501.5" y="-7.5" font-family="Helvetica,sans-Serif" font-size="10.00" fill="#000000">::removeNode</text>
</a>
</g>
</g>
<!-- Node123&#45;&gt;Node124 -->
<g id="edge19" class="edge">
<title>Node123&#45;&gt;Node124</title>
<path fill="none" stroke="#191970" d="M383.5874,-40.8649C405.4467,-36.1626 430.5112,-30.7708 451.8947,-26.1709"/>
<polygon fill="#191970" stroke="#191970" points="382.8345,-37.4467 373.7943,-42.9716 384.3067,-44.2902 382.8345,-37.4467"/>
</g>
<!-- Node125 -->
<g id="node17" class="node">
<title>Node125</title>
<g id="a_node17"><a xlink:href="structchi_1_1GraphFunction.html#a900c0b670ad04a76b6add803ade7ae0d" target="_top" xlink:title="Get the nodes in the function Usually called by connectData or connectExec or GraphFunction. ">
<polygon fill="#ffffff" stroke="#000000" points="623.5,-.5 623.5,-30.5 722.5,-30.5 722.5,-.5 623.5,-.5"/>
<text text-anchor="start" x="631.5" y="-18.5" font-family="Helvetica,sans-Serif" font-size="10.00" fill="#000000">chi::GraphFunction</text>
<text text-anchor="middle" x="673" y="-7.5" font-family="Helvetica,sans-Serif" font-size="10.00" fill="#000000">::nodes</text>
</a>
</g>
</g>
<!-- Node124&#45;&gt;Node125 -->
<g id="edge20" class="edge">
<title>Node124&#45;&gt;Node125</title>
<path fill="none" stroke="#191970" d="M561.161,-15.5C581.4129,-15.5 603.8106,-15.5 623.2097,-15.5"/>
<polygon fill="#191970" stroke="#191970" points="561.1049,-12.0001 551.1049,-15.5 561.1049,-19.0001 561.1049,-12.0001"/>
</g>
<!-- Node126 -->
<g id="node18" class="node">
<title>Node126</title>
<g id="a_node18"><a xlink:href="structchi_1_1GraphFunction.html#a81f2a4203abba46ff8494a6a7e192094" target="_top" xlink:title="Remove a local variable from the function by name. ">
<polygon fill="#ffffff" stroke="#000000" points="777.5,-45.5 777.5,-75.5 890.5,-75.5 890.5,-45.5 777.5,-45.5"/>
<text text-anchor="start" x="785.5" y="-63.5" font-family="Helvetica,sans-Serif" font-size="10.00" fill="#000000">chi::GraphFunction</text>
<text text-anchor="middle" x="834" y="-52.5" font-family="Helvetica,sans-Serif" font-size="10.00" fill="#000000">::removeLocalVariable</text>
</a>
</g>
</g>
<!-- Node124&#45;&gt;Node126 -->
<g id="edge21" class="edge">
<title>Node124&#45;&gt;Node126</title>
<path fill="none" stroke="#191970" d="M561.0307,-30.1998C576.5699,-33.6488 593.3499,-37.0328 609,-39.5 665.9679,-48.4807 731.7003,-54.0719 777.3479,-57.2051"/>
<polygon fill="#191970" stroke="#191970" points="561.5489,-26.7285 551.0228,-27.9329 560.0025,-33.5556 561.5489,-26.7285"/>
</g>
<!-- Node127 -->
<g id="node19" class="node">
<title>Node127</title>
<g id="a_node19"><a xlink:href="structchi_1_1GraphFunction.html#a44f8f791775e4878b6bde37140cd131d" target="_top" xlink:title="Get the local variables. ">
<polygon fill="#ffffff" stroke="#000000" points="964.5,-46.5 964.5,-76.5 1063.5,-76.5 1063.5,-46.5 964.5,-46.5"/>
<text text-anchor="start" x="972.5" y="-64.5" font-family="Helvetica,sans-Serif" font-size="10.00" fill="#000000">chi::GraphFunction</text>
<text text-anchor="middle" x="1014" y="-53.5" font-family="Helvetica,sans-Serif" font-size="10.00" fill="#000000">::localVariables</text>
</a>
</g>
</g>
<!-- Node126&#45;&gt;Node127 -->
<g id="edge22" class="edge">
<title>Node126&#45;&gt;Node127</title>
<path fill="none" stroke="#191970" d="M901.0903,-60.8727C922.0761,-60.9893 944.8421,-61.1158 964.3974,-61.2244"/>
<polygon fill="#191970" stroke="#191970" points="900.9724,-57.3721 890.9531,-60.8164 900.9335,-64.372 900.9724,-57.3721"/>
</g>
<!-- Node128 -->
<g id="node20" class="node">
<title>Node128</title>
<g id="a_node20"><a xlink:href="namespacechi.html#afd8b8d8a207d88359ad1e6a48d8f3bb1" target="_top" xlink:title="Serialize a GraphFunction to json. ">
<polygon fill="#ffffff" stroke="#000000" points="1133,-52 1133,-71 1262,-71 1262,-52 1133,-52"/>
<text text-anchor="middle" x="1197.5" y="-59" font-family="Helvetica,sans-Serif" font-size="10.00" fill="#000000">chi::graphFunctionToJson</text>
</a>
</g>
</g>
<!-- Node127&#45;&gt;Node128 -->
<g id="edge23" class="edge">
<title>Node127&#45;&gt;Node128</title>
<path fill="none" stroke="#191970" d="M1073.918,-61.5C1092.8106,-61.5 1113.7587,-61.5 1132.959,-61.5"/>
<polygon fill="#191970" stroke="#191970" points="1073.6578,-58.0001 1063.6577,-61.5 1073.6577,-65.0001 1073.6578,-58.0001"/>
</g>
<!-- Node128&#45;&gt;Node117 -->
<g id="edge24" class="edge">
<title>Node128&#45;&gt;Node117</title>
<path fill="none" stroke="#191970" d="M1272.2641,-61.5C1383.2559,-61.5 1589.5468,-61.5 1692.3914,-61.5"/>
<polygon fill="#191970" stroke="#191970" points="1272.1538,-58.0001 1262.1538,-61.5 1272.1537,-65.0001 1272.1538,-58.0001"/>
</g>
<!-- Node129&#45;&gt;Node109 -->
<g id="edge31" class="edge">
<title>Node129&#45;&gt;Node109</title>
<path fill="none" stroke="#191970" d="M279.8665,-26.3583C238.9735,-36.297 179.5401,-51.1298 128,-65.5 110.7965,-70.2966 91.7037,-76.0896 76.2729,-80.8908"/>
<polygon fill="#191970" stroke="#191970" points="280.6941,-29.7591 289.5887,-24.0027 279.0457,-22.9559 280.6941,-29.7591"/>
</g>
<!-- Node129&#45;&gt;Node120 -->
<g id="edge28" class="edge">
<title>Node129&#45;&gt;Node120</title>
<path fill="none" stroke="#191970" d="M306.2776,-27.5393C293.728,-31.7411 278.1531,-36.395 265,-42.5 245.2611,-51.6618 224.8572,-64.8969 208.8267,-75.3576"/>
<polygon fill="#191970" stroke="#191970" points="307.734,-30.7365 315.9882,-24.0942 305.3934,-24.1393 307.734,-30.7365"/>
</g>
<!-- Node129&#45;&gt;Node121 -->
<g id="edge30" class="edge">
<title>Node129&#45;&gt;Node121</title>
<path fill="none" stroke="#191970" d="M372.0843,-26.8791C395.9535,-33.8179 425.8712,-42.5149 450.927,-49.7985"/>
<polygon fill="#191970" stroke="#191970" points="372.8363,-23.4529 362.2567,-24.0223 370.8822,-30.1747 372.8363,-23.4529"/>
</g>
<!-- Node129&#45;&gt;Node124 -->
<g id="edge29" class="edge">
<title>Node129&#45;&gt;Node124</title>
<path fill="none" stroke="#191970" d="M392.1482,-14.8642C411.8315,-14.9787 433.2807,-15.1034 451.9272,-15.2118"/>
<polygon fill="#191970" stroke="#191970" points="392.0605,-11.3638 382.0403,-14.8055 392.0197,-18.3636 392.0605,-11.3638"/>
</g>
<!-- Node131 -->
<g id="node23" class="node">
<title>Node131</title>
<g id="a_node23"><a xlink:href="classchi_1_1Debugger.html#a50f4de4ab6a18afa2eb82f5a5f43b06a" target="_top" xlink:title="Check if the process is executing. ">
<polygon fill="#ffffff" stroke="#000000" points="616,-213 616,-232 730,-232 730,-213 616,-213"/>
<text text-anchor="middle" x="673" y="-220" font-family="Helvetica,sans-Serif" font-size="10.00" fill="#000000">chi::Debugger::running</text>
</a>
</g>
</g>
<!-- Node130&#45;&gt;Node131 -->
<g id="edge33" class="edge">
<title>Node130&#45;&gt;Node131</title>
<path fill="none" stroke="#191970" d="M583.3075,-222.5C594.3216,-222.5 605.4227,-222.5 615.8818,-222.5"/>
<polygon fill="#191970" stroke="#191970" points="583.2378,-219.0001 573.2377,-222.5 583.2377,-226.0001 583.2378,-219.0001"/>
</g>
<!-- Node132&#45;&gt;Node130 -->
<g id="edge36" class="edge">
<title>Node132&#45;&gt;Node130</title>
<path fill="none" stroke="#191970" d="M382.6959,-196.2526C407.0166,-201.6258 435.4547,-207.9086 458.4092,-212.9799"/>
<polygon fill="#191970" stroke="#191970" points="383.4225,-192.8288 372.9029,-194.089 381.9123,-199.664 383.4225,-192.8288"/>
</g>
<!-- Node133 -->
<g id="node25" class="node">
<title>Node133</title>
<g id="a_node25"><a xlink:href="classchi_1_1Debugger.html#a4bd2c4dcced3e704b6a4d71b7c2d53d4" target="_top" xlink:title="Get the debugger This should probably be valid...not sure why it wouldn&#39;t be. ">
<polygon fill="#ffffff" stroke="#000000" points="432,-175 432,-194 571,-194 571,-175 432,-175"/>
<text text-anchor="middle" x="501.5" y="-182" font-family="Helvetica,sans-Serif" font-size="10.00" fill="#000000">chi::Debugger::lldbDebugger</text>
</a>
</g>
</g>
<!-- Node132&#45;&gt;Node133 -->
<g id="edge35" class="edge">
<title>Node132&#45;&gt;Node133</title>
<path fill="none" stroke="#191970" d="M404.3207,-184.5C413.5158,-184.5 422.8843,-184.5 431.9961,-184.5"/>
<polygon fill="#191970" stroke="#191970" points="404.0358,-181.0001 394.0358,-184.5 404.0358,-188.0001 404.0358,-181.0001"/>
</g>
</g>
</svg>
        <g id="navigator" transform="translate(0 0)" fill="#404254">
                <rect fill="#f2f5e9" fill-opacity="0.5" stroke="#606060" stroke-width=".5" x="0" y="0" width="60" height="60"/>
                <use id="zoomplus" xlink:href="#zoomPlus" x="17" y="9" onmousedown="handleZoom(evt,'in')"/>
                <use id="zoomminus" xlink:href="#zoomMin" x="42" y="9" onmousedown="handleZoom(evt,'out')"/>
                <use id="reset" xlink:href="#resetDef" x="30" y="36" onmousedown="handleReset()"/>
                <g id="arrowUp" xlink:href="#dirArrow" transform="translate(30 24)" onmousedown="handlePan(0,-1)">
                  <use xlink:href="#rim" fill="#404040">
                        <set attributeName="fill" to="#808080" begin="arrowUp.mouseover" end="arrowUp.mouseout"/>
                  </use>
                  <path fill="none" stroke="white" stroke-width="1.5" d="M0,-3.0v7 M-2.5,-0.5L0,-3.0L2.5,-0.5"/>
                </g>
                <g id="arrowRight" xlink:href="#dirArrow" transform="rotate(90) translate(36 -43)" onmousedown="handlePan(1,0)">
                  <use xlink:href="#rim" fill="#404040">
                        <set attributeName="fill" to="#808080" begin="arrowRight.mouseover" end="arrowRight.mouseout"/>
                  </use>
                  <path fill="none" stroke="white" stroke-width="1.5" d="M0,-3.0v7 M-2.5,-0.5L0,-3.0L2.5,-0.5"/>
                </g>
                <g id="arrowDown" xlink:href="#dirArrow" transform="rotate(180) translate(-30 -48)" onmousedown="handlePan(0,1)">
                  <use xlink:href="#rim" fill="#404040">
                        <set attributeName="fill" to="#808080" begin="arrowDown.mouseover" end="arrowDown.mouseout"/>
                  </use>
                  <path fill="none" stroke="white" stroke-width="1.5" d="M0,-3.0v7 M-2.5,-0.5L0,-3.0L2.5,-0.5"/>
                </g>
                <g id="arrowLeft" xlink:href="#dirArrow" transform="rotate(270) translate(-36 17)" onmousedown="handlePan(-1,0)">
                  <use xlink:href="#rim" fill="#404040">
                        <set attributeName="fill" to="#808080" begin="arrowLeft.mouseover" end="arrowLeft.mouseout"/>
                  </use>
                  <path fill="none" stroke="white" stroke-width="1.5" d="M0,-3.0v7 M-2.5,-0.5L0,-3.0L2.5,-0.5"/>
                </g>
        </g>
        <svg viewBox="0 0 15 15" width="100%" height="30px" preserveAspectRatio="xMaxYMin meet">
         <g id="arrow_out" transform="scale(0.3 0.3)">
          <a xlink:href="namespacechi_a79423caa23a58e57b775c5137a03ee31_icgraph_org.svg" target="_base">
           <rect id="button" ry="5" rx="5" y="6" x="6" height="38" width="38"
                fill="#f2f5e9" fill-opacity="0.5" stroke="#606060" stroke-width="1.0"/>
           <path id="arrow"
             d="M 11.500037,31.436501 C 11.940474,20.09759 22.043105,11.32322 32.158766,21.979434 L 37.068811,17.246167 C 37.068811,17.246167 37.088388,32 37.088388,32 L 22.160133,31.978069 C 22.160133,31.978069 26.997745,27.140456 26.997745,27.140456 C 18.528582,18.264221 13.291696,25.230495 11.500037,31.436501 z"
             style="fill:#404040;"/>
          </a>
         </g>
        </svg>
</svg>
