<?xml version="1.0" encoding="UTF-8" standalone="no"?>
<!DOCTYPE svg PUBLIC "-//W3C//DTD SVG 1.1//EN"
 "http://www.w3.org/Graphics/SVG/1.1/DTD/svg11.dtd">
<!-- Generated by graphviz version 2.40.1 (20161225.0304)
 -->
<!-- Title: chig::validateFunctionConnectionsAreTwoWay Pages: 1 -->
<!--zoomable 215 -->
<svg id="main" version="1.1" xmlns="http://www.w3.org/2000/svg" xmlns:xlink="http://www.w3.org/1999/xlink" xml:space="preserve" onload="init(evt)">
<style type="text/css"><![CDATA[
.edge:hover path { stroke: red; }
.edge:hover polygon { stroke: red; fill: red; }
]]></style>
<script type="text/javascript"><![CDATA[
var edges = document.getElementsByTagName('g');
if (edges && edges.length) {
  for (var i=0;i<edges.length;i++) {
    if (edges[i].id.substr(0,4)=='edge') {
      edges[i].setAttribute('class','edge');
    }
  }
}
]]></script>
        <defs>
                <circle id="rim" cx="0" cy="0" r="7"/>
                <circle id="rim2" cx="0" cy="0" r="3.5"/>
                <g id="zoomPlus">
                        <use xlink:href="#rim" fill="#404040">
                                <set attributeName="fill" to="#808080" begin="zoomplus.mouseover" end="zoomplus.mouseout"/>
                        </use>
                        <path d="M-4,0h8M0,-4v8" fill="none" stroke="white" stroke-width="1.5" pointer-events="none"/>
                </g>
                <g id="zoomMin">
                        <use xlink:href="#rim" fill="#404040">
                                <set attributeName="fill" to="#808080" begin="zoomminus.mouseover" end="zoomminus.mouseout"/>
                        </use>
                        <path d="M-4,0h8" fill="none" stroke="white" stroke-width="1.5" pointer-events="none"/>
                </g>
                <g id="dirArrow">
                        <path fill="none" stroke="white" stroke-width="1.5" d="M0,-3.0v7 M-2.5,-0.5L0,-3.0L2.5,-0.5"/>
                </g>
               <g id="resetDef">
                       <use xlink:href="#rim2" fill="#404040">
                               <set attributeName="fill" to="#808080" begin="reset.mouseover" end="reset.mouseout"/>
                       </use>
               </g>
        </defs>

<script type="text/javascript">
var viewWidth = 534;
var viewHeight = 215;
var sectionId = 'dynsection-36';
</script>
<script xlink:href="svgpan.js"/>
<svg id="graph" class="graph">
<g id="viewport">
<title>chig::validateFunctionConnectionsAreTwoWay</title>
<polygon fill="#ffffff" stroke="transparent" points="-4,4 -4,-210.5 530,-210.5 530,4 -4,4"/>
<!-- Node584 -->
<g id="node1" class="node">
<title>Node584</title>
<polygon fill="#bfbfbf" stroke="#000000" points="0,-93.5 0,-123.5 166,-123.5 166,-93.5 0,-93.5"/>
<text text-anchor="start" x="8" y="-111.5" font-family="Helvetica,sans-Serif" font-size="10.00" fill="#000000">chig::validateFunctionConnections</text>
<text text-anchor="middle" x="83" y="-100.5" font-family="Helvetica,sans-Serif" font-size="10.00" fill="#000000">AreTwoWay</text>
</g>
<!-- Node585 -->
<g id="node2" class="node">
<title>Node585</title>
<g id="a_node2"><a xlink:href="structchig_1_1Result.html#aabb30a56760c3a817518912d9eabb491" target="_top" xlink:title="Add a entry to the result, either a warning or an error. ">
<polygon fill="#ffffff" stroke="#000000" points="221.5,-187 221.5,-206 334.5,-206 334.5,-187 221.5,-187"/>
<text text-anchor="middle" x="278" y="-194" font-family="Helvetica,sans-Serif" font-size="10.00" fill="#000000">chig::Result::addEntry</text>
</a>
</g>
</g>
<!-- Node584&#45;&gt;Node585 -->
<g id="edge1" class="edge">
<title>Node584&#45;&gt;Node585</title>
<path fill="none" stroke="#191970" d="M104.8488,-123.6971C128.0169,-139.1929 166.1472,-162.9625 202,-177.5 208.1818,-180.0066 214.7845,-182.2501 221.42,-184.2394"/>
<polygon fill="#191970" stroke="#191970" points="220.5455,-187.6292 231.12,-186.973 222.4443,-180.8916 220.5455,-187.6292"/>
</g>
<!-- Node586 -->
<g id="node3" class="node">
<title>Node586</title>
<g id="a_node3"><a xlink:href="structchig_1_1GraphFunction.html#a7460b1b14cbf073f576968e1a1ed1cd5" target="_top" xlink:title="Get the nodes in the function Usually called by connectData or connectExec or GraphFunction. ">
<polygon fill="#ffffff" stroke="#000000" points="226,-137.5 226,-167.5 330,-167.5 330,-137.5 226,-137.5"/>
<text text-anchor="start" x="234" y="-155.5" font-family="Helvetica,sans-Serif" font-size="10.00" fill="#000000">chig::GraphFunction</text>
<text text-anchor="middle" x="278" y="-144.5" font-family="Helvetica,sans-Serif" font-size="10.00" fill="#000000">::nodes</text>
</a>
</g>
</g>
<!-- Node584&#45;&gt;Node586 -->
<g id="edge2" class="edge">
<title>Node584&#45;&gt;Node586</title>
<path fill="none" stroke="#191970" d="M149.5625,-123.5192C171.0885,-128.3764 194.8589,-133.74 216.0377,-138.5188"/>
<polygon fill="#191970" stroke="#191970" points="215.3605,-141.9539 225.8857,-140.7409 216.9014,-135.1256 215.3605,-141.9539"/>
</g>
<!-- Node587 -->
<g id="node4" class="node">
<title>Node587</title>
<g id="a_node4"><a xlink:href="structchig_1_1NodeType.html#aec01c9c30813ec9f0e15dda0f7ae34f3" target="_top" xlink:title="Get the qualified name of the node type, like module.name():name() ">
<polygon fill="#ffffff" stroke="#000000" points="202,-99 202,-118 354,-118 354,-99 202,-99"/>
<text text-anchor="middle" x="278" y="-106" font-family="Helvetica,sans-Serif" font-size="10.00" fill="#000000">chig::NodeType::qualifiedName</text>
</a>
</g>
</g>
<!-- Node584&#45;&gt;Node587 -->
<g id="edge3" class="edge">
<title>Node584&#45;&gt;Node587</title>
<path fill="none" stroke="#191970" d="M166.2632,-108.5C174.6529,-108.5 183.1863,-108.5 191.6077,-108.5"/>
<polygon fill="#191970" stroke="#191970" points="191.8073,-112.0001 201.8072,-108.5 191.8072,-105.0001 191.8073,-112.0001"/>
</g>
<!-- Node592 -->
<g id="node9" class="node">
<title>Node592</title>
<g id="a_node9"><a xlink:href="structchig_1_1NodeInstance.html#afacc72392d31c168d5a769f13d0fa3ec" target="_top" xlink:title="Get the ID as a string. ">
<polygon fill="#ffffff" stroke="#000000" points="227.5,-49.5 227.5,-79.5 328.5,-79.5 328.5,-49.5 227.5,-49.5"/>
<text text-anchor="start" x="235.5" y="-67.5" font-family="Helvetica,sans-Serif" font-size="10.00" fill="#000000">chig::NodeInstance</text>
<text text-anchor="middle" x="278" y="-56.5" font-family="Helvetica,sans-Serif" font-size="10.00" fill="#000000">::stringId</text>
</a>
</g>
</g>
<!-- Node584&#45;&gt;Node592 -->
<g id="edge8" class="edge">
<title>Node584&#45;&gt;Node592</title>
<path fill="none" stroke="#191970" d="M149.5625,-93.4808C171.5647,-88.5162 195.9118,-83.0225 217.4395,-78.1649"/>
<polygon fill="#191970" stroke="#191970" points="218.4505,-81.5249 227.4349,-75.9096 216.9097,-74.6966 218.4505,-81.5249"/>
</g>
<!-- Node593 -->
<g id="node10" class="node">
<title>Node593</title>
<g id="a_node10"><a xlink:href="structchig_1_1NodeInstance.html#a5c9d6934e14f56ff4317ff08e170e83a" target="_top" xlink:title="Get the type of the instance. ">
<polygon fill="#ffffff" stroke="#000000" points="227.5,-.5 227.5,-30.5 328.5,-30.5 328.5,-.5 227.5,-.5"/>
<text text-anchor="start" x="235.5" y="-18.5" font-family="Helvetica,sans-Serif" font-size="10.00" fill="#000000">chig::NodeInstance</text>
<text text-anchor="middle" x="278" y="-7.5" font-family="Helvetica,sans-Serif" font-size="10.00" fill="#000000">::type</text>
</a>
</g>
</g>
<!-- Node584&#45;&gt;Node593 -->
<g id="edge9" class="edge">
<title>Node584&#45;&gt;Node593</title>
<path fill="none" stroke="#191970" d="M105.4681,-93.4604C128.8262,-78.3142 166.8249,-55.0258 202,-39.5 206.9843,-37.3 212.2332,-35.209 217.5475,-33.2455"/>
<polygon fill="#191970" stroke="#191970" points="218.88,-36.4868 227.1408,-29.8529 216.5461,-29.8873 218.88,-36.4868"/>
</g>
<!-- Node588 -->
<g id="node5" class="node">
<title>Node588</title>
<g id="a_node5"><a xlink:href="structchig_1_1NodeType.html#ad18d6f37b20e92bcd580bcf7c7504e64" target="_top" xlink:title="Get the ChigModule this NodeType belongs to. ">
<polygon fill="#ffffff" stroke="#000000" points="397,-156 397,-175 519,-175 519,-156 397,-156"/>
<text text-anchor="middle" x="458" y="-163" font-family="Helvetica,sans-Serif" font-size="10.00" fill="#000000">chig::NodeType::module</text>
</a>
</g>
</g>
<!-- Node587&#45;&gt;Node588 -->
<g id="edge4" class="edge">
<title>Node587&#45;&gt;Node588</title>
<path fill="none" stroke="#191970" d="M320.696,-118.0837C331.6894,-120.999 343.4036,-124.5056 354,-128.5 370.7388,-134.8098 373.3095,-140.0637 390,-146.5 396.0043,-148.8154 402.4058,-150.9803 408.7891,-152.9589"/>
<polygon fill="#191970" stroke="#191970" points="408.1628,-156.4237 418.7451,-155.9097 410.152,-149.7123 408.1628,-156.4237"/>
</g>
<!-- Node589 -->
<g id="node6" class="node">
<title>Node589</title>
<g id="a_node6"><a xlink:href="structchig_1_1ChigModule.html#ad730121a133fbc474fcb71d49f31f7b3" target="_top" xlink:title="Get the full name of the module. ">
<polygon fill="#ffffff" stroke="#000000" points="390,-118 390,-137 526,-137 526,-118 390,-118"/>
<text text-anchor="middle" x="458" y="-125" font-family="Helvetica,sans-Serif" font-size="10.00" fill="#000000">chig::ChigModule::fullName</text>
</a>
</g>
</g>
<!-- Node587&#45;&gt;Node589 -->
<g id="edge5" class="edge">
<title>Node587&#45;&gt;Node589</title>
<path fill="none" stroke="#191970" d="M354.0753,-116.5302C362.6268,-117.4328 371.3502,-118.3536 379.9265,-119.2589"/>
<polygon fill="#191970" stroke="#191970" points="379.5954,-122.7433 389.9076,-120.3125 380.3303,-115.782 379.5954,-122.7433"/>
</g>
<!-- Node590 -->
<g id="node7" class="node">
<title>Node590</title>
<g id="a_node7"><a xlink:href="structchig_1_1NodeType.html#aeba0c62eaae2a477171d83a65c877f53" target="_top" xlink:title="Get the name of the NodeType in the ChigModule. ">
<polygon fill="#ffffff" stroke="#000000" points="400.5,-80 400.5,-99 515.5,-99 515.5,-80 400.5,-80"/>
<text text-anchor="middle" x="458" y="-87" font-family="Helvetica,sans-Serif" font-size="10.00" fill="#000000">chig::NodeType::name</text>
</a>
</g>
</g>
<!-- Node587&#45;&gt;Node590 -->
<g id="edge6" class="edge">
<title>Node587&#45;&gt;Node590</title>
<path fill="none" stroke="#191970" d="M354.0753,-100.4698C366.0975,-99.2008 378.4593,-97.896 390.2747,-96.6488"/>
<polygon fill="#191970" stroke="#191970" points="390.9176,-100.1005 400.4949,-95.57 390.1827,-93.1391 390.9176,-100.1005"/>
</g>
<!-- Node591 -->
<g id="node8" class="node">
<title>Node591</title>
<g id="a_node8"><a xlink:href="structchig_1_1NodeType.html#a07fe116ce84fbf50afd292e82203aedf" target="_top" xlink:title="A virtual function that is called when this node needs to be called. ">
<polygon fill="#ffffff" stroke="#000000" points="394,-42 394,-61 522,-61 522,-42 394,-42"/>
<text text-anchor="middle" x="458" y="-49" font-family="Helvetica,sans-Serif" font-size="10.00" fill="#000000">chig::NodeType::codegen</text>
</a>
</g>
</g>
<!-- Node587&#45;&gt;Node591 -->
<g id="edge7" class="edge">
<title>Node587&#45;&gt;Node591</title>
<path fill="none" stroke="#191970" d="M320.696,-98.9163C331.6894,-96.001 343.4036,-92.4944 354,-88.5 370.7388,-82.1902 373.3095,-76.9363 390,-70.5 396.0043,-68.1846 402.4058,-66.0197 408.7891,-64.0411"/>
<polygon fill="#191970" stroke="#191970" points="410.152,-67.2877 418.7451,-61.0903 408.1628,-60.5763 410.152,-67.2877"/>
</g>
</g>
</svg>
        <g id="navigator" transform="translate(0 0)" fill="#404254">
                <rect fill="#f2f5e9" fill-opacity="0.5" stroke="#606060" stroke-width=".5" x="0" y="0" width="60" height="60"/>
                <use id="zoomplus" xlink:href="#zoomPlus" x="17" y="9" onmousedown="handleZoom(evt,'in')"/>
                <use id="zoomminus" xlink:href="#zoomMin" x="42" y="9" onmousedown="handleZoom(evt,'out')"/>
                <use id="reset" xlink:href="#resetDef" x="30" y="36" onmousedown="handleReset()"/>
                <g id="arrowUp" xlink:href="#dirArrow" transform="translate(30 24)" onmousedown="handlePan(0,-1)">
                  <use xlink:href="#rim" fill="#404040">
                        <set attributeName="fill" to="#808080" begin="arrowUp.mouseover" end="arrowUp.mouseout"/>
                  </use>
                  <path fill="none" stroke="white" stroke-width="1.5" d="M0,-3.0v7 M-2.5,-0.5L0,-3.0L2.5,-0.5"/>
                </g>
                <g id="arrowRight" xlink:href="#dirArrow" transform="rotate(90) translate(36 -43)" onmousedown="handlePan(1,0)">
                  <use xlink:href="#rim" fill="#404040">
                        <set attributeName="fill" to="#808080" begin="arrowRight.mouseover" end="arrowRight.mouseout"/>
                  </use>
                  <path fill="none" stroke="white" stroke-width="1.5" d="M0,-3.0v7 M-2.5,-0.5L0,-3.0L2.5,-0.5"/>
                </g>
                <g id="arrowDown" xlink:href="#dirArrow" transform="rotate(180) translate(-30 -48)" onmousedown="handlePan(0,1)">
                  <use xlink:href="#rim" fill="#404040">
                        <set attributeName="fill" to="#808080" begin="arrowDown.mouseover" end="arrowDown.mouseout"/>
                  </use>
                  <path fill="none" stroke="white" stroke-width="1.5" d="M0,-3.0v7 M-2.5,-0.5L0,-3.0L2.5,-0.5"/>
                </g>
                <g id="arrowLeft" xlink:href="#dirArrow" transform="rotate(270) translate(-36 17)" onmousedown="handlePan(-1,0)">
                  <use xlink:href="#rim" fill="#404040">
                        <set attributeName="fill" to="#808080" begin="arrowLeft.mouseover" end="arrowLeft.mouseout"/>
                  </use>
                  <path fill="none" stroke="white" stroke-width="1.5" d="M0,-3.0v7 M-2.5,-0.5L0,-3.0L2.5,-0.5"/>
                </g>
        </g>
        <svg viewBox="0 0 15 15" width="100%" height="30px" preserveAspectRatio="xMaxYMin meet">
         <g id="arrow_out" transform="scale(0.3 0.3)">
          <a xlink:href="namespacechig_ae2ff27777b91f651f86d9a8e8ef0b986_cgraph_org.svg" target="_base">
           <rect id="button" ry="5" rx="5" y="6" x="6" height="38" width="38"
                fill="#f2f5e9" fill-opacity="0.5" stroke="#606060" stroke-width="1.0"/>
           <path id="arrow"
             d="M 11.500037,31.436501 C 11.940474,20.09759 22.043105,11.32322 32.158766,21.979434 L 37.068811,17.246167 C 37.068811,17.246167 37.088388,32 37.088388,32 L 22.160133,31.978069 C 22.160133,31.978069 26.997745,27.140456 26.997745,27.140456 C 18.528582,18.264221 13.291696,25.230495 11.500037,31.436501 z"
             style="fill:#404040;"/>
          </a>
         </g>
        </svg>
</svg>
