<?xml version="1.0" encoding="UTF-8" standalone="no"?>
<!DOCTYPE svg PUBLIC "-//W3C//DTD SVG 1.1//EN"
 "http://www.w3.org/Graphics/SVG/1.1/DTD/svg11.dtd">
<!-- Generated by graphviz version 2.40.1 (20161225.0304)
 -->
<!-- Title: chig::parseColonPair Pages: 1 -->
<svg width="613pt" height="116pt"
 viewBox="0.00 0.00 613.00 115.50" xmlns="http://www.w3.org/2000/svg" xmlns:xlink="http://www.w3.org/1999/xlink">
<g id="graph0" class="graph" transform="scale(1 1) rotate(0) translate(4 111.5)">
<title>chig::parseColonPair</title>
<polygon fill="#ffffff" stroke="transparent" points="-4,4 -4,-111.5 609,-111.5 609,4 -4,4"/>
<!-- Node364 -->
<g id="node1" class="node">
<title>Node364</title>
<polygon fill="#bfbfbf" stroke="#000000" points="0,-38.5 0,-57.5 107,-57.5 107,-38.5 0,-38.5"/>
<text text-anchor="middle" x="53.5" y="-45.5" font-family="Helvetica,sans-Serif" font-size="10.00" fill="#000000">chig::parseColonPair</text>
</g>
<!-- Node365 -->
<g id="node2" class="node">
<title>Node365</title>
<g id="a_node2"><a xlink:href="namespacechig.html#a860a6f4d8180f1fb71729896291891b7" target="_top" xlink:title="Create a forward declaration of a function in a module with an empty graph. ">
<polygon fill="#ffffff" stroke="#000000" points="144.5,-77 144.5,-107 275.5,-107 275.5,-77 144.5,-77"/>
<text text-anchor="start" x="152.5" y="-95" font-family="Helvetica,sans-Serif" font-size="10.00" fill="#000000">chig::createGraphFunction</text>
<text text-anchor="middle" x="210" y="-84" font-family="Helvetica,sans-Serif" font-size="10.00" fill="#000000">DeclarationFromJson</text>
</a>
</g>
</g>
<!-- Node364&#45;&gt;Node365 -->
<g id="edge1" class="edge">
<title>Node364&#45;&gt;Node365</title>
<path fill="none" stroke="#191970" d="M97.2907,-60.3118C115.6355,-65.4694 137.1377,-71.5148 156.4152,-76.9346"/>
<polygon fill="#191970" stroke="#191970" points="98.0323,-56.8846 87.4582,-57.5473 96.1376,-63.6233 98.0323,-56.8846"/>
</g>
<!-- Node368 -->
<g id="node5" class="node">
<title>Node368</title>
<g id="a_node5"><a xlink:href="namespacechig.html#a62056798e67720d435705b99f7e16cd0" target="_top" xlink:title="Load a GraphFunction–must already exist (use createGraphFunctionDeclarationFromJson) ...">
<polygon fill="#ffffff" stroke="#000000" points="143,-38.5 143,-57.5 277,-57.5 277,-38.5 143,-38.5"/>
<text text-anchor="middle" x="210" y="-45.5" font-family="Helvetica,sans-Serif" font-size="10.00" fill="#000000">chig::jsonToGraphFunction</text>
</a>
</g>
</g>
<!-- Node364&#45;&gt;Node368 -->
<g id="edge4" class="edge">
<title>Node364&#45;&gt;Node368</title>
<path fill="none" stroke="#191970" d="M117.4152,-48C125.7738,-48 134.3584,-48 142.7696,-48"/>
<polygon fill="#191970" stroke="#191970" points="117.3585,-44.5001 107.3584,-48 117.3584,-51.5001 117.3585,-44.5001"/>
</g>
<!-- Node369 -->
<g id="node6" class="node">
<title>Node369</title>
<g id="a_node6"><a xlink:href="namespacechig.html#a2af3c68005d33184e5e66b35c4737902" target="_top" xlink:title="Load a GraphStruct from json. ">
<polygon fill="#ffffff" stroke="#000000" points="149,-.5 149,-19.5 271,-19.5 271,-.5 149,-.5"/>
<text text-anchor="middle" x="210" y="-7.5" font-family="Helvetica,sans-Serif" font-size="10.00" fill="#000000">chig::jsonToGraphStruct</text>
</a>
</g>
</g>
<!-- Node364&#45;&gt;Node369 -->
<g id="edge6" class="edge">
<title>Node364&#45;&gt;Node369</title>
<path fill="none" stroke="#191970" d="M102.7892,-36.032C124.7203,-30.7069 150.1849,-24.5238 170.7924,-19.5201"/>
<polygon fill="#191970" stroke="#191970" points="101.8833,-32.6502 92.9916,-38.411 103.5351,-39.4525 101.8833,-32.6502"/>
</g>
<!-- Node366 -->
<g id="node3" class="node">
<title>Node366</title>
<g id="a_node3"><a xlink:href="namespacechig.html#a1f28de74faa271cf31249935c9640c58" target="_top" xlink:title="Load a GraphModule from json. ">
<polygon fill="#ffffff" stroke="#000000" points="313,-38.5 313,-57.5 441,-57.5 441,-38.5 313,-38.5"/>
<text text-anchor="middle" x="377" y="-45.5" font-family="Helvetica,sans-Serif" font-size="10.00" fill="#000000">chig::jsonToGraphModule</text>
</a>
</g>
</g>
<!-- Node365&#45;&gt;Node366 -->
<g id="edge2" class="edge">
<title>Node365&#45;&gt;Node366</title>
<path fill="none" stroke="#191970" d="M276.8735,-74.3806C298.6418,-68.6453 321.9814,-62.4959 340.6461,-57.5783"/>
<polygon fill="#191970" stroke="#191970" points="275.7831,-71.0484 267.0048,-76.9808 277.5666,-77.8174 275.7831,-71.0484"/>
</g>
<!-- Node367 -->
<g id="node4" class="node">
<title>Node367</title>
<g id="a_node4"><a xlink:href="structchig_1_1Context.html#a0d9ec5f2803a5777d2e389256ccb3e3b" target="_top" xlink:title="Load a module from JSON – avoid this use the string overload. ">
<polygon fill="#ffffff" stroke="#000000" points="477,-33 477,-63 605,-63 605,-33 477,-33"/>
<text text-anchor="start" x="485" y="-51" font-family="Helvetica,sans-Serif" font-size="10.00" fill="#000000">chig::Context::addModule</text>
<text text-anchor="middle" x="541" y="-40" font-family="Helvetica,sans-Serif" font-size="10.00" fill="#000000">FromJson</text>
</a>
</g>
</g>
<!-- Node366&#45;&gt;Node367 -->
<g id="edge3" class="edge">
<title>Node366&#45;&gt;Node367</title>
<path fill="none" stroke="#191970" d="M451.5641,-48C460.0037,-48 468.5492,-48 476.8391,-48"/>
<polygon fill="#191970" stroke="#191970" points="451.3465,-44.5001 441.3464,-48 451.3464,-51.5001 451.3465,-44.5001"/>
</g>
<!-- Node368&#45;&gt;Node366 -->
<g id="edge5" class="edge">
<title>Node368&#45;&gt;Node366</title>
<path fill="none" stroke="#191970" d="M287.6566,-48C296.0806,-48 304.5843,-48 312.8225,-48"/>
<polygon fill="#191970" stroke="#191970" points="287.444,-44.5001 277.4439,-48 287.4439,-51.5001 287.444,-44.5001"/>
</g>
<!-- Node369&#45;&gt;Node366 -->
<g id="edge7" class="edge">
<title>Node369&#45;&gt;Node366</title>
<path fill="none" stroke="#191970" d="M261.9646,-21.8243C285.5086,-27.1816 312.9737,-33.4311 335.1619,-38.4799"/>
<polygon fill="#191970" stroke="#191970" points="262.6685,-18.3951 252.1412,-19.589 261.1153,-25.2206 262.6685,-18.3951"/>
</g>
</g>
</svg>
