<?xml version="1.0" encoding="UTF-8" standalone="no"?>
<!DOCTYPE svg PUBLIC "-//W3C//DTD SVG 1.1//EN"
 "http://www.w3.org/Graphics/SVG/1.1/DTD/svg11.dtd">
<!-- Generated by graphviz version 2.40.1 (20161225.0304)
 -->
<!-- Title: chig::disconnectExec Pages: 1 -->
<svg width="478pt" height="199pt"
 viewBox="0.00 0.00 478.00 199.00" xmlns="http://www.w3.org/2000/svg" xmlns:xlink="http://www.w3.org/1999/xlink">
<g id="graph0" class="graph" transform="scale(1 1) rotate(0) translate(4 195)">
<title>chig::disconnectExec</title>
<polygon fill="#ffffff" stroke="transparent" points="-4,4 -4,-195 474,-195 474,4 -4,4"/>
<!-- Node184 -->
<g id="node1" class="node">
<title>Node184</title>
<polygon fill="#bfbfbf" stroke="#000000" points="0,-95.5 0,-114.5 110,-114.5 110,-95.5 0,-95.5"/>
<text text-anchor="middle" x="55" y="-102.5" font-family="Helvetica,sans-Serif" font-size="10.00" fill="#000000">chig::disconnectExec</text>
</g>
<!-- Node185 -->
<g id="node2" class="node">
<title>Node185</title>
<g id="a_node2"><a xlink:href="structchig_1_1Result.html#aabb30a56760c3a817518912d9eabb491" target="_top" xlink:title="Add a entry to the result, either a warning or an error. ">
<polygon fill="#ffffff" stroke="#000000" points="165.5,-171.5 165.5,-190.5 278.5,-190.5 278.5,-171.5 165.5,-171.5"/>
<text text-anchor="middle" x="222" y="-178.5" font-family="Helvetica,sans-Serif" font-size="10.00" fill="#000000">chig::Result::addEntry</text>
</a>
</g>
</g>
<!-- Node184&#45;&gt;Node185 -->
<g id="edge1" class="edge">
<title>Node184&#45;&gt;Node185</title>
<path fill="none" stroke="#191970" d="M67.5498,-114.6721C84.4792,-127.2811 115.9809,-149.2273 146,-162 151.8311,-164.4811 158.0572,-166.6884 164.3414,-168.6394"/>
<polygon fill="#191970" stroke="#191970" points="163.6371,-172.0791 174.2159,-171.4969 165.5829,-165.355 163.6371,-172.0791"/>
</g>
<!-- Node186 -->
<g id="node3" class="node">
<title>Node186</title>
<g id="a_node3"><a xlink:href="structchig_1_1NodeType.html#afc4ee5b526c87f79a4b4e2a902e209a8" target="_top" xlink:title="Get the execution outputs for the node. ">
<polygon fill="#ffffff" stroke="#000000" points="149,-133.5 149,-152.5 295,-152.5 295,-133.5 149,-133.5"/>
<text text-anchor="middle" x="222" y="-140.5" font-family="Helvetica,sans-Serif" font-size="10.00" fill="#000000">chig::NodeType::execOutputs</text>
</a>
</g>
</g>
<!-- Node184&#45;&gt;Node186 -->
<g id="edge2" class="edge">
<title>Node184&#45;&gt;Node186</title>
<path fill="none" stroke="#191970" d="M97.1412,-114.589C119.3771,-119.6487 146.8482,-125.8996 170.3564,-131.2488"/>
<polygon fill="#191970" stroke="#191970" points="169.6345,-134.6739 180.1619,-133.4799 171.1877,-127.8484 169.6345,-134.6739"/>
</g>
<!-- Node187 -->
<g id="node4" class="node">
<title>Node187</title>
<g id="a_node4"><a xlink:href="structchig_1_1NodeInstance.html#a1468afe4799106831566bd283332a516" target="_top" xlink:title="Get the ID of the instance, unique to the graph. ">
<polygon fill="#ffffff" stroke="#000000" points="165,-95.5 165,-114.5 279,-114.5 279,-95.5 165,-95.5"/>
<text text-anchor="middle" x="222" y="-102.5" font-family="Helvetica,sans-Serif" font-size="10.00" fill="#000000">chig::NodeInstance::id</text>
</a>
</g>
</g>
<!-- Node184&#45;&gt;Node187 -->
<g id="edge3" class="edge">
<title>Node184&#45;&gt;Node187</title>
<path fill="none" stroke="#191970" d="M110.1449,-105C124.4256,-105 139.9619,-105 154.7857,-105"/>
<polygon fill="#191970" stroke="#191970" points="154.9104,-108.5001 164.9104,-105 154.9103,-101.5001 154.9104,-108.5001"/>
</g>
<!-- Node188 -->
<g id="node5" class="node">
<title>Node188</title>
<g id="a_node5"><a xlink:href="structchig_1_1NodeType.html#aec01c9c30813ec9f0e15dda0f7ae34f3" target="_top" xlink:title="Get the qualified name of the node type, like module.name():name() ">
<polygon fill="#ffffff" stroke="#000000" points="146,-57.5 146,-76.5 298,-76.5 298,-57.5 146,-57.5"/>
<text text-anchor="middle" x="222" y="-64.5" font-family="Helvetica,sans-Serif" font-size="10.00" fill="#000000">chig::NodeType::qualifiedName</text>
</a>
</g>
</g>
<!-- Node184&#45;&gt;Node188 -->
<g id="edge4" class="edge">
<title>Node184&#45;&gt;Node188</title>
<path fill="none" stroke="#191970" d="M97.1412,-95.411C119.3771,-90.3513 146.8482,-84.1004 170.3564,-78.7512"/>
<polygon fill="#191970" stroke="#191970" points="171.1877,-82.1516 180.1619,-76.5201 169.6345,-75.3261 171.1877,-82.1516"/>
</g>
<!-- Node193 -->
<g id="node10" class="node">
<title>Node193</title>
<g id="a_node10"><a xlink:href="structchig_1_1NodeInstance.html#a5c9d6934e14f56ff4317ff08e170e83a" target="_top" xlink:title="Get the type of the instance. ">
<polygon fill="#ffffff" stroke="#000000" points="171.5,-8 171.5,-38 272.5,-38 272.5,-8 171.5,-8"/>
<text text-anchor="start" x="179.5" y="-26" font-family="Helvetica,sans-Serif" font-size="10.00" fill="#000000">chig::NodeInstance</text>
<text text-anchor="middle" x="222" y="-15" font-family="Helvetica,sans-Serif" font-size="10.00" fill="#000000">::type</text>
</a>
</g>
</g>
<!-- Node184&#45;&gt;Node193 -->
<g id="edge9" class="edge">
<title>Node184&#45;&gt;Node193</title>
<path fill="none" stroke="#191970" d="M67.9898,-95.4427C85.148,-83.159 116.6345,-61.7778 146,-48 151.0299,-45.6401 156.3434,-43.4073 161.7291,-41.3195"/>
<polygon fill="#191970" stroke="#191970" points="163.2908,-44.4736 171.4557,-37.7219 160.8625,-37.9083 163.2908,-44.4736"/>
</g>
<!-- Node189 -->
<g id="node6" class="node">
<title>Node189</title>
<g id="a_node6"><a xlink:href="structchig_1_1NodeType.html#ad18d6f37b20e92bcd580bcf7c7504e64" target="_top" xlink:title="Get the ChigModule this NodeType belongs to. ">
<polygon fill="#ffffff" stroke="#000000" points="341,-114.5 341,-133.5 463,-133.5 463,-114.5 341,-114.5"/>
<text text-anchor="middle" x="402" y="-121.5" font-family="Helvetica,sans-Serif" font-size="10.00" fill="#000000">chig::NodeType::module</text>
</a>
</g>
</g>
<!-- Node188&#45;&gt;Node189 -->
<g id="edge5" class="edge">
<title>Node188&#45;&gt;Node189</title>
<path fill="none" stroke="#191970" d="M267.9648,-76.5985C278.0046,-79.2165 288.4727,-82.3561 298,-86 314.8979,-92.4629 317.1925,-98.3055 334,-105 339.9038,-107.3515 346.2052,-109.5298 352.5011,-111.5086"/>
<polygon fill="#191970" stroke="#191970" points="351.7484,-114.9367 362.332,-114.4502 353.755,-108.2304 351.7484,-114.9367"/>
</g>
<!-- Node190 -->
<g id="node7" class="node">
<title>Node190</title>
<g id="a_node7"><a xlink:href="structchig_1_1ChigModule.html#ad730121a133fbc474fcb71d49f31f7b3" target="_top" xlink:title="Get the full name of the module. ">
<polygon fill="#ffffff" stroke="#000000" points="334,-76.5 334,-95.5 470,-95.5 470,-76.5 334,-76.5"/>
<text text-anchor="middle" x="402" y="-83.5" font-family="Helvetica,sans-Serif" font-size="10.00" fill="#000000">chig::ChigModule::fullName</text>
</a>
</g>
</g>
<!-- Node188&#45;&gt;Node190 -->
<g id="edge6" class="edge">
<title>Node188&#45;&gt;Node190</title>
<path fill="none" stroke="#191970" d="M298.0753,-75.0302C306.6268,-75.9328 315.3502,-76.8536 323.9265,-77.7589"/>
<polygon fill="#191970" stroke="#191970" points="323.5954,-81.2433 333.9076,-78.8125 324.3303,-74.282 323.5954,-81.2433"/>
</g>
<!-- Node191 -->
<g id="node8" class="node">
<title>Node191</title>
<g id="a_node8"><a xlink:href="structchig_1_1NodeType.html#aeba0c62eaae2a477171d83a65c877f53" target="_top" xlink:title="Get the name of the NodeType in the ChigModule. ">
<polygon fill="#ffffff" stroke="#000000" points="344.5,-38.5 344.5,-57.5 459.5,-57.5 459.5,-38.5 344.5,-38.5"/>
<text text-anchor="middle" x="402" y="-45.5" font-family="Helvetica,sans-Serif" font-size="10.00" fill="#000000">chig::NodeType::name</text>
</a>
</g>
</g>
<!-- Node188&#45;&gt;Node191 -->
<g id="edge7" class="edge">
<title>Node188&#45;&gt;Node191</title>
<path fill="none" stroke="#191970" d="M298.0753,-58.9698C310.0975,-57.7008 322.4593,-56.396 334.2747,-55.1488"/>
<polygon fill="#191970" stroke="#191970" points="334.9176,-58.6005 344.4949,-54.07 334.1827,-51.6391 334.9176,-58.6005"/>
</g>
<!-- Node192 -->
<g id="node9" class="node">
<title>Node192</title>
<g id="a_node9"><a xlink:href="structchig_1_1NodeType.html#a07fe116ce84fbf50afd292e82203aedf" target="_top" xlink:title="A virtual function that is called when this node needs to be called. ">
<polygon fill="#ffffff" stroke="#000000" points="338,-.5 338,-19.5 466,-19.5 466,-.5 338,-.5"/>
<text text-anchor="middle" x="402" y="-7.5" font-family="Helvetica,sans-Serif" font-size="10.00" fill="#000000">chig::NodeType::codegen</text>
</a>
</g>
</g>
<!-- Node188&#45;&gt;Node192 -->
<g id="edge8" class="edge">
<title>Node188&#45;&gt;Node192</title>
<path fill="none" stroke="#191970" d="M264.696,-57.4163C275.6894,-54.501 287.4036,-50.9944 298,-47 314.7388,-40.6902 317.3095,-35.4363 334,-29 340.0043,-26.6846 346.4058,-24.5197 352.7891,-22.5411"/>
<polygon fill="#191970" stroke="#191970" points="354.152,-25.7877 362.7451,-19.5903 352.1628,-19.0763 354.152,-25.7877"/>
</g>
</g>
</svg>
