<?xml version="1.0" encoding="UTF-8" standalone="no"?>
<!DOCTYPE svg PUBLIC "-//W3C//DTD SVG 1.1//EN"
 "http://www.w3.org/Graphics/SVG/1.1/DTD/svg11.dtd">
<!-- Generated by graphviz version 2.40.1 (20161225.0304)
 -->
<!-- Title: chig::validateFunction Pages: 1 -->
<svg width="822pt" height="620pt"
 viewBox="0.00 0.00 822.00 620.00" xmlns="http://www.w3.org/2000/svg" xmlns:xlink="http://www.w3.org/1999/xlink">
<g id="graph0" class="graph" transform="scale(1 1) rotate(0) translate(4 616)">
<title>chig::validateFunction</title>
<polygon fill="#ffffff" stroke="transparent" points="-4,4 -4,-616 818,-616 818,4 -4,4"/>
<!-- Node556 -->
<g id="node1" class="node">
<title>Node556</title>
<polygon fill="#bfbfbf" stroke="#000000" points="0,-411 0,-430 112,-430 112,-411 0,-411"/>
<text text-anchor="middle" x="56" y="-418" font-family="Helvetica,sans-Serif" font-size="10.00" fill="#000000">chig::validateFunction</text>
</g>
<!-- Node557 -->
<g id="node2" class="node">
<title>Node557</title>
<g id="a_node2"><a xlink:href="namespacechig.html#ae2ff27777b91f651f86d9a8e8ef0b986" target="_top" xlink:title="Make sure that connections connect back and that they have the same types. ">
<polygon fill="#ffffff" stroke="#000000" points="148,-468.5 148,-498.5 314,-498.5 314,-468.5 148,-468.5"/>
<text text-anchor="start" x="156" y="-486.5" font-family="Helvetica,sans-Serif" font-size="10.00" fill="#000000">chig::validateFunctionConnections</text>
<text text-anchor="middle" x="231" y="-475.5" font-family="Helvetica,sans-Serif" font-size="10.00" fill="#000000">AreTwoWay</text>
</a>
</g>
</g>
<!-- Node556&#45;&gt;Node557 -->
<g id="edge1" class="edge">
<title>Node556&#45;&gt;Node557</title>
<path fill="none" stroke="#191970" d="M82.5787,-430.0683C108.2279,-439.302 147.7419,-453.5271 179.5518,-464.9787"/>
<polygon fill="#191970" stroke="#191970" points="178.5582,-468.3408 189.1527,-468.435 180.9293,-461.7546 178.5582,-468.3408"/>
</g>
<!-- Node567 -->
<g id="node12" class="node">
<title>Node567</title>
<g id="a_node12"><a xlink:href="namespacechig.html#ad868894793d664b6ae994f24fc781b4b" target="_top" xlink:title="The make sure that nodes are called before their outputs are used. ">
<polygon fill="#ffffff" stroke="#000000" points="164,-381.5 164,-411.5 298,-411.5 298,-381.5 164,-381.5"/>
<text text-anchor="start" x="172" y="-399.5" font-family="Helvetica,sans-Serif" font-size="10.00" fill="#000000">chig::validateFunctionNode</text>
<text text-anchor="middle" x="231" y="-388.5" font-family="Helvetica,sans-Serif" font-size="10.00" fill="#000000">Inputs</text>
</a>
</g>
</g>
<!-- Node556&#45;&gt;Node567 -->
<g id="edge11" class="edge">
<title>Node556&#45;&gt;Node567</title>
<path fill="none" stroke="#191970" d="M112.3344,-412.7741C125.5204,-410.9658 139.7927,-409.0084 153.7152,-407.0991"/>
<polygon fill="#191970" stroke="#191970" points="154.3389,-410.5464 163.7706,-405.72 153.3877,-403.6113 154.3389,-410.5464"/>
</g>
<!-- Node558 -->
<g id="node3" class="node">
<title>Node558</title>
<g id="a_node3"><a xlink:href="structchig_1_1GraphFunction.html#a7460b1b14cbf073f576968e1a1ed1cd5" target="_top" xlink:title="Get the nodes in the function Usually called by connectData or connectExec or GraphFunction. ">
<polygon fill="#ffffff" stroke="#000000" points="374,-581.5 374,-611.5 478,-611.5 478,-581.5 374,-581.5"/>
<text text-anchor="start" x="382" y="-599.5" font-family="Helvetica,sans-Serif" font-size="10.00" fill="#000000">chig::GraphFunction</text>
<text text-anchor="middle" x="426" y="-588.5" font-family="Helvetica,sans-Serif" font-size="10.00" fill="#000000">::nodes</text>
</a>
</g>
</g>
<!-- Node557&#45;&gt;Node558 -->
<g id="edge2" class="edge">
<title>Node557&#45;&gt;Node558</title>
<path fill="none" stroke="#191970" d="M247.964,-498.8134C270.0515,-518.0713 310.5151,-551.0805 350,-571.5 354.5862,-573.8717 359.4429,-576.0818 364.3949,-578.1271"/>
<polygon fill="#191970" stroke="#191970" points="363.4005,-581.4957 373.9891,-581.8566 365.9367,-574.9713 363.4005,-581.4957"/>
</g>
<!-- Node559 -->
<g id="node4" class="node">
<title>Node559</title>
<g id="a_node4"><a xlink:href="structchig_1_1Result.html#aabb30a56760c3a817518912d9eabb491" target="_top" xlink:title="Add a entry to the result, either a warning or an error. ">
<polygon fill="#ffffff" stroke="#000000" points="369.5,-543 369.5,-562 482.5,-562 482.5,-543 369.5,-543"/>
<text text-anchor="middle" x="426" y="-550" font-family="Helvetica,sans-Serif" font-size="10.00" fill="#000000">chig::Result::addEntry</text>
</a>
</g>
</g>
<!-- Node557&#45;&gt;Node559 -->
<g id="edge3" class="edge">
<title>Node557&#45;&gt;Node559</title>
<path fill="none" stroke="#191970" d="M263.0662,-498.5486C286.7311,-509.2646 319.9143,-523.484 350,-533.5 357.4401,-535.9769 365.3839,-538.3019 373.2271,-540.4177"/>
<polygon fill="#191970" stroke="#191970" points="372.5031,-543.8459 383.0626,-542.9816 374.2688,-537.0722 372.5031,-543.8459"/>
</g>
<!-- Node560 -->
<g id="node5" class="node">
<title>Node560</title>
<g id="a_node5"><a xlink:href="structchig_1_1NodeInstance.html#afacc72392d31c168d5a769f13d0fa3ec" target="_top" xlink:title="Get the ID as a string. ">
<polygon fill="#ffffff" stroke="#000000" points="375.5,-493.5 375.5,-523.5 476.5,-523.5 476.5,-493.5 375.5,-493.5"/>
<text text-anchor="start" x="383.5" y="-511.5" font-family="Helvetica,sans-Serif" font-size="10.00" fill="#000000">chig::NodeInstance</text>
<text text-anchor="middle" x="426" y="-500.5" font-family="Helvetica,sans-Serif" font-size="10.00" fill="#000000">::stringId</text>
</a>
</g>
</g>
<!-- Node557&#45;&gt;Node560 -->
<g id="edge4" class="edge">
<title>Node557&#45;&gt;Node560</title>
<path fill="none" stroke="#191970" d="M314.2632,-494.1748C331.3313,-496.363 348.9942,-498.6275 365.0988,-500.6922"/>
<polygon fill="#191970" stroke="#191970" points="365.0709,-504.2171 375.4349,-502.0173 365.9611,-497.274 365.0709,-504.2171"/>
</g>
<!-- Node561 -->
<g id="node6" class="node">
<title>Node561</title>
<g id="a_node6"><a xlink:href="structchig_1_1NodeInstance.html#a5c9d6934e14f56ff4317ff08e170e83a" target="_top" xlink:title="Get the type of the instance. ">
<polygon fill="#ffffff" stroke="#000000" points="375.5,-444.5 375.5,-474.5 476.5,-474.5 476.5,-444.5 375.5,-444.5"/>
<text text-anchor="start" x="383.5" y="-462.5" font-family="Helvetica,sans-Serif" font-size="10.00" fill="#000000">chig::NodeInstance</text>
<text text-anchor="middle" x="426" y="-451.5" font-family="Helvetica,sans-Serif" font-size="10.00" fill="#000000">::type</text>
</a>
</g>
</g>
<!-- Node557&#45;&gt;Node561 -->
<g id="edge5" class="edge">
<title>Node557&#45;&gt;Node561</title>
<path fill="none" stroke="#191970" d="M314.2632,-473.2522C331.3313,-471.1515 348.9942,-468.9776 365.0988,-466.9955"/>
<polygon fill="#191970" stroke="#191970" points="365.9373,-470.4188 375.4349,-465.7234 365.0822,-463.4712 365.9373,-470.4188"/>
</g>
<!-- Node562 -->
<g id="node7" class="node">
<title>Node562</title>
<g id="a_node7"><a xlink:href="structchig_1_1NodeType.html#aec01c9c30813ec9f0e15dda0f7ae34f3" target="_top" xlink:title="Get the qualified name of the node type, like module.name():name() ">
<polygon fill="#ffffff" stroke="#000000" points="350,-406 350,-425 502,-425 502,-406 350,-406"/>
<text text-anchor="middle" x="426" y="-413" font-family="Helvetica,sans-Serif" font-size="10.00" fill="#000000">chig::NodeType::qualifiedName</text>
</a>
</g>
</g>
<!-- Node557&#45;&gt;Node562 -->
<g id="edge6" class="edge">
<title>Node557&#45;&gt;Node562</title>
<path fill="none" stroke="#191970" d="M264.9436,-468.4774C288.5213,-458.373 320.8217,-445.1811 350,-435.5 358.3737,-432.7217 367.3661,-430.0709 376.1305,-427.6604"/>
<polygon fill="#191970" stroke="#191970" points="377.1304,-431.016 385.8838,-425.0471 375.3186,-424.2546 377.1304,-431.016"/>
</g>
<!-- Node563 -->
<g id="node8" class="node">
<title>Node563</title>
<g id="a_node8"><a xlink:href="structchig_1_1NodeType.html#ad18d6f37b20e92bcd580bcf7c7504e64" target="_top" xlink:title="Get the ChigModule this NodeType belongs to. ">
<polygon fill="#ffffff" stroke="#000000" points="545,-482 545,-501 667,-501 667,-482 545,-482"/>
<text text-anchor="middle" x="606" y="-489" font-family="Helvetica,sans-Serif" font-size="10.00" fill="#000000">chig::NodeType::module</text>
</a>
</g>
</g>
<!-- Node562&#45;&gt;Node563 -->
<g id="edge7" class="edge">
<title>Node562&#45;&gt;Node563</title>
<path fill="none" stroke="#191970" d="M477.7983,-425.0758C486.2032,-427.7569 494.576,-431.168 502,-435.5 521.8168,-447.0634 518.2713,-460.7869 538,-472.5 541.6758,-474.6824 545.6122,-476.6228 549.6698,-478.3466"/>
<polygon fill="#191970" stroke="#191970" points="548.7006,-481.722 559.2921,-481.9878 551.1781,-475.1751 548.7006,-481.722"/>
</g>
<!-- Node564 -->
<g id="node9" class="node">
<title>Node564</title>
<g id="a_node9"><a xlink:href="structchig_1_1ChigModule.html#ad730121a133fbc474fcb71d49f31f7b3" target="_top" xlink:title="Get the full name of the module. ">
<polygon fill="#ffffff" stroke="#000000" points="538,-444 538,-463 674,-463 674,-444 538,-444"/>
<text text-anchor="middle" x="606" y="-451" font-family="Helvetica,sans-Serif" font-size="10.00" fill="#000000">chig::ChigModule::fullName</text>
</a>
</g>
</g>
<!-- Node562&#45;&gt;Node564 -->
<g id="edge8" class="edge">
<title>Node562&#45;&gt;Node564</title>
<path fill="none" stroke="#191970" d="M471.4216,-425.089C495.6025,-430.1939 525.5273,-436.5113 551.0139,-441.8918"/>
<polygon fill="#191970" stroke="#191970" points="550.3977,-445.3388 560.905,-443.9799 551.8437,-438.4898 550.3977,-445.3388"/>
</g>
<!-- Node565 -->
<g id="node10" class="node">
<title>Node565</title>
<g id="a_node10"><a xlink:href="structchig_1_1NodeType.html#aeba0c62eaae2a477171d83a65c877f53" target="_top" xlink:title="Get the name of the NodeType in the ChigModule. ">
<polygon fill="#ffffff" stroke="#000000" points="548.5,-406 548.5,-425 663.5,-425 663.5,-406 548.5,-406"/>
<text text-anchor="middle" x="606" y="-413" font-family="Helvetica,sans-Serif" font-size="10.00" fill="#000000">chig::NodeType::name</text>
</a>
</g>
</g>
<!-- Node562&#45;&gt;Node565 -->
<g id="edge9" class="edge">
<title>Node562&#45;&gt;Node565</title>
<path fill="none" stroke="#191970" d="M502.0753,-415.5C514.0975,-415.5 526.4593,-415.5 538.2747,-415.5"/>
<polygon fill="#191970" stroke="#191970" points="538.4949,-419.0001 548.4949,-415.5 538.4948,-412.0001 538.4949,-419.0001"/>
</g>
<!-- Node566 -->
<g id="node11" class="node">
<title>Node566</title>
<g id="a_node11"><a xlink:href="structchig_1_1NodeType.html#a07fe116ce84fbf50afd292e82203aedf" target="_top" xlink:title="A virtual function that is called when this node needs to be called. ">
<polygon fill="#ffffff" stroke="#000000" points="542,-368 542,-387 670,-387 670,-368 542,-368"/>
<text text-anchor="middle" x="606" y="-375" font-family="Helvetica,sans-Serif" font-size="10.00" fill="#000000">chig::NodeType::codegen</text>
</a>
</g>
</g>
<!-- Node562&#45;&gt;Node566 -->
<g id="edge10" class="edge">
<title>Node562&#45;&gt;Node566</title>
<path fill="none" stroke="#191970" d="M471.4216,-405.911C495.6025,-400.8061 525.5273,-394.4887 551.0139,-389.1082"/>
<polygon fill="#191970" stroke="#191970" points="551.8437,-392.5102 560.905,-387.0201 550.3977,-385.6612 551.8437,-392.5102"/>
</g>
<!-- Node568 -->
<g id="node13" class="node">
<title>Node568</title>
<g id="a_node13"><a xlink:href="structchig_1_1GraphFunction.html#aa47e30665a08b671950c4e8411c7a4ba" target="_top" xlink:title="Gets the node with type lang:entry returns nullptr on failure Also returns nullptr if there are two e...">
<polygon fill="#ffffff" stroke="#000000" points="374,-282.5 374,-312.5 478,-312.5 478,-282.5 374,-282.5"/>
<text text-anchor="start" x="382" y="-300.5" font-family="Helvetica,sans-Serif" font-size="10.00" fill="#000000">chig::GraphFunction</text>
<text text-anchor="middle" x="426" y="-289.5" font-family="Helvetica,sans-Serif" font-size="10.00" fill="#000000">::entryNode</text>
</a>
</g>
</g>
<!-- Node567&#45;&gt;Node568 -->
<g id="edge12" class="edge">
<title>Node567&#45;&gt;Node568</title>
<path fill="none" stroke="#191970" d="M260.6163,-381.464C294.5024,-364.2603 350.1062,-336.0307 387.3706,-317.1119"/>
<polygon fill="#191970" stroke="#191970" points="389.0929,-320.1628 396.4251,-312.515 385.924,-313.9211 389.0929,-320.1628"/>
</g>
<!-- Node569 -->
<g id="node14" class="node">
<title>Node569</title>
<g id="a_node14"><a xlink:href="structchig_1_1GraphFunction.html#af5a72c2638cd3ccd6cd1bc4fb171319a" target="_top" xlink:title="Gets the nodes with a given type. ">
<polygon fill="#ffffff" stroke="#000000" points="554,-318.5 554,-348.5 658,-348.5 658,-318.5 554,-318.5"/>
<text text-anchor="start" x="562" y="-336.5" font-family="Helvetica,sans-Serif" font-size="10.00" fill="#000000">chig::GraphFunction</text>
<text text-anchor="middle" x="606" y="-325.5" font-family="Helvetica,sans-Serif" font-size="10.00" fill="#000000">::nodesWithType</text>
</a>
</g>
</g>
<!-- Node568&#45;&gt;Node569 -->
<g id="edge13" class="edge">
<title>Node568&#45;&gt;Node569</title>
<path fill="none" stroke="#191970" d="M478.0635,-307.9127C498.5897,-312.0179 522.3384,-316.7677 543.761,-321.0522"/>
<polygon fill="#191970" stroke="#191970" points="543.2498,-324.5192 553.742,-323.0484 544.6226,-317.6551 543.2498,-324.5192"/>
</g>
<!-- Node572 -->
<g id="node17" class="node">
<title>Node572</title>
<g id="a_node17"><a xlink:href="structchig_1_1GraphFunction.html#a42c555949c37c229eae02af3dabae189" target="_top" xlink:title="Get the function data inputs in the format {type, docstring}. ">
<polygon fill="#ffffff" stroke="#000000" points="554,-245.5 554,-275.5 658,-275.5 658,-245.5 554,-245.5"/>
<text text-anchor="start" x="562" y="-263.5" font-family="Helvetica,sans-Serif" font-size="10.00" fill="#000000">chig::GraphFunction</text>
<text text-anchor="middle" x="606" y="-252.5" font-family="Helvetica,sans-Serif" font-size="10.00" fill="#000000">::dataInputs</text>
</a>
</g>
</g>
<!-- Node568&#45;&gt;Node572 -->
<g id="edge16" class="edge">
<title>Node568&#45;&gt;Node572</title>
<path fill="none" stroke="#191970" d="M478.0635,-286.7981C498.5897,-282.5788 522.3384,-277.6971 543.761,-273.2936"/>
<polygon fill="#191970" stroke="#191970" points="544.6515,-276.6838 553.742,-271.2419 543.2421,-269.8271 544.6515,-276.6838"/>
</g>
<!-- Node577 -->
<g id="node22" class="node">
<title>Node577</title>
<g id="a_node22"><a xlink:href="structchig_1_1GraphFunction.html#a217197f9e54f57cd7a8751a335f4710b" target="_top" xlink:title="Get the function exec inputs. ">
<polygon fill="#ffffff" stroke="#000000" points="554,-74.5 554,-104.5 658,-104.5 658,-74.5 554,-74.5"/>
<text text-anchor="start" x="562" y="-92.5" font-family="Helvetica,sans-Serif" font-size="10.00" fill="#000000">chig::GraphFunction</text>
<text text-anchor="middle" x="606" y="-81.5" font-family="Helvetica,sans-Serif" font-size="10.00" fill="#000000">::execInputs</text>
</a>
</g>
</g>
<!-- Node568&#45;&gt;Node577 -->
<g id="edge21" class="edge">
<title>Node568&#45;&gt;Node577</title>
<path fill="none" stroke="#191970" d="M439.2358,-282.2053C470.5841,-245.9805 549.4921,-154.798 586.399,-112.15"/>
<polygon fill="#191970" stroke="#191970" points="589.0903,-114.3887 592.9875,-104.5366 583.7971,-109.808 589.0903,-114.3887"/>
</g>
<!-- Node570 -->
<g id="node15" class="node">
<title>Node570</title>
<g id="a_node15"><a xlink:href="structchig_1_1GraphFunction.html#a2eddb58def91a9e0fce7212db3834827" target="_top" xlink:title="Get the GraphModule that contains this GraphFunction. ">
<polygon fill="#ffffff" stroke="#000000" points="710,-392.5 710,-422.5 814,-422.5 814,-392.5 710,-392.5"/>
<text text-anchor="start" x="718" y="-410.5" font-family="Helvetica,sans-Serif" font-size="10.00" fill="#000000">chig::GraphFunction</text>
<text text-anchor="middle" x="762" y="-399.5" font-family="Helvetica,sans-Serif" font-size="10.00" fill="#000000">::module</text>
</a>
</g>
</g>
<!-- Node569&#45;&gt;Node570 -->
<g id="edge14" class="edge">
<title>Node569&#45;&gt;Node570</title>
<path fill="none" stroke="#191970" d="M652.047,-348.6111C659.5257,-351.5793 667.0816,-354.9013 674,-358.5 691.2815,-367.4892 693.0923,-373.8261 710,-383.5 712.6335,-385.0068 715.3781,-386.4954 718.1698,-387.9487"/>
<polygon fill="#191970" stroke="#191970" points="716.6591,-391.1064 727.1684,-392.4494 719.7904,-384.8458 716.6591,-391.1064"/>
</g>
<!-- Node571 -->
<g id="node16" class="node">
<title>Node571</title>
<g id="a_node16"><a xlink:href="structchig_1_1GraphFunction.html#a3291c0b882b4f73e5d60af4ca75b1a37" target="_top" xlink:title="Get the name of the function. ">
<polygon fill="#ffffff" stroke="#000000" points="710,-343.5 710,-373.5 814,-373.5 814,-343.5 710,-343.5"/>
<text text-anchor="start" x="718" y="-361.5" font-family="Helvetica,sans-Serif" font-size="10.00" fill="#000000">chig::GraphFunction</text>
<text text-anchor="middle" x="762" y="-350.5" font-family="Helvetica,sans-Serif" font-size="10.00" fill="#000000">::name</text>
</a>
</g>
</g>
<!-- Node569&#45;&gt;Node571 -->
<g id="edge15" class="edge">
<title>Node569&#45;&gt;Node571</title>
<path fill="none" stroke="#191970" d="M658.3797,-341.8942C671.5698,-344.008 685.8595,-346.298 699.4914,-348.4826"/>
<polygon fill="#191970" stroke="#191970" points="699.3307,-352.0014 709.7585,-350.128 700.4384,-345.0896 699.3307,-352.0014"/>
</g>
<!-- Node573 -->
<g id="node18" class="node">
<title>Node573</title>
<g id="a_node18"><a xlink:href="structchig_1_1GraphFunction.html#aa654ba8bbf9652b8595ce9bdf488fbfc" target="_top" xlink:title="Add an input to the end of the argument list. ">
<polygon fill="#ffffff" stroke="#000000" points="710,-294.5 710,-324.5 814,-324.5 814,-294.5 710,-294.5"/>
<text text-anchor="start" x="718" y="-312.5" font-family="Helvetica,sans-Serif" font-size="10.00" fill="#000000">chig::GraphFunction</text>
<text text-anchor="middle" x="762" y="-301.5" font-family="Helvetica,sans-Serif" font-size="10.00" fill="#000000">::addDataInput</text>
</a>
</g>
</g>
<!-- Node572&#45;&gt;Node573 -->
<g id="edge17" class="edge">
<title>Node572&#45;&gt;Node573</title>
<path fill="none" stroke="#191970" d="M654.0781,-275.6014C670.0183,-280.6083 687.9237,-286.2324 704.4996,-291.439"/>
<polygon fill="#191970" stroke="#191970" points="703.4914,-294.7908 714.0807,-294.4484 705.5891,-288.1125 703.4914,-294.7908"/>
</g>
<!-- Node574 -->
<g id="node19" class="node">
<title>Node574</title>
<g id="a_node19"><a xlink:href="structchig_1_1GraphFunction.html#a37067fab63f7d4c0299973382ef5607b" target="_top" xlink:title="Remove an input from the argument list Also removes invalid connections If idx is out of range...">
<polygon fill="#ffffff" stroke="#000000" points="710,-245.5 710,-275.5 814,-275.5 814,-245.5 710,-245.5"/>
<text text-anchor="start" x="718" y="-263.5" font-family="Helvetica,sans-Serif" font-size="10.00" fill="#000000">chig::GraphFunction</text>
<text text-anchor="middle" x="762" y="-252.5" font-family="Helvetica,sans-Serif" font-size="10.00" fill="#000000">::removeDataInput</text>
</a>
</g>
</g>
<!-- Node572&#45;&gt;Node574 -->
<g id="edge18" class="edge">
<title>Node572&#45;&gt;Node574</title>
<path fill="none" stroke="#191970" d="M658.3797,-260.5C671.5698,-260.5 685.8595,-260.5 699.4914,-260.5"/>
<polygon fill="#191970" stroke="#191970" points="699.7586,-264.0001 709.7585,-260.5 699.7585,-257.0001 699.7586,-264.0001"/>
</g>
<!-- Node575 -->
<g id="node20" class="node">
<title>Node575</title>
<g id="a_node20"><a xlink:href="structchig_1_1GraphFunction.html#ae7ea26fbaf4f04f7be23d62195645211" target="_top" xlink:title="Rename a data input This also updates the entry node If idx is out of range, this function does nothi...">
<polygon fill="#ffffff" stroke="#000000" points="710,-196.5 710,-226.5 814,-226.5 814,-196.5 710,-196.5"/>
<text text-anchor="start" x="718" y="-214.5" font-family="Helvetica,sans-Serif" font-size="10.00" fill="#000000">chig::GraphFunction</text>
<text text-anchor="middle" x="762" y="-203.5" font-family="Helvetica,sans-Serif" font-size="10.00" fill="#000000">::renameDataInput</text>
</a>
</g>
</g>
<!-- Node572&#45;&gt;Node575 -->
<g id="edge19" class="edge">
<title>Node572&#45;&gt;Node575</title>
<path fill="none" stroke="#191970" d="M654.0781,-245.3986C670.0183,-240.3917 687.9237,-234.7676 704.4996,-229.561"/>
<polygon fill="#191970" stroke="#191970" points="705.5891,-232.8875 714.0807,-226.5516 703.4914,-226.2092 705.5891,-232.8875"/>
</g>
<!-- Node576 -->
<g id="node21" class="node">
<title>Node576</title>
<g id="a_node21"><a xlink:href="structchig_1_1GraphFunction.html#ad1ae363954d22ece7f8234b623330a47" target="_top" xlink:title="Change the type of a data input This also updates the entry node and disconnects invalid connections...">
<polygon fill="#ffffff" stroke="#000000" points="710,-147.5 710,-177.5 814,-177.5 814,-147.5 710,-147.5"/>
<text text-anchor="start" x="718" y="-165.5" font-family="Helvetica,sans-Serif" font-size="10.00" fill="#000000">chig::GraphFunction</text>
<text text-anchor="middle" x="762" y="-154.5" font-family="Helvetica,sans-Serif" font-size="10.00" fill="#000000">::retypeDataInput</text>
</a>
</g>
</g>
<!-- Node572&#45;&gt;Node576 -->
<g id="edge20" class="edge">
<title>Node572&#45;&gt;Node576</title>
<path fill="none" stroke="#191970" d="M625.677,-245.2211C646.1236,-229.7006 679.3581,-205.4569 710,-187.5 713.0302,-185.7242 716.2058,-183.9659 719.4301,-182.2536"/>
<polygon fill="#191970" stroke="#191970" points="721.2616,-185.248 728.5658,-177.5734 718.0699,-179.0179 721.2616,-185.248"/>
</g>
<!-- Node578 -->
<g id="node23" class="node">
<title>Node578</title>
<g id="a_node23"><a xlink:href="structchig_1_1GraphFunction.html#a93bbd277495761f3ab308d0dd402a8fc" target="_top" xlink:title="Add an exec input to the end of the argument list. ">
<polygon fill="#ffffff" stroke="#000000" points="710,-98.5 710,-128.5 814,-128.5 814,-98.5 710,-98.5"/>
<text text-anchor="start" x="718" y="-116.5" font-family="Helvetica,sans-Serif" font-size="10.00" fill="#000000">chig::GraphFunction</text>
<text text-anchor="middle" x="762" y="-105.5" font-family="Helvetica,sans-Serif" font-size="10.00" fill="#000000">::addExecInput</text>
</a>
</g>
</g>
<!-- Node577&#45;&gt;Node578 -->
<g id="edge22" class="edge">
<title>Node577&#45;&gt;Node578</title>
<path fill="none" stroke="#191970" d="M658.3797,-97.5584C671.5698,-99.5877 685.8595,-101.7861 699.4914,-103.8833"/>
<polygon fill="#191970" stroke="#191970" points="699.3426,-107.4015 709.7585,-105.4629 700.407,-100.4829 699.3426,-107.4015"/>
</g>
<!-- Node579 -->
<g id="node24" class="node">
<title>Node579</title>
<g id="a_node24"><a xlink:href="structchig_1_1GraphFunction.html#a66ce414a8fddb835759fb9e7bacf653d" target="_top" xlink:title="Remove an exec input from the argument list If idx is out of range, this function does nothing...">
<polygon fill="#ffffff" stroke="#000000" points="710,-49.5 710,-79.5 814,-79.5 814,-49.5 710,-49.5"/>
<text text-anchor="start" x="718" y="-67.5" font-family="Helvetica,sans-Serif" font-size="10.00" fill="#000000">chig::GraphFunction</text>
<text text-anchor="middle" x="762" y="-56.5" font-family="Helvetica,sans-Serif" font-size="10.00" fill="#000000">::removeExecInput</text>
</a>
</g>
</g>
<!-- Node577&#45;&gt;Node579 -->
<g id="edge23" class="edge">
<title>Node577&#45;&gt;Node579</title>
<path fill="none" stroke="#191970" d="M658.3797,-81.1058C671.5698,-78.992 685.8595,-76.702 699.4914,-74.5174"/>
<polygon fill="#191970" stroke="#191970" points="700.4384,-77.9104 709.7585,-72.872 699.3307,-70.9986 700.4384,-77.9104"/>
</g>
<!-- Node580 -->
<g id="node25" class="node">
<title>Node580</title>
<g id="a_node25"><a xlink:href="structchig_1_1GraphFunction.html#a5d5b8c408ae7ae9692962cf2de1282fd" target="_top" xlink:title="Change the name for an exec input If idx is out of range, this function does nothing. ">
<polygon fill="#ffffff" stroke="#000000" points="710,-.5 710,-30.5 814,-30.5 814,-.5 710,-.5"/>
<text text-anchor="start" x="718" y="-18.5" font-family="Helvetica,sans-Serif" font-size="10.00" fill="#000000">chig::GraphFunction</text>
<text text-anchor="middle" x="762" y="-7.5" font-family="Helvetica,sans-Serif" font-size="10.00" fill="#000000">::renameExecInput</text>
</a>
</g>
</g>
<!-- Node577&#45;&gt;Node580 -->
<g id="edge24" class="edge">
<title>Node577&#45;&gt;Node580</title>
<path fill="none" stroke="#191970" d="M636.8841,-74.4951C657.5412,-64.4976 685.3523,-51.112 710,-39.5 713.2971,-37.9467 716.7162,-36.3461 720.1547,-34.7437"/>
<polygon fill="#191970" stroke="#191970" points="721.6357,-37.915 729.2314,-30.5288 718.6875,-31.5661 721.6357,-37.915"/>
</g>
</g>
</svg>
