<?xml version="1.0" encoding="UTF-8" standalone="no"?>
<!DOCTYPE svg PUBLIC "-//W3C//DTD SVG 1.1//EN"
 "http://www.w3.org/Graphics/SVG/1.1/DTD/svg11.dtd">
<!-- Generated by graphviz version 2.40.1 (20161225.0304)
 -->
<!-- Title: chig::parseObjectPair Pages: 1 -->
<!--zoomable 129 -->
<svg id="main" version="1.1" xmlns="http://www.w3.org/2000/svg" xmlns:xlink="http://www.w3.org/1999/xlink" xml:space="preserve" onload="init(evt)">
<style type="text/css"><![CDATA[
.edge:hover path { stroke: red; }
.edge:hover polygon { stroke: red; fill: red; }
]]></style>
<script type="text/javascript"><![CDATA[
var edges = document.getElementsByTagName('g');
if (edges && edges.length) {
  for (var i=0;i<edges.length;i++) {
    if (edges[i].id.substr(0,4)=='edge') {
      edges[i].setAttribute('class','edge');
    }
  }
}
]]></script>
        <defs>
                <circle id="rim" cx="0" cy="0" r="7"/>
                <circle id="rim2" cx="0" cy="0" r="3.5"/>
                <g id="zoomPlus">
                        <use xlink:href="#rim" fill="#404040">
                                <set attributeName="fill" to="#808080" begin="zoomplus.mouseover" end="zoomplus.mouseout"/>
                        </use>
                        <path d="M-4,0h8M0,-4v8" fill="none" stroke="white" stroke-width="1.5" pointer-events="none"/>
                </g>
                <g id="zoomMin">
                        <use xlink:href="#rim" fill="#404040">
                                <set attributeName="fill" to="#808080" begin="zoomminus.mouseover" end="zoomminus.mouseout"/>
                        </use>
                        <path d="M-4,0h8" fill="none" stroke="white" stroke-width="1.5" pointer-events="none"/>
                </g>
                <g id="dirArrow">
                        <path fill="none" stroke="white" stroke-width="1.5" d="M0,-3.0v7 M-2.5,-0.5L0,-3.0L2.5,-0.5"/>
                </g>
               <g id="resetDef">
                       <use xlink:href="#rim2" fill="#404040">
                               <set attributeName="fill" to="#808080" begin="reset.mouseover" end="reset.mouseout"/>
                       </use>
               </g>
        </defs>

<script type="text/javascript">
var viewWidth = 1543;
var viewHeight = 129;
var sectionId = 'dynsection-31';
</script>
<script xlink:href="svgpan.js"/>
<svg id="graph" class="graph">
<g id="viewport">
<title>chig::parseObjectPair</title>
<polygon fill="#ffffff" stroke="transparent" points="-4,4 -4,-125 1539,-125 1539,4 -4,4"/>
<!-- Node528 -->
<g id="node1" class="node">
<title>Node528</title>
<polygon fill="#bfbfbf" stroke="#000000" points="0,-38.5 0,-57.5 110,-57.5 110,-38.5 0,-38.5"/>
<text text-anchor="middle" x="55" y="-45.5" font-family="Helvetica,sans-Serif" font-size="10.00" fill="#000000">chig::parseObjectPair</text>
</g>
<!-- Node529 -->
<g id="node2" class="node">
<title>Node529</title>
<g id="a_node2"><a xlink:href="namespacechig.html#a860a6f4d8180f1fb71729896291891b7" target="_top" xlink:title="Create a forward declaration of a function in a module with an empty graph. ">
<polygon fill="#ffffff" stroke="#000000" points="168.5,-77 168.5,-107 299.5,-107 299.5,-77 168.5,-77"/>
<text text-anchor="start" x="176.5" y="-95" font-family="Helvetica,sans-Serif" font-size="10.00" fill="#000000">chig::createGraphFunction</text>
<text text-anchor="middle" x="234" y="-84" font-family="Helvetica,sans-Serif" font-size="10.00" fill="#000000">DeclarationFromJson</text>
</a>
</g>
</g>
<!-- Node528&#45;&gt;Node529 -->
<g id="edge1" class="edge">
<title>Node528&#45;&gt;Node529</title>
<path fill="none" stroke="#191970" d="M103.6353,-59.955C124.9287,-65.1892 150.1519,-71.3893 172.7114,-76.9346"/>
<polygon fill="#191970" stroke="#191970" points="104.3868,-56.5356 93.8403,-57.5473 102.7158,-63.3333 104.3868,-56.5356"/>
</g>
<!-- Node539 -->
<g id="node12" class="node">
<title>Node539</title>
<g id="a_node12"><a xlink:href="namespacechig.html#a2af3c68005d33184e5e66b35c4737902" target="_top" xlink:title="Load a GraphStruct from json. ">
<polygon fill="#ffffff" stroke="#000000" points="173,-38.5 173,-57.5 295,-57.5 295,-38.5 173,-38.5"/>
<text text-anchor="middle" x="234" y="-45.5" font-family="Helvetica,sans-Serif" font-size="10.00" fill="#000000">chig::jsonToGraphStruct</text>
</a>
</g>
</g>
<!-- Node528&#45;&gt;Node539 -->
<g id="edge11" class="edge">
<title>Node528&#45;&gt;Node539</title>
<path fill="none" stroke="#191970" d="M120.5994,-48C137.6539,-48 155.9578,-48 172.7769,-48"/>
<polygon fill="#191970" stroke="#191970" points="120.1665,-44.5001 110.1665,-48 120.1665,-51.5001 120.1665,-44.5001"/>
</g>
<!-- Node540 -->
<g id="node13" class="node">
<title>Node540</title>
<g id="a_node13"><a xlink:href="structchig_1_1CModule.html#a2cabea4f20241d1c2451fd5b9c4dc9c7" target="_top" xlink:title="Create a node type that is in the module from the name and json. ">
<polygon fill="#ffffff" stroke="#000000" points="146,-.5 146,-19.5 322,-19.5 322,-.5 146,-.5"/>
<text text-anchor="middle" x="234" y="-7.5" font-family="Helvetica,sans-Serif" font-size="10.00" fill="#000000">chig::CModule::nodeTypeFromName</text>
</a>
</g>
</g>
<!-- Node528&#45;&gt;Node540 -->
<g id="edge13" class="edge">
<title>Node528&#45;&gt;Node540</title>
<path fill="none" stroke="#191970" d="M110.0236,-36.319C135.4082,-30.9301 165.1607,-24.6139 189.1556,-19.5201"/>
<polygon fill="#191970" stroke="#191970" points="109.2244,-32.9106 100.1693,-38.411 110.6781,-39.758 109.2244,-32.9106"/>
</g>
<!-- Node530 -->
<g id="node3" class="node">
<title>Node530</title>
<g id="a_node3"><a xlink:href="namespacechig.html#a3b1bc50c9d7b3cdb17ffcb3ad602f7ab" target="_top" xlink:title="Load a GraphModule from json. ">
<polygon fill="#ffffff" stroke="#000000" points="358,-60.5 358,-79.5 486,-79.5 486,-60.5 358,-60.5"/>
<text text-anchor="middle" x="422" y="-67.5" font-family="Helvetica,sans-Serif" font-size="10.00" fill="#000000">chig::jsonToGraphModule</text>
</a>
</g>
</g>
<!-- Node529&#45;&gt;Node530 -->
<g id="edge2" class="edge">
<title>Node529&#45;&gt;Node530</title>
<path fill="none" stroke="#191970" d="M310.0552,-83.0999C325.9176,-81.2437 342.488,-79.3046 357.8679,-77.5048"/>
<polygon fill="#191970" stroke="#191970" points="309.2787,-79.6668 299.7533,-84.3055 310.0923,-86.6194 309.2787,-79.6668"/>
</g>
<!-- Node531 -->
<g id="node4" class="node">
<title>Node531</title>
<g id="a_node4"><a xlink:href="structchig_1_1Context.html#a077f8ef8c0dd541ec2e2d64bcd8f9fc0" target="_top" xlink:title="Load a module from JSON – avoid this use the string overload. ">
<polygon fill="#ffffff" stroke="#000000" points="522,-55 522,-85 650,-85 650,-55 522,-55"/>
<text text-anchor="start" x="530" y="-73" font-family="Helvetica,sans-Serif" font-size="10.00" fill="#000000">chig::Context::addModule</text>
<text text-anchor="middle" x="586" y="-62" font-family="Helvetica,sans-Serif" font-size="10.00" fill="#000000">FromJson</text>
</a>
</g>
</g>
<!-- Node530&#45;&gt;Node531 -->
<g id="edge3" class="edge">
<title>Node530&#45;&gt;Node531</title>
<path fill="none" stroke="#191970" d="M496.5641,-70C505.0037,-70 513.5492,-70 521.8391,-70"/>
<polygon fill="#191970" stroke="#191970" points="496.3465,-66.5001 486.3464,-70 496.3464,-73.5001 496.3465,-66.5001"/>
</g>
<!-- Node532 -->
<g id="node5" class="node">
<title>Node532</title>
<g id="a_node5"><a xlink:href="structchig_1_1Context.html#a75ab64b58e168998761ed6ebd5e493b2" target="_top" xlink:title="Load a module from disk. ">
<polygon fill="#ffffff" stroke="#000000" points="686,-60.5 686,-79.5 816,-79.5 816,-60.5 686,-60.5"/>
<text text-anchor="middle" x="751" y="-67.5" font-family="Helvetica,sans-Serif" font-size="10.00" fill="#000000">chig::Context::loadModule</text>
</a>
</g>
</g>
<!-- Node531&#45;&gt;Node532 -->
<g id="edge4" class="edge">
<title>Node531&#45;&gt;Node532</title>
<path fill="none" stroke="#191970" d="M660.4926,-70C668.9426,-70 677.5057,-70 685.8228,-70"/>
<polygon fill="#191970" stroke="#191970" points="660.2658,-66.5001 650.2658,-70 660.2657,-73.5001 660.2658,-66.5001"/>
</g>
<!-- Node533 -->
<g id="node6" class="node">
<title>Node533</title>
<g id="a_node6"><a xlink:href="structchig_1_1ChigModule.html#ad5feee65f261f3777edddd027eb89400" target="_top" xlink:title="Add a dependency to the module Loads the module from context() if it isn&#39;t already loaded...">
<polygon fill="#ffffff" stroke="#000000" points="852,-60.5 852,-79.5 1019,-79.5 1019,-60.5 852,-60.5"/>
<text text-anchor="middle" x="935.5" y="-67.5" font-family="Helvetica,sans-Serif" font-size="10.00" fill="#000000">chig::ChigModule::addDependency</text>
</a>
</g>
</g>
<!-- Node532&#45;&gt;Node533 -->
<g id="edge5" class="edge">
<title>Node532&#45;&gt;Node533</title>
<path fill="none" stroke="#191970" d="M826.2627,-70C834.734,-70 843.4033,-70 851.9713,-70"/>
<polygon fill="#191970" stroke="#191970" points="826.0478,-66.5001 816.0478,-70 826.0478,-73.5001 826.0478,-66.5001"/>
</g>
<!-- Node534 -->
<g id="node7" class="node">
<title>Node534</title>
<g id="a_node7"><a xlink:href="structchig_1_1ChigModule.html#a7f239dc07b0a4d74d6907da6f25127dc" target="_top" xlink:title="Get the dependencies. ">
<polygon fill="#ffffff" stroke="#000000" points="1055,-82.5 1055,-101.5 1213,-101.5 1213,-82.5 1055,-82.5"/>
<text text-anchor="middle" x="1134" y="-89.5" font-family="Helvetica,sans-Serif" font-size="10.00" fill="#000000">chig::ChigModule::dependencies</text>
</a>
</g>
</g>
<!-- Node533&#45;&gt;Node534 -->
<g id="edge6" class="edge">
<title>Node533&#45;&gt;Node534</title>
<path fill="none" stroke="#191970" d="M1029.1763,-80.3823C1037.7894,-81.3369 1046.4588,-82.2977 1054.9237,-83.2359"/>
<polygon fill="#191970" stroke="#191970" points="1029.4313,-76.8892 1019.1066,-79.2662 1028.6601,-83.8466 1029.4313,-76.8892"/>
</g>
<!-- Node538 -->
<g id="node11" class="node">
<title>Node538</title>
<g id="a_node11"><a xlink:href="structchig_1_1GraphModule.html#a65458343d0344b6b806f9b0b780b32f4" target="_top" xlink:title="Construct a GraphModule. ">
<polygon fill="#ffffff" stroke="#000000" points="1082,-33 1082,-63 1186,-63 1186,-33 1082,-33"/>
<text text-anchor="start" x="1090" y="-51" font-family="Helvetica,sans-Serif" font-size="10.00" fill="#000000">chig::GraphModule::</text>
<text text-anchor="middle" x="1134" y="-40" font-family="Helvetica,sans-Serif" font-size="10.00" fill="#000000">GraphModule</text>
</a>
</g>
</g>
<!-- Node533&#45;&gt;Node538 -->
<g id="edge10" class="edge">
<title>Node533&#45;&gt;Node538</title>
<path fill="none" stroke="#191970" d="M1029.1462,-59.6211C1047.2917,-57.61 1065.6879,-55.5711 1081.8981,-53.7745"/>
<polygon fill="#191970" stroke="#191970" points="1028.6601,-56.1534 1019.1066,-60.7338 1029.4313,-63.1108 1028.6601,-56.1534"/>
</g>
<!-- Node535 -->
<g id="node8" class="node">
<title>Node535</title>
<g id="a_node8"><a xlink:href="structchig_1_1Context.html#ac585794db13b27b3f69a51aa9d7fd01c" target="_top" xlink:title="Compile a module to a llvm::Module. ">
<polygon fill="#ffffff" stroke="#000000" points="1249,-101.5 1249,-120.5 1395,-120.5 1395,-101.5 1249,-101.5"/>
<text text-anchor="middle" x="1322" y="-108.5" font-family="Helvetica,sans-Serif" font-size="10.00" fill="#000000">chig::Context::compileModule</text>
</a>
</g>
</g>
<!-- Node534&#45;&gt;Node535 -->
<g id="edge7" class="edge">
<title>Node534&#45;&gt;Node535</title>
<path fill="none" stroke="#191970" d="M1223.2342,-101.0183C1231.831,-101.8872 1240.4811,-102.7614 1248.8959,-103.6118"/>
<polygon fill="#191970" stroke="#191970" points="1223.4853,-97.526 1213.184,-100.0026 1222.7814,-104.4905 1223.4853,-97.526"/>
</g>
<!-- Node536 -->
<g id="node9" class="node">
<title>Node536</title>
<g id="a_node9"><a xlink:href="namespacechig.html#aaef3bb08f472ae32b2d3b292e69a007a" target="_top" xlink:title="Serialize a JsonModule to json. ">
<polygon fill="#ffffff" stroke="#000000" points="1258,-63.5 1258,-82.5 1386,-82.5 1386,-63.5 1258,-63.5"/>
<text text-anchor="middle" x="1322" y="-70.5" font-family="Helvetica,sans-Serif" font-size="10.00" fill="#000000">chig::graphModuleToJson</text>
</a>
</g>
</g>
<!-- Node534&#45;&gt;Node536 -->
<g id="edge8" class="edge">
<title>Node534&#45;&gt;Node536</title>
<path fill="none" stroke="#191970" d="M1223.3387,-82.9711C1234.9421,-81.7984 1246.6405,-80.6161 1257.7243,-79.496"/>
<polygon fill="#191970" stroke="#191970" points="1222.7814,-79.5095 1213.184,-83.9974 1223.4853,-86.474 1222.7814,-79.5095"/>
</g>
<!-- Node537 -->
<g id="node10" class="node">
<title>Node537</title>
<g id="a_node10"><a xlink:href="structchig_1_1GraphModule.html#accb1a64da697a29e28d78a9a09bd52ff" target="_top" xlink:title="Serialize to disk in the context. ">
<polygon fill="#ffffff" stroke="#000000" points="1431,-58 1431,-88 1535,-88 1535,-58 1431,-58"/>
<text text-anchor="start" x="1439" y="-76" font-family="Helvetica,sans-Serif" font-size="10.00" fill="#000000">chig::GraphModule::</text>
<text text-anchor="middle" x="1483" y="-65" font-family="Helvetica,sans-Serif" font-size="10.00" fill="#000000">saveToDisk</text>
</a>
</g>
</g>
<!-- Node536&#45;&gt;Node537 -->
<g id="edge9" class="edge">
<title>Node536&#45;&gt;Node537</title>
<path fill="none" stroke="#191970" d="M1396.2614,-73C1407.9107,-73 1419.7352,-73 1430.7514,-73"/>
<polygon fill="#191970" stroke="#191970" points="1396.0941,-69.5001 1386.0941,-73 1396.094,-76.5001 1396.0941,-69.5001"/>
</g>
<!-- Node539&#45;&gt;Node530 -->
<g id="edge12" class="edge">
<title>Node539&#45;&gt;Node530</title>
<path fill="none" stroke="#191970" d="M305.0721,-56.3169C322.3627,-58.3403 340.7555,-60.4927 357.7109,-62.4768"/>
<polygon fill="#191970" stroke="#191970" points="305.3773,-52.8289 295.0382,-55.1428 304.5636,-59.7814 305.3773,-52.8289"/>
</g>
</g>
</svg>
        <g id="navigator" transform="translate(0 0)" fill="#404254">
                <rect fill="#f2f5e9" fill-opacity="0.5" stroke="#606060" stroke-width=".5" x="0" y="0" width="60" height="60"/>
                <use id="zoomplus" xlink:href="#zoomPlus" x="17" y="9" onmousedown="handleZoom(evt,'in')"/>
                <use id="zoomminus" xlink:href="#zoomMin" x="42" y="9" onmousedown="handleZoom(evt,'out')"/>
                <use id="reset" xlink:href="#resetDef" x="30" y="36" onmousedown="handleReset()"/>
                <g id="arrowUp" xlink:href="#dirArrow" transform="translate(30 24)" onmousedown="handlePan(0,-1)">
                  <use xlink:href="#rim" fill="#404040">
                        <set attributeName="fill" to="#808080" begin="arrowUp.mouseover" end="arrowUp.mouseout"/>
                  </use>
                  <path fill="none" stroke="white" stroke-width="1.5" d="M0,-3.0v7 M-2.5,-0.5L0,-3.0L2.5,-0.5"/>
                </g>
                <g id="arrowRight" xlink:href="#dirArrow" transform="rotate(90) translate(36 -43)" onmousedown="handlePan(1,0)">
                  <use xlink:href="#rim" fill="#404040">
                        <set attributeName="fill" to="#808080" begin="arrowRight.mouseover" end="arrowRight.mouseout"/>
                  </use>
                  <path fill="none" stroke="white" stroke-width="1.5" d="M0,-3.0v7 M-2.5,-0.5L0,-3.0L2.5,-0.5"/>
                </g>
                <g id="arrowDown" xlink:href="#dirArrow" transform="rotate(180) translate(-30 -48)" onmousedown="handlePan(0,1)">
                  <use xlink:href="#rim" fill="#404040">
                        <set attributeName="fill" to="#808080" begin="arrowDown.mouseover" end="arrowDown.mouseout"/>
                  </use>
                  <path fill="none" stroke="white" stroke-width="1.5" d="M0,-3.0v7 M-2.5,-0.5L0,-3.0L2.5,-0.5"/>
                </g>
                <g id="arrowLeft" xlink:href="#dirArrow" transform="rotate(270) translate(-36 17)" onmousedown="handlePan(-1,0)">
                  <use xlink:href="#rim" fill="#404040">
                        <set attributeName="fill" to="#808080" begin="arrowLeft.mouseover" end="arrowLeft.mouseout"/>
                  </use>
                  <path fill="none" stroke="white" stroke-width="1.5" d="M0,-3.0v7 M-2.5,-0.5L0,-3.0L2.5,-0.5"/>
                </g>
        </g>
        <svg viewBox="0 0 15 15" width="100%" height="30px" preserveAspectRatio="xMaxYMin meet">
         <g id="arrow_out" transform="scale(0.3 0.3)">
          <a xlink:href="namespacechig_a6326319f539f0f122c9784079c859bd3_icgraph_org.svg" target="_base">
           <rect id="button" ry="5" rx="5" y="6" x="6" height="38" width="38"
                fill="#f2f5e9" fill-opacity="0.5" stroke="#606060" stroke-width="1.0"/>
           <path id="arrow"
             d="M 11.500037,31.436501 C 11.940474,20.09759 22.043105,11.32322 32.158766,21.979434 L 37.068811,17.246167 C 37.068811,17.246167 37.088388,32 37.088388,32 L 22.160133,31.978069 C 22.160133,31.978069 26.997745,27.140456 26.997745,27.140456 C 18.528582,18.264221 13.291696,25.230495 11.500037,31.436501 z"
             style="fill:#404040;"/>
          </a>
         </g>
        </svg>
</svg>
