<?xml version="1.0" encoding="UTF-8" standalone="no"?>
<!DOCTYPE svg PUBLIC "-//W3C//DTD SVG 1.1//EN"
 "http://www.w3.org/Graphics/SVG/1.1/DTD/svg11.dtd">
<!-- Generated by graphviz version 2.40.1 (20161225.0304)
 -->
<!-- Title: chig::createGraphFunctionDeclarationFromJson Pages: 1 -->
<svg width="528pt" height="327pt"
 viewBox="0.00 0.00 528.00 326.50" xmlns="http://www.w3.org/2000/svg" xmlns:xlink="http://www.w3.org/1999/xlink">
<g id="graph0" class="graph" transform="scale(1 1) rotate(0) translate(4 322.5)">
<title>chig::createGraphFunctionDeclarationFromJson</title>
<polygon fill="#ffffff" stroke="transparent" points="-4,4 -4,-322.5 524,-322.5 524,4 -4,4"/>
<!-- Node108 -->
<g id="node1" class="node">
<title>Node108</title>
<polygon fill="#bfbfbf" stroke="#000000" points="0,-140 0,-170 131,-170 131,-140 0,-140"/>
<text text-anchor="start" x="8" y="-158" font-family="Helvetica,sans-Serif" font-size="10.00" fill="#000000">chig::createGraphFunction</text>
<text text-anchor="middle" x="65.5" y="-147" font-family="Helvetica,sans-Serif" font-size="10.00" fill="#000000">DeclarationFromJson</text>
</g>
<!-- Node109 -->
<g id="node2" class="node">
<title>Node109</title>
<g id="a_node2"><a xlink:href="structchig_1_1Result.html#aabb30a56760c3a817518912d9eabb491" target="_top" xlink:title="Add a entry to the result, either a warning or an error. ">
<polygon fill="#ffffff" stroke="#000000" points="381.5,-70.5 381.5,-89.5 494.5,-89.5 494.5,-70.5 381.5,-70.5"/>
<text text-anchor="middle" x="438" y="-77.5" font-family="Helvetica,sans-Serif" font-size="10.00" fill="#000000">chig::Result::addEntry</text>
</a>
</g>
</g>
<!-- Node108&#45;&gt;Node109 -->
<g id="edge1" class="edge">
<title>Node108&#45;&gt;Node109</title>
<path fill="none" stroke="#191970" d="M131.1429,-148.0463C182.8492,-141.8864 256.5441,-131.5925 320,-117 347.8862,-110.5872 378.7192,-100.8231 401.8724,-92.9353"/>
<polygon fill="#191970" stroke="#191970" points="403.3012,-96.1449 411.6122,-89.5738 401.0174,-89.5279 403.3012,-96.1449"/>
</g>
<!-- Node110 -->
<g id="node3" class="node">
<title>Node110</title>
<g id="a_node3"><a xlink:href="structchig_1_1ChigModule.html#aad81aae17452ddc5fc43809924236385" target="_top" xlink:title="Get the Context that this module belongs to. ">
<polygon fill="#ffffff" stroke="#000000" points="178.5,-292.5 178.5,-311.5 308.5,-311.5 308.5,-292.5 178.5,-292.5"/>
<text text-anchor="middle" x="243.5" y="-299.5" font-family="Helvetica,sans-Serif" font-size="10.00" fill="#000000">chig::ChigModule::context</text>
</a>
</g>
</g>
<!-- Node108&#45;&gt;Node110 -->
<g id="edge2" class="edge">
<title>Node108&#45;&gt;Node110</title>
<path fill="none" stroke="#191970" d="M73.5945,-170.3929C88.4364,-197.0866 122.6011,-251.8926 167,-281 171.6072,-284.0204 176.6423,-286.6097 181.8592,-288.8287"/>
<polygon fill="#191970" stroke="#191970" points="180.8011,-292.1705 191.3926,-292.4364 183.2786,-285.6236 180.8011,-292.1705"/>
</g>
<!-- Node112 -->
<g id="node5" class="node">
<title>Node112</title>
<g id="a_node5"><a xlink:href="structchig_1_1ChigModule.html#ad730121a133fbc474fcb71d49f31f7b3" target="_top" xlink:title="Get the full name of the module. ">
<polygon fill="#ffffff" stroke="#000000" points="175.5,-202.5 175.5,-221.5 311.5,-221.5 311.5,-202.5 175.5,-202.5"/>
<text text-anchor="middle" x="243.5" y="-209.5" font-family="Helvetica,sans-Serif" font-size="10.00" fill="#000000">chig::ChigModule::fullName</text>
</a>
</g>
</g>
<!-- Node108&#45;&gt;Node112 -->
<g id="edge4" class="edge">
<title>Node108&#45;&gt;Node112</title>
<path fill="none" stroke="#191970" d="M102.7428,-170.1141C121.7848,-177.5416 145.4349,-186.3094 167,-193 174.8053,-195.4216 183.132,-197.7474 191.3121,-199.8902"/>
<polygon fill="#191970" stroke="#191970" points="190.6174,-203.325 201.1724,-202.4074 192.3489,-196.5425 190.6174,-203.325"/>
</g>
<!-- Node113 -->
<g id="node6" class="node">
<title>Node113</title>
<g id="a_node6"><a xlink:href="structchig_1_1GraphModule.html#a628d997f3978987e06a1fc05f86aab36" target="_top" xlink:title="Create a new function if it does&#39;t already exist. ">
<polygon fill="#ffffff" stroke="#000000" points="190,-241 190,-271 297,-271 297,-241 190,-241"/>
<text text-anchor="start" x="198" y="-259" font-family="Helvetica,sans-Serif" font-size="10.00" fill="#000000">chig::GraphModule::</text>
<text text-anchor="middle" x="243.5" y="-248" font-family="Helvetica,sans-Serif" font-size="10.00" fill="#000000">getOrCreateFunction</text>
</a>
</g>
</g>
<!-- Node108&#45;&gt;Node113 -->
<g id="edge5" class="edge">
<title>Node108&#45;&gt;Node113</title>
<path fill="none" stroke="#191970" d="M81.9452,-170.0231C101.1247,-186.8703 134.3791,-214.0469 167,-231 171.2696,-233.2189 175.7748,-235.2933 180.3751,-237.2218"/>
<polygon fill="#191970" stroke="#191970" points="179.319,-240.5674 189.906,-240.975 181.8839,-234.0542 179.319,-240.5674"/>
</g>
<!-- Node115 -->
<g id="node8" class="node">
<title>Node115</title>
<g id="a_node8"><a xlink:href="namespacechig.html#afcb097e8f99cd26ed33dd582f0d952f0" target="_top" xlink:title="Parse a colonated pair Example: lang:i32 would turn into {lang, i32}. ">
<polygon fill="#ffffff" stroke="#000000" points="190,-164.5 190,-183.5 297,-183.5 297,-164.5 190,-164.5"/>
<text text-anchor="middle" x="243.5" y="-171.5" font-family="Helvetica,sans-Serif" font-size="10.00" fill="#000000">chig::parseColonPair</text>
</a>
</g>
</g>
<!-- Node108&#45;&gt;Node115 -->
<g id="edge7" class="edge">
<title>Node108&#45;&gt;Node115</title>
<path fill="none" stroke="#191970" d="M131.0223,-161.994C146.8789,-163.6865 163.8064,-165.4934 179.5878,-167.1779"/>
<polygon fill="#191970" stroke="#191970" points="179.4551,-170.6836 189.7702,-168.2648 180.1982,-163.7231 179.4551,-170.6836"/>
</g>
<!-- Node118 -->
<g id="node11" class="node">
<title>Node118</title>
<g id="a_node11"><a xlink:href="namespacechig.html#a6326319f539f0f122c9784079c859bd3" target="_top" xlink:title="Parse something that looks like: {&quot;hello&quot;: &quot;there&quot;} into {&quot;hello&quot;, &quot;there&quot;}. ">
<polygon fill="#ffffff" stroke="#000000" points="188.5,-88.5 188.5,-107.5 298.5,-107.5 298.5,-88.5 188.5,-88.5"/>
<text text-anchor="middle" x="243.5" y="-95.5" font-family="Helvetica,sans-Serif" font-size="10.00" fill="#000000">chig::parseObjectPair</text>
</a>
</g>
</g>
<!-- Node108&#45;&gt;Node118 -->
<g id="edge10" class="edge">
<title>Node108&#45;&gt;Node118</title>
<path fill="none" stroke="#191970" d="M111.4473,-139.9503C128.8378,-134.2834 148.8196,-127.8071 167,-122 178.8093,-118.2279 191.6608,-114.1757 203.4,-110.4947"/>
<polygon fill="#191970" stroke="#191970" points="204.4545,-113.8321 212.9521,-107.5043 202.3631,-107.1518 204.4545,-113.8321"/>
</g>
<!-- Node119 -->
<g id="node12" class="node">
<title>Node119</title>
<g id="a_node12"><a xlink:href="structchig_1_1GraphFunction.html#af4c4bb89b9458debff0efc8f9693d996" target="_top" xlink:title="Set the description of the function. ">
<polygon fill="#ffffff" stroke="#000000" points="191.5,-39 191.5,-69 295.5,-69 295.5,-39 191.5,-39"/>
<text text-anchor="start" x="199.5" y="-57" font-family="Helvetica,sans-Serif" font-size="10.00" fill="#000000">chig::GraphFunction</text>
<text text-anchor="middle" x="243.5" y="-46" font-family="Helvetica,sans-Serif" font-size="10.00" fill="#000000">::setDescription</text>
</a>
</g>
</g>
<!-- Node108&#45;&gt;Node119 -->
<g id="edge11" class="edge">
<title>Node108&#45;&gt;Node119</title>
<path fill="none" stroke="#191970" d="M81.9452,-139.9769C101.1247,-123.1297 134.3791,-95.9531 167,-79 171.6086,-76.6049 176.4918,-74.3782 181.4726,-72.3216"/>
<polygon fill="#191970" stroke="#191970" points="183.068,-75.4569 191.1248,-68.5766 180.5359,-68.9309 183.068,-75.4569"/>
</g>
<!-- Node120 -->
<g id="node13" class="node">
<title>Node120</title>
<g id="a_node13"><a xlink:href="structchig_1_1Context.html#aa484ef2c16aaa4d97a21632af4122bd8" target="_top" xlink:title="Gets a DataType from a module. ">
<polygon fill="#ffffff" stroke="#000000" points="167,-.5 167,-19.5 320,-19.5 320,-.5 167,-.5"/>
<text text-anchor="middle" x="243.5" y="-7.5" font-family="Helvetica,sans-Serif" font-size="10.00" fill="#000000">chig::Context::typeFromModule</text>
</a>
</g>
</g>
<!-- Node108&#45;&gt;Node120 -->
<g id="edge12" class="edge">
<title>Node108&#45;&gt;Node120</title>
<path fill="none" stroke="#191970" d="M73.2899,-139.9191C87.8923,-113.2113 122.0115,-57.7132 167,-29 170.3435,-26.8661 173.9105,-24.9718 177.6076,-23.2902"/>
<polygon fill="#191970" stroke="#191970" points="179.0243,-26.4933 187.0122,-19.5333 176.4274,-19.9928 179.0243,-26.4933"/>
</g>
<!-- Node111 -->
<g id="node4" class="node">
<title>Node111</title>
<g id="a_node4"><a xlink:href="structchig_1_1ChigModule.html#a7864ea1e3388965d05103768757962a4" target="_top" xlink:title="Generate a llvm::Module from the module. ">
<polygon fill="#ffffff" stroke="#000000" points="370.5,-288 370.5,-318 505.5,-318 505.5,-288 370.5,-288"/>
<text text-anchor="start" x="378.5" y="-306" font-family="Helvetica,sans-Serif" font-size="10.00" fill="#000000">chig::ChigModule::generate</text>
<text text-anchor="middle" x="438" y="-295" font-family="Helvetica,sans-Serif" font-size="10.00" fill="#000000">Module</text>
</a>
</g>
</g>
<!-- Node110&#45;&gt;Node111 -->
<g id="edge3" class="edge">
<title>Node110&#45;&gt;Node111</title>
<path fill="none" stroke="#191970" d="M308.5361,-302.3344C324.9978,-302.419 342.8477,-302.5108 359.8823,-302.5984"/>
<polygon fill="#191970" stroke="#191970" points="360.3457,-306.1007 370.3636,-302.6523 360.3818,-299.1008 360.3457,-306.1007"/>
</g>
<!-- Node114 -->
<g id="node7" class="node">
<title>Node114</title>
<g id="a_node7"><a xlink:href="structchig_1_1GraphModule.html#acf2cd8568f77bb56185e87e8ccb5889c" target="_top" xlink:title="Get a function from the name. ">
<polygon fill="#ffffff" stroke="#000000" points="386,-239 386,-269 490,-269 490,-239 386,-239"/>
<text text-anchor="start" x="394" y="-257" font-family="Helvetica,sans-Serif" font-size="10.00" fill="#000000">chig::GraphModule::</text>
<text text-anchor="middle" x="438" y="-246" font-family="Helvetica,sans-Serif" font-size="10.00" fill="#000000">functionFromName</text>
</a>
</g>
</g>
<!-- Node113&#45;&gt;Node114 -->
<g id="edge6" class="edge">
<title>Node113&#45;&gt;Node114</title>
<path fill="none" stroke="#191970" d="M297.1628,-255.4482C321.4743,-255.1982 350.3679,-254.9011 375.6383,-254.6413"/>
<polygon fill="#191970" stroke="#191970" points="375.8921,-258.1389 385.8556,-254.5362 375.8201,-251.1393 375.8921,-258.1389"/>
</g>
<!-- Node116 -->
<g id="node9" class="node">
<title>Node116</title>
<g id="a_node9"><a xlink:href="structchig_1_1GraphFunction.html#a2eddb58def91a9e0fce7212db3834827" target="_top" xlink:title="Get the GraphModule that contains this GraphFunction. ">
<polygon fill="#ffffff" stroke="#000000" points="386,-174 386,-204 490,-204 490,-174 386,-174"/>
<text text-anchor="start" x="394" y="-192" font-family="Helvetica,sans-Serif" font-size="10.00" fill="#000000">chig::GraphFunction</text>
<text text-anchor="middle" x="438" y="-181" font-family="Helvetica,sans-Serif" font-size="10.00" fill="#000000">::module</text>
</a>
</g>
</g>
<!-- Node115&#45;&gt;Node116 -->
<g id="edge8" class="edge">
<title>Node115&#45;&gt;Node116</title>
<path fill="none" stroke="#191970" d="M297.1628,-178.1385C321.4743,-180.0134 350.3679,-182.2417 375.6383,-184.1906"/>
<polygon fill="#191970" stroke="#191970" points="375.616,-187.6992 385.8556,-184.9786 376.1544,-180.7199 375.616,-187.6992"/>
</g>
<!-- Node117 -->
<g id="node10" class="node">
<title>Node117</title>
<g id="a_node10"><a xlink:href="structchig_1_1GraphFunction.html#a3291c0b882b4f73e5d60af4ca75b1a37" target="_top" xlink:title="Get the name of the function. ">
<polygon fill="#ffffff" stroke="#000000" points="386,-125 386,-155 490,-155 490,-125 386,-125"/>
<text text-anchor="start" x="394" y="-143" font-family="Helvetica,sans-Serif" font-size="10.00" fill="#000000">chig::GraphFunction</text>
<text text-anchor="middle" x="438" y="-132" font-family="Helvetica,sans-Serif" font-size="10.00" fill="#000000">::name</text>
</a>
</g>
</g>
<!-- Node115&#45;&gt;Node117 -->
<g id="edge9" class="edge">
<title>Node115&#45;&gt;Node117</title>
<path fill="none" stroke="#191970" d="M297.1628,-164.6193C321.5823,-160.3506 350.6248,-155.2738 375.975,-150.8424"/>
<polygon fill="#191970" stroke="#191970" points="376.6077,-154.285 385.8556,-149.1152 375.4023,-147.3895 376.6077,-154.285"/>
</g>
<!-- Node120&#45;&gt;Node109 -->
<g id="edge13" class="edge">
<title>Node120&#45;&gt;Node109</title>
<path fill="none" stroke="#191970" d="M287.1479,-19.5251C297.9833,-22.2488 309.4981,-25.4532 320,-29 351.2209,-39.5441 385.6825,-54.8915 409.2599,-65.9934"/>
<polygon fill="#191970" stroke="#191970" points="407.8146,-69.1817 418.3484,-70.3168 410.8216,-62.8604 407.8146,-69.1817"/>
</g>
<!-- Node121 -->
<g id="node14" class="node">
<title>Node121</title>
<g id="a_node14"><a xlink:href="structchig_1_1ChigModule.html#a7bb138db48ea320a09312ffd1af0999a" target="_top" xlink:title="Get a DataType from the name. ">
<polygon fill="#ffffff" stroke="#000000" points="356,-.5 356,-19.5 520,-19.5 520,-.5 356,-.5"/>
<text text-anchor="middle" x="438" y="-7.5" font-family="Helvetica,sans-Serif" font-size="10.00" fill="#000000">chig::ChigModule::typeFromName</text>
</a>
</g>
</g>
<!-- Node120&#45;&gt;Node121 -->
<g id="edge14" class="edge">
<title>Node120&#45;&gt;Node121</title>
<path fill="none" stroke="#191970" d="M320.0924,-10C328.4971,-10 337.1177,-10 345.6871,-10"/>
<polygon fill="#191970" stroke="#191970" points="345.7073,-13.5001 355.7072,-10 345.7072,-6.5001 345.7073,-13.5001"/>
</g>
</g>
</svg>
