<?xml version="1.0" encoding="UTF-8" standalone="no"?>
<!DOCTYPE svg PUBLIC "-//W3C//DTD SVG 1.1//EN"
 "http://www.w3.org/Graphics/SVG/1.1/DTD/svg11.dtd">
<!-- Generated by graphviz version 2.40.1 (20161225.0304)
 -->
<!-- Title: chi::compileCToLLVM Pages: 1 -->
<!--zoomable 331 -->
<svg id="main" version="1.1" xmlns="http://www.w3.org/2000/svg" xmlns:xlink="http://www.w3.org/1999/xlink" xml:space="preserve" onload="init(evt)">
<style type="text/css"><![CDATA[
.edge:hover path { stroke: red; }
.edge:hover polygon { stroke: red; fill: red; }
]]></style>
<script type="text/javascript"><![CDATA[
var edges = document.getElementsByTagName('g');
if (edges && edges.length) {
  for (var i=0;i<edges.length;i++) {
    if (edges[i].id.substr(0,4)=='edge') {
      edges[i].setAttribute('class','edge');
    }
  }
}
]]></script>
        <defs>
                <circle id="rim" cx="0" cy="0" r="7"/>
                <circle id="rim2" cx="0" cy="0" r="3.5"/>
                <g id="zoomPlus">
                        <use xlink:href="#rim" fill="#404040">
                                <set attributeName="fill" to="#808080" begin="zoomplus.mouseover" end="zoomplus.mouseout"/>
                        </use>
                        <path d="M-4,0h8M0,-4v8" fill="none" stroke="white" stroke-width="1.5" pointer-events="none"/>
                </g>
                <g id="zoomMin">
                        <use xlink:href="#rim" fill="#404040">
                                <set attributeName="fill" to="#808080" begin="zoomminus.mouseover" end="zoomminus.mouseout"/>
                        </use>
                        <path d="M-4,0h8" fill="none" stroke="white" stroke-width="1.5" pointer-events="none"/>
                </g>
                <g id="dirArrow">
                        <path fill="none" stroke="white" stroke-width="1.5" d="M0,-3.0v7 M-2.5,-0.5L0,-3.0L2.5,-0.5"/>
                </g>
               <g id="resetDef">
                       <use xlink:href="#rim2" fill="#404040">
                               <set attributeName="fill" to="#808080" begin="reset.mouseover" end="reset.mouseout"/>
                       </use>
               </g>
        </defs>

<script type="text/javascript">
var viewWidth = 1832;
var viewHeight = 331;
var sectionId = 'dynsection-1';
</script>
<script xlink:href="svgpan.js"/>
<svg id="graph" class="graph">
<g id="viewport">
<title>chi::compileCToLLVM</title>
<polygon fill="#ffffff" stroke="transparent" points="-4,4 -4,-327 1828,-327 1828,4 -4,4"/>
<!-- Node17 -->
<g id="node1" class="node">
<title>Node17</title>
<polygon fill="#bfbfbf" stroke="#000000" points="0,-276 0,-295 113,-295 113,-276 0,-276"/>
<text text-anchor="middle" x="56.5" y="-283" font-family="Helvetica,sans-Serif" font-size="10.00" fill="#000000">chi::compileCToLLVM</text>
</g>
<!-- Node18 -->
<g id="node2" class="node">
<title>Node18</title>
<g id="a_node2"><a xlink:href="structchi_1_1GraphModule.html#a24162d01532244d8945128b71af5fc48" target="_top" xlink:title="From C code, create a NodeType. ">
<polygon fill="#ffffff" stroke="#000000" points="149,-248.5 149,-278.5 275,-278.5 275,-248.5 149,-248.5"/>
<text text-anchor="start" x="157" y="-266.5" font-family="Helvetica,sans-Serif" font-size="10.00" fill="#000000">chi::GraphModule::create</text>
<text text-anchor="middle" x="212" y="-255.5" font-family="Helvetica,sans-Serif" font-size="10.00" fill="#000000">NodeTypeFromCCode</text>
</a>
</g>
</g>
<!-- Node17&#45;&gt;Node18 -->
<g id="edge1" class="edge">
<title>Node17&#45;&gt;Node18</title>
<path fill="none" stroke="#191970" d="M123.0339,-276.0868C131.6088,-274.8737 140.3695,-273.6342 148.8871,-272.4292"/>
<polygon fill="#191970" stroke="#191970" points="122.49,-272.6288 113.079,-277.4953 123.4707,-279.5598 122.49,-272.6288"/>
</g>
<!-- Node20 -->
<g id="node4" class="node">
<title>Node20</title>
<g id="a_node4"><a xlink:href="structchi_1_1GraphModule.html#a9b73bbbfa91d6a2f92bcca270bdb7b2f" target="_top" xlink:title="Generate a llvm::Module from the module. ">
<polygon fill="#ffffff" stroke="#000000" points="489.5,-292.5 489.5,-322.5 626.5,-322.5 626.5,-292.5 489.5,-292.5"/>
<text text-anchor="start" x="497.5" y="-310.5" font-family="Helvetica,sans-Serif" font-size="10.00" fill="#000000">chi::GraphModule::generate</text>
<text text-anchor="middle" x="558" y="-299.5" font-family="Helvetica,sans-Serif" font-size="10.00" fill="#000000">Module</text>
</a>
</g>
</g>
<!-- Node17&#45;&gt;Node20 -->
<g id="edge33" class="edge">
<title>Node17&#45;&gt;Node20</title>
<path fill="none" stroke="#191970" d="M123.1503,-288.4238C218.4656,-292.6052 392.8198,-300.2538 489.2699,-304.4849"/>
<polygon fill="#191970" stroke="#191970" points="123.1974,-284.9226 113.0536,-287.9809 122.8905,-291.9159 123.1974,-284.9226"/>
</g>
<!-- Node19 -->
<g id="node3" class="node">
<title>Node19</title>
<g id="a_node3"><a xlink:href="structchi_1_1GraphModule.html#ac251cc6b4242642f6601c8c3607f5747" target="_top" xlink:title="Gets if C support is enabled. ">
<polygon fill="#ffffff" stroke="#000000" points="311,-254 311,-273 451,-273 451,-254 311,-254"/>
<text text-anchor="middle" x="381" y="-261" font-family="Helvetica,sans-Serif" font-size="10.00" fill="#000000">chi::GraphModule::cEnabled</text>
</a>
</g>
</g>
<!-- Node18&#45;&gt;Node19 -->
<g id="edge2" class="edge">
<title>Node18&#45;&gt;Node19</title>
<path fill="none" stroke="#191970" d="M285.6009,-263.5C294.0343,-263.5 302.615,-263.5 310.9993,-263.5"/>
<polygon fill="#191970" stroke="#191970" points="285.4102,-260.0001 275.4102,-263.5 285.4101,-267.0001 285.4102,-260.0001"/>
</g>
<!-- Node19&#45;&gt;Node20 -->
<g id="edge3" class="edge">
<title>Node19&#45;&gt;Node20</title>
<path fill="none" stroke="#191970" d="M429.3779,-275.5261C450.3731,-280.7453 475.1897,-286.9144 497.3961,-292.4346"/>
<polygon fill="#191970" stroke="#191970" points="429.9554,-272.0632 419.4064,-273.0473 428.2666,-278.8565 429.9554,-272.0632"/>
</g>
<!-- Node21 -->
<g id="node5" class="node">
<title>Node21</title>
<g id="a_node5"><a xlink:href="structchi_1_1GraphModule.html#a133c0595e0bb888f958e9769838f6c0c" target="_top" xlink:title="Create a node type that is in the module from the name and json. ">
<polygon fill="#ffffff" stroke="#000000" points="487,-112.5 487,-142.5 629,-142.5 629,-112.5 487,-112.5"/>
<text text-anchor="start" x="495" y="-130.5" font-family="Helvetica,sans-Serif" font-size="10.00" fill="#000000">chi::GraphModule::nodeType</text>
<text text-anchor="middle" x="558" y="-119.5" font-family="Helvetica,sans-Serif" font-size="10.00" fill="#000000">FromName</text>
</a>
</g>
</g>
<!-- Node19&#45;&gt;Node21 -->
<g id="edge4" class="edge">
<title>Node19&#45;&gt;Node21</title>
<path fill="none" stroke="#191970" d="M401.8115,-247.5093C436.2259,-221.0665 504.5321,-168.5827 538.2411,-142.682"/>
<polygon fill="#191970" stroke="#191970" points="399.2434,-245.0686 393.4463,-253.9367 403.5084,-250.6193 399.2434,-245.0686"/>
</g>
<!-- Node25 -->
<g id="node9" class="node">
<title>Node25</title>
<g id="a_node9"><a xlink:href="namespacechi.html#a9a4f3fa54c612f0c559a353bb7382d5a" target="_top" xlink:title="Serialize a JsonModule to json. ">
<polygon fill="#ffffff" stroke="#000000" points="1514,-90 1514,-109 1637,-109 1637,-90 1514,-90"/>
<text text-anchor="middle" x="1575.5" y="-97" font-family="Helvetica,sans-Serif" font-size="10.00" fill="#000000">chi::graphModuleToJson</text>
</a>
</g>
</g>
<!-- Node19&#45;&gt;Node25 -->
<g id="edge32" class="edge">
<title>Node19&#45;&gt;Node25</title>
<path fill="none" stroke="#191970" d="M461.377,-263.5C532.4186,-263.5 638.8477,-263.5 731.5,-263.5 731.5,-263.5 731.5,-263.5 1229.5,-263.5 1344.1229,-263.5 1378.6208,-251.6157 1478,-194.5 1517.9566,-171.536 1553.6128,-128.4357 1568.3366,-109.1996"/>
<polygon fill="#191970" stroke="#191970" points="461.1581,-260.0001 451.1581,-263.5 461.158,-267.0001 461.1581,-260.0001"/>
</g>
<!-- Node37 -->
<g id="node21" class="node">
<title>Node37</title>
<g id="a_node21"><a xlink:href="structchi_1_1GraphModule.html#a53a1a284ab878783e74a957bb3b711b3" target="_top" xlink:title="Get the possible node type names. ">
<polygon fill="#ffffff" stroke="#000000" points="487,-63.5 487,-93.5 629,-93.5 629,-63.5 487,-63.5"/>
<text text-anchor="start" x="495" y="-81.5" font-family="Helvetica,sans-Serif" font-size="10.00" fill="#000000">chi::GraphModule::nodeType</text>
<text text-anchor="middle" x="558" y="-70.5" font-family="Helvetica,sans-Serif" font-size="10.00" fill="#000000">Names</text>
</a>
</g>
</g>
<!-- Node19&#45;&gt;Node37 -->
<g id="edge31" class="edge">
<title>Node19&#45;&gt;Node37</title>
<path fill="none" stroke="#191970" d="M388.8694,-244.0966C403.3734,-210.6771 437.4391,-142.133 487,-103.5 491.9472,-99.6436 497.5354,-96.3544 503.3501,-93.5554"/>
<polygon fill="#191970" stroke="#191970" points="385.5099,-243.056 384.8528,-253.6304 391.9608,-245.7738 385.5099,-243.056"/>
</g>
<!-- Node22 -->
<g id="node6" class="node">
<title>Node22</title>
<g id="a_node6"><a xlink:href="structchi_1_1GraphFunction.html#a60bc423cb4fed3605a446da112949483" target="_top" xlink:title="Rename a local variable. ">
<polygon fill="#ffffff" stroke="#000000" points="675,-49.5 675,-79.5 788,-79.5 788,-49.5 675,-49.5"/>
<text text-anchor="start" x="683" y="-67.5" font-family="Helvetica,sans-Serif" font-size="10.00" fill="#000000">chi::GraphFunction</text>
<text text-anchor="middle" x="731.5" y="-56.5" font-family="Helvetica,sans-Serif" font-size="10.00" fill="#000000">::renameLocalVariable</text>
</a>
</g>
</g>
<!-- Node21&#45;&gt;Node22 -->
<g id="edge5" class="edge">
<title>Node21&#45;&gt;Node22</title>
<path fill="none" stroke="#191970" d="M610.8004,-109.0166C616.9417,-106.8347 623.1122,-104.6278 629,-102.5 649.5262,-95.082 672.2951,-86.6603 691.1497,-79.6336"/>
<polygon fill="#191970" stroke="#191970" points="609.4768,-105.7723 601.2188,-112.4098 611.8135,-112.3708 609.4768,-105.7723"/>
</g>
<!-- Node27 -->
<g id="node11" class="node">
<title>Node27</title>
<g id="a_node11"><a xlink:href="structchi_1_1GraphFunction.html#a4c38679ec5e727bfb71c8eaaa5a8ca1a" target="_top" xlink:title="Set a new type to a local variable. ">
<polygon fill="#ffffff" stroke="#000000" points="677.5,-.5 677.5,-30.5 785.5,-30.5 785.5,-.5 677.5,-.5"/>
<text text-anchor="start" x="685.5" y="-18.5" font-family="Helvetica,sans-Serif" font-size="10.00" fill="#000000">chi::GraphFunction</text>
<text text-anchor="middle" x="731.5" y="-7.5" font-family="Helvetica,sans-Serif" font-size="10.00" fill="#000000">::retypeLocalVariable</text>
</a>
</g>
</g>
<!-- Node21&#45;&gt;Node27 -->
<g id="edge10" class="edge">
<title>Node21&#45;&gt;Node27</title>
<path fill="none" stroke="#191970" d="M622.6085,-107.2292C624.8392,-105.7585 626.9802,-104.1844 629,-102.5 653.7669,-81.8456 640.3139,-60.2508 665,-39.5 669.0401,-36.104 673.5992,-33.1717 678.3889,-30.6431"/>
<polygon fill="#191970" stroke="#191970" points="620.5444,-104.379 613.6268,-112.4038 624.0388,-110.4444 620.5444,-104.379"/>
</g>
<!-- Node28 -->
<g id="node12" class="node">
<title>Node28</title>
<g id="a_node12"><a xlink:href="structchi_1_1GraphStruct.html#a464c5edd4ebcb07161c3d05312f1fc33" target="_top" xlink:title="Set the name of the struct, and optionally update all references in the context. ">
<polygon fill="#ffffff" stroke="#000000" points="665,-137 665,-156 798,-156 798,-137 665,-137"/>
<text text-anchor="middle" x="731.5" y="-144" font-family="Helvetica,sans-Serif" font-size="10.00" fill="#000000">chi::GraphStruct::setName</text>
</a>
</g>
</g>
<!-- Node21&#45;&gt;Node28 -->
<g id="edge12" class="edge">
<title>Node21&#45;&gt;Node28</title>
<path fill="none" stroke="#191970" d="M639.0933,-136.3805C647.6783,-137.3207 656.3374,-138.2689 664.7325,-139.1883"/>
<polygon fill="#191970" stroke="#191970" points="639.3913,-132.8923 629.0697,-135.2828 638.6292,-139.8507 639.3913,-132.8923"/>
</g>
<!-- Node35 -->
<g id="node19" class="node">
<title>Node35</title>
<g id="a_node19"><a xlink:href="structchi_1_1GraphStruct.html#a27c5062196f73eae3125c0baeb592d00" target="_top" xlink:title="Get the DataType of the struct. ">
<polygon fill="#ffffff" stroke="#000000" points="995,-90 995,-109 1129,-109 1129,-90 995,-90"/>
<text text-anchor="middle" x="1062" y="-97" font-family="Helvetica,sans-Serif" font-size="10.00" fill="#000000">chi::GraphStruct::dataType</text>
</a>
</g>
</g>
<!-- Node21&#45;&gt;Node35 -->
<g id="edge30" class="edge">
<title>Node21&#45;&gt;Node35</title>
<path fill="none" stroke="#191970" d="M639.3768,-122.9791C738.172,-117.4904 902.941,-108.3366 994.8397,-103.2311"/>
<polygon fill="#191970" stroke="#191970" points="638.9324,-119.4983 629.1419,-123.5477 639.3207,-126.4875 638.9324,-119.4983"/>
</g>
<!-- Node23 -->
<g id="node7" class="node">
<title>Node23</title>
<g id="a_node7"><a xlink:href="structchi_1_1GraphFunction.html#a44f8f791775e4878b6bde37140cd131d" target="_top" xlink:title="Get the local variables. ">
<polygon fill="#ffffff" stroke="#000000" points="847,-8.5 847,-38.5 946,-38.5 946,-8.5 847,-8.5"/>
<text text-anchor="start" x="855" y="-26.5" font-family="Helvetica,sans-Serif" font-size="10.00" fill="#000000">chi::GraphFunction</text>
<text text-anchor="middle" x="896.5" y="-15.5" font-family="Helvetica,sans-Serif" font-size="10.00" fill="#000000">::localVariables</text>
</a>
</g>
</g>
<!-- Node22&#45;&gt;Node23 -->
<g id="edge6" class="edge">
<title>Node22&#45;&gt;Node23</title>
<path fill="none" stroke="#191970" d="M798.2452,-47.9148C814.4568,-43.8865 831.5114,-39.6487 846.7778,-35.8552"/>
<polygon fill="#191970" stroke="#191970" points="797.1445,-44.5818 788.2836,-50.3901 798.8326,-51.3752 797.1445,-44.5818"/>
</g>
<!-- Node24 -->
<g id="node8" class="node">
<title>Node24</title>
<g id="a_node8"><a xlink:href="namespacechi.html#afd8b8d8a207d88359ad1e6a48d8f3bb1" target="_top" xlink:title="Serialize a GraphFunction to json. ">
<polygon fill="#ffffff" stroke="#000000" points="1165,-14 1165,-33 1294,-33 1294,-14 1165,-14"/>
<text text-anchor="middle" x="1229.5" y="-21" font-family="Helvetica,sans-Serif" font-size="10.00" fill="#000000">chi::graphFunctionToJson</text>
</a>
</g>
</g>
<!-- Node23&#45;&gt;Node24 -->
<g id="edge7" class="edge">
<title>Node23&#45;&gt;Node24</title>
<path fill="none" stroke="#191970" d="M956.5889,-23.5C1015.309,-23.5 1104.4223,-23.5 1164.704,-23.5"/>
<polygon fill="#191970" stroke="#191970" points="956.3535,-20.0001 946.3535,-23.5 956.3534,-27.0001 956.3535,-20.0001"/>
</g>
<!-- Node24&#45;&gt;Node25 -->
<g id="edge8" class="edge">
<title>Node24&#45;&gt;Node25</title>
<path fill="none" stroke="#191970" d="M1304.1818,-20.5464C1354.3999,-20.6428 1421.4898,-24.8539 1478,-42.5 1511.502,-52.9615 1545.822,-76.6609 1563.4367,-89.9712"/>
<polygon fill="#191970" stroke="#191970" points="1304.0395,-17.0468 1294.0519,-20.582 1304.0642,-24.0467 1304.0395,-17.0468"/>
</g>
<!-- Node26 -->
<g id="node10" class="node">
<title>Node26</title>
<g id="a_node10"><a xlink:href="structchi_1_1GraphModule.html#a5cd9fb1738336d5d382ebb50753bda3e" target="_top" xlink:title="Serialize to disk in the context. ">
<polygon fill="#ffffff" stroke="#000000" points="1673,-90 1673,-109 1824,-109 1824,-90 1673,-90"/>
<text text-anchor="middle" x="1748.5" y="-97" font-family="Helvetica,sans-Serif" font-size="10.00" fill="#000000">chi::GraphModule::saveToDisk</text>
</a>
</g>
</g>
<!-- Node25&#45;&gt;Node26 -->
<g id="edge9" class="edge">
<title>Node25&#45;&gt;Node26</title>
<path fill="none" stroke="#191970" d="M1647.5243,-99.5C1655.8612,-99.5 1664.3827,-99.5 1672.7672,-99.5"/>
<polygon fill="#191970" stroke="#191970" points="1647.4684,-96.0001 1637.4683,-99.5 1647.4683,-103.0001 1647.4684,-96.0001"/>
</g>
<!-- Node27&#45;&gt;Node23 -->
<g id="edge11" class="edge">
<title>Node27&#45;&gt;Node23</title>
<path fill="none" stroke="#191970" d="M795.8966,-18.6223C812.8159,-19.4426 830.8037,-20.3147 846.8198,-21.0913"/>
<polygon fill="#191970" stroke="#191970" points="795.685,-15.108 785.5272,-18.1195 795.3459,-22.0998 795.685,-15.108"/>
</g>
<!-- Node29 -->
<g id="node13" class="node">
<title>Node29</title>
<g id="a_node13"><a xlink:href="structchi_1_1GraphStruct.html#a82a1da52a4bf23e1e7fef4d7228603b1" target="_top" xlink:title="Get the module. ">
<polygon fill="#ffffff" stroke="#000000" points="834,-137 834,-156 959,-156 959,-137 834,-137"/>
<text text-anchor="middle" x="896.5" y="-144" font-family="Helvetica,sans-Serif" font-size="10.00" fill="#000000">chi::GraphStruct::module</text>
</a>
</g>
</g>
<!-- Node28&#45;&gt;Node29 -->
<g id="edge13" class="edge">
<title>Node28&#45;&gt;Node29</title>
<path fill="none" stroke="#191970" d="M808.1819,-139.7649C816.7919,-139.7207 825.4868,-139.7748 833.889,-139.9275"/>
<polygon fill="#191970" stroke="#191970" points="808.1018,-136.2655 798.1362,-139.8622 808.1696,-143.2651 808.1018,-136.2655"/>
</g>
<!-- Node29&#45;&gt;Node28 -->
<g id="edge15" class="edge">
<title>Node29&#45;&gt;Node28</title>
<path fill="none" stroke="#191970" d="M823.6341,-153.2089C815.1507,-153.2816 806.5296,-153.2579 798.1362,-153.1378"/>
<polygon fill="#191970" stroke="#191970" points="823.9364,-156.7053 833.889,-153.0725 823.8433,-149.7059 823.9364,-156.7053"/>
</g>
<!-- Node30 -->
<g id="node14" class="node">
<title>Node30</title>
<g id="a_node14"><a xlink:href="structchi_1_1GraphModule.html#a3fcbfb1633209d96ee54e103b361e9fb" target="_top" xlink:title="Remove a struct from the module by pointer. ">
<polygon fill="#ffffff" stroke="#000000" points="996.5,-204.5 996.5,-234.5 1127.5,-234.5 1127.5,-204.5 996.5,-204.5"/>
<text text-anchor="start" x="1004.5" y="-222.5" font-family="Helvetica,sans-Serif" font-size="10.00" fill="#000000">chi::GraphModule::remove</text>
<text text-anchor="middle" x="1062" y="-211.5" font-family="Helvetica,sans-Serif" font-size="10.00" fill="#000000">Struct</text>
</a>
</g>
</g>
<!-- Node29&#45;&gt;Node30 -->
<g id="edge14" class="edge">
<title>Node29&#45;&gt;Node30</title>
<path fill="none" stroke="#191970" d="M927.6061,-160.2205C956.106,-172.7915 998.2218,-191.3682 1027.6895,-204.366"/>
<polygon fill="#191970" stroke="#191970" points="928.6982,-156.8769 918.1362,-156.0435 925.8732,-163.2816 928.6982,-156.8769"/>
</g>
<!-- Node31 -->
<g id="node15" class="node">
<title>Node31</title>
<g id="a_node15"><a xlink:href="structchi_1_1GraphStruct.html#aba05cdce9627a23da0449801e068d85d" target="_top" xlink:title="Add a new type to the struct. ">
<polygon fill="#ffffff" stroke="#000000" points="1338.5,-166 1338.5,-185 1469.5,-185 1469.5,-166 1338.5,-166"/>
<text text-anchor="middle" x="1404" y="-173" font-family="Helvetica,sans-Serif" font-size="10.00" fill="#000000">chi::GraphStruct::addType</text>
</a>
</g>
</g>
<!-- Node29&#45;&gt;Node31 -->
<g id="edge16" class="edge">
<title>Node29&#45;&gt;Node31</title>
<path fill="none" stroke="#191970" d="M969.3261,-155.1892C977.971,-156.0559 986.677,-156.8529 995,-157.5 1115.9965,-166.908 1257.5409,-171.7737 1338.3939,-173.971"/>
<polygon fill="#191970" stroke="#191970" points="969.5395,-151.6927 959.2323,-154.1445 968.8188,-158.6555 969.5395,-151.6927"/>
</g>
<!-- Node33 -->
<g id="node17" class="node">
<title>Node33</title>
<g id="a_node17"><a xlink:href="structchi_1_1GraphStruct.html#a89d3ea5e72ed6e7d8380fb82fa5eb521" target="_top" xlink:title="Change the type and name of a type. ">
<polygon fill="#ffffff" stroke="#000000" points="1331.5,-128 1331.5,-147 1476.5,-147 1476.5,-128 1331.5,-128"/>
<text text-anchor="middle" x="1404" y="-135" font-family="Helvetica,sans-Serif" font-size="10.00" fill="#000000">chi::GraphStruct::modifyType</text>
</a>
</g>
</g>
<!-- Node29&#45;&gt;Node33 -->
<g id="edge27" class="edge">
<title>Node29&#45;&gt;Node33</title>
<path fill="none" stroke="#191970" d="M969.4845,-145.2057C1065.9205,-143.4955 1234.8052,-140.5005 1331.1658,-138.7916"/>
<polygon fill="#191970" stroke="#191970" points="969.1748,-141.7105 959.2385,-145.3874 969.299,-148.7094 969.1748,-141.7105"/>
</g>
<!-- Node34 -->
<g id="node18" class="node">
<title>Node34</title>
<g id="a_node18"><a xlink:href="structchi_1_1GraphStruct.html#a759b0b44c984d7aaa6c2fb32e035264b" target="_top" xlink:title="Remove a type from a struct. ">
<polygon fill="#ffffff" stroke="#000000" points="1330,-52 1330,-71 1478,-71 1478,-52 1330,-52"/>
<text text-anchor="middle" x="1404" y="-59" font-family="Helvetica,sans-Serif" font-size="10.00" fill="#000000">chi::GraphStruct::removeType</text>
</a>
</g>
</g>
<!-- Node29&#45;&gt;Node34 -->
<g id="edge28" class="edge">
<title>Node29&#45;&gt;Node34</title>
<path fill="none" stroke="#191970" d="M914.3201,-130.095C932.8986,-114.1383 963.6358,-90.8375 995,-80.5 1107.2372,-43.5073 1246.1887,-46.5487 1329.8224,-53.2281"/>
<polygon fill="#191970" stroke="#191970" points="911.8629,-127.5955 906.6811,-136.8367 916.4948,-132.8439 911.8629,-127.5955"/>
</g>
<!-- Node29&#45;&gt;Node35 -->
<g id="edge29" class="edge">
<title>Node29&#45;&gt;Node35</title>
<path fill="none" stroke="#191970" d="M939.7933,-134.2052C967.4274,-126.3575 1002.7262,-116.333 1028.2748,-109.0776"/>
<polygon fill="#191970" stroke="#191970" points="938.6548,-130.8901 929.9914,-136.9888 940.5672,-137.6238 938.6548,-130.8901"/>
</g>
<!-- Node32 -->
<g id="node16" class="node">
<title>Node32</title>
<g id="a_node16"><a xlink:href="structchi_1_1GraphStruct.html#ae1895cfaebac03e21d35ec2a155b3c10" target="_top" xlink:title="Get the types the struct contains. ">
<polygon fill="#ffffff" stroke="#000000" points="1170.5,-90 1170.5,-109 1288.5,-109 1288.5,-90 1170.5,-90"/>
<text text-anchor="middle" x="1229.5" y="-97" font-family="Helvetica,sans-Serif" font-size="10.00" fill="#000000">chi::GraphStruct::types</text>
</a>
</g>
</g>
<!-- Node31&#45;&gt;Node32 -->
<g id="edge17" class="edge">
<title>Node31&#45;&gt;Node32</title>
<path fill="none" stroke="#191970" d="M1329.0689,-164.799C1287.3875,-146.9354 1251.2969,-123.1086 1236.4828,-109.0422"/>
<polygon fill="#191970" stroke="#191970" points="1327.7496,-168.0409 1338.3282,-168.6287 1330.4251,-161.5723 1327.7496,-168.0409"/>
</g>
<!-- Node32&#45;&gt;Node31 -->
<g id="edge18" class="edge">
<title>Node32&#45;&gt;Node31</title>
<path fill="none" stroke="#191970" d="M1263.8224,-113.997C1282.7329,-124.5813 1306.9815,-138.2092 1330,-147.5 1349.5567,-155.3936 1373.3664,-160.8112 1388.6019,-165.9399"/>
<polygon fill="#191970" stroke="#191970" points="1265.4355,-110.8892 1254.9966,-109.0779 1262.0276,-117.0036 1265.4355,-110.8892"/>
</g>
<!-- Node32&#45;&gt;Node33 -->
<g id="edge19" class="edge">
<title>Node32&#45;&gt;Node33</title>
<path fill="none" stroke="#191970" d="M1298.4932,-107.9074C1328.1254,-113.9224 1360.6988,-121.6582 1381.7,-127.9542"/>
<polygon fill="#191970" stroke="#191970" points="1299.068,-104.4533 1288.5777,-105.9381 1297.7043,-111.3192 1299.068,-104.4533"/>
</g>
<!-- Node32&#45;&gt;Node34 -->
<g id="edge21" class="edge">
<title>Node32&#45;&gt;Node34</title>
<path fill="none" stroke="#191970" d="M1261.6674,-87.1215C1280.8379,-81.8252 1306.0109,-75.9072 1329.849,-70.9656"/>
<polygon fill="#191970" stroke="#191970" points="1260.6027,-83.7857 1251.9556,-89.9076 1262.533,-90.5143 1260.6027,-83.7857"/>
</g>
<!-- Node32&#45;&gt;Node35 -->
<g id="edge23" class="edge">
<title>Node32&#45;&gt;Node35</title>
<path fill="none" stroke="#191970" d="M1160.2691,-106.159C1149.9865,-106.2891 1139.4027,-106.2797 1129.1635,-106.1309"/>
<polygon fill="#191970" stroke="#191970" points="1160.4897,-109.6558 1170.4274,-105.9825 1160.368,-102.6569 1160.4897,-109.6558"/>
</g>
<!-- Node36 -->
<g id="node20" class="node">
<title>Node36</title>
<g id="a_node20"><a xlink:href="namespacechi.html#af74872167b12e4ad8a387faab1f03fbb" target="_top" xlink:title="Serialize a GraphStruct to json. ">
<polygon fill="#ffffff" stroke="#000000" points="1345,-90 1345,-109 1463,-109 1463,-90 1345,-90"/>
<text text-anchor="middle" x="1404" y="-97" font-family="Helvetica,sans-Serif" font-size="10.00" fill="#000000">chi::graphStructToJson</text>
</a>
</g>
</g>
<!-- Node32&#45;&gt;Node36 -->
<g id="edge25" class="edge">
<title>Node32&#45;&gt;Node36</title>
<path fill="none" stroke="#191970" d="M1298.9802,-99.5C1314.215,-99.5 1330.2047,-99.5 1344.9831,-99.5"/>
<polygon fill="#191970" stroke="#191970" points="1298.5778,-96.0001 1288.5777,-99.5 1298.5777,-103.0001 1298.5778,-96.0001"/>
</g>
<!-- Node33&#45;&gt;Node32 -->
<g id="edge20" class="edge">
<title>Node33&#45;&gt;Node32</title>
<path fill="none" stroke="#191970" d="M1321.3037,-126.2335C1295.7883,-120.7688 1269.7522,-114.4192 1251.9556,-109.0924"/>
<polygon fill="#191970" stroke="#191970" points="1320.9106,-129.7272 1331.4166,-128.3584 1322.3501,-122.8768 1320.9106,-129.7272"/>
</g>
<!-- Node34&#45;&gt;Node32 -->
<g id="edge22" class="edge">
<title>Node34&#45;&gt;Node32</title>
<path fill="none" stroke="#191970" d="M1371.9886,-73.8354C1348.6965,-80.2773 1316.4836,-87.6464 1288.5777,-93.0619"/>
<polygon fill="#191970" stroke="#191970" points="1373.055,-77.1706 1381.7,-71.0458 1371.1224,-70.4427 1373.055,-77.1706"/>
</g>
<!-- Node35&#45;&gt;Node32 -->
<g id="edge24" class="edge">
<title>Node35&#45;&gt;Node32</title>
<path fill="none" stroke="#191970" d="M1139.1688,-92.7686C1149.6715,-92.7092 1160.3131,-92.7922 1170.4274,-93.0175"/>
<polygon fill="#191970" stroke="#191970" points="1139.1278,-89.2687 1129.1635,-92.8691 1139.1982,-96.2683 1139.1278,-89.2687"/>
</g>
<!-- Node36&#45;&gt;Node25 -->
<g id="edge26" class="edge">
<title>Node36&#45;&gt;Node25</title>
<path fill="none" stroke="#191970" d="M1473.1549,-99.5C1486.5813,-99.5 1500.572,-99.5 1513.7417,-99.5"/>
<polygon fill="#191970" stroke="#191970" points="1473.0206,-96.0001 1463.0206,-99.5 1473.0205,-103.0001 1473.0206,-96.0001"/>
</g>
</g>
</svg>
        <g id="navigator" transform="translate(0 0)" fill="#404254">
                <rect fill="#f2f5e9" fill-opacity="0.5" stroke="#606060" stroke-width=".5" x="0" y="0" width="60" height="60"/>
                <use id="zoomplus" xlink:href="#zoomPlus" x="17" y="9" onmousedown="handleZoom(evt,'in')"/>
                <use id="zoomminus" xlink:href="#zoomMin" x="42" y="9" onmousedown="handleZoom(evt,'out')"/>
                <use id="reset" xlink:href="#resetDef" x="30" y="36" onmousedown="handleReset()"/>
                <g id="arrowUp" xlink:href="#dirArrow" transform="translate(30 24)" onmousedown="handlePan(0,-1)">
                  <use xlink:href="#rim" fill="#404040">
                        <set attributeName="fill" to="#808080" begin="arrowUp.mouseover" end="arrowUp.mouseout"/>
                  </use>
                  <path fill="none" stroke="white" stroke-width="1.5" d="M0,-3.0v7 M-2.5,-0.5L0,-3.0L2.5,-0.5"/>
                </g>
                <g id="arrowRight" xlink:href="#dirArrow" transform="rotate(90) translate(36 -43)" onmousedown="handlePan(1,0)">
                  <use xlink:href="#rim" fill="#404040">
                        <set attributeName="fill" to="#808080" begin="arrowRight.mouseover" end="arrowRight.mouseout"/>
                  </use>
                  <path fill="none" stroke="white" stroke-width="1.5" d="M0,-3.0v7 M-2.5,-0.5L0,-3.0L2.5,-0.5"/>
                </g>
                <g id="arrowDown" xlink:href="#dirArrow" transform="rotate(180) translate(-30 -48)" onmousedown="handlePan(0,1)">
                  <use xlink:href="#rim" fill="#404040">
                        <set attributeName="fill" to="#808080" begin="arrowDown.mouseover" end="arrowDown.mouseout"/>
                  </use>
                  <path fill="none" stroke="white" stroke-width="1.5" d="M0,-3.0v7 M-2.5,-0.5L0,-3.0L2.5,-0.5"/>
                </g>
                <g id="arrowLeft" xlink:href="#dirArrow" transform="rotate(270) translate(-36 17)" onmousedown="handlePan(-1,0)">
                  <use xlink:href="#rim" fill="#404040">
                        <set attributeName="fill" to="#808080" begin="arrowLeft.mouseover" end="arrowLeft.mouseout"/>
                  </use>
                  <path fill="none" stroke="white" stroke-width="1.5" d="M0,-3.0v7 M-2.5,-0.5L0,-3.0L2.5,-0.5"/>
                </g>
        </g>
        <svg viewBox="0 0 15 15" width="100%" height="30px" preserveAspectRatio="xMaxYMin meet">
         <g id="arrow_out" transform="scale(0.3 0.3)">
          <a xlink:href="namespacechi_af2fbd3aba94ecac3f7b70548da25f4ee_icgraph_org.svg" target="_base">
           <rect id="button" ry="5" rx="5" y="6" x="6" height="38" width="38"
                fill="#f2f5e9" fill-opacity="0.5" stroke="#606060" stroke-width="1.0"/>
           <path id="arrow"
             d="M 11.500037,31.436501 C 11.940474,20.09759 22.043105,11.32322 32.158766,21.979434 L 37.068811,17.246167 C 37.068811,17.246167 37.088388,32 37.088388,32 L 22.160133,31.978069 C 22.160133,31.978069 26.997745,27.140456 26.997745,27.140456 C 18.528582,18.264221 13.291696,25.230495 11.500037,31.436501 z"
             style="fill:#404040;"/>
          </a>
         </g>
        </svg>
</svg>
