<?xml version="1.0" encoding="UTF-8" standalone="no"?>
<!DOCTYPE svg PUBLIC "-//W3C//DTD SVG 1.1//EN"
 "http://www.w3.org/Graphics/SVG/1.1/DTD/svg11.dtd">
<!-- Generated by graphviz version 2.40.1 (20161225.0304)
 -->
<!-- Title: chig::graphFunctionToJson Pages: 1 -->
<!--zoomable 701 -->
<svg id="main" version="1.1" xmlns="http://www.w3.org/2000/svg" xmlns:xlink="http://www.w3.org/1999/xlink" xml:space="preserve" onload="init(evt)">
<style type="text/css"><![CDATA[
.edge:hover path { stroke: red; }
.edge:hover polygon { stroke: red; fill: red; }
]]></style>
<script type="text/javascript"><![CDATA[
var edges = document.getElementsByTagName('g');
if (edges && edges.length) {
  for (var i=0;i<edges.length;i++) {
    if (edges[i].id.substr(0,4)=='edge') {
      edges[i].setAttribute('class','edge');
    }
  }
}
]]></script>
        <defs>
                <circle id="rim" cx="0" cy="0" r="7"/>
                <circle id="rim2" cx="0" cy="0" r="3.5"/>
                <g id="zoomPlus">
                        <use xlink:href="#rim" fill="#404040">
                                <set attributeName="fill" to="#808080" begin="zoomplus.mouseover" end="zoomplus.mouseout"/>
                        </use>
                        <path d="M-4,0h8M0,-4v8" fill="none" stroke="white" stroke-width="1.5" pointer-events="none"/>
                </g>
                <g id="zoomMin">
                        <use xlink:href="#rim" fill="#404040">
                                <set attributeName="fill" to="#808080" begin="zoomminus.mouseover" end="zoomminus.mouseout"/>
                        </use>
                        <path d="M-4,0h8" fill="none" stroke="white" stroke-width="1.5" pointer-events="none"/>
                </g>
                <g id="dirArrow">
                        <path fill="none" stroke="white" stroke-width="1.5" d="M0,-3.0v7 M-2.5,-0.5L0,-3.0L2.5,-0.5"/>
                </g>
               <g id="resetDef">
                       <use xlink:href="#rim2" fill="#404040">
                               <set attributeName="fill" to="#808080" begin="reset.mouseover" end="reset.mouseout"/>
                       </use>
               </g>
        </defs>

<script type="text/javascript">
var viewWidth = 1172;
var viewHeight = 701;
var sectionId = 'dynsection-12';
</script>
<script xlink:href="svgpan.js"/>
<svg id="graph" class="graph">
<g id="viewport">
<title>chig::graphFunctionToJson</title>
<polygon fill="#ffffff" stroke="transparent" points="-4,4 -4,-696.7222 1168,-696.7222 1168,4 -4,4"/>
<!-- Node163 -->
<g id="node1" class="node">
<title>Node163</title>
<polygon fill="#bfbfbf" stroke="#000000" points="0,-337.7222 0,-356.7222 144,-356.7222 144,-337.7222 0,-337.7222"/>
<text text-anchor="middle" x="72" y="-344.7222" font-family="Helvetica,sans-Serif" font-size="10.00" fill="#000000">chig::graphFunctionToJson</text>
</g>
<!-- Node164 -->
<g id="node2" class="node">
<title>Node164</title>
<g id="a_node2"><a xlink:href="structchig_1_1GraphFunction.html#a42c555949c37c229eae02af3dabae189" target="_top" xlink:title="Get the function data inputs in the format {type, docstring}. ">
<polygon fill="#ffffff" stroke="#000000" points="712.5,-564.2222 712.5,-594.2222 825.5,-594.2222 825.5,-564.2222 712.5,-564.2222"/>
<text text-anchor="start" x="720.5" y="-582.2222" font-family="Helvetica,sans-Serif" font-size="10.00" fill="#000000">chig::GraphFunction</text>
<text text-anchor="middle" x="769" y="-571.2222" font-family="Helvetica,sans-Serif" font-size="10.00" fill="#000000">::dataInputs</text>
</a>
</g>
</g>
<!-- Node163&#45;&gt;Node164 -->
<g id="edge1" class="edge">
<title>Node163&#45;&gt;Node164</title>
<path fill="none" stroke="#191970" d="M88.4036,-356.7491C109.2039,-368.5523 146.4104,-388.7486 180,-402.2222 364.2697,-476.1374 591.597,-536.0582 702.215,-563.3179"/>
<polygon fill="#191970" stroke="#191970" points="701.6829,-566.7911 712.2289,-565.7749 703.351,-559.9927 701.6829,-566.7911"/>
</g>
<!-- Node169 -->
<g id="node7" class="node">
<title>Node169</title>
<g id="a_node7"><a xlink:href="structchig_1_1GraphFunction.html#a3291c0b882b4f73e5d60af4ca75b1a37" target="_top" xlink:title="Get the name of the function. ">
<polygon fill="#ffffff" stroke="#000000" points="1047.5,-324.2222 1047.5,-354.2222 1160.5,-354.2222 1160.5,-324.2222 1047.5,-324.2222"/>
<text text-anchor="start" x="1055.5" y="-342.2222" font-family="Helvetica,sans-Serif" font-size="10.00" fill="#000000">chig::GraphFunction</text>
<text text-anchor="middle" x="1104" y="-331.2222" font-family="Helvetica,sans-Serif" font-size="10.00" fill="#000000">::name</text>
</a>
</g>
</g>
<!-- Node163&#45;&gt;Node169 -->
<g id="edge41" class="edge">
<title>Node163&#45;&gt;Node169</title>
<path fill="none" stroke="#191970" d="M144.2499,-353.7609C211.2595,-359.257 313.7822,-366.2222 403,-366.2222 403,-366.2222 403,-366.2222 583,-366.2222 746.3633,-366.2222 938.1544,-352.8193 1037.2212,-344.8998"/>
<polygon fill="#191970" stroke="#191970" points="1037.6987,-348.3728 1047.3851,-344.0805 1037.1362,-341.3954 1037.6987,-348.3728"/>
</g>
<!-- Node170 -->
<g id="node8" class="node">
<title>Node170</title>
<g id="a_node8"><a xlink:href="structchig_1_1GraphFunction.html#a94dca2e45795b16d6b4fe0be6c07f250" target="_top" xlink:title="Get the function data outputs in the format {type, docstring}. ">
<polygon fill="#ffffff" stroke="#000000" points="712.5,-307.2222 712.5,-337.2222 825.5,-337.2222 825.5,-307.2222 712.5,-307.2222"/>
<text text-anchor="start" x="720.5" y="-325.2222" font-family="Helvetica,sans-Serif" font-size="10.00" fill="#000000">chig::GraphFunction</text>
<text text-anchor="middle" x="769" y="-314.2222" font-family="Helvetica,sans-Serif" font-size="10.00" fill="#000000">::dataOutputs</text>
</a>
</g>
</g>
<!-- Node163&#45;&gt;Node170 -->
<g id="edge7" class="edge">
<title>Node163&#45;&gt;Node170</title>
<path fill="none" stroke="#191970" d="M144.2921,-344.6292C279.917,-339.7646 570.6649,-329.3361 702.0759,-324.6226"/>
<polygon fill="#191970" stroke="#191970" points="702.5273,-328.1088 712.3954,-324.2525 702.2763,-321.1133 702.5273,-328.1088"/>
</g>
<!-- Node174 -->
<g id="node12" class="node">
<title>Node174</title>
<g id="a_node12"><a xlink:href="structchig_1_1GraphFunction.html#a217197f9e54f57cd7a8751a335f4710b" target="_top" xlink:title="Get the function exec inputs. ">
<polygon fill="#ffffff" stroke="#000000" points="712.5,-417.2222 712.5,-447.2222 825.5,-447.2222 825.5,-417.2222 712.5,-417.2222"/>
<text text-anchor="start" x="720.5" y="-435.2222" font-family="Helvetica,sans-Serif" font-size="10.00" fill="#000000">chig::GraphFunction</text>
<text text-anchor="middle" x="769" y="-424.2222" font-family="Helvetica,sans-Serif" font-size="10.00" fill="#000000">::execInputs</text>
</a>
</g>
</g>
<!-- Node163&#45;&gt;Node174 -->
<g id="edge13" class="edge">
<title>Node163&#45;&gt;Node174</title>
<path fill="none" stroke="#191970" d="M97.8023,-356.7721C119.4441,-364.376 151.3259,-374.6392 180,-380.2222 366.9301,-416.6189 592.2465,-427.572 702.1485,-430.8444"/>
<polygon fill="#191970" stroke="#191970" points="702.3229,-434.3507 712.4187,-431.1377 702.5228,-427.3535 702.3229,-434.3507"/>
</g>
<!-- Node178 -->
<g id="node16" class="node">
<title>Node178</title>
<g id="a_node16"><a xlink:href="structchig_1_1GraphFunction.html#ae155f716b072ef5f8e3ba064ae7ef8c0" target="_top" xlink:title="Get the function exec outputs. ">
<polygon fill="#ffffff" stroke="#000000" points="180,-176.2222 180,-206.2222 293,-206.2222 293,-176.2222 180,-176.2222"/>
<text text-anchor="start" x="188" y="-194.2222" font-family="Helvetica,sans-Serif" font-size="10.00" fill="#000000">chig::GraphFunction</text>
<text text-anchor="middle" x="236.5" y="-183.2222" font-family="Helvetica,sans-Serif" font-size="10.00" fill="#000000">::execOutputs</text>
</a>
</g>
</g>
<!-- Node163&#45;&gt;Node178 -->
<g id="edge17" class="edge">
<title>Node163&#45;&gt;Node178</title>
<path fill="none" stroke="#191970" d="M82.2902,-337.4637C108.1856,-312.9064 176.5732,-248.0525 212.9556,-213.55"/>
<polygon fill="#191970" stroke="#191970" points="215.7814,-215.6939 220.629,-206.2731 210.9646,-210.6146 215.7814,-215.6939"/>
</g>
<!-- Node193 -->
<g id="node31" class="node">
<title>Node193</title>
<g id="a_node31"><a xlink:href="structchig_1_1GraphFunction.html#a13cb6ea56ea3161cf0983a3922ac3b06" target="_top" xlink:title="Get the nodes in the function Usually called by connectData or connectExec or GraphFunction. ">
<polygon fill="#ffffff" stroke="#000000" points="180,-127.2222 180,-157.2222 293,-157.2222 293,-127.2222 180,-127.2222"/>
<text text-anchor="start" x="188" y="-145.2222" font-family="Helvetica,sans-Serif" font-size="10.00" fill="#000000">chig::GraphFunction</text>
<text text-anchor="middle" x="236.5" y="-134.2222" font-family="Helvetica,sans-Serif" font-size="10.00" fill="#000000">::nodes</text>
</a>
</g>
</g>
<!-- Node163&#45;&gt;Node193 -->
<g id="edge42" class="edge">
<title>Node163&#45;&gt;Node193</title>
<path fill="none" stroke="#191970" d="M75.3427,-337.6306C86.029,-308.246 122.093,-218.3681 180,-167.2222 181.731,-165.6933 183.5705,-164.2448 185.488,-162.8738"/>
<polygon fill="#191970" stroke="#191970" points="187.6848,-165.6277 194.3002,-157.3519 183.9679,-159.696 187.6848,-165.6277"/>
</g>
<!-- Node165 -->
<g id="node3" class="node">
<title>Node165</title>
<g id="a_node3"><a xlink:href="structchig_1_1GraphFunction.html#a58da0f0d53f153a37bb4ba7bdc00df75" target="_top" xlink:title="Add an input to the end of the argument list. ">
<polygon fill="#ffffff" stroke="#000000" points="890,-613.2222 890,-643.2222 1003,-643.2222 1003,-613.2222 890,-613.2222"/>
<text text-anchor="start" x="898" y="-631.2222" font-family="Helvetica,sans-Serif" font-size="10.00" fill="#000000">chig::GraphFunction</text>
<text text-anchor="middle" x="946.5" y="-620.2222" font-family="Helvetica,sans-Serif" font-size="10.00" fill="#000000">::addDataInput</text>
</a>
</g>
</g>
<!-- Node164&#45;&gt;Node165 -->
<g id="edge2" class="edge">
<title>Node164&#45;&gt;Node165</title>
<path fill="none" stroke="#191970" d="M823.7042,-594.3237C842.1803,-599.4241 862.9768,-605.1651 882.1308,-610.4527"/>
<polygon fill="#191970" stroke="#191970" points="881.4056,-613.8833 891.9764,-613.1706 883.2684,-607.1357 881.4056,-613.8833"/>
</g>
<!-- Node166 -->
<g id="node4" class="node">
<title>Node166</title>
<g id="a_node4"><a xlink:href="structchig_1_1GraphFunction.html#a9698f54861e9997f2690e10e0e8316c8" target="_top" xlink:title="Remove an input from the argument list. ">
<polygon fill="#ffffff" stroke="#000000" points="890,-662.2222 890,-692.2222 1003,-692.2222 1003,-662.2222 890,-662.2222"/>
<text text-anchor="start" x="898" y="-680.2222" font-family="Helvetica,sans-Serif" font-size="10.00" fill="#000000">chig::GraphFunction</text>
<text text-anchor="middle" x="946.5" y="-669.2222" font-family="Helvetica,sans-Serif" font-size="10.00" fill="#000000">::removeDataInput</text>
</a>
</g>
</g>
<!-- Node164&#45;&gt;Node166 -->
<g id="edge3" class="edge">
<title>Node164&#45;&gt;Node166</title>
<path fill="none" stroke="#191970" d="M790.0591,-594.4436C812.7491,-610.4107 850.2842,-635.5897 885,-653.2222 888.3115,-654.9042 891.7701,-656.5449 895.2855,-658.1278"/>
<polygon fill="#191970" stroke="#191970" points="894.0932,-661.4252 904.6617,-662.1718 896.8655,-654.9975 894.0932,-661.4252"/>
</g>
<!-- Node167 -->
<g id="node5" class="node">
<title>Node167</title>
<g id="a_node5"><a xlink:href="structchig_1_1GraphFunction.html#a1ac9ba57c83cafb7517921d49425db5c" target="_top" xlink:title="Modify an input (change it&#39;s type and docstring) ">
<polygon fill="#ffffff" stroke="#000000" points="890,-564.2222 890,-594.2222 1003,-594.2222 1003,-564.2222 890,-564.2222"/>
<text text-anchor="start" x="898" y="-582.2222" font-family="Helvetica,sans-Serif" font-size="10.00" fill="#000000">chig::GraphFunction</text>
<text text-anchor="middle" x="946.5" y="-571.2222" font-family="Helvetica,sans-Serif" font-size="10.00" fill="#000000">::modifyDataInput</text>
</a>
</g>
</g>
<!-- Node164&#45;&gt;Node167 -->
<g id="edge4" class="edge">
<title>Node164&#45;&gt;Node167</title>
<path fill="none" stroke="#191970" d="M825.6501,-579.2222C842.7823,-579.2222 861.7589,-579.2222 879.4997,-579.2222"/>
<polygon fill="#191970" stroke="#191970" points="879.7793,-582.7223 889.7792,-579.2222 879.7792,-575.7223 879.7793,-582.7223"/>
</g>
<!-- Node168 -->
<g id="node6" class="node">
<title>Node168</title>
<g id="a_node6"><a xlink:href="structchig_1_1DataType.html#a307eaa94c9f2d408c7a204e364b02b22" target="_top" xlink:title="Check if the DataType is valid. ">
<polygon fill="#ffffff" stroke="#000000" points="1044,-471.7222 1044,-490.7222 1164,-490.7222 1164,-471.7222 1044,-471.7222"/>
<text text-anchor="middle" x="1104" y="-478.7222" font-family="Helvetica,sans-Serif" font-size="10.00" fill="#000000">chig::DataType::valid</text>
</a>
</g>
</g>
<!-- Node167&#45;&gt;Node168 -->
<g id="edge5" class="edge">
<title>Node167&#45;&gt;Node168</title>
<path fill="none" stroke="#191970" d="M989.9007,-564.0885C996.1087,-561.4091 1002.3125,-558.4364 1008,-555.2222 1037.2325,-538.7021 1067.3195,-514.0273 1085.8392,-497.7812"/>
<polygon fill="#191970" stroke="#191970" points="1088.3485,-500.2333 1093.4897,-490.9694 1083.6936,-495.0053 1088.3485,-500.2333"/>
</g>
<!-- Node167&#45;&gt;Node169 -->
<g id="edge6" class="edge">
<title>Node167&#45;&gt;Node169</title>
<path fill="none" stroke="#191970" d="M996.4511,-564.0937C1000.6616,-561.5668 1004.6008,-558.6307 1008,-555.2222 1039.2976,-523.839 1026.2683,-502.8428 1044,-462.2222 1059.1885,-427.4279 1078.7921,-388.1489 1091.3819,-363.5394"/>
<polygon fill="#191970" stroke="#191970" points="1094.539,-365.0533 1095.998,-354.5594 1088.3134,-361.853 1094.539,-365.0533"/>
</g>
<!-- Node171 -->
<g id="node9" class="node">
<title>Node171</title>
<g id="a_node9"><a xlink:href="structchig_1_1GraphFunction.html#af76e111d051ead319035f83785b932e2" target="_top" xlink:title="Add an data output to the end of the argument list. ">
<polygon fill="#ffffff" stroke="#000000" points="890,-231.2222 890,-261.2222 1003,-261.2222 1003,-231.2222 890,-231.2222"/>
<text text-anchor="start" x="898" y="-249.2222" font-family="Helvetica,sans-Serif" font-size="10.00" fill="#000000">chig::GraphFunction</text>
<text text-anchor="middle" x="946.5" y="-238.2222" font-family="Helvetica,sans-Serif" font-size="10.00" fill="#000000">::addDataOutput</text>
</a>
</g>
</g>
<!-- Node170&#45;&gt;Node171 -->
<g id="edge8" class="edge">
<title>Node170&#45;&gt;Node171</title>
<path fill="none" stroke="#191970" d="M825.9171,-307.8654C833.8453,-305.0883 841.751,-301.8815 849,-298.2222 866.8541,-289.2095 867.5922,-281.0694 885,-271.2222 888.4562,-269.2671 892.0961,-267.3854 895.8076,-265.5928"/>
<polygon fill="#191970" stroke="#191970" points="897.4824,-268.6754 905.1169,-261.3293 894.5676,-262.3111 897.4824,-268.6754"/>
</g>
<!-- Node172 -->
<g id="node10" class="node">
<title>Node172</title>
<g id="a_node10"><a xlink:href="structchig_1_1GraphFunction.html#ae6fc3833c6e0631177efb4e35e7f59e4" target="_top" xlink:title="Remove an data output from the argument list. ">
<polygon fill="#ffffff" stroke="#000000" points="888.5,-280.2222 888.5,-310.2222 1004.5,-310.2222 1004.5,-280.2222 888.5,-280.2222"/>
<text text-anchor="start" x="896.5" y="-298.2222" font-family="Helvetica,sans-Serif" font-size="10.00" fill="#000000">chig::GraphFunction</text>
<text text-anchor="middle" x="946.5" y="-287.2222" font-family="Helvetica,sans-Serif" font-size="10.00" fill="#000000">::removeDataOutput</text>
</a>
</g>
</g>
<!-- Node170&#45;&gt;Node172 -->
<g id="edge9" class="edge">
<title>Node170&#45;&gt;Node172</title>
<path fill="none" stroke="#191970" d="M825.6501,-313.605C842.3582,-311.0635 860.8206,-308.2551 878.1801,-305.6145"/>
<polygon fill="#191970" stroke="#191970" points="878.8923,-309.0466 888.2522,-304.0824 877.8395,-302.1262 878.8923,-309.0466"/>
</g>
<!-- Node173 -->
<g id="node11" class="node">
<title>Node173</title>
<g id="a_node11"><a xlink:href="structchig_1_1GraphFunction.html#a4a8166eb973ba7225491a2ec85421f53" target="_top" xlink:title="Modify an data output (change it&#39;s type and docstring) ">
<polygon fill="#ffffff" stroke="#000000" points="890,-368.2222 890,-398.2222 1003,-398.2222 1003,-368.2222 890,-368.2222"/>
<text text-anchor="start" x="898" y="-386.2222" font-family="Helvetica,sans-Serif" font-size="10.00" fill="#000000">chig::GraphFunction</text>
<text text-anchor="middle" x="946.5" y="-375.2222" font-family="Helvetica,sans-Serif" font-size="10.00" fill="#000000">::modifyDataOutput</text>
</a>
</g>
</g>
<!-- Node170&#45;&gt;Node173 -->
<g id="edge10" class="edge">
<title>Node170&#45;&gt;Node173</title>
<path fill="none" stroke="#191970" d="M812.8764,-337.3009C837.182,-345.6538 867.5811,-356.1008 893.2412,-364.9192"/>
<polygon fill="#191970" stroke="#191970" points="892.2264,-368.2713 902.8211,-368.2114 894.5015,-361.6513 892.2264,-368.2713"/>
</g>
<!-- Node173&#45;&gt;Node168 -->
<g id="edge11" class="edge">
<title>Node173&#45;&gt;Node168</title>
<path fill="none" stroke="#191970" d="M987.9034,-398.2936C994.764,-401.286 1001.6919,-404.6262 1008,-408.2222 1037.0243,-424.7679 1067.1626,-449.048 1085.7506,-464.993"/>
<polygon fill="#191970" stroke="#191970" points="1083.5905,-467.7528 1093.4327,-471.6748 1088.1844,-462.4712 1083.5905,-467.7528"/>
</g>
<!-- Node173&#45;&gt;Node169 -->
<g id="edge12" class="edge">
<title>Node173&#45;&gt;Node169</title>
<path fill="none" stroke="#191970" d="M1000.2621,-368.203C1013.1154,-364.6122 1026.9595,-360.7446 1040.2162,-357.0412"/>
<polygon fill="#191970" stroke="#191970" points="1041.5235,-360.31 1050.213,-354.2484 1039.64,-353.5682 1041.5235,-360.31"/>
</g>
<!-- Node175 -->
<g id="node13" class="node">
<title>Node175</title>
<g id="a_node13"><a xlink:href="structchig_1_1GraphFunction.html#a61a90781bcdc650d6b2446dd16d8a079" target="_top" xlink:title="Add an exec input to the end of the argument list. ">
<polygon fill="#ffffff" stroke="#000000" points="890,-417.2222 890,-447.2222 1003,-447.2222 1003,-417.2222 890,-417.2222"/>
<text text-anchor="start" x="898" y="-435.2222" font-family="Helvetica,sans-Serif" font-size="10.00" fill="#000000">chig::GraphFunction</text>
<text text-anchor="middle" x="946.5" y="-424.2222" font-family="Helvetica,sans-Serif" font-size="10.00" fill="#000000">::addExecInput</text>
</a>
</g>
</g>
<!-- Node174&#45;&gt;Node175 -->
<g id="edge14" class="edge">
<title>Node174&#45;&gt;Node175</title>
<path fill="none" stroke="#191970" d="M825.6501,-432.2222C842.7823,-432.2222 861.7589,-432.2222 879.4997,-432.2222"/>
<polygon fill="#191970" stroke="#191970" points="879.7793,-435.7223 889.7792,-432.2222 879.7792,-428.7223 879.7793,-435.7223"/>
</g>
<!-- Node176 -->
<g id="node14" class="node">
<title>Node176</title>
<g id="a_node14"><a xlink:href="structchig_1_1GraphFunction.html#a390ce7b4174a06ecd00ae7c72af9e157" target="_top" xlink:title="Remove an exec input from the argument list. ">
<polygon fill="#ffffff" stroke="#000000" points="890,-515.2222 890,-545.2222 1003,-545.2222 1003,-515.2222 890,-515.2222"/>
<text text-anchor="start" x="898" y="-533.2222" font-family="Helvetica,sans-Serif" font-size="10.00" fill="#000000">chig::GraphFunction</text>
<text text-anchor="middle" x="946.5" y="-522.2222" font-family="Helvetica,sans-Serif" font-size="10.00" fill="#000000">::removeExecInput</text>
</a>
</g>
</g>
<!-- Node174&#45;&gt;Node176 -->
<g id="edge15" class="edge">
<title>Node174&#45;&gt;Node176</title>
<path fill="none" stroke="#191970" d="M790.0591,-447.4436C812.7491,-463.4107 850.2842,-488.5897 885,-506.2222 888.3115,-507.9042 891.7701,-509.5449 895.2855,-511.1278"/>
<polygon fill="#191970" stroke="#191970" points="894.0932,-514.4252 904.6617,-515.1718 896.8655,-507.9975 894.0932,-514.4252"/>
</g>
<!-- Node177 -->
<g id="node15" class="node">
<title>Node177</title>
<g id="a_node15"><a xlink:href="structchig_1_1GraphFunction.html#a66359dd63933d9c37b00d3894c979b11" target="_top" xlink:title="Modify an exec input (change docstring) ">
<polygon fill="#ffffff" stroke="#000000" points="890,-466.2222 890,-496.2222 1003,-496.2222 1003,-466.2222 890,-466.2222"/>
<text text-anchor="start" x="898" y="-484.2222" font-family="Helvetica,sans-Serif" font-size="10.00" fill="#000000">chig::GraphFunction</text>
<text text-anchor="middle" x="946.5" y="-473.2222" font-family="Helvetica,sans-Serif" font-size="10.00" fill="#000000">::modifyExecInput</text>
</a>
</g>
</g>
<!-- Node174&#45;&gt;Node177 -->
<g id="edge16" class="edge">
<title>Node174&#45;&gt;Node177</title>
<path fill="none" stroke="#191970" d="M823.7042,-447.3237C842.1803,-452.4241 862.9768,-458.1651 882.1308,-463.4527"/>
<polygon fill="#191970" stroke="#191970" points="881.4056,-466.8833 891.9764,-466.1706 883.2684,-460.1357 881.4056,-466.8833"/>
</g>
<!-- Node179 -->
<g id="node17" class="node">
<title>Node179</title>
<g id="a_node17"><a xlink:href="structchig_1_1GraphFunction.html#abbe7b69cdd8a02210fd2d5a580f1f80a" target="_top" xlink:title="Add an exec output to the end of the argument list. ">
<polygon fill="#ffffff" stroke="#000000" points="346.5,-220.2222 346.5,-250.2222 459.5,-250.2222 459.5,-220.2222 346.5,-220.2222"/>
<text text-anchor="start" x="354.5" y="-238.2222" font-family="Helvetica,sans-Serif" font-size="10.00" fill="#000000">chig::GraphFunction</text>
<text text-anchor="middle" x="403" y="-227.2222" font-family="Helvetica,sans-Serif" font-size="10.00" fill="#000000">::addExecOutput</text>
</a>
</g>
</g>
<!-- Node178&#45;&gt;Node179 -->
<g id="edge18" class="edge">
<title>Node178&#45;&gt;Node179</title>
<path fill="none" stroke="#191970" d="M293.3342,-206.2415C307.265,-209.9229 322.2967,-213.8952 336.6314,-217.6834"/>
<polygon fill="#191970" stroke="#191970" points="335.8596,-221.0995 346.422,-220.2707 337.6481,-214.3318 335.8596,-221.0995"/>
</g>
<!-- Node180 -->
<g id="node18" class="node">
<title>Node180</title>
<g id="a_node18"><a xlink:href="structchig_1_1GraphFunction.html#a90a589106d823501ecb6450636a19e64" target="_top" xlink:title="Remove an exec output from the argument list. ">
<polygon fill="#ffffff" stroke="#000000" points="345,-132.2222 345,-162.2222 461,-162.2222 461,-132.2222 345,-132.2222"/>
<text text-anchor="start" x="353" y="-150.2222" font-family="Helvetica,sans-Serif" font-size="10.00" fill="#000000">chig::GraphFunction</text>
<text text-anchor="middle" x="403" y="-139.2222" font-family="Helvetica,sans-Serif" font-size="10.00" fill="#000000">::removeExecOutput</text>
</a>
</g>
</g>
<!-- Node178&#45;&gt;Node180 -->
<g id="edge19" class="edge">
<title>Node178&#45;&gt;Node180</title>
<path fill="none" stroke="#191970" d="M293.3342,-176.203C307.1884,-172.5418 322.1316,-168.5929 336.3951,-164.8235"/>
<polygon fill="#191970" stroke="#191970" points="337.3656,-168.1873 346.1395,-162.2484 335.5771,-161.4196 337.3656,-168.1873"/>
</g>
<!-- Node181 -->
<g id="node19" class="node">
<title>Node181</title>
<g id="a_node19"><a xlink:href="structchig_1_1GraphFunction.html#ae355b017f2859dabff4fa17791317d77" target="_top" xlink:title="Modify an exec output (change docstring) ">
<polygon fill="#ffffff" stroke="#000000" points="346.5,-269.2222 346.5,-299.2222 459.5,-299.2222 459.5,-269.2222 346.5,-269.2222"/>
<text text-anchor="start" x="354.5" y="-287.2222" font-family="Helvetica,sans-Serif" font-size="10.00" fill="#000000">chig::GraphFunction</text>
<text text-anchor="middle" x="403" y="-276.2222" font-family="Helvetica,sans-Serif" font-size="10.00" fill="#000000">::modifyExecOutput</text>
</a>
</g>
</g>
<!-- Node178&#45;&gt;Node181 -->
<g id="edge20" class="edge">
<title>Node178&#45;&gt;Node181</title>
<path fill="none" stroke="#191970" d="M253.0947,-206.2691C270.7865,-221.6424 300.1704,-245.3134 329,-260.2222 332.4772,-262.0204 336.1156,-263.719 339.8342,-265.3176"/>
<polygon fill="#191970" stroke="#191970" points="338.6126,-268.5988 349.1963,-269.085 341.2259,-262.1049 338.6126,-268.5988"/>
</g>
<!-- Node190 -->
<g id="node28" class="node">
<title>Node190</title>
<g id="a_node28"><a xlink:href="structchig_1_1GraphFunction.html#a34c7e4d2c114b9ba672a55dc2793f69c" target="_top" xlink:title="Get a local varaible by name. ">
<polygon fill="#ffffff" stroke="#000000" points="513,-69.2222 513,-99.2222 653,-99.2222 653,-69.2222 513,-69.2222"/>
<text text-anchor="start" x="521" y="-87.2222" font-family="Helvetica,sans-Serif" font-size="10.00" fill="#000000">chig::GraphFunction</text>
<text text-anchor="middle" x="583" y="-76.2222" font-family="Helvetica,sans-Serif" font-size="10.00" fill="#000000">::localVariableFromName</text>
</a>
</g>
</g>
<!-- Node178&#45;&gt;Node190 -->
<g id="edge36" class="edge">
<title>Node178&#45;&gt;Node190</title>
<path fill="none" stroke="#191970" d="M278.5069,-176.1239C283.6024,-173.5109 288.5661,-170.5467 293,-167.2222 313.2155,-152.0646 307.0567,-135.7486 329,-123.2222 381.6696,-93.1558 450.0231,-84.0235 502.553,-82.0708"/>
<polygon fill="#191970" stroke="#191970" points="502.9446,-85.561 512.8386,-81.772 502.7412,-78.564 502.9446,-85.561"/>
</g>
<!-- Node191 -->
<g id="node29" class="node">
<title>Node191</title>
<g id="a_node29"><a xlink:href="structchig_1_1GraphFunction.html#ac926cac92bf82b3128015601dc1de1bd" target="_top" xlink:title="Create a new local varaible in the module. ">
<polygon fill="#ffffff" stroke="#000000" points="329,-44.2222 329,-74.2222 477,-74.2222 477,-44.2222 329,-44.2222"/>
<text text-anchor="start" x="337" y="-62.2222" font-family="Helvetica,sans-Serif" font-size="10.00" fill="#000000">chig::GraphFunction</text>
<text text-anchor="middle" x="403" y="-51.2222" font-family="Helvetica,sans-Serif" font-size="10.00" fill="#000000">::getOrCreateLocalVaraible</text>
</a>
</g>
</g>
<!-- Node178&#45;&gt;Node191 -->
<g id="edge37" class="edge">
<title>Node178&#45;&gt;Node191</title>
<path fill="none" stroke="#191970" d="M281.0782,-176.1581C285.4018,-173.5963 289.4807,-170.635 293,-167.2222 320.4095,-140.6422 301.3718,-115.5749 329,-89.2222 332.9498,-85.4547 337.4353,-82.1365 342.1981,-79.2184"/>
<polygon fill="#191970" stroke="#191970" points="343.9269,-82.2621 351.0149,-74.3874 340.5632,-76.1232 343.9269,-82.2621"/>
</g>
<!-- Node192 -->
<g id="node30" class="node">
<title>Node192</title>
<g id="a_node30"><a xlink:href="structchig_1_1GraphFunction.html#a359bee901dedb7db55cc84d9e8738695" target="_top" xlink:title="Remove a local variable from the module by name. ">
<polygon fill="#ffffff" stroke="#000000" points="520,-10.2222 520,-40.2222 646,-40.2222 646,-10.2222 520,-10.2222"/>
<text text-anchor="start" x="528" y="-28.2222" font-family="Helvetica,sans-Serif" font-size="10.00" fill="#000000">chig::GraphFunction</text>
<text text-anchor="middle" x="583" y="-17.2222" font-family="Helvetica,sans-Serif" font-size="10.00" fill="#000000">::removeLocalVaraible</text>
</a>
</g>
</g>
<!-- Node178&#45;&gt;Node192 -->
<g id="edge39" class="edge">
<title>Node178&#45;&gt;Node192</title>
<path fill="none" stroke="#191970" d="M282.5012,-176.2018C286.3964,-173.6489 289.9896,-170.6773 293,-167.2222 333.2287,-121.0511 281.0357,-72.2952 329,-34.2222 382.1427,7.9613 463.0842,2.7165 519.2564,-8.1999"/>
<polygon fill="#191970" stroke="#191970" points="518.5957,-11.6371 529.0951,-10.2184 520.0027,-4.78 518.5957,-11.6371"/>
</g>
<!-- Node182 -->
<g id="node20" class="node">
<title>Node182</title>
<g id="a_node20"><a xlink:href="structchig_1_1GraphFunction.html#ac4c14204d36773082b3fe93b48be4279" target="_top" xlink:title="Gets the nodes with a given type. ">
<polygon fill="#ffffff" stroke="#000000" points="526.5,-143.2222 526.5,-173.2222 639.5,-173.2222 639.5,-143.2222 526.5,-143.2222"/>
<text text-anchor="start" x="534.5" y="-161.2222" font-family="Helvetica,sans-Serif" font-size="10.00" fill="#000000">chig::GraphFunction</text>
<text text-anchor="middle" x="583" y="-150.2222" font-family="Helvetica,sans-Serif" font-size="10.00" fill="#000000">::nodesWithType</text>
</a>
</g>
</g>
<!-- Node181&#45;&gt;Node182 -->
<g id="edge21" class="edge">
<title>Node181&#45;&gt;Node182</title>
<path fill="none" stroke="#191970" d="M459.7618,-269.9533C465.8576,-267.2331 471.7441,-264.0174 477,-260.2222 498.9089,-244.4022 494.0298,-230.4681 513,-211.2222 524.4764,-199.5791 538.6228,-188.3894 551.1879,-179.3166"/>
<polygon fill="#191970" stroke="#191970" points="553.4287,-182.0191 559.5819,-173.3942 549.3932,-176.2995 553.4287,-182.0191"/>
</g>
<!-- Node185 -->
<g id="node23" class="node">
<title>Node185</title>
<g id="a_node23"><a xlink:href="structchig_1_1GraphFunction.html#abc41f524da8fd9b7308cb7abaa2b28c9" target="_top" xlink:title="Create a fresh NodeType for an entry. ">
<polygon fill="#ffffff" stroke="#000000" points="519,-269.2222 519,-299.2222 647,-299.2222 647,-269.2222 519,-269.2222"/>
<text text-anchor="start" x="527" y="-287.2222" font-family="Helvetica,sans-Serif" font-size="10.00" fill="#000000">chig::GraphFunction</text>
<text text-anchor="middle" x="583" y="-276.2222" font-family="Helvetica,sans-Serif" font-size="10.00" fill="#000000">::createEntryNodeType</text>
</a>
</g>
</g>
<!-- Node181&#45;&gt;Node185 -->
<g id="edge25" class="edge">
<title>Node181&#45;&gt;Node185</title>
<path fill="none" stroke="#191970" d="M459.9531,-284.2222C475.4767,-284.2222 492.5235,-284.2222 508.8515,-284.2222"/>
<polygon fill="#191970" stroke="#191970" points="508.9051,-287.7223 518.9051,-284.2222 508.905,-280.7223 508.9051,-287.7223"/>
</g>
<!-- Node189 -->
<g id="node27" class="node">
<title>Node189</title>
<g id="a_node27"><a xlink:href="structchig_1_1GraphFunction.html#ac7c52122fef0c74d9d0ee04af9a741c4" target="_top" xlink:title="Create a fresh NodeType for an exit. ">
<polygon fill="#ffffff" stroke="#000000" points="522,-220.2222 522,-250.2222 644,-250.2222 644,-220.2222 522,-220.2222"/>
<text text-anchor="start" x="530" y="-238.2222" font-family="Helvetica,sans-Serif" font-size="10.00" fill="#000000">chig::GraphFunction</text>
<text text-anchor="middle" x="583" y="-227.2222" font-family="Helvetica,sans-Serif" font-size="10.00" fill="#000000">::createExitNodeType</text>
</a>
</g>
</g>
<!-- Node181&#45;&gt;Node189 -->
<g id="edge31" class="edge">
<title>Node181&#45;&gt;Node189</title>
<path fill="none" stroke="#191970" d="M458.4747,-269.1208C477.297,-263.9969 498.494,-258.2266 517.9914,-252.919"/>
<polygon fill="#191970" stroke="#191970" points="518.979,-256.2776 527.7085,-250.2738 517.1403,-249.5234 518.979,-256.2776"/>
</g>
<!-- Node182&#45;&gt;Node169 -->
<g id="edge24" class="edge">
<title>Node182&#45;&gt;Node169</title>
<path fill="none" stroke="#191970" d="M609.44,-143.1125C630.2952,-132.1078 660.5191,-118.1356 689,-112.2222 758.6262,-97.7659 779.4509,-97.3993 849,-112.2222 924.692,-128.3544 949.7936,-132.2168 1008,-183.2222 1050.2662,-220.2595 1079.9254,-280.5004 1094.2421,-314.2604"/>
<polygon fill="#191970" stroke="#191970" points="1091.1414,-315.9222 1098.1897,-323.8325 1097.6128,-313.2534 1091.1414,-315.9222"/>
</g>
<!-- Node183 -->
<g id="node21" class="node">
<title>Node183</title>
<g id="a_node21"><a xlink:href="structchig_1_1GraphFunction.html#a2eddb58def91a9e0fce7212db3834827" target="_top" xlink:title="Get the GraphModule that contains this GraphFunction. ">
<polygon fill="#ffffff" stroke="#000000" points="712.5,-121.2222 712.5,-151.2222 825.5,-151.2222 825.5,-121.2222 712.5,-121.2222"/>
<text text-anchor="start" x="720.5" y="-139.2222" font-family="Helvetica,sans-Serif" font-size="10.00" fill="#000000">chig::GraphFunction</text>
<text text-anchor="middle" x="769" y="-128.2222" font-family="Helvetica,sans-Serif" font-size="10.00" fill="#000000">::module</text>
</a>
</g>
</g>
<!-- Node182&#45;&gt;Node183 -->
<g id="edge22" class="edge">
<title>Node182&#45;&gt;Node183</title>
<path fill="none" stroke="#191970" d="M639.5637,-151.5319C659.4032,-149.1853 681.8704,-146.5279 702.4523,-144.0934"/>
<polygon fill="#191970" stroke="#191970" points="702.8653,-147.5691 712.3849,-142.9186 702.043,-140.6175 702.8653,-147.5691"/>
</g>
<!-- Node184 -->
<g id="node22" class="node">
<title>Node184</title>
<g id="a_node22"><a xlink:href="structchig_1_1ChigModule.html#a1fe8df6ff170ecd33057387571bb5cd2" target="_top" xlink:title="Get the short name of the module (the last bit) ">
<polygon fill="#ffffff" stroke="#000000" points="702,-170.7222 702,-189.7222 836,-189.7222 836,-170.7222 702,-170.7222"/>
<text text-anchor="middle" x="769" y="-177.7222" font-family="Helvetica,sans-Serif" font-size="10.00" fill="#000000">chig::ChigModule::name</text>
</a>
</g>
</g>
<!-- Node182&#45;&gt;Node184 -->
<g id="edge23" class="edge">
<title>Node182&#45;&gt;Node184</title>
<path fill="none" stroke="#191970" d="M639.5637,-164.9125C656.0031,-166.857 674.2467,-169.0148 691.7269,-171.0824"/>
<polygon fill="#191970" stroke="#191970" points="691.5694,-174.5881 701.9113,-172.287 692.3917,-167.6365 691.5694,-174.5881"/>
</g>
<!-- Node185&#45;&gt;Node164 -->
<g id="edge26" class="edge">
<title>Node185&#45;&gt;Node164</title>
<path fill="none" stroke="#191970" d="M592.202,-299.5936C610.4026,-329.9171 652.409,-399.5094 689,-457.2222 710.767,-491.5541 736.685,-530.7903 752.9936,-555.2872"/>
<polygon fill="#191970" stroke="#191970" points="750.2853,-557.5346 758.7448,-563.9133 756.1095,-553.6514 750.2853,-557.5346"/>
</g>
<!-- Node185&#45;&gt;Node174 -->
<g id="edge27" class="edge">
<title>Node185&#45;&gt;Node174</title>
<path fill="none" stroke="#191970" d="M601.8583,-299.2277C635.0013,-325.5996 703.7941,-380.338 741.9814,-410.7235"/>
<polygon fill="#191970" stroke="#191970" points="740.0875,-413.6893 750.0918,-417.177 744.446,-408.2118 740.0875,-413.6893"/>
</g>
<!-- Node186 -->
<g id="node24" class="node">
<title>Node186</title>
<g id="a_node24"><a xlink:href="structchig_1_1GraphFunction.html#a1e937f70e87b2d783211f31a6ddfb91c" target="_top" xlink:title="Get the context. ">
<polygon fill="#ffffff" stroke="#000000" points="712.5,-258.2222 712.5,-288.2222 825.5,-288.2222 825.5,-258.2222 712.5,-258.2222"/>
<text text-anchor="start" x="720.5" y="-276.2222" font-family="Helvetica,sans-Serif" font-size="10.00" fill="#000000">chig::GraphFunction</text>
<text text-anchor="middle" x="769" y="-265.2222" font-family="Helvetica,sans-Serif" font-size="10.00" fill="#000000">::context</text>
</a>
</g>
</g>
<!-- Node185&#45;&gt;Node186 -->
<g id="edge28" class="edge">
<title>Node185&#45;&gt;Node186</title>
<path fill="none" stroke="#191970" d="M647.0106,-280.4366C664.838,-279.3823 684.2445,-278.2346 702.2264,-277.1712"/>
<polygon fill="#191970" stroke="#191970" points="702.5616,-280.6576 712.3375,-276.5732 702.1482,-273.6698 702.5616,-280.6576"/>
</g>
<!-- Node187 -->
<g id="node25" class="node">
<title>Node187</title>
<g id="a_node25"><a xlink:href="structchig_1_1Context.html#ab1cfbdb1646a75316dfa60f117576f37" target="_top" xlink:title="Gets a NodeType from the JSON and name. ">
<polygon fill="#ffffff" stroke="#000000" points="689,-209.2222 689,-239.2222 849,-239.2222 849,-209.2222 689,-209.2222"/>
<text text-anchor="start" x="697" y="-227.2222" font-family="Helvetica,sans-Serif" font-size="10.00" fill="#000000">chig::Context::nodeTypeFrom</text>
<text text-anchor="middle" x="769" y="-216.2222" font-family="Helvetica,sans-Serif" font-size="10.00" fill="#000000">Module</text>
</a>
</g>
</g>
<!-- Node185&#45;&gt;Node187 -->
<g id="edge29" class="edge">
<title>Node185&#45;&gt;Node187</title>
<path fill="none" stroke="#191970" d="M628.08,-269.1605C646.8902,-262.9218 668.9808,-255.6548 689,-249.2222 695.9528,-246.9881 703.2542,-244.6692 710.5002,-242.3845"/>
<polygon fill="#191970" stroke="#191970" points="711.8186,-245.639 720.309,-239.3014 709.7196,-238.9611 711.8186,-245.639"/>
</g>
<!-- Node188 -->
<g id="node26" class="node">
<title>Node188</title>
<g id="a_node26"><a xlink:href="structchig_1_1Result.html#aabb30a56760c3a817518912d9eabb491" target="_top" xlink:title="Add a entry to the result, either a warning or an error. ">
<polygon fill="#ffffff" stroke="#000000" points="885,-192.7222 885,-211.7222 1008,-211.7222 1008,-192.7222 885,-192.7222"/>
<text text-anchor="middle" x="946.5" y="-199.7222" font-family="Helvetica,sans-Serif" font-size="10.00" fill="#000000">chig::Result::addEntry</text>
</a>
</g>
</g>
<!-- Node187&#45;&gt;Node188 -->
<g id="edge30" class="edge">
<title>Node187&#45;&gt;Node188</title>
<path fill="none" stroke="#191970" d="M849.1816,-214.2842C857.6726,-213.2318 866.2693,-212.1663 874.6567,-211.1267"/>
<polygon fill="#191970" stroke="#191970" points="875.2691,-214.5777 884.7627,-209.8742 874.408,-207.6309 875.2691,-214.5777"/>
</g>
<!-- Node189&#45;&gt;Node170 -->
<g id="edge32" class="edge">
<title>Node189&#45;&gt;Node170</title>
<path fill="none" stroke="#191970" d="M634.0664,-250.2461C640.673,-253.1041 647.1624,-256.4166 653,-260.2222 672.4888,-272.9273 669.1901,-286.0238 689,-298.2222 693.364,-300.9094 698.0479,-303.3121 702.8801,-305.4576"/>
<polygon fill="#191970" stroke="#191970" points="701.7279,-308.767 712.3106,-309.2737 704.3537,-302.2781 701.7279,-308.767"/>
</g>
<!-- Node189&#45;&gt;Node178 -->
<g id="edge33" class="edge">
<title>Node189&#45;&gt;Node178</title>
<path fill="none" stroke="#191970" d="M523.2969,-220.1714C508.2639,-216.8057 492.1054,-213.5487 477,-211.2222 418.6241,-202.2314 351.6107,-197.0778 303.1747,-194.2616"/>
<polygon fill="#191970" stroke="#191970" points="303.3118,-190.7639 293.1307,-193.6956 302.9179,-197.7528 303.3118,-190.7639"/>
</g>
<!-- Node189&#45;&gt;Node186 -->
<g id="edge34" class="edge">
<title>Node189&#45;&gt;Node186</title>
<path fill="none" stroke="#191970" d="M644.161,-247.7175C662.7396,-251.5131 683.2462,-255.7026 702.1773,-259.5703"/>
<polygon fill="#191970" stroke="#191970" points="701.7132,-263.0477 712.2114,-261.6202 703.1144,-256.1893 701.7132,-263.0477"/>
</g>
<!-- Node189&#45;&gt;Node187 -->
<g id="edge35" class="edge">
<title>Node189&#45;&gt;Node187</title>
<path fill="none" stroke="#191970" d="M644.161,-231.6052C655.2166,-230.9513 666.9549,-230.2571 678.6377,-229.5662"/>
<polygon fill="#191970" stroke="#191970" points="679.0956,-233.0453 688.8715,-228.961 678.6823,-226.0576 679.0956,-233.0453"/>
</g>
<!-- Node191&#45;&gt;Node190 -->
<g id="edge38" class="edge">
<title>Node191&#45;&gt;Node190</title>
<path fill="none" stroke="#191970" d="M477.2521,-69.535C485.7439,-70.7144 494.4288,-71.9207 502.9915,-73.1099"/>
<polygon fill="#191970" stroke="#191970" points="502.582,-76.5866 512.9684,-74.4956 503.545,-69.6531 502.582,-76.5866"/>
</g>
<!-- Node192&#45;&gt;Node169 -->
<g id="edge40" class="edge">
<title>Node192&#45;&gt;Node169</title>
<path fill="none" stroke="#191970" d="M646.1332,-21.7142C736.4968,-20.1047 903.3321,-30.2563 1008,-116.2222 1070.5714,-167.6135 1093.2931,-267.4455 1100.7376,-314.0819"/>
<polygon fill="#191970" stroke="#191970" points="1097.3125,-314.8443 1102.2462,-324.2202 1104.2362,-313.814 1097.3125,-314.8443"/>
</g>
</g>
</svg>
        <g id="navigator" transform="translate(0 0)" fill="#404254">
                <rect fill="#f2f5e9" fill-opacity="0.5" stroke="#606060" stroke-width=".5" x="0" y="0" width="60" height="60"/>
                <use id="zoomplus" xlink:href="#zoomPlus" x="17" y="9" onmousedown="handleZoom(evt,'in')"/>
                <use id="zoomminus" xlink:href="#zoomMin" x="42" y="9" onmousedown="handleZoom(evt,'out')"/>
                <use id="reset" xlink:href="#resetDef" x="30" y="36" onmousedown="handleReset()"/>
                <g id="arrowUp" xlink:href="#dirArrow" transform="translate(30 24)" onmousedown="handlePan(0,-1)">
                  <use xlink:href="#rim" fill="#404040">
                        <set attributeName="fill" to="#808080" begin="arrowUp.mouseover" end="arrowUp.mouseout"/>
                  </use>
                  <path fill="none" stroke="white" stroke-width="1.5" d="M0,-3.0v7 M-2.5,-0.5L0,-3.0L2.5,-0.5"/>
                </g>
                <g id="arrowRight" xlink:href="#dirArrow" transform="rotate(90) translate(36 -43)" onmousedown="handlePan(1,0)">
                  <use xlink:href="#rim" fill="#404040">
                        <set attributeName="fill" to="#808080" begin="arrowRight.mouseover" end="arrowRight.mouseout"/>
                  </use>
                  <path fill="none" stroke="white" stroke-width="1.5" d="M0,-3.0v7 M-2.5,-0.5L0,-3.0L2.5,-0.5"/>
                </g>
                <g id="arrowDown" xlink:href="#dirArrow" transform="rotate(180) translate(-30 -48)" onmousedown="handlePan(0,1)">
                  <use xlink:href="#rim" fill="#404040">
                        <set attributeName="fill" to="#808080" begin="arrowDown.mouseover" end="arrowDown.mouseout"/>
                  </use>
                  <path fill="none" stroke="white" stroke-width="1.5" d="M0,-3.0v7 M-2.5,-0.5L0,-3.0L2.5,-0.5"/>
                </g>
                <g id="arrowLeft" xlink:href="#dirArrow" transform="rotate(270) translate(-36 17)" onmousedown="handlePan(-1,0)">
                  <use xlink:href="#rim" fill="#404040">
                        <set attributeName="fill" to="#808080" begin="arrowLeft.mouseover" end="arrowLeft.mouseout"/>
                  </use>
                  <path fill="none" stroke="white" stroke-width="1.5" d="M0,-3.0v7 M-2.5,-0.5L0,-3.0L2.5,-0.5"/>
                </g>
        </g>
        <svg viewBox="0 0 15 15" width="100%" height="30px" preserveAspectRatio="xMaxYMin meet">
         <g id="arrow_out" transform="scale(0.3 0.3)">
          <a xlink:href="namespacechig_ad0fd9448ab1cd1d73351fad5967a7b9b_cgraph_org.svg" target="_base">
           <rect id="button" ry="5" rx="5" y="6" x="6" height="38" width="38"
                fill="#f2f5e9" fill-opacity="0.5" stroke="#606060" stroke-width="1.0"/>
           <path id="arrow"
             d="M 11.500037,31.436501 C 11.940474,20.09759 22.043105,11.32322 32.158766,21.979434 L 37.068811,17.246167 C 37.068811,17.246167 37.088388,32 37.088388,32 L 22.160133,31.978069 C 22.160133,31.978069 26.997745,27.140456 26.997745,27.140456 C 18.528582,18.264221 13.291696,25.230495 11.500037,31.436501 z"
             style="fill:#404040;"/>
          </a>
         </g>
        </svg>
</svg>
