<?xml version="1.0" encoding="UTF-8" standalone="no"?>
<!DOCTYPE svg PUBLIC "-//W3C//DTD SVG 1.1//EN"
 "http://www.w3.org/Graphics/SVG/1.1/DTD/svg11.dtd">
<!-- Generated by graphviz version 2.40.1 (20161225.0304)
 -->
<!-- Title: chig::connectData Pages: 1 -->
<svg width="882pt" height="151pt"
 viewBox="0.00 0.00 882.00 151.00" xmlns="http://www.w3.org/2000/svg" xmlns:xlink="http://www.w3.org/1999/xlink">
<g id="graph0" class="graph" transform="scale(1 1) rotate(0) translate(4 147)">
<title>chig::connectData</title>
<polygon fill="#ffffff" stroke="transparent" points="-4,4 -4,-147 878,-147 878,4 -4,4"/>
<!-- Node58 -->
<g id="node1" class="node">
<title>Node58</title>
<polygon fill="#bfbfbf" stroke="#000000" points="0,-82 0,-101 95,-101 95,-82 0,-82"/>
<text text-anchor="middle" x="47.5" y="-89" font-family="Helvetica,sans-Serif" font-size="10.00" fill="#000000">chig::connectData</text>
</g>
<!-- Node59 -->
<g id="node2" class="node">
<title>Node59</title>
<g id="a_node2"><a xlink:href="structchig_1_1NodeInstance.html#ac06ee5988ee5f130088fee83a550f4d2" target="_top" xlink:title="Get the containing GraphFunction. ">
<polygon fill="#ffffff" stroke="#000000" points="131,-76.5 131,-106.5 232,-106.5 232,-76.5 131,-76.5"/>
<text text-anchor="start" x="139" y="-94.5" font-family="Helvetica,sans-Serif" font-size="10.00" fill="#000000">chig::NodeInstance</text>
<text text-anchor="middle" x="181.5" y="-83.5" font-family="Helvetica,sans-Serif" font-size="10.00" fill="#000000">::function</text>
</a>
</g>
</g>
<!-- Node58&#45;&gt;Node59 -->
<g id="edge1" class="edge">
<title>Node58&#45;&gt;Node59</title>
<path fill="none" stroke="#191970" d="M105.3412,-84.8064C113.8324,-84.7013 122.5235,-84.7431 130.8553,-84.932"/>
<polygon fill="#191970" stroke="#191970" points="105.0499,-81.3113 95.1207,-85.0075 105.1876,-88.31 105.0499,-81.3113"/>
</g>
<!-- Node61 -->
<g id="node4" class="node">
<title>Node61</title>
<g id="a_node4"><a xlink:href="namespacechig.html#a62056798e67720d435705b99f7e16cd0" target="_top" xlink:title="Load a GraphFunction–must already exist (use createGraphFunctionDeclarationFromJson) ...">
<polygon fill="#ffffff" stroke="#000000" points="412,-118 412,-137 546,-137 546,-118 412,-118"/>
<text text-anchor="middle" x="479" y="-125" font-family="Helvetica,sans-Serif" font-size="10.00" fill="#000000">chig::jsonToGraphFunction</text>
</a>
</g>
</g>
<!-- Node58&#45;&gt;Node61 -->
<g id="edge14" class="edge">
<title>Node58&#45;&gt;Node61</title>
<path fill="none" stroke="#191970" d="M82.7558,-104.2666C97.4673,-109.011 114.8598,-113.8745 131,-116.5 227.6535,-132.2222 341.3371,-132.4509 411.792,-130.4992"/>
<polygon fill="#191970" stroke="#191970" points="83.6412,-100.8725 73.0475,-101.0301 81.4273,-107.5132 83.6412,-100.8725"/>
</g>
<!-- Node59&#45;&gt;Node58 -->
<g id="edge2" class="edge">
<title>Node59&#45;&gt;Node58</title>
<path fill="none" stroke="#191970" d="M120.8329,-98.2231C112.2106,-98.2965 103.4472,-98.2196 95.1207,-97.9925"/>
<polygon fill="#191970" stroke="#191970" points="120.9107,-101.7224 130.8553,-98.068 120.8023,-94.7233 120.9107,-101.7224"/>
</g>
<!-- Node60 -->
<g id="node3" class="node">
<title>Node60</title>
<g id="a_node3"><a xlink:href="namespacechig.html#a8a2e0029b591b2c20b39d570753f123f" target="_top" xlink:title="Connects two nodes&#39; exec connections. ">
<polygon fill="#ffffff" stroke="#000000" points="273,-85 273,-104 371,-104 371,-85 273,-85"/>
<text text-anchor="middle" x="322" y="-92" font-family="Helvetica,sans-Serif" font-size="10.00" fill="#000000">chig::connectExec</text>
</a>
</g>
</g>
<!-- Node59&#45;&gt;Node60 -->
<g id="edge3" class="edge">
<title>Node59&#45;&gt;Node60</title>
<path fill="none" stroke="#191970" d="M242.2827,-86.1026C252.4642,-86.2016 262.9159,-86.4984 272.7612,-86.9745"/>
<polygon fill="#191970" stroke="#191970" points="242.2349,-82.6026 232.2237,-86.0704 242.2124,-89.6025 242.2349,-82.6026"/>
</g>
<!-- Node64 -->
<g id="node7" class="node">
<title>Node64</title>
<g id="a_node7"><a xlink:href="namespacechig.html#a26aa6586df79345493de9fc130291c18" target="_top" xlink:title="Disconnect a data connection. ">
<polygon fill="#ffffff" stroke="#000000" points="268,-47 268,-66 376,-66 376,-47 268,-47"/>
<text text-anchor="middle" x="322" y="-54" font-family="Helvetica,sans-Serif" font-size="10.00" fill="#000000">chig::disconnectData</text>
</a>
</g>
</g>
<!-- Node59&#45;&gt;Node64 -->
<g id="edge8" class="edge">
<title>Node59&#45;&gt;Node64</title>
<path fill="none" stroke="#191970" d="M227.3137,-73.7142C240.2773,-70.0692 254.5093,-66.452 267.9114,-63.3854"/>
<polygon fill="#191970" stroke="#191970" points="226.3169,-70.359 217.6822,-76.4984 228.2609,-77.0837 226.3169,-70.359"/>
</g>
<!-- Node60&#45;&gt;Node59 -->
<g id="edge4" class="edge">
<title>Node60&#45;&gt;Node59</title>
<path fill="none" stroke="#191970" d="M262.7462,-99.9107C252.594,-99.8317 242.1277,-99.5538 232.2237,-99.0958"/>
<polygon fill="#191970" stroke="#191970" points="262.757,-103.4107 272.7612,-99.9228 262.7655,-96.4107 262.757,-103.4107"/>
</g>
<!-- Node60&#45;&gt;Node61 -->
<g id="edge5" class="edge">
<title>Node60&#45;&gt;Node61</title>
<path fill="none" stroke="#191970" d="M377.4243,-106.1497C395.8452,-110.0216 416.1268,-114.2846 433.6912,-117.9765"/>
<polygon fill="#191970" stroke="#191970" points="377.917,-102.6769 367.4109,-104.045 376.4771,-109.5272 377.917,-102.6769"/>
</g>
<!-- Node62 -->
<g id="node5" class="node">
<title>Node62</title>
<g id="a_node5"><a xlink:href="namespacechig.html#a1f28de74faa271cf31249935c9640c58" target="_top" xlink:title="Load a GraphModule from json. ">
<polygon fill="#ffffff" stroke="#000000" points="582,-118 582,-137 710,-137 710,-118 582,-118"/>
<text text-anchor="middle" x="646" y="-125" font-family="Helvetica,sans-Serif" font-size="10.00" fill="#000000">chig::jsonToGraphModule</text>
</a>
</g>
</g>
<!-- Node61&#45;&gt;Node62 -->
<g id="edge6" class="edge">
<title>Node61&#45;&gt;Node62</title>
<path fill="none" stroke="#191970" d="M556.6566,-127.5C565.0806,-127.5 573.5843,-127.5 581.8225,-127.5"/>
<polygon fill="#191970" stroke="#191970" points="556.444,-124.0001 546.4439,-127.5 556.4439,-131.0001 556.444,-124.0001"/>
</g>
<!-- Node63 -->
<g id="node6" class="node">
<title>Node63</title>
<g id="a_node6"><a xlink:href="structchig_1_1Context.html#a0d9ec5f2803a5777d2e389256ccb3e3b" target="_top" xlink:title="Load a module from JSON – avoid this use the string overload. ">
<polygon fill="#ffffff" stroke="#000000" points="746,-112.5 746,-142.5 874,-142.5 874,-112.5 746,-112.5"/>
<text text-anchor="start" x="754" y="-130.5" font-family="Helvetica,sans-Serif" font-size="10.00" fill="#000000">chig::Context::addModule</text>
<text text-anchor="middle" x="810" y="-119.5" font-family="Helvetica,sans-Serif" font-size="10.00" fill="#000000">FromJson</text>
</a>
</g>
</g>
<!-- Node62&#45;&gt;Node63 -->
<g id="edge7" class="edge">
<title>Node62&#45;&gt;Node63</title>
<path fill="none" stroke="#191970" d="M720.5641,-127.5C729.0037,-127.5 737.5492,-127.5 745.8391,-127.5"/>
<polygon fill="#191970" stroke="#191970" points="720.3465,-124.0001 710.3464,-127.5 720.3464,-131.0001 720.3465,-124.0001"/>
</g>
<!-- Node64&#45;&gt;Node58 -->
<g id="edge13" class="edge">
<title>Node64&#45;&gt;Node58</title>
<path fill="none" stroke="#191970" d="M257.4816,-56.0644C220.2641,-56.7611 172.7185,-59.2697 131,-66.5 111.3187,-69.911 89.7337,-76.4511 73.4408,-81.9866"/>
<polygon fill="#191970" stroke="#191970" points="257.7444,-59.561 267.6916,-55.9135 257.6409,-52.5618 257.7444,-59.561"/>
</g>
<!-- Node64&#45;&gt;Node59 -->
<g id="edge9" class="edge">
<title>Node64&#45;&gt;Node59</title>
<path fill="none" stroke="#191970" d="M293.1802,-69.2532C275.6347,-74.7602 252.7243,-80.7804 232.2237,-85.3769"/>
<polygon fill="#191970" stroke="#191970" points="294.4226,-72.5292 302.8321,-66.0847 292.2392,-65.8784 294.4226,-72.5292"/>
</g>
<!-- Node65 -->
<g id="node8" class="node">
<title>Node65</title>
<g id="a_node8"><a xlink:href="structchig_1_1GraphFunction.html#a398599d8fe1982a3c76462b1b2375a6e" target="_top" xlink:title="Remove a node from the function. ">
<polygon fill="#ffffff" stroke="#000000" points="427,-49.5 427,-79.5 531,-79.5 531,-49.5 427,-49.5"/>
<text text-anchor="start" x="435" y="-67.5" font-family="Helvetica,sans-Serif" font-size="10.00" fill="#000000">chig::GraphFunction</text>
<text text-anchor="middle" x="479" y="-56.5" font-family="Helvetica,sans-Serif" font-size="10.00" fill="#000000">::removeNode</text>
</a>
</g>
</g>
<!-- Node64&#45;&gt;Node65 -->
<g id="edge10" class="edge">
<title>Node64&#45;&gt;Node65</title>
<path fill="none" stroke="#191970" d="M386.2544,-59.7741C399.8103,-60.4649 413.9526,-61.1855 426.9904,-61.8498"/>
<polygon fill="#191970" stroke="#191970" points="386.1957,-56.2667 376.0305,-59.2531 385.8394,-63.2576 386.1957,-56.2667"/>
</g>
<!-- Node67 -->
<g id="node10" class="node">
<title>Node67</title>
<g id="a_node10"><a xlink:href="structchig_1_1NodeInstance.html#ab7b23fb84fff7176f7a6e62ce3762153" target="_top" xlink:title="Set the type of the node instance. ">
<polygon fill="#ffffff" stroke="#000000" points="428.5,-.5 428.5,-30.5 529.5,-30.5 529.5,-.5 428.5,-.5"/>
<text text-anchor="start" x="436.5" y="-18.5" font-family="Helvetica,sans-Serif" font-size="10.00" fill="#000000">chig::NodeInstance</text>
<text text-anchor="middle" x="479" y="-7.5" font-family="Helvetica,sans-Serif" font-size="10.00" fill="#000000">::setType</text>
</a>
</g>
</g>
<!-- Node64&#45;&gt;Node67 -->
<g id="edge12" class="edge">
<title>Node64&#45;&gt;Node67</title>
<path fill="none" stroke="#191970" d="M368.2495,-44.4221C387.0914,-39.5016 408.9337,-33.7976 428.2163,-28.762"/>
<polygon fill="#191970" stroke="#191970" points="367.2047,-41.0775 358.4136,-46.9907 368.9735,-47.8504 367.2047,-41.0775"/>
</g>
<!-- Node66 -->
<g id="node9" class="node">
<title>Node66</title>
<g id="a_node9"><a xlink:href="structchig_1_1GraphFunction.html#a79cbfaf26d9a966ae8048c81dc09777e" target="_top" xlink:title="chig::GraphFunction\l::nodes">
<polygon fill="#ffffff" stroke="#000000" points="594,-49.5 594,-79.5 698,-79.5 698,-49.5 594,-49.5"/>
<text text-anchor="start" x="602" y="-67.5" font-family="Helvetica,sans-Serif" font-size="10.00" fill="#000000">chig::GraphFunction</text>
<text text-anchor="middle" x="646" y="-56.5" font-family="Helvetica,sans-Serif" font-size="10.00" fill="#000000">::nodes</text>
</a>
</g>
</g>
<!-- Node65&#45;&gt;Node66 -->
<g id="edge11" class="edge">
<title>Node65&#45;&gt;Node66</title>
<path fill="none" stroke="#191970" d="M541.8565,-64.5C558.9812,-64.5 577.3418,-64.5 593.8042,-64.5"/>
<polygon fill="#191970" stroke="#191970" points="541.3817,-61.0001 531.3816,-64.5 541.3816,-68.0001 541.3817,-61.0001"/>
</g>
</g>
</svg>
