<?xml version="1.0" encoding="UTF-8" standalone="no"?>
<!DOCTYPE svg PUBLIC "-//W3C//DTD SVG 1.1//EN"
 "http://www.w3.org/Graphics/SVG/1.1/DTD/svg11.dtd">
<!-- Generated by graphviz version 2.40.1 (20161225.0304)
 -->
<!-- Title: chi::jsonToGraphModule Pages: 1 -->
<!--zoomable 85 -->
<svg id="main" version="1.1" xmlns="http://www.w3.org/2000/svg" xmlns:xlink="http://www.w3.org/1999/xlink" xml:space="preserve" onload="init(evt)">
<style type="text/css"><![CDATA[
.edge:hover path { stroke: red; }
.edge:hover polygon { stroke: red; fill: red; }
]]></style>
<script type="text/javascript"><![CDATA[
var edges = document.getElementsByTagName('g');
if (edges && edges.length) {
  for (var i=0;i<edges.length;i++) {
    if (edges[i].id.substr(0,4)=='edge') {
      edges[i].setAttribute('class','edge');
    }
  }
}
]]></script>
        <defs>
                <circle id="rim" cx="0" cy="0" r="7"/>
                <circle id="rim2" cx="0" cy="0" r="3.5"/>
                <g id="zoomPlus">
                        <use xlink:href="#rim" fill="#404040">
                                <set attributeName="fill" to="#808080" begin="zoomplus.mouseover" end="zoomplus.mouseout"/>
                        </use>
                        <path d="M-4,0h8M0,-4v8" fill="none" stroke="white" stroke-width="1.5" pointer-events="none"/>
                </g>
                <g id="zoomMin">
                        <use xlink:href="#rim" fill="#404040">
                                <set attributeName="fill" to="#808080" begin="zoomminus.mouseover" end="zoomminus.mouseout"/>
                        </use>
                        <path d="M-4,0h8" fill="none" stroke="white" stroke-width="1.5" pointer-events="none"/>
                </g>
                <g id="dirArrow">
                        <path fill="none" stroke="white" stroke-width="1.5" d="M0,-3.0v7 M-2.5,-0.5L0,-3.0L2.5,-0.5"/>
                </g>
               <g id="resetDef">
                       <use xlink:href="#rim2" fill="#404040">
                               <set attributeName="fill" to="#808080" begin="reset.mouseover" end="reset.mouseout"/>
                       </use>
               </g>
        </defs>

<script type="text/javascript">
var viewWidth = 1242;
var viewHeight = 85;
var sectionId = 'dynsection-25';
</script>
<script xlink:href="svgpan.js"/>
<svg id="graph" class="graph">
<g id="viewport">
<title>chi::jsonToGraphModule</title>
<polygon fill="#ffffff" stroke="transparent" points="-4,4 -4,-81 1238,-81 1238,4 -4,4"/>
<!-- Node483 -->
<g id="node1" class="node">
<title>Node483</title>
<polygon fill="#bfbfbf" stroke="#000000" points="0,-19.5 0,-38.5 122,-38.5 122,-19.5 0,-19.5"/>
<text text-anchor="middle" x="61" y="-26.5" font-family="Helvetica,sans-Serif" font-size="10.00" fill="#000000">chi::jsonToGraphModule</text>
</g>
<!-- Node484 -->
<g id="node2" class="node">
<title>Node484</title>
<g id="a_node2"><a xlink:href="structchi_1_1Context.html#a2db103f3a2f77710dfa51489f63ec97f" target="_top" xlink:title="Load a module from JSON – avoid this use the string overload. ">
<polygon fill="#ffffff" stroke="#000000" points="158,-19.5 158,-38.5 324,-38.5 324,-19.5 158,-19.5"/>
<text text-anchor="middle" x="241" y="-26.5" font-family="Helvetica,sans-Serif" font-size="10.00" fill="#000000">chi::Context::addModuleFromJson</text>
</a>
</g>
</g>
<!-- Node483&#45;&gt;Node484 -->
<g id="edge1" class="edge">
<title>Node483&#45;&gt;Node484</title>
<path fill="none" stroke="#191970" d="M132.3335,-29C140.7586,-29 149.412,-29 157.9806,-29"/>
<polygon fill="#191970" stroke="#191970" points="132.191,-25.5001 122.191,-29 132.1909,-32.5001 132.191,-25.5001"/>
</g>
<!-- Node485 -->
<g id="node3" class="node">
<title>Node485</title>
<g id="a_node3"><a xlink:href="structchi_1_1Context.html#a508c786fe61ffa67c2a44850ecac4a7b" target="_top" xlink:title="Load a module from disk, also loads dependencies. ">
<polygon fill="#ffffff" stroke="#000000" points="360,-19.5 360,-38.5 485,-38.5 485,-19.5 360,-19.5"/>
<text text-anchor="middle" x="422.5" y="-26.5" font-family="Helvetica,sans-Serif" font-size="10.00" fill="#000000">chi::Context::loadModule</text>
</a>
</g>
</g>
<!-- Node484&#45;&gt;Node485 -->
<g id="edge2" class="edge">
<title>Node484&#45;&gt;Node485</title>
<path fill="none" stroke="#191970" d="M334.2319,-29C342.9115,-29 351.5607,-29 359.8618,-29"/>
<polygon fill="#191970" stroke="#191970" points="334.0481,-25.5001 324.048,-29 334.048,-32.5001 334.0481,-25.5001"/>
</g>
<!-- Node486 -->
<g id="node4" class="node">
<title>Node486</title>
<g id="a_node4"><a xlink:href="structchi_1_1ChiModule.html#aab11d61e0c0138e5fc5ce176c20e3bec" target="_top" xlink:title="Add a dependency to the module Loads the module from context() if it isn&#39;t already loaded...">
<polygon fill="#ffffff" stroke="#000000" points="521,-19.5 521,-38.5 678,-38.5 678,-19.5 521,-19.5"/>
<text text-anchor="middle" x="599.5" y="-26.5" font-family="Helvetica,sans-Serif" font-size="10.00" fill="#000000">chi::ChiModule::addDependency</text>
</a>
</g>
</g>
<!-- Node485&#45;&gt;Node486 -->
<g id="edge3" class="edge">
<title>Node485&#45;&gt;Node486</title>
<path fill="none" stroke="#191970" d="M495.4468,-29C503.7758,-29 512.2946,-29 520.6954,-29"/>
<polygon fill="#191970" stroke="#191970" points="495.402,-25.5001 485.402,-29 495.4019,-32.5001 495.402,-25.5001"/>
</g>
<!-- Node487 -->
<g id="node5" class="node">
<title>Node487</title>
<g id="a_node5"><a xlink:href="structchi_1_1ChiModule.html#a9c0d4b1b54bca0194ea4061ae4883779" target="_top" xlink:title="Get the dependencies. ">
<polygon fill="#ffffff" stroke="#000000" points="719,-38.5 719,-57.5 866,-57.5 866,-38.5 719,-38.5"/>
<text text-anchor="middle" x="792.5" y="-45.5" font-family="Helvetica,sans-Serif" font-size="10.00" fill="#000000">chi::ChiModule::dependencies</text>
</a>
</g>
</g>
<!-- Node486&#45;&gt;Node487 -->
<g id="edge4" class="edge">
<title>Node486&#45;&gt;Node487</title>
<path fill="none" stroke="#191970" d="M688.1712,-37.7293C698.3983,-38.7361 708.7436,-39.7545 718.7433,-40.739"/>
<polygon fill="#191970" stroke="#191970" points="688.2953,-34.2247 678.0005,-36.728 687.6094,-41.191 688.2953,-34.2247"/>
</g>
<!-- Node491 -->
<g id="node9" class="node">
<title>Node491</title>
<g id="a_node9"><a xlink:href="structchi_1_1GraphModule.html#a1f776646b9c9bdd615f7e35cebf7760a" target="_top" xlink:title="Construct a GraphModule. ">
<polygon fill="#ffffff" stroke="#000000" points="714,-.5 714,-19.5 871,-19.5 871,-.5 714,-.5"/>
<text text-anchor="middle" x="792.5" y="-7.5" font-family="Helvetica,sans-Serif" font-size="10.00" fill="#000000">chi::GraphModule::GraphModule</text>
</a>
</g>
</g>
<!-- Node486&#45;&gt;Node491 -->
<g id="edge8" class="edge">
<title>Node486&#45;&gt;Node491</title>
<path fill="none" stroke="#191970" d="M688.0225,-20.2853C696.607,-19.4402 705.2762,-18.5868 713.7559,-17.752"/>
<polygon fill="#191970" stroke="#191970" points="687.6094,-16.809 678.0005,-21.272 688.2953,-23.7753 687.6094,-16.809"/>
</g>
<!-- Node488 -->
<g id="node6" class="node">
<title>Node488</title>
<g id="a_node6"><a xlink:href="structchi_1_1Context.html#ad535dc768a4386dbd06c8b769c5d549f" target="_top" xlink:title="Compile a module to a llvm::Module. ">
<polygon fill="#ffffff" stroke="#000000" points="907,-57.5 907,-76.5 1047,-76.5 1047,-57.5 907,-57.5"/>
<text text-anchor="middle" x="977" y="-64.5" font-family="Helvetica,sans-Serif" font-size="10.00" fill="#000000">chi::Context::compileModule</text>
</a>
</g>
</g>
<!-- Node487&#45;&gt;Node488 -->
<g id="edge5" class="edge">
<title>Node487&#45;&gt;Node488</title>
<path fill="none" stroke="#191970" d="M876.3096,-56.6308C886.4689,-57.677 896.7658,-58.7374 906.7021,-59.7606"/>
<polygon fill="#191970" stroke="#191970" points="876.5207,-53.1341 866.2147,-55.5912 875.8035,-60.0973 876.5207,-53.1341"/>
</g>
<!-- Node489 -->
<g id="node7" class="node">
<title>Node489</title>
<g id="a_node7"><a xlink:href="namespacechi.html#a9a4f3fa54c612f0c559a353bb7382d5a" target="_top" xlink:title="Serialize a JsonModule to json. ">
<polygon fill="#ffffff" stroke="#000000" points="915.5,-19.5 915.5,-38.5 1038.5,-38.5 1038.5,-19.5 915.5,-19.5"/>
<text text-anchor="middle" x="977" y="-26.5" font-family="Helvetica,sans-Serif" font-size="10.00" fill="#000000">chi::graphModuleToJson</text>
</a>
</g>
</g>
<!-- Node487&#45;&gt;Node489 -->
<g id="edge6" class="edge">
<title>Node487&#45;&gt;Node489</title>
<path fill="none" stroke="#191970" d="M876.2046,-39.38C889.3512,-38.0262 902.7313,-36.6483 915.2646,-35.3576"/>
<polygon fill="#191970" stroke="#191970" points="875.8035,-35.9027 866.2147,-40.4088 876.5207,-42.8659 875.8035,-35.9027"/>
</g>
<!-- Node490 -->
<g id="node8" class="node">
<title>Node490</title>
<g id="a_node8"><a xlink:href="structchi_1_1GraphModule.html#a5cd9fb1738336d5d382ebb50753bda3e" target="_top" xlink:title="Serialize to disk in the context. ">
<polygon fill="#ffffff" stroke="#000000" points="1083,-19.5 1083,-38.5 1234,-38.5 1234,-19.5 1083,-19.5"/>
<text text-anchor="middle" x="1158.5" y="-26.5" font-family="Helvetica,sans-Serif" font-size="10.00" fill="#000000">chi::GraphModule::saveToDisk</text>
</a>
</g>
</g>
<!-- Node489&#45;&gt;Node490 -->
<g id="edge7" class="edge">
<title>Node489&#45;&gt;Node490</title>
<path fill="none" stroke="#191970" d="M1048.8263,-29C1059.9968,-29 1071.5676,-29 1082.8204,-29"/>
<polygon fill="#191970" stroke="#191970" points="1048.7009,-25.5001 1038.7009,-29 1048.7008,-32.5001 1048.7009,-25.5001"/>
</g>
</g>
</svg>
        <g id="navigator" transform="translate(0 0)" fill="#404254">
                <rect fill="#f2f5e9" fill-opacity="0.5" stroke="#606060" stroke-width=".5" x="0" y="0" width="60" height="60"/>
                <use id="zoomplus" xlink:href="#zoomPlus" x="17" y="9" onmousedown="handleZoom(evt,'in')"/>
                <use id="zoomminus" xlink:href="#zoomMin" x="42" y="9" onmousedown="handleZoom(evt,'out')"/>
                <use id="reset" xlink:href="#resetDef" x="30" y="36" onmousedown="handleReset()"/>
                <g id="arrowUp" xlink:href="#dirArrow" transform="translate(30 24)" onmousedown="handlePan(0,-1)">
                  <use xlink:href="#rim" fill="#404040">
                        <set attributeName="fill" to="#808080" begin="arrowUp.mouseover" end="arrowUp.mouseout"/>
                  </use>
                  <path fill="none" stroke="white" stroke-width="1.5" d="M0,-3.0v7 M-2.5,-0.5L0,-3.0L2.5,-0.5"/>
                </g>
                <g id="arrowRight" xlink:href="#dirArrow" transform="rotate(90) translate(36 -43)" onmousedown="handlePan(1,0)">
                  <use xlink:href="#rim" fill="#404040">
                        <set attributeName="fill" to="#808080" begin="arrowRight.mouseover" end="arrowRight.mouseout"/>
                  </use>
                  <path fill="none" stroke="white" stroke-width="1.5" d="M0,-3.0v7 M-2.5,-0.5L0,-3.0L2.5,-0.5"/>
                </g>
                <g id="arrowDown" xlink:href="#dirArrow" transform="rotate(180) translate(-30 -48)" onmousedown="handlePan(0,1)">
                  <use xlink:href="#rim" fill="#404040">
                        <set attributeName="fill" to="#808080" begin="arrowDown.mouseover" end="arrowDown.mouseout"/>
                  </use>
                  <path fill="none" stroke="white" stroke-width="1.5" d="M0,-3.0v7 M-2.5,-0.5L0,-3.0L2.5,-0.5"/>
                </g>
                <g id="arrowLeft" xlink:href="#dirArrow" transform="rotate(270) translate(-36 17)" onmousedown="handlePan(-1,0)">
                  <use xlink:href="#rim" fill="#404040">
                        <set attributeName="fill" to="#808080" begin="arrowLeft.mouseover" end="arrowLeft.mouseout"/>
                  </use>
                  <path fill="none" stroke="white" stroke-width="1.5" d="M0,-3.0v7 M-2.5,-0.5L0,-3.0L2.5,-0.5"/>
                </g>
        </g>
        <svg viewBox="0 0 15 15" width="100%" height="30px" preserveAspectRatio="xMaxYMin meet">
         <g id="arrow_out" transform="scale(0.3 0.3)">
          <a xlink:href="namespacechi_a4489e333fecc4168278e94f8b3f81e3c_icgraph_org.svg" target="_base">
           <rect id="button" ry="5" rx="5" y="6" x="6" height="38" width="38"
                fill="#f2f5e9" fill-opacity="0.5" stroke="#606060" stroke-width="1.0"/>
           <path id="arrow"
             d="M 11.500037,31.436501 C 11.940474,20.09759 22.043105,11.32322 32.158766,21.979434 L 37.068811,17.246167 C 37.068811,17.246167 37.088388,32 37.088388,32 L 22.160133,31.978069 C 22.160133,31.978069 26.997745,27.140456 26.997745,27.140456 C 18.528582,18.264221 13.291696,25.230495 11.500037,31.436501 z"
             style="fill:#404040;"/>
          </a>
         </g>
        </svg>
</svg>
