<?xml version="1.0" encoding="UTF-8" standalone="no"?>
<!DOCTYPE svg PUBLIC "-//W3C//DTD SVG 1.1//EN"
 "http://www.w3.org/Graphics/SVG/1.1/DTD/svg11.dtd">
<!-- Generated by graphviz version 2.40.1 (20161225.0304)
 -->
<!-- Title: chi::parseColonPair Pages: 1 -->
<!--zoomable 205 -->
<svg id="main" version="1.1" xmlns="http://www.w3.org/2000/svg" xmlns:xlink="http://www.w3.org/1999/xlink" xml:space="preserve" onload="init(evt)">
<style type="text/css"><![CDATA[
.edge:hover path { stroke: red; }
.edge:hover polygon { stroke: red; fill: red; }
]]></style>
<script type="text/javascript"><![CDATA[
var edges = document.getElementsByTagName('g');
if (edges && edges.length) {
  for (var i=0;i<edges.length;i++) {
    if (edges[i].id.substr(0,4)=='edge') {
      edges[i].setAttribute('class','edge');
    }
  }
}
]]></script>
        <defs>
                <circle id="rim" cx="0" cy="0" r="7"/>
                <circle id="rim2" cx="0" cy="0" r="3.5"/>
                <g id="zoomPlus">
                        <use xlink:href="#rim" fill="#404040">
                                <set attributeName="fill" to="#808080" begin="zoomplus.mouseover" end="zoomplus.mouseout"/>
                        </use>
                        <path d="M-4,0h8M0,-4v8" fill="none" stroke="white" stroke-width="1.5" pointer-events="none"/>
                </g>
                <g id="zoomMin">
                        <use xlink:href="#rim" fill="#404040">
                                <set attributeName="fill" to="#808080" begin="zoomminus.mouseover" end="zoomminus.mouseout"/>
                        </use>
                        <path d="M-4,0h8" fill="none" stroke="white" stroke-width="1.5" pointer-events="none"/>
                </g>
                <g id="dirArrow">
                        <path fill="none" stroke="white" stroke-width="1.5" d="M0,-3.0v7 M-2.5,-0.5L0,-3.0L2.5,-0.5"/>
                </g>
               <g id="resetDef">
                       <use xlink:href="#rim2" fill="#404040">
                               <set attributeName="fill" to="#808080" begin="reset.mouseover" end="reset.mouseout"/>
                       </use>
               </g>
        </defs>

<script type="text/javascript">
var viewWidth = 1585;
var viewHeight = 205;
var sectionId = 'dynsection-30';
</script>
<script xlink:href="svgpan.js"/>
<svg id="graph" class="graph">
<g id="viewport">
<title>chi::parseColonPair</title>
<polygon fill="#ffffff" stroke="transparent" points="-4,4 -4,-201 1581,-201 1581,4 -4,4"/>
<!-- Node514 -->
<g id="node1" class="node">
<title>Node514</title>
<polygon fill="#bfbfbf" stroke="#000000" points="0,-90 0,-109 101,-109 101,-90 0,-90"/>
<text text-anchor="middle" x="50.5" y="-97" font-family="Helvetica,sans-Serif" font-size="10.00" fill="#000000">chi::parseColonPair</text>
</g>
<!-- Node515 -->
<g id="node2" class="node">
<title>Node515</title>
<g id="a_node2"><a xlink:href="namespacechi.html#af483dab3c6b3b1ee261f223bd83d5670" target="_top" xlink:title="Create a forward declaration of a function in a module with an empty graph. ">
<polygon fill="#ffffff" stroke="#000000" points="159,-166.5 159,-196.5 285,-196.5 285,-166.5 159,-166.5"/>
<text text-anchor="start" x="167" y="-184.5" font-family="Helvetica,sans-Serif" font-size="10.00" fill="#000000">chi::createGraphFunction</text>
<text text-anchor="middle" x="222" y="-173.5" font-family="Helvetica,sans-Serif" font-size="10.00" fill="#000000">DeclarationFromJson</text>
</a>
</g>
</g>
<!-- Node514&#45;&gt;Node515 -->
<g id="edge1" class="edge">
<title>Node514&#45;&gt;Node515</title>
<path fill="none" stroke="#191970" d="M70.4538,-115.1332C87.3686,-127.7585 112.6873,-145.2214 137,-156.5 144.9536,-160.1896 153.5793,-163.4756 162.1835,-166.3548"/>
<polygon fill="#191970" stroke="#191970" points="72.5037,-112.295 62.4244,-109.0303 68.2679,-117.868 72.5037,-112.295"/>
</g>
<!-- Node525 -->
<g id="node12" class="node">
<title>Node525</title>
<g id="a_node12"><a xlink:href="namespacechi.html#a6a3fedb48e6702c016f996d8a7f445fc" target="_top" xlink:title="Load a GraphFunction–must already exist (use createGraphFunctionDeclarationFromJson) ...">
<polygon fill="#ffffff" stroke="#000000" points="158,-128 158,-147 286,-147 286,-128 158,-128"/>
<text text-anchor="middle" x="222" y="-135" font-family="Helvetica,sans-Serif" font-size="10.00" fill="#000000">chi::jsonToGraphFunction</text>
</a>
</g>
</g>
<!-- Node514&#45;&gt;Node525 -->
<g id="edge11" class="edge">
<title>Node514&#45;&gt;Node525</title>
<path fill="none" stroke="#191970" d="M103.5412,-111.2526C127.7913,-116.6258 156.1467,-122.9086 179.0345,-127.9799"/>
<polygon fill="#191970" stroke="#191970" points="104.2971,-107.8352 93.7767,-109.089 102.7827,-114.6695 104.2971,-107.8352"/>
</g>
<!-- Node526 -->
<g id="node13" class="node">
<title>Node526</title>
<g id="a_node13"><a xlink:href="namespacechi.html#a629f77832b6e7a6e0eaab123c4be1cda" target="_top" xlink:title="Load a GraphStruct from json. ">
<polygon fill="#ffffff" stroke="#000000" points="163.5,-90 163.5,-109 280.5,-109 280.5,-90 163.5,-90"/>
<text text-anchor="middle" x="222" y="-97" font-family="Helvetica,sans-Serif" font-size="10.00" fill="#000000">chi::jsonToGraphStruct</text>
</a>
</g>
</g>
<!-- Node514&#45;&gt;Node526 -->
<g id="edge13" class="edge">
<title>Node514&#45;&gt;Node526</title>
<path fill="none" stroke="#191970" d="M111.3513,-99.5C128.2675,-99.5 146.5991,-99.5 163.3842,-99.5"/>
<polygon fill="#191970" stroke="#191970" points="111.0281,-96.0001 101.0281,-99.5 111.028,-103.0001 111.0281,-96.0001"/>
</g>
<!-- Node527 -->
<g id="node14" class="node">
<title>Node527</title>
<g id="a_node14"><a xlink:href="structchi_1_1CModule.html#a85955d3046f14df8957f1248285a3228" target="_top" xlink:title="Create a node type that is in the module from the name and json. ">
<polygon fill="#ffffff" stroke="#000000" points="137,-52 137,-71 307,-71 307,-52 137,-52"/>
<text text-anchor="middle" x="222" y="-59" font-family="Helvetica,sans-Serif" font-size="10.00" fill="#000000">chi::CModule::nodeTypeFromName</text>
</a>
</g>
</g>
<!-- Node514&#45;&gt;Node527 -->
<g id="edge15" class="edge">
<title>Node514&#45;&gt;Node527</title>
<path fill="none" stroke="#191970" d="M103.5412,-87.7474C127.7913,-82.3742 156.1467,-76.0914 179.0345,-71.0201"/>
<polygon fill="#191970" stroke="#191970" points="102.7827,-84.3305 93.7767,-89.911 104.2971,-91.1648 102.7827,-84.3305"/>
</g>
<!-- Node528 -->
<g id="node15" class="node">
<title>Node528</title>
<g id="a_node15"><a xlink:href="structchi_1_1GraphModule.html#a133c0595e0bb888f958e9769838f6c0c" target="_top" xlink:title="Create a node type that is in the module from the name and json. ">
<polygon fill="#ffffff" stroke="#000000" points="151,-2.5 151,-32.5 293,-32.5 293,-2.5 151,-2.5"/>
<text text-anchor="start" x="159" y="-20.5" font-family="Helvetica,sans-Serif" font-size="10.00" fill="#000000">chi::GraphModule::nodeType</text>
<text text-anchor="middle" x="222" y="-9.5" font-family="Helvetica,sans-Serif" font-size="10.00" fill="#000000">FromName</text>
</a>
</g>
</g>
<!-- Node514&#45;&gt;Node528 -->
<g id="edge16" class="edge">
<title>Node514&#45;&gt;Node528</title>
<path fill="none" stroke="#191970" d="M70.4538,-83.8668C87.3686,-71.2415 112.6873,-53.7786 137,-42.5 144.9536,-38.8104 153.5793,-35.5244 162.1835,-32.6452"/>
<polygon fill="#191970" stroke="#191970" points="68.2679,-81.132 62.4244,-89.9697 72.5037,-86.705 68.2679,-81.132"/>
</g>
<!-- Node516 -->
<g id="node3" class="node">
<title>Node516</title>
<g id="a_node3"><a xlink:href="namespacechi.html#a4489e333fecc4168278e94f8b3f81e3c" target="_top" xlink:title="Load a GraphModule from json. ">
<polygon fill="#ffffff" stroke="#000000" points="343,-128 343,-147 465,-147 465,-128 343,-128"/>
<text text-anchor="middle" x="404" y="-135" font-family="Helvetica,sans-Serif" font-size="10.00" fill="#000000">chi::jsonToGraphModule</text>
</a>
</g>
</g>
<!-- Node515&#45;&gt;Node516 -->
<g id="edge2" class="edge">
<title>Node515&#45;&gt;Node516</title>
<path fill="none" stroke="#191970" d="M293.9577,-164.1036C318.0487,-158.2794 344.0037,-152.0046 364.6532,-147.0124"/>
<polygon fill="#191970" stroke="#191970" points="293.0225,-160.7288 284.125,-166.4808 294.6675,-167.5328 293.0225,-160.7288"/>
</g>
<!-- Node517 -->
<g id="node4" class="node">
<title>Node517</title>
<g id="a_node4"><a xlink:href="structchi_1_1Context.html#a2db103f3a2f77710dfa51489f63ec97f" target="_top" xlink:title="Load a module from JSON – avoid this use the string overload. ">
<polygon fill="#ffffff" stroke="#000000" points="501,-128 501,-147 667,-147 667,-128 501,-128"/>
<text text-anchor="middle" x="584" y="-135" font-family="Helvetica,sans-Serif" font-size="10.00" fill="#000000">chi::Context::addModuleFromJson</text>
</a>
</g>
</g>
<!-- Node516&#45;&gt;Node517 -->
<g id="edge3" class="edge">
<title>Node516&#45;&gt;Node517</title>
<path fill="none" stroke="#191970" d="M475.3335,-137.5C483.7586,-137.5 492.412,-137.5 500.9806,-137.5"/>
<polygon fill="#191970" stroke="#191970" points="475.191,-134.0001 465.191,-137.5 475.1909,-141.0001 475.191,-134.0001"/>
</g>
<!-- Node518 -->
<g id="node5" class="node">
<title>Node518</title>
<g id="a_node5"><a xlink:href="structchi_1_1Context.html#a844bdec56838399cb4d7a5f7ea223834" target="_top" xlink:title="Load a module from disk. ">
<polygon fill="#ffffff" stroke="#000000" points="703,-128 703,-147 828,-147 828,-128 703,-128"/>
<text text-anchor="middle" x="765.5" y="-135" font-family="Helvetica,sans-Serif" font-size="10.00" fill="#000000">chi::Context::loadModule</text>
</a>
</g>
</g>
<!-- Node517&#45;&gt;Node518 -->
<g id="edge4" class="edge">
<title>Node517&#45;&gt;Node518</title>
<path fill="none" stroke="#191970" d="M677.2319,-137.5C685.9115,-137.5 694.5607,-137.5 702.8618,-137.5"/>
<polygon fill="#191970" stroke="#191970" points="677.0481,-134.0001 667.048,-137.5 677.048,-141.0001 677.0481,-134.0001"/>
</g>
<!-- Node519 -->
<g id="node6" class="node">
<title>Node519</title>
<g id="a_node6"><a xlink:href="structchi_1_1ChiModule.html#aab11d61e0c0138e5fc5ce176c20e3bec" target="_top" xlink:title="Add a dependency to the module Loads the module from context() if it isn&#39;t already loaded...">
<polygon fill="#ffffff" stroke="#000000" points="864,-128 864,-147 1021,-147 1021,-128 864,-128"/>
<text text-anchor="middle" x="942.5" y="-135" font-family="Helvetica,sans-Serif" font-size="10.00" fill="#000000">chi::ChiModule::addDependency</text>
</a>
</g>
</g>
<!-- Node518&#45;&gt;Node519 -->
<g id="edge5" class="edge">
<title>Node518&#45;&gt;Node519</title>
<path fill="none" stroke="#191970" d="M838.4468,-137.5C846.7758,-137.5 855.2946,-137.5 863.6954,-137.5"/>
<polygon fill="#191970" stroke="#191970" points="838.402,-134.0001 828.402,-137.5 838.4019,-141.0001 838.402,-134.0001"/>
</g>
<!-- Node520 -->
<g id="node7" class="node">
<title>Node520</title>
<g id="a_node7"><a xlink:href="structchi_1_1ChiModule.html#a049b38139577f02a6c19d260010efeff" target="_top" xlink:title="Get the dependencies. ">
<polygon fill="#ffffff" stroke="#000000" points="1062,-130 1062,-149 1209,-149 1209,-130 1062,-130"/>
<text text-anchor="middle" x="1135.5" y="-137" font-family="Helvetica,sans-Serif" font-size="10.00" fill="#000000">chi::ChiModule::dependencies</text>
</a>
</g>
</g>
<!-- Node519&#45;&gt;Node520 -->
<g id="edge6" class="edge">
<title>Node519&#45;&gt;Node520</title>
<path fill="none" stroke="#191970" d="M1031.1712,-138.4189C1041.3983,-138.5249 1051.7436,-138.6321 1061.7433,-138.7357"/>
<polygon fill="#191970" stroke="#191970" points="1031.0363,-134.9174 1021.0005,-138.3135 1030.9636,-141.917 1031.0363,-134.9174"/>
</g>
<!-- Node524 -->
<g id="node11" class="node">
<title>Node524</title>
<g id="a_node11"><a xlink:href="structchi_1_1GraphModule.html#a1f776646b9c9bdd615f7e35cebf7760a" target="_top" xlink:title="Construct a GraphModule. ">
<polygon fill="#ffffff" stroke="#000000" points="1057,-92 1057,-111 1214,-111 1214,-92 1057,-92"/>
<text text-anchor="middle" x="1135.5" y="-99" font-family="Helvetica,sans-Serif" font-size="10.00" fill="#000000">chi::GraphModule::GraphModule</text>
</a>
</g>
</g>
<!-- Node519&#45;&gt;Node524 -->
<g id="edge10" class="edge">
<title>Node519&#45;&gt;Node524</title>
<path fill="none" stroke="#191970" d="M1003.5686,-126.109C1029.5309,-121.2663 1059.4666,-115.6824 1084.2531,-111.059"/>
<polygon fill="#191970" stroke="#191970" points="1002.6496,-122.7199 993.4609,-127.9943 1003.9332,-129.6013 1002.6496,-122.7199"/>
</g>
<!-- Node521 -->
<g id="node8" class="node">
<title>Node521</title>
<g id="a_node8"><a xlink:href="structchi_1_1Context.html#ad535dc768a4386dbd06c8b769c5d549f" target="_top" xlink:title="Compile a module to a llvm::Module. ">
<polygon fill="#ffffff" stroke="#000000" points="1250,-130 1250,-149 1390,-149 1390,-130 1250,-130"/>
<text text-anchor="middle" x="1320" y="-137" font-family="Helvetica,sans-Serif" font-size="10.00" fill="#000000">chi::Context::compileModule</text>
</a>
</g>
</g>
<!-- Node520&#45;&gt;Node521 -->
<g id="edge7" class="edge">
<title>Node520&#45;&gt;Node521</title>
<path fill="none" stroke="#191970" d="M1219.3096,-139.5C1229.4689,-139.5 1239.7658,-139.5 1249.7021,-139.5"/>
<polygon fill="#191970" stroke="#191970" points="1219.2147,-136.0001 1209.2147,-139.5 1219.2147,-143.0001 1219.2147,-136.0001"/>
</g>
<!-- Node522 -->
<g id="node9" class="node">
<title>Node522</title>
<g id="a_node9"><a xlink:href="namespacechi.html#a9a4f3fa54c612f0c559a353bb7382d5a" target="_top" xlink:title="Serialize a JsonModule to json. ">
<polygon fill="#ffffff" stroke="#000000" points="1258.5,-73 1258.5,-92 1381.5,-92 1381.5,-73 1258.5,-73"/>
<text text-anchor="middle" x="1320" y="-80" font-family="Helvetica,sans-Serif" font-size="10.00" fill="#000000">chi::graphModuleToJson</text>
</a>
</g>
</g>
<!-- Node520&#45;&gt;Node522 -->
<g id="edge8" class="edge">
<title>Node520&#45;&gt;Node522</title>
<path fill="none" stroke="#191970" d="M1188.4502,-127.5017C1197.0327,-125.3227 1205.7932,-122.9566 1214,-120.5 1242.2801,-112.0348 1274.0776,-100.3351 1295.4039,-92.1618"/>
<polygon fill="#191970" stroke="#191970" points="1187.3648,-124.1647 1178.5006,-129.9679 1189.049,-130.9591 1187.3648,-124.1647"/>
</g>
<!-- Node523 -->
<g id="node10" class="node">
<title>Node523</title>
<g id="a_node10"><a xlink:href="structchi_1_1GraphModule.html#a5cd9fb1738336d5d382ebb50753bda3e" target="_top" xlink:title="Serialize to disk in the context. ">
<polygon fill="#ffffff" stroke="#000000" points="1426,-73 1426,-92 1577,-92 1577,-73 1426,-73"/>
<text text-anchor="middle" x="1501.5" y="-80" font-family="Helvetica,sans-Serif" font-size="10.00" fill="#000000">chi::GraphModule::saveToDisk</text>
</a>
</g>
</g>
<!-- Node522&#45;&gt;Node523 -->
<g id="edge9" class="edge">
<title>Node522&#45;&gt;Node523</title>
<path fill="none" stroke="#191970" d="M1391.8263,-82.5C1402.9968,-82.5 1414.5676,-82.5 1425.8204,-82.5"/>
<polygon fill="#191970" stroke="#191970" points="1391.7009,-79.0001 1381.7009,-82.5 1391.7008,-86.0001 1391.7009,-79.0001"/>
</g>
<!-- Node525&#45;&gt;Node516 -->
<g id="edge12" class="edge">
<title>Node525&#45;&gt;Node516</title>
<path fill="none" stroke="#191970" d="M296.233,-137.5C311.729,-137.5 327.897,-137.5 342.8547,-137.5"/>
<polygon fill="#191970" stroke="#191970" points="296.1664,-134.0001 286.1664,-137.5 296.1664,-141.0001 296.1664,-134.0001"/>
</g>
<!-- Node526&#45;&gt;Node516 -->
<g id="edge14" class="edge">
<title>Node526&#45;&gt;Node516</title>
<path fill="none" stroke="#191970" d="M277.9458,-111.181C303.7558,-116.5699 334.0069,-122.8861 358.404,-127.9799"/>
<polygon fill="#191970" stroke="#191970" points="278.4306,-107.7068 267.9263,-109.089 276.9998,-114.559 278.4306,-107.7068"/>
</g>
<!-- Node529 -->
<g id="node16" class="node">
<title>Node529</title>
<g id="a_node16"><a xlink:href="structchi_1_1GraphFunction.html#a60bc423cb4fed3605a446da112949483" target="_top" xlink:title="Rename a local variable. ">
<polygon fill="#ffffff" stroke="#000000" points="347.5,-49.5 347.5,-79.5 460.5,-79.5 460.5,-49.5 347.5,-49.5"/>
<text text-anchor="start" x="355.5" y="-67.5" font-family="Helvetica,sans-Serif" font-size="10.00" fill="#000000">chi::GraphFunction</text>
<text text-anchor="middle" x="404" y="-56.5" font-family="Helvetica,sans-Serif" font-size="10.00" fill="#000000">::renameLocalVariable</text>
</a>
</g>
</g>
<!-- Node528&#45;&gt;Node529 -->
<g id="edge17" class="edge">
<title>Node528&#45;&gt;Node529</title>
<path fill="none" stroke="#191970" d="M289.8446,-35.0203C308.7917,-39.9133 329.1735,-45.1767 347.3971,-49.8828"/>
<polygon fill="#191970" stroke="#191970" points="290.6439,-31.612 280.0863,-32.5003 288.8935,-38.3896 290.6439,-31.612"/>
</g>
<!-- Node532 -->
<g id="node19" class="node">
<title>Node532</title>
<g id="a_node19"><a xlink:href="structchi_1_1GraphFunction.html#a4c38679ec5e727bfb71c8eaaa5a8ca1a" target="_top" xlink:title="Set a new type to a local variable. ">
<polygon fill="#ffffff" stroke="#000000" points="350,-.5 350,-30.5 458,-30.5 458,-.5 350,-.5"/>
<text text-anchor="start" x="358" y="-18.5" font-family="Helvetica,sans-Serif" font-size="10.00" fill="#000000">chi::GraphFunction</text>
<text text-anchor="middle" x="404" y="-7.5" font-family="Helvetica,sans-Serif" font-size="10.00" fill="#000000">::retypeLocalVariable</text>
</a>
</g>
</g>
<!-- Node528&#45;&gt;Node532 -->
<g id="edge21" class="edge">
<title>Node528&#45;&gt;Node532</title>
<path fill="none" stroke="#191970" d="M303.4011,-16.6055C319.1189,-16.4328 335.2229,-16.2558 349.8094,-16.0955"/>
<polygon fill="#191970" stroke="#191970" points="303.1088,-13.1084 293.1479,-16.7182 303.1858,-20.108 303.1088,-13.1084"/>
</g>
<!-- Node530 -->
<g id="node17" class="node">
<title>Node530</title>
<g id="a_node17"><a xlink:href="structchi_1_1GraphFunction.html#a44f8f791775e4878b6bde37140cd131d" target="_top" xlink:title="Get the local variables. ">
<polygon fill="#ffffff" stroke="#000000" points="534.5,-48.5 534.5,-78.5 633.5,-78.5 633.5,-48.5 534.5,-48.5"/>
<text text-anchor="start" x="542.5" y="-66.5" font-family="Helvetica,sans-Serif" font-size="10.00" fill="#000000">chi::GraphFunction</text>
<text text-anchor="middle" x="584" y="-55.5" font-family="Helvetica,sans-Serif" font-size="10.00" fill="#000000">::localVariables</text>
</a>
</g>
</g>
<!-- Node529&#45;&gt;Node530 -->
<g id="edge18" class="edge">
<title>Node529&#45;&gt;Node530</title>
<path fill="none" stroke="#191970" d="M471.0903,-64.1273C492.0761,-64.0107 514.8421,-63.8842 534.3974,-63.7756"/>
<polygon fill="#191970" stroke="#191970" points="470.9335,-60.628 460.9531,-64.1836 470.9724,-67.6279 470.9335,-60.628"/>
</g>
<!-- Node531 -->
<g id="node18" class="node">
<title>Node531</title>
<g id="a_node18"><a xlink:href="namespacechi.html#afd8b8d8a207d88359ad1e6a48d8f3bb1" target="_top" xlink:title="Serialize a GraphFunction to json. ">
<polygon fill="#ffffff" stroke="#000000" points="878,-54 878,-73 1007,-73 1007,-54 878,-54"/>
<text text-anchor="middle" x="942.5" y="-61" font-family="Helvetica,sans-Serif" font-size="10.00" fill="#000000">chi::graphFunctionToJson</text>
</a>
</g>
</g>
<!-- Node530&#45;&gt;Node531 -->
<g id="edge19" class="edge">
<title>Node530&#45;&gt;Node531</title>
<path fill="none" stroke="#191970" d="M643.8991,-63.5C708.6332,-63.5 811.4297,-63.5 877.9286,-63.5"/>
<polygon fill="#191970" stroke="#191970" points="643.8479,-60.0001 633.8479,-63.5 643.8479,-67.0001 643.8479,-60.0001"/>
</g>
<!-- Node531&#45;&gt;Node522 -->
<g id="edge20" class="edge">
<title>Node531&#45;&gt;Node522</title>
<path fill="none" stroke="#191970" d="M1017.5586,-67.2778C1088.1708,-70.8318 1192.6187,-76.0888 1258.452,-79.4022"/>
<polygon fill="#191970" stroke="#191970" points="1017.5579,-63.7734 1007.3946,-66.7662 1017.206,-70.7646 1017.5579,-63.7734"/>
</g>
<!-- Node532&#45;&gt;Node530 -->
<g id="edge22" class="edge">
<title>Node532&#45;&gt;Node530</title>
<path fill="none" stroke="#191970" d="M467.8606,-32.5295C489.6985,-38.3529 513.7847,-44.7759 534.334,-50.2557"/>
<polygon fill="#191970" stroke="#191970" points="468.5701,-29.0965 458.0059,-29.9016 466.7664,-35.8601 468.5701,-29.0965"/>
</g>
</g>
</svg>
        <g id="navigator" transform="translate(0 0)" fill="#404254">
                <rect fill="#f2f5e9" fill-opacity="0.5" stroke="#606060" stroke-width=".5" x="0" y="0" width="60" height="60"/>
                <use id="zoomplus" xlink:href="#zoomPlus" x="17" y="9" onmousedown="handleZoom(evt,'in')"/>
                <use id="zoomminus" xlink:href="#zoomMin" x="42" y="9" onmousedown="handleZoom(evt,'out')"/>
                <use id="reset" xlink:href="#resetDef" x="30" y="36" onmousedown="handleReset()"/>
                <g id="arrowUp" xlink:href="#dirArrow" transform="translate(30 24)" onmousedown="handlePan(0,-1)">
                  <use xlink:href="#rim" fill="#404040">
                        <set attributeName="fill" to="#808080" begin="arrowUp.mouseover" end="arrowUp.mouseout"/>
                  </use>
                  <path fill="none" stroke="white" stroke-width="1.5" d="M0,-3.0v7 M-2.5,-0.5L0,-3.0L2.5,-0.5"/>
                </g>
                <g id="arrowRight" xlink:href="#dirArrow" transform="rotate(90) translate(36 -43)" onmousedown="handlePan(1,0)">
                  <use xlink:href="#rim" fill="#404040">
                        <set attributeName="fill" to="#808080" begin="arrowRight.mouseover" end="arrowRight.mouseout"/>
                  </use>
                  <path fill="none" stroke="white" stroke-width="1.5" d="M0,-3.0v7 M-2.5,-0.5L0,-3.0L2.5,-0.5"/>
                </g>
                <g id="arrowDown" xlink:href="#dirArrow" transform="rotate(180) translate(-30 -48)" onmousedown="handlePan(0,1)">
                  <use xlink:href="#rim" fill="#404040">
                        <set attributeName="fill" to="#808080" begin="arrowDown.mouseover" end="arrowDown.mouseout"/>
                  </use>
                  <path fill="none" stroke="white" stroke-width="1.5" d="M0,-3.0v7 M-2.5,-0.5L0,-3.0L2.5,-0.5"/>
                </g>
                <g id="arrowLeft" xlink:href="#dirArrow" transform="rotate(270) translate(-36 17)" onmousedown="handlePan(-1,0)">
                  <use xlink:href="#rim" fill="#404040">
                        <set attributeName="fill" to="#808080" begin="arrowLeft.mouseover" end="arrowLeft.mouseout"/>
                  </use>
                  <path fill="none" stroke="white" stroke-width="1.5" d="M0,-3.0v7 M-2.5,-0.5L0,-3.0L2.5,-0.5"/>
                </g>
        </g>
        <svg viewBox="0 0 15 15" width="100%" height="30px" preserveAspectRatio="xMaxYMin meet">
         <g id="arrow_out" transform="scale(0.3 0.3)">
          <a xlink:href="namespacechi_aa47212ba13fb1a1d26774dc208c15255_icgraph_org.svg" target="_base">
           <rect id="button" ry="5" rx="5" y="6" x="6" height="38" width="38"
                fill="#f2f5e9" fill-opacity="0.5" stroke="#606060" stroke-width="1.0"/>
           <path id="arrow"
             d="M 11.500037,31.436501 C 11.940474,20.09759 22.043105,11.32322 32.158766,21.979434 L 37.068811,17.246167 C 37.068811,17.246167 37.088388,32 37.088388,32 L 22.160133,31.978069 C 22.160133,31.978069 26.997745,27.140456 26.997745,27.140456 C 18.528582,18.264221 13.291696,25.230495 11.500037,31.436501 z"
             style="fill:#404040;"/>
          </a>
         </g>
        </svg>
</svg>
