<?xml version="1.0" encoding="UTF-8" standalone="no"?>
<!DOCTYPE svg PUBLIC "-//W3C//DTD SVG 1.1//EN"
 "http://www.w3.org/Graphics/SVG/1.1/DTD/svg11.dtd">
<!-- Generated by graphviz version 2.40.1 (20161225.0304)
 -->
<!-- Title: chig::compileFunction Pages: 1 -->
<svg width="512pt" height="39pt"
 viewBox="0.00 0.00 512.00 39.00" xmlns="http://www.w3.org/2000/svg" xmlns:xlink="http://www.w3.org/1999/xlink">
<g id="graph0" class="graph" transform="scale(1 1) rotate(0) translate(4 35)">
<title>chig::compileFunction</title>
<polygon fill="#ffffff" stroke="transparent" points="-4,4 -4,-35 508,-35 508,4 -4,4"/>
<!-- Node33 -->
<g id="node1" class="node">
<title>Node33</title>
<polygon fill="#bfbfbf" stroke="#000000" points="0,-6 0,-25 123,-25 123,-6 0,-6"/>
<text text-anchor="middle" x="61.5" y="-13" font-family="Helvetica,sans-Serif" font-size="10.00" fill="#000000">chig::compileFunction</text>
</g>
<!-- Node34 -->
<g id="node2" class="node">
<title>Node34</title>
<g id="a_node2"><a xlink:href="structchig_1_1JsonModule.html#a073e960b2d6f07ffaa983a61f8b0f635" target="_top" xlink:title="Generate a llvm::Module from the module. ">
<polygon fill="#ffffff" stroke="#000000" points="159,-.5 159,-30.5 307,-30.5 307,-.5 159,-.5"/>
<text text-anchor="start" x="167" y="-18.5" font-family="Helvetica,sans-Serif" font-size="10.00" fill="#000000">chig::JsonModule::generate</text>
<text text-anchor="middle" x="233" y="-7.5" font-family="Helvetica,sans-Serif" font-size="10.00" fill="#000000">Module</text>
</a>
</g>
</g>
<!-- Node33&#45;&gt;Node34 -->
<g id="edge1" class="edge">
<title>Node33&#45;&gt;Node34</title>
<path fill="none" stroke="#191970" d="M133.5335,-15.5C141.9199,-15.5 150.486,-15.5 158.8996,-15.5"/>
<polygon fill="#191970" stroke="#191970" points="133.4155,-12.0001 123.4154,-15.5 133.4154,-19.0001 133.4155,-12.0001"/>
</g>
<!-- Node35 -->
<g id="node3" class="node">
<title>Node35</title>
<g id="a_node3"><a xlink:href="structchig_1_1JsonModule.html#ac0085e28a8ff704511c0a4bb1f8eb42d" target="_top" xlink:title="Get the possible DataType names. ">
<polygon fill="#ffffff" stroke="#000000" points="343,-6 343,-25 504,-25 504,-6 343,-6"/>
<text text-anchor="middle" x="423.5" y="-13" font-family="Helvetica,sans-Serif" font-size="10.00" fill="#000000">chig::JsonModule::typeNames</text>
</a>
</g>
</g>
<!-- Node34&#45;&gt;Node35 -->
<g id="edge2" class="edge">
<title>Node34&#45;&gt;Node35</title>
<path fill="none" stroke="#191970" d="M317.4381,-15.5C325.8951,-15.5 334.4674,-15.5 342.8834,-15.5"/>
<polygon fill="#191970" stroke="#191970" points="317.1978,-12.0001 307.1978,-15.5 317.1977,-19.0001 317.1978,-12.0001"/>
</g>
</g>
</svg>
