<?xml version="1.0" encoding="UTF-8" standalone="no"?>
<!DOCTYPE svg PUBLIC "-//W3C//DTD SVG 1.1//EN"
 "http://www.w3.org/Graphics/SVG/1.1/DTD/svg11.dtd">
<!-- Generated by graphviz version 2.40.1 (20161225.0304)
 -->
<!-- Title: chig::createGraphFunctionDeclarationFromJson Pages: 1 -->
<svg width="528pt" height="263pt"
 viewBox="0.00 0.00 528.00 262.50" xmlns="http://www.w3.org/2000/svg" xmlns:xlink="http://www.w3.org/1999/xlink">
<g id="graph0" class="graph" transform="scale(1 1) rotate(0) translate(4 258.5)">
<title>chig::createGraphFunctionDeclarationFromJson</title>
<polygon fill="#ffffff" stroke="transparent" points="-4,4 -4,-258.5 524,-258.5 524,4 -4,4"/>
<!-- Node108 -->
<g id="node1" class="node">
<title>Node108</title>
<polygon fill="#bfbfbf" stroke="#000000" points="0,-107 0,-137 131,-137 131,-107 0,-107"/>
<text text-anchor="start" x="8" y="-125" font-family="Helvetica,sans-Serif" font-size="10.00" fill="#000000">chig::createGraphFunction</text>
<text text-anchor="middle" x="65.5" y="-114" font-family="Helvetica,sans-Serif" font-size="10.00" fill="#000000">DeclarationFromJson</text>
</g>
<!-- Node109 -->
<g id="node2" class="node">
<title>Node109</title>
<g id="a_node2"><a xlink:href="structchig_1_1Result.html#aabb30a56760c3a817518912d9eabb491" target="_top" xlink:title="Add a entry to the result, either a warning or an error. ">
<polygon fill="#ffffff" stroke="#000000" points="381.5,-38.5 381.5,-57.5 494.5,-57.5 494.5,-38.5 381.5,-38.5"/>
<text text-anchor="middle" x="438" y="-45.5" font-family="Helvetica,sans-Serif" font-size="10.00" fill="#000000">chig::Result::addEntry</text>
</a>
</g>
</g>
<!-- Node108&#45;&gt;Node109 -->
<g id="edge1" class="edge">
<title>Node108&#45;&gt;Node109</title>
<path fill="none" stroke="#191970" d="M131.2482,-117.4993C183.3335,-112.6732 257.4811,-102.9768 320,-84 336.9314,-78.8607 339.2861,-72.8079 356,-67 363.3763,-64.4368 371.2461,-62.1158 379.082,-60.0476"/>
<polygon fill="#191970" stroke="#191970" points="380.1064,-63.399 388.9495,-57.5639 378.3976,-56.6108 380.1064,-63.399"/>
</g>
<!-- Node110 -->
<g id="node3" class="node">
<title>Node110</title>
<g id="a_node3"><a xlink:href="structchig_1_1ChigModule.html#aad81aae17452ddc5fc43809924236385" target="_top" xlink:title="Get the Context that this module belongs to. ">
<polygon fill="#ffffff" stroke="#000000" points="178.5,-225.5 178.5,-244.5 308.5,-244.5 308.5,-225.5 178.5,-225.5"/>
<text text-anchor="middle" x="243.5" y="-232.5" font-family="Helvetica,sans-Serif" font-size="10.00" fill="#000000">chig::ChigModule::context</text>
</a>
</g>
</g>
<!-- Node108&#45;&gt;Node110 -->
<g id="edge2" class="edge">
<title>Node108&#45;&gt;Node110</title>
<path fill="none" stroke="#191970" d="M78.7433,-137.2996C96.7908,-157.2395 131.0048,-191.9254 167,-212 174.3128,-216.0783 182.4312,-219.5123 190.5686,-222.3789"/>
<polygon fill="#191970" stroke="#191970" points="189.4901,-225.7086 200.0827,-225.4882 191.6646,-219.0549 189.4901,-225.7086"/>
</g>
<!-- Node112 -->
<g id="node5" class="node">
<title>Node112</title>
<g id="a_node5"><a xlink:href="structchig_1_1GraphModule.html#a628d997f3978987e06a1fc05f86aab36" target="_top" xlink:title="Create a new function if it does&#39;t already exist. ">
<polygon fill="#ffffff" stroke="#000000" points="190,-172 190,-202 297,-202 297,-172 190,-172"/>
<text text-anchor="start" x="198" y="-190" font-family="Helvetica,sans-Serif" font-size="10.00" fill="#000000">chig::GraphModule::</text>
<text text-anchor="middle" x="243.5" y="-179" font-family="Helvetica,sans-Serif" font-size="10.00" fill="#000000">getOrCreateFunction</text>
</a>
</g>
</g>
<!-- Node108&#45;&gt;Node112 -->
<g id="edge4" class="edge">
<title>Node108&#45;&gt;Node112</title>
<path fill="none" stroke="#191970" d="M105.4478,-137.1549C124.1165,-144.1861 146.6643,-152.6054 167,-160 174.6222,-162.7716 182.6862,-165.6626 190.6075,-168.4788"/>
<polygon fill="#191970" stroke="#191970" points="189.565,-171.8226 200.1597,-171.864 191.9033,-165.2247 189.565,-171.8226"/>
</g>
<!-- Node114 -->
<g id="node7" class="node">
<title>Node114</title>
<g id="a_node7"><a xlink:href="namespacechig.html#afcb097e8f99cd26ed33dd582f0d952f0" target="_top" xlink:title="Parse a colonated pair Example: lang:i32 would turn into {lang, i32}. ">
<polygon fill="#ffffff" stroke="#000000" points="190,-131.5 190,-150.5 297,-150.5 297,-131.5 190,-131.5"/>
<text text-anchor="middle" x="243.5" y="-138.5" font-family="Helvetica,sans-Serif" font-size="10.00" fill="#000000">chig::parseColonPair</text>
</a>
</g>
</g>
<!-- Node108&#45;&gt;Node114 -->
<g id="edge6" class="edge">
<title>Node108&#45;&gt;Node114</title>
<path fill="none" stroke="#191970" d="M131.0223,-128.994C146.8789,-130.6865 163.8064,-132.4934 179.5878,-134.1779"/>
<polygon fill="#191970" stroke="#191970" points="179.4551,-137.6836 189.7702,-135.2648 180.1982,-130.7231 179.4551,-137.6836"/>
</g>
<!-- Node117 -->
<g id="node10" class="node">
<title>Node117</title>
<g id="a_node10"><a xlink:href="namespacechig.html#a6326319f539f0f122c9784079c859bd3" target="_top" xlink:title="Parse something that looks like: {&quot;hello&quot;: &quot;there&quot;} into {&quot;hello&quot;, &quot;there&quot;}. ">
<polygon fill="#ffffff" stroke="#000000" points="188.5,-55.5 188.5,-74.5 298.5,-74.5 298.5,-55.5 188.5,-55.5"/>
<text text-anchor="middle" x="243.5" y="-62.5" font-family="Helvetica,sans-Serif" font-size="10.00" fill="#000000">chig::parseObjectPair</text>
</a>
</g>
</g>
<!-- Node108&#45;&gt;Node117 -->
<g id="edge9" class="edge">
<title>Node108&#45;&gt;Node117</title>
<path fill="none" stroke="#191970" d="M111.4473,-106.9503C128.8378,-101.2834 148.8196,-94.8071 167,-89 178.8093,-85.2279 191.6608,-81.1757 203.4,-77.4947"/>
<polygon fill="#191970" stroke="#191970" points="204.4545,-80.8321 212.9521,-74.5043 202.3631,-74.1518 204.4545,-80.8321"/>
</g>
<!-- Node118 -->
<g id="node11" class="node">
<title>Node118</title>
<g id="a_node11"><a xlink:href="structchig_1_1Context.html#aa484ef2c16aaa4d97a21632af4122bd8" target="_top" xlink:title="Gets a DataType from a module. ">
<polygon fill="#ffffff" stroke="#000000" points="167,-17.5 167,-36.5 320,-36.5 320,-17.5 167,-17.5"/>
<text text-anchor="middle" x="243.5" y="-24.5" font-family="Helvetica,sans-Serif" font-size="10.00" fill="#000000">chig::Context::typeFromModule</text>
</a>
</g>
</g>
<!-- Node108&#45;&gt;Node118 -->
<g id="edge10" class="edge">
<title>Node108&#45;&gt;Node118</title>
<path fill="none" stroke="#191970" d="M81.391,-106.8533C100.3168,-89.6311 133.5879,-61.8555 167,-46 172.0226,-43.6166 177.3776,-41.5111 182.833,-39.6554"/>
<polygon fill="#191970" stroke="#191970" points="184.2043,-42.8942 192.7112,-36.5789 182.1227,-36.2109 184.2043,-42.8942"/>
</g>
<!-- Node111 -->
<g id="node4" class="node">
<title>Node111</title>
<g id="a_node4"><a xlink:href="structchig_1_1ChigModule.html#a7864ea1e3388965d05103768757962a4" target="_top" xlink:title="Generate a llvm::Module from the module. ">
<polygon fill="#ffffff" stroke="#000000" points="370.5,-224 370.5,-254 505.5,-254 505.5,-224 370.5,-224"/>
<text text-anchor="start" x="378.5" y="-242" font-family="Helvetica,sans-Serif" font-size="10.00" fill="#000000">chig::ChigModule::generate</text>
<text text-anchor="middle" x="438" y="-231" font-family="Helvetica,sans-Serif" font-size="10.00" fill="#000000">Module</text>
</a>
</g>
</g>
<!-- Node110&#45;&gt;Node111 -->
<g id="edge3" class="edge">
<title>Node110&#45;&gt;Node111</title>
<path fill="none" stroke="#191970" d="M308.5361,-236.3375C325.1531,-236.6792 343.1846,-237.0501 360.3642,-237.4034"/>
<polygon fill="#191970" stroke="#191970" points="360.2938,-240.9026 370.3636,-237.609 360.4377,-233.9041 360.2938,-240.9026"/>
</g>
<!-- Node113 -->
<g id="node6" class="node">
<title>Node113</title>
<g id="a_node6"><a xlink:href="structchig_1_1GraphModule.html#acf2cd8568f77bb56185e87e8ccb5889c" target="_top" xlink:title="Get a function from the name. ">
<polygon fill="#ffffff" stroke="#000000" points="386,-175 386,-205 490,-205 490,-175 386,-175"/>
<text text-anchor="start" x="394" y="-193" font-family="Helvetica,sans-Serif" font-size="10.00" fill="#000000">chig::GraphModule::</text>
<text text-anchor="middle" x="438" y="-182" font-family="Helvetica,sans-Serif" font-size="10.00" fill="#000000">functionFromName</text>
</a>
</g>
</g>
<!-- Node112&#45;&gt;Node113 -->
<g id="edge5" class="edge">
<title>Node112&#45;&gt;Node113</title>
<path fill="none" stroke="#191970" d="M297.1628,-187.8277C321.4743,-188.2027 350.3679,-188.6483 375.6383,-189.0381"/>
<polygon fill="#191970" stroke="#191970" points="375.8028,-192.541 385.8556,-189.1957 375.9108,-185.5418 375.8028,-192.541"/>
</g>
<!-- Node115 -->
<g id="node8" class="node">
<title>Node115</title>
<g id="a_node8"><a xlink:href="structchig_1_1GraphFunction.html#a2eddb58def91a9e0fce7212db3834827" target="_top" xlink:title="Get the GraphModule that contains this GraphFunction. ">
<polygon fill="#ffffff" stroke="#000000" points="386,-126 386,-156 490,-156 490,-126 386,-126"/>
<text text-anchor="start" x="394" y="-144" font-family="Helvetica,sans-Serif" font-size="10.00" fill="#000000">chig::GraphFunction</text>
<text text-anchor="middle" x="438" y="-133" font-family="Helvetica,sans-Serif" font-size="10.00" fill="#000000">::module</text>
</a>
</g>
</g>
<!-- Node114&#45;&gt;Node115 -->
<g id="edge7" class="edge">
<title>Node114&#45;&gt;Node115</title>
<path fill="none" stroke="#191970" d="M297.1628,-141C321.4743,-141 350.3679,-141 375.6383,-141"/>
<polygon fill="#191970" stroke="#191970" points="375.8556,-144.5001 385.8556,-141 375.8556,-137.5001 375.8556,-144.5001"/>
</g>
<!-- Node116 -->
<g id="node9" class="node">
<title>Node116</title>
<g id="a_node9"><a xlink:href="structchig_1_1GraphFunction.html#a3291c0b882b4f73e5d60af4ca75b1a37" target="_top" xlink:title="Get the name of the function. ">
<polygon fill="#ffffff" stroke="#000000" points="386,-77 386,-107 490,-107 490,-77 386,-77"/>
<text text-anchor="start" x="394" y="-95" font-family="Helvetica,sans-Serif" font-size="10.00" fill="#000000">chig::GraphFunction</text>
<text text-anchor="middle" x="438" y="-84" font-family="Helvetica,sans-Serif" font-size="10.00" fill="#000000">::name</text>
</a>
</g>
</g>
<!-- Node114&#45;&gt;Node116 -->
<g id="edge8" class="edge">
<title>Node114&#45;&gt;Node116</title>
<path fill="none" stroke="#191970" d="M281.4633,-131.436C308.2978,-124.6756 344.8711,-115.4618 375.918,-107.6402"/>
<polygon fill="#191970" stroke="#191970" points="376.9427,-110.9915 385.7847,-105.1545 375.2326,-104.2036 376.9427,-110.9915"/>
</g>
<!-- Node118&#45;&gt;Node109 -->
<g id="edge11" class="edge">
<title>Node118&#45;&gt;Node109</title>
<path fill="none" stroke="#191970" d="M320.0924,-35.2696C336.9949,-37.0946 354.7704,-39.0138 371.2465,-40.7927"/>
<polygon fill="#191970" stroke="#191970" points="370.9999,-44.2863 381.3178,-41.8801 371.7513,-37.3268 370.9999,-44.2863"/>
</g>
<!-- Node119 -->
<g id="node12" class="node">
<title>Node119</title>
<g id="a_node12"><a xlink:href="structchig_1_1ChigModule.html#a7bb138db48ea320a09312ffd1af0999a" target="_top" xlink:title="Get a DataType from the name. ">
<polygon fill="#ffffff" stroke="#000000" points="356,-.5 356,-19.5 520,-19.5 520,-.5 356,-.5"/>
<text text-anchor="middle" x="438" y="-7.5" font-family="Helvetica,sans-Serif" font-size="10.00" fill="#000000">chig::ChigModule::typeFromName</text>
</a>
</g>
</g>
<!-- Node118&#45;&gt;Node119 -->
<g id="edge12" class="edge">
<title>Node118&#45;&gt;Node119</title>
<path fill="none" stroke="#191970" d="M320.0924,-20.3056C328.4971,-19.5709 337.1177,-18.8175 345.6871,-18.0685"/>
<polygon fill="#191970" stroke="#191970" points="346.05,-21.5502 355.7072,-17.1927 345.4404,-14.5768 346.05,-21.5502"/>
</g>
</g>
</svg>
