<?xml version="1.0" encoding="UTF-8" standalone="no"?>
<!DOCTYPE svg PUBLIC "-//W3C//DTD SVG 1.1//EN"
 "http://www.w3.org/Graphics/SVG/1.1/DTD/svg11.dtd">
<!-- Generated by graphviz version 2.40.1 (20161225.0304)
 -->
<!-- Title: chi::connectData Pages: 1 -->
<!--zoomable 157 -->
<svg id="main" version="1.1" xmlns="http://www.w3.org/2000/svg" xmlns:xlink="http://www.w3.org/1999/xlink" xml:space="preserve" onload="init(evt)">
<style type="text/css"><![CDATA[
.edge:hover path { stroke: red; }
.edge:hover polygon { stroke: red; fill: red; }
]]></style>
<script type="text/javascript"><![CDATA[
var edges = document.getElementsByTagName('g');
if (edges && edges.length) {
  for (var i=0;i<edges.length;i++) {
    if (edges[i].id.substr(0,4)=='edge') {
      edges[i].setAttribute('class','edge');
    }
  }
}
]]></script>
        <defs>
                <circle id="rim" cx="0" cy="0" r="7"/>
                <circle id="rim2" cx="0" cy="0" r="3.5"/>
                <g id="zoomPlus">
                        <use xlink:href="#rim" fill="#404040">
                                <set attributeName="fill" to="#808080" begin="zoomplus.mouseover" end="zoomplus.mouseout"/>
                        </use>
                        <path d="M-4,0h8M0,-4v8" fill="none" stroke="white" stroke-width="1.5" pointer-events="none"/>
                </g>
                <g id="zoomMin">
                        <use xlink:href="#rim" fill="#404040">
                                <set attributeName="fill" to="#808080" begin="zoomminus.mouseover" end="zoomminus.mouseout"/>
                        </use>
                        <path d="M-4,0h8" fill="none" stroke="white" stroke-width="1.5" pointer-events="none"/>
                </g>
                <g id="dirArrow">
                        <path fill="none" stroke="white" stroke-width="1.5" d="M0,-3.0v7 M-2.5,-0.5L0,-3.0L2.5,-0.5"/>
                </g>
               <g id="resetDef">
                       <use xlink:href="#rim2" fill="#404040">
                               <set attributeName="fill" to="#808080" begin="reset.mouseover" end="reset.mouseout"/>
                       </use>
               </g>
        </defs>

<script type="text/javascript">
var viewWidth = 804;
var viewHeight = 157;
var sectionId = 'dynsection-3';
</script>
<script xlink:href="svgpan.js"/>
<svg id="graph" class="graph">
<g id="viewport">
<title>chi::connectData</title>
<polygon fill="#ffffff" stroke="transparent" points="-4,4 -4,-152.5 800,-152.5 800,4 -4,4"/>
<!-- Node67 -->
<g id="node1" class="node">
<title>Node67</title>
<polygon fill="#bfbfbf" stroke="#000000" points="0,-107 0,-126 90,-126 90,-107 0,-107"/>
<text text-anchor="middle" x="45" y="-114" font-family="Helvetica,sans-Serif" font-size="10.00" fill="#000000">chi::connectData</text>
</g>
<!-- Node68 -->
<g id="node2" class="node">
<title>Node68</title>
<g id="a_node2"><a xlink:href="namespacechi.html#a6a3fedb48e6702c016f996d8a7f445fc" target="_top" xlink:title="Load a GraphFunction–must already exist (use createGraphFunctionDeclarationFromJson) ...">
<polygon fill="#ffffff" stroke="#000000" points="126,-129 126,-148 254,-148 254,-129 126,-129"/>
<text text-anchor="middle" x="190" y="-136" font-family="Helvetica,sans-Serif" font-size="10.00" fill="#000000">chi::jsonToGraphFunction</text>
</a>
</g>
</g>
<!-- Node67&#45;&gt;Node68 -->
<g id="edge1" class="edge">
<title>Node67&#45;&gt;Node68</title>
<path fill="none" stroke="#191970" d="M99.9916,-124.8436C108.9371,-126.2008 118.2609,-127.6154 127.3726,-128.9979"/>
<polygon fill="#191970" stroke="#191970" points="100.496,-121.3801 90.0841,-123.3403 99.4459,-128.3009 100.496,-121.3801"/>
</g>
<!-- Node71 -->
<g id="node5" class="node">
<title>Node71</title>
<g id="a_node5"><a xlink:href="structchi_1_1NodeInstance.html#a72d113cfee45f4017adf28b034c6f215" target="_top" xlink:title="Get the containing GraphModule. ">
<polygon fill="#ffffff" stroke="#000000" points="139.5,-79.5 139.5,-109.5 240.5,-109.5 240.5,-79.5 139.5,-79.5"/>
<text text-anchor="start" x="147.5" y="-97.5" font-family="Helvetica,sans-Serif" font-size="10.00" fill="#000000">chi::NodeInstance::</text>
<text text-anchor="middle" x="190" y="-86.5" font-family="Helvetica,sans-Serif" font-size="10.00" fill="#000000">module</text>
</a>
</g>
</g>
<!-- Node67&#45;&gt;Node71 -->
<g id="edge4" class="edge">
<title>Node67&#45;&gt;Node71</title>
<path fill="none" stroke="#191970" d="M100.2071,-108.1237C113.0779,-106.1709 126.7208,-104.101 139.3815,-102.1801"/>
<polygon fill="#191970" stroke="#191970" points="99.4459,-104.6991 90.0841,-109.6597 100.496,-111.6199 99.4459,-104.6991"/>
</g>
<!-- Node69 -->
<g id="node3" class="node">
<title>Node69</title>
<g id="a_node3"><a xlink:href="namespacechi.html#a4489e333fecc4168278e94f8b3f81e3c" target="_top" xlink:title="Load a GraphModule from json. ">
<polygon fill="#ffffff" stroke="#000000" points="306,-129 306,-148 428,-148 428,-129 306,-129"/>
<text text-anchor="middle" x="367" y="-136" font-family="Helvetica,sans-Serif" font-size="10.00" fill="#000000">chi::jsonToGraphModule</text>
</a>
</g>
</g>
<!-- Node68&#45;&gt;Node69 -->
<g id="edge2" class="edge">
<title>Node68&#45;&gt;Node69</title>
<path fill="none" stroke="#191970" d="M264.5351,-138.5C278.2608,-138.5 292.4461,-138.5 305.7254,-138.5"/>
<polygon fill="#191970" stroke="#191970" points="264.1514,-135.0001 254.1513,-138.5 264.1513,-142.0001 264.1514,-135.0001"/>
</g>
<!-- Node70 -->
<g id="node4" class="node">
<title>Node70</title>
<g id="a_node4"><a xlink:href="structchi_1_1Context.html#a2db103f3a2f77710dfa51489f63ec97f" target="_top" xlink:title="Load a module from JSON – avoid this use the string overload. ">
<polygon fill="#ffffff" stroke="#000000" points="480,-129 480,-148 646,-148 646,-129 480,-129"/>
<text text-anchor="middle" x="563" y="-136" font-family="Helvetica,sans-Serif" font-size="10.00" fill="#000000">chi::Context::addModuleFromJson</text>
</a>
</g>
</g>
<!-- Node69&#45;&gt;Node70 -->
<g id="edge3" class="edge">
<title>Node69&#45;&gt;Node70</title>
<path fill="none" stroke="#191970" d="M438.3827,-138.5C451.8971,-138.5 466.1423,-138.5 479.9794,-138.5"/>
<polygon fill="#191970" stroke="#191970" points="438.2094,-135.0001 428.2094,-138.5 438.2094,-142.0001 438.2094,-135.0001"/>
</g>
<!-- Node72 -->
<g id="node6" class="node">
<title>Node72</title>
<g id="a_node6"><a xlink:href="classchi_1_1Debugger.html#a91a4d103d38bb2b1132ec7f83f4d77e2" target="_top" xlink:title="Set a breakpoint on a given node. ">
<polygon fill="#ffffff" stroke="#000000" points="491.5,-88 491.5,-107 634.5,-107 634.5,-88 491.5,-88"/>
<text text-anchor="middle" x="563" y="-95" font-family="Helvetica,sans-Serif" font-size="10.00" fill="#000000">chi::Debugger::setBreakpoint</text>
</a>
</g>
</g>
<!-- Node71&#45;&gt;Node72 -->
<g id="edge5" class="edge">
<title>Node71&#45;&gt;Node72</title>
<path fill="none" stroke="#191970" d="M250.9124,-94.9899C316.7463,-95.5194 421.5787,-96.3626 491.3294,-96.9236"/>
<polygon fill="#191970" stroke="#191970" points="250.7205,-91.4884 240.6926,-94.9077 250.6641,-98.4881 250.7205,-91.4884"/>
</g>
<!-- Node74 -->
<g id="node8" class="node">
<title>Node74</title>
<g id="a_node8"><a xlink:href="classchi_1_1Debugger.html#ae142902fa85248f40cbeea7199c86ad9" target="_top" xlink:title="Get a NodeInstance from a frame. ">
<polygon fill="#ffffff" stroke="#000000" points="290,-50 290,-69 444,-69 444,-50 290,-50"/>
<text text-anchor="middle" x="367" y="-57" font-family="Helvetica,sans-Serif" font-size="10.00" fill="#000000">chi::Debugger::nodeFromFrame</text>
</a>
</g>
</g>
<!-- Node71&#45;&gt;Node74 -->
<g id="edge7" class="edge">
<title>Node71&#45;&gt;Node74</title>
<path fill="none" stroke="#191970" d="M250.7185,-82.4935C272.9257,-78.1023 297.73,-73.1974 318.7071,-69.0494"/>
<polygon fill="#191970" stroke="#191970" points="249.8522,-79.097 240.7211,-84.4704 251.2101,-85.964 249.8522,-79.097"/>
</g>
<!-- Node73 -->
<g id="node7" class="node">
<title>Node73</title>
<g id="a_node7"><a xlink:href="classchi_1_1Debugger.html#a50f4de4ab6a18afa2eb82f5a5f43b06a" target="_top" xlink:title="Check if the process is executing. ">
<polygon fill="#ffffff" stroke="#000000" points="682,-50 682,-69 796,-69 796,-50 682,-50"/>
<text text-anchor="middle" x="739" y="-57" font-family="Helvetica,sans-Serif" font-size="10.00" fill="#000000">chi::Debugger::running</text>
</a>
</g>
</g>
<!-- Node72&#45;&gt;Node73 -->
<g id="edge6" class="edge">
<title>Node72&#45;&gt;Node73</title>
<path fill="none" stroke="#191970" d="M617.433,-85.7474C642.3194,-80.3742 671.4188,-74.0914 694.9071,-69.0201"/>
<polygon fill="#191970" stroke="#191970" points="616.4483,-82.3793 607.4122,-87.911 617.9257,-89.2216 616.4483,-82.3793"/>
</g>
<!-- Node74&#45;&gt;Node73 -->
<g id="edge8" class="edge">
<title>Node74&#45;&gt;Node73</title>
<path fill="none" stroke="#191970" d="M454.236,-59.5C524.4308,-59.5 621.0593,-59.5 681.7617,-59.5"/>
<polygon fill="#191970" stroke="#191970" points="454.0787,-56.0001 444.0786,-59.5 454.0786,-63.0001 454.0787,-56.0001"/>
</g>
<!-- Node75 -->
<g id="node9" class="node">
<title>Node75</title>
<g id="a_node9"><a xlink:href="classchi_1_1Debugger.html#a7b4b8117f767d7fc591ff1f54516c681" target="_top" xlink:title="Get the output of a node. ">
<polygon fill="#ffffff" stroke="#000000" points="494.5,-.5 494.5,-30.5 631.5,-30.5 631.5,-.5 494.5,-.5"/>
<text text-anchor="start" x="502.5" y="-18.5" font-family="Helvetica,sans-Serif" font-size="10.00" fill="#000000">chi::Debugger::inspectNode</text>
<text text-anchor="middle" x="563" y="-7.5" font-family="Helvetica,sans-Serif" font-size="10.00" fill="#000000">Output</text>
</a>
</g>
</g>
<!-- Node74&#45;&gt;Node75 -->
<g id="edge9" class="edge">
<title>Node74&#45;&gt;Node75</title>
<path fill="none" stroke="#191970" d="M419.3071,-47.7576C442.8196,-42.4793 470.8534,-36.186 495.8907,-30.5654"/>
<polygon fill="#191970" stroke="#191970" points="418.5196,-44.3472 409.5291,-49.9527 420.0529,-51.1772 418.5196,-44.3472"/>
</g>
<!-- Node75&#45;&gt;Node73 -->
<g id="edge10" class="edge">
<title>Node75&#45;&gt;Node73</title>
<path fill="none" stroke="#191970" d="M632.8962,-32.9741C656.1053,-38.7763 681.0704,-45.0176 700.9503,-49.9876"/>
<polygon fill="#191970" stroke="#191970" points="633.6273,-29.5492 623.077,-30.5192 631.9295,-36.3402 633.6273,-29.5492"/>
</g>
</g>
</svg>
        <g id="navigator" transform="translate(0 0)" fill="#404254">
                <rect fill="#f2f5e9" fill-opacity="0.5" stroke="#606060" stroke-width=".5" x="0" y="0" width="60" height="60"/>
                <use id="zoomplus" xlink:href="#zoomPlus" x="17" y="9" onmousedown="handleZoom(evt,'in')"/>
                <use id="zoomminus" xlink:href="#zoomMin" x="42" y="9" onmousedown="handleZoom(evt,'out')"/>
                <use id="reset" xlink:href="#resetDef" x="30" y="36" onmousedown="handleReset()"/>
                <g id="arrowUp" xlink:href="#dirArrow" transform="translate(30 24)" onmousedown="handlePan(0,-1)">
                  <use xlink:href="#rim" fill="#404040">
                        <set attributeName="fill" to="#808080" begin="arrowUp.mouseover" end="arrowUp.mouseout"/>
                  </use>
                  <path fill="none" stroke="white" stroke-width="1.5" d="M0,-3.0v7 M-2.5,-0.5L0,-3.0L2.5,-0.5"/>
                </g>
                <g id="arrowRight" xlink:href="#dirArrow" transform="rotate(90) translate(36 -43)" onmousedown="handlePan(1,0)">
                  <use xlink:href="#rim" fill="#404040">
                        <set attributeName="fill" to="#808080" begin="arrowRight.mouseover" end="arrowRight.mouseout"/>
                  </use>
                  <path fill="none" stroke="white" stroke-width="1.5" d="M0,-3.0v7 M-2.5,-0.5L0,-3.0L2.5,-0.5"/>
                </g>
                <g id="arrowDown" xlink:href="#dirArrow" transform="rotate(180) translate(-30 -48)" onmousedown="handlePan(0,1)">
                  <use xlink:href="#rim" fill="#404040">
                        <set attributeName="fill" to="#808080" begin="arrowDown.mouseover" end="arrowDown.mouseout"/>
                  </use>
                  <path fill="none" stroke="white" stroke-width="1.5" d="M0,-3.0v7 M-2.5,-0.5L0,-3.0L2.5,-0.5"/>
                </g>
                <g id="arrowLeft" xlink:href="#dirArrow" transform="rotate(270) translate(-36 17)" onmousedown="handlePan(-1,0)">
                  <use xlink:href="#rim" fill="#404040">
                        <set attributeName="fill" to="#808080" begin="arrowLeft.mouseover" end="arrowLeft.mouseout"/>
                  </use>
                  <path fill="none" stroke="white" stroke-width="1.5" d="M0,-3.0v7 M-2.5,-0.5L0,-3.0L2.5,-0.5"/>
                </g>
        </g>
        <svg viewBox="0 0 15 15" width="100%" height="30px" preserveAspectRatio="xMaxYMin meet">
         <g id="arrow_out" transform="scale(0.3 0.3)">
          <a xlink:href="namespacechi_ab69b013712d615bf9901d7bf2b0b11fb_icgraph_org.svg" target="_base">
           <rect id="button" ry="5" rx="5" y="6" x="6" height="38" width="38"
                fill="#f2f5e9" fill-opacity="0.5" stroke="#606060" stroke-width="1.0"/>
           <path id="arrow"
             d="M 11.500037,31.436501 C 11.940474,20.09759 22.043105,11.32322 32.158766,21.979434 L 37.068811,17.246167 C 37.068811,17.246167 37.088388,32 37.088388,32 L 22.160133,31.978069 C 22.160133,31.978069 26.997745,27.140456 26.997745,27.140456 C 18.528582,18.264221 13.291696,25.230495 11.500037,31.436501 z"
             style="fill:#404040;"/>
          </a>
         </g>
        </svg>
</svg>
