<?xml version="1.0" encoding="UTF-8" standalone="no"?>
<!DOCTYPE svg PUBLIC "-//W3C//DTD SVG 1.1//EN"
 "http://www.w3.org/Graphics/SVG/1.1/DTD/svg11.dtd">
<!-- Generated by graphviz version 2.40.1 (20161225.0304)
 -->
<!-- Title: chi::jsonToGraphFunction Pages: 1 -->
<svg width="860pt" height="995pt"
 viewBox="0.00 0.00 860.00 994.50" xmlns="http://www.w3.org/2000/svg" xmlns:xlink="http://www.w3.org/1999/xlink">
<g id="graph0" class="graph" transform="scale(1 1) rotate(0) translate(4 990.5)">
<title>chi::jsonToGraphFunction</title>
<polygon fill="#ffffff" stroke="transparent" points="-4,4 -4,-990.5 856,-990.5 856,4 -4,4"/>
<!-- Node388 -->
<g id="node1" class="node">
<title>Node388</title>
<polygon fill="#bfbfbf" stroke="#000000" points="0,-265 0,-284 128,-284 128,-265 0,-265"/>
<text text-anchor="middle" x="64" y="-272" font-family="Helvetica,sans-Serif" font-size="10.00" fill="#000000">chi::jsonToGraphFunction</text>
</g>
<!-- Node389 -->
<g id="node2" class="node">
<title>Node389</title>
<g id="a_node2"><a xlink:href="structchi_1_1Result.html#a59ef40f4a327cbdea263d6e4b5af2ad8" target="_top" xlink:title="Add a entry to the result, either a warning or an error. ">
<polygon fill="#ffffff" stroke="#000000" points="563.5,-420 563.5,-439 671.5,-439 671.5,-420 563.5,-420"/>
<text text-anchor="middle" x="617.5" y="-427" font-family="Helvetica,sans-Serif" font-size="10.00" fill="#000000">chi::Result::addEntry</text>
</a>
</g>
</g>
<!-- Node388&#45;&gt;Node389 -->
<g id="edge1" class="edge">
<title>Node388&#45;&gt;Node389</title>
<path fill="none" stroke="#191970" d="M72.207,-284.2801C87.9686,-302.3512 124.4371,-340.8273 164,-359.5 292.5086,-420.1529 462.1078,-430.2675 553.1443,-430.8249"/>
<polygon fill="#191970" stroke="#191970" points="553.3046,-434.3252 563.313,-430.8491 553.3213,-427.3252 553.3046,-434.3252"/>
</g>
<!-- Node390 -->
<g id="node3" class="node">
<title>Node390</title>
<g id="a_node3"><a xlink:href="namespacechi.html#ab69b013712d615bf9901d7bf2b0b11fb" target="_top" xlink:title="Connects two nodes&#39; data connections. ">
<polygon fill="#ffffff" stroke="#000000" points="193,-819 193,-838 283,-838 283,-819 193,-819"/>
<text text-anchor="middle" x="238" y="-826" font-family="Helvetica,sans-Serif" font-size="10.00" fill="#000000">chi::connectData</text>
</a>
</g>
</g>
<!-- Node388&#45;&gt;Node390 -->
<g id="edge2" class="edge">
<title>Node388&#45;&gt;Node390</title>
<path fill="none" stroke="#191970" d="M67.0201,-284.1157C87.2943,-348.6668 203.6336,-719.0805 231.8406,-808.8891"/>
<polygon fill="#191970" stroke="#191970" points="228.561,-810.1279 234.8968,-818.6196 235.2394,-808.0303 228.561,-810.1279"/>
</g>
<!-- Node404 -->
<g id="node17" class="node">
<title>Node404</title>
<g id="a_node17"><a xlink:href="namespacechi.html#a79423caa23a58e57b775c5137a03ee31" target="_top" xlink:title="Connects two nodes&#39; exec connections. ">
<polygon fill="#ffffff" stroke="#000000" points="192,-553 192,-572 284,-572 284,-553 192,-553"/>
<text text-anchor="middle" x="238" y="-560" font-family="Helvetica,sans-Serif" font-size="10.00" fill="#000000">chi::connectExec</text>
</a>
</g>
</g>
<!-- Node388&#45;&gt;Node404 -->
<g id="edge24" class="edge">
<title>Node388&#45;&gt;Node404</title>
<path fill="none" stroke="#191970" d="M69.7893,-284.0823C94.7663,-325.4236 193.5399,-488.9109 226.9148,-544.152"/>
<polygon fill="#191970" stroke="#191970" points="224.0221,-546.1325 232.189,-552.8817 230.0135,-542.5126 224.0221,-546.1325"/>
</g>
<!-- Node408 -->
<g id="node21" class="node">
<title>Node408</title>
<g id="a_node21"><a xlink:href="structchi_1_1GraphFunction.html#aca401237496ae311e43c7a43519e4720" target="_top" xlink:title="Get the context. ">
<polygon fill="#ffffff" stroke="#000000" points="188.5,-144.5 188.5,-174.5 287.5,-174.5 287.5,-144.5 188.5,-144.5"/>
<text text-anchor="start" x="196.5" y="-162.5" font-family="Helvetica,sans-Serif" font-size="10.00" fill="#000000">chi::GraphFunction</text>
<text text-anchor="middle" x="238" y="-151.5" font-family="Helvetica,sans-Serif" font-size="10.00" fill="#000000">::context</text>
</a>
</g>
</g>
<!-- Node388&#45;&gt;Node408 -->
<g id="edge37" class="edge">
<title>Node388&#45;&gt;Node408</title>
<path fill="none" stroke="#191970" d="M72.1184,-264.9665C88.0114,-246.8569 125.0898,-207.262 164,-184.5 168.682,-181.7611 173.7075,-179.2678 178.8548,-177.0101"/>
<polygon fill="#191970" stroke="#191970" points="180.265,-180.215 188.2038,-173.1988 177.6224,-173.7329 180.265,-180.215"/>
</g>
<!-- Node409 -->
<g id="node22" class="node">
<title>Node409</title>
<g id="a_node22"><a xlink:href="structchi_1_1GraphFunction.html#a9a3b003e74692f5d0aa474d28c0dd23d" target="_top" xlink:title="Create a new local varaible in the module. ">
<polygon fill="#ffffff" stroke="#000000" points="171,-95.5 171,-125.5 305,-125.5 305,-95.5 171,-95.5"/>
<text text-anchor="start" x="179" y="-113.5" font-family="Helvetica,sans-Serif" font-size="10.00" fill="#000000">chi::GraphFunction</text>
<text text-anchor="middle" x="238" y="-102.5" font-family="Helvetica,sans-Serif" font-size="10.00" fill="#000000">::getOrCreateLocalVariable</text>
</a>
</g>
</g>
<!-- Node388&#45;&gt;Node409 -->
<g id="edge38" class="edge">
<title>Node388&#45;&gt;Node409</title>
<path fill="none" stroke="#191970" d="M68.3179,-264.8295C80.01,-239.7238 114.7512,-171.8988 164,-135.5 166.6173,-133.5656 169.3942,-131.7742 172.2779,-130.116"/>
<polygon fill="#191970" stroke="#191970" points="173.9029,-133.216 181.196,-125.5309 170.7022,-126.9906 173.9029,-133.216"/>
</g>
<!-- Node411 -->
<g id="node24" class="node">
<title>Node411</title>
<g id="a_node24"><a xlink:href="structchi_1_1GraphFunction.html#ac75470b92fcf30495c7daab64d999ed8" target="_top" xlink:title="Add a node to the graph. ">
<polygon fill="#ffffff" stroke="#000000" points="188.5,-193.5 188.5,-223.5 287.5,-223.5 287.5,-193.5 188.5,-193.5"/>
<text text-anchor="start" x="196.5" y="-211.5" font-family="Helvetica,sans-Serif" font-size="10.00" fill="#000000">chi::GraphFunction</text>
<text text-anchor="middle" x="238" y="-200.5" font-family="Helvetica,sans-Serif" font-size="10.00" fill="#000000">::insertNode</text>
</a>
</g>
</g>
<!-- Node388&#45;&gt;Node411 -->
<g id="edge40" class="edge">
<title>Node388&#45;&gt;Node411</title>
<path fill="none" stroke="#191970" d="M89.3011,-264.903C115.1829,-255.0858 156.074,-239.5754 188.4305,-227.3022"/>
<polygon fill="#191970" stroke="#191970" points="190.0634,-230.4262 198.1721,-223.6071 187.5808,-223.8812 190.0634,-230.4262"/>
</g>
<!-- Node412 -->
<g id="node25" class="node">
<title>Node412</title>
<g id="a_node25"><a xlink:href="structchi_1_1GraphFunction.html#aa5985d96d7564d7ee7f240fdb02b41a6" target="_top" xlink:title="Get the nodes in the function Usually called by connectData or connectExec or GraphFunction. ">
<polygon fill="#ffffff" stroke="#000000" points="378.5,-199.5 378.5,-229.5 477.5,-229.5 477.5,-199.5 378.5,-199.5"/>
<text text-anchor="start" x="386.5" y="-217.5" font-family="Helvetica,sans-Serif" font-size="10.00" fill="#000000">chi::GraphFunction</text>
<text text-anchor="middle" x="428" y="-206.5" font-family="Helvetica,sans-Serif" font-size="10.00" fill="#000000">::nodes</text>
</a>
</g>
</g>
<!-- Node388&#45;&gt;Node412 -->
<g id="edge43" class="edge">
<title>Node388&#45;&gt;Node412</title>
<path fill="none" stroke="#191970" d="M121.6769,-264.9928C189.0811,-253.8822 300.0646,-235.5883 368.3189,-224.3375"/>
<polygon fill="#191970" stroke="#191970" points="369.1833,-227.7424 378.4809,-222.6625 368.0447,-220.8356 369.1833,-227.7424"/>
</g>
<!-- Node413 -->
<g id="node26" class="node">
<title>Node413</title>
<g id="a_node26"><a xlink:href="structchi_1_1Context.html#a28706d36f049088c98cd726921512668" target="_top" xlink:title="Gets a NodeType from the JSON and name. ">
<polygon fill="#ffffff" stroke="#000000" points="168,-281.5 168,-311.5 308,-311.5 308,-281.5 168,-281.5"/>
<text text-anchor="start" x="176" y="-299.5" font-family="Helvetica,sans-Serif" font-size="10.00" fill="#000000">chi::Context::nodeTypeFrom</text>
<text text-anchor="middle" x="238" y="-288.5" font-family="Helvetica,sans-Serif" font-size="10.00" fill="#000000">Module</text>
</a>
</g>
</g>
<!-- Node388&#45;&gt;Node413 -->
<g id="edge44" class="edge">
<title>Node388&#45;&gt;Node413</title>
<path fill="none" stroke="#191970" d="M128.2968,-282.6295C137.8529,-283.8377 147.8019,-285.0956 157.6371,-286.3392"/>
<polygon fill="#191970" stroke="#191970" points="157.464,-289.8451 167.8241,-287.6272 158.3421,-282.9004 157.464,-289.8451"/>
</g>
<!-- Node415 -->
<g id="node28" class="node">
<title>Node415</title>
<g id="a_node28"><a xlink:href="namespacechi.html#aa47212ba13fb1a1d26774dc208c15255" target="_top" xlink:title="Parse a colonated pair Example: lang:i32 would turn into {lang, i32}. ">
<polygon fill="#ffffff" stroke="#000000" points="187.5,-55 187.5,-74 288.5,-74 288.5,-55 187.5,-55"/>
<text text-anchor="middle" x="238" y="-62" font-family="Helvetica,sans-Serif" font-size="10.00" fill="#000000">chi::parseColonPair</text>
</a>
</g>
</g>
<!-- Node388&#45;&gt;Node415 -->
<g id="edge47" class="edge">
<title>Node388&#45;&gt;Node415</title>
<path fill="none" stroke="#191970" d="M66.205,-264.9429C73.8573,-233.9689 102.2446,-135.4727 164,-85.5 168.112,-82.1726 172.7231,-79.3721 177.5803,-77.0151"/>
<polygon fill="#191970" stroke="#191970" points="179.2843,-80.0962 187.1581,-73.0073 176.5821,-73.6388 179.2843,-80.0962"/>
</g>
<!-- Node418 -->
<g id="node31" class="node">
<title>Node418</title>
<g id="a_node31"><a xlink:href="structchi_1_1Context.html#a9e0b185a1871ebfda5d7bd410bf085f2" target="_top" xlink:title="Gets a DataType from a module. ">
<polygon fill="#ffffff" stroke="#000000" points="164,-331 164,-350 312,-350 312,-331 164,-331"/>
<text text-anchor="middle" x="238" y="-338" font-family="Helvetica,sans-Serif" font-size="10.00" fill="#000000">chi::Context::typeFromModule</text>
</a>
</g>
</g>
<!-- Node388&#45;&gt;Node418 -->
<g id="edge50" class="edge">
<title>Node388&#45;&gt;Node418</title>
<path fill="none" stroke="#191970" d="M81.6341,-284.0326C101.2839,-294.3576 134.2167,-310.7851 164,-321.5 170.7786,-323.9387 178.0118,-326.1978 185.2015,-328.2438"/>
<polygon fill="#191970" stroke="#191970" points="184.3634,-331.643 194.932,-330.8985 186.2059,-324.8898 184.3634,-331.643"/>
</g>
<!-- Node390&#45;&gt;Node389 -->
<g id="edge3" class="edge">
<title>Node390&#45;&gt;Node389</title>
<path fill="none" stroke="#191970" d="M239.2344,-818.8804C244.5172,-781.8468 268.6966,-647.286 348,-581.5 404.2532,-534.8352 444.5484,-579.7756 508,-543.5 550.649,-519.1174 587.1955,-473.0902 605.3191,-447.6126"/>
<polygon fill="#191970" stroke="#191970" points="608.3088,-449.4436 611.1399,-439.234 602.56,-445.4497 608.3088,-449.4436"/>
</g>
<!-- Node391 -->
<g id="node4" class="node">
<title>Node391</title>
<g id="a_node4"><a xlink:href="structchi_1_1NodeType.html#a7d2edfc21ff54a1ff8ad98fffb969268" target="_top" xlink:title="Get the data inputs for the node. ">
<polygon fill="#ffffff" stroke="#000000" points="552,-925 552,-944 683,-944 683,-925 552,-925"/>
<text text-anchor="middle" x="617.5" y="-932" font-family="Helvetica,sans-Serif" font-size="10.00" fill="#000000">chi::NodeType::dataInputs</text>
</a>
</g>
</g>
<!-- Node390&#45;&gt;Node391 -->
<g id="edge4" class="edge">
<title>Node390&#45;&gt;Node391</title>
<path fill="none" stroke="#191970" d="M252.2579,-838.0876C272.6007,-851.3036 311.5385,-874.9096 348,-887.5 411.3942,-909.3904 486.8516,-921.4317 541.7751,-927.829"/>
<polygon fill="#191970" stroke="#191970" points="541.4544,-931.3149 551.784,-928.9589 542.2398,-924.3591 541.4544,-931.3149"/>
</g>
<!-- Node392 -->
<g id="node5" class="node">
<title>Node392</title>
<g id="a_node5"><a xlink:href="structchi_1_1NodeType.html#aade37588d98e93b19a9a47e16c850684" target="_top" xlink:title="Get the data outputs for the node. ">
<polygon fill="#ffffff" stroke="#000000" points="548,-879 548,-898 687,-898 687,-879 548,-879"/>
<text text-anchor="middle" x="617.5" y="-886" font-family="Helvetica,sans-Serif" font-size="10.00" fill="#000000">chi::NodeType::dataOutputs</text>
</a>
</g>
</g>
<!-- Node390&#45;&gt;Node392 -->
<g id="edge5" class="edge">
<title>Node390&#45;&gt;Node392</title>
<path fill="none" stroke="#191970" d="M262.9319,-838.1354C284.9653,-846.2373 318.1471,-857.4399 348,-863.5 411.0539,-876.2998 483.7558,-882.5593 537.7464,-885.613"/>
<polygon fill="#191970" stroke="#191970" points="537.7702,-889.1193 547.9446,-886.1644 538.1482,-882.1296 537.7702,-889.1193"/>
</g>
<!-- Node393 -->
<g id="node6" class="node">
<title>Node393</title>
<g id="a_node6"><a xlink:href="namespacechi.html#a4694f9910cf90fd7c202fe117c4f257e" target="_top" xlink:title="Disconnect a data connection. ">
<polygon fill="#ffffff" stroke="#000000" points="376.5,-819 376.5,-838 479.5,-838 479.5,-819 376.5,-819"/>
<text text-anchor="middle" x="428" y="-826" font-family="Helvetica,sans-Serif" font-size="10.00" fill="#000000">chi::disconnectData</text>
</a>
</g>
</g>
<!-- Node390&#45;&gt;Node393 -->
<g id="edge6" class="edge">
<title>Node390&#45;&gt;Node393</title>
<path fill="none" stroke="#191970" d="M283.0273,-828.5C307.8404,-828.5 339.012,-828.5 366.0864,-828.5"/>
<polygon fill="#191970" stroke="#191970" points="366.2406,-832.0001 376.2405,-828.5 366.2405,-825.0001 366.2406,-832.0001"/>
</g>
<!-- Node394 -->
<g id="node7" class="node">
<title>Node394</title>
<g id="a_node7"><a xlink:href="structchi_1_1NodeInstance.html#a8f64930fd9578431a11cad0702b4100c" target="_top" xlink:title="Get the containing GraphFunction. ">
<polygon fill="#ffffff" stroke="#000000" points="567,-813.5 567,-843.5 668,-843.5 668,-813.5 567,-813.5"/>
<text text-anchor="start" x="575" y="-831.5" font-family="Helvetica,sans-Serif" font-size="10.00" fill="#000000">chi::NodeInstance::</text>
<text text-anchor="middle" x="617.5" y="-820.5" font-family="Helvetica,sans-Serif" font-size="10.00" fill="#000000">function</text>
</a>
</g>
</g>
<!-- Node390&#45;&gt;Node394 -->
<g id="edge20" class="edge">
<title>Node390&#45;&gt;Node394</title>
<path fill="none" stroke="#191970" d="M282.7307,-838.0121C302.6157,-841.7775 326.3737,-845.646 348,-847.5 418.8512,-853.574 437.1511,-853.6011 508,-847.5 523.848,-846.1353 540.8447,-843.6791 556.6067,-840.9759"/>
<polygon fill="#191970" stroke="#191970" points="557.5277,-844.3672 566.7618,-839.1729 556.3039,-837.475 557.5277,-844.3672"/>
</g>
<!-- Node395 -->
<g id="node8" class="node">
<title>Node395</title>
<g id="a_node8"><a xlink:href="structchi_1_1NodeType.html#a7031e3c04e9a0227b09f8f854ce8b7f9" target="_top" xlink:title="Get the qualified name of the node type, like module.name():name() ">
<polygon fill="#ffffff" stroke="#000000" points="544,-761 544,-780 691,-780 691,-761 544,-761"/>
<text text-anchor="middle" x="617.5" y="-768" font-family="Helvetica,sans-Serif" font-size="10.00" fill="#000000">chi::NodeType::qualifiedName</text>
</a>
</g>
</g>
<!-- Node390&#45;&gt;Node395 -->
<g id="edge21" class="edge">
<title>Node390&#45;&gt;Node395</title>
<path fill="none" stroke="#191970" d="M283.177,-820.4103C303.0401,-816.9276 326.6583,-812.8867 348,-809.5 411.8226,-799.372 484.3237,-788.9408 538.0398,-781.4176"/>
<polygon fill="#191970" stroke="#191970" points="538.7648,-784.8504 548.1842,-780.0001 537.7961,-777.9177 538.7648,-784.8504"/>
</g>
<!-- Node401 -->
<g id="node14" class="node">
<title>Node401</title>
<g id="a_node14"><a xlink:href="structchi_1_1NodeType.html#ac99bef32e3e5e564119dbb8de69d2273" target="_top" xlink:title="Create the JSON necessary to store the object. ">
<polygon fill="#ffffff" stroke="#000000" points="557.5,-967 557.5,-986 677.5,-986 677.5,-967 557.5,-967"/>
<text text-anchor="middle" x="617.5" y="-974" font-family="Helvetica,sans-Serif" font-size="10.00" fill="#000000">chi::NodeType::toJSON</text>
</a>
</g>
</g>
<!-- Node390&#45;&gt;Node401 -->
<g id="edge22" class="edge">
<title>Node390&#45;&gt;Node401</title>
<path fill="none" stroke="#191970" d="M246.642,-838.1247C263.9394,-856.7534 304.8726,-897.728 348,-918.5 411.4254,-949.0484 490.9398,-963.6401 547.114,-970.5266"/>
<polygon fill="#191970" stroke="#191970" points="546.9823,-974.0351 557.3222,-971.7249 547.7985,-967.0828 546.9823,-974.0351"/>
</g>
<!-- Node403 -->
<g id="node16" class="node">
<title>Node403</title>
<g id="a_node16"><a xlink:href="structchi_1_1NodeInstance.html#a5d6678d5a90e6b1adb7dafb868b974b1" target="_top" xlink:title="Get the type of the instance. ">
<polygon fill="#ffffff" stroke="#000000" points="557.5,-636 557.5,-655 677.5,-655 677.5,-636 557.5,-636"/>
<text text-anchor="middle" x="617.5" y="-643" font-family="Helvetica,sans-Serif" font-size="10.00" fill="#000000">chi::NodeInstance::type</text>
</a>
</g>
</g>
<!-- Node390&#45;&gt;Node403 -->
<g id="edge23" class="edge">
<title>Node390&#45;&gt;Node403</title>
<path fill="none" stroke="#191970" d="M255.2832,-818.9349C301.4029,-793.5898 431.5349,-723.2418 544,-673.5 555.8051,-668.2788 568.914,-663.0956 580.754,-658.6343"/>
<polygon fill="#191970" stroke="#191970" points="582.1894,-661.8349 590.3447,-655.0717 579.7518,-655.273 582.1894,-661.8349"/>
</g>
<!-- Node393&#45;&gt;Node389 -->
<g id="edge7" class="edge">
<title>Node393&#45;&gt;Node389</title>
<path fill="none" stroke="#191970" d="M431.6794,-818.9217C443.0594,-789.2897 478.6842,-696.4727 508,-619.5 524.0705,-577.3046 521.9437,-563.8984 544,-524.5 560.5188,-494.9931 585.6027,-464.7487 601.7721,-446.5411"/>
<polygon fill="#191970" stroke="#191970" points="604.4132,-448.8386 608.5112,-439.0684 599.2148,-444.1506 604.4132,-448.8386"/>
</g>
<!-- Node393&#45;&gt;Node391 -->
<g id="edge8" class="edge">
<title>Node393&#45;&gt;Node391</title>
<path fill="none" stroke="#191970" d="M439.9074,-838.0825C460.2612,-854.1146 503.4798,-886.6634 544,-907.5 554.2741,-912.7832 565.8268,-917.5342 576.677,-921.5241"/>
<polygon fill="#191970" stroke="#191970" points="575.7923,-924.9239 586.3871,-924.9678 578.1321,-918.3265 575.7923,-924.9239"/>
</g>
<!-- Node393&#45;&gt;Node392 -->
<g id="edge9" class="edge">
<title>Node393&#45;&gt;Node392</title>
<path fill="none" stroke="#191970" d="M458.0268,-838.0072C490.3655,-848.2463 541.9724,-864.5863 577.68,-875.8921"/>
<polygon fill="#191970" stroke="#191970" points="576.7104,-879.2563 587.3005,-878.9382 578.8235,-872.5828 576.7104,-879.2563"/>
</g>
<!-- Node393&#45;&gt;Node394 -->
<g id="edge10" class="edge">
<title>Node393&#45;&gt;Node394</title>
<path fill="none" stroke="#191970" d="M479.7817,-828.5C503.5715,-828.5 531.9462,-828.5 556.7409,-828.5"/>
<polygon fill="#191970" stroke="#191970" points="556.7642,-832.0001 566.7642,-828.5 556.7641,-825.0001 556.7642,-832.0001"/>
</g>
<!-- Node393&#45;&gt;Node395 -->
<g id="edge11" class="edge">
<title>Node393&#45;&gt;Node395</title>
<path fill="none" stroke="#191970" d="M459.9428,-818.9937C474.5962,-814.6131 492.1897,-809.326 508,-804.5 530.9058,-797.5082 556.467,-789.5786 577.1284,-783.137"/>
<polygon fill="#191970" stroke="#191970" points="578.3413,-786.425 586.8446,-780.1049 576.256,-779.7428 578.3413,-786.425"/>
</g>
<!-- Node400 -->
<g id="node13" class="node">
<title>Node400</title>
<g id="a_node13"><a xlink:href="structchi_1_1NodeInstance.html#a993d848a1b95077007e232d177f58308" target="_top" xlink:title="Get the ID as a string. ">
<polygon fill="#ffffff" stroke="#000000" points="567,-682.5 567,-712.5 668,-712.5 668,-682.5 567,-682.5"/>
<text text-anchor="start" x="575" y="-700.5" font-family="Helvetica,sans-Serif" font-size="10.00" fill="#000000">chi::NodeInstance::</text>
<text text-anchor="middle" x="617.5" y="-689.5" font-family="Helvetica,sans-Serif" font-size="10.00" fill="#000000">stringId</text>
</a>
</g>
</g>
<!-- Node393&#45;&gt;Node400 -->
<g id="edge16" class="edge">
<title>Node393&#45;&gt;Node400</title>
<path fill="none" stroke="#191970" d="M441.9344,-818.8673C472.4172,-797.7947 545.6154,-747.1933 587.2326,-718.4236"/>
<polygon fill="#191970" stroke="#191970" points="589.3717,-721.1999 595.6072,-712.6343 585.3911,-715.4418 589.3717,-721.1999"/>
</g>
<!-- Node393&#45;&gt;Node401 -->
<g id="edge17" class="edge">
<title>Node393&#45;&gt;Node401</title>
<path fill="none" stroke="#191970" d="M434.3219,-838.2301C450.0147,-861.6181 493.1755,-921.4229 544,-953.5 550.2188,-957.4249 557.1581,-960.725 564.2212,-963.4875"/>
<polygon fill="#191970" stroke="#191970" points="563.2788,-966.8673 573.8734,-966.9296 565.6301,-960.274 563.2788,-966.8673"/>
</g>
<!-- Node393&#45;&gt;Node403 -->
<g id="edge19" class="edge">
<title>Node393&#45;&gt;Node403</title>
<path fill="none" stroke="#191970" d="M445.2268,-818.9908C463.1326,-808.322 490.8858,-789.4664 508,-766.5 534.4835,-730.9603 512.5758,-704.7564 544,-673.5 550.0539,-667.4785 557.5356,-662.728 565.3864,-658.9869"/>
<polygon fill="#191970" stroke="#191970" points="566.8626,-662.1628 574.7087,-655.0432 564.1353,-655.716 566.8626,-662.1628"/>
</g>
<!-- Node396 -->
<g id="node9" class="node">
<title>Node396</title>
<g id="a_node9"><a xlink:href="structchi_1_1NodeType.html#a4fd551737d6b3bb4d6609f1ee8e054aa" target="_top" xlink:title="Get the ChiModule this NodeType belongs to. ">
<polygon fill="#ffffff" stroke="#000000" points="731,-742 731,-761 848,-761 848,-742 731,-742"/>
<text text-anchor="middle" x="789.5" y="-749" font-family="Helvetica,sans-Serif" font-size="10.00" fill="#000000">chi::NodeType::module</text>
</a>
</g>
</g>
<!-- Node395&#45;&gt;Node396 -->
<g id="edge12" class="edge">
<title>Node395&#45;&gt;Node396</title>
<path fill="none" stroke="#191970" d="M691.4417,-762.332C701.2403,-761.2496 711.252,-760.1437 720.9542,-759.0719"/>
<polygon fill="#191970" stroke="#191970" points="721.3759,-762.5467 730.9311,-757.9698 720.6072,-755.589 721.3759,-762.5467"/>
</g>
<!-- Node397 -->
<g id="node10" class="node">
<title>Node397</title>
<g id="a_node10"><a xlink:href="structchi_1_1ChiModule.html#a92ab6d528ac41a91b6ac21ededfccc38" target="_top" xlink:title="Get the full name of the module. ">
<polygon fill="#ffffff" stroke="#000000" points="727,-704 727,-723 852,-723 852,-704 727,-704"/>
<text text-anchor="middle" x="789.5" y="-711" font-family="Helvetica,sans-Serif" font-size="10.00" fill="#000000">chi::ChiModule::fullName</text>
</a>
</g>
</g>
<!-- Node395&#45;&gt;Node397 -->
<g id="edge13" class="edge">
<title>Node395&#45;&gt;Node397</title>
<path fill="none" stroke="#191970" d="M643.9546,-760.9959C666.072,-753.1279 698.4886,-741.777 727,-732.5 733.5937,-730.3545 740.6028,-728.1501 747.4529,-726.0373"/>
<polygon fill="#191970" stroke="#191970" points="748.7682,-729.2952 757.3082,-723.0248 746.7219,-722.6009 748.7682,-729.2952"/>
</g>
<!-- Node398 -->
<g id="node11" class="node">
<title>Node398</title>
<g id="a_node11"><a xlink:href="structchi_1_1NodeType.html#ad301375a4b84ddc699337e285ee78cc3" target="_top" xlink:title="Get the name of the NodeType in the ChiModule. ">
<polygon fill="#ffffff" stroke="#000000" points="734.5,-818 734.5,-837 844.5,-837 844.5,-818 734.5,-818"/>
<text text-anchor="middle" x="789.5" y="-825" font-family="Helvetica,sans-Serif" font-size="10.00" fill="#000000">chi::NodeType::name</text>
</a>
</g>
</g>
<!-- Node395&#45;&gt;Node398 -->
<g id="edge14" class="edge">
<title>Node395&#45;&gt;Node398</title>
<path fill="none" stroke="#191970" d="M643.9546,-780.0041C666.072,-787.8721 698.4886,-799.223 727,-808.5 733.5937,-810.6455 740.6028,-812.8499 747.4529,-814.9627"/>
<polygon fill="#191970" stroke="#191970" points="746.7219,-818.3991 757.3082,-817.9752 748.7682,-811.7048 746.7219,-818.3991"/>
</g>
<!-- Node399 -->
<g id="node12" class="node">
<title>Node399</title>
<g id="a_node12"><a xlink:href="structchi_1_1NodeType.html#a6094ca464bc8672da707a277b59d1d89" target="_top" xlink:title="A virtual function that is called when this node needs to be called. ">
<polygon fill="#ffffff" stroke="#000000" points="728.5,-780 728.5,-799 850.5,-799 850.5,-780 728.5,-780"/>
<text text-anchor="middle" x="789.5" y="-787" font-family="Helvetica,sans-Serif" font-size="10.00" fill="#000000">chi::NodeType::codegen</text>
</a>
</g>
</g>
<!-- Node395&#45;&gt;Node399 -->
<g id="edge15" class="edge">
<title>Node395&#45;&gt;Node399</title>
<path fill="none" stroke="#191970" d="M691.4417,-778.668C700.2764,-779.6439 709.2844,-780.639 718.0826,-781.6109"/>
<polygon fill="#191970" stroke="#191970" points="717.9678,-785.1194 728.2916,-782.7386 718.7364,-778.1617 717.9678,-785.1194"/>
</g>
<!-- Node402 -->
<g id="node15" class="node">
<title>Node402</title>
<g id="a_node15"><a xlink:href="structchi_1_1NodeType.html#a9de5373607ac5fb322665c487010ecf2" target="_top" xlink:title="Clones the type. ">
<polygon fill="#ffffff" stroke="#000000" points="735,-967 735,-986 844,-986 844,-967 735,-967"/>
<text text-anchor="middle" x="789.5" y="-974" font-family="Helvetica,sans-Serif" font-size="10.00" fill="#000000">chi::NodeType::clone</text>
</a>
</g>
</g>
<!-- Node401&#45;&gt;Node402 -->
<g id="edge18" class="edge">
<title>Node401&#45;&gt;Node402</title>
<path fill="none" stroke="#191970" d="M677.6573,-976.5C692.915,-976.5 709.3692,-976.5 724.8398,-976.5"/>
<polygon fill="#191970" stroke="#191970" points="724.8418,-980.0001 734.8418,-976.5 724.8418,-973.0001 724.8418,-980.0001"/>
</g>
<!-- Node404&#45;&gt;Node389 -->
<g id="edge25" class="edge">
<title>Node404&#45;&gt;Node389</title>
<path fill="none" stroke="#191970" d="M249.7196,-552.7615C268.9914,-537.2449 309.1258,-506.9852 348,-490.5 415.0428,-462.0694 497.3377,-445.9073 553.2229,-437.4606"/>
<polygon fill="#191970" stroke="#191970" points="553.9569,-440.8904 563.3409,-435.972 552.9379,-433.9649 553.9569,-440.8904"/>
</g>
<!-- Node404&#45;&gt;Node394 -->
<g id="edge34" class="edge">
<title>Node404&#45;&gt;Node394</title>
<path fill="none" stroke="#191970" d="M244.7477,-572.2686C260.6306,-594.7201 302.4841,-650.8054 348,-686.5 418.2206,-741.5686 512.958,-785.735 569.3845,-809.4463"/>
<polygon fill="#191970" stroke="#191970" points="568.2034,-812.7456 578.7808,-813.3542 570.8916,-806.2823 568.2034,-812.7456"/>
</g>
<!-- Node404&#45;&gt;Node395 -->
<g id="edge35" class="edge">
<title>Node404&#45;&gt;Node395</title>
<path fill="none" stroke="#191970" d="M248.4564,-572.2173C267.1468,-589.1476 308.078,-624.2702 348,-645.5 414.3914,-680.8059 440.2889,-667.7964 508,-700.5 516.884,-704.7909 564.743,-735.8945 594.1724,-755.1694"/>
<polygon fill="#191970" stroke="#191970" points="592.3687,-758.172 602.6504,-760.7287 596.2072,-752.3183 592.3687,-758.172"/>
</g>
<!-- Node404&#45;&gt;Node403 -->
<g id="edge36" class="edge">
<title>Node404&#45;&gt;Node403</title>
<path fill="none" stroke="#191970" d="M252.1864,-572.1304C272.4442,-585.3356 311.2816,-608.6574 348,-619.5 413.7813,-638.9247 492.1311,-644.6527 547.3497,-645.9871"/>
<polygon fill="#191970" stroke="#191970" points="547.3149,-649.4871 557.3828,-646.1875 547.4547,-642.4884 547.3149,-649.4871"/>
</g>
<!-- Node405 -->
<g id="node18" class="node">
<title>Node405</title>
<g id="a_node18"><a xlink:href="namespacechi.html#a103b99abd766aa4d303a5004fe783c03" target="_top" xlink:title="Disconnect a exec connection. ">
<polygon fill="#ffffff" stroke="#000000" points="375.5,-591 375.5,-610 480.5,-610 480.5,-591 375.5,-591"/>
<text text-anchor="middle" x="428" y="-598" font-family="Helvetica,sans-Serif" font-size="10.00" fill="#000000">chi::disconnectExec</text>
</a>
</g>
</g>
<!-- Node404&#45;&gt;Node405 -->
<g id="edge26" class="edge">
<title>Node404&#45;&gt;Node405</title>
<path fill="none" stroke="#191970" d="M284.4792,-571.7958C310.4083,-576.9817 342.9294,-583.4859 370.4554,-588.9911"/>
<polygon fill="#191970" stroke="#191970" points="369.8568,-592.4406 380.349,-590.9698 371.2297,-585.5765 369.8568,-592.4406"/>
</g>
<!-- Node406 -->
<g id="node19" class="node">
<title>Node406</title>
<g id="a_node19"><a xlink:href="structchi_1_1NodeType.html#aa93f41674ea15d335db358d8aa4745a1" target="_top" xlink:title="Get the execution outputs for the node. ">
<polygon fill="#ffffff" stroke="#000000" points="547,-534 547,-553 688,-553 688,-534 547,-534"/>
<text text-anchor="middle" x="617.5" y="-541" font-family="Helvetica,sans-Serif" font-size="10.00" fill="#000000">chi::NodeType::execOutputs</text>
</a>
</g>
</g>
<!-- Node404&#45;&gt;Node406 -->
<g id="edge33" class="edge">
<title>Node404&#45;&gt;Node406</title>
<path fill="none" stroke="#191970" d="M251.3826,-552.8355C271.2837,-539.1228 310.3849,-514.6669 348,-505.5 417.0891,-488.6628 437.8784,-493.6786 508,-505.5 535.7037,-510.1704 565.7589,-521.0492 587.3605,-529.9754"/>
<polygon fill="#191970" stroke="#191970" points="586.0787,-533.2334 596.6519,-533.9099 588.8083,-526.7875 586.0787,-533.2334"/>
</g>
<!-- Node407 -->
<g id="node20" class="node">
<title>Node407</title>
<g id="a_node20"><a xlink:href="structchi_1_1NodeType.html#abacc3220df0b18bfbe9ee86b6dc427cd" target="_top" xlink:title="Get the execution inputs for the node. ">
<polygon fill="#ffffff" stroke="#000000" points="361,-515 361,-534 495,-534 495,-515 361,-515"/>
<text text-anchor="middle" x="428" y="-522" font-family="Helvetica,sans-Serif" font-size="10.00" fill="#000000">chi::NodeType::execInputs</text>
</a>
</g>
</g>
<!-- Node404&#45;&gt;Node407 -->
<g id="edge32" class="edge">
<title>Node404&#45;&gt;Node407</title>
<path fill="none" stroke="#191970" d="M284.4792,-553.2042C310.4083,-548.0183 342.9294,-541.5141 370.4554,-536.0089"/>
<polygon fill="#191970" stroke="#191970" points="371.2297,-539.4235 380.349,-534.0302 369.8568,-532.5594 371.2297,-539.4235"/>
</g>
<!-- Node405&#45;&gt;Node389 -->
<g id="edge27" class="edge">
<title>Node405&#45;&gt;Node389</title>
<path fill="none" stroke="#191970" d="M478.6482,-590.9207C488.9724,-587.4737 499.3192,-582.8074 508,-576.5 530.7402,-559.9771 527.3939,-547.1795 544,-524.5 564.1004,-497.0483 588.4353,-465.9992 603.4421,-447.0894"/>
<polygon fill="#191970" stroke="#191970" points="606.3272,-449.0849 609.8163,-439.081 600.8502,-444.7255 606.3272,-449.0849"/>
</g>
<!-- Node405&#45;&gt;Node395 -->
<g id="edge29" class="edge">
<title>Node405&#45;&gt;Node395</title>
<path fill="none" stroke="#191970" d="M443.5309,-610.0123C460.7472,-621.0925 488.6363,-640.6855 508,-662.5 528.6446,-685.7575 522.433,-700.0952 544,-722.5 556.9186,-735.9205 574.2561,-747.4677 588.848,-755.8712"/>
<polygon fill="#191970" stroke="#191970" points="587.5237,-759.1389 597.9664,-760.9275 590.9184,-753.0171 587.5237,-759.1389"/>
</g>
<!-- Node405&#45;&gt;Node400 -->
<g id="edge30" class="edge">
<title>Node405&#45;&gt;Node400</title>
<path fill="none" stroke="#191970" d="M444.2937,-610.0459C466.5358,-622.9479 507.7823,-646.4166 544,-664.5 553.3887,-669.1878 563.587,-673.9621 573.314,-678.3697"/>
<polygon fill="#191970" stroke="#191970" points="571.897,-681.57 582.4537,-682.4683 574.7613,-675.1829 571.897,-681.57"/>
</g>
<!-- Node405&#45;&gt;Node403 -->
<g id="edge31" class="edge">
<title>Node405&#45;&gt;Node403</title>
<path fill="none" stroke="#191970" d="M468.1881,-610.0433C497.2064,-616.9342 536.5821,-626.2847 567.6121,-633.6533"/>
<polygon fill="#191970" stroke="#191970" points="566.8317,-637.0652 577.3699,-635.9704 568.4491,-630.2546 566.8317,-637.0652"/>
</g>
<!-- Node405&#45;&gt;Node406 -->
<g id="edge28" class="edge">
<title>Node405&#45;&gt;Node406</title>
<path fill="none" stroke="#191970" d="M459.9244,-590.9327C474.574,-586.5398 492.1697,-581.2599 508,-576.5 530.5494,-569.7197 555.706,-562.1394 576.2148,-555.9555"/>
<polygon fill="#191970" stroke="#191970" points="577.3141,-559.2797 585.8777,-553.0415 575.293,-552.5778 577.3141,-559.2797"/>
</g>
<!-- Node410 -->
<g id="node23" class="node">
<title>Node410</title>
<g id="a_node23"><a xlink:href="structchi_1_1GraphFunction.html#a0123fb77fb0a19ea18163afb88f7687b" target="_top" xlink:title="Get a local varaible by name. ">
<polygon fill="#ffffff" stroke="#000000" points="365,-98.5 365,-128.5 491,-128.5 491,-98.5 365,-98.5"/>
<text text-anchor="start" x="373" y="-116.5" font-family="Helvetica,sans-Serif" font-size="10.00" fill="#000000">chi::GraphFunction</text>
<text text-anchor="middle" x="428" y="-105.5" font-family="Helvetica,sans-Serif" font-size="10.00" fill="#000000">::localVariableFromName</text>
</a>
</g>
</g>
<!-- Node409&#45;&gt;Node410 -->
<g id="edge39" class="edge">
<title>Node409&#45;&gt;Node410</title>
<path fill="none" stroke="#191970" d="M305.2543,-111.5619C321.3438,-111.816 338.5973,-112.0884 354.9352,-112.3463"/>
<polygon fill="#191970" stroke="#191970" points="354.9169,-115.8464 364.9709,-112.5048 355.0274,-108.8473 354.9169,-115.8464"/>
</g>
<!-- Node411&#45;&gt;Node389 -->
<g id="edge42" class="edge">
<title>Node411&#45;&gt;Node389</title>
<path fill="none" stroke="#191970" d="M287.5508,-198.3232C355.3667,-185.5392 472.7134,-167.8531 508,-190.5 586.2312,-240.7088 609.292,-362.3055 615.4509,-409.9181"/>
<polygon fill="#191970" stroke="#191970" points="611.9772,-410.3474 616.626,-419.8678 618.9289,-409.5263 611.9772,-410.3474"/>
</g>
<!-- Node411&#45;&gt;Node412 -->
<g id="edge41" class="edge">
<title>Node411&#45;&gt;Node412</title>
<path fill="none" stroke="#191970" d="M287.9203,-210.0764C312.5745,-210.855 342.502,-211.8001 368.355,-212.6165"/>
<polygon fill="#191970" stroke="#191970" points="368.3076,-216.1166 378.4131,-212.9341 368.5286,-209.1201 368.3076,-216.1166"/>
</g>
<!-- Node413&#45;&gt;Node389 -->
<g id="edge46" class="edge">
<title>Node413&#45;&gt;Node389</title>
<path fill="none" stroke="#191970" d="M278.1169,-281.3582C333.2368,-263.1855 433.9678,-239.5904 508,-277.5 563.1167,-305.7236 596.8177,-376.0419 610.471,-410.2295"/>
<polygon fill="#191970" stroke="#191970" points="607.3538,-411.8759 614.2013,-419.9606 613.89,-409.3703 607.3538,-411.8759"/>
</g>
<!-- Node414 -->
<g id="node27" class="node">
<title>Node414</title>
<g id="a_node27"><a xlink:href="structchi_1_1Context.html#a8628a178e0a8a944065f2605d01a36d5" target="_top" xlink:title="Gets the module by the full name. ">
<polygon fill="#ffffff" stroke="#000000" points="348,-287 348,-306 508,-306 508,-287 348,-287"/>
<text text-anchor="middle" x="428" y="-294" font-family="Helvetica,sans-Serif" font-size="10.00" fill="#000000">chi::Context::moduleByFullName</text>
</a>
</g>
</g>
<!-- Node413&#45;&gt;Node414 -->
<g id="edge45" class="edge">
<title>Node413&#45;&gt;Node414</title>
<path fill="none" stroke="#191970" d="M308.2092,-296.5C317.7809,-296.5 327.7137,-296.5 337.5805,-296.5"/>
<polygon fill="#191970" stroke="#191970" points="337.8209,-300.0001 347.8209,-296.5 337.8209,-293.0001 337.8209,-300.0001"/>
</g>
<!-- Node416 -->
<g id="node29" class="node">
<title>Node416</title>
<g id="a_node29"><a xlink:href="structchi_1_1GraphFunction.html#a0564412e260698bdb3872d3d12dfc3bc" target="_top" xlink:title="Get the GraphModule that contains this GraphFunction. ">
<polygon fill="#ffffff" stroke="#000000" points="378.5,-.5 378.5,-30.5 477.5,-30.5 477.5,-.5 378.5,-.5"/>
<text text-anchor="start" x="386.5" y="-18.5" font-family="Helvetica,sans-Serif" font-size="10.00" fill="#000000">chi::GraphFunction</text>
<text text-anchor="middle" x="428" y="-7.5" font-family="Helvetica,sans-Serif" font-size="10.00" fill="#000000">::module</text>
</a>
</g>
</g>
<!-- Node415&#45;&gt;Node416 -->
<g id="edge48" class="edge">
<title>Node415&#45;&gt;Node416</title>
<path fill="none" stroke="#191970" d="M275.085,-54.936C301.6884,-48.0751 338.0904,-38.6872 368.7037,-30.7922"/>
<polygon fill="#191970" stroke="#191970" points="369.6108,-34.1729 378.4199,-28.2864 367.8627,-27.3946 369.6108,-34.1729"/>
</g>
<!-- Node417 -->
<g id="node30" class="node">
<title>Node417</title>
<g id="a_node30"><a xlink:href="structchi_1_1GraphFunction.html#a89069f6e08f71cfbafb245ea16c8d69f" target="_top" xlink:title="Get the name of the function. ">
<polygon fill="#ffffff" stroke="#000000" points="378.5,-49.5 378.5,-79.5 477.5,-79.5 477.5,-49.5 378.5,-49.5"/>
<text text-anchor="start" x="386.5" y="-67.5" font-family="Helvetica,sans-Serif" font-size="10.00" fill="#000000">chi::GraphFunction</text>
<text text-anchor="middle" x="428" y="-56.5" font-family="Helvetica,sans-Serif" font-size="10.00" fill="#000000">::name</text>
</a>
</g>
</g>
<!-- Node415&#45;&gt;Node417 -->
<g id="edge49" class="edge">
<title>Node415&#45;&gt;Node417</title>
<path fill="none" stroke="#191970" d="M288.9165,-64.5C313.2626,-64.5 342.572,-64.5 367.9946,-64.5"/>
<polygon fill="#191970" stroke="#191970" points="368.2582,-68.0001 378.2581,-64.5 368.2581,-61.0001 368.2582,-68.0001"/>
</g>
<!-- Node418&#45;&gt;Node389 -->
<g id="edge52" class="edge">
<title>Node418&#45;&gt;Node389</title>
<path fill="none" stroke="#191970" d="M290.8321,-350.0293C345.4916,-360.2216 433.1787,-377.5057 508,-396.5 531.6497,-402.5038 557.8269,-410.3479 578.6551,-416.8821"/>
<polygon fill="#191970" stroke="#191970" points="577.8257,-420.2906 588.4157,-419.9707 579.9376,-413.6168 577.8257,-420.2906"/>
</g>
<!-- Node418&#45;&gt;Node414 -->
<g id="edge51" class="edge">
<title>Node418&#45;&gt;Node414</title>
<path fill="none" stroke="#191970" d="M279.2272,-330.9527C307.8598,-324.3219 346.2096,-315.4409 376.8014,-308.3565"/>
<polygon fill="#191970" stroke="#191970" points="377.9008,-311.6946 386.8533,-306.0287 376.3214,-304.8751 377.9008,-311.6946"/>
</g>
<!-- Node419 -->
<g id="node32" class="node">
<title>Node419</title>
<g id="a_node32"><a xlink:href="structchi_1_1ChiModule.html#a03aa9f90fafd384094861dfff13eba77" target="_top" xlink:title="Get a DataType from the name. ">
<polygon fill="#ffffff" stroke="#000000" points="351,-325 351,-344 505,-344 505,-325 351,-325"/>
<text text-anchor="middle" x="428" y="-332" font-family="Helvetica,sans-Serif" font-size="10.00" fill="#000000">chi::ChiModule::typeFromName</text>
</a>
</g>
</g>
<!-- Node418&#45;&gt;Node419 -->
<g id="edge53" class="edge">
<title>Node418&#45;&gt;Node419</title>
<path fill="none" stroke="#191970" d="M312.003,-338.1631C321.3384,-337.8683 330.9586,-337.5645 340.4779,-337.2639"/>
<polygon fill="#191970" stroke="#191970" points="340.8652,-340.7535 350.7497,-336.9395 340.6442,-333.757 340.8652,-340.7535"/>
</g>
</g>
</svg>
