<?xml version="1.0" encoding="UTF-8" standalone="no"?>
<!DOCTYPE svg PUBLIC "-//W3C//DTD SVG 1.1//EN"
 "http://www.w3.org/Graphics/SVG/1.1/DTD/svg11.dtd">
<!-- Generated by graphviz version 2.40.1 (20161225.0304)
 -->
<!-- Title: chig::parseColonPair Pages: 1 -->
<!--zoomable 78 -->
<svg id="main" version="1.1" xmlns="http://www.w3.org/2000/svg" xmlns:xlink="http://www.w3.org/1999/xlink" xml:space="preserve" onload="init(evt)">
<style type="text/css"><![CDATA[
.edge:hover path { stroke: red; }
.edge:hover polygon { stroke: red; fill: red; }
]]></style>
<script type="text/javascript"><![CDATA[
var edges = document.getElementsByTagName('g');
if (edges && edges.length) {
  for (var i=0;i<edges.length;i++) {
    if (edges[i].id.substr(0,4)=='edge') {
      edges[i].setAttribute('class','edge');
    }
  }
}
]]></script>
        <defs>
                <circle id="rim" cx="0" cy="0" r="7"/>
                <circle id="rim2" cx="0" cy="0" r="3.5"/>
                <g id="zoomPlus">
                        <use xlink:href="#rim" fill="#404040">
                                <set attributeName="fill" to="#808080" begin="zoomplus.mouseover" end="zoomplus.mouseout"/>
                        </use>
                        <path d="M-4,0h8M0,-4v8" fill="none" stroke="white" stroke-width="1.5" pointer-events="none"/>
                </g>
                <g id="zoomMin">
                        <use xlink:href="#rim" fill="#404040">
                                <set attributeName="fill" to="#808080" begin="zoomminus.mouseover" end="zoomminus.mouseout"/>
                        </use>
                        <path d="M-4,0h8" fill="none" stroke="white" stroke-width="1.5" pointer-events="none"/>
                </g>
                <g id="dirArrow">
                        <path fill="none" stroke="white" stroke-width="1.5" d="M0,-3.0v7 M-2.5,-0.5L0,-3.0L2.5,-0.5"/>
                </g>
               <g id="resetDef">
                       <use xlink:href="#rim2" fill="#404040">
                               <set attributeName="fill" to="#808080" begin="reset.mouseover" end="reset.mouseout"/>
                       </use>
               </g>
        </defs>

<script type="text/javascript">
var viewWidth = 658;
var viewHeight = 78;
var sectionId = 'dynsection-23';
</script>
<script xlink:href="svgpan.js"/>
<svg id="graph" class="graph">
<g id="viewport">
<title>chig::parseColonPair</title>
<polygon fill="#ffffff" stroke="transparent" points="-4,4 -4,-73.5 654,-73.5 654,4 -4,4"/>
<!-- Node313 -->
<g id="node1" class="node">
<title>Node313</title>
<polygon fill="#bfbfbf" stroke="#000000" points="0,-22.5 0,-41.5 116,-41.5 116,-22.5 0,-22.5"/>
<text text-anchor="middle" x="58" y="-29.5" font-family="Helvetica,sans-Serif" font-size="10.00" fill="#000000">chig::parseColonPair</text>
</g>
<!-- Node314 -->
<g id="node2" class="node">
<title>Node314</title>
<g id="a_node2"><a xlink:href="namespacechig.html#a860a6f4d8180f1fb71729896291891b7" target="_top" xlink:title="Create a forward declaration of a function in a module with an empty graph. ">
<polygon fill="#ffffff" stroke="#000000" points="153,-39 153,-69 297,-69 297,-39 153,-39"/>
<text text-anchor="start" x="161" y="-57" font-family="Helvetica,sans-Serif" font-size="10.00" fill="#000000">chig::createGraphFunction</text>
<text text-anchor="middle" x="225" y="-46" font-family="Helvetica,sans-Serif" font-size="10.00" fill="#000000">DeclarationFromJson</text>
</a>
</g>
</g>
<!-- Node313&#45;&gt;Node314 -->
<g id="edge1" class="edge">
<title>Node313&#45;&gt;Node314</title>
<path fill="none" stroke="#191970" d="M126.4788,-41.0212C135.1651,-42.1655 144.0755,-43.3393 152.8174,-44.4909"/>
<polygon fill="#191970" stroke="#191970" points="126.78,-37.5307 116.4085,-39.6945 125.8657,-44.4707 126.78,-37.5307"/>
</g>
<!-- Node317 -->
<g id="node5" class="node">
<title>Node317</title>
<g id="a_node5"><a xlink:href="namespacechig.html#a62056798e67720d435705b99f7e16cd0" target="_top" xlink:title="Load a GraphFunction–must already exist (use createGraphFunctionDeclarationFromJson) ...">
<polygon fill="#ffffff" stroke="#000000" points="152,-.5 152,-19.5 298,-19.5 298,-.5 152,-.5"/>
<text text-anchor="middle" x="225" y="-7.5" font-family="Helvetica,sans-Serif" font-size="10.00" fill="#000000">chig::jsonToGraphFunction</text>
</a>
</g>
</g>
<!-- Node313&#45;&gt;Node317 -->
<g id="edge4" class="edge">
<title>Node313&#45;&gt;Node317</title>
<path fill="none" stroke="#191970" d="M126.4788,-22.9788C135.1651,-21.8345 144.0755,-20.6607 152.8174,-19.5091"/>
<polygon fill="#191970" stroke="#191970" points="125.8657,-19.5293 116.4085,-24.3055 126.78,-26.4693 125.8657,-19.5293"/>
</g>
<!-- Node315 -->
<g id="node3" class="node">
<title>Node315</title>
<g id="a_node3"><a xlink:href="namespacechig.html#a1f28de74faa271cf31249935c9640c58" target="_top" xlink:title="Load a GraphModule from json. ">
<polygon fill="#ffffff" stroke="#000000" points="334,-22.5 334,-41.5 474,-41.5 474,-22.5 334,-22.5"/>
<text text-anchor="middle" x="404" y="-29.5" font-family="Helvetica,sans-Serif" font-size="10.00" fill="#000000">chig::jsonToGraphModule</text>
</a>
</g>
</g>
<!-- Node314&#45;&gt;Node315 -->
<g id="edge2" class="edge">
<title>Node314&#45;&gt;Node315</title>
<path fill="none" stroke="#191970" d="M307.0747,-43.9126C316.0238,-42.8127 325.0726,-41.7006 333.86,-40.6206"/>
<polygon fill="#191970" stroke="#191970" points="306.5307,-40.453 297.0324,-45.1469 307.3847,-47.4008 306.5307,-40.453"/>
</g>
<!-- Node316 -->
<g id="node4" class="node">
<title>Node316</title>
<g id="a_node4"><a xlink:href="structchig_1_1Context.html#a0d9ec5f2803a5777d2e389256ccb3e3b" target="_top" xlink:title="Load a module from JSON – avoid this use the string overload. ">
<polygon fill="#ffffff" stroke="#000000" points="510,-17 510,-47 650,-47 650,-17 510,-17"/>
<text text-anchor="start" x="518" y="-35" font-family="Helvetica,sans-Serif" font-size="10.00" fill="#000000">chig::Context::addModule</text>
<text text-anchor="middle" x="580" y="-24" font-family="Helvetica,sans-Serif" font-size="10.00" fill="#000000">FromJson</text>
</a>
</g>
</g>
<!-- Node315&#45;&gt;Node316 -->
<g id="edge3" class="edge">
<title>Node315&#45;&gt;Node316</title>
<path fill="none" stroke="#191970" d="M484.1006,-32C492.7058,-32 501.4124,-32 509.888,-32"/>
<polygon fill="#191970" stroke="#191970" points="484.0656,-28.5001 474.0656,-32 484.0655,-35.5001 484.0656,-28.5001"/>
</g>
<!-- Node317&#45;&gt;Node315 -->
<g id="edge5" class="edge">
<title>Node317&#45;&gt;Node315</title>
<path fill="none" stroke="#191970" d="M308.0899,-20.2122C316.6774,-21.2676 325.3439,-22.3328 333.7712,-23.3685"/>
<polygon fill="#191970" stroke="#191970" points="308.4166,-16.7261 298.0643,-18.98 307.5627,-23.6738 308.4166,-16.7261"/>
</g>
</g>
</svg>
        <g id="navigator" transform="translate(0 0)" fill="#404254">
                <rect fill="#f2f5e9" fill-opacity="0.5" stroke="#606060" stroke-width=".5" x="0" y="0" width="60" height="60"/>
                <use id="zoomplus" xlink:href="#zoomPlus" x="17" y="9" onmousedown="handleZoom(evt,'in')"/>
                <use id="zoomminus" xlink:href="#zoomMin" x="42" y="9" onmousedown="handleZoom(evt,'out')"/>
                <use id="reset" xlink:href="#resetDef" x="30" y="36" onmousedown="handleReset()"/>
                <g id="arrowUp" xlink:href="#dirArrow" transform="translate(30 24)" onmousedown="handlePan(0,-1)">
                  <use xlink:href="#rim" fill="#404040">
                        <set attributeName="fill" to="#808080" begin="arrowUp.mouseover" end="arrowUp.mouseout"/>
                  </use>
                  <path fill="none" stroke="white" stroke-width="1.5" d="M0,-3.0v7 M-2.5,-0.5L0,-3.0L2.5,-0.5"/>
                </g>
                <g id="arrowRight" xlink:href="#dirArrow" transform="rotate(90) translate(36 -43)" onmousedown="handlePan(1,0)">
                  <use xlink:href="#rim" fill="#404040">
                        <set attributeName="fill" to="#808080" begin="arrowRight.mouseover" end="arrowRight.mouseout"/>
                  </use>
                  <path fill="none" stroke="white" stroke-width="1.5" d="M0,-3.0v7 M-2.5,-0.5L0,-3.0L2.5,-0.5"/>
                </g>
                <g id="arrowDown" xlink:href="#dirArrow" transform="rotate(180) translate(-30 -48)" onmousedown="handlePan(0,1)">
                  <use xlink:href="#rim" fill="#404040">
                        <set attributeName="fill" to="#808080" begin="arrowDown.mouseover" end="arrowDown.mouseout"/>
                  </use>
                  <path fill="none" stroke="white" stroke-width="1.5" d="M0,-3.0v7 M-2.5,-0.5L0,-3.0L2.5,-0.5"/>
                </g>
                <g id="arrowLeft" xlink:href="#dirArrow" transform="rotate(270) translate(-36 17)" onmousedown="handlePan(-1,0)">
                  <use xlink:href="#rim" fill="#404040">
                        <set attributeName="fill" to="#808080" begin="arrowLeft.mouseover" end="arrowLeft.mouseout"/>
                  </use>
                  <path fill="none" stroke="white" stroke-width="1.5" d="M0,-3.0v7 M-2.5,-0.5L0,-3.0L2.5,-0.5"/>
                </g>
        </g>
        <svg viewBox="0 0 15 15" width="100%" height="30px" preserveAspectRatio="xMaxYMin meet">
         <g id="arrow_out" transform="scale(0.3 0.3)">
          <a xlink:href="namespacechig_afcb097e8f99cd26ed33dd582f0d952f0_icgraph_org.svg" target="_base">
           <rect id="button" ry="5" rx="5" y="6" x="6" height="38" width="38"
                fill="#f2f5e9" fill-opacity="0.5" stroke="#606060" stroke-width="1.0"/>
           <path id="arrow"
             d="M 11.500037,31.436501 C 11.940474,20.09759 22.043105,11.32322 32.158766,21.979434 L 37.068811,17.246167 C 37.068811,17.246167 37.088388,32 37.088388,32 L 22.160133,31.978069 C 22.160133,31.978069 26.997745,27.140456 26.997745,27.140456 C 18.528582,18.264221 13.291696,25.230495 11.500037,31.436501 z"
             style="fill:#404040;"/>
          </a>
         </g>
        </svg>
</svg>
