<?xml version="1.0" encoding="UTF-8" standalone="no"?>
<!DOCTYPE svg PUBLIC "-//W3C//DTD SVG 1.1//EN"
 "http://www.w3.org/Graphics/SVG/1.1/DTD/svg11.dtd">
<!-- Generated by graphviz version 2.40.1 (20161225.0304)
 -->
<!-- Title: chig::connectData Pages: 1 -->
<svg width="258pt" height="78pt"
 viewBox="0.00 0.00 258.00 77.50" xmlns="http://www.w3.org/2000/svg" xmlns:xlink="http://www.w3.org/1999/xlink">
<g id="graph0" class="graph" transform="scale(1 1) rotate(0) translate(4 73.5)">
<title>chig::connectData</title>
<polygon fill="#ffffff" stroke="transparent" points="-4,4 -4,-73.5 254,-73.5 254,4 -4,4"/>
<!-- Node12 -->
<g id="node1" class="node">
<title>Node12</title>
<polygon fill="#bfbfbf" stroke="#000000" points="0,-22.5 0,-41.5 104,-41.5 104,-22.5 0,-22.5"/>
<text text-anchor="middle" x="52" y="-29.5" font-family="Helvetica,sans-Serif" font-size="10.00" fill="#000000">chig::connectData</text>
</g>
<!-- Node13 -->
<g id="node2" class="node">
<title>Node13</title>
<g id="a_node2"><a xlink:href="structchig_1_1NodeInstance.html#a664d68ae63b0ec095892d17597ef9623" target="_top" xlink:title="Get the containing Context object. ">
<polygon fill="#ffffff" stroke="#000000" points="140,-39 140,-69 250,-69 250,-39 140,-39"/>
<text text-anchor="start" x="148" y="-57" font-family="Helvetica,sans-Serif" font-size="10.00" fill="#000000">chig::NodeInstance</text>
<text text-anchor="middle" x="195" y="-46" font-family="Helvetica,sans-Serif" font-size="10.00" fill="#000000">::context</text>
</a>
</g>
</g>
<!-- Node12&#45;&gt;Node13 -->
<g id="edge1" class="edge">
<title>Node12&#45;&gt;Node13</title>
<path fill="none" stroke="#191970" d="M114.0151,-41.5408C122.6194,-42.8645 131.4101,-44.2169 139.8771,-45.5195"/>
<polygon fill="#191970" stroke="#191970" points="114.4468,-38.0661 104.0308,-40.0047 113.3823,-44.9847 114.4468,-38.0661"/>
</g>
<!-- Node14 -->
<g id="node3" class="node">
<title>Node14</title>
<g id="a_node3"><a xlink:href="structchig_1_1Graph.html#a3e0191ef63e6fa4137cebae20b27b9ed" target="_top" xlink:title="chig::Graph::Graph">
<polygon fill="#ffffff" stroke="#000000" points="141.5,-.5 141.5,-19.5 248.5,-19.5 248.5,-.5 141.5,-.5"/>
<text text-anchor="middle" x="195" y="-7.5" font-family="Helvetica,sans-Serif" font-size="10.00" fill="#000000">chig::Graph::Graph</text>
</a>
</g>
</g>
<!-- Node12&#45;&gt;Node14 -->
<g id="edge2" class="edge">
<title>Node12&#45;&gt;Node14</title>
<path fill="none" stroke="#191970" d="M114.1381,-22.4403C123.1952,-21.0469 132.4561,-19.6221 141.3261,-18.2575"/>
<polygon fill="#191970" stroke="#191970" points="113.3823,-19.0153 104.0308,-23.9953 114.4468,-25.9339 113.3823,-19.0153"/>
</g>
</g>
</svg>
