<?xml version="1.0" encoding="UTF-8" standalone="no"?>
<!DOCTYPE svg PUBLIC "-//W3C//DTD SVG 1.1//EN"
 "http://www.w3.org/Graphics/SVG/1.1/DTD/svg11.dtd">
<!-- Generated by graphviz version 2.40.1 (20161225.0304)
 -->
<!-- Title: chig::validateFunctionNodeInputs Pages: 1 -->
<!--zoomable 39 -->
<svg id="main" version="1.1" xmlns="http://www.w3.org/2000/svg" xmlns:xlink="http://www.w3.org/1999/xlink" xml:space="preserve" onload="init(evt)">
<style type="text/css"><![CDATA[
.edge:hover path { stroke: red; }
.edge:hover polygon { stroke: red; fill: red; }
]]></style>
<script type="text/javascript"><![CDATA[
var edges = document.getElementsByTagName('g');
if (edges && edges.length) {
  for (var i=0;i<edges.length;i++) {
    if (edges[i].id.substr(0,4)=='edge') {
      edges[i].setAttribute('class','edge');
    }
  }
}
]]></script>
        <defs>
                <circle id="rim" cx="0" cy="0" r="7"/>
                <circle id="rim2" cx="0" cy="0" r="3.5"/>
                <g id="zoomPlus">
                        <use xlink:href="#rim" fill="#404040">
                                <set attributeName="fill" to="#808080" begin="zoomplus.mouseover" end="zoomplus.mouseout"/>
                        </use>
                        <path d="M-4,0h8M0,-4v8" fill="none" stroke="white" stroke-width="1.5" pointer-events="none"/>
                </g>
                <g id="zoomMin">
                        <use xlink:href="#rim" fill="#404040">
                                <set attributeName="fill" to="#808080" begin="zoomminus.mouseover" end="zoomminus.mouseout"/>
                        </use>
                        <path d="M-4,0h8" fill="none" stroke="white" stroke-width="1.5" pointer-events="none"/>
                </g>
                <g id="dirArrow">
                        <path fill="none" stroke="white" stroke-width="1.5" d="M0,-3.0v7 M-2.5,-0.5L0,-3.0L2.5,-0.5"/>
                </g>
               <g id="resetDef">
                       <use xlink:href="#rim2" fill="#404040">
                               <set attributeName="fill" to="#808080" begin="reset.mouseover" end="reset.mouseout"/>
                       </use>
               </g>
        </defs>

<script type="text/javascript">
var viewWidth = 579;
var viewHeight = 39;
var sectionId = 'dynsection-35';
</script>
<script xlink:href="svgpan.js"/>
<svg id="graph" class="graph">
<g id="viewport">
<title>chig::validateFunctionNodeInputs</title>
<polygon fill="#ffffff" stroke="transparent" points="-4,4 -4,-35 575,-35 575,4 -4,4"/>
<!-- Node516 -->
<g id="node1" class="node">
<title>Node516</title>
<polygon fill="#bfbfbf" stroke="#000000" points="0,-.5 0,-30.5 135,-30.5 135,-.5 0,-.5"/>
<text text-anchor="start" x="8" y="-18.5" font-family="Helvetica,sans-Serif" font-size="10.00" fill="#000000">chig::validateFunctionNode</text>
<text text-anchor="middle" x="67.5" y="-7.5" font-family="Helvetica,sans-Serif" font-size="10.00" fill="#000000">Inputs</text>
</g>
<!-- Node517 -->
<g id="node2" class="node">
<title>Node517</title>
<g id="a_node2"><a xlink:href="namespacechig.html#afccf44a2370371aae836862d9731155e" target="_top" xlink:title="Validate that a function is compilable. ">
<polygon fill="#ffffff" stroke="#000000" points="171,-6 171,-25 283,-25 283,-6 171,-6"/>
<text text-anchor="middle" x="227" y="-13" font-family="Helvetica,sans-Serif" font-size="10.00" fill="#000000">chig::validateFunction</text>
</a>
</g>
</g>
<!-- Node516&#45;&gt;Node517 -->
<g id="edge1" class="edge">
<title>Node516&#45;&gt;Node517</title>
<path fill="none" stroke="#191970" d="M145.2348,-15.5C153.865,-15.5 162.5267,-15.5 170.8153,-15.5"/>
<polygon fill="#191970" stroke="#191970" points="145.1424,-12.0001 135.1424,-15.5 145.1423,-19.0001 145.1424,-12.0001"/>
</g>
<!-- Node518 -->
<g id="node3" class="node">
<title>Node518</title>
<g id="a_node3"><a xlink:href="namespacechig.html#a4f26546c4bc76c31cc822d0365be0f30" target="_top" xlink:title="Compile the graph to an llvm::Function (usually called from JsonModule::generateModule) ...">
<polygon fill="#ffffff" stroke="#000000" points="319,-6 319,-25 431,-25 431,-6 319,-6"/>
<text text-anchor="middle" x="375" y="-13" font-family="Helvetica,sans-Serif" font-size="10.00" fill="#000000">chig::compileFunction</text>
</a>
</g>
</g>
<!-- Node517&#45;&gt;Node518 -->
<g id="edge2" class="edge">
<title>Node517&#45;&gt;Node518</title>
<path fill="none" stroke="#191970" d="M293.5579,-15.5C301.9836,-15.5 310.5393,-15.5 318.7821,-15.5"/>
<polygon fill="#191970" stroke="#191970" points="293.3747,-12.0001 283.3747,-15.5 293.3746,-19.0001 293.3747,-12.0001"/>
</g>
<!-- Node519 -->
<g id="node4" class="node">
<title>Node519</title>
<g id="a_node4"><a xlink:href="structchig_1_1GraphModule.html#a4c3a1ba833c0bd7e9a3daf0fd42eb6c6" target="_top" xlink:title="Generate a llvm::Module from the module. ">
<polygon fill="#ffffff" stroke="#000000" points="467,-.5 467,-30.5 571,-30.5 571,-.5 467,-.5"/>
<text text-anchor="start" x="475" y="-18.5" font-family="Helvetica,sans-Serif" font-size="10.00" fill="#000000">chig::GraphModule::</text>
<text text-anchor="middle" x="519" y="-7.5" font-family="Helvetica,sans-Serif" font-size="10.00" fill="#000000">generateModule</text>
</a>
</g>
</g>
<!-- Node518&#45;&gt;Node519 -->
<g id="edge3" class="edge">
<title>Node518&#45;&gt;Node519</title>
<path fill="none" stroke="#191970" d="M441.3376,-15.5C449.8106,-15.5 458.3888,-15.5 466.599,-15.5"/>
<polygon fill="#191970" stroke="#191970" points="441.0865,-12.0001 431.0865,-15.5 441.0865,-19.0001 441.0865,-12.0001"/>
</g>
</g>
</svg>
        <g id="navigator" transform="translate(0 0)" fill="#404254">
                <rect fill="#f2f5e9" fill-opacity="0.5" stroke="#606060" stroke-width=".5" x="0" y="0" width="60" height="60"/>
                <use id="zoomplus" xlink:href="#zoomPlus" x="17" y="9" onmousedown="handleZoom(evt,'in')"/>
                <use id="zoomminus" xlink:href="#zoomMin" x="42" y="9" onmousedown="handleZoom(evt,'out')"/>
                <use id="reset" xlink:href="#resetDef" x="30" y="36" onmousedown="handleReset()"/>
                <g id="arrowUp" xlink:href="#dirArrow" transform="translate(30 24)" onmousedown="handlePan(0,-1)">
                  <use xlink:href="#rim" fill="#404040">
                        <set attributeName="fill" to="#808080" begin="arrowUp.mouseover" end="arrowUp.mouseout"/>
                  </use>
                  <path fill="none" stroke="white" stroke-width="1.5" d="M0,-3.0v7 M-2.5,-0.5L0,-3.0L2.5,-0.5"/>
                </g>
                <g id="arrowRight" xlink:href="#dirArrow" transform="rotate(90) translate(36 -43)" onmousedown="handlePan(1,0)">
                  <use xlink:href="#rim" fill="#404040">
                        <set attributeName="fill" to="#808080" begin="arrowRight.mouseover" end="arrowRight.mouseout"/>
                  </use>
                  <path fill="none" stroke="white" stroke-width="1.5" d="M0,-3.0v7 M-2.5,-0.5L0,-3.0L2.5,-0.5"/>
                </g>
                <g id="arrowDown" xlink:href="#dirArrow" transform="rotate(180) translate(-30 -48)" onmousedown="handlePan(0,1)">
                  <use xlink:href="#rim" fill="#404040">
                        <set attributeName="fill" to="#808080" begin="arrowDown.mouseover" end="arrowDown.mouseout"/>
                  </use>
                  <path fill="none" stroke="white" stroke-width="1.5" d="M0,-3.0v7 M-2.5,-0.5L0,-3.0L2.5,-0.5"/>
                </g>
                <g id="arrowLeft" xlink:href="#dirArrow" transform="rotate(270) translate(-36 17)" onmousedown="handlePan(-1,0)">
                  <use xlink:href="#rim" fill="#404040">
                        <set attributeName="fill" to="#808080" begin="arrowLeft.mouseover" end="arrowLeft.mouseout"/>
                  </use>
                  <path fill="none" stroke="white" stroke-width="1.5" d="M0,-3.0v7 M-2.5,-0.5L0,-3.0L2.5,-0.5"/>
                </g>
        </g>
        <svg viewBox="0 0 15 15" width="100%" height="30px" preserveAspectRatio="xMaxYMin meet">
         <g id="arrow_out" transform="scale(0.3 0.3)">
          <a xlink:href="namespacechig_ad868894793d664b6ae994f24fc781b4b_icgraph_org.svg" target="_base">
           <rect id="button" ry="5" rx="5" y="6" x="6" height="38" width="38"
                fill="#f2f5e9" fill-opacity="0.5" stroke="#606060" stroke-width="1.0"/>
           <path id="arrow"
             d="M 11.500037,31.436501 C 11.940474,20.09759 22.043105,11.32322 32.158766,21.979434 L 37.068811,17.246167 C 37.068811,17.246167 37.088388,32 37.088388,32 L 22.160133,31.978069 C 22.160133,31.978069 26.997745,27.140456 26.997745,27.140456 C 18.528582,18.264221 13.291696,25.230495 11.500037,31.436501 z"
             style="fill:#404040;"/>
          </a>
         </g>
        </svg>
</svg>
