<?xml version="1.0" encoding="UTF-8" standalone="no"?>
<!DOCTYPE svg PUBLIC "-//W3C//DTD SVG 1.1//EN"
 "http://www.w3.org/Graphics/SVG/1.1/DTD/svg11.dtd">
<!-- Generated by graphviz version 2.40.1 (20161225.0304)
 -->
<!-- Title: chig::connectExec Pages: 1 -->
<!--zoomable 156 -->
<svg id="main" version="1.1" xmlns="http://www.w3.org/2000/svg" xmlns:xlink="http://www.w3.org/1999/xlink" xml:space="preserve" onload="init(evt)">
<style type="text/css"><![CDATA[
.edge:hover path { stroke: red; }
.edge:hover polygon { stroke: red; fill: red; }
]]></style>
<script type="text/javascript"><![CDATA[
var edges = document.getElementsByTagName('g');
if (edges && edges.length) {
  for (var i=0;i<edges.length;i++) {
    if (edges[i].id.substr(0,4)=='edge') {
      edges[i].setAttribute('class','edge');
    }
  }
}
]]></script>
        <defs>
                <circle id="rim" cx="0" cy="0" r="7"/>
                <circle id="rim2" cx="0" cy="0" r="3.5"/>
                <g id="zoomPlus">
                        <use xlink:href="#rim" fill="#404040">
                                <set attributeName="fill" to="#808080" begin="zoomplus.mouseover" end="zoomplus.mouseout"/>
                        </use>
                        <path d="M-4,0h8M0,-4v8" fill="none" stroke="white" stroke-width="1.5" pointer-events="none"/>
                </g>
                <g id="zoomMin">
                        <use xlink:href="#rim" fill="#404040">
                                <set attributeName="fill" to="#808080" begin="zoomminus.mouseover" end="zoomminus.mouseout"/>
                        </use>
                        <path d="M-4,0h8" fill="none" stroke="white" stroke-width="1.5" pointer-events="none"/>
                </g>
                <g id="dirArrow">
                        <path fill="none" stroke="white" stroke-width="1.5" d="M0,-3.0v7 M-2.5,-0.5L0,-3.0L2.5,-0.5"/>
                </g>
               <g id="resetDef">
                       <use xlink:href="#rim2" fill="#404040">
                               <set attributeName="fill" to="#808080" begin="reset.mouseover" end="reset.mouseout"/>
                       </use>
               </g>
        </defs>

<script type="text/javascript">
var viewWidth = 1025;
var viewHeight = 156;
var sectionId = 'dynsection-5';
</script>
<script xlink:href="svgpan.js"/>
<svg id="graph" class="graph">
<g id="viewport">
<title>chig::connectExec</title>
<polygon fill="#ffffff" stroke="transparent" points="-4,4 -4,-152 1021,-152 1021,4 -4,4"/>
<!-- Node87 -->
<g id="node1" class="node">
<title>Node87</title>
<polygon fill="#bfbfbf" stroke="#000000" points="0,-29 0,-48 98,-48 98,-29 0,-29"/>
<text text-anchor="middle" x="49" y="-36" font-family="Helvetica,sans-Serif" font-size="10.00" fill="#000000">chig::connectExec</text>
</g>
<!-- Node88 -->
<g id="node2" class="node">
<title>Node88</title>
<g id="a_node2"><a xlink:href="structchig_1_1NodeInstance.html#ac06ee5988ee5f130088fee83a550f4d2" target="_top" xlink:title="Get the containing GraphFunction. ">
<polygon fill="#ffffff" stroke="#000000" points="134,-23.5 134,-53.5 235,-53.5 235,-23.5 134,-23.5"/>
<text text-anchor="start" x="142" y="-41.5" font-family="Helvetica,sans-Serif" font-size="10.00" fill="#000000">chig::NodeInstance</text>
<text text-anchor="middle" x="184.5" y="-30.5" font-family="Helvetica,sans-Serif" font-size="10.00" fill="#000000">::function</text>
</a>
</g>
</g>
<!-- Node87&#45;&gt;Node88 -->
<g id="edge1" class="edge">
<title>Node87&#45;&gt;Node88</title>
<path fill="none" stroke="#191970" d="M108.4331,-31.7954C116.8384,-31.7032 125.4172,-31.7514 133.6412,-31.94"/>
<polygon fill="#191970" stroke="#191970" points="108.2374,-28.2983 98.3019,-31.9775 108.3632,-35.2971 108.2374,-28.2983"/>
</g>
<!-- Node90 -->
<g id="node4" class="node">
<title>Node90</title>
<g id="a_node4"><a xlink:href="namespacechig.html#a62056798e67720d435705b99f7e16cd0" target="_top" xlink:title="Load a GraphFunction–must already exist (use createGraphFunctionDeclarationFromJson) ...">
<polygon fill="#ffffff" stroke="#000000" points="555,-6 555,-25 689,-25 689,-6 555,-6"/>
<text text-anchor="middle" x="622" y="-13" font-family="Helvetica,sans-Serif" font-size="10.00" fill="#000000">chig::jsonToGraphFunction</text>
</a>
</g>
</g>
<!-- Node87&#45;&gt;Node90 -->
<g id="edge14" class="edge">
<title>Node87&#45;&gt;Node90</title>
<path fill="none" stroke="#191970" d="M84.5296,-25.5846C99.5729,-20.7656 117.4239,-15.8871 134,-13.5 283.0573,7.9656 460.3889,-1.3417 554.8702,-9.037"/>
<polygon fill="#191970" stroke="#191970" points="82.9996,-22.4048 74.6137,-28.88 85.2072,-29.0476 82.9996,-22.4048"/>
</g>
<!-- Node88&#45;&gt;Node87 -->
<g id="edge7" class="edge">
<title>Node88&#45;&gt;Node87</title>
<path fill="none" stroke="#191970" d="M123.4693,-45.2204C115.0441,-45.2948 106.479,-45.2289 98.3019,-45.0225"/>
<polygon fill="#191970" stroke="#191970" points="123.6977,-48.7173 133.6412,-45.06 123.5872,-41.7182 123.6977,-48.7173"/>
</g>
<!-- Node89 -->
<g id="node3" class="node">
<title>Node89</title>
<g id="a_node3"><a xlink:href="namespacechig.html#ad3c2fc880f6843f9a8a0f5ee0d62249d" target="_top" xlink:title="Connects two nodes&#39; data connections. ">
<polygon fill="#ffffff" stroke="#000000" points="419.5,-29 419.5,-48 514.5,-48 514.5,-29 419.5,-29"/>
<text text-anchor="middle" x="467" y="-36" font-family="Helvetica,sans-Serif" font-size="10.00" fill="#000000">chig::connectData</text>
</a>
</g>
</g>
<!-- Node88&#45;&gt;Node89 -->
<g id="edge2" class="edge">
<title>Node88&#45;&gt;Node89</title>
<path fill="none" stroke="#191970" d="M245.1174,-32.8423C297.216,-31.2491 371.32,-31.3988 419.285,-33.2912"/>
<polygon fill="#191970" stroke="#191970" points="244.8813,-29.3481 235.0053,-33.1841 245.1179,-36.3442 244.8813,-29.3481"/>
</g>
<!-- Node93 -->
<g id="node7" class="node">
<title>Node93</title>
<g id="a_node7"><a xlink:href="namespacechig.html#a26aa6586df79345493de9fc130291c18" target="_top" xlink:title="Disconnect a data connection. ">
<polygon fill="#ffffff" stroke="#000000" points="271,-76 271,-95 379,-95 379,-76 271,-76"/>
<text text-anchor="middle" x="325" y="-83" font-family="Helvetica,sans-Serif" font-size="10.00" fill="#000000">chig::disconnectData</text>
</a>
</g>
</g>
<!-- Node88&#45;&gt;Node93 -->
<g id="edge8" class="edge">
<title>Node88&#45;&gt;Node93</title>
<path fill="none" stroke="#191970" d="M244.9059,-52.0162C268.6109,-59.6589 293.8415,-68.855 309.5116,-75.8959"/>
<polygon fill="#191970" stroke="#191970" points="245.8136,-48.6325 235.2237,-48.9554 243.7036,-55.3069 245.8136,-48.6325"/>
</g>
<!-- Node89&#45;&gt;Node88 -->
<g id="edge3" class="edge">
<title>Node89&#45;&gt;Node88</title>
<path fill="none" stroke="#191970" d="M409.0372,-44.0744C357.8126,-45.7238 283.854,-45.6376 235.0053,-43.8159"/>
<polygon fill="#191970" stroke="#191970" points="409.4161,-47.5632 419.285,-43.7088 409.1665,-40.5677 409.4161,-47.5632"/>
</g>
<!-- Node89&#45;&gt;Node90 -->
<g id="edge4" class="edge">
<title>Node89&#45;&gt;Node90</title>
<path fill="none" stroke="#191970" d="M524.8822,-29.911C535.6324,-28.3158 546.9218,-26.6406 557.8463,-25.0196"/>
<polygon fill="#191970" stroke="#191970" points="524.1478,-26.4816 514.7699,-31.4116 525.1753,-33.4058 524.1478,-26.4816"/>
</g>
<!-- Node91 -->
<g id="node5" class="node">
<title>Node91</title>
<g id="a_node5"><a xlink:href="namespacechig.html#a1f28de74faa271cf31249935c9640c58" target="_top" xlink:title="Load a GraphModule from json. ">
<polygon fill="#ffffff" stroke="#000000" points="725,-6 725,-25 853,-25 853,-6 725,-6"/>
<text text-anchor="middle" x="789" y="-13" font-family="Helvetica,sans-Serif" font-size="10.00" fill="#000000">chig::jsonToGraphModule</text>
</a>
</g>
</g>
<!-- Node90&#45;&gt;Node91 -->
<g id="edge5" class="edge">
<title>Node90&#45;&gt;Node91</title>
<path fill="none" stroke="#191970" d="M699.6566,-15.5C708.0806,-15.5 716.5843,-15.5 724.8225,-15.5"/>
<polygon fill="#191970" stroke="#191970" points="699.444,-12.0001 689.4439,-15.5 699.4439,-19.0001 699.444,-12.0001"/>
</g>
<!-- Node92 -->
<g id="node6" class="node">
<title>Node92</title>
<g id="a_node6"><a xlink:href="structchig_1_1Context.html#a0d9ec5f2803a5777d2e389256ccb3e3b" target="_top" xlink:title="Load a module from JSON – avoid this use the string overload. ">
<polygon fill="#ffffff" stroke="#000000" points="889,-.5 889,-30.5 1017,-30.5 1017,-.5 889,-.5"/>
<text text-anchor="start" x="897" y="-18.5" font-family="Helvetica,sans-Serif" font-size="10.00" fill="#000000">chig::Context::addModule</text>
<text text-anchor="middle" x="953" y="-7.5" font-family="Helvetica,sans-Serif" font-size="10.00" fill="#000000">FromJson</text>
</a>
</g>
</g>
<!-- Node91&#45;&gt;Node92 -->
<g id="edge6" class="edge">
<title>Node91&#45;&gt;Node92</title>
<path fill="none" stroke="#191970" d="M863.5641,-15.5C872.0037,-15.5 880.5492,-15.5 888.8391,-15.5"/>
<polygon fill="#191970" stroke="#191970" points="863.3465,-12.0001 853.3464,-15.5 863.3464,-19.0001 863.3465,-12.0001"/>
</g>
<!-- Node93&#45;&gt;Node88 -->
<g id="edge9" class="edge">
<title>Node93&#45;&gt;Node88</title>
<path fill="none" stroke="#191970" d="M267.5467,-72.9302C248.7261,-66.9331 228.6372,-59.846 212.9323,-53.5598"/>
<polygon fill="#191970" stroke="#191970" points="266.6545,-76.3182 277.2432,-75.957 268.7404,-69.6362 266.6545,-76.3182"/>
</g>
<!-- Node93&#45;&gt;Node89 -->
<g id="edge13" class="edge">
<title>Node93&#45;&gt;Node89</title>
<path fill="none" stroke="#191970" d="M363.3666,-72.8012C386.7996,-65.0452 416.2939,-55.283 437.8195,-48.1583"/>
<polygon fill="#191970" stroke="#191970" points="362.1295,-69.5238 353.7358,-75.9888 364.3291,-76.1693 362.1295,-69.5238"/>
</g>
<!-- Node94 -->
<g id="node8" class="node">
<title>Node94</title>
<g id="a_node8"><a xlink:href="structchig_1_1GraphFunction.html#a398599d8fe1982a3c76462b1b2375a6e" target="_top" xlink:title="Remove a node from the function. ">
<polygon fill="#ffffff" stroke="#000000" points="415,-117.5 415,-147.5 519,-147.5 519,-117.5 415,-117.5"/>
<text text-anchor="start" x="423" y="-135.5" font-family="Helvetica,sans-Serif" font-size="10.00" fill="#000000">chig::GraphFunction</text>
<text text-anchor="middle" x="467" y="-124.5" font-family="Helvetica,sans-Serif" font-size="10.00" fill="#000000">::removeNode</text>
</a>
</g>
</g>
<!-- Node93&#45;&gt;Node94 -->
<g id="edge10" class="edge">
<title>Node93&#45;&gt;Node94</title>
<path fill="none" stroke="#191970" d="M363.3001,-98.1768C381.2485,-104.1175 402.7641,-111.2388 421.5333,-117.4512"/>
<polygon fill="#191970" stroke="#191970" points="364.3291,-94.8307 353.7358,-95.0112 362.1295,-101.4762 364.3291,-94.8307"/>
</g>
<!-- Node96 -->
<g id="node10" class="node">
<title>Node96</title>
<g id="a_node10"><a xlink:href="structchig_1_1NodeInstance.html#ab7b23fb84fff7176f7a6e62ce3762153" target="_top" xlink:title="Set the type of the node instance. ">
<polygon fill="#ffffff" stroke="#000000" points="416.5,-68.5 416.5,-98.5 517.5,-98.5 517.5,-68.5 416.5,-68.5"/>
<text text-anchor="start" x="424.5" y="-86.5" font-family="Helvetica,sans-Serif" font-size="10.00" fill="#000000">chig::NodeInstance</text>
<text text-anchor="middle" x="467" y="-75.5" font-family="Helvetica,sans-Serif" font-size="10.00" fill="#000000">::setType</text>
</a>
</g>
</g>
<!-- Node93&#45;&gt;Node96 -->
<g id="edge12" class="edge">
<title>Node93&#45;&gt;Node96</title>
<path fill="none" stroke="#191970" d="M389.2463,-84.5951C398.327,-84.4672 407.5563,-84.3372 416.333,-84.2136"/>
<polygon fill="#191970" stroke="#191970" points="389.0389,-81.0976 379.0892,-84.7382 389.1375,-88.0969 389.0389,-81.0976"/>
</g>
<!-- Node95 -->
<g id="node9" class="node">
<title>Node95</title>
<g id="a_node9"><a xlink:href="structchig_1_1GraphFunction.html#a79cbfaf26d9a966ae8048c81dc09777e" target="_top" xlink:title="chig::GraphFunction\l::nodes">
<polygon fill="#ffffff" stroke="#000000" points="570,-117.5 570,-147.5 674,-147.5 674,-117.5 570,-117.5"/>
<text text-anchor="start" x="578" y="-135.5" font-family="Helvetica,sans-Serif" font-size="10.00" fill="#000000">chig::GraphFunction</text>
<text text-anchor="middle" x="622" y="-124.5" font-family="Helvetica,sans-Serif" font-size="10.00" fill="#000000">::nodes</text>
</a>
</g>
</g>
<!-- Node94&#45;&gt;Node95 -->
<g id="edge11" class="edge">
<title>Node94&#45;&gt;Node95</title>
<path fill="none" stroke="#191970" d="M529.1945,-132.5C542.6694,-132.5 556.7871,-132.5 569.8296,-132.5"/>
<polygon fill="#191970" stroke="#191970" points="529.044,-129.0001 519.0439,-132.5 529.0439,-136.0001 529.044,-129.0001"/>
</g>
</g>
</svg>
        <g id="navigator" transform="translate(0 0)" fill="#404254">
                <rect fill="#f2f5e9" fill-opacity="0.5" stroke="#606060" stroke-width=".5" x="0" y="0" width="60" height="60"/>
                <use id="zoomplus" xlink:href="#zoomPlus" x="17" y="9" onmousedown="handleZoom(evt,'in')"/>
                <use id="zoomminus" xlink:href="#zoomMin" x="42" y="9" onmousedown="handleZoom(evt,'out')"/>
                <use id="reset" xlink:href="#resetDef" x="30" y="36" onmousedown="handleReset()"/>
                <g id="arrowUp" xlink:href="#dirArrow" transform="translate(30 24)" onmousedown="handlePan(0,-1)">
                  <use xlink:href="#rim" fill="#404040">
                        <set attributeName="fill" to="#808080" begin="arrowUp.mouseover" end="arrowUp.mouseout"/>
                  </use>
                  <path fill="none" stroke="white" stroke-width="1.5" d="M0,-3.0v7 M-2.5,-0.5L0,-3.0L2.5,-0.5"/>
                </g>
                <g id="arrowRight" xlink:href="#dirArrow" transform="rotate(90) translate(36 -43)" onmousedown="handlePan(1,0)">
                  <use xlink:href="#rim" fill="#404040">
                        <set attributeName="fill" to="#808080" begin="arrowRight.mouseover" end="arrowRight.mouseout"/>
                  </use>
                  <path fill="none" stroke="white" stroke-width="1.5" d="M0,-3.0v7 M-2.5,-0.5L0,-3.0L2.5,-0.5"/>
                </g>
                <g id="arrowDown" xlink:href="#dirArrow" transform="rotate(180) translate(-30 -48)" onmousedown="handlePan(0,1)">
                  <use xlink:href="#rim" fill="#404040">
                        <set attributeName="fill" to="#808080" begin="arrowDown.mouseover" end="arrowDown.mouseout"/>
                  </use>
                  <path fill="none" stroke="white" stroke-width="1.5" d="M0,-3.0v7 M-2.5,-0.5L0,-3.0L2.5,-0.5"/>
                </g>
                <g id="arrowLeft" xlink:href="#dirArrow" transform="rotate(270) translate(-36 17)" onmousedown="handlePan(-1,0)">
                  <use xlink:href="#rim" fill="#404040">
                        <set attributeName="fill" to="#808080" begin="arrowLeft.mouseover" end="arrowLeft.mouseout"/>
                  </use>
                  <path fill="none" stroke="white" stroke-width="1.5" d="M0,-3.0v7 M-2.5,-0.5L0,-3.0L2.5,-0.5"/>
                </g>
        </g>
        <svg viewBox="0 0 15 15" width="100%" height="30px" preserveAspectRatio="xMaxYMin meet">
         <g id="arrow_out" transform="scale(0.3 0.3)">
          <a xlink:href="namespacechig_a8a2e0029b591b2c20b39d570753f123f_icgraph_org.svg" target="_base">
           <rect id="button" ry="5" rx="5" y="6" x="6" height="38" width="38"
                fill="#f2f5e9" fill-opacity="0.5" stroke="#606060" stroke-width="1.0"/>
           <path id="arrow"
             d="M 11.500037,31.436501 C 11.940474,20.09759 22.043105,11.32322 32.158766,21.979434 L 37.068811,17.246167 C 37.068811,17.246167 37.088388,32 37.088388,32 L 22.160133,31.978069 C 22.160133,31.978069 26.997745,27.140456 26.997745,27.140456 C 18.528582,18.264221 13.291696,25.230495 11.500037,31.436501 z"
             style="fill:#404040;"/>
          </a>
         </g>
        </svg>
</svg>
