<?xml version="1.0" encoding="UTF-8" standalone="no"?>
<!DOCTYPE svg PUBLIC "-//W3C//DTD SVG 1.1//EN"
 "http://www.w3.org/Graphics/SVG/1.1/DTD/svg11.dtd">
<!-- Generated by graphviz version 2.40.1 (20161225.0304)
 -->
<!-- Title: chi::validateFunctionNodeInputs Pages: 1 -->
<!--zoomable 583 -->
<svg id="main" version="1.1" xmlns="http://www.w3.org/2000/svg" xmlns:xlink="http://www.w3.org/1999/xlink" xml:space="preserve" onload="init(evt)">
<style type="text/css"><![CDATA[
.edge:hover path { stroke: red; }
.edge:hover polygon { stroke: red; fill: red; }
]]></style>
<script type="text/javascript"><![CDATA[
var edges = document.getElementsByTagName('g');
if (edges && edges.length) {
  for (var i=0;i<edges.length;i++) {
    if (edges[i].id.substr(0,4)=='edge') {
      edges[i].setAttribute('class','edge');
    }
  }
}
]]></script>
        <defs>
                <circle id="rim" cx="0" cy="0" r="7"/>
                <circle id="rim2" cx="0" cy="0" r="3.5"/>
                <g id="zoomPlus">
                        <use xlink:href="#rim" fill="#404040">
                                <set attributeName="fill" to="#808080" begin="zoomplus.mouseover" end="zoomplus.mouseout"/>
                        </use>
                        <path d="M-4,0h8M0,-4v8" fill="none" stroke="white" stroke-width="1.5" pointer-events="none"/>
                </g>
                <g id="zoomMin">
                        <use xlink:href="#rim" fill="#404040">
                                <set attributeName="fill" to="#808080" begin="zoomminus.mouseover" end="zoomminus.mouseout"/>
                        </use>
                        <path d="M-4,0h8" fill="none" stroke="white" stroke-width="1.5" pointer-events="none"/>
                </g>
                <g id="dirArrow">
                        <path fill="none" stroke="white" stroke-width="1.5" d="M0,-3.0v7 M-2.5,-0.5L0,-3.0L2.5,-0.5"/>
                </g>
               <g id="resetDef">
                       <use xlink:href="#rim2" fill="#404040">
                               <set attributeName="fill" to="#808080" begin="reset.mouseover" end="reset.mouseout"/>
                       </use>
               </g>
        </defs>

<script type="text/javascript">
var viewWidth = 1049;
var viewHeight = 583;
var sectionId = 'dynsection-41';
</script>
<script xlink:href="svgpan.js"/>
<svg id="graph" class="graph">
<g id="viewport">
<title>chi::validateFunctionNodeInputs</title>
<polygon fill="#ffffff" stroke="transparent" points="-4,4 -4,-578.5 1045,-578.5 1045,4 -4,4"/>
<!-- Node698 -->
<g id="node1" class="node">
<title>Node698</title>
<polygon fill="#bfbfbf" stroke="#000000" points="0,-220.5 0,-250.5 129,-250.5 129,-220.5 0,-220.5"/>
<text text-anchor="start" x="8" y="-238.5" font-family="Helvetica,sans-Serif" font-size="10.00" fill="#000000">chi::validateFunctionNode</text>
<text text-anchor="middle" x="64.5" y="-227.5" font-family="Helvetica,sans-Serif" font-size="10.00" fill="#000000">Inputs</text>
</g>
<!-- Node699 -->
<g id="node2" class="node">
<title>Node699</title>
<g id="a_node2"><a xlink:href="structchi_1_1GraphFunction.html#ae47496f51bd5ba48bc0afd52f03ef722" target="_top" xlink:title="Gets the node with type lang:entry returns nullptr on failure Also returns nullptr if there are two e...">
<polygon fill="#ffffff" stroke="#000000" points="165,-220.5 165,-250.5 264,-250.5 264,-220.5 165,-220.5"/>
<text text-anchor="start" x="173" y="-238.5" font-family="Helvetica,sans-Serif" font-size="10.00" fill="#000000">chi::GraphFunction</text>
<text text-anchor="middle" x="214.5" y="-227.5" font-family="Helvetica,sans-Serif" font-size="10.00" fill="#000000">::entryNode</text>
</a>
</g>
</g>
<!-- Node698&#45;&gt;Node699 -->
<g id="edge1" class="edge">
<title>Node698&#45;&gt;Node699</title>
<path fill="none" stroke="#191970" d="M129.4198,-235.5C137.8634,-235.5 146.4806,-235.5 154.8328,-235.5"/>
<polygon fill="#191970" stroke="#191970" points="154.8598,-239.0001 164.8597,-235.5 154.8597,-232.0001 154.8598,-239.0001"/>
</g>
<!-- Node700 -->
<g id="node3" class="node">
<title>Node700</title>
<g id="a_node3"><a xlink:href="structchi_1_1GraphFunction.html#a56ba667341ecc6fce1e290cce6aedf53" target="_top" xlink:title="Gets the nodes with a given type. ">
<polygon fill="#ffffff" stroke="#000000" points="300,-338.5 300,-368.5 399,-368.5 399,-338.5 300,-338.5"/>
<text text-anchor="start" x="308" y="-356.5" font-family="Helvetica,sans-Serif" font-size="10.00" fill="#000000">chi::GraphFunction</text>
<text text-anchor="middle" x="349.5" y="-345.5" font-family="Helvetica,sans-Serif" font-size="10.00" fill="#000000">::nodesWithType</text>
</a>
</g>
</g>
<!-- Node699&#45;&gt;Node700 -->
<g id="edge2" class="edge">
<title>Node699&#45;&gt;Node700</title>
<path fill="none" stroke="#191970" d="M231.8725,-250.6849C255.3641,-271.2182 297.4129,-307.972 324.3551,-331.5215"/>
<polygon fill="#191970" stroke="#191970" points="322.3615,-334.4275 332.1942,-338.3734 326.9683,-329.1571 322.3615,-334.4275"/>
</g>
<!-- Node713 -->
<g id="node16" class="node">
<title>Node713</title>
<g id="a_node16"><a xlink:href="structchi_1_1GraphFunction.html#ab457f58fbb96c8089340b4ebd43cb633" target="_top" xlink:title="Get the function data inputs in the format {type, docstring}. ">
<polygon fill="#ffffff" stroke="#000000" points="300,-220.5 300,-250.5 399,-250.5 399,-220.5 300,-220.5"/>
<text text-anchor="start" x="308" y="-238.5" font-family="Helvetica,sans-Serif" font-size="10.00" fill="#000000">chi::GraphFunction</text>
<text text-anchor="middle" x="349.5" y="-227.5" font-family="Helvetica,sans-Serif" font-size="10.00" fill="#000000">::dataInputs</text>
</a>
</g>
</g>
<!-- Node699&#45;&gt;Node713 -->
<g id="edge19" class="edge">
<title>Node699&#45;&gt;Node713</title>
<path fill="none" stroke="#191970" d="M264.0024,-235.5C272.2413,-235.5 280.8662,-235.5 289.3351,-235.5"/>
<polygon fill="#191970" stroke="#191970" points="289.5517,-239.0001 299.5516,-235.5 289.5516,-232.0001 289.5517,-239.0001"/>
</g>
<!-- Node718 -->
<g id="node21" class="node">
<title>Node718</title>
<g id="a_node21"><a xlink:href="structchi_1_1GraphFunction.html#a64fa4eceaf024d3ebf628fe15e7ca9be" target="_top" xlink:title="Get the function exec inputs. ">
<polygon fill="#ffffff" stroke="#000000" points="300,-74.5 300,-104.5 399,-104.5 399,-74.5 300,-74.5"/>
<text text-anchor="start" x="308" y="-92.5" font-family="Helvetica,sans-Serif" font-size="10.00" fill="#000000">chi::GraphFunction</text>
<text text-anchor="middle" x="349.5" y="-81.5" font-family="Helvetica,sans-Serif" font-size="10.00" fill="#000000">::execInputs</text>
</a>
</g>
</g>
<!-- Node699&#45;&gt;Node718 -->
<g id="edge24" class="edge">
<title>Node699&#45;&gt;Node718</title>
<path fill="none" stroke="#191970" d="M228.4389,-220.4253C252.186,-194.7433 300.6174,-142.3656 328.4879,-112.2242"/>
<polygon fill="#191970" stroke="#191970" points="331.2154,-114.4298 335.4347,-104.7114 326.0758,-109.6775 331.2154,-114.4298"/>
</g>
<!-- Node701 -->
<g id="node4" class="node">
<title>Node701</title>
<g id="a_node4"><a xlink:href="structchi_1_1GraphFunction.html#a0564412e260698bdb3872d3d12dfc3bc" target="_top" xlink:title="Get the GraphModule that contains this GraphFunction. ">
<polygon fill="#ffffff" stroke="#000000" points="725.5,-382.5 725.5,-412.5 824.5,-412.5 824.5,-382.5 725.5,-382.5"/>
<text text-anchor="start" x="733.5" y="-400.5" font-family="Helvetica,sans-Serif" font-size="10.00" fill="#000000">chi::GraphFunction</text>
<text text-anchor="middle" x="775" y="-389.5" font-family="Helvetica,sans-Serif" font-size="10.00" fill="#000000">::module</text>
</a>
</g>
</g>
<!-- Node700&#45;&gt;Node701 -->
<g id="edge3" class="edge">
<title>Node700&#45;&gt;Node701</title>
<path fill="none" stroke="#191970" d="M399.0111,-354.147C462.0268,-355.5317 574.1021,-359.8762 669,-373.5 684.2444,-375.6885 700.5434,-378.9212 715.6747,-382.3098"/>
<polygon fill="#191970" stroke="#191970" points="714.897,-385.7222 725.4268,-384.5496 716.464,-378.8998 714.897,-385.7222"/>
</g>
<!-- Node702 -->
<g id="node5" class="node">
<title>Node702</title>
<g id="a_node5"><a xlink:href="structchi_1_1GraphFunction.html#a89069f6e08f71cfbafb245ea16c8d69f" target="_top" xlink:title="Get the name of the function. ">
<polygon fill="#ffffff" stroke="#000000" points="435,-382.5 435,-412.5 534,-412.5 534,-382.5 435,-382.5"/>
<text text-anchor="start" x="443" y="-400.5" font-family="Helvetica,sans-Serif" font-size="10.00" fill="#000000">chi::GraphFunction</text>
<text text-anchor="middle" x="484.5" y="-389.5" font-family="Helvetica,sans-Serif" font-size="10.00" fill="#000000">::name</text>
</a>
</g>
</g>
<!-- Node700&#45;&gt;Node702 -->
<g id="edge4" class="edge">
<title>Node700&#45;&gt;Node702</title>
<path fill="none" stroke="#191970" d="M395.5818,-368.5192C406.2158,-371.9852 417.6411,-375.7089 428.641,-379.2941"/>
<polygon fill="#191970" stroke="#191970" points="427.5752,-382.6279 438.1676,-382.3991 429.7444,-375.9725 427.5752,-382.6279"/>
</g>
<!-- Node703 -->
<g id="node6" class="node">
<title>Node703</title>
<g id="a_node6"><a xlink:href="structchi_1_1GraphFunction.html#ad739c826ed87035857193995c23cabe2" target="_top" xlink:title="Get the qualified name of the function Same as module().fullName() + &quot;:&quot; + name();. ">
<polygon fill="#ffffff" stroke="#000000" points="570,-382.5 570,-412.5 669,-412.5 669,-382.5 570,-382.5"/>
<text text-anchor="start" x="578" y="-400.5" font-family="Helvetica,sans-Serif" font-size="10.00" fill="#000000">chi::GraphFunction</text>
<text text-anchor="middle" x="619.5" y="-389.5" font-family="Helvetica,sans-Serif" font-size="10.00" fill="#000000">::qualifiedName</text>
</a>
</g>
</g>
<!-- Node702&#45;&gt;Node703 -->
<g id="edge5" class="edge">
<title>Node702&#45;&gt;Node703</title>
<path fill="none" stroke="#191970" d="M534.0024,-390.9679C542.2413,-390.764 550.8662,-390.7032 559.3351,-390.7856"/>
<polygon fill="#191970" stroke="#191970" points="559.4943,-394.2886 569.5516,-390.9571 559.6118,-387.2896 559.4943,-394.2886"/>
</g>
<!-- Node705 -->
<g id="node8" class="node">
<title>Node705</title>
<g id="a_node8"><a xlink:href="structchi_1_1GraphFunction.html#a27c87614be4357e97c1ececd2228f865" target="_top" xlink:title="Set the name of the function. ">
<polygon fill="#ffffff" stroke="#000000" points="570,-431.5 570,-461.5 669,-461.5 669,-431.5 570,-431.5"/>
<text text-anchor="start" x="578" y="-449.5" font-family="Helvetica,sans-Serif" font-size="10.00" fill="#000000">chi::GraphFunction</text>
<text text-anchor="middle" x="619.5" y="-438.5" font-family="Helvetica,sans-Serif" font-size="10.00" fill="#000000">::setName</text>
</a>
</g>
</g>
<!-- Node702&#45;&gt;Node705 -->
<g id="edge9" class="edge">
<title>Node702&#45;&gt;Node705</title>
<path fill="none" stroke="#191970" d="M534.0024,-408.9355C550.4226,-414.4889 568.3757,-421.1674 583.5727,-427.4143"/>
<polygon fill="#191970" stroke="#191970" points="582.5434,-430.7787 593.1175,-431.4408 585.2643,-424.3291 582.5434,-430.7787"/>
</g>
<!-- Node703&#45;&gt;Node701 -->
<g id="edge6" class="edge">
<title>Node703&#45;&gt;Node701</title>
<path fill="none" stroke="#191970" d="M669.1287,-397.5C683.7166,-397.5 699.831,-397.5 714.9942,-397.5"/>
<polygon fill="#191970" stroke="#191970" points="715.3095,-401.0001 725.3094,-397.5 715.3094,-394.0001 715.3095,-401.0001"/>
</g>
<!-- Node703&#45;&gt;Node702 -->
<g id="edge8" class="edge">
<title>Node703&#45;&gt;Node702</title>
<path fill="none" stroke="#191970" d="M569.5516,-404.0429C561.299,-404.2418 552.6702,-404.2974 544.2071,-404.2099"/>
<polygon fill="#191970" stroke="#191970" points="544.0619,-400.7069 534.0024,-404.0321 543.9399,-407.7058 544.0619,-400.7069"/>
</g>
<!-- Node704 -->
<g id="node7" class="node">
<title>Node704</title>
<g id="a_node7"><a xlink:href="structchi_1_1ChiModule.html#a92ab6d528ac41a91b6ac21ededfccc38" target="_top" xlink:title="Get the full name of the module. ">
<polygon fill="#ffffff" stroke="#000000" points="712.5,-344 712.5,-363 837.5,-363 837.5,-344 712.5,-344"/>
<text text-anchor="middle" x="775" y="-351" font-family="Helvetica,sans-Serif" font-size="10.00" fill="#000000">chi::ChiModule::fullName</text>
</a>
</g>
</g>
<!-- Node703&#45;&gt;Node704 -->
<g id="edge7" class="edge">
<title>Node703&#45;&gt;Node704</title>
<path fill="none" stroke="#191970" d="M669.1287,-383.4572C689.1107,-377.8031 711.9568,-371.3386 731.2992,-365.8655"/>
<polygon fill="#191970" stroke="#191970" points="732.3918,-369.1938 741.061,-363.1033 730.4858,-362.4583 732.3918,-369.1938"/>
</g>
<!-- Node705&#45;&gt;Node701 -->
<g id="edge13" class="edge">
<title>Node705&#45;&gt;Node701</title>
<path fill="none" stroke="#191970" d="M667.424,-431.3986C683.3131,-426.3917 701.1611,-420.7676 717.6839,-415.561"/>
<polygon fill="#191970" stroke="#191970" points="718.7485,-418.8953 727.2343,-412.5516 716.6447,-412.2189 718.7485,-418.8953"/>
</g>
<!-- Node705&#45;&gt;Node702 -->
<g id="edge18" class="edge">
<title>Node705&#45;&gt;Node702</title>
<path fill="none" stroke="#191970" d="M569.9893,-435.0617C553.5603,-429.5051 535.5974,-422.8225 520.3964,-416.5731"/>
<polygon fill="#191970" stroke="#191970" points="521.4239,-413.2078 510.8498,-412.545 518.7026,-419.6573 521.4239,-413.2078"/>
</g>
<!-- Node706 -->
<g id="node9" class="node">
<title>Node706</title>
<g id="a_node9"><a xlink:href="structchi_1_1GraphFunction.html#aca401237496ae311e43c7a43519e4720" target="_top" xlink:title="Get the context. ">
<polygon fill="#ffffff" stroke="#000000" points="725.5,-431.5 725.5,-461.5 824.5,-461.5 824.5,-431.5 725.5,-431.5"/>
<text text-anchor="start" x="733.5" y="-449.5" font-family="Helvetica,sans-Serif" font-size="10.00" fill="#000000">chi::GraphFunction</text>
<text text-anchor="middle" x="775" y="-438.5" font-family="Helvetica,sans-Serif" font-size="10.00" fill="#000000">::context</text>
</a>
</g>
</g>
<!-- Node705&#45;&gt;Node706 -->
<g id="edge10" class="edge">
<title>Node705&#45;&gt;Node706</title>
<path fill="none" stroke="#191970" d="M669.1287,-446.5C683.7166,-446.5 699.831,-446.5 714.9942,-446.5"/>
<polygon fill="#191970" stroke="#191970" points="715.3095,-450.0001 725.3094,-446.5 715.3094,-443.0001 715.3095,-450.0001"/>
</g>
<!-- Node707 -->
<g id="node10" class="node">
<title>Node707</title>
<g id="a_node10"><a xlink:href="structchi_1_1Context.html#a9ded1e6de886af9e1fb7d42188bba4b3" target="_top" xlink:title="Find all uses of a node type in all the loaded modules. ">
<polygon fill="#ffffff" stroke="#000000" points="708,-542.5 708,-572.5 842,-572.5 842,-542.5 708,-542.5"/>
<text text-anchor="start" x="716" y="-560.5" font-family="Helvetica,sans-Serif" font-size="10.00" fill="#000000">chi::Context::findInstances</text>
<text text-anchor="middle" x="775" y="-549.5" font-family="Helvetica,sans-Serif" font-size="10.00" fill="#000000">OfType</text>
</a>
</g>
</g>
<!-- Node705&#45;&gt;Node707 -->
<g id="edge11" class="edge">
<title>Node705&#45;&gt;Node707</title>
<path fill="none" stroke="#191970" d="M634.6954,-461.5507C651.1467,-477.3753 678.587,-502.4364 705,-520.5 713.9424,-526.6156 724.0132,-532.4725 733.6702,-537.6503"/>
<polygon fill="#191970" stroke="#191970" points="732.2674,-540.8663 742.7517,-542.3929 735.5078,-534.6614 732.2674,-540.8663"/>
</g>
<!-- Node709 -->
<g id="node12" class="node">
<title>Node709</title>
<g id="a_node12"><a xlink:href="structchi_1_1Context.html#a28706d36f049088c98cd726921512668" target="_top" xlink:title="Gets a NodeType from the JSON and name. ">
<polygon fill="#ffffff" stroke="#000000" points="705,-480.5 705,-510.5 845,-510.5 845,-480.5 705,-480.5"/>
<text text-anchor="start" x="713" y="-498.5" font-family="Helvetica,sans-Serif" font-size="10.00" fill="#000000">chi::Context::nodeTypeFrom</text>
<text text-anchor="middle" x="775" y="-487.5" font-family="Helvetica,sans-Serif" font-size="10.00" fill="#000000">Module</text>
</a>
</g>
</g>
<!-- Node705&#45;&gt;Node709 -->
<g id="edge14" class="edge">
<title>Node705&#45;&gt;Node709</title>
<path fill="none" stroke="#191970" d="M667.424,-461.6014C683.3131,-466.6083 701.1611,-472.2324 717.6839,-477.439"/>
<polygon fill="#191970" stroke="#191970" points="716.6447,-480.7811 727.2343,-480.4484 718.7485,-474.1047 716.6447,-480.7811"/>
</g>
<!-- Node708 -->
<g id="node11" class="node">
<title>Node708</title>
<g id="a_node11"><a xlink:href="namespacechi.html#a6f41c84de5ee1febedce5a5385f9c632" target="_top" xlink:title="Get the workspace directory from a child of the workspace directory Example: say you have a workspace...">
<polygon fill="#ffffff" stroke="#000000" points="888,-555 888,-574 1034,-574 1034,-555 888,-555"/>
<text text-anchor="middle" x="961" y="-562" font-family="Helvetica,sans-Serif" font-size="10.00" fill="#000000">chi::workspaceFromChildPath</text>
</a>
</g>
</g>
<!-- Node707&#45;&gt;Node708 -->
<g id="edge12" class="edge">
<title>Node707&#45;&gt;Node708</title>
<path fill="none" stroke="#191970" d="M842.1503,-560.0272C853.7754,-560.4647 865.986,-560.9242 877.973,-561.3753"/>
<polygon fill="#191970" stroke="#191970" points="877.8471,-564.873 887.9717,-561.7516 878.1104,-557.8779 877.8471,-564.873"/>
</g>
<!-- Node710 -->
<g id="node13" class="node">
<title>Node710</title>
<g id="a_node13"><a xlink:href="structchi_1_1Context.html#a8628a178e0a8a944065f2605d01a36d5" target="_top" xlink:title="Gets the module by the full name. ">
<polygon fill="#ffffff" stroke="#000000" points="881,-479 881,-498 1041,-498 1041,-479 881,-479"/>
<text text-anchor="middle" x="961" y="-486" font-family="Helvetica,sans-Serif" font-size="10.00" fill="#000000">chi::Context::moduleByFullName</text>
</a>
</g>
</g>
<!-- Node709&#45;&gt;Node710 -->
<g id="edge15" class="edge">
<title>Node709&#45;&gt;Node710</title>
<path fill="none" stroke="#191970" d="M845.0536,-492.8636C853.4174,-492.5488 862.0454,-492.2241 870.6432,-491.9005"/>
<polygon fill="#191970" stroke="#191970" points="870.8435,-495.3956 880.7048,-491.5219 870.5802,-488.4005 870.8435,-495.3956"/>
</g>
<!-- Node711 -->
<g id="node14" class="node">
<title>Node711</title>
<g id="a_node14"><a xlink:href="structchi_1_1Result.html#a59ef40f4a327cbdea263d6e4b5af2ad8" target="_top" xlink:title="Add a entry to the result, either a warning or an error. ">
<polygon fill="#ffffff" stroke="#000000" points="907,-441 907,-460 1015,-460 1015,-441 907,-441"/>
<text text-anchor="middle" x="961" y="-448" font-family="Helvetica,sans-Serif" font-size="10.00" fill="#000000">chi::Result::addEntry</text>
</a>
</g>
</g>
<!-- Node709&#45;&gt;Node711 -->
<g id="edge16" class="edge">
<title>Node709&#45;&gt;Node711</title>
<path fill="none" stroke="#191970" d="M836.0787,-480.4372C850.784,-476.8331 866.4488,-473.0125 881,-469.5 890.679,-467.1636 901.0225,-464.6899 910.9498,-462.3272"/>
<polygon fill="#191970" stroke="#191970" points="911.7786,-465.7278 920.6985,-460.0106 910.1602,-458.9174 911.7786,-465.7278"/>
</g>
<!-- Node712 -->
<g id="node15" class="node">
<title>Node712</title>
<g id="a_node15"><a xlink:href="structchi_1_1Context.html#ad1bbd4d5eb33a8ce34292eb6a192d10d" target="_top" xlink:title="Compile a module to a llvm::Module. ">
<polygon fill="#ffffff" stroke="#000000" points="891,-517 891,-536 1031,-536 1031,-517 891,-517"/>
<text text-anchor="middle" x="961" y="-524" font-family="Helvetica,sans-Serif" font-size="10.00" fill="#000000">chi::Context::compileModule</text>
</a>
</g>
</g>
<!-- Node709&#45;&gt;Node712 -->
<g id="edge17" class="edge">
<title>Node709&#45;&gt;Node712</title>
<path fill="none" stroke="#191970" d="M845.0536,-507.1756C860.9349,-509.8225 877.7685,-512.6281 893.5398,-515.2566"/>
<polygon fill="#191970" stroke="#191970" points="893.2903,-518.7633 903.7297,-516.9549 894.4412,-511.8585 893.2903,-518.7633"/>
</g>
<!-- Node714 -->
<g id="node17" class="node">
<title>Node714</title>
<g id="a_node17"><a xlink:href="structchi_1_1GraphFunction.html#ab2b04efa795ef12d628f13ff55e55043" target="_top" xlink:title="Add an input to the end of the argument list. ">
<polygon fill="#ffffff" stroke="#000000" points="435,-245.5 435,-275.5 534,-275.5 534,-245.5 435,-245.5"/>
<text text-anchor="start" x="443" y="-263.5" font-family="Helvetica,sans-Serif" font-size="10.00" fill="#000000">chi::GraphFunction</text>
<text text-anchor="middle" x="484.5" y="-252.5" font-family="Helvetica,sans-Serif" font-size="10.00" fill="#000000">::addDataInput</text>
</a>
</g>
</g>
<!-- Node713&#45;&gt;Node714 -->
<g id="edge20" class="edge">
<title>Node713&#45;&gt;Node714</title>
<path fill="none" stroke="#191970" d="M399.0024,-244.6671C407.3319,-246.2096 416.0558,-247.8251 424.6142,-249.41"/>
<polygon fill="#191970" stroke="#191970" points="424.0815,-252.8708 434.5516,-251.2503 425.3562,-245.9878 424.0815,-252.8708"/>
</g>
<!-- Node715 -->
<g id="node18" class="node">
<title>Node715</title>
<g id="a_node18"><a xlink:href="structchi_1_1GraphFunction.html#abac77d34a4bf04d7c409655b0b3e89d0" target="_top" xlink:title="Remove an input from the argument list Also removes invalid connections If idx is out of range...">
<polygon fill="#ffffff" stroke="#000000" points="435,-196.5 435,-226.5 534,-226.5 534,-196.5 435,-196.5"/>
<text text-anchor="start" x="443" y="-214.5" font-family="Helvetica,sans-Serif" font-size="10.00" fill="#000000">chi::GraphFunction</text>
<text text-anchor="middle" x="484.5" y="-203.5" font-family="Helvetica,sans-Serif" font-size="10.00" fill="#000000">::removeDataInput</text>
</a>
</g>
</g>
<!-- Node713&#45;&gt;Node715 -->
<g id="edge21" class="edge">
<title>Node713&#45;&gt;Node715</title>
<path fill="none" stroke="#191970" d="M399.0024,-226.6996C407.3319,-225.2188 416.0558,-223.6679 424.6142,-222.1464"/>
<polygon fill="#191970" stroke="#191970" points="425.3187,-225.5761 434.5516,-220.3797 424.0934,-218.6842 425.3187,-225.5761"/>
</g>
<!-- Node716 -->
<g id="node19" class="node">
<title>Node716</title>
<g id="a_node19"><a xlink:href="structchi_1_1GraphFunction.html#a4bb426c921d46bbd8cbf237d716bc1c5" target="_top" xlink:title="Rename a data input This also updates the entry node If idx is out of range, this function does nothi...">
<polygon fill="#ffffff" stroke="#000000" points="435,-147.5 435,-177.5 534,-177.5 534,-147.5 435,-147.5"/>
<text text-anchor="start" x="443" y="-165.5" font-family="Helvetica,sans-Serif" font-size="10.00" fill="#000000">chi::GraphFunction</text>
<text text-anchor="middle" x="484.5" y="-154.5" font-family="Helvetica,sans-Serif" font-size="10.00" fill="#000000">::renameDataInput</text>
</a>
</g>
</g>
<!-- Node713&#45;&gt;Node716 -->
<g id="edge22" class="edge">
<title>Node713&#45;&gt;Node716</title>
<path fill="none" stroke="#191970" d="M375.5305,-220.4954C392.387,-210.8762 414.8692,-198.2277 435,-187.5 438.2499,-185.7681 441.6337,-183.9957 445.0388,-182.2334"/>
<polygon fill="#191970" stroke="#191970" points="446.7224,-185.3036 454.025,-177.6274 443.5294,-179.0742 446.7224,-185.3036"/>
</g>
<!-- Node717 -->
<g id="node20" class="node">
<title>Node717</title>
<g id="a_node20"><a xlink:href="structchi_1_1GraphFunction.html#aa69ea8953b3c1b9da14a5364c747e49b" target="_top" xlink:title="Change the type of a data input This also updates the entry node and disconnects invalid connections...">
<polygon fill="#ffffff" stroke="#000000" points="435,-294.5 435,-324.5 534,-324.5 534,-294.5 435,-294.5"/>
<text text-anchor="start" x="443" y="-312.5" font-family="Helvetica,sans-Serif" font-size="10.00" fill="#000000">chi::GraphFunction</text>
<text text-anchor="middle" x="484.5" y="-301.5" font-family="Helvetica,sans-Serif" font-size="10.00" fill="#000000">::retypeDataInput</text>
</a>
</g>
</g>
<!-- Node713&#45;&gt;Node717 -->
<g id="edge23" class="edge">
<title>Node713&#45;&gt;Node717</title>
<path fill="none" stroke="#191970" d="M374.2766,-250.6764C391.1922,-260.867 414.2174,-274.4066 435,-285.5 437.7343,-286.9595 440.5709,-288.4347 443.4398,-289.8981"/>
<polygon fill="#191970" stroke="#191970" points="442.1188,-293.1509 452.6276,-294.4984 445.2528,-286.8916 442.1188,-293.1509"/>
</g>
<!-- Node719 -->
<g id="node22" class="node">
<title>Node719</title>
<g id="a_node22"><a xlink:href="structchi_1_1GraphFunction.html#aa19f446296aa429b583cad3c044d780c" target="_top" xlink:title="Add an exec input to the end of the argument list. ">
<polygon fill="#ffffff" stroke="#000000" points="435,-98.5 435,-128.5 534,-128.5 534,-98.5 435,-98.5"/>
<text text-anchor="start" x="443" y="-116.5" font-family="Helvetica,sans-Serif" font-size="10.00" fill="#000000">chi::GraphFunction</text>
<text text-anchor="middle" x="484.5" y="-105.5" font-family="Helvetica,sans-Serif" font-size="10.00" fill="#000000">::addExecInput</text>
</a>
</g>
</g>
<!-- Node718&#45;&gt;Node719 -->
<g id="edge25" class="edge">
<title>Node718&#45;&gt;Node719</title>
<path fill="none" stroke="#191970" d="M399.0024,-98.3004C407.3319,-99.7812 416.0558,-101.3321 424.6142,-102.8536"/>
<polygon fill="#191970" stroke="#191970" points="424.0934,-106.3158 434.5516,-104.6203 425.3187,-99.4239 424.0934,-106.3158"/>
</g>
<!-- Node720 -->
<g id="node23" class="node">
<title>Node720</title>
<g id="a_node23"><a xlink:href="structchi_1_1GraphFunction.html#a90ff1195a338ddbf8e8654b6efc9b0b7" target="_top" xlink:title="Remove an exec input from the argument list If idx is out of range, this function does nothing...">
<polygon fill="#ffffff" stroke="#000000" points="435,-49.5 435,-79.5 534,-79.5 534,-49.5 435,-49.5"/>
<text text-anchor="start" x="443" y="-67.5" font-family="Helvetica,sans-Serif" font-size="10.00" fill="#000000">chi::GraphFunction</text>
<text text-anchor="middle" x="484.5" y="-56.5" font-family="Helvetica,sans-Serif" font-size="10.00" fill="#000000">::removeExecInput</text>
</a>
</g>
</g>
<!-- Node718&#45;&gt;Node720 -->
<g id="edge26" class="edge">
<title>Node718&#45;&gt;Node720</title>
<path fill="none" stroke="#191970" d="M399.0024,-80.3329C407.3319,-78.7904 416.0558,-77.1749 424.6142,-75.59"/>
<polygon fill="#191970" stroke="#191970" points="425.3562,-79.0122 434.5516,-73.7497 424.0815,-72.1292 425.3562,-79.0122"/>
</g>
<!-- Node721 -->
<g id="node24" class="node">
<title>Node721</title>
<g id="a_node24"><a xlink:href="structchi_1_1GraphFunction.html#a26a88fe7adb30077c54732af11136685" target="_top" xlink:title="Change the name for an exec input If idx is out of range, this function does nothing. ">
<polygon fill="#ffffff" stroke="#000000" points="435,-.5 435,-30.5 534,-30.5 534,-.5 435,-.5"/>
<text text-anchor="start" x="443" y="-18.5" font-family="Helvetica,sans-Serif" font-size="10.00" fill="#000000">chi::GraphFunction</text>
<text text-anchor="middle" x="484.5" y="-7.5" font-family="Helvetica,sans-Serif" font-size="10.00" fill="#000000">::renameExecInput</text>
</a>
</g>
</g>
<!-- Node718&#45;&gt;Node721 -->
<g id="edge27" class="edge">
<title>Node718&#45;&gt;Node721</title>
<path fill="none" stroke="#191970" d="M374.2766,-74.3236C391.1922,-64.133 414.2174,-50.5934 435,-39.5 437.7343,-38.0405 440.5709,-36.5653 443.4398,-35.1019"/>
<polygon fill="#191970" stroke="#191970" points="445.2528,-38.1084 452.6276,-30.5016 442.1188,-31.8491 445.2528,-38.1084"/>
</g>
</g>
</svg>
        <g id="navigator" transform="translate(0 0)" fill="#404254">
                <rect fill="#f2f5e9" fill-opacity="0.5" stroke="#606060" stroke-width=".5" x="0" y="0" width="60" height="60"/>
                <use id="zoomplus" xlink:href="#zoomPlus" x="17" y="9" onmousedown="handleZoom(evt,'in')"/>
                <use id="zoomminus" xlink:href="#zoomMin" x="42" y="9" onmousedown="handleZoom(evt,'out')"/>
                <use id="reset" xlink:href="#resetDef" x="30" y="36" onmousedown="handleReset()"/>
                <g id="arrowUp" xlink:href="#dirArrow" transform="translate(30 24)" onmousedown="handlePan(0,-1)">
                  <use xlink:href="#rim" fill="#404040">
                        <set attributeName="fill" to="#808080" begin="arrowUp.mouseover" end="arrowUp.mouseout"/>
                  </use>
                  <path fill="none" stroke="white" stroke-width="1.5" d="M0,-3.0v7 M-2.5,-0.5L0,-3.0L2.5,-0.5"/>
                </g>
                <g id="arrowRight" xlink:href="#dirArrow" transform="rotate(90) translate(36 -43)" onmousedown="handlePan(1,0)">
                  <use xlink:href="#rim" fill="#404040">
                        <set attributeName="fill" to="#808080" begin="arrowRight.mouseover" end="arrowRight.mouseout"/>
                  </use>
                  <path fill="none" stroke="white" stroke-width="1.5" d="M0,-3.0v7 M-2.5,-0.5L0,-3.0L2.5,-0.5"/>
                </g>
                <g id="arrowDown" xlink:href="#dirArrow" transform="rotate(180) translate(-30 -48)" onmousedown="handlePan(0,1)">
                  <use xlink:href="#rim" fill="#404040">
                        <set attributeName="fill" to="#808080" begin="arrowDown.mouseover" end="arrowDown.mouseout"/>
                  </use>
                  <path fill="none" stroke="white" stroke-width="1.5" d="M0,-3.0v7 M-2.5,-0.5L0,-3.0L2.5,-0.5"/>
                </g>
                <g id="arrowLeft" xlink:href="#dirArrow" transform="rotate(270) translate(-36 17)" onmousedown="handlePan(-1,0)">
                  <use xlink:href="#rim" fill="#404040">
                        <set attributeName="fill" to="#808080" begin="arrowLeft.mouseover" end="arrowLeft.mouseout"/>
                  </use>
                  <path fill="none" stroke="white" stroke-width="1.5" d="M0,-3.0v7 M-2.5,-0.5L0,-3.0L2.5,-0.5"/>
                </g>
        </g>
        <svg viewBox="0 0 15 15" width="100%" height="30px" preserveAspectRatio="xMaxYMin meet">
         <g id="arrow_out" transform="scale(0.3 0.3)">
          <a xlink:href="namespacechi_a0d84079ff2eef897472e3096589e62d7_cgraph_org.svg" target="_base">
           <rect id="button" ry="5" rx="5" y="6" x="6" height="38" width="38"
                fill="#f2f5e9" fill-opacity="0.5" stroke="#606060" stroke-width="1.0"/>
           <path id="arrow"
             d="M 11.500037,31.436501 C 11.940474,20.09759 22.043105,11.32322 32.158766,21.979434 L 37.068811,17.246167 C 37.068811,17.246167 37.088388,32 37.088388,32 L 22.160133,31.978069 C 22.160133,31.978069 26.997745,27.140456 26.997745,27.140456 C 18.528582,18.264221 13.291696,25.230495 11.500037,31.436501 z"
             style="fill:#404040;"/>
          </a>
         </g>
        </svg>
</svg>
