<?xml version="1.0" encoding="UTF-8" standalone="no"?>
<!DOCTYPE svg PUBLIC "-//W3C//DTD SVG 1.1//EN"
 "http://www.w3.org/Graphics/SVG/1.1/DTD/svg11.dtd">
<!-- Generated by graphviz version 2.40.1 (20161225.0304)
 -->
<!-- Title: chi::jsonToGraphFunction Pages: 1 -->
<svg width="860pt" height="1020pt"
 viewBox="0.00 0.00 860.00 1019.50" xmlns="http://www.w3.org/2000/svg" xmlns:xlink="http://www.w3.org/1999/xlink">
<g id="graph0" class="graph" transform="scale(1 1) rotate(0) translate(4 1015.5)">
<title>chi::jsonToGraphFunction</title>
<polygon fill="#ffffff" stroke="transparent" points="-4,4 -4,-1015.5 856,-1015.5 856,4 -4,4"/>
<!-- Node344 -->
<g id="node1" class="node">
<title>Node344</title>
<polygon fill="#bfbfbf" stroke="#000000" points="0,-287 0,-306 128,-306 128,-287 0,-287"/>
<text text-anchor="middle" x="64" y="-294" font-family="Helvetica,sans-Serif" font-size="10.00" fill="#000000">chi::jsonToGraphFunction</text>
</g>
<!-- Node345 -->
<g id="node2" class="node">
<title>Node345</title>
<g id="a_node2"><a xlink:href="structchi_1_1Result.html#a59ef40f4a327cbdea263d6e4b5af2ad8" target="_top" xlink:title="Add a entry to the result, either a warning or an error. ">
<polygon fill="#ffffff" stroke="#000000" points="563.5,-454 563.5,-473 671.5,-473 671.5,-454 563.5,-454"/>
<text text-anchor="middle" x="617.5" y="-461" font-family="Helvetica,sans-Serif" font-size="10.00" fill="#000000">chi::Result::addEntry</text>
</a>
</g>
</g>
<!-- Node344&#45;&gt;Node345 -->
<g id="edge1" class="edge">
<title>Node344&#45;&gt;Node345</title>
<path fill="none" stroke="#191970" d="M71.3144,-306.1315C86.357,-325.1694 122.827,-367.5005 164,-387.5 292.0869,-449.7174 461.852,-462.1293 553.028,-463.936"/>
<polygon fill="#191970" stroke="#191970" points="553.1575,-467.4384 563.2126,-464.0998 553.2702,-460.4393 553.1575,-467.4384"/>
</g>
<!-- Node346 -->
<g id="node3" class="node">
<title>Node346</title>
<g id="a_node3"><a xlink:href="namespacechi.html#ab69b013712d615bf9901d7bf2b0b11fb" target="_top" xlink:title="Connects two nodes&#39; data connections. ">
<polygon fill="#ffffff" stroke="#000000" points="193,-844 193,-863 283,-863 283,-844 193,-844"/>
<text text-anchor="middle" x="238" y="-851" font-family="Helvetica,sans-Serif" font-size="10.00" fill="#000000">chi::connectData</text>
</a>
</g>
</g>
<!-- Node344&#45;&gt;Node346 -->
<g id="edge2" class="edge">
<title>Node344&#45;&gt;Node346</title>
<path fill="none" stroke="#191970" d="M67.0201,-306.1678C87.2943,-371.0684 203.6336,-743.488 231.8406,-833.7829"/>
<polygon fill="#191970" stroke="#191970" points="228.5741,-835.0646 234.8968,-843.5661 235.2557,-832.9773 228.5741,-835.0646"/>
</g>
<!-- Node360 -->
<g id="node17" class="node">
<title>Node360</title>
<g id="a_node17"><a xlink:href="namespacechi.html#a79423caa23a58e57b775c5137a03ee31" target="_top" xlink:title="Connects two nodes&#39; exec connections. ">
<polygon fill="#ffffff" stroke="#000000" points="192,-559 192,-578 284,-578 284,-559 192,-559"/>
<text text-anchor="middle" x="238" y="-566" font-family="Helvetica,sans-Serif" font-size="10.00" fill="#000000">chi::connectExec</text>
</a>
</g>
</g>
<!-- Node344&#45;&gt;Node360 -->
<g id="edge24" class="edge">
<title>Node344&#45;&gt;Node360</title>
<path fill="none" stroke="#191970" d="M70.1928,-306.1806C95.6683,-346.0045 192.6224,-497.5649 226.3509,-550.2899"/>
<polygon fill="#191970" stroke="#191970" points="223.5443,-552.3976 231.8815,-558.9354 229.441,-548.6254 223.5443,-552.3976"/>
</g>
<!-- Node364 -->
<g id="node21" class="node">
<title>Node364</title>
<g id="a_node21"><a xlink:href="structchi_1_1GraphFunction.html#aca401237496ae311e43c7a43519e4720" target="_top" xlink:title="Get the context. ">
<polygon fill="#ffffff" stroke="#000000" points="188.5,-171.5 188.5,-201.5 287.5,-201.5 287.5,-171.5 188.5,-171.5"/>
<text text-anchor="start" x="196.5" y="-189.5" font-family="Helvetica,sans-Serif" font-size="10.00" fill="#000000">chi::GraphFunction</text>
<text text-anchor="middle" x="238" y="-178.5" font-family="Helvetica,sans-Serif" font-size="10.00" fill="#000000">::context</text>
</a>
</g>
</g>
<!-- Node344&#45;&gt;Node364 -->
<g id="edge37" class="edge">
<title>Node344&#45;&gt;Node364</title>
<path fill="none" stroke="#191970" d="M72.7421,-286.99C89.1025,-269.7036 126.1279,-232.9407 164,-211.5 168.7203,-208.8277 173.7721,-206.3801 178.9366,-204.1523"/>
<polygon fill="#191970" stroke="#191970" points="180.3387,-207.3609 188.3072,-200.3785 177.7237,-200.8677 180.3387,-207.3609"/>
</g>
<!-- Node365 -->
<g id="node22" class="node">
<title>Node365</title>
<g id="a_node22"><a xlink:href="structchi_1_1GraphFunction.html#a9a3b003e74692f5d0aa474d28c0dd23d" target="_top" xlink:title="Create a new local varaible in the module. ">
<polygon fill="#ffffff" stroke="#000000" points="171,-112.5 171,-142.5 305,-142.5 305,-112.5 171,-112.5"/>
<text text-anchor="start" x="179" y="-130.5" font-family="Helvetica,sans-Serif" font-size="10.00" fill="#000000">chi::GraphFunction</text>
<text text-anchor="middle" x="238" y="-119.5" font-family="Helvetica,sans-Serif" font-size="10.00" fill="#000000">::getOrCreateLocalVariable</text>
</a>
</g>
</g>
<!-- Node344&#45;&gt;Node365 -->
<g id="edge38" class="edge">
<title>Node344&#45;&gt;Node365</title>
<path fill="none" stroke="#191970" d="M69.0288,-286.8012C81.8802,-262.8252 118.1691,-199.9988 164,-162.5 171.189,-156.618 179.5307,-151.458 187.9679,-147.0348"/>
<polygon fill="#191970" stroke="#191970" points="189.6907,-150.0877 197.1107,-142.5251 186.594,-143.8099 189.6907,-150.0877"/>
</g>
<!-- Node367 -->
<g id="node24" class="node">
<title>Node367</title>
<g id="a_node24"><a xlink:href="structchi_1_1GraphFunction.html#ac75470b92fcf30495c7daab64d999ed8" target="_top" xlink:title="Add a node to the graph. ">
<polygon fill="#ffffff" stroke="#000000" points="188.5,-347.5 188.5,-377.5 287.5,-377.5 287.5,-347.5 188.5,-347.5"/>
<text text-anchor="start" x="196.5" y="-365.5" font-family="Helvetica,sans-Serif" font-size="10.00" fill="#000000">chi::GraphFunction</text>
<text text-anchor="middle" x="238" y="-354.5" font-family="Helvetica,sans-Serif" font-size="10.00" fill="#000000">::insertNode</text>
</a>
</g>
</g>
<!-- Node344&#45;&gt;Node367 -->
<g id="edge40" class="edge">
<title>Node344&#45;&gt;Node367</title>
<path fill="none" stroke="#191970" d="M89.3011,-306.097C115.1829,-315.9142 156.074,-331.4246 188.4305,-343.6978"/>
<polygon fill="#191970" stroke="#191970" points="187.5808,-347.1188 198.1721,-347.3929 190.0634,-340.5738 187.5808,-347.1188"/>
</g>
<!-- Node368 -->
<g id="node25" class="node">
<title>Node368</title>
<g id="a_node25"><a xlink:href="structchi_1_1GraphFunction.html#aa5985d96d7564d7ee7f240fdb02b41a6" target="_top" xlink:title="Get the nodes in the function Usually called by connectData or connectExec or GraphFunction. ">
<polygon fill="#ffffff" stroke="#000000" points="378.5,-338.5 378.5,-368.5 477.5,-368.5 477.5,-338.5 378.5,-338.5"/>
<text text-anchor="start" x="386.5" y="-356.5" font-family="Helvetica,sans-Serif" font-size="10.00" fill="#000000">chi::GraphFunction</text>
<text text-anchor="middle" x="428" y="-345.5" font-family="Helvetica,sans-Serif" font-size="10.00" fill="#000000">::nodes</text>
</a>
</g>
</g>
<!-- Node344&#45;&gt;Node368 -->
<g id="edge43" class="edge">
<title>Node344&#45;&gt;Node368</title>
<path fill="none" stroke="#191970" d="M124.9254,-306.0405C192.5907,-316.6365 301.1193,-333.6313 368.2904,-344.1499"/>
<polygon fill="#191970" stroke="#191970" points="367.8758,-347.6275 378.2969,-345.7168 368.9588,-340.7118 367.8758,-347.6275"/>
</g>
<!-- Node369 -->
<g id="node26" class="node">
<title>Node369</title>
<g id="a_node26"><a xlink:href="structchi_1_1Context.html#a28706d36f049088c98cd726921512668" target="_top" xlink:title="Gets a NodeType from the JSON and name. ">
<polygon fill="#ffffff" stroke="#000000" points="168,-259.5 168,-289.5 308,-289.5 308,-259.5 168,-259.5"/>
<text text-anchor="start" x="176" y="-277.5" font-family="Helvetica,sans-Serif" font-size="10.00" fill="#000000">chi::Context::nodeTypeFrom</text>
<text text-anchor="middle" x="238" y="-266.5" font-family="Helvetica,sans-Serif" font-size="10.00" fill="#000000">Module</text>
</a>
</g>
</g>
<!-- Node344&#45;&gt;Node369 -->
<g id="edge44" class="edge">
<title>Node344&#45;&gt;Node369</title>
<path fill="none" stroke="#191970" d="M128.2968,-288.3705C137.8529,-287.1623 147.8019,-285.9044 157.6371,-284.6608"/>
<polygon fill="#191970" stroke="#191970" points="158.3421,-288.0996 167.8241,-283.3728 157.464,-281.1549 158.3421,-288.0996"/>
</g>
<!-- Node372 -->
<g id="node29" class="node">
<title>Node372</title>
<g id="a_node29"><a xlink:href="namespacechi.html#aa47212ba13fb1a1d26774dc208c15255" target="_top" xlink:title="Parse a colonated pair Example: lang:i32 would turn into {lang, i32}. ">
<polygon fill="#ffffff" stroke="#000000" points="187.5,-55 187.5,-74 288.5,-74 288.5,-55 187.5,-55"/>
<text text-anchor="middle" x="238" y="-62" font-family="Helvetica,sans-Serif" font-size="10.00" fill="#000000">chi::parseColonPair</text>
</a>
</g>
</g>
<!-- Node344&#45;&gt;Node372 -->
<g id="edge48" class="edge">
<title>Node344&#45;&gt;Node372</title>
<path fill="none" stroke="#191970" d="M66.7223,-286.8212C75.7452,-256.2698 107.3609,-160.5361 164,-103.5 174.5398,-92.8863 188.5775,-84.5 201.5923,-78.2668"/>
<polygon fill="#191970" stroke="#191970" points="203.144,-81.4066 210.8235,-74.1076 200.2684,-75.0245 203.144,-81.4066"/>
</g>
<!-- Node375 -->
<g id="node32" class="node">
<title>Node375</title>
<g id="a_node32"><a xlink:href="structchi_1_1Context.html#a9e0b185a1871ebfda5d7bd410bf085f2" target="_top" xlink:title="Gets a DataType from a module. ">
<polygon fill="#ffffff" stroke="#000000" points="164,-221 164,-240 312,-240 312,-221 164,-221"/>
<text text-anchor="middle" x="238" y="-228" font-family="Helvetica,sans-Serif" font-size="10.00" fill="#000000">chi::Context::typeFromModule</text>
</a>
</g>
</g>
<!-- Node344&#45;&gt;Node375 -->
<g id="edge51" class="edge">
<title>Node344&#45;&gt;Node375</title>
<path fill="none" stroke="#191970" d="M82.4081,-286.8989C102.1804,-276.8572 134.7134,-261.1093 164,-250.5 171.6502,-247.7287 179.8672,-245.1403 187.9438,-242.8056"/>
<polygon fill="#191970" stroke="#191970" points="188.9876,-246.1481 197.6784,-240.0882 187.1056,-239.4058 188.9876,-246.1481"/>
</g>
<!-- Node346&#45;&gt;Node345 -->
<g id="edge3" class="edge">
<title>Node346&#45;&gt;Node345</title>
<path fill="none" stroke="#191970" d="M240.6665,-843.832C250.0402,-811.469 284.3976,-705.5449 348,-644.5 404.7977,-589.9862 450.9692,-622.7698 508,-568.5 532.4885,-545.197 519.9077,-525.2124 544,-501.5 554.2795,-491.3825 567.8021,-483.3559 580.4424,-477.3364"/>
<polygon fill="#191970" stroke="#191970" points="582.1671,-480.3993 589.8683,-473.1231 579.3105,-474.0086 582.1671,-480.3993"/>
</g>
<!-- Node347 -->
<g id="node4" class="node">
<title>Node347</title>
<g id="a_node4"><a xlink:href="structchi_1_1NodeType.html#a7d2edfc21ff54a1ff8ad98fffb969268" target="_top" xlink:title="Get the data inputs for the node. ">
<polygon fill="#ffffff" stroke="#000000" points="552,-950 552,-969 683,-969 683,-950 552,-950"/>
<text text-anchor="middle" x="617.5" y="-957" font-family="Helvetica,sans-Serif" font-size="10.00" fill="#000000">chi::NodeType::dataInputs</text>
</a>
</g>
</g>
<!-- Node346&#45;&gt;Node347 -->
<g id="edge4" class="edge">
<title>Node346&#45;&gt;Node347</title>
<path fill="none" stroke="#191970" d="M252.2579,-863.0876C272.6007,-876.3036 311.5385,-899.9096 348,-912.5 411.3942,-934.3904 486.8516,-946.4317 541.7751,-952.829"/>
<polygon fill="#191970" stroke="#191970" points="541.4544,-956.3149 551.784,-953.9589 542.2398,-949.3591 541.4544,-956.3149"/>
</g>
<!-- Node348 -->
<g id="node5" class="node">
<title>Node348</title>
<g id="a_node5"><a xlink:href="structchi_1_1NodeType.html#aade37588d98e93b19a9a47e16c850684" target="_top" xlink:title="Get the data outputs for the node. ">
<polygon fill="#ffffff" stroke="#000000" points="548,-904 548,-923 687,-923 687,-904 548,-904"/>
<text text-anchor="middle" x="617.5" y="-911" font-family="Helvetica,sans-Serif" font-size="10.00" fill="#000000">chi::NodeType::dataOutputs</text>
</a>
</g>
</g>
<!-- Node346&#45;&gt;Node348 -->
<g id="edge5" class="edge">
<title>Node346&#45;&gt;Node348</title>
<path fill="none" stroke="#191970" d="M262.9319,-863.1354C284.9653,-871.2373 318.1471,-882.4399 348,-888.5 411.0539,-901.2998 483.7558,-907.5593 537.7464,-910.613"/>
<polygon fill="#191970" stroke="#191970" points="537.7702,-914.1193 547.9446,-911.1644 538.1482,-907.1296 537.7702,-914.1193"/>
</g>
<!-- Node349 -->
<g id="node6" class="node">
<title>Node349</title>
<g id="a_node6"><a xlink:href="namespacechi.html#a4694f9910cf90fd7c202fe117c4f257e" target="_top" xlink:title="Disconnect a data connection. ">
<polygon fill="#ffffff" stroke="#000000" points="376.5,-844 376.5,-863 479.5,-863 479.5,-844 376.5,-844"/>
<text text-anchor="middle" x="428" y="-851" font-family="Helvetica,sans-Serif" font-size="10.00" fill="#000000">chi::disconnectData</text>
</a>
</g>
</g>
<!-- Node346&#45;&gt;Node349 -->
<g id="edge6" class="edge">
<title>Node346&#45;&gt;Node349</title>
<path fill="none" stroke="#191970" d="M283.0273,-853.5C307.8404,-853.5 339.012,-853.5 366.0864,-853.5"/>
<polygon fill="#191970" stroke="#191970" points="366.2406,-857.0001 376.2405,-853.5 366.2405,-850.0001 366.2406,-857.0001"/>
</g>
<!-- Node350 -->
<g id="node7" class="node">
<title>Node350</title>
<g id="a_node7"><a xlink:href="structchi_1_1NodeInstance.html#a8f64930fd9578431a11cad0702b4100c" target="_top" xlink:title="Get the containing GraphFunction. ">
<polygon fill="#ffffff" stroke="#000000" points="567,-838.5 567,-868.5 668,-868.5 668,-838.5 567,-838.5"/>
<text text-anchor="start" x="575" y="-856.5" font-family="Helvetica,sans-Serif" font-size="10.00" fill="#000000">chi::NodeInstance::</text>
<text text-anchor="middle" x="617.5" y="-845.5" font-family="Helvetica,sans-Serif" font-size="10.00" fill="#000000">function</text>
</a>
</g>
</g>
<!-- Node346&#45;&gt;Node350 -->
<g id="edge20" class="edge">
<title>Node346&#45;&gt;Node350</title>
<path fill="none" stroke="#191970" d="M282.7307,-863.0121C302.6157,-866.7775 326.3737,-870.646 348,-872.5 418.8512,-878.574 437.1511,-878.6011 508,-872.5 523.848,-871.1353 540.8447,-868.6791 556.6067,-865.9759"/>
<polygon fill="#191970" stroke="#191970" points="557.5277,-869.3672 566.7618,-864.1729 556.3039,-862.475 557.5277,-869.3672"/>
</g>
<!-- Node351 -->
<g id="node8" class="node">
<title>Node351</title>
<g id="a_node8"><a xlink:href="structchi_1_1NodeType.html#a7031e3c04e9a0227b09f8f854ce8b7f9" target="_top" xlink:title="Get the qualified name of the node type, like module.name():name() ">
<polygon fill="#ffffff" stroke="#000000" points="544,-673 544,-692 691,-692 691,-673 544,-673"/>
<text text-anchor="middle" x="617.5" y="-680" font-family="Helvetica,sans-Serif" font-size="10.00" fill="#000000">chi::NodeType::qualifiedName</text>
</a>
</g>
</g>
<!-- Node346&#45;&gt;Node351 -->
<g id="edge21" class="edge">
<title>Node346&#45;&gt;Node351</title>
<path fill="none" stroke="#191970" d="M248.783,-843.7365C267.6502,-827.0905 308.4215,-793.0302 348,-772.5 419.9325,-735.1871 510.5214,-708.7015 566.2027,-694.512"/>
<polygon fill="#191970" stroke="#191970" points="567.3349,-697.8365 576.181,-692.0058 565.6296,-691.0473 567.3349,-697.8365"/>
</g>
<!-- Node357 -->
<g id="node14" class="node">
<title>Node357</title>
<g id="a_node14"><a xlink:href="structchi_1_1NodeType.html#ac99bef32e3e5e564119dbb8de69d2273" target="_top" xlink:title="Create the JSON necessary to store the object. ">
<polygon fill="#ffffff" stroke="#000000" points="557.5,-992 557.5,-1011 677.5,-1011 677.5,-992 557.5,-992"/>
<text text-anchor="middle" x="617.5" y="-999" font-family="Helvetica,sans-Serif" font-size="10.00" fill="#000000">chi::NodeType::toJSON</text>
</a>
</g>
</g>
<!-- Node346&#45;&gt;Node357 -->
<g id="edge22" class="edge">
<title>Node346&#45;&gt;Node357</title>
<path fill="none" stroke="#191970" d="M246.642,-863.1247C263.9394,-881.7534 304.8726,-922.728 348,-943.5 411.4254,-974.0484 490.9398,-988.6401 547.114,-995.5266"/>
<polygon fill="#191970" stroke="#191970" points="546.9823,-999.0351 557.3222,-996.7249 547.7985,-992.0828 546.9823,-999.0351"/>
</g>
<!-- Node359 -->
<g id="node16" class="node">
<title>Node359</title>
<g id="a_node16"><a xlink:href="structchi_1_1NodeInstance.html#a5d6678d5a90e6b1adb7dafb868b974b1" target="_top" xlink:title="Get the type of the instance. ">
<polygon fill="#ffffff" stroke="#000000" points="557.5,-735 557.5,-754 677.5,-754 677.5,-735 557.5,-735"/>
<text text-anchor="middle" x="617.5" y="-742" font-family="Helvetica,sans-Serif" font-size="10.00" fill="#000000">chi::NodeInstance::type</text>
</a>
</g>
</g>
<!-- Node346&#45;&gt;Node359 -->
<g id="edge23" class="edge">
<title>Node346&#45;&gt;Node359</title>
<path fill="none" stroke="#191970" d="M271.3455,-843.9225C340.2383,-824.1351 498.2058,-778.7637 574.5864,-756.8256"/>
<polygon fill="#191970" stroke="#191970" points="575.7204,-760.1415 584.3656,-754.0169 573.7879,-753.4135 575.7204,-760.1415"/>
</g>
<!-- Node349&#45;&gt;Node345 -->
<g id="edge7" class="edge">
<title>Node349&#45;&gt;Node345</title>
<path fill="none" stroke="#191970" d="M433.5549,-843.8206C447.9779,-818.2867 486.956,-746.6548 508,-682.5 533.564,-604.5655 494.6906,-567.0431 544,-501.5 551.9728,-490.9024 563.7539,-483.0064 575.5598,-477.2417"/>
<polygon fill="#191970" stroke="#191970" points="577.2436,-480.3236 584.9609,-473.0645 574.4012,-473.9266 577.2436,-480.3236"/>
</g>
<!-- Node349&#45;&gt;Node347 -->
<g id="edge8" class="edge">
<title>Node349&#45;&gt;Node347</title>
<path fill="none" stroke="#191970" d="M439.9074,-863.0825C460.2612,-879.1146 503.4798,-911.6634 544,-932.5 554.2741,-937.7832 565.8268,-942.5342 576.677,-946.5241"/>
<polygon fill="#191970" stroke="#191970" points="575.7923,-949.9239 586.3871,-949.9678 578.1321,-943.3265 575.7923,-949.9239"/>
</g>
<!-- Node349&#45;&gt;Node348 -->
<g id="edge9" class="edge">
<title>Node349&#45;&gt;Node348</title>
<path fill="none" stroke="#191970" d="M458.0268,-863.0072C490.3655,-873.2463 541.9724,-889.5863 577.68,-900.8921"/>
<polygon fill="#191970" stroke="#191970" points="576.7104,-904.2563 587.3005,-903.9382 578.8235,-897.5828 576.7104,-904.2563"/>
</g>
<!-- Node349&#45;&gt;Node350 -->
<g id="edge10" class="edge">
<title>Node349&#45;&gt;Node350</title>
<path fill="none" stroke="#191970" d="M479.7817,-853.5C503.5715,-853.5 531.9462,-853.5 556.7409,-853.5"/>
<polygon fill="#191970" stroke="#191970" points="556.7642,-857.0001 566.7642,-853.5 556.7641,-850.0001 556.7642,-857.0001"/>
</g>
<!-- Node349&#45;&gt;Node351 -->
<g id="edge11" class="edge">
<title>Node349&#45;&gt;Node351</title>
<path fill="none" stroke="#191970" d="M435.0288,-843.9137C451.9348,-821.304 496.9688,-763.6835 544,-725.5 557.5218,-714.522 574.1644,-704.5413 588.1917,-696.9651"/>
<polygon fill="#191970" stroke="#191970" points="590.1886,-699.8697 597.4146,-692.1214 586.9339,-693.6724 590.1886,-699.8697"/>
</g>
<!-- Node356 -->
<g id="node13" class="node">
<title>Node356</title>
<g id="a_node13"><a xlink:href="structchi_1_1NodeInstance.html#a993d848a1b95077007e232d177f58308" target="_top" xlink:title="Get the ID as a string. ">
<polygon fill="#ffffff" stroke="#000000" points="567,-779.5 567,-809.5 668,-809.5 668,-779.5 567,-779.5"/>
<text text-anchor="start" x="575" y="-797.5" font-family="Helvetica,sans-Serif" font-size="10.00" fill="#000000">chi::NodeInstance::</text>
<text text-anchor="middle" x="617.5" y="-786.5" font-family="Helvetica,sans-Serif" font-size="10.00" fill="#000000">stringId</text>
</a>
</g>
</g>
<!-- Node349&#45;&gt;Node356 -->
<g id="edge16" class="edge">
<title>Node349&#45;&gt;Node356</title>
<path fill="none" stroke="#191970" d="M460.3479,-843.9391C474.927,-839.5931 492.3484,-834.3487 508,-829.5 525.3707,-824.1187 544.2478,-818.1342 561.3585,-812.6576"/>
<polygon fill="#191970" stroke="#191970" points="562.7507,-815.8868 571.2041,-809.5001 560.613,-809.2212 562.7507,-815.8868"/>
</g>
<!-- Node349&#45;&gt;Node357 -->
<g id="edge17" class="edge">
<title>Node349&#45;&gt;Node357</title>
<path fill="none" stroke="#191970" d="M434.3219,-863.2301C450.0147,-886.6181 493.1755,-946.4229 544,-978.5 550.2188,-982.4249 557.1581,-985.725 564.2212,-988.4875"/>
<polygon fill="#191970" stroke="#191970" points="563.2788,-991.8673 573.8734,-991.9296 565.6301,-985.274 563.2788,-991.8673"/>
</g>
<!-- Node349&#45;&gt;Node359 -->
<g id="edge19" class="edge">
<title>Node349&#45;&gt;Node359</title>
<path fill="none" stroke="#191970" d="M479.765,-844.012C489.79,-840.5668 499.7343,-835.878 508,-829.5 532.3198,-810.7343 520.1428,-789.8504 544,-770.5 550.3525,-765.3476 557.8014,-761.1789 565.4752,-757.8166"/>
<polygon fill="#191970" stroke="#191970" points="566.8703,-761.0288 574.8884,-754.1034 564.3017,-754.5171 566.8703,-761.0288"/>
</g>
<!-- Node352 -->
<g id="node9" class="node">
<title>Node352</title>
<g id="a_node9"><a xlink:href="structchi_1_1NodeType.html#a4fd551737d6b3bb4d6609f1ee8e054aa" target="_top" xlink:title="Get the ChiModule this NodeType belongs to. ">
<polygon fill="#ffffff" stroke="#000000" points="731,-654 731,-673 848,-673 848,-654 731,-654"/>
<text text-anchor="middle" x="789.5" y="-661" font-family="Helvetica,sans-Serif" font-size="10.00" fill="#000000">chi::NodeType::module</text>
</a>
</g>
</g>
<!-- Node351&#45;&gt;Node352 -->
<g id="edge12" class="edge">
<title>Node351&#45;&gt;Node352</title>
<path fill="none" stroke="#191970" d="M691.4417,-674.332C701.2403,-673.2496 711.252,-672.1437 720.9542,-671.0719"/>
<polygon fill="#191970" stroke="#191970" points="721.3759,-674.5467 730.9311,-669.9698 720.6072,-667.589 721.3759,-674.5467"/>
</g>
<!-- Node353 -->
<g id="node10" class="node">
<title>Node353</title>
<g id="a_node10"><a xlink:href="structchi_1_1ChiModule.html#a92ab6d528ac41a91b6ac21ededfccc38" target="_top" xlink:title="Get the full name of the module. ">
<polygon fill="#ffffff" stroke="#000000" points="727,-616 727,-635 852,-635 852,-616 727,-616"/>
<text text-anchor="middle" x="789.5" y="-623" font-family="Helvetica,sans-Serif" font-size="10.00" fill="#000000">chi::ChiModule::fullName</text>
</a>
</g>
</g>
<!-- Node351&#45;&gt;Node353 -->
<g id="edge13" class="edge">
<title>Node351&#45;&gt;Node353</title>
<path fill="none" stroke="#191970" d="M643.9546,-672.9959C666.072,-665.1279 698.4886,-653.777 727,-644.5 733.5937,-642.3545 740.6028,-640.1501 747.4529,-638.0373"/>
<polygon fill="#191970" stroke="#191970" points="748.7682,-641.2952 757.3082,-635.0248 746.7219,-634.6009 748.7682,-641.2952"/>
</g>
<!-- Node354 -->
<g id="node11" class="node">
<title>Node354</title>
<g id="a_node11"><a xlink:href="structchi_1_1NodeType.html#ad301375a4b84ddc699337e285ee78cc3" target="_top" xlink:title="Get the name of the NodeType in the ChiModule. ">
<polygon fill="#ffffff" stroke="#000000" points="734.5,-730 734.5,-749 844.5,-749 844.5,-730 734.5,-730"/>
<text text-anchor="middle" x="789.5" y="-737" font-family="Helvetica,sans-Serif" font-size="10.00" fill="#000000">chi::NodeType::name</text>
</a>
</g>
</g>
<!-- Node351&#45;&gt;Node354 -->
<g id="edge14" class="edge">
<title>Node351&#45;&gt;Node354</title>
<path fill="none" stroke="#191970" d="M643.9546,-692.0041C666.072,-699.8721 698.4886,-711.223 727,-720.5 733.5937,-722.6455 740.6028,-724.8499 747.4529,-726.9627"/>
<polygon fill="#191970" stroke="#191970" points="746.7219,-730.3991 757.3082,-729.9752 748.7682,-723.7048 746.7219,-730.3991"/>
</g>
<!-- Node355 -->
<g id="node12" class="node">
<title>Node355</title>
<g id="a_node12"><a xlink:href="structchi_1_1NodeType.html#a6094ca464bc8672da707a277b59d1d89" target="_top" xlink:title="A virtual function that is called when this node needs to be called. ">
<polygon fill="#ffffff" stroke="#000000" points="728.5,-692 728.5,-711 850.5,-711 850.5,-692 728.5,-692"/>
<text text-anchor="middle" x="789.5" y="-699" font-family="Helvetica,sans-Serif" font-size="10.00" fill="#000000">chi::NodeType::codegen</text>
</a>
</g>
</g>
<!-- Node351&#45;&gt;Node355 -->
<g id="edge15" class="edge">
<title>Node351&#45;&gt;Node355</title>
<path fill="none" stroke="#191970" d="M691.4417,-690.668C700.2764,-691.6439 709.2844,-692.639 718.0826,-693.6109"/>
<polygon fill="#191970" stroke="#191970" points="717.9678,-697.1194 728.2916,-694.7386 718.7364,-690.1617 717.9678,-697.1194"/>
</g>
<!-- Node358 -->
<g id="node15" class="node">
<title>Node358</title>
<g id="a_node15"><a xlink:href="structchi_1_1NodeType.html#a9de5373607ac5fb322665c487010ecf2" target="_top" xlink:title="Clones the type. ">
<polygon fill="#ffffff" stroke="#000000" points="735,-992 735,-1011 844,-1011 844,-992 735,-992"/>
<text text-anchor="middle" x="789.5" y="-999" font-family="Helvetica,sans-Serif" font-size="10.00" fill="#000000">chi::NodeType::clone</text>
</a>
</g>
</g>
<!-- Node357&#45;&gt;Node358 -->
<g id="edge18" class="edge">
<title>Node357&#45;&gt;Node358</title>
<path fill="none" stroke="#191970" d="M677.6573,-1001.5C692.915,-1001.5 709.3692,-1001.5 724.8398,-1001.5"/>
<polygon fill="#191970" stroke="#191970" points="724.8418,-1005.0001 734.8418,-1001.5 724.8418,-998.0001 724.8418,-1005.0001"/>
</g>
<!-- Node360&#45;&gt;Node345 -->
<g id="edge25" class="edge">
<title>Node360&#45;&gt;Node345</title>
<path fill="none" stroke="#191970" d="M253.3962,-558.8292C274.1106,-546.2549 312.466,-524.4879 348,-512.5 416.1899,-489.4952 497.9355,-476.5657 553.3818,-469.8385"/>
<polygon fill="#191970" stroke="#191970" points="553.8989,-473.3019 563.4196,-468.6536 553.0782,-466.3502 553.8989,-473.3019"/>
</g>
<!-- Node360&#45;&gt;Node350 -->
<g id="edge34" class="edge">
<title>Node360&#45;&gt;Node350</title>
<path fill="none" stroke="#191970" d="M242.8812,-578.3438C256.3446,-604.6543 296.448,-677.5865 348,-721.5 411.9231,-775.9515 502.1815,-814.1616 560.2759,-834.9973"/>
<polygon fill="#191970" stroke="#191970" points="559.4293,-838.4101 570.0241,-838.4388 561.7596,-831.8093 559.4293,-838.4101"/>
</g>
<!-- Node360&#45;&gt;Node351 -->
<g id="edge35" class="edge">
<title>Node360&#45;&gt;Node351</title>
<path fill="none" stroke="#191970" d="M274.4509,-578.0199C326.5186,-591.786 425.0676,-618.4634 508,-644.5 532.6951,-652.253 560.2184,-661.8085 581.4932,-669.3978"/>
<polygon fill="#191970" stroke="#191970" points="580.5005,-672.7599 591.095,-672.8406 582.8632,-666.1707 580.5005,-672.7599"/>
</g>
<!-- Node360&#45;&gt;Node359 -->
<g id="edge36" class="edge">
<title>Node360&#45;&gt;Node359</title>
<path fill="none" stroke="#191970" d="M244.3872,-578.2567C259.5121,-600.5294 299.8808,-655.2872 348,-682.5 409.9934,-717.559 490.6335,-732.8054 547.494,-739.4286"/>
<polygon fill="#191970" stroke="#191970" points="547.1457,-742.9113 557.4696,-740.5307 547.9144,-735.9536 547.1457,-742.9113"/>
</g>
<!-- Node361 -->
<g id="node18" class="node">
<title>Node361</title>
<g id="a_node18"><a xlink:href="namespacechi.html#a103b99abd766aa4d303a5004fe783c03" target="_top" xlink:title="Disconnect a exec connection. ">
<polygon fill="#ffffff" stroke="#000000" points="375.5,-654 375.5,-673 480.5,-673 480.5,-654 375.5,-654"/>
<text text-anchor="middle" x="428" y="-661" font-family="Helvetica,sans-Serif" font-size="10.00" fill="#000000">chi::disconnectExec</text>
</a>
</g>
</g>
<!-- Node360&#45;&gt;Node361 -->
<g id="edge26" class="edge">
<title>Node360&#45;&gt;Node361</title>
<path fill="none" stroke="#191970" d="M257.2638,-578.1319C290.9221,-594.961 360.5731,-629.7866 399.7143,-649.3572"/>
<polygon fill="#191970" stroke="#191970" points="398.4581,-652.6422 408.9677,-653.9838 401.5887,-646.3812 398.4581,-652.6422"/>
</g>
<!-- Node362 -->
<g id="node19" class="node">
<title>Node362</title>
<g id="a_node19"><a xlink:href="structchi_1_1NodeType.html#aa93f41674ea15d335db358d8aa4745a1" target="_top" xlink:title="Get the execution outputs for the node. ">
<polygon fill="#ffffff" stroke="#000000" points="547,-511 547,-530 688,-530 688,-511 547,-511"/>
<text text-anchor="middle" x="617.5" y="-518" font-family="Helvetica,sans-Serif" font-size="10.00" fill="#000000">chi::NodeType::execOutputs</text>
</a>
</g>
</g>
<!-- Node360&#45;&gt;Node362 -->
<g id="edge33" class="edge">
<title>Node360&#45;&gt;Node362</title>
<path fill="none" stroke="#191970" d="M259.3989,-558.9833C281.1988,-549.8002 316.2233,-536.4419 348,-530.5 410.5844,-518.7974 482.724,-516.7059 536.6082,-517.3168"/>
<polygon fill="#191970" stroke="#191970" points="536.7411,-520.819 546.7916,-517.4667 536.8443,-513.8198 536.7411,-520.819"/>
</g>
<!-- Node363 -->
<g id="node20" class="node">
<title>Node363</title>
<g id="a_node20"><a xlink:href="structchi_1_1NodeType.html#abacc3220df0b18bfbe9ee86b6dc427cd" target="_top" xlink:title="Get the execution inputs for the node. ">
<polygon fill="#ffffff" stroke="#000000" points="361,-540 361,-559 495,-559 495,-540 361,-540"/>
<text text-anchor="middle" x="428" y="-547" font-family="Helvetica,sans-Serif" font-size="10.00" fill="#000000">chi::NodeType::execInputs</text>
</a>
</g>
</g>
<!-- Node360&#45;&gt;Node363 -->
<g id="edge32" class="edge">
<title>Node360&#45;&gt;Node363</title>
<path fill="none" stroke="#191970" d="M284.4792,-563.8521C304.3908,-561.8609 328.1898,-559.481 350.6288,-557.2371"/>
<polygon fill="#191970" stroke="#191970" points="351.222,-560.6953 360.8241,-556.2176 350.5254,-553.7301 351.222,-560.6953"/>
</g>
<!-- Node361&#45;&gt;Node345 -->
<g id="edge27" class="edge">
<title>Node361&#45;&gt;Node345</title>
<path fill="none" stroke="#191970" d="M480.5165,-656.0684C490.7244,-652.4877 500.5514,-647.2238 508,-639.5 552.0004,-593.8739 504.4195,-551.0092 544,-501.5 552.5061,-490.8602 564.7956,-482.8887 576.8985,-477.0687"/>
<polygon fill="#191970" stroke="#191970" points="578.3162,-480.2688 586.0515,-473.0289 575.4897,-473.8648 578.3162,-480.2688"/>
</g>
<!-- Node361&#45;&gt;Node351 -->
<g id="edge29" class="edge">
<title>Node361&#45;&gt;Node351</title>
<path fill="none" stroke="#191970" d="M480.5347,-668.7673C497.0778,-670.426 515.779,-672.3011 533.9257,-674.1205"/>
<polygon fill="#191970" stroke="#191970" points="533.6336,-677.6087 543.9329,-675.1239 534.332,-670.6436 533.6336,-677.6087"/>
</g>
<!-- Node361&#45;&gt;Node356 -->
<g id="edge30" class="edge">
<title>Node361&#45;&gt;Node356</title>
<path fill="none" stroke="#191970" d="M437.1154,-673.1716C455.6985,-692.4519 499.9417,-736.1656 544,-763.5 550.9441,-767.8082 558.592,-771.7774 566.2504,-775.3349"/>
<polygon fill="#191970" stroke="#191970" points="564.9906,-778.605 575.5504,-779.4652 567.8318,-772.2075 564.9906,-778.605"/>
</g>
<!-- Node361&#45;&gt;Node359 -->
<g id="edge31" class="edge">
<title>Node361&#45;&gt;Node359</title>
<path fill="none" stroke="#191970" d="M450.4823,-673.1098C483.9615,-687.4202 547.0778,-714.3987 585.4048,-730.7812"/>
<polygon fill="#191970" stroke="#191970" points="584.4761,-734.1905 595.047,-734.9027 587.2274,-727.7539 584.4761,-734.1905"/>
</g>
<!-- Node361&#45;&gt;Node362 -->
<g id="edge28" class="edge">
<title>Node361&#45;&gt;Node362</title>
<path fill="none" stroke="#191970" d="M475.0834,-653.923C486.3789,-650.4217 498.0437,-645.731 508,-639.5 550.8155,-612.7043 587.5318,-564.7999 605.5762,-538.6891"/>
<polygon fill="#191970" stroke="#191970" points="608.6575,-540.3802 611.356,-530.1348 602.8574,-536.4612 608.6575,-540.3802"/>
</g>
<!-- Node366 -->
<g id="node23" class="node">
<title>Node366</title>
<g id="a_node23"><a xlink:href="structchi_1_1GraphFunction.html#a0123fb77fb0a19ea18163afb88f7687b" target="_top" xlink:title="Get a local varaible by name. ">
<polygon fill="#ffffff" stroke="#000000" points="365,-98.5 365,-128.5 491,-128.5 491,-98.5 365,-98.5"/>
<text text-anchor="start" x="373" y="-116.5" font-family="Helvetica,sans-Serif" font-size="10.00" fill="#000000">chi::GraphFunction</text>
<text text-anchor="middle" x="428" y="-105.5" font-family="Helvetica,sans-Serif" font-size="10.00" fill="#000000">::localVariableFromName</text>
</a>
</g>
</g>
<!-- Node365&#45;&gt;Node366 -->
<g id="edge39" class="edge">
<title>Node365&#45;&gt;Node366</title>
<path fill="none" stroke="#191970" d="M305.2543,-122.5444C321.3438,-121.3589 338.5973,-120.0876 354.9352,-118.8837"/>
<polygon fill="#191970" stroke="#191970" points="355.2552,-122.3697 364.9709,-118.1442 354.7407,-115.3887 355.2552,-122.3697"/>
</g>
<!-- Node367&#45;&gt;Node345 -->
<g id="edge42" class="edge">
<title>Node367&#45;&gt;Node345</title>
<path fill="none" stroke="#191970" d="M287.8405,-371.0537C342.4606,-380.9669 432.3826,-398.8775 508,-421.5 534.8963,-429.5466 564.585,-441.1093 586.2557,-450.0663"/>
<polygon fill="#191970" stroke="#191970" points="585.0332,-453.3487 595.6095,-453.9763 587.733,-446.8902 585.0332,-453.3487"/>
</g>
<!-- Node367&#45;&gt;Node368 -->
<g id="edge41" class="edge">
<title>Node367&#45;&gt;Node368</title>
<path fill="none" stroke="#191970" d="M287.9203,-360.1354C312.5745,-358.9675 342.502,-357.5499 368.355,-356.3253"/>
<polygon fill="#191970" stroke="#191970" points="368.59,-359.8182 378.4131,-355.8489 368.2587,-352.826 368.59,-359.8182"/>
</g>
<!-- Node369&#45;&gt;Node345 -->
<g id="edge46" class="edge">
<title>Node369&#45;&gt;Node345</title>
<path fill="none" stroke="#191970" d="M308.0129,-286.2501C382.197,-299.0972 490.9806,-319.2212 508,-329.5 555.5967,-358.2458 591.605,-415.4656 607.9033,-444.9635"/>
<polygon fill="#191970" stroke="#191970" points="604.8472,-446.6706 612.6632,-453.8233 611.0136,-443.3576 604.8472,-446.6706"/>
</g>
<!-- Node370 -->
<g id="node27" class="node">
<title>Node370</title>
<g id="a_node27"><a xlink:href="structchi_1_1Context.html#a8628a178e0a8a944065f2605d01a36d5" target="_top" xlink:title="Gets the module by the full name. ">
<polygon fill="#ffffff" stroke="#000000" points="348,-224 348,-243 508,-243 508,-224 348,-224"/>
<text text-anchor="middle" x="428" y="-231" font-family="Helvetica,sans-Serif" font-size="10.00" fill="#000000">chi::Context::moduleByFullName</text>
</a>
</g>
</g>
<!-- Node369&#45;&gt;Node370 -->
<g id="edge45" class="edge">
<title>Node369&#45;&gt;Node370</title>
<path fill="none" stroke="#191970" d="M307.6701,-259.4659C329.514,-254.7522 353.2855,-249.6226 373.8868,-245.1771"/>
<polygon fill="#191970" stroke="#191970" points="374.6865,-248.5851 383.7232,-243.0545 373.2099,-241.7426 374.6865,-248.5851"/>
</g>
<!-- Node371 -->
<g id="node28" class="node">
<title>Node371</title>
<g id="a_node28"><a xlink:href="structchi_1_1Context.html#ad1bbd4d5eb33a8ce34292eb6a192d10d" target="_top" xlink:title="Compile a module to a llvm::Module. ">
<polygon fill="#ffffff" stroke="#000000" points="358,-262 358,-281 498,-281 498,-262 358,-262"/>
<text text-anchor="middle" x="428" y="-269" font-family="Helvetica,sans-Serif" font-size="10.00" fill="#000000">chi::Context::compileModule</text>
</a>
</g>
</g>
<!-- Node369&#45;&gt;Node371 -->
<g id="edge47" class="edge">
<title>Node369&#45;&gt;Node371</title>
<path fill="none" stroke="#191970" d="M308.2092,-273.3914C320.9713,-273.1899 334.3751,-272.9783 347.4086,-272.7725"/>
<polygon fill="#191970" stroke="#191970" points="347.8189,-276.2665 357.7624,-272.609 347.7083,-269.2674 347.8189,-276.2665"/>
</g>
<!-- Node373 -->
<g id="node30" class="node">
<title>Node373</title>
<g id="a_node30"><a xlink:href="structchi_1_1GraphFunction.html#a0564412e260698bdb3872d3d12dfc3bc" target="_top" xlink:title="Get the GraphModule that contains this GraphFunction. ">
<polygon fill="#ffffff" stroke="#000000" points="378.5,-49.5 378.5,-79.5 477.5,-79.5 477.5,-49.5 378.5,-49.5"/>
<text text-anchor="start" x="386.5" y="-67.5" font-family="Helvetica,sans-Serif" font-size="10.00" fill="#000000">chi::GraphFunction</text>
<text text-anchor="middle" x="428" y="-56.5" font-family="Helvetica,sans-Serif" font-size="10.00" fill="#000000">::module</text>
</a>
</g>
</g>
<!-- Node372&#45;&gt;Node373 -->
<g id="edge49" class="edge">
<title>Node372&#45;&gt;Node373</title>
<path fill="none" stroke="#191970" d="M288.9165,-64.5C313.2626,-64.5 342.572,-64.5 367.9946,-64.5"/>
<polygon fill="#191970" stroke="#191970" points="368.2582,-68.0001 378.2581,-64.5 368.2581,-61.0001 368.2582,-68.0001"/>
</g>
<!-- Node374 -->
<g id="node31" class="node">
<title>Node374</title>
<g id="a_node31"><a xlink:href="structchi_1_1GraphFunction.html#a89069f6e08f71cfbafb245ea16c8d69f" target="_top" xlink:title="Get the name of the function. ">
<polygon fill="#ffffff" stroke="#000000" points="378.5,-.5 378.5,-30.5 477.5,-30.5 477.5,-.5 378.5,-.5"/>
<text text-anchor="start" x="386.5" y="-18.5" font-family="Helvetica,sans-Serif" font-size="10.00" fill="#000000">chi::GraphFunction</text>
<text text-anchor="middle" x="428" y="-7.5" font-family="Helvetica,sans-Serif" font-size="10.00" fill="#000000">::name</text>
</a>
</g>
</g>
<!-- Node372&#45;&gt;Node374 -->
<g id="edge50" class="edge">
<title>Node372&#45;&gt;Node374</title>
<path fill="none" stroke="#191970" d="M275.085,-54.936C301.6884,-48.0751 338.0904,-38.6872 368.7037,-30.7922"/>
<polygon fill="#191970" stroke="#191970" points="369.6108,-34.1729 378.4199,-28.2864 367.8627,-27.3946 369.6108,-34.1729"/>
</g>
<!-- Node375&#45;&gt;Node345 -->
<g id="edge53" class="edge">
<title>Node375&#45;&gt;Node345</title>
<path fill="none" stroke="#191970" d="M285.9026,-220.9995C353.5029,-208.6956 472.6092,-191.4017 508,-214.5 588.8993,-267.3001 610.4275,-394.7119 615.8126,-443.7788"/>
<polygon fill="#191970" stroke="#191970" points="612.3311,-444.1392 616.7976,-453.7465 619.2971,-443.4508 612.3311,-444.1392"/>
</g>
<!-- Node375&#45;&gt;Node370 -->
<g id="edge52" class="edge">
<title>Node375&#45;&gt;Node370</title>
<path fill="none" stroke="#191970" d="M312.003,-231.6685C320.4658,-231.8021 329.1625,-231.9394 337.8061,-232.0759"/>
<polygon fill="#191970" stroke="#191970" points="337.8572,-235.577 347.9112,-232.2354 337.9677,-228.5779 337.8572,-235.577"/>
</g>
<!-- Node376 -->
<g id="node33" class="node">
<title>Node376</title>
<g id="a_node33"><a xlink:href="structchi_1_1ChiModule.html#a03aa9f90fafd384094861dfff13eba77" target="_top" xlink:title="Get a DataType from the name. ">
<polygon fill="#ffffff" stroke="#000000" points="351,-148 351,-167 505,-167 505,-148 351,-148"/>
<text text-anchor="middle" x="428" y="-155" font-family="Helvetica,sans-Serif" font-size="10.00" fill="#000000">chi::ChiModule::typeFromName</text>
</a>
</g>
</g>
<!-- Node375&#45;&gt;Node376 -->
<g id="edge54" class="edge">
<title>Node375&#45;&gt;Node376</title>
<path fill="none" stroke="#191970" d="M287.6855,-220.9951C296.0399,-218.4887 304.4432,-215.3675 312,-211.5 330.5403,-202.0113 329.6538,-191.3588 348,-181.5 356.4372,-176.9661 365.8465,-173.1741 375.1646,-170.0429"/>
<polygon fill="#191970" stroke="#191970" points="376.3067,-173.3528 384.7975,-167.0158 374.2081,-166.6748 376.3067,-173.3528"/>
</g>
</g>
</svg>
