<?xml version="1.0" encoding="UTF-8" standalone="no"?>
<!DOCTYPE svg PUBLIC "-//W3C//DTD SVG 1.1//EN"
 "http://www.w3.org/Graphics/SVG/1.1/DTD/svg11.dtd">
<!-- Generated by graphviz version 2.40.1 (20161225.0304)
 -->
<!-- Title: include/chig/NodeInstance.hpp Pages: 1 -->
<svg width="1400pt" height="308pt"
 viewBox="0.00 0.00 1399.50 308.00" xmlns="http://www.w3.org/2000/svg" xmlns:xlink="http://www.w3.org/1999/xlink">
<g id="graph0" class="graph" transform="scale(1 1) rotate(0) translate(4 304)">
<title>include/chig/NodeInstance.hpp</title>
<polygon fill="#ffffff" stroke="transparent" points="-4,4 -4,-304 1395.5,-304 1395.5,4 -4,4"/>
<!-- Node0 -->
<g id="node1" class="node">
<title>Node0</title>
<polygon fill="#bfbfbf" stroke="#000000" points="979,-280.5 979,-299.5 1129,-299.5 1129,-280.5 979,-280.5"/>
<text text-anchor="middle" x="1054" y="-287.5" font-family="Helvetica,sans-Serif" font-size="10.00" fill="#000000">include/chig/NodeInstance.hpp</text>
</g>
<!-- Node1 -->
<g id="node2" class="node">
<title>Node1</title>
<g id="a_node2"><a xlink:href="NodeType_8hpp.html" target="_top" xlink:title="Defines the NodeType class. ">
<polygon fill="#ffffff" stroke="#000000" points="958.5,-224.5 958.5,-243.5 1059.5,-243.5 1059.5,-224.5 958.5,-224.5"/>
<text text-anchor="middle" x="1009" y="-231.5" font-family="Helvetica,sans-Serif" font-size="10.00" fill="#000000">chig/NodeType.hpp</text>
</a>
</g>
</g>
<!-- Node0&#45;&gt;Node1 -->
<g id="edge1" class="edge">
<title>Node0&#45;&gt;Node1</title>
<path fill="none" stroke="#191970" d="M1046.1616,-280.2455C1039.838,-272.3761 1030.7776,-261.101 1023.1864,-251.6542"/>
<polygon fill="#191970" stroke="#191970" points="1025.7408,-249.2454 1016.7486,-243.6427 1020.2842,-253.6302 1025.7408,-249.2454"/>
</g>
<!-- Node24 -->
<g id="node25" class="node">
<title>Node24</title>
<polygon fill="#ffffff" stroke="#bfbfbf" points="1078,-224.5 1078,-243.5 1122,-243.5 1122,-224.5 1078,-224.5"/>
<text text-anchor="middle" x="1100" y="-231.5" font-family="Helvetica,sans-Serif" font-size="10.00" fill="#000000">vector</text>
</g>
<!-- Node0&#45;&gt;Node24 -->
<g id="edge34" class="edge">
<title>Node0&#45;&gt;Node24</title>
<path fill="none" stroke="#191970" d="M1062.0126,-280.2455C1068.4768,-272.3761 1077.7385,-261.101 1085.4983,-251.6542"/>
<polygon fill="#191970" stroke="#191970" points="1088.4364,-253.5916 1092.0792,-243.6427 1083.0273,-249.1484 1088.4364,-253.5916"/>
</g>
<!-- Node2 -->
<g id="node3" class="node">
<title>Node2</title>
<g id="a_node3"><a xlink:href="Context_8hpp.html" target="_top" xlink:title="Defines the Context class and related functions. ">
<polygon fill="#ffffff" stroke="#000000" points="638,-112.5 638,-131.5 728,-131.5 728,-112.5 638,-112.5"/>
<text text-anchor="middle" x="683" y="-119.5" font-family="Helvetica,sans-Serif" font-size="10.00" fill="#000000">chig/Context.hpp</text>
</a>
</g>
</g>
<!-- Node1&#45;&gt;Node2 -->
<g id="edge2" class="edge">
<title>Node1&#45;&gt;Node2</title>
<path fill="none" stroke="#191970" d="M958.2368,-228.2666C913.1242,-222.0178 845.9979,-209.8556 791,-188 758.4801,-175.0769 724.6266,-152.6919 703.683,-137.6177"/>
<polygon fill="#191970" stroke="#191970" points="705.675,-134.7383 695.5391,-131.6539 701.5392,-140.386 705.675,-134.7383"/>
</g>
<!-- Node16 -->
<g id="node17" class="node">
<title>Node16</title>
<g id="a_node17"><a xlink:href="DataType_8hpp.html" target="_top" xlink:title="Defines the DataType class. ">
<polygon fill="#ffffff" stroke="#000000" points="800,-168.5 800,-187.5 898,-187.5 898,-168.5 800,-168.5"/>
<text text-anchor="middle" x="849" y="-175.5" font-family="Helvetica,sans-Serif" font-size="10.00" fill="#000000">chig/DataType.hpp</text>
</a>
</g>
</g>
<!-- Node1&#45;&gt;Node16 -->
<g id="edge16" class="edge">
<title>Node1&#45;&gt;Node16</title>
<path fill="none" stroke="#191970" d="M981.495,-224.3733C955.1198,-215.1419 915.1149,-201.1402 885.9642,-190.9375"/>
<polygon fill="#191970" stroke="#191970" points="886.7409,-187.5012 876.1461,-187.5011 884.4284,-194.1082 886.7409,-187.5012"/>
</g>
<!-- Node18 -->
<g id="node19" class="node">
<title>Node18</title>
<g id="a_node19"><a xlink:href="Result_8hpp.html" target="_top" xlink:title="Defines the Result class and related functions. ">
<polygon fill="#ffffff" stroke="#000000" points="1000,-112.5 1000,-131.5 1084,-131.5 1084,-112.5 1000,-112.5"/>
<text text-anchor="middle" x="1042" y="-119.5" font-family="Helvetica,sans-Serif" font-size="10.00" fill="#000000">chig/Result.hpp</text>
</a>
</g>
</g>
<!-- Node1&#45;&gt;Node18 -->
<g id="edge25" class="edge">
<title>Node1&#45;&gt;Node18</title>
<path fill="none" stroke="#191970" d="M987.5894,-224.3742C964.1407,-212.4148 931.6507,-190.7873 946,-168 955.971,-152.1656 973.0717,-141.6609 990.1027,-134.7469"/>
<polygon fill="#191970" stroke="#191970" points="991.3484,-138.0179 999.5115,-131.2641 988.9183,-131.4532 991.3484,-138.0179"/>
</g>
<!-- Node19 -->
<g id="node20" class="node">
<title>Node19</title>
<polygon fill="#ffffff" stroke="#bfbfbf" points="954.5,-168.5 954.5,-187.5 1001.5,-187.5 1001.5,-168.5 954.5,-168.5"/>
<text text-anchor="middle" x="978" y="-175.5" font-family="Helvetica,sans-Serif" font-size="10.00" fill="#000000">iterator</text>
</g>
<!-- Node1&#45;&gt;Node19 -->
<g id="edge29" class="edge">
<title>Node1&#45;&gt;Node19</title>
<path fill="none" stroke="#191970" d="M1003.6002,-224.2455C999.3773,-216.617 993.3827,-205.7881 988.2559,-196.5267"/>
<polygon fill="#191970" stroke="#191970" points="991.2432,-194.6965 983.3379,-187.6427 985.119,-198.0867 991.2432,-194.6965"/>
</g>
<!-- Node20 -->
<g id="node21" class="node">
<title>Node20</title>
<polygon fill="#ffffff" stroke="#bfbfbf" points="1020,-168.5 1020,-187.5 1060,-187.5 1060,-168.5 1020,-168.5"/>
<text text-anchor="middle" x="1040" y="-175.5" font-family="Helvetica,sans-Serif" font-size="10.00" fill="#000000">utility</text>
</g>
<!-- Node1&#45;&gt;Node20 -->
<g id="edge30" class="edge">
<title>Node1&#45;&gt;Node20</title>
<path fill="none" stroke="#191970" d="M1014.3998,-224.2455C1018.6227,-216.617 1024.6173,-205.7881 1029.7441,-196.5267"/>
<polygon fill="#191970" stroke="#191970" points="1032.881,-198.0867 1034.6621,-187.6427 1026.7568,-194.6965 1032.881,-198.0867"/>
</g>
<!-- Node21 -->
<g id="node22" class="node">
<title>Node21</title>
<polygon fill="#ffffff" stroke="#bfbfbf" points="1078,-168.5 1078,-187.5 1176,-187.5 1176,-168.5 1078,-168.5"/>
<text text-anchor="middle" x="1127" y="-175.5" font-family="Helvetica,sans-Serif" font-size="10.00" fill="#000000">llvm/IR/DIBuilder.h</text>
</g>
<!-- Node1&#45;&gt;Node21 -->
<g id="edge31" class="edge">
<title>Node1&#45;&gt;Node21</title>
<path fill="none" stroke="#191970" d="M1029.2849,-224.3733C1048.1421,-215.4241 1076.446,-201.9917 1097.7455,-191.8835"/>
<polygon fill="#191970" stroke="#191970" points="1099.4461,-194.9506 1106.9798,-187.5011 1096.4449,-188.6266 1099.4461,-194.9506"/>
</g>
<!-- Node22 -->
<g id="node23" class="node">
<title>Node22</title>
<polygon fill="#ffffff" stroke="#bfbfbf" points="1194,-168.5 1194,-187.5 1290,-187.5 1290,-168.5 1194,-168.5"/>
<text text-anchor="middle" x="1242" y="-175.5" font-family="Helvetica,sans-Serif" font-size="10.00" fill="#000000">llvm/IR/Function.h</text>
</g>
<!-- Node1&#45;&gt;Node22 -->
<g id="edge32" class="edge">
<title>Node1&#45;&gt;Node22</title>
<path fill="none" stroke="#191970" d="M1048.7894,-224.4369C1088.498,-214.8932 1149.6104,-200.2052 1192.4455,-189.9101"/>
<polygon fill="#191970" stroke="#191970" points="1193.4695,-193.2637 1202.3747,-187.5237 1191.8337,-186.4575 1193.4695,-193.2637"/>
</g>
<!-- Node23 -->
<g id="node24" class="node">
<title>Node23</title>
<polygon fill="#ffffff" stroke="#bfbfbf" points="1308.5,-168.5 1308.5,-187.5 1391.5,-187.5 1391.5,-168.5 1308.5,-168.5"/>
<text text-anchor="middle" x="1350" y="-175.5" font-family="Helvetica,sans-Serif" font-size="10.00" fill="#000000">llvm/IR/Value.h</text>
</g>
<!-- Node1&#45;&gt;Node23 -->
<g id="edge33" class="edge">
<title>Node1&#45;&gt;Node23</title>
<path fill="none" stroke="#191970" d="M1059.7332,-225.5083C1062.8684,-224.9947 1065.9767,-224.4885 1069,-224 1168.0497,-207.9945 1195.4617,-206.0644 1298.4089,-188.0514"/>
<polygon fill="#191970" stroke="#191970" points="1299.033,-191.4955 1308.2758,-186.3165 1297.8207,-184.6012 1299.033,-191.4955"/>
</g>
<!-- Node3 -->
<g id="node4" class="node">
<title>Node3</title>
<polygon fill="#ffffff" stroke="#bfbfbf" points="338,-56.5 338,-75.5 390,-75.5 390,-56.5 338,-56.5"/>
<text text-anchor="middle" x="364" y="-63.5" font-family="Helvetica,sans-Serif" font-size="10.00" fill="#000000">memory</text>
</g>
<!-- Node2&#45;&gt;Node3 -->
<g id="edge3" class="edge">
<title>Node2&#45;&gt;Node3</title>
<path fill="none" stroke="#191970" d="M637.6176,-116.1885C581.4795,-108.6411 483.1396,-94.2463 400,-76 399.901,-75.9783 399.8019,-75.9564 399.7026,-75.9345"/>
<polygon fill="#191970" stroke="#191970" points="400.805,-72.6002 390.2627,-73.654 399.1611,-79.4045 400.805,-72.6002"/>
</g>
<!-- Node4 -->
<g id="node5" class="node">
<title>Node4</title>
<polygon fill="#ffffff" stroke="#bfbfbf" points="408.5,-56.5 408.5,-75.5 491.5,-75.5 491.5,-56.5 408.5,-56.5"/>
<text text-anchor="middle" x="450" y="-63.5" font-family="Helvetica,sans-Serif" font-size="10.00" fill="#000000">unordered_map</text>
</g>
<!-- Node2&#45;&gt;Node4 -->
<g id="edge4" class="edge">
<title>Node2&#45;&gt;Node4</title>
<path fill="none" stroke="#191970" d="M643.2106,-112.4369C603.502,-102.8932 542.3896,-88.2052 499.5545,-77.9101"/>
<polygon fill="#191970" stroke="#191970" points="500.1663,-74.4575 489.6253,-75.5237 498.5305,-81.2637 500.1663,-74.4575"/>
</g>
<!-- Node5 -->
<g id="node6" class="node">
<title>Node5</title>
<polygon fill="#ffffff" stroke="#bfbfbf" points="738,-56.5 738,-75.5 816,-75.5 816,-56.5 738,-56.5"/>
<text text-anchor="middle" x="777" y="-63.5" font-family="Helvetica,sans-Serif" font-size="10.00" fill="#000000">unordered_set</text>
</g>
<!-- Node2&#45;&gt;Node5 -->
<g id="edge5" class="edge">
<title>Node2&#45;&gt;Node5</title>
<path fill="none" stroke="#191970" d="M699.3736,-112.2455C713.9308,-103.5731 735.431,-90.7645 752.1152,-80.825"/>
<polygon fill="#191970" stroke="#191970" points="754.0144,-83.7676 760.8141,-75.6427 750.4317,-77.7539 754.0144,-83.7676"/>
</g>
<!-- Node6 -->
<g id="node7" class="node">
<title>Node6</title>
<g id="a_node7"><a xlink:href="Fwd_8hpp.html" target="_top" xlink:title="Forward declares all the chigraph data types. ">
<polygon fill="#ffffff" stroke="#000000" points="646,-56.5 646,-75.5 720,-75.5 720,-56.5 646,-56.5"/>
<text text-anchor="middle" x="683" y="-63.5" font-family="Helvetica,sans-Serif" font-size="10.00" fill="#000000">chig/Fwd.hpp</text>
</a>
</g>
</g>
<!-- Node2&#45;&gt;Node6 -->
<g id="edge6" class="edge">
<title>Node2&#45;&gt;Node6</title>
<path fill="none" stroke="#191970" d="M683,-112.2455C683,-104.9382 683,-94.6944 683,-85.7046"/>
<polygon fill="#191970" stroke="#191970" points="686.5001,-85.6426 683,-75.6427 679.5001,-85.6427 686.5001,-85.6426"/>
</g>
<!-- Node7 -->
<g id="node8" class="node">
<title>Node7</title>
<g id="a_node8"><a xlink:href="ToString_8hpp_source.html" target="_top" xlink:title="chig/ToString.hpp">
<polygon fill="#ffffff" stroke="#000000" points="942.5,-56.5 942.5,-75.5 1035.5,-75.5 1035.5,-56.5 942.5,-56.5"/>
<text text-anchor="middle" x="989" y="-63.5" font-family="Helvetica,sans-Serif" font-size="10.00" fill="#000000">chig/ToString.hpp</text>
</a>
</g>
</g>
<!-- Node2&#45;&gt;Node7 -->
<g id="edge7" class="edge">
<title>Node2&#45;&gt;Node7</title>
<path fill="none" stroke="#191970" d="M728.1514,-113.737C782.4489,-103.8002 873.6175,-87.1157 932.5224,-76.3358"/>
<polygon fill="#191970" stroke="#191970" points="933.2016,-79.7697 942.4082,-74.5266 931.9415,-72.884 933.2016,-79.7697"/>
</g>
<!-- Node9 -->
<g id="node10" class="node">
<title>Node9</title>
<polygon fill="#ffffff" stroke="#bfbfbf" points="1054,-56.5 1054,-75.5 1128,-75.5 1128,-56.5 1054,-56.5"/>
<text text-anchor="middle" x="1091" y="-63.5" font-family="Helvetica,sans-Serif" font-size="10.00" fill="#000000">chig/json.hpp</text>
</g>
<!-- Node2&#45;&gt;Node9 -->
<g id="edge9" class="edge">
<title>Node2&#45;&gt;Node9</title>
<path fill="none" stroke="#191970" d="M728.0539,-117.5585C794.8319,-110.6941 924.1979,-96.3202 1043.8325,-76.079"/>
<polygon fill="#191970" stroke="#191970" points="1044.6305,-79.4935 1053.8975,-74.3581 1043.4506,-72.5936 1044.6305,-79.4935"/>
</g>
<!-- Node10 -->
<g id="node11" class="node">
<title>Node10</title>
<polygon fill="#ffffff" stroke="#bfbfbf" points="510,-56.5 510,-75.5 628,-75.5 628,-56.5 510,-56.5"/>
<text text-anchor="middle" x="569" y="-63.5" font-family="Helvetica,sans-Serif" font-size="10.00" fill="#000000">llvm/IR/LLVMContext.h</text>
</g>
<!-- Node2&#45;&gt;Node10 -->
<g id="edge10" class="edge">
<title>Node2&#45;&gt;Node10</title>
<path fill="none" stroke="#191970" d="M663.4027,-112.3733C645.2669,-103.4644 618.0865,-90.1127 597.5413,-80.0203"/>
<polygon fill="#191970" stroke="#191970" points="598.8603,-76.7688 588.3416,-75.5011 595.7739,-83.0517 598.8603,-76.7688"/>
</g>
<!-- Node11 -->
<g id="node12" class="node">
<title>Node11</title>
<polygon fill="#ffffff" stroke="#bfbfbf" points="834,-56.5 834,-75.5 924,-75.5 924,-56.5 834,-56.5"/>
<text text-anchor="middle" x="879" y="-63.5" font-family="Helvetica,sans-Serif" font-size="10.00" fill="#000000">llvm/IR/Module.h</text>
</g>
<!-- Node2&#45;&gt;Node11 -->
<g id="edge11" class="edge">
<title>Node2&#45;&gt;Node11</title>
<path fill="none" stroke="#191970" d="M716.6936,-112.3733C749.7087,-102.9404 800.1573,-88.5265 836.0386,-78.2747"/>
<polygon fill="#191970" stroke="#191970" points="837.0924,-81.6137 845.7461,-75.5011 835.1693,-74.8831 837.0924,-81.6137"/>
</g>
<!-- Node12 -->
<g id="node13" class="node">
<title>Node12</title>
<polygon fill="#ffffff" stroke="#bfbfbf" points="0,-56.5 0,-75.5 80,-75.5 80,-56.5 0,-56.5"/>
<text text-anchor="middle" x="40" y="-63.5" font-family="Helvetica,sans-Serif" font-size="10.00" fill="#000000">llvm/IR/Type.h</text>
</g>
<!-- Node2&#45;&gt;Node12 -->
<g id="edge12" class="edge">
<title>Node2&#45;&gt;Node12</title>
<path fill="none" stroke="#191970" d="M637.7107,-120.41C539.6435,-116.5545 300.2196,-104.9159 90.0277,-75.9838"/>
<polygon fill="#191970" stroke="#191970" points="90.4286,-72.5059 80.0414,-74.593 89.4629,-79.439 90.4286,-72.5059"/>
</g>
<!-- Node13 -->
<g id="node14" class="node">
<title>Node13</title>
<polygon fill="#ffffff" stroke="#bfbfbf" points="1146.5,-56.5 1146.5,-75.5 1191.5,-75.5 1191.5,-56.5 1146.5,-56.5"/>
<text text-anchor="middle" x="1169" y="-63.5" font-family="Helvetica,sans-Serif" font-size="10.00" fill="#000000">gsl/gsl</text>
</g>
<!-- Node2&#45;&gt;Node13 -->
<g id="edge13" class="edge">
<title>Node2&#45;&gt;Node13</title>
<path fill="none" stroke="#191970" d="M728.2682,-118.5831C823.5394,-111.2084 1042.9556,-93.2134 1136.4516,-75.6484"/>
<polygon fill="#191970" stroke="#191970" points="1137.292,-79.0501 1146.4223,-73.6754 1135.9331,-72.1832 1137.292,-79.0501"/>
</g>
<!-- Node14 -->
<g id="node15" class="node">
<title>Node14</title>
<polygon fill="#ffffff" stroke="#bfbfbf" points="98.5,-56.5 98.5,-75.5 205.5,-75.5 205.5,-56.5 98.5,-56.5"/>
<text text-anchor="middle" x="152" y="-63.5" font-family="Helvetica,sans-Serif" font-size="10.00" fill="#000000">boost/filesystem.hpp</text>
</g>
<!-- Node2&#45;&gt;Node14 -->
<g id="edge14" class="edge">
<title>Node2&#45;&gt;Node14</title>
<path fill="none" stroke="#191970" d="M637.7208,-118.45C555.7719,-111.8291 377.1862,-96.5039 215.7045,-76.0209"/>
<polygon fill="#191970" stroke="#191970" points="215.9481,-72.5237 205.5851,-74.7276 215.0607,-79.4672 215.9481,-72.5237"/>
</g>
<!-- Node15 -->
<g id="node16" class="node">
<title>Node15</title>
<polygon fill="#ffffff" stroke="#bfbfbf" points="224,-56.5 224,-75.5 320,-75.5 320,-56.5 224,-56.5"/>
<text text-anchor="middle" x="272" y="-63.5" font-family="Helvetica,sans-Serif" font-size="10.00" fill="#000000">boost/optional.hpp</text>
</g>
<!-- Node2&#45;&gt;Node15 -->
<g id="edge15" class="edge">
<title>Node2&#45;&gt;Node15</title>
<path fill="none" stroke="#191970" d="M637.9254,-116.7936C572.4827,-109.0915 447.0975,-93.798 330.3607,-76.1557"/>
<polygon fill="#191970" stroke="#191970" points="330.5899,-72.6504 320.1773,-74.6072 329.5375,-79.5708 330.5899,-72.6504"/>
</g>
<!-- Node8 -->
<g id="node9" class="node">
<title>Node8</title>
<polygon fill="#ffffff" stroke="#bfbfbf" points="963,-.5 963,-19.5 1015,-19.5 1015,-.5 963,-.5"/>
<text text-anchor="middle" x="989" y="-7.5" font-family="Helvetica,sans-Serif" font-size="10.00" fill="#000000">sstream</text>
</g>
<!-- Node7&#45;&gt;Node8 -->
<g id="edge8" class="edge">
<title>Node7&#45;&gt;Node8</title>
<path fill="none" stroke="#191970" d="M989,-56.2455C989,-48.9382 989,-38.6944 989,-29.7046"/>
<polygon fill="#191970" stroke="#191970" points="992.5001,-29.6426 989,-19.6427 985.5001,-29.6427 992.5001,-29.6426"/>
</g>
<!-- Node16&#45;&gt;Node12 -->
<g id="edge24" class="edge">
<title>Node16&#45;&gt;Node12</title>
<path fill="none" stroke="#191970" d="M799.9239,-172.5842C680.2876,-159.1306 363.9768,-122.0503 90.1999,-76.1153"/>
<polygon fill="#191970" stroke="#191970" points="90.5125,-72.6187 80.0699,-74.4083 89.3493,-79.5214 90.5125,-72.6187"/>
</g>
<!-- Node17 -->
<g id="node18" class="node">
<title>Node17</title>
<g id="a_node18"><a xlink:href="ChigModule_8hpp.html" target="_top" xlink:title="Defines the ChigModule class. ">
<polygon fill="#ffffff" stroke="#000000" points="825.5,-112.5 825.5,-131.5 932.5,-131.5 932.5,-112.5 825.5,-112.5"/>
<text text-anchor="middle" x="879" y="-119.5" font-family="Helvetica,sans-Serif" font-size="10.00" fill="#000000">chig/ChigModule.hpp</text>
</a>
</g>
</g>
<!-- Node16&#45;&gt;Node17 -->
<g id="edge17" class="edge">
<title>Node16&#45;&gt;Node17</title>
<path fill="none" stroke="#191970" d="M854.2256,-168.2455C858.3123,-160.617 864.1135,-149.7881 869.075,-140.5267"/>
<polygon fill="#191970" stroke="#191970" points="872.1972,-142.1103 873.8343,-131.6427 866.0268,-138.8047 872.1972,-142.1103"/>
</g>
<!-- Node17&#45;&gt;Node5 -->
<g id="edge22" class="edge">
<title>Node17&#45;&gt;Node5</title>
<path fill="none" stroke="#191970" d="M861.233,-112.2455C845.2905,-103.4928 821.6741,-90.527 803.5011,-80.5496"/>
<polygon fill="#191970" stroke="#191970" points="805.0137,-77.3873 794.5634,-75.6427 801.6448,-83.5233 805.0137,-77.3873"/>
</g>
<!-- Node17&#45;&gt;Node6 -->
<g id="edge18" class="edge">
<title>Node17&#45;&gt;Node6</title>
<path fill="none" stroke="#191970" d="M845.3064,-112.3733C812.2913,-102.9404 761.8427,-88.5265 725.9614,-78.2747"/>
<polygon fill="#191970" stroke="#191970" points="726.8307,-74.8831 716.2539,-75.5011 724.9076,-81.6137 726.8307,-74.8831"/>
</g>
<!-- Node17&#45;&gt;Node7 -->
<g id="edge19" class="edge">
<title>Node17&#45;&gt;Node7</title>
<path fill="none" stroke="#191970" d="M898.1605,-112.2455C915.5111,-103.4125 941.2901,-90.2887 960.9583,-80.2758"/>
<polygon fill="#191970" stroke="#191970" points="962.7353,-83.2986 970.059,-75.6427 959.5595,-77.0605 962.7353,-83.2986"/>
</g>
<!-- Node17&#45;&gt;Node9 -->
<g id="edge20" class="edge">
<title>Node17&#45;&gt;Node9</title>
<path fill="none" stroke="#191970" d="M915.4441,-112.3733C951.3069,-102.9001 1006.1878,-88.4032 1045.0282,-78.1435"/>
<polygon fill="#191970" stroke="#191970" points="1046.257,-81.439 1055.0315,-75.5011 1044.4692,-74.6712 1046.257,-81.439"/>
</g>
<!-- Node17&#45;&gt;Node11 -->
<g id="edge23" class="edge">
<title>Node17&#45;&gt;Node11</title>
<path fill="none" stroke="#191970" d="M879,-112.2455C879,-104.9382 879,-94.6944 879,-85.7046"/>
<polygon fill="#191970" stroke="#191970" points="882.5001,-85.6426 879,-75.6427 875.5001,-85.6427 882.5001,-85.6426"/>
</g>
<!-- Node17&#45;&gt;Node13 -->
<g id="edge21" class="edge">
<title>Node17&#45;&gt;Node13</title>
<path fill="none" stroke="#191970" d="M932.7781,-114.4399C983.1048,-106.9092 1060.4981,-94.1639 1136.6163,-75.8409"/>
<polygon fill="#191970" stroke="#191970" points="1137.489,-79.2308 1146.3738,-73.4593 1135.8291,-72.4304 1137.489,-79.2308"/>
</g>
<!-- Node18&#45;&gt;Node7 -->
<g id="edge26" class="edge">
<title>Node18&#45;&gt;Node7</title>
<path fill="none" stroke="#191970" d="M1032.7681,-112.2455C1025.1683,-104.2155 1014.2123,-92.6394 1005.1632,-83.0781"/>
<polygon fill="#191970" stroke="#191970" points="1007.542,-80.4998 998.1261,-75.6427 1002.4579,-85.3115 1007.542,-80.4998"/>
</g>
<!-- Node18&#45;&gt;Node9 -->
<g id="edge27" class="edge">
<title>Node18&#45;&gt;Node9</title>
<path fill="none" stroke="#191970" d="M1050.5351,-112.2455C1057.4912,-104.2958 1067.4883,-92.8706 1075.8051,-83.3656"/>
<polygon fill="#191970" stroke="#191970" points="1078.6116,-85.4732 1082.5627,-75.6427 1073.3436,-80.8637 1078.6116,-85.4732"/>
</g>
<!-- Node18&#45;&gt;Node13 -->
<g id="edge28" class="edge">
<title>Node18&#45;&gt;Node13</title>
<path fill="none" stroke="#191970" d="M1063.8321,-112.3733C1084.3103,-103.3435 1115.1399,-89.7494 1138.1319,-79.6111"/>
<polygon fill="#191970" stroke="#191970" points="1139.715,-82.7383 1147.4528,-75.5011 1136.8907,-76.3333 1139.715,-82.7383"/>
</g>
</g>
</svg>
