<?xml version="1.0" encoding="UTF-8" standalone="no"?>
<!DOCTYPE svg PUBLIC "-//W3C//DTD SVG 1.1//EN"
 "http://www.w3.org/Graphics/SVG/1.1/DTD/svg11.dtd">
<!-- Generated by graphviz version 2.40.1 (20161225.0304)
 -->
<!-- Title: libchig/include/chig/NodeType.hpp Pages: 1 -->
<svg width="1558pt" height="274pt"
 viewBox="0.00 0.00 1557.50 274.00" xmlns="http://www.w3.org/2000/svg" xmlns:xlink="http://www.w3.org/1999/xlink">
<g id="graph0" class="graph" transform="scale(1 1) rotate(0) translate(4 270)">
<title>libchig/include/chig/NodeType.hpp</title>
<polygon fill="#ffffff" stroke="transparent" points="-4,4 -4,-270 1553.5,-270 1553.5,4 -4,4"/>
<!-- Node0 -->
<g id="node1" class="node">
<title>Node0</title>
<polygon fill="#bfbfbf" stroke="#000000" points="771,-235.5 771,-265.5 870,-265.5 870,-235.5 771,-235.5"/>
<text text-anchor="start" x="779" y="-253.5" font-family="Helvetica,sans-Serif" font-size="10.00" fill="#000000">libchig/include/chig</text>
<text text-anchor="middle" x="820.5" y="-242.5" font-family="Helvetica,sans-Serif" font-size="10.00" fill="#000000">/NodeType.hpp</text>
</g>
<!-- Node1 -->
<g id="node2" class="node">
<title>Node1</title>
<g id="a_node2"><a xlink:href="Context_8hpp.html" target="_top" xlink:title="Defines the Context class and related functions. ">
<polygon fill="#ffffff" stroke="#000000" points="769.5,-123.5 769.5,-142.5 859.5,-142.5 859.5,-123.5 769.5,-123.5"/>
<text text-anchor="middle" x="814.5" y="-130.5" font-family="Helvetica,sans-Serif" font-size="10.00" fill="#000000">chig/Context.hpp</text>
</a>
</g>
</g>
<!-- Node0&#45;&gt;Node1 -->
<g id="edge1" class="edge">
<title>Node0&#45;&gt;Node1</title>
<path fill="none" stroke="#191970" d="M770.5971,-243.0416C722.9694,-234.7822 656.2041,-219.8273 640.5,-199 635.1485,-191.9026 635.077,-186.043 640.5,-179 655.0325,-160.1264 713.9751,-147.4173 759.2733,-140.2246"/>
<polygon fill="#191970" stroke="#191970" points="759.9385,-143.6636 769.2918,-138.6871 758.8766,-136.7446 759.9385,-143.6636"/>
</g>
<!-- Node17 -->
<g id="node18" class="node">
<title>Node17</title>
<g id="a_node18"><a xlink:href="DataType_8hpp.html" target="_top" xlink:title="Defines the DataType class. ">
<polygon fill="#ffffff" stroke="#000000" points="649.5,-179.5 649.5,-198.5 747.5,-198.5 747.5,-179.5 649.5,-179.5"/>
<text text-anchor="middle" x="698.5" y="-186.5" font-family="Helvetica,sans-Serif" font-size="10.00" fill="#000000">chig/DataType.hpp</text>
</a>
</g>
</g>
<!-- Node0&#45;&gt;Node17 -->
<g id="edge17" class="edge">
<title>Node0&#45;&gt;Node17</title>
<path fill="none" stroke="#191970" d="M790.6554,-235.4554C771.103,-225.599 745.7128,-212.7999 726.5355,-203.1327"/>
<polygon fill="#191970" stroke="#191970" points="727.9108,-199.9064 717.4057,-198.5303 724.7598,-206.1571 727.9108,-199.9064"/>
</g>
<!-- Node20 -->
<g id="node21" class="node">
<title>Node20</title>
<g id="a_node21"><a xlink:href="Result_8hpp.html" target="_top" xlink:title="Defines the Result class and related functions. ">
<polygon fill="#ffffff" stroke="#000000" points="145.5,-123.5 145.5,-142.5 229.5,-142.5 229.5,-123.5 145.5,-123.5"/>
<text text-anchor="middle" x="187.5" y="-130.5" font-family="Helvetica,sans-Serif" font-size="10.00" fill="#000000">chig/Result.hpp</text>
</a>
</g>
</g>
<!-- Node0&#45;&gt;Node20 -->
<g id="edge29" class="edge">
<title>Node0&#45;&gt;Node20</title>
<path fill="none" stroke="#191970" d="M770.8296,-241.28C653.4437,-219.4903 359.7708,-164.9776 239.8,-142.7081"/>
<polygon fill="#191970" stroke="#191970" points="240.2323,-139.2287 229.7615,-140.8447 238.9547,-146.1111 240.2323,-139.2287"/>
</g>
<!-- Node21 -->
<g id="node22" class="node">
<title>Node21</title>
<polygon fill="#ffffff" stroke="#bfbfbf" points="766,-179.5 766,-198.5 813,-198.5 813,-179.5 766,-179.5"/>
<text text-anchor="middle" x="789.5" y="-186.5" font-family="Helvetica,sans-Serif" font-size="10.00" fill="#000000">iterator</text>
</g>
<!-- Node0&#45;&gt;Node21 -->
<g id="edge33" class="edge">
<title>Node0&#45;&gt;Node21</title>
<path fill="none" stroke="#191970" d="M812.8371,-235.2977C808.6684,-227.0277 803.4735,-216.7215 799.0439,-207.9339"/>
<polygon fill="#191970" stroke="#191970" points="802.0901,-206.2012 794.4635,-198.8469 795.8393,-209.3521 802.0901,-206.2012"/>
</g>
<!-- Node22 -->
<g id="node23" class="node">
<title>Node22</title>
<polygon fill="#ffffff" stroke="#bfbfbf" points="831.5,-179.5 831.5,-198.5 871.5,-198.5 871.5,-179.5 831.5,-179.5"/>
<text text-anchor="middle" x="851.5" y="-186.5" font-family="Helvetica,sans-Serif" font-size="10.00" fill="#000000">utility</text>
</g>
<!-- Node0&#45;&gt;Node22 -->
<g id="edge34" class="edge">
<title>Node0&#45;&gt;Node22</title>
<path fill="none" stroke="#191970" d="M828.1629,-235.2977C832.3316,-227.0277 837.5265,-216.7215 841.9561,-207.9339"/>
<polygon fill="#191970" stroke="#191970" points="845.1607,-209.3521 846.5365,-198.8469 838.9099,-206.2012 845.1607,-209.3521"/>
</g>
<!-- Node23 -->
<g id="node24" class="node">
<title>Node23</title>
<polygon fill="#ffffff" stroke="#bfbfbf" points="889.5,-179.5 889.5,-198.5 987.5,-198.5 987.5,-179.5 889.5,-179.5"/>
<text text-anchor="middle" x="938.5" y="-186.5" font-family="Helvetica,sans-Serif" font-size="10.00" fill="#000000">llvm/IR/DIBuilder.h</text>
</g>
<!-- Node0&#45;&gt;Node23 -->
<g id="edge35" class="edge">
<title>Node0&#45;&gt;Node23</title>
<path fill="none" stroke="#191970" d="M849.366,-235.4554C868.1911,-225.644 892.611,-212.9167 911.1292,-203.2653"/>
<polygon fill="#191970" stroke="#191970" points="912.964,-206.2559 920.2142,-198.5303 909.7287,-200.0484 912.964,-206.2559"/>
</g>
<!-- Node24 -->
<g id="node25" class="node">
<title>Node24</title>
<polygon fill="#ffffff" stroke="#bfbfbf" points="1005.5,-179.5 1005.5,-198.5 1101.5,-198.5 1101.5,-179.5 1005.5,-179.5"/>
<text text-anchor="middle" x="1053.5" y="-186.5" font-family="Helvetica,sans-Serif" font-size="10.00" fill="#000000">llvm/IR/Function.h</text>
</g>
<!-- Node0&#45;&gt;Node24 -->
<g id="edge36" class="edge">
<title>Node0&#45;&gt;Node24</title>
<path fill="none" stroke="#191970" d="M870.1986,-237.3821C910.8578,-226.6502 967.9134,-211.5904 1007.5261,-201.1347"/>
<polygon fill="#191970" stroke="#191970" points="1008.4251,-204.5174 1017.2007,-198.5811 1006.6386,-197.7492 1008.4251,-204.5174"/>
</g>
<!-- Node25 -->
<g id="node26" class="node">
<title>Node25</title>
<polygon fill="#ffffff" stroke="#bfbfbf" points="1120,-179.5 1120,-198.5 1203,-198.5 1203,-179.5 1120,-179.5"/>
<text text-anchor="middle" x="1161.5" y="-186.5" font-family="Helvetica,sans-Serif" font-size="10.00" fill="#000000">llvm/IR/Value.h</text>
</g>
<!-- Node0&#45;&gt;Node25 -->
<g id="edge37" class="edge">
<title>Node0&#45;&gt;Node25</title>
<path fill="none" stroke="#191970" d="M870.0665,-241.9752C925.8128,-232.3254 1019.3158,-215.9544 1109.8773,-199.0917"/>
<polygon fill="#191970" stroke="#191970" points="1110.575,-202.522 1119.7631,-197.2467 1109.2907,-195.6408 1110.575,-202.522"/>
</g>
<!-- Node2 -->
<g id="node3" class="node">
<title>Node2</title>
<polygon fill="#ffffff" stroke="#bfbfbf" points="879.5,-62 879.5,-81 931.5,-81 931.5,-62 879.5,-62"/>
<text text-anchor="middle" x="905.5" y="-69" font-family="Helvetica,sans-Serif" font-size="10.00" fill="#000000">memory</text>
</g>
<!-- Node1&#45;&gt;Node2 -->
<g id="edge2" class="edge">
<title>Node1&#45;&gt;Node2</title>
<path fill="none" stroke="#191970" d="M828.7188,-123.3906C843.1434,-113.6421 865.6976,-98.3994 882.636,-86.9521"/>
<polygon fill="#191970" stroke="#191970" points="885.0556,-89.5412 891.3811,-81.0419 881.1359,-83.7415 885.0556,-89.5412"/>
</g>
<!-- Node3 -->
<g id="node4" class="node">
<title>Node3</title>
<polygon fill="#ffffff" stroke="#bfbfbf" points="950,-62 950,-81 1033,-81 1033,-62 950,-62"/>
<text text-anchor="middle" x="991.5" y="-69" font-family="Helvetica,sans-Serif" font-size="10.00" fill="#000000">unordered_map</text>
</g>
<!-- Node1&#45;&gt;Node3 -->
<g id="edge3" class="edge">
<title>Node1&#45;&gt;Node3</title>
<path fill="none" stroke="#191970" d="M842.1563,-123.3906C872.4211,-112.8749 921.0855,-95.966 954.5911,-84.3243"/>
<polygon fill="#191970" stroke="#191970" points="955.7407,-87.6302 964.038,-81.0419 953.4431,-81.0179 955.7407,-87.6302"/>
</g>
<!-- Node4 -->
<g id="node5" class="node">
<title>Node4</title>
<polygon fill="#ffffff" stroke="#bfbfbf" points="471.5,-62 471.5,-81 549.5,-81 549.5,-62 471.5,-62"/>
<text text-anchor="middle" x="510.5" y="-69" font-family="Helvetica,sans-Serif" font-size="10.00" fill="#000000">unordered_set</text>
</g>
<!-- Node1&#45;&gt;Node4 -->
<g id="edge4" class="edge">
<title>Node1&#45;&gt;Node4</title>
<path fill="none" stroke="#191970" d="M769.2536,-126.7529C717.7901,-119.2132 631.4387,-105.2416 558.5,-87 554.9346,-86.1083 551.2481,-85.0924 547.5762,-84.017"/>
<polygon fill="#191970" stroke="#191970" points="548.5698,-80.6609 537.9831,-81.0757 546.5178,-87.3534 548.5698,-80.6609"/>
</g>
<!-- Node5 -->
<g id="node6" class="node">
<title>Node5</title>
<g id="a_node6"><a xlink:href="Fwd_8hpp.html" target="_top" xlink:title="Forward declares all the chigraph data types. ">
<polygon fill="#ffffff" stroke="#000000" points="567.5,-62 567.5,-81 641.5,-81 641.5,-62 567.5,-62"/>
<text text-anchor="middle" x="604.5" y="-69" font-family="Helvetica,sans-Serif" font-size="10.00" fill="#000000">chig/Fwd.hpp</text>
</a>
</g>
</g>
<!-- Node1&#45;&gt;Node5 -->
<g id="edge5" class="edge">
<title>Node1&#45;&gt;Node5</title>
<path fill="none" stroke="#191970" d="M778.5128,-123.4789C745.1807,-114.5248 694.2983,-100.5117 650.5,-87 647.7067,-86.1383 644.8258,-85.2255 641.9324,-84.2913"/>
<polygon fill="#191970" stroke="#191970" points="642.7484,-80.8753 632.1555,-81.0758 640.5614,-87.5249 642.7484,-80.8753"/>
</g>
<!-- Node6 -->
<g id="node7" class="node">
<title>Node6</title>
<g id="a_node7"><a xlink:href="ToString_8hpp_source.html" target="_top" xlink:title="chig/ToString.hpp">
<polygon fill="#ffffff" stroke="#000000" points="0,-62 0,-81 93,-81 93,-62 0,-62"/>
<text text-anchor="middle" x="46.5" y="-69" font-family="Helvetica,sans-Serif" font-size="10.00" fill="#000000">chig/ToString.hpp</text>
</a>
</g>
</g>
<!-- Node1&#45;&gt;Node6 -->
<g id="edge6" class="edge">
<title>Node1&#45;&gt;Node6</title>
<path fill="none" stroke="#191970" d="M769.1461,-131.2903C633.387,-125.9798 231.663,-108.8091 102.5,-87 97.2872,-86.1198 91.8618,-84.9504 86.5294,-83.6472"/>
<polygon fill="#191970" stroke="#191970" points="87.0299,-80.1604 76.4697,-81.0167 85.259,-86.9327 87.0299,-80.1604"/>
</g>
<!-- Node8 -->
<g id="node9" class="node">
<title>Node8</title>
<polygon fill="#ffffff" stroke="#bfbfbf" points="111.5,-62 111.5,-81 185.5,-81 185.5,-62 111.5,-62"/>
<text text-anchor="middle" x="148.5" y="-69" font-family="Helvetica,sans-Serif" font-size="10.00" fill="#000000">chig/json.hpp</text>
</g>
<!-- Node1&#45;&gt;Node8 -->
<g id="edge8" class="edge">
<title>Node1&#45;&gt;Node8</title>
<path fill="none" stroke="#191970" d="M769.333,-131.1209C645.8752,-125.7504 304.6572,-109.2764 194.5,-87 190.6152,-86.2144 186.6052,-85.1943 182.6471,-84.0524"/>
<polygon fill="#191970" stroke="#191970" points="183.6056,-80.6849 173.0163,-81.0271 181.5078,-87.3632 183.6056,-80.6849"/>
</g>
<!-- Node9 -->
<g id="node10" class="node">
<title>Node9</title>
<polygon fill="#ffffff" stroke="#bfbfbf" points="1090,-56.5 1090,-86.5 1201,-86.5 1201,-56.5 1090,-56.5"/>
<text text-anchor="start" x="1098" y="-74.5" font-family="Helvetica,sans-Serif" font-size="10.00" fill="#000000">llvm/ExecutionEngine</text>
<text text-anchor="middle" x="1145.5" y="-63.5" font-family="Helvetica,sans-Serif" font-size="10.00" fill="#000000">/GenericValue.h</text>
</g>
<!-- Node1&#45;&gt;Node9 -->
<g id="edge9" class="edge">
<title>Node1&#45;&gt;Node9</title>
<path fill="none" stroke="#191970" d="M859.8764,-125.6173C912.0291,-116.9897 1000.1358,-101.9778 1075.5,-87 1076.9497,-86.7119 1078.4156,-86.4171 1079.893,-86.117"/>
<polygon fill="#191970" stroke="#191970" points="1080.6804,-89.5283 1089.7616,-84.0711 1079.2593,-82.674 1080.6804,-89.5283"/>
</g>
<!-- Node10 -->
<g id="node11" class="node">
<title>Node10</title>
<polygon fill="#ffffff" stroke="#bfbfbf" points="1219.5,-62 1219.5,-81 1337.5,-81 1337.5,-62 1219.5,-62"/>
<text text-anchor="middle" x="1278.5" y="-69" font-family="Helvetica,sans-Serif" font-size="10.00" fill="#000000">llvm/IR/LLVMContext.h</text>
</g>
<!-- Node1&#45;&gt;Node10 -->
<g id="edge10" class="edge">
<title>Node1&#45;&gt;Node10</title>
<path fill="none" stroke="#191970" d="M859.564,-129.3686C933.2877,-123.0689 1084.1298,-108.6764 1210.5,-87 1216.8437,-85.9119 1223.4848,-84.6073 1230.0263,-83.2232"/>
<polygon fill="#191970" stroke="#191970" points="1231.1471,-86.5607 1240.1667,-81.0022 1229.6494,-79.7228 1231.1471,-86.5607"/>
</g>
<!-- Node11 -->
<g id="node12" class="node">
<title>Node11</title>
<polygon fill="#ffffff" stroke="#bfbfbf" points="659.5,-62 659.5,-81 749.5,-81 749.5,-62 659.5,-62"/>
<text text-anchor="middle" x="704.5" y="-69" font-family="Helvetica,sans-Serif" font-size="10.00" fill="#000000">llvm/IR/Module.h</text>
</g>
<!-- Node1&#45;&gt;Node11 -->
<g id="edge11" class="edge">
<title>Node1&#45;&gt;Node11</title>
<path fill="none" stroke="#191970" d="M797.3125,-123.3906C779.3918,-113.3713 751.0905,-97.5483 730.4477,-86.0071"/>
<polygon fill="#191970" stroke="#191970" points="732.0033,-82.867 721.5668,-81.0419 728.5872,-88.9769 732.0033,-82.867"/>
</g>
<!-- Node12 -->
<g id="node13" class="node">
<title>Node12</title>
<polygon fill="#ffffff" stroke="#bfbfbf" points="1469.5,-62 1469.5,-81 1549.5,-81 1549.5,-62 1469.5,-62"/>
<text text-anchor="middle" x="1509.5" y="-69" font-family="Helvetica,sans-Serif" font-size="10.00" fill="#000000">llvm/IR/Type.h</text>
</g>
<!-- Node1&#45;&gt;Node12 -->
<g id="edge12" class="edge">
<title>Node1&#45;&gt;Node12</title>
<path fill="none" stroke="#191970" d="M859.7018,-131.1661C986.6958,-125.7939 1344.9518,-109.0697 1460.5,-87 1464.7396,-86.1902 1469.1266,-85.133 1473.4539,-83.9508"/>
<polygon fill="#191970" stroke="#191970" points="1474.7498,-87.2174 1483.3452,-81.0231 1472.763,-80.5053 1474.7498,-87.2174"/>
</g>
<!-- Node13 -->
<g id="node14" class="node">
<title>Node13</title>
<polygon fill="#ffffff" stroke="#bfbfbf" points="204,-62 204,-81 249,-81 249,-62 204,-62"/>
<text text-anchor="middle" x="226.5" y="-69" font-family="Helvetica,sans-Serif" font-size="10.00" fill="#000000">gsl/gsl</text>
</g>
<!-- Node1&#45;&gt;Node13 -->
<g id="edge13" class="edge">
<title>Node1&#45;&gt;Node13</title>
<path fill="none" stroke="#191970" d="M769.2256,-130.9521C678.8955,-126.432 470.0455,-113.8045 296.5,-87 284.1314,-85.0896 270.6804,-82.2889 258.9051,-79.5918"/>
<polygon fill="#191970" stroke="#191970" points="259.5939,-76.1583 249.0579,-77.2733 257.9896,-82.972 259.5939,-76.1583"/>
</g>
<!-- Node14 -->
<g id="node15" class="node">
<title>Node14</title>
<polygon fill="#ffffff" stroke="#bfbfbf" points="767.5,-56.5 767.5,-86.5 861.5,-86.5 861.5,-56.5 767.5,-56.5"/>
<text text-anchor="start" x="775.5" y="-74.5" font-family="Helvetica,sans-Serif" font-size="10.00" fill="#000000">boost/utility/string</text>
<text text-anchor="middle" x="814.5" y="-63.5" font-family="Helvetica,sans-Serif" font-size="10.00" fill="#000000">_view.hpp</text>
</g>
<!-- Node1&#45;&gt;Node14 -->
<g id="edge14" class="edge">
<title>Node1&#45;&gt;Node14</title>
<path fill="none" stroke="#191970" d="M814.5,-123.3906C814.5,-116.2234 814.5,-106.0862 814.5,-96.671"/>
<polygon fill="#191970" stroke="#191970" points="818.0001,-96.5446 814.5,-86.5446 811.0001,-96.5446 818.0001,-96.5446"/>
</g>
<!-- Node15 -->
<g id="node16" class="node">
<title>Node15</title>
<polygon fill="#ffffff" stroke="#bfbfbf" points="326,-.5 326,-19.5 433,-19.5 433,-.5 326,-.5"/>
<text text-anchor="middle" x="379.5" y="-7.5" font-family="Helvetica,sans-Serif" font-size="10.00" fill="#000000">boost/filesystem.hpp</text>
</g>
<!-- Node1&#45;&gt;Node15 -->
<g id="edge15" class="edge">
<title>Node1&#45;&gt;Node15</title>
<path fill="none" stroke="#191970" d="M859.5175,-130.4816C919.2535,-126.0911 1019.8344,-114.6952 1042.5,-87 1051.226,-76.3377 1051.8992,-66.0739 1042.5,-56 1022.2458,-34.2918 605.8614,-17.7515 443.5175,-12.1047"/>
<polygon fill="#191970" stroke="#191970" points="443.3132,-8.5956 433.1984,-11.7485 443.0717,-15.5915 443.3132,-8.5956"/>
</g>
<!-- Node16 -->
<g id="node17" class="node">
<title>Node16</title>
<polygon fill="#ffffff" stroke="#bfbfbf" points="1355.5,-62 1355.5,-81 1451.5,-81 1451.5,-62 1355.5,-62"/>
<text text-anchor="middle" x="1403.5" y="-69" font-family="Helvetica,sans-Serif" font-size="10.00" fill="#000000">boost/optional.hpp</text>
</g>
<!-- Node1&#45;&gt;Node16 -->
<g id="edge16" class="edge">
<title>Node1&#45;&gt;Node16</title>
<path fill="none" stroke="#191970" d="M859.6955,-131.8204C951.8979,-128.8161 1168.0563,-118.7125 1346.5,-87 1351.6684,-86.0815 1357.0488,-84.9106 1362.3498,-83.625"/>
<polygon fill="#191970" stroke="#191970" points="1363.5568,-86.9285 1372.3695,-81.0474 1361.8128,-80.1492 1363.5568,-86.9285"/>
</g>
<!-- Node7 -->
<g id="node8" class="node">
<title>Node7</title>
<polygon fill="#ffffff" stroke="#bfbfbf" points="20.5,-.5 20.5,-19.5 72.5,-19.5 72.5,-.5 20.5,-.5"/>
<text text-anchor="middle" x="46.5" y="-7.5" font-family="Helvetica,sans-Serif" font-size="10.00" fill="#000000">sstream</text>
</g>
<!-- Node6&#45;&gt;Node7 -->
<g id="edge7" class="edge">
<title>Node6&#45;&gt;Node7</title>
<path fill="none" stroke="#191970" d="M46.5,-61.8906C46.5,-53.3657 46.5,-40.6392 46.5,-29.9235"/>
<polygon fill="#191970" stroke="#191970" points="50.0001,-29.7448 46.5,-19.7449 43.0001,-29.7449 50.0001,-29.7448"/>
</g>
<!-- Node17&#45;&gt;Node12 -->
<g id="edge28" class="edge">
<title>Node17&#45;&gt;Node12</title>
<path fill="none" stroke="#191970" d="M747.5249,-180.4028C750.5599,-179.9154 753.5702,-179.4438 756.5,-179 1068.49,-131.7387 1152.4298,-155.2943 1460.5,-87 1464.4063,-86.134 1468.4476,-85.0958 1472.4568,-83.9723"/>
<polygon fill="#191970" stroke="#191970" points="1473.6757,-87.2613 1482.2612,-81.0533 1471.6782,-80.5524 1473.6757,-87.2613"/>
</g>
<!-- Node18 -->
<g id="node19" class="node">
<title>Node18</title>
<g id="a_node19"><a xlink:href="ChigModule_8hpp.html" target="_top" xlink:title="Defines the ChigModule class. ">
<polygon fill="#ffffff" stroke="#000000" points="457,-123.5 457,-142.5 564,-142.5 564,-123.5 457,-123.5"/>
<text text-anchor="middle" x="510.5" y="-130.5" font-family="Helvetica,sans-Serif" font-size="10.00" fill="#000000">chig/ChigModule.hpp</text>
</a>
</g>
</g>
<!-- Node17&#45;&gt;Node18 -->
<g id="edge18" class="edge">
<title>Node17&#45;&gt;Node18</title>
<path fill="none" stroke="#191970" d="M666.1816,-179.3733C634.6494,-169.9807 586.5379,-155.6496 552.1499,-145.4064"/>
<polygon fill="#191970" stroke="#191970" points="552.9797,-142.0016 542.3966,-142.5011 550.9813,-148.7103 552.9797,-142.0016"/>
</g>
<!-- Node18&#45;&gt;Node4 -->
<g id="edge26" class="edge">
<title>Node18&#45;&gt;Node4</title>
<path fill="none" stroke="#191970" d="M510.5,-123.3906C510.5,-114.8657 510.5,-102.1392 510.5,-91.4235"/>
<polygon fill="#191970" stroke="#191970" points="514.0001,-91.2448 510.5,-81.2449 507.0001,-91.2449 514.0001,-91.2448"/>
</g>
<!-- Node18&#45;&gt;Node5 -->
<g id="edge19" class="edge">
<title>Node18&#45;&gt;Node5</title>
<path fill="none" stroke="#191970" d="M525.1875,-123.3906C540.2256,-113.5519 563.8176,-98.1167 581.3667,-86.6351"/>
<polygon fill="#191970" stroke="#191970" points="583.4637,-89.4457 589.9156,-81.0419 579.6313,-83.588 583.4637,-89.4457"/>
</g>
<!-- Node18&#45;&gt;Node6 -->
<g id="edge22" class="edge">
<title>Node18&#45;&gt;Node6</title>
<path fill="none" stroke="#191970" d="M456.9544,-129.667C378.5861,-124.1797 228.2959,-111.3429 102.5,-87 97.678,-86.0669 92.6646,-84.9281 87.707,-83.6955"/>
<polygon fill="#191970" stroke="#191970" points="88.2491,-80.2195 77.6884,-81.0698 86.4744,-86.9908 88.2491,-80.2195"/>
</g>
<!-- Node18&#45;&gt;Node8 -->
<g id="edge23" class="edge">
<title>Node18&#45;&gt;Node8</title>
<path fill="none" stroke="#191970" d="M456.8274,-128.168C393.5073,-121.784 285.3525,-108.7312 194.5,-87 191.0346,-86.1711 187.4591,-85.1932 183.9044,-84.1381"/>
<polygon fill="#191970" stroke="#191970" points="184.6402,-80.6999 174.0502,-81.0199 182.5283,-87.3738 184.6402,-80.6999"/>
</g>
<!-- Node18&#45;&gt;Node11 -->
<g id="edge27" class="edge">
<title>Node18&#45;&gt;Node11</title>
<path fill="none" stroke="#191970" d="M540.8125,-123.3906C574.1265,-112.8298 627.7808,-95.8208 664.5181,-84.1747"/>
<polygon fill="#191970" stroke="#191970" points="665.9256,-87.4002 674.4004,-81.0419 663.8102,-80.7275 665.9256,-87.4002"/>
</g>
<!-- Node18&#45;&gt;Node14 -->
<g id="edge24" class="edge">
<title>Node18&#45;&gt;Node14</title>
<path fill="none" stroke="#191970" d="M564.4764,-124.3747C612.6366,-116.3663 685.263,-103.5244 757.0899,-87.2206"/>
<polygon fill="#191970" stroke="#191970" points="758.2529,-90.5448 767.2171,-84.8973 756.6876,-83.7221 758.2529,-90.5448"/>
</g>
<!-- Node18&#45;&gt;Node15 -->
<g id="edge25" class="edge">
<title>Node18&#45;&gt;Node15</title>
<path fill="none" stroke="#191970" d="M456.8419,-129.0139C400.1646,-123.5564 316.2915,-111.4979 296.5,-87 287.8416,-76.2827 289.5068,-67.8711 296.5,-56 305.2946,-41.071 320.8717,-30.6447 336.1742,-23.541"/>
<polygon fill="#191970" stroke="#191970" points="337.7671,-26.6672 345.6035,-19.5368 335.031,-20.224 337.7671,-26.6672"/>
</g>
<!-- Node19 -->
<g id="node20" class="node">
<title>Node19</title>
<g id="a_node20"><a xlink:href="HashFilesystemPath_8hpp_source.html" target="_top" xlink:title="chig/HashFilesystemPath.hpp">
<polygon fill="#ffffff" stroke="#000000" points="306,-62 306,-81 453,-81 453,-62 306,-62"/>
<text text-anchor="middle" x="379.5" y="-69" font-family="Helvetica,sans-Serif" font-size="10.00" fill="#000000">chig/HashFilesystemPath.hpp</text>
</a>
</g>
</g>
<!-- Node18&#45;&gt;Node19 -->
<g id="edge20" class="edge">
<title>Node18&#45;&gt;Node19</title>
<path fill="none" stroke="#191970" d="M490.0313,-123.3906C468.3048,-113.1908 433.7665,-96.9763 409.0815,-85.3875"/>
<polygon fill="#191970" stroke="#191970" points="410.3645,-82.1234 399.825,-81.0419 407.3897,-88.4598 410.3645,-82.1234"/>
</g>
<!-- Node19&#45;&gt;Node15 -->
<g id="edge21" class="edge">
<title>Node19&#45;&gt;Node15</title>
<path fill="none" stroke="#191970" d="M379.5,-61.8906C379.5,-53.3657 379.5,-40.6392 379.5,-29.9235"/>
<polygon fill="#191970" stroke="#191970" points="383.0001,-29.7448 379.5,-19.7449 376.0001,-29.7449 383.0001,-29.7448"/>
</g>
<!-- Node20&#45;&gt;Node6 -->
<g id="edge30" class="edge">
<title>Node20&#45;&gt;Node6</title>
<path fill="none" stroke="#191970" d="M165.4688,-123.3906C141.8769,-113.1005 104.2499,-96.6888 77.6367,-85.0809"/>
<polygon fill="#191970" stroke="#191970" points="78.9419,-81.8318 68.3765,-81.0419 76.1433,-88.248 78.9419,-81.8318"/>
</g>
<!-- Node20&#45;&gt;Node8 -->
<g id="edge31" class="edge">
<title>Node20&#45;&gt;Node8</title>
<path fill="none" stroke="#191970" d="M181.4063,-123.3906C175.7157,-114.417 167.0728,-100.7879 160.0726,-89.7491"/>
<polygon fill="#191970" stroke="#191970" points="162.9909,-87.8155 154.6797,-81.2449 157.0793,-91.5644 162.9909,-87.8155"/>
</g>
<!-- Node20&#45;&gt;Node13 -->
<g id="edge32" class="edge">
<title>Node20&#45;&gt;Node13</title>
<path fill="none" stroke="#191970" d="M193.5938,-123.3906C199.2843,-114.417 207.9272,-100.7879 214.9274,-89.7491"/>
<polygon fill="#191970" stroke="#191970" points="217.9207,-91.5644 220.3203,-81.2449 212.0091,-87.8155 217.9207,-91.5644"/>
</g>
</g>
</svg>
