<?xml version="1.0" encoding="UTF-8" standalone="no"?>
<!DOCTYPE svg PUBLIC "-//W3C//DTD SVG 1.1//EN"
 "http://www.w3.org/Graphics/SVG/1.1/DTD/svg11.dtd">
<!-- Generated by graphviz version 2.40.1 (20161225.0304)
 -->
<!-- Title: src/NodeInstance.cpp Pages: 1 -->
<svg width="1809pt" height="431pt"
 viewBox="0.00 0.00 1809.47 431.00" xmlns="http://www.w3.org/2000/svg" xmlns:xlink="http://www.w3.org/1999/xlink">
<g id="graph0" class="graph" transform="scale(1 1) rotate(0) translate(4 427)">
<title>src/NodeInstance.cpp</title>
<polygon fill="#ffffff" stroke="transparent" points="-4,4 -4,-427 1805.4651,-427 1805.4651,4 -4,4"/>
<!-- Node0 -->
<g id="node1" class="node">
<title>Node0</title>
<polygon fill="#bfbfbf" stroke="#000000" points="587.9559,-403.5 587.9559,-422.5 708.9559,-422.5 708.9559,-403.5 587.9559,-403.5"/>
<text text-anchor="middle" x="648.4559" y="-410.5" font-family="Helvetica,sans-Serif" font-size="10.00" fill="#000000">src/NodeInstance.cpp</text>
</g>
<!-- Node1 -->
<g id="node2" class="node">
<title>Node1</title>
<g id="a_node2"><a xlink:href="NodeInstance_8hpp.html" target="_top" xlink:title="Defines the NodeInstance class and related functions. ">
<polygon fill="#ffffff" stroke="#000000" points="584.4559,-347.5 584.4559,-366.5 712.4559,-366.5 712.4559,-347.5 584.4559,-347.5"/>
<text text-anchor="middle" x="648.4559" y="-354.5" font-family="Helvetica,sans-Serif" font-size="10.00" fill="#000000">chig/NodeInstance.hpp</text>
</a>
</g>
</g>
<!-- Node0&#45;&gt;Node1 -->
<g id="edge1" class="edge">
<title>Node0&#45;&gt;Node1</title>
<path fill="none" stroke="#191970" d="M648.4559,-403.2455C648.4559,-395.9382 648.4559,-385.6944 648.4559,-376.7046"/>
<polygon fill="#191970" stroke="#191970" points="651.956,-376.6426 648.4559,-366.6427 644.956,-376.6427 651.956,-376.6426"/>
</g>
<!-- Node17 -->
<g id="node18" class="node">
<title>Node17</title>
<polygon fill="#ffffff" stroke="#bfbfbf" points="1042.4559,-56.5 1042.4559,-75.5 1090.4559,-75.5 1090.4559,-56.5 1042.4559,-56.5"/>
<text text-anchor="middle" x="1066.4559" y="-63.5" font-family="Helvetica,sans-Serif" font-size="10.00" fill="#000000">gsl/gsl</text>
</g>
<!-- Node0&#45;&gt;Node17 -->
<g id="edge54" class="edge">
<title>Node0&#45;&gt;Node17</title>
<path fill="none" stroke="#191970" d="M709.1215,-410.3099C946.5129,-399.3898 1799.4559,-356.3059 1799.4559,-301 1799.4559,-301 1799.4559,-301 1799.4559,-189 1799.4559,-153.7513 1807.4925,-134.6162 1780.4559,-112 1754.1078,-89.9597 1240.0496,-71.659 1100.9219,-67.0951"/>
<polygon fill="#191970" stroke="#191970" points="1100.9354,-63.5938 1090.8268,-66.7666 1100.7076,-70.5901 1100.9354,-63.5938"/>
</g>
<!-- Node32 -->
<g id="node33" class="node">
<title>Node32</title>
<g id="a_node33"><a xlink:href="FunctionValidator_8hpp.html" target="_top" xlink:title="Defines functions for validating GraphFunction objects. ">
<polygon fill="#ffffff" stroke="#000000" points="94.4559,-179.5 94.4559,-198.5 240.4559,-198.5 240.4559,-179.5 94.4559,-179.5"/>
<text text-anchor="middle" x="167.4559" y="-186.5" font-family="Helvetica,sans-Serif" font-size="10.00" fill="#000000">chig/FunctionValidator.hpp</text>
</a>
</g>
</g>
<!-- Node0&#45;&gt;Node32 -->
<g id="edge51" class="edge">
<title>Node0&#45;&gt;Node32</title>
<path fill="none" stroke="#191970" d="M627.788,-403.375C551.7005,-367.9414 286.9678,-244.6563 197.3662,-202.9291"/>
<polygon fill="#191970" stroke="#191970" points="198.5897,-199.638 188.0469,-198.5891 195.6345,-205.9837 198.5897,-199.638"/>
</g>
<!-- Node2 -->
<g id="node3" class="node">
<title>Node2</title>
<g id="a_node3"><a xlink:href="NodeType_8hpp.html" target="_top" xlink:title="Defines the NodeType class. ">
<polygon fill="#ffffff" stroke="#000000" points="720.4559,-291.5 720.4559,-310.5 830.4559,-310.5 830.4559,-291.5 720.4559,-291.5"/>
<text text-anchor="middle" x="775.4559" y="-298.5" font-family="Helvetica,sans-Serif" font-size="10.00" fill="#000000">chig/NodeType.hpp</text>
</a>
</g>
</g>
<!-- Node1&#45;&gt;Node2 -->
<g id="edge2" class="edge">
<title>Node1&#45;&gt;Node2</title>
<path fill="none" stroke="#191970" d="M670.288,-347.3733C690.7663,-338.3435 721.5958,-324.7494 744.5879,-314.6111"/>
<polygon fill="#191970" stroke="#191970" points="746.1709,-317.7383 753.9088,-310.5011 743.3467,-311.3333 746.1709,-317.7383"/>
</g>
<!-- Node8 -->
<g id="node9" class="node">
<title>Node8</title>
<polygon fill="#ffffff" stroke="#bfbfbf" points="768.9559,-118 768.9559,-137 815.9559,-137 815.9559,-118 768.9559,-118"/>
<text text-anchor="middle" x="792.4559" y="-125" font-family="Helvetica,sans-Serif" font-size="10.00" fill="#000000">vector</text>
</g>
<!-- Node1&#45;&gt;Node8 -->
<g id="edge50" class="edge">
<title>Node1&#45;&gt;Node8</title>
<path fill="none" stroke="#191970" d="M641.6635,-347.1963C627.9215,-326.0647 599.5136,-274.9088 616.4559,-235 645.9876,-165.4364 690.4474,-173.8064 759.4559,-143 760.6264,-142.4775 761.8181,-141.9407 763.0205,-141.3951"/>
<polygon fill="#191970" stroke="#191970" points="764.6518,-144.4971 772.2682,-137.1323 761.7214,-138.14 764.6518,-144.4971"/>
</g>
<!-- Node3 -->
<g id="node4" class="node">
<title>Node3</title>
<g id="a_node4"><a xlink:href="Context_8hpp.html" target="_top" xlink:title="Defines the Context class and related functions. ">
<polygon fill="#ffffff" stroke="#000000" points="1035.9559,-179.5 1035.9559,-198.5 1134.9559,-198.5 1134.9559,-179.5 1035.9559,-179.5"/>
<text text-anchor="middle" x="1085.4559" y="-186.5" font-family="Helvetica,sans-Serif" font-size="10.00" fill="#000000">chig/Context.hpp</text>
</a>
</g>
</g>
<!-- Node2&#45;&gt;Node3 -->
<g id="edge3" class="edge">
<title>Node2&#45;&gt;Node3</title>
<path fill="none" stroke="#191970" d="M830.4637,-298.8336C976.2729,-292.8261 1362.8514,-275.0703 1381.4559,-255 1387.4988,-248.4811 1387.2386,-241.7508 1381.4559,-235 1366.3083,-217.3165 1227.4918,-201.8623 1145.4502,-194.1726"/>
<polygon fill="#191970" stroke="#191970" points="1145.5291,-190.6651 1135.2492,-193.229 1144.8843,-197.6353 1145.5291,-190.6651"/>
</g>
<!-- Node12 -->
<g id="node13" class="node">
<title>Node12</title>
<polygon fill="#ffffff" stroke="#bfbfbf" points="108.9559,-56.5 108.9559,-75.5 189.9559,-75.5 189.9559,-56.5 108.9559,-56.5"/>
<text text-anchor="middle" x="149.4559" y="-63.5" font-family="Helvetica,sans-Serif" font-size="10.00" fill="#000000">chig/json.hpp</text>
</g>
<!-- Node2&#45;&gt;Node12 -->
<g id="edge40" class="edge">
<title>Node2&#45;&gt;Node12</title>
<path fill="none" stroke="#191970" d="M720.1935,-298.6229C597.3185,-292.9957 304.7199,-277.6136 208.4559,-255 143.2165,-239.6744 125.0306,-234.9217 68.4559,-199 28.8033,-173.8228 -19.1299,-150.0164 8.4559,-112 19.4105,-96.9034 63.1255,-84.1612 99.012,-75.9437"/>
<polygon fill="#191970" stroke="#191970" points="99.8901,-79.3341 108.8925,-73.7478 98.3713,-72.5008 99.8901,-79.3341"/>
</g>
<!-- Node13 -->
<g id="node14" class="node">
<title>Node13</title>
<polygon fill="#ffffff" stroke="#bfbfbf" points="1643.9559,-118 1643.9559,-137 1770.9559,-137 1770.9559,-118 1643.9559,-118"/>
<text text-anchor="middle" x="1707.4559" y="-125" font-family="Helvetica,sans-Serif" font-size="10.00" fill="#000000">llvm/IR/LLVMContext.h</text>
</g>
<!-- Node2&#45;&gt;Node13 -->
<g id="edge47" class="edge">
<title>Node2&#45;&gt;Node13</title>
<path fill="none" stroke="#191970" d="M830.7343,-299.1632C962.3601,-294.4279 1291.3374,-280.3661 1398.4559,-255 1507.9708,-229.0664 1628.8862,-169.2566 1681.0829,-141.7779"/>
<polygon fill="#191970" stroke="#191970" points="1682.8194,-144.8187 1690.0112,-137.0387 1679.5374,-138.6358 1682.8194,-144.8187"/>
</g>
<!-- Node14 -->
<g id="node15" class="node">
<title>Node14</title>
<polygon fill="#ffffff" stroke="#bfbfbf" points="834.4559,-118 834.4559,-137 932.4559,-137 932.4559,-118 834.4559,-118"/>
<text text-anchor="middle" x="883.4559" y="-125" font-family="Helvetica,sans-Serif" font-size="10.00" fill="#000000">llvm/IR/Module.h</text>
</g>
<!-- Node2&#45;&gt;Node14 -->
<g id="edge48" class="edge">
<title>Node2&#45;&gt;Node14</title>
<path fill="none" stroke="#191970" d="M720.2662,-296.475C667.5772,-289.7926 599.7316,-273.5865 625.4559,-235 650.034,-198.1329 770.8438,-159.1584 838.0779,-139.8453"/>
<polygon fill="#191970" stroke="#191970" points="839.3258,-143.1294 847.9884,-137.0294 837.4125,-136.3959 839.3258,-143.1294"/>
</g>
<!-- Node20 -->
<g id="node21" class="node">
<title>Node20</title>
<g id="a_node21"><a xlink:href="DataType_8hpp.html" target="_top" xlink:title="Defines the DataType class. ">
<polygon fill="#ffffff" stroke="#000000" points="410.4559,-235.5 410.4559,-254.5 518.4559,-254.5 518.4559,-235.5 410.4559,-235.5"/>
<text text-anchor="middle" x="464.4559" y="-242.5" font-family="Helvetica,sans-Serif" font-size="10.00" fill="#000000">chig/DataType.hpp</text>
</a>
</g>
</g>
<!-- Node2&#45;&gt;Node20 -->
<g id="edge20" class="edge">
<title>Node2&#45;&gt;Node20</title>
<path fill="none" stroke="#191970" d="M722.3465,-291.4369C668.3385,-281.712 584.6664,-266.6456 527.3695,-256.3285"/>
<polygon fill="#191970" stroke="#191970" points="527.8083,-252.8513 517.3463,-254.5237 526.5678,-259.7405 527.8083,-252.8513"/>
</g>
<!-- Node22 -->
<g id="node23" class="node">
<title>Node22</title>
<g id="a_node23"><a xlink:href="Result_8hpp.html" target="_top" xlink:title="Defines the Result class and related functions. ">
<polygon fill="#ffffff" stroke="#000000" points="17.4559,-118 17.4559,-137 109.4559,-137 109.4559,-118 17.4559,-118"/>
<text text-anchor="middle" x="63.4559" y="-125" font-family="Helvetica,sans-Serif" font-size="10.00" fill="#000000">chig/Result.hpp</text>
</a>
</g>
</g>
<!-- Node2&#45;&gt;Node22 -->
<g id="edge39" class="edge">
<title>Node2&#45;&gt;Node22</title>
<path fill="none" stroke="#191970" d="M720.4113,-296.3086C565.336,-282.6191 133.0047,-241.0281 85.4559,-199 70.7499,-186.0014 65.7399,-163.4326 64.1031,-147.1227"/>
<polygon fill="#191970" stroke="#191970" points="67.5876,-146.7712 63.4312,-137.0257 60.603,-147.2361 67.5876,-146.7712"/>
</g>
<!-- Node25 -->
<g id="node26" class="node">
<title>Node25</title>
<polygon fill="#ffffff" stroke="#bfbfbf" points="634.9559,-235.5 634.9559,-254.5 687.9559,-254.5 687.9559,-235.5 634.9559,-235.5"/>
<text text-anchor="middle" x="661.4559" y="-242.5" font-family="Helvetica,sans-Serif" font-size="10.00" fill="#000000">iterator</text>
</g>
<!-- Node2&#45;&gt;Node25 -->
<g id="edge41" class="edge">
<title>Node2&#45;&gt;Node25</title>
<path fill="none" stroke="#191970" d="M755.8586,-291.3733C737.7228,-282.4644 710.5424,-269.1127 689.9973,-259.0203"/>
<polygon fill="#191970" stroke="#191970" points="691.3163,-255.7688 680.7975,-254.5011 688.2299,-262.0517 691.3163,-255.7688"/>
</g>
<!-- Node26 -->
<g id="node27" class="node">
<title>Node26</title>
<polygon fill="#ffffff" stroke="#bfbfbf" points="705.9559,-235.5 705.9559,-254.5 750.9559,-254.5 750.9559,-235.5 705.9559,-235.5"/>
<text text-anchor="middle" x="728.4559" y="-242.5" font-family="Helvetica,sans-Serif" font-size="10.00" fill="#000000">utility</text>
</g>
<!-- Node2&#45;&gt;Node26 -->
<g id="edge42" class="edge">
<title>Node2&#45;&gt;Node26</title>
<path fill="none" stroke="#191970" d="M767.2692,-291.2455C760.5971,-283.2958 751.008,-271.8706 743.0306,-262.3656"/>
<polygon fill="#191970" stroke="#191970" points="745.6586,-260.0524 736.5489,-254.6427 740.2967,-264.5525 745.6586,-260.0524"/>
</g>
<!-- Node27 -->
<g id="node28" class="node">
<title>Node27</title>
<polygon fill="#ffffff" stroke="#bfbfbf" points="769.4559,-235.5 769.4559,-254.5 877.4559,-254.5 877.4559,-235.5 769.4559,-235.5"/>
<text text-anchor="middle" x="823.4559" y="-242.5" font-family="Helvetica,sans-Serif" font-size="10.00" fill="#000000">llvm/IR/DIBuilder.h</text>
</g>
<!-- Node2&#45;&gt;Node27 -->
<g id="edge43" class="edge">
<title>Node2&#45;&gt;Node27</title>
<path fill="none" stroke="#191970" d="M783.8169,-291.2455C790.631,-283.2958 800.424,-271.8706 808.5712,-262.3656"/>
<polygon fill="#191970" stroke="#191970" points="811.3403,-264.513 815.1908,-254.6427 806.0254,-259.9575 811.3403,-264.513"/>
</g>
<!-- Node28 -->
<g id="node29" class="node">
<title>Node28</title>
<polygon fill="#ffffff" stroke="#bfbfbf" points="895.4559,-235.5 895.4559,-254.5 999.4559,-254.5 999.4559,-235.5 895.4559,-235.5"/>
<text text-anchor="middle" x="947.4559" y="-242.5" font-family="Helvetica,sans-Serif" font-size="10.00" fill="#000000">llvm/IR/Function.h</text>
</g>
<!-- Node2&#45;&gt;Node28 -->
<g id="edge44" class="edge">
<title>Node2&#45;&gt;Node28</title>
<path fill="none" stroke="#191970" d="M805.0238,-291.3733C833.6248,-282.0613 877.1348,-267.8953 908.5378,-257.671"/>
<polygon fill="#191970" stroke="#191970" points="909.8488,-260.9251 918.2739,-254.5011 907.6816,-254.269 909.8488,-260.9251"/>
</g>
<!-- Node29 -->
<g id="node30" class="node">
<title>Node29</title>
<polygon fill="#ffffff" stroke="#bfbfbf" points="1017.9559,-235.5 1017.9559,-254.5 1124.9559,-254.5 1124.9559,-235.5 1017.9559,-235.5"/>
<text text-anchor="middle" x="1071.4559" y="-242.5" font-family="Helvetica,sans-Serif" font-size="10.00" fill="#000000">llvm/IR/IRBuilder.h</text>
</g>
<!-- Node2&#45;&gt;Node29 -->
<g id="edge45" class="edge">
<title>Node2&#45;&gt;Node29</title>
<path fill="none" stroke="#191970" d="M826.0038,-291.4369C877.3005,-281.7321 956.7138,-266.708 1011.2378,-256.3926"/>
<polygon fill="#191970" stroke="#191970" points="1011.9415,-259.8217 1021.1165,-254.5237 1010.6402,-252.9437 1011.9415,-259.8217"/>
</g>
<!-- Node30 -->
<g id="node31" class="node">
<title>Node30</title>
<polygon fill="#ffffff" stroke="#bfbfbf" points="1143.4559,-235.5 1143.4559,-254.5 1263.4559,-254.5 1263.4559,-235.5 1143.4559,-235.5"/>
<text text-anchor="middle" x="1203.4559" y="-242.5" font-family="Helvetica,sans-Serif" font-size="10.00" fill="#000000">llvm/IR/Instructions.h</text>
</g>
<!-- Node2&#45;&gt;Node30 -->
<g id="edge46" class="edge">
<title>Node2&#45;&gt;Node30</title>
<path fill="none" stroke="#191970" d="M830.6841,-294.149C899.0408,-285.6145 1019.2887,-270.423 1133.1926,-255.0196"/>
<polygon fill="#191970" stroke="#191970" points="1133.695,-258.4836 1143.1344,-253.6724 1132.755,-251.547 1133.695,-258.4836"/>
</g>
<!-- Node31 -->
<g id="node32" class="node">
<title>Node31</title>
<polygon fill="#ffffff" stroke="#bfbfbf" points="1281.9559,-235.5 1281.9559,-254.5 1372.9559,-254.5 1372.9559,-235.5 1281.9559,-235.5"/>
<text text-anchor="middle" x="1327.4559" y="-242.5" font-family="Helvetica,sans-Serif" font-size="10.00" fill="#000000">llvm/IR/Value.h</text>
</g>
<!-- Node2&#45;&gt;Node31 -->
<g id="edge49" class="edge">
<title>Node2&#45;&gt;Node31</title>
<path fill="none" stroke="#191970" d="M830.7952,-297.4671C920.9687,-291.3616 1105.3856,-277.4225 1271.9544,-254.9555"/>
<polygon fill="#191970" stroke="#191970" points="1272.4505,-258.4203 1281.8866,-253.6027 1271.5057,-251.4843 1272.4505,-258.4203"/>
</g>
<!-- Node4 -->
<g id="node5" class="node">
<title>Node4</title>
<polygon fill="#ffffff" stroke="#bfbfbf" points="1529.4559,-118 1529.4559,-137 1587.4559,-137 1587.4559,-118 1529.4559,-118"/>
<text text-anchor="middle" x="1558.4559" y="-125" font-family="Helvetica,sans-Serif" font-size="10.00" fill="#000000">memory</text>
</g>
<!-- Node3&#45;&gt;Node4 -->
<g id="edge4" class="edge">
<title>Node3&#45;&gt;Node4</title>
<path fill="none" stroke="#191970" d="M1135.0441,-185.4522C1232.9121,-178.1697 1447.6407,-160.7225 1519.4559,-143 1522.2412,-142.3126 1525.0924,-141.47 1527.9232,-140.5362"/>
<polygon fill="#191970" stroke="#191970" points="1529.1471,-143.8154 1537.3442,-137.1029 1526.7502,-137.2386 1529.1471,-143.8154"/>
</g>
<!-- Node5 -->
<g id="node6" class="node">
<title>Node5</title>
<polygon fill="#ffffff" stroke="#bfbfbf" points="490.4559,-118 490.4559,-137 534.4559,-137 534.4559,-118 490.4559,-118"/>
<text text-anchor="middle" x="512.4559" y="-125" font-family="Helvetica,sans-Serif" font-size="10.00" fill="#000000">string</text>
</g>
<!-- Node3&#45;&gt;Node5 -->
<g id="edge5" class="edge">
<title>Node3&#45;&gt;Node5</title>
<path fill="none" stroke="#191970" d="M1035.5378,-187.1701C919.6514,-182.5345 635.2737,-168.8228 543.4559,-143 541.7435,-142.5184 540.0132,-141.9413 538.292,-141.2973"/>
<polygon fill="#191970" stroke="#191970" points="539.2827,-137.9089 528.7208,-137.0741 536.4569,-144.3132 539.2827,-137.9089"/>
</g>
<!-- Node6 -->
<g id="node7" class="node">
<title>Node6</title>
<polygon fill="#ffffff" stroke="#bfbfbf" points="552.9559,-118 552.9559,-137 645.9559,-137 645.9559,-118 552.9559,-118"/>
<text text-anchor="middle" x="599.4559" y="-125" font-family="Helvetica,sans-Serif" font-size="10.00" fill="#000000">unordered_map</text>
</g>
<!-- Node3&#45;&gt;Node6 -->
<g id="edge6" class="edge">
<title>Node3&#45;&gt;Node6</title>
<path fill="none" stroke="#191970" d="M1035.7348,-186.3275C955.2549,-181.4106 791.7121,-168.9644 655.4559,-143 650.4439,-142.0449 645.2265,-140.8622 640.0803,-139.5791"/>
<polygon fill="#191970" stroke="#191970" points="640.906,-136.1773 630.3449,-137.0213 639.1272,-142.9475 640.906,-136.1773"/>
</g>
<!-- Node7 -->
<g id="node8" class="node">
<title>Node7</title>
<polygon fill="#ffffff" stroke="#bfbfbf" points="664.4559,-118 664.4559,-137 750.4559,-137 750.4559,-118 664.4559,-118"/>
<text text-anchor="middle" x="707.4559" y="-125" font-family="Helvetica,sans-Serif" font-size="10.00" fill="#000000">unordered_set</text>
</g>
<!-- Node3&#45;&gt;Node7 -->
<g id="edge7" class="edge">
<title>Node3&#45;&gt;Node7</title>
<path fill="none" stroke="#191970" d="M1035.894,-184.3371C971.6423,-177.7615 856.343,-164.1512 759.4559,-143 755.2626,-142.0846 750.9147,-141.004 746.6001,-139.8461"/>
<polygon fill="#191970" stroke="#191970" points="747.2565,-136.3946 736.6817,-137.0452 745.3541,-143.1312 747.2565,-136.3946"/>
</g>
<!-- Node3&#45;&gt;Node8 -->
<g id="edge8" class="edge">
<title>Node3&#45;&gt;Node8</title>
<path fill="none" stroke="#191970" d="M1035.646,-184.1416C982.6107,-178.0605 896.6789,-165.5881 825.4559,-143 823.6006,-142.4116 821.7149,-141.7409 819.8329,-141.0162"/>
<polygon fill="#191970" stroke="#191970" points="821.1816,-137.7864 810.6107,-137.0733 818.4296,-144.2228 821.1816,-137.7864"/>
</g>
<!-- Node9 -->
<g id="node10" class="node">
<title>Node9</title>
<g id="a_node10"><a xlink:href="Fwd_8hpp.html" target="_top" xlink:title="Forward declares all the chigraph data types. ">
<polygon fill="#ffffff" stroke="#000000" points="127.4559,-118 127.4559,-137 207.4559,-137 207.4559,-118 127.4559,-118"/>
<text text-anchor="middle" x="167.4559" y="-125" font-family="Helvetica,sans-Serif" font-size="10.00" fill="#000000">chig/Fwd.hpp</text>
</a>
</g>
</g>
<!-- Node3&#45;&gt;Node9 -->
<g id="edge9" class="edge">
<title>Node3&#45;&gt;Node9</title>
<path fill="none" stroke="#191970" d="M1035.6339,-188.3414C906.3015,-186.1776 549.3976,-177.3092 254.4559,-143 242.4312,-141.6012 229.5538,-139.5922 217.4918,-137.4819"/>
<polygon fill="#191970" stroke="#191970" points="218.0504,-134.0263 207.5881,-135.6967 216.8086,-140.9153 218.0504,-134.0263"/>
</g>
<!-- Node10 -->
<g id="node11" class="node">
<title>Node10</title>
<g id="a_node11"><a xlink:href="ToString_8hpp_source.html" target="_top" xlink:title="chig/ToString.hpp">
<polygon fill="#ffffff" stroke="#000000" points="373.9559,-56.5 373.9559,-75.5 474.9559,-75.5 474.9559,-56.5 373.9559,-56.5"/>
<text text-anchor="middle" x="424.4559" y="-63.5" font-family="Helvetica,sans-Serif" font-size="10.00" fill="#000000">chig/ToString.hpp</text>
</a>
</g>
</g>
<!-- Node3&#45;&gt;Node10 -->
<g id="edge10" class="edge">
<title>Node3&#45;&gt;Node10</title>
<path fill="none" stroke="#191970" d="M1088.3448,-179.3668C1092.5887,-163.0117 1098.2183,-129.8543 1080.4559,-112 1059.6256,-91.0619 643.7483,-73.9143 485.167,-68.1126"/>
<polygon fill="#191970" stroke="#191970" points="485.2211,-64.6123 475.1006,-67.7469 484.9669,-71.6077 485.2211,-64.6123"/>
</g>
<!-- Node3&#45;&gt;Node12 -->
<g id="edge12" class="edge">
<title>Node3&#45;&gt;Node12</title>
<path fill="none" stroke="#191970" d="M1083.7752,-179.3801C1080.2458,-162.4184 1070.3241,-127.522 1046.4559,-112 1041.9856,-109.0928 389.5355,-77.5348 200.3289,-68.4398"/>
<polygon fill="#191970" stroke="#191970" points="200.2585,-64.9325 190.102,-67.9484 199.9224,-71.9244 200.2585,-64.9325"/>
</g>
<!-- Node3&#45;&gt;Node13 -->
<g id="edge13" class="edge">
<title>Node3&#45;&gt;Node13</title>
<path fill="none" stroke="#191970" d="M1135.1686,-186.66C1231.1093,-181.7322 1448.3241,-168.5735 1629.4559,-143 1637.4256,-141.8748 1645.8105,-140.4582 1654.008,-138.9414"/>
<polygon fill="#191970" stroke="#191970" points="1654.7096,-142.3708 1663.8739,-137.0543 1653.3944,-135.4954 1654.7096,-142.3708"/>
</g>
<!-- Node3&#45;&gt;Node14 -->
<g id="edge14" class="edge">
<title>Node3&#45;&gt;Node14</title>
<path fill="none" stroke="#191970" d="M1053.8934,-179.3906C1019.0575,-168.7846 962.861,-151.6753 924.5971,-140.0257"/>
<polygon fill="#191970" stroke="#191970" points="925.3827,-136.6063 914.7968,-137.0419 923.3439,-143.3028 925.3827,-136.6063"/>
</g>
<!-- Node15 -->
<g id="node16" class="node">
<title>Node15</title>
<polygon fill="#ffffff" stroke="#bfbfbf" points="950.9559,-118 950.9559,-137 1037.9559,-137 1037.9559,-118 950.9559,-118"/>
<text text-anchor="middle" x="994.4559" y="-125" font-family="Helvetica,sans-Serif" font-size="10.00" fill="#000000">llvm/IR/Type.h</text>
</g>
<!-- Node3&#45;&gt;Node15 -->
<g id="edge15" class="edge">
<title>Node3&#45;&gt;Node15</title>
<path fill="none" stroke="#191970" d="M1071.2372,-179.3906C1056.8126,-169.6421 1034.2583,-154.3994 1017.32,-142.9521"/>
<polygon fill="#191970" stroke="#191970" points="1018.82,-139.7415 1008.5749,-137.0419 1014.9004,-145.5412 1018.82,-139.7415"/>
</g>
<!-- Node16 -->
<g id="node17" class="node">
<title>Node16</title>
<polygon fill="#ffffff" stroke="#bfbfbf" points="1132.4559,-112.5 1132.4559,-142.5 1248.4559,-142.5 1248.4559,-112.5 1132.4559,-112.5"/>
<text text-anchor="start" x="1140.4559" y="-130.5" font-family="Helvetica,sans-Serif" font-size="10.00" fill="#000000">llvm/Support/raw_os</text>
<text text-anchor="middle" x="1190.4559" y="-119.5" font-family="Helvetica,sans-Serif" font-size="10.00" fill="#000000">_ostream.h</text>
</g>
<!-- Node3&#45;&gt;Node16 -->
<g id="edge16" class="edge">
<title>Node3&#45;&gt;Node16</title>
<path fill="none" stroke="#191970" d="M1101.8622,-179.3906C1116.3358,-170.9132 1137.9032,-158.2809 1156.1341,-147.6028"/>
<polygon fill="#191970" stroke="#191970" points="1157.9101,-150.6188 1164.7701,-142.5446 1154.3723,-144.5786 1157.9101,-150.6188"/>
</g>
<!-- Node3&#45;&gt;Node17 -->
<g id="edge17" class="edge">
<title>Node3&#45;&gt;Node17</title>
<path fill="none" stroke="#191970" d="M1134.9972,-188.2538C1257.2591,-185.9006 1565.6948,-176.6546 1596.4559,-143 1605.7513,-132.8303 1605.7676,-122.1548 1596.4559,-112 1562.9328,-75.4412 1212.4667,-67.8471 1100.5835,-66.35"/>
<polygon fill="#191970" stroke="#191970" points="1100.5628,-62.8495 1090.5195,-66.2233 1100.4747,-69.849 1100.5628,-62.8495"/>
</g>
<!-- Node18 -->
<g id="node19" class="node">
<title>Node18</title>
<polygon fill="#ffffff" stroke="#bfbfbf" points="1266.9559,-118 1266.9559,-137 1385.9559,-137 1385.9559,-118 1266.9559,-118"/>
<text text-anchor="middle" x="1326.4559" y="-125" font-family="Helvetica,sans-Serif" font-size="10.00" fill="#000000">boost/filesystem.hpp</text>
</g>
<!-- Node3&#45;&gt;Node18 -->
<g id="edge18" class="edge">
<title>Node3&#45;&gt;Node18</title>
<path fill="none" stroke="#191970" d="M1122.8478,-179.4581C1164.8849,-168.7308 1233.232,-151.2895 1279.0005,-139.61"/>
<polygon fill="#191970" stroke="#191970" points="1280.1524,-142.9283 1288.9764,-137.0643 1278.4215,-136.1457 1280.1524,-142.9283"/>
</g>
<!-- Node19 -->
<g id="node20" class="node">
<title>Node19</title>
<polygon fill="#ffffff" stroke="#bfbfbf" points="1403.9559,-118 1403.9559,-137 1510.9559,-137 1510.9559,-118 1403.9559,-118"/>
<text text-anchor="middle" x="1457.4559" y="-125" font-family="Helvetica,sans-Serif" font-size="10.00" fill="#000000">boost/optional.hpp</text>
</g>
<!-- Node3&#45;&gt;Node19 -->
<g id="edge19" class="edge">
<title>Node3&#45;&gt;Node19</title>
<path fill="none" stroke="#191970" d="M1135.2043,-183.0491C1196.4721,-175.3863 1303.5927,-160.9002 1394.4559,-143 1399.9125,-141.925 1405.6078,-140.6882 1411.2467,-139.3918"/>
<polygon fill="#191970" stroke="#191970" points="1412.3487,-142.7277 1421.2723,-137.0162 1410.7347,-135.9163 1412.3487,-142.7277"/>
</g>
<!-- Node11 -->
<g id="node12" class="node">
<title>Node11</title>
<polygon fill="#ffffff" stroke="#bfbfbf" points="396.4559,-.5 396.4559,-19.5 452.4559,-19.5 452.4559,-.5 396.4559,-.5"/>
<text text-anchor="middle" x="424.4559" y="-7.5" font-family="Helvetica,sans-Serif" font-size="10.00" fill="#000000">sstream</text>
</g>
<!-- Node10&#45;&gt;Node11 -->
<g id="edge11" class="edge">
<title>Node10&#45;&gt;Node11</title>
<path fill="none" stroke="#191970" d="M424.4559,-56.2455C424.4559,-48.9382 424.4559,-38.6944 424.4559,-29.7046"/>
<polygon fill="#191970" stroke="#191970" points="427.956,-29.6426 424.4559,-19.6427 420.956,-29.6427 427.956,-29.6426"/>
</g>
<!-- Node20&#45;&gt;Node9 -->
<g id="edge37" class="edge">
<title>Node20&#45;&gt;Node9</title>
<path fill="none" stroke="#191970" d="M440.4028,-235.484C387.6847,-214.6275 261.8429,-164.8416 201.2268,-140.8605"/>
<polygon fill="#191970" stroke="#191970" points="202.32,-137.5291 191.7336,-137.1048 199.7448,-144.0382 202.32,-137.5291"/>
</g>
<!-- Node20&#45;&gt;Node15 -->
<g id="edge38" class="edge">
<title>Node20&#45;&gt;Node15</title>
<path fill="none" stroke="#191970" d="M514.8713,-235.4916C602.207,-218.7369 787.1037,-182.0168 941.4559,-143 945.319,-142.0235 949.3246,-140.9555 953.3248,-139.8515"/>
<polygon fill="#191970" stroke="#191970" points="954.5036,-143.1555 963.1726,-137.0646 952.5974,-136.42 954.5036,-143.1555"/>
</g>
<!-- Node21 -->
<g id="node22" class="node">
<title>Node21</title>
<g id="a_node22"><a xlink:href="ChigModule_8hpp.html" target="_top" xlink:title="Defines the ChigModule class. ">
<polygon fill="#ffffff" stroke="#000000" points="384.4559,-179.5 384.4559,-198.5 502.4559,-198.5 502.4559,-179.5 384.4559,-179.5"/>
<text text-anchor="middle" x="443.4559" y="-186.5" font-family="Helvetica,sans-Serif" font-size="10.00" fill="#000000">chig/ChigModule.hpp</text>
</a>
</g>
</g>
<!-- Node20&#45;&gt;Node21 -->
<g id="edge21" class="edge">
<title>Node20&#45;&gt;Node21</title>
<path fill="none" stroke="#191970" d="M460.798,-235.2455C457.9976,-227.7776 454.047,-217.2427 450.6236,-208.1137"/>
<polygon fill="#191970" stroke="#191970" points="453.8604,-206.777 447.072,-198.6427 447.3061,-209.2349 453.8604,-206.777"/>
</g>
<!-- Node21&#45;&gt;Node5 -->
<g id="edge31" class="edge">
<title>Node21&#45;&gt;Node5</title>
<path fill="none" stroke="#191970" d="M454.2372,-179.3906C464.8085,-169.9683 481.1385,-155.4134 493.8162,-144.1137"/>
<polygon fill="#191970" stroke="#191970" points="496.3863,-146.5114 501.5227,-137.2449 491.7287,-141.2858 496.3863,-146.5114"/>
</g>
<!-- Node21&#45;&gt;Node6 -->
<g id="edge32" class="edge">
<title>Node21&#45;&gt;Node6</title>
<path fill="none" stroke="#191970" d="M467.8309,-179.3906C494.1616,-169.0103 536.2939,-152.4004 565.7788,-140.7766"/>
<polygon fill="#191970" stroke="#191970" points="567.2326,-143.9657 575.2521,-137.0419 564.6653,-137.4534 567.2326,-143.9657"/>
</g>
<!-- Node21&#45;&gt;Node7 -->
<g id="edge33" class="edge">
<title>Node21&#45;&gt;Node7</title>
<path fill="none" stroke="#191970" d="M491.8673,-179.4481C534.7805,-170.743 599.0517,-157.1225 654.4559,-143 658.317,-142.0158 662.3214,-140.9426 666.3207,-139.8353"/>
<polygon fill="#191970" stroke="#191970" points="667.5012,-143.1387 676.1673,-137.0437 665.5918,-136.4041 667.5012,-143.1387"/>
</g>
<!-- Node21&#45;&gt;Node8 -->
<g id="edge34" class="edge">
<title>Node21&#45;&gt;Node8</title>
<path fill="none" stroke="#191970" d="M502.5638,-180.8519C590.6255,-168.6469 747.2938,-146.6536 759.4559,-143 761.3655,-142.4264 763.3047,-141.7592 765.2375,-141.0302"/>
<polygon fill="#191970" stroke="#191970" points="766.8452,-144.15 774.6792,-137.0171 764.1069,-137.7078 766.8452,-144.15"/>
</g>
<!-- Node21&#45;&gt;Node9 -->
<g id="edge22" class="edge">
<title>Node21&#45;&gt;Node9</title>
<path fill="none" stroke="#191970" d="M392.068,-179.4893C346.9141,-170.8621 279.5415,-157.3327 221.4559,-143 217.4077,-142.0011 213.2057,-140.9036 209.0141,-139.7682"/>
<polygon fill="#191970" stroke="#191970" points="209.9018,-136.3824 199.3299,-137.079 208.0288,-143.1271 209.9018,-136.3824"/>
</g>
<!-- Node21&#45;&gt;Node10 -->
<g id="edge27" class="edge">
<title>Node21&#45;&gt;Node10</title>
<path fill="none" stroke="#191970" d="M441.9651,-179.3484C438.8573,-159.2295 431.6328,-112.4608 427.5006,-85.7098"/>
<polygon fill="#191970" stroke="#191970" points="430.9256,-84.9552 425.9399,-75.6068 424.0076,-86.0239 430.9256,-84.9552"/>
</g>
<!-- Node21&#45;&gt;Node12 -->
<g id="edge28" class="edge">
<title>Node21&#45;&gt;Node12</title>
<path fill="none" stroke="#191970" d="M384.0584,-181.4912C345.6031,-174.9836 295.2762,-163.3016 254.4559,-143 234.9404,-133.2941 233.8996,-125.0684 216.4559,-112 202.1432,-101.2772 185.579,-89.896 172.5014,-81.137"/>
<polygon fill="#191970" stroke="#191970" points="174.34,-78.1564 164.0753,-75.5323 170.4632,-83.9848 174.34,-78.1564"/>
</g>
<!-- Node21&#45;&gt;Node14 -->
<g id="edge35" class="edge">
<title>Node21&#45;&gt;Node14</title>
<path fill="none" stroke="#191970" d="M502.8052,-180.77C507.4228,-180.1602 512.0144,-179.5637 516.4559,-179 653.1799,-161.6467 689.0284,-168.5726 824.4559,-143 829.7894,-141.9929 835.352,-140.7678 840.8382,-139.4524"/>
<polygon fill="#191970" stroke="#191970" points="841.7159,-142.8408 850.565,-137.0146 840.0141,-136.0508 841.7159,-142.8408"/>
</g>
<!-- Node21&#45;&gt;Node17 -->
<g id="edge36" class="edge">
<title>Node21&#45;&gt;Node17</title>
<path fill="none" stroke="#191970" d="M445.0549,-179.4526C448.4326,-162.6058 458.0061,-127.8855 481.4559,-112 527.0547,-81.1103 913.0474,-69.5835 1031.8197,-66.7485"/>
<polygon fill="#191970" stroke="#191970" points="1032.2279,-70.2401 1042.1437,-66.5081 1032.0649,-63.242 1032.2279,-70.2401"/>
</g>
<!-- Node21&#45;&gt;Node22 -->
<g id="edge23" class="edge">
<title>Node21&#45;&gt;Node22</title>
<path fill="none" stroke="#191970" d="M384.33,-183.0431C318.8789,-175.8906 210.463,-162.3846 118.4559,-143 113.7873,-142.0164 108.9316,-140.8553 104.124,-139.6181"/>
<polygon fill="#191970" stroke="#191970" points="104.9643,-136.2198 94.3985,-137.0043 103.1474,-142.9799 104.9643,-136.2198"/>
</g>
<!-- Node23 -->
<g id="node24" class="node">
<title>Node23</title>
<polygon fill="#ffffff" stroke="#bfbfbf" points="263.9559,-118 263.9559,-137 312.9559,-137 312.9559,-118 263.9559,-118"/>
<text text-anchor="middle" x="288.4559" y="-125" font-family="Helvetica,sans-Serif" font-size="10.00" fill="#000000">cstdlib</text>
</g>
<!-- Node21&#45;&gt;Node23 -->
<g id="edge29" class="edge">
<title>Node21&#45;&gt;Node23</title>
<path fill="none" stroke="#191970" d="M416.0789,-179.3742C391.1927,-170.4598 353.566,-156.5698 321.4559,-143 320.1077,-142.4302 318.7337,-141.8369 317.3497,-141.2289"/>
<polygon fill="#191970" stroke="#191970" points="318.7889,-138.0386 308.2358,-137.0986 315.8994,-144.4144 318.7889,-138.0386"/>
</g>
<!-- Node24 -->
<g id="node25" class="node">
<title>Node24</title>
<polygon fill="#ffffff" stroke="#bfbfbf" points="330.9559,-118 330.9559,-137 395.9559,-137 395.9559,-118 330.9559,-118"/>
<text text-anchor="middle" x="363.4559" y="-125" font-family="Helvetica,sans-Serif" font-size="10.00" fill="#000000">functional</text>
</g>
<!-- Node21&#45;&gt;Node24 -->
<g id="edge30" class="edge">
<title>Node21&#45;&gt;Node24</title>
<path fill="none" stroke="#191970" d="M430.9559,-179.3906C418.3924,-169.7324 398.8136,-154.6812 383.9711,-143.271"/>
<polygon fill="#191970" stroke="#191970" points="385.9294,-140.3618 375.8682,-137.0419 381.6631,-145.9115 385.9294,-140.3618"/>
</g>
<!-- Node22&#45;&gt;Node10 -->
<g id="edge24" class="edge">
<title>Node22&#45;&gt;Node10</title>
<path fill="none" stroke="#191970" d="M94.6978,-117.9624C102.4165,-115.8093 110.6971,-113.6696 118.4559,-112 202.7824,-93.8543 301.7026,-80.3752 363.7387,-72.847"/>
<polygon fill="#191970" stroke="#191970" points="364.2361,-76.3126 373.7475,-71.6453 363.4016,-69.3625 364.2361,-76.3126"/>
</g>
<!-- Node22&#45;&gt;Node12 -->
<g id="edge25" class="edge">
<title>Node22&#45;&gt;Node12</title>
<path fill="none" stroke="#191970" d="M76.8934,-117.8906C90.5255,-108.1421 111.8405,-92.8994 127.8482,-81.4521"/>
<polygon fill="#191970" stroke="#191970" points="130.0146,-84.2057 136.1128,-75.5419 125.9427,-78.5118 130.0146,-84.2057"/>
</g>
<!-- Node22&#45;&gt;Node17 -->
<g id="edge26" class="edge">
<title>Node22&#45;&gt;Node17</title>
<path fill="none" stroke="#191970" d="M92.5798,-117.9692C100.8568,-115.6235 109.9375,-113.3886 118.4559,-112 299.7249,-82.4512 884.1401,-69.4834 1032.1421,-66.6255"/>
<polygon fill="#191970" stroke="#191970" points="1032.4887,-70.1197 1042.4203,-66.4299 1032.3554,-63.1209 1032.4887,-70.1197"/>
</g>
<!-- Node32&#45;&gt;Node9 -->
<g id="edge52" class="edge">
<title>Node32&#45;&gt;Node9</title>
<path fill="none" stroke="#191970" d="M167.4559,-179.3906C167.4559,-170.8657 167.4559,-158.1392 167.4559,-147.4235"/>
<polygon fill="#191970" stroke="#191970" points="170.956,-147.2448 167.4559,-137.2449 163.956,-147.2449 170.956,-147.2448"/>
</g>
<!-- Node32&#45;&gt;Node22 -->
<g id="edge53" class="edge">
<title>Node32&#45;&gt;Node22</title>
<path fill="none" stroke="#191970" d="M151.2059,-179.3906C134.3391,-169.4165 107.746,-153.6908 88.2525,-142.1633"/>
<polygon fill="#191970" stroke="#191970" points="89.981,-139.1194 79.5918,-137.0419 86.4179,-145.1447 89.981,-139.1194"/>
</g>
</g>
</svg>
