<?xml version="1.0" encoding="UTF-8" standalone="no"?>
<!DOCTYPE svg PUBLIC "-//W3C//DTD SVG 1.1//EN"
 "http://www.w3.org/Graphics/SVG/1.1/DTD/svg11.dtd">
<!-- Generated by graphviz version 2.40.1 (20161225.0304)
 -->
<!-- Title: libchigraph/include/chi/NodeInstance.hpp Pages: 1 -->
<svg width="562pt" height="95pt"
 viewBox="0.00 0.00 561.50 95.00" xmlns="http://www.w3.org/2000/svg" xmlns:xlink="http://www.w3.org/1999/xlink">
<g id="graph0" class="graph" transform="scale(1 1) rotate(0) translate(4 91)">
<title>libchigraph/include/chi/NodeInstance.hpp</title>
<polygon fill="#ffffff" stroke="transparent" points="-4,4 -4,-91 557.5,-91 557.5,4 -4,4"/>
<!-- Node0 -->
<g id="node1" class="node">
<title>Node0</title>
<polygon fill="#bfbfbf" stroke="#000000" points="143.5,-56.5 143.5,-86.5 257.5,-86.5 257.5,-56.5 143.5,-56.5"/>
<text text-anchor="start" x="151.5" y="-74.5" font-family="Helvetica,sans-Serif" font-size="10.00" fill="#000000">libchigraph/include</text>
<text text-anchor="middle" x="200.5" y="-63.5" font-family="Helvetica,sans-Serif" font-size="10.00" fill="#000000">/chi/NodeInstance.hpp</text>
</g>
<!-- Node1 -->
<g id="node2" class="node">
<title>Node1</title>
<g id="a_node2"><a xlink:href="Fwd_8hpp.html" target="_top" xlink:title="Forward declares all the chigraph data types. ">
<polygon fill="#ffffff" stroke="#000000" points="0,-.5 0,-19.5 69,-19.5 69,-.5 0,-.5"/>
<text text-anchor="middle" x="34.5" y="-7.5" font-family="Helvetica,sans-Serif" font-size="10.00" fill="#000000">chi/Fwd.hpp</text>
</a>
</g>
</g>
<!-- Node0&#45;&gt;Node1 -->
<g id="edge1" class="edge">
<title>Node0&#45;&gt;Node1</title>
<path fill="none" stroke="#191970" d="M159.8918,-56.4554C132.3158,-46.239 96.2058,-32.8609 69.8218,-23.0861"/>
<polygon fill="#191970" stroke="#191970" points="70.8172,-19.7224 60.2241,-19.5303 68.3853,-26.2864 70.8172,-19.7224"/>
</g>
<!-- Node2 -->
<g id="node3" class="node">
<title>Node2</title>
<polygon fill="#ffffff" stroke="#bfbfbf" points="87.5,-.5 87.5,-19.5 131.5,-19.5 131.5,-.5 87.5,-.5"/>
<text text-anchor="middle" x="109.5" y="-7.5" font-family="Helvetica,sans-Serif" font-size="10.00" fill="#000000">vector</text>
</g>
<!-- Node0&#45;&gt;Node2 -->
<g id="edge2" class="edge">
<title>Node0&#45;&gt;Node2</title>
<path fill="none" stroke="#191970" d="M178.0056,-56.2977C164.1033,-46.9022 146.3124,-34.8787 132.3454,-25.4395"/>
<polygon fill="#191970" stroke="#191970" points="134.0436,-22.3629 123.7985,-19.6633 130.124,-28.1626 134.0436,-22.3629"/>
</g>
<!-- Node3 -->
<g id="node4" class="node">
<title>Node3</title>
<polygon fill="#ffffff" stroke="#bfbfbf" points="150,-.5 150,-19.5 251,-19.5 251,-.5 150,-.5"/>
<text text-anchor="middle" x="200.5" y="-7.5" font-family="Helvetica,sans-Serif" font-size="10.00" fill="#000000">boost/uuid/uuid.hpp</text>
</g>
<!-- Node0&#45;&gt;Node3 -->
<g id="edge3" class="edge">
<title>Node0&#45;&gt;Node3</title>
<path fill="none" stroke="#191970" d="M200.5,-56.2977C200.5,-48.3834 200.5,-38.6043 200.5,-30.0759"/>
<polygon fill="#191970" stroke="#191970" points="204.0001,-29.8469 200.5,-19.8469 197.0001,-29.847 204.0001,-29.8469"/>
</g>
<!-- Node4 -->
<g id="node5" class="node">
<title>Node4</title>
<polygon fill="#ffffff" stroke="#bfbfbf" points="269.5,-.5 269.5,-19.5 421.5,-19.5 421.5,-.5 269.5,-.5"/>
<text text-anchor="middle" x="345.5" y="-7.5" font-family="Helvetica,sans-Serif" font-size="10.00" fill="#000000">boost/uuid/uuid_generators.hpp</text>
</g>
<!-- Node0&#45;&gt;Node4 -->
<g id="edge4" class="edge">
<title>Node0&#45;&gt;Node4</title>
<path fill="none" stroke="#191970" d="M235.971,-56.4554C259.7402,-46.374 290.768,-33.2139 313.7285,-23.4755"/>
<polygon fill="#191970" stroke="#191970" points="315.1906,-26.6572 323.0301,-19.5303 312.4573,-20.2129 315.1906,-26.6572"/>
</g>
<!-- Node5 -->
<g id="node6" class="node">
<title>Node5</title>
<polygon fill="#ffffff" stroke="#bfbfbf" points="439.5,-.5 439.5,-19.5 553.5,-19.5 553.5,-.5 439.5,-.5"/>
<text text-anchor="middle" x="496.5" y="-7.5" font-family="Helvetica,sans-Serif" font-size="10.00" fill="#000000">boost/uuid/uuid_io.hpp</text>
</g>
<!-- Node0&#45;&gt;Node5 -->
<g id="edge5" class="edge">
<title>Node0&#45;&gt;Node5</title>
<path fill="none" stroke="#191970" d="M257.5718,-59.6422C310.4431,-48.6571 388.5914,-32.4202 440.9655,-21.5384"/>
<polygon fill="#191970" stroke="#191970" points="441.6782,-24.9652 450.7571,-19.504 440.2542,-18.1115 441.6782,-24.9652"/>
</g>
</g>
</svg>
