<?xml version="1.0" encoding="UTF-8" standalone="no"?>
<!DOCTYPE svg PUBLIC "-//W3C//DTD SVG 1.1//EN"
 "http://www.w3.org/Graphics/SVG/1.1/DTD/svg11.dtd">
<!-- Generated by graphviz version 2.40.1 (20161225.0304)
 -->
<!-- Title: include/chig/Result.hpp Pages: 1 -->
<svg width="1446pt" height="420pt"
 viewBox="0.00 0.00 1446.00 420.00" xmlns="http://www.w3.org/2000/svg" xmlns:xlink="http://www.w3.org/1999/xlink">
<g id="graph0" class="graph" transform="scale(1 1) rotate(0) translate(4 416)">
<title>include/chig/Result.hpp</title>
<polygon fill="#ffffff" stroke="transparent" points="-4,4 -4,-416 1442,-416 1442,4 -4,4"/>
<!-- Node5 -->
<g id="node1" class="node">
<title>Node5</title>
<polygon fill="#bfbfbf" stroke="#000000" points="607.5,-392.5 607.5,-411.5 737.5,-411.5 737.5,-392.5 607.5,-392.5"/>
<text text-anchor="middle" x="672.5" y="-399.5" font-family="Helvetica,sans-Serif" font-size="10.00" fill="#000000">include/chig/Result.hpp</text>
</g>
<!-- Node6 -->
<g id="node2" class="node">
<title>Node6</title>
<g id="a_node2"><a xlink:href="ChigModule_8hpp.html" target="_top" xlink:title="Defines the ChigModule class. ">
<polygon fill="#ffffff" stroke="#000000" points="323.5,-336.5 323.5,-355.5 479.5,-355.5 479.5,-336.5 323.5,-336.5"/>
<text text-anchor="middle" x="401.5" y="-343.5" font-family="Helvetica,sans-Serif" font-size="10.00" fill="#000000">include/chig/ChigModule.hpp</text>
</a>
</g>
</g>
<!-- Node5&#45;&gt;Node6 -->
<g id="edge1" class="edge">
<title>Node5&#45;&gt;Node6</title>
<path fill="none" stroke="#191970" d="M616.2288,-390.372C566.2801,-380.0505 494.1902,-365.1537 447.5878,-355.5237"/>
<polygon fill="#191970" stroke="#191970" points="615.7199,-393.8407 626.2214,-392.4369 617.1366,-386.9856 615.7199,-393.8407"/>
</g>
<!-- Node14 -->
<g id="node10" class="node">
<title>Node14</title>
<g id="a_node10"><a xlink:href="JsonModule_8cpp.html" target="_top" xlink:title="src/JsonModule.cpp">
<polygon fill="#ffffff" stroke="#000000" points="559.5,-.5 559.5,-19.5 669.5,-19.5 669.5,-.5 559.5,-.5"/>
<text text-anchor="middle" x="614.5" y="-7.5" font-family="Helvetica,sans-Serif" font-size="10.00" fill="#000000">src/JsonModule.cpp</text>
</a>
</g>
</g>
<!-- Node5&#45;&gt;Node14 -->
<g id="edge48" class="edge">
<title>Node5&#45;&gt;Node14</title>
<path fill="none" stroke="#191970" d="M669.5492,-382.0565C659.0207,-310.8985 623.5247,-70.9943 615.9355,-19.7021"/>
<polygon fill="#191970" stroke="#191970" points="666.1402,-382.9301 671.0663,-392.3101 673.0649,-381.9054 666.1402,-382.9301"/>
</g>
<!-- Node17 -->
<g id="node13" class="node">
<title>Node17</title>
<g id="a_node13"><a xlink:href="NodeType_8hpp.html" target="_top" xlink:title="Defines the NodeType class. ">
<polygon fill="#ffffff" stroke="#000000" points="300,-224.5 300,-243.5 449,-243.5 449,-224.5 300,-224.5"/>
<text text-anchor="middle" x="374.5" y="-231.5" font-family="Helvetica,sans-Serif" font-size="10.00" fill="#000000">include/chig/NodeType.hpp</text>
</a>
</g>
</g>
<!-- Node5&#45;&gt;Node17 -->
<g id="edge47" class="edge">
<title>Node5&#45;&gt;Node17</title>
<path fill="none" stroke="#191970" d="M653.6022,-385.47C643.6957,-376.7576 631.389,-365.86 620.5,-356 583.6663,-322.6471 581.8561,-304.2773 538.5,-280 506.1192,-261.8683 466.0727,-250.459 433.6585,-243.5386"/>
<polygon fill="#191970" stroke="#191970" points="651.4506,-388.2385 661.2754,-392.2038 656.0679,-382.9771 651.4506,-388.2385"/>
</g>
<!-- Node19 -->
<g id="node15" class="node">
<title>Node19</title>
<g id="a_node15"><a xlink:href="Graph_8hpp.html" target="_top" xlink:title="Defines the internal Graph structure. ">
<polygon fill="#ffffff" stroke="#000000" points="921.5,-112.5 921.5,-131.5 1049.5,-131.5 1049.5,-112.5 921.5,-112.5"/>
<text text-anchor="middle" x="985.5" y="-119.5" font-family="Helvetica,sans-Serif" font-size="10.00" fill="#000000">include/chig/Graph.hpp</text>
</a>
</g>
</g>
<!-- Node5&#45;&gt;Node19 -->
<g id="edge46" class="edge">
<title>Node5&#45;&gt;Node19</title>
<path fill="none" stroke="#191970" d="M746.1055,-390.7254C838.632,-374.4338 985.5,-340.6041 985.5,-290 985.5,-290 985.5,-290 985.5,-234 985.5,-196.0833 985.5,-150.9462 985.5,-131.5884"/>
<polygon fill="#191970" stroke="#191970" points="745.4743,-387.2825 736.2175,-392.4363 746.6678,-394.18 745.4743,-387.2825"/>
</g>
<!-- Node25 -->
<g id="node21" class="node">
<title>Node25</title>
<g id="a_node21"><a xlink:href="FunctionCompiler_8hpp.html" target="_top" xlink:title="Defines functions for compiling GraphFunction objects. ">
<polygon fill="#ffffff" stroke="#000000" points="661,-56.5 661,-75.5 846,-75.5 846,-56.5 661,-56.5"/>
<text text-anchor="middle" x="753.5" y="-63.5" font-family="Helvetica,sans-Serif" font-size="10.00" fill="#000000">include/chig/FunctionCompiler.hpp</text>
</a>
</g>
</g>
<!-- Node5&#45;&gt;Node25 -->
<g id="edge38" class="edge">
<title>Node5&#45;&gt;Node25</title>
<path fill="none" stroke="#191970" d="M672.5,-382.1952C672.5,-359.8128 672.5,-322.2884 672.5,-290 672.5,-290 672.5,-290 672.5,-178 672.5,-132.6463 716.6498,-93.2135 739.7595,-75.6795"/>
<polygon fill="#191970" stroke="#191970" points="669.0001,-382.4116 672.5,-392.4116 676.0001,-382.4117 669.0001,-382.4116"/>
</g>
<!-- Node26 -->
<g id="node22" class="node">
<title>Node26</title>
<g id="a_node22"><a xlink:href="FunctionValidator_8hpp.html" target="_top" xlink:title="Defines functions for validating GraphFunction objects. ">
<polygon fill="#ffffff" stroke="#000000" points="1127,-56.5 1127,-75.5 1312,-75.5 1312,-56.5 1127,-56.5"/>
<text text-anchor="middle" x="1219.5" y="-63.5" font-family="Helvetica,sans-Serif" font-size="10.00" fill="#000000">include/chig/FunctionValidator.hpp</text>
</a>
</g>
</g>
<!-- Node5&#45;&gt;Node26 -->
<g id="edge41" class="edge">
<title>Node5&#45;&gt;Node26</title>
<path fill="none" stroke="#191970" d="M747.5563,-396.6062C864.6429,-386.1017 1077.5,-357.6957 1077.5,-290 1077.5,-290 1077.5,-290 1077.5,-178 1077.5,-122.4252 1145.382,-90.1592 1187.278,-75.5374"/>
<polygon fill="#191970" stroke="#191970" points="747.2272,-393.1215 737.5703,-397.4796 747.8372,-400.0949 747.2272,-393.1215"/>
</g>
<!-- Node27 -->
<g id="node23" class="node">
<title>Node27</title>
<g id="a_node23"><a xlink:href="Result_8cpp.html" target="_top" xlink:title="src/Result.cpp">
<polygon fill="#ffffff" stroke="#000000" points="1106,-336.5 1106,-355.5 1191,-355.5 1191,-336.5 1106,-336.5"/>
<text text-anchor="middle" x="1148.5" y="-343.5" font-family="Helvetica,sans-Serif" font-size="10.00" fill="#000000">src/Result.cpp</text>
</a>
</g>
</g>
<!-- Node5&#45;&gt;Node27 -->
<g id="edge49" class="edge">
<title>Node5&#45;&gt;Node27</title>
<path fill="none" stroke="#191970" d="M747.582,-395.2255C831.5711,-387.3062 971.5819,-373.0837 1091.5,-356 1096.1749,-355.334 1101.0545,-354.5755 1105.9061,-353.7809"/>
<polygon fill="#191970" stroke="#191970" points="747.2517,-391.741 737.6223,-396.1598 747.9055,-398.7105 747.2517,-391.741"/>
</g>
<!-- Node7 -->
<g id="node3" class="node">
<title>Node7</title>
<g id="a_node3"><a xlink:href="CModule_8hpp.html" target="_top" xlink:title="Defines the CModule class. ">
<polygon fill="#ffffff" stroke="#000000" points="0,-168.5 0,-187.5 141,-187.5 141,-168.5 0,-168.5"/>
<text text-anchor="middle" x="70.5" y="-175.5" font-family="Helvetica,sans-Serif" font-size="10.00" fill="#000000">include/chig/CModule.hpp</text>
</a>
</g>
</g>
<!-- Node6&#45;&gt;Node7 -->
<g id="edge2" class="edge">
<title>Node6&#45;&gt;Node7</title>
<path fill="none" stroke="#191970" d="M335.3816,-334.3027C303.0067,-327.0487 264.0839,-315.9961 231.5,-300 167.9084,-268.7817 104.4305,-210.8702 80.4803,-187.8278"/>
<polygon fill="#191970" stroke="#191970" points="334.6899,-337.734 345.2045,-336.4333 336.1737,-330.893 334.6899,-337.734"/>
</g>
<!-- Node10 -->
<g id="node6" class="node">
<title>Node10</title>
<g id="a_node6"><a xlink:href="DataType_8hpp.html" target="_top" xlink:title="Defines the DataType class. ">
<polygon fill="#ffffff" stroke="#000000" points="254.5,-280.5 254.5,-299.5 400.5,-299.5 400.5,-280.5 254.5,-280.5"/>
<text text-anchor="middle" x="327.5" y="-287.5" font-family="Helvetica,sans-Serif" font-size="10.00" fill="#000000">include/chig/DataType.hpp</text>
</a>
</g>
</g>
<!-- Node6&#45;&gt;Node10 -->
<g id="edge5" class="edge">
<title>Node6&#45;&gt;Node10</title>
<path fill="none" stroke="#191970" d="M380.6343,-330.2097C367.6375,-320.3743 351.3378,-308.0394 340.2421,-299.6427"/>
<polygon fill="#191970" stroke="#191970" points="378.524,-333.002 388.6102,-336.2455 382.7482,-327.4201 378.524,-333.002"/>
</g>
<!-- Node11 -->
<g id="node7" class="node">
<title>Node11</title>
<g id="a_node7"><a xlink:href="JsonModule_8hpp.html" target="_top" xlink:title="Defines the JsonModule class. ">
<polygon fill="#ffffff" stroke="#000000" points="412,-56.5 412,-75.5 567,-75.5 567,-56.5 412,-56.5"/>
<text text-anchor="middle" x="489.5" y="-63.5" font-family="Helvetica,sans-Serif" font-size="10.00" fill="#000000">include/chig/JsonModule.hpp</text>
</a>
</g>
</g>
<!-- Node6&#45;&gt;Node11 -->
<g id="edge35" class="edge">
<title>Node6&#45;&gt;Node11</title>
<path fill="none" stroke="#191970" d="M458.0721,-334.022C491.2893,-325.7146 528.6436,-313.7067 538.5,-300 591.0839,-226.8752 519.3141,-109.5859 496.2264,-75.5464"/>
<polygon fill="#191970" stroke="#191970" points="456.8257,-330.7226 447.9312,-336.4791 458.4742,-337.5258 456.8257,-330.7226"/>
</g>
<!-- Node15 -->
<g id="node11" class="node">
<title>Node15</title>
<g id="a_node11"><a xlink:href="LangModule_8hpp.html" target="_top" xlink:title="Defines the LangModule class. ">
<polygon fill="#ffffff" stroke="#000000" points="159.5,-168.5 159.5,-187.5 317.5,-187.5 317.5,-168.5 159.5,-168.5"/>
<text text-anchor="middle" x="238.5" y="-175.5" font-family="Helvetica,sans-Serif" font-size="10.00" fill="#000000">include/chig/LangModule.hpp</text>
</a>
</g>
</g>
<!-- Node6&#45;&gt;Node15 -->
<g id="edge36" class="edge">
<title>Node6&#45;&gt;Node15</title>
<path fill="none" stroke="#191970" d="M335.4657,-334.3876C298.3131,-326.4065 257.0991,-314.6201 245.5,-300 218.8647,-266.4274 229.9049,-209.877 235.7476,-187.5136"/>
<polygon fill="#191970" stroke="#191970" points="334.801,-337.8242 345.3044,-336.4354 336.2274,-330.9711 334.801,-337.8242"/>
</g>
<!-- Node24 -->
<g id="node20" class="node">
<title>Node24</title>
<g id="a_node20"><a xlink:href="ChigModule_8cpp.html" target="_top" xlink:title="src/ChigModule.cpp">
<polygon fill="#ffffff" stroke="#000000" points="419,-280.5 419,-299.5 530,-299.5 530,-280.5 419,-280.5"/>
<text text-anchor="middle" x="474.5" y="-287.5" font-family="Helvetica,sans-Serif" font-size="10.00" fill="#000000">src/ChigModule.cpp</text>
</a>
</g>
</g>
<!-- Node6&#45;&gt;Node24 -->
<g id="edge37" class="edge">
<title>Node6&#45;&gt;Node24</title>
<path fill="none" stroke="#191970" d="M422.451,-329.928C435.2107,-320.1397 451.0885,-307.9595 461.9301,-299.6427"/>
<polygon fill="#191970" stroke="#191970" points="420.0196,-327.3819 414.2156,-336.2455 424.2803,-332.9359 420.0196,-327.3819"/>
</g>
<!-- Node8 -->
<g id="node4" class="node">
<title>Node8</title>
<g id="a_node4"><a xlink:href="CModule_8cpp.html" target="_top" xlink:title="src/CModule.cpp">
<polygon fill="#ffffff" stroke="#000000" points="51.5,-112.5 51.5,-131.5 147.5,-131.5 147.5,-112.5 51.5,-112.5"/>
<text text-anchor="middle" x="99.5" y="-119.5" font-family="Helvetica,sans-Serif" font-size="10.00" fill="#000000">src/CModule.cpp</text>
</a>
</g>
</g>
<!-- Node7&#45;&gt;Node8 -->
<g id="edge3" class="edge">
<title>Node7&#45;&gt;Node8</title>
<path fill="none" stroke="#191970" d="M80.1647,-159.3372C84.9687,-150.0605 90.5723,-139.2398 94.5065,-131.6427"/>
<polygon fill="#191970" stroke="#191970" points="77.042,-157.7561 75.5514,-168.2455 83.258,-160.9751 77.042,-157.7561"/>
</g>
<!-- Node9 -->
<g id="node5" class="node">
<title>Node9</title>
<g id="a_node5"><a xlink:href="Context_8cpp.html" target="_top" xlink:title="src/Context.cpp">
<polygon fill="#ffffff" stroke="#000000" points="299.5,-.5 299.5,-19.5 391.5,-19.5 391.5,-.5 299.5,-.5"/>
<text text-anchor="middle" x="345.5" y="-7.5" font-family="Helvetica,sans-Serif" font-size="10.00" fill="#000000">src/Context.cpp</text>
</a>
</g>
</g>
<!-- Node7&#45;&gt;Node9 -->
<g id="edge4" class="edge">
<title>Node7&#45;&gt;Node9</title>
<path fill="none" stroke="#191970" d="M53.8802,-160.4907C42.7008,-146.5235 31.7942,-126.9001 42.5,-112 72.9846,-69.5723 222.4802,-34.3875 299.4727,-18.7358"/>
<polygon fill="#191970" stroke="#191970" points="51.498,-163.0869 60.6855,-168.3635 56.7938,-158.5092 51.498,-163.0869"/>
</g>
<!-- Node10&#45;&gt;Node7 -->
<g id="edge6" class="edge">
<title>Node10&#45;&gt;Node7</title>
<path fill="none" stroke="#191970" d="M296.3841,-276.4398C243.6519,-253.4592 138.0172,-207.4238 92.3562,-187.5249"/>
<polygon fill="#191970" stroke="#191970" points="295.0227,-279.6644 305.5883,-280.4509 297.8193,-273.2472 295.0227,-279.6644"/>
</g>
<!-- Node10&#45;&gt;Node11 -->
<g id="edge7" class="edge">
<title>Node10&#45;&gt;Node11</title>
<path fill="none" stroke="#191970" d="M377.6277,-277.8382C409.5112,-269.0901 446.7532,-256.6486 457.5,-244 500.3964,-193.5125 494.3195,-105.3286 490.8577,-75.8864"/>
<polygon fill="#191970" stroke="#191970" points="376.6954,-274.4645 367.9402,-280.4307 378.5051,-281.2266 376.6954,-274.4645"/>
</g>
<!-- Node10&#45;&gt;Node15 -->
<g id="edge12" class="edge">
<title>Node10&#45;&gt;Node15</title>
<path fill="none" stroke="#191970" d="M313.2265,-272.3399C306.3387,-263.7961 297.9684,-253.3815 290.5,-244 274.6914,-224.1419 256.3499,-200.7881 246.2219,-187.8644"/>
<polygon fill="#191970" stroke="#191970" points="310.5278,-274.5689 319.5319,-280.1525 315.975,-270.1725 310.5278,-274.5689"/>
</g>
<!-- Node10&#45;&gt;Node17 -->
<g id="edge15" class="edge">
<title>Node10&#45;&gt;Node17</title>
<path fill="none" stroke="#191970" d="M342.1872,-272.5004C350.1796,-262.9775 359.7625,-251.5596 366.407,-243.6427"/>
<polygon fill="#191970" stroke="#191970" points="339.4346,-270.3357 335.6868,-280.2455 344.7964,-274.8358 339.4346,-270.3357"/>
</g>
<!-- Node11&#45;&gt;Node9 -->
<g id="edge8" class="edge">
<title>Node11&#45;&gt;Node9</title>
<path fill="none" stroke="#191970" d="M455.1818,-52.6541C428.922,-42.4419 393.3508,-28.6086 369.9315,-19.5011"/>
<polygon fill="#191970" stroke="#191970" points="454.1569,-56.0108 464.7455,-56.3733 456.694,-49.4867 454.1569,-56.0108"/>
</g>
<!-- Node12 -->
<g id="node8" class="node">
<title>Node12</title>
<g id="a_node8"><a xlink:href="FunctionCompiler_8cpp.html" target="_top" xlink:title="src/FunctionCompiler.cpp">
<polygon fill="#ffffff" stroke="#000000" points="755.5,-.5 755.5,-19.5 895.5,-19.5 895.5,-.5 755.5,-.5"/>
<text text-anchor="middle" x="825.5" y="-7.5" font-family="Helvetica,sans-Serif" font-size="10.00" fill="#000000">src/FunctionCompiler.cpp</text>
</a>
</g>
</g>
<!-- Node11&#45;&gt;Node12 -->
<g id="edge9" class="edge">
<title>Node11&#45;&gt;Node12</title>
<path fill="none" stroke="#191970" d="M556.9539,-54.7577C618.9529,-44.4245 709.8541,-29.2743 768.358,-19.5237"/>
<polygon fill="#191970" stroke="#191970" points="556.1672,-51.3404 546.8787,-56.4369 557.318,-58.2452 556.1672,-51.3404"/>
</g>
<!-- Node13 -->
<g id="node9" class="node">
<title>Node13</title>
<g id="a_node9"><a xlink:href="GraphFunction_8cpp.html" target="_top" xlink:title="src/GraphFunction.cpp">
<polygon fill="#ffffff" stroke="#000000" points="914,-.5 914,-19.5 1039,-19.5 1039,-.5 914,-.5"/>
<text text-anchor="middle" x="976.5" y="-7.5" font-family="Helvetica,sans-Serif" font-size="10.00" fill="#000000">src/GraphFunction.cpp</text>
</a>
</g>
</g>
<!-- Node11&#45;&gt;Node13 -->
<g id="edge10" class="edge">
<title>Node11&#45;&gt;Node13</title>
<path fill="none" stroke="#191970" d="M577.2254,-56.9867C661.2776,-48.1829 791.6589,-34.0873 904.5,-20 907.5055,-19.6248 910.5802,-19.232 913.6849,-18.8283"/>
<polygon fill="#191970" stroke="#191970" points="576.7909,-53.513 567.209,-58.0338 577.5188,-60.4751 576.7909,-53.513"/>
</g>
<!-- Node11&#45;&gt;Node14 -->
<g id="edge11" class="edge">
<title>Node11&#45;&gt;Node14</title>
<path fill="none" stroke="#191970" d="M520.198,-52.2473C542.8993,-42.0771 573.2315,-28.4883 593.2921,-19.5011"/>
<polygon fill="#191970" stroke="#191970" points="518.6833,-49.0906 510.9883,-56.3733 521.5453,-55.4789 518.6833,-49.0906"/>
</g>
<!-- Node15&#45;&gt;Node9 -->
<g id="edge13" class="edge">
<title>Node15&#45;&gt;Node9</title>
<path fill="none" stroke="#191970" d="M215.8753,-161.7415C200.698,-148.7176 185.0689,-129.7519 194.5,-112 220.4004,-63.2485 281.151,-33.5663 317.207,-19.6083"/>
<polygon fill="#191970" stroke="#191970" points="214.1035,-164.8062 224.0987,-168.3202 218.4765,-159.3402 214.1035,-164.8062"/>
</g>
<!-- Node16 -->
<g id="node12" class="node">
<title>Node16</title>
<g id="a_node12"><a xlink:href="LangModule_8cpp.html" target="_top" xlink:title="src/LangModule.cpp">
<polygon fill="#ffffff" stroke="#000000" points="204,-112.5 204,-131.5 317,-131.5 317,-112.5 204,-112.5"/>
<text text-anchor="middle" x="260.5" y="-119.5" font-family="Helvetica,sans-Serif" font-size="10.00" fill="#000000">src/LangModule.cpp</text>
</a>
</g>
</g>
<!-- Node15&#45;&gt;Node16 -->
<g id="edge14" class="edge">
<title>Node15&#45;&gt;Node16</title>
<path fill="none" stroke="#191970" d="M246.0628,-158.7493C249.6546,-149.6064 253.7901,-139.0798 256.7118,-131.6427"/>
<polygon fill="#191970" stroke="#191970" points="242.7311,-157.6582 242.3321,-168.2455 249.2463,-160.2178 242.7311,-157.6582"/>
</g>
<!-- Node17&#45;&gt;Node7 -->
<g id="edge16" class="edge">
<title>Node17&#45;&gt;Node7</title>
<path fill="none" stroke="#191970" d="M312.4264,-222.5654C256.3596,-212.2373 174.8046,-197.214 122.1999,-187.5237"/>
<polygon fill="#191970" stroke="#191970" points="312.1173,-226.0673 322.586,-224.4369 313.3855,-219.1831 312.1173,-226.0673"/>
</g>
<!-- Node17&#45;&gt;Node9 -->
<g id="edge33" class="edge">
<title>Node17&#45;&gt;Node9</title>
<path fill="none" stroke="#191970" d="M371.964,-214.4119C365.9755,-168.1557 351.1309,-53.494 346.7415,-19.5891"/>
<polygon fill="#191970" stroke="#191970" points="368.4989,-214.9072 373.2539,-224.375 375.4409,-214.0084 368.4989,-214.9072"/>
</g>
<!-- Node17&#45;&gt;Node11 -->
<g id="edge17" class="edge">
<title>Node17&#45;&gt;Node11</title>
<path fill="none" stroke="#191970" d="M386.7535,-216.0993C410.9216,-180.7928 464.0138,-103.232 482.7726,-75.8279"/>
<polygon fill="#191970" stroke="#191970" points="383.7729,-214.2573 381.0124,-224.4862 389.5492,-218.2114 383.7729,-214.2573"/>
</g>
<!-- Node17&#45;&gt;Node14 -->
<g id="edge34" class="edge">
<title>Node17&#45;&gt;Node14</title>
<path fill="none" stroke="#191970" d="M374.8894,-214.1091C376.1246,-172.5517 381.2562,-78.5051 402.5,-56 423.6021,-33.645 504.0017,-21.0952 559.4901,-14.9359"/>
<polygon fill="#191970" stroke="#191970" points="371.3903,-214.0358 374.6386,-224.1204 378.3881,-214.2112 371.3903,-214.0358"/>
</g>
<!-- Node17&#45;&gt;Node15 -->
<g id="edge18" class="edge">
<title>Node17&#45;&gt;Node15</title>
<path fill="none" stroke="#191970" d="M341.7601,-220.5189C316.9917,-210.3201 283.595,-196.5685 261.5742,-187.5011"/>
<polygon fill="#191970" stroke="#191970" points="340.5413,-223.8021 351.1208,-224.3733 343.2066,-217.3293 340.5413,-223.8021"/>
</g>
<!-- Node18 -->
<g id="node14" class="node">
<title>Node18</title>
<g id="a_node14"><a xlink:href="NodeInstance_8hpp.html" target="_top" xlink:title="Defines the NodeInstance class and related functions. ">
<polygon fill="#ffffff" stroke="#000000" points="790.5,-168.5 790.5,-187.5 956.5,-187.5 956.5,-168.5 790.5,-168.5"/>
<text text-anchor="middle" x="873.5" y="-175.5" font-family="Helvetica,sans-Serif" font-size="10.00" fill="#000000">include/chig/NodeInstance.hpp</text>
</a>
</g>
</g>
<!-- Node17&#45;&gt;Node18 -->
<g id="edge19" class="edge">
<title>Node17&#45;&gt;Node18</title>
<path fill="none" stroke="#191970" d="M459.3636,-224.4762C551.7819,-214.1046 698.6366,-197.6239 790.3681,-187.3294"/>
<polygon fill="#191970" stroke="#191970" points="458.7526,-221.0227 449.2053,-225.6162 459.5333,-227.9791 458.7526,-221.0227"/>
</g>
<!-- Node18&#45;&gt;Node12 -->
<g id="edge30" class="edge">
<title>Node18&#45;&gt;Node12</title>
<path fill="none" stroke="#191970" d="M873.1688,-158.2478C872.1795,-133.5672 868.5323,-90.3944 855.5,-56 850.2974,-42.2696 840.4979,-28.4123 833.5148,-19.5494"/>
<polygon fill="#191970" stroke="#191970" points="869.6768,-158.5799 873.4655,-168.4741 876.6739,-158.3768 869.6768,-158.5799"/>
</g>
<!-- Node18&#45;&gt;Node14 -->
<g id="edge31" class="edge">
<title>Node18&#45;&gt;Node14</title>
<path fill="none" stroke="#191970" d="M826.413,-165.5154C778.0915,-150.7519 703.0282,-122.1739 652.5,-76 634.9314,-59.9454 623.282,-33.8382 617.9136,-19.752"/>
<polygon fill="#191970" stroke="#191970" points="825.717,-168.9599 836.2999,-168.4575 827.7135,-162.2507 825.717,-168.9599"/>
</g>
<!-- Node18&#45;&gt;Node19 -->
<g id="edge20" class="edge">
<title>Node18&#45;&gt;Node19</title>
<path fill="none" stroke="#191970" d="M901.8263,-163.8368C922.0721,-153.7139 948.7642,-140.3679 966.4978,-131.5011"/>
<polygon fill="#191970" stroke="#191970" points="900.1325,-160.7706 892.7535,-168.3733 903.263,-167.0316 900.1325,-160.7706"/>
</g>
<!-- Node23 -->
<g id="node19" class="node">
<title>Node23</title>
<g id="a_node19"><a xlink:href="NodeInstance_8cpp.html" target="_top" xlink:title="src/NodeInstance.cpp">
<polygon fill="#ffffff" stroke="#000000" points="1317,-.5 1317,-19.5 1438,-19.5 1438,-.5 1317,-.5"/>
<text text-anchor="middle" x="1377.5" y="-7.5" font-family="Helvetica,sans-Serif" font-size="10.00" fill="#000000">src/NodeInstance.cpp</text>
</a>
</g>
</g>
<!-- Node18&#45;&gt;Node23 -->
<g id="edge32" class="edge">
<title>Node18&#45;&gt;Node23</title>
<path fill="none" stroke="#191970" d="M960.6917,-167.1464C1077.7588,-151.1898 1277.9484,-118.6187 1337.5,-76 1357.3301,-61.8083 1369.1816,-34.4369 1374.3763,-19.7986"/>
<polygon fill="#191970" stroke="#191970" points="960.1148,-163.6924 950.6731,-168.4991 961.0515,-170.6295 960.1148,-163.6924"/>
</g>
<!-- Node20 -->
<g id="node16" class="node">
<title>Node20</title>
<g id="a_node16"><a xlink:href="GraphFunction_8hpp.html" target="_top" xlink:title="Declares the GraphFunction class. ">
<polygon fill="#ffffff" stroke="#000000" points="901.5,-56.5 901.5,-75.5 1071.5,-75.5 1071.5,-56.5 901.5,-56.5"/>
<text text-anchor="middle" x="986.5" y="-63.5" font-family="Helvetica,sans-Serif" font-size="10.00" fill="#000000">include/chig/GraphFunction.hpp</text>
</a>
</g>
</g>
<!-- Node19&#45;&gt;Node20 -->
<g id="edge21" class="edge">
<title>Node19&#45;&gt;Node20</title>
<path fill="none" stroke="#191970" d="M985.8543,-102.1575C986.0151,-93.155 986.1979,-82.9199 986.3278,-75.6427"/>
<polygon fill="#191970" stroke="#191970" points="982.3534,-102.1846 985.6742,-112.2455 989.3523,-102.3097 982.3534,-102.1846"/>
</g>
<!-- Node21 -->
<g id="node17" class="node">
<title>Node21</title>
<g id="a_node17"><a xlink:href="FunctionValidator_8cpp.html" target="_top" xlink:title="src/FunctionValidator.cpp">
<polygon fill="#ffffff" stroke="#000000" points="1158.5,-.5 1158.5,-19.5 1298.5,-19.5 1298.5,-.5 1158.5,-.5"/>
<text text-anchor="middle" x="1228.5" y="-7.5" font-family="Helvetica,sans-Serif" font-size="10.00" fill="#000000">src/FunctionValidator.cpp</text>
</a>
</g>
</g>
<!-- Node19&#45;&gt;Node21 -->
<g id="edge28" class="edge">
<title>Node19&#45;&gt;Node21</title>
<path fill="none" stroke="#191970" d="M1059.85,-116.9429C1153.5656,-109.7985 1304.5545,-95.4235 1321.5,-76 1343.1059,-51.2346 1297.5879,-30.8357 1262.9125,-19.5537"/>
<polygon fill="#191970" stroke="#191970" points="1059.5527,-113.4553 1049.8432,-117.695 1060.0774,-120.4356 1059.5527,-113.4553"/>
</g>
<!-- Node22 -->
<g id="node18" class="node">
<title>Node22</title>
<g id="a_node18"><a xlink:href="Graph_8cpp.html" target="_top" xlink:title="src/Graph.cpp">
<polygon fill="#ffffff" stroke="#000000" points="1057,-.5 1057,-19.5 1140,-19.5 1140,-.5 1057,-.5"/>
<text text-anchor="middle" x="1098.5" y="-7.5" font-family="Helvetica,sans-Serif" font-size="10.00" fill="#000000">src/Graph.cpp</text>
</a>
</g>
</g>
<!-- Node19&#45;&gt;Node22 -->
<g id="edge29" class="edge">
<title>Node19&#45;&gt;Node22</title>
<path fill="none" stroke="#191970" d="M1031.777,-108.7514C1049.2669,-101.6255 1067.9546,-91.1061 1080.5,-76 1094.1584,-59.5537 1097.5086,-33.6056 1098.294,-19.6484"/>
<polygon fill="#191970" stroke="#191970" points="1030.3414,-105.5525 1022.2303,-112.3687 1032.8216,-112.0984 1030.3414,-105.5525"/>
</g>
<!-- Node20&#45;&gt;Node9 -->
<g id="edge22" class="edge">
<title>Node20&#45;&gt;Node9</title>
<path fill="none" stroke="#191970" d="M891.1028,-57.6658C751.2629,-45.4489 495.9447,-23.1434 391.6938,-14.0356"/>
<polygon fill="#191970" stroke="#191970" points="891.1135,-61.1799 901.3801,-58.5636 891.7227,-54.2065 891.1135,-61.1799"/>
</g>
<!-- Node20&#45;&gt;Node12 -->
<g id="edge23" class="edge">
<title>Node20&#45;&gt;Node12</title>
<path fill="none" stroke="#191970" d="M949.2889,-53.057C919.8241,-42.8084 879.3459,-28.729 852.8157,-19.5011"/>
<polygon fill="#191970" stroke="#191970" points="948.2283,-56.3937 958.8231,-56.3733 950.528,-49.7822 948.2283,-56.3937"/>
</g>
<!-- Node20&#45;&gt;Node13 -->
<g id="edge26" class="edge">
<title>Node20&#45;&gt;Node13</title>
<path fill="none" stroke="#191970" d="M982.9567,-46.1575C981.3491,-37.155 979.5214,-26.9199 978.2219,-19.6427"/>
<polygon fill="#191970" stroke="#191970" points="979.5546,-47.0166 984.7581,-56.2455 986.4456,-45.786 979.5546,-47.0166"/>
</g>
<!-- Node20&#45;&gt;Node14 -->
<g id="edge27" class="edge">
<title>Node20&#45;&gt;Node14</title>
<path fill="none" stroke="#191970" d="M912.6742,-54.8864C841.0625,-44.1062 734.0403,-27.9953 669.5787,-18.2914"/>
<polygon fill="#191970" stroke="#191970" points="912.564,-58.4092 922.9736,-56.4369 913.6061,-51.4872 912.564,-58.4092"/>
</g>
<!-- Node20&#45;&gt;Node21 -->
<g id="edge24" class="edge">
<title>Node20&#45;&gt;Node21</title>
<path fill="none" stroke="#191970" d="M1037.59,-54.1775C1082.1587,-43.8641 1145.9893,-29.0934 1187.3441,-19.5237"/>
<polygon fill="#191970" stroke="#191970" points="1036.7798,-50.7724 1027.8263,-56.4369 1038.358,-57.5922 1036.7798,-50.7724"/>
</g>
<!-- Node20&#45;&gt;Node22 -->
<g id="edge25" class="edge">
<title>Node20&#45;&gt;Node22</title>
<path fill="none" stroke="#191970" d="M1014.8263,-51.8368C1035.0721,-41.7139 1061.7642,-28.3679 1079.4978,-19.5011"/>
<polygon fill="#191970" stroke="#191970" points="1013.1325,-48.7706 1005.7535,-56.3733 1016.263,-55.0316 1013.1325,-48.7706"/>
</g>
<!-- Node25&#45;&gt;Node12 -->
<g id="edge39" class="edge">
<title>Node25&#45;&gt;Node12</title>
<path fill="none" stroke="#191970" d="M774.164,-49.928C786.7489,-40.1397 802.4092,-27.9595 813.1023,-19.6427"/>
<polygon fill="#191970" stroke="#191970" points="771.7862,-47.3434 766.0414,-56.2455 776.0838,-52.8688 771.7862,-47.3434"/>
</g>
<!-- Node25&#45;&gt;Node14 -->
<g id="edge40" class="edge">
<title>Node25&#45;&gt;Node14</title>
<path fill="none" stroke="#191970" d="M720.0379,-52.5189C694.7231,-42.3201 660.5897,-28.5685 638.0831,-19.5011"/>
<polygon fill="#191970" stroke="#191970" points="719.0216,-55.8827 729.605,-56.3733 721.6374,-49.3899 719.0216,-55.8827"/>
</g>
<!-- Node26&#45;&gt;Node12 -->
<g id="edge42" class="edge">
<title>Node26&#45;&gt;Node12</title>
<path fill="none" stroke="#191970" d="M1142.1942,-55.0124C1069.4619,-44.6748 961.6744,-29.3547 892.5058,-19.5237"/>
<polygon fill="#191970" stroke="#191970" points="1141.8236,-58.4948 1152.2167,-56.4369 1142.8087,-51.5644 1141.8236,-58.4948"/>
</g>
<!-- Node26&#45;&gt;Node13 -->
<g id="edge44" class="edge">
<title>Node26&#45;&gt;Node13</title>
<path fill="none" stroke="#191970" d="M1168.1989,-54.1775C1123.446,-43.8641 1059.3516,-29.0934 1017.8259,-19.5237"/>
<polygon fill="#191970" stroke="#191970" points="1167.4723,-57.6017 1178.0029,-56.4369 1169.0443,-50.7805 1167.4723,-57.6017"/>
</g>
<!-- Node26&#45;&gt;Node21 -->
<g id="edge43" class="edge">
<title>Node26&#45;&gt;Node21</title>
<path fill="none" stroke="#191970" d="M1222.689,-46.1575C1224.1358,-37.155 1225.7807,-26.9199 1226.9503,-19.6427"/>
<polygon fill="#191970" stroke="#191970" points="1219.1989,-45.8168 1221.0677,-56.2455 1226.1102,-46.9276 1219.1989,-45.8168"/>
</g>
<!-- Node26&#45;&gt;Node23 -->
<g id="edge45" class="edge">
<title>Node26&#45;&gt;Node23</title>
<path fill="none" stroke="#191970" d="M1256.3955,-52.9231C1285.2787,-42.686 1324.7706,-28.6889 1350.6933,-19.5011"/>
<polygon fill="#191970" stroke="#191970" points="1254.9174,-49.7336 1246.6612,-56.3733 1257.2559,-56.3314 1254.9174,-49.7336"/>
</g>
</g>
</svg>
