<?xml version="1.0" encoding="UTF-8" standalone="no"?>
<!DOCTYPE svg PUBLIC "-//W3C//DTD SVG 1.1//EN"
 "http://www.w3.org/Graphics/SVG/1.1/DTD/svg11.dtd">
<!-- Generated by graphviz version 2.40.1 (20161225.0304)
 -->
<!-- Title: libchigraph/include/chi/Result.hpp Pages: 1 -->
<svg width="247pt" height="151pt"
 viewBox="0.00 0.00 246.50 151.00" xmlns="http://www.w3.org/2000/svg" xmlns:xlink="http://www.w3.org/1999/xlink">
<g id="graph0" class="graph" transform="scale(1 1) rotate(0) translate(4 147)">
<title>libchigraph/include/chi/Result.hpp</title>
<polygon fill="#ffffff" stroke="transparent" points="-4,4 -4,-147 242.5,-147 242.5,4 -4,4"/>
<!-- Node0 -->
<g id="node1" class="node">
<title>Node0</title>
<polygon fill="#bfbfbf" stroke="#000000" points="92.5,-112.5 92.5,-142.5 189.5,-142.5 189.5,-112.5 92.5,-112.5"/>
<text text-anchor="start" x="100.5" y="-130.5" font-family="Helvetica,sans-Serif" font-size="10.00" fill="#000000">libchigraph/include</text>
<text text-anchor="middle" x="141" y="-119.5" font-family="Helvetica,sans-Serif" font-size="10.00" fill="#000000">/chi/Result.hpp</text>
</g>
<!-- Node1 -->
<g id="node2" class="node">
<title>Node1</title>
<g id="a_node2"><a xlink:href="ToString_8hpp_source.html" target="_top" xlink:title="chi/ToString.hpp">
<polygon fill="#ffffff" stroke="#000000" points="0,-56.5 0,-75.5 88,-75.5 88,-56.5 0,-56.5"/>
<text text-anchor="middle" x="44" y="-63.5" font-family="Helvetica,sans-Serif" font-size="10.00" fill="#000000">chi/ToString.hpp</text>
</a>
</g>
</g>
<!-- Node0&#45;&gt;Node1 -->
<g id="edge1" class="edge">
<title>Node0&#45;&gt;Node1</title>
<path fill="none" stroke="#191970" d="M117.0225,-112.2977C102.0624,-102.8127 82.878,-90.6495 67.9274,-81.1705"/>
<polygon fill="#191970" stroke="#191970" points="69.561,-78.062 59.2413,-75.6633 65.8127,-83.9739 69.561,-78.062"/>
</g>
<!-- Node3 -->
<g id="node4" class="node">
<title>Node3</title>
<polygon fill="#ffffff" stroke="#bfbfbf" points="106.5,-56.5 106.5,-75.5 175.5,-75.5 175.5,-56.5 106.5,-56.5"/>
<text text-anchor="middle" x="141" y="-63.5" font-family="Helvetica,sans-Serif" font-size="10.00" fill="#000000">chi/json.hpp</text>
</g>
<!-- Node0&#45;&gt;Node3 -->
<g id="edge3" class="edge">
<title>Node0&#45;&gt;Node3</title>
<path fill="none" stroke="#191970" d="M141,-112.2977C141,-104.3834 141,-94.6043 141,-86.0759"/>
<polygon fill="#191970" stroke="#191970" points="144.5001,-85.8469 141,-75.8469 137.5001,-85.847 144.5001,-85.8469"/>
</g>
<!-- Node4 -->
<g id="node5" class="node">
<title>Node4</title>
<polygon fill="#ffffff" stroke="#bfbfbf" points="193.5,-56.5 193.5,-75.5 238.5,-75.5 238.5,-56.5 193.5,-56.5"/>
<text text-anchor="middle" x="216" y="-63.5" font-family="Helvetica,sans-Serif" font-size="10.00" fill="#000000">gsl/gsl</text>
</g>
<!-- Node0&#45;&gt;Node4 -->
<g id="edge4" class="edge">
<title>Node0&#45;&gt;Node4</title>
<path fill="none" stroke="#191970" d="M159.5393,-112.2977C170.6008,-103.2274 184.6491,-91.7077 195.9653,-82.4285"/>
<polygon fill="#191970" stroke="#191970" points="198.4781,-84.8942 203.9916,-75.8469 194.0396,-79.4813 198.4781,-84.8942"/>
</g>
<!-- Node2 -->
<g id="node3" class="node">
<title>Node2</title>
<polygon fill="#ffffff" stroke="#bfbfbf" points="18,-.5 18,-19.5 70,-19.5 70,-.5 18,-.5"/>
<text text-anchor="middle" x="44" y="-7.5" font-family="Helvetica,sans-Serif" font-size="10.00" fill="#000000">sstream</text>
</g>
<!-- Node1&#45;&gt;Node2 -->
<g id="edge2" class="edge">
<title>Node1&#45;&gt;Node2</title>
<path fill="none" stroke="#191970" d="M44,-56.2455C44,-48.9382 44,-38.6944 44,-29.7046"/>
<polygon fill="#191970" stroke="#191970" points="47.5001,-29.6426 44,-19.6427 40.5001,-29.6427 47.5001,-29.6426"/>
</g>
</g>
</svg>
