<?xml version="1.0" encoding="UTF-8" standalone="no"?>
<!DOCTYPE svg PUBLIC "-//W3C//DTD SVG 1.1//EN"
 "http://www.w3.org/Graphics/SVG/1.1/DTD/svg11.dtd">
<!-- Generated by graphviz version 2.40.1 (20161225.0304)
 -->
<!-- Title: include/chig/Result.hpp Pages: 1 -->
<!--zoomable 308 -->
<svg id="main" version="1.1" xmlns="http://www.w3.org/2000/svg" xmlns:xlink="http://www.w3.org/1999/xlink" xml:space="preserve" onload="init(evt)">
<style type="text/css"><![CDATA[
.edge:hover path { stroke: red; }
.edge:hover polygon { stroke: red; fill: red; }
]]></style>
<script type="text/javascript"><![CDATA[
var edges = document.getElementsByTagName('g');
if (edges && edges.length) {
  for (var i=0;i<edges.length;i++) {
    if (edges[i].id.substr(0,4)=='edge') {
      edges[i].setAttribute('class','edge');
    }
  }
}
]]></script>
        <defs>
                <circle id="rim" cx="0" cy="0" r="7"/>
                <circle id="rim2" cx="0" cy="0" r="3.5"/>
                <g id="zoomPlus">
                        <use xlink:href="#rim" fill="#404040">
                                <set attributeName="fill" to="#808080" begin="zoomplus.mouseover" end="zoomplus.mouseout"/>
                        </use>
                        <path d="M-4,0h8M0,-4v8" fill="none" stroke="white" stroke-width="1.5" pointer-events="none"/>
                </g>
                <g id="zoomMin">
                        <use xlink:href="#rim" fill="#404040">
                                <set attributeName="fill" to="#808080" begin="zoomminus.mouseover" end="zoomminus.mouseout"/>
                        </use>
                        <path d="M-4,0h8" fill="none" stroke="white" stroke-width="1.5" pointer-events="none"/>
                </g>
                <g id="dirArrow">
                        <path fill="none" stroke="white" stroke-width="1.5" d="M0,-3.0v7 M-2.5,-0.5L0,-3.0L2.5,-0.5"/>
                </g>
               <g id="resetDef">
                       <use xlink:href="#rim2" fill="#404040">
                               <set attributeName="fill" to="#808080" begin="reset.mouseover" end="reset.mouseout"/>
                       </use>
               </g>
        </defs>

<script type="text/javascript">
var viewWidth = 1261;
var viewHeight = 308;
var sectionId = 'dynsection-1';
</script>
<script xlink:href="svgpan.js"/>
<svg id="graph" class="graph">
<g id="viewport">
<title>include/chig/Result.hpp</title>
<polygon fill="#ffffff" stroke="transparent" points="-4,4 -4,-304 1256.5,-304 1256.5,4 -4,4"/>
<!-- Node5 -->
<g id="node1" class="node">
<title>Node5</title>
<polygon fill="#bfbfbf" stroke="#000000" points="791,-280.5 791,-299.5 921,-299.5 921,-280.5 791,-280.5"/>
<text text-anchor="middle" x="856" y="-287.5" font-family="Helvetica,sans-Serif" font-size="10.00" fill="#000000">include/chig/Result.hpp</text>
</g>
<!-- Node6 -->
<g id="node2" class="node">
<title>Node6</title>
<g id="a_node2"><a xlink:href="FunctionCompiler_8hpp.html" target="_top" xlink:title="Defines functions for compiling GraphFunction objects. ">
<polygon fill="#ffffff" stroke="#000000" points="105.5,-56.5 105.5,-75.5 290.5,-75.5 290.5,-56.5 105.5,-56.5"/>
<text text-anchor="middle" x="198" y="-63.5" font-family="Helvetica,sans-Serif" font-size="10.00" fill="#000000">include/chig/FunctionCompiler.hpp</text>
</a>
</g>
</g>
<!-- Node5&#45;&gt;Node6 -->
<g id="edge1" class="edge">
<title>Node5&#45;&gt;Node6</title>
<path fill="none" stroke="#191970" d="M780.7735,-282.7787C725.2321,-276.1422 648.2725,-264.191 583,-244 433.5075,-197.7568 266.9195,-105.6373 214.6219,-75.6662"/>
<polygon fill="#191970" stroke="#191970" points="780.5496,-286.2762 790.8874,-283.9568 781.3595,-279.3232 780.5496,-286.2762"/>
</g>
<!-- Node9 -->
<g id="node5" class="node">
<title>Node9</title>
<g id="a_node5"><a xlink:href="FunctionValidator_8hpp.html" target="_top" xlink:title="Defines functions for validating GraphFunction objects. ">
<polygon fill="#ffffff" stroke="#000000" points="500.5,-56.5 500.5,-75.5 685.5,-75.5 685.5,-56.5 500.5,-56.5"/>
<text text-anchor="middle" x="593" y="-63.5" font-family="Helvetica,sans-Serif" font-size="10.00" fill="#000000">include/chig/FunctionValidator.hpp</text>
</a>
</g>
</g>
<!-- Node5&#45;&gt;Node9 -->
<g id="edge4" class="edge">
<title>Node5&#45;&gt;Node9</title>
<path fill="none" stroke="#191970" d="M789.1378,-278.6278C703.5266,-262.5174 562.6562,-230.2469 533,-188 523.4554,-174.4032 528.3427,-137.1113 542,-112 550.3175,-96.7069 565.7359,-83.8957 577.4504,-75.7097"/>
<polygon fill="#191970" stroke="#191970" points="788.5658,-282.0813 799.0367,-280.465 789.8433,-275.1989 788.5658,-282.0813"/>
</g>
<!-- Node13 -->
<g id="node9" class="node">
<title>Node13</title>
<g id="a_node9"><a xlink:href="LangModule_8hpp.html" target="_top" xlink:title="Defines the LangModule class. ">
<polygon fill="#ffffff" stroke="#000000" points="863,-224.5 863,-243.5 1021,-243.5 1021,-224.5 863,-224.5"/>
<text text-anchor="middle" x="942" y="-231.5" font-family="Helvetica,sans-Serif" font-size="10.00" fill="#000000">include/chig/LangModule.hpp</text>
</a>
</g>
</g>
<!-- Node5&#45;&gt;Node13 -->
<g id="edge9" class="edge">
<title>Node5&#45;&gt;Node13</title>
<path fill="none" stroke="#191970" d="M879.3905,-274.769C894.6299,-264.8456 914.0509,-252.1994 927.1916,-243.6427"/>
<polygon fill="#191970" stroke="#191970" points="877.4502,-271.8558 870.9801,-280.2455 881.2699,-277.7218 877.4502,-271.8558"/>
</g>
<!-- Node16 -->
<g id="node12" class="node">
<title>Node16</title>
<g id="a_node12"><a xlink:href="NodeType_8hpp.html" target="_top" xlink:title="Defines the NodeType class. ">
<polygon fill="#ffffff" stroke="#000000" points="696.5,-224.5 696.5,-243.5 845.5,-243.5 845.5,-224.5 696.5,-224.5"/>
<text text-anchor="middle" x="771" y="-231.5" font-family="Helvetica,sans-Serif" font-size="10.00" fill="#000000">include/chig/NodeType.hpp</text>
</a>
</g>
</g>
<!-- Node5&#45;&gt;Node16 -->
<g id="edge12" class="edge">
<title>Node5&#45;&gt;Node16</title>
<path fill="none" stroke="#191970" d="M832.4581,-274.49C817.461,-264.6096 798.5027,-252.1194 785.6362,-243.6427"/>
<polygon fill="#191970" stroke="#191970" points="830.9179,-277.6666 841.1941,-280.2455 834.7691,-271.8212 830.9179,-277.6666"/>
</g>
<!-- Node23 -->
<g id="node19" class="node">
<title>Node23</title>
<g id="a_node19"><a xlink:href="ChigModule_8cpp.html" target="_top" xlink:title="src/ChigModule.cpp">
<polygon fill="#ffffff" stroke="#000000" points="1038.5,-224.5 1038.5,-243.5 1149.5,-243.5 1149.5,-224.5 1038.5,-224.5"/>
<text text-anchor="middle" x="1094" y="-231.5" font-family="Helvetica,sans-Serif" font-size="10.00" fill="#000000">src/ChigModule.cpp</text>
</a>
</g>
</g>
<!-- Node5&#45;&gt;Node23 -->
<g id="edge27" class="edge">
<title>Node5&#45;&gt;Node23</title>
<path fill="none" stroke="#191970" d="M906.522,-278.1125C950.3412,-267.8021 1012.9386,-253.0733 1053.5244,-243.5237"/>
<polygon fill="#191970" stroke="#191970" points="905.5757,-274.7395 896.6432,-280.4369 907.1791,-281.5534 905.5757,-274.7395"/>
</g>
<!-- Node24 -->
<g id="node20" class="node">
<title>Node24</title>
<g id="a_node20"><a xlink:href="Result_8cpp.html" target="_top" xlink:title="src/Result.cpp">
<polygon fill="#ffffff" stroke="#000000" points="1167.5,-224.5 1167.5,-243.5 1252.5,-243.5 1252.5,-224.5 1167.5,-224.5"/>
<text text-anchor="middle" x="1210" y="-231.5" font-family="Helvetica,sans-Serif" font-size="10.00" fill="#000000">src/Result.cpp</text>
</a>
</g>
</g>
<!-- Node5&#45;&gt;Node24 -->
<g id="edge28" class="edge">
<title>Node5&#45;&gt;Node24</title>
<path fill="none" stroke="#191970" d="M931.1394,-279.5085C992.5416,-270.7151 1081.5364,-257.4681 1159,-244 1161.7557,-243.5209 1164.5919,-243.0112 1167.4486,-242.4853"/>
<polygon fill="#191970" stroke="#191970" points="930.5528,-276.0567 921.1479,-280.9349 931.5422,-282.9864 930.5528,-276.0567"/>
</g>
<!-- Node7 -->
<g id="node3" class="node">
<title>Node7</title>
<g id="a_node3"><a xlink:href="FunctionCompiler_8cpp.html" target="_top" xlink:title="src/FunctionCompiler.cpp">
<polygon fill="#ffffff" stroke="#000000" points="128,-.5 128,-19.5 268,-19.5 268,-.5 128,-.5"/>
<text text-anchor="middle" x="198" y="-7.5" font-family="Helvetica,sans-Serif" font-size="10.00" fill="#000000">src/FunctionCompiler.cpp</text>
</a>
</g>
</g>
<!-- Node6&#45;&gt;Node7 -->
<g id="edge2" class="edge">
<title>Node6&#45;&gt;Node7</title>
<path fill="none" stroke="#191970" d="M198,-46.1575C198,-37.155 198,-26.9199 198,-19.6427"/>
<polygon fill="#191970" stroke="#191970" points="194.5001,-46.2455 198,-56.2455 201.5001,-46.2456 194.5001,-46.2455"/>
</g>
<!-- Node8 -->
<g id="node4" class="node">
<title>Node8</title>
<g id="a_node4"><a xlink:href="JsonModule_8cpp.html" target="_top" xlink:title="src/JsonModule.cpp">
<polygon fill="#ffffff" stroke="#000000" points="0,-.5 0,-19.5 110,-19.5 110,-.5 0,-.5"/>
<text text-anchor="middle" x="55" y="-7.5" font-family="Helvetica,sans-Serif" font-size="10.00" fill="#000000">src/JsonModule.cpp</text>
</a>
</g>
</g>
<!-- Node6&#45;&gt;Node8 -->
<g id="edge3" class="edge">
<title>Node6&#45;&gt;Node8</title>
<path fill="none" stroke="#191970" d="M163.9202,-52.6541C137.8427,-42.4419 102.5185,-28.6086 79.2618,-19.5011"/>
<polygon fill="#191970" stroke="#191970" points="162.8297,-55.9858 173.4174,-56.3733 165.3822,-49.4677 162.8297,-55.9858"/>
</g>
<!-- Node9&#45;&gt;Node7 -->
<g id="edge5" class="edge">
<title>Node9&#45;&gt;Node7</title>
<path fill="none" stroke="#191970" d="M515.4979,-55.0124C442.5811,-44.6748 334.52,-29.3547 265.1759,-19.5237"/>
<polygon fill="#191970" stroke="#191970" points="515.1536,-58.4985 525.5459,-56.4369 516.1362,-51.5678 515.1536,-58.4985"/>
</g>
<!-- Node10 -->
<g id="node6" class="node">
<title>Node10</title>
<g id="a_node6"><a xlink:href="FunctionValidator_8cpp.html" target="_top" xlink:title="src/FunctionValidator.cpp">
<polygon fill="#ffffff" stroke="#000000" points="531,-.5 531,-19.5 671,-19.5 671,-.5 531,-.5"/>
<text text-anchor="middle" x="601" y="-7.5" font-family="Helvetica,sans-Serif" font-size="10.00" fill="#000000">src/FunctionValidator.cpp</text>
</a>
</g>
</g>
<!-- Node9&#45;&gt;Node10 -->
<g id="edge6" class="edge">
<title>Node9&#45;&gt;Node10</title>
<path fill="none" stroke="#191970" d="M595.8346,-46.1575C597.1207,-37.155 598.5829,-26.9199 599.6225,-19.6427"/>
<polygon fill="#191970" stroke="#191970" points="592.343,-45.851 594.3935,-56.2455 599.2726,-46.8411 592.343,-45.851"/>
</g>
<!-- Node11 -->
<g id="node7" class="node">
<title>Node11</title>
<g id="a_node7"><a xlink:href="GraphFunction_8cpp.html" target="_top" xlink:title="src/GraphFunction.cpp">
<polygon fill="#ffffff" stroke="#000000" points="387.5,-.5 387.5,-19.5 512.5,-19.5 512.5,-.5 387.5,-.5"/>
<text text-anchor="middle" x="450" y="-7.5" font-family="Helvetica,sans-Serif" font-size="10.00" fill="#000000">src/GraphFunction.cpp</text>
</a>
</g>
</g>
<!-- Node9&#45;&gt;Node11 -->
<g id="edge7" class="edge">
<title>Node9&#45;&gt;Node11</title>
<path fill="none" stroke="#191970" d="M558.9202,-52.6541C532.8427,-42.4419 497.5185,-28.6086 474.2618,-19.5011"/>
<polygon fill="#191970" stroke="#191970" points="557.8297,-55.9858 568.4174,-56.3733 560.3822,-49.4677 557.8297,-55.9858"/>
</g>
<!-- Node12 -->
<g id="node8" class="node">
<title>Node12</title>
<g id="a_node8"><a xlink:href="NodeInstance_8cpp.html" target="_top" xlink:title="src/NodeInstance.cpp">
<polygon fill="#ffffff" stroke="#000000" points="689.5,-.5 689.5,-19.5 810.5,-19.5 810.5,-.5 689.5,-.5"/>
<text text-anchor="middle" x="750" y="-7.5" font-family="Helvetica,sans-Serif" font-size="10.00" fill="#000000">src/NodeInstance.cpp</text>
</a>
</g>
</g>
<!-- Node9&#45;&gt;Node12 -->
<g id="edge8" class="edge">
<title>Node9&#45;&gt;Node12</title>
<path fill="none" stroke="#191970" d="M629.6619,-52.9231C658.3624,-42.686 697.6044,-28.6889 723.3629,-19.5011"/>
<polygon fill="#191970" stroke="#191970" points="628.2322,-49.7171 619.9893,-56.3733 630.5839,-56.3102 628.2322,-49.7171"/>
</g>
<!-- Node14 -->
<g id="node10" class="node">
<title>Node14</title>
<g id="a_node10"><a xlink:href="Context_8cpp.html" target="_top" xlink:title="src/Context.cpp">
<polygon fill="#ffffff" stroke="#000000" points="829,-.5 829,-19.5 921,-19.5 921,-.5 829,-.5"/>
<text text-anchor="middle" x="875" y="-7.5" font-family="Helvetica,sans-Serif" font-size="10.00" fill="#000000">src/Context.cpp</text>
</a>
</g>
</g>
<!-- Node13&#45;&gt;Node14 -->
<g id="edge10" class="edge">
<title>Node13&#45;&gt;Node14</title>
<path fill="none" stroke="#191970" d="M974.8944,-219.5194C987.6477,-212.074 1000.8755,-201.6498 1008,-188 1012.113,-180.1199 1011.0467,-176.3504 1008,-168 983.4208,-100.6335 916.0699,-42.0916 887.78,-19.7031"/>
<polygon fill="#191970" stroke="#191970" points="972.9353,-216.5988 965.7859,-224.4178 976.2508,-222.7638 972.9353,-216.5988"/>
</g>
<!-- Node15 -->
<g id="node11" class="node">
<title>Node15</title>
<g id="a_node11"><a xlink:href="LangModule_8cpp.html" target="_top" xlink:title="src/LangModule.cpp">
<polygon fill="#ffffff" stroke="#000000" points="885.5,-168.5 885.5,-187.5 998.5,-187.5 998.5,-168.5 885.5,-168.5"/>
<text text-anchor="middle" x="942" y="-175.5" font-family="Helvetica,sans-Serif" font-size="10.00" fill="#000000">src/LangModule.cpp</text>
</a>
</g>
</g>
<!-- Node13&#45;&gt;Node15 -->
<g id="edge11" class="edge">
<title>Node13&#45;&gt;Node15</title>
<path fill="none" stroke="#191970" d="M942,-214.1575C942,-205.155 942,-194.9199 942,-187.6427"/>
<polygon fill="#191970" stroke="#191970" points="938.5001,-214.2455 942,-224.2455 945.5001,-214.2456 938.5001,-214.2455"/>
</g>
<!-- Node16&#45;&gt;Node15 -->
<g id="edge26" class="edge">
<title>Node16&#45;&gt;Node15</title>
<path fill="none" stroke="#191970" d="M810.1148,-221.1905C841.4432,-210.9309 884.6871,-196.7691 912.9876,-187.5011"/>
<polygon fill="#191970" stroke="#191970" points="808.81,-217.9348 800.3959,-224.3733 810.9886,-224.5872 808.81,-217.9348"/>
</g>
<!-- Node17 -->
<g id="node13" class="node">
<title>Node17</title>
<g id="a_node13"><a xlink:href="CModule_8hpp.html" target="_top" xlink:title="Defines the CModule class. ">
<polygon fill="#ffffff" stroke="#000000" points="726.5,-168.5 726.5,-187.5 867.5,-187.5 867.5,-168.5 726.5,-168.5"/>
<text text-anchor="middle" x="797" y="-175.5" font-family="Helvetica,sans-Serif" font-size="10.00" fill="#000000">include/chig/CModule.hpp</text>
</a>
</g>
</g>
<!-- Node16&#45;&gt;Node17 -->
<g id="edge13" class="edge">
<title>Node16&#45;&gt;Node17</title>
<path fill="none" stroke="#191970" d="M779.8011,-215.0437C784.0775,-205.8331 789.033,-195.1598 792.523,-187.6427"/>
<polygon fill="#191970" stroke="#191970" points="776.5655,-213.7015 775.5289,-224.2455 782.9146,-216.6494 776.5655,-213.7015"/>
</g>
<!-- Node19 -->
<g id="node15" class="node">
<title>Node19</title>
<g id="a_node15"><a xlink:href="NodeInstance_8hpp.html" target="_top" xlink:title="Defines the NodeInstance class and related functions. ">
<polygon fill="#ffffff" stroke="#000000" points="542,-168.5 542,-187.5 708,-187.5 708,-168.5 542,-168.5"/>
<text text-anchor="middle" x="625" y="-175.5" font-family="Helvetica,sans-Serif" font-size="10.00" fill="#000000">include/chig/NodeInstance.hpp</text>
</a>
</g>
</g>
<!-- Node16&#45;&gt;Node19 -->
<g id="edge16" class="edge">
<title>Node16&#45;&gt;Node19</title>
<path fill="none" stroke="#191970" d="M736.5565,-220.7888C709.8987,-210.5639 673.62,-196.6488 649.7708,-187.5011"/>
<polygon fill="#191970" stroke="#191970" points="735.3115,-224.0598 745.9017,-224.3733 737.8184,-217.5241 735.3115,-224.0598"/>
</g>
<!-- Node17&#45;&gt;Node14 -->
<g id="edge15" class="edge">
<title>Node17&#45;&gt;Node14</title>
<path fill="none" stroke="#191970" d="M823.4899,-162.7022C834.6306,-154.9196 846.6815,-144.4584 854,-132 875.7716,-94.9375 876.3425,-41.3223 875.5504,-19.6391"/>
<polygon fill="#191970" stroke="#191970" points="821.3055,-159.9489 814.8583,-168.3563 825.1412,-165.8045 821.3055,-159.9489"/>
</g>
<!-- Node18 -->
<g id="node14" class="node">
<title>Node18</title>
<g id="a_node14"><a xlink:href="CModule_8cpp.html" target="_top" xlink:title="src/CModule.cpp">
<polygon fill="#ffffff" stroke="#000000" points="749,-112.5 749,-131.5 845,-131.5 845,-112.5 749,-112.5"/>
<text text-anchor="middle" x="797" y="-119.5" font-family="Helvetica,sans-Serif" font-size="10.00" fill="#000000">src/CModule.cpp</text>
</a>
</g>
</g>
<!-- Node17&#45;&gt;Node18 -->
<g id="edge14" class="edge">
<title>Node17&#45;&gt;Node18</title>
<path fill="none" stroke="#191970" d="M797,-158.1575C797,-149.155 797,-138.9199 797,-131.6427"/>
<polygon fill="#191970" stroke="#191970" points="793.5001,-158.2455 797,-168.2455 800.5001,-158.2456 793.5001,-158.2455"/>
</g>
<!-- Node19&#45;&gt;Node12 -->
<g id="edge25" class="edge">
<title>Node19&#45;&gt;Node12</title>
<path fill="none" stroke="#191970" d="M650.8131,-163.1415C663.1844,-155.0921 677.5463,-144.2822 688,-132 718.7983,-95.8148 739.3161,-41.7061 746.8188,-19.765"/>
<polygon fill="#191970" stroke="#191970" points="648.8678,-160.2298 642.2409,-168.4964 652.5764,-166.1667 648.8678,-160.2298"/>
</g>
<!-- Node20 -->
<g id="node16" class="node">
<title>Node20</title>
<g id="a_node16"><a xlink:href="Graph_8hpp.html" target="_top" xlink:title="Defines the internal Graph structure. ">
<polygon fill="#ffffff" stroke="#000000" points="551,-112.5 551,-131.5 679,-131.5 679,-112.5 551,-112.5"/>
<text text-anchor="middle" x="615" y="-119.5" font-family="Helvetica,sans-Serif" font-size="10.00" fill="#000000">include/chig/Graph.hpp</text>
</a>
</g>
</g>
<!-- Node19&#45;&gt;Node20 -->
<g id="edge17" class="edge">
<title>Node19&#45;&gt;Node20</title>
<path fill="none" stroke="#191970" d="M621.4567,-158.1575C619.8491,-149.155 618.0214,-138.9199 616.7219,-131.6427"/>
<polygon fill="#191970" stroke="#191970" points="618.0546,-159.0166 623.2581,-168.2455 624.9456,-157.786 618.0546,-159.0166"/>
</g>
<!-- Node21 -->
<g id="node17" class="node">
<title>Node21</title>
<g id="a_node17"><a xlink:href="GraphFunction_8hpp.html" target="_top" xlink:title="Declares the GraphFunction class. ">
<polygon fill="#ffffff" stroke="#000000" points="312,-56.5 312,-75.5 482,-75.5 482,-56.5 312,-56.5"/>
<text text-anchor="middle" x="397" y="-63.5" font-family="Helvetica,sans-Serif" font-size="10.00" fill="#000000">include/chig/GraphFunction.hpp</text>
</a>
</g>
</g>
<!-- Node20&#45;&gt;Node21 -->
<g id="edge18" class="edge">
<title>Node20&#45;&gt;Node21</title>
<path fill="none" stroke="#191970" d="M567.7061,-109.8511C527.5907,-99.5462 470.8465,-84.9697 433.9865,-75.5011"/>
<polygon fill="#191970" stroke="#191970" points="566.9681,-113.2751 577.5245,-112.3733 568.7098,-106.4952 566.9681,-113.2751"/>
</g>
<!-- Node21&#45;&gt;Node7 -->
<g id="edge20" class="edge">
<title>Node21&#45;&gt;Node7</title>
<path fill="none" stroke="#191970" d="M352.8938,-53.5882C316.3323,-43.2996 265.1252,-28.8895 231.7629,-19.5011"/>
<polygon fill="#191970" stroke="#191970" points="352.2164,-57.0335 362.7907,-56.3733 354.1127,-50.2952 352.2164,-57.0335"/>
</g>
<!-- Node21&#45;&gt;Node8 -->
<g id="edge24" class="edge">
<title>Node21&#45;&gt;Node8</title>
<path fill="none" stroke="#191970" d="M328.5627,-54.7939C264.3426,-44.2783 169.5142,-28.7509 110.0502,-19.0141"/>
<polygon fill="#191970" stroke="#191970" points="328.1625,-58.2749 338.5967,-56.4369 329.2937,-51.3669 328.1625,-58.2749"/>
</g>
<!-- Node21&#45;&gt;Node10 -->
<g id="edge21" class="edge">
<title>Node21&#45;&gt;Node10</title>
<path fill="none" stroke="#191970" d="M441.7347,-53.7199C479.2455,-43.4228 532.0421,-28.9296 566.3888,-19.5011"/>
<polygon fill="#191970" stroke="#191970" points="440.7856,-50.3509 432.0689,-56.3733 442.6387,-57.1012 440.7856,-50.3509"/>
</g>
<!-- Node21&#45;&gt;Node11 -->
<g id="edge23" class="edge">
<title>Node21&#45;&gt;Node11</title>
<path fill="none" stroke="#191970" d="M413.2896,-48.7884C422.3562,-39.2085 433.3054,-27.6396 440.8739,-19.6427"/>
<polygon fill="#191970" stroke="#191970" points="410.5637,-46.5767 406.2319,-56.2455 415.6478,-51.3884 410.5637,-46.5767"/>
</g>
<!-- Node21&#45;&gt;Node14 -->
<g id="edge19" class="edge">
<title>Node21&#45;&gt;Node14</title>
<path fill="none" stroke="#191970" d="M492.6427,-55.774C612.4262,-42.9411 804.0172,-22.319 820,-20 822.8814,-19.5819 825.8427,-19.1245 828.8258,-18.6427"/>
<polygon fill="#191970" stroke="#191970" points="491.9287,-52.3304 482.3583,-56.8756 492.6742,-59.2906 491.9287,-52.3304"/>
</g>
<!-- Node22 -->
<g id="node18" class="node">
<title>Node22</title>
<g id="a_node18"><a xlink:href="Graph_8cpp.html" target="_top" xlink:title="src/Graph.cpp">
<polygon fill="#ffffff" stroke="#000000" points="286.5,-.5 286.5,-19.5 369.5,-19.5 369.5,-.5 286.5,-.5"/>
<text text-anchor="middle" x="328" y="-7.5" font-family="Helvetica,sans-Serif" font-size="10.00" fill="#000000">src/Graph.cpp</text>
</a>
</g>
</g>
<!-- Node21&#45;&gt;Node22 -->
<g id="edge22" class="edge">
<title>Node21&#45;&gt;Node22</title>
<path fill="none" stroke="#191970" d="M377.197,-49.928C365.1364,-40.1397 350.1286,-27.9595 339.8812,-19.6427"/>
<polygon fill="#191970" stroke="#191970" points="375.0109,-52.6614 384.9811,-56.2455 379.4221,-47.2262 375.0109,-52.6614"/>
</g>
</g>
</svg>
        <g id="navigator" transform="translate(0 0)" fill="#404254">
                <rect fill="#f2f5e9" fill-opacity="0.5" stroke="#606060" stroke-width=".5" x="0" y="0" width="60" height="60"/>
                <use id="zoomplus" xlink:href="#zoomPlus" x="17" y="9" onmousedown="handleZoom(evt,'in')"/>
                <use id="zoomminus" xlink:href="#zoomMin" x="42" y="9" onmousedown="handleZoom(evt,'out')"/>
                <use id="reset" xlink:href="#resetDef" x="30" y="36" onmousedown="handleReset()"/>
                <g id="arrowUp" xlink:href="#dirArrow" transform="translate(30 24)" onmousedown="handlePan(0,-1)">
                  <use xlink:href="#rim" fill="#404040">
                        <set attributeName="fill" to="#808080" begin="arrowUp.mouseover" end="arrowUp.mouseout"/>
                  </use>
                  <path fill="none" stroke="white" stroke-width="1.5" d="M0,-3.0v7 M-2.5,-0.5L0,-3.0L2.5,-0.5"/>
                </g>
                <g id="arrowRight" xlink:href="#dirArrow" transform="rotate(90) translate(36 -43)" onmousedown="handlePan(1,0)">
                  <use xlink:href="#rim" fill="#404040">
                        <set attributeName="fill" to="#808080" begin="arrowRight.mouseover" end="arrowRight.mouseout"/>
                  </use>
                  <path fill="none" stroke="white" stroke-width="1.5" d="M0,-3.0v7 M-2.5,-0.5L0,-3.0L2.5,-0.5"/>
                </g>
                <g id="arrowDown" xlink:href="#dirArrow" transform="rotate(180) translate(-30 -48)" onmousedown="handlePan(0,1)">
                  <use xlink:href="#rim" fill="#404040">
                        <set attributeName="fill" to="#808080" begin="arrowDown.mouseover" end="arrowDown.mouseout"/>
                  </use>
                  <path fill="none" stroke="white" stroke-width="1.5" d="M0,-3.0v7 M-2.5,-0.5L0,-3.0L2.5,-0.5"/>
                </g>
                <g id="arrowLeft" xlink:href="#dirArrow" transform="rotate(270) translate(-36 17)" onmousedown="handlePan(-1,0)">
                  <use xlink:href="#rim" fill="#404040">
                        <set attributeName="fill" to="#808080" begin="arrowLeft.mouseover" end="arrowLeft.mouseout"/>
                  </use>
                  <path fill="none" stroke="white" stroke-width="1.5" d="M0,-3.0v7 M-2.5,-0.5L0,-3.0L2.5,-0.5"/>
                </g>
        </g>
        <svg viewBox="0 0 15 15" width="100%" height="30px" preserveAspectRatio="xMaxYMin meet">
         <g id="arrow_out" transform="scale(0.3 0.3)">
          <a xlink:href="Result_8hpp__dep__incl_org.svg" target="_base">
           <rect id="button" ry="5" rx="5" y="6" x="6" height="38" width="38"
                fill="#f2f5e9" fill-opacity="0.5" stroke="#606060" stroke-width="1.0"/>
           <path id="arrow"
             d="M 11.500037,31.436501 C 11.940474,20.09759 22.043105,11.32322 32.158766,21.979434 L 37.068811,17.246167 C 37.068811,17.246167 37.088388,32 37.088388,32 L 22.160133,31.978069 C 22.160133,31.978069 26.997745,27.140456 26.997745,27.140456 C 18.528582,18.264221 13.291696,25.230495 11.500037,31.436501 z"
             style="fill:#404040;"/>
          </a>
         </g>
        </svg>
</svg>
