<?xml version="1.0" encoding="UTF-8" standalone="no"?>
<!DOCTYPE svg PUBLIC "-//W3C//DTD SVG 1.1//EN"
 "http://www.w3.org/Graphics/SVG/1.1/DTD/svg11.dtd">
<!-- Generated by graphviz version 2.40.1 (20161225.0304)
 -->
<!-- Title: libchigraph/include/chi/Result.hpp Pages: 1 -->
<!--zoomable 106 -->
<svg id="main" version="1.1" xmlns="http://www.w3.org/2000/svg" xmlns:xlink="http://www.w3.org/1999/xlink" xml:space="preserve" onload="init(evt)">
<style type="text/css"><![CDATA[
.edge:hover path { stroke: red; }
.edge:hover polygon { stroke: red; fill: red; }
]]></style>
<script type="text/javascript"><![CDATA[
var edges = document.getElementsByTagName('g');
if (edges && edges.length) {
  for (var i=0;i<edges.length;i++) {
    if (edges[i].id.substr(0,4)=='edge') {
      edges[i].setAttribute('class','edge');
    }
  }
}
]]></script>
        <defs>
                <circle id="rim" cx="0" cy="0" r="7"/>
                <circle id="rim2" cx="0" cy="0" r="3.5"/>
                <g id="zoomPlus">
                        <use xlink:href="#rim" fill="#404040">
                                <set attributeName="fill" to="#808080" begin="zoomplus.mouseover" end="zoomplus.mouseout"/>
                        </use>
                        <path d="M-4,0h8M0,-4v8" fill="none" stroke="white" stroke-width="1.5" pointer-events="none"/>
                </g>
                <g id="zoomMin">
                        <use xlink:href="#rim" fill="#404040">
                                <set attributeName="fill" to="#808080" begin="zoomminus.mouseover" end="zoomminus.mouseout"/>
                        </use>
                        <path d="M-4,0h8" fill="none" stroke="white" stroke-width="1.5" pointer-events="none"/>
                </g>
                <g id="dirArrow">
                        <path fill="none" stroke="white" stroke-width="1.5" d="M0,-3.0v7 M-2.5,-0.5L0,-3.0L2.5,-0.5"/>
                </g>
               <g id="resetDef">
                       <use xlink:href="#rim2" fill="#404040">
                               <set attributeName="fill" to="#808080" begin="reset.mouseover" end="reset.mouseout"/>
                       </use>
               </g>
        </defs>

<script type="text/javascript">
var viewWidth = 2279;
var viewHeight = 106;
var sectionId = 'dynsection-1';
</script>
<script xlink:href="svgpan.js"/>
<svg id="graph" class="graph">
<g id="viewport">
<title>libchigraph/include/chi/Result.hpp</title>
<polygon fill="#ffffff" stroke="transparent" points="-4,4 -4,-102 2275,-102 2275,4 -4,4"/>
<!-- Node3 -->
<g id="node1" class="node">
<title>Node3</title>
<polygon fill="#bfbfbf" stroke="#000000" points="1075,-67.5 1075,-97.5 1172,-97.5 1172,-67.5 1075,-67.5"/>
<text text-anchor="start" x="1083" y="-85.5" font-family="Helvetica,sans-Serif" font-size="10.00" fill="#000000">libchigraph/include</text>
<text text-anchor="middle" x="1123.5" y="-74.5" font-family="Helvetica,sans-Serif" font-size="10.00" fill="#000000">/chi/Result.hpp</text>
</g>
<!-- Node4 -->
<g id="node2" class="node">
<title>Node4</title>
<g id="a_node2"><a xlink:href="ChiModule_8cpp.html" target="_top" xlink:title="libchigraph/src/ChiModule.cpp">
<polygon fill="#ffffff" stroke="#000000" points="0,-6 0,-25 147,-25 147,-6 0,-6"/>
<text text-anchor="middle" x="73.5" y="-13" font-family="Helvetica,sans-Serif" font-size="10.00" fill="#000000">libchigraph/src/ChiModule.cpp</text>
</a>
</g>
</g>
<!-- Node3&#45;&gt;Node4 -->
<g id="edge1" class="edge">
<title>Node3&#45;&gt;Node4</title>
<path fill="none" stroke="#191970" d="M1064.8411,-80.4098C883.4455,-73.7835 333.1282,-52.4158 155.5,-31 143.2736,-29.5259 130.1262,-27.3219 118.0173,-25.0352"/>
<polygon fill="#191970" stroke="#191970" points="1064.8619,-83.9128 1074.9827,-80.779 1065.1166,-76.9174 1064.8619,-83.9128"/>
</g>
<!-- Node5 -->
<g id="node3" class="node">
<title>Node5</title>
<g id="a_node3"><a xlink:href="Context_8cpp.html" target="_top" xlink:title="libchigraph/src/Context.cpp">
<polygon fill="#ffffff" stroke="#000000" points="165,-6 165,-25 300,-25 300,-6 165,-6"/>
<text text-anchor="middle" x="232.5" y="-13" font-family="Helvetica,sans-Serif" font-size="10.00" fill="#000000">libchigraph/src/Context.cpp</text>
</a>
</g>
</g>
<!-- Node3&#45;&gt;Node5 -->
<g id="edge2" class="edge">
<title>Node3&#45;&gt;Node5</title>
<path fill="none" stroke="#191970" d="M1064.5646,-81.5044C930.1242,-78.6372 590.6768,-68.0217 309.5,-31 298.1436,-29.5047 285.9496,-27.3219 274.6903,-25.0637"/>
<polygon fill="#191970" stroke="#191970" points="1064.5796,-85.0054 1074.6498,-81.713 1064.7244,-78.0069 1064.5796,-85.0054"/>
</g>
<!-- Node6 -->
<g id="node4" class="node">
<title>Node6</title>
<g id="a_node4"><a xlink:href="FunctionCompiler_8cpp.html" target="_top" xlink:title="libchigraph/src/Function\lCompiler.cpp">
<polygon fill="#ffffff" stroke="#000000" points="318.5,-.5 318.5,-30.5 438.5,-30.5 438.5,-.5 318.5,-.5"/>
<text text-anchor="start" x="326.5" y="-18.5" font-family="Helvetica,sans-Serif" font-size="10.00" fill="#000000">libchigraph/src/Function</text>
<text text-anchor="middle" x="378.5" y="-7.5" font-family="Helvetica,sans-Serif" font-size="10.00" fill="#000000">Compiler.cpp</text>
</a>
</g>
</g>
<!-- Node3&#45;&gt;Node6 -->
<g id="edge3" class="edge">
<title>Node3&#45;&gt;Node6</title>
<path fill="none" stroke="#191970" d="M1064.6327,-80.8835C946.8525,-77.0181 674.0558,-64.8938 447.5,-31 444.5858,-30.564 441.6115,-30.0736 438.6141,-29.5427"/>
<polygon fill="#191970" stroke="#191970" points="1064.7608,-84.3893 1074.8677,-81.2112 1064.9849,-77.3929 1064.7608,-84.3893"/>
</g>
<!-- Node7 -->
<g id="node5" class="node">
<title>Node7</title>
<g id="a_node5"><a xlink:href="FunctionValidator_8cpp.html" target="_top" xlink:title="libchigraph/src/Function\lValidator.cpp">
<polygon fill="#ffffff" stroke="#000000" points="456.5,-.5 456.5,-30.5 576.5,-30.5 576.5,-.5 456.5,-.5"/>
<text text-anchor="start" x="464.5" y="-18.5" font-family="Helvetica,sans-Serif" font-size="10.00" fill="#000000">libchigraph/src/Function</text>
<text text-anchor="middle" x="516.5" y="-7.5" font-family="Helvetica,sans-Serif" font-size="10.00" fill="#000000">Validator.cpp</text>
</a>
</g>
</g>
<!-- Node3&#45;&gt;Node7 -->
<g id="edge4" class="edge">
<title>Node3&#45;&gt;Node7</title>
<path fill="none" stroke="#191970" d="M1064.5132,-79.2834C965.1851,-73.3247 758.4413,-58.5902 585.5,-31 582.5902,-30.5358 579.6195,-30.0224 576.6249,-29.4731"/>
<polygon fill="#191970" stroke="#191970" points="1064.4595,-82.7862 1074.6488,-79.8832 1064.8731,-75.7985 1064.4595,-82.7862"/>
</g>
<!-- Node8 -->
<g id="node6" class="node">
<title>Node8</title>
<g id="a_node6"><a xlink:href="GraphFunction_8cpp.html" target="_top" xlink:title="libchigraph/src/GraphFunction.cpp">
<polygon fill="#ffffff" stroke="#000000" points="595,-6 595,-25 760,-25 760,-6 595,-6"/>
<text text-anchor="middle" x="677.5" y="-13" font-family="Helvetica,sans-Serif" font-size="10.00" fill="#000000">libchigraph/src/GraphFunction.cpp</text>
</a>
</g>
</g>
<!-- Node3&#45;&gt;Node8 -->
<g id="edge5" class="edge">
<title>Node3&#45;&gt;Node8</title>
<path fill="none" stroke="#191970" d="M1064.9103,-74.4512C994.4748,-64.6709 872.721,-47.4331 768.5,-31 756.7854,-29.1529 744.2396,-27.0785 732.322,-25.0626"/>
<polygon fill="#191970" stroke="#191970" points="1064.536,-77.9327 1074.9219,-75.8391 1065.4972,-70.999 1064.536,-77.9327"/>
</g>
<!-- Node9 -->
<g id="node7" class="node">
<title>Node9</title>
<g id="a_node7"><a xlink:href="GraphModule_8cpp.html" target="_top" xlink:title="libchigraph/src/GraphModule.cpp">
<polygon fill="#ffffff" stroke="#000000" points="778,-6 778,-25 937,-25 937,-6 778,-6"/>
<text text-anchor="middle" x="857.5" y="-13" font-family="Helvetica,sans-Serif" font-size="10.00" fill="#000000">libchigraph/src/GraphModule.cpp</text>
</a>
</g>
</g>
<!-- Node3&#45;&gt;Node9 -->
<g id="edge6" class="edge">
<title>Node3&#45;&gt;Node9</title>
<path fill="none" stroke="#191970" d="M1065.0087,-67.7672C1013.3256,-54.7493 939.4811,-36.1494 895.2363,-25.005"/>
<polygon fill="#191970" stroke="#191970" points="1064.1595,-71.1626 1074.7115,-70.2112 1065.8693,-64.3746 1064.1595,-71.1626"/>
</g>
<!-- Node10 -->
<g id="node8" class="node">
<title>Node10</title>
<g id="a_node8"><a xlink:href="GraphStruct_8cpp.html" target="_top" xlink:title="libchigraph/src/GraphStruct.cpp">
<polygon fill="#ffffff" stroke="#000000" points="955.5,-6 955.5,-25 1109.5,-25 1109.5,-6 955.5,-6"/>
<text text-anchor="middle" x="1032.5" y="-13" font-family="Helvetica,sans-Serif" font-size="10.00" fill="#000000">libchigraph/src/GraphStruct.cpp</text>
</a>
</g>
</g>
<!-- Node3&#45;&gt;Node10 -->
<g id="edge7" class="edge">
<title>Node3&#45;&gt;Node10</title>
<path fill="none" stroke="#191970" d="M1094.586,-61.2117C1078.0878,-49.0646 1058.2188,-34.4358 1045.4776,-25.055"/>
<polygon fill="#191970" stroke="#191970" points="1092.7227,-64.1861 1102.8507,-67.2967 1096.873,-58.5492 1092.7227,-64.1861"/>
</g>
<!-- Node11 -->
<g id="node9" class="node">
<title>Node11</title>
<g id="a_node9"><a xlink:href="JsonDeserializer_8cpp.html" target="_top" xlink:title="libchigraph/src/JsonDeserializer.cpp">
<polygon fill="#ffffff" stroke="#000000" points="1128,-6 1128,-25 1301,-25 1301,-6 1128,-6"/>
<text text-anchor="middle" x="1214.5" y="-13" font-family="Helvetica,sans-Serif" font-size="10.00" fill="#000000">libchigraph/src/JsonDeserializer.cpp</text>
</a>
</g>
</g>
<!-- Node3&#45;&gt;Node11 -->
<g id="edge8" class="edge">
<title>Node3&#45;&gt;Node11</title>
<path fill="none" stroke="#191970" d="M1152.414,-61.2117C1168.9122,-49.0646 1188.7812,-34.4358 1201.5224,-25.055"/>
<polygon fill="#191970" stroke="#191970" points="1150.127,-58.5492 1144.1493,-67.2967 1154.2773,-64.1861 1150.127,-58.5492"/>
</g>
<!-- Node12 -->
<g id="node10" class="node">
<title>Node12</title>
<g id="a_node10"><a xlink:href="LangModule_8cpp.html" target="_top" xlink:title="libchigraph/src/LangModule.cpp">
<polygon fill="#ffffff" stroke="#000000" points="1319.5,-6 1319.5,-25 1473.5,-25 1473.5,-6 1319.5,-6"/>
<text text-anchor="middle" x="1396.5" y="-13" font-family="Helvetica,sans-Serif" font-size="10.00" fill="#000000">libchigraph/src/LangModule.cpp</text>
</a>
</g>
</g>
<!-- Node3&#45;&gt;Node12 -->
<g id="edge9" class="edge">
<title>Node3&#45;&gt;Node12</title>
<path fill="none" stroke="#191970" d="M1182.2387,-68.0843C1235.191,-55.0886 1311.5705,-36.3435 1357.3926,-25.0978"/>
<polygon fill="#191970" stroke="#191970" points="1181.1845,-64.7391 1172.3069,-70.5217 1182.853,-71.5373 1181.1845,-64.7391"/>
</g>
<!-- Node13 -->
<g id="node11" class="node">
<title>Node13</title>
<g id="a_node11"><a xlink:href="ModuleCache_8cpp.html" target="_top" xlink:title="libchigraph/src/ModuleCache.cpp">
<polygon fill="#ffffff" stroke="#000000" points="1492,-6 1492,-25 1653,-25 1653,-6 1492,-6"/>
<text text-anchor="middle" x="1572.5" y="-13" font-family="Helvetica,sans-Serif" font-size="10.00" fill="#000000">libchigraph/src/ModuleCache.cpp</text>
</a>
</g>
</g>
<!-- Node3&#45;&gt;Node13 -->
<g id="edge10" class="edge">
<title>Node3&#45;&gt;Node13</title>
<path fill="none" stroke="#191970" d="M1182.1589,-74.5998C1253.3038,-64.8993 1376.8345,-47.6747 1482.5,-31 1494.2459,-29.1464 1506.8342,-27.0485 1518.7632,-25.0086"/>
<polygon fill="#191970" stroke="#191970" points="1181.4873,-71.1589 1172.0506,-75.9755 1182.4313,-78.095 1181.4873,-71.1589"/>
</g>
<!-- Node14 -->
<g id="node12" class="node">
<title>Node14</title>
<g id="a_node12"><a xlink:href="NodeInstance_8cpp.html" target="_top" xlink:title="libchigraph/src/NodeInstance.cpp">
<polygon fill="#ffffff" stroke="#000000" points="1671,-6 1671,-25 1832,-25 1832,-6 1671,-6"/>
<text text-anchor="middle" x="1751.5" y="-13" font-family="Helvetica,sans-Serif" font-size="10.00" fill="#000000">libchigraph/src/NodeInstance.cpp</text>
</a>
</g>
</g>
<!-- Node3&#45;&gt;Node14 -->
<g id="edge11" class="edge">
<title>Node3&#45;&gt;Node14</title>
<path fill="none" stroke="#191970" d="M1182.4601,-78.3636C1281.7739,-71.0613 1488.6183,-54.4128 1662.5,-31 1674.935,-29.3257 1688.2895,-27.1841 1700.7745,-25.0309"/>
<polygon fill="#191970" stroke="#191970" points="1182.045,-74.8845 1172.3265,-79.1036 1182.5549,-81.8659 1182.045,-74.8845"/>
</g>
<!-- Node15 -->
<g id="node13" class="node">
<title>Node15</title>
<g id="a_node13"><a xlink:href="Result_8cpp.html" target="_top" xlink:title="libchigraph/src/Result.cpp">
<polygon fill="#ffffff" stroke="#000000" points="1850,-6 1850,-25 1979,-25 1979,-6 1850,-6"/>
<text text-anchor="middle" x="1914.5" y="-13" font-family="Helvetica,sans-Serif" font-size="10.00" fill="#000000">libchigraph/src/Result.cpp</text>
</a>
</g>
</g>
<!-- Node3&#45;&gt;Node15 -->
<g id="edge12" class="edge">
<title>Node3&#45;&gt;Node15</title>
<path fill="none" stroke="#191970" d="M1182.382,-81.0181C1305.3761,-77.3212 1598.3174,-65.3722 1841.5,-31 1852.2761,-29.4769 1863.8399,-27.2845 1874.5144,-25.026"/>
<polygon fill="#191970" stroke="#191970" points="1181.9593,-77.5289 1172.0662,-81.3207 1182.1646,-84.5259 1181.9593,-77.5289"/>
</g>
<!-- Node16 -->
<g id="node14" class="node">
<title>Node16</title>
<g id="a_node14"><a xlink:href="Subprocess_8cpp.html" target="_top" xlink:title="libchigraph/src/Subprocess.cpp">
<polygon fill="#ffffff" stroke="#000000" points="1997,-6 1997,-25 2150,-25 2150,-6 1997,-6"/>
<text text-anchor="middle" x="2073.5" y="-13" font-family="Helvetica,sans-Serif" font-size="10.00" fill="#000000">libchigraph/src/Subprocess.cpp</text>
</a>
</g>
</g>
<!-- Node3&#45;&gt;Node16 -->
<g id="edge13" class="edge">
<title>Node3&#45;&gt;Node16</title>
<path fill="none" stroke="#191970" d="M1182.5656,-81.4426C1322.8457,-78.3962 1686.8748,-67.3451 1988.5,-31 2001.0098,-29.4926 2014.4616,-27.3056 2026.8904,-25.0473"/>
<polygon fill="#191970" stroke="#191970" points="1182.3825,-77.9456 1172.4589,-81.6566 1182.5307,-84.9441 1182.3825,-77.9456"/>
</g>
<!-- Node17 -->
<g id="node15" class="node">
<title>Node17</title>
<g id="a_node15"><a xlink:href="Debugger_8cpp.html" target="_top" xlink:title="libchigraphdebugger\l/src/Debugger.cpp">
<polygon fill="#ffffff" stroke="#000000" points="2168,-.5 2168,-30.5 2271,-30.5 2271,-.5 2168,-.5"/>
<text text-anchor="start" x="2176" y="-18.5" font-family="Helvetica,sans-Serif" font-size="10.00" fill="#000000">libchigraphdebugger</text>
<text text-anchor="middle" x="2219.5" y="-7.5" font-family="Helvetica,sans-Serif" font-size="10.00" fill="#000000">/src/Debugger.cpp</text>
</a>
</g>
</g>
<!-- Node3&#45;&gt;Node17 -->
<g id="edge14" class="edge">
<title>Node3&#45;&gt;Node17</title>
<path fill="none" stroke="#191970" d="M1182.1336,-81.1524C1372.021,-76.5419 1968.8464,-60.0559 2159.5,-31 2162.2653,-30.5786 2165.0878,-30.0828 2167.9274,-29.5323"/>
<polygon fill="#191970" stroke="#191970" points="1181.9836,-77.6549 1172.0709,-81.3948 1182.1523,-84.6529 1181.9836,-77.6549"/>
</g>
</g>
</svg>
        <g id="navigator" transform="translate(0 0)" fill="#404254">
                <rect fill="#f2f5e9" fill-opacity="0.5" stroke="#606060" stroke-width=".5" x="0" y="0" width="60" height="60"/>
                <use id="zoomplus" xlink:href="#zoomPlus" x="17" y="9" onmousedown="handleZoom(evt,'in')"/>
                <use id="zoomminus" xlink:href="#zoomMin" x="42" y="9" onmousedown="handleZoom(evt,'out')"/>
                <use id="reset" xlink:href="#resetDef" x="30" y="36" onmousedown="handleReset()"/>
                <g id="arrowUp" xlink:href="#dirArrow" transform="translate(30 24)" onmousedown="handlePan(0,-1)">
                  <use xlink:href="#rim" fill="#404040">
                        <set attributeName="fill" to="#808080" begin="arrowUp.mouseover" end="arrowUp.mouseout"/>
                  </use>
                  <path fill="none" stroke="white" stroke-width="1.5" d="M0,-3.0v7 M-2.5,-0.5L0,-3.0L2.5,-0.5"/>
                </g>
                <g id="arrowRight" xlink:href="#dirArrow" transform="rotate(90) translate(36 -43)" onmousedown="handlePan(1,0)">
                  <use xlink:href="#rim" fill="#404040">
                        <set attributeName="fill" to="#808080" begin="arrowRight.mouseover" end="arrowRight.mouseout"/>
                  </use>
                  <path fill="none" stroke="white" stroke-width="1.5" d="M0,-3.0v7 M-2.5,-0.5L0,-3.0L2.5,-0.5"/>
                </g>
                <g id="arrowDown" xlink:href="#dirArrow" transform="rotate(180) translate(-30 -48)" onmousedown="handlePan(0,1)">
                  <use xlink:href="#rim" fill="#404040">
                        <set attributeName="fill" to="#808080" begin="arrowDown.mouseover" end="arrowDown.mouseout"/>
                  </use>
                  <path fill="none" stroke="white" stroke-width="1.5" d="M0,-3.0v7 M-2.5,-0.5L0,-3.0L2.5,-0.5"/>
                </g>
                <g id="arrowLeft" xlink:href="#dirArrow" transform="rotate(270) translate(-36 17)" onmousedown="handlePan(-1,0)">
                  <use xlink:href="#rim" fill="#404040">
                        <set attributeName="fill" to="#808080" begin="arrowLeft.mouseover" end="arrowLeft.mouseout"/>
                  </use>
                  <path fill="none" stroke="white" stroke-width="1.5" d="M0,-3.0v7 M-2.5,-0.5L0,-3.0L2.5,-0.5"/>
                </g>
        </g>
        <svg viewBox="0 0 15 15" width="100%" height="30px" preserveAspectRatio="xMaxYMin meet">
         <g id="arrow_out" transform="scale(0.3 0.3)">
          <a xlink:href="Result_8hpp__dep__incl_org.svg" target="_base">
           <rect id="button" ry="5" rx="5" y="6" x="6" height="38" width="38"
                fill="#f2f5e9" fill-opacity="0.5" stroke="#606060" stroke-width="1.0"/>
           <path id="arrow"
             d="M 11.500037,31.436501 C 11.940474,20.09759 22.043105,11.32322 32.158766,21.979434 L 37.068811,17.246167 C 37.068811,17.246167 37.088388,32 37.088388,32 L 22.160133,31.978069 C 22.160133,31.978069 26.997745,27.140456 26.997745,27.140456 C 18.528582,18.264221 13.291696,25.230495 11.500037,31.436501 z"
             style="fill:#404040;"/>
          </a>
         </g>
        </svg>
</svg>
