<?xml version="1.0" encoding="UTF-8" standalone="no"?>
<!DOCTYPE svg PUBLIC "-//W3C//DTD SVG 1.1//EN"
 "http://www.w3.org/Graphics/SVG/1.1/DTD/svg11.dtd">
<!-- Generated by graphviz version 2.40.1 (20161225.0304)
 -->
<!-- Title: src/Result.cpp Pages: 1 -->
<svg width="275pt" height="196pt"
 viewBox="0.00 0.00 274.50 196.00" xmlns="http://www.w3.org/2000/svg" xmlns:xlink="http://www.w3.org/1999/xlink">
<g id="graph0" class="graph" transform="scale(1 1) rotate(0) translate(4 192)">
<title>src/Result.cpp</title>
<polygon fill="#ffffff" stroke="transparent" points="-4,4 -4,-192 270.5,-192 270.5,4 -4,4"/>
<!-- Node0 -->
<g id="node1" class="node">
<title>Node0</title>
<polygon fill="#bfbfbf" stroke="#000000" points="117,-168.5 117,-187.5 202,-187.5 202,-168.5 117,-168.5"/>
<text text-anchor="middle" x="159.5" y="-175.5" font-family="Helvetica,sans-Serif" font-size="10.00" fill="#000000">src/Result.cpp</text>
</g>
<!-- Node1 -->
<g id="node2" class="node">
<title>Node1</title>
<g id="a_node2"><a xlink:href="Result_8hpp.html" target="_top" xlink:title="Defines the Result class and related functions. ">
<polygon fill="#ffffff" stroke="#000000" points="113.5,-112.5 113.5,-131.5 205.5,-131.5 205.5,-112.5 113.5,-112.5"/>
<text text-anchor="middle" x="159.5" y="-119.5" font-family="Helvetica,sans-Serif" font-size="10.00" fill="#000000">chig/Result.hpp</text>
</a>
</g>
</g>
<!-- Node0&#45;&gt;Node1 -->
<g id="edge1" class="edge">
<title>Node0&#45;&gt;Node1</title>
<path fill="none" stroke="#191970" d="M159.5,-168.2455C159.5,-160.9382 159.5,-150.6944 159.5,-141.7046"/>
<polygon fill="#191970" stroke="#191970" points="163.0001,-141.6426 159.5,-131.6427 156.0001,-141.6427 163.0001,-141.6426"/>
</g>
<!-- Node2 -->
<g id="node3" class="node">
<title>Node2</title>
<g id="a_node3"><a xlink:href="ToString_8hpp_source.html" target="_top" xlink:title="chig/ToString.hpp">
<polygon fill="#ffffff" stroke="#000000" points="0,-56.5 0,-75.5 101,-75.5 101,-56.5 0,-56.5"/>
<text text-anchor="middle" x="50.5" y="-63.5" font-family="Helvetica,sans-Serif" font-size="10.00" fill="#000000">chig/ToString.hpp</text>
</a>
</g>
</g>
<!-- Node1&#45;&gt;Node2 -->
<g id="edge2" class="edge">
<title>Node1&#45;&gt;Node2</title>
<path fill="none" stroke="#191970" d="M140.5136,-112.2455C123.3208,-103.4125 97.7762,-90.2887 78.2868,-80.2758"/>
<polygon fill="#191970" stroke="#191970" points="79.763,-77.0993 69.2688,-75.6427 76.5641,-83.3257 79.763,-77.0993"/>
</g>
<!-- Node4 -->
<g id="node5" class="node">
<title>Node4</title>
<polygon fill="#ffffff" stroke="#bfbfbf" points="119,-56.5 119,-75.5 200,-75.5 200,-56.5 119,-56.5"/>
<text text-anchor="middle" x="159.5" y="-63.5" font-family="Helvetica,sans-Serif" font-size="10.00" fill="#000000">chig/json.hpp</text>
</g>
<!-- Node1&#45;&gt;Node4 -->
<g id="edge4" class="edge">
<title>Node1&#45;&gt;Node4</title>
<path fill="none" stroke="#191970" d="M159.5,-112.2455C159.5,-104.9382 159.5,-94.6944 159.5,-85.7046"/>
<polygon fill="#191970" stroke="#191970" points="163.0001,-85.6426 159.5,-75.6427 156.0001,-85.6427 163.0001,-85.6426"/>
</g>
<!-- Node5 -->
<g id="node6" class="node">
<title>Node5</title>
<polygon fill="#ffffff" stroke="#bfbfbf" points="218.5,-56.5 218.5,-75.5 266.5,-75.5 266.5,-56.5 218.5,-56.5"/>
<text text-anchor="middle" x="242.5" y="-63.5" font-family="Helvetica,sans-Serif" font-size="10.00" fill="#000000">gsl/gsl</text>
</g>
<!-- Node1&#45;&gt;Node5 -->
<g id="edge5" class="edge">
<title>Node1&#45;&gt;Node5</title>
<path fill="none" stroke="#191970" d="M173.9575,-112.2455C186.5732,-103.7337 205.0944,-91.2375 219.7045,-81.3801"/>
<polygon fill="#191970" stroke="#191970" points="221.8761,-84.1371 228.2082,-75.6427 217.9609,-78.3343 221.8761,-84.1371"/>
</g>
<!-- Node3 -->
<g id="node4" class="node">
<title>Node3</title>
<polygon fill="#ffffff" stroke="#bfbfbf" points="22.5,-.5 22.5,-19.5 78.5,-19.5 78.5,-.5 22.5,-.5"/>
<text text-anchor="middle" x="50.5" y="-7.5" font-family="Helvetica,sans-Serif" font-size="10.00" fill="#000000">sstream</text>
</g>
<!-- Node2&#45;&gt;Node3 -->
<g id="edge3" class="edge">
<title>Node2&#45;&gt;Node3</title>
<path fill="none" stroke="#191970" d="M50.5,-56.2455C50.5,-48.9382 50.5,-38.6944 50.5,-29.7046"/>
<polygon fill="#191970" stroke="#191970" points="54.0001,-29.6426 50.5,-19.6427 47.0001,-29.6427 54.0001,-29.6426"/>
</g>
</g>
</svg>
