<?xml version="1.0" encoding="UTF-8" standalone="no"?>
<!DOCTYPE svg PUBLIC "-//W3C//DTD SVG 1.1//EN"
 "http://www.w3.org/Graphics/SVG/1.1/DTD/svg11.dtd">
<!-- Generated by graphviz version 2.40.1 (20161225.0304)
 -->
<!-- Title: libchigraph/include/chi/Result.hpp Pages: 1 -->
<!--zoomable 106 -->
<svg id="main" version="1.1" xmlns="http://www.w3.org/2000/svg" xmlns:xlink="http://www.w3.org/1999/xlink" xml:space="preserve" onload="init(evt)">
<style type="text/css"><![CDATA[
.edge:hover path { stroke: red; }
.edge:hover polygon { stroke: red; fill: red; }
]]></style>
<script type="text/javascript"><![CDATA[
var edges = document.getElementsByTagName('g');
if (edges && edges.length) {
  for (var i=0;i<edges.length;i++) {
    if (edges[i].id.substr(0,4)=='edge') {
      edges[i].setAttribute('class','edge');
    }
  }
}
]]></script>
        <defs>
                <circle id="rim" cx="0" cy="0" r="7"/>
                <circle id="rim2" cx="0" cy="0" r="3.5"/>
                <g id="zoomPlus">
                        <use xlink:href="#rim" fill="#404040">
                                <set attributeName="fill" to="#808080" begin="zoomplus.mouseover" end="zoomplus.mouseout"/>
                        </use>
                        <path d="M-4,0h8M0,-4v8" fill="none" stroke="white" stroke-width="1.5" pointer-events="none"/>
                </g>
                <g id="zoomMin">
                        <use xlink:href="#rim" fill="#404040">
                                <set attributeName="fill" to="#808080" begin="zoomminus.mouseover" end="zoomminus.mouseout"/>
                        </use>
                        <path d="M-4,0h8" fill="none" stroke="white" stroke-width="1.5" pointer-events="none"/>
                </g>
                <g id="dirArrow">
                        <path fill="none" stroke="white" stroke-width="1.5" d="M0,-3.0v7 M-2.5,-0.5L0,-3.0L2.5,-0.5"/>
                </g>
               <g id="resetDef">
                       <use xlink:href="#rim2" fill="#404040">
                               <set attributeName="fill" to="#808080" begin="reset.mouseover" end="reset.mouseout"/>
                       </use>
               </g>
        </defs>

<script type="text/javascript">
var viewWidth = 1935;
var viewHeight = 106;
var sectionId = 'dynsection-1';
</script>
<script xlink:href="svgpan.js"/>
<svg id="graph" class="graph">
<g id="viewport">
<title>libchigraph/include/chi/Result.hpp</title>
<polygon fill="#ffffff" stroke="transparent" points="-4,4 -4,-102 1931,-102 1931,4 -4,4"/>
<!-- Node3 -->
<g id="node1" class="node">
<title>Node3</title>
<polygon fill="#bfbfbf" stroke="#000000" points="901,-67.5 901,-97.5 998,-97.5 998,-67.5 901,-67.5"/>
<text text-anchor="start" x="909" y="-85.5" font-family="Helvetica,sans-Serif" font-size="10.00" fill="#000000">libchigraph/include</text>
<text text-anchor="middle" x="949.5" y="-74.5" font-family="Helvetica,sans-Serif" font-size="10.00" fill="#000000">/chi/Result.hpp</text>
</g>
<!-- Node4 -->
<g id="node2" class="node">
<title>Node4</title>
<g id="a_node2"><a xlink:href="ChiModule_8cpp.html" target="_top" xlink:title="libchigraph/src/ChiModule.cpp">
<polygon fill="#ffffff" stroke="#000000" points="0,-6 0,-25 147,-25 147,-6 0,-6"/>
<text text-anchor="middle" x="73.5" y="-13" font-family="Helvetica,sans-Serif" font-size="10.00" fill="#000000">libchigraph/src/ChiModule.cpp</text>
</a>
</g>
</g>
<!-- Node3&#45;&gt;Node4 -->
<g id="edge1" class="edge">
<title>Node3&#45;&gt;Node4</title>
<path fill="none" stroke="#191970" d="M890.6855,-81.1393C758.6949,-77.5494 429.0353,-65.5922 155.5,-31 143.4261,-29.4731 130.447,-27.2794 118.4568,-25.0209"/>
<polygon fill="#191970" stroke="#191970" points="890.8794,-84.6456 900.9689,-81.4128 891.0655,-77.6481 890.8794,-84.6456"/>
</g>
<!-- Node5 -->
<g id="node3" class="node">
<title>Node5</title>
<g id="a_node3"><a xlink:href="Context_8cpp.html" target="_top" xlink:title="libchigraph/src/Context.cpp">
<polygon fill="#ffffff" stroke="#000000" points="165,-6 165,-25 300,-25 300,-6 165,-6"/>
<text text-anchor="middle" x="232.5" y="-13" font-family="Helvetica,sans-Serif" font-size="10.00" fill="#000000">libchigraph/src/Context.cpp</text>
</a>
</g>
</g>
<!-- Node3&#45;&gt;Node5 -->
<g id="edge2" class="edge">
<title>Node3&#45;&gt;Node5</title>
<path fill="none" stroke="#191970" d="M890.5368,-80.0909C777.413,-74.9527 522.254,-60.8667 309.5,-31 298.2918,-29.4266 286.2574,-27.2441 275.1107,-25.0129"/>
<polygon fill="#191970" stroke="#191970" points="890.564,-83.5955 900.7105,-80.5461 890.877,-76.6025 890.564,-83.5955"/>
</g>
<!-- Node6 -->
<g id="node4" class="node">
<title>Node6</title>
<g id="a_node4"><a xlink:href="FunctionCompiler_8cpp.html" target="_top" xlink:title="libchigraph/src/Function\lCompiler.cpp">
<polygon fill="#ffffff" stroke="#000000" points="318.5,-.5 318.5,-30.5 438.5,-30.5 438.5,-.5 318.5,-.5"/>
<text text-anchor="start" x="326.5" y="-18.5" font-family="Helvetica,sans-Serif" font-size="10.00" fill="#000000">libchigraph/src/Function</text>
<text text-anchor="middle" x="378.5" y="-7.5" font-family="Helvetica,sans-Serif" font-size="10.00" fill="#000000">Compiler.cpp</text>
</a>
</g>
</g>
<!-- Node3&#45;&gt;Node6 -->
<g id="edge3" class="edge">
<title>Node3&#45;&gt;Node6</title>
<path fill="none" stroke="#191970" d="M890.6164,-78.7358C796.5325,-72.211 606.6877,-56.9512 447.5,-31 444.5917,-30.5259 441.6223,-30.0044 438.6288,-29.4487"/>
<polygon fill="#191970" stroke="#191970" points="890.5709,-82.2408 900.7869,-79.4329 891.0497,-75.2572 890.5709,-82.2408"/>
</g>
<!-- Node7 -->
<g id="node5" class="node">
<title>Node7</title>
<g id="a_node5"><a xlink:href="FunctionValidator_8cpp.html" target="_top" xlink:title="libchigraph/src/Function\lValidator.cpp">
<polygon fill="#ffffff" stroke="#000000" points="456.5,-.5 456.5,-30.5 576.5,-30.5 576.5,-.5 456.5,-.5"/>
<text text-anchor="start" x="464.5" y="-18.5" font-family="Helvetica,sans-Serif" font-size="10.00" fill="#000000">libchigraph/src/Function</text>
<text text-anchor="middle" x="516.5" y="-7.5" font-family="Helvetica,sans-Serif" font-size="10.00" fill="#000000">Validator.cpp</text>
</a>
</g>
</g>
<!-- Node3&#45;&gt;Node7 -->
<g id="edge4" class="edge">
<title>Node3&#45;&gt;Node7</title>
<path fill="none" stroke="#191970" d="M890.4715,-75.6302C818.2754,-66.8872 692.4657,-50.5485 585.5,-31 582.6014,-30.4703 579.6398,-29.9036 576.6525,-29.3116"/>
<polygon fill="#191970" stroke="#191970" points="890.379,-79.1442 900.7257,-76.8645 891.2157,-72.1944 890.379,-79.1442"/>
</g>
<!-- Node8 -->
<g id="node6" class="node">
<title>Node8</title>
<g id="a_node6"><a xlink:href="GraphFunction_8cpp.html" target="_top" xlink:title="libchigraph/src/GraphFunction.cpp">
<polygon fill="#ffffff" stroke="#000000" points="595,-6 595,-25 760,-25 760,-6 595,-6"/>
<text text-anchor="middle" x="677.5" y="-13" font-family="Helvetica,sans-Serif" font-size="10.00" fill="#000000">libchigraph/src/GraphFunction.cpp</text>
</a>
</g>
</g>
<!-- Node3&#45;&gt;Node8 -->
<g id="edge5" class="edge">
<title>Node3&#45;&gt;Node8</title>
<path fill="none" stroke="#191970" d="M890.9764,-68.0843C838.2181,-55.0886 762.1184,-36.3435 716.4642,-25.0978"/>
<polygon fill="#191970" stroke="#191970" points="890.3249,-71.5283 900.8719,-70.5217 891.9992,-64.7315 890.3249,-71.5283"/>
</g>
<!-- Node9 -->
<g id="node7" class="node">
<title>Node9</title>
<g id="a_node7"><a xlink:href="GraphModule_8cpp.html" target="_top" xlink:title="libchigraph/src/GraphModule.cpp">
<polygon fill="#ffffff" stroke="#000000" points="778,-6 778,-25 937,-25 937,-6 778,-6"/>
<text text-anchor="middle" x="857.5" y="-13" font-family="Helvetica,sans-Serif" font-size="10.00" fill="#000000">libchigraph/src/GraphModule.cpp</text>
</a>
</g>
</g>
<!-- Node3&#45;&gt;Node9 -->
<g id="edge6" class="edge">
<title>Node3&#45;&gt;Node9</title>
<path fill="none" stroke="#191970" d="M920.2683,-61.2117C903.5887,-49.0646 883.5014,-34.4358 870.6203,-25.055"/>
<polygon fill="#191970" stroke="#191970" points="918.4798,-64.2389 928.6238,-67.2967 922.6006,-58.5804 918.4798,-64.2389"/>
</g>
<!-- Node10 -->
<g id="node8" class="node">
<title>Node10</title>
<g id="a_node8"><a xlink:href="JsonDeserializer_8cpp_source.html" target="_top" xlink:title="libchigraph/src/JsonDeserializer.cpp">
<polygon fill="#ffffff" stroke="#000000" points="955,-6 955,-25 1128,-25 1128,-6 955,-6"/>
<text text-anchor="middle" x="1041.5" y="-13" font-family="Helvetica,sans-Serif" font-size="10.00" fill="#000000">libchigraph/src/JsonDeserializer.cpp</text>
</a>
</g>
</g>
<!-- Node3&#45;&gt;Node10 -->
<g id="edge7" class="edge">
<title>Node3&#45;&gt;Node10</title>
<path fill="none" stroke="#191970" d="M978.7317,-61.2117C995.4113,-49.0646 1015.4986,-34.4358 1028.3797,-25.055"/>
<polygon fill="#191970" stroke="#191970" points="976.3994,-58.5804 970.3762,-67.2967 980.5202,-64.2389 976.3994,-58.5804"/>
</g>
<!-- Node11 -->
<g id="node9" class="node">
<title>Node11</title>
<g id="a_node9"><a xlink:href="LangModule_8cpp.html" target="_top" xlink:title="libchigraph/src/LangModule.cpp">
<polygon fill="#ffffff" stroke="#000000" points="1146.5,-6 1146.5,-25 1300.5,-25 1300.5,-6 1146.5,-6"/>
<text text-anchor="middle" x="1223.5" y="-13" font-family="Helvetica,sans-Serif" font-size="10.00" fill="#000000">libchigraph/src/LangModule.cpp</text>
</a>
</g>
</g>
<!-- Node3&#45;&gt;Node11 -->
<g id="edge8" class="edge">
<title>Node3&#45;&gt;Node11</title>
<path fill="none" stroke="#191970" d="M1008.161,-68.1559C1061.4455,-55.1265 1138.5433,-36.2741 1184.58,-25.0169"/>
<polygon fill="#191970" stroke="#191970" points="1007.0524,-64.8238 998.17,-70.5989 1008.7152,-71.6234 1007.0524,-64.8238"/>
</g>
<!-- Node12 -->
<g id="node10" class="node">
<title>Node12</title>
<g id="a_node10"><a xlink:href="ModuleCache_8cpp_source.html" target="_top" xlink:title="libchigraph/src/ModuleCache.cpp">
<polygon fill="#ffffff" stroke="#000000" points="1319,-6 1319,-25 1480,-25 1480,-6 1319,-6"/>
<text text-anchor="middle" x="1399.5" y="-13" font-family="Helvetica,sans-Serif" font-size="10.00" fill="#000000">libchigraph/src/ModuleCache.cpp</text>
</a>
</g>
</g>
<!-- Node3&#45;&gt;Node12 -->
<g id="edge9" class="edge">
<title>Node3&#45;&gt;Node12</title>
<path fill="none" stroke="#191970" d="M1008.3232,-74.6083C1079.6672,-64.916 1203.5428,-47.6995 1309.5,-31 1321.2463,-29.1487 1333.8347,-27.0518 1345.7637,-25.0121"/>
<polygon fill="#191970" stroke="#191970" points="1007.6256,-71.1707 998.1866,-75.9827 1008.5662,-78.1073 1007.6256,-71.1707"/>
</g>
<!-- Node13 -->
<g id="node11" class="node">
<title>Node13</title>
<g id="a_node11"><a xlink:href="NodeInstance_8cpp.html" target="_top" xlink:title="libchigraph/src/NodeInstance.cpp">
<polygon fill="#ffffff" stroke="#000000" points="1498,-6 1498,-25 1659,-25 1659,-6 1498,-6"/>
<text text-anchor="middle" x="1578.5" y="-13" font-family="Helvetica,sans-Serif" font-size="10.00" fill="#000000">libchigraph/src/NodeInstance.cpp</text>
</a>
</g>
</g>
<!-- Node3&#45;&gt;Node13 -->
<g id="edge10" class="edge">
<title>Node3&#45;&gt;Node13</title>
<path fill="none" stroke="#191970" d="M1008.1841,-78.3979C1107.5317,-71.1193 1315.0712,-54.4709 1489.5,-31 1501.9351,-29.3267 1515.2897,-27.1856 1527.7747,-25.0324"/>
<polygon fill="#191970" stroke="#191970" points="1007.769,-74.9188 998.0494,-79.1354 1008.277,-81.9004 1007.769,-74.9188"/>
</g>
<!-- Node14 -->
<g id="node12" class="node">
<title>Node14</title>
<g id="a_node12"><a xlink:href="Result_8cpp.html" target="_top" xlink:title="libchigraph/src/Result.cpp">
<polygon fill="#ffffff" stroke="#000000" points="1677,-6 1677,-25 1806,-25 1806,-6 1677,-6"/>
<text text-anchor="middle" x="1741.5" y="-13" font-family="Helvetica,sans-Serif" font-size="10.00" fill="#000000">libchigraph/src/Result.cpp</text>
</a>
</g>
</g>
<!-- Node3&#45;&gt;Node14 -->
<g id="edge11" class="edge">
<title>Node3&#45;&gt;Node14</title>
<path fill="none" stroke="#191970" d="M1008.464,-81.0239C1131.6294,-77.3377 1424.9787,-65.4077 1668.5,-31 1679.2761,-29.4774 1690.84,-27.2852 1701.5145,-25.0267"/>
<polygon fill="#191970" stroke="#191970" points="1008.0274,-77.535 998.1339,-81.3255 1008.2318,-84.532 1008.0274,-77.535"/>
</g>
<!-- Node15 -->
<g id="node13" class="node">
<title>Node15</title>
<g id="a_node13"><a xlink:href="Debugger_8cpp.html" target="_top" xlink:title="libchigraphdebugger\l/src/Debugger.cpp">
<polygon fill="#ffffff" stroke="#000000" points="1824,-.5 1824,-30.5 1927,-30.5 1927,-.5 1824,-.5"/>
<text text-anchor="start" x="1832" y="-18.5" font-family="Helvetica,sans-Serif" font-size="10.00" fill="#000000">libchigraphdebugger</text>
<text text-anchor="middle" x="1875.5" y="-7.5" font-family="Helvetica,sans-Serif" font-size="10.00" fill="#000000">/src/Debugger.cpp</text>
</a>
</g>
</g>
<!-- Node3&#45;&gt;Node15 -->
<g id="edge12" class="edge">
<title>Node3&#45;&gt;Node15</title>
<path fill="none" stroke="#191970" d="M1008.2541,-80.4888C1176.7141,-74.4869 1659.2953,-55.584 1815.5,-31 1818.2632,-30.5651 1821.0841,-30.0587 1823.9223,-29.4997"/>
<polygon fill="#191970" stroke="#191970" points="1007.9617,-76.9969 998.0919,-80.8488 1008.2095,-83.9925 1007.9617,-76.9969"/>
</g>
</g>
</svg>
        <g id="navigator" transform="translate(0 0)" fill="#404254">
                <rect fill="#f2f5e9" fill-opacity="0.5" stroke="#606060" stroke-width=".5" x="0" y="0" width="60" height="60"/>
                <use id="zoomplus" xlink:href="#zoomPlus" x="17" y="9" onmousedown="handleZoom(evt,'in')"/>
                <use id="zoomminus" xlink:href="#zoomMin" x="42" y="9" onmousedown="handleZoom(evt,'out')"/>
                <use id="reset" xlink:href="#resetDef" x="30" y="36" onmousedown="handleReset()"/>
                <g id="arrowUp" xlink:href="#dirArrow" transform="translate(30 24)" onmousedown="handlePan(0,-1)">
                  <use xlink:href="#rim" fill="#404040">
                        <set attributeName="fill" to="#808080" begin="arrowUp.mouseover" end="arrowUp.mouseout"/>
                  </use>
                  <path fill="none" stroke="white" stroke-width="1.5" d="M0,-3.0v7 M-2.5,-0.5L0,-3.0L2.5,-0.5"/>
                </g>
                <g id="arrowRight" xlink:href="#dirArrow" transform="rotate(90) translate(36 -43)" onmousedown="handlePan(1,0)">
                  <use xlink:href="#rim" fill="#404040">
                        <set attributeName="fill" to="#808080" begin="arrowRight.mouseover" end="arrowRight.mouseout"/>
                  </use>
                  <path fill="none" stroke="white" stroke-width="1.5" d="M0,-3.0v7 M-2.5,-0.5L0,-3.0L2.5,-0.5"/>
                </g>
                <g id="arrowDown" xlink:href="#dirArrow" transform="rotate(180) translate(-30 -48)" onmousedown="handlePan(0,1)">
                  <use xlink:href="#rim" fill="#404040">
                        <set attributeName="fill" to="#808080" begin="arrowDown.mouseover" end="arrowDown.mouseout"/>
                  </use>
                  <path fill="none" stroke="white" stroke-width="1.5" d="M0,-3.0v7 M-2.5,-0.5L0,-3.0L2.5,-0.5"/>
                </g>
                <g id="arrowLeft" xlink:href="#dirArrow" transform="rotate(270) translate(-36 17)" onmousedown="handlePan(-1,0)">
                  <use xlink:href="#rim" fill="#404040">
                        <set attributeName="fill" to="#808080" begin="arrowLeft.mouseover" end="arrowLeft.mouseout"/>
                  </use>
                  <path fill="none" stroke="white" stroke-width="1.5" d="M0,-3.0v7 M-2.5,-0.5L0,-3.0L2.5,-0.5"/>
                </g>
        </g>
        <svg viewBox="0 0 15 15" width="100%" height="30px" preserveAspectRatio="xMaxYMin meet">
         <g id="arrow_out" transform="scale(0.3 0.3)">
          <a xlink:href="Result_8hpp__dep__incl_org.svg" target="_base">
           <rect id="button" ry="5" rx="5" y="6" x="6" height="38" width="38"
                fill="#f2f5e9" fill-opacity="0.5" stroke="#606060" stroke-width="1.0"/>
           <path id="arrow"
             d="M 11.500037,31.436501 C 11.940474,20.09759 22.043105,11.32322 32.158766,21.979434 L 37.068811,17.246167 C 37.068811,17.246167 37.088388,32 37.088388,32 L 22.160133,31.978069 C 22.160133,31.978069 26.997745,27.140456 26.997745,27.140456 C 18.528582,18.264221 13.291696,25.230495 11.500037,31.436501 z"
             style="fill:#404040;"/>
          </a>
         </g>
        </svg>
</svg>
