<?xml version="1.0" encoding="UTF-8" standalone="no"?>
<!DOCTYPE svg PUBLIC "-//W3C//DTD SVG 1.1//EN"
 "http://www.w3.org/Graphics/SVG/1.1/DTD/svg11.dtd">
<!-- Generated by graphviz version 2.40.1 (20161225.0304)
 -->
<!-- Title: chig::GraphFunction::renameLocalVariable Pages: 1 -->
<svg width="656pt" height="344pt"
 viewBox="0.00 0.00 656.00 343.67" xmlns="http://www.w3.org/2000/svg" xmlns:xlink="http://www.w3.org/1999/xlink">
<g id="graph0" class="graph" transform="scale(1 1) rotate(0) translate(4 339.6713)">
<title>chig::GraphFunction::renameLocalVariable</title>
<polygon fill="#ffffff" stroke="transparent" points="-4,4 -4,-339.6713 652,-339.6713 652,4 -4,4"/>
<!-- Node714 -->
<g id="node1" class="node">
<title>Node714</title>
<polygon fill="#bfbfbf" stroke="#000000" points="0,-290 0,-320 113,-320 113,-290 0,-290"/>
<text text-anchor="start" x="8" y="-308" font-family="Helvetica,sans-Serif" font-size="10.00" fill="#000000">chig::GraphFunction</text>
<text text-anchor="middle" x="56.5" y="-297" font-family="Helvetica,sans-Serif" font-size="10.00" fill="#000000">::renameLocalVariable</text>
</g>
<!-- Node715 -->
<g id="node2" class="node">
<title>Node715</title>
<g id="a_node2"><a xlink:href="structchig_1_1GraphFunction.html#a2eddb58def91a9e0fce7212db3834827" target="_top" xlink:title="Get the GraphModule that contains this GraphFunction. ">
<polygon fill="#ffffff" stroke="#000000" points="513,-295 513,-325 617,-325 617,-295 513,-295"/>
<text text-anchor="start" x="521" y="-313" font-family="Helvetica,sans-Serif" font-size="10.00" fill="#000000">chig::GraphFunction</text>
<text text-anchor="middle" x="565" y="-302" font-family="Helvetica,sans-Serif" font-size="10.00" fill="#000000">::module</text>
</a>
</g>
</g>
<!-- Node714&#45;&gt;Node715 -->
<g id="edge1" class="edge">
<title>Node714&#45;&gt;Node715</title>
<path fill="none" stroke="#191970" d="M113.158,-314.2482C124.9809,-315.9888 137.381,-317.6757 149,-319 280.2407,-333.959 314.367,-340.9846 446,-330 464.5837,-328.4492 484.6316,-325.5588 502.8786,-322.4478"/>
<polygon fill="#191970" stroke="#191970" points="503.5659,-325.8807 512.8098,-320.7039 502.3551,-318.9862 503.5659,-325.8807"/>
</g>
<!-- Node716 -->
<g id="node3" class="node">
<title>Node716</title>
<g id="a_node3"><a xlink:href="structchig_1_1GraphFunction.html#ac4c14204d36773082b3fe93b48be4279" target="_top" xlink:title="Gets the nodes with a given type. ">
<polygon fill="#ffffff" stroke="#000000" points="317,-290 317,-320 421,-320 421,-290 317,-290"/>
<text text-anchor="start" x="325" y="-308" font-family="Helvetica,sans-Serif" font-size="10.00" fill="#000000">chig::GraphFunction</text>
<text text-anchor="middle" x="369" y="-297" font-family="Helvetica,sans-Serif" font-size="10.00" fill="#000000">::nodesWithType</text>
</a>
</g>
</g>
<!-- Node714&#45;&gt;Node716 -->
<g id="edge2" class="edge">
<title>Node714&#45;&gt;Node716</title>
<path fill="none" stroke="#191970" d="M113.0914,-305C167.733,-305 250.2818,-305 306.7544,-305"/>
<polygon fill="#191970" stroke="#191970" points="306.9831,-308.5001 316.9831,-305 306.983,-301.5001 306.9831,-308.5001"/>
</g>
<!-- Node718 -->
<g id="node5" class="node">
<title>Node718</title>
<g id="a_node5"><a xlink:href="structchig_1_1GraphModule.html#a3a3e16c194c091ee109eabaca14e3c43" target="_top" xlink:title="Create a node type that is in the module from the name and json. ">
<polygon fill="#ffffff" stroke="#000000" points="149,-131 149,-161 256,-161 256,-131 149,-131"/>
<text text-anchor="start" x="157" y="-149" font-family="Helvetica,sans-Serif" font-size="10.00" fill="#000000">chig::GraphModule::</text>
<text text-anchor="middle" x="202.5" y="-138" font-family="Helvetica,sans-Serif" font-size="10.00" fill="#000000">nodeTypeFromName</text>
</a>
</g>
</g>
<!-- Node714&#45;&gt;Node718 -->
<g id="edge5" class="edge">
<title>Node714&#45;&gt;Node718</title>
<path fill="none" stroke="#191970" d="M70.4991,-289.7544C96.2684,-261.6906 151.3356,-201.7201 181.5652,-168.7989"/>
<polygon fill="#191970" stroke="#191970" points="184.1432,-171.1661 188.3288,-161.4331 178.9872,-166.4316 184.1432,-171.1661"/>
</g>
<!-- Node716&#45;&gt;Node715 -->
<g id="edge3" class="edge">
<title>Node716&#45;&gt;Node715</title>
<path fill="none" stroke="#191970" d="M421.0098,-306.3268C446.0398,-306.9653 476.2462,-307.7359 502.5154,-308.406"/>
<polygon fill="#191970" stroke="#191970" points="502.6611,-311.9108 512.7471,-308.667 502.8397,-304.913 502.6611,-311.9108"/>
</g>
<!-- Node717 -->
<g id="node4" class="node">
<title>Node717</title>
<g id="a_node4"><a xlink:href="structchig_1_1GraphFunction.html#a3291c0b882b4f73e5d60af4ca75b1a37" target="_top" xlink:title="Get the name of the function. ">
<polygon fill="#ffffff" stroke="#000000" points="513,-246 513,-276 617,-276 617,-246 513,-246"/>
<text text-anchor="start" x="521" y="-264" font-family="Helvetica,sans-Serif" font-size="10.00" fill="#000000">chig::GraphFunction</text>
<text text-anchor="middle" x="565" y="-253" font-family="Helvetica,sans-Serif" font-size="10.00" fill="#000000">::name</text>
</a>
</g>
</g>
<!-- Node716&#45;&gt;Node717 -->
<g id="edge4" class="edge">
<title>Node716&#45;&gt;Node717</title>
<path fill="none" stroke="#191970" d="M421.0098,-293.3243C446.1505,-287.6805 476.5136,-280.8643 502.8639,-274.9489"/>
<polygon fill="#191970" stroke="#191970" points="503.7566,-278.3357 512.7471,-272.7302 502.2233,-271.5057 503.7566,-278.3357"/>
</g>
<!-- Node719 -->
<g id="node6" class="node">
<title>Node719</title>
<g id="a_node6"><a xlink:href="structchig_1_1GraphModule.html#acf2cd8568f77bb56185e87e8ccb5889c" target="_top" xlink:title="Get a function from the name. ">
<polygon fill="#ffffff" stroke="#000000" points="317,-202 317,-232 421,-232 421,-202 317,-202"/>
<text text-anchor="start" x="325" y="-220" font-family="Helvetica,sans-Serif" font-size="10.00" fill="#000000">chig::GraphModule::</text>
<text text-anchor="middle" x="369" y="-209" font-family="Helvetica,sans-Serif" font-size="10.00" fill="#000000">functionFromName</text>
</a>
</g>
</g>
<!-- Node718&#45;&gt;Node719 -->
<g id="edge6" class="edge">
<title>Node718&#45;&gt;Node719</title>
<path fill="none" stroke="#191970" d="M228.9891,-161.042C246.5269,-170.6418 270.2252,-182.9385 292,-192 297.4034,-194.2486 303.0862,-196.4271 308.8146,-198.4989"/>
<polygon fill="#191970" stroke="#191970" points="307.862,-201.8737 318.4568,-201.8783 310.1773,-195.2677 307.862,-201.8737"/>
</g>
<!-- Node720 -->
<g id="node7" class="node">
<title>Node720</title>
<g id="a_node7"><a xlink:href="structchig_1_1GraphModule.html#a64831f6b192140fb9014025717df72ac" target="_top" xlink:title="Get a struct by name. ">
<polygon fill="#ffffff" stroke="#000000" points="317,-153 317,-183 421,-183 421,-153 317,-153"/>
<text text-anchor="start" x="325" y="-171" font-family="Helvetica,sans-Serif" font-size="10.00" fill="#000000">chig::GraphModule::</text>
<text text-anchor="middle" x="369" y="-160" font-family="Helvetica,sans-Serif" font-size="10.00" fill="#000000">structFromName</text>
</a>
</g>
</g>
<!-- Node718&#45;&gt;Node720 -->
<g id="edge7" class="edge">
<title>Node718&#45;&gt;Node720</title>
<path fill="none" stroke="#191970" d="M256.0981,-153.082C272.2369,-155.2145 290.0858,-157.5729 306.7365,-159.773"/>
<polygon fill="#191970" stroke="#191970" points="306.5508,-163.2788 316.9231,-161.119 307.4678,-156.3391 306.5508,-163.2788"/>
</g>
<!-- Node721 -->
<g id="node8" class="node">
<title>Node721</title>
<g id="a_node8"><a xlink:href="namespacechig.html#afcb097e8f99cd26ed33dd582f0d952f0" target="_top" xlink:title="Parse a colonated pair Example: lang:i32 would turn into {lang, i32}. ">
<polygon fill="#ffffff" stroke="#000000" points="315.5,-251.5 315.5,-270.5 422.5,-270.5 422.5,-251.5 315.5,-251.5"/>
<text text-anchor="middle" x="369" y="-258.5" font-family="Helvetica,sans-Serif" font-size="10.00" fill="#000000">chig::parseColonPair</text>
</a>
</g>
</g>
<!-- Node718&#45;&gt;Node721 -->
<g id="edge8" class="edge">
<title>Node718&#45;&gt;Node721</title>
<path fill="none" stroke="#191970" d="M212.448,-161.0042C227.2483,-182.1209 257.1,-220.3323 292,-241 296.49,-243.6589 301.3318,-245.9687 306.3237,-247.9743"/>
<polygon fill="#191970" stroke="#191970" points="305.4612,-251.3834 316.0557,-251.4685 307.8267,-244.7951 305.4612,-251.3834"/>
</g>
<!-- Node722 -->
<g id="node9" class="node">
<title>Node722</title>
<g id="a_node9"><a xlink:href="structchig_1_1ChigModule.html#aad81aae17452ddc5fc43809924236385" target="_top" xlink:title="Get the Context that this module belongs to. ">
<polygon fill="#ffffff" stroke="#000000" points="303.5,-114.5 303.5,-133.5 434.5,-133.5 434.5,-114.5 303.5,-114.5"/>
<text text-anchor="middle" x="369" y="-121.5" font-family="Helvetica,sans-Serif" font-size="10.00" fill="#000000">chig::ChigModule::context</text>
</a>
</g>
</g>
<!-- Node718&#45;&gt;Node722 -->
<g id="edge11" class="edge">
<title>Node718&#45;&gt;Node722</title>
<path fill="none" stroke="#191970" d="M256.0981,-138.918C267.9501,-137.3519 280.7243,-135.6641 293.269,-134.0065"/>
<polygon fill="#191970" stroke="#191970" points="293.803,-137.4665 303.2583,-132.6866 292.8859,-130.5268 293.803,-137.4665"/>
</g>
<!-- Node724 -->
<g id="node11" class="node">
<title>Node724</title>
<g id="a_node11"><a xlink:href="structchig_1_1Context.html#aa484ef2c16aaa4d97a21632af4122bd8" target="_top" xlink:title="Gets a DataType from a module. ">
<polygon fill="#ffffff" stroke="#000000" points="292,-.5 292,-19.5 446,-19.5 446,-.5 292,-.5"/>
<text text-anchor="middle" x="369" y="-7.5" font-family="Helvetica,sans-Serif" font-size="10.00" fill="#000000">chig::Context::typeFromModule</text>
</a>
</g>
</g>
<!-- Node718&#45;&gt;Node724 -->
<g id="edge13" class="edge">
<title>Node718&#45;&gt;Node724</title>
<path fill="none" stroke="#191970" d="M209.7818,-130.7934C222.6782,-105.5543 251.9936,-55.2027 292,-29 295.1208,-26.956 298.4434,-25.1319 301.8903,-23.5039"/>
<polygon fill="#191970" stroke="#191970" points="303.3453,-26.6898 311.2511,-19.6366 300.6724,-20.2202 303.3453,-26.6898"/>
</g>
<!-- Node725 -->
<g id="node12" class="node">
<title>Node725</title>
<g id="a_node12"><a xlink:href="structchig_1_1Result.html#aabb30a56760c3a817518912d9eabb491" target="_top" xlink:title="Add a entry to the result, either a warning or an error. ">
<polygon fill="#ffffff" stroke="#000000" points="508,-54.5 508,-73.5 622,-73.5 622,-54.5 508,-54.5"/>
<text text-anchor="middle" x="565" y="-61.5" font-family="Helvetica,sans-Serif" font-size="10.00" fill="#000000">chig::Result::addEntry</text>
</a>
</g>
</g>
<!-- Node718&#45;&gt;Node725 -->
<g id="edge16" class="edge">
<title>Node718&#45;&gt;Node725</title>
<path fill="none" stroke="#191970" d="M229.9339,-130.9909C247.2579,-122.1359 270.3775,-111.4364 292,-105 360.4334,-84.6293 441.6718,-74.0828 497.636,-68.825"/>
<polygon fill="#191970" stroke="#191970" points="498.1404,-72.2936 507.7829,-67.9036 497.5073,-65.3223 498.1404,-72.2936"/>
</g>
<!-- Node727 -->
<g id="node14" class="node">
<title>Node727</title>
<g id="a_node14"><a xlink:href="structchig_1_1ChigModule.html#ad730121a133fbc474fcb71d49f31f7b3" target="_top" xlink:title="Get the full name of the module. ">
<polygon fill="#ffffff" stroke="#000000" points="300.5,-38.5 300.5,-57.5 437.5,-57.5 437.5,-38.5 300.5,-38.5"/>
<text text-anchor="middle" x="369" y="-45.5" font-family="Helvetica,sans-Serif" font-size="10.00" fill="#000000">chig::ChigModule::fullName</text>
</a>
</g>
</g>
<!-- Node718&#45;&gt;Node727 -->
<g id="edge17" class="edge">
<title>Node718&#45;&gt;Node727</title>
<path fill="none" stroke="#191970" d="M216.9966,-130.904C233.6771,-114.3247 262.5732,-87.9429 292,-72 300.1372,-67.5914 309.2052,-63.8595 318.181,-60.7487"/>
<polygon fill="#191970" stroke="#191970" points="319.4055,-64.0311 327.8361,-57.6143 317.244,-57.3731 319.4055,-64.0311"/>
</g>
<!-- Node721&#45;&gt;Node715 -->
<g id="edge9" class="edge">
<title>Node721&#45;&gt;Node715</title>
<path fill="none" stroke="#191970" d="M407.7863,-270.5303C420.0162,-273.5461 433.5755,-276.901 446,-280 464.5748,-284.633 484.7702,-289.7095 503.1604,-294.3474"/>
<polygon fill="#191970" stroke="#191970" points="502.3286,-297.7471 512.881,-296.8004 504.0414,-290.9599 502.3286,-297.7471"/>
</g>
<!-- Node721&#45;&gt;Node717 -->
<g id="edge10" class="edge">
<title>Node721&#45;&gt;Node717</title>
<path fill="none" stroke="#191970" d="M422.5579,-261C447.3731,-261 477.0116,-261 502.8108,-261"/>
<polygon fill="#191970" stroke="#191970" points="502.8617,-264.5001 512.8617,-261 502.8616,-257.5001 502.8617,-264.5001"/>
</g>
<!-- Node723 -->
<g id="node10" class="node">
<title>Node723</title>
<g id="a_node10"><a xlink:href="structchig_1_1ChigModule.html#a7864ea1e3388965d05103768757962a4" target="_top" xlink:title="Generate a llvm::Module from the module. ">
<polygon fill="#ffffff" stroke="#000000" points="497,-109 497,-139 633,-139 633,-109 497,-109"/>
<text text-anchor="start" x="505" y="-127" font-family="Helvetica,sans-Serif" font-size="10.00" fill="#000000">chig::ChigModule::generate</text>
<text text-anchor="middle" x="565" y="-116" font-family="Helvetica,sans-Serif" font-size="10.00" fill="#000000">Module</text>
</a>
</g>
</g>
<!-- Node722&#45;&gt;Node723 -->
<g id="edge12" class="edge">
<title>Node722&#45;&gt;Node723</title>
<path fill="none" stroke="#191970" d="M434.5377,-124C451.2828,-124 469.4534,-124 486.7654,-124"/>
<polygon fill="#191970" stroke="#191970" points="486.8421,-127.5001 496.842,-124 486.842,-120.5001 486.8421,-127.5001"/>
</g>
<!-- Node724&#45;&gt;Node725 -->
<g id="edge14" class="edge">
<title>Node724&#45;&gt;Node725</title>
<path fill="none" stroke="#191970" d="M409.0508,-19.5274C420.9688,-22.4583 434.0372,-25.7665 446,-29 472.0769,-36.0484 501.1697,-44.5927 524.0621,-51.4747"/>
<polygon fill="#191970" stroke="#191970" points="523.203,-54.8713 533.7879,-54.4104 525.2259,-48.1699 523.203,-54.8713"/>
</g>
<!-- Node726 -->
<g id="node13" class="node">
<title>Node726</title>
<g id="a_node13"><a xlink:href="structchig_1_1ChigModule.html#a7bb138db48ea320a09312ffd1af0999a" target="_top" xlink:title="Get a DataType from the name. ">
<polygon fill="#ffffff" stroke="#000000" points="482,-.5 482,-19.5 648,-19.5 648,-.5 482,-.5"/>
<text text-anchor="middle" x="565" y="-7.5" font-family="Helvetica,sans-Serif" font-size="10.00" fill="#000000">chig::ChigModule::typeFromName</text>
</a>
</g>
</g>
<!-- Node724&#45;&gt;Node726 -->
<g id="edge15" class="edge">
<title>Node724&#45;&gt;Node726</title>
<path fill="none" stroke="#191970" d="M446.183,-10C454.5756,-10 463.1818,-10 471.7396,-10"/>
<polygon fill="#191970" stroke="#191970" points="471.748,-13.5001 481.7479,-10 471.7479,-6.5001 471.748,-13.5001"/>
</g>
</g>
</svg>
