<?xml version="1.0" encoding="UTF-8" standalone="no"?>
<!DOCTYPE svg PUBLIC "-//W3C//DTD SVG 1.1//EN"
 "http://www.w3.org/Graphics/SVG/1.1/DTD/svg11.dtd">
<!-- Generated by graphviz version 2.40.1 (20161225.0304)
 -->
<!-- Title: chi::GraphFunction::nodes Pages: 1 -->
<svg width="1738pt" height="340pt"
 viewBox="0.00 0.00 1738.00 340.37" xmlns="http://www.w3.org/2000/svg" xmlns:xlink="http://www.w3.org/1999/xlink">
<g id="graph0" class="graph" transform="scale(1 1) rotate(0) translate(4 336.3733)">
<title>chi::GraphFunction::nodes</title>
<polygon fill="#ffffff" stroke="transparent" points="-4,4 -4,-336.3733 1734,-336.3733 1734,4 -4,4"/>
<!-- Node470 -->
<g id="node1" class="node">
<title>Node470</title>
<polygon fill="#bfbfbf" stroke="#000000" points="0,-137.5 0,-167.5 99,-167.5 99,-137.5 0,-137.5"/>
<text text-anchor="start" x="8" y="-155.5" font-family="Helvetica,sans-Serif" font-size="10.00" fill="#000000">chi::GraphFunction</text>
<text text-anchor="middle" x="49.5" y="-144.5" font-family="Helvetica,sans-Serif" font-size="10.00" fill="#000000">::nodes</text>
</g>
<!-- Node471 -->
<g id="node2" class="node">
<title>Node471</title>
<g id="a_node2"><a xlink:href="namespacechi.html#afd8b8d8a207d88359ad1e6a48d8f3bb1" target="_top" xlink:title="Serialize a GraphFunction to json. ">
<polygon fill="#ffffff" stroke="#000000" points="672.5,-269 672.5,-288 801.5,-288 801.5,-269 672.5,-269"/>
<text text-anchor="middle" x="737" y="-276" font-family="Helvetica,sans-Serif" font-size="10.00" fill="#000000">chi::graphFunctionToJson</text>
</a>
</g>
</g>
<!-- Node470&#45;&gt;Node471 -->
<g id="edge1" class="edge">
<title>Node470&#45;&gt;Node471</title>
<path fill="none" stroke="#191970" d="M61.003,-176.7399C74.7795,-202.9823 100.4029,-243.963 135,-265.5 322.7008,-382.3457 611.1565,-314.9954 705.7683,-288.05"/>
<polygon fill="#191970" stroke="#191970" points="64.1142,-175.1365 56.4687,-167.8018 57.8715,-178.3034 64.1142,-175.1365"/>
</g>
<!-- Node474 -->
<g id="node5" class="node">
<title>Node474</title>
<g id="a_node5"><a xlink:href="structchi_1_1GraphFunction.html#ac75470b92fcf30495c7daab64d999ed8" target="_top" xlink:title="Add a node to the graph. ">
<polygon fill="#ffffff" stroke="#000000" points="166,-137.5 166,-167.5 265,-167.5 265,-137.5 166,-137.5"/>
<text text-anchor="start" x="174" y="-155.5" font-family="Helvetica,sans-Serif" font-size="10.00" fill="#000000">chi::GraphFunction</text>
<text text-anchor="middle" x="215.5" y="-144.5" font-family="Helvetica,sans-Serif" font-size="10.00" fill="#000000">::insertNode</text>
</a>
</g>
</g>
<!-- Node470&#45;&gt;Node474 -->
<g id="edge4" class="edge">
<title>Node470&#45;&gt;Node474</title>
<path fill="none" stroke="#191970" d="M109.3769,-152.5C127.86,-152.5 148.0056,-152.5 165.7297,-152.5"/>
<polygon fill="#191970" stroke="#191970" points="109.3055,-149.0001 99.3055,-152.5 109.3054,-156.0001 109.3055,-149.0001"/>
</g>
<!-- Node477 -->
<g id="node8" class="node">
<title>Node477</title>
<g id="a_node8"><a xlink:href="namespacechi.html#a6a3fedb48e6702c016f996d8a7f445fc" target="_top" xlink:title="Load a GraphFunction–must already exist (use createGraphFunctionDeclarationFromJson) ...">
<polygon fill="#ffffff" stroke="#000000" points="332,-187 332,-206 460,-206 460,-187 332,-187"/>
<text text-anchor="middle" x="396" y="-194" font-family="Helvetica,sans-Serif" font-size="10.00" fill="#000000">chi::jsonToGraphFunction</text>
</a>
</g>
</g>
<!-- Node470&#45;&gt;Node477 -->
<g id="edge17" class="edge">
<title>Node470&#45;&gt;Node477</title>
<path fill="none" stroke="#191970" d="M103.9659,-170.2891C114.187,-173.0942 124.8506,-175.6681 135,-177.5 201.5061,-189.5037 278.8448,-193.9727 331.9734,-195.6103"/>
<polygon fill="#191970" stroke="#191970" points="104.9093,-166.9186 94.333,-167.5455 102.9918,-173.6509 104.9093,-166.9186"/>
</g>
<!-- Node485 -->
<g id="node16" class="node">
<title>Node485</title>
<g id="a_node16"><a xlink:href="structchi_1_1GraphFunction.html#acb3281f6b313b7070efb0ee84b937523" target="_top" xlink:title="Get a node with a given ID. ">
<polygon fill="#ffffff" stroke="#000000" points="346.5,-49.5 346.5,-79.5 445.5,-79.5 445.5,-49.5 346.5,-49.5"/>
<text text-anchor="start" x="354.5" y="-67.5" font-family="Helvetica,sans-Serif" font-size="10.00" fill="#000000">chi::GraphFunction</text>
<text text-anchor="middle" x="396" y="-56.5" font-family="Helvetica,sans-Serif" font-size="10.00" fill="#000000">::nodeByID</text>
</a>
</g>
</g>
<!-- Node470&#45;&gt;Node485 -->
<g id="edge18" class="edge">
<title>Node470&#45;&gt;Node485</title>
<path fill="none" stroke="#191970" d="M108.9158,-135.5479C117.6508,-133.1354 126.5497,-130.7214 135,-128.5 174.538,-118.1063 282.2571,-91.9503 346.2788,-76.4837"/>
<polygon fill="#191970" stroke="#191970" points="107.8536,-132.2104 99.1562,-138.2608 109.7283,-138.9548 107.8536,-132.2104"/>
</g>
<!-- Node486 -->
<g id="node17" class="node">
<title>Node486</title>
<g id="a_node17"><a xlink:href="structchi_1_1GraphFunction.html#ad4c3e2b91ad53ad79513e3dfdc07a36c" target="_top" xlink:title="Remove a node from the function. ">
<polygon fill="#ffffff" stroke="#000000" points="166,-225.5 166,-255.5 265,-255.5 265,-225.5 166,-225.5"/>
<text text-anchor="start" x="174" y="-243.5" font-family="Helvetica,sans-Serif" font-size="10.00" fill="#000000">chi::GraphFunction</text>
<text text-anchor="middle" x="215.5" y="-232.5" font-family="Helvetica,sans-Serif" font-size="10.00" fill="#000000">::removeNode</text>
</a>
</g>
</g>
<!-- Node470&#45;&gt;Node486 -->
<g id="edge20" class="edge">
<title>Node470&#45;&gt;Node486</title>
<path fill="none" stroke="#191970" d="M77.4981,-174.0044C93.7022,-185.7967 114.8263,-200.0897 135,-210.5 145.7357,-216.04 157.7368,-221.0776 169.1278,-225.3761"/>
<polygon fill="#191970" stroke="#191970" points="79.1612,-170.8813 69.0393,-167.751 74.9999,-176.5102 79.1612,-170.8813"/>
</g>
<!-- Node489 -->
<g id="node20" class="node">
<title>Node489</title>
<g id="a_node20"><a xlink:href="namespacechi.html#a3e66ba93ae2a152ebc13ec75a15b6e74" target="_top" xlink:title="Make sure that connections connect back and that they have the same types. ">
<polygon fill="#ffffff" stroke="#000000" points="135,-49.5 135,-79.5 296,-79.5 296,-49.5 135,-49.5"/>
<text text-anchor="start" x="143" y="-67.5" font-family="Helvetica,sans-Serif" font-size="10.00" fill="#000000">chi::validateFunctionConnections</text>
<text text-anchor="middle" x="215.5" y="-56.5" font-family="Helvetica,sans-Serif" font-size="10.00" fill="#000000">AreTwoWay</text>
</a>
</g>
</g>
<!-- Node470&#45;&gt;Node489 -->
<g id="edge25" class="edge">
<title>Node470&#45;&gt;Node489</title>
<path fill="none" stroke="#191970" d="M77.4981,-130.9956C93.7022,-119.2033 114.8263,-104.9103 135,-94.5 145.7357,-88.96 157.7368,-83.9224 169.1278,-79.6239"/>
<polygon fill="#191970" stroke="#191970" points="74.9999,-128.4898 69.0393,-137.249 79.1612,-134.1187 74.9999,-128.4898"/>
</g>
<!-- Node493 -->
<g id="node24" class="node">
<title>Node493</title>
<g id="a_node24"><a xlink:href="namespacechi.html#ae075e3bed58aaa6484e4b0e90872c19e" target="_top" xlink:title="Make sure nodes have an output connection. ">
<polygon fill="#ffffff" stroke="#000000" points="151,-.5 151,-30.5 280,-30.5 280,-.5 151,-.5"/>
<text text-anchor="start" x="159" y="-18.5" font-family="Helvetica,sans-Serif" font-size="10.00" fill="#000000">chi::validateFunctionExec</text>
<text text-anchor="middle" x="215.5" y="-7.5" font-family="Helvetica,sans-Serif" font-size="10.00" fill="#000000">Outputs</text>
</a>
</g>
</g>
<!-- Node470&#45;&gt;Node493 -->
<g id="edge29" class="edge">
<title>Node470&#45;&gt;Node493</title>
<path fill="none" stroke="#191970" d="M61.8344,-128.1365C76.0693,-102.4228 101.8393,-62.4996 135,-39.5 139.9132,-36.0923 145.3174,-33.1606 150.9295,-30.6397"/>
<polygon fill="#191970" stroke="#191970" points="58.5984,-126.7648 56.9522,-137.2309 64.7659,-130.0757 58.5984,-126.7648"/>
</g>
<!-- Node472 -->
<g id="node3" class="node">
<title>Node472</title>
<g id="a_node3"><a xlink:href="namespacechi.html#a9a4f3fa54c612f0c559a353bb7382d5a" target="_top" xlink:title="Serialize a JsonModule to json. ">
<polygon fill="#ffffff" stroke="#000000" points="1411.5,-248 1411.5,-267 1534.5,-267 1534.5,-248 1411.5,-248"/>
<text text-anchor="middle" x="1473" y="-255" font-family="Helvetica,sans-Serif" font-size="10.00" fill="#000000">chi::graphModuleToJson</text>
</a>
</g>
</g>
<!-- Node471&#45;&gt;Node472 -->
<g id="edge2" class="edge">
<title>Node471&#45;&gt;Node472</title>
<path fill="none" stroke="#191970" d="M811.8577,-276.3641C957.5875,-272.2061 1276.8582,-263.0964 1411.3407,-259.2593"/>
<polygon fill="#191970" stroke="#191970" points="811.5661,-272.8709 801.67,-276.6548 811.7658,-279.8681 811.5661,-272.8709"/>
</g>
<!-- Node473 -->
<g id="node4" class="node">
<title>Node473</title>
<g id="a_node4"><a xlink:href="structchi_1_1GraphModule.html#a5cd9fb1738336d5d382ebb50753bda3e" target="_top" xlink:title="Serialize to disk in the context. ">
<polygon fill="#ffffff" stroke="#000000" points="1579,-248 1579,-267 1730,-267 1730,-248 1579,-248"/>
<text text-anchor="middle" x="1654.5" y="-255" font-family="Helvetica,sans-Serif" font-size="10.00" fill="#000000">chi::GraphModule::saveToDisk</text>
</a>
</g>
</g>
<!-- Node472&#45;&gt;Node473 -->
<g id="edge3" class="edge">
<title>Node472&#45;&gt;Node473</title>
<path fill="none" stroke="#191970" d="M1544.8263,-257.5C1555.9968,-257.5 1567.5676,-257.5 1578.8204,-257.5"/>
<polygon fill="#191970" stroke="#191970" points="1544.7009,-254.0001 1534.7009,-257.5 1544.7008,-261.0001 1544.7009,-254.0001"/>
</g>
<!-- Node475 -->
<g id="node6" class="node">
<title>Node475</title>
<g id="a_node6"><a xlink:href="structchi_1_1GraphFunction.html#a0e722c9bae3101c4bb54ad9baae6f841" target="_top" xlink:title="Creates an entry node if it doesn&#39;t already exist, else just return it. ">
<polygon fill="#ffffff" stroke="#000000" points="337.5,-137.5 337.5,-167.5 454.5,-167.5 454.5,-137.5 337.5,-137.5"/>
<text text-anchor="start" x="345.5" y="-155.5" font-family="Helvetica,sans-Serif" font-size="10.00" fill="#000000">chi::GraphFunction</text>
<text text-anchor="middle" x="396" y="-144.5" font-family="Helvetica,sans-Serif" font-size="10.00" fill="#000000">::getOrInsertEntryNode</text>
</a>
</g>
</g>
<!-- Node474&#45;&gt;Node475 -->
<g id="edge5" class="edge">
<title>Node474&#45;&gt;Node475</title>
<path fill="none" stroke="#191970" d="M275.4956,-152.5C295.4263,-152.5 317.5831,-152.5 337.4066,-152.5"/>
<polygon fill="#191970" stroke="#191970" points="275.3003,-149.0001 265.3002,-152.5 275.3002,-156.0001 275.3003,-149.0001"/>
</g>
<!-- Node476 -->
<g id="node7" class="node">
<title>Node476</title>
<g id="a_node7"><a xlink:href="structchi_1_1GraphFunction.html#a900c0b670ad04a76b6add803ade7ae0d" target="_top" xlink:title="chi::GraphFunction\l::nodes">
<polygon fill="#ffffff" stroke="#000000" points="507.5,-115.5 507.5,-145.5 606.5,-145.5 606.5,-115.5 507.5,-115.5"/>
<text text-anchor="start" x="515.5" y="-133.5" font-family="Helvetica,sans-Serif" font-size="10.00" fill="#000000">chi::GraphFunction</text>
<text text-anchor="middle" x="557" y="-122.5" font-family="Helvetica,sans-Serif" font-size="10.00" fill="#000000">::nodes</text>
</a>
</g>
</g>
<!-- Node474&#45;&gt;Node476 -->
<g id="edge16" class="edge">
<title>Node474&#45;&gt;Node476</title>
<path fill="none" stroke="#191970" d="M274.9296,-137.8325C293.125,-133.999 313.2793,-130.4083 332,-128.5 388.5956,-122.731 403.1141,-127.9136 460,-128.5 475.3271,-128.658 492.0143,-128.9564 507.158,-129.2754"/>
<polygon fill="#191970" stroke="#191970" points="274.0742,-134.4366 265.0442,-139.9781 275.559,-141.2773 274.0742,-134.4366"/>
</g>
<!-- Node474&#45;&gt;Node477 -->
<g id="edge7" class="edge">
<title>Node474&#45;&gt;Node477</title>
<path fill="none" stroke="#191970" d="M275.3688,-167.094C302.2192,-173.6393 333.1313,-181.1747 356.941,-186.9787"/>
<polygon fill="#191970" stroke="#191970" points="275.8447,-163.6076 265.3002,-164.6397 274.1868,-170.4085 275.8447,-163.6076"/>
</g>
<!-- Node475&#45;&gt;Node476 -->
<g id="edge6" class="edge">
<title>Node475&#45;&gt;Node476</title>
<path fill="none" stroke="#191970" d="M464.8894,-143.0865C479.2055,-141.1303 494.0219,-139.1057 507.4762,-137.2672"/>
<polygon fill="#191970" stroke="#191970" points="464.0142,-139.6735 454.5801,-144.4953 464.9619,-146.6091 464.0142,-139.6735"/>
</g>
<!-- Node478 -->
<g id="node9" class="node">
<title>Node478</title>
<g id="a_node9"><a xlink:href="namespacechi.html#a4489e333fecc4168278e94f8b3f81e3c" target="_top" xlink:title="Load a GraphModule from json. ">
<polygon fill="#ffffff" stroke="#000000" points="496,-187 496,-206 618,-206 618,-187 496,-187"/>
<text text-anchor="middle" x="557" y="-194" font-family="Helvetica,sans-Serif" font-size="10.00" fill="#000000">chi::jsonToGraphModule</text>
</a>
</g>
</g>
<!-- Node477&#45;&gt;Node478 -->
<g id="edge8" class="edge">
<title>Node477&#45;&gt;Node478</title>
<path fill="none" stroke="#191970" d="M470.1006,-196.5C478.683,-196.5 487.363,-196.5 495.7471,-196.5"/>
<polygon fill="#191970" stroke="#191970" points="470.0941,-193.0001 460.0941,-196.5 470.094,-200.0001 470.0941,-193.0001"/>
</g>
<!-- Node479 -->
<g id="node10" class="node">
<title>Node479</title>
<g id="a_node10"><a xlink:href="structchi_1_1Context.html#a2db103f3a2f77710dfa51489f63ec97f" target="_top" xlink:title="Load a module from JSON – avoid this use the string overload. ">
<polygon fill="#ffffff" stroke="#000000" points="654,-187 654,-206 820,-206 820,-187 654,-187"/>
<text text-anchor="middle" x="737" y="-194" font-family="Helvetica,sans-Serif" font-size="10.00" fill="#000000">chi::Context::addModuleFromJson</text>
</a>
</g>
</g>
<!-- Node478&#45;&gt;Node479 -->
<g id="edge9" class="edge">
<title>Node478&#45;&gt;Node479</title>
<path fill="none" stroke="#191970" d="M628.3335,-196.5C636.7586,-196.5 645.412,-196.5 653.9806,-196.5"/>
<polygon fill="#191970" stroke="#191970" points="628.191,-193.0001 618.191,-196.5 628.1909,-200.0001 628.191,-193.0001"/>
</g>
<!-- Node480 -->
<g id="node11" class="node">
<title>Node480</title>
<g id="a_node11"><a xlink:href="structchi_1_1Context.html#a508c786fe61ffa67c2a44850ecac4a7b" target="_top" xlink:title="Load a module from disk, also loads dependencies. ">
<polygon fill="#ffffff" stroke="#000000" points="856,-188 856,-207 981,-207 981,-188 856,-188"/>
<text text-anchor="middle" x="918.5" y="-195" font-family="Helvetica,sans-Serif" font-size="10.00" fill="#000000">chi::Context::loadModule</text>
</a>
</g>
</g>
<!-- Node479&#45;&gt;Node480 -->
<g id="edge10" class="edge">
<title>Node479&#45;&gt;Node480</title>
<path fill="none" stroke="#191970" d="M830.2319,-197.0137C838.9115,-197.0615 847.5607,-197.1092 855.8618,-197.1549"/>
<polygon fill="#191970" stroke="#191970" points="830.0672,-193.5128 820.048,-196.9576 830.0286,-200.5127 830.0672,-193.5128"/>
</g>
<!-- Node481 -->
<g id="node12" class="node">
<title>Node481</title>
<g id="a_node12"><a xlink:href="structchi_1_1ChiModule.html#aab11d61e0c0138e5fc5ce176c20e3bec" target="_top" xlink:title="Add a dependency to the module Loads the module from context() if it isn&#39;t already loaded...">
<polygon fill="#ffffff" stroke="#000000" points="1017,-191 1017,-210 1174,-210 1174,-191 1017,-191"/>
<text text-anchor="middle" x="1095.5" y="-198" font-family="Helvetica,sans-Serif" font-size="10.00" fill="#000000">chi::ChiModule::addDependency</text>
</a>
</g>
</g>
<!-- Node480&#45;&gt;Node481 -->
<g id="edge11" class="edge">
<title>Node480&#45;&gt;Node481</title>
<path fill="none" stroke="#191970" d="M991.4468,-198.7364C999.7758,-198.8776 1008.2946,-199.0219 1016.6954,-199.1643"/>
<polygon fill="#191970" stroke="#191970" points="991.4599,-195.2362 981.402,-198.5661 991.3412,-202.2352 991.4599,-195.2362"/>
</g>
<!-- Node482 -->
<g id="node13" class="node">
<title>Node482</title>
<g id="a_node13"><a xlink:href="structchi_1_1ChiModule.html#a9c0d4b1b54bca0194ea4061ae4883779" target="_top" xlink:title="Get the dependencies. ">
<polygon fill="#ffffff" stroke="#000000" points="1215,-191 1215,-210 1362,-210 1362,-191 1215,-191"/>
<text text-anchor="middle" x="1288.5" y="-198" font-family="Helvetica,sans-Serif" font-size="10.00" fill="#000000">chi::ChiModule::dependencies</text>
</a>
</g>
</g>
<!-- Node481&#45;&gt;Node482 -->
<g id="edge12" class="edge">
<title>Node481&#45;&gt;Node482</title>
<path fill="none" stroke="#191970" d="M1184.1712,-200.5C1194.3983,-200.5 1204.7436,-200.5 1214.7433,-200.5"/>
<polygon fill="#191970" stroke="#191970" points="1184.0005,-197.0001 1174.0005,-200.5 1184.0005,-204.0001 1184.0005,-197.0001"/>
</g>
<!-- Node484 -->
<g id="node15" class="node">
<title>Node484</title>
<g id="a_node15"><a xlink:href="structchi_1_1GraphModule.html#a1f776646b9c9bdd615f7e35cebf7760a" target="_top" xlink:title="Construct a GraphModule. ">
<polygon fill="#ffffff" stroke="#000000" points="1210,-229 1210,-248 1367,-248 1367,-229 1210,-229"/>
<text text-anchor="middle" x="1288.5" y="-236" font-family="Helvetica,sans-Serif" font-size="10.00" fill="#000000">chi::GraphModule::GraphModule</text>
</a>
</g>
</g>
<!-- Node481&#45;&gt;Node484 -->
<g id="edge15" class="edge">
<title>Node481&#45;&gt;Node484</title>
<path fill="none" stroke="#191970" d="M1154.1016,-212.0381C1181.6289,-217.458 1214.0476,-223.841 1240.1482,-228.9799"/>
<polygon fill="#191970" stroke="#191970" points="1154.6898,-208.5868 1144.202,-210.089 1153.3375,-215.455 1154.6898,-208.5868"/>
</g>
<!-- Node482&#45;&gt;Node472 -->
<g id="edge14" class="edge">
<title>Node482&#45;&gt;Node472</title>
<path fill="none" stroke="#191970" d="M1341.4502,-212.4983C1350.0327,-214.6773 1358.7932,-217.0434 1367,-219.5 1395.2801,-227.9652 1427.0776,-239.6649 1448.4039,-247.8382"/>
<polygon fill="#191970" stroke="#191970" points="1342.049,-209.0409 1331.5006,-210.0321 1340.3648,-215.8353 1342.049,-209.0409"/>
</g>
<!-- Node483 -->
<g id="node14" class="node">
<title>Node483</title>
<g id="a_node14"><a xlink:href="structchi_1_1Context.html#ad535dc768a4386dbd06c8b769c5d549f" target="_top" xlink:title="Compile a module to a llvm::Module. ">
<polygon fill="#ffffff" stroke="#000000" points="1403,-191 1403,-210 1543,-210 1543,-191 1403,-191"/>
<text text-anchor="middle" x="1473" y="-198" font-family="Helvetica,sans-Serif" font-size="10.00" fill="#000000">chi::Context::compileModule</text>
</a>
</g>
</g>
<!-- Node482&#45;&gt;Node483 -->
<g id="edge13" class="edge">
<title>Node482&#45;&gt;Node483</title>
<path fill="none" stroke="#191970" d="M1372.3096,-200.5C1382.4689,-200.5 1392.7658,-200.5 1402.7021,-200.5"/>
<polygon fill="#191970" stroke="#191970" points="1372.2147,-197.0001 1362.2147,-200.5 1372.2147,-204.0001 1372.2147,-197.0001"/>
</g>
<!-- Node485&#45;&gt;Node476 -->
<g id="edge19" class="edge">
<title>Node485&#45;&gt;Node476</title>
<path fill="none" stroke="#191970" d="M442.4746,-83.5517C467.1932,-93.6848 497.1572,-105.9682 520.2352,-115.4287"/>
<polygon fill="#191970" stroke="#191970" points="443.517,-80.1964 432.9367,-79.6417 440.8618,-86.6733 443.517,-80.1964"/>
</g>
<!-- Node486&#45;&gt;Node476 -->
<g id="edge21" class="edge">
<title>Node486&#45;&gt;Node476</title>
<path fill="none" stroke="#191970" d="M275.4055,-245.6652C326.9561,-247.5534 401.9719,-244.0448 460,-215.5 480.8754,-205.2311 478.7332,-193.0914 496,-177.5 508.6017,-166.1211 523.7128,-154.4651 535.7421,-145.6073"/>
<polygon fill="#191970" stroke="#191970" points="275.2447,-242.1546 265.0984,-245.2046 274.9321,-249.1477 275.2447,-242.1546"/>
</g>
<!-- Node487 -->
<g id="node18" class="node">
<title>Node487</title>
<g id="a_node18"><a xlink:href="structchi_1_1GraphFunction.html#a81f2a4203abba46ff8494a6a7e192094" target="_top" xlink:title="Remove a local variable from the function by name. ">
<polygon fill="#ffffff" stroke="#000000" points="339.5,-263.5 339.5,-293.5 452.5,-293.5 452.5,-263.5 339.5,-263.5"/>
<text text-anchor="start" x="347.5" y="-281.5" font-family="Helvetica,sans-Serif" font-size="10.00" fill="#000000">chi::GraphFunction</text>
<text text-anchor="middle" x="396" y="-270.5" font-family="Helvetica,sans-Serif" font-size="10.00" fill="#000000">::removeLocalVariable</text>
</a>
</g>
</g>
<!-- Node486&#45;&gt;Node487 -->
<g id="edge22" class="edge">
<title>Node486&#45;&gt;Node487</title>
<path fill="none" stroke="#191970" d="M275.224,-253.0735C295.8804,-257.4222 318.9552,-262.28 339.3569,-266.5751"/>
<polygon fill="#191970" stroke="#191970" points="275.8068,-249.6195 265.3002,-250.9843 274.3647,-256.4694 275.8068,-249.6195"/>
</g>
<!-- Node488 -->
<g id="node19" class="node">
<title>Node488</title>
<g id="a_node19"><a xlink:href="structchi_1_1GraphFunction.html#a44f8f791775e4878b6bde37140cd131d" target="_top" xlink:title="Get the local variables. ">
<polygon fill="#ffffff" stroke="#000000" points="507.5,-263.5 507.5,-293.5 606.5,-293.5 606.5,-263.5 507.5,-263.5"/>
<text text-anchor="start" x="515.5" y="-281.5" font-family="Helvetica,sans-Serif" font-size="10.00" fill="#000000">chi::GraphFunction</text>
<text text-anchor="middle" x="557" y="-270.5" font-family="Helvetica,sans-Serif" font-size="10.00" fill="#000000">::localVariables</text>
</a>
</g>
</g>
<!-- Node487&#45;&gt;Node488 -->
<g id="edge23" class="edge">
<title>Node487&#45;&gt;Node488</title>
<path fill="none" stroke="#191970" d="M462.9488,-278.5C477.8469,-278.5 493.3826,-278.5 507.435,-278.5"/>
<polygon fill="#191970" stroke="#191970" points="462.7626,-275.0001 452.7626,-278.5 462.7625,-282.0001 462.7626,-275.0001"/>
</g>
<!-- Node488&#45;&gt;Node471 -->
<g id="edge24" class="edge">
<title>Node488&#45;&gt;Node471</title>
<path fill="none" stroke="#191970" d="M616.9036,-278.5C634.687,-278.5 654.2422,-278.5 672.3149,-278.5"/>
<polygon fill="#191970" stroke="#191970" points="616.6623,-275.0001 606.6623,-278.5 616.6622,-282.0001 616.6623,-275.0001"/>
</g>
<!-- Node490 -->
<g id="node21" class="node">
<title>Node490</title>
<g id="a_node21"><a xlink:href="namespacechi.html#acdc71d0d7f04f55316cc16af79b7f5b1" target="_top" xlink:title="Validate that a function is compilable. ">
<polygon fill="#ffffff" stroke="#000000" points="342.5,-9 342.5,-28 449.5,-28 449.5,-9 342.5,-9"/>
<text text-anchor="middle" x="396" y="-16" font-family="Helvetica,sans-Serif" font-size="10.00" fill="#000000">chi::validateFunction</text>
</a>
</g>
</g>
<!-- Node489&#45;&gt;Node490 -->
<g id="edge26" class="edge">
<title>Node489&#45;&gt;Node490</title>
<path fill="none" stroke="#191970" d="M284.4892,-46.9183C309.6765,-40.4993 337.2065,-33.4834 358.6106,-28.0286"/>
<polygon fill="#191970" stroke="#191970" points="283.4284,-43.5767 274.6025,-49.4379 285.1571,-50.3599 283.4284,-43.5767"/>
</g>
<!-- Node491 -->
<g id="node22" class="node">
<title>Node491</title>
<g id="a_node22"><a xlink:href="namespacechi.html#a8329038fce8125396cc9775460aa427b" target="_top" xlink:title="Compile the graph to an llvm::Function (usually called from JsonModule::generateModule) ...">
<polygon fill="#ffffff" stroke="#000000" points="503.5,-9 503.5,-28 610.5,-28 610.5,-9 503.5,-9"/>
<text text-anchor="middle" x="557" y="-16" font-family="Helvetica,sans-Serif" font-size="10.00" fill="#000000">chi::compileFunction</text>
</a>
</g>
</g>
<!-- Node490&#45;&gt;Node491 -->
<g id="edge27" class="edge">
<title>Node490&#45;&gt;Node491</title>
<path fill="none" stroke="#191970" d="M459.9269,-18.5C474.3118,-18.5 489.4348,-18.5 503.3491,-18.5"/>
<polygon fill="#191970" stroke="#191970" points="459.6107,-15.0001 449.6107,-18.5 459.6106,-22.0001 459.6107,-15.0001"/>
</g>
<!-- Node492 -->
<g id="node23" class="node">
<title>Node492</title>
<g id="a_node23"><a xlink:href="structchi_1_1GraphModule.html#a9b73bbbfa91d6a2f92bcca270bdb7b2f" target="_top" xlink:title="Generate a llvm::Module from the module. ">
<polygon fill="#ffffff" stroke="#000000" points="668.5,-3.5 668.5,-33.5 805.5,-33.5 805.5,-3.5 668.5,-3.5"/>
<text text-anchor="start" x="676.5" y="-21.5" font-family="Helvetica,sans-Serif" font-size="10.00" fill="#000000">chi::GraphModule::generate</text>
<text text-anchor="middle" x="737" y="-10.5" font-family="Helvetica,sans-Serif" font-size="10.00" fill="#000000">Module</text>
</a>
</g>
</g>
<!-- Node491&#45;&gt;Node492 -->
<g id="edge28" class="edge">
<title>Node491&#45;&gt;Node492</title>
<path fill="none" stroke="#191970" d="M620.946,-18.5C636.2989,-18.5 652.7587,-18.5 668.3168,-18.5"/>
<polygon fill="#191970" stroke="#191970" points="620.5186,-15.0001 610.5186,-18.5 620.5186,-22.0001 620.5186,-15.0001"/>
</g>
<!-- Node493&#45;&gt;Node490 -->
<g id="edge30" class="edge">
<title>Node493&#45;&gt;Node490</title>
<path fill="none" stroke="#191970" d="M290.3455,-16.744C307.8448,-17.0348 326.1404,-17.3389 342.4948,-17.6107"/>
<polygon fill="#191970" stroke="#191970" points="290.2116,-13.2414 280.1548,-16.5746 290.0952,-20.2404 290.2116,-13.2414"/>
</g>
</g>
</svg>
