<?xml version="1.0" encoding="UTF-8" standalone="no"?>
<!DOCTYPE svg PUBLIC "-//W3C//DTD SVG 1.1//EN"
 "http://www.w3.org/Graphics/SVG/1.1/DTD/svg11.dtd">
<!-- Generated by graphviz version 2.40.1 (20161225.0304)
 -->
<!-- Title: chig::GraphModule::functionFromName Pages: 1 -->
<!--zoomable 223 -->
<svg id="main" version="1.1" xmlns="http://www.w3.org/2000/svg" xmlns:xlink="http://www.w3.org/1999/xlink" xml:space="preserve" onload="init(evt)">
<style type="text/css"><![CDATA[
.edge:hover path { stroke: red; }
.edge:hover polygon { stroke: red; fill: red; }
]]></style>
<script type="text/javascript"><![CDATA[
var edges = document.getElementsByTagName('g');
if (edges && edges.length) {
  for (var i=0;i<edges.length;i++) {
    if (edges[i].id.substr(0,4)=='edge') {
      edges[i].setAttribute('class','edge');
    }
  }
}
]]></script>
        <defs>
                <circle id="rim" cx="0" cy="0" r="7"/>
                <circle id="rim2" cx="0" cy="0" r="3.5"/>
                <g id="zoomPlus">
                        <use xlink:href="#rim" fill="#404040">
                                <set attributeName="fill" to="#808080" begin="zoomplus.mouseover" end="zoomplus.mouseout"/>
                        </use>
                        <path d="M-4,0h8M0,-4v8" fill="none" stroke="white" stroke-width="1.5" pointer-events="none"/>
                </g>
                <g id="zoomMin">
                        <use xlink:href="#rim" fill="#404040">
                                <set attributeName="fill" to="#808080" begin="zoomminus.mouseover" end="zoomminus.mouseout"/>
                        </use>
                        <path d="M-4,0h8" fill="none" stroke="white" stroke-width="1.5" pointer-events="none"/>
                </g>
                <g id="dirArrow">
                        <path fill="none" stroke="white" stroke-width="1.5" d="M0,-3.0v7 M-2.5,-0.5L0,-3.0L2.5,-0.5"/>
                </g>
               <g id="resetDef">
                       <use xlink:href="#rim2" fill="#404040">
                               <set attributeName="fill" to="#808080" begin="reset.mouseover" end="reset.mouseout"/>
                       </use>
               </g>
        </defs>

<script type="text/javascript">
var viewWidth = 1060;
var viewHeight = 223;
var sectionId = 'dynsection-12';
</script>
<script xlink:href="svgpan.js"/>
<svg id="graph" class="graph">
<g id="viewport">
<title>chig::GraphModule::functionFromName</title>
<polygon fill="#ffffff" stroke="transparent" points="-4,4 -4,-219 1056,-219 1056,4 -4,4"/>
<!-- Node86 -->
<g id="node1" class="node">
<title>Node86</title>
<polygon fill="#bfbfbf" stroke="#000000" points="0,-122.5 0,-152.5 104,-152.5 104,-122.5 0,-122.5"/>
<text text-anchor="start" x="8" y="-140.5" font-family="Helvetica,sans-Serif" font-size="10.00" fill="#000000">chig::GraphModule::</text>
<text text-anchor="middle" x="52" y="-129.5" font-family="Helvetica,sans-Serif" font-size="10.00" fill="#000000">functionFromName</text>
</g>
<!-- Node87 -->
<g id="node2" class="node">
<title>Node87</title>
<g id="a_node2"><a xlink:href="structchig_1_1GraphModule.html#a628d997f3978987e06a1fc05f86aab36" target="_top" xlink:title="Create a new function if it does&#39;t already exist. ">
<polygon fill="#ffffff" stroke="#000000" points="140,-98.5 140,-128.5 247,-128.5 247,-98.5 140,-98.5"/>
<text text-anchor="start" x="148" y="-116.5" font-family="Helvetica,sans-Serif" font-size="10.00" fill="#000000">chig::GraphModule::</text>
<text text-anchor="middle" x="193.5" y="-105.5" font-family="Helvetica,sans-Serif" font-size="10.00" fill="#000000">getOrCreateFunction</text>
</a>
</g>
</g>
<!-- Node86&#45;&gt;Node87 -->
<g id="edge1" class="edge">
<title>Node86&#45;&gt;Node87</title>
<path fill="none" stroke="#191970" d="M114.3979,-126.9166C122.7776,-125.4953 131.3158,-124.0471 139.5334,-122.6533"/>
<polygon fill="#191970" stroke="#191970" points="113.5612,-123.5084 104.2874,-128.6315 114.7319,-130.4099 113.5612,-123.5084"/>
</g>
<!-- Node88 -->
<g id="node3" class="node">
<title>Node88</title>
<g id="a_node3"><a xlink:href="structchig_1_1GraphModule.html#a2b80440a0bdf4c760a12ea0309d68060" target="_top" xlink:title="Get the path to the source file It&#39;s not garunteed to exist, because it could have not been saved...">
<polygon fill="#ffffff" stroke="#000000" points="296.5,-147.5 296.5,-177.5 400.5,-177.5 400.5,-147.5 296.5,-147.5"/>
<text text-anchor="start" x="304.5" y="-165.5" font-family="Helvetica,sans-Serif" font-size="10.00" fill="#000000">chig::GraphModule::</text>
<text text-anchor="middle" x="348.5" y="-154.5" font-family="Helvetica,sans-Serif" font-size="10.00" fill="#000000">sourceFilePath</text>
</a>
</g>
</g>
<!-- Node86&#45;&gt;Node88 -->
<g id="edge18" class="edge">
<title>Node86&#45;&gt;Node88</title>
<path fill="none" stroke="#191970" d="M80.2511,-158.5636C96.7488,-169.5337 118.4989,-181.8183 140,-187.5 195.162,-202.0767 260.8009,-189.4881 303.4918,-177.5003"/>
<polygon fill="#191970" stroke="#191970" points="81.8837,-155.4385 71.6611,-152.6546 77.9164,-161.2057 81.8837,-155.4385"/>
</g>
<!-- Node94 -->
<g id="node9" class="node">
<title>Node94</title>
<g id="a_node9"><a xlink:href="structchig_1_1GraphModule.html#a3a3e16c194c091ee109eabaca14e3c43" target="_top" xlink:title="Create a node type that is in the module from the name and json. ">
<polygon fill="#ffffff" stroke="#000000" points="140,-49.5 140,-79.5 247,-79.5 247,-49.5 140,-49.5"/>
<text text-anchor="start" x="148" y="-67.5" font-family="Helvetica,sans-Serif" font-size="10.00" fill="#000000">chig::GraphModule::</text>
<text text-anchor="middle" x="193.5" y="-56.5" font-family="Helvetica,sans-Serif" font-size="10.00" fill="#000000">nodeTypeFromName</text>
</a>
</g>
</g>
<!-- Node86&#45;&gt;Node94 -->
<g id="edge8" class="edge">
<title>Node86&#45;&gt;Node94</title>
<path fill="none" stroke="#191970" d="M86.8743,-117.1706C102.8876,-108.0726 122.2297,-97.4124 140,-88.5 146.0058,-85.4879 152.4708,-82.4337 158.7591,-79.5593"/>
<polygon fill="#191970" stroke="#191970" points="84.8105,-114.3189 77.8676,-122.3218 88.2858,-120.3953 84.8105,-114.3189"/>
</g>
<!-- Node100 -->
<g id="node15" class="node">
<title>Node100</title>
<g id="a_node15"><a xlink:href="structchig_1_1GraphModule.html#a1e4006bb0bd7eba8ce50cc7176d4477f" target="_top" xlink:title="Remove a function from the module. ">
<polygon fill="#ffffff" stroke="#000000" points="141.5,-147.5 141.5,-177.5 245.5,-177.5 245.5,-147.5 141.5,-147.5"/>
<text text-anchor="start" x="149.5" y="-165.5" font-family="Helvetica,sans-Serif" font-size="10.00" fill="#000000">chig::GraphModule::</text>
<text text-anchor="middle" x="193.5" y="-154.5" font-family="Helvetica,sans-Serif" font-size="10.00" fill="#000000">removeFunction</text>
</a>
</g>
</g>
<!-- Node86&#45;&gt;Node100 -->
<g id="edge16" class="edge">
<title>Node86&#45;&gt;Node100</title>
<path fill="none" stroke="#191970" d="M114.3752,-148.5204C123.408,-150.1163 132.6255,-151.7448 141.4276,-153.2999"/>
<polygon fill="#191970" stroke="#191970" points="114.7438,-145.0313 104.2874,-146.738 113.5259,-151.9246 114.7438,-145.0313"/>
</g>
<!-- Node87&#45;&gt;Node88 -->
<g id="edge2" class="edge">
<title>Node87&#45;&gt;Node88</title>
<path fill="none" stroke="#191970" d="M251.2583,-131.7591C267.6067,-136.9273 285.2107,-142.4924 300.8879,-147.4484"/>
<polygon fill="#191970" stroke="#191970" points="251.8598,-128.2785 241.2699,-128.6014 249.7497,-134.953 251.8598,-128.2785"/>
</g>
<!-- Node91 -->
<g id="node6" class="node">
<title>Node91</title>
<g id="a_node6"><a xlink:href="namespacechig.html#a860a6f4d8180f1fb71729896291891b7" target="_top" xlink:title="Create a forward declaration of a function in a module with an empty graph. ">
<polygon fill="#ffffff" stroke="#000000" points="283,-98.5 283,-128.5 414,-128.5 414,-98.5 283,-98.5"/>
<text text-anchor="start" x="291" y="-116.5" font-family="Helvetica,sans-Serif" font-size="10.00" fill="#000000">chig::createGraphFunction</text>
<text text-anchor="middle" x="348.5" y="-105.5" font-family="Helvetica,sans-Serif" font-size="10.00" fill="#000000">DeclarationFromJson</text>
</a>
</g>
</g>
<!-- Node87&#45;&gt;Node91 -->
<g id="edge5" class="edge">
<title>Node87&#45;&gt;Node91</title>
<path fill="none" stroke="#191970" d="M257.3737,-113.5C265.7636,-113.5 274.3735,-113.5 282.7933,-113.5"/>
<polygon fill="#191970" stroke="#191970" points="257.2765,-110.0001 247.2765,-113.5 257.2764,-117.0001 257.2765,-110.0001"/>
</g>
<!-- Node89 -->
<g id="node4" class="node">
<title>Node89</title>
<g id="a_node4"><a xlink:href="structchig_1_1GraphModule.html#a4c3a1ba833c0bd7e9a3daf0fd42eb6c6" target="_top" xlink:title="Generate a llvm::Module from the module. ">
<polygon fill="#ffffff" stroke="#000000" points="462,-184.5 462,-214.5 566,-214.5 566,-184.5 462,-184.5"/>
<text text-anchor="start" x="470" y="-202.5" font-family="Helvetica,sans-Serif" font-size="10.00" fill="#000000">chig::GraphModule::</text>
<text text-anchor="middle" x="514" y="-191.5" font-family="Helvetica,sans-Serif" font-size="10.00" fill="#000000">generateModule</text>
</a>
</g>
</g>
<!-- Node88&#45;&gt;Node89 -->
<g id="edge3" class="edge">
<title>Node88&#45;&gt;Node89</title>
<path fill="none" stroke="#191970" d="M410.6549,-176.3957C427.5618,-180.1754 445.6934,-184.229 461.9754,-187.8691"/>
<polygon fill="#191970" stroke="#191970" points="411.388,-172.9732 400.8652,-174.207 409.8607,-179.8046 411.388,-172.9732"/>
</g>
<!-- Node90 -->
<g id="node5" class="node">
<title>Node90</title>
<g id="a_node5"><a xlink:href="structchig_1_1GraphModule.html#accb1a64da697a29e28d78a9a09bd52ff" target="_top" xlink:title="Serialize to disk in the context. ">
<polygon fill="#ffffff" stroke="#000000" points="948,-96.5 948,-126.5 1052,-126.5 1052,-96.5 948,-96.5"/>
<text text-anchor="start" x="956" y="-114.5" font-family="Helvetica,sans-Serif" font-size="10.00" fill="#000000">chig::GraphModule::</text>
<text text-anchor="middle" x="1000" y="-103.5" font-family="Helvetica,sans-Serif" font-size="10.00" fill="#000000">saveToDisk</text>
</a>
</g>
</g>
<!-- Node88&#45;&gt;Node90 -->
<g id="edge4" class="edge">
<title>Node88&#45;&gt;Node90</title>
<path fill="none" stroke="#191970" d="M410.7905,-159.1015C489.4267,-154.6603 628.8353,-146.2858 748,-136.5 817.2313,-130.8147 896.9971,-122.6242 947.9224,-117.1865"/>
<polygon fill="#191970" stroke="#191970" points="410.3614,-155.62 400.5735,-159.6756 410.7542,-162.6089 410.3614,-155.62"/>
</g>
<!-- Node92 -->
<g id="node7" class="node">
<title>Node92</title>
<g id="a_node7"><a xlink:href="namespacechig.html#a1f28de74faa271cf31249935c9640c58" target="_top" xlink:title="Load a GraphModule from json. ">
<polygon fill="#ffffff" stroke="#000000" points="450,-103 450,-122 578,-122 578,-103 450,-103"/>
<text text-anchor="middle" x="514" y="-110" font-family="Helvetica,sans-Serif" font-size="10.00" fill="#000000">chig::jsonToGraphModule</text>
</a>
</g>
</g>
<!-- Node91&#45;&gt;Node92 -->
<g id="edge6" class="edge">
<title>Node91&#45;&gt;Node92</title>
<path fill="none" stroke="#191970" d="M424.6417,-113.0399C433.1074,-112.9888 441.6658,-112.9371 449.9597,-112.887"/>
<polygon fill="#191970" stroke="#191970" points="424.3642,-109.5414 414.3855,-113.1019 424.4065,-116.5413 424.3642,-109.5414"/>
</g>
<!-- Node93 -->
<g id="node8" class="node">
<title>Node93</title>
<g id="a_node8"><a xlink:href="structchig_1_1Context.html#a0d9ec5f2803a5777d2e389256ccb3e3b" target="_top" xlink:title="Load a module from JSON – avoid this use the string overload. ">
<polygon fill="#ffffff" stroke="#000000" points="617,-96.5 617,-126.5 745,-126.5 745,-96.5 617,-96.5"/>
<text text-anchor="start" x="625" y="-114.5" font-family="Helvetica,sans-Serif" font-size="10.00" fill="#000000">chig::Context::addModule</text>
<text text-anchor="middle" x="681" y="-103.5" font-family="Helvetica,sans-Serif" font-size="10.00" fill="#000000">FromJson</text>
</a>
</g>
</g>
<!-- Node92&#45;&gt;Node93 -->
<g id="edge7" class="edge">
<title>Node92&#45;&gt;Node93</title>
<path fill="none" stroke="#191970" d="M588.3145,-112.055C597.8181,-111.9981 607.4823,-111.9402 616.8066,-111.8844"/>
<polygon fill="#191970" stroke="#191970" points="588.0678,-108.5563 578.089,-112.1162 588.1098,-115.5562 588.0678,-108.5563"/>
</g>
<!-- Node95 -->
<g id="node10" class="node">
<title>Node95</title>
<g id="a_node10"><a xlink:href="structchig_1_1GraphFunction.html#a9eff598c36c450953054331757bf6d6b" target="_top" xlink:title="Rename a local variable. ">
<polygon fill="#ffffff" stroke="#000000" points="292,-49.5 292,-79.5 405,-79.5 405,-49.5 292,-49.5"/>
<text text-anchor="start" x="300" y="-67.5" font-family="Helvetica,sans-Serif" font-size="10.00" fill="#000000">chig::GraphFunction</text>
<text text-anchor="middle" x="348.5" y="-56.5" font-family="Helvetica,sans-Serif" font-size="10.00" fill="#000000">::renameLocalVariable</text>
</a>
</g>
</g>
<!-- Node94&#45;&gt;Node95 -->
<g id="edge9" class="edge">
<title>Node94&#45;&gt;Node95</title>
<path fill="none" stroke="#191970" d="M257.5912,-64.5C268.9767,-64.5 280.7603,-64.5 291.9187,-64.5"/>
<polygon fill="#191970" stroke="#191970" points="257.2765,-61.0001 247.2765,-64.5 257.2764,-68.0001 257.2765,-61.0001"/>
</g>
<!-- Node99 -->
<g id="node14" class="node">
<title>Node99</title>
<g id="a_node14"><a xlink:href="structchig_1_1GraphFunction.html#a905a09106e02a246daac43a37c42b97b" target="_top" xlink:title="Set a new type to a local variable. ">
<polygon fill="#ffffff" stroke="#000000" points="294.5,-.5 294.5,-30.5 402.5,-30.5 402.5,-.5 294.5,-.5"/>
<text text-anchor="start" x="302.5" y="-18.5" font-family="Helvetica,sans-Serif" font-size="10.00" fill="#000000">chig::GraphFunction</text>
<text text-anchor="middle" x="348.5" y="-7.5" font-family="Helvetica,sans-Serif" font-size="10.00" fill="#000000">::retypeLocalVariable</text>
</a>
</g>
</g>
<!-- Node94&#45;&gt;Node99 -->
<g id="edge14" class="edge">
<title>Node94&#45;&gt;Node99</title>
<path fill="none" stroke="#191970" d="M251.2583,-46.2409C267.6067,-41.0727 285.2107,-35.5076 300.8879,-30.5516"/>
<polygon fill="#191970" stroke="#191970" points="249.7497,-43.047 241.2699,-49.3986 251.8598,-49.7215 249.7497,-43.047"/>
</g>
<!-- Node96 -->
<g id="node11" class="node">
<title>Node96</title>
<g id="a_node11"><a xlink:href="structchig_1_1GraphFunction.html#a72a81861d1331948804b2a267598ec79" target="_top" xlink:title="Get the local variables. ">
<polygon fill="#ffffff" stroke="#000000" points="462,-49.5 462,-79.5 566,-79.5 566,-49.5 462,-49.5"/>
<text text-anchor="start" x="470" y="-67.5" font-family="Helvetica,sans-Serif" font-size="10.00" fill="#000000">chig::GraphFunction</text>
<text text-anchor="middle" x="514" y="-56.5" font-family="Helvetica,sans-Serif" font-size="10.00" fill="#000000">::localVariables</text>
</a>
</g>
</g>
<!-- Node95&#45;&gt;Node96 -->
<g id="edge10" class="edge">
<title>Node95&#45;&gt;Node96</title>
<path fill="none" stroke="#191970" d="M415.4926,-64.5C430.9697,-64.5 447.2106,-64.5 461.94,-64.5"/>
<polygon fill="#191970" stroke="#191970" points="415.4557,-61.0001 405.4557,-64.5 415.4557,-68.0001 415.4557,-61.0001"/>
</g>
<!-- Node97 -->
<g id="node12" class="node">
<title>Node97</title>
<g id="a_node12"><a xlink:href="namespacechig.html#ad0fd9448ab1cd1d73351fad5967a7b9b" target="_top" xlink:title="Serialize a GraphFunction to json. ">
<polygon fill="#ffffff" stroke="#000000" points="614,-57 614,-76 748,-76 748,-57 614,-57"/>
<text text-anchor="middle" x="681" y="-64" font-family="Helvetica,sans-Serif" font-size="10.00" fill="#000000">chig::graphFunctionToJson</text>
</a>
</g>
</g>
<!-- Node96&#45;&gt;Node97 -->
<g id="edge11" class="edge">
<title>Node96&#45;&gt;Node97</title>
<path fill="none" stroke="#191970" d="M576.4373,-65.2478C588.617,-65.3936 601.4363,-65.5471 613.7637,-65.6948"/>
<polygon fill="#191970" stroke="#191970" points="576.4229,-61.7474 566.3816,-65.1273 576.339,-68.7469 576.4229,-61.7474"/>
</g>
<!-- Node98 -->
<g id="node13" class="node">
<title>Node98</title>
<g id="a_node13"><a xlink:href="namespacechig.html#aaef3bb08f472ae32b2d3b292e69a007a" target="_top" xlink:title="Serialize a JsonModule to json. ">
<polygon fill="#ffffff" stroke="#000000" points="784,-83 784,-102 912,-102 912,-83 784,-83"/>
<text text-anchor="middle" x="848" y="-90" font-family="Helvetica,sans-Serif" font-size="10.00" fill="#000000">chig::graphModuleToJson</text>
</a>
</g>
</g>
<!-- Node97&#45;&gt;Node98 -->
<g id="edge12" class="edge">
<title>Node97&#45;&gt;Node98</title>
<path fill="none" stroke="#191970" d="M752.2334,-77.5902C763.7279,-79.3798 775.5395,-81.2187 786.771,-82.9673"/>
<polygon fill="#191970" stroke="#191970" points="752.6558,-74.1139 742.2364,-76.0338 751.5789,-81.0306 752.6558,-74.1139"/>
</g>
<!-- Node98&#45;&gt;Node90 -->
<g id="edge13" class="edge">
<title>Node98&#45;&gt;Node90</title>
<path fill="none" stroke="#191970" d="M922.0838,-101.7605C930.6912,-102.8364 939.3313,-103.9164 947.5622,-104.9453"/>
<polygon fill="#191970" stroke="#191970" points="922.3781,-98.2701 912.0211,-100.5026 921.5098,-105.216 922.3781,-98.2701"/>
</g>
<!-- Node99&#45;&gt;Node96 -->
<g id="edge15" class="edge">
<title>Node99&#45;&gt;Node96</title>
<path fill="none" stroke="#191970" d="M409.1844,-33.467C426.9168,-38.717 446.1075,-44.3989 463.1625,-49.4484"/>
<polygon fill="#191970" stroke="#191970" points="410.0881,-30.0844 399.5059,-30.6014 408.1008,-36.7964 410.0881,-30.0844"/>
</g>
<!-- Node100&#45;&gt;Node88 -->
<g id="edge17" class="edge">
<title>Node100&#45;&gt;Node88</title>
<path fill="none" stroke="#191970" d="M255.6945,-162.5C269.1694,-162.5 283.2871,-162.5 296.3296,-162.5"/>
<polygon fill="#191970" stroke="#191970" points="255.544,-159.0001 245.5439,-162.5 255.5439,-166.0001 255.544,-159.0001"/>
</g>
</g>
</svg>
        <g id="navigator" transform="translate(0 0)" fill="#404254">
                <rect fill="#f2f5e9" fill-opacity="0.5" stroke="#606060" stroke-width=".5" x="0" y="0" width="60" height="60"/>
                <use id="zoomplus" xlink:href="#zoomPlus" x="17" y="9" onmousedown="handleZoom(evt,'in')"/>
                <use id="zoomminus" xlink:href="#zoomMin" x="42" y="9" onmousedown="handleZoom(evt,'out')"/>
                <use id="reset" xlink:href="#resetDef" x="30" y="36" onmousedown="handleReset()"/>
                <g id="arrowUp" xlink:href="#dirArrow" transform="translate(30 24)" onmousedown="handlePan(0,-1)">
                  <use xlink:href="#rim" fill="#404040">
                        <set attributeName="fill" to="#808080" begin="arrowUp.mouseover" end="arrowUp.mouseout"/>
                  </use>
                  <path fill="none" stroke="white" stroke-width="1.5" d="M0,-3.0v7 M-2.5,-0.5L0,-3.0L2.5,-0.5"/>
                </g>
                <g id="arrowRight" xlink:href="#dirArrow" transform="rotate(90) translate(36 -43)" onmousedown="handlePan(1,0)">
                  <use xlink:href="#rim" fill="#404040">
                        <set attributeName="fill" to="#808080" begin="arrowRight.mouseover" end="arrowRight.mouseout"/>
                  </use>
                  <path fill="none" stroke="white" stroke-width="1.5" d="M0,-3.0v7 M-2.5,-0.5L0,-3.0L2.5,-0.5"/>
                </g>
                <g id="arrowDown" xlink:href="#dirArrow" transform="rotate(180) translate(-30 -48)" onmousedown="handlePan(0,1)">
                  <use xlink:href="#rim" fill="#404040">
                        <set attributeName="fill" to="#808080" begin="arrowDown.mouseover" end="arrowDown.mouseout"/>
                  </use>
                  <path fill="none" stroke="white" stroke-width="1.5" d="M0,-3.0v7 M-2.5,-0.5L0,-3.0L2.5,-0.5"/>
                </g>
                <g id="arrowLeft" xlink:href="#dirArrow" transform="rotate(270) translate(-36 17)" onmousedown="handlePan(-1,0)">
                  <use xlink:href="#rim" fill="#404040">
                        <set attributeName="fill" to="#808080" begin="arrowLeft.mouseover" end="arrowLeft.mouseout"/>
                  </use>
                  <path fill="none" stroke="white" stroke-width="1.5" d="M0,-3.0v7 M-2.5,-0.5L0,-3.0L2.5,-0.5"/>
                </g>
        </g>
        <svg viewBox="0 0 15 15" width="100%" height="30px" preserveAspectRatio="xMaxYMin meet">
         <g id="arrow_out" transform="scale(0.3 0.3)">
          <a xlink:href="structchig_1_1GraphModule_acf2cd8568f77bb56185e87e8ccb5889c_icgraph_org.svg" target="_base">
           <rect id="button" ry="5" rx="5" y="6" x="6" height="38" width="38"
                fill="#f2f5e9" fill-opacity="0.5" stroke="#606060" stroke-width="1.0"/>
           <path id="arrow"
             d="M 11.500037,31.436501 C 11.940474,20.09759 22.043105,11.32322 32.158766,21.979434 L 37.068811,17.246167 C 37.068811,17.246167 37.088388,32 37.088388,32 L 22.160133,31.978069 C 22.160133,31.978069 26.997745,27.140456 26.997745,27.140456 C 18.528582,18.264221 13.291696,25.230495 11.500037,31.436501 z"
             style="fill:#404040;"/>
          </a>
         </g>
        </svg>
</svg>
