<?xml version="1.0" encoding="UTF-8" standalone="no"?>
<!DOCTYPE svg PUBLIC "-//W3C//DTD SVG 1.1//EN"
 "http://www.w3.org/Graphics/SVG/1.1/DTD/svg11.dtd">
<!-- Generated by graphviz version 2.40.1 (20161225.0304)
 -->
<!-- Title: chig::ChigModule::dependencies Pages: 1 -->
<svg width="653pt" height="39pt"
 viewBox="0.00 0.00 653.00 39.00" xmlns="http://www.w3.org/2000/svg" xmlns:xlink="http://www.w3.org/1999/xlink">
<g id="graph0" class="graph" transform="scale(1 1) rotate(0) translate(4 35)">
<title>chig::ChigModule::dependencies</title>
<polygon fill="#ffffff" stroke="transparent" points="-4,4 -4,-35 649,-35 649,4 -4,4"/>
<!-- Node34 -->
<g id="node1" class="node">
<title>Node34</title>
<polygon fill="#bfbfbf" stroke="#000000" points="0,-6 0,-25 173,-25 173,-6 0,-6"/>
<text text-anchor="middle" x="86.5" y="-13" font-family="Helvetica,sans-Serif" font-size="10.00" fill="#000000">chig::ChigModule::dependencies</text>
</g>
<!-- Node35 -->
<g id="node2" class="node">
<title>Node35</title>
<g id="a_node2"><a xlink:href="namespacechig.html#aaef3bb08f472ae32b2d3b292e69a007a" target="_top" xlink:title="Serialize a JsonModule to json. ">
<polygon fill="#ffffff" stroke="#000000" points="209,-6 209,-25 347,-25 347,-6 209,-6"/>
<text text-anchor="middle" x="278" y="-13" font-family="Helvetica,sans-Serif" font-size="10.00" fill="#000000">chig::graphModuleToJson</text>
</a>
</g>
</g>
<!-- Node34&#45;&gt;Node35 -->
<g id="edge1" class="edge">
<title>Node34&#45;&gt;Node35</title>
<path fill="none" stroke="#191970" d="M183.1546,-15.5C191.8104,-15.5 200.4565,-15.5 208.8097,-15.5"/>
<polygon fill="#191970" stroke="#191970" points="183.0058,-12.0001 173.0057,-15.5 183.0057,-19.0001 183.0058,-12.0001"/>
</g>
<!-- Node36 -->
<g id="node3" class="node">
<title>Node36</title>
<g id="a_node3"><a xlink:href="structchig_1_1GraphModule.html#accb1a64da697a29e28d78a9a09bd52ff" target="_top" xlink:title="Serialize to disk in the context. ">
<polygon fill="#ffffff" stroke="#000000" points="383,-.5 383,-30.5 496,-30.5 496,-.5 383,-.5"/>
<text text-anchor="start" x="391" y="-18.5" font-family="Helvetica,sans-Serif" font-size="10.00" fill="#000000">chig::GraphModule::</text>
<text text-anchor="middle" x="439.5" y="-7.5" font-family="Helvetica,sans-Serif" font-size="10.00" fill="#000000">saveToDisk</text>
</a>
</g>
</g>
<!-- Node35&#45;&gt;Node36 -->
<g id="edge2" class="edge">
<title>Node35&#45;&gt;Node36</title>
<path fill="none" stroke="#191970" d="M357.4374,-15.5C365.9913,-15.5 374.5649,-15.5 382.774,-15.5"/>
<polygon fill="#191970" stroke="#191970" points="357.4278,-12.0001 347.4278,-15.5 357.4278,-19.0001 357.4278,-12.0001"/>
</g>
<!-- Node37 -->
<g id="node4" class="node">
<title>Node37</title>
<g id="a_node4"><a xlink:href="structchig_1_1GraphModule.html#a6d4a66c7e72fc4f83bff139baf819170" target="_top" xlink:title="Get the possible DataType names. ">
<polygon fill="#ffffff" stroke="#000000" points="532,-.5 532,-30.5 645,-30.5 645,-.5 532,-.5"/>
<text text-anchor="start" x="540" y="-18.5" font-family="Helvetica,sans-Serif" font-size="10.00" fill="#000000">chig::GraphModule::</text>
<text text-anchor="middle" x="588.5" y="-7.5" font-family="Helvetica,sans-Serif" font-size="10.00" fill="#000000">typeNames</text>
</a>
</g>
</g>
<!-- Node36&#45;&gt;Node37 -->
<g id="edge3" class="edge">
<title>Node36&#45;&gt;Node37</title>
<path fill="none" stroke="#191970" d="M506.5076,-15.5C514.9902,-15.5 523.6037,-15.5 531.9022,-15.5"/>
<polygon fill="#191970" stroke="#191970" points="506.2556,-12.0001 496.2556,-15.5 506.2555,-19.0001 506.2556,-12.0001"/>
</g>
</g>
</svg>
