<?xml version="1.0" encoding="UTF-8" standalone="no"?>
<!DOCTYPE svg PUBLIC "-//W3C//DTD SVG 1.1//EN"
 "http://www.w3.org/Graphics/SVG/1.1/DTD/svg11.dtd">
<!-- Generated by graphviz version 2.40.1 (20161225.0304)
 -->
<!-- Title: chig::JsonModule::sourceFilePath Pages: 1 -->
<!--zoomable 248 -->
<svg id="main" version="1.1" xmlns="http://www.w3.org/2000/svg" xmlns:xlink="http://www.w3.org/1999/xlink" xml:space="preserve" onload="init(evt)">
<style type="text/css"><![CDATA[
.edge:hover path { stroke: red; }
.edge:hover polygon { stroke: red; fill: red; }
]]></style>
<script type="text/javascript"><![CDATA[
var edges = document.getElementsByTagName('g');
if (edges && edges.length) {
  for (var i=0;i<edges.length;i++) {
    if (edges[i].id.substr(0,4)=='edge') {
      edges[i].setAttribute('class','edge');
    }
  }
}
]]></script>
        <defs>
                <circle id="rim" cx="0" cy="0" r="7"/>
                <circle id="rim2" cx="0" cy="0" r="3.5"/>
                <g id="zoomPlus">
                        <use xlink:href="#rim" fill="#404040">
                                <set attributeName="fill" to="#808080" begin="zoomplus.mouseover" end="zoomplus.mouseout"/>
                        </use>
                        <path d="M-4,0h8M0,-4v8" fill="none" stroke="white" stroke-width="1.5" pointer-events="none"/>
                </g>
                <g id="zoomMin">
                        <use xlink:href="#rim" fill="#404040">
                                <set attributeName="fill" to="#808080" begin="zoomminus.mouseover" end="zoomminus.mouseout"/>
                        </use>
                        <path d="M-4,0h8" fill="none" stroke="white" stroke-width="1.5" pointer-events="none"/>
                </g>
                <g id="dirArrow">
                        <path fill="none" stroke="white" stroke-width="1.5" d="M0,-3.0v7 M-2.5,-0.5L0,-3.0L2.5,-0.5"/>
                </g>
               <g id="resetDef">
                       <use xlink:href="#rim2" fill="#404040">
                               <set attributeName="fill" to="#808080" begin="reset.mouseover" end="reset.mouseout"/>
                       </use>
               </g>
        </defs>

<script type="text/javascript">
var viewWidth = 703;
var viewHeight = 248;
var sectionId = 'dynsection-28';
</script>
<script xlink:href="svgpan.js"/>
<svg id="graph" class="graph">
<g id="viewport">
<title>chig::JsonModule::sourceFilePath</title>
<polygon fill="#ffffff" stroke="transparent" points="-4,4 -4,-243.5 699,-243.5 699,4 -4,4"/>
<!-- Node206 -->
<g id="node1" class="node">
<title>Node206</title>
<polygon fill="#bfbfbf" stroke="#000000" points="0,-102 0,-132 137,-132 137,-102 0,-102"/>
<text text-anchor="start" x="8" y="-120" font-family="Helvetica,sans-Serif" font-size="10.00" fill="#000000">chig::JsonModule::source</text>
<text text-anchor="middle" x="68.5" y="-109" font-family="Helvetica,sans-Serif" font-size="10.00" fill="#000000">FilePath</text>
</g>
<!-- Node207 -->
<g id="node2" class="node">
<title>Node207</title>
<g id="a_node2"><a xlink:href="structchig_1_1ChigModule.html#aad81aae17452ddc5fc43809924236385" target="_top" xlink:title="Get the Context that this module belongs to. ">
<polygon fill="#ffffff" stroke="#000000" points="182,-214.5 182,-233.5 325,-233.5 325,-214.5 182,-214.5"/>
<text text-anchor="middle" x="253.5" y="-221.5" font-family="Helvetica,sans-Serif" font-size="10.00" fill="#000000">chig::ChigModule::context</text>
</a>
</g>
</g>
<!-- Node206&#45;&gt;Node207 -->
<g id="edge1" class="edge">
<title>Node206&#45;&gt;Node207</title>
<path fill="none" stroke="#191970" d="M82.1272,-132.2553C100.6998,-152.0796 135.9158,-186.3563 173,-205 177.8111,-207.4187 182.94,-209.5366 188.1905,-211.3897"/>
<polygon fill="#191970" stroke="#191970" points="187.1389,-214.728 197.73,-214.4474 189.2756,-208.0621 187.1389,-214.728"/>
</g>
<!-- Node209 -->
<g id="node4" class="node">
<title>Node209</title>
<g id="a_node4"><a xlink:href="structchig_1_1JsonModule.html#aac5a649c9a98e72ecc20ecadb30d3e4c" target="_top" xlink:title="Create a new function if it does&#39;t already exist. ">
<polygon fill="#ffffff" stroke="#000000" points="186,-165 186,-195 321,-195 321,-165 186,-165"/>
<text text-anchor="start" x="194" y="-183" font-family="Helvetica,sans-Serif" font-size="10.00" fill="#000000">chig::JsonModule::create</text>
<text text-anchor="middle" x="253.5" y="-172" font-family="Helvetica,sans-Serif" font-size="10.00" fill="#000000">Function</text>
</a>
</g>
</g>
<!-- Node206&#45;&gt;Node209 -->
<g id="edge3" class="edge">
<title>Node206&#45;&gt;Node209</title>
<path fill="none" stroke="#191970" d="M112.8121,-132.0901C138.9168,-140.9798 172.1255,-152.2887 199.7226,-161.6866"/>
<polygon fill="#191970" stroke="#191970" points="198.6348,-165.0135 209.2292,-164.924 200.8914,-158.3872 198.6348,-165.0135"/>
</g>
<!-- Node210 -->
<g id="node5" class="node">
<title>Node210</title>
<g id="a_node5"><a xlink:href="structchig_1_1JsonModule.html#aef854b4e838ba98c1d6973c1f4488b10" target="_top" xlink:title="Get a function from the name. ">
<polygon fill="#ffffff" stroke="#000000" points="370,-121 370,-151 525,-151 525,-121 370,-121"/>
<text text-anchor="start" x="378" y="-139" font-family="Helvetica,sans-Serif" font-size="10.00" fill="#000000">chig::JsonModule::graphFunc</text>
<text text-anchor="middle" x="447.5" y="-128" font-family="Helvetica,sans-Serif" font-size="10.00" fill="#000000">FromName</text>
</a>
</g>
</g>
<!-- Node206&#45;&gt;Node210 -->
<g id="edge7" class="edge">
<title>Node206&#45;&gt;Node210</title>
<path fill="none" stroke="#191970" d="M137.134,-120.4408C199.5256,-123.5686 291.9179,-128.2004 359.6736,-131.5971"/>
<polygon fill="#191970" stroke="#191970" points="359.7434,-135.1049 369.9061,-132.1101 360.094,-128.1137 359.7434,-135.1049"/>
</g>
<!-- Node212 -->
<g id="node7" class="node">
<title>Node212</title>
<g id="a_node7"><a xlink:href="structchig_1_1ChigModule.html#ad730121a133fbc474fcb71d49f31f7b3" target="_top" xlink:title="Get the full name of the module. ">
<polygon fill="#ffffff" stroke="#000000" points="178,-88.5 178,-107.5 329,-107.5 329,-88.5 178,-88.5"/>
<text text-anchor="middle" x="253.5" y="-95.5" font-family="Helvetica,sans-Serif" font-size="10.00" fill="#000000">chig::ChigModule::fullName</text>
</a>
</g>
</g>
<!-- Node206&#45;&gt;Node212 -->
<g id="edge6" class="edge">
<title>Node206&#45;&gt;Node212</title>
<path fill="none" stroke="#191970" d="M137.1243,-109.9521C147.0731,-108.9303 157.4175,-107.8679 167.6527,-106.8168"/>
<polygon fill="#191970" stroke="#191970" points="168.2427,-110.2747 177.8328,-105.7712 167.5275,-103.3113 168.2427,-110.2747"/>
</g>
<!-- Node213 -->
<g id="node8" class="node">
<title>Node213</title>
<g id="a_node8"><a xlink:href="structchig_1_1JsonModule.html#aa56ff2175f24086ea8d021be75894cbf" target="_top" xlink:title="Remove a function from the module. ">
<polygon fill="#ffffff" stroke="#000000" points="182.5,-39 182.5,-69 324.5,-69 324.5,-39 182.5,-39"/>
<text text-anchor="start" x="190.5" y="-57" font-family="Helvetica,sans-Serif" font-size="10.00" fill="#000000">chig::JsonModule::remove</text>
<text text-anchor="middle" x="253.5" y="-46" font-family="Helvetica,sans-Serif" font-size="10.00" fill="#000000">Function</text>
</a>
</g>
</g>
<!-- Node206&#45;&gt;Node213 -->
<g id="edge8" class="edge">
<title>Node206&#45;&gt;Node213</title>
<path fill="none" stroke="#191970" d="M108.5377,-101.9344C127.9284,-94.7679 151.5956,-86.2108 173,-79 179.7695,-76.7195 186.8841,-74.3997 193.9662,-72.1386"/>
<polygon fill="#191970" stroke="#191970" points="195.0895,-75.4542 203.5679,-69.1007 192.9779,-68.7803 195.0895,-75.4542"/>
</g>
<!-- Node214 -->
<g id="node9" class="node">
<title>Node214</title>
<g id="a_node9"><a xlink:href="structchig_1_1Context.html#a21a5a702d92a00b87700e03782f9cb5f" target="_top" xlink:title="Get the workspace path of the Context. ">
<polygon fill="#ffffff" stroke="#000000" points="173,-.5 173,-19.5 334,-19.5 334,-.5 173,-.5"/>
<text text-anchor="middle" x="253.5" y="-7.5" font-family="Helvetica,sans-Serif" font-size="10.00" fill="#000000">chig::Context::workspacePath</text>
</a>
</g>
</g>
<!-- Node206&#45;&gt;Node214 -->
<g id="edge10" class="edge">
<title>Node206&#45;&gt;Node214</title>
<path fill="none" stroke="#191970" d="M82.1272,-101.7447C100.6998,-81.9204 135.9158,-47.6437 173,-29 177.8111,-26.5813 182.94,-24.4634 188.1905,-22.6103"/>
<polygon fill="#191970" stroke="#191970" points="189.2756,-25.9379 197.73,-19.5526 187.1389,-19.272 189.2756,-25.9379"/>
</g>
<!-- Node208 -->
<g id="node3" class="node">
<title>Node208</title>
<g id="a_node3"><a xlink:href="structchig_1_1ChigModule.html#a7864ea1e3388965d05103768757962a4" target="_top" xlink:title="Generate a llvm::Module from the module. ">
<polygon fill="#ffffff" stroke="#000000" points="373,-209 373,-239 522,-239 522,-209 373,-209"/>
<text text-anchor="start" x="381" y="-227" font-family="Helvetica,sans-Serif" font-size="10.00" fill="#000000">chig::ChigModule::generate</text>
<text text-anchor="middle" x="447.5" y="-216" font-family="Helvetica,sans-Serif" font-size="10.00" fill="#000000">Module</text>
</a>
</g>
</g>
<!-- Node207&#45;&gt;Node208 -->
<g id="edge2" class="edge">
<title>Node207&#45;&gt;Node208</title>
<path fill="none" stroke="#191970" d="M325.1873,-224C337.3301,-224 350.0419,-224 362.4865,-224"/>
<polygon fill="#191970" stroke="#191970" points="362.8588,-227.5001 372.8587,-224 362.8587,-220.5001 362.8588,-227.5001"/>
</g>
<!-- Node209&#45;&gt;Node210 -->
<g id="edge4" class="edge">
<title>Node209&#45;&gt;Node210</title>
<path fill="none" stroke="#191970" d="M319.7212,-164.9808C336.3293,-161.214 354.2805,-157.1426 371.3304,-153.2756"/>
<polygon fill="#191970" stroke="#191970" points="372.27,-156.6515 381.2481,-151.0262 370.7216,-149.8248 372.27,-156.6515"/>
</g>
<!-- Node211 -->
<g id="node6" class="node">
<title>Node211</title>
<g id="a_node6"><a xlink:href="structchig_1_1ChigModule.html#a1fe8df6ff170ecd33057387571bb5cd2" target="_top" xlink:title="Get the short name of the module (the last bit) ">
<polygon fill="#ffffff" stroke="#000000" points="561,-126.5 561,-145.5 695,-145.5 695,-126.5 561,-126.5"/>
<text text-anchor="middle" x="628" y="-133.5" font-family="Helvetica,sans-Serif" font-size="10.00" fill="#000000">chig::ChigModule::name</text>
</a>
</g>
</g>
<!-- Node210&#45;&gt;Node211 -->
<g id="edge5" class="edge">
<title>Node210&#45;&gt;Node211</title>
<path fill="none" stroke="#191970" d="M525.0958,-136C533.587,-136 542.2308,-136 550.7183,-136"/>
<polygon fill="#191970" stroke="#191970" points="550.9729,-139.5001 560.9728,-136 550.9728,-132.5001 550.9729,-139.5001"/>
</g>
<!-- Node213&#45;&gt;Node210 -->
<g id="edge9" class="edge">
<title>Node213&#45;&gt;Node210</title>
<path fill="none" stroke="#191970" d="M306.3337,-69.0431C315.6461,-72.0805 325.1779,-75.4429 334,-79 360.6622,-89.7502 389.6053,-104.3345 411.5908,-116.0594"/>
<polygon fill="#191970" stroke="#191970" points="410.0962,-119.2297 420.5602,-120.8897 413.4153,-113.0666 410.0962,-119.2297"/>
</g>
</g>
</svg>
        <g id="navigator" transform="translate(0 0)" fill="#404254">
                <rect fill="#f2f5e9" fill-opacity="0.5" stroke="#606060" stroke-width=".5" x="0" y="0" width="60" height="60"/>
                <use id="zoomplus" xlink:href="#zoomPlus" x="17" y="9" onmousedown="handleZoom(evt,'in')"/>
                <use id="zoomminus" xlink:href="#zoomMin" x="42" y="9" onmousedown="handleZoom(evt,'out')"/>
                <use id="reset" xlink:href="#resetDef" x="30" y="36" onmousedown="handleReset()"/>
                <g id="arrowUp" xlink:href="#dirArrow" transform="translate(30 24)" onmousedown="handlePan(0,-1)">
                  <use xlink:href="#rim" fill="#404040">
                        <set attributeName="fill" to="#808080" begin="arrowUp.mouseover" end="arrowUp.mouseout"/>
                  </use>
                  <path fill="none" stroke="white" stroke-width="1.5" d="M0,-3.0v7 M-2.5,-0.5L0,-3.0L2.5,-0.5"/>
                </g>
                <g id="arrowRight" xlink:href="#dirArrow" transform="rotate(90) translate(36 -43)" onmousedown="handlePan(1,0)">
                  <use xlink:href="#rim" fill="#404040">
                        <set attributeName="fill" to="#808080" begin="arrowRight.mouseover" end="arrowRight.mouseout"/>
                  </use>
                  <path fill="none" stroke="white" stroke-width="1.5" d="M0,-3.0v7 M-2.5,-0.5L0,-3.0L2.5,-0.5"/>
                </g>
                <g id="arrowDown" xlink:href="#dirArrow" transform="rotate(180) translate(-30 -48)" onmousedown="handlePan(0,1)">
                  <use xlink:href="#rim" fill="#404040">
                        <set attributeName="fill" to="#808080" begin="arrowDown.mouseover" end="arrowDown.mouseout"/>
                  </use>
                  <path fill="none" stroke="white" stroke-width="1.5" d="M0,-3.0v7 M-2.5,-0.5L0,-3.0L2.5,-0.5"/>
                </g>
                <g id="arrowLeft" xlink:href="#dirArrow" transform="rotate(270) translate(-36 17)" onmousedown="handlePan(-1,0)">
                  <use xlink:href="#rim" fill="#404040">
                        <set attributeName="fill" to="#808080" begin="arrowLeft.mouseover" end="arrowLeft.mouseout"/>
                  </use>
                  <path fill="none" stroke="white" stroke-width="1.5" d="M0,-3.0v7 M-2.5,-0.5L0,-3.0L2.5,-0.5"/>
                </g>
        </g>
        <svg viewBox="0 0 15 15" width="100%" height="30px" preserveAspectRatio="xMaxYMin meet">
         <g id="arrow_out" transform="scale(0.3 0.3)">
          <a xlink:href="structchig_1_1JsonModule_a8633e9bfc529b8a88a6a12c253f99e53_cgraph_org.svg" target="_base">
           <rect id="button" ry="5" rx="5" y="6" x="6" height="38" width="38"
                fill="#f2f5e9" fill-opacity="0.5" stroke="#606060" stroke-width="1.0"/>
           <path id="arrow"
             d="M 11.500037,31.436501 C 11.940474,20.09759 22.043105,11.32322 32.158766,21.979434 L 37.068811,17.246167 C 37.068811,17.246167 37.088388,32 37.088388,32 L 22.160133,31.978069 C 22.160133,31.978069 26.997745,27.140456 26.997745,27.140456 C 18.528582,18.264221 13.291696,25.230495 11.500037,31.436501 z"
             style="fill:#404040;"/>
          </a>
         </g>
        </svg>
</svg>
