<?xml version="1.0" encoding="UTF-8" standalone="no"?>
<!DOCTYPE svg PUBLIC "-//W3C//DTD SVG 1.1//EN"
 "http://www.w3.org/Graphics/SVG/1.1/DTD/svg11.dtd">
<!-- Generated by graphviz version 2.40.1 (20161225.0304)
 -->
<!-- Title: chig::ChigModule::addDependency Pages: 1 -->
<svg width="972pt" height="85pt"
 viewBox="0.00 0.00 972.00 85.00" xmlns="http://www.w3.org/2000/svg" xmlns:xlink="http://www.w3.org/1999/xlink">
<g id="graph0" class="graph" transform="scale(1 1) rotate(0) translate(4 81)">
<title>chig::ChigModule::addDependency</title>
<polygon fill="#ffffff" stroke="transparent" points="-4,4 -4,-81 968,-81 968,4 -4,4"/>
<!-- Node5 -->
<g id="node1" class="node">
<title>Node5</title>
<polygon fill="#bfbfbf" stroke="#000000" points="0,-19.5 0,-38.5 185,-38.5 185,-19.5 0,-19.5"/>
<text text-anchor="middle" x="92.5" y="-26.5" font-family="Helvetica,sans-Serif" font-size="10.00" fill="#000000">chig::ChigModule::addDependency</text>
</g>
<!-- Node6 -->
<g id="node2" class="node">
<title>Node6</title>
<g id="a_node2"><a xlink:href="structchig_1_1ChigModule.html#a0fc2b8e9bab1d061ec12212ac8c78a40" target="_top" xlink:title="Get the dependencies. ">
<polygon fill="#ffffff" stroke="#000000" points="221,-38.5 221,-57.5 394,-57.5 394,-38.5 221,-38.5"/>
<text text-anchor="middle" x="307.5" y="-45.5" font-family="Helvetica,sans-Serif" font-size="10.00" fill="#000000">chig::ChigModule::dependencies</text>
</a>
</g>
</g>
<!-- Node5&#45;&gt;Node6 -->
<g id="edge1" class="edge">
<title>Node5&#45;&gt;Node6</title>
<path fill="none" stroke="#191970" d="M195.2568,-38.0808C203.817,-38.8373 212.4174,-39.5974 220.8403,-40.3417"/>
<polygon fill="#191970" stroke="#191970" points="195.5086,-34.5895 185.2393,-37.1956 194.8924,-41.5624 195.5086,-34.5895"/>
</g>
<!-- Node11 -->
<g id="node7" class="node">
<title>Node11</title>
<g id="a_node7"><a xlink:href="structchig_1_1JsonModule.html#ae9d14a6f432082a9489d3b5ccf5ae338" target="_top" xlink:title="Constructor for a json module. ">
<polygon fill="#ffffff" stroke="#000000" points="227.5,-.5 227.5,-19.5 387.5,-19.5 387.5,-.5 227.5,-.5"/>
<text text-anchor="middle" x="307.5" y="-7.5" font-family="Helvetica,sans-Serif" font-size="10.00" fill="#000000">chig::JsonModule::JsonModule</text>
</a>
</g>
</g>
<!-- Node5&#45;&gt;Node11 -->
<g id="edge7" class="edge">
<title>Node5&#45;&gt;Node11</title>
<path fill="none" stroke="#191970" d="M195.442,-19.9028C206.117,-18.9594 216.8521,-18.0107 227.2252,-17.0941"/>
<polygon fill="#191970" stroke="#191970" points="194.8924,-16.4376 185.2393,-20.8044 195.5086,-23.4105 194.8924,-16.4376"/>
</g>
<!-- Node7 -->
<g id="node3" class="node">
<title>Node7</title>
<g id="a_node3"><a xlink:href="structchig_1_1JsonModule.html#a200bbbf7eefaffdc40978c01d1053f46" target="_top" xlink:title="Serialize to JSON. ">
<polygon fill="#ffffff" stroke="#000000" points="430,-38.5 430,-57.5 568,-57.5 568,-38.5 430,-38.5"/>
<text text-anchor="middle" x="499" y="-45.5" font-family="Helvetica,sans-Serif" font-size="10.00" fill="#000000">chig::JsonModule::toJSON</text>
</a>
</g>
</g>
<!-- Node6&#45;&gt;Node7 -->
<g id="edge2" class="edge">
<title>Node6&#45;&gt;Node7</title>
<path fill="none" stroke="#191970" d="M404.1546,-48C412.8104,-48 421.4565,-48 429.8097,-48"/>
<polygon fill="#191970" stroke="#191970" points="404.0058,-44.5001 394.0057,-48 404.0057,-51.5001 404.0058,-44.5001"/>
</g>
<!-- Node8 -->
<g id="node4" class="node">
<title>Node8</title>
<g id="a_node4"><a xlink:href="structchig_1_1JsonModule.html#ae0301727a42a28a7ec2b7116f6d54e04" target="_top" xlink:title="Serialize to disk in the context. ">
<polygon fill="#ffffff" stroke="#000000" points="604,-57.5 604,-76.5 765,-76.5 765,-57.5 604,-57.5"/>
<text text-anchor="middle" x="684.5" y="-64.5" font-family="Helvetica,sans-Serif" font-size="10.00" fill="#000000">chig::JsonModule::saveToDisk</text>
</a>
</g>
</g>
<!-- Node7&#45;&gt;Node8 -->
<g id="edge3" class="edge">
<title>Node7&#45;&gt;Node8</title>
<path fill="none" stroke="#191970" d="M578.2816,-56.1205C586.7284,-56.9857 595.3274,-57.8664 603.7904,-58.7332"/>
<polygon fill="#191970" stroke="#191970" points="578.378,-52.6121 568.0734,-55.0749 577.6647,-59.5757 578.378,-52.6121"/>
</g>
<!-- Node10 -->
<g id="node6" class="node">
<title>Node10</title>
<g id="a_node6"><a xlink:href="structchig_1_1JsonModule.html#ac0085e28a8ff704511c0a4bb1f8eb42d" target="_top" xlink:title="Get the possible DataType names. ">
<polygon fill="#ffffff" stroke="#000000" points="802,-19.5 802,-38.5 963,-38.5 963,-19.5 802,-19.5"/>
<text text-anchor="middle" x="882.5" y="-26.5" font-family="Helvetica,sans-Serif" font-size="10.00" fill="#000000">chig::JsonModule::typeNames</text>
</a>
</g>
</g>
<!-- Node7&#45;&gt;Node10 -->
<g id="edge6" class="edge">
<title>Node7&#45;&gt;Node10</title>
<path fill="none" stroke="#191970" d="M578.2568,-44.0733C643.6279,-40.8346 735.9852,-36.2589 801.7602,-33.0001"/>
<polygon fill="#191970" stroke="#191970" points="577.8196,-40.5906 568.005,-44.5812 578.166,-47.582 577.8196,-40.5906"/>
</g>
<!-- Node9 -->
<g id="node5" class="node">
<title>Node9</title>
<g id="a_node5"><a xlink:href="structchig_1_1Context.html#a9c11bfd47be5c451906840f293fa82c2" target="_top" xlink:title="Create a new JSONModule with the given full name. ">
<polygon fill="#ffffff" stroke="#000000" points="801,-57.5 801,-76.5 964,-76.5 964,-57.5 801,-57.5"/>
<text text-anchor="middle" x="882.5" y="-64.5" font-family="Helvetica,sans-Serif" font-size="10.00" fill="#000000">chig::Context::newJsonModule</text>
</a>
</g>
</g>
<!-- Node8&#45;&gt;Node9 -->
<g id="edge4" class="edge">
<title>Node8&#45;&gt;Node9</title>
<path fill="none" stroke="#191970" d="M775.0414,-67C783.6126,-67 792.2691,-67 800.7512,-67"/>
<polygon fill="#191970" stroke="#191970" points="775.0342,-63.5001 765.0342,-67 775.0341,-70.5001 775.0342,-63.5001"/>
</g>
<!-- Node8&#45;&gt;Node10 -->
<g id="edge5" class="edge">
<title>Node8&#45;&gt;Node10</title>
<path fill="none" stroke="#191970" d="M744.3659,-55.5106C772.6171,-50.0886 805.9357,-43.6942 832.7714,-38.5439"/>
<polygon fill="#191970" stroke="#191970" points="743.3693,-52.1379 734.2082,-57.46 744.6887,-59.0124 743.3693,-52.1379"/>
</g>
</g>
</svg>
