<?xml version="1.0" encoding="UTF-8" standalone="no"?>
<!DOCTYPE svg PUBLIC "-//W3C//DTD SVG 1.1//EN"
 "http://www.w3.org/Graphics/SVG/1.1/DTD/svg11.dtd">
<!-- Generated by graphviz version 2.40.1 (20161225.0304)
 -->
<!-- Title: chig::GraphModule::createLineNumberAssoc Pages: 1 -->
<svg width="552pt" height="110pt"
 viewBox="0.00 0.00 552.00 110.00" xmlns="http://www.w3.org/2000/svg" xmlns:xlink="http://www.w3.org/1999/xlink">
<g id="graph0" class="graph" transform="scale(1 1) rotate(0) translate(4 106)">
<title>chig::GraphModule::createLineNumberAssoc</title>
<polygon fill="#ffffff" stroke="transparent" points="-4,4 -4,-106 548,-106 548,4 -4,4"/>
<!-- Node40 -->
<g id="node1" class="node">
<title>Node40</title>
<polygon fill="#bfbfbf" stroke="#000000" points="0,-49.5 0,-79.5 124,-79.5 124,-49.5 0,-49.5"/>
<text text-anchor="start" x="8" y="-67.5" font-family="Helvetica,sans-Serif" font-size="10.00" fill="#000000">chig::GraphModule::</text>
<text text-anchor="middle" x="62" y="-56.5" font-family="Helvetica,sans-Serif" font-size="10.00" fill="#000000">createLineNumberAssoc</text>
</g>
<!-- Node41 -->
<g id="node2" class="node">
<title>Node41</title>
<g id="a_node2"><a xlink:href="structchig_1_1GraphModule.html#a3aca789690eb2e7dedc764ae20154c9d" target="_top" xlink:title="Get functions. ">
<polygon fill="#ffffff" stroke="#000000" points="160,-49.5 160,-79.5 264,-79.5 264,-49.5 160,-49.5"/>
<text text-anchor="start" x="168" y="-67.5" font-family="Helvetica,sans-Serif" font-size="10.00" fill="#000000">chig::GraphModule::</text>
<text text-anchor="middle" x="212" y="-56.5" font-family="Helvetica,sans-Serif" font-size="10.00" fill="#000000">functions</text>
</a>
</g>
</g>
<!-- Node40&#45;&gt;Node41 -->
<g id="edge1" class="edge">
<title>Node40&#45;&gt;Node41</title>
<path fill="none" stroke="#191970" d="M124.3104,-64.5C132.6653,-64.5 141.2366,-64.5 149.5931,-64.5"/>
<polygon fill="#191970" stroke="#191970" points="149.6508,-68.0001 159.6508,-64.5 149.6508,-61.0001 149.6508,-68.0001"/>
</g>
<!-- Node42 -->
<g id="node3" class="node">
<title>Node42</title>
<g id="a_node3"><a xlink:href="structchig_1_1GraphModule.html#a64831f6b192140fb9014025717df72ac" target="_top" xlink:title="Get a struct by name. ">
<polygon fill="#ffffff" stroke="#000000" points="440,-71.5 440,-101.5 544,-101.5 544,-71.5 440,-71.5"/>
<text text-anchor="start" x="448" y="-89.5" font-family="Helvetica,sans-Serif" font-size="10.00" fill="#000000">chig::GraphModule::</text>
<text text-anchor="middle" x="492" y="-78.5" font-family="Helvetica,sans-Serif" font-size="10.00" fill="#000000">structFromName</text>
</a>
</g>
</g>
<!-- Node41&#45;&gt;Node42 -->
<g id="edge2" class="edge">
<title>Node41&#45;&gt;Node42</title>
<path fill="none" stroke="#191970" d="M255.8044,-79.5208C269.7568,-83.6058 285.3707,-87.4623 300,-89.5 343.0081,-95.4906 391.9561,-94.6084 429.6655,-92.2965"/>
<polygon fill="#191970" stroke="#191970" points="430.243,-95.7659 439.9891,-91.611 429.7792,-88.7813 430.243,-95.7659"/>
</g>
<!-- Node43 -->
<g id="node4" class="node">
<title>Node43</title>
<g id="a_node4"><a xlink:href="structchig_1_1GraphModule.html#af766a22d33074aafe823b19218321d6e" target="_top" xlink:title="Create a new struct in the module. ">
<polygon fill="#ffffff" stroke="#000000" points="300,-49.5 300,-79.5 404,-79.5 404,-49.5 300,-49.5"/>
<text text-anchor="start" x="308" y="-67.5" font-family="Helvetica,sans-Serif" font-size="10.00" fill="#000000">chig::GraphModule::</text>
<text text-anchor="middle" x="352" y="-56.5" font-family="Helvetica,sans-Serif" font-size="10.00" fill="#000000">getOrCreateStruct</text>
</a>
</g>
</g>
<!-- Node41&#45;&gt;Node43 -->
<g id="edge3" class="edge">
<title>Node41&#45;&gt;Node43</title>
<path fill="none" stroke="#191970" d="M264.1308,-64.5C272.4213,-64.5 281.0702,-64.5 289.5685,-64.5"/>
<polygon fill="#191970" stroke="#191970" points="289.8257,-68.0001 299.8256,-64.5 289.8256,-61.0001 289.8257,-68.0001"/>
</g>
<!-- Node44 -->
<g id="node5" class="node">
<title>Node44</title>
<g id="a_node5"><a xlink:href="structchig_1_1GraphModule.html#a7d3e60b0ac5dcc4304c4cfc0a8b13d07" target="_top" xlink:title="Remove a struct from the module by name. ">
<polygon fill="#ffffff" stroke="#000000" points="300,-.5 300,-30.5 404,-30.5 404,-.5 300,-.5"/>
<text text-anchor="start" x="308" y="-18.5" font-family="Helvetica,sans-Serif" font-size="10.00" fill="#000000">chig::GraphModule::</text>
<text text-anchor="middle" x="352" y="-7.5" font-family="Helvetica,sans-Serif" font-size="10.00" fill="#000000">removeStruct</text>
</a>
</g>
</g>
<!-- Node41&#45;&gt;Node44 -->
<g id="edge5" class="edge">
<title>Node41&#45;&gt;Node44</title>
<path fill="none" stroke="#191970" d="M255.147,-49.3986C268.986,-44.5549 284.4754,-39.1336 298.9385,-34.0715"/>
<polygon fill="#191970" stroke="#191970" points="300.4722,-37.243 308.7545,-30.6359 298.1597,-30.636 300.4722,-37.243"/>
</g>
<!-- Node43&#45;&gt;Node42 -->
<g id="edge4" class="edge">
<title>Node43&#45;&gt;Node42</title>
<path fill="none" stroke="#191970" d="M404.1308,-72.692C412.5124,-74.0091 421.2603,-75.3838 429.8486,-76.7333"/>
<polygon fill="#191970" stroke="#191970" points="429.4035,-80.2063 439.8256,-78.3012 430.4902,-73.2911 429.4035,-80.2063"/>
</g>
</g>
</svg>
