<?xml version="1.0" encoding="UTF-8" standalone="no"?>
<!DOCTYPE svg PUBLIC "-//W3C//DTD SVG 1.1//EN"
 "http://www.w3.org/Graphics/SVG/1.1/DTD/svg11.dtd">
<!-- Generated by graphviz version 2.40.1 (20161225.0304)
 -->
<!-- Title: chi::GraphModule::addForwardDeclarations Pages: 1 -->
<svg width="323pt" height="66pt"
 viewBox="0.00 0.00 323.00 66.00" xmlns="http://www.w3.org/2000/svg" xmlns:xlink="http://www.w3.org/1999/xlink">
<g id="graph0" class="graph" transform="scale(1 1) rotate(0) translate(4 62)">
<title>chi::GraphModule::addForwardDeclarations</title>
<polygon fill="#ffffff" stroke="transparent" points="-4,4 -4,-62 319,-62 319,4 -4,4"/>
<!-- Node132 -->
<g id="node1" class="node">
<title>Node132</title>
<polygon fill="#bfbfbf" stroke="#000000" points="0,-14 0,-44 149,-44 149,-14 0,-14"/>
<text text-anchor="start" x="8" y="-32" font-family="Helvetica,sans-Serif" font-size="10.00" fill="#000000">chi::GraphModule::addForward</text>
<text text-anchor="middle" x="74.5" y="-21" font-family="Helvetica,sans-Serif" font-size="10.00" fill="#000000">Declarations</text>
</g>
<!-- Node133 -->
<g id="node2" class="node">
<title>Node133</title>
<g id="a_node2"><a xlink:href="structchi_1_1ChiModule.html#a92ab6d528ac41a91b6ac21ededfccc38" target="_top" xlink:title="Get the full name of the module. ">
<polygon fill="#ffffff" stroke="#000000" points="187.5,-38.5 187.5,-57.5 312.5,-57.5 312.5,-38.5 187.5,-38.5"/>
<text text-anchor="middle" x="250" y="-45.5" font-family="Helvetica,sans-Serif" font-size="10.00" fill="#000000">chi::ChiModule::fullName</text>
</a>
</g>
</g>
<!-- Node132&#45;&gt;Node133 -->
<g id="edge1" class="edge">
<title>Node132&#45;&gt;Node133</title>
<path fill="none" stroke="#191970" d="M149.1823,-37.0853C158.5,-38.094 168.0189,-39.1246 177.3058,-40.13"/>
<polygon fill="#191970" stroke="#191970" points="176.9529,-43.6121 187.2716,-41.2089 177.7064,-36.6528 176.9529,-43.6121"/>
</g>
<!-- Node134 -->
<g id="node3" class="node">
<title>Node134</title>
<g id="a_node3"><a xlink:href="namespacechi.html#a44456c5ad1624ffdc805eb161eb948a1" target="_top" xlink:title="Mangle a function name. ">
<polygon fill="#ffffff" stroke="#000000" points="185,-.5 185,-19.5 315,-19.5 315,-.5 185,-.5"/>
<text text-anchor="middle" x="250" y="-7.5" font-family="Helvetica,sans-Serif" font-size="10.00" fill="#000000">chi::mangleFunctionName</text>
</a>
</g>
</g>
<!-- Node132&#45;&gt;Node134 -->
<g id="edge2" class="edge">
<title>Node132&#45;&gt;Node134</title>
<path fill="none" stroke="#191970" d="M149.1823,-20.9147C157.6057,-20.0028 166.1935,-19.0731 174.6257,-18.1602"/>
<polygon fill="#191970" stroke="#191970" points="175.2473,-21.6134 184.8125,-17.0573 174.4939,-14.6541 175.2473,-21.6134"/>
</g>
</g>
</svg>
