<?xml version="1.0" encoding="UTF-8" standalone="no"?>
<!DOCTYPE svg PUBLIC "-//W3C//DTD SVG 1.1//EN"
 "http://www.w3.org/Graphics/SVG/1.1/DTD/svg11.dtd">
<!-- Generated by graphviz version 2.40.1 (20161225.0304)
 -->
<!-- Title: chi::NodeCompiler::compile_stage2 Pages: 1 -->
<!--zoomable 485 -->
<svg id="main" version="1.1" xmlns="http://www.w3.org/2000/svg" xmlns:xlink="http://www.w3.org/1999/xlink" xml:space="preserve" onload="init(evt)">
<style type="text/css"><![CDATA[
.edge:hover path { stroke: red; }
.edge:hover polygon { stroke: red; fill: red; }
]]></style>
<script type="text/javascript"><![CDATA[
var edges = document.getElementsByTagName('g');
if (edges && edges.length) {
  for (var i=0;i<edges.length;i++) {
    if (edges[i].id.substr(0,4)=='edge') {
      edges[i].setAttribute('class','edge');
    }
  }
}
]]></script>
        <defs>
                <circle id="rim" cx="0" cy="0" r="7"/>
                <circle id="rim2" cx="0" cy="0" r="3.5"/>
                <g id="zoomPlus">
                        <use xlink:href="#rim" fill="#404040">
                                <set attributeName="fill" to="#808080" begin="zoomplus.mouseover" end="zoomplus.mouseout"/>
                        </use>
                        <path d="M-4,0h8M0,-4v8" fill="none" stroke="white" stroke-width="1.5" pointer-events="none"/>
                </g>
                <g id="zoomMin">
                        <use xlink:href="#rim" fill="#404040">
                                <set attributeName="fill" to="#808080" begin="zoomminus.mouseover" end="zoomminus.mouseout"/>
                        </use>
                        <path d="M-4,0h8" fill="none" stroke="white" stroke-width="1.5" pointer-events="none"/>
                </g>
                <g id="dirArrow">
                        <path fill="none" stroke="white" stroke-width="1.5" d="M0,-3.0v7 M-2.5,-0.5L0,-3.0L2.5,-0.5"/>
                </g>
               <g id="resetDef">
                       <use xlink:href="#rim2" fill="#404040">
                               <set attributeName="fill" to="#808080" begin="reset.mouseover" end="reset.mouseout"/>
                       </use>
               </g>
        </defs>

<script type="text/javascript">
var viewWidth = 987;
var viewHeight = 485;
var sectionId = 'dynsection-6';
</script>
<script xlink:href="svgpan.js"/>
<svg id="graph" class="graph">
<g id="viewport">
<title>chi::NodeCompiler::compile_stage2</title>
<polygon fill="#ffffff" stroke="transparent" points="-4,4 -4,-480.6773 983,-480.6773 983,4 -4,4"/>
<!-- Node117 -->
<g id="node1" class="node">
<title>Node117</title>
<polygon fill="#bfbfbf" stroke="#000000" points="0,-244.931 0,-274.931 102,-274.931 102,-244.931 0,-244.931"/>
<text text-anchor="start" x="8" y="-262.931" font-family="Helvetica,sans-Serif" font-size="10.00" fill="#000000">chi::NodeCompiler::</text>
<text text-anchor="middle" x="51" y="-251.931" font-family="Helvetica,sans-Serif" font-size="10.00" fill="#000000">compile_stage2</text>
</g>
<!-- Node118 -->
<g id="node2" class="node">
<title>Node118</title>
<g id="a_node2"><a xlink:href="structchi_1_1NodeCompiler.html#a8a595537ffd4b3116059d59e3fd61f8b" target="_top" xlink:title="The node we&#39;re compiling. ">
<polygon fill="#ffffff" stroke="#000000" points="138,-250.431 138,-269.431 261,-269.431 261,-250.431 138,-250.431"/>
<text text-anchor="middle" x="199.5" y="-257.431" font-family="Helvetica,sans-Serif" font-size="10.00" fill="#000000">chi::NodeCompiler::node</text>
</a>
</g>
</g>
<!-- Node117&#45;&gt;Node118 -->
<g id="edge1" class="edge">
<title>Node117&#45;&gt;Node118</title>
<path fill="none" stroke="#191970" d="M112.2483,-253.2739C120.6828,-253.1523 129.3482,-253.1501 137.7909,-253.2673"/>
<polygon fill="#191970" stroke="#191970" points="112.0316,-249.7775 102.1053,-253.4814 112.1748,-256.776 112.0316,-249.7775"/>
</g>
<!-- Node118&#45;&gt;Node117 -->
<g id="edge28" class="edge">
<title>Node118&#45;&gt;Node117</title>
<path fill="none" stroke="#191970" d="M127.6945,-266.6778C119.0527,-266.7008 110.3666,-266.6017 102.1053,-266.3807"/>
<polygon fill="#191970" stroke="#191970" points="127.8201,-270.1769 137.7909,-266.5947 127.7624,-263.1772 127.8201,-270.1769"/>
</g>
<!-- Node119 -->
<g id="node3" class="node">
<title>Node119</title>
<g id="a_node3"><a xlink:href="structchi_1_1NodeCompiler.html#a60d81f093668468eb14be0e18e319ed5" target="_top" xlink:title="Constructor. ">
<polygon fill="#ffffff" stroke="#000000" points="306.5,-227.931 306.5,-257.931 408.5,-257.931 408.5,-227.931 306.5,-227.931"/>
<text text-anchor="start" x="314.5" y="-245.931" font-family="Helvetica,sans-Serif" font-size="10.00" fill="#000000">chi::NodeCompiler::</text>
<text text-anchor="middle" x="357.5" y="-234.931" font-family="Helvetica,sans-Serif" font-size="10.00" fill="#000000">NodeCompiler</text>
</a>
</g>
</g>
<!-- Node118&#45;&gt;Node119 -->
<g id="edge2" class="edge">
<title>Node118&#45;&gt;Node119</title>
<path fill="none" stroke="#191970" d="M271.337,-252.2017C283.1487,-250.9308 295.1758,-249.6368 306.3503,-248.4345"/>
<polygon fill="#191970" stroke="#191970" points="270.6075,-248.7599 261.0393,-253.3097 271.3564,-255.7197 270.6075,-248.7599"/>
</g>
<!-- Node120 -->
<g id="node4" class="node">
<title>Node120</title>
<g id="a_node4"><a xlink:href="structchi_1_1NodeCompiler.html#aa31a7c7955b51e5610b966f81bdc989d" target="_top" xlink:title="node().type().pure() ">
<polygon fill="#ffffff" stroke="#000000" points="297,-383.431 297,-402.431 418,-402.431 418,-383.431 297,-383.431"/>
<text text-anchor="middle" x="357.5" y="-390.431" font-family="Helvetica,sans-Serif" font-size="10.00" fill="#000000">chi::NodeCompiler::pure</text>
</a>
</g>
</g>
<!-- Node118&#45;&gt;Node120 -->
<g id="edge3" class="edge">
<title>Node118&#45;&gt;Node120</title>
<path fill="none" stroke="#191970" d="M214.6297,-278.056C231.6205,-301.5579 261.5106,-341.4875 297,-364.931 310.779,-374.0331 329.1817,-378.9918 342.0592,-383.3482"/>
<polygon fill="#191970" stroke="#191970" points="217.2503,-275.7061 208.5624,-269.6422 211.5726,-279.8004 217.2503,-275.7061"/>
</g>
<!-- Node122 -->
<g id="node6" class="node">
<title>Node122</title>
<g id="a_node6"><a xlink:href="structchi_1_1NodeCompiler.html#af391b4e8ecebe8859490749bac0425de" target="_top" xlink:title="Add the basic blocks and fill the pure blocks, but don&#39;t fill the code block nop if its already been ...">
<polygon fill="#ffffff" stroke="#000000" points="872.5,-280.931 872.5,-310.931 974.5,-310.931 974.5,-280.931 872.5,-280.931"/>
<text text-anchor="start" x="880.5" y="-298.931" font-family="Helvetica,sans-Serif" font-size="10.00" fill="#000000">chi::NodeCompiler::</text>
<text text-anchor="middle" x="923.5" y="-287.931" font-family="Helvetica,sans-Serif" font-size="10.00" fill="#000000">compile_stage1</text>
</a>
</g>
</g>
<!-- Node118&#45;&gt;Node122 -->
<g id="edge27" class="edge">
<title>Node118&#45;&gt;Node122</title>
<path fill="none" stroke="#191970" d="M271.2961,-266.0431C333.028,-274.4698 424.5637,-286.931 505,-286.931 505,-286.931 505,-286.931 643,-286.931 723.1081,-286.931 816.0851,-286.931 872.3153,-289.3189"/>
<polygon fill="#191970" stroke="#191970" points="271.6515,-262.5593 261.2703,-264.6761 270.7058,-269.4951 271.6515,-262.5593"/>
</g>
<!-- Node123 -->
<g id="node7" class="node">
<title>Node123</title>
<g id="a_node7"><a xlink:href="structchi_1_1NodeCompiler.html#a4599a3322541fe67adfa343c19b00dc4" target="_top" xlink:title="The number of input execs that we can compile If it&#39;s pure or an entry node, this is 1...">
<polygon fill="#ffffff" stroke="#000000" points="454,-95.931 454,-125.931 556,-125.931 556,-95.931 454,-95.931"/>
<text text-anchor="start" x="462" y="-113.931" font-family="Helvetica,sans-Serif" font-size="10.00" fill="#000000">chi::NodeCompiler::</text>
<text text-anchor="middle" x="505" y="-102.931" font-family="Helvetica,sans-Serif" font-size="10.00" fill="#000000">inputExecs</text>
</a>
</g>
</g>
<!-- Node118&#45;&gt;Node123 -->
<g id="edge33" class="edge">
<title>Node118&#45;&gt;Node123</title>
<path fill="none" stroke="#191970" d="M211.6707,-242.56C229.3002,-223.4589 263.5098,-194.1725 297,-175.931 347.6572,-148.339 410.6406,-127.6136 453.9494,-117.0461"/>
<polygon fill="#191970" stroke="#191970" points="208.8731,-240.4446 204.9894,-250.302 214.1726,-245.0181 208.8731,-240.4446"/>
</g>
<!-- Node128 -->
<g id="node12" class="node">
<title>Node128</title>
<g id="a_node12"><a xlink:href="structchi_1_1NodeCompiler.html#a7b0bd7aecf8cfc98804b31b21066b6d1" target="_top" xlink:title="Just node().context() ">
<polygon fill="#ffffff" stroke="#000000" points="306.5,-333.931 306.5,-363.931 408.5,-363.931 408.5,-333.931 306.5,-333.931"/>
<text text-anchor="start" x="314.5" y="-351.931" font-family="Helvetica,sans-Serif" font-size="10.00" fill="#000000">chi::NodeCompiler::</text>
<text text-anchor="middle" x="357.5" y="-340.931" font-family="Helvetica,sans-Serif" font-size="10.00" fill="#000000">context</text>
</a>
</g>
</g>
<!-- Node118&#45;&gt;Node128 -->
<g id="edge29" class="edge">
<title>Node118&#45;&gt;Node128</title>
<path fill="none" stroke="#191970" d="M235.3022,-274.5037C253.555,-284.8767 276.2308,-298.5238 297,-309.931 311.6946,-318.0019 328.8502,-326.4169 341.1323,-333.8419"/>
<polygon fill="#191970" stroke="#191970" points="236.8955,-271.3845 226.4601,-269.5531 233.4758,-277.4924 236.8955,-271.3845"/>
</g>
<!-- Node120&#45;&gt;Node117 -->
<g id="edge10" class="edge">
<title>Node120&#45;&gt;Node117</title>
<path fill="none" stroke="#191970" d="M316.8047,-380.3612C310.1731,-378.2524 303.3863,-376.0578 297,-373.931 225.9164,-350.259 205.0229,-351.4149 138,-317.931 113.4789,-305.6805 87.6163,-287.7027 70.5261,-275.0161"/>
<polygon fill="#191970" stroke="#191970" points="315.7554,-383.7001 326.3451,-383.3715 317.8618,-377.0246 315.7554,-383.7001"/>
</g>
<!-- Node120&#45;&gt;Node118 -->
<g id="edge4" class="edge">
<title>Node120&#45;&gt;Node118</title>
<path fill="none" stroke="#191970" d="M289.1602,-377.383C246.358,-345.3852 213.2857,-292.2865 202.9108,-269.7277"/>
<polygon fill="#191970" stroke="#191970" points="287.3621,-380.3975 297.5536,-383.2929 291.3921,-374.6739 287.3621,-380.3975"/>
</g>
<!-- Node121 -->
<g id="node5" class="node">
<title>Node121</title>
<g id="a_node5"><a xlink:href="structchi_1_1NodeCompiler.html#a7dc06ad0390f2113fbeb5e7c0cf3dd06" target="_top" xlink:title="Get the IndirectBrInst* for the pure. ">
<polygon fill="#ffffff" stroke="#000000" points="730,-409.931 730,-439.931 832,-439.931 832,-409.931 730,-409.931"/>
<text text-anchor="start" x="738" y="-427.931" font-family="Helvetica,sans-Serif" font-size="10.00" fill="#000000">chi::NodeCompiler::</text>
<text text-anchor="middle" x="781" y="-416.931" font-family="Helvetica,sans-Serif" font-size="10.00" fill="#000000">jumpBackInst</text>
</a>
</g>
</g>
<!-- Node120&#45;&gt;Node121 -->
<g id="edge5" class="edge">
<title>Node120&#45;&gt;Node121</title>
<path fill="none" stroke="#191970" d="M428.2796,-398.2792C513.4527,-404.7149 654.3839,-415.3638 729.7381,-421.0576"/>
<polygon fill="#191970" stroke="#191970" points="428.4125,-394.7793 418.1772,-397.5158 427.8851,-401.7594 428.4125,-394.7793"/>
</g>
<!-- Node120&#45;&gt;Node122 -->
<g id="edge9" class="edge">
<title>Node120&#45;&gt;Node122</title>
<path fill="none" stroke="#191970" d="M428.559,-392.3873C522.6219,-390.008 692.818,-379.9132 832,-339.931 855.3793,-333.215 880.1416,-320.9538 898.0021,-311.0774"/>
<polygon fill="#191970" stroke="#191970" points="428.2238,-388.894 418.3071,-392.6236 428.3851,-395.8922 428.2238,-388.894"/>
</g>
<!-- Node120&#45;&gt;Node123 -->
<g id="edge11" class="edge">
<title>Node120&#45;&gt;Node123</title>
<path fill="none" stroke="#191970" d="M413.2845,-377.9542C414.9496,-376.7178 416.5293,-375.3795 418,-373.931 454.8337,-337.6519 491.1627,-176.8066 501.8545,-126.2164"/>
<polygon fill="#191970" stroke="#191970" points="411.1225,-375.1703 404.3595,-383.3259 414.7323,-381.1678 411.1225,-375.1703"/>
</g>
<!-- Node121&#45;&gt;Node122 -->
<g id="edge6" class="edge">
<title>Node121&#45;&gt;Node122</title>
<path fill="none" stroke="#191970" d="M818.8361,-404.3847C823.4095,-401.4093 827.9055,-398.2301 832,-394.931 864.2572,-368.9399 895.6496,-331.5634 911.9528,-310.9702"/>
<polygon fill="#191970" stroke="#191970" points="816.6931,-401.5948 810.0312,-409.8331 820.3765,-407.5473 816.6931,-401.5948"/>
</g>
<!-- Node122&#45;&gt;Node117 -->
<g id="edge7" class="edge">
<title>Node122&#45;&gt;Node117</title>
<path fill="none" stroke="#191970" d="M916.4701,-320.967C905.1016,-356.3307 879.0582,-419.9379 832,-449.931 760.8074,-495.3064 727.4234,-468.931 643,-468.931 357.5,-468.931 357.5,-468.931 357.5,-468.931 219.6721,-468.931 98.0956,-322.8836 61.9132,-274.9618"/>
<polygon fill="#191970" stroke="#191970" points="919.9508,-321.554 919.5342,-310.9673 913.258,-319.5031 919.9508,-321.554"/>
</g>
<!-- Node122&#45;&gt;Node118 -->
<g id="edge8" class="edge">
<title>Node122&#45;&gt;Node118</title>
<path fill="none" stroke="#191970" d="M862.0625,-302.9387C805.2335,-304.931 718.4142,-304.931 643,-304.931 505,-304.931 505,-304.931 505,-304.931 399.2578,-304.931 274.3337,-283.3956 223.1554,-269.4733"/>
<polygon fill="#191970" stroke="#191970" points="862.4577,-306.4262 872.3153,-302.5431 862.1877,-299.4314 862.4577,-306.4262"/>
</g>
<!-- Node123&#45;&gt;Node117 -->
<g id="edge14" class="edge">
<title>Node123&#45;&gt;Node117</title>
<path fill="none" stroke="#191970" d="M457.723,-92.4618C383.5798,-66.7726 238.1001,-29.8765 138,-90.931 81.2316,-125.556 59.929,-210.3761 53.4316,-244.9217"/>
<polygon fill="#191970" stroke="#191970" points="456.6729,-95.8029 467.2677,-95.8443 459.0112,-89.2049 456.6729,-95.8029"/>
</g>
<!-- Node123&#45;&gt;Node118 -->
<g id="edge12" class="edge">
<title>Node123&#45;&gt;Node118</title>
<path fill="none" stroke="#191970" d="M460.801,-129.137C417.4919,-143.3911 350.3979,-164.8462 297,-193.931 266.8057,-210.3773 236.0267,-235.8015 217.3409,-250.1674"/>
<polygon fill="#191970" stroke="#191970" points="462.077,-132.4015 470.471,-125.9369 459.8777,-125.7559 462.077,-132.4015"/>
</g>
<!-- Node123&#45;&gt;Node122 -->
<g id="edge13" class="edge">
<title>Node123&#45;&gt;Node122</title>
<path fill="none" stroke="#191970" d="M566.3066,-126.1203C634.0077,-144.3588 744.9428,-178.6451 832,-226.931 860.0122,-242.4679 888.9806,-265.7534 906.6231,-280.896"/>
<polygon fill="#191970" stroke="#191970" points="566.795,-122.6285 556.2312,-123.4387 564.9945,-129.393 566.795,-122.6285"/>
</g>
<!-- Node124 -->
<g id="node8" class="node">
<title>Node124</title>
<g id="a_node8"><a xlink:href="structchi_1_1NodeCompiler.html#a12c42cfcd23400c523184966ed238806" target="_top" xlink:title="Get the first block to jump to for the node If there are dependent pures, it&#39;s the first pure block O...">
<polygon fill="#ffffff" stroke="#000000" points="730,-95.931 730,-125.931 832,-125.931 832,-95.931 730,-95.931"/>
<text text-anchor="start" x="738" y="-113.931" font-family="Helvetica,sans-Serif" font-size="10.00" fill="#000000">chi::NodeCompiler::</text>
<text text-anchor="middle" x="781" y="-102.931" font-family="Helvetica,sans-Serif" font-size="10.00" fill="#000000">firstBlock</text>
</a>
</g>
</g>
<!-- Node123&#45;&gt;Node124 -->
<g id="edge15" class="edge">
<title>Node123&#45;&gt;Node124</title>
<path fill="none" stroke="#191970" d="M566.4272,-110.931C615.4526,-110.931 683.3434,-110.931 729.5404,-110.931"/>
<polygon fill="#191970" stroke="#191970" points="566.2667,-107.4311 556.2667,-110.931 566.2666,-114.4311 566.2667,-107.4311"/>
</g>
<!-- Node126 -->
<g id="node10" class="node">
<title>Node126</title>
<g id="a_node10"><a xlink:href="structchi_1_1NodeCompiler.html#ac63b5729c1bdb67a231a1f948ad59374" target="_top" xlink:title="Get the code block for a given inputExecID Requires that compile_stage1 has been called for this ID...">
<polygon fill="#ffffff" stroke="#000000" points="592,-183.931 592,-213.931 694,-213.931 694,-183.931 592,-183.931"/>
<text text-anchor="start" x="600" y="-201.931" font-family="Helvetica,sans-Serif" font-size="10.00" fill="#000000">chi::NodeCompiler::</text>
<text text-anchor="middle" x="643" y="-190.931" font-family="Helvetica,sans-Serif" font-size="10.00" fill="#000000">codeBlock</text>
</a>
</g>
</g>
<!-- Node123&#45;&gt;Node126 -->
<g id="edge19" class="edge">
<title>Node123&#45;&gt;Node126</title>
<path fill="none" stroke="#191970" d="M540.7545,-131.1673C545.9371,-134.3291 551.1542,-137.6415 556,-140.931 572.7707,-152.3156 575.2293,-157.5464 592,-168.931 599.5642,-174.0659 608.0331,-179.2564 615.8633,-183.8432"/>
<polygon fill="#191970" stroke="#191970" points="542.5165,-128.1429 532.1367,-126.0188 538.9264,-134.1522 542.5165,-128.1429"/>
</g>
<!-- Node127 -->
<g id="node11" class="node">
<title>Node127</title>
<g id="a_node11"><a xlink:href="structchi_1_1NodeCompiler.html#ab3db1222a66ea1767cd6dbc8a8a10963" target="_top" xlink:title="Get if compile_stage2 has been called for a given inputExecID. ">
<polygon fill="#ffffff" stroke="#000000" points="592,-51.931 592,-81.931 694,-81.931 694,-51.931 592,-51.931"/>
<text text-anchor="start" x="600" y="-69.931" font-family="Helvetica,sans-Serif" font-size="10.00" fill="#000000">chi::NodeCompiler::</text>
<text text-anchor="middle" x="643" y="-58.931" font-family="Helvetica,sans-Serif" font-size="10.00" fill="#000000">compiled</text>
</a>
</g>
</g>
<!-- Node123&#45;&gt;Node127 -->
<g id="edge24" class="edge">
<title>Node123&#45;&gt;Node127</title>
<path fill="none" stroke="#191970" d="M561.8355,-92.8096C573.073,-89.2266 584.755,-85.5019 595.638,-82.032"/>
<polygon fill="#191970" stroke="#191970" points="560.57,-89.5394 552.1058,-95.9118 562.6965,-96.2086 560.57,-89.5394"/>
</g>
<!-- Node124&#45;&gt;Node118 -->
<g id="edge16" class="edge">
<title>Node124&#45;&gt;Node118</title>
<path fill="none" stroke="#191970" d="M760.7931,-88.2384C744.5914,-71.8627 720.2828,-51.0883 694,-41.931 526.6571,16.3735 443.1838,21.2357 297,-78.931 233.9904,-122.1058 208.1928,-219.579 201.424,-250.4003"/>
<polygon fill="#191970" stroke="#191970" points="758.63,-91.0409 768.0685,-95.8538 763.6914,-86.2054 758.63,-91.0409"/>
</g>
<!-- Node124&#45;&gt;Node122 -->
<g id="edge18" class="edge">
<title>Node124&#45;&gt;Node122</title>
<path fill="none" stroke="#191970" d="M820.8205,-131.5752C824.8158,-134.4426 828.6334,-137.5696 832,-140.931 874.8997,-183.7643 905.3262,-250.6918 917.5477,-280.5974"/>
<polygon fill="#191970" stroke="#191970" points="822.7331,-128.644 812.4577,-126.062 818.8802,-134.4882 822.7331,-128.644"/>
</g>
<!-- Node125 -->
<g id="node9" class="node">
<title>Node125</title>
<g id="a_node9"><a xlink:href="structchi_1_1FunctionCompiler.html#ad5d91d8dbaa379a0b90107f37427dec8" target="_top" xlink:title="Generates the contents of the function. ">
<polygon fill="#ffffff" stroke="#000000" points="868,-95.931 868,-125.931 979,-125.931 979,-95.931 868,-95.931"/>
<text text-anchor="start" x="876" y="-113.931" font-family="Helvetica,sans-Serif" font-size="10.00" fill="#000000">chi::FunctionCompiler</text>
<text text-anchor="middle" x="923.5" y="-102.931" font-family="Helvetica,sans-Serif" font-size="10.00" fill="#000000">::compile</text>
</a>
</g>
</g>
<!-- Node124&#45;&gt;Node125 -->
<g id="edge17" class="edge">
<title>Node124&#45;&gt;Node125</title>
<path fill="none" stroke="#191970" d="M842.318,-110.931C850.8478,-110.931 859.5713,-110.931 867.9866,-110.931"/>
<polygon fill="#191970" stroke="#191970" points="842.0433,-107.4311 832.0433,-110.931 842.0432,-114.4311 842.0433,-107.4311"/>
</g>
<!-- Node126&#45;&gt;Node117 -->
<g id="edge21" class="edge">
<title>Node126&#45;&gt;Node117</title>
<path fill="none" stroke="#191970" d="M581.8843,-193.3913C573.202,-192.7858 564.3795,-192.2676 556,-191.931 440.9679,-187.3108 410.9985,-179.8666 297,-195.931 225.5533,-205.9991 145.0248,-229.3125 96.1583,-244.8456"/>
<polygon fill="#191970" stroke="#191970" points="581.7467,-196.8906 591.9773,-194.1367 582.2623,-189.9096 581.7467,-196.8906"/>
</g>
<!-- Node126&#45;&gt;Node118 -->
<g id="edge23" class="edge">
<title>Node126&#45;&gt;Node118</title>
<path fill="none" stroke="#191970" d="M581.3974,-195.8704C511.4786,-193.8726 394.4839,-195.0233 297,-217.931 267.3956,-224.8878 235.4496,-240.3245 216.4788,-250.42"/>
<polygon fill="#191970" stroke="#191970" points="581.6779,-199.381 591.784,-196.2005 581.9002,-192.3846 581.6779,-199.381"/>
</g>
<!-- Node126&#45;&gt;Node122 -->
<g id="edge20" class="edge">
<title>Node126&#45;&gt;Node122</title>
<path fill="none" stroke="#191970" d="M696.1219,-217.3012C749.3454,-235.7064 830.2907,-263.6982 879.8775,-280.8459"/>
<polygon fill="#191970" stroke="#191970" points="697.1151,-213.9413 686.5204,-213.9808 694.8273,-220.5569 697.1151,-213.9413"/>
</g>
<!-- Node126&#45;&gt;Node124 -->
<g id="edge22" class="edge">
<title>Node126&#45;&gt;Node124</title>
<path fill="none" stroke="#191970" d="M675.1711,-178.4161C700.2322,-162.4351 734.462,-140.6074 757.1247,-126.1558"/>
<polygon fill="#191970" stroke="#191970" points="673.2728,-175.4755 666.723,-183.8033 677.0365,-181.3776 673.2728,-175.4755"/>
</g>
<!-- Node127&#45;&gt;Node117 -->
<g id="edge26" class="edge">
<title>Node127&#45;&gt;Node117</title>
<path fill="none" stroke="#191970" d="M593.5758,-48.678C496.9183,-16.3835 279.9314,39.0187 138,-54.931 71.4254,-98.9992 55.6462,-205.3602 52.0331,-244.8443"/>
<polygon fill="#191970" stroke="#191970" points="592.5063,-52.0111 603.1008,-51.9165 594.7597,-45.3837 592.5063,-52.0111"/>
</g>
<!-- Node127&#45;&gt;Node118 -->
<g id="edge25" class="edge">
<title>Node127&#45;&gt;Node118</title>
<path fill="none" stroke="#191970" d="M581.7,-64.2989C507.795,-64.1333 382.84,-73.7674 297,-132.931 250.3099,-165.1113 216.1187,-226.6505 204.1549,-250.323"/>
<polygon fill="#191970" stroke="#191970" points="581.7512,-67.7994 591.7801,-64.3832 581.8098,-60.7996 581.7512,-67.7994"/>
</g>
<!-- Node128&#45;&gt;Node117 -->
<g id="edge32" class="edge">
<title>Node128&#45;&gt;Node117</title>
<path fill="none" stroke="#191970" d="M296.3493,-331.1744C239.4943,-314.6651 155.7551,-290.3493 102.3012,-274.8276"/>
<polygon fill="#191970" stroke="#191970" points="295.7078,-334.6326 306.2871,-334.0601 297.6598,-327.9103 295.7078,-334.6326"/>
</g>
<!-- Node128&#45;&gt;Node118 -->
<g id="edge30" class="edge">
<title>Node128&#45;&gt;Node118</title>
<path fill="none" stroke="#191970" d="M299.0379,-329.0439C298.3539,-328.6725 297.6744,-328.3014 297,-327.931 262.6638,-309.0722 223.1164,-284.0915 206.9589,-269.5761"/>
<polygon fill="#191970" stroke="#191970" points="297.6488,-332.2687 308.1245,-333.8535 300.9236,-326.0819 297.6488,-332.2687"/>
</g>
<!-- Node128&#45;&gt;Node122 -->
<g id="edge31" class="edge">
<title>Node128&#45;&gt;Node122</title>
<path fill="none" stroke="#191970" d="M418.858,-348.6283C509.6645,-347.3741 684.9514,-341.863 832,-318.931 845.109,-316.8867 859.0828,-313.8334 872.0618,-310.6144"/>
<polygon fill="#191970" stroke="#191970" points="418.6973,-345.1299 408.742,-348.7551 418.7851,-352.1294 418.6973,-345.1299"/>
</g>
</g>
</svg>
        <g id="navigator" transform="translate(0 0)" fill="#404254">
                <rect fill="#f2f5e9" fill-opacity="0.5" stroke="#606060" stroke-width=".5" x="0" y="0" width="60" height="60"/>
                <use id="zoomplus" xlink:href="#zoomPlus" x="17" y="9" onmousedown="handleZoom(evt,'in')"/>
                <use id="zoomminus" xlink:href="#zoomMin" x="42" y="9" onmousedown="handleZoom(evt,'out')"/>
                <use id="reset" xlink:href="#resetDef" x="30" y="36" onmousedown="handleReset()"/>
                <g id="arrowUp" xlink:href="#dirArrow" transform="translate(30 24)" onmousedown="handlePan(0,-1)">
                  <use xlink:href="#rim" fill="#404040">
                        <set attributeName="fill" to="#808080" begin="arrowUp.mouseover" end="arrowUp.mouseout"/>
                  </use>
                  <path fill="none" stroke="white" stroke-width="1.5" d="M0,-3.0v7 M-2.5,-0.5L0,-3.0L2.5,-0.5"/>
                </g>
                <g id="arrowRight" xlink:href="#dirArrow" transform="rotate(90) translate(36 -43)" onmousedown="handlePan(1,0)">
                  <use xlink:href="#rim" fill="#404040">
                        <set attributeName="fill" to="#808080" begin="arrowRight.mouseover" end="arrowRight.mouseout"/>
                  </use>
                  <path fill="none" stroke="white" stroke-width="1.5" d="M0,-3.0v7 M-2.5,-0.5L0,-3.0L2.5,-0.5"/>
                </g>
                <g id="arrowDown" xlink:href="#dirArrow" transform="rotate(180) translate(-30 -48)" onmousedown="handlePan(0,1)">
                  <use xlink:href="#rim" fill="#404040">
                        <set attributeName="fill" to="#808080" begin="arrowDown.mouseover" end="arrowDown.mouseout"/>
                  </use>
                  <path fill="none" stroke="white" stroke-width="1.5" d="M0,-3.0v7 M-2.5,-0.5L0,-3.0L2.5,-0.5"/>
                </g>
                <g id="arrowLeft" xlink:href="#dirArrow" transform="rotate(270) translate(-36 17)" onmousedown="handlePan(-1,0)">
                  <use xlink:href="#rim" fill="#404040">
                        <set attributeName="fill" to="#808080" begin="arrowLeft.mouseover" end="arrowLeft.mouseout"/>
                  </use>
                  <path fill="none" stroke="white" stroke-width="1.5" d="M0,-3.0v7 M-2.5,-0.5L0,-3.0L2.5,-0.5"/>
                </g>
        </g>
        <svg viewBox="0 0 15 15" width="100%" height="30px" preserveAspectRatio="xMaxYMin meet">
         <g id="arrow_out" transform="scale(0.3 0.3)">
          <a xlink:href="structchi_1_1NodeCompiler_ac3f5bd1f1f84fc1b35fc8ad54db3c844_icgraph_org.svg" target="_base">
           <rect id="button" ry="5" rx="5" y="6" x="6" height="38" width="38"
                fill="#f2f5e9" fill-opacity="0.5" stroke="#606060" stroke-width="1.0"/>
           <path id="arrow"
             d="M 11.500037,31.436501 C 11.940474,20.09759 22.043105,11.32322 32.158766,21.979434 L 37.068811,17.246167 C 37.068811,17.246167 37.088388,32 37.088388,32 L 22.160133,31.978069 C 22.160133,31.978069 26.997745,27.140456 26.997745,27.140456 C 18.528582,18.264221 13.291696,25.230495 11.500037,31.436501 z"
             style="fill:#404040;"/>
          </a>
         </g>
        </svg>
</svg>
