<?xml version="1.0" encoding="UTF-8" standalone="no"?>
<!DOCTYPE svg PUBLIC "-//W3C//DTD SVG 1.1//EN"
 "http://www.w3.org/Graphics/SVG/1.1/DTD/svg11.dtd">
<!-- Generated by graphviz version 2.40.1 (20161225.0304)
 -->
<!-- Title: chig::GraphFunction::dataOutputs Pages: 1 -->
<!--zoomable 227 -->
<svg id="main" version="1.1" xmlns="http://www.w3.org/2000/svg" xmlns:xlink="http://www.w3.org/1999/xlink" xml:space="preserve" onload="init(evt)">
<style type="text/css"><![CDATA[
.edge:hover path { stroke: red; }
.edge:hover polygon { stroke: red; fill: red; }
]]></style>
<script type="text/javascript"><![CDATA[
var edges = document.getElementsByTagName('g');
if (edges && edges.length) {
  for (var i=0;i<edges.length;i++) {
    if (edges[i].id.substr(0,4)=='edge') {
      edges[i].setAttribute('class','edge');
    }
  }
}
]]></script>
        <defs>
                <circle id="rim" cx="0" cy="0" r="7"/>
                <circle id="rim2" cx="0" cy="0" r="3.5"/>
                <g id="zoomPlus">
                        <use xlink:href="#rim" fill="#404040">
                                <set attributeName="fill" to="#808080" begin="zoomplus.mouseover" end="zoomplus.mouseout"/>
                        </use>
                        <path d="M-4,0h8M0,-4v8" fill="none" stroke="white" stroke-width="1.5" pointer-events="none"/>
                </g>
                <g id="zoomMin">
                        <use xlink:href="#rim" fill="#404040">
                                <set attributeName="fill" to="#808080" begin="zoomminus.mouseover" end="zoomminus.mouseout"/>
                        </use>
                        <path d="M-4,0h8" fill="none" stroke="white" stroke-width="1.5" pointer-events="none"/>
                </g>
                <g id="dirArrow">
                        <path fill="none" stroke="white" stroke-width="1.5" d="M0,-3.0v7 M-2.5,-0.5L0,-3.0L2.5,-0.5"/>
                </g>
               <g id="resetDef">
                       <use xlink:href="#rim2" fill="#404040">
                               <set attributeName="fill" to="#808080" begin="reset.mouseover" end="reset.mouseout"/>
                       </use>
               </g>
        </defs>

<script type="text/javascript">
var viewWidth = 819;
var viewHeight = 227;
var sectionId = 'dynsection-14';
</script>
<script xlink:href="svgpan.js"/>
<svg id="graph" class="graph">
<g id="viewport">
<title>chig::GraphFunction::dataOutputs</title>
<polygon fill="#ffffff" stroke="transparent" points="-4,4 -4,-223 815,-223 815,4 -4,4"/>
<!-- Node169 -->
<g id="node1" class="node">
<title>Node169</title>
<polygon fill="#bfbfbf" stroke="#000000" points="0,-84.5 0,-114.5 113,-114.5 113,-84.5 0,-84.5"/>
<text text-anchor="start" x="8" y="-102.5" font-family="Helvetica,sans-Serif" font-size="10.00" fill="#000000">chig::GraphFunction</text>
<text text-anchor="middle" x="56.5" y="-91.5" font-family="Helvetica,sans-Serif" font-size="10.00" fill="#000000">::dataOutputs</text>
</g>
<!-- Node170 -->
<g id="node2" class="node">
<title>Node170</title>
<g id="a_node2"><a xlink:href="namespacechig.html#a4f26546c4bc76c31cc822d0365be0f30" target="_top" xlink:title="Compile the graph to an llvm::Function (usually called from JsonModule::generateModule) ...">
<polygon fill="#ffffff" stroke="#000000" points="307,-159 307,-178 430,-178 430,-159 307,-159"/>
<text text-anchor="middle" x="368.5" y="-166" font-family="Helvetica,sans-Serif" font-size="10.00" fill="#000000">chig::compileFunction</text>
</a>
</g>
</g>
<!-- Node169&#45;&gt;Node170 -->
<g id="edge1" class="edge">
<title>Node169&#45;&gt;Node170</title>
<path fill="none" stroke="#191970" d="M86.7745,-119.9734C104.2018,-130.6802 126.9599,-142.9002 149,-149.5 200.666,-164.9712 262.0062,-169.1637 306.6905,-169.8084"/>
<polygon fill="#191970" stroke="#191970" points="88.5041,-116.9263 78.1791,-114.5502 84.7688,-122.8464 88.5041,-116.9263"/>
</g>
<!-- Node173 -->
<g id="node5" class="node">
<title>Node173</title>
<g id="a_node5"><a xlink:href="structchig_1_1GraphFunction.html#ac7c52122fef0c74d9d0ee04af9a741c4" target="_top" xlink:title="Create a fresh NodeType for an exit. ">
<polygon fill="#ffffff" stroke="#000000" points="149,-60.5 149,-90.5 271,-90.5 271,-60.5 149,-60.5"/>
<text text-anchor="start" x="157" y="-78.5" font-family="Helvetica,sans-Serif" font-size="10.00" fill="#000000">chig::GraphFunction</text>
<text text-anchor="middle" x="210" y="-67.5" font-family="Helvetica,sans-Serif" font-size="10.00" fill="#000000">::createExitNodeType</text>
</a>
</g>
</g>
<!-- Node169&#45;&gt;Node173 -->
<g id="edge4" class="edge">
<title>Node169&#45;&gt;Node173</title>
<path fill="none" stroke="#191970" d="M123.1518,-89.0789C131.6995,-87.7424 140.4172,-86.3794 148.871,-85.0576"/>
<polygon fill="#191970" stroke="#191970" points="122.5609,-85.6287 113.2216,-90.6315 123.6423,-92.5446 122.5609,-85.6287"/>
</g>
<!-- Node179 -->
<g id="node11" class="node">
<title>Node179</title>
<g id="a_node11"><a xlink:href="structchig_1_1GraphFunction.html#a5a8768d5514a31104f0b3a9b5553099c" target="_top" xlink:title="Serialize the GraphFunction to JSON (usually called from JsonModule::toJson) ">
<polygon fill="#ffffff" stroke="#000000" points="674,-.5 674,-30.5 787,-30.5 787,-.5 674,-.5"/>
<text text-anchor="start" x="682" y="-18.5" font-family="Helvetica,sans-Serif" font-size="10.00" fill="#000000">chig::GraphFunction</text>
<text text-anchor="middle" x="730.5" y="-7.5" font-family="Helvetica,sans-Serif" font-size="10.00" fill="#000000">::toJSON</text>
</a>
</g>
</g>
<!-- Node169&#45;&gt;Node179 -->
<g id="edge16" class="edge">
<title>Node169&#45;&gt;Node179</title>
<path fill="none" stroke="#191970" d="M88.8738,-79.0354C106.0901,-69.1159 127.9929,-57.9749 149,-51.5 334.1054,5.5543 567.6681,-2.6053 673.6113,-10.3388"/>
<polygon fill="#191970" stroke="#191970" points="86.6543,-76.2815 79.8268,-84.3831 90.2163,-82.3075 86.6543,-76.2815"/>
</g>
<!-- Node180 -->
<g id="node12" class="node">
<title>Node180</title>
<g id="a_node12"><a xlink:href="structchig_1_1GraphFunction.html#a6aae3374651aca2f0973c81ecae2d848" target="_top" xlink:title="Get the LLVM function type for the function. ">
<polygon fill="#ffffff" stroke="#000000" points="153.5,-109.5 153.5,-139.5 266.5,-139.5 266.5,-109.5 153.5,-109.5"/>
<text text-anchor="start" x="161.5" y="-127.5" font-family="Helvetica,sans-Serif" font-size="10.00" fill="#000000">chig::GraphFunction</text>
<text text-anchor="middle" x="210" y="-116.5" font-family="Helvetica,sans-Serif" font-size="10.00" fill="#000000">::functionType</text>
</a>
</g>
</g>
<!-- Node169&#45;&gt;Node180 -->
<g id="edge13" class="edge">
<title>Node169&#45;&gt;Node180</title>
<path fill="none" stroke="#191970" d="M123.1518,-110.3553C133.186,-111.9896 143.4547,-113.662 153.2554,-115.2582"/>
<polygon fill="#191970" stroke="#191970" points="123.6542,-106.8911 113.2216,-108.738 122.5289,-113.8001 123.6542,-106.8911"/>
</g>
<!-- Node171 -->
<g id="node3" class="node">
<title>Node171</title>
<g id="a_node3"><a xlink:href="structchig_1_1JsonModule.html#a073e960b2d6f07ffaa983a61f8b0f635" target="_top" xlink:title="Generate a llvm::Module from the module. ">
<polygon fill="#ffffff" stroke="#000000" points="466,-188.5 466,-218.5 614,-218.5 614,-188.5 466,-188.5"/>
<text text-anchor="start" x="474" y="-206.5" font-family="Helvetica,sans-Serif" font-size="10.00" fill="#000000">chig::JsonModule::generate</text>
<text text-anchor="middle" x="540" y="-195.5" font-family="Helvetica,sans-Serif" font-size="10.00" fill="#000000">Module</text>
</a>
</g>
</g>
<!-- Node170&#45;&gt;Node171 -->
<g id="edge2" class="edge">
<title>Node170&#45;&gt;Node171</title>
<path fill="none" stroke="#191970" d="M425.2235,-180.0762C438.4145,-182.7683 452.6445,-185.6724 466.4444,-188.4887"/>
<polygon fill="#191970" stroke="#191970" points="425.8611,-176.6343 415.3631,-178.0639 424.4613,-183.4929 425.8611,-176.6343"/>
</g>
<!-- Node172 -->
<g id="node4" class="node">
<title>Node172</title>
<g id="a_node4"><a xlink:href="structchig_1_1JsonModule.html#ac0085e28a8ff704511c0a4bb1f8eb42d" target="_top" xlink:title="Get the possible DataType names. ">
<polygon fill="#ffffff" stroke="#000000" points="650,-194 650,-213 811,-213 811,-194 650,-194"/>
<text text-anchor="middle" x="730.5" y="-201" font-family="Helvetica,sans-Serif" font-size="10.00" fill="#000000">chig::JsonModule::typeNames</text>
</a>
</g>
</g>
<!-- Node171&#45;&gt;Node172 -->
<g id="edge3" class="edge">
<title>Node171&#45;&gt;Node172</title>
<path fill="none" stroke="#191970" d="M624.4381,-203.5C632.8951,-203.5 641.4674,-203.5 649.8834,-203.5"/>
<polygon fill="#191970" stroke="#191970" points="624.1978,-200.0001 614.1978,-203.5 624.1977,-207.0001 624.1978,-200.0001"/>
</g>
<!-- Node174 -->
<g id="node6" class="node">
<title>Node174</title>
<g id="a_node6"><a xlink:href="structchig_1_1GraphFunction.html#a70b74dd7330f7afb2b3ab38feebd57c5" target="_top" xlink:title="Add a node to the graph. ">
<polygon fill="#ffffff" stroke="#000000" points="312,-109.5 312,-139.5 425,-139.5 425,-109.5 312,-109.5"/>
<text text-anchor="start" x="320" y="-127.5" font-family="Helvetica,sans-Serif" font-size="10.00" fill="#000000">chig::GraphFunction</text>
<text text-anchor="middle" x="368.5" y="-116.5" font-family="Helvetica,sans-Serif" font-size="10.00" fill="#000000">::insertNode</text>
</a>
</g>
</g>
<!-- Node173&#45;&gt;Node174 -->
<g id="edge5" class="edge">
<title>Node173&#45;&gt;Node174</title>
<path fill="none" stroke="#191970" d="M268.5897,-93.6129C285.4402,-98.8222 303.6304,-104.4457 319.8128,-109.4484"/>
<polygon fill="#191970" stroke="#191970" points="269.4362,-90.2112 258.8485,-90.6014 267.3686,-96.8989 269.4362,-90.2112"/>
</g>
<!-- Node177 -->
<g id="node9" class="node">
<title>Node177</title>
<g id="a_node9"><a xlink:href="structchig_1_1GraphFunction.html#ae355b017f2859dabff4fa17791317d77" target="_top" xlink:title="Modify an exec output (change docstring) ">
<polygon fill="#ffffff" stroke="#000000" points="312,-60.5 312,-90.5 425,-90.5 425,-60.5 312,-60.5"/>
<text text-anchor="start" x="320" y="-78.5" font-family="Helvetica,sans-Serif" font-size="10.00" fill="#000000">chig::GraphFunction</text>
<text text-anchor="middle" x="368.5" y="-67.5" font-family="Helvetica,sans-Serif" font-size="10.00" fill="#000000">::modifyExecOutput</text>
</a>
</g>
</g>
<!-- Node173&#45;&gt;Node177 -->
<g id="edge9" class="edge">
<title>Node173&#45;&gt;Node177</title>
<path fill="none" stroke="#191970" d="M281.3854,-75.5C291.5742,-75.5 301.9381,-75.5 311.7946,-75.5"/>
<polygon fill="#191970" stroke="#191970" points="281.2803,-72.0001 271.2802,-75.5 281.2802,-79.0001 281.2803,-72.0001"/>
</g>
<!-- Node175 -->
<g id="node7" class="node">
<title>Node175</title>
<g id="a_node7"><a xlink:href="structchig_1_1GraphFunction.html#a449ab966907b5e32dd00d5f6bb1b3ede" target="_top" xlink:title="Add a node to the graph using module, type, and json. ">
<polygon fill="#ffffff" stroke="#000000" points="483.5,-139.5 483.5,-169.5 596.5,-169.5 596.5,-139.5 483.5,-139.5"/>
<text text-anchor="start" x="491.5" y="-157.5" font-family="Helvetica,sans-Serif" font-size="10.00" fill="#000000">chig::GraphFunction</text>
<text text-anchor="middle" x="540" y="-146.5" font-family="Helvetica,sans-Serif" font-size="10.00" fill="#000000">::insertNode</text>
</a>
</g>
</g>
<!-- Node174&#45;&gt;Node175 -->
<g id="edge6" class="edge">
<title>Node174&#45;&gt;Node175</title>
<path fill="none" stroke="#191970" d="M435.4083,-136.2041C451.2837,-138.9811 468.0656,-141.9167 483.4286,-144.6041"/>
<polygon fill="#191970" stroke="#191970" points="435.5844,-132.6818 425.1308,-134.4063 434.3781,-139.5771 435.5844,-132.6818"/>
</g>
<!-- Node176 -->
<g id="node8" class="node">
<title>Node176</title>
<g id="a_node8"><a xlink:href="structchig_1_1GraphFunction.html#a1fd77fbd5bb46690fdc79cd9c6d35917" target="_top" xlink:title="Creates an entry node if it doesn&#39;t already exist, else just return it. ">
<polygon fill="#ffffff" stroke="#000000" points="476,-90.5 476,-120.5 604,-120.5 604,-90.5 476,-90.5"/>
<text text-anchor="start" x="484" y="-108.5" font-family="Helvetica,sans-Serif" font-size="10.00" fill="#000000">chig::GraphFunction</text>
<text text-anchor="middle" x="540" y="-97.5" font-family="Helvetica,sans-Serif" font-size="10.00" fill="#000000">::getOrInsertEntryNode</text>
</a>
</g>
</g>
<!-- Node174&#45;&gt;Node176 -->
<g id="edge7" class="edge">
<title>Node174&#45;&gt;Node176</title>
<path fill="none" stroke="#191970" d="M435.1721,-110.5143C448.498,-108.8242 462.4714,-107.2897 475.7147,-106.0636"/>
<polygon fill="#191970" stroke="#191970" points="434.5892,-107.0607 425.1308,-111.8346 435.5018,-114.001 434.5892,-107.0607"/>
</g>
<!-- Node176&#45;&gt;Node174 -->
<g id="edge8" class="edge">
<title>Node176&#45;&gt;Node174</title>
<path fill="none" stroke="#191970" d="M465.468,-120.4556C451.942,-122.0792 438.0371,-123.5174 425.1308,-124.6175"/>
<polygon fill="#191970" stroke="#191970" points="466.2235,-123.8886 475.7147,-119.1804 465.359,-116.9422 466.2235,-123.8886"/>
</g>
<!-- Node178 -->
<g id="node10" class="node">
<title>Node178</title>
<g id="a_node10"><a xlink:href="structchig_1_1GraphFunction.html#ae155f716b072ef5f8e3ba064ae7ef8c0" target="_top" xlink:title="Get the function exec outputs. ">
<polygon fill="#ffffff" stroke="#000000" points="483.5,-22.5 483.5,-52.5 596.5,-52.5 596.5,-22.5 483.5,-22.5"/>
<text text-anchor="start" x="491.5" y="-40.5" font-family="Helvetica,sans-Serif" font-size="10.00" fill="#000000">chig::GraphFunction</text>
<text text-anchor="middle" x="540" y="-29.5" font-family="Helvetica,sans-Serif" font-size="10.00" fill="#000000">::execOutputs</text>
</a>
</g>
</g>
<!-- Node177&#45;&gt;Node178 -->
<g id="edge10" class="edge">
<title>Node177&#45;&gt;Node178</title>
<path fill="none" stroke="#191970" d="M434.955,-60.7753C450.9639,-57.2281 467.9192,-53.4712 483.4286,-50.0348"/>
<polygon fill="#191970" stroke="#191970" points="434.1368,-57.3716 425.1308,-62.9521 435.6512,-64.2058 434.1368,-57.3716"/>
</g>
<!-- Node178&#45;&gt;Node173 -->
<g id="edge12" class="edge">
<title>Node178&#45;&gt;Node173</title>
<path fill="none" stroke="#191970" d="M473.1875,-38.2857C426.4213,-39.6221 362.6112,-43.0222 307,-51.5 292.6798,-53.6831 277.3816,-56.9954 263.267,-60.4679"/>
<polygon fill="#191970" stroke="#191970" points="473.2918,-41.7842 483.1967,-38.0236 473.1085,-34.7866 473.2918,-41.7842"/>
</g>
<!-- Node178&#45;&gt;Node179 -->
<g id="edge11" class="edge">
<title>Node178&#45;&gt;Node179</title>
<path fill="none" stroke="#191970" d="M606.8336,-29.7817C628.6787,-27.2589 652.7189,-24.4826 673.7488,-22.0539"/>
<polygon fill="#191970" stroke="#191970" points="606.1729,-26.3346 596.6405,-30.9588 606.976,-33.2884 606.1729,-26.3346"/>
</g>
<!-- Node180&#45;&gt;Node170 -->
<g id="edge15" class="edge">
<title>Node180&#45;&gt;Node170</title>
<path fill="none" stroke="#191970" d="M273.749,-142.1969C294.3296,-147.9101 316.3615,-154.0262 333.9964,-158.9217"/>
<polygon fill="#191970" stroke="#191970" points="274.6752,-138.8217 264.1034,-139.5192 272.8028,-145.5667 274.6752,-138.8217"/>
</g>
<!-- Node180&#45;&gt;Node174 -->
<g id="edge14" class="edge">
<title>Node180&#45;&gt;Node174</title>
<path fill="none" stroke="#191970" d="M276.8825,-124.5C288.5212,-124.5 300.5249,-124.5 311.8557,-124.5"/>
<polygon fill="#191970" stroke="#191970" points="276.7745,-121.0001 266.7744,-124.5 276.7744,-128.0001 276.7745,-121.0001"/>
</g>
</g>
</svg>
        <g id="navigator" transform="translate(0 0)" fill="#404254">
                <rect fill="#f2f5e9" fill-opacity="0.5" stroke="#606060" stroke-width=".5" x="0" y="0" width="60" height="60"/>
                <use id="zoomplus" xlink:href="#zoomPlus" x="17" y="9" onmousedown="handleZoom(evt,'in')"/>
                <use id="zoomminus" xlink:href="#zoomMin" x="42" y="9" onmousedown="handleZoom(evt,'out')"/>
                <use id="reset" xlink:href="#resetDef" x="30" y="36" onmousedown="handleReset()"/>
                <g id="arrowUp" xlink:href="#dirArrow" transform="translate(30 24)" onmousedown="handlePan(0,-1)">
                  <use xlink:href="#rim" fill="#404040">
                        <set attributeName="fill" to="#808080" begin="arrowUp.mouseover" end="arrowUp.mouseout"/>
                  </use>
                  <path fill="none" stroke="white" stroke-width="1.5" d="M0,-3.0v7 M-2.5,-0.5L0,-3.0L2.5,-0.5"/>
                </g>
                <g id="arrowRight" xlink:href="#dirArrow" transform="rotate(90) translate(36 -43)" onmousedown="handlePan(1,0)">
                  <use xlink:href="#rim" fill="#404040">
                        <set attributeName="fill" to="#808080" begin="arrowRight.mouseover" end="arrowRight.mouseout"/>
                  </use>
                  <path fill="none" stroke="white" stroke-width="1.5" d="M0,-3.0v7 M-2.5,-0.5L0,-3.0L2.5,-0.5"/>
                </g>
                <g id="arrowDown" xlink:href="#dirArrow" transform="rotate(180) translate(-30 -48)" onmousedown="handlePan(0,1)">
                  <use xlink:href="#rim" fill="#404040">
                        <set attributeName="fill" to="#808080" begin="arrowDown.mouseover" end="arrowDown.mouseout"/>
                  </use>
                  <path fill="none" stroke="white" stroke-width="1.5" d="M0,-3.0v7 M-2.5,-0.5L0,-3.0L2.5,-0.5"/>
                </g>
                <g id="arrowLeft" xlink:href="#dirArrow" transform="rotate(270) translate(-36 17)" onmousedown="handlePan(-1,0)">
                  <use xlink:href="#rim" fill="#404040">
                        <set attributeName="fill" to="#808080" begin="arrowLeft.mouseover" end="arrowLeft.mouseout"/>
                  </use>
                  <path fill="none" stroke="white" stroke-width="1.5" d="M0,-3.0v7 M-2.5,-0.5L0,-3.0L2.5,-0.5"/>
                </g>
        </g>
        <svg viewBox="0 0 15 15" width="100%" height="30px" preserveAspectRatio="xMaxYMin meet">
         <g id="arrow_out" transform="scale(0.3 0.3)">
          <a xlink:href="structchig_1_1GraphFunction_ae734c04f29489efeb96227a20e2ada22_icgraph_org.svg" target="_base">
           <rect id="button" ry="5" rx="5" y="6" x="6" height="38" width="38"
                fill="#f2f5e9" fill-opacity="0.5" stroke="#606060" stroke-width="1.0"/>
           <path id="arrow"
             d="M 11.500037,31.436501 C 11.940474,20.09759 22.043105,11.32322 32.158766,21.979434 L 37.068811,17.246167 C 37.068811,17.246167 37.088388,32 37.088388,32 L 22.160133,31.978069 C 22.160133,31.978069 26.997745,27.140456 26.997745,27.140456 C 18.528582,18.264221 13.291696,25.230495 11.500037,31.436501 z"
             style="fill:#404040;"/>
          </a>
         </g>
        </svg>
</svg>
