<?xml version="1.0" encoding="UTF-8" standalone="no"?>
<!DOCTYPE svg PUBLIC "-//W3C//DTD SVG 1.1//EN"
 "http://www.w3.org/Graphics/SVG/1.1/DTD/svg11.dtd">
<!-- Generated by graphviz version 2.40.1 (20161225.0304)
 -->
<!-- Title: chi::GraphModule::structFromName Pages: 1 -->
<svg width="1811pt" height="523pt"
 viewBox="0.00 0.00 1811.00 522.59" xmlns="http://www.w3.org/2000/svg" xmlns:xlink="http://www.w3.org/1999/xlink">
<g id="graph0" class="graph" transform="scale(1 1) rotate(0) translate(4 518.5916)">
<title>chi::GraphModule::structFromName</title>
<polygon fill="#ffffff" stroke="transparent" points="-4,4 -4,-518.5916 1807,-518.5916 1807,4 -4,4"/>
<!-- Node860 -->
<g id="node1" class="node">
<title>Node860</title>
<polygon fill="#bfbfbf" stroke="#000000" points="0,-233.5916 0,-263.5916 124,-263.5916 124,-233.5916 0,-233.5916"/>
<text text-anchor="start" x="8" y="-251.5916" font-family="Helvetica,sans-Serif" font-size="10.00" fill="#000000">chi::GraphModule::struct</text>
<text text-anchor="middle" x="62" y="-240.5916" font-family="Helvetica,sans-Serif" font-size="10.00" fill="#000000">FromName</text>
</g>
<!-- Node861 -->
<g id="node2" class="node">
<title>Node861</title>
<g id="a_node2"><a xlink:href="structchi_1_1GraphModule.html#a45255dbf09b56ac93b35ebc4d77bba5c" target="_top" xlink:title="Get functions. ">
<polygon fill="#ffffff" stroke="#000000" points="363.5,-283.0916 363.5,-302.0916 502.5,-302.0916 502.5,-283.0916 363.5,-283.0916"/>
<text text-anchor="middle" x="433" y="-290.0916" font-family="Helvetica,sans-Serif" font-size="10.00" fill="#000000">chi::GraphModule::functions</text>
</a>
</g>
</g>
<!-- Node860&#45;&gt;Node861 -->
<g id="edge1" class="edge">
<title>Node860&#45;&gt;Node861</title>
<path fill="none" stroke="#191970" d="M134.0466,-257.1363C200.3185,-264.996 297.9559,-276.5756 363.4312,-284.3409"/>
<polygon fill="#191970" stroke="#191970" points="134.4397,-253.6584 124.0971,-255.9563 133.6152,-260.6097 134.4397,-253.6584"/>
</g>
<!-- Node873 -->
<g id="node14" class="node">
<title>Node873</title>
<g id="a_node14"><a xlink:href="structchi_1_1GraphModule.html#a63117b26fc55e86e740926994f54fe55" target="_top" xlink:title="Create a new struct in the module. ">
<polygon fill="#ffffff" stroke="#000000" points="167,-296.5916 167,-326.5916 319,-326.5916 319,-296.5916 167,-296.5916"/>
<text text-anchor="start" x="175" y="-314.5916" font-family="Helvetica,sans-Serif" font-size="10.00" fill="#000000">chi::GraphModule::getOrCreate</text>
<text text-anchor="middle" x="243" y="-303.5916" font-family="Helvetica,sans-Serif" font-size="10.00" fill="#000000">Struct</text>
</a>
</g>
</g>
<!-- Node860&#45;&gt;Node873 -->
<g id="edge15" class="edge">
<title>Node860&#45;&gt;Node873</title>
<path fill="none" stroke="#191970" d="M115.0115,-267.0432C141.9473,-276.4186 174.265,-287.6673 199.6864,-296.5157"/>
<polygon fill="#191970" stroke="#191970" points="115.9488,-263.6635 105.354,-263.6817 113.6477,-270.2745 115.9488,-263.6635"/>
</g>
<!-- Node882 -->
<g id="node23" class="node">
<title>Node882</title>
<g id="a_node23"><a xlink:href="structchi_1_1GraphModule.html#a133c0595e0bb888f958e9769838f6c0c" target="_top" xlink:title="Create a node type that is in the module from the name and json. ">
<polygon fill="#ffffff" stroke="#000000" points="362,-142.5916 362,-172.5916 504,-172.5916 504,-142.5916 362,-142.5916"/>
<text text-anchor="start" x="370" y="-160.5916" font-family="Helvetica,sans-Serif" font-size="10.00" fill="#000000">chi::GraphModule::nodeType</text>
<text text-anchor="middle" x="433" y="-149.5916" font-family="Helvetica,sans-Serif" font-size="10.00" fill="#000000">FromName</text>
</a>
</g>
</g>
<!-- Node860&#45;&gt;Node882 -->
<g id="edge26" class="edge">
<title>Node860&#45;&gt;Node882</title>
<path fill="none" stroke="#191970" d="M134.1727,-244.3876C188.0162,-239.7767 262.8582,-230.2227 326,-210.5916 355.4956,-201.4214 386.9038,-184.9716 408.0063,-172.8226"/>
<polygon fill="#191970" stroke="#191970" points="133.7132,-240.9134 124.0326,-245.2189 134.2852,-247.89 133.7132,-240.9134"/>
</g>
<!-- Node896 -->
<g id="node37" class="node">
<title>Node896</title>
<g id="a_node37"><a xlink:href="structchi_1_1GraphModule.html#af24296727c4121733d9995c122b6e7bc" target="_top" xlink:title="Get a DataType from the name. ">
<polygon fill="#ffffff" stroke="#000000" points="160,-182.0916 160,-201.0916 326,-201.0916 326,-182.0916 160,-182.0916"/>
<text text-anchor="middle" x="243" y="-189.0916" font-family="Helvetica,sans-Serif" font-size="10.00" fill="#000000">chi::GraphModule::typeFromName</text>
</a>
</g>
</g>
<!-- Node860&#45;&gt;Node896 -->
<g id="edge52" class="edge">
<title>Node860&#45;&gt;Node896</title>
<path fill="none" stroke="#191970" d="M115.1085,-230.2413C129.6241,-225.3534 145.3826,-220.1638 160,-215.5916 175.8908,-210.6212 193.6056,-205.449 208.5751,-201.1845"/>
<polygon fill="#191970" stroke="#191970" points="113.6371,-227.0442 105.2871,-233.5656 115.8814,-233.6747 113.6371,-227.0442"/>
</g>
<!-- Node862 -->
<g id="node3" class="node">
<title>Node862</title>
<g id="a_node3"><a xlink:href="structchi_1_1GraphModule.html#a0f4f97f458bbbacd6ff3c1be55441b98" target="_top" xlink:title="Create the associations from line number and function in debug info. ">
<polygon fill="#ffffff" stroke="#000000" points="543.5,-335.5916 543.5,-365.5916 669.5,-365.5916 669.5,-335.5916 543.5,-335.5916"/>
<text text-anchor="start" x="551.5" y="-353.5916" font-family="Helvetica,sans-Serif" font-size="10.00" fill="#000000">chi::GraphModule::create</text>
<text text-anchor="middle" x="606.5" y="-342.5916" font-family="Helvetica,sans-Serif" font-size="10.00" fill="#000000">LineNumberAssoc</text>
</a>
</g>
</g>
<!-- Node861&#45;&gt;Node862 -->
<g id="edge2" class="edge">
<title>Node861&#45;&gt;Node862</title>
<path fill="none" stroke="#191970" d="M471.3802,-305.4219C497.9989,-314.3204 533.5482,-326.2043 561.502,-335.5491"/>
<polygon fill="#191970" stroke="#191970" points="472.2438,-302.0203 461.65,-302.1692 470.0244,-308.6591 472.2438,-302.0203"/>
</g>
<!-- Node871 -->
<g id="node12" class="node">
<title>Node871</title>
<g id="a_node12"><a xlink:href="namespacechi.html#a9a4f3fa54c612f0c559a353bb7382d5a" target="_top" xlink:title="Serialize a JsonModule to json. ">
<polygon fill="#ffffff" stroke="#000000" points="1484.5,-225.0916 1484.5,-244.0916 1607.5,-244.0916 1607.5,-225.0916 1484.5,-225.0916"/>
<text text-anchor="middle" x="1546" y="-232.0916" font-family="Helvetica,sans-Serif" font-size="10.00" fill="#000000">chi::graphModuleToJson</text>
</a>
</g>
</g>
<!-- Node861&#45;&gt;Node871 -->
<g id="edge13" class="edge">
<title>Node861&#45;&gt;Node871</title>
<path fill="none" stroke="#191970" d="M497.1469,-281.3881C568.7913,-269.8652 688.3262,-253.5916 792,-253.5916 792,-253.5916 792,-253.5916 1168.5,-253.5916 1279.8919,-253.5916 1409.5393,-245.2377 1484.2552,-239.6085"/>
<polygon fill="#191970" stroke="#191970" points="496.2391,-277.9897 486.9315,-283.0512 497.364,-284.8987 496.2391,-277.9897"/>
</g>
<!-- Node863 -->
<g id="node4" class="node">
<title>Node863</title>
<g id="a_node4"><a xlink:href="namespacechi.html#a8329038fce8125396cc9775460aa427b" target="_top" xlink:title="Compile the graph to an llvm::Function (usually called from JsonModule::generateModule) ...">
<polygon fill="#ffffff" stroke="#000000" points="738.5,-361.0916 738.5,-380.0916 845.5,-380.0916 845.5,-361.0916 738.5,-361.0916"/>
<text text-anchor="middle" x="792" y="-368.0916" font-family="Helvetica,sans-Serif" font-size="10.00" fill="#000000">chi::compileFunction</text>
</a>
</g>
</g>
<!-- Node862&#45;&gt;Node863 -->
<g id="edge3" class="edge">
<title>Node862&#45;&gt;Node863</title>
<path fill="none" stroke="#191970" d="M679.6738,-358.481C699.2634,-360.5931 720.0736,-362.8368 738.39,-364.8116"/>
<polygon fill="#191970" stroke="#191970" points="679.8783,-354.9829 669.5607,-357.3906 679.1278,-361.9425 679.8783,-354.9829"/>
</g>
<!-- Node865 -->
<g id="node6" class="node">
<title>Node865</title>
<g id="a_node6"><a xlink:href="namespacechi.html#a46ba4fa933baeba58beefc9e573b0668" target="_top" xlink:title="Get the mapped line number from a node. ">
<polygon fill="#ffffff" stroke="#000000" points="727.5,-320.0916 727.5,-339.0916 856.5,-339.0916 856.5,-320.0916 727.5,-320.0916"/>
<text text-anchor="middle" x="792" y="-327.0916" font-family="Helvetica,sans-Serif" font-size="10.00" fill="#000000">chi::lineNumberFromNode</text>
</a>
</g>
</g>
<!-- Node862&#45;&gt;Node865 -->
<g id="edge5" class="edge">
<title>Node862&#45;&gt;Node865</title>
<path fill="none" stroke="#191970" d="M679.7346,-342.3009C695.4179,-340.5255 711.8809,-338.6617 727.2183,-336.9254"/>
<polygon fill="#191970" stroke="#191970" points="679.1035,-338.8499 669.5607,-343.4527 679.891,-345.8055 679.1035,-338.8499"/>
</g>
<!-- Node869 -->
<g id="node10" class="node">
<title>Node869</title>
<g id="a_node10"><a xlink:href="classchi_1_1Debugger.html#ae142902fa85248f40cbeea7199c86ad9" target="_top" xlink:title="Get a NodeInstance from a frame. ">
<polygon fill="#ffffff" stroke="#000000" points="715,-413.0916 715,-432.0916 869,-432.0916 869,-413.0916 715,-413.0916"/>
<text text-anchor="middle" x="792" y="-420.0916" font-family="Helvetica,sans-Serif" font-size="10.00" fill="#000000">chi::Debugger::nodeFromFrame</text>
</a>
</g>
</g>
<!-- Node862&#45;&gt;Node869 -->
<g id="edge9" class="edge">
<title>Node862&#45;&gt;Node869</title>
<path fill="none" stroke="#191970" d="M654.7595,-369.3231C690.8565,-383.3338 738.7351,-401.9174 767.3506,-413.0242"/>
<polygon fill="#191970" stroke="#191970" points="655.9757,-366.0408 645.3869,-365.6852 653.4428,-372.5665 655.9757,-366.0408"/>
</g>
<!-- Node864 -->
<g id="node5" class="node">
<title>Node864</title>
<g id="a_node5"><a xlink:href="structchi_1_1GraphModule.html#a9b73bbbfa91d6a2f92bcca270bdb7b2f" target="_top" xlink:title="Generate a llvm::Module from the module. ">
<polygon fill="#ffffff" stroke="#000000" points="914,-358.5916 914,-388.5916 1051,-388.5916 1051,-358.5916 914,-358.5916"/>
<text text-anchor="start" x="922" y="-376.5916" font-family="Helvetica,sans-Serif" font-size="10.00" fill="#000000">chi::GraphModule::generate</text>
<text text-anchor="middle" x="982.5" y="-365.5916" font-family="Helvetica,sans-Serif" font-size="10.00" fill="#000000">Module</text>
</a>
</g>
</g>
<!-- Node863&#45;&gt;Node864 -->
<g id="edge4" class="edge">
<title>Node863&#45;&gt;Node864</title>
<path fill="none" stroke="#191970" d="M855.7048,-371.5949C874.3176,-371.888 894.7421,-372.2096 913.6578,-372.5075"/>
<polygon fill="#191970" stroke="#191970" points="855.6257,-368.0933 845.5718,-371.4353 855.5154,-375.0924 855.6257,-368.0933"/>
</g>
<!-- Node866 -->
<g id="node7" class="node">
<title>Node866</title>
<g id="a_node7"><a xlink:href="classchi_1_1Debugger.html#a4bd2c4dcced3e704b6a4d71b7c2d53d4" target="_top" xlink:title="Get the debugger This should probably be valid...not sure why it wouldn&#39;t be. ">
<polygon fill="#ffffff" stroke="#000000" points="913,-320.0916 913,-339.0916 1052,-339.0916 1052,-320.0916 913,-320.0916"/>
<text text-anchor="middle" x="982.5" y="-327.0916" font-family="Helvetica,sans-Serif" font-size="10.00" fill="#000000">chi::Debugger::lldbDebugger</text>
</a>
</g>
</g>
<!-- Node865&#45;&gt;Node866 -->
<g id="edge6" class="edge">
<title>Node865&#45;&gt;Node866</title>
<path fill="none" stroke="#191970" d="M867.0448,-329.5916C882.091,-329.5916 897.8424,-329.5916 912.7019,-329.5916"/>
<polygon fill="#191970" stroke="#191970" points="866.7605,-326.0917 856.7604,-329.5916 866.7604,-333.0917 866.7605,-326.0917"/>
</g>
<!-- Node867 -->
<g id="node8" class="node">
<title>Node867</title>
<g id="a_node8"><a xlink:href="classchi_1_1Debugger.html#a91a4d103d38bb2b1132ec7f83f4d77e2" target="_top" xlink:title="Set a breakpoint on a given node. ">
<polygon fill="#ffffff" stroke="#000000" points="911,-282.0916 911,-301.0916 1054,-301.0916 1054,-282.0916 911,-282.0916"/>
<text text-anchor="middle" x="982.5" y="-289.0916" font-family="Helvetica,sans-Serif" font-size="10.00" fill="#000000">chi::Debugger::setBreakpoint</text>
</a>
</g>
</g>
<!-- Node865&#45;&gt;Node867 -->
<g id="edge7" class="edge">
<title>Node865&#45;&gt;Node867</title>
<path fill="none" stroke="#191970" d="M850.2003,-317.9821C877.2938,-312.5777 909.125,-306.2281 934.7745,-301.1117"/>
<polygon fill="#191970" stroke="#191970" points="849.1933,-314.614 840.0712,-320.0026 850.5627,-321.4787 849.1933,-314.614"/>
</g>
<!-- Node868 -->
<g id="node9" class="node">
<title>Node868</title>
<g id="a_node9"><a xlink:href="classchi_1_1Debugger.html#a50f4de4ab6a18afa2eb82f5a5f43b06a" target="_top" xlink:title="Check if the process is executing. ">
<polygon fill="#ffffff" stroke="#000000" points="1111.5,-413.0916 1111.5,-432.0916 1225.5,-432.0916 1225.5,-413.0916 1111.5,-413.0916"/>
<text text-anchor="middle" x="1168.5" y="-420.0916" font-family="Helvetica,sans-Serif" font-size="10.00" fill="#000000">chi::Debugger::running</text>
</a>
</g>
</g>
<!-- Node867&#45;&gt;Node868 -->
<g id="edge8" class="edge">
<title>Node867&#45;&gt;Node868</title>
<path fill="none" stroke="#191970" d="M1041.5213,-304.6154C1045.8531,-306.37 1050.0626,-308.3526 1054,-310.5916 1102.3446,-338.0827 1145.036,-390.9783 1161.4002,-412.8047"/>
<polygon fill="#191970" stroke="#191970" points="1042.495,-301.2456 1031.9008,-301.1281 1040.1094,-307.8266 1042.495,-301.2456"/>
</g>
<!-- Node869&#45;&gt;Node868 -->
<g id="edge12" class="edge">
<title>Node869&#45;&gt;Node868</title>
<path fill="none" stroke="#191970" d="M837.3829,-434.432C859.4326,-439.5911 886.418,-445.0374 911,-447.5916 974.2152,-454.1602 990.8112,-454.4097 1054,-447.5916 1081.3096,-444.645 1111.6576,-437.8538 1134.2449,-432.0924"/>
<polygon fill="#191970" stroke="#191970" points="838.166,-431.0206 827.6256,-432.0932 836.5343,-437.8278 838.166,-431.0206"/>
</g>
<!-- Node870 -->
<g id="node11" class="node">
<title>Node870</title>
<g id="a_node11"><a xlink:href="classchi_1_1Debugger.html#a7b4b8117f767d7fc591ff1f54516c681" target="_top" xlink:title="Get the output of a node. ">
<polygon fill="#ffffff" stroke="#000000" points="914,-407.5916 914,-437.5916 1051,-437.5916 1051,-407.5916 914,-407.5916"/>
<text text-anchor="start" x="922" y="-425.5916" font-family="Helvetica,sans-Serif" font-size="10.00" fill="#000000">chi::Debugger::inspectNode</text>
<text text-anchor="middle" x="982.5" y="-414.5916" font-family="Helvetica,sans-Serif" font-size="10.00" fill="#000000">Output</text>
</a>
</g>
</g>
<!-- Node869&#45;&gt;Node870 -->
<g id="edge10" class="edge">
<title>Node869&#45;&gt;Node870</title>
<path fill="none" stroke="#191970" d="M879.3084,-422.5916C890.8665,-422.5916 902.5816,-422.5916 913.7667,-422.5916"/>
<polygon fill="#191970" stroke="#191970" points="879.2091,-419.0917 869.209,-422.5916 879.209,-426.0917 879.2091,-419.0917"/>
</g>
<!-- Node870&#45;&gt;Node868 -->
<g id="edge11" class="edge">
<title>Node870&#45;&gt;Node868</title>
<path fill="none" stroke="#191970" d="M1061.5422,-422.5916C1078.2623,-422.5916 1095.5984,-422.5916 1111.3219,-422.5916"/>
<polygon fill="#191970" stroke="#191970" points="1061.2311,-419.0917 1051.2311,-422.5916 1061.231,-426.0917 1061.2311,-419.0917"/>
</g>
<!-- Node872 -->
<g id="node13" class="node">
<title>Node872</title>
<g id="a_node13"><a xlink:href="structchi_1_1GraphModule.html#a5cd9fb1738336d5d382ebb50753bda3e" target="_top" xlink:title="Serialize to disk in the context. ">
<polygon fill="#ffffff" stroke="#000000" points="1652,-225.0916 1652,-244.0916 1803,-244.0916 1803,-225.0916 1652,-225.0916"/>
<text text-anchor="middle" x="1727.5" y="-232.0916" font-family="Helvetica,sans-Serif" font-size="10.00" fill="#000000">chi::GraphModule::saveToDisk</text>
</a>
</g>
</g>
<!-- Node871&#45;&gt;Node872 -->
<g id="edge14" class="edge">
<title>Node871&#45;&gt;Node872</title>
<path fill="none" stroke="#191970" d="M1617.8263,-234.5916C1628.9968,-234.5916 1640.5676,-234.5916 1651.8204,-234.5916"/>
<polygon fill="#191970" stroke="#191970" points="1617.7009,-231.0917 1607.7009,-234.5916 1617.7008,-238.0917 1617.7009,-231.0917"/>
</g>
<!-- Node873&#45;&gt;Node861 -->
<g id="edge16" class="edge">
<title>Node873&#45;&gt;Node861</title>
<path fill="none" stroke="#191970" d="M329.1575,-302.9759C340.5743,-301.8342 352.163,-300.6753 363.2562,-299.566"/>
<polygon fill="#191970" stroke="#191970" points="328.7876,-299.4953 319.1855,-303.9731 329.4842,-306.4606 328.7876,-299.4953"/>
</g>
<!-- Node874 -->
<g id="node15" class="node">
<title>Node874</title>
<g id="a_node15"><a xlink:href="namespacechi.html#a629f77832b6e7a6e0eaab123c4be1cda" target="_top" xlink:title="Load a GraphStruct from json. ">
<polygon fill="#ffffff" stroke="#000000" points="374.5,-399.0916 374.5,-418.0916 491.5,-418.0916 491.5,-399.0916 374.5,-399.0916"/>
<text text-anchor="middle" x="433" y="-406.0916" font-family="Helvetica,sans-Serif" font-size="10.00" fill="#000000">chi::jsonToGraphStruct</text>
</a>
</g>
</g>
<!-- Node873&#45;&gt;Node874 -->
<g id="edge17" class="edge">
<title>Node873&#45;&gt;Node874</title>
<path fill="none" stroke="#191970" d="M281.6974,-331.3477C322.0062,-351.9264 383.4725,-383.3066 414.1748,-398.9809"/>
<polygon fill="#191970" stroke="#191970" points="283.1854,-328.1777 272.6875,-326.7479 280.0025,-334.4122 283.1854,-328.1777"/>
</g>
<!-- Node875 -->
<g id="node16" class="node">
<title>Node875</title>
<g id="a_node16"><a xlink:href="namespacechi.html#a4489e333fecc4168278e94f8b3f81e3c" target="_top" xlink:title="Load a GraphModule from json. ">
<polygon fill="#ffffff" stroke="#000000" points="545.5,-419.0916 545.5,-438.0916 667.5,-438.0916 667.5,-419.0916 545.5,-419.0916"/>
<text text-anchor="middle" x="606.5" y="-426.0916" font-family="Helvetica,sans-Serif" font-size="10.00" fill="#000000">chi::jsonToGraphModule</text>
</a>
</g>
</g>
<!-- Node874&#45;&gt;Node875 -->
<g id="edge18" class="edge">
<title>Node874&#45;&gt;Node875</title>
<path fill="none" stroke="#191970" d="M502.044,-416.5506C516.3924,-418.2046 531.4159,-419.9364 545.4524,-421.5545"/>
<polygon fill="#191970" stroke="#191970" points="502.0742,-413.031 491.7392,-415.3627 501.2726,-419.985 502.0742,-413.031"/>
</g>
<!-- Node876 -->
<g id="node17" class="node">
<title>Node876</title>
<g id="a_node17"><a xlink:href="structchi_1_1Context.html#a2db103f3a2f77710dfa51489f63ec97f" target="_top" xlink:title="Load a module from JSON – avoid this use the string overload. ">
<polygon fill="#ffffff" stroke="#000000" points="709,-473.0916 709,-492.0916 875,-492.0916 875,-473.0916 709,-473.0916"/>
<text text-anchor="middle" x="792" y="-480.0916" font-family="Helvetica,sans-Serif" font-size="10.00" fill="#000000">chi::Context::addModuleFromJson</text>
</a>
</g>
</g>
<!-- Node875&#45;&gt;Node876 -->
<g id="edge19" class="edge">
<title>Node875&#45;&gt;Node876</title>
<path fill="none" stroke="#191970" d="M649.2046,-441.0232C682.709,-450.7765 728.6501,-464.1502 759.2791,-473.0664"/>
<polygon fill="#191970" stroke="#191970" points="649.8164,-437.5561 639.2367,-438.1215 647.8598,-444.2771 649.8164,-437.5561"/>
</g>
<!-- Node877 -->
<g id="node18" class="node">
<title>Node877</title>
<g id="a_node18"><a xlink:href="structchi_1_1Context.html#a508c786fe61ffa67c2a44850ecac4a7b" target="_top" xlink:title="Load a module from disk, also loads dependencies. ">
<polygon fill="#ffffff" stroke="#000000" points="920,-495.0916 920,-514.0916 1045,-514.0916 1045,-495.0916 920,-495.0916"/>
<text text-anchor="middle" x="982.5" y="-502.0916" font-family="Helvetica,sans-Serif" font-size="10.00" fill="#000000">chi::Context::loadModule</text>
</a>
</g>
</g>
<!-- Node876&#45;&gt;Node877 -->
<g id="edge20" class="edge">
<title>Node876&#45;&gt;Node877</title>
<path fill="none" stroke="#191970" d="M884.4595,-493.2694C896.414,-494.65 908.4271,-496.0373 919.7448,-497.3443"/>
<polygon fill="#191970" stroke="#191970" points="884.7836,-489.7836 874.4481,-492.1132 883.9805,-496.7374 884.7836,-489.7836"/>
</g>
<!-- Node878 -->
<g id="node19" class="node">
<title>Node878</title>
<g id="a_node19"><a xlink:href="structchi_1_1ChiModule.html#aab11d61e0c0138e5fc5ce176c20e3bec" target="_top" xlink:title="Add a dependency to the module Loads the module from context() if it isn&#39;t already loaded...">
<polygon fill="#ffffff" stroke="#000000" points="1090,-473.0916 1090,-492.0916 1247,-492.0916 1247,-473.0916 1090,-473.0916"/>
<text text-anchor="middle" x="1168.5" y="-480.0916" font-family="Helvetica,sans-Serif" font-size="10.00" fill="#000000">chi::ChiModule::addDependency</text>
</a>
</g>
</g>
<!-- Node877&#45;&gt;Node878 -->
<g id="edge21" class="edge">
<title>Node877&#45;&gt;Node878</title>
<path fill="none" stroke="#191970" d="M1055.4542,-495.9627C1066.7563,-494.6258 1078.4731,-493.24 1089.8931,-491.8892"/>
<polygon fill="#191970" stroke="#191970" points="1054.7314,-492.5237 1045.2118,-497.1741 1055.5537,-499.4752 1054.7314,-492.5237"/>
</g>
<!-- Node879 -->
<g id="node20" class="node">
<title>Node879</title>
<g id="a_node20"><a xlink:href="structchi_1_1ChiModule.html#a9c0d4b1b54bca0194ea4061ae4883779" target="_top" xlink:title="Get the dependencies. ">
<polygon fill="#ffffff" stroke="#000000" points="1288,-473.0916 1288,-492.0916 1435,-492.0916 1435,-473.0916 1288,-473.0916"/>
<text text-anchor="middle" x="1361.5" y="-480.0916" font-family="Helvetica,sans-Serif" font-size="10.00" fill="#000000">chi::ChiModule::dependencies</text>
</a>
</g>
</g>
<!-- Node878&#45;&gt;Node879 -->
<g id="edge22" class="edge">
<title>Node878&#45;&gt;Node879</title>
<path fill="none" stroke="#191970" d="M1257.1712,-482.5916C1267.3983,-482.5916 1277.7436,-482.5916 1287.7433,-482.5916"/>
<polygon fill="#191970" stroke="#191970" points="1257.0005,-479.0917 1247.0005,-482.5916 1257.0005,-486.0917 1257.0005,-479.0917"/>
</g>
<!-- Node881 -->
<g id="node22" class="node">
<title>Node881</title>
<g id="a_node22"><a xlink:href="structchi_1_1GraphModule.html#adeeeec5c69812ddeb43a64d3009a4eda" target="_top" xlink:title="Construct a GraphModule. ">
<polygon fill="#ffffff" stroke="#000000" points="1283,-435.0916 1283,-454.0916 1440,-454.0916 1440,-435.0916 1283,-435.0916"/>
<text text-anchor="middle" x="1361.5" y="-442.0916" font-family="Helvetica,sans-Serif" font-size="10.00" fill="#000000">chi::GraphModule::GraphModule</text>
</a>
</g>
</g>
<!-- Node878&#45;&gt;Node881 -->
<g id="edge25" class="edge">
<title>Node878&#45;&gt;Node881</title>
<path fill="none" stroke="#191970" d="M1227.1016,-471.0535C1254.6289,-465.6336 1287.0476,-459.2507 1313.1482,-454.1117"/>
<polygon fill="#191970" stroke="#191970" points="1226.3375,-467.6367 1217.202,-473.0026 1227.6898,-474.5048 1226.3375,-467.6367"/>
</g>
<!-- Node879&#45;&gt;Node871 -->
<g id="edge24" class="edge">
<title>Node879&#45;&gt;Node871</title>
<path fill="none" stroke="#191970" d="M1433.5399,-468.1948C1435.798,-466.7958 1437.9611,-465.2654 1440,-463.5916 1513.817,-402.9927 1538.7812,-279.54 1544.566,-244.2252"/>
<polygon fill="#191970" stroke="#191970" points="1431.6596,-465.2284 1424.4212,-472.9652 1434.9044,-471.431 1431.6596,-465.2284"/>
</g>
<!-- Node880 -->
<g id="node21" class="node">
<title>Node880</title>
<g id="a_node21"><a xlink:href="structchi_1_1Context.html#a1a0ed6a11af4c2625955bc5df77e135c" target="_top" xlink:title="Compile a module to a llvm::Module. ">
<polygon fill="#ffffff" stroke="#000000" points="1476,-473.0916 1476,-492.0916 1616,-492.0916 1616,-473.0916 1476,-473.0916"/>
<text text-anchor="middle" x="1546" y="-480.0916" font-family="Helvetica,sans-Serif" font-size="10.00" fill="#000000">chi::Context::compileModule</text>
</a>
</g>
</g>
<!-- Node879&#45;&gt;Node880 -->
<g id="edge23" class="edge">
<title>Node879&#45;&gt;Node880</title>
<path fill="none" stroke="#191970" d="M1445.3096,-482.5916C1455.4689,-482.5916 1465.7658,-482.5916 1475.7021,-482.5916"/>
<polygon fill="#191970" stroke="#191970" points="1445.2147,-479.0917 1435.2147,-482.5916 1445.2147,-486.0917 1445.2147,-479.0917"/>
</g>
<!-- Node883 -->
<g id="node24" class="node">
<title>Node883</title>
<g id="a_node24"><a xlink:href="structchi_1_1GraphStruct.html#a27c5062196f73eae3125c0baeb592d00" target="_top" xlink:title="Get the DataType of the struct. ">
<polygon fill="#ffffff" stroke="#000000" points="915.5,-42.0916 915.5,-61.0916 1049.5,-61.0916 1049.5,-42.0916 915.5,-42.0916"/>
<text text-anchor="middle" x="982.5" y="-49.0916" font-family="Helvetica,sans-Serif" font-size="10.00" fill="#000000">chi::GraphStruct::dataType</text>
</a>
</g>
</g>
<!-- Node882&#45;&gt;Node883 -->
<g id="edge27" class="edge">
<title>Node882&#45;&gt;Node883</title>
<path fill="none" stroke="#191970" d="M457.9805,-136.008C478.5259,-119.6185 509.1784,-98.1575 540,-87.5916 667.2307,-43.9762 826.6107,-43.0941 915.1957,-46.9529"/>
<polygon fill="#191970" stroke="#191970" points="455.6215,-133.4155 450.0899,-142.4517 460.0492,-138.8373 455.6215,-133.4155"/>
</g>
<!-- Node889 -->
<g id="node30" class="node">
<title>Node889</title>
<g id="a_node30"><a xlink:href="structchi_1_1GraphFunction.html#a60bc423cb4fed3605a446da112949483" target="_top" xlink:title="Rename a local variable. ">
<polygon fill="#ffffff" stroke="#000000" points="550,-142.5916 550,-172.5916 663,-172.5916 663,-142.5916 550,-142.5916"/>
<text text-anchor="start" x="558" y="-160.5916" font-family="Helvetica,sans-Serif" font-size="10.00" fill="#000000">chi::GraphFunction</text>
<text text-anchor="middle" x="606.5" y="-149.5916" font-family="Helvetica,sans-Serif" font-size="10.00" fill="#000000">::renameLocalVariable</text>
</a>
</g>
</g>
<!-- Node882&#45;&gt;Node889 -->
<g id="edge38" class="edge">
<title>Node882&#45;&gt;Node889</title>
<path fill="none" stroke="#191970" d="M514.1555,-157.5916C526.2277,-157.5916 538.4449,-157.5916 549.8669,-157.5916"/>
<polygon fill="#191970" stroke="#191970" points="514.0697,-154.0917 504.0697,-157.5916 514.0697,-161.0917 514.0697,-154.0917"/>
</g>
<!-- Node892 -->
<g id="node33" class="node">
<title>Node892</title>
<g id="a_node33"><a xlink:href="structchi_1_1GraphFunction.html#a4c38679ec5e727bfb71c8eaaa5a8ca1a" target="_top" xlink:title="Set a new type to a local variable. ">
<polygon fill="#ffffff" stroke="#000000" points="552.5,-191.5916 552.5,-221.5916 660.5,-221.5916 660.5,-191.5916 552.5,-191.5916"/>
<text text-anchor="start" x="560.5" y="-209.5916" font-family="Helvetica,sans-Serif" font-size="10.00" fill="#000000">chi::GraphFunction</text>
<text text-anchor="middle" x="606.5" y="-198.5916" font-family="Helvetica,sans-Serif" font-size="10.00" fill="#000000">::retypeLocalVariable</text>
</a>
</g>
</g>
<!-- Node882&#45;&gt;Node892 -->
<g id="edge42" class="edge">
<title>Node882&#45;&gt;Node892</title>
<path fill="none" stroke="#191970" d="M496.1018,-175.4129C514.8345,-180.7034 535.1602,-186.4438 553.2051,-191.5401"/>
<polygon fill="#191970" stroke="#191970" points="497.0463,-172.0428 486.4714,-172.6931 495.1437,-178.7793 497.0463,-172.0428"/>
</g>
<!-- Node893 -->
<g id="node34" class="node">
<title>Node893</title>
<g id="a_node34"><a xlink:href="structchi_1_1GraphStruct.html#a464c5edd4ebcb07161c3d05312f1fc33" target="_top" xlink:title="Set the name of the struct, and optionally update all references in the context. ">
<polygon fill="#ffffff" stroke="#000000" points="540,-97.0916 540,-116.0916 673,-116.0916 673,-97.0916 540,-97.0916"/>
<text text-anchor="middle" x="606.5" y="-104.0916" font-family="Helvetica,sans-Serif" font-size="10.00" fill="#000000">chi::GraphStruct::setName</text>
</a>
</g>
</g>
<!-- Node882&#45;&gt;Node893 -->
<g id="edge44" class="edge">
<title>Node882&#45;&gt;Node893</title>
<path fill="none" stroke="#191970" d="M493.8719,-139.6985C520.86,-131.7654 551.5263,-122.7511 574.0377,-116.1339"/>
<polygon fill="#191970" stroke="#191970" points="492.7243,-136.3876 484.1173,-142.5658 494.6985,-143.1035 492.7243,-136.3876"/>
</g>
<!-- Node884 -->
<g id="node25" class="node">
<title>Node884</title>
<g id="a_node25"><a xlink:href="structchi_1_1GraphStruct.html#ae1895cfaebac03e21d35ec2a155b3c10" target="_top" xlink:title="Get the types the struct contains. ">
<polygon fill="#ffffff" stroke="#000000" points="1109.5,-42.0916 1109.5,-61.0916 1227.5,-61.0916 1227.5,-42.0916 1109.5,-42.0916"/>
<text text-anchor="middle" x="1168.5" y="-49.0916" font-family="Helvetica,sans-Serif" font-size="10.00" fill="#000000">chi::GraphStruct::types</text>
</a>
</g>
</g>
<!-- Node883&#45;&gt;Node884 -->
<g id="edge28" class="edge">
<title>Node883&#45;&gt;Node884</title>
<path fill="none" stroke="#191970" d="M1059.8647,-44.9272C1076.4427,-44.7443 1093.7032,-44.8547 1109.4568,-45.2586"/>
<polygon fill="#191970" stroke="#191970" points="1059.5971,-41.4307 1049.6503,-45.079 1059.7012,-48.4299 1059.5971,-41.4307"/>
</g>
<!-- Node884&#45;&gt;Node883 -->
<g id="edge35" class="edge">
<title>Node884&#45;&gt;Node883</title>
<path fill="none" stroke="#191970" d="M1099.0116,-58.1461C1082.861,-58.4201 1065.6979,-58.4061 1049.6503,-58.1043"/>
<polygon fill="#191970" stroke="#191970" points="1099.5333,-61.636 1109.4568,-57.9247 1099.3848,-54.6375 1099.5333,-61.636"/>
</g>
<!-- Node885 -->
<g id="node26" class="node">
<title>Node885</title>
<g id="a_node26"><a xlink:href="structchi_1_1GraphStruct.html#aba05cdce9627a23da0449801e068d85d" target="_top" xlink:title="Add a new type to the struct. ">
<polygon fill="#ffffff" stroke="#000000" points="1296,-118.0916 1296,-137.0916 1427,-137.0916 1427,-118.0916 1296,-118.0916"/>
<text text-anchor="middle" x="1361.5" y="-125.0916" font-family="Helvetica,sans-Serif" font-size="10.00" fill="#000000">chi::GraphStruct::addType</text>
</a>
</g>
</g>
<!-- Node884&#45;&gt;Node885 -->
<g id="edge29" class="edge">
<title>Node884&#45;&gt;Node885</title>
<path fill="none" stroke="#191970" d="M1207.5035,-65.7812C1229.2065,-76.3651 1257.0135,-90.1151 1283,-99.5916 1304.0774,-107.278 1329.4721,-112.7783 1345.5541,-118.0199"/>
<polygon fill="#191970" stroke="#191970" points="1208.8201,-62.5298 1198.2952,-61.3146 1205.7651,-68.828 1208.8201,-62.5298"/>
</g>
<!-- Node886 -->
<g id="node27" class="node">
<title>Node886</title>
<g id="a_node27"><a xlink:href="structchi_1_1GraphStruct.html#a89d3ea5e72ed6e7d8380fb82fa5eb521" target="_top" xlink:title="Change the type and name of a type. ">
<polygon fill="#ffffff" stroke="#000000" points="1289,-80.0916 1289,-99.0916 1434,-99.0916 1434,-80.0916 1289,-80.0916"/>
<text text-anchor="middle" x="1361.5" y="-87.0916" font-family="Helvetica,sans-Serif" font-size="10.00" fill="#000000">chi::GraphStruct::modifyType</text>
</a>
</g>
</g>
<!-- Node884&#45;&gt;Node886 -->
<g id="edge31" class="edge">
<title>Node884&#45;&gt;Node886</title>
<path fill="none" stroke="#191970" d="M1237.7592,-58.7231C1272.229,-64.8745 1311.7497,-73.2567 1336.666,-79.9999"/>
<polygon fill="#191970" stroke="#191970" points="1238.1709,-55.2421 1227.718,-56.9704 1236.9672,-62.1379 1238.1709,-55.2421"/>
</g>
<!-- Node887 -->
<g id="node28" class="node">
<title>Node887</title>
<g id="a_node28"><a xlink:href="structchi_1_1GraphStruct.html#a759b0b44c984d7aaa6c2fb32e035264b" target="_top" xlink:title="Remove a type from a struct. ">
<polygon fill="#ffffff" stroke="#000000" points="1287.5,-4.0916 1287.5,-23.0916 1435.5,-23.0916 1435.5,-4.0916 1287.5,-4.0916"/>
<text text-anchor="middle" x="1361.5" y="-11.0916" font-family="Helvetica,sans-Serif" font-size="10.00" fill="#000000">chi::GraphStruct::removeType</text>
</a>
</g>
</g>
<!-- Node884&#45;&gt;Node887 -->
<g id="edge33" class="edge">
<title>Node884&#45;&gt;Node887</title>
<path fill="none" stroke="#191970" d="M1203.1333,-39.4498C1226.5239,-33.5723 1258.2991,-26.8944 1287.2489,-21.6231"/>
<polygon fill="#191970" stroke="#191970" points="1202.1325,-36.0936 1193.3363,-41.9993 1203.8954,-42.8679 1202.1325,-36.0936"/>
</g>
<!-- Node888 -->
<g id="node29" class="node">
<title>Node888</title>
<g id="a_node29"><a xlink:href="namespacechi.html#af74872167b12e4ad8a387faab1f03fbb" target="_top" xlink:title="Serialize a GraphStruct to json. ">
<polygon fill="#ffffff" stroke="#000000" points="1302.5,-42.0916 1302.5,-61.0916 1420.5,-61.0916 1420.5,-42.0916 1302.5,-42.0916"/>
<text text-anchor="middle" x="1361.5" y="-49.0916" font-family="Helvetica,sans-Serif" font-size="10.00" fill="#000000">chi::graphStructToJson</text>
</a>
</g>
</g>
<!-- Node884&#45;&gt;Node888 -->
<g id="edge36" class="edge">
<title>Node884&#45;&gt;Node888</title>
<path fill="none" stroke="#191970" d="M1237.9126,-51.5916C1259.0277,-51.5916 1282.0255,-51.5916 1302.394,-51.5916"/>
<polygon fill="#191970" stroke="#191970" points="1237.718,-48.0917 1227.718,-51.5916 1237.7179,-55.0917 1237.718,-48.0917"/>
</g>
<!-- Node885&#45;&gt;Node884 -->
<g id="edge30" class="edge">
<title>Node885&#45;&gt;Node884</title>
<path fill="none" stroke="#191970" d="M1286.0917,-118.6929C1285.052,-118.3311 1284.0209,-117.964 1283,-117.5916 1241.2769,-102.3764 1194.8609,-76.1449 1176.5504,-61.1052"/>
<polygon fill="#191970" stroke="#191970" points="1285.0462,-122.0333 1295.6383,-121.7952 1287.2096,-115.3759 1285.0462,-122.0333"/>
</g>
<!-- Node886&#45;&gt;Node884 -->
<g id="edge32" class="edge">
<title>Node886&#45;&gt;Node884</title>
<path fill="none" stroke="#191970" d="M1278.9908,-80.0329C1248.0312,-74.2198 1215.1087,-67.0762 1193.3363,-61.184"/>
<polygon fill="#191970" stroke="#191970" points="1278.4882,-83.4991 1288.9571,-81.8702 1279.7574,-76.6151 1278.4882,-83.4991"/>
</g>
<!-- Node887&#45;&gt;Node884 -->
<g id="edge34" class="edge">
<title>Node887&#45;&gt;Node884</title>
<path fill="none" stroke="#191970" d="M1326.7217,-25.7699C1299.2018,-32.6786 1260.142,-40.6858 1227.718,-46.2129"/>
<polygon fill="#191970" stroke="#191970" points="1327.8691,-29.088 1336.666,-23.1834 1326.107,-22.3134 1327.8691,-29.088"/>
</g>
<!-- Node888&#45;&gt;Node871 -->
<g id="edge37" class="edge">
<title>Node888&#45;&gt;Node871</title>
<path fill="none" stroke="#191970" d="M1430.1172,-64.7241C1433.5803,-66.4466 1436.9019,-68.3928 1440,-70.5916 1498.3337,-111.9935 1532.5176,-196.5582 1542.7329,-225.0087"/>
<polygon fill="#191970" stroke="#191970" points="1431.2456,-61.3996 1420.6761,-60.6675 1428.4821,-67.831 1431.2456,-61.3996"/>
</g>
<!-- Node890 -->
<g id="node31" class="node">
<title>Node890</title>
<g id="a_node31"><a xlink:href="structchi_1_1GraphFunction.html#a44f8f791775e4878b6bde37140cd131d" target="_top" xlink:title="Get the local variables. ">
<polygon fill="#ffffff" stroke="#000000" points="742.5,-191.5916 742.5,-221.5916 841.5,-221.5916 841.5,-191.5916 742.5,-191.5916"/>
<text text-anchor="start" x="750.5" y="-209.5916" font-family="Helvetica,sans-Serif" font-size="10.00" fill="#000000">chi::GraphFunction</text>
<text text-anchor="middle" x="792" y="-198.5916" font-family="Helvetica,sans-Serif" font-size="10.00" fill="#000000">::localVariables</text>
</a>
</g>
</g>
<!-- Node889&#45;&gt;Node890 -->
<g id="edge39" class="edge">
<title>Node889&#45;&gt;Node890</title>
<path fill="none" stroke="#191970" d="M673.1201,-175.1894C695.9312,-181.215 721.0384,-187.8471 742.278,-193.4575"/>
<polygon fill="#191970" stroke="#191970" points="673.7263,-171.7296 663.1641,-172.5595 671.9386,-178.4974 673.7263,-171.7296"/>
</g>
<!-- Node891 -->
<g id="node32" class="node">
<title>Node891</title>
<g id="a_node32"><a xlink:href="namespacechi.html#afd8b8d8a207d88359ad1e6a48d8f3bb1" target="_top" xlink:title="Serialize a GraphFunction to json. ">
<polygon fill="#ffffff" stroke="#000000" points="1104,-206.0916 1104,-225.0916 1233,-225.0916 1233,-206.0916 1104,-206.0916"/>
<text text-anchor="middle" x="1168.5" y="-213.0916" font-family="Helvetica,sans-Serif" font-size="10.00" fill="#000000">chi::graphFunctionToJson</text>
</a>
</g>
</g>
<!-- Node890&#45;&gt;Node891 -->
<g id="edge40" class="edge">
<title>Node890&#45;&gt;Node891</title>
<path fill="none" stroke="#191970" d="M851.8487,-208.0223C920.6656,-209.6673 1033.2167,-212.3578 1103.9533,-214.0487"/>
<polygon fill="#191970" stroke="#191970" points="851.6888,-204.5176 841.608,-207.7775 851.5214,-211.5156 851.6888,-204.5176"/>
</g>
<!-- Node891&#45;&gt;Node871 -->
<g id="edge41" class="edge">
<title>Node891&#45;&gt;Node871</title>
<path fill="none" stroke="#191970" d="M1243.5586,-219.3694C1314.1708,-222.9234 1418.6187,-228.1804 1484.452,-231.4939"/>
<polygon fill="#191970" stroke="#191970" points="1243.5579,-215.8651 1233.3946,-218.8579 1243.206,-222.8562 1243.5579,-215.8651"/>
</g>
<!-- Node892&#45;&gt;Node890 -->
<g id="edge43" class="edge">
<title>Node892&#45;&gt;Node890</title>
<path fill="none" stroke="#191970" d="M670.8388,-206.5916C694.2272,-206.5916 720.2833,-206.5916 742.2218,-206.5916"/>
<polygon fill="#191970" stroke="#191970" points="670.653,-203.0917 660.6529,-206.5916 670.6529,-210.0917 670.653,-203.0917"/>
</g>
<!-- Node894 -->
<g id="node35" class="node">
<title>Node894</title>
<g id="a_node35"><a xlink:href="structchi_1_1GraphStruct.html#a82a1da52a4bf23e1e7fef4d7228603b1" target="_top" xlink:title="Get the module. ">
<polygon fill="#ffffff" stroke="#000000" points="729.5,-97.0916 729.5,-116.0916 854.5,-116.0916 854.5,-97.0916 729.5,-97.0916"/>
<text text-anchor="middle" x="792" y="-104.0916" font-family="Helvetica,sans-Serif" font-size="10.00" fill="#000000">chi::GraphStruct::module</text>
</a>
</g>
</g>
<!-- Node893&#45;&gt;Node894 -->
<g id="edge45" class="edge">
<title>Node893&#45;&gt;Node894</title>
<path fill="none" stroke="#191970" d="M683.6247,-99.9275C698.835,-99.7589 714.6226,-99.8386 729.2871,-100.1666"/>
<polygon fill="#191970" stroke="#191970" points="683.154,-96.4341 673.2077,-100.0839 683.2591,-103.4333 683.154,-96.4341"/>
</g>
<!-- Node894&#45;&gt;Node883 -->
<g id="edge51" class="edge">
<title>Node894&#45;&gt;Node883</title>
<path fill="none" stroke="#191970" d="M835.0252,-94.1697C869.6756,-84.1656 917.673,-70.3081 949.3787,-61.1542"/>
<polygon fill="#191970" stroke="#191970" points="833.8193,-90.8748 825.1826,-97.0114 835.761,-97.6001 833.8193,-90.8748"/>
</g>
<!-- Node894&#45;&gt;Node885 -->
<g id="edge48" class="edge">
<title>Node894&#45;&gt;Node885</title>
<path fill="none" stroke="#191970" d="M865.0451,-111.2086C880.2302,-112.0785 896.1337,-112.9235 911,-113.5916 1047.7987,-119.7396 1208.0867,-124.0243 1295.8237,-126.1203"/>
<polygon fill="#191970" stroke="#191970" points="864.8553,-107.6917 854.6686,-110.6043 864.4482,-114.6798 864.8553,-107.6917"/>
</g>
<!-- Node894&#45;&gt;Node886 -->
<g id="edge49" class="edge">
<title>Node894&#45;&gt;Node886</title>
<path fill="none" stroke="#191970" d="M864.8572,-104.4168C974.2675,-101.1508 1179.7882,-95.0159 1288.993,-91.756"/>
<polygon fill="#191970" stroke="#191970" points="864.4666,-100.9268 854.5755,-104.7237 864.6756,-107.9237 864.4666,-100.9268"/>
</g>
<!-- Node894&#45;&gt;Node887 -->
<g id="edge50" class="edge">
<title>Node894&#45;&gt;Node887</title>
<path fill="none" stroke="#191970" d="M810.7779,-90.5571C833.0238,-72.6555 872.0062,-44.6214 911,-32.5916 1038.7254,6.8121 1196.4849,2.1046 1287.3912,-5.4004"/>
<polygon fill="#191970" stroke="#191970" points="808.339,-88.0314 802.8429,-97.0892 812.7879,-93.4358 808.339,-88.0314"/>
</g>
<!-- Node894&#45;&gt;Node893 -->
<g id="edge47" class="edge">
<title>Node894&#45;&gt;Node893</title>
<path fill="none" stroke="#191970" d="M718.9762,-113.2041C703.8839,-113.4175 688.061,-113.3826 673.2077,-113.0994"/>
<polygon fill="#191970" stroke="#191970" points="719.3524,-116.6979 729.2871,-113.0167 719.2251,-109.6991 719.3524,-116.6979"/>
</g>
<!-- Node895 -->
<g id="node36" class="node">
<title>Node895</title>
<g id="a_node36"><a xlink:href="structchi_1_1GraphModule.html#ac7147fb4875838de42b33a72834f3203" target="_top" xlink:title="Remove a struct from the module by pointer. ">
<polygon fill="#ffffff" stroke="#000000" points="917,-156.5916 917,-186.5916 1048,-186.5916 1048,-156.5916 917,-156.5916"/>
<text text-anchor="start" x="925" y="-174.5916" font-family="Helvetica,sans-Serif" font-size="10.00" fill="#000000">chi::GraphModule::remove</text>
<text text-anchor="middle" x="982.5" y="-163.5916" font-family="Helvetica,sans-Serif" font-size="10.00" fill="#000000">Struct</text>
</a>
</g>
</g>
<!-- Node894&#45;&gt;Node895 -->
<g id="edge46" class="edge">
<title>Node894&#45;&gt;Node895</title>
<path fill="none" stroke="#191970" d="M829.7621,-119.4764C861.0187,-130.1413 905.4705,-145.3086 938.3654,-156.5326"/>
<polygon fill="#191970" stroke="#191970" points="830.7034,-116.0995 820.1089,-116.1826 828.4429,-122.7244 830.7034,-116.0995"/>
</g>
</g>
</svg>
