<?xml version="1.0" encoding="UTF-8" standalone="no"?>
<!DOCTYPE svg PUBLIC "-//W3C//DTD SVG 1.1//EN"
 "http://www.w3.org/Graphics/SVG/1.1/DTD/svg11.dtd">
<!-- Generated by graphviz version 2.40.1 (20161225.0304)
 -->
<!-- Title: chig::ChigModule::dependencies Pages: 1 -->
<svg width="751pt" height="66pt"
 viewBox="0.00 0.00 751.00 66.00" xmlns="http://www.w3.org/2000/svg" xmlns:xlink="http://www.w3.org/1999/xlink">
<g id="graph0" class="graph" transform="scale(1 1) rotate(0) translate(4 62)">
<title>chig::ChigModule::dependencies</title>
<polygon fill="#ffffff" stroke="transparent" points="-4,4 -4,-62 747,-62 747,4 -4,4"/>
<!-- Node31 -->
<g id="node1" class="node">
<title>Node31</title>
<polygon fill="#bfbfbf" stroke="#000000" points="0,-19.5 0,-38.5 173,-38.5 173,-19.5 0,-19.5"/>
<text text-anchor="middle" x="86.5" y="-26.5" font-family="Helvetica,sans-Serif" font-size="10.00" fill="#000000">chig::ChigModule::dependencies</text>
</g>
<!-- Node32 -->
<g id="node2" class="node">
<title>Node32</title>
<g id="a_node2"><a xlink:href="structchig_1_1JsonModule.html#a200bbbf7eefaffdc40978c01d1053f46" target="_top" xlink:title="chig::JsonModule::toJSON">
<polygon fill="#ffffff" stroke="#000000" points="209,-19.5 209,-38.5 347,-38.5 347,-19.5 209,-19.5"/>
<text text-anchor="middle" x="278" y="-26.5" font-family="Helvetica,sans-Serif" font-size="10.00" fill="#000000">chig::JsonModule::toJSON</text>
</a>
</g>
</g>
<!-- Node31&#45;&gt;Node32 -->
<g id="edge1" class="edge">
<title>Node31&#45;&gt;Node32</title>
<path fill="none" stroke="#191970" d="M183.1546,-29C191.8104,-29 200.4565,-29 208.8097,-29"/>
<polygon fill="#191970" stroke="#191970" points="183.0058,-25.5001 173.0057,-29 183.0057,-32.5001 183.0058,-25.5001"/>
</g>
<!-- Node33 -->
<g id="node3" class="node">
<title>Node33</title>
<g id="a_node3"><a xlink:href="structchig_1_1JsonModule.html#ae0301727a42a28a7ec2b7116f6d54e04" target="_top" xlink:title="chig::JsonModule::saveToDisk">
<polygon fill="#ffffff" stroke="#000000" points="383,-38.5 383,-57.5 544,-57.5 544,-38.5 383,-38.5"/>
<text text-anchor="middle" x="463.5" y="-45.5" font-family="Helvetica,sans-Serif" font-size="10.00" fill="#000000">chig::JsonModule::saveToDisk</text>
</a>
</g>
</g>
<!-- Node32&#45;&gt;Node33 -->
<g id="edge2" class="edge">
<title>Node32&#45;&gt;Node33</title>
<path fill="none" stroke="#191970" d="M357.2816,-37.1205C365.7284,-37.9857 374.3274,-38.8664 382.7904,-39.7332"/>
<polygon fill="#191970" stroke="#191970" points="357.378,-33.6121 347.0734,-36.0749 356.6647,-40.5757 357.378,-33.6121"/>
</g>
<!-- Node35 -->
<g id="node5" class="node">
<title>Node35</title>
<g id="a_node5"><a xlink:href="structchig_1_1JsonModule.html#a51d5244f14c8b1e94cdd3985e3ae3db3" target="_top" xlink:title="Get the possible DataType names. ">
<polygon fill="#ffffff" stroke="#000000" points="581,-.5 581,-19.5 742,-19.5 742,-.5 581,-.5"/>
<text text-anchor="middle" x="661.5" y="-7.5" font-family="Helvetica,sans-Serif" font-size="10.00" fill="#000000">chig::JsonModule::typeNames</text>
</a>
</g>
</g>
<!-- Node32&#45;&gt;Node35 -->
<g id="edge5" class="edge">
<title>Node32&#45;&gt;Node35</title>
<path fill="none" stroke="#191970" d="M357.2568,-25.0733C422.6279,-21.8346 514.9852,-17.2589 580.7602,-14.0001"/>
<polygon fill="#191970" stroke="#191970" points="356.8196,-21.5906 347.005,-25.5812 357.166,-28.582 356.8196,-21.5906"/>
</g>
<!-- Node34 -->
<g id="node4" class="node">
<title>Node34</title>
<g id="a_node4"><a xlink:href="structchig_1_1Context.html#a9c11bfd47be5c451906840f293fa82c2" target="_top" xlink:title="chig::Context::newJsonModule">
<polygon fill="#ffffff" stroke="#000000" points="580,-38.5 580,-57.5 743,-57.5 743,-38.5 580,-38.5"/>
<text text-anchor="middle" x="661.5" y="-45.5" font-family="Helvetica,sans-Serif" font-size="10.00" fill="#000000">chig::Context::newJsonModule</text>
</a>
</g>
</g>
<!-- Node33&#45;&gt;Node34 -->
<g id="edge3" class="edge">
<title>Node33&#45;&gt;Node34</title>
<path fill="none" stroke="#191970" d="M554.0414,-48C562.6126,-48 571.2691,-48 579.7512,-48"/>
<polygon fill="#191970" stroke="#191970" points="554.0342,-44.5001 544.0342,-48 554.0341,-51.5001 554.0342,-44.5001"/>
</g>
<!-- Node33&#45;&gt;Node35 -->
<g id="edge4" class="edge">
<title>Node33&#45;&gt;Node35</title>
<path fill="none" stroke="#191970" d="M523.3659,-36.5106C551.6171,-31.0886 584.9357,-24.6942 611.7714,-19.5439"/>
<polygon fill="#191970" stroke="#191970" points="522.3693,-33.1379 513.2082,-38.46 523.6887,-40.0124 522.3693,-33.1379"/>
</g>
</g>
</svg>
