<?xml version="1.0" encoding="UTF-8" standalone="no"?>
<!DOCTYPE svg PUBLIC "-//W3C//DTD SVG 1.1//EN"
 "http://www.w3.org/Graphics/SVG/1.1/DTD/svg11.dtd">
<!-- Generated by graphviz version 2.40.1 (20161225.0304)
 -->
<!-- Title: chig::NodeType::dataOutputs Pages: 1 -->
<svg width="1069pt" height="164pt"
 viewBox="0.00 0.00 1069.00 163.71" xmlns="http://www.w3.org/2000/svg" xmlns:xlink="http://www.w3.org/1999/xlink">
<g id="graph0" class="graph" transform="scale(1 1) rotate(0) translate(4 159.7126)">
<title>chig::NodeType::dataOutputs</title>
<polygon fill="#ffffff" stroke="transparent" points="-4,4 -4,-159.7126 1065,-159.7126 1065,4 -4,4"/>
<!-- Node50 -->
<g id="node1" class="node">
<title>Node50</title>
<polygon fill="#bfbfbf" stroke="#000000" points="0,-30 0,-49 158,-49 158,-30 0,-30"/>
<text text-anchor="middle" x="79" y="-37" font-family="Helvetica,sans-Serif" font-size="10.00" fill="#000000">chig::NodeType::dataOutputs</text>
</g>
<!-- Node51 -->
<g id="node2" class="node">
<title>Node51</title>
<g id="a_node2"><a xlink:href="namespacechig.html#ad3c2fc880f6843f9a8a0f5ee0d62249d" target="_top" xlink:title="Connects two nodes&#39; data connections. ">
<polygon fill="#ffffff" stroke="#000000" points="194,-112 194,-131 298,-131 298,-112 194,-112"/>
<text text-anchor="middle" x="246" y="-119" font-family="Helvetica,sans-Serif" font-size="10.00" fill="#000000">chig::connectData</text>
</a>
</g>
</g>
<!-- Node50&#45;&gt;Node51 -->
<g id="edge1" class="edge">
<title>Node50&#45;&gt;Node51</title>
<path fill="none" stroke="#191970" d="M107.8788,-53.68C141.8849,-70.3776 197.4265,-97.6496 226.6402,-111.994"/>
<polygon fill="#191970" stroke="#191970" points="109.0028,-50.3328 98.4839,-49.0669 105.9175,-56.6162 109.0028,-50.3328"/>
</g>
<!-- Node55 -->
<g id="node6" class="node">
<title>Node55</title>
<g id="a_node6"><a xlink:href="namespacechig.html#a26aa6586df79345493de9fc130291c18" target="_top" xlink:title="Disconnect a data connection. ">
<polygon fill="#ffffff" stroke="#000000" points="480,-68 480,-87 599,-87 599,-68 480,-68"/>
<text text-anchor="middle" x="539.5" y="-75" font-family="Helvetica,sans-Serif" font-size="10.00" fill="#000000">chig::disconnectData</text>
</a>
</g>
</g>
<!-- Node50&#45;&gt;Node55 -->
<g id="edge17" class="edge">
<title>Node50&#45;&gt;Node55</title>
<path fill="none" stroke="#191970" d="M168.2749,-46.8669C260.0641,-54.4412 400.4462,-66.0254 479.6721,-72.5631"/>
<polygon fill="#191970" stroke="#191970" points="168.4168,-43.3668 158.1628,-46.0324 167.841,-50.3431 168.4168,-43.3668"/>
</g>
<!-- Node60 -->
<g id="node11" class="node">
<title>Node60</title>
<g id="a_node11"><a xlink:href="structchig_1_1NodeInstance.html#ab7b23fb84fff7176f7a6e62ce3762153" target="_top" xlink:title="Set the type of the node instance. ">
<polygon fill="#ffffff" stroke="#000000" points="636.5,-.5 636.5,-30.5 746.5,-30.5 746.5,-.5 636.5,-.5"/>
<text text-anchor="start" x="644.5" y="-18.5" font-family="Helvetica,sans-Serif" font-size="10.00" fill="#000000">chig::NodeInstance</text>
<text text-anchor="middle" x="691.5" y="-7.5" font-family="Helvetica,sans-Serif" font-size="10.00" fill="#000000">::setType</text>
</a>
</g>
</g>
<!-- Node50&#45;&gt;Node60 -->
<g id="edge18" class="edge">
<title>Node50&#45;&gt;Node60</title>
<path fill="none" stroke="#191970" d="M168.3358,-35.9995C296.8149,-30.9652 529.9579,-21.8298 636.1452,-17.669"/>
<polygon fill="#191970" stroke="#191970" points="167.9878,-32.5104 158.1325,-36.3993 168.2619,-39.505 167.9878,-32.5104"/>
</g>
<!-- Node52 -->
<g id="node3" class="node">
<title>Node52</title>
<g id="a_node3"><a xlink:href="structchig_1_1NodeInstance.html#ac06ee5988ee5f130088fee83a550f4d2" target="_top" xlink:title="Get the containing GraphFunction. ">
<polygon fill="#ffffff" stroke="#000000" points="334,-106.5 334,-136.5 444,-136.5 444,-106.5 334,-106.5"/>
<text text-anchor="start" x="342" y="-124.5" font-family="Helvetica,sans-Serif" font-size="10.00" fill="#000000">chig::NodeInstance</text>
<text text-anchor="middle" x="389" y="-113.5" font-family="Helvetica,sans-Serif" font-size="10.00" fill="#000000">::function</text>
</a>
</g>
</g>
<!-- Node51&#45;&gt;Node52 -->
<g id="edge2" class="edge">
<title>Node51&#45;&gt;Node52</title>
<path fill="none" stroke="#191970" d="M308.2958,-114.8C316.8104,-114.7071 325.5022,-114.7437 333.8771,-114.9099"/>
<polygon fill="#191970" stroke="#191970" points="307.9687,-111.305 298.0308,-114.9775 308.0899,-118.304 307.9687,-111.305"/>
</g>
<!-- Node54 -->
<g id="node5" class="node">
<title>Node54</title>
<g id="a_node5"><a xlink:href="structchig_1_1Graph.html#a1b1c12b94544f6bb8eb7b807ef2c0f7e" target="_top" xlink:title="Normal constructor (don&#39;t call this, let GraphFunction call it) ">
<polygon fill="#ffffff" stroke="#000000" points="638,-134 638,-153 745,-153 745,-134 638,-134"/>
<text text-anchor="middle" x="691.5" y="-141" font-family="Helvetica,sans-Serif" font-size="10.00" fill="#000000">chig::Graph::Graph</text>
</a>
</g>
</g>
<!-- Node51&#45;&gt;Node54 -->
<g id="edge16" class="edge">
<title>Node51&#45;&gt;Node54</title>
<path fill="none" stroke="#191970" d="M282.3692,-134.2779C298.0422,-139.1421 316.7088,-144.0915 334,-146.5 440.9659,-161.3992 567.6811,-154.6589 637.8834,-148.8122"/>
<polygon fill="#191970" stroke="#191970" points="283.1381,-130.8488 272.5468,-131.1213 280.9964,-137.5131 283.1381,-130.8488"/>
</g>
<!-- Node52&#45;&gt;Node51 -->
<g id="edge3" class="edge">
<title>Node52&#45;&gt;Node51</title>
<path fill="none" stroke="#191970" d="M323.8194,-128.2265C315.1772,-128.2909 306.4109,-128.2229 298.0308,-128.0225"/>
<polygon fill="#191970" stroke="#191970" points="323.9255,-131.7255 333.8771,-128.0901 323.8305,-124.7261 323.9255,-131.7255"/>
</g>
<!-- Node53 -->
<g id="node4" class="node">
<title>Node53</title>
<g id="a_node4"><a xlink:href="namespacechig.html#a8a2e0029b591b2c20b39d570753f123f" target="_top" xlink:title="Connects two nodes&#39; exec connections. ">
<polygon fill="#ffffff" stroke="#000000" points="487.5,-112 487.5,-131 591.5,-131 591.5,-112 487.5,-112"/>
<text text-anchor="middle" x="539.5" y="-119" font-family="Helvetica,sans-Serif" font-size="10.00" fill="#000000">chig::connectExec</text>
</a>
</g>
</g>
<!-- Node52&#45;&gt;Node53 -->
<g id="edge4" class="edge">
<title>Node52&#45;&gt;Node53</title>
<path fill="none" stroke="#191970" d="M454.2346,-114.8034C465.297,-114.6848 476.6534,-114.7638 487.3243,-115.0403"/>
<polygon fill="#191970" stroke="#191970" points="454.1274,-111.3046 444.1861,-114.9679 454.2421,-118.3037 454.1274,-111.3046"/>
</g>
<!-- Node52&#45;&gt;Node55 -->
<g id="edge7" class="edge">
<title>Node52&#45;&gt;Node55</title>
<path fill="none" stroke="#191970" d="M431.1907,-103.0311C447.7096,-97.5449 466.8813,-91.8084 484.4631,-87.0618"/>
<polygon fill="#191970" stroke="#191970" points="429.6242,-99.8671 421.286,-106.4036 431.8805,-106.4935 429.6242,-99.8671"/>
</g>
<!-- Node53&#45;&gt;Node52 -->
<g id="edge5" class="edge">
<title>Node53&#45;&gt;Node52</title>
<path fill="none" stroke="#191970" d="M477.023,-128.1628C466.1288,-128.3128 454.8665,-128.2692 444.1861,-128.0321"/>
<polygon fill="#191970" stroke="#191970" points="477.3953,-131.6562 487.3243,-127.9597 477.2572,-124.6576 477.3953,-131.6562"/>
</g>
<!-- Node53&#45;&gt;Node54 -->
<g id="edge6" class="edge">
<title>Node53&#45;&gt;Node54</title>
<path fill="none" stroke="#191970" d="M601.7247,-130.5062C613.6927,-132.2384 626.1321,-134.0389 637.8019,-135.7279"/>
<polygon fill="#191970" stroke="#191970" points="602.208,-127.0398 591.8098,-129.0712 601.2053,-133.9676 602.208,-127.0398"/>
</g>
<!-- Node55&#45;&gt;Node51 -->
<g id="edge8" class="edge">
<title>Node55&#45;&gt;Node51</title>
<path fill="none" stroke="#191970" d="M469.6061,-81.3564C429.6596,-84.2942 378.7572,-89.2799 334,-97.5 314.5309,-101.0757 293.0938,-106.8815 276.2523,-111.8871"/>
<polygon fill="#191970" stroke="#191970" points="470.0503,-84.8338 479.7776,-80.635 469.555,-77.8514 470.0503,-84.8338"/>
</g>
<!-- Node55&#45;&gt;Node52 -->
<g id="edge9" class="edge">
<title>Node55&#45;&gt;Node52</title>
<path fill="none" stroke="#191970" d="M512.5919,-90.6828C493.6096,-97.5611 467.5106,-105.5968 444.1861,-111.8979"/>
<polygon fill="#191970" stroke="#191970" points="513.9588,-93.908 522.0795,-87.1032 511.4877,-87.3586 513.9588,-93.908"/>
</g>
<!-- Node56 -->
<g id="node7" class="node">
<title>Node56</title>
<g id="a_node7"><a xlink:href="structchig_1_1GraphFunction.html#a398599d8fe1982a3c76462b1b2375a6e" target="_top" xlink:title="Remove a node from the function. ">
<polygon fill="#ffffff" stroke="#000000" points="635,-62.5 635,-92.5 748,-92.5 748,-62.5 635,-62.5"/>
<text text-anchor="start" x="643" y="-80.5" font-family="Helvetica,sans-Serif" font-size="10.00" fill="#000000">chig::GraphFunction</text>
<text text-anchor="middle" x="691.5" y="-69.5" font-family="Helvetica,sans-Serif" font-size="10.00" fill="#000000">::removeNode</text>
</a>
</g>
</g>
<!-- Node55&#45;&gt;Node56 -->
<g id="edge10" class="edge">
<title>Node55&#45;&gt;Node56</title>
<path fill="none" stroke="#191970" d="M609.3424,-77.5C617.7724,-77.5 626.3042,-77.5 634.5191,-77.5"/>
<polygon fill="#191970" stroke="#191970" points="609.1382,-74.0001 599.1382,-77.5 609.1381,-81.0001 609.1382,-74.0001"/>
</g>
<!-- Node55&#45;&gt;Node60 -->
<g id="edge15" class="edge">
<title>Node55&#45;&gt;Node60</title>
<path fill="none" stroke="#191970" d="M572.3618,-64.0958C596.5138,-54.2444 629.3559,-40.8483 654.4419,-30.6158"/>
<polygon fill="#191970" stroke="#191970" points="570.8543,-60.9307 562.9169,-67.9484 573.4982,-67.4122 570.8543,-60.9307"/>
</g>
<!-- Node57 -->
<g id="node8" class="node">
<title>Node57</title>
<g id="a_node8"><a xlink:href="structchig_1_1GraphFunction.html#a70b74dd7330f7afb2b3ab38feebd57c5" target="_top" xlink:title="Add a node to the graph. ">
<polygon fill="#ffffff" stroke="#000000" points="784,-62.5 784,-92.5 897,-92.5 897,-62.5 784,-62.5"/>
<text text-anchor="start" x="792" y="-80.5" font-family="Helvetica,sans-Serif" font-size="10.00" fill="#000000">chig::GraphFunction</text>
<text text-anchor="middle" x="840.5" y="-69.5" font-family="Helvetica,sans-Serif" font-size="10.00" fill="#000000">::insertNode</text>
</a>
</g>
</g>
<!-- Node56&#45;&gt;Node57 -->
<g id="edge11" class="edge">
<title>Node56&#45;&gt;Node57</title>
<path fill="none" stroke="#191970" d="M758.5076,-77.5C766.9902,-77.5 775.6037,-77.5 783.9022,-77.5"/>
<polygon fill="#191970" stroke="#191970" points="758.2556,-74.0001 748.2556,-77.5 758.2555,-81.0001 758.2556,-74.0001"/>
</g>
<!-- Node58 -->
<g id="node9" class="node">
<title>Node58</title>
<g id="a_node9"><a xlink:href="structchig_1_1GraphFunction.html#a1fd77fbd5bb46690fdc79cd9c6d35917" target="_top" xlink:title="Creates an entry node if it doesn&#39;t already exist, else just return it. ">
<polygon fill="#ffffff" stroke="#000000" points="933,-62.5 933,-92.5 1061,-92.5 1061,-62.5 933,-62.5"/>
<text text-anchor="start" x="941" y="-80.5" font-family="Helvetica,sans-Serif" font-size="10.00" fill="#000000">chig::GraphFunction</text>
<text text-anchor="middle" x="997" y="-69.5" font-family="Helvetica,sans-Serif" font-size="10.00" fill="#000000">::getOrInsertEntryNode</text>
</a>
</g>
</g>
<!-- Node57&#45;&gt;Node58 -->
<g id="edge12" class="edge">
<title>Node57&#45;&gt;Node58</title>
<path fill="none" stroke="#191970" d="M907.2454,-70.8153C915.7427,-70.7182 924.4251,-70.7294 932.8798,-70.8488"/>
<polygon fill="#191970" stroke="#191970" points="906.9399,-67.3198 897.0001,-70.9873 907.0575,-74.3188 906.9399,-67.3198"/>
</g>
<!-- Node59 -->
<g id="node10" class="node">
<title>Node59</title>
<g id="a_node10"><a xlink:href="structchig_1_1GraphFunction.html#a449ab966907b5e32dd00d5f6bb1b3ede" target="_top" xlink:title="Add a node to the graph using module, type, and json. ">
<polygon fill="#ffffff" stroke="#000000" points="940.5,-13.5 940.5,-43.5 1053.5,-43.5 1053.5,-13.5 940.5,-13.5"/>
<text text-anchor="start" x="948.5" y="-31.5" font-family="Helvetica,sans-Serif" font-size="10.00" fill="#000000">chig::GraphFunction</text>
<text text-anchor="middle" x="997" y="-20.5" font-family="Helvetica,sans-Serif" font-size="10.00" fill="#000000">::insertNode</text>
</a>
</g>
</g>
<!-- Node57&#45;&gt;Node59 -->
<g id="edge14" class="edge">
<title>Node57&#45;&gt;Node59</title>
<path fill="none" stroke="#191970" d="M898.3504,-59.3871C914.9883,-54.1778 932.9489,-48.5543 948.9271,-43.5516"/>
<polygon fill="#191970" stroke="#191970" points="897.2295,-56.0704 888.7322,-62.3986 899.3211,-62.7506 897.2295,-56.0704"/>
</g>
<!-- Node58&#45;&gt;Node57 -->
<g id="edge13" class="edge">
<title>Node58&#45;&gt;Node57</title>
<path fill="none" stroke="#191970" d="M922.7643,-84.2421C914.0999,-84.2762 905.3697,-84.1998 897.0001,-84.0127"/>
<polygon fill="#191970" stroke="#191970" points="922.9117,-87.741 932.8798,-84.1512 922.8487,-80.7413 922.9117,-87.741"/>
</g>
</g>
</svg>
