<?xml version="1.0" encoding="UTF-8" standalone="no"?>
<!DOCTYPE svg PUBLIC "-//W3C//DTD SVG 1.1//EN"
 "http://www.w3.org/Graphics/SVG/1.1/DTD/svg11.dtd">
<!-- Generated by graphviz version 2.40.1 (20161225.0304)
 -->
<!-- Title: chi::ModuleCache::retrieveFromCache Pages: 1 -->
<svg width="317pt" height="78pt"
 viewBox="0.00 0.00 317.00 77.50" xmlns="http://www.w3.org/2000/svg" xmlns:xlink="http://www.w3.org/1999/xlink">
<g id="graph0" class="graph" transform="scale(1 1) rotate(0) translate(4 73.5)">
<title>chi::ModuleCache::retrieveFromCache</title>
<polygon fill="#ffffff" stroke="transparent" points="-4,4 -4,-73.5 313,-73.5 313,4 -4,4"/>
<!-- Node18 -->
<g id="node1" class="node">
<title>Node18</title>
<polygon fill="#bfbfbf" stroke="#000000" points="0,-22.5 0,-52.5 133,-52.5 133,-22.5 0,-22.5"/>
<text text-anchor="start" x="8" y="-40.5" font-family="Helvetica,sans-Serif" font-size="10.00" fill="#000000">chi::ModuleCache::retrieve</text>
<text text-anchor="middle" x="66.5" y="-29.5" font-family="Helvetica,sans-Serif" font-size="10.00" fill="#000000">FromCache</text>
</g>
<!-- Node19 -->
<g id="node2" class="node">
<title>Node19</title>
<g id="a_node2"><a xlink:href="structchi_1_1Context.html#ae21e68cd2d6ec6a8d6923fa330b36827" target="_top" xlink:title="Compile a module to a llvm::Module. ">
<polygon fill="#ffffff" stroke="#000000" points="169,-50 169,-69 309,-69 309,-50 169,-50"/>
<text text-anchor="middle" x="239" y="-57" font-family="Helvetica,sans-Serif" font-size="10.00" fill="#000000">chi::Context::compileModule</text>
</a>
</g>
</g>
<!-- Node18&#45;&gt;Node19 -->
<g id="edge1" class="edge">
<title>Node18&#45;&gt;Node19</title>
<path fill="none" stroke="#191970" d="M143.1314,-47.2733C151.6645,-48.3616 160.3248,-49.4661 168.7725,-50.5435"/>
<polygon fill="#191970" stroke="#191970" points="143.5555,-43.7991 133.193,-46.0058 142.6698,-50.7429 143.5555,-43.7991"/>
</g>
<!-- Node20 -->
<g id="node3" class="node">
<title>Node20</title>
<g id="a_node3"><a xlink:href="structchi_1_1ModuleCache.html#a471e0c0822bccdd1fa5ed1bc34f7d641" target="_top" xlink:title="Create a module cache with a bound context. ">
<polygon fill="#ffffff" stroke="#000000" points="173,-.5 173,-30.5 305,-30.5 305,-.5 173,-.5"/>
<text text-anchor="start" x="181" y="-18.5" font-family="Helvetica,sans-Serif" font-size="10.00" fill="#000000">chi::ModuleCache::Module</text>
<text text-anchor="middle" x="239" y="-7.5" font-family="Helvetica,sans-Serif" font-size="10.00" fill="#000000">Cache</text>
</a>
</g>
</g>
<!-- Node18&#45;&gt;Node20 -->
<g id="edge2" class="edge">
<title>Node18&#45;&gt;Node20</title>
<path fill="none" stroke="#191970" d="M143.3418,-27.6999C153.1585,-26.4479 163.1397,-25.1749 172.7686,-23.9469"/>
<polygon fill="#191970" stroke="#191970" points="142.6698,-24.2571 133.193,-28.9942 143.5555,-31.2009 142.6698,-24.2571"/>
</g>
</g>
</svg>
