<?xml version="1.0" encoding="UTF-8" standalone="no"?>
<!DOCTYPE svg PUBLIC "-//W3C//DTD SVG 1.1//EN"
 "http://www.w3.org/Graphics/SVG/1.1/DTD/svg11.dtd">
<!-- Generated by graphviz version 2.40.1 (20161225.0304)
 -->
<!-- Title: chig::NodeType::module Pages: 1 -->
<svg width="2075pt" height="291pt"
 viewBox="0.00 0.00 2075.00 291.00" xmlns="http://www.w3.org/2000/svg" xmlns:xlink="http://www.w3.org/1999/xlink">
<g id="graph0" class="graph" transform="scale(1 1) rotate(0) translate(4 287)">
<title>chig::NodeType::module</title>
<polygon fill="#ffffff" stroke="transparent" points="-4,4 -4,-287 2071,-287 2071,4 -4,4"/>
<!-- Node158 -->
<g id="node1" class="node">
<title>Node158</title>
<polygon fill="#bfbfbf" stroke="#000000" points="0,-176 0,-195 122,-195 122,-176 0,-176"/>
<text text-anchor="middle" x="61" y="-183" font-family="Helvetica,sans-Serif" font-size="10.00" fill="#000000">chig::NodeType::module</text>
</g>
<!-- Node159 -->
<g id="node2" class="node">
<title>Node159</title>
<g id="a_node2"><a xlink:href="structchig_1_1NodeType.html#aec01c9c30813ec9f0e15dda0f7ae34f3" target="_top" xlink:title="Get the qualified name of the node type, like module.name():name() ">
<polygon fill="#ffffff" stroke="#000000" points="158,-176 158,-195 310,-195 310,-176 158,-176"/>
<text text-anchor="middle" x="234" y="-183" font-family="Helvetica,sans-Serif" font-size="10.00" fill="#000000">chig::NodeType::qualifiedName</text>
</a>
</g>
</g>
<!-- Node158&#45;&gt;Node159 -->
<g id="edge1" class="edge">
<title>Node158&#45;&gt;Node159</title>
<path fill="none" stroke="#191970" d="M132.5574,-185.5C140.9145,-185.5 149.4636,-185.5 157.8797,-185.5"/>
<polygon fill="#191970" stroke="#191970" points="132.4805,-182.0001 122.4804,-185.5 132.4804,-189.0001 132.4805,-182.0001"/>
</g>
<!-- Node160 -->
<g id="node3" class="node">
<title>Node160</title>
<g id="a_node3"><a xlink:href="namespacechig.html#ae2ff27777b91f651f86d9a8e8ef0b986" target="_top" xlink:title="Make sure that connections connect back and that they have the same types. ">
<polygon fill="#ffffff" stroke="#000000" points="346,-252.5 346,-282.5 512,-282.5 512,-252.5 346,-252.5"/>
<text text-anchor="start" x="354" y="-270.5" font-family="Helvetica,sans-Serif" font-size="10.00" fill="#000000">chig::validateFunctionConnections</text>
<text text-anchor="middle" x="429" y="-259.5" font-family="Helvetica,sans-Serif" font-size="10.00" fill="#000000">AreTwoWay</text>
</a>
</g>
</g>
<!-- Node159&#45;&gt;Node160 -->
<g id="edge2" class="edge">
<title>Node159&#45;&gt;Node160</title>
<path fill="none" stroke="#191970" d="M262.4794,-199.5667C284.9345,-210.4517 317.1643,-225.6216 346,-237.5 358.6088,-242.694 372.4823,-247.9025 385.2172,-252.4876"/>
<polygon fill="#191970" stroke="#191970" points="263.7178,-196.2768 253.1953,-195.0405 260.6502,-202.5688 263.7178,-196.2768"/>
</g>
<!-- Node164 -->
<g id="node7" class="node">
<title>Node164</title>
<g id="a_node7"><a xlink:href="namespacechig.html#ad3c2fc880f6843f9a8a0f5ee0d62249d" target="_top" xlink:title="Connects two nodes&#39; data connections. ">
<polygon fill="#ffffff" stroke="#000000" points="556.5,-176 556.5,-195 651.5,-195 651.5,-176 556.5,-176"/>
<text text-anchor="middle" x="604" y="-183" font-family="Helvetica,sans-Serif" font-size="10.00" fill="#000000">chig::connectData</text>
</a>
</g>
</g>
<!-- Node159&#45;&gt;Node164 -->
<g id="edge6" class="edge">
<title>Node159&#45;&gt;Node164</title>
<path fill="none" stroke="#191970" d="M320.3897,-185.5C393.9285,-185.5 496.8402,-185.5 556.3477,-185.5"/>
<polygon fill="#191970" stroke="#191970" points="320.2156,-182.0001 310.2156,-185.5 320.2156,-189.0001 320.2156,-182.0001"/>
</g>
<!-- Node179 -->
<g id="node22" class="node">
<title>Node179</title>
<g id="a_node22"><a xlink:href="namespacechig.html#a8a2e0029b591b2c20b39d570753f123f" target="_top" xlink:title="Connects two nodes&#39; exec connections. ">
<polygon fill="#ffffff" stroke="#000000" points="555,-214 555,-233 653,-233 653,-214 555,-214"/>
<text text-anchor="middle" x="604" y="-221" font-family="Helvetica,sans-Serif" font-size="10.00" fill="#000000">chig::connectExec</text>
</a>
</g>
</g>
<!-- Node159&#45;&gt;Node179 -->
<g id="edge22" class="edge">
<title>Node159&#45;&gt;Node179</title>
<path fill="none" stroke="#191970" d="M317.4493,-196.2261C327.0715,-197.3753 336.7468,-198.4915 346,-199.5 418.6704,-207.4199 503.0387,-214.9555 554.9732,-219.4035"/>
<polygon fill="#191970" stroke="#191970" points="317.8087,-192.7441 307.4611,-195.0196 316.9692,-199.6936 317.8087,-192.7441"/>
</g>
<!-- Node180 -->
<g id="node23" class="node">
<title>Node180</title>
<g id="a_node23"><a xlink:href="namespacechig.html#a26aa6586df79345493de9fc130291c18" target="_top" xlink:title="Disconnect a data connection. ">
<polygon fill="#ffffff" stroke="#000000" points="375,-94 375,-113 483,-113 483,-94 375,-94"/>
<text text-anchor="middle" x="429" y="-101" font-family="Helvetica,sans-Serif" font-size="10.00" fill="#000000">chig::disconnectData</text>
</a>
</g>
</g>
<!-- Node159&#45;&gt;Node180 -->
<g id="edge25" class="edge">
<title>Node159&#45;&gt;Node180</title>
<path fill="none" stroke="#191970" d="M259.4723,-170.8841C281.7867,-158.4846 315.3498,-140.8012 346,-128.5 360.8043,-122.5584 377.579,-117.251 392.1541,-113.0713"/>
<polygon fill="#191970" stroke="#191970" points="257.6451,-167.896 250.6389,-175.8435 261.0721,-173.9997 257.6451,-167.896"/>
</g>
<!-- Node187 -->
<g id="node30" class="node">
<title>Node187</title>
<g id="a_node30"><a xlink:href="namespacechig.html#ad24a330508033631ef29b2f6e5cf6210" target="_top" xlink:title="Disconnect a exec connection. ">
<polygon fill="#ffffff" stroke="#000000" points="374,-138 374,-157 484,-157 484,-138 374,-138"/>
<text text-anchor="middle" x="429" y="-145" font-family="Helvetica,sans-Serif" font-size="10.00" fill="#000000">chig::disconnectExec</text>
</a>
</g>
</g>
<!-- Node159&#45;&gt;Node187 -->
<g id="edge35" class="edge">
<title>Node159&#45;&gt;Node187</title>
<path fill="none" stroke="#191970" d="M292.9588,-174.0106C320.782,-168.5886 353.5957,-162.1942 380.0248,-157.0439"/>
<polygon fill="#191970" stroke="#191970" points="292.1009,-170.6118 282.955,-175.96 293.4399,-177.4826 292.1009,-170.6118"/>
</g>
<!-- Node161 -->
<g id="node4" class="node">
<title>Node161</title>
<g id="a_node4"><a xlink:href="namespacechig.html#afccf44a2370371aae836862d9731155e" target="_top" xlink:title="Validate that a function is compilable. ">
<polygon fill="#ffffff" stroke="#000000" points="548,-258 548,-277 660,-277 660,-258 548,-258"/>
<text text-anchor="middle" x="604" y="-265" font-family="Helvetica,sans-Serif" font-size="10.00" fill="#000000">chig::validateFunction</text>
</a>
</g>
</g>
<!-- Node160&#45;&gt;Node161 -->
<g id="edge3" class="edge">
<title>Node160&#45;&gt;Node161</title>
<path fill="none" stroke="#191970" d="M522.2692,-267.5C530.8825,-267.5 539.421,-267.5 547.5487,-267.5"/>
<polygon fill="#191970" stroke="#191970" points="522.1437,-264.0001 512.1437,-267.5 522.1437,-271.0001 522.1437,-264.0001"/>
</g>
<!-- Node162 -->
<g id="node5" class="node">
<title>Node162</title>
<g id="a_node5"><a xlink:href="namespacechig.html#a4f26546c4bc76c31cc822d0365be0f30" target="_top" xlink:title="Compile the graph to an llvm::Function (usually called from JsonModule::generateModule) ...">
<polygon fill="#ffffff" stroke="#000000" points="707,-258 707,-277 819,-277 819,-258 707,-258"/>
<text text-anchor="middle" x="763" y="-265" font-family="Helvetica,sans-Serif" font-size="10.00" fill="#000000">chig::compileFunction</text>
</a>
</g>
</g>
<!-- Node161&#45;&gt;Node162 -->
<g id="edge4" class="edge">
<title>Node161&#45;&gt;Node162</title>
<path fill="none" stroke="#191970" d="M670.186,-267.5C682.3959,-267.5 695.037,-267.5 706.9128,-267.5"/>
<polygon fill="#191970" stroke="#191970" points="670.0575,-264.0001 660.0575,-267.5 670.0574,-271.0001 670.0575,-264.0001"/>
</g>
<!-- Node163 -->
<g id="node6" class="node">
<title>Node163</title>
<g id="a_node6"><a xlink:href="structchig_1_1GraphModule.html#a4c3a1ba833c0bd7e9a3daf0fd42eb6c6" target="_top" xlink:title="Generate a llvm::Module from the module. ">
<polygon fill="#ffffff" stroke="#000000" points="888,-252.5 888,-282.5 992,-282.5 992,-252.5 888,-252.5"/>
<text text-anchor="start" x="896" y="-270.5" font-family="Helvetica,sans-Serif" font-size="10.00" fill="#000000">chig::GraphModule::</text>
<text text-anchor="middle" x="940" y="-259.5" font-family="Helvetica,sans-Serif" font-size="10.00" fill="#000000">generateModule</text>
</a>
</g>
</g>
<!-- Node162&#45;&gt;Node163 -->
<g id="edge5" class="edge">
<title>Node162&#45;&gt;Node163</title>
<path fill="none" stroke="#191970" d="M829.0213,-267.5C848.4901,-267.5 869.5131,-267.5 887.9708,-267.5"/>
<polygon fill="#191970" stroke="#191970" points="829.0039,-264.0001 819.0039,-267.5 829.0039,-271.0001 829.0039,-264.0001"/>
</g>
<!-- Node165 -->
<g id="node8" class="node">
<title>Node165</title>
<g id="a_node8"><a xlink:href="namespacechig.html#a62056798e67720d435705b99f7e16cd0" target="_top" xlink:title="Load a GraphFunction–must already exist (use createGraphFunctionDeclarationFromJson) ...">
<polygon fill="#ffffff" stroke="#000000" points="696,-182 696,-201 830,-201 830,-182 696,-182"/>
<text text-anchor="middle" x="763" y="-189" font-family="Helvetica,sans-Serif" font-size="10.00" fill="#000000">chig::jsonToGraphFunction</text>
</a>
</g>
</g>
<!-- Node164&#45;&gt;Node165 -->
<g id="edge7" class="edge">
<title>Node164&#45;&gt;Node165</title>
<path fill="none" stroke="#191970" d="M661.7098,-187.6777C672.8222,-188.0971 684.5502,-188.5396 695.9297,-188.969"/>
<polygon fill="#191970" stroke="#191970" points="661.8301,-184.1799 651.7052,-187.3002 661.5661,-191.1749 661.8301,-184.1799"/>
</g>
<!-- Node175 -->
<g id="node18" class="node">
<title>Node175</title>
<g id="a_node18"><a xlink:href="structchig_1_1NodeInstance.html#acb8bab6d96bbfa9facdfb5aca22d43a1" target="_top" xlink:title="Get the containing GraphModule. ">
<polygon fill="#ffffff" stroke="#000000" points="712.5,-132.5 712.5,-162.5 813.5,-162.5 813.5,-132.5 712.5,-132.5"/>
<text text-anchor="start" x="720.5" y="-150.5" font-family="Helvetica,sans-Serif" font-size="10.00" fill="#000000">chig::NodeInstance</text>
<text text-anchor="middle" x="763" y="-139.5" font-family="Helvetica,sans-Serif" font-size="10.00" fill="#000000">::module</text>
</a>
</g>
</g>
<!-- Node164&#45;&gt;Node175 -->
<g id="edge17" class="edge">
<title>Node164&#45;&gt;Node175</title>
<path fill="none" stroke="#191970" d="M653.8855,-173.5777C672.5009,-169.1287 693.644,-164.0756 712.3294,-159.6099"/>
<polygon fill="#191970" stroke="#191970" points="653.0349,-170.1823 644.1224,-175.911 654.6621,-176.9906 653.0349,-170.1823"/>
</g>
<!-- Node166 -->
<g id="node9" class="node">
<title>Node166</title>
<g id="a_node9"><a xlink:href="namespacechig.html#a3b1bc50c9d7b3cdb17ffcb3ad602f7ab" target="_top" xlink:title="Load a GraphModule from json. ">
<polygon fill="#ffffff" stroke="#000000" points="876,-182 876,-201 1004,-201 1004,-182 876,-182"/>
<text text-anchor="middle" x="940" y="-189" font-family="Helvetica,sans-Serif" font-size="10.00" fill="#000000">chig::jsonToGraphModule</text>
</a>
</g>
</g>
<!-- Node165&#45;&gt;Node166 -->
<g id="edge8" class="edge">
<title>Node165&#45;&gt;Node166</title>
<path fill="none" stroke="#191970" d="M840.4503,-191.5C852.2527,-191.5 864.3216,-191.5 875.7993,-191.5"/>
<polygon fill="#191970" stroke="#191970" points="840.1685,-188.0001 830.1685,-191.5 840.1685,-195.0001 840.1685,-188.0001"/>
</g>
<!-- Node167 -->
<g id="node10" class="node">
<title>Node167</title>
<g id="a_node10"><a xlink:href="structchig_1_1Context.html#a077f8ef8c0dd541ec2e2d64bcd8f9fc0" target="_top" xlink:title="Load a module from JSON – avoid this use the string overload. ">
<polygon fill="#ffffff" stroke="#000000" points="1050,-166.5 1050,-196.5 1178,-196.5 1178,-166.5 1050,-166.5"/>
<text text-anchor="start" x="1058" y="-184.5" font-family="Helvetica,sans-Serif" font-size="10.00" fill="#000000">chig::Context::addModule</text>
<text text-anchor="middle" x="1114" y="-173.5" font-family="Helvetica,sans-Serif" font-size="10.00" fill="#000000">FromJson</text>
</a>
</g>
</g>
<!-- Node166&#45;&gt;Node167 -->
<g id="edge9" class="edge">
<title>Node166&#45;&gt;Node167</title>
<path fill="none" stroke="#191970" d="M1014.5549,-187.2152C1026.3445,-186.5377 1038.4454,-185.8422 1049.9675,-185.18"/>
<polygon fill="#191970" stroke="#191970" points="1014.0795,-183.7367 1004.2968,-187.8048 1014.4812,-190.7252 1014.0795,-183.7367"/>
</g>
<!-- Node168 -->
<g id="node11" class="node">
<title>Node168</title>
<g id="a_node11"><a xlink:href="structchig_1_1Context.html#a75ab64b58e168998761ed6ebd5e493b2" target="_top" xlink:title="Load a module from disk. ">
<polygon fill="#ffffff" stroke="#000000" points="1216,-161 1216,-180 1346,-180 1346,-161 1216,-161"/>
<text text-anchor="middle" x="1281" y="-168" font-family="Helvetica,sans-Serif" font-size="10.00" fill="#000000">chig::Context::loadModule</text>
</a>
</g>
</g>
<!-- Node167&#45;&gt;Node168 -->
<g id="edge10" class="edge">
<title>Node167&#45;&gt;Node168</title>
<path fill="none" stroke="#191970" d="M1188.0904,-176.6198C1197.3848,-176.0076 1206.8368,-175.385 1215.9777,-174.7829"/>
<polygon fill="#191970" stroke="#191970" points="1187.8373,-173.1288 1178.089,-177.2786 1188.2974,-180.1137 1187.8373,-173.1288"/>
</g>
<!-- Node169 -->
<g id="node12" class="node">
<title>Node169</title>
<g id="a_node12"><a xlink:href="structchig_1_1ChigModule.html#ad5feee65f261f3777edddd027eb89400" target="_top" xlink:title="Add a dependency to the module Loads the module from context() if it isn&#39;t already loaded...">
<polygon fill="#ffffff" stroke="#000000" points="1384,-150 1384,-169 1551,-169 1551,-150 1384,-150"/>
<text text-anchor="middle" x="1467.5" y="-157" font-family="Helvetica,sans-Serif" font-size="10.00" fill="#000000">chig::ChigModule::addDependency</text>
</a>
</g>
</g>
<!-- Node168&#45;&gt;Node169 -->
<g id="edge11" class="edge">
<title>Node168&#45;&gt;Node169</title>
<path fill="none" stroke="#191970" d="M1356.3625,-166.055C1365.4439,-165.5194 1374.7603,-164.9699 1383.9498,-164.4279"/>
<polygon fill="#191970" stroke="#191970" points="1356.0052,-162.5699 1346.2286,-166.6527 1356.4174,-169.5578 1356.0052,-162.5699"/>
</g>
<!-- Node170 -->
<g id="node13" class="node">
<title>Node170</title>
<g id="a_node13"><a xlink:href="structchig_1_1ChigModule.html#a7f239dc07b0a4d74d6907da6f25127dc" target="_top" xlink:title="Get the dependencies. ">
<polygon fill="#ffffff" stroke="#000000" points="1587,-106 1587,-125 1745,-125 1745,-106 1587,-106"/>
<text text-anchor="middle" x="1666" y="-113" font-family="Helvetica,sans-Serif" font-size="10.00" fill="#000000">chig::ChigModule::dependencies</text>
</a>
</g>
</g>
<!-- Node169&#45;&gt;Node170 -->
<g id="edge12" class="edge">
<title>Node169&#45;&gt;Node170</title>
<path fill="none" stroke="#191970" d="M1520.6623,-147.7159C1552.7059,-140.6131 1592.988,-131.684 1623.0125,-125.0287"/>
<polygon fill="#191970" stroke="#191970" points="1519.5771,-144.3714 1510.5715,-149.9527 1521.092,-151.2055 1519.5771,-144.3714"/>
</g>
<!-- Node174 -->
<g id="node17" class="node">
<title>Node174</title>
<g id="a_node17"><a xlink:href="structchig_1_1GraphModule.html#a65458343d0344b6b806f9b0b780b32f4" target="_top" xlink:title="Construct a GraphModule. ">
<polygon fill="#ffffff" stroke="#000000" points="1614,-144.5 1614,-174.5 1718,-174.5 1718,-144.5 1614,-144.5"/>
<text text-anchor="start" x="1622" y="-162.5" font-family="Helvetica,sans-Serif" font-size="10.00" fill="#000000">chig::GraphModule::</text>
<text text-anchor="middle" x="1666" y="-151.5" font-family="Helvetica,sans-Serif" font-size="10.00" fill="#000000">GraphModule</text>
</a>
</g>
</g>
<!-- Node169&#45;&gt;Node174 -->
<g id="edge16" class="edge">
<title>Node169&#45;&gt;Node174</title>
<path fill="none" stroke="#191970" d="M1561.1462,-159.5C1579.2917,-159.5 1597.6879,-159.5 1613.8981,-159.5"/>
<polygon fill="#191970" stroke="#191970" points="1561.1066,-156.0001 1551.1066,-159.5 1561.1065,-163.0001 1561.1066,-156.0001"/>
</g>
<!-- Node171 -->
<g id="node14" class="node">
<title>Node171</title>
<g id="a_node14"><a xlink:href="structchig_1_1Context.html#ac585794db13b27b3f69a51aa9d7fd01c" target="_top" xlink:title="Compile a module to a llvm::Module. ">
<polygon fill="#ffffff" stroke="#000000" points="1781,-106 1781,-125 1927,-125 1927,-106 1781,-106"/>
<text text-anchor="middle" x="1854" y="-113" font-family="Helvetica,sans-Serif" font-size="10.00" fill="#000000">chig::Context::compileModule</text>
</a>
</g>
</g>
<!-- Node170&#45;&gt;Node171 -->
<g id="edge13" class="edge">
<title>Node170&#45;&gt;Node171</title>
<path fill="none" stroke="#191970" d="M1755.2342,-115.5C1763.831,-115.5 1772.4811,-115.5 1780.8959,-115.5"/>
<polygon fill="#191970" stroke="#191970" points="1755.1841,-112.0001 1745.184,-115.5 1755.184,-119.0001 1755.1841,-112.0001"/>
</g>
<!-- Node172 -->
<g id="node15" class="node">
<title>Node172</title>
<g id="a_node15"><a xlink:href="namespacechig.html#aaef3bb08f472ae32b2d3b292e69a007a" target="_top" xlink:title="Serialize a JsonModule to json. ">
<polygon fill="#ffffff" stroke="#000000" points="1790,-68 1790,-87 1918,-87 1918,-68 1790,-68"/>
<text text-anchor="middle" x="1854" y="-75" font-family="Helvetica,sans-Serif" font-size="10.00" fill="#000000">chig::graphModuleToJson</text>
</a>
</g>
</g>
<!-- Node170&#45;&gt;Node172 -->
<g id="edge14" class="edge">
<title>Node170&#45;&gt;Node172</title>
<path fill="none" stroke="#191970" d="M1723.4365,-103.8905C1750.1744,-98.486 1781.5879,-92.1365 1806.9008,-87.0201"/>
<polygon fill="#191970" stroke="#191970" points="1722.5487,-100.4991 1713.4403,-105.911 1723.9356,-107.3603 1722.5487,-100.4991"/>
</g>
<!-- Node173 -->
<g id="node16" class="node">
<title>Node173</title>
<g id="a_node16"><a xlink:href="structchig_1_1GraphModule.html#accb1a64da697a29e28d78a9a09bd52ff" target="_top" xlink:title="Serialize to disk in the context. ">
<polygon fill="#ffffff" stroke="#000000" points="1963,-62.5 1963,-92.5 2067,-92.5 2067,-62.5 1963,-62.5"/>
<text text-anchor="start" x="1971" y="-80.5" font-family="Helvetica,sans-Serif" font-size="10.00" fill="#000000">chig::GraphModule::</text>
<text text-anchor="middle" x="2015" y="-69.5" font-family="Helvetica,sans-Serif" font-size="10.00" fill="#000000">saveToDisk</text>
</a>
</g>
</g>
<!-- Node172&#45;&gt;Node173 -->
<g id="edge15" class="edge">
<title>Node172&#45;&gt;Node173</title>
<path fill="none" stroke="#191970" d="M1928.2614,-77.5C1939.9107,-77.5 1951.7352,-77.5 1962.7514,-77.5"/>
<polygon fill="#191970" stroke="#191970" points="1928.0941,-74.0001 1918.0941,-77.5 1928.094,-81.0001 1928.0941,-74.0001"/>
</g>
<!-- Node176 -->
<g id="node19" class="node">
<title>Node176</title>
<g id="a_node19"><a xlink:href="classchig_1_1Debugger.html#a14ba3a1e81f210a2055f7f80f3c26088" target="_top" xlink:title="Set a breakpoint on a given node. ">
<polygon fill="#ffffff" stroke="#000000" points="866,-144 866,-163 1014,-163 1014,-144 866,-144"/>
<text text-anchor="middle" x="940" y="-151" font-family="Helvetica,sans-Serif" font-size="10.00" fill="#000000">chig::Debugger::setBreakpoint</text>
</a>
</g>
</g>
<!-- Node175&#45;&gt;Node176 -->
<g id="edge18" class="edge">
<title>Node175&#45;&gt;Node176</title>
<path fill="none" stroke="#191970" d="M823.8536,-149.5628C837.3794,-150.0213 851.8629,-150.5123 865.8545,-150.9866"/>
<polygon fill="#191970" stroke="#191970" points="823.834,-146.0603 813.7211,-149.2194 823.5967,-153.0562 823.834,-146.0603"/>
</g>
<!-- Node178 -->
<g id="node21" class="node">
<title>Node178</title>
<g id="a_node21"><a xlink:href="classchig_1_1Debugger.html#a4cb57c7595304ab8f85144e4fc24ae94" target="_top" xlink:title="Get the output of a node. ">
<polygon fill="#ffffff" stroke="#000000" points="869,-94.5 869,-124.5 1011,-124.5 1011,-94.5 869,-94.5"/>
<text text-anchor="start" x="877" y="-112.5" font-family="Helvetica,sans-Serif" font-size="10.00" fill="#000000">chig::Debugger::inspectNode</text>
<text text-anchor="middle" x="940" y="-101.5" font-family="Helvetica,sans-Serif" font-size="10.00" fill="#000000">Output</text>
</a>
</g>
</g>
<!-- Node175&#45;&gt;Node178 -->
<g id="edge20" class="edge">
<title>Node175&#45;&gt;Node178</title>
<path fill="none" stroke="#191970" d="M823.7786,-134.4515C838.6065,-131.2681 854.5892,-127.8368 869.8155,-124.5679"/>
<polygon fill="#191970" stroke="#191970" points="822.7636,-131.0896 813.7211,-136.6107 824.233,-137.9336 822.7636,-131.0896"/>
</g>
<!-- Node177 -->
<g id="node20" class="node">
<title>Node177</title>
<g id="a_node20"><a xlink:href="classchig_1_1Debugger.html#a9c77e0119f3b81fabce49ea20879fd33" target="_top" xlink:title="Check if the process is executing. ">
<polygon fill="#ffffff" stroke="#000000" points="1054.5,-109 1054.5,-128 1173.5,-128 1173.5,-109 1054.5,-109"/>
<text text-anchor="middle" x="1114" y="-116" font-family="Helvetica,sans-Serif" font-size="10.00" fill="#000000">chig::Debugger::running</text>
</a>
</g>
</g>
<!-- Node176&#45;&gt;Node177 -->
<g id="edge19" class="edge">
<title>Node176&#45;&gt;Node177</title>
<path fill="none" stroke="#191970" d="M997.5851,-141.9168C1019.9382,-137.4205 1045.2276,-132.3335 1066.5112,-128.0523"/>
<polygon fill="#191970" stroke="#191970" points="996.6597,-138.5328 987.5463,-143.9361 998.0401,-145.3953 996.6597,-138.5328"/>
</g>
<!-- Node178&#45;&gt;Node177 -->
<g id="edge21" class="edge">
<title>Node178&#45;&gt;Node177</title>
<path fill="none" stroke="#191970" d="M1021.2108,-113.7006C1032.3657,-114.2775 1043.6482,-114.8611 1054.3202,-115.4131"/>
<polygon fill="#191970" stroke="#191970" points="1021.1909,-110.1949 1011.0234,-113.1736 1020.8292,-117.1856 1021.1909,-110.1949"/>
</g>
<!-- Node179&#45;&gt;Node165 -->
<g id="edge23" class="edge">
<title>Node179&#45;&gt;Node165</title>
<path fill="none" stroke="#191970" d="M661.5203,-211.9236C679.2838,-208.3485 698.6363,-204.4537 715.6328,-201.033"/>
<polygon fill="#191970" stroke="#191970" points="660.3876,-208.5813 651.2748,-213.9856 661.7688,-215.4437 660.3876,-208.5813"/>
</g>
<!-- Node179&#45;&gt;Node175 -->
<g id="edge24" class="edge">
<title>Node179&#45;&gt;Node175</title>
<path fill="none" stroke="#191970" d="M648.5982,-210.2208C652.5475,-208.4955 656.4059,-206.5907 660,-204.5 678.5041,-193.7358 677.6596,-183.5409 696,-172.5 702.1693,-168.7861 708.9822,-165.4718 715.8305,-162.5667"/>
<polygon fill="#191970" stroke="#191970" points="647.2955,-206.9722 639.3002,-213.9238 649.8855,-213.4754 647.2955,-206.9722"/>
</g>
<!-- Node180&#45;&gt;Node164 -->
<g id="edge26" class="edge">
<title>Node180&#45;&gt;Node164</title>
<path fill="none" stroke="#191970" d="M478.0083,-115.9374C489.3783,-119.4564 501.2832,-123.6675 512,-128.5 541.8036,-141.9391 573.5946,-163.442 590.9029,-175.8385"/>
<polygon fill="#191970" stroke="#191970" points="478.78,-112.5156 468.1975,-113.025 476.7879,-119.2262 478.78,-112.5156"/>
</g>
<!-- Node180&#45;&gt;Node175 -->
<g id="edge27" class="edge">
<title>Node180&#45;&gt;Node175</title>
<path fill="none" stroke="#191970" d="M465.1903,-90.875C511.3831,-76.7167 593.3014,-58.2238 660,-78.5 694.5963,-89.0172 728.1434,-115.4464 747.1189,-132.3737"/>
<polygon fill="#191970" stroke="#191970" points="464.0968,-87.5499 455.6192,-93.9045 466.2092,-94.2235 464.0968,-87.5499"/>
</g>
<!-- Node181 -->
<g id="node24" class="node">
<title>Node181</title>
<g id="a_node24"><a xlink:href="structchig_1_1GraphFunction.html#a398599d8fe1982a3c76462b1b2375a6e" target="_top" xlink:title="Remove a node from the function. ">
<polygon fill="#ffffff" stroke="#000000" points="552,-.5 552,-30.5 656,-30.5 656,-.5 552,-.5"/>
<text text-anchor="start" x="560" y="-18.5" font-family="Helvetica,sans-Serif" font-size="10.00" fill="#000000">chig::GraphFunction</text>
<text text-anchor="middle" x="604" y="-7.5" font-family="Helvetica,sans-Serif" font-size="10.00" fill="#000000">::removeNode</text>
</a>
</g>
</g>
<!-- Node180&#45;&gt;Node181 -->
<g id="edge28" class="edge">
<title>Node180&#45;&gt;Node181</title>
<path fill="none" stroke="#191970" d="M457.3063,-89.266C489.2903,-73.1826 541.1419,-47.1086 573.862,-30.6551"/>
<polygon fill="#191970" stroke="#191970" points="455.4228,-86.2954 448.0612,-93.9149 458.5677,-92.5493 455.4228,-86.2954"/>
</g>
<!-- Node186 -->
<g id="node29" class="node">
<title>Node186</title>
<g id="a_node29"><a xlink:href="structchig_1_1NodeInstance.html#ab7b23fb84fff7176f7a6e62ce3762153" target="_top" xlink:title="Set the type of the node instance. ">
<polygon fill="#ffffff" stroke="#000000" points="553.5,-88.5 553.5,-118.5 654.5,-118.5 654.5,-88.5 553.5,-88.5"/>
<text text-anchor="start" x="561.5" y="-106.5" font-family="Helvetica,sans-Serif" font-size="10.00" fill="#000000">chig::NodeInstance</text>
<text text-anchor="middle" x="604" y="-95.5" font-family="Helvetica,sans-Serif" font-size="10.00" fill="#000000">::setType</text>
</a>
</g>
</g>
<!-- Node180&#45;&gt;Node186 -->
<g id="edge34" class="edge">
<title>Node180&#45;&gt;Node186</title>
<path fill="none" stroke="#191970" d="M493.5758,-103.5C513.3502,-103.5 534.805,-103.5 553.4983,-103.5"/>
<polygon fill="#191970" stroke="#191970" points="493.4118,-100.0001 483.4118,-103.5 493.4118,-107.0001 493.4118,-100.0001"/>
</g>
<!-- Node182 -->
<g id="node25" class="node">
<title>Node182</title>
<g id="a_node25"><a xlink:href="structchig_1_1GraphFunction.html#aed770126edca8a167de5e44582e646de" target="_top" xlink:title="chig::GraphFunction\l::nodes">
<polygon fill="#ffffff" stroke="#000000" points="711,-.5 711,-30.5 815,-30.5 815,-.5 711,-.5"/>
<text text-anchor="start" x="719" y="-18.5" font-family="Helvetica,sans-Serif" font-size="10.00" fill="#000000">chig::GraphFunction</text>
<text text-anchor="middle" x="763" y="-7.5" font-family="Helvetica,sans-Serif" font-size="10.00" fill="#000000">::nodes</text>
</a>
</g>
</g>
<!-- Node181&#45;&gt;Node182 -->
<g id="edge29" class="edge">
<title>Node181&#45;&gt;Node182</title>
<path fill="none" stroke="#191970" d="M666.134,-15.5C680.9146,-15.5 696.5373,-15.5 710.8205,-15.5"/>
<polygon fill="#191970" stroke="#191970" points="666.0626,-12.0001 656.0625,-15.5 666.0625,-19.0001 666.0626,-12.0001"/>
</g>
<!-- Node183 -->
<g id="node26" class="node">
<title>Node183</title>
<g id="a_node26"><a xlink:href="structchig_1_1GraphFunction.html#a1c45651f8ac9b7bf9cebcd11d91763f0" target="_top" xlink:title="Remove a local variable from the function by name. ">
<polygon fill="#ffffff" stroke="#000000" points="883.5,-45.5 883.5,-75.5 996.5,-75.5 996.5,-45.5 883.5,-45.5"/>
<text text-anchor="start" x="891.5" y="-63.5" font-family="Helvetica,sans-Serif" font-size="10.00" fill="#000000">chig::GraphFunction</text>
<text text-anchor="middle" x="940" y="-52.5" font-family="Helvetica,sans-Serif" font-size="10.00" fill="#000000">::removeLocalVariable</text>
</a>
</g>
</g>
<!-- Node181&#45;&gt;Node183 -->
<g id="edge30" class="edge">
<title>Node181&#45;&gt;Node183</title>
<path fill="none" stroke="#191970" d="M664.9791,-32.9497C675.2695,-35.4497 685.8914,-37.7594 696,-39.5 759.6896,-50.4667 833.7674,-55.8138 883.4442,-58.3483"/>
<polygon fill="#191970" stroke="#191970" points="665.7933,-29.5456 655.2422,-30.507 664.0899,-36.3352 665.7933,-29.5456"/>
</g>
<!-- Node184 -->
<g id="node27" class="node">
<title>Node184</title>
<g id="a_node27"><a xlink:href="structchig_1_1GraphFunction.html#a72a81861d1331948804b2a267598ec79" target="_top" xlink:title="Get the local variables. ">
<polygon fill="#ffffff" stroke="#000000" points="1062,-57.5 1062,-87.5 1166,-87.5 1166,-57.5 1062,-57.5"/>
<text text-anchor="start" x="1070" y="-75.5" font-family="Helvetica,sans-Serif" font-size="10.00" fill="#000000">chig::GraphFunction</text>
<text text-anchor="middle" x="1114" y="-64.5" font-family="Helvetica,sans-Serif" font-size="10.00" fill="#000000">::localVariables</text>
</a>
</g>
</g>
<!-- Node183&#45;&gt;Node184 -->
<g id="edge31" class="edge">
<title>Node183&#45;&gt;Node184</title>
<path fill="none" stroke="#191970" d="M1007.2015,-65.1346C1025.3514,-66.3863 1044.7153,-67.7217 1061.9011,-68.907"/>
<polygon fill="#191970" stroke="#191970" points="1007.1913,-61.6257 996.9741,-64.4292 1006.7096,-68.6091 1007.1913,-61.6257"/>
</g>
<!-- Node185 -->
<g id="node28" class="node">
<title>Node185</title>
<g id="a_node28"><a xlink:href="namespacechig.html#ad0fd9448ab1cd1d73351fad5967a7b9b" target="_top" xlink:title="Serialize a GraphFunction to json. ">
<polygon fill="#ffffff" stroke="#000000" points="1214,-66 1214,-85 1348,-85 1348,-66 1214,-66"/>
<text text-anchor="middle" x="1281" y="-73" font-family="Helvetica,sans-Serif" font-size="10.00" fill="#000000">chig::graphFunctionToJson</text>
</a>
</g>
</g>
<!-- Node184&#45;&gt;Node185 -->
<g id="edge32" class="edge">
<title>Node184&#45;&gt;Node185</title>
<path fill="none" stroke="#191970" d="M1176.4373,-73.6216C1188.617,-73.8404 1201.4363,-74.0707 1213.7637,-74.2922"/>
<polygon fill="#191970" stroke="#191970" points="1176.4429,-70.1213 1166.3816,-73.441 1176.3171,-77.1201 1176.4429,-70.1213"/>
</g>
<!-- Node185&#45;&gt;Node172 -->
<g id="edge33" class="edge">
<title>Node185&#45;&gt;Node172</title>
<path fill="none" stroke="#191970" d="M1358.19,-75.7694C1472.2624,-76.1676 1683.7707,-76.9058 1789.8411,-77.2761"/>
<polygon fill="#191970" stroke="#191970" points="1358.1455,-72.2693 1348.1333,-75.7343 1358.121,-79.2693 1358.1455,-72.2693"/>
</g>
<!-- Node187&#45;&gt;Node175 -->
<g id="edge37" class="edge">
<title>Node187&#45;&gt;Node175</title>
<path fill="none" stroke="#191970" d="M494.5135,-147.5C558.3955,-147.5 654.1925,-147.5 712.4172,-147.5"/>
<polygon fill="#191970" stroke="#191970" points="494.1533,-144.0001 484.1533,-147.5 494.1533,-151.0001 494.1533,-144.0001"/>
</g>
<!-- Node187&#45;&gt;Node179 -->
<g id="edge36" class="edge">
<title>Node187&#45;&gt;Node179</title>
<path fill="none" stroke="#191970" d="M456.3873,-161.7727C480.2394,-173.9226 515.9301,-191.4336 548,-204.5 556.2717,-207.8702 565.3889,-211.1441 573.8215,-213.9979"/>
<polygon fill="#191970" stroke="#191970" points="457.7381,-158.532 447.243,-157.0816 454.543,-164.7603 457.7381,-158.532"/>
</g>
<!-- Node187&#45;&gt;Node181 -->
<g id="edge38" class="edge">
<title>Node187&#45;&gt;Node181</title>
<path fill="none" stroke="#191970" d="M487.7531,-134.6078C496.2695,-131.3972 504.6348,-127.4188 512,-122.5 533.012,-108.4673 531.6033,-97.7242 548,-78.5 562.1497,-61.9102 578.7989,-43.2901 590.2446,-30.623"/>
<polygon fill="#191970" stroke="#191970" points="486.4405,-131.3578 478.119,-137.9154 488.7136,-137.9785 486.4405,-131.3578"/>
</g>
<!-- Node187&#45;&gt;Node186 -->
<g id="edge39" class="edge">
<title>Node187&#45;&gt;Node186</title>
<path fill="none" stroke="#191970" d="M476.8313,-135.4739C500.6085,-129.4956 529.3432,-122.2709 553.4782,-116.2026"/>
<polygon fill="#191970" stroke="#191970" points="475.8171,-132.1198 466.9724,-137.9527 477.524,-138.9085 475.8171,-132.1198"/>
</g>
</g>
</svg>
