<?xml version="1.0" encoding="UTF-8" standalone="no"?>
<!DOCTYPE svg PUBLIC "-//W3C//DTD SVG 1.1//EN"
 "http://www.w3.org/Graphics/SVG/1.1/DTD/svg11.dtd">
<!-- Generated by graphviz version 2.40.1 (20161225.0304)
 -->
<!-- Title: chig::Context::loadModule Pages: 1 -->
<svg width="1078pt" height="85pt"
 viewBox="0.00 0.00 1078.00 85.00" xmlns="http://www.w3.org/2000/svg" xmlns:xlink="http://www.w3.org/1999/xlink">
<g id="graph0" class="graph" transform="scale(1 1) rotate(0) translate(4 81)">
<title>chig::Context::loadModule</title>
<polygon fill="#ffffff" stroke="transparent" points="-4,4 -4,-81 1074,-81 1074,4 -4,4"/>
<!-- Node36 -->
<g id="node1" class="node">
<title>Node36</title>
<polygon fill="#bfbfbf" stroke="#000000" points="0,-19.5 0,-38.5 130,-38.5 130,-19.5 0,-19.5"/>
<text text-anchor="middle" x="65" y="-26.5" font-family="Helvetica,sans-Serif" font-size="10.00" fill="#000000">chig::Context::loadModule</text>
</g>
<!-- Node37 -->
<g id="node2" class="node">
<title>Node37</title>
<g id="a_node2"><a xlink:href="structchig_1_1ChigModule.html#acec829296a8677186fcd6f0beae3d3a1" target="_top" xlink:title="chig::ChigModule::addDependency">
<polygon fill="#ffffff" stroke="#000000" points="166,-19.5 166,-38.5 333,-38.5 333,-19.5 166,-19.5"/>
<text text-anchor="middle" x="249.5" y="-26.5" font-family="Helvetica,sans-Serif" font-size="10.00" fill="#000000">chig::ChigModule::addDependency</text>
</a>
</g>
</g>
<!-- Node36&#45;&gt;Node37 -->
<g id="edge1" class="edge">
<title>Node36&#45;&gt;Node37</title>
<path fill="none" stroke="#191970" d="M140.2627,-29C148.734,-29 157.4033,-29 165.9713,-29"/>
<polygon fill="#191970" stroke="#191970" points="140.0478,-25.5001 130.0478,-29 140.0478,-32.5001 140.0478,-25.5001"/>
</g>
<!-- Node38 -->
<g id="node3" class="node">
<title>Node38</title>
<g id="a_node3"><a xlink:href="structchig_1_1ChigModule.html#a0fc2b8e9bab1d061ec12212ac8c78a40" target="_top" xlink:title="chig::ChigModule::dependencies">
<polygon fill="#ffffff" stroke="#000000" points="369,-38.5 369,-57.5 527,-57.5 527,-38.5 369,-38.5"/>
<text text-anchor="middle" x="448" y="-45.5" font-family="Helvetica,sans-Serif" font-size="10.00" fill="#000000">chig::ChigModule::dependencies</text>
</a>
</g>
</g>
<!-- Node37&#45;&gt;Node38 -->
<g id="edge2" class="edge">
<title>Node37&#45;&gt;Node38</title>
<path fill="none" stroke="#191970" d="M343.1763,-37.9665C351.7894,-38.7909 360.4588,-39.6207 368.9237,-40.431"/>
<polygon fill="#191970" stroke="#191970" points="343.3946,-34.4715 333.1066,-37.0026 342.7275,-41.4396 343.3946,-34.4715"/>
</g>
<!-- Node43 -->
<g id="node8" class="node">
<title>Node43</title>
<g id="a_node8"><a xlink:href="structchig_1_1JsonModule.html#ae9d14a6f432082a9489d3b5ccf5ae338" target="_top" xlink:title="chig::JsonModule::JsonModule">
<polygon fill="#ffffff" stroke="#000000" points="372,-.5 372,-19.5 524,-19.5 524,-.5 372,-.5"/>
<text text-anchor="middle" x="448" y="-7.5" font-family="Helvetica,sans-Serif" font-size="10.00" fill="#000000">chig::JsonModule::JsonModule</text>
</a>
</g>
</g>
<!-- Node37&#45;&gt;Node43 -->
<g id="edge8" class="edge">
<title>Node37&#45;&gt;Node43</title>
<path fill="none" stroke="#191970" d="M343.0785,-20.0429C352.6867,-19.1232 362.3661,-18.1967 371.7548,-17.298"/>
<polygon fill="#191970" stroke="#191970" points="342.7275,-16.5604 333.1066,-20.9974 343.3946,-23.5285 342.7275,-16.5604"/>
</g>
<!-- Node39 -->
<g id="node4" class="node">
<title>Node39</title>
<g id="a_node4"><a xlink:href="structchig_1_1JsonModule.html#a200bbbf7eefaffdc40978c01d1053f46" target="_top" xlink:title="chig::JsonModule::toJSON">
<polygon fill="#ffffff" stroke="#000000" points="563,-38.5 563,-57.5 697,-57.5 697,-38.5 563,-38.5"/>
<text text-anchor="middle" x="630" y="-45.5" font-family="Helvetica,sans-Serif" font-size="10.00" fill="#000000">chig::JsonModule::toJSON</text>
</a>
</g>
</g>
<!-- Node38&#45;&gt;Node39 -->
<g id="edge3" class="edge">
<title>Node38&#45;&gt;Node39</title>
<path fill="none" stroke="#191970" d="M537.118,-48C545.7327,-48 554.37,-48 562.7208,-48"/>
<polygon fill="#191970" stroke="#191970" points="537.0339,-44.5001 527.0338,-48 537.0338,-51.5001 537.0339,-44.5001"/>
</g>
<!-- Node40 -->
<g id="node5" class="node">
<title>Node40</title>
<g id="a_node5"><a xlink:href="structchig_1_1JsonModule.html#ac0085e28a8ff704511c0a4bb1f8eb42d" target="_top" xlink:title="Get the possible DataType names. ">
<polygon fill="#ffffff" stroke="#000000" points="920.5,-57.5 920.5,-76.5 1069.5,-76.5 1069.5,-57.5 920.5,-57.5"/>
<text text-anchor="middle" x="995" y="-64.5" font-family="Helvetica,sans-Serif" font-size="10.00" fill="#000000">chig::JsonModule::typeNames</text>
</a>
</g>
</g>
<!-- Node39&#45;&gt;Node40 -->
<g id="edge4" class="edge">
<title>Node39&#45;&gt;Node40</title>
<path fill="none" stroke="#191970" d="M707.6276,-52.0409C770.4862,-55.313 858.4702,-59.893 920.4809,-63.1209"/>
<polygon fill="#191970" stroke="#191970" points="707.5404,-48.5317 697.372,-51.507 707.1765,-55.5222 707.5404,-48.5317"/>
</g>
<!-- Node41 -->
<g id="node6" class="node">
<title>Node41</title>
<g id="a_node6"><a xlink:href="structchig_1_1JsonModule.html#ae0301727a42a28a7ec2b7116f6d54e04" target="_top" xlink:title="chig::JsonModule::saveToDisk">
<polygon fill="#ffffff" stroke="#000000" points="733,-19.5 733,-38.5 884,-38.5 884,-19.5 733,-19.5"/>
<text text-anchor="middle" x="808.5" y="-26.5" font-family="Helvetica,sans-Serif" font-size="10.00" fill="#000000">chig::JsonModule::saveToDisk</text>
</a>
</g>
</g>
<!-- Node39&#45;&gt;Node41 -->
<g id="edge5" class="edge">
<title>Node39&#45;&gt;Node41</title>
<path fill="none" stroke="#191970" d="M707.176,-39.7852C715.7248,-38.8752 724.4242,-37.9492 732.9526,-37.0415"/>
<polygon fill="#191970" stroke="#191970" points="706.8022,-36.3051 697.2288,-40.844 707.5432,-43.2658 706.8022,-36.3051"/>
</g>
<!-- Node41&#45;&gt;Node40 -->
<g id="edge6" class="edge">
<title>Node41&#45;&gt;Node40</title>
<path fill="none" stroke="#191970" d="M865.4782,-40.6095C892.0028,-46.014 923.1657,-52.3635 948.2766,-57.4799"/>
<polygon fill="#191970" stroke="#191970" points="866.0593,-37.1561 855.5618,-38.589 864.6617,-44.0151 866.0593,-37.1561"/>
</g>
<!-- Node42 -->
<g id="node7" class="node">
<title>Node42</title>
<g id="a_node7"><a xlink:href="structchig_1_1Context.html#a9c11bfd47be5c451906840f293fa82c2" target="_top" xlink:title="chig::Context::newJsonModule">
<polygon fill="#ffffff" stroke="#000000" points="920,-19.5 920,-38.5 1070,-38.5 1070,-19.5 920,-19.5"/>
<text text-anchor="middle" x="995" y="-26.5" font-family="Helvetica,sans-Serif" font-size="10.00" fill="#000000">chig::Context::newJsonModule</text>
</a>
</g>
</g>
<!-- Node41&#45;&gt;Node42 -->
<g id="edge7" class="edge">
<title>Node41&#45;&gt;Node42</title>
<path fill="none" stroke="#191970" d="M894.131,-29C902.7355,-29 911.4271,-29 919.9101,-29"/>
<polygon fill="#191970" stroke="#191970" points="894.0879,-25.5001 884.0878,-29 894.0878,-32.5001 894.0879,-25.5001"/>
</g>
</g>
</svg>
