<?xml version="1.0" encoding="UTF-8" standalone="no"?>
<!DOCTYPE svg PUBLIC "-//W3C//DTD SVG 1.1//EN"
 "http://www.w3.org/Graphics/SVG/1.1/DTD/svg11.dtd">
<!-- Generated by graphviz version 2.40.1 (20161225.0304)
 -->
<!-- Title: chi::GraphFunction::renameLocalVariable Pages: 1 -->
<svg width="1324pt" height="396pt"
 viewBox="0.00 0.00 1324.00 395.74" xmlns="http://www.w3.org/2000/svg" xmlns:xlink="http://www.w3.org/1999/xlink">
<g id="graph0" class="graph" transform="scale(1 1) rotate(0) translate(4 391.7358)">
<title>chi::GraphFunction::renameLocalVariable</title>
<polygon fill="#ffffff" stroke="transparent" points="-4,4 -4,-391.7358 1320,-391.7358 1320,4 -4,4"/>
<!-- Node935 -->
<g id="node1" class="node">
<title>Node935</title>
<polygon fill="#bfbfbf" stroke="#000000" points="0,-125 0,-155 113,-155 113,-125 0,-125"/>
<text text-anchor="start" x="8" y="-143" font-family="Helvetica,sans-Serif" font-size="10.00" fill="#000000">chi::GraphFunction</text>
<text text-anchor="middle" x="56.5" y="-132" font-family="Helvetica,sans-Serif" font-size="10.00" fill="#000000">::renameLocalVariable</text>
</g>
<!-- Node936 -->
<g id="node2" class="node">
<title>Node936</title>
<g id="a_node2"><a xlink:href="structchi_1_1GraphFunction.html#a0564412e260698bdb3872d3d12dfc3bc" target="_top" xlink:title="Get the GraphModule that contains this GraphFunction. ">
<polygon fill="#ffffff" stroke="#000000" points="856.5,-61 856.5,-91 955.5,-91 955.5,-61 856.5,-61"/>
<text text-anchor="start" x="864.5" y="-79" font-family="Helvetica,sans-Serif" font-size="10.00" fill="#000000">chi::GraphFunction</text>
<text text-anchor="middle" x="906" y="-68" font-family="Helvetica,sans-Serif" font-size="10.00" fill="#000000">::module</text>
</a>
</g>
</g>
<!-- Node935&#45;&gt;Node936 -->
<g id="edge1" class="edge">
<title>Node935&#45;&gt;Node936</title>
<path fill="none" stroke="#191970" d="M74.5682,-124.9331C92.4843,-110.6347 121.2049,-89.3953 149,-76 254.383,-25.2127 284.0174,0 401,0 401,0 401,0 588,0 686.6016,0 797.8061,-34.992 859.1121,-57.4888"/>
<polygon fill="#191970" stroke="#191970" points="857.9205,-60.7798 868.5133,-60.9848 860.3604,-54.2188 857.9205,-60.7798"/>
</g>
<!-- Node937 -->
<g id="node3" class="node">
<title>Node937</title>
<g id="a_node3"><a xlink:href="structchi_1_1GraphFunction.html#a56ba667341ecc6fce1e290cce6aedf53" target="_top" xlink:title="Gets the nodes with a given type. ">
<polygon fill="#ffffff" stroke="#000000" points="351.5,-35 351.5,-65 450.5,-65 450.5,-35 351.5,-35"/>
<text text-anchor="start" x="359.5" y="-53" font-family="Helvetica,sans-Serif" font-size="10.00" fill="#000000">chi::GraphFunction</text>
<text text-anchor="middle" x="401" y="-42" font-family="Helvetica,sans-Serif" font-size="10.00" fill="#000000">::nodesWithType</text>
</a>
</g>
</g>
<!-- Node935&#45;&gt;Node937 -->
<g id="edge2" class="edge">
<title>Node935&#45;&gt;Node937</title>
<path fill="none" stroke="#191970" d="M113.0014,-125.2391C175.9659,-108.7898 277.3356,-82.3071 341.4922,-65.5463"/>
<polygon fill="#191970" stroke="#191970" points="342.6673,-68.8569 351.4579,-62.9428 340.8979,-62.0842 342.6673,-68.8569"/>
</g>
<!-- Node942 -->
<g id="node8" class="node">
<title>Node942</title>
<g id="a_node8"><a xlink:href="structchi_1_1ChiModule.html#af3cdb7e3d333fedc74ad862dcc5bca9f" target="_top" xlink:title="Update the last edit time, signifying that it&#39;s been edited. ">
<polygon fill="#ffffff" stroke="#000000" points="838.5,-296 838.5,-326 973.5,-326 973.5,-296 838.5,-296"/>
<text text-anchor="start" x="846.5" y="-314" font-family="Helvetica,sans-Serif" font-size="10.00" fill="#000000">chi::ChiModule::updateLast</text>
<text text-anchor="middle" x="906" y="-303" font-family="Helvetica,sans-Serif" font-size="10.00" fill="#000000">EditTime</text>
</a>
</g>
</g>
<!-- Node935&#45;&gt;Node942 -->
<g id="edge33" class="edge">
<title>Node935&#45;&gt;Node942</title>
<path fill="none" stroke="#191970" d="M73.1651,-155.2022C113.1819,-190.464 219.3865,-276.8098 327,-303 501.9992,-345.5901 715.6321,-332.4865 828.1161,-320.7825"/>
<polygon fill="#191970" stroke="#191970" points="828.7779,-324.2319 838.3509,-319.6922 828.0364,-317.2713 828.7779,-324.2319"/>
</g>
<!-- Node950 -->
<g id="node16" class="node">
<title>Node950</title>
<g id="a_node16"><a xlink:href="structchi_1_1GraphModule.html#a133c0595e0bb888f958e9769838f6c0c" target="_top" xlink:title="Create a node type that is in the module from the name and json. ">
<polygon fill="#ffffff" stroke="#000000" points="149,-174 149,-204 291,-204 291,-174 149,-174"/>
<text text-anchor="start" x="157" y="-192" font-family="Helvetica,sans-Serif" font-size="10.00" fill="#000000">chi::GraphModule::nodeType</text>
<text text-anchor="middle" x="220" y="-181" font-family="Helvetica,sans-Serif" font-size="10.00" fill="#000000">FromName</text>
</a>
</g>
</g>
<!-- Node935&#45;&gt;Node950 -->
<g id="edge21" class="edge">
<title>Node935&#45;&gt;Node950</title>
<path fill="none" stroke="#191970" d="M106.8895,-155.1014C123.5961,-160.1083 142.3623,-165.7324 159.7351,-170.939"/>
<polygon fill="#191970" stroke="#191970" points="159.193,-174.4302 169.7769,-173.9484 161.2026,-167.7249 159.193,-174.4302"/>
</g>
<!-- Node937&#45;&gt;Node936 -->
<g id="edge3" class="edge">
<title>Node937&#45;&gt;Node936</title>
<path fill="none" stroke="#191970" d="M450.5405,-49.8807C526.0593,-50.0622 674.4532,-51.8475 800,-62 815.033,-63.2157 831.2012,-65.0699 846.2696,-67.0349"/>
<polygon fill="#191970" stroke="#191970" points="846.122,-70.5464 856.4985,-68.4066 847.0524,-63.6085 846.122,-70.5464"/>
</g>
<!-- Node938 -->
<g id="node4" class="node">
<title>Node938</title>
<g id="a_node4"><a xlink:href="structchi_1_1GraphFunction.html#a89069f6e08f71cfbafb245ea16c8d69f" target="_top" xlink:title="Get the name of the function. ">
<polygon fill="#ffffff" stroke="#000000" points="538.5,-143 538.5,-173 637.5,-173 637.5,-143 538.5,-143"/>
<text text-anchor="start" x="546.5" y="-161" font-family="Helvetica,sans-Serif" font-size="10.00" fill="#000000">chi::GraphFunction</text>
<text text-anchor="middle" x="588" y="-150" font-family="Helvetica,sans-Serif" font-size="10.00" fill="#000000">::name</text>
</a>
</g>
</g>
<!-- Node937&#45;&gt;Node938 -->
<g id="edge4" class="edge">
<title>Node937&#45;&gt;Node938</title>
<path fill="none" stroke="#191970" d="M427.0015,-65.0169C459.8448,-83.9852 516.4801,-116.6944 553.0736,-137.8286"/>
<polygon fill="#191970" stroke="#191970" points="551.5085,-140.9665 561.9185,-142.9369 555.0094,-134.9048 551.5085,-140.9665"/>
</g>
<!-- Node939 -->
<g id="node5" class="node">
<title>Node939</title>
<g id="a_node5"><a xlink:href="structchi_1_1GraphFunction.html#ad739c826ed87035857193995c23cabe2" target="_top" xlink:title="Get the qualified name of the function Same as module().fullName() + &quot;:&quot; + name();. ">
<polygon fill="#ffffff" stroke="#000000" points="701,-105 701,-135 800,-135 800,-105 701,-105"/>
<text text-anchor="start" x="709" y="-123" font-family="Helvetica,sans-Serif" font-size="10.00" fill="#000000">chi::GraphFunction</text>
<text text-anchor="middle" x="750.5" y="-112" font-family="Helvetica,sans-Serif" font-size="10.00" fill="#000000">::qualifiedName</text>
</a>
</g>
</g>
<!-- Node938&#45;&gt;Node939 -->
<g id="edge5" class="edge">
<title>Node938&#45;&gt;Node939</title>
<path fill="none" stroke="#191970" d="M627.3367,-142.923C646.3925,-137.5958 669.6839,-131.931 690.8626,-127.4129"/>
<polygon fill="#191970" stroke="#191970" points="691.6628,-130.8214 700.7406,-125.3585 690.2374,-123.9681 691.6628,-130.8214"/>
</g>
<!-- Node941 -->
<g id="node7" class="node">
<title>Node941</title>
<g id="a_node7"><a xlink:href="structchi_1_1GraphFunction.html#a27c87614be4357e97c1ececd2228f865" target="_top" xlink:title="Set the name of the function. ">
<polygon fill="#ffffff" stroke="#000000" points="701,-193 701,-223 800,-223 800,-193 701,-193"/>
<text text-anchor="start" x="709" y="-211" font-family="Helvetica,sans-Serif" font-size="10.00" fill="#000000">chi::GraphFunction</text>
<text text-anchor="middle" x="750.5" y="-200" font-family="Helvetica,sans-Serif" font-size="10.00" fill="#000000">::setName</text>
</a>
</g>
</g>
<!-- Node938&#45;&gt;Node941 -->
<g id="edge9" class="edge">
<title>Node938&#45;&gt;Node941</title>
<path fill="none" stroke="#191970" d="M637.6383,-166.9996C660.6254,-173.3448 687.6118,-181.7546 709.4313,-189.4084"/>
<polygon fill="#191970" stroke="#191970" points="708.4655,-192.7802 719.06,-192.8617 710.8287,-186.1912 708.4655,-192.7802"/>
</g>
<!-- Node939&#45;&gt;Node936 -->
<g id="edge6" class="edge">
<title>Node939&#45;&gt;Node936</title>
<path fill="none" stroke="#191970" d="M800.1287,-105.9572C814.8569,-101.7897 831.1411,-97.1819 846.4314,-92.8554"/>
<polygon fill="#191970" stroke="#191970" points="847.6402,-96.1509 856.3094,-90.0604 845.7342,-89.4153 847.6402,-96.1509"/>
</g>
<!-- Node939&#45;&gt;Node938 -->
<g id="edge8" class="edge">
<title>Node939&#45;&gt;Node938</title>
<path fill="none" stroke="#191970" d="M711.2054,-135.0652C692.1112,-140.4044 668.7567,-146.084 647.5351,-150.609"/>
<polygon fill="#191970" stroke="#191970" points="646.7168,-147.2041 637.6383,-152.666 648.1414,-154.0577 646.7168,-147.2041"/>
</g>
<!-- Node940 -->
<g id="node6" class="node">
<title>Node940</title>
<g id="a_node6"><a xlink:href="structchi_1_1ChiModule.html#a92ab6d528ac41a91b6ac21ededfccc38" target="_top" xlink:title="Get the full name of the module. ">
<polygon fill="#ffffff" stroke="#000000" points="1022.5,-113.5 1022.5,-132.5 1147.5,-132.5 1147.5,-113.5 1022.5,-113.5"/>
<text text-anchor="middle" x="1085" y="-120.5" font-family="Helvetica,sans-Serif" font-size="10.00" fill="#000000">chi::ChiModule::fullName</text>
</a>
</g>
</g>
<!-- Node939&#45;&gt;Node940 -->
<g id="edge7" class="edge">
<title>Node939&#45;&gt;Node940</title>
<path fill="none" stroke="#191970" d="M800.2168,-120.4459C856.3615,-120.9494 948.2372,-121.7734 1012.4028,-122.3489"/>
<polygon fill="#191970" stroke="#191970" points="1012.4223,-125.8491 1022.4533,-122.439 1012.4851,-118.8494 1012.4223,-125.8491"/>
</g>
<!-- Node941&#45;&gt;Node936 -->
<g id="edge10" class="edge">
<title>Node941&#45;&gt;Node936</title>
<path fill="none" stroke="#191970" d="M778.3526,-192.9028C785.6603,-188.4704 793.3511,-183.3618 800,-178 818.1097,-163.3961 819.4044,-156.304 836,-140 850.6306,-125.6265 867.595,-110.0893 881.1588,-97.9234"/>
<polygon fill="#191970" stroke="#191970" points="883.5792,-100.4545 888.7087,-91.1841 878.9177,-95.2323 883.5792,-100.4545"/>
</g>
<!-- Node941&#45;&gt;Node938 -->
<g id="edge20" class="edge">
<title>Node941&#45;&gt;Node938</title>
<path fill="none" stroke="#191970" d="M700.7233,-198.9622C677.7243,-192.6098 650.7457,-184.1993 628.9488,-176.5496"/>
<polygon fill="#191970" stroke="#191970" points="629.9261,-173.1818 619.3316,-173.0985 627.5618,-179.7705 629.9261,-173.1818"/>
</g>
<!-- Node941&#45;&gt;Node942 -->
<g id="edge11" class="edge">
<title>Node941&#45;&gt;Node942</title>
<path fill="none" stroke="#191970" d="M763.2507,-223.1055C778.8045,-240.6736 806.6717,-269.4954 836,-287 838.8131,-288.679 841.7603,-290.2616 844.787,-291.7504"/>
<polygon fill="#191970" stroke="#191970" points="843.497,-295.0082 854.0509,-295.938 846.3803,-288.6296 843.497,-295.0082"/>
</g>
<!-- Node943 -->
<g id="node9" class="node">
<title>Node943</title>
<g id="a_node9"><a xlink:href="structchi_1_1GraphFunction.html#aca401237496ae311e43c7a43519e4720" target="_top" xlink:title="Get the context. ">
<polygon fill="#ffffff" stroke="#000000" points="856.5,-247 856.5,-277 955.5,-277 955.5,-247 856.5,-247"/>
<text text-anchor="start" x="864.5" y="-265" font-family="Helvetica,sans-Serif" font-size="10.00" fill="#000000">chi::GraphFunction</text>
<text text-anchor="middle" x="906" y="-254" font-family="Helvetica,sans-Serif" font-size="10.00" fill="#000000">::context</text>
</a>
</g>
</g>
<!-- Node941&#45;&gt;Node943 -->
<g id="edge12" class="edge">
<title>Node941&#45;&gt;Node943</title>
<path fill="none" stroke="#191970" d="M793.099,-223.0144C806.7908,-227.8222 822.0294,-233.1541 836,-238 841.2344,-239.8156 846.6917,-241.7006 852.1483,-243.58"/>
<polygon fill="#191970" stroke="#191970" points="851.3263,-246.9985 861.921,-246.9409 853.6028,-240.379 851.3263,-246.9985"/>
</g>
<!-- Node944 -->
<g id="node10" class="node">
<title>Node944</title>
<g id="a_node10"><a xlink:href="structchi_1_1Context.html#a9ded1e6de886af9e1fb7d42188bba4b3" target="_top" xlink:title="Find all uses of a node type in all the loaded modules. ">
<polygon fill="#ffffff" stroke="#000000" points="839,-198 839,-228 973,-228 973,-198 839,-198"/>
<text text-anchor="start" x="847" y="-216" font-family="Helvetica,sans-Serif" font-size="10.00" fill="#000000">chi::Context::findInstances</text>
<text text-anchor="middle" x="906" y="-205" font-family="Helvetica,sans-Serif" font-size="10.00" fill="#000000">OfType</text>
</a>
</g>
</g>
<!-- Node941&#45;&gt;Node944 -->
<g id="edge13" class="edge">
<title>Node941&#45;&gt;Node944</title>
<path fill="none" stroke="#191970" d="M800.1287,-209.5958C809.2983,-209.8906 819.0709,-210.2049 828.8313,-210.5187"/>
<polygon fill="#191970" stroke="#191970" points="828.8651,-214.0215 838.9725,-210.8448 829.0902,-207.0251 828.8651,-214.0215"/>
</g>
<!-- Node946 -->
<g id="node12" class="node">
<title>Node946</title>
<g id="a_node12"><a xlink:href="structchi_1_1Context.html#a28706d36f049088c98cd726921512668" target="_top" xlink:title="Gets a NodeType from the JSON and name. ">
<polygon fill="#ffffff" stroke="#000000" points="836,-149 836,-179 976,-179 976,-149 836,-149"/>
<text text-anchor="start" x="844" y="-167" font-family="Helvetica,sans-Serif" font-size="10.00" fill="#000000">chi::Context::nodeTypeFrom</text>
<text text-anchor="middle" x="906" y="-156" font-family="Helvetica,sans-Serif" font-size="10.00" fill="#000000">Module</text>
</a>
</g>
</g>
<!-- Node941&#45;&gt;Node946 -->
<g id="edge15" class="edge">
<title>Node941&#45;&gt;Node946</title>
<path fill="none" stroke="#191970" d="M800.1287,-193.9572C813.7778,-190.095 828.7632,-185.8548 843.0555,-181.8107"/>
<polygon fill="#191970" stroke="#191970" points="844.1453,-185.1398 852.8145,-179.0493 842.2393,-178.4042 844.1453,-185.1398"/>
</g>
<!-- Node945 -->
<g id="node11" class="node">
<title>Node945</title>
<g id="a_node11"><a xlink:href="namespacechi.html#a6f41c84de5ee1febedce5a5385f9c632" target="_top" xlink:title="Get the workspace directory from a child of the workspace directory Example: say you have a workspace...">
<polygon fill="#ffffff" stroke="#000000" points="1012,-203.5 1012,-222.5 1158,-222.5 1158,-203.5 1012,-203.5"/>
<text text-anchor="middle" x="1085" y="-210.5" font-family="Helvetica,sans-Serif" font-size="10.00" fill="#000000">chi::workspaceFromChildPath</text>
</a>
</g>
</g>
<!-- Node944&#45;&gt;Node945 -->
<g id="edge14" class="edge">
<title>Node944&#45;&gt;Node945</title>
<path fill="none" stroke="#191970" d="M973.1623,-213C982.4145,-213 992.007,-213 1001.5087,-213"/>
<polygon fill="#191970" stroke="#191970" points="1001.7632,-216.5001 1011.7632,-213 1001.7631,-209.5001 1001.7632,-216.5001"/>
</g>
<!-- Node946&#45;&gt;Node940 -->
<g id="edge19" class="edge">
<title>Node946&#45;&gt;Node940</title>
<path fill="none" stroke="#191970" d="M971.6366,-148.9659C992.0288,-144.2951 1014.204,-139.2158 1033.4896,-134.7985"/>
<polygon fill="#191970" stroke="#191970" points="1034.3205,-138.1989 1043.2866,-132.5545 1032.7575,-131.3756 1034.3205,-138.1989"/>
</g>
<!-- Node947 -->
<g id="node13" class="node">
<title>Node947</title>
<g id="a_node13"><a xlink:href="structchi_1_1Result.html#a59ef40f4a327cbdea263d6e4b5af2ad8" target="_top" xlink:title="Add a entry to the result, either a warning or an error. ">
<polygon fill="#ffffff" stroke="#000000" points="1031,-345.5 1031,-364.5 1139,-364.5 1139,-345.5 1031,-345.5"/>
<text text-anchor="middle" x="1085" y="-352.5" font-family="Helvetica,sans-Serif" font-size="10.00" fill="#000000">chi::Result::addEntry</text>
</a>
</g>
</g>
<!-- Node946&#45;&gt;Node947 -->
<g id="edge16" class="edge">
<title>Node946&#45;&gt;Node947</title>
<path fill="none" stroke="#191970" d="M959.8972,-179.1096C965.627,-181.899 971.131,-185.171 976,-189 1002.7434,-210.0313 1053.0369,-297.2989 1074.6732,-336.1728"/>
<polygon fill="#191970" stroke="#191970" points="1071.8476,-338.2958 1079.7498,-345.3531 1077.9734,-334.9083 1071.8476,-338.2958"/>
</g>
<!-- Node949 -->
<g id="node15" class="node">
<title>Node949</title>
<g id="a_node15"><a xlink:href="structchi_1_1Context.html#a5fe3b2cbd2805912a9a894494a5c5a13" target="_top" xlink:title="Compile a module to a llvm::Module. ">
<polygon fill="#ffffff" stroke="#000000" points="1015,-154.5 1015,-173.5 1155,-173.5 1155,-154.5 1015,-154.5"/>
<text text-anchor="middle" x="1085" y="-161.5" font-family="Helvetica,sans-Serif" font-size="10.00" fill="#000000">chi::Context::compileModule</text>
</a>
</g>
</g>
<!-- Node946&#45;&gt;Node949 -->
<g id="edge18" class="edge">
<title>Node946&#45;&gt;Node949</title>
<path fill="none" stroke="#191970" d="M976.2318,-164C985.5825,-164 995.2277,-164 1004.7326,-164"/>
<polygon fill="#191970" stroke="#191970" points="1004.9708,-167.5001 1014.9707,-164 1004.9707,-160.5001 1004.9708,-167.5001"/>
</g>
<!-- Node948 -->
<g id="node14" class="node">
<title>Node948</title>
<g id="a_node14"><a xlink:href="structchi_1_1Result.html#aa078d3cb3dfb2fb63e81b71acea036e0" target="_top" xlink:title="Get the JSON associated with the context that&#39;s been added. ">
<polygon fill="#ffffff" stroke="#000000" points="1194,-345.5 1194,-364.5 1316,-364.5 1316,-345.5 1194,-345.5"/>
<text text-anchor="middle" x="1255" y="-352.5" font-family="Helvetica,sans-Serif" font-size="10.00" fill="#000000">chi::Result::contextJson</text>
</a>
</g>
</g>
<!-- Node947&#45;&gt;Node948 -->
<g id="edge17" class="edge">
<title>Node947&#45;&gt;Node948</title>
<path fill="none" stroke="#191970" d="M1139.2565,-355C1153.3888,-355 1168.8315,-355 1183.6999,-355"/>
<polygon fill="#191970" stroke="#191970" points="1183.8785,-358.5001 1193.8785,-355 1183.8784,-351.5001 1183.8785,-358.5001"/>
</g>
<!-- Node950&#45;&gt;Node936 -->
<g id="edge32" class="edge">
<title>Node950&#45;&gt;Node936</title>
<path fill="none" stroke="#191970" d="M291.0311,-184.0295C342.8786,-179.0574 414.3928,-169.387 475,-151 491.9322,-145.8631 494.2,-139.5541 511,-134 592.7644,-106.9688 615.8161,-108.6413 701,-96 749.5866,-88.7898 805.0528,-83.559 846.028,-80.2594"/>
<polygon fill="#191970" stroke="#191970" points="846.4269,-83.7389 856.1202,-79.4621 845.8756,-76.7606 846.4269,-83.7389"/>
</g>
<!-- Node950&#45;&gt;Node939 -->
<g id="edge23" class="edge">
<title>Node950&#45;&gt;Node939</title>
<path fill="none" stroke="#191970" d="M234.6066,-173.9914C253.7836,-155.4759 289.4457,-124.9798 327,-113 451.4147,-73.3116 607.0204,-92.0574 690.6667,-107.2632"/>
<polygon fill="#191970" stroke="#191970" points="690.278,-110.751 700.7501,-109.1429 691.5609,-103.8695 690.278,-110.751"/>
</g>
<!-- Node950&#45;&gt;Node943 -->
<g id="edge28" class="edge">
<title>Node950&#45;&gt;Node943</title>
<path fill="none" stroke="#191970" d="M254.4748,-204.0323C275.1062,-212.3183 302.0811,-221.9276 327,-227 513.4648,-264.9558 740.1124,-265.9485 846.0348,-263.8654"/>
<polygon fill="#191970" stroke="#191970" points="846.2857,-267.3609 856.2088,-263.6483 846.1363,-260.3625 846.2857,-267.3609"/>
</g>
<!-- Node950&#45;&gt;Node947 -->
<g id="edge22" class="edge">
<title>Node950&#45;&gt;Node947</title>
<path fill="none" stroke="#191970" d="M229.2566,-204.3903C245.4867,-229.8274 281.6996,-280.101 327,-303 560.7666,-421.167 887.9572,-387.3002 1022.9795,-366.1613"/>
<polygon fill="#191970" stroke="#191970" points="1023.8137,-369.5725 1033.136,-364.538 1022.7089,-362.6602 1023.8137,-369.5725"/>
</g>
<!-- Node951 -->
<g id="node17" class="node">
<title>Node951</title>
<g id="a_node17"><a xlink:href="namespacechi.html#a2b3839fa03d8bfb6ef3238543d44d865" target="_top" xlink:title="Parse something that looks like: {&quot;hello&quot;: &quot;there&quot;} into {&quot;hello&quot;, &quot;there&quot;}. ">
<polygon fill="#ffffff" stroke="#000000" points="348.5,-122.5 348.5,-141.5 453.5,-141.5 453.5,-122.5 348.5,-122.5"/>
<text text-anchor="middle" x="401" y="-129.5" font-family="Helvetica,sans-Serif" font-size="10.00" fill="#000000">chi::parseObjectPair</text>
</a>
</g>
</g>
<!-- Node950&#45;&gt;Node951 -->
<g id="edge24" class="edge">
<title>Node950&#45;&gt;Node951</title>
<path fill="none" stroke="#191970" d="M268.0295,-173.8747C297.0383,-164.7393 333.5762,-153.2329 361.0071,-144.5944"/>
<polygon fill="#191970" stroke="#191970" points="362.1835,-147.8935 370.6704,-141.5513 360.0809,-141.2167 362.1835,-147.8935"/>
</g>
<!-- Node952 -->
<g id="node18" class="node">
<title>Node952</title>
<g id="a_node18"><a xlink:href="namespacechi.html#aa47212ba13fb1a1d26774dc208c15255" target="_top" xlink:title="Parse a colonated pair Example: lang:i32 would turn into {lang, i32}. ">
<polygon fill="#ffffff" stroke="#000000" points="350.5,-198.5 350.5,-217.5 451.5,-217.5 451.5,-198.5 350.5,-198.5"/>
<text text-anchor="middle" x="401" y="-205.5" font-family="Helvetica,sans-Serif" font-size="10.00" fill="#000000">chi::parseColonPair</text>
</a>
</g>
</g>
<!-- Node950&#45;&gt;Node952 -->
<g id="edge25" class="edge">
<title>Node950&#45;&gt;Node952</title>
<path fill="none" stroke="#191970" d="M291.0165,-196.4548C307.2652,-198.1604 324.3935,-199.9584 340.1693,-201.6145"/>
<polygon fill="#191970" stroke="#191970" points="340.0074,-205.1166 350.3181,-202.6798 340.7382,-198.1549 340.0074,-205.1166"/>
</g>
<!-- Node953 -->
<g id="node19" class="node">
<title>Node953</title>
<g id="a_node19"><a xlink:href="structchi_1_1Context.html#a9e0b185a1871ebfda5d7bd410bf085f2" target="_top" xlink:title="Gets a DataType from a module. ">
<polygon fill="#ffffff" stroke="#000000" points="327,-274.5 327,-293.5 475,-293.5 475,-274.5 327,-274.5"/>
<text text-anchor="middle" x="401" y="-281.5" font-family="Helvetica,sans-Serif" font-size="10.00" fill="#000000">chi::Context::typeFromModule</text>
</a>
</g>
</g>
<!-- Node950&#45;&gt;Node953 -->
<g id="edge29" class="edge">
<title>Node950&#45;&gt;Node953</title>
<path fill="none" stroke="#191970" d="M239.1467,-204.0478C259.8437,-219.7379 294.2742,-244.2025 327,-260 335.8467,-264.2705 345.6399,-268.0517 355.1276,-271.2769"/>
<polygon fill="#191970" stroke="#191970" points="354.2597,-274.6749 364.8518,-274.4339 356.4213,-268.017 354.2597,-274.6749"/>
</g>
<!-- Node952&#45;&gt;Node936 -->
<g id="edge26" class="edge">
<title>Node952&#45;&gt;Node936</title>
<path fill="none" stroke="#191970" d="M451.6379,-208.4774C529.8712,-207.3931 683.2781,-197.9262 800,-145 828.3476,-132.1461 857.8016,-112.3718 878.4455,-97.2818"/>
<polygon fill="#191970" stroke="#191970" points="880.7818,-99.9065 886.7246,-91.1353 876.6091,-94.2861 880.7818,-99.9065"/>
</g>
<!-- Node952&#45;&gt;Node938 -->
<g id="edge27" class="edge">
<title>Node952&#45;&gt;Node938</title>
<path fill="none" stroke="#191970" d="M436.6134,-198.4777C462.5097,-191.5536 498.1731,-182.0179 528.3806,-173.941"/>
<polygon fill="#191970" stroke="#191970" points="529.6372,-177.2281 538.3937,-171.2637 527.829,-170.4656 529.6372,-177.2281"/>
</g>
<!-- Node953&#45;&gt;Node947 -->
<g id="edge30" class="edge">
<title>Node953&#45;&gt;Node947</title>
<path fill="none" stroke="#191970" d="M451.8165,-293.5402C470.3945,-296.8262 491.6072,-300.3439 511,-303 694.966,-328.1965 913.8367,-344.1877 1020.3418,-351.0794"/>
<polygon fill="#191970" stroke="#191970" points="1020.3987,-354.5902 1030.6023,-351.7377 1020.8469,-347.6046 1020.3987,-354.5902"/>
</g>
<!-- Node954 -->
<g id="node20" class="node">
<title>Node954</title>
<g id="a_node20"><a xlink:href="structchi_1_1ChiModule.html#a03aa9f90fafd384094861dfff13eba77" target="_top" xlink:title="Get a DataType from the name. ">
<polygon fill="#ffffff" stroke="#000000" points="511,-274.5 511,-293.5 665,-293.5 665,-274.5 511,-274.5"/>
<text text-anchor="middle" x="588" y="-281.5" font-family="Helvetica,sans-Serif" font-size="10.00" fill="#000000">chi::ChiModule::typeFromName</text>
</a>
</g>
</g>
<!-- Node953&#45;&gt;Node954 -->
<g id="edge31" class="edge">
<title>Node953&#45;&gt;Node954</title>
<path fill="none" stroke="#191970" d="M475.1759,-284C483.6045,-284 492.2521,-284 500.8284,-284"/>
<polygon fill="#191970" stroke="#191970" points="500.8461,-287.5001 510.8461,-284 500.846,-280.5001 500.8461,-287.5001"/>
</g>
</g>
</svg>
