<?xml version="1.0" encoding="UTF-8" standalone="no"?>
<!DOCTYPE svg PUBLIC "-//W3C//DTD SVG 1.1//EN"
 "http://www.w3.org/Graphics/SVG/1.1/DTD/svg11.dtd">
<!-- Generated by graphviz version 2.40.1 (20161225.0304)
 -->
<!-- Title: chi::GraphStruct::removeType Pages: 1 -->
<!--zoomable 161 -->
<svg id="main" version="1.1" xmlns="http://www.w3.org/2000/svg" xmlns:xlink="http://www.w3.org/1999/xlink" xml:space="preserve" onload="init(evt)">
<style type="text/css"><![CDATA[
.edge:hover path { stroke: red; }
.edge:hover polygon { stroke: red; fill: red; }
]]></style>
<script type="text/javascript"><![CDATA[
var edges = document.getElementsByTagName('g');
if (edges && edges.length) {
  for (var i=0;i<edges.length;i++) {
    if (edges[i].id.substr(0,4)=='edge') {
      edges[i].setAttribute('class','edge');
    }
  }
}
]]></script>
        <defs>
                <circle id="rim" cx="0" cy="0" r="7"/>
                <circle id="rim2" cx="0" cy="0" r="3.5"/>
                <g id="zoomPlus">
                        <use xlink:href="#rim" fill="#404040">
                                <set attributeName="fill" to="#808080" begin="zoomplus.mouseover" end="zoomplus.mouseout"/>
                        </use>
                        <path d="M-4,0h8M0,-4v8" fill="none" stroke="white" stroke-width="1.5" pointer-events="none"/>
                </g>
                <g id="zoomMin">
                        <use xlink:href="#rim" fill="#404040">
                                <set attributeName="fill" to="#808080" begin="zoomminus.mouseover" end="zoomminus.mouseout"/>
                        </use>
                        <path d="M-4,0h8" fill="none" stroke="white" stroke-width="1.5" pointer-events="none"/>
                </g>
                <g id="dirArrow">
                        <path fill="none" stroke="white" stroke-width="1.5" d="M0,-3.0v7 M-2.5,-0.5L0,-3.0L2.5,-0.5"/>
                </g>
               <g id="resetDef">
                       <use xlink:href="#rim2" fill="#404040">
                               <set attributeName="fill" to="#808080" begin="reset.mouseover" end="reset.mouseout"/>
                       </use>
               </g>
        </defs>

<script type="text/javascript">
var viewWidth = 653;
var viewHeight = 161;
var sectionId = 'dynsection-8';
</script>
<script xlink:href="svgpan.js"/>
<svg id="graph" class="graph">
<g id="viewport">
<title>chi::GraphStruct::removeType</title>
<polygon fill="#ffffff" stroke="transparent" points="-4,4 -4,-157 649,-157 649,4 -4,4"/>
<!-- Node69 -->
<g id="node1" class="node">
<title>Node69</title>
<polygon fill="#bfbfbf" stroke="#000000" points="0,-95.5 0,-114.5 148,-114.5 148,-95.5 0,-95.5"/>
<text text-anchor="middle" x="74" y="-102.5" font-family="Helvetica,sans-Serif" font-size="10.00" fill="#000000">chi::GraphStruct::removeType</text>
</g>
<!-- Node70 -->
<g id="node2" class="node">
<title>Node70</title>
<g id="a_node2"><a xlink:href="structchi_1_1GraphStruct.html#ae1895cfaebac03e21d35ec2a155b3c10" target="_top" xlink:title="Get the types the struct contains. ">
<polygon fill="#ffffff" stroke="#000000" points="184,-95.5 184,-114.5 302,-114.5 302,-95.5 184,-95.5"/>
<text text-anchor="middle" x="243" y="-102.5" font-family="Helvetica,sans-Serif" font-size="10.00" fill="#000000">chi::GraphStruct::types</text>
</a>
</g>
</g>
<!-- Node69&#45;&gt;Node70 -->
<g id="edge1" class="edge">
<title>Node69&#45;&gt;Node70</title>
<path fill="none" stroke="#191970" d="M148.1259,-98.2954C156.6378,-98.2205 165.2924,-98.2382 173.7369,-98.3485"/>
<polygon fill="#191970" stroke="#191970" points="173.8491,-101.8509 183.9096,-98.5289 173.9733,-94.852 173.8491,-101.8509"/>
</g>
<!-- Node70&#45;&gt;Node69 -->
<g id="edge8" class="edge">
<title>Node70&#45;&gt;Node69</title>
<path fill="none" stroke="#191970" d="M183.9096,-111.4711C175.6038,-111.6587 166.9368,-111.7516 158.2731,-111.75"/>
<polygon fill="#191970" stroke="#191970" points="158.1415,-108.2495 148.1259,-111.7046 158.1101,-115.2494 158.1415,-108.2495"/>
</g>
<!-- Node71 -->
<g id="node3" class="node">
<title>Node71</title>
<g id="a_node3"><a xlink:href="structchi_1_1GraphStruct.html#ad2857a2f5fec097866d903468e4e4b85" target="_top" xlink:title="Add a new type to the struct. ">
<polygon fill="#ffffff" stroke="#000000" points="345,-133.5 345,-152.5 476,-152.5 476,-133.5 345,-133.5"/>
<text text-anchor="middle" x="410.5" y="-140.5" font-family="Helvetica,sans-Serif" font-size="10.00" fill="#000000">chi::GraphStruct::addType</text>
</a>
</g>
</g>
<!-- Node70&#45;&gt;Node71 -->
<g id="edge2" class="edge">
<title>Node70&#45;&gt;Node71</title>
<path fill="none" stroke="#191970" d="M302.0542,-111.9153C328.0737,-117.2381 357.5857,-124.2953 379.2468,-130.5134"/>
<polygon fill="#191970" stroke="#191970" points="378.3192,-133.889 388.9025,-133.3943 380.3206,-127.1812 378.3192,-133.889"/>
</g>
<!-- Node73 -->
<g id="node5" class="node">
<title>Node73</title>
<g id="a_node5"><a xlink:href="structchi_1_1GraphStruct.html#a14ceb731adea8daa0edd34c22d9fab6a" target="_top" xlink:title="Change the type and name of a type. ">
<polygon fill="#ffffff" stroke="#000000" points="338,-95.5 338,-114.5 483,-114.5 483,-95.5 338,-95.5"/>
<text text-anchor="middle" x="410.5" y="-102.5" font-family="Helvetica,sans-Serif" font-size="10.00" fill="#000000">chi::GraphStruct::modifyType</text>
</a>
</g>
</g>
<!-- Node70&#45;&gt;Node73 -->
<g id="edge5" class="edge">
<title>Node70&#45;&gt;Node73</title>
<path fill="none" stroke="#191970" d="M302.0542,-98.5179C310.381,-98.3323 319.0655,-98.2431 327.7359,-98.2504"/>
<polygon fill="#191970" stroke="#191970" points="327.8674,-101.7511 337.8855,-98.3033 327.9039,-94.7511 327.8674,-101.7511"/>
</g>
<!-- Node74 -->
<g id="node6" class="node">
<title>Node74</title>
<g id="a_node6"><a xlink:href="structchi_1_1GraphStruct.html#a27c5062196f73eae3125c0baeb592d00" target="_top" xlink:title="Get the DataType of the struct. ">
<polygon fill="#ffffff" stroke="#000000" points="343.5,-57.5 343.5,-76.5 477.5,-76.5 477.5,-57.5 343.5,-57.5"/>
<text text-anchor="middle" x="410.5" y="-64.5" font-family="Helvetica,sans-Serif" font-size="10.00" fill="#000000">chi::GraphStruct::dataType</text>
</a>
</g>
</g>
<!-- Node70&#45;&gt;Node74 -->
<g id="edge9" class="edge">
<title>Node70&#45;&gt;Node74</title>
<path fill="none" stroke="#191970" d="M264.5548,-95.4076C282.1835,-89.9105 308.2349,-83.3242 333.4677,-77.7453"/>
<polygon fill="#191970" stroke="#191970" points="334.4195,-81.1204 343.4513,-75.5818 332.9369,-74.2792 334.4195,-81.1204"/>
</g>
<!-- Node71&#45;&gt;Node70 -->
<g id="edge3" class="edge">
<title>Node71&#45;&gt;Node70</title>
<path fill="none" stroke="#191970" d="M344.9436,-134.7339C320.6305,-129.6075 294.1678,-123.2015 274.2981,-117.4995"/>
<polygon fill="#191970" stroke="#191970" points="275.1381,-114.0977 264.5548,-114.5924 273.1366,-120.8055 275.1381,-114.0977"/>
</g>
<!-- Node72 -->
<g id="node4" class="node">
<title>Node72</title>
<g id="a_node4"><a xlink:href="structchi_1_1DataType.html#a03384814dde82f88fb097d556cb1da66" target="_top" xlink:title="Check if the DataType is valid (if it&#39;s actually bound to a type and module) ">
<polygon fill="#ffffff" stroke="#000000" points="530,-114.5 530,-133.5 634,-133.5 634,-114.5 530,-114.5"/>
<text text-anchor="middle" x="582" y="-121.5" font-family="Helvetica,sans-Serif" font-size="10.00" fill="#000000">chi::DataType::valid</text>
</a>
</g>
</g>
<!-- Node71&#45;&gt;Node72 -->
<g id="edge4" class="edge">
<title>Node71&#45;&gt;Node72</title>
<path fill="none" stroke="#191970" d="M476.3159,-135.7084C490.606,-134.1253 505.6781,-132.4555 519.8224,-130.8885"/>
<polygon fill="#191970" stroke="#191970" points="520.3795,-134.3483 529.9333,-129.7683 519.6087,-127.3908 520.3795,-134.3483"/>
</g>
<!-- Node73&#45;&gt;Node70 -->
<g id="edge6" class="edge">
<title>Node73&#45;&gt;Node70</title>
<path fill="none" stroke="#191970" d="M337.8855,-111.6967C329.3766,-111.7786 320.7115,-111.7661 312.2501,-111.6593"/>
<polygon fill="#191970" stroke="#191970" points="312.1136,-108.1565 302.0542,-111.4821 311.9919,-115.1554 312.1136,-108.1565"/>
</g>
<!-- Node73&#45;&gt;Node72 -->
<g id="edge7" class="edge">
<title>Node73&#45;&gt;Node72</title>
<path fill="none" stroke="#191970" d="M483.2314,-113.0577C495.3763,-114.4032 507.878,-115.7882 519.731,-117.1014"/>
<polygon fill="#191970" stroke="#191970" points="519.6305,-120.6116 529.9551,-118.2341 520.4014,-113.6542 519.6305,-120.6116"/>
</g>
<!-- Node74&#45;&gt;Node70 -->
<g id="edge11" class="edge">
<title>Node74&#45;&gt;Node70</title>
<path fill="none" stroke="#191970" d="M388.9025,-76.6057C369.4143,-82.6799 339.6578,-90.0811 312.0891,-95.9833"/>
<polygon fill="#191970" stroke="#191970" points="311.1245,-92.6093 302.0542,-98.0847 312.5593,-99.4606 311.1245,-92.6093"/>
</g>
<!-- Node74&#45;&gt;Node72 -->
<g id="edge10" class="edge">
<title>Node74&#45;&gt;Node72</title>
<path fill="none" stroke="#191970" d="M453.5729,-76.55C463.3829,-79.2019 473.6624,-82.3679 483,-86 499.8611,-92.5585 502.2618,-98.134 519,-105 524.4845,-107.2497 530.3341,-109.3681 536.1754,-111.3159"/>
<polygon fill="#191970" stroke="#191970" points="535.3415,-114.7235 545.9321,-114.4259 537.4674,-108.0542 535.3415,-114.7235"/>
</g>
<!-- Node75 -->
<g id="node7" class="node">
<title>Node75</title>
<g id="a_node7"><a xlink:href="structchi_1_1GraphStruct.html#a262915d6d2148d7234525e9ccfa5c9d5" target="_top" xlink:title="Get the context. ">
<polygon fill="#ffffff" stroke="#000000" points="519,-76.5 519,-95.5 645,-95.5 645,-76.5 519,-76.5"/>
<text text-anchor="middle" x="582" y="-83.5" font-family="Helvetica,sans-Serif" font-size="10.00" fill="#000000">chi::GraphStruct::context</text>
</a>
</g>
</g>
<!-- Node74&#45;&gt;Node75 -->
<g id="edge12" class="edge">
<title>Node74&#45;&gt;Node75</title>
<path fill="none" stroke="#191970" d="M477.7891,-74.4548C487.924,-75.5776 498.42,-76.7404 508.6739,-77.8764"/>
<polygon fill="#191970" stroke="#191970" points="508.5001,-81.3785 518.8247,-79.001 509.271,-74.4211 508.5001,-81.3785"/>
</g>
<!-- Node76 -->
<g id="node8" class="node">
<title>Node76</title>
<g id="a_node8"><a xlink:href="structchi_1_1GraphStruct.html#ad25ddcbdf75436b9a0f76720d34257d4" target="_top" xlink:title="Get the name of the type. ">
<polygon fill="#ffffff" stroke="#000000" points="523,-38.5 523,-57.5 641,-57.5 641,-38.5 523,-38.5"/>
<text text-anchor="middle" x="582" y="-45.5" font-family="Helvetica,sans-Serif" font-size="10.00" fill="#000000">chi::GraphStruct::name</text>
</a>
</g>
</g>
<!-- Node74&#45;&gt;Node76 -->
<g id="edge13" class="edge">
<title>Node74&#45;&gt;Node76</title>
<path fill="none" stroke="#191970" d="M477.7891,-59.5452C489.3294,-58.2667 501.338,-56.9363 512.9241,-55.6527"/>
<polygon fill="#191970" stroke="#191970" points="513.421,-59.1192 522.9747,-54.5392 512.6501,-52.1617 513.421,-59.1192"/>
</g>
<!-- Node77 -->
<g id="node9" class="node">
<title>Node77</title>
<g id="a_node9"><a xlink:href="structchi_1_1GraphStruct.html#a82a1da52a4bf23e1e7fef4d7228603b1" target="_top" xlink:title="Get the module. ">
<polygon fill="#ffffff" stroke="#000000" points="519.5,-.5 519.5,-19.5 644.5,-19.5 644.5,-.5 519.5,-.5"/>
<text text-anchor="middle" x="582" y="-7.5" font-family="Helvetica,sans-Serif" font-size="10.00" fill="#000000">chi::GraphStruct::module</text>
</a>
</g>
</g>
<!-- Node74&#45;&gt;Node77 -->
<g id="edge14" class="edge">
<title>Node74&#45;&gt;Node77</title>
<path fill="none" stroke="#191970" d="M436.6999,-57.461C458.6074,-49.5723 490.7239,-38.2105 519,-29 525.5683,-26.8605 532.5487,-24.6716 539.3799,-22.5761"/>
<polygon fill="#191970" stroke="#191970" points="540.6648,-25.8438 549.2165,-19.5893 538.6309,-19.1458 540.6648,-25.8438"/>
</g>
</g>
</svg>
        <g id="navigator" transform="translate(0 0)" fill="#404254">
                <rect fill="#f2f5e9" fill-opacity="0.5" stroke="#606060" stroke-width=".5" x="0" y="0" width="60" height="60"/>
                <use id="zoomplus" xlink:href="#zoomPlus" x="17" y="9" onmousedown="handleZoom(evt,'in')"/>
                <use id="zoomminus" xlink:href="#zoomMin" x="42" y="9" onmousedown="handleZoom(evt,'out')"/>
                <use id="reset" xlink:href="#resetDef" x="30" y="36" onmousedown="handleReset()"/>
                <g id="arrowUp" xlink:href="#dirArrow" transform="translate(30 24)" onmousedown="handlePan(0,-1)">
                  <use xlink:href="#rim" fill="#404040">
                        <set attributeName="fill" to="#808080" begin="arrowUp.mouseover" end="arrowUp.mouseout"/>
                  </use>
                  <path fill="none" stroke="white" stroke-width="1.5" d="M0,-3.0v7 M-2.5,-0.5L0,-3.0L2.5,-0.5"/>
                </g>
                <g id="arrowRight" xlink:href="#dirArrow" transform="rotate(90) translate(36 -43)" onmousedown="handlePan(1,0)">
                  <use xlink:href="#rim" fill="#404040">
                        <set attributeName="fill" to="#808080" begin="arrowRight.mouseover" end="arrowRight.mouseout"/>
                  </use>
                  <path fill="none" stroke="white" stroke-width="1.5" d="M0,-3.0v7 M-2.5,-0.5L0,-3.0L2.5,-0.5"/>
                </g>
                <g id="arrowDown" xlink:href="#dirArrow" transform="rotate(180) translate(-30 -48)" onmousedown="handlePan(0,1)">
                  <use xlink:href="#rim" fill="#404040">
                        <set attributeName="fill" to="#808080" begin="arrowDown.mouseover" end="arrowDown.mouseout"/>
                  </use>
                  <path fill="none" stroke="white" stroke-width="1.5" d="M0,-3.0v7 M-2.5,-0.5L0,-3.0L2.5,-0.5"/>
                </g>
                <g id="arrowLeft" xlink:href="#dirArrow" transform="rotate(270) translate(-36 17)" onmousedown="handlePan(-1,0)">
                  <use xlink:href="#rim" fill="#404040">
                        <set attributeName="fill" to="#808080" begin="arrowLeft.mouseover" end="arrowLeft.mouseout"/>
                  </use>
                  <path fill="none" stroke="white" stroke-width="1.5" d="M0,-3.0v7 M-2.5,-0.5L0,-3.0L2.5,-0.5"/>
                </g>
        </g>
        <svg viewBox="0 0 15 15" width="100%" height="30px" preserveAspectRatio="xMaxYMin meet">
         <g id="arrow_out" transform="scale(0.3 0.3)">
          <a xlink:href="structchi_1_1GraphStruct_a02b93bf782565092d7ef58e2320f7589_cgraph_org.svg" target="_base">
           <rect id="button" ry="5" rx="5" y="6" x="6" height="38" width="38"
                fill="#f2f5e9" fill-opacity="0.5" stroke="#606060" stroke-width="1.0"/>
           <path id="arrow"
             d="M 11.500037,31.436501 C 11.940474,20.09759 22.043105,11.32322 32.158766,21.979434 L 37.068811,17.246167 C 37.068811,17.246167 37.088388,32 37.088388,32 L 22.160133,31.978069 C 22.160133,31.978069 26.997745,27.140456 26.997745,27.140456 C 18.528582,18.264221 13.291696,25.230495 11.500037,31.436501 z"
             style="fill:#404040;"/>
          </a>
         </g>
        </svg>
</svg>
