<?xml version="1.0" encoding="UTF-8" standalone="no"?>
<!DOCTYPE svg PUBLIC "-//W3C//DTD SVG 1.1//EN"
 "http://www.w3.org/Graphics/SVG/1.1/DTD/svg11.dtd">
<!-- Generated by graphviz version 2.40.1 (20161225.0304)
 -->
<!-- Title: chi::ChiModule::shortName Pages: 1 -->
<svg width="1618pt" height="176pt"
 viewBox="0.00 0.00 1618.00 176.00" xmlns="http://www.w3.org/2000/svg" xmlns:xlink="http://www.w3.org/1999/xlink">
<g id="graph0" class="graph" transform="scale(1 1) rotate(0) translate(4 172)">
<title>chi::ChiModule::shortName</title>
<polygon fill="#ffffff" stroke="transparent" points="-4,4 -4,-172 1614,-172 1614,4 -4,4"/>
<!-- Node169 -->
<g id="node1" class="node">
<title>Node169</title>
<polygon fill="#bfbfbf" stroke="#000000" points="0,-121 0,-140 134,-140 134,-121 0,-121"/>
<text text-anchor="middle" x="67" y="-128" font-family="Helvetica,sans-Serif" font-size="10.00" fill="#000000">chi::ChiModule::shortName</text>
</g>
<!-- Node170 -->
<g id="node2" class="node">
<title>Node170</title>
<g id="a_node2"><a xlink:href="structchi_1_1GraphModule.html#a10cfac308c6e0f1fa38be5513b2380cc" target="_top" xlink:title="Get the path to the .c directory. It is not garunteed to exist, even if cEnabled() is true...">
<polygon fill="#ffffff" stroke="#000000" points="170,-115.5 170,-145.5 299,-145.5 299,-115.5 170,-115.5"/>
<text text-anchor="start" x="178" y="-133.5" font-family="Helvetica,sans-Serif" font-size="10.00" fill="#000000">chi::GraphModule::pathTo</text>
<text text-anchor="middle" x="234.5" y="-122.5" font-family="Helvetica,sans-Serif" font-size="10.00" fill="#000000">CSources</text>
</a>
</g>
</g>
<!-- Node169&#45;&gt;Node170 -->
<g id="edge1" class="edge">
<title>Node169&#45;&gt;Node170</title>
<path fill="none" stroke="#191970" d="M144.4352,-130.5C152.9107,-130.5 161.4729,-130.5 169.772,-130.5"/>
<polygon fill="#191970" stroke="#191970" points="144.1636,-127.0001 134.1635,-130.5 144.1635,-134.0001 144.1636,-127.0001"/>
</g>
<!-- Node171 -->
<g id="node3" class="node">
<title>Node171</title>
<g id="a_node3"><a xlink:href="structchi_1_1GraphModule.html#a9b73bbbfa91d6a2f92bcca270bdb7b2f" target="_top" xlink:title="Generate a llvm::Module from the module. ">
<polygon fill="#ffffff" stroke="#000000" points="675.5,-137.5 675.5,-167.5 812.5,-167.5 812.5,-137.5 675.5,-137.5"/>
<text text-anchor="start" x="683.5" y="-155.5" font-family="Helvetica,sans-Serif" font-size="10.00" fill="#000000">chi::GraphModule::generate</text>
<text text-anchor="middle" x="744" y="-144.5" font-family="Helvetica,sans-Serif" font-size="10.00" fill="#000000">Module</text>
</a>
</g>
</g>
<!-- Node170&#45;&gt;Node171 -->
<g id="edge2" class="edge">
<title>Node170&#45;&gt;Node171</title>
<path fill="none" stroke="#191970" d="M309.2023,-133.7256C407.6919,-137.9784 579.6312,-145.4026 675.121,-149.5258"/>
<polygon fill="#191970" stroke="#191970" points="309.1702,-130.2211 299.0285,-133.2863 308.8682,-137.2145 309.1702,-130.2211"/>
</g>
<!-- Node172 -->
<g id="node4" class="node">
<title>Node172</title>
<g id="a_node4"><a xlink:href="structchi_1_1GraphModule.html#a24162d01532244d8945128b71af5fc48" target="_top" xlink:title="From C code, create a NodeType. ">
<polygon fill="#ffffff" stroke="#000000" points="335,-93.5 335,-123.5 461,-123.5 461,-93.5 335,-93.5"/>
<text text-anchor="start" x="343" y="-111.5" font-family="Helvetica,sans-Serif" font-size="10.00" fill="#000000">chi::GraphModule::create</text>
<text text-anchor="middle" x="398" y="-100.5" font-family="Helvetica,sans-Serif" font-size="10.00" fill="#000000">NodeTypeFromCCode</text>
</a>
</g>
</g>
<!-- Node170&#45;&gt;Node172 -->
<g id="edge3" class="edge">
<title>Node170&#45;&gt;Node172</title>
<path fill="none" stroke="#191970" d="M309.1557,-120.4546C317.7661,-119.296 326.4822,-118.1232 334.9182,-116.9881"/>
<polygon fill="#191970" stroke="#191970" points="308.5634,-117.0026 299.1195,-121.805 309.497,-123.9401 308.5634,-117.0026"/>
</g>
<!-- Node173 -->
<g id="node5" class="node">
<title>Node173</title>
<g id="a_node5"><a xlink:href="structchi_1_1GraphModule.html#ac251cc6b4242642f6601c8c3607f5747" target="_top" xlink:title="Gets if C support is enabled. ">
<polygon fill="#ffffff" stroke="#000000" points="497,-99 497,-118 637,-118 637,-99 497,-99"/>
<text text-anchor="middle" x="567" y="-106" font-family="Helvetica,sans-Serif" font-size="10.00" fill="#000000">chi::GraphModule::cEnabled</text>
</a>
</g>
</g>
<!-- Node172&#45;&gt;Node173 -->
<g id="edge4" class="edge">
<title>Node172&#45;&gt;Node173</title>
<path fill="none" stroke="#191970" d="M471.6009,-108.5C480.0343,-108.5 488.615,-108.5 496.9993,-108.5"/>
<polygon fill="#191970" stroke="#191970" points="471.4102,-105.0001 461.4102,-108.5 471.4101,-112.0001 471.4102,-105.0001"/>
</g>
<!-- Node173&#45;&gt;Node171 -->
<g id="edge5" class="edge">
<title>Node173&#45;&gt;Node171</title>
<path fill="none" stroke="#191970" d="M615.3779,-120.5261C636.3731,-125.7453 661.1897,-131.9144 683.3961,-137.4346"/>
<polygon fill="#191970" stroke="#191970" points="615.9554,-117.0632 605.4064,-118.0473 614.2666,-123.8565 615.9554,-117.0632"/>
</g>
<!-- Node174 -->
<g id="node6" class="node">
<title>Node174</title>
<g id="a_node6"><a xlink:href="namespacechi.html#a9a4f3fa54c612f0c559a353bb7382d5a" target="_top" xlink:title="Serialize a JsonModule to json. ">
<polygon fill="#ffffff" stroke="#000000" points="1300,-77 1300,-96 1423,-96 1423,-77 1300,-77"/>
<text text-anchor="middle" x="1361.5" y="-84" font-family="Helvetica,sans-Serif" font-size="10.00" fill="#000000">chi::graphModuleToJson</text>
</a>
</g>
</g>
<!-- Node173&#45;&gt;Node174 -->
<g id="edge6" class="edge">
<title>Node173&#45;&gt;Node174</title>
<path fill="none" stroke="#191970" d="M647.4615,-108.5C716.4582,-108.5 818.519,-108.5 907.5,-108.5 907.5,-108.5 907.5,-108.5 1049.5,-108.5 1136.5176,-108.5 1236.8494,-99.8794 1299.7291,-93.4307"/>
<polygon fill="#191970" stroke="#191970" points="647.1034,-105.0001 637.1034,-108.5 647.1034,-112.0001 647.1034,-105.0001"/>
</g>
<!-- Node176 -->
<g id="node8" class="node">
<title>Node176</title>
<g id="a_node8"><a xlink:href="structchi_1_1GraphModule.html#a133c0595e0bb888f958e9769838f6c0c" target="_top" xlink:title="Create a node type that is in the module from the name and json. ">
<polygon fill="#ffffff" stroke="#000000" points="673,-49.5 673,-79.5 815,-79.5 815,-49.5 673,-49.5"/>
<text text-anchor="start" x="681" y="-67.5" font-family="Helvetica,sans-Serif" font-size="10.00" fill="#000000">chi::GraphModule::nodeType</text>
<text text-anchor="middle" x="744" y="-56.5" font-family="Helvetica,sans-Serif" font-size="10.00" fill="#000000">FromName</text>
</a>
</g>
</g>
<!-- Node173&#45;&gt;Node176 -->
<g id="edge8" class="edge">
<title>Node173&#45;&gt;Node176</title>
<path fill="none" stroke="#191970" d="M615.3779,-96.4739C636.3731,-91.2547 661.1897,-85.0856 683.3961,-79.5654"/>
<polygon fill="#191970" stroke="#191970" points="614.2666,-93.1435 605.4064,-98.9527 615.9554,-99.9368 614.2666,-93.1435"/>
</g>
<!-- Node181 -->
<g id="node13" class="node">
<title>Node181</title>
<g id="a_node13"><a xlink:href="structchi_1_1GraphModule.html#a53a1a284ab878783e74a957bb3b711b3" target="_top" xlink:title="Get the possible node type names. ">
<polygon fill="#ffffff" stroke="#000000" points="673,-.5 673,-30.5 815,-30.5 815,-.5 673,-.5"/>
<text text-anchor="start" x="681" y="-18.5" font-family="Helvetica,sans-Serif" font-size="10.00" fill="#000000">chi::GraphModule::nodeType</text>
<text text-anchor="middle" x="744" y="-7.5" font-family="Helvetica,sans-Serif" font-size="10.00" fill="#000000">Names</text>
</a>
</g>
</g>
<!-- Node173&#45;&gt;Node181 -->
<g id="edge15" class="edge">
<title>Node173&#45;&gt;Node181</title>
<path fill="none" stroke="#191970" d="M587.4942,-92.9209C608.1984,-77.7335 641.5357,-54.7574 673,-39.5 679.6734,-36.264 686.8949,-33.2792 694.0897,-30.5942"/>
<polygon fill="#191970" stroke="#191970" points="585.3761,-90.1343 579.4367,-98.9078 589.551,-95.7531 585.3761,-90.1343"/>
</g>
<!-- Node175 -->
<g id="node7" class="node">
<title>Node175</title>
<g id="a_node7"><a xlink:href="structchi_1_1GraphModule.html#a5cd9fb1738336d5d382ebb50753bda3e" target="_top" xlink:title="Serialize to disk in the context. ">
<polygon fill="#ffffff" stroke="#000000" points="1459,-77 1459,-96 1610,-96 1610,-77 1459,-77"/>
<text text-anchor="middle" x="1534.5" y="-84" font-family="Helvetica,sans-Serif" font-size="10.00" fill="#000000">chi::GraphModule::saveToDisk</text>
</a>
</g>
</g>
<!-- Node174&#45;&gt;Node175 -->
<g id="edge7" class="edge">
<title>Node174&#45;&gt;Node175</title>
<path fill="none" stroke="#191970" d="M1433.5243,-86.5C1441.8612,-86.5 1450.3827,-86.5 1458.7672,-86.5"/>
<polygon fill="#191970" stroke="#191970" points="1433.4684,-83.0001 1423.4683,-86.5 1433.4683,-90.0001 1433.4684,-83.0001"/>
</g>
<!-- Node177 -->
<g id="node9" class="node">
<title>Node177</title>
<g id="a_node9"><a xlink:href="structchi_1_1GraphFunction.html#a60bc423cb4fed3605a446da112949483" target="_top" xlink:title="Rename a local variable. ">
<polygon fill="#ffffff" stroke="#000000" points="851,-49.5 851,-79.5 964,-79.5 964,-49.5 851,-49.5"/>
<text text-anchor="start" x="859" y="-67.5" font-family="Helvetica,sans-Serif" font-size="10.00" fill="#000000">chi::GraphFunction</text>
<text text-anchor="middle" x="907.5" y="-56.5" font-family="Helvetica,sans-Serif" font-size="10.00" fill="#000000">::renameLocalVariable</text>
</a>
</g>
</g>
<!-- Node176&#45;&gt;Node177 -->
<g id="edge9" class="edge">
<title>Node176&#45;&gt;Node177</title>
<path fill="none" stroke="#191970" d="M825.3064,-64.5C833.9054,-64.5 842.5108,-64.5 850.7423,-64.5"/>
<polygon fill="#191970" stroke="#191970" points="825.2379,-61.0001 815.2379,-64.5 825.2378,-68.0001 825.2379,-61.0001"/>
</g>
<!-- Node180 -->
<g id="node12" class="node">
<title>Node180</title>
<g id="a_node12"><a xlink:href="structchi_1_1GraphFunction.html#a4c38679ec5e727bfb71c8eaaa5a8ca1a" target="_top" xlink:title="Set a new type to a local variable. ">
<polygon fill="#ffffff" stroke="#000000" points="853.5,-.5 853.5,-30.5 961.5,-30.5 961.5,-.5 853.5,-.5"/>
<text text-anchor="start" x="861.5" y="-18.5" font-family="Helvetica,sans-Serif" font-size="10.00" fill="#000000">chi::GraphFunction</text>
<text text-anchor="middle" x="907.5" y="-7.5" font-family="Helvetica,sans-Serif" font-size="10.00" fill="#000000">::retypeLocalVariable</text>
</a>
</g>
</g>
<!-- Node176&#45;&gt;Node180 -->
<g id="edge13" class="edge">
<title>Node176&#45;&gt;Node180</title>
<path fill="none" stroke="#191970" d="M804.438,-46.3871C821.82,-41.1778 840.584,-35.5543 857.2769,-30.5516"/>
<polygon fill="#191970" stroke="#191970" points="802.9638,-43.175 794.3895,-49.3986 804.9734,-49.8804 802.9638,-43.175"/>
</g>
<!-- Node178 -->
<g id="node10" class="node">
<title>Node178</title>
<g id="a_node10"><a xlink:href="structchi_1_1GraphFunction.html#a44f8f791775e4878b6bde37140cd131d" target="_top" xlink:title="Get the local variables. ">
<polygon fill="#ffffff" stroke="#000000" points="1000,-49.5 1000,-79.5 1099,-79.5 1099,-49.5 1000,-49.5"/>
<text text-anchor="start" x="1008" y="-67.5" font-family="Helvetica,sans-Serif" font-size="10.00" fill="#000000">chi::GraphFunction</text>
<text text-anchor="middle" x="1049.5" y="-56.5" font-family="Helvetica,sans-Serif" font-size="10.00" fill="#000000">::localVariables</text>
</a>
</g>
</g>
<!-- Node177&#45;&gt;Node178 -->
<g id="edge10" class="edge">
<title>Node177&#45;&gt;Node178</title>
<path fill="none" stroke="#191970" d="M974.0501,-64.5C982.6457,-64.5 991.3285,-64.5 999.5921,-64.5"/>
<polygon fill="#191970" stroke="#191970" points="974.0302,-61.0001 964.0302,-64.5 974.0301,-68.0001 974.0302,-61.0001"/>
</g>
<!-- Node179 -->
<g id="node11" class="node">
<title>Node179</title>
<g id="a_node11"><a xlink:href="namespacechi.html#afd8b8d8a207d88359ad1e6a48d8f3bb1" target="_top" xlink:title="Serialize a GraphFunction to json. ">
<polygon fill="#ffffff" stroke="#000000" points="1135,-58 1135,-77 1264,-77 1264,-58 1135,-58"/>
<text text-anchor="middle" x="1199.5" y="-65" font-family="Helvetica,sans-Serif" font-size="10.00" fill="#000000">chi::graphFunctionToJson</text>
</a>
</g>
</g>
<!-- Node178&#45;&gt;Node179 -->
<g id="edge11" class="edge">
<title>Node178&#45;&gt;Node179</title>
<path fill="none" stroke="#191970" d="M1109.142,-65.6928C1117.5655,-65.8613 1126.259,-66.0352 1134.7726,-66.2055"/>
<polygon fill="#191970" stroke="#191970" points="1109.0993,-62.1914 1099.0313,-65.4906 1108.9593,-69.19 1109.0993,-62.1914"/>
</g>
<!-- Node179&#45;&gt;Node174 -->
<g id="edge12" class="edge">
<title>Node179&#45;&gt;Node174</title>
<path fill="none" stroke="#191970" d="M1274.424,-76.2874C1282.9684,-77.2895 1291.6035,-78.3023 1299.9461,-79.2807"/>
<polygon fill="#191970" stroke="#191970" points="1274.7978,-72.8073 1264.4582,-75.1185 1273.9824,-79.7597 1274.7978,-72.8073"/>
</g>
<!-- Node180&#45;&gt;Node178 -->
<g id="edge14" class="edge">
<title>Node180&#45;&gt;Node178</title>
<path fill="none" stroke="#191970" d="M960.7924,-33.8896C975.5776,-38.9916 991.457,-44.4711 1005.6367,-49.3641"/>
<polygon fill="#191970" stroke="#191970" points="961.8581,-30.5549 951.2634,-30.6014 959.5747,-37.172 961.8581,-30.5549"/>
</g>
</g>
</svg>
