<?xml version="1.0" encoding="UTF-8" standalone="no"?>
<!DOCTYPE svg PUBLIC "-//W3C//DTD SVG 1.1//EN"
 "http://www.w3.org/Graphics/SVG/1.1/DTD/svg11.dtd">
<!-- Generated by graphviz version 2.40.1 (20161225.0304)
 -->
<!-- Title: chig::Context::typeFromModule Pages: 1 -->
<!--zoomable 160 -->
<svg id="main" version="1.1" xmlns="http://www.w3.org/2000/svg" xmlns:xlink="http://www.w3.org/1999/xlink" xml:space="preserve" onload="init(evt)">
<style type="text/css"><![CDATA[
.edge:hover path { stroke: red; }
.edge:hover polygon { stroke: red; fill: red; }
]]></style>
<script type="text/javascript"><![CDATA[
var edges = document.getElementsByTagName('g');
if (edges && edges.length) {
  for (var i=0;i<edges.length;i++) {
    if (edges[i].id.substr(0,4)=='edge') {
      edges[i].setAttribute('class','edge');
    }
  }
}
]]></script>
        <defs>
                <circle id="rim" cx="0" cy="0" r="7"/>
                <circle id="rim2" cx="0" cy="0" r="3.5"/>
                <g id="zoomPlus">
                        <use xlink:href="#rim" fill="#404040">
                                <set attributeName="fill" to="#808080" begin="zoomplus.mouseover" end="zoomplus.mouseout"/>
                        </use>
                        <path d="M-4,0h8M0,-4v8" fill="none" stroke="white" stroke-width="1.5" pointer-events="none"/>
                </g>
                <g id="zoomMin">
                        <use xlink:href="#rim" fill="#404040">
                                <set attributeName="fill" to="#808080" begin="zoomminus.mouseover" end="zoomminus.mouseout"/>
                        </use>
                        <path d="M-4,0h8" fill="none" stroke="white" stroke-width="1.5" pointer-events="none"/>
                </g>
                <g id="dirArrow">
                        <path fill="none" stroke="white" stroke-width="1.5" d="M0,-3.0v7 M-2.5,-0.5L0,-3.0L2.5,-0.5"/>
                </g>
               <g id="resetDef">
                       <use xlink:href="#rim2" fill="#404040">
                               <set attributeName="fill" to="#808080" begin="reset.mouseover" end="reset.mouseout"/>
                       </use>
               </g>
        </defs>

<script type="text/javascript">
var viewWidth = 731;
var viewHeight = 160;
var sectionId = 'dynsection-13';
</script>
<script xlink:href="svgpan.js"/>
<svg id="graph" class="graph">
<g id="viewport">
<title>chig::Context::typeFromModule</title>
<polygon fill="#ffffff" stroke="transparent" points="-4,4 -4,-155.5 727,-155.5 727,4 -4,4"/>
<!-- Node106 -->
<g id="node1" class="node">
<title>Node106</title>
<polygon fill="#bfbfbf" stroke="#000000" points="0,-60.5 0,-79.5 169,-79.5 169,-60.5 0,-60.5"/>
<text text-anchor="middle" x="84.5" y="-67.5" font-family="Helvetica,sans-Serif" font-size="10.00" fill="#000000">chig::Context::typeFromModule</text>
</g>
<!-- Node107 -->
<g id="node2" class="node">
<title>Node107</title>
<g id="a_node2"><a xlink:href="namespacechig.html#a4f26546c4bc76c31cc822d0365be0f30" target="_top" xlink:title="Compile the graph to an llvm::Function (usually called from JsonModule::generateModule) ...">
<polygon fill="#ffffff" stroke="#000000" points="226.5,-126.5 226.5,-145.5 349.5,-145.5 349.5,-126.5 226.5,-126.5"/>
<text text-anchor="middle" x="288" y="-133.5" font-family="Helvetica,sans-Serif" font-size="10.00" fill="#000000">chig::compileFunction</text>
</a>
</g>
</g>
<!-- Node106&#45;&gt;Node107 -->
<g id="edge1" class="edge">
<title>Node106&#45;&gt;Node107</title>
<path fill="none" stroke="#191970" d="M115.6948,-83.6271C139.7635,-93.7824 174.064,-107.4824 205,-117 216.4444,-120.5209 228.956,-123.7159 240.7138,-126.4387"/>
<polygon fill="#191970" stroke="#191970" points="116.9363,-80.3517 106.3646,-79.6517 114.1924,-86.7915 116.9363,-80.3517"/>
</g>
<!-- Node110 -->
<g id="node5" class="node">
<title>Node110</title>
<g id="a_node5"><a xlink:href="namespacechig.html#a860a6f4d8180f1fb71729896291891b7" target="_top" xlink:title="Create a forward declaration of a function in a module with an empty graph. ">
<polygon fill="#ffffff" stroke="#000000" points="216,-77 216,-107 360,-107 360,-77 216,-77"/>
<text text-anchor="start" x="224" y="-95" font-family="Helvetica,sans-Serif" font-size="10.00" fill="#000000">chig::createGraphFunction</text>
<text text-anchor="middle" x="288" y="-84" font-family="Helvetica,sans-Serif" font-size="10.00" fill="#000000">DeclarationFromJson</text>
</a>
</g>
</g>
<!-- Node106&#45;&gt;Node110 -->
<g id="edge4" class="edge">
<title>Node106&#45;&gt;Node110</title>
<path fill="none" stroke="#191970" d="M179.2739,-80.2458C191.5202,-81.5698 203.902,-82.9083 215.7052,-84.1843"/>
<polygon fill="#191970" stroke="#191970" points="179.3527,-76.734 169.0344,-79.1389 178.6003,-83.6935 179.3527,-76.734"/>
</g>
<!-- Node113 -->
<g id="node8" class="node">
<title>Node113</title>
<g id="a_node8"><a xlink:href="namespacechig.html#a2af3c68005d33184e5e66b35c4737902" target="_top" xlink:title="Load a GraphStruct from json. ">
<polygon fill="#ffffff" stroke="#000000" points="221.5,-38.5 221.5,-57.5 354.5,-57.5 354.5,-38.5 221.5,-38.5"/>
<text text-anchor="middle" x="288" y="-45.5" font-family="Helvetica,sans-Serif" font-size="10.00" fill="#000000">chig::jsonToGraphStruct</text>
</a>
</g>
</g>
<!-- Node106&#45;&gt;Node113 -->
<g id="edge7" class="edge">
<title>Node106&#45;&gt;Node113</title>
<path fill="none" stroke="#191970" d="M179.3359,-59.7475C193.5492,-58.2109 207.9432,-56.6548 221.4017,-55.1998"/>
<polygon fill="#191970" stroke="#191970" points="178.6003,-56.3065 169.0344,-60.8611 179.3527,-63.266 178.6003,-56.3065"/>
</g>
<!-- Node114 -->
<g id="node9" class="node">
<title>Node114</title>
<g id="a_node9"><a xlink:href="structchig_1_1LangModule.html#adab4150aa733a4aa66bc0ede5654dcaa" target="_top" xlink:title="Default constructor, usually called from Context::loadModule(&quot;lang&quot;) ">
<polygon fill="#ffffff" stroke="#000000" points="205,-.5 205,-19.5 371,-19.5 371,-.5 205,-.5"/>
<text text-anchor="middle" x="288" y="-7.5" font-family="Helvetica,sans-Serif" font-size="10.00" fill="#000000">chig::LangModule::LangModule</text>
</a>
</g>
</g>
<!-- Node106&#45;&gt;Node114 -->
<g id="edge9" class="edge">
<title>Node106&#45;&gt;Node114</title>
<path fill="none" stroke="#191970" d="M119.7884,-56.9218C143.6502,-48.3441 175.982,-37.2344 205,-29 217.0878,-25.5699 230.2989,-22.3229 242.5547,-19.5156"/>
<polygon fill="#191970" stroke="#191970" points="118.3241,-53.7296 110.1148,-60.4272 120.709,-60.3108 118.3241,-53.7296"/>
</g>
<!-- Node108 -->
<g id="node3" class="node">
<title>Node108</title>
<g id="a_node3"><a xlink:href="structchig_1_1GraphModule.html#a4c3a1ba833c0bd7e9a3daf0fd42eb6c6" target="_top" xlink:title="Generate a llvm::Module from the module. ">
<polygon fill="#ffffff" stroke="#000000" points="420.5,-121 420.5,-151 533.5,-151 533.5,-121 420.5,-121"/>
<text text-anchor="start" x="428.5" y="-139" font-family="Helvetica,sans-Serif" font-size="10.00" fill="#000000">chig::GraphModule::</text>
<text text-anchor="middle" x="477" y="-128" font-family="Helvetica,sans-Serif" font-size="10.00" fill="#000000">generateModule</text>
</a>
</g>
</g>
<!-- Node107&#45;&gt;Node108 -->
<g id="edge2" class="edge">
<title>Node107&#45;&gt;Node108</title>
<path fill="none" stroke="#191970" d="M359.6423,-136C379.6917,-136 401.2016,-136 420.2592,-136"/>
<polygon fill="#191970" stroke="#191970" points="359.6242,-132.5001 349.6241,-136 359.6241,-139.5001 359.6242,-132.5001"/>
</g>
<!-- Node109 -->
<g id="node4" class="node">
<title>Node109</title>
<g id="a_node4"><a xlink:href="structchig_1_1GraphModule.html#a6d4a66c7e72fc4f83bff139baf819170" target="_top" xlink:title="Get the possible DataType names. ">
<polygon fill="#ffffff" stroke="#000000" points="596.5,-121 596.5,-151 709.5,-151 709.5,-121 596.5,-121"/>
<text text-anchor="start" x="604.5" y="-139" font-family="Helvetica,sans-Serif" font-size="10.00" fill="#000000">chig::GraphModule::</text>
<text text-anchor="middle" x="653" y="-128" font-family="Helvetica,sans-Serif" font-size="10.00" fill="#000000">typeNames</text>
</a>
</g>
</g>
<!-- Node108&#45;&gt;Node109 -->
<g id="edge3" class="edge">
<title>Node108&#45;&gt;Node109</title>
<path fill="none" stroke="#191970" d="M543.7286,-136C561.1042,-136 579.6567,-136 596.4499,-136"/>
<polygon fill="#191970" stroke="#191970" points="543.6563,-132.5001 533.6563,-136 543.6563,-139.5001 543.6563,-132.5001"/>
</g>
<!-- Node111 -->
<g id="node6" class="node">
<title>Node111</title>
<g id="a_node6"><a xlink:href="namespacechig.html#a1f28de74faa271cf31249935c9640c58" target="_top" xlink:title="Load a GraphModule from json. ">
<polygon fill="#ffffff" stroke="#000000" points="407,-58.5 407,-77.5 547,-77.5 547,-58.5 407,-58.5"/>
<text text-anchor="middle" x="477" y="-65.5" font-family="Helvetica,sans-Serif" font-size="10.00" fill="#000000">chig::jsonToGraphModule</text>
</a>
</g>
</g>
<!-- Node110&#45;&gt;Node111 -->
<g id="edge5" class="edge">
<title>Node110&#45;&gt;Node111</title>
<path fill="none" stroke="#191970" d="M370.4153,-81.5346C382.6007,-79.9872 395.0586,-78.4053 406.9606,-76.8939"/>
<polygon fill="#191970" stroke="#191970" points="369.7412,-78.092 360.2618,-82.8239 370.6231,-85.0362 369.7412,-78.092"/>
</g>
<!-- Node112 -->
<g id="node7" class="node">
<title>Node112</title>
<g id="a_node7"><a xlink:href="structchig_1_1Context.html#a0d9ec5f2803a5777d2e389256ccb3e3b" target="_top" xlink:title="Load a module from JSON – avoid this use the string overload. ">
<polygon fill="#ffffff" stroke="#000000" points="583,-53 583,-83 723,-83 723,-53 583,-53"/>
<text text-anchor="start" x="591" y="-71" font-family="Helvetica,sans-Serif" font-size="10.00" fill="#000000">chig::Context::addModule</text>
<text text-anchor="middle" x="653" y="-60" font-family="Helvetica,sans-Serif" font-size="10.00" fill="#000000">FromJson</text>
</a>
</g>
</g>
<!-- Node111&#45;&gt;Node112 -->
<g id="edge6" class="edge">
<title>Node111&#45;&gt;Node112</title>
<path fill="none" stroke="#191970" d="M557.1006,-68C565.7058,-68 574.4124,-68 582.888,-68"/>
<polygon fill="#191970" stroke="#191970" points="557.0656,-64.5001 547.0656,-68 557.0655,-71.5001 557.0656,-64.5001"/>
</g>
<!-- Node113&#45;&gt;Node111 -->
<g id="edge8" class="edge">
<title>Node113&#45;&gt;Node111</title>
<path fill="none" stroke="#191970" d="M364.6668,-56.1129C378.6,-57.5873 393.0699,-59.1185 406.8049,-60.5719"/>
<polygon fill="#191970" stroke="#191970" points="364.9472,-52.6231 354.6343,-55.0513 364.2105,-59.5842 364.9472,-52.6231"/>
</g>
</g>
</svg>
        <g id="navigator" transform="translate(0 0)" fill="#404254">
                <rect fill="#f2f5e9" fill-opacity="0.5" stroke="#606060" stroke-width=".5" x="0" y="0" width="60" height="60"/>
                <use id="zoomplus" xlink:href="#zoomPlus" x="17" y="9" onmousedown="handleZoom(evt,'in')"/>
                <use id="zoomminus" xlink:href="#zoomMin" x="42" y="9" onmousedown="handleZoom(evt,'out')"/>
                <use id="reset" xlink:href="#resetDef" x="30" y="36" onmousedown="handleReset()"/>
                <g id="arrowUp" xlink:href="#dirArrow" transform="translate(30 24)" onmousedown="handlePan(0,-1)">
                  <use xlink:href="#rim" fill="#404040">
                        <set attributeName="fill" to="#808080" begin="arrowUp.mouseover" end="arrowUp.mouseout"/>
                  </use>
                  <path fill="none" stroke="white" stroke-width="1.5" d="M0,-3.0v7 M-2.5,-0.5L0,-3.0L2.5,-0.5"/>
                </g>
                <g id="arrowRight" xlink:href="#dirArrow" transform="rotate(90) translate(36 -43)" onmousedown="handlePan(1,0)">
                  <use xlink:href="#rim" fill="#404040">
                        <set attributeName="fill" to="#808080" begin="arrowRight.mouseover" end="arrowRight.mouseout"/>
                  </use>
                  <path fill="none" stroke="white" stroke-width="1.5" d="M0,-3.0v7 M-2.5,-0.5L0,-3.0L2.5,-0.5"/>
                </g>
                <g id="arrowDown" xlink:href="#dirArrow" transform="rotate(180) translate(-30 -48)" onmousedown="handlePan(0,1)">
                  <use xlink:href="#rim" fill="#404040">
                        <set attributeName="fill" to="#808080" begin="arrowDown.mouseover" end="arrowDown.mouseout"/>
                  </use>
                  <path fill="none" stroke="white" stroke-width="1.5" d="M0,-3.0v7 M-2.5,-0.5L0,-3.0L2.5,-0.5"/>
                </g>
                <g id="arrowLeft" xlink:href="#dirArrow" transform="rotate(270) translate(-36 17)" onmousedown="handlePan(-1,0)">
                  <use xlink:href="#rim" fill="#404040">
                        <set attributeName="fill" to="#808080" begin="arrowLeft.mouseover" end="arrowLeft.mouseout"/>
                  </use>
                  <path fill="none" stroke="white" stroke-width="1.5" d="M0,-3.0v7 M-2.5,-0.5L0,-3.0L2.5,-0.5"/>
                </g>
        </g>
        <svg viewBox="0 0 15 15" width="100%" height="30px" preserveAspectRatio="xMaxYMin meet">
         <g id="arrow_out" transform="scale(0.3 0.3)">
          <a xlink:href="structchig_1_1Context_aa484ef2c16aaa4d97a21632af4122bd8_icgraph_org.svg" target="_base">
           <rect id="button" ry="5" rx="5" y="6" x="6" height="38" width="38"
                fill="#f2f5e9" fill-opacity="0.5" stroke="#606060" stroke-width="1.0"/>
           <path id="arrow"
             d="M 11.500037,31.436501 C 11.940474,20.09759 22.043105,11.32322 32.158766,21.979434 L 37.068811,17.246167 C 37.068811,17.246167 37.088388,32 37.088388,32 L 22.160133,31.978069 C 22.160133,31.978069 26.997745,27.140456 26.997745,27.140456 C 18.528582,18.264221 13.291696,25.230495 11.500037,31.436501 z"
             style="fill:#404040;"/>
          </a>
         </g>
        </svg>
</svg>
