<?xml version="1.0" encoding="UTF-8" standalone="no"?>
<!DOCTYPE svg PUBLIC "-//W3C//DTD SVG 1.1//EN"
 "http://www.w3.org/Graphics/SVG/1.1/DTD/svg11.dtd">
<!-- Generated by graphviz version 2.40.1 (20161225.0304)
 -->
<!-- Title: chi::GraphStruct::modifyType Pages: 1 -->
<svg width="985pt" height="229pt"
 viewBox="0.00 0.00 985.00 228.88" xmlns="http://www.w3.org/2000/svg" xmlns:xlink="http://www.w3.org/1999/xlink">
<g id="graph0" class="graph" transform="scale(1 1) rotate(0) translate(4 224.8759)">
<title>chi::GraphStruct::modifyType</title>
<polygon fill="#ffffff" stroke="transparent" points="-4,4 -4,-224.8759 981,-224.8759 981,4 -4,4"/>
<!-- Node33 -->
<g id="node1" class="node">
<title>Node33</title>
<polygon fill="#bfbfbf" stroke="#000000" points="0,-149.8397 0,-168.8397 145,-168.8397 145,-149.8397 0,-149.8397"/>
<text text-anchor="middle" x="72.5" y="-156.8397" font-family="Helvetica,sans-Serif" font-size="10.00" fill="#000000">chi::GraphStruct::modifyType</text>
</g>
<!-- Node34 -->
<g id="node2" class="node">
<title>Node34</title>
<g id="a_node2"><a xlink:href="structchi_1_1GraphStruct.html#a82a1da52a4bf23e1e7fef4d7228603b1" target="_top" xlink:title="Get the module. ">
<polygon fill="#ffffff" stroke="#000000" points="524,-193.8397 524,-212.8397 649,-212.8397 649,-193.8397 524,-193.8397"/>
<text text-anchor="middle" x="586.5" y="-200.8397" font-family="Helvetica,sans-Serif" font-size="10.00" fill="#000000">chi::GraphStruct::module</text>
</a>
</g>
</g>
<!-- Node33&#45;&gt;Node34 -->
<g id="edge1" class="edge">
<title>Node33&#45;&gt;Node34</title>
<path fill="none" stroke="#191970" d="M105.6894,-168.9449C155.1348,-182.7048 251.3045,-207.3574 335,-216.3397 400.4022,-223.3587 417.3505,-220.4464 483,-216.3397 492.9636,-215.7164 503.4354,-214.7587 513.7344,-213.6396"/>
<polygon fill="#191970" stroke="#191970" points="514.4122,-217.0851 523.9506,-212.4731 513.6181,-210.1303 514.4122,-217.0851"/>
</g>
<!-- Node37 -->
<g id="node5" class="node">
<title>Node37</title>
<g id="a_node5"><a xlink:href="structchi_1_1GraphStruct.html#ae1895cfaebac03e21d35ec2a155b3c10" target="_top" xlink:title="Get the types the struct contains. ">
<polygon fill="#ffffff" stroke="#000000" points="181,-149.8397 181,-168.8397 299,-168.8397 299,-149.8397 181,-149.8397"/>
<text text-anchor="middle" x="240" y="-156.8397" font-family="Helvetica,sans-Serif" font-size="10.00" fill="#000000">chi::GraphStruct::types</text>
</a>
</g>
</g>
<!-- Node33&#45;&gt;Node37 -->
<g id="edge4" class="edge">
<title>Node33&#45;&gt;Node37</title>
<path fill="none" stroke="#191970" d="M145.4807,-152.6395C153.8793,-152.5614 162.4248,-152.5751 170.7718,-152.6807"/>
<polygon fill="#191970" stroke="#191970" points="170.7724,-156.1811 180.8316,-152.855 170.8938,-149.1822 170.7724,-156.1811"/>
</g>
<!-- Node39 -->
<g id="node7" class="node">
<title>Node39</title>
<g id="a_node7"><a xlink:href="structchi_1_1ChiModule.html#af3cdb7e3d333fedc74ad862dcc5bca9f" target="_top" xlink:title="Update the last edit time, signifying that it&#39;s been edited. ">
<polygon fill="#ffffff" stroke="#000000" points="519,-144.3397 519,-174.3397 654,-174.3397 654,-144.3397 519,-144.3397"/>
<text text-anchor="start" x="527" y="-162.3397" font-family="Helvetica,sans-Serif" font-size="10.00" fill="#000000">chi::ChiModule::updateLast</text>
<text text-anchor="middle" x="586.5" y="-151.3397" font-family="Helvetica,sans-Serif" font-size="10.00" fill="#000000">EditTime</text>
</a>
</g>
</g>
<!-- Node33&#45;&gt;Node39 -->
<g id="edge22" class="edge">
<title>Node33&#45;&gt;Node39</title>
<path fill="none" stroke="#191970" d="M116.6146,-149.8277C136.2273,-146.0623 159.6622,-142.1939 181,-140.3397 314.7183,-128.72 349.3304,-128.1721 483,-140.3397 491.3691,-141.1015 500.0724,-142.203 508.7195,-143.4975"/>
<polygon fill="#191970" stroke="#191970" points="508.3968,-146.9899 518.8212,-145.097 509.4916,-140.0761 508.3968,-146.9899"/>
</g>
<!-- Node40 -->
<g id="node8" class="node">
<title>Node40</title>
<g id="a_node8"><a xlink:href="structchi_1_1DataType.html#a03384814dde82f88fb097d556cb1da66" target="_top" xlink:title="Check if the DataType is valid (if it&#39;s actually bound to a type and module) ">
<polygon fill="#ffffff" stroke="#000000" points="534.5,-67.8397 534.5,-86.8397 638.5,-86.8397 638.5,-67.8397 534.5,-67.8397"/>
<text text-anchor="middle" x="586.5" y="-74.8397" font-family="Helvetica,sans-Serif" font-size="10.00" fill="#000000">chi::DataType::valid</text>
</a>
</g>
</g>
<!-- Node33&#45;&gt;Node40 -->
<g id="edge23" class="edge">
<title>Node33&#45;&gt;Node40</title>
<path fill="none" stroke="#191970" d="M91.6172,-149.7858C134.0778,-129.1641 240.0035,-81.0007 335,-64.3397 399.7889,-52.9766 417.3505,-60.2329 483,-64.3397 496.395,-65.1776 510.7083,-66.6199 524.2857,-68.2463"/>
<polygon fill="#191970" stroke="#191970" points="524.1414,-71.7553 534.4975,-69.519 525.0072,-64.8091 524.1414,-71.7553"/>
</g>
<!-- Node35 -->
<g id="node3" class="node">
<title>Node35</title>
<g id="a_node3"><a xlink:href="structchi_1_1GraphStruct.html#a73e91ad7054526af6c5022dbbbb80196" target="_top" xlink:title="Set the name of the struct, and optionally update all references in the context. ">
<polygon fill="#ffffff" stroke="#000000" points="690,-111.8397 690,-130.8397 823,-130.8397 823,-111.8397 690,-111.8397"/>
<text text-anchor="middle" x="756.5" y="-118.8397" font-family="Helvetica,sans-Serif" font-size="10.00" fill="#000000">chi::GraphStruct::setName</text>
</a>
</g>
</g>
<!-- Node34&#45;&gt;Node35 -->
<g id="edge2" class="edge">
<title>Node34&#45;&gt;Node35</title>
<path fill="none" stroke="#191970" d="M627.4709,-193.7691C636.3794,-191.1495 645.6362,-188.0022 654,-184.3397 683.7004,-171.3338 715.0686,-150.9374 735.1622,-136.8948"/>
<polygon fill="#191970" stroke="#191970" points="737.4248,-139.5809 743.5545,-130.9392 733.3737,-133.8722 737.4248,-139.5809"/>
</g>
<!-- Node36 -->
<g id="node4" class="node">
<title>Node36</title>
<g id="a_node4"><a xlink:href="structchi_1_1GraphStruct.html#ad25ddcbdf75436b9a0f76720d34257d4" target="_top" xlink:title="Get the name of the type. ">
<polygon fill="#ffffff" stroke="#000000" points="859,-10.8397 859,-29.8397 977,-29.8397 977,-10.8397 859,-10.8397"/>
<text text-anchor="middle" x="918" y="-17.8397" font-family="Helvetica,sans-Serif" font-size="10.00" fill="#000000">chi::GraphStruct::name</text>
</a>
</g>
</g>
<!-- Node35&#45;&gt;Node36 -->
<g id="edge3" class="edge">
<title>Node35&#45;&gt;Node36</title>
<path fill="none" stroke="#191970" d="M771.6935,-111.8378C799.8289,-94.2423 860.2395,-56.4623 893.9715,-35.3668"/>
<polygon fill="#191970" stroke="#191970" points="896.1065,-38.1597 902.7292,-29.8898 892.3948,-32.2247 896.1065,-38.1597"/>
</g>
<!-- Node37&#45;&gt;Node33 -->
<g id="edge10" class="edge">
<title>Node37&#45;&gt;Node33</title>
<path fill="none" stroke="#191970" d="M180.8316,-165.8243C172.6138,-166.0066 164.0496,-166.0949 155.4958,-166.0894"/>
<polygon fill="#191970" stroke="#191970" points="155.4979,-162.5895 145.4807,-166.0398 155.4632,-169.5894 155.4979,-162.5895"/>
</g>
<!-- Node38 -->
<g id="node6" class="node">
<title>Node38</title>
<g id="a_node6"><a xlink:href="structchi_1_1GraphStruct.html#ad2857a2f5fec097866d903468e4e4b85" target="_top" xlink:title="Add a new type to the struct. ">
<polygon fill="#ffffff" stroke="#000000" points="343.5,-149.8397 343.5,-168.8397 474.5,-168.8397 474.5,-149.8397 343.5,-149.8397"/>
<text text-anchor="middle" x="409" y="-156.8397" font-family="Helvetica,sans-Serif" font-size="10.00" fill="#000000">chi::GraphStruct::addType</text>
</a>
</g>
</g>
<!-- Node37&#45;&gt;Node38 -->
<g id="edge5" class="edge">
<title>Node37&#45;&gt;Node38</title>
<path fill="none" stroke="#191970" d="M299.108,-152.8682C310.0394,-152.6215 321.5958,-152.5387 332.9469,-152.6197"/>
<polygon fill="#191970" stroke="#191970" points="333.2496,-156.1234 343.2897,-152.7402 333.3312,-149.1239 333.2496,-156.1234"/>
</g>
<!-- Node41 -->
<g id="node9" class="node">
<title>Node41</title>
<g id="a_node9"><a xlink:href="structchi_1_1GraphStruct.html#a02b93bf782565092d7ef58e2320f7589" target="_top" xlink:title="Remove a type from a struct. ">
<polygon fill="#ffffff" stroke="#000000" points="335,-187.8397 335,-206.8397 483,-206.8397 483,-187.8397 335,-187.8397"/>
<text text-anchor="middle" x="409" y="-194.8397" font-family="Helvetica,sans-Serif" font-size="10.00" fill="#000000">chi::GraphStruct::removeType</text>
</a>
</g>
</g>
<!-- Node37&#45;&gt;Node41 -->
<g id="edge11" class="edge">
<title>Node37&#45;&gt;Node41</title>
<path fill="none" stroke="#191970" d="M299.108,-166.1587C325.5672,-171.5111 355.6881,-178.6468 377.6955,-184.9181"/>
<polygon fill="#191970" stroke="#191970" points="376.9118,-188.3363 387.4942,-187.8222 378.901,-181.6249 376.9118,-188.3363"/>
</g>
<!-- Node42 -->
<g id="node10" class="node">
<title>Node42</title>
<g id="a_node10"><a xlink:href="structchi_1_1GraphStruct.html#a27c5062196f73eae3125c0baeb592d00" target="_top" xlink:title="Get the DataType of the struct. ">
<polygon fill="#ffffff" stroke="#000000" points="342,-73.8397 342,-92.8397 476,-92.8397 476,-73.8397 342,-73.8397"/>
<text text-anchor="middle" x="409" y="-80.8397" font-family="Helvetica,sans-Serif" font-size="10.00" fill="#000000">chi::GraphStruct::dataType</text>
</a>
</g>
</g>
<!-- Node37&#45;&gt;Node42 -->
<g id="edge15" class="edge">
<title>Node37&#45;&gt;Node42</title>
<path fill="none" stroke="#191970" d="M252.9805,-149.694C276.8202,-136.0021 328.5575,-112.0151 365.9288,-96.739"/>
<polygon fill="#191970" stroke="#191970" points="367.5978,-99.8405 375.5732,-92.866 364.9892,-93.3447 367.5978,-99.8405"/>
</g>
<!-- Node38&#45;&gt;Node34 -->
<g id="edge6" class="edge">
<title>Node38&#45;&gt;Node34</title>
<path fill="none" stroke="#191970" d="M447.5149,-168.887C474.1475,-175.4889 509.7792,-184.3216 538.2965,-191.3906"/>
<polygon fill="#191970" stroke="#191970" points="537.5119,-194.802 548.0603,-193.811 539.1962,-188.0076 537.5119,-194.802"/>
</g>
<!-- Node38&#45;&gt;Node37 -->
<g id="edge7" class="edge">
<title>Node38&#45;&gt;Node37</title>
<path fill="none" stroke="#191970" d="M343.2897,-165.9391C332.1422,-166.1205 320.5352,-166.138 309.2989,-165.9916"/>
<polygon fill="#191970" stroke="#191970" points="309.1684,-162.4889 299.108,-165.8112 309.0444,-169.4878 309.1684,-162.4889"/>
</g>
<!-- Node38&#45;&gt;Node39 -->
<g id="edge8" class="edge">
<title>Node38&#45;&gt;Node39</title>
<path fill="none" stroke="#191970" d="M474.5901,-159.3397C485.6292,-159.3397 497.1823,-159.3397 508.4988,-159.3397"/>
<polygon fill="#191970" stroke="#191970" points="508.8034,-162.8398 518.8034,-159.3397 508.8034,-155.8398 508.8034,-162.8398"/>
</g>
<!-- Node38&#45;&gt;Node40 -->
<g id="edge9" class="edge">
<title>Node38&#45;&gt;Node40</title>
<path fill="none" stroke="#191970" d="M423.0092,-149.8061C443.368,-136.3091 482.6742,-111.5805 519,-96.3397 524.5376,-94.0163 530.4474,-91.8829 536.3802,-89.9524"/>
<polygon fill="#191970" stroke="#191970" points="537.7936,-93.1797 546.325,-86.8976 535.7381,-86.4883 537.7936,-93.1797"/>
</g>
<!-- Node41&#45;&gt;Node34 -->
<g id="edge13" class="edge">
<title>Node41&#45;&gt;Node34</title>
<path fill="none" stroke="#191970" d="M483.2475,-199.8494C493.2595,-200.1879 503.5247,-200.5349 513.5145,-200.8726"/>
<polygon fill="#191970" stroke="#191970" points="513.6905,-204.3804 523.8031,-201.2203 513.9271,-197.3844 513.6905,-204.3804"/>
</g>
<!-- Node41&#45;&gt;Node37 -->
<g id="edge12" class="edge">
<title>Node41&#45;&gt;Node37</title>
<path fill="none" stroke="#191970" d="M336.806,-187.7927C313.9187,-182.8861 289.8005,-177.0298 271.3627,-171.7778"/>
<polygon fill="#191970" stroke="#191970" points="272.33,-168.414 261.7478,-168.932 270.3433,-175.1262 272.33,-168.414"/>
</g>
<!-- Node41&#45;&gt;Node39 -->
<g id="edge14" class="edge">
<title>Node41&#45;&gt;Node39</title>
<path fill="none" stroke="#191970" d="M453.7907,-187.7507C470.5824,-184.1558 490.1827,-179.9597 509.0856,-175.9129"/>
<polygon fill="#191970" stroke="#191970" points="509.8428,-179.3302 518.8885,-173.8142 508.3774,-172.4853 509.8428,-179.3302"/>
</g>
<!-- Node42&#45;&gt;Node34 -->
<g id="edge21" class="edge">
<title>Node42&#45;&gt;Node34</title>
<path fill="none" stroke="#191970" d="M423.4097,-92.9548C438.9167,-103.6303 463.9201,-121.8123 483,-140.3397 501.127,-157.9417 497.8613,-170.4986 519,-184.3397 522.1383,-186.3945 525.499,-188.23 528.983,-189.8691"/>
<polygon fill="#191970" stroke="#191970" points="527.8468,-193.1865 538.4258,-193.7651 530.5167,-186.7156 527.8468,-193.1865"/>
</g>
<!-- Node42&#45;&gt;Node36 -->
<g id="edge20" class="edge">
<title>Node42&#45;&gt;Node36</title>
<path fill="none" stroke="#191970" d="M420.9228,-73.6636C440.1619,-58.7427 479.8677,-30.7523 519,-20.3397 631.5033,9.5961 768.2533,.2267 848.9276,-9.7426"/>
<polygon fill="#191970" stroke="#191970" points="848.6026,-13.2294 858.9649,-11.022 849.4878,-6.2856 848.6026,-13.2294"/>
</g>
<!-- Node42&#45;&gt;Node37 -->
<g id="edge17" class="edge">
<title>Node42&#45;&gt;Node37</title>
<path fill="none" stroke="#191970" d="M395.9605,-93.0192C372.0849,-106.7223 320.3699,-130.6962 283.0259,-145.9588"/>
<polygon fill="#191970" stroke="#191970" points="281.3647,-142.8542 273.389,-149.8283 283.973,-149.3501 281.3647,-142.8542"/>
</g>
<!-- Node42&#45;&gt;Node40 -->
<g id="edge16" class="edge">
<title>Node42&#45;&gt;Node40</title>
<path fill="none" stroke="#191970" d="M476.1051,-81.0713C491.8896,-80.5378 508.6469,-79.9713 524.2095,-79.4453"/>
<polygon fill="#191970" stroke="#191970" points="524.3656,-82.9421 534.2416,-79.1061 524.129,-75.9461 524.3656,-82.9421"/>
</g>
<!-- Node43 -->
<g id="node11" class="node">
<title>Node43</title>
<g id="a_node11"><a xlink:href="structchi_1_1GraphStruct.html#a262915d6d2148d7234525e9ccfa5c9d5" target="_top" xlink:title="Get the context. ">
<polygon fill="#ffffff" stroke="#000000" points="523.5,-29.8397 523.5,-48.8397 649.5,-48.8397 649.5,-29.8397 523.5,-29.8397"/>
<text text-anchor="middle" x="586.5" y="-36.8397" font-family="Helvetica,sans-Serif" font-size="10.00" fill="#000000">chi::GraphStruct::context</text>
</a>
</g>
</g>
<!-- Node42&#45;&gt;Node43 -->
<g id="edge18" class="edge">
<title>Node42&#45;&gt;Node43</title>
<path fill="none" stroke="#191970" d="M447.5149,-73.7923C474.1475,-67.1904 509.7792,-58.3578 538.2965,-51.2887"/>
<polygon fill="#191970" stroke="#191970" points="539.1962,-54.6717 548.0603,-48.8684 537.5119,-47.8773 539.1962,-54.6717"/>
</g>
<!-- Node44 -->
<g id="node12" class="node">
<title>Node44</title>
<g id="a_node12"><a xlink:href="structchi_1_1Context.html#a8b0dca76be969f24e02a1d286aea377c" target="_top" xlink:title="Get the LLVMContext ">
<polygon fill="#ffffff" stroke="#000000" points="523,-105.8397 523,-124.8397 650,-124.8397 650,-105.8397 523,-105.8397"/>
<text text-anchor="middle" x="586.5" y="-112.8397" font-family="Helvetica,sans-Serif" font-size="10.00" fill="#000000">chi::Context::llvmContext</text>
</a>
</g>
</g>
<!-- Node42&#45;&gt;Node44 -->
<g id="edge19" class="edge">
<title>Node42&#45;&gt;Node44</title>
<path fill="none" stroke="#191970" d="M461.7753,-92.8541C481.1829,-96.3529 503.3533,-100.3498 523.5668,-103.994"/>
<polygon fill="#191970" stroke="#191970" points="523.1592,-107.4768 533.6216,-105.8067 524.4012,-100.5879 523.1592,-107.4768"/>
</g>
</g>
</svg>
