<?xml version="1.0" encoding="UTF-8" standalone="no"?>
<!DOCTYPE svg PUBLIC "-//W3C//DTD SVG 1.1//EN"
 "http://www.w3.org/Graphics/SVG/1.1/DTD/svg11.dtd">
<!-- Generated by graphviz version 2.40.1 (20161225.0304)
 -->
<!-- Title: chig::GraphFunction::modifyExecOutput Pages: 1 -->
<!--zoomable 88 -->
<svg id="main" version="1.1" xmlns="http://www.w3.org/2000/svg" xmlns:xlink="http://www.w3.org/1999/xlink" xml:space="preserve" onload="init(evt)">
<style type="text/css"><![CDATA[
.edge:hover path { stroke: red; }
.edge:hover polygon { stroke: red; fill: red; }
]]></style>
<script type="text/javascript"><![CDATA[
var edges = document.getElementsByTagName('g');
if (edges && edges.length) {
  for (var i=0;i<edges.length;i++) {
    if (edges[i].id.substr(0,4)=='edge') {
      edges[i].setAttribute('class','edge');
    }
  }
}
]]></script>
        <defs>
                <circle id="rim" cx="0" cy="0" r="7"/>
                <circle id="rim2" cx="0" cy="0" r="3.5"/>
                <g id="zoomPlus">
                        <use xlink:href="#rim" fill="#404040">
                                <set attributeName="fill" to="#808080" begin="zoomplus.mouseover" end="zoomplus.mouseout"/>
                        </use>
                        <path d="M-4,0h8M0,-4v8" fill="none" stroke="white" stroke-width="1.5" pointer-events="none"/>
                </g>
                <g id="zoomMin">
                        <use xlink:href="#rim" fill="#404040">
                                <set attributeName="fill" to="#808080" begin="zoomminus.mouseover" end="zoomminus.mouseout"/>
                        </use>
                        <path d="M-4,0h8" fill="none" stroke="white" stroke-width="1.5" pointer-events="none"/>
                </g>
                <g id="dirArrow">
                        <path fill="none" stroke="white" stroke-width="1.5" d="M0,-3.0v7 M-2.5,-0.5L0,-3.0L2.5,-0.5"/>
                </g>
               <g id="resetDef">
                       <use xlink:href="#rim2" fill="#404040">
                               <set attributeName="fill" to="#808080" begin="reset.mouseover" end="reset.mouseout"/>
                       </use>
               </g>
        </defs>

<script type="text/javascript">
var viewWidth = 741;
var viewHeight = 88;
var sectionId = 'dynsection-36';
</script>
<script xlink:href="svgpan.js"/>
<svg id="graph" class="graph">
<g id="viewport">
<title>chig::GraphFunction::modifyExecOutput</title>
<polygon fill="#ffffff" stroke="transparent" points="-4,4 -4,-84 737,-84 737,4 -4,4"/>
<!-- Node536 -->
<g id="node1" class="node">
<title>Node536</title>
<polygon fill="#bfbfbf" stroke="#000000" points="0,-27.5 0,-57.5 113,-57.5 113,-27.5 0,-27.5"/>
<text text-anchor="start" x="8" y="-45.5" font-family="Helvetica,sans-Serif" font-size="10.00" fill="#000000">chig::GraphFunction</text>
<text text-anchor="middle" x="56.5" y="-34.5" font-family="Helvetica,sans-Serif" font-size="10.00" fill="#000000">::modifyExecOutput</text>
</g>
<!-- Node537 -->
<g id="node2" class="node">
<title>Node537</title>
<g id="a_node2"><a xlink:href="structchig_1_1GraphFunction.html#ae155f716b072ef5f8e3ba064ae7ef8c0" target="_top" xlink:title="Get the function exec outputs. ">
<polygon fill="#ffffff" stroke="#000000" points="149,-5.5 149,-35.5 262,-35.5 262,-5.5 149,-5.5"/>
<text text-anchor="start" x="157" y="-23.5" font-family="Helvetica,sans-Serif" font-size="10.00" fill="#000000">chig::GraphFunction</text>
<text text-anchor="middle" x="205.5" y="-12.5" font-family="Helvetica,sans-Serif" font-size="10.00" fill="#000000">::execOutputs</text>
</a>
</g>
</g>
<!-- Node536&#45;&gt;Node537 -->
<g id="edge1" class="edge">
<title>Node536&#45;&gt;Node537</title>
<path fill="none" stroke="#191970" d="M123.228,-32.6475C131.8009,-31.3817 140.5125,-30.0955 148.9022,-28.8567"/>
<polygon fill="#191970" stroke="#191970" points="122.637,-29.1968 113.2556,-34.12 123.6596,-36.1217 122.637,-29.1968"/>
</g>
<!-- Node538 -->
<g id="node3" class="node">
<title>Node538</title>
<g id="a_node3"><a xlink:href="structchig_1_1GraphFunction.html#ac7c52122fef0c74d9d0ee04af9a741c4" target="_top" xlink:title="Create a fresh NodeType for an exit. ">
<polygon fill="#ffffff" stroke="#000000" points="298,-49.5 298,-79.5 420,-79.5 420,-49.5 298,-49.5"/>
<text text-anchor="start" x="306" y="-67.5" font-family="Helvetica,sans-Serif" font-size="10.00" fill="#000000">chig::GraphFunction</text>
<text text-anchor="middle" x="359" y="-56.5" font-family="Helvetica,sans-Serif" font-size="10.00" fill="#000000">::createExitNodeType</text>
</a>
</g>
</g>
<!-- Node537&#45;&gt;Node538 -->
<g id="edge2" class="edge">
<title>Node537&#45;&gt;Node538</title>
<path fill="none" stroke="#191970" d="M267.6388,-38.3118C280.5581,-42.015 294.0509,-45.8827 306.579,-49.4738"/>
<polygon fill="#191970" stroke="#191970" points="268.474,-34.9103 257.8967,-35.5192 266.5451,-41.6393 268.474,-34.9103"/>
</g>
<!-- Node542 -->
<g id="node7" class="node">
<title>Node542</title>
<g id="a_node7"><a xlink:href="structchig_1_1GraphFunction.html#a5a8768d5514a31104f0b3a9b5553099c" target="_top" xlink:title="Serialize the GraphFunction to JSON (usually called from JsonModule::toJson) ">
<polygon fill="#ffffff" stroke="#000000" points="302.5,-.5 302.5,-30.5 415.5,-30.5 415.5,-.5 302.5,-.5"/>
<text text-anchor="start" x="310.5" y="-18.5" font-family="Helvetica,sans-Serif" font-size="10.00" fill="#000000">chig::GraphFunction</text>
<text text-anchor="middle" x="359" y="-7.5" font-family="Helvetica,sans-Serif" font-size="10.00" fill="#000000">::toJSON</text>
</a>
</g>
</g>
<!-- Node537&#45;&gt;Node542 -->
<g id="edge8" class="edge">
<title>Node537&#45;&gt;Node542</title>
<path fill="none" stroke="#191970" d="M272.4654,-18.3187C282.3999,-17.9951 292.5567,-17.6643 302.2554,-17.3484"/>
<polygon fill="#191970" stroke="#191970" points="272.1023,-14.8286 262.2216,-18.6524 272.3303,-21.8249 272.1023,-14.8286"/>
</g>
<!-- Node538&#45;&gt;Node536 -->
<g id="edge7" class="edge">
<title>Node538&#45;&gt;Node536</title>
<path fill="none" stroke="#191970" d="M287.7287,-59.3166C234.3977,-55.438 162.4433,-50.205 113.0431,-46.6122"/>
<polygon fill="#191970" stroke="#191970" points="287.5695,-62.8142 297.7971,-60.0489 288.0773,-55.8326 287.5695,-62.8142"/>
</g>
<!-- Node539 -->
<g id="node4" class="node">
<title>Node539</title>
<g id="a_node4"><a xlink:href="structchig_1_1GraphFunction.html#a70b74dd7330f7afb2b3ab38feebd57c5" target="_top" xlink:title="Add a node to the graph. ">
<polygon fill="#ffffff" stroke="#000000" points="456,-49.5 456,-79.5 569,-79.5 569,-49.5 456,-49.5"/>
<text text-anchor="start" x="464" y="-67.5" font-family="Helvetica,sans-Serif" font-size="10.00" fill="#000000">chig::GraphFunction</text>
<text text-anchor="middle" x="512.5" y="-56.5" font-family="Helvetica,sans-Serif" font-size="10.00" fill="#000000">::insertNode</text>
</a>
</g>
</g>
<!-- Node538&#45;&gt;Node539 -->
<g id="edge3" class="edge">
<title>Node538&#45;&gt;Node539</title>
<path fill="none" stroke="#191970" d="M430.3578,-64.5C438.8191,-64.5 447.3682,-64.5 455.5911,-64.5"/>
<polygon fill="#191970" stroke="#191970" points="430.1084,-61.0001 420.1083,-64.5 430.1083,-68.0001 430.1084,-61.0001"/>
</g>
<!-- Node540 -->
<g id="node5" class="node">
<title>Node540</title>
<g id="a_node5"><a xlink:href="structchig_1_1GraphFunction.html#a1fd77fbd5bb46690fdc79cd9c6d35917" target="_top" xlink:title="Creates an entry node if it doesn&#39;t already exist, else just return it. ">
<polygon fill="#ffffff" stroke="#000000" points="605,-49.5 605,-79.5 733,-79.5 733,-49.5 605,-49.5"/>
<text text-anchor="start" x="613" y="-67.5" font-family="Helvetica,sans-Serif" font-size="10.00" fill="#000000">chig::GraphFunction</text>
<text text-anchor="middle" x="669" y="-56.5" font-family="Helvetica,sans-Serif" font-size="10.00" fill="#000000">::getOrInsertEntryNode</text>
</a>
</g>
</g>
<!-- Node539&#45;&gt;Node540 -->
<g id="edge4" class="edge">
<title>Node539&#45;&gt;Node540</title>
<path fill="none" stroke="#191970" d="M579.2454,-57.8153C587.7427,-57.7182 596.4251,-57.7294 604.8798,-57.8488"/>
<polygon fill="#191970" stroke="#191970" points="578.9399,-54.3198 569.0001,-57.9873 579.0575,-61.3188 578.9399,-54.3198"/>
</g>
<!-- Node541 -->
<g id="node6" class="node">
<title>Node541</title>
<g id="a_node6"><a xlink:href="structchig_1_1GraphFunction.html#a449ab966907b5e32dd00d5f6bb1b3ede" target="_top" xlink:title="Add a node to the graph using module, type, and json. ">
<polygon fill="#ffffff" stroke="#000000" points="612.5,-.5 612.5,-30.5 725.5,-30.5 725.5,-.5 612.5,-.5"/>
<text text-anchor="start" x="620.5" y="-18.5" font-family="Helvetica,sans-Serif" font-size="10.00" fill="#000000">chig::GraphFunction</text>
<text text-anchor="middle" x="669" y="-7.5" font-family="Helvetica,sans-Serif" font-size="10.00" fill="#000000">::insertNode</text>
</a>
</g>
</g>
<!-- Node539&#45;&gt;Node541 -->
<g id="edge6" class="edge">
<title>Node539&#45;&gt;Node541</title>
<path fill="none" stroke="#191970" d="M570.3504,-46.3871C586.9883,-41.1778 604.9489,-35.5543 620.9271,-30.5516"/>
<polygon fill="#191970" stroke="#191970" points="569.2295,-43.0704 560.7322,-49.3986 571.3211,-49.7506 569.2295,-43.0704"/>
</g>
<!-- Node540&#45;&gt;Node539 -->
<g id="edge5" class="edge">
<title>Node540&#45;&gt;Node539</title>
<path fill="none" stroke="#191970" d="M594.7643,-71.2421C586.0999,-71.2762 577.3697,-71.1998 569.0001,-71.0127"/>
<polygon fill="#191970" stroke="#191970" points="594.9117,-74.741 604.8798,-71.1512 594.8487,-67.7413 594.9117,-74.741"/>
</g>
</g>
</svg>
        <g id="navigator" transform="translate(0 0)" fill="#404254">
                <rect fill="#f2f5e9" fill-opacity="0.5" stroke="#606060" stroke-width=".5" x="0" y="0" width="60" height="60"/>
                <use id="zoomplus" xlink:href="#zoomPlus" x="17" y="9" onmousedown="handleZoom(evt,'in')"/>
                <use id="zoomminus" xlink:href="#zoomMin" x="42" y="9" onmousedown="handleZoom(evt,'out')"/>
                <use id="reset" xlink:href="#resetDef" x="30" y="36" onmousedown="handleReset()"/>
                <g id="arrowUp" xlink:href="#dirArrow" transform="translate(30 24)" onmousedown="handlePan(0,-1)">
                  <use xlink:href="#rim" fill="#404040">
                        <set attributeName="fill" to="#808080" begin="arrowUp.mouseover" end="arrowUp.mouseout"/>
                  </use>
                  <path fill="none" stroke="white" stroke-width="1.5" d="M0,-3.0v7 M-2.5,-0.5L0,-3.0L2.5,-0.5"/>
                </g>
                <g id="arrowRight" xlink:href="#dirArrow" transform="rotate(90) translate(36 -43)" onmousedown="handlePan(1,0)">
                  <use xlink:href="#rim" fill="#404040">
                        <set attributeName="fill" to="#808080" begin="arrowRight.mouseover" end="arrowRight.mouseout"/>
                  </use>
                  <path fill="none" stroke="white" stroke-width="1.5" d="M0,-3.0v7 M-2.5,-0.5L0,-3.0L2.5,-0.5"/>
                </g>
                <g id="arrowDown" xlink:href="#dirArrow" transform="rotate(180) translate(-30 -48)" onmousedown="handlePan(0,1)">
                  <use xlink:href="#rim" fill="#404040">
                        <set attributeName="fill" to="#808080" begin="arrowDown.mouseover" end="arrowDown.mouseout"/>
                  </use>
                  <path fill="none" stroke="white" stroke-width="1.5" d="M0,-3.0v7 M-2.5,-0.5L0,-3.0L2.5,-0.5"/>
                </g>
                <g id="arrowLeft" xlink:href="#dirArrow" transform="rotate(270) translate(-36 17)" onmousedown="handlePan(-1,0)">
                  <use xlink:href="#rim" fill="#404040">
                        <set attributeName="fill" to="#808080" begin="arrowLeft.mouseover" end="arrowLeft.mouseout"/>
                  </use>
                  <path fill="none" stroke="white" stroke-width="1.5" d="M0,-3.0v7 M-2.5,-0.5L0,-3.0L2.5,-0.5"/>
                </g>
        </g>
        <svg viewBox="0 0 15 15" width="100%" height="30px" preserveAspectRatio="xMaxYMin meet">
         <g id="arrow_out" transform="scale(0.3 0.3)">
          <a xlink:href="structchig_1_1GraphFunction_ae355b017f2859dabff4fa17791317d77_icgraph_org.svg" target="_base">
           <rect id="button" ry="5" rx="5" y="6" x="6" height="38" width="38"
                fill="#f2f5e9" fill-opacity="0.5" stroke="#606060" stroke-width="1.0"/>
           <path id="arrow"
             d="M 11.500037,31.436501 C 11.940474,20.09759 22.043105,11.32322 32.158766,21.979434 L 37.068811,17.246167 C 37.068811,17.246167 37.088388,32 37.088388,32 L 22.160133,31.978069 C 22.160133,31.978069 26.997745,27.140456 26.997745,27.140456 C 18.528582,18.264221 13.291696,25.230495 11.500037,31.436501 z"
             style="fill:#404040;"/>
          </a>
         </g>
        </svg>
</svg>
