<?xml version="1.0" encoding="UTF-8" standalone="no"?>
<!DOCTYPE svg PUBLIC "-//W3C//DTD SVG 1.1//EN"
 "http://www.w3.org/Graphics/SVG/1.1/DTD/svg11.dtd">
<!-- Generated by graphviz version 2.40.1 (20161225.0304)
 -->
<!-- Title: chi::ChiModule::generateModule Pages: 1 -->
<svg width="2472pt" height="618pt"
 viewBox="0.00 0.00 2472.00 617.50" xmlns="http://www.w3.org/2000/svg" xmlns:xlink="http://www.w3.org/1999/xlink">
<g id="graph0" class="graph" transform="scale(1 1) rotate(0) translate(4 613.5)">
<title>chi::ChiModule::generateModule</title>
<polygon fill="#ffffff" stroke="transparent" points="-4,4 -4,-613.5 2468,-613.5 2468,4 -4,4"/>
<!-- Node295 -->
<g id="node1" class="node">
<title>Node295</title>
<polygon fill="#bfbfbf" stroke="#000000" points="0,-472.5 0,-502.5 125,-502.5 125,-472.5 0,-472.5"/>
<text text-anchor="start" x="8" y="-490.5" font-family="Helvetica,sans-Serif" font-size="10.00" fill="#000000">chi::ChiModule::generate</text>
<text text-anchor="middle" x="62.5" y="-479.5" font-family="Helvetica,sans-Serif" font-size="10.00" fill="#000000">Module</text>
</g>
<!-- Node296 -->
<g id="node2" class="node">
<title>Node296</title>
<g id="a_node2"><a xlink:href="structchi_1_1Context.html#a1a0ed6a11af4c2625955bc5df77e135c" target="_top" xlink:title="Compile a module to a llvm::Module. ">
<polygon fill="#ffffff" stroke="#000000" points="1459,-590 1459,-609 1599,-609 1599,-590 1459,-590"/>
<text text-anchor="middle" x="1529" y="-597" font-family="Helvetica,sans-Serif" font-size="10.00" fill="#000000">chi::Context::compileModule</text>
</a>
</g>
</g>
<!-- Node295&#45;&gt;Node296 -->
<g id="edge1" class="edge">
<title>Node295&#45;&gt;Node296</title>
<path fill="none" stroke="#191970" d="M94.8654,-507.8241C152.9422,-542.29 279.7085,-608.5 396.5,-608.5 396.5,-608.5 396.5,-608.5 1151.5,-608.5 1258.6854,-608.5 1382.9411,-604.8289 1458.7414,-602.1759"/>
<polygon fill="#191970" stroke="#191970" points="96.5197,-504.7348 86.1463,-502.5801 92.9119,-510.7335 96.5197,-504.7348"/>
</g>
<!-- Node297 -->
<g id="node3" class="node">
<title>Node297</title>
<g id="a_node3"><a xlink:href="structchi_1_1ChiModule.html#a5c28c9fe74ad3cb704b613843b267512" target="_top" xlink:title="Get the Context that this module belongs to. ">
<polygon fill="#ffffff" stroke="#000000" points="161,-338 161,-357 280,-357 280,-338 161,-338"/>
<text text-anchor="middle" x="220.5" y="-345" font-family="Helvetica,sans-Serif" font-size="10.00" fill="#000000">chi::ChiModule::context</text>
</a>
</g>
</g>
<!-- Node295&#45;&gt;Node297 -->
<g id="edge2" class="edge">
<title>Node295&#45;&gt;Node297</title>
<path fill="none" stroke="#191970" d="M87.5604,-465.2946C122.5,-434.3354 184.3812,-379.504 209.4721,-357.2715"/>
<polygon fill="#191970" stroke="#191970" points="84.8729,-462.9995 79.7095,-472.251 89.5153,-468.2387 84.8729,-462.9995"/>
</g>
<!-- Node298 -->
<g id="node4" class="node">
<title>Node298</title>
<g id="a_node4"><a xlink:href="structchi_1_1ChiModule.html#aab11d61e0c0138e5fc5ce176c20e3bec" target="_top" xlink:title="Add a dependency to the module Loads the module from context() if it isn&#39;t already loaded...">
<polygon fill="#ffffff" stroke="#000000" points="1073,-498 1073,-517 1230,-517 1230,-498 1073,-498"/>
<text text-anchor="middle" x="1151.5" y="-505" font-family="Helvetica,sans-Serif" font-size="10.00" fill="#000000">chi::ChiModule::addDependency</text>
</a>
</g>
</g>
<!-- Node297&#45;&gt;Node298 -->
<g id="edge3" class="edge">
<title>Node297&#45;&gt;Node298</title>
<path fill="none" stroke="#191970" d="M236.5898,-364.514C254.2351,-381.9426 284.2876,-408.1761 316,-420.5 428.2919,-464.1384 465.5269,-444.5 586,-444.5 586,-444.5 586,-444.5 778,-444.5 904.9163,-444.5 1052.7545,-480.3076 1117.8323,-497.9317"/>
<polygon fill="#191970" stroke="#191970" points="238.9048,-361.8766 229.3942,-357.2075 233.9173,-366.7884 238.9048,-361.8766"/>
</g>
<!-- Node301 -->
<g id="node7" class="node">
<title>Node301</title>
<g id="a_node7"><a xlink:href="structchi_1_1GraphModule.html#a5cd9fb1738336d5d382ebb50753bda3e" target="_top" xlink:title="Serialize to disk in the context. ">
<polygon fill="#ffffff" stroke="#000000" points="2313,-303 2313,-322 2464,-322 2464,-303 2313,-303"/>
<text text-anchor="middle" x="2388.5" y="-310" font-family="Helvetica,sans-Serif" font-size="10.00" fill="#000000">chi::GraphModule::saveToDisk</text>
</a>
</g>
</g>
<!-- Node297&#45;&gt;Node301 -->
<g id="edge55" class="edge">
<title>Node297&#45;&gt;Node301</title>
<path fill="none" stroke="#191970" d="M259.5718,-360.0506C276.7324,-365.1707 297.2136,-370.7553 316,-374.5 434.5085,-398.1221 465.1601,-406.5 586,-406.5 586,-406.5 586,-406.5 778,-406.5 1265.48,-406.5 1382.02,-514.5 1869.5,-514.5 1869.5,-514.5 1869.5,-514.5 2044,-514.5 2197.918,-514.5 2343.9533,-362.5931 2380.029,-322.2429"/>
<polygon fill="#191970" stroke="#191970" points="260.4753,-356.6671 249.8896,-357.107 258.4391,-363.3645 260.4753,-356.6671"/>
</g>
<!-- Node303 -->
<g id="node9" class="node">
<title>Node303</title>
<g id="a_node9"><a xlink:href="namespacechi.html#af483dab3c6b3b1ee261f223bd83d5670" target="_top" xlink:title="Create a forward declaration of a function in a module with an empty graph. ">
<polygon fill="#ffffff" stroke="#000000" points="333.5,-511.5 333.5,-541.5 459.5,-541.5 459.5,-511.5 333.5,-511.5"/>
<text text-anchor="start" x="341.5" y="-529.5" font-family="Helvetica,sans-Serif" font-size="10.00" fill="#000000">chi::createGraphFunction</text>
<text text-anchor="middle" x="396.5" y="-518.5" font-family="Helvetica,sans-Serif" font-size="10.00" fill="#000000">DeclarationFromJson</text>
</a>
</g>
</g>
<!-- Node297&#45;&gt;Node303 -->
<g id="edge9" class="edge">
<title>Node297&#45;&gt;Node303</title>
<path fill="none" stroke="#191970" d="M227.2776,-366.7827C239.7151,-399.3811 269.2754,-465.3556 316,-501.5 321.2088,-505.5293 327.0737,-508.9146 333.2032,-511.7577"/>
<polygon fill="#191970" stroke="#191970" points="230.4527,-365.2757 223.7161,-357.0984 223.8829,-367.6919 230.4527,-365.2757"/>
</g>
<!-- Node307 -->
<g id="node13" class="node">
<title>Node307</title>
<g id="a_node13"><a xlink:href="structchi_1_1GraphModule.html#a24162d01532244d8945128b71af5fc48" target="_top" xlink:title="From C code, create a NodeType. ">
<polygon fill="#ffffff" stroke="#000000" points="715,-309.5 715,-339.5 841,-339.5 841,-309.5 715,-309.5"/>
<text text-anchor="start" x="723" y="-327.5" font-family="Helvetica,sans-Serif" font-size="10.00" fill="#000000">chi::GraphModule::create</text>
<text text-anchor="middle" x="778" y="-316.5" font-family="Helvetica,sans-Serif" font-size="10.00" fill="#000000">NodeTypeFromCCode</text>
</a>
</g>
</g>
<!-- Node297&#45;&gt;Node307 -->
<g id="edge14" class="edge">
<title>Node297&#45;&gt;Node307</title>
<path fill="none" stroke="#191970" d="M290.4313,-344.6149C399.8612,-340.1003 609.8962,-331.4352 714.9372,-327.1017"/>
<polygon fill="#191970" stroke="#191970" points="290.0095,-341.1293 280.1623,-345.0386 290.2981,-348.1233 290.0095,-341.1293"/>
</g>
<!-- Node309 -->
<g id="node15" class="node">
<title>Node309</title>
<g id="a_node15"><a xlink:href="structchi_1_1GraphModule.html#a9b73bbbfa91d6a2f92bcca270bdb7b2f" target="_top" xlink:title="Generate a llvm::Module from the module. ">
<polygon fill="#ffffff" stroke="#000000" points="1083,-221.5 1083,-251.5 1220,-251.5 1220,-221.5 1083,-221.5"/>
<text text-anchor="start" x="1091" y="-239.5" font-family="Helvetica,sans-Serif" font-size="10.00" fill="#000000">chi::GraphModule::generate</text>
<text text-anchor="middle" x="1151.5" y="-228.5" font-family="Helvetica,sans-Serif" font-size="10.00" fill="#000000">Module</text>
</a>
</g>
</g>
<!-- Node297&#45;&gt;Node309 -->
<g id="edge45" class="edge">
<title>Node297&#45;&gt;Node309</title>
<path fill="none" stroke="#191970" d="M261.1871,-335.0481C328.211,-315.6708 466.3438,-280.5 586,-280.5 586,-280.5 586,-280.5 778,-280.5 885.0791,-280.5 1008.2477,-262.4424 1082.9457,-249.4635"/>
<polygon fill="#191970" stroke="#191970" points="260.054,-331.7328 251.4395,-337.9005 262.02,-338.4511 260.054,-331.7328"/>
</g>
<!-- Node310 -->
<g id="node16" class="node">
<title>Node310</title>
<g id="a_node16"><a xlink:href="structchi_1_1GraphModule.html#a133c0595e0bb888f958e9769838f6c0c" target="_top" xlink:title="Create a node type that is in the module from the name and json. ">
<polygon fill="#ffffff" stroke="#000000" points="1080.5,-358.5 1080.5,-388.5 1222.5,-388.5 1222.5,-358.5 1080.5,-358.5"/>
<text text-anchor="start" x="1088.5" y="-376.5" font-family="Helvetica,sans-Serif" font-size="10.00" fill="#000000">chi::GraphModule::nodeType</text>
<text text-anchor="middle" x="1151.5" y="-365.5" font-family="Helvetica,sans-Serif" font-size="10.00" fill="#000000">FromName</text>
</a>
</g>
</g>
<!-- Node297&#45;&gt;Node310 -->
<g id="edge53" class="edge">
<title>Node297&#45;&gt;Node310</title>
<path fill="none" stroke="#191970" d="M290.3308,-353.9006C363.836,-360.0776 482.9545,-368.5 586,-368.5 586,-368.5 586,-368.5 778,-368.5 883.2184,-368.5 1005.0949,-370.5084 1080.2491,-371.9795"/>
<polygon fill="#191970" stroke="#191970" points="290.5286,-350.4048 280.268,-353.045 289.9355,-357.3797 290.5286,-350.4048"/>
</g>
<!-- Node325 -->
<g id="node31" class="node">
<title>Node325</title>
<g id="a_node31"><a xlink:href="namespacechi.html#a629f77832b6e7a6e0eaab123c4be1cda" target="_top" xlink:title="Load a GraphStruct from json. ">
<polygon fill="#ffffff" stroke="#000000" points="338,-473 338,-492 455,-492 455,-473 338,-473"/>
<text text-anchor="middle" x="396.5" y="-480" font-family="Helvetica,sans-Serif" font-size="10.00" fill="#000000">chi::jsonToGraphStruct</text>
</a>
</g>
</g>
<!-- Node297&#45;&gt;Node325 -->
<g id="edge46" class="edge">
<title>Node297&#45;&gt;Node325</title>
<path fill="none" stroke="#191970" d="M231.4993,-365.8793C247.1964,-390.5495 278.3337,-434.0888 316,-458.5 325.6682,-464.7659 337.0353,-469.45 348.1321,-472.932"/>
<polygon fill="#191970" stroke="#191970" points="234.3274,-363.7984 226.0852,-357.1413 228.3769,-367.4853 234.3274,-363.7984"/>
</g>
<!-- Node326 -->
<g id="node32" class="node">
<title>Node326</title>
<g id="a_node32"><a xlink:href="structchi_1_1LangModule.html#a0d623aa2342eec20ab11150e793f6b9e" target="_top" xlink:title="Default constructor, usually called from Context::loadModule(&quot;lang&quot;) ">
<polygon fill="#ffffff" stroke="#000000" points="513,-19 513,-38 659,-38 659,-19 513,-19"/>
<text text-anchor="middle" x="586" y="-26" font-family="Helvetica,sans-Serif" font-size="10.00" fill="#000000">chi::LangModule::LangModule</text>
</a>
</g>
</g>
<!-- Node297&#45;&gt;Node326 -->
<g id="edge48" class="edge">
<title>Node297&#45;&gt;Node326</title>
<path fill="none" stroke="#191970" d="M222.674,-327.6179C228.6843,-282.7003 249.7341,-172.9157 316,-116.5 371.9816,-68.8399 411.4953,-111.8852 477,-78.5 495.8122,-68.9121 494.2985,-57.3021 513,-47.5 520.3075,-43.6699 528.4393,-40.5743 536.5473,-38.0835"/>
<polygon fill="#191970" stroke="#191970" points="219.1692,-327.4439 221.4264,-337.7954 226.1172,-328.2956 219.1692,-327.4439"/>
</g>
<!-- Node327 -->
<g id="node33" class="node">
<title>Node327</title>
<g id="a_node33"><a xlink:href="classchi_1_1Debugger.html#ae142902fa85248f40cbeea7199c86ad9" target="_top" xlink:title="Get a NodeInstance from a frame. ">
<polygon fill="#ffffff" stroke="#000000" points="319.5,-126 319.5,-145 473.5,-145 473.5,-126 319.5,-126"/>
<text text-anchor="middle" x="396.5" y="-133" font-family="Helvetica,sans-Serif" font-size="10.00" fill="#000000">chi::Debugger::nodeFromFrame</text>
</a>
</g>
</g>
<!-- Node297&#45;&gt;Node327 -->
<g id="edge49" class="edge">
<title>Node297&#45;&gt;Node327</title>
<path fill="none" stroke="#191970" d="M229,-328.6766C243.5986,-297.7566 275.7843,-235.3725 316,-192.5 334.745,-172.5166 361.5041,-155.2468 378.9374,-145.1047"/>
<polygon fill="#191970" stroke="#191970" points="225.763,-327.3376 224.7372,-337.8827 232.1151,-330.2789 225.763,-327.3376"/>
</g>
<!-- Node330 -->
<g id="node36" class="node">
<title>Node330</title>
<g id="a_node36"><a xlink:href="structchi_1_1GraphModule.html#af22aa5e1c4c11f79e7563041624e3fbb" target="_top" xlink:title="Remove a function from the module. ">
<polygon fill="#ffffff" stroke="#000000" points="331,-.5 331,-30.5 462,-30.5 462,-.5 331,-.5"/>
<text text-anchor="start" x="339" y="-18.5" font-family="Helvetica,sans-Serif" font-size="10.00" fill="#000000">chi::GraphModule::remove</text>
<text text-anchor="middle" x="396.5" y="-7.5" font-family="Helvetica,sans-Serif" font-size="10.00" fill="#000000">Function</text>
</a>
</g>
</g>
<!-- Node297&#45;&gt;Node330 -->
<g id="edge54" class="edge">
<title>Node297&#45;&gt;Node330</title>
<path fill="none" stroke="#191970" d="M224.1545,-327.7985C235.84,-266.7758 273.9976,-82.4826 316,-40.5 320.3471,-36.1549 325.4347,-32.5626 330.9026,-29.5931"/>
<polygon fill="#191970" stroke="#191970" points="220.6464,-327.5142 222.2311,-337.9899 227.525,-328.8125 220.6464,-327.5142"/>
</g>
<!-- Node331 -->
<g id="node37" class="node">
<title>Node331</title>
<g id="a_node37"><a xlink:href="structchi_1_1GraphModule.html#a1c1a23b9aa7967948e97dc9650099188" target="_top" xlink:title="Get the path to the source file It&#39;s not garunteed to exist, because it could have not been saved...">
<polygon fill="#ffffff" stroke="#000000" points="332.5,-202.5 332.5,-232.5 460.5,-232.5 460.5,-202.5 332.5,-202.5"/>
<text text-anchor="start" x="340.5" y="-220.5" font-family="Helvetica,sans-Serif" font-size="10.00" fill="#000000">chi::GraphModule::source</text>
<text text-anchor="middle" x="396.5" y="-209.5" font-family="Helvetica,sans-Serif" font-size="10.00" fill="#000000">FilePath</text>
</a>
</g>
</g>
<!-- Node297&#45;&gt;Node331 -->
<g id="edge56" class="edge">
<title>Node297&#45;&gt;Node331</title>
<path fill="none" stroke="#191970" d="M238.1122,-331.1009C256.7747,-314.0798 287.4364,-287.1129 316,-266.5 333.1148,-254.1491 353.4217,-241.8035 369.358,-232.5939"/>
<polygon fill="#191970" stroke="#191970" points="235.654,-328.6065 230.6611,-337.9511 240.3916,-333.7597 235.654,-328.6065"/>
</g>
<!-- Node334 -->
<g id="node40" class="node">
<title>Node334</title>
<g id="a_node40"><a xlink:href="classchi_1_1Debugger.html#a886cc971180144623a6428a8cd79d4ae" target="_top" xlink:title="Start debugging the process. ">
<polygon fill="#ffffff" stroke="#000000" points="345.5,-561 345.5,-580 447.5,-580 447.5,-561 345.5,-561"/>
<text text-anchor="middle" x="396.5" y="-568" font-family="Helvetica,sans-Serif" font-size="10.00" fill="#000000">chi::Debugger::start</text>
</a>
</g>
</g>
<!-- Node297&#45;&gt;Node334 -->
<g id="edge63" class="edge">
<title>Node297&#45;&gt;Node334</title>
<path fill="none" stroke="#191970" d="M223.8595,-367.3062C231.9028,-408.3564 256.2299,-502.9313 316,-551.5 324.3582,-558.2918 334.7284,-562.7348 345.2143,-565.6223"/>
<polygon fill="#191970" stroke="#191970" points="227.2963,-366.6425 222.0431,-357.4417 220.412,-367.9102 227.2963,-366.6425"/>
</g>
<!-- Node335 -->
<g id="node41" class="node">
<title>Node335</title>
<g id="a_node41"><a xlink:href="structchi_1_1LangModule.html#a1816ac13d6fc10d5ae730f8cf0a92409" target="_top" xlink:title="Get a DataType from the name. ">
<polygon fill="#ffffff" stroke="#000000" points="316,-50 316,-69 477,-69 477,-50 316,-50"/>
<text text-anchor="middle" x="396.5" y="-57" font-family="Helvetica,sans-Serif" font-size="10.00" fill="#000000">chi::LangModule::typeFromName</text>
</a>
</g>
</g>
<!-- Node297&#45;&gt;Node335 -->
<g id="edge64" class="edge">
<title>Node297&#45;&gt;Node335</title>
<path fill="none" stroke="#191970" d="M221.7633,-327.7935C225.9636,-279.0422 243.658,-151.8077 316,-83.5 322.6803,-77.1923 330.9478,-72.5357 339.6169,-69.0995"/>
<polygon fill="#191970" stroke="#191970" points="218.2606,-327.6978 220.9921,-337.9345 225.2404,-328.2287 218.2606,-327.6978"/>
</g>
<!-- Node299 -->
<g id="node5" class="node">
<title>Node299</title>
<g id="a_node5"><a xlink:href="structchi_1_1ChiModule.html#a9c0d4b1b54bca0194ea4061ae4883779" target="_top" xlink:title="Get the dependencies. ">
<polygon fill="#ffffff" stroke="#000000" points="1271,-543 1271,-562 1418,-562 1418,-543 1271,-543"/>
<text text-anchor="middle" x="1344.5" y="-550" font-family="Helvetica,sans-Serif" font-size="10.00" fill="#000000">chi::ChiModule::dependencies</text>
</a>
</g>
</g>
<!-- Node298&#45;&gt;Node299 -->
<g id="edge4" class="edge">
<title>Node298&#45;&gt;Node299</title>
<path fill="none" stroke="#191970" d="M1202.3724,-519.3614C1233.9868,-526.7327 1274.0885,-536.0828 1303.6287,-542.9704"/>
<polygon fill="#191970" stroke="#191970" points="1202.9639,-515.9055 1192.4303,-517.0433 1201.3744,-522.7227 1202.9639,-515.9055"/>
</g>
<!-- Node302 -->
<g id="node8" class="node">
<title>Node302</title>
<g id="a_node8"><a xlink:href="structchi_1_1GraphModule.html#adeeeec5c69812ddeb43a64d3009a4eda" target="_top" xlink:title="Construct a GraphModule. ">
<polygon fill="#ffffff" stroke="#000000" points="1266,-498 1266,-517 1423,-517 1423,-498 1266,-498"/>
<text text-anchor="middle" x="1344.5" y="-505" font-family="Helvetica,sans-Serif" font-size="10.00" fill="#000000">chi::GraphModule::GraphModule</text>
</a>
</g>
</g>
<!-- Node298&#45;&gt;Node302 -->
<g id="edge8" class="edge">
<title>Node298&#45;&gt;Node302</title>
<path fill="none" stroke="#191970" d="M1240.0225,-507.5C1248.607,-507.5 1257.2762,-507.5 1265.7559,-507.5"/>
<polygon fill="#191970" stroke="#191970" points="1240.0005,-504.0001 1230.0005,-507.5 1240.0005,-511.0001 1240.0005,-504.0001"/>
</g>
<!-- Node299&#45;&gt;Node296 -->
<g id="edge5" class="edge">
<title>Node299&#45;&gt;Node296</title>
<path fill="none" stroke="#191970" d="M1391.552,-564.4861C1422.5327,-572.3782 1462.5466,-582.5715 1491.403,-589.9224"/>
<polygon fill="#191970" stroke="#191970" points="1392.3909,-561.0881 1381.8363,-562.0112 1390.6628,-567.8715 1392.3909,-561.0881"/>
</g>
<!-- Node300 -->
<g id="node6" class="node">
<title>Node300</title>
<g id="a_node6"><a xlink:href="namespacechi.html#a9a4f3fa54c612f0c559a353bb7382d5a" target="_top" xlink:title="Serialize a JsonModule to json. ">
<polygon fill="#ffffff" stroke="#000000" points="2154,-303 2154,-322 2277,-322 2277,-303 2154,-303"/>
<text text-anchor="middle" x="2215.5" y="-310" font-family="Helvetica,sans-Serif" font-size="10.00" fill="#000000">chi::graphModuleToJson</text>
</a>
</g>
</g>
<!-- Node299&#45;&gt;Node300 -->
<g id="edge6" class="edge">
<title>Node299&#45;&gt;Node300</title>
<path fill="none" stroke="#191970" d="M1428.5329,-552.5C1500.98,-552.5 1608.3846,-552.5 1702,-552.5 1702,-552.5 1702,-552.5 1869.5,-552.5 1989.7477,-552.5 2023.9268,-520.3982 2118,-445.5 2163.6924,-409.1212 2198.476,-346.2648 2210.7216,-322.2304"/>
<polygon fill="#191970" stroke="#191970" points="1428.1035,-549.0001 1418.1034,-552.5 1428.1034,-556.0001 1428.1035,-549.0001"/>
</g>
<!-- Node300&#45;&gt;Node301 -->
<g id="edge7" class="edge">
<title>Node300&#45;&gt;Node301</title>
<path fill="none" stroke="#191970" d="M2287.5243,-312.5C2295.8612,-312.5 2304.3827,-312.5 2312.7672,-312.5"/>
<polygon fill="#191970" stroke="#191970" points="2287.4684,-309.0001 2277.4683,-312.5 2287.4683,-316.0001 2287.4684,-309.0001"/>
</g>
<!-- Node304 -->
<g id="node10" class="node">
<title>Node304</title>
<g id="a_node10"><a xlink:href="namespacechi.html#a4489e333fecc4168278e94f8b3f81e3c" target="_top" xlink:title="Load a GraphModule from json. ">
<polygon fill="#ffffff" stroke="#000000" points="525,-498 525,-517 647,-517 647,-498 525,-498"/>
<text text-anchor="middle" x="586" y="-505" font-family="Helvetica,sans-Serif" font-size="10.00" fill="#000000">chi::jsonToGraphModule</text>
</a>
</g>
</g>
<!-- Node303&#45;&gt;Node304 -->
<g id="edge10" class="edge">
<title>Node303&#45;&gt;Node304</title>
<path fill="none" stroke="#191970" d="M469.5954,-519.1712C487.8281,-517.3431 507.1912,-515.4017 524.7835,-513.6378"/>
<polygon fill="#191970" stroke="#191970" points="469.2017,-515.693 459.6008,-520.1733 469.9001,-522.6581 469.2017,-515.693"/>
</g>
<!-- Node305 -->
<g id="node11" class="node">
<title>Node305</title>
<g id="a_node11"><a xlink:href="structchi_1_1Context.html#a2db103f3a2f77710dfa51489f63ec97f" target="_top" xlink:title="Load a module from JSON – avoid this use the string overload. ">
<polygon fill="#ffffff" stroke="#000000" points="695,-498 695,-517 861,-517 861,-498 695,-498"/>
<text text-anchor="middle" x="778" y="-505" font-family="Helvetica,sans-Serif" font-size="10.00" fill="#000000">chi::Context::addModuleFromJson</text>
</a>
</g>
</g>
<!-- Node304&#45;&gt;Node305 -->
<g id="edge11" class="edge">
<title>Node304&#45;&gt;Node305</title>
<path fill="none" stroke="#191970" d="M657.1323,-507.5C669.3629,-507.5 682.1719,-507.5 694.688,-507.5"/>
<polygon fill="#191970" stroke="#191970" points="657.0138,-504.0001 647.0138,-507.5 657.0138,-511.0001 657.0138,-504.0001"/>
</g>
<!-- Node306 -->
<g id="node12" class="node">
<title>Node306</title>
<g id="a_node12"><a xlink:href="structchi_1_1Context.html#a508c786fe61ffa67c2a44850ecac4a7b" target="_top" xlink:title="Load a module from disk, also loads dependencies. ">
<polygon fill="#ffffff" stroke="#000000" points="904.5,-498 904.5,-517 1029.5,-517 1029.5,-498 904.5,-498"/>
<text text-anchor="middle" x="967" y="-505" font-family="Helvetica,sans-Serif" font-size="10.00" fill="#000000">chi::Context::loadModule</text>
</a>
</g>
</g>
<!-- Node305&#45;&gt;Node306 -->
<g id="edge12" class="edge">
<title>Node305&#45;&gt;Node306</title>
<path fill="none" stroke="#191970" d="M871.3812,-507.5C882.5224,-507.5 893.6842,-507.5 904.2473,-507.5"/>
<polygon fill="#191970" stroke="#191970" points="871.1732,-504.0001 861.1732,-507.5 871.1732,-511.0001 871.1732,-504.0001"/>
</g>
<!-- Node306&#45;&gt;Node298 -->
<g id="edge13" class="edge">
<title>Node306&#45;&gt;Node298</title>
<path fill="none" stroke="#191970" d="M1039.9707,-507.5C1050.8018,-507.5 1062.004,-507.5 1072.9434,-507.5"/>
<polygon fill="#191970" stroke="#191970" points="1039.7208,-504.0001 1029.7207,-507.5 1039.7207,-511.0001 1039.7208,-504.0001"/>
</g>
<!-- Node308 -->
<g id="node14" class="node">
<title>Node308</title>
<g id="a_node14"><a xlink:href="structchi_1_1GraphModule.html#ac251cc6b4242642f6601c8c3607f5747" target="_top" xlink:title="Gets if C support is enabled. ">
<polygon fill="#ffffff" stroke="#000000" points="897,-315 897,-334 1037,-334 1037,-315 897,-315"/>
<text text-anchor="middle" x="967" y="-322" font-family="Helvetica,sans-Serif" font-size="10.00" fill="#000000">chi::GraphModule::cEnabled</text>
</a>
</g>
</g>
<!-- Node307&#45;&gt;Node308 -->
<g id="edge15" class="edge">
<title>Node307&#45;&gt;Node308</title>
<path fill="none" stroke="#191970" d="M851.3742,-324.5C866.2732,-324.5 881.9105,-324.5 896.7,-324.5"/>
<polygon fill="#191970" stroke="#191970" points="851.1971,-321.0001 841.197,-324.5 851.197,-328.0001 851.1971,-321.0001"/>
</g>
<!-- Node308&#45;&gt;Node300 -->
<g id="edge44" class="edge">
<title>Node308&#45;&gt;Node300</title>
<path fill="none" stroke="#191970" d="M1024.3534,-335.4834C1080.5731,-343.1755 1166.7967,-346.5191 1230,-310.5 1255.0605,-296.2182 1241.1033,-271.0655 1266,-256.5 1367.1824,-197.3043 1411.7736,-236.5 1529,-236.5 1529,-236.5 1529,-236.5 1869.5,-236.5 1981.2963,-236.5 2009.9378,-246.8474 2118,-275.5 2144.9503,-282.6459 2174.7591,-294.5838 2194.2345,-302.9625"/>
<polygon fill="#191970" stroke="#191970" points="1024.6179,-331.985 1014.2174,-334.005 1023.6075,-338.9117 1024.6179,-331.985"/>
</g>
<!-- Node308&#45;&gt;Node309 -->
<g id="edge16" class="edge">
<title>Node308&#45;&gt;Node309</title>
<path fill="none" stroke="#191970" d="M1004.3404,-311.2348C1015.2572,-306.6415 1026.949,-300.991 1037,-294.5 1055.2334,-282.7248 1054.2195,-272.3813 1073,-261.5 1079.5591,-257.6997 1086.767,-254.4014 1094.0739,-251.5601"/>
<polygon fill="#191970" stroke="#191970" points="1002.9755,-308.0113 995.0071,-314.9937 1005.5906,-314.5045 1002.9755,-308.0113"/>
</g>
<!-- Node308&#45;&gt;Node310 -->
<g id="edge17" class="edge">
<title>Node308&#45;&gt;Node310</title>
<path fill="none" stroke="#191970" d="M1012.8975,-336.6896C1037.7156,-343.2808 1068.5811,-351.4782 1094.8812,-358.463"/>
<polygon fill="#191970" stroke="#191970" points="1013.5748,-333.2482 1003.0114,-334.064 1011.778,-340.0137 1013.5748,-333.2482"/>
</g>
<!-- Node324 -->
<g id="node30" class="node">
<title>Node324</title>
<g id="a_node30"><a xlink:href="structchi_1_1GraphModule.html#a53a1a284ab878783e74a957bb3b711b3" target="_top" xlink:title="Get the possible node type names. ">
<polygon fill="#ffffff" stroke="#000000" points="1080.5,-270.5 1080.5,-300.5 1222.5,-300.5 1222.5,-270.5 1080.5,-270.5"/>
<text text-anchor="start" x="1088.5" y="-288.5" font-family="Helvetica,sans-Serif" font-size="10.00" fill="#000000">chi::GraphModule::nodeType</text>
<text text-anchor="middle" x="1151.5" y="-277.5" font-family="Helvetica,sans-Serif" font-size="10.00" fill="#000000">Names</text>
</a>
</g>
</g>
<!-- Node308&#45;&gt;Node324 -->
<g id="edge43" class="edge">
<title>Node308&#45;&gt;Node324</title>
<path fill="none" stroke="#191970" d="M1022.0223,-312.8693C1040.2969,-309.0063 1060.9135,-304.6484 1080.2335,-300.5645"/>
<polygon fill="#191970" stroke="#191970" points="1021.1937,-309.467 1012.1338,-314.9595 1022.6415,-316.3157 1021.1937,-309.467"/>
</g>
<!-- Node311 -->
<g id="node17" class="node">
<title>Node311</title>
<g id="a_node17"><a xlink:href="structchi_1_1GraphFunction.html#a60bc423cb4fed3605a446da112949483" target="_top" xlink:title="Rename a local variable. ">
<polygon fill="#ffffff" stroke="#000000" points="1288,-265.5 1288,-295.5 1401,-295.5 1401,-265.5 1288,-265.5"/>
<text text-anchor="start" x="1296" y="-283.5" font-family="Helvetica,sans-Serif" font-size="10.00" fill="#000000">chi::GraphFunction</text>
<text text-anchor="middle" x="1344.5" y="-272.5" font-family="Helvetica,sans-Serif" font-size="10.00" fill="#000000">::renameLocalVariable</text>
</a>
</g>
</g>
<!-- Node310&#45;&gt;Node311 -->
<g id="edge18" class="edge">
<title>Node310&#45;&gt;Node311</title>
<path fill="none" stroke="#191970" d="M1210.324,-354.3912C1217.1915,-351.1909 1223.9105,-347.5661 1230,-343.5 1249.3478,-330.5812 1246.2936,-317.865 1266,-305.5 1272.6635,-301.3189 1280.0871,-297.7805 1287.6368,-294.8015"/>
<polygon fill="#191970" stroke="#191970" points="1208.6808,-351.2894 1200.9123,-358.4937 1211.4779,-357.7062 1208.6808,-351.2894"/>
</g>
<!-- Node314 -->
<g id="node20" class="node">
<title>Node314</title>
<g id="a_node20"><a xlink:href="structchi_1_1GraphFunction.html#a4c38679ec5e727bfb71c8eaaa5a8ca1a" target="_top" xlink:title="Set a new type to a local variable. ">
<polygon fill="#ffffff" stroke="#000000" points="1290.5,-314.5 1290.5,-344.5 1398.5,-344.5 1398.5,-314.5 1290.5,-314.5"/>
<text text-anchor="start" x="1298.5" y="-332.5" font-family="Helvetica,sans-Serif" font-size="10.00" fill="#000000">chi::GraphFunction</text>
<text text-anchor="middle" x="1344.5" y="-321.5" font-family="Helvetica,sans-Serif" font-size="10.00" fill="#000000">::retypeLocalVariable</text>
</a>
</g>
</g>
<!-- Node310&#45;&gt;Node314 -->
<g id="edge22" class="edge">
<title>Node310&#45;&gt;Node314</title>
<path fill="none" stroke="#191970" d="M1227.2824,-356.2232C1248.3803,-351.4133 1270.8649,-346.2873 1290.44,-341.8246"/>
<polygon fill="#191970" stroke="#191970" points="1226.3517,-352.8455 1217.3798,-358.4808 1227.9077,-359.6704 1226.3517,-352.8455"/>
</g>
<!-- Node315 -->
<g id="node21" class="node">
<title>Node315</title>
<g id="a_node21"><a xlink:href="structchi_1_1GraphStruct.html#a464c5edd4ebcb07161c3d05312f1fc33" target="_top" xlink:title="Set the name of the struct, and optionally update all references in the context. ">
<polygon fill="#ffffff" stroke="#000000" points="1278,-402 1278,-421 1411,-421 1411,-402 1278,-402"/>
<text text-anchor="middle" x="1344.5" y="-409" font-family="Helvetica,sans-Serif" font-size="10.00" fill="#000000">chi::GraphStruct::setName</text>
</a>
</g>
</g>
<!-- Node310&#45;&gt;Node315 -->
<g id="edge24" class="edge">
<title>Node310&#45;&gt;Node315</title>
<path fill="none" stroke="#191970" d="M1232.4164,-389.4317C1254.1044,-393.7019 1276.8711,-398.1845 1296.1773,-401.9857"/>
<polygon fill="#191970" stroke="#191970" points="1233.0316,-385.9857 1222.5439,-387.4879 1231.6793,-392.8539 1233.0316,-385.9857"/>
</g>
<!-- Node322 -->
<g id="node28" class="node">
<title>Node322</title>
<g id="a_node28"><a xlink:href="structchi_1_1GraphStruct.html#a27c5062196f73eae3125c0baeb592d00" target="_top" xlink:title="Get the DataType of the struct. ">
<polygon fill="#ffffff" stroke="#000000" points="1635,-341 1635,-360 1769,-360 1769,-341 1635,-341"/>
<text text-anchor="middle" x="1702" y="-348" font-family="Helvetica,sans-Serif" font-size="10.00" fill="#000000">chi::GraphStruct::dataType</text>
</a>
</g>
</g>
<!-- Node310&#45;&gt;Node322 -->
<g id="edge42" class="edge">
<title>Node310&#45;&gt;Node322</title>
<path fill="none" stroke="#191970" d="M1232.9193,-370.0983C1342.0436,-365.539 1533.702,-357.5315 1634.9538,-353.3012"/>
<polygon fill="#191970" stroke="#191970" points="1232.4675,-366.614 1222.6224,-370.5285 1232.7598,-373.6079 1232.4675,-366.614"/>
</g>
<!-- Node312 -->
<g id="node18" class="node">
<title>Node312</title>
<g id="a_node18"><a xlink:href="structchi_1_1GraphFunction.html#a44f8f791775e4878b6bde37140cd131d" target="_top" xlink:title="Get the local variables. ">
<polygon fill="#ffffff" stroke="#000000" points="1479.5,-265.5 1479.5,-295.5 1578.5,-295.5 1578.5,-265.5 1479.5,-265.5"/>
<text text-anchor="start" x="1487.5" y="-283.5" font-family="Helvetica,sans-Serif" font-size="10.00" fill="#000000">chi::GraphFunction</text>
<text text-anchor="middle" x="1529" y="-272.5" font-family="Helvetica,sans-Serif" font-size="10.00" fill="#000000">::localVariables</text>
</a>
</g>
</g>
<!-- Node311&#45;&gt;Node312 -->
<g id="edge19" class="edge">
<title>Node311&#45;&gt;Node312</title>
<path fill="none" stroke="#191970" d="M1411.2674,-280.5C1433.757,-280.5 1458.4392,-280.5 1479.3697,-280.5"/>
<polygon fill="#191970" stroke="#191970" points="1411.11,-277.0001 1401.1099,-280.5 1411.1099,-284.0001 1411.11,-277.0001"/>
</g>
<!-- Node313 -->
<g id="node19" class="node">
<title>Node313</title>
<g id="a_node19"><a xlink:href="namespacechi.html#afd8b8d8a207d88359ad1e6a48d8f3bb1" target="_top" xlink:title="Serialize a GraphFunction to json. ">
<polygon fill="#ffffff" stroke="#000000" points="1805,-265 1805,-284 1934,-284 1934,-265 1805,-265"/>
<text text-anchor="middle" x="1869.5" y="-272" font-family="Helvetica,sans-Serif" font-size="10.00" fill="#000000">chi::graphFunctionToJson</text>
</a>
</g>
</g>
<!-- Node312&#45;&gt;Node313 -->
<g id="edge20" class="edge">
<title>Node312&#45;&gt;Node313</title>
<path fill="none" stroke="#191970" d="M1588.6706,-279.4485C1649.1773,-278.3823 1742.527,-276.7374 1804.7848,-275.6404"/>
<polygon fill="#191970" stroke="#191970" points="1588.4484,-275.9518 1578.5116,-279.6275 1588.5718,-282.9507 1588.4484,-275.9518"/>
</g>
<!-- Node313&#45;&gt;Node300 -->
<g id="edge21" class="edge">
<title>Node313&#45;&gt;Node300</title>
<path fill="none" stroke="#191970" d="M1944.3652,-277.9529C1993.8118,-280.7915 2059.9554,-285.6524 2118,-293.5 2135.9445,-295.9261 2155.5712,-299.5584 2172.4813,-302.9992"/>
<polygon fill="#191970" stroke="#191970" points="1944.256,-274.4415 1934.0762,-277.3776 1943.8651,-281.4305 1944.256,-274.4415"/>
</g>
<!-- Node314&#45;&gt;Node312 -->
<g id="edge23" class="edge">
<title>Node314&#45;&gt;Node312</title>
<path fill="none" stroke="#191970" d="M1408.6245,-312.4696C1431.8334,-306.3058 1457.6686,-299.4444 1479.4361,-293.6633"/>
<polygon fill="#191970" stroke="#191970" points="1407.6247,-309.1138 1398.8582,-315.0634 1409.4216,-315.8792 1407.6247,-309.1138"/>
</g>
<!-- Node316 -->
<g id="node22" class="node">
<title>Node316</title>
<g id="a_node22"><a xlink:href="structchi_1_1GraphStruct.html#a82a1da52a4bf23e1e7fef4d7228603b1" target="_top" xlink:title="Get the module. ">
<polygon fill="#ffffff" stroke="#000000" points="1466.5,-402 1466.5,-421 1591.5,-421 1591.5,-402 1466.5,-402"/>
<text text-anchor="middle" x="1529" y="-409" font-family="Helvetica,sans-Serif" font-size="10.00" fill="#000000">chi::GraphStruct::module</text>
</a>
</g>
</g>
<!-- Node315&#45;&gt;Node316 -->
<g id="edge25" class="edge">
<title>Node315&#45;&gt;Node316</title>
<path fill="none" stroke="#191970" d="M1421.3992,-404.8338C1436.4216,-404.6684 1452.0028,-404.7478 1466.4885,-405.0719"/>
<polygon fill="#191970" stroke="#191970" points="1421.0554,-401.3384 1411.1087,-404.9873 1421.1599,-408.3376 1421.0554,-401.3384"/>
</g>
<!-- Node316&#45;&gt;Node315 -->
<g id="edge27" class="edge">
<title>Node316&#45;&gt;Node315</title>
<path fill="none" stroke="#191970" d="M1456.3052,-418.1134C1441.402,-418.3245 1425.7851,-418.2909 1411.1087,-418.0127"/>
<polygon fill="#191970" stroke="#191970" points="1456.5538,-421.6095 1466.4885,-417.9281 1456.4264,-414.6107 1456.5538,-421.6095"/>
</g>
<!-- Node317 -->
<g id="node23" class="node">
<title>Node317</title>
<g id="a_node23"><a xlink:href="structchi_1_1GraphModule.html#ac7147fb4875838de42b33a72834f3203" target="_top" xlink:title="Remove a struct from the module by pointer. ">
<polygon fill="#ffffff" stroke="#000000" points="1636.5,-379.5 1636.5,-409.5 1767.5,-409.5 1767.5,-379.5 1636.5,-379.5"/>
<text text-anchor="start" x="1644.5" y="-397.5" font-family="Helvetica,sans-Serif" font-size="10.00" fill="#000000">chi::GraphModule::remove</text>
<text text-anchor="middle" x="1702" y="-386.5" font-family="Helvetica,sans-Serif" font-size="10.00" fill="#000000">Struct</text>
</a>
</g>
</g>
<!-- Node316&#45;&gt;Node317 -->
<g id="edge26" class="edge">
<title>Node316&#45;&gt;Node317</title>
<path fill="none" stroke="#191970" d="M1601.9222,-404.3342C1613.3937,-403.207 1625.1918,-402.0476 1636.4824,-400.9381"/>
<polygon fill="#191970" stroke="#191970" points="1601.5561,-400.8533 1591.9464,-405.3145 1602.2407,-407.8197 1601.5561,-400.8533"/>
</g>
<!-- Node318 -->
<g id="node24" class="node">
<title>Node318</title>
<g id="a_node24"><a xlink:href="structchi_1_1GraphStruct.html#aba05cdce9627a23da0449801e068d85d" target="_top" xlink:title="Add a new type to the struct. ">
<polygon fill="#ffffff" stroke="#000000" points="1978.5,-303 1978.5,-322 2109.5,-322 2109.5,-303 1978.5,-303"/>
<text text-anchor="middle" x="2044" y="-310" font-family="Helvetica,sans-Serif" font-size="10.00" fill="#000000">chi::GraphStruct::addType</text>
</a>
</g>
</g>
<!-- Node316&#45;&gt;Node318 -->
<g id="edge28" class="edge">
<title>Node316&#45;&gt;Node318</title>
<path fill="none" stroke="#191970" d="M1544.7932,-394.5602C1563.9968,-375.2671 1598.4055,-344.7117 1635,-331.5 1750.1657,-289.9217 1895.5188,-295.6936 1978.2972,-303.9201"/>
<polygon fill="#191970" stroke="#191970" points="1542.2039,-392.2027 1537.7557,-401.8185 1547.2295,-397.0754 1542.2039,-392.2027"/>
</g>
<!-- Node320 -->
<g id="node26" class="node">
<title>Node320</title>
<g id="a_node26"><a xlink:href="structchi_1_1GraphStruct.html#a89d3ea5e72ed6e7d8380fb82fa5eb521" target="_top" xlink:title="Change the type and name of a type. ">
<polygon fill="#ffffff" stroke="#000000" points="1971.5,-417 1971.5,-436 2116.5,-436 2116.5,-417 1971.5,-417"/>
<text text-anchor="middle" x="2044" y="-424" font-family="Helvetica,sans-Serif" font-size="10.00" fill="#000000">chi::GraphStruct::modifyType</text>
</a>
</g>
</g>
<!-- Node316&#45;&gt;Node320 -->
<g id="edge39" class="edge">
<title>Node316&#45;&gt;Node320</title>
<path fill="none" stroke="#191970" d="M1556.7591,-425.5011C1577.6717,-435.2314 1607.3715,-447.3429 1635,-452.5 1765.6327,-476.8836 1802.005,-467.8874 1934,-452.5 1960.7033,-449.387 1990.3288,-442.1597 2012.1013,-436.1132"/>
<polygon fill="#191970" stroke="#191970" points="1558.06,-422.2438 1547.5277,-421.0944 1555.0444,-428.5609 1558.06,-422.2438"/>
</g>
<!-- Node321 -->
<g id="node27" class="node">
<title>Node321</title>
<g id="a_node27"><a xlink:href="structchi_1_1GraphStruct.html#a759b0b44c984d7aaa6c2fb32e035264b" target="_top" xlink:title="Remove a type from a struct. ">
<polygon fill="#ffffff" stroke="#000000" points="1970,-379 1970,-398 2118,-398 2118,-379 1970,-379"/>
<text text-anchor="middle" x="2044" y="-386" font-family="Helvetica,sans-Serif" font-size="10.00" fill="#000000">chi::GraphStruct::removeType</text>
</a>
</g>
</g>
<!-- Node316&#45;&gt;Node321 -->
<g id="edge40" class="edge">
<title>Node316&#45;&gt;Node321</title>
<path fill="none" stroke="#191970" d="M1601.8391,-417.7237C1612.94,-418.4618 1624.269,-419.0956 1635,-419.5 1694.5133,-421.7426 1709.5382,-422.8409 1769,-419.5 1840.8348,-415.4639 1922.7278,-405.5422 1978.3313,-398.0016"/>
<polygon fill="#191970" stroke="#191970" points="1601.9513,-414.2231 1591.7323,-417.0201 1601.4651,-421.2062 1601.9513,-414.2231"/>
</g>
<!-- Node316&#45;&gt;Node322 -->
<g id="edge41" class="edge">
<title>Node316&#45;&gt;Node322</title>
<path fill="none" stroke="#191970" d="M1568.8944,-398.6765C1578.8102,-395.2556 1589.3584,-391.4153 1599,-387.5 1615.3941,-380.8427 1618.4754,-376.8264 1635,-370.5 1644.9763,-366.6806 1656.0109,-363.1237 1666.1973,-360.1003"/>
<polygon fill="#191970" stroke="#191970" points="1567.5947,-395.4213 1559.2464,-401.9448 1569.8407,-402.0513 1567.5947,-395.4213"/>
</g>
<!-- Node319 -->
<g id="node25" class="node">
<title>Node319</title>
<g id="a_node25"><a xlink:href="structchi_1_1GraphStruct.html#ae1895cfaebac03e21d35ec2a155b3c10" target="_top" xlink:title="Get the types the struct contains. ">
<polygon fill="#ffffff" stroke="#000000" points="1810.5,-341 1810.5,-360 1928.5,-360 1928.5,-341 1810.5,-341"/>
<text text-anchor="middle" x="1869.5" y="-348" font-family="Helvetica,sans-Serif" font-size="10.00" fill="#000000">chi::GraphStruct::types</text>
</a>
</g>
</g>
<!-- Node318&#45;&gt;Node319 -->
<g id="edge29" class="edge">
<title>Node318&#45;&gt;Node319</title>
<path fill="none" stroke="#191970" d="M2011.9886,-324.8354C1988.6965,-331.2773 1956.4836,-338.6464 1928.5777,-344.0619"/>
<polygon fill="#191970" stroke="#191970" points="2013.055,-328.1706 2021.7,-322.0458 2011.1224,-321.4427 2013.055,-328.1706"/>
</g>
<!-- Node319&#45;&gt;Node318 -->
<g id="edge30" class="edge">
<title>Node319&#45;&gt;Node318</title>
<path fill="none" stroke="#191970" d="M1901.8488,-338.0714C1923.3152,-332.148 1952.2497,-325.4546 1978.4107,-320.2214"/>
<polygon fill="#191970" stroke="#191970" points="1900.6038,-334.7873 1891.9556,-340.9076 1902.5329,-341.5162 1900.6038,-334.7873"/>
</g>
<!-- Node319&#45;&gt;Node320 -->
<g id="edge31" class="edge">
<title>Node319&#45;&gt;Node320</title>
<path fill="none" stroke="#191970" d="M1903.8224,-364.997C1922.7329,-375.5813 1946.9815,-389.2092 1970,-398.5 1989.5567,-406.3936 2013.3664,-411.8112 2028.6019,-416.9399"/>
<polygon fill="#191970" stroke="#191970" points="1905.4355,-361.8892 1894.9966,-360.0779 1902.0276,-368.0036 1905.4355,-361.8892"/>
</g>
<!-- Node319&#45;&gt;Node321 -->
<g id="edge33" class="edge">
<title>Node319&#45;&gt;Node321</title>
<path fill="none" stroke="#191970" d="M1938.4932,-358.9074C1968.1254,-364.9224 2000.6988,-372.6582 2021.7,-378.9542"/>
<polygon fill="#191970" stroke="#191970" points="1939.068,-355.4533 1928.5777,-356.9381 1937.7043,-362.3192 1939.068,-355.4533"/>
</g>
<!-- Node319&#45;&gt;Node322 -->
<g id="edge35" class="edge">
<title>Node319&#45;&gt;Node322</title>
<path fill="none" stroke="#191970" d="M1800.2691,-357.159C1789.9865,-357.2891 1779.4027,-357.2797 1769.1635,-357.1309"/>
<polygon fill="#191970" stroke="#191970" points="1800.4897,-360.6558 1810.4274,-356.9825 1800.368,-353.6569 1800.4897,-360.6558"/>
</g>
<!-- Node323 -->
<g id="node29" class="node">
<title>Node323</title>
<g id="a_node29"><a xlink:href="namespacechi.html#af74872167b12e4ad8a387faab1f03fbb" target="_top" xlink:title="Serialize a GraphStruct to json. ">
<polygon fill="#ffffff" stroke="#000000" points="1985,-341 1985,-360 2103,-360 2103,-341 1985,-341"/>
<text text-anchor="middle" x="2044" y="-348" font-family="Helvetica,sans-Serif" font-size="10.00" fill="#000000">chi::graphStructToJson</text>
</a>
</g>
</g>
<!-- Node319&#45;&gt;Node323 -->
<g id="edge37" class="edge">
<title>Node319&#45;&gt;Node323</title>
<path fill="none" stroke="#191970" d="M1938.9802,-350.5C1954.215,-350.5 1970.2047,-350.5 1984.9831,-350.5"/>
<polygon fill="#191970" stroke="#191970" points="1938.5778,-347.0001 1928.5777,-350.5 1938.5777,-354.0001 1938.5778,-347.0001"/>
</g>
<!-- Node320&#45;&gt;Node319 -->
<g id="edge32" class="edge">
<title>Node320&#45;&gt;Node319</title>
<path fill="none" stroke="#191970" d="M1961.9432,-413.0457C1926.3328,-397.2381 1891.0795,-373.9021 1876.4828,-360.0422"/>
<polygon fill="#191970" stroke="#191970" points="1960.9109,-416.4096 1971.4838,-417.091 1963.6435,-409.965 1960.9109,-416.4096"/>
</g>
<!-- Node321&#45;&gt;Node319 -->
<g id="edge34" class="edge">
<title>Node321&#45;&gt;Node319</title>
<path fill="none" stroke="#191970" d="M1959.9051,-376.9331C1934.8399,-371.5372 1909.4271,-365.3219 1891.9556,-360.0924"/>
<polygon fill="#191970" stroke="#191970" points="1959.3414,-380.3913 1969.849,-379.0344 1960.7887,-373.5425 1959.3414,-380.3913"/>
</g>
<!-- Node322&#45;&gt;Node319 -->
<g id="edge36" class="edge">
<title>Node322&#45;&gt;Node319</title>
<path fill="none" stroke="#191970" d="M1779.1688,-343.7686C1789.6715,-343.7092 1800.3131,-343.7922 1810.4274,-344.0175"/>
<polygon fill="#191970" stroke="#191970" points="1779.1278,-340.2687 1769.1635,-343.8691 1779.1982,-347.2683 1779.1278,-340.2687"/>
</g>
<!-- Node323&#45;&gt;Node300 -->
<g id="edge38" class="edge">
<title>Node323&#45;&gt;Node300</title>
<path fill="none" stroke="#191970" d="M2097.0412,-338.7474C2121.2913,-333.3742 2149.6467,-327.0914 2172.5345,-322.0201"/>
<polygon fill="#191970" stroke="#191970" points="2096.2827,-335.3305 2087.2767,-340.911 2097.7971,-342.1648 2096.2827,-335.3305"/>
</g>
<!-- Node325&#45;&gt;Node304 -->
<g id="edge47" class="edge">
<title>Node325&#45;&gt;Node304</title>
<path fill="none" stroke="#191970" d="M465.2213,-491.5661C484.7758,-494.1459 505.9339,-496.9372 524.9959,-499.452"/>
<polygon fill="#191970" stroke="#191970" points="465.5331,-488.077 455.1612,-490.2389 464.6175,-495.0169 465.5331,-488.077"/>
</g>
<!-- Node328 -->
<g id="node34" class="node">
<title>Node328</title>
<g id="a_node34"><a xlink:href="classchi_1_1Debugger.html#a50f4de4ab6a18afa2eb82f5a5f43b06a" target="_top" xlink:title="Check if the process is executing. ">
<polygon fill="#ffffff" stroke="#000000" points="721,-107 721,-126 835,-126 835,-107 721,-107"/>
<text text-anchor="middle" x="778" y="-114" font-family="Helvetica,sans-Serif" font-size="10.00" fill="#000000">chi::Debugger::running</text>
</a>
</g>
</g>
<!-- Node327&#45;&gt;Node328 -->
<g id="edge50" class="edge">
<title>Node327&#45;&gt;Node328</title>
<path fill="none" stroke="#191970" d="M483.7662,-131.1538C556.4924,-127.5318 657.9999,-122.4764 720.7824,-119.3496"/>
<polygon fill="#191970" stroke="#191970" points="483.5157,-127.6619 473.7022,-131.6551 483.864,-134.6532 483.5157,-127.6619"/>
</g>
<!-- Node329 -->
<g id="node35" class="node">
<title>Node329</title>
<g id="a_node35"><a xlink:href="classchi_1_1Debugger.html#a7b4b8117f767d7fc591ff1f54516c681" target="_top" xlink:title="Get the output of a node. ">
<polygon fill="#ffffff" stroke="#000000" points="517.5,-57.5 517.5,-87.5 654.5,-87.5 654.5,-57.5 517.5,-57.5"/>
<text text-anchor="start" x="525.5" y="-75.5" font-family="Helvetica,sans-Serif" font-size="10.00" fill="#000000">chi::Debugger::inspectNode</text>
<text text-anchor="middle" x="586" y="-64.5" font-family="Helvetica,sans-Serif" font-size="10.00" fill="#000000">Output</text>
</a>
</g>
</g>
<!-- Node327&#45;&gt;Node329 -->
<g id="edge51" class="edge">
<title>Node327&#45;&gt;Node329</title>
<path fill="none" stroke="#191970" d="M439.7817,-123.0623C451.869,-119.4624 464.9821,-115.4383 477,-111.5 499.8234,-104.0207 525.09,-95.0259 545.5457,-87.5603"/>
<polygon fill="#191970" stroke="#191970" points="438.5157,-119.7866 429.9162,-125.9752 440.498,-126.5001 438.5157,-119.7866"/>
</g>
<!-- Node329&#45;&gt;Node328 -->
<g id="edge52" class="edge">
<title>Node329&#45;&gt;Node328</title>
<path fill="none" stroke="#191970" d="M661.5727,-89.8187C687.0826,-95.6648 714.6104,-101.9732 736.4913,-106.9876"/>
<polygon fill="#191970" stroke="#191970" points="662.0677,-86.3415 651.5385,-87.5192 660.504,-93.1646 662.0677,-86.3415"/>
</g>
<!-- Node331&#45;&gt;Node301 -->
<g id="edge60" class="edge">
<title>Node331&#45;&gt;Node301</title>
<path fill="none" stroke="#191970" d="M470.5976,-209.7624C547.3973,-202.42 670.9643,-192.5 778,-192.5 778,-192.5 778,-192.5 2044,-192.5 2177.9506,-192.5 2325.7107,-274.4072 2373.0329,-302.8827"/>
<polygon fill="#191970" stroke="#191970" points="470.1585,-206.2884 460.5418,-210.7346 470.8322,-213.2559 470.1585,-206.2884"/>
</g>
<!-- Node332 -->
<g id="node38" class="node">
<title>Node332</title>
<g id="a_node38"><a xlink:href="structchi_1_1GraphModule.html#a10cfac308c6e0f1fa38be5513b2380cc" target="_top" xlink:title="Get the path to the .c directory. It is not garunteed to exist, even if cEnabled() is true...">
<polygon fill="#ffffff" stroke="#000000" points="521.5,-221.5 521.5,-251.5 650.5,-251.5 650.5,-221.5 521.5,-221.5"/>
<text text-anchor="start" x="529.5" y="-239.5" font-family="Helvetica,sans-Serif" font-size="10.00" fill="#000000">chi::GraphModule::pathTo</text>
<text text-anchor="middle" x="586" y="-228.5" font-family="Helvetica,sans-Serif" font-size="10.00" fill="#000000">CSources</text>
</a>
</g>
</g>
<!-- Node331&#45;&gt;Node332 -->
<g id="edge57" class="edge">
<title>Node331&#45;&gt;Node332</title>
<path fill="none" stroke="#191970" d="M470.8852,-224.9582C487.5279,-226.6268 505.0505,-228.3837 521.2652,-230.0094"/>
<polygon fill="#191970" stroke="#191970" points="470.9554,-221.4477 460.6561,-223.9325 470.257,-228.4128 470.9554,-221.4477"/>
</g>
<!-- Node333 -->
<g id="node39" class="node">
<title>Node333</title>
<g id="a_node39"><a xlink:href="classchi_1_1Debugger.html#a91a4d103d38bb2b1132ec7f83f4d77e2" target="_top" xlink:title="Set a breakpoint on a given node. ">
<polygon fill="#ffffff" stroke="#000000" points="514.5,-145 514.5,-164 657.5,-164 657.5,-145 514.5,-145"/>
<text text-anchor="middle" x="586" y="-152" font-family="Helvetica,sans-Serif" font-size="10.00" fill="#000000">chi::Debugger::setBreakpoint</text>
</a>
</g>
</g>
<!-- Node331&#45;&gt;Node333 -->
<g id="edge61" class="edge">
<title>Node331&#45;&gt;Node333</title>
<path fill="none" stroke="#191970" d="M450.9537,-199.2032C470.5113,-192.6496 492.7379,-185.2222 513,-178.5 527.435,-173.711 543.49,-168.4279 556.8596,-164.0405"/>
<polygon fill="#191970" stroke="#191970" points="449.6607,-195.9452 441.2919,-202.4424 451.8858,-202.5821 449.6607,-195.9452"/>
</g>
<!-- Node332&#45;&gt;Node307 -->
<g id="edge59" class="edge">
<title>Node332&#45;&gt;Node307</title>
<path fill="none" stroke="#191970" d="M628.5245,-255.9904C663.685,-272.1056 712.8994,-294.6622 745.104,-309.4227"/>
<polygon fill="#191970" stroke="#191970" points="629.5549,-252.6126 619.006,-251.6277 626.6383,-258.9761 629.5549,-252.6126"/>
</g>
<!-- Node332&#45;&gt;Node309 -->
<g id="edge58" class="edge">
<title>Node332&#45;&gt;Node309</title>
<path fill="none" stroke="#191970" d="M660.648,-236.5C771.0147,-236.5 976.1504,-236.5 1082.9195,-236.5"/>
<polygon fill="#191970" stroke="#191970" points="660.5946,-233.0001 650.5945,-236.5 660.5945,-240.0001 660.5946,-233.0001"/>
</g>
<!-- Node333&#45;&gt;Node328 -->
<g id="edge62" class="edge">
<title>Node333&#45;&gt;Node328</title>
<path fill="none" stroke="#191970" d="M644.298,-142.9619C671.6826,-137.542 703.9334,-131.159 729.8987,-126.0201"/>
<polygon fill="#191970" stroke="#191970" points="643.5799,-139.536 634.4497,-144.911 644.939,-146.4028 643.5799,-139.536"/>
</g>
<!-- Node335&#45;&gt;Node326 -->
<g id="edge65" class="edge">
<title>Node335&#45;&gt;Node326</title>
<path fill="none" stroke="#191970" d="M464.6062,-48.3586C485.2387,-44.9834 507.7059,-41.308 527.6394,-38.0471"/>
<polygon fill="#191970" stroke="#191970" points="463.9478,-44.9197 454.6441,-49.9883 465.078,-51.8279 463.9478,-44.9197"/>
</g>
</g>
</svg>
