<?xml version="1.0" encoding="UTF-8" standalone="no"?>
<!DOCTYPE svg PUBLIC "-//W3C//DTD SVG 1.1//EN"
 "http://www.w3.org/Graphics/SVG/1.1/DTD/svg11.dtd">
<!-- Generated by graphviz version 2.40.1 (20161225.0304)
 -->
<!-- Title: chi::Subprocess::setArguments Pages: 1 -->
<!--zoomable 238 -->
<svg id="main" version="1.1" xmlns="http://www.w3.org/2000/svg" xmlns:xlink="http://www.w3.org/1999/xlink" xml:space="preserve" onload="init(evt)">
<style type="text/css"><![CDATA[
.edge:hover path { stroke: red; }
.edge:hover polygon { stroke: red; fill: red; }
]]></style>
<script type="text/javascript"><![CDATA[
var edges = document.getElementsByTagName('g');
if (edges && edges.length) {
  for (var i=0;i<edges.length;i++) {
    if (edges[i].id.substr(0,4)=='edge') {
      edges[i].setAttribute('class','edge');
    }
  }
}
]]></script>
        <defs>
                <circle id="rim" cx="0" cy="0" r="7"/>
                <circle id="rim2" cx="0" cy="0" r="3.5"/>
                <g id="zoomPlus">
                        <use xlink:href="#rim" fill="#404040">
                                <set attributeName="fill" to="#808080" begin="zoomplus.mouseover" end="zoomplus.mouseout"/>
                        </use>
                        <path d="M-4,0h8M0,-4v8" fill="none" stroke="white" stroke-width="1.5" pointer-events="none"/>
                </g>
                <g id="zoomMin">
                        <use xlink:href="#rim" fill="#404040">
                                <set attributeName="fill" to="#808080" begin="zoomminus.mouseover" end="zoomminus.mouseout"/>
                        </use>
                        <path d="M-4,0h8" fill="none" stroke="white" stroke-width="1.5" pointer-events="none"/>
                </g>
                <g id="dirArrow">
                        <path fill="none" stroke="white" stroke-width="1.5" d="M0,-3.0v7 M-2.5,-0.5L0,-3.0L2.5,-0.5"/>
                </g>
               <g id="resetDef">
                       <use xlink:href="#rim2" fill="#404040">
                               <set attributeName="fill" to="#808080" begin="reset.mouseover" end="reset.mouseout"/>
                       </use>
               </g>
        </defs>

<script type="text/javascript">
var viewWidth = 1023;
var viewHeight = 238;
var sectionId = 'dynsection-20';
</script>
<script xlink:href="svgpan.js"/>
<svg id="graph" class="graph">
<g id="viewport">
<title>chi::Subprocess::setArguments</title>
<polygon fill="#ffffff" stroke="transparent" points="-4,4 -4,-234 1019,-234 1019,4 -4,4"/>
<!-- Node231 -->
<g id="node1" class="node">
<title>Node231</title>
<polygon fill="#bfbfbf" stroke="#000000" points="0,-133.5 0,-152.5 154,-152.5 154,-133.5 0,-133.5"/>
<text text-anchor="middle" x="77" y="-140.5" font-family="Helvetica,sans-Serif" font-size="10.00" fill="#000000">chi::Subprocess::setArguments</text>
</g>
<!-- Node232 -->
<g id="node2" class="node">
<title>Node232</title>
<g id="a_node2"><a xlink:href="structchi_1_1Subprocess.html#a38101f1406d62b1dc386072f576b990f" target="_top" xlink:title="Set the arguments for the program with a begin and end iterator. ">
<polygon fill="#ffffff" stroke="#000000" points="190,-133.5 190,-152.5 344,-152.5 344,-133.5 190,-133.5"/>
<text text-anchor="middle" x="267" y="-140.5" font-family="Helvetica,sans-Serif" font-size="10.00" fill="#000000">chi::Subprocess::setArguments</text>
</a>
</g>
</g>
<!-- Node231&#45;&gt;Node232 -->
<g id="edge1" class="edge">
<title>Node231&#45;&gt;Node232</title>
<path fill="none" stroke="#191970" d="M154.0064,-143C162.5089,-143 171.211,-143 179.8267,-143"/>
<polygon fill="#191970" stroke="#191970" points="179.884,-146.5001 189.884,-143 179.8839,-139.5001 179.884,-146.5001"/>
</g>
<!-- Node233 -->
<g id="node3" class="node">
<title>Node233</title>
<g id="a_node3"><a xlink:href="structchi_1_1Subprocess.html#a9b2f4ecd9a0239232deaf3ff46c48bf0" target="_top" xlink:title="Check if the child has started (start() has been called) ">
<polygon fill="#ffffff" stroke="#000000" points="380,-133.5 380,-152.5 503,-152.5 503,-133.5 380,-133.5"/>
<text text-anchor="middle" x="441.5" y="-140.5" font-family="Helvetica,sans-Serif" font-size="10.00" fill="#000000">chi::Subprocess::started</text>
</a>
</g>
</g>
<!-- Node232&#45;&gt;Node233 -->
<g id="edge2" class="edge">
<title>Node232&#45;&gt;Node233</title>
<path fill="none" stroke="#191970" d="M344.0462,-143C352.5493,-143 361.1835,-143 369.6198,-143"/>
<polygon fill="#191970" stroke="#191970" points="369.7899,-146.5001 379.7898,-143 369.7898,-139.5001 369.7899,-146.5001"/>
</g>
<!-- Node234 -->
<g id="node4" class="node">
<title>Node234</title>
<g id="a_node4"><a xlink:href="structchi_1_1Subprocess.html#a62114d525126e682028af5a906f771a6" target="_top" xlink:title="Pushes data to the stdin stream of the child process. ">
<polygon fill="#ffffff" stroke="#000000" points="539,-133.5 539,-152.5 688,-152.5 688,-133.5 539,-133.5"/>
<text text-anchor="middle" x="613.5" y="-140.5" font-family="Helvetica,sans-Serif" font-size="10.00" fill="#000000">chi::Subprocess::pushToStdIn</text>
</a>
</g>
</g>
<!-- Node233&#45;&gt;Node234 -->
<g id="edge3" class="edge">
<title>Node233&#45;&gt;Node234</title>
<path fill="none" stroke="#191970" d="M503.1101,-136.4973C511.4241,-136.3244 520.0696,-136.2422 528.699,-136.2506"/>
<polygon fill="#191970" stroke="#191970" points="528.7831,-139.751 538.8009,-136.3021 528.8189,-132.7511 528.7831,-139.751"/>
</g>
<!-- Node242 -->
<g id="node12" class="node">
<title>Node242</title>
<g id="a_node12"><a xlink:href="structchi_1_1Subprocess.html#a45fd483d620609100cdd6065ce4751f2" target="_top" xlink:title="Close the STDIN stream (send an EOF) ">
<polygon fill="#ffffff" stroke="#000000" points="543.5,-95.5 543.5,-114.5 683.5,-114.5 683.5,-95.5 543.5,-95.5"/>
<text text-anchor="middle" x="613.5" y="-102.5" font-family="Helvetica,sans-Serif" font-size="10.00" fill="#000000">chi::Subprocess::closeStdIn</text>
</a>
</g>
</g>
<!-- Node233&#45;&gt;Node242 -->
<g id="edge16" class="edge">
<title>Node233&#45;&gt;Node242</title>
<path fill="none" stroke="#191970" d="M484.9029,-133.411C507.9068,-128.3287 536.3509,-122.0446 560.6342,-116.6797"/>
<polygon fill="#191970" stroke="#191970" points="561.3998,-120.095 570.4092,-114.5201 559.8896,-113.2598 561.3998,-120.095"/>
</g>
<!-- Node234&#45;&gt;Node233 -->
<g id="edge15" class="edge">
<title>Node234&#45;&gt;Node233</title>
<path fill="none" stroke="#191970" d="M538.8009,-149.6979C530.3304,-149.7764 521.7111,-149.7662 513.2794,-149.6673"/>
<polygon fill="#191970" stroke="#191970" points="513.1655,-146.1651 503.1101,-149.5027 513.0521,-153.1642 513.1655,-146.1651"/>
</g>
<!-- Node235 -->
<g id="node5" class="node">
<title>Node235</title>
<g id="a_node5"><a xlink:href="structchi_1_1Result.html#a59ef40f4a327cbdea263d6e4b5af2ad8" target="_top" xlink:title="Add a entry to the result, either a warning or an error. ">
<polygon fill="#ffffff" stroke="#000000" points="732,-95.5 732,-114.5 840,-114.5 840,-95.5 732,-95.5"/>
<text text-anchor="middle" x="786" y="-102.5" font-family="Helvetica,sans-Serif" font-size="10.00" fill="#000000">chi::Result::addEntry</text>
</a>
</g>
</g>
<!-- Node234&#45;&gt;Node235 -->
<g id="edge4" class="edge">
<title>Node234&#45;&gt;Node235</title>
<path fill="none" stroke="#191970" d="M657.029,-133.411C680.0999,-128.3287 708.6266,-122.0446 732.9805,-116.6797"/>
<polygon fill="#191970" stroke="#191970" points="733.7711,-120.0895 742.784,-114.5201 732.2651,-113.2534 733.7711,-120.0895"/>
</g>
<!-- Node237 -->
<g id="node7" class="node">
<title>Node237</title>
<g id="a_node7"><a xlink:href="structchi_1_1Subprocess.html#a9497b25fd496cd7a0ad464dfeb6e242d" target="_top" xlink:title="Checks if the stdin is closed. ">
<polygon fill="#ffffff" stroke="#000000" points="724,-134 724,-164 848,-164 848,-134 724,-134"/>
<text text-anchor="start" x="732" y="-152" font-family="Helvetica,sans-Serif" font-size="10.00" fill="#000000">chi::Subprocess::isStdIn</text>
<text text-anchor="middle" x="786" y="-141" font-family="Helvetica,sans-Serif" font-size="10.00" fill="#000000">Closed</text>
</a>
</g>
</g>
<!-- Node234&#45;&gt;Node237 -->
<g id="edge6" class="edge">
<title>Node234&#45;&gt;Node237</title>
<path fill="none" stroke="#191970" d="M688.1577,-145.5968C696.6379,-145.8918 705.2704,-146.192 713.7192,-146.4859"/>
<polygon fill="#191970" stroke="#191970" points="713.7954,-149.9906 723.9111,-146.8404 714.0388,-142.9948 713.7954,-149.9906"/>
</g>
<!-- Node236 -->
<g id="node6" class="node">
<title>Node236</title>
<g id="a_node6"><a xlink:href="structchi_1_1Result.html#aa078d3cb3dfb2fb63e81b71acea036e0" target="_top" xlink:title="Get the JSON associated with the context that&#39;s been added. ">
<polygon fill="#ffffff" stroke="#000000" points="888.5,-95.5 888.5,-114.5 1010.5,-114.5 1010.5,-95.5 888.5,-95.5"/>
<text text-anchor="middle" x="949.5" y="-102.5" font-family="Helvetica,sans-Serif" font-size="10.00" fill="#000000">chi::Result::contextJson</text>
</a>
</g>
</g>
<!-- Node235&#45;&gt;Node236 -->
<g id="edge5" class="edge">
<title>Node235&#45;&gt;Node236</title>
<path fill="none" stroke="#191970" d="M840.4431,-105C852.5376,-105 865.533,-105 878.1891,-105"/>
<polygon fill="#191970" stroke="#191970" points="878.2426,-108.5001 888.2425,-105 878.2425,-101.5001 878.2426,-108.5001"/>
</g>
<!-- Node238 -->
<g id="node8" class="node">
<title>Node238</title>
<g id="a_node8"><a xlink:href="structchi_1_1Subprocess.html#a2f57bcbe46b93798d8ca769dc7aab4c9" target="_top" xlink:title="Wait and gets the exit code. ">
<polygon fill="#ffffff" stroke="#000000" points="884,-210.5 884,-229.5 1015,-229.5 1015,-210.5 884,-210.5"/>
<text text-anchor="middle" x="949.5" y="-217.5" font-family="Helvetica,sans-Serif" font-size="10.00" fill="#000000">chi::Subprocess::exitCode</text>
</a>
</g>
</g>
<!-- Node237&#45;&gt;Node238 -->
<g id="edge7" class="edge">
<title>Node237&#45;&gt;Node238</title>
<path fill="none" stroke="#191970" d="M820.6741,-164.0573C849.5191,-176.5832 890.2258,-194.2601 918.1167,-206.3718"/>
<polygon fill="#191970" stroke="#191970" points="916.8406,-209.6333 927.4072,-210.4062 919.6288,-203.2126 916.8406,-209.6333"/>
</g>
<!-- Node239 -->
<g id="node9" class="node">
<title>Node239</title>
<g id="a_node9"><a xlink:href="structchi_1_1Subprocess.html#aaaf29ada876d6088621cc0d8c84c7e47" target="_top" xlink:title="Kill the child process On POSIX, this sends SIGINT. ">
<polygon fill="#ffffff" stroke="#000000" points="897,-150.5 897,-169.5 1002,-169.5 1002,-150.5 897,-150.5"/>
<text text-anchor="middle" x="949.5" y="-157.5" font-family="Helvetica,sans-Serif" font-size="10.00" fill="#000000">chi::Subprocess::kill</text>
</a>
</g>
</g>
<!-- Node237&#45;&gt;Node239 -->
<g id="edge9" class="edge">
<title>Node237&#45;&gt;Node239</title>
<path fill="none" stroke="#191970" d="M848.2788,-153.19C860.9538,-154.0428 874.292,-154.9401 886.9756,-155.7935"/>
<polygon fill="#191970" stroke="#191970" points="886.7696,-159.2874 896.9821,-156.4667 887.2396,-152.3032 886.7696,-159.2874"/>
</g>
<!-- Node240 -->
<g id="node10" class="node">
<title>Node240</title>
<g id="a_node10"><a xlink:href="structchi_1_1Subprocess.html#ae9bc9855657b24db334384661644a80b" target="_top" xlink:title="Check if the process is still running. ">
<polygon fill="#ffffff" stroke="#000000" points="887,-57.5 887,-76.5 1012,-76.5 1012,-57.5 887,-57.5"/>
<text text-anchor="middle" x="949.5" y="-64.5" font-family="Helvetica,sans-Serif" font-size="10.00" fill="#000000">chi::Subprocess::running</text>
</a>
</g>
</g>
<!-- Node237&#45;&gt;Node240 -->
<g id="edge11" class="edge">
<title>Node237&#45;&gt;Node240</title>
<path fill="none" stroke="#191970" d="M830.2354,-133.9164C836.4253,-131.0284 842.532,-127.7236 848,-124 867.2292,-110.9052 864.1346,-98.1079 884,-86 887.428,-83.9106 891.097,-82.0414 894.883,-80.3707"/>
<polygon fill="#191970" stroke="#191970" points="896.4318,-83.5229 904.4642,-76.6142 893.8766,-77.0059 896.4318,-83.5229"/>
</g>
<!-- Node241 -->
<g id="node11" class="node">
<title>Node241</title>
<g id="a_node11"><a xlink:href="structchi_1_1Subprocess.html#aeea9178c987445e45d97e4d4210a983c" target="_top" xlink:title="Wait for the process to complete. ">
<polygon fill="#ffffff" stroke="#000000" points="894.5,-.5 894.5,-19.5 1004.5,-19.5 1004.5,-.5 894.5,-.5"/>
<text text-anchor="middle" x="949.5" y="-7.5" font-family="Helvetica,sans-Serif" font-size="10.00" fill="#000000">chi::Subprocess::wait</text>
</a>
</g>
</g>
<!-- Node237&#45;&gt;Node241 -->
<g id="edge13" class="edge">
<title>Node237&#45;&gt;Node241</title>
<path fill="none" stroke="#191970" d="M834.2498,-133.8747C839.2328,-131.0882 843.9461,-127.8211 848,-124 875.1978,-98.3637 858.6951,-75.5064 884,-48 892.9704,-38.2492 905.0292,-30.2864 916.3545,-24.2151"/>
<polygon fill="#191970" stroke="#191970" points="918.2483,-27.1805 925.6113,-19.5623 915.1046,-20.9261 918.2483,-27.1805"/>
</g>
<!-- Node238&#45;&gt;Node233 -->
<g id="edge8" class="edge">
<title>Node238&#45;&gt;Node233</title>
<path fill="none" stroke="#191970" d="M883.8168,-220.0867C801.9298,-218.8314 658.2132,-212.1234 539,-183 514.5204,-177.0197 488.1596,-165.8962 469.0274,-156.8946"/>
<polygon fill="#191970" stroke="#191970" points="470.5221,-153.7297 459.9932,-152.5489 467.4876,-160.0379 470.5221,-153.7297"/>
</g>
<!-- Node239&#45;&gt;Node233 -->
<g id="edge10" class="edge">
<title>Node239&#45;&gt;Node233</title>
<path fill="none" stroke="#191970" d="M896.9616,-168.6427C881.2586,-170.8479 863.9719,-172.9037 848,-174 710.8858,-183.4116 675.3017,-179.628 539,-162 524.27,-160.095 508.4158,-157.3213 493.8611,-154.479"/>
<polygon fill="#191970" stroke="#191970" points="494.5145,-151.0404 484.0221,-152.5102 493.1409,-157.9044 494.5145,-151.0404"/>
</g>
<!-- Node240&#45;&gt;Node233 -->
<g id="edge12" class="edge">
<title>Node240&#45;&gt;Node233</title>
<path fill="none" stroke="#191970" d="M886.8676,-59.9612C804.7908,-52.9512 657.378,-48.0369 539,-86 510.3096,-95.2009 480.9327,-113.8932 462.0307,-127.3674"/>
<polygon fill="#191970" stroke="#191970" points="459.894,-124.5938 453.8826,-133.3181 464.0225,-130.2468 459.894,-124.5938"/>
</g>
<!-- Node241&#45;&gt;Node233 -->
<g id="edge14" class="edge">
<title>Node241&#45;&gt;Node233</title>
<path fill="none" stroke="#191970" d="M894.2548,-5.6118C812.7174,-1.3853 657.0709,-2.0307 539,-55 503.5024,-70.925 472.0112,-104.7139 454.9549,-125.4796"/>
<polygon fill="#191970" stroke="#191970" points="452.0624,-123.4929 448.5592,-133.4918 457.5332,-127.8599 452.0624,-123.4929"/>
</g>
<!-- Node242&#45;&gt;Node235 -->
<g id="edge17" class="edge">
<title>Node242&#45;&gt;Node235</title>
<path fill="none" stroke="#191970" d="M683.6624,-105C696.1964,-105 709.2004,-105 721.5642,-105"/>
<polygon fill="#191970" stroke="#191970" points="721.775,-108.5001 731.775,-105 721.7749,-101.5001 721.775,-108.5001"/>
</g>
<!-- Node242&#45;&gt;Node237 -->
<g id="edge18" class="edge">
<title>Node242&#45;&gt;Node237</title>
<path fill="none" stroke="#191970" d="M650.9299,-114.5473C670.2647,-119.4791 694.4799,-125.6558 717.0475,-131.4121"/>
<polygon fill="#191970" stroke="#191970" points="716.3821,-134.8544 726.9369,-133.9346 718.1123,-128.0716 716.3821,-134.8544"/>
</g>
<!-- Node242&#45;&gt;Node240 -->
<g id="edge19" class="edge">
<title>Node242&#45;&gt;Node240</title>
<path fill="none" stroke="#191970" d="M663.4195,-95.477C682.3403,-92.1152 704.1124,-88.5428 724,-86 774.7971,-79.5051 832.3269,-74.6984 876.564,-71.5446"/>
<polygon fill="#191970" stroke="#191970" points="876.9193,-75.0284 886.6501,-70.8376 876.4298,-68.0455 876.9193,-75.0284"/>
</g>
</g>
</svg>
        <g id="navigator" transform="translate(0 0)" fill="#404254">
                <rect fill="#f2f5e9" fill-opacity="0.5" stroke="#606060" stroke-width=".5" x="0" y="0" width="60" height="60"/>
                <use id="zoomplus" xlink:href="#zoomPlus" x="17" y="9" onmousedown="handleZoom(evt,'in')"/>
                <use id="zoomminus" xlink:href="#zoomMin" x="42" y="9" onmousedown="handleZoom(evt,'out')"/>
                <use id="reset" xlink:href="#resetDef" x="30" y="36" onmousedown="handleReset()"/>
                <g id="arrowUp" xlink:href="#dirArrow" transform="translate(30 24)" onmousedown="handlePan(0,-1)">
                  <use xlink:href="#rim" fill="#404040">
                        <set attributeName="fill" to="#808080" begin="arrowUp.mouseover" end="arrowUp.mouseout"/>
                  </use>
                  <path fill="none" stroke="white" stroke-width="1.5" d="M0,-3.0v7 M-2.5,-0.5L0,-3.0L2.5,-0.5"/>
                </g>
                <g id="arrowRight" xlink:href="#dirArrow" transform="rotate(90) translate(36 -43)" onmousedown="handlePan(1,0)">
                  <use xlink:href="#rim" fill="#404040">
                        <set attributeName="fill" to="#808080" begin="arrowRight.mouseover" end="arrowRight.mouseout"/>
                  </use>
                  <path fill="none" stroke="white" stroke-width="1.5" d="M0,-3.0v7 M-2.5,-0.5L0,-3.0L2.5,-0.5"/>
                </g>
                <g id="arrowDown" xlink:href="#dirArrow" transform="rotate(180) translate(-30 -48)" onmousedown="handlePan(0,1)">
                  <use xlink:href="#rim" fill="#404040">
                        <set attributeName="fill" to="#808080" begin="arrowDown.mouseover" end="arrowDown.mouseout"/>
                  </use>
                  <path fill="none" stroke="white" stroke-width="1.5" d="M0,-3.0v7 M-2.5,-0.5L0,-3.0L2.5,-0.5"/>
                </g>
                <g id="arrowLeft" xlink:href="#dirArrow" transform="rotate(270) translate(-36 17)" onmousedown="handlePan(-1,0)">
                  <use xlink:href="#rim" fill="#404040">
                        <set attributeName="fill" to="#808080" begin="arrowLeft.mouseover" end="arrowLeft.mouseout"/>
                  </use>
                  <path fill="none" stroke="white" stroke-width="1.5" d="M0,-3.0v7 M-2.5,-0.5L0,-3.0L2.5,-0.5"/>
                </g>
        </g>
        <svg viewBox="0 0 15 15" width="100%" height="30px" preserveAspectRatio="xMaxYMin meet">
         <g id="arrow_out" transform="scale(0.3 0.3)">
          <a xlink:href="structchi_1_1Subprocess_a8a66d790bd0984727c5a45e00fb05f58_cgraph_org.svg" target="_base">
           <rect id="button" ry="5" rx="5" y="6" x="6" height="38" width="38"
                fill="#f2f5e9" fill-opacity="0.5" stroke="#606060" stroke-width="1.0"/>
           <path id="arrow"
             d="M 11.500037,31.436501 C 11.940474,20.09759 22.043105,11.32322 32.158766,21.979434 L 37.068811,17.246167 C 37.068811,17.246167 37.088388,32 37.088388,32 L 22.160133,31.978069 C 22.160133,31.978069 26.997745,27.140456 26.997745,27.140456 C 18.528582,18.264221 13.291696,25.230495 11.500037,31.436501 z"
             style="fill:#404040;"/>
          </a>
         </g>
        </svg>
</svg>
