<?xml version="1.0" encoding="UTF-8" standalone="no"?>
<!DOCTYPE svg PUBLIC "-//W3C//DTD SVG 1.1//EN"
 "http://www.w3.org/Graphics/SVG/1.1/DTD/svg11.dtd">
<!-- Generated by graphviz version 2.40.1 (20161225.0304)
 -->
<!-- Title: chig::GraphFunction::removeExecOutput Pages: 1 -->
<svg width="728pt" height="132pt"
 viewBox="0.00 0.00 728.00 132.00" xmlns="http://www.w3.org/2000/svg" xmlns:xlink="http://www.w3.org/1999/xlink">
<g id="graph0" class="graph" transform="scale(1 1) rotate(0) translate(4 128)">
<title>chig::GraphFunction::removeExecOutput</title>
<polygon fill="#ffffff" stroke="transparent" points="-4,4 -4,-128 724,-128 724,4 -4,4"/>
<!-- Node648 -->
<g id="node1" class="node">
<title>Node648</title>
<polygon fill="#bfbfbf" stroke="#000000" points="0,-47.5 0,-77.5 107,-77.5 107,-47.5 0,-47.5"/>
<text text-anchor="start" x="8" y="-65.5" font-family="Helvetica,sans-Serif" font-size="10.00" fill="#000000">chig::GraphFunction</text>
<text text-anchor="middle" x="53.5" y="-54.5" font-family="Helvetica,sans-Serif" font-size="10.00" fill="#000000">::removeExecOutput</text>
</g>
<!-- Node649 -->
<g id="node2" class="node">
<title>Node649</title>
<g id="a_node2"><a xlink:href="structchig_1_1GraphFunction.html#ae155f716b072ef5f8e3ba064ae7ef8c0" target="_top" xlink:title="Get the function exec outputs. ">
<polygon fill="#ffffff" stroke="#000000" points="143,-47.5 143,-77.5 247,-77.5 247,-47.5 143,-47.5"/>
<text text-anchor="start" x="151" y="-65.5" font-family="Helvetica,sans-Serif" font-size="10.00" fill="#000000">chig::GraphFunction</text>
<text text-anchor="middle" x="195" y="-54.5" font-family="Helvetica,sans-Serif" font-size="10.00" fill="#000000">::execOutputs</text>
</a>
</g>
</g>
<!-- Node648&#45;&gt;Node649 -->
<g id="edge1" class="edge">
<title>Node648&#45;&gt;Node649</title>
<path fill="none" stroke="#191970" d="M117.55,-62.5C125.9504,-62.5 134.4778,-62.5 142.653,-62.5"/>
<polygon fill="#191970" stroke="#191970" points="117.3988,-59.0001 107.3987,-62.5 117.3987,-66.0001 117.3988,-59.0001"/>
</g>
<!-- Node650 -->
<g id="node3" class="node">
<title>Node650</title>
<g id="a_node3"><a xlink:href="structchig_1_1GraphFunction.html#ac7c52122fef0c74d9d0ee04af9a741c4" target="_top" xlink:title="Create a fresh NodeType for an exit. ">
<polygon fill="#ffffff" stroke="#000000" points="294,-47.5 294,-77.5 405,-77.5 405,-47.5 294,-47.5"/>
<text text-anchor="start" x="302" y="-65.5" font-family="Helvetica,sans-Serif" font-size="10.00" fill="#000000">chig::GraphFunction</text>
<text text-anchor="middle" x="349.5" y="-54.5" font-family="Helvetica,sans-Serif" font-size="10.00" fill="#000000">::createExitNodeType</text>
</a>
</g>
</g>
<!-- Node649&#45;&gt;Node650 -->
<g id="edge2" class="edge">
<title>Node649&#45;&gt;Node650</title>
<path fill="none" stroke="#191970" d="M257.6667,-62.5C269.632,-62.5 282.0818,-62.5 293.8107,-62.5"/>
<polygon fill="#191970" stroke="#191970" points="257.3067,-59.0001 247.3067,-62.5 257.3066,-66.0001 257.3067,-59.0001"/>
</g>
<!-- Node653 -->
<g id="node6" class="node">
<title>Node653</title>
<g id="a_node6"><a xlink:href="namespacechig.html#ad0fd9448ab1cd1d73351fad5967a7b9b" target="_top" xlink:title="Serialize a GraphFunction to json. ">
<polygon fill="#ffffff" stroke="#000000" points="283,-8 283,-27 416,-27 416,-8 283,-8"/>
<text text-anchor="middle" x="349.5" y="-15" font-family="Helvetica,sans-Serif" font-size="10.00" fill="#000000">chig::graphFunctionToJson</text>
</a>
</g>
</g>
<!-- Node649&#45;&gt;Node653 -->
<g id="edge6" class="edge">
<title>Node649&#45;&gt;Node653</title>
<path fill="none" stroke="#191970" d="M256.5354,-44.5771C277.1652,-38.5684 299.3562,-32.105 316.882,-27.0004"/>
<polygon fill="#191970" stroke="#191970" points="255.4983,-41.2336 246.8761,-47.3905 257.4559,-47.9543 255.4983,-41.2336"/>
</g>
<!-- Node651 -->
<g id="node4" class="node">
<title>Node651</title>
<g id="a_node4"><a xlink:href="structchig_1_1GraphFunction.html#ae355b017f2859dabff4fa17791317d77" target="_top" xlink:title="Modify an exec output (change docstring) ">
<polygon fill="#ffffff" stroke="#000000" points="464,-93.5 464,-123.5 568,-123.5 568,-93.5 464,-93.5"/>
<text text-anchor="start" x="472" y="-111.5" font-family="Helvetica,sans-Serif" font-size="10.00" fill="#000000">chig::GraphFunction</text>
<text text-anchor="middle" x="516" y="-100.5" font-family="Helvetica,sans-Serif" font-size="10.00" fill="#000000">::modifyExecOutput</text>
</a>
</g>
</g>
<!-- Node650&#45;&gt;Node651 -->
<g id="edge3" class="edge">
<title>Node650&#45;&gt;Node651</title>
<path fill="none" stroke="#191970" d="M413.6614,-80.2263C430.2866,-84.8194 447.9852,-89.7091 463.9071,-94.108"/>
<polygon fill="#191970" stroke="#191970" points="414.5893,-76.8516 404.0183,-77.5621 412.7252,-83.5988 414.5893,-76.8516"/>
</g>
<!-- Node652 -->
<g id="node5" class="node">
<title>Node652</title>
<g id="a_node5"><a xlink:href="structchig_1_1GraphFunction.html#a79cbfaf26d9a966ae8048c81dc09777e" target="_top" xlink:title="chig::GraphFunction\l::nodes">
<polygon fill="#ffffff" stroke="#000000" points="464,-44.5 464,-74.5 568,-74.5 568,-44.5 464,-44.5"/>
<text text-anchor="start" x="472" y="-62.5" font-family="Helvetica,sans-Serif" font-size="10.00" fill="#000000">chig::GraphFunction</text>
<text text-anchor="middle" x="516" y="-51.5" font-family="Helvetica,sans-Serif" font-size="10.00" fill="#000000">::nodes</text>
</a>
</g>
</g>
<!-- Node650&#45;&gt;Node652 -->
<g id="edge5" class="edge">
<title>Node650&#45;&gt;Node652</title>
<path fill="none" stroke="#191970" d="M415.7691,-61.306C431.7716,-61.0176 448.6484,-60.7135 463.8964,-60.4388"/>
<polygon fill="#191970" stroke="#191970" points="415.3406,-57.813 405.4053,-61.4927 415.4667,-64.8119 415.3406,-57.813"/>
</g>
<!-- Node651&#45;&gt;Node649 -->
<g id="edge4" class="edge">
<title>Node651&#45;&gt;Node649</title>
<path fill="none" stroke="#191970" d="M453.7637,-105.5407C406.602,-102.5949 340.3509,-96.9478 283,-86.5 270.3807,-84.2011 256.9371,-80.9543 244.4542,-77.5895"/>
<polygon fill="#191970" stroke="#191970" points="453.6336,-109.0392 463.8259,-106.1464 454.0543,-102.0518 453.6336,-109.0392"/>
</g>
<!-- Node654 -->
<g id="node7" class="node">
<title>Node654</title>
<g id="a_node7"><a xlink:href="namespacechig.html#aaef3bb08f472ae32b2d3b292e69a007a" target="_top" xlink:title="Serialize a JsonModule to json. ">
<polygon fill="#ffffff" stroke="#000000" points="452,-6 452,-25 580,-25 580,-6 452,-6"/>
<text text-anchor="middle" x="516" y="-13" font-family="Helvetica,sans-Serif" font-size="10.00" fill="#000000">chig::graphModuleToJson</text>
</a>
</g>
</g>
<!-- Node653&#45;&gt;Node654 -->
<g id="edge7" class="edge">
<title>Node653&#45;&gt;Node654</title>
<path fill="none" stroke="#191970" d="M426.2727,-16.5778C434.8547,-16.4747 443.5292,-16.3705 451.9282,-16.2696"/>
<polygon fill="#191970" stroke="#191970" points="426.2198,-13.0781 416.2626,-16.698 426.3039,-20.0776 426.2198,-13.0781"/>
</g>
<!-- Node655 -->
<g id="node8" class="node">
<title>Node655</title>
<g id="a_node8"><a xlink:href="structchig_1_1GraphModule.html#accb1a64da697a29e28d78a9a09bd52ff" target="_top" xlink:title="Serialize to disk in the context. ">
<polygon fill="#ffffff" stroke="#000000" points="616,-.5 616,-30.5 720,-30.5 720,-.5 616,-.5"/>
<text text-anchor="start" x="624" y="-18.5" font-family="Helvetica,sans-Serif" font-size="10.00" fill="#000000">chig::GraphModule::</text>
<text text-anchor="middle" x="668" y="-7.5" font-family="Helvetica,sans-Serif" font-size="10.00" fill="#000000">saveToDisk</text>
</a>
</g>
</g>
<!-- Node654&#45;&gt;Node655 -->
<g id="edge8" class="edge">
<title>Node654&#45;&gt;Node655</title>
<path fill="none" stroke="#191970" d="M590.0838,-15.5C598.6912,-15.5 607.3313,-15.5 615.5622,-15.5"/>
<polygon fill="#191970" stroke="#191970" points="590.0212,-12.0001 580.0211,-15.5 590.0211,-19.0001 590.0212,-12.0001"/>
</g>
</g>
</svg>
