<?xml version="1.0" encoding="UTF-8" standalone="no"?>
<!DOCTYPE svg PUBLIC "-//W3C//DTD SVG 1.1//EN"
 "http://www.w3.org/Graphics/SVG/1.1/DTD/svg11.dtd">
<!-- Generated by graphviz version 2.40.1 (20161225.0304)
 -->
<!-- Title: chi::Context::moduleCache Pages: 1 -->
<svg width="468pt" height="142pt"
 viewBox="0.00 0.00 468.00 142.00" xmlns="http://www.w3.org/2000/svg" xmlns:xlink="http://www.w3.org/1999/xlink">
<g id="graph0" class="graph" transform="scale(1 1) rotate(0) translate(4 138)">
<title>chi::Context::moduleCache</title>
<polygon fill="#ffffff" stroke="transparent" points="-4,4 -4,-138 464,-138 464,4 -4,4"/>
<!-- Node393 -->
<g id="node1" class="node">
<title>Node393</title>
<polygon fill="#bfbfbf" stroke="#000000" points="0,-57.5 0,-76.5 134,-76.5 134,-57.5 0,-57.5"/>
<text text-anchor="middle" x="67" y="-64.5" font-family="Helvetica,sans-Serif" font-size="10.00" fill="#000000">chi::Context::moduleCache</text>
</g>
<!-- Node394 -->
<g id="node2" class="node">
<title>Node394</title>
<g id="a_node2"><a xlink:href="namespacechi.html#a7e61e4cd27bcf0a9e891f1b2c676f5e9" target="_top" xlink:title="Interpret LLVM IR, just a convenience function. ">
<polygon fill="#ffffff" stroke="#000000" points="190,-114.5 190,-133.5 296,-133.5 296,-114.5 190,-114.5"/>
<text text-anchor="middle" x="243" y="-121.5" font-family="Helvetica,sans-Serif" font-size="10.00" fill="#000000">chi::interpretLLVMIR</text>
</a>
</g>
</g>
<!-- Node393&#45;&gt;Node394 -->
<g id="edge1" class="edge">
<title>Node393&#45;&gt;Node394</title>
<path fill="none" stroke="#191970" d="M90.9095,-76.5856C111.6383,-84.7113 142.5392,-96.3839 170,-105 177.5557,-107.3707 185.6149,-109.6815 193.5182,-111.8285"/>
<polygon fill="#191970" stroke="#191970" points="192.8326,-115.2677 203.396,-114.4525 194.6299,-108.5023 192.8326,-115.2677"/>
</g>
<!-- Node396 -->
<g id="node4" class="node">
<title>Node396</title>
<g id="a_node4"><a xlink:href="namespacechi.html#adc5f3044ad1373c5c3034ff81add867d" target="_top" xlink:title="Interpret LLVM IR as if it were the main function. ">
<polygon fill="#ffffff" stroke="#000000" points="173.5,-76.5 173.5,-95.5 312.5,-95.5 312.5,-76.5 173.5,-76.5"/>
<text text-anchor="middle" x="243" y="-83.5" font-family="Helvetica,sans-Serif" font-size="10.00" fill="#000000">chi::interpretLLVMIRAsMain</text>
</a>
</g>
</g>
<!-- Node393&#45;&gt;Node396 -->
<g id="edge3" class="edge">
<title>Node393&#45;&gt;Node396</title>
<path fill="none" stroke="#191970" d="M134.0401,-74.2373C143.5572,-75.2647 153.4215,-76.3296 163.1517,-77.38"/>
<polygon fill="#191970" stroke="#191970" points="162.905,-80.8736 173.2229,-78.4672 163.6564,-73.9141 162.905,-80.8736"/>
</g>
<!-- Node397 -->
<g id="node5" class="node">
<title>Node397</title>
<g id="a_node5"><a xlink:href="namespacechi.html#a29ff9f3364b9ad0f25a990b8373971b4" target="_top" xlink:title="Turns a type into a string. ">
<polygon fill="#ffffff" stroke="#000000" points="184.5,-38.5 184.5,-57.5 301.5,-57.5 301.5,-38.5 184.5,-38.5"/>
<text text-anchor="middle" x="243" y="-45.5" font-family="Helvetica,sans-Serif" font-size="10.00" fill="#000000">chi::stringifyLLVMType</text>
</a>
</g>
</g>
<!-- Node393&#45;&gt;Node397 -->
<g id="edge5" class="edge">
<title>Node393&#45;&gt;Node397</title>
<path fill="none" stroke="#191970" d="M134.0401,-59.7627C147.2775,-58.3337 161.1866,-56.8321 174.4724,-55.3979"/>
<polygon fill="#191970" stroke="#191970" points="174.9226,-58.8697 184.4891,-54.3165 174.1712,-51.9101 174.9226,-58.8697"/>
</g>
<!-- Node398 -->
<g id="node6" class="node">
<title>Node398</title>
<g id="a_node6"><a xlink:href="namespacechi.html#af9629143a0367909c7d5173453012335" target="_top" xlink:title="Get the workspace directory from a child of the workspace directory Example: say you have a workspace...">
<polygon fill="#ffffff" stroke="#000000" points="170,-.5 170,-19.5 316,-19.5 316,-.5 170,-.5"/>
<text text-anchor="middle" x="243" y="-7.5" font-family="Helvetica,sans-Serif" font-size="10.00" fill="#000000">chi::workspaceFromChildPath</text>
</a>
</g>
</g>
<!-- Node393&#45;&gt;Node398 -->
<g id="edge6" class="edge">
<title>Node393&#45;&gt;Node398</title>
<path fill="none" stroke="#191970" d="M90.9095,-57.4144C111.6383,-49.2887 142.5392,-37.6161 170,-29 177.5557,-26.6293 185.6149,-24.3185 193.5182,-22.1715"/>
<polygon fill="#191970" stroke="#191970" points="194.6299,-25.4977 203.396,-19.5475 192.8326,-18.7323 194.6299,-25.4977"/>
</g>
<!-- Node395 -->
<g id="node3" class="node">
<title>Node395</title>
<g id="a_node3"><a xlink:href="structchi_1_1Result.html#a59ef40f4a327cbdea263d6e4b5af2ad8" target="_top" xlink:title="Add a entry to the result, either a warning or an error. ">
<polygon fill="#ffffff" stroke="#000000" points="352,-95.5 352,-114.5 460,-114.5 460,-95.5 352,-95.5"/>
<text text-anchor="middle" x="406" y="-102.5" font-family="Helvetica,sans-Serif" font-size="10.00" fill="#000000">chi::Result::addEntry</text>
</a>
</g>
</g>
<!-- Node394&#45;&gt;Node395 -->
<g id="edge2" class="edge">
<title>Node394&#45;&gt;Node395</title>
<path fill="none" stroke="#191970" d="M296.3723,-117.7787C310.8564,-116.0904 326.6915,-114.2445 341.7097,-112.494"/>
<polygon fill="#191970" stroke="#191970" points="342.4223,-115.9347 351.9498,-111.3003 341.6118,-108.9818 342.4223,-115.9347"/>
</g>
<!-- Node396&#45;&gt;Node395 -->
<g id="edge4" class="edge">
<title>Node396&#45;&gt;Node395</title>
<path fill="none" stroke="#191970" d="M312.5995,-94.1128C322.2583,-95.2387 332.145,-96.3911 341.7011,-97.505"/>
<polygon fill="#191970" stroke="#191970" points="341.5764,-101.0141 351.9144,-98.6955 342.3869,-94.0612 341.5764,-101.0141"/>
</g>
</g>
</svg>
