<?xml version="1.0" encoding="UTF-8" standalone="no"?>
<!DOCTYPE svg PUBLIC "-//W3C//DTD SVG 1.1//EN"
 "http://www.w3.org/Graphics/SVG/1.1/DTD/svg11.dtd">
<!-- Generated by graphviz version 2.40.1 (20161225.0304)
 -->
<!-- Title: chi::Context::compileModule Pages: 1 -->
<!--zoomable 305 -->
<svg id="main" version="1.1" xmlns="http://www.w3.org/2000/svg" xmlns:xlink="http://www.w3.org/1999/xlink" xml:space="preserve" onload="init(evt)">
<style type="text/css"><![CDATA[
.edge:hover path { stroke: red; }
.edge:hover polygon { stroke: red; fill: red; }
]]></style>
<script type="text/javascript"><![CDATA[
var edges = document.getElementsByTagName('g');
if (edges && edges.length) {
  for (var i=0;i<edges.length;i++) {
    if (edges[i].id.substr(0,4)=='edge') {
      edges[i].setAttribute('class','edge');
    }
  }
}
]]></script>
        <defs>
                <circle id="rim" cx="0" cy="0" r="7"/>
                <circle id="rim2" cx="0" cy="0" r="3.5"/>
                <g id="zoomPlus">
                        <use xlink:href="#rim" fill="#404040">
                                <set attributeName="fill" to="#808080" begin="zoomplus.mouseover" end="zoomplus.mouseout"/>
                        </use>
                        <path d="M-4,0h8M0,-4v8" fill="none" stroke="white" stroke-width="1.5" pointer-events="none"/>
                </g>
                <g id="zoomMin">
                        <use xlink:href="#rim" fill="#404040">
                                <set attributeName="fill" to="#808080" begin="zoomminus.mouseover" end="zoomminus.mouseout"/>
                        </use>
                        <path d="M-4,0h8" fill="none" stroke="white" stroke-width="1.5" pointer-events="none"/>
                </g>
                <g id="dirArrow">
                        <path fill="none" stroke="white" stroke-width="1.5" d="M0,-3.0v7 M-2.5,-0.5L0,-3.0L2.5,-0.5"/>
                </g>
               <g id="resetDef">
                       <use xlink:href="#rim2" fill="#404040">
                               <set attributeName="fill" to="#808080" begin="reset.mouseover" end="reset.mouseout"/>
                       </use>
               </g>
        </defs>

<script type="text/javascript">
var viewWidth = 1044;
var viewHeight = 305;
var sectionId = 'dynsection-2';
</script>
<script xlink:href="svgpan.js"/>
<svg id="graph" class="graph">
<g id="viewport">
<title>chi::Context::compileModule</title>
<polygon fill="#ffffff" stroke="transparent" points="-4,4 -4,-301 1040,-301 1040,4 -4,4"/>
<!-- Node104 -->
<g id="node1" class="node">
<title>Node104</title>
<polygon fill="#bfbfbf" stroke="#000000" points="0,-114.5 0,-133.5 140,-133.5 140,-114.5 0,-114.5"/>
<text text-anchor="middle" x="70" y="-121.5" font-family="Helvetica,sans-Serif" font-size="10.00" fill="#000000">chi::Context::compileModule</text>
</g>
<!-- Node105 -->
<g id="node2" class="node">
<title>Node105</title>
<g id="a_node2"><a xlink:href="structchi_1_1Result.html#a59ef40f4a327cbdea263d6e4b5af2ad8" target="_top" xlink:title="Add a entry to the result, either a warning or an error. ">
<polygon fill="#ffffff" stroke="#000000" points="383.5,-275.5 383.5,-294.5 491.5,-294.5 491.5,-275.5 383.5,-275.5"/>
<text text-anchor="middle" x="437.5" y="-282.5" font-family="Helvetica,sans-Serif" font-size="10.00" fill="#000000">chi::Result::addEntry</text>
</a>
</g>
</g>
<!-- Node104&#45;&gt;Node105 -->
<g id="edge1" class="edge">
<title>Node104&#45;&gt;Node105</title>
<path fill="none" stroke="#191970" d="M74.1934,-133.7629C85.9,-159.665 121.6792,-230.1815 176,-260 236.7828,-293.3658 317.6024,-295.9178 373.2205,-292.4878"/>
<polygon fill="#191970" stroke="#191970" points="373.57,-295.9721 383.3018,-291.7839 373.0823,-288.9891 373.57,-295.9721"/>
</g>
<!-- Node107 -->
<g id="node4" class="node">
<title>Node107</title>
<g id="a_node4"><a xlink:href="structchi_1_1Result.html#a5cd21feaa68ac0d813b3eec7d3ea34c6" target="_top" xlink:title="Add a context with a scope Example usage: chi::Result res; res.contextJson(); // returns {} { &#160;&#160;&#160;&#160;aut...">
<polygon fill="#ffffff" stroke="#000000" points="713,-239.5 713,-258.5 865,-258.5 865,-239.5 713,-239.5"/>
<text text-anchor="middle" x="789" y="-246.5" font-family="Helvetica,sans-Serif" font-size="10.00" fill="#000000">chi::Result::addScopedContext</text>
</a>
</g>
</g>
<!-- Node104&#45;&gt;Node107 -->
<g id="edge3" class="edge">
<title>Node104&#45;&gt;Node107</title>
<path fill="none" stroke="#191970" d="M83.6404,-133.5532C103.1257,-146.6667 140.5086,-169.8802 176,-181 357.195,-237.7703 581.5009,-248.5196 702.248,-249.7652"/>
<polygon fill="#191970" stroke="#191970" points="702.5095,-253.2674 712.5383,-249.8508 702.5678,-246.2677 702.5095,-253.2674"/>
</g>
<!-- Node110 -->
<g id="node7" class="node">
<title>Node110</title>
<g id="a_node7"><a xlink:href="structchi_1_1ChiModule.html#a9c0d4b1b54bca0194ea4061ae4883779" target="_top" xlink:title="Get the dependencies. ">
<polygon fill="#ffffff" stroke="#000000" points="176,-152.5 176,-171.5 323,-171.5 323,-152.5 176,-152.5"/>
<text text-anchor="middle" x="249.5" y="-159.5" font-family="Helvetica,sans-Serif" font-size="10.00" fill="#000000">chi::ChiModule::dependencies</text>
</a>
</g>
</g>
<!-- Node104&#45;&gt;Node110 -->
<g id="edge7" class="edge">
<title>Node104&#45;&gt;Node110</title>
<path fill="none" stroke="#191970" d="M115.2954,-133.589C139.4092,-138.6939 169.2508,-145.0113 194.6666,-150.3918"/>
<polygon fill="#191970" stroke="#191970" points="194.0222,-153.8329 204.5303,-152.4799 195.472,-146.9847 194.0222,-153.8329"/>
</g>
<!-- Node114 -->
<g id="node11" class="node">
<title>Node114</title>
<g id="a_node11"><a xlink:href="structchi_1_1ChiModule.html#a987c71edb997c5f041f69622cb0c86fe" target="_top" xlink:title="Generate a llvm::Module from the module. ">
<polygon fill="#ffffff" stroke="#000000" points="726.5,-92 726.5,-122 851.5,-122 851.5,-92 726.5,-92"/>
<text text-anchor="start" x="734.5" y="-110" font-family="Helvetica,sans-Serif" font-size="10.00" fill="#000000">chi::ChiModule::generate</text>
<text text-anchor="middle" x="789" y="-99" font-family="Helvetica,sans-Serif" font-size="10.00" fill="#000000">Module</text>
</a>
</g>
</g>
<!-- Node104&#45;&gt;Node114 -->
<g id="edge17" class="edge">
<title>Node104&#45;&gt;Node114</title>
<path fill="none" stroke="#191970" d="M140.2499,-122.339C277.0217,-119.1052 577.7672,-111.9944 716.3967,-108.7166"/>
<polygon fill="#191970" stroke="#191970" points="716.5802,-112.2134 726.4947,-108.4779 716.4147,-105.2153 716.5802,-112.2134"/>
</g>
<!-- Node117 -->
<g id="node14" class="node">
<title>Node117</title>
<g id="a_node14"><a xlink:href="structchi_1_1ChiModule.html#a92ab6d528ac41a91b6ac21ededfccc38" target="_top" xlink:title="Get the full name of the module. ">
<polygon fill="#ffffff" stroke="#000000" points="187,-76.5 187,-95.5 312,-95.5 312,-76.5 187,-76.5"/>
<text text-anchor="middle" x="249.5" y="-83.5" font-family="Helvetica,sans-Serif" font-size="10.00" fill="#000000">chi::ChiModule::fullName</text>
</a>
</g>
</g>
<!-- Node104&#45;&gt;Node117 -->
<g id="edge15" class="edge">
<title>Node104&#45;&gt;Node117</title>
<path fill="none" stroke="#191970" d="M115.2954,-114.411C139.4092,-109.3061 169.2508,-102.9887 194.6666,-97.6082"/>
<polygon fill="#191970" stroke="#191970" points="195.472,-101.0153 204.5303,-95.5201 194.0222,-94.1671 195.472,-101.0153"/>
</g>
<!-- Node118 -->
<g id="node15" class="node">
<title>Node118</title>
<g id="a_node15"><a xlink:href="structchi_1_1ChiModule.html#aa47d2903bf43aa7b80740ebf91570fcf" target="_top" xlink:title="Get the full name of the module in a path. ">
<polygon fill="#ffffff" stroke="#000000" points="176.5,-38.5 176.5,-57.5 322.5,-57.5 322.5,-38.5 176.5,-38.5"/>
<text text-anchor="middle" x="249.5" y="-45.5" font-family="Helvetica,sans-Serif" font-size="10.00" fill="#000000">chi::ChiModule::fullNamePath</text>
</a>
</g>
</g>
<!-- Node104&#45;&gt;Node118 -->
<g id="edge16" class="edge">
<title>Node104&#45;&gt;Node118</title>
<path fill="none" stroke="#191970" d="M84.8942,-114.4956C104.9194,-102.072 141.9508,-80.3308 176,-67 182.2668,-64.5464 188.9578,-62.3158 195.6545,-60.3166"/>
<polygon fill="#191970" stroke="#191970" points="196.7513,-63.6438 205.4213,-57.5544 194.8462,-56.908 196.7513,-63.6438"/>
</g>
<!-- Node119 -->
<g id="node16" class="node">
<title>Node119</title>
<g id="a_node16"><a xlink:href="structchi_1_1ChiModule.html#adc6b4278af40c9f50890ff773decaf8f" target="_top" xlink:title="Get the time that this module was last edited. ">
<polygon fill="#ffffff" stroke="#000000" points="178.5,-.5 178.5,-19.5 320.5,-19.5 320.5,-.5 178.5,-.5"/>
<text text-anchor="middle" x="249.5" y="-7.5" font-family="Helvetica,sans-Serif" font-size="10.00" fill="#000000">chi::ChiModule::lastEditTime</text>
</a>
</g>
</g>
<!-- Node104&#45;&gt;Node119 -->
<g id="edge18" class="edge">
<title>Node104&#45;&gt;Node119</title>
<path fill="none" stroke="#191970" d="M77.9521,-114.2651C94.2546,-94.9657 133.5237,-51.7572 176,-29 180.2767,-26.7087 184.8433,-24.6835 189.528,-22.8952"/>
<polygon fill="#191970" stroke="#191970" points="190.9378,-26.1116 199.2546,-19.548 188.6599,-19.4925 190.9378,-26.1116"/>
</g>
<!-- Node106 -->
<g id="node3" class="node">
<title>Node106</title>
<g id="a_node3"><a xlink:href="structchi_1_1Result.html#aa078d3cb3dfb2fb63e81b71acea036e0" target="_top" xlink:title="Get the JSON associated with the context that&#39;s been added. ">
<polygon fill="#ffffff" stroke="#000000" points="907.5,-277.5 907.5,-296.5 1029.5,-296.5 1029.5,-277.5 907.5,-277.5"/>
<text text-anchor="middle" x="968.5" y="-284.5" font-family="Helvetica,sans-Serif" font-size="10.00" fill="#000000">chi::Result::contextJson</text>
</a>
</g>
</g>
<!-- Node105&#45;&gt;Node106 -->
<g id="edge2" class="edge">
<title>Node105&#45;&gt;Node106</title>
<path fill="none" stroke="#191970" d="M491.8309,-285.2046C588.3671,-285.5682 789.7212,-286.3266 897.2365,-286.7316"/>
<polygon fill="#191970" stroke="#191970" points="897.3284,-290.2319 907.3416,-286.7696 897.3549,-283.2319 897.3284,-290.2319"/>
</g>
<!-- Node107&#45;&gt;Node106 -->
<g id="edge6" class="edge">
<title>Node107&#45;&gt;Node106</title>
<path fill="none" stroke="#191970" d="M834.2954,-258.589C858.4092,-263.6939 888.2508,-270.0113 913.6666,-275.3918"/>
<polygon fill="#191970" stroke="#191970" points="913.0222,-278.8329 923.5303,-277.4799 914.472,-271.9847 913.0222,-278.8329"/>
</g>
<!-- Node108 -->
<g id="node5" class="node">
<title>Node108</title>
<g id="a_node5"><a xlink:href="structchi_1_1Result.html#a5cbde12f0c21347635469c7acf8d4112" target="_top" xlink:title="Add some json that will ALWAYS be merged with entries that are added and when results are added to th...">
<polygon fill="#ffffff" stroke="#000000" points="909,-201.5 909,-220.5 1028,-220.5 1028,-201.5 909,-201.5"/>
<text text-anchor="middle" x="968.5" y="-208.5" font-family="Helvetica,sans-Serif" font-size="10.00" fill="#000000">chi::Result::addContext</text>
</a>
</g>
</g>
<!-- Node107&#45;&gt;Node108 -->
<g id="edge4" class="edge">
<title>Node107&#45;&gt;Node108</title>
<path fill="none" stroke="#191970" d="M834.2954,-239.411C858.4092,-234.3061 888.2508,-227.9887 913.6666,-222.6082"/>
<polygon fill="#191970" stroke="#191970" points="914.472,-226.0153 923.5303,-220.5201 913.0222,-219.1671 914.472,-226.0153"/>
</g>
<!-- Node109 -->
<g id="node6" class="node">
<title>Node109</title>
<g id="a_node6"><a xlink:href="structchi_1_1Result.html#ab801a9230e3e46dc771f260992e4e84d" target="_top" xlink:title="Removes a previously added context. ">
<polygon fill="#ffffff" stroke="#000000" points="901,-239.5 901,-258.5 1036,-258.5 1036,-239.5 901,-239.5"/>
<text text-anchor="middle" x="968.5" y="-246.5" font-family="Helvetica,sans-Serif" font-size="10.00" fill="#000000">chi::Result::removeContext</text>
</a>
</g>
</g>
<!-- Node107&#45;&gt;Node109 -->
<g id="edge5" class="edge">
<title>Node107&#45;&gt;Node109</title>
<path fill="none" stroke="#191970" d="M865.1242,-249C873.5477,-249 882.1352,-249 890.5804,-249"/>
<polygon fill="#191970" stroke="#191970" points="890.7907,-252.5001 900.7906,-249 890.7906,-245.5001 890.7907,-252.5001"/>
</g>
<!-- Node111 -->
<g id="node8" class="node">
<title>Node111</title>
<g id="a_node8"><a xlink:href="structchi_1_1ChiModule.html#aab11d61e0c0138e5fc5ce176c20e3bec" target="_top" xlink:title="Add a dependency to the module Loads the module from context() if it isn&#39;t already loaded...">
<polygon fill="#ffffff" stroke="#000000" points="359,-152.5 359,-171.5 516,-171.5 516,-152.5 359,-152.5"/>
<text text-anchor="middle" x="437.5" y="-159.5" font-family="Helvetica,sans-Serif" font-size="10.00" fill="#000000">chi::ChiModule::addDependency</text>
</a>
</g>
</g>
<!-- Node110&#45;&gt;Node111 -->
<g id="edge8" class="edge">
<title>Node110&#45;&gt;Node111</title>
<path fill="none" stroke="#191970" d="M323.263,-162C331.6919,-162 340.3487,-162 348.9445,-162"/>
<polygon fill="#191970" stroke="#191970" points="348.9901,-165.5001 358.99,-162 348.99,-158.5001 348.9901,-165.5001"/>
</g>
<!-- Node112 -->
<g id="node9" class="node">
<title>Node112</title>
<g id="a_node9"><a xlink:href="structchi_1_1ChiModule.html#a5c28c9fe74ad3cb704b613843b267512" target="_top" xlink:title="Get the Context that this module belongs to. ">
<polygon fill="#ffffff" stroke="#000000" points="555,-152.5 555,-171.5 674,-171.5 674,-152.5 555,-152.5"/>
<text text-anchor="middle" x="614.5" y="-159.5" font-family="Helvetica,sans-Serif" font-size="10.00" fill="#000000">chi::ChiModule::context</text>
</a>
</g>
</g>
<!-- Node111&#45;&gt;Node112 -->
<g id="edge9" class="edge">
<title>Node111&#45;&gt;Node112</title>
<path fill="none" stroke="#191970" d="M516.1656,-162C525.7259,-162 535.4413,-162 544.8579,-162"/>
<polygon fill="#191970" stroke="#191970" points="544.9373,-165.5001 554.9373,-162 544.9372,-158.5001 544.9373,-165.5001"/>
</g>
<!-- Node115 -->
<g id="node12" class="node">
<title>Node115</title>
<g id="a_node12"><a xlink:href="structchi_1_1Context.html#a508c786fe61ffa67c2a44850ecac4a7b" target="_top" xlink:title="Load a module from disk, also loads dependencies &#160;!name.empty() ">
<polygon fill="#ffffff" stroke="#000000" points="552,-195.5 552,-214.5 677,-214.5 677,-195.5 552,-195.5"/>
<text text-anchor="middle" x="614.5" y="-202.5" font-family="Helvetica,sans-Serif" font-size="10.00" fill="#000000">chi::Context::loadModule</text>
</a>
</g>
</g>
<!-- Node111&#45;&gt;Node115 -->
<g id="edge12" class="edge">
<title>Node111&#45;&gt;Node115</title>
<path fill="none" stroke="#191970" d="M476.782,-171.5431C502.9058,-177.8895 537.4189,-186.2741 565.3591,-193.0618"/>
<polygon fill="#191970" stroke="#191970" points="564.7841,-196.5239 575.3278,-195.4836 566.4367,-189.7217 564.7841,-196.5239"/>
</g>
<!-- Node113 -->
<g id="node10" class="node">
<title>Node113</title>
<g id="a_node10"><a xlink:href="structchi_1_1ChiModule.html#a653e3aed05912857334655e06937b28d" target="_top" xlink:title="Adds forward declartions for the functions in this module. ">
<polygon fill="#ffffff" stroke="#000000" points="720.5,-141 720.5,-171 857.5,-171 857.5,-141 720.5,-141"/>
<text text-anchor="start" x="728.5" y="-159" font-family="Helvetica,sans-Serif" font-size="10.00" fill="#000000">chi::ChiModule::addForward</text>
<text text-anchor="middle" x="789" y="-148" font-family="Helvetica,sans-Serif" font-size="10.00" fill="#000000">Declarations</text>
</a>
</g>
</g>
<!-- Node112&#45;&gt;Node113 -->
<g id="edge10" class="edge">
<title>Node112&#45;&gt;Node113</title>
<path fill="none" stroke="#191970" d="M674.0649,-159.9519C685.7124,-159.5514 698.0941,-159.1257 710.2534,-158.7076"/>
<polygon fill="#191970" stroke="#191970" points="710.5202,-162.2006 720.394,-158.3589 710.2796,-155.2047 710.5202,-162.2006"/>
</g>
<!-- Node112&#45;&gt;Node114 -->
<g id="edge11" class="edge">
<title>Node112&#45;&gt;Node114</title>
<path fill="none" stroke="#191970" d="M644.8956,-152.4197C668.7581,-144.8986 702.6702,-134.21 731.6025,-125.0909"/>
<polygon fill="#191970" stroke="#191970" points="732.7164,-128.4096 741.2017,-122.0654 730.6121,-121.7334 732.7164,-128.4096"/>
</g>
<!-- Node115&#45;&gt;Node107 -->
<g id="edge13" class="edge">
<title>Node115&#45;&gt;Node107</title>
<path fill="none" stroke="#191970" d="M651.9106,-214.5286C670.3072,-219.2057 692.812,-224.9146 713,-230 722.0073,-232.269 731.6179,-234.6796 740.8687,-236.9948"/>
<polygon fill="#191970" stroke="#191970" points="740.1696,-240.4277 750.72,-239.4584 741.8679,-233.6368 740.1696,-240.4277"/>
</g>
<!-- Node116 -->
<g id="node13" class="node">
<title>Node116</title>
<g id="a_node13"><a xlink:href="structchi_1_1ChiModule.html#af3cdb7e3d333fedc74ad862dcc5bca9f" target="_top" xlink:title="Update the last edit time, signifying that it&#39;s been edited. ">
<polygon fill="#ffffff" stroke="#000000" points="721.5,-190 721.5,-220 856.5,-220 856.5,-190 721.5,-190"/>
<text text-anchor="start" x="729.5" y="-208" font-family="Helvetica,sans-Serif" font-size="10.00" fill="#000000">chi::ChiModule::updateLast</text>
<text text-anchor="middle" x="789" y="-197" font-family="Helvetica,sans-Serif" font-size="10.00" fill="#000000">EditTime</text>
</a>
</g>
</g>
<!-- Node115&#45;&gt;Node116 -->
<g id="edge14" class="edge">
<title>Node115&#45;&gt;Node116</title>
<path fill="none" stroke="#191970" d="M677.0056,-205C688.1244,-205 699.8277,-205 711.3076,-205"/>
<polygon fill="#191970" stroke="#191970" points="711.3182,-208.5001 721.3181,-205 711.3181,-201.5001 711.3182,-208.5001"/>
</g>
</g>
</svg>
        <g id="navigator" transform="translate(0 0)" fill="#404254">
                <rect fill="#f2f5e9" fill-opacity="0.5" stroke="#606060" stroke-width=".5" x="0" y="0" width="60" height="60"/>
                <use id="zoomplus" xlink:href="#zoomPlus" x="17" y="9" onmousedown="handleZoom(evt,'in')"/>
                <use id="zoomminus" xlink:href="#zoomMin" x="42" y="9" onmousedown="handleZoom(evt,'out')"/>
                <use id="reset" xlink:href="#resetDef" x="30" y="36" onmousedown="handleReset()"/>
                <g id="arrowUp" xlink:href="#dirArrow" transform="translate(30 24)" onmousedown="handlePan(0,-1)">
                  <use xlink:href="#rim" fill="#404040">
                        <set attributeName="fill" to="#808080" begin="arrowUp.mouseover" end="arrowUp.mouseout"/>
                  </use>
                  <path fill="none" stroke="white" stroke-width="1.5" d="M0,-3.0v7 M-2.5,-0.5L0,-3.0L2.5,-0.5"/>
                </g>
                <g id="arrowRight" xlink:href="#dirArrow" transform="rotate(90) translate(36 -43)" onmousedown="handlePan(1,0)">
                  <use xlink:href="#rim" fill="#404040">
                        <set attributeName="fill" to="#808080" begin="arrowRight.mouseover" end="arrowRight.mouseout"/>
                  </use>
                  <path fill="none" stroke="white" stroke-width="1.5" d="M0,-3.0v7 M-2.5,-0.5L0,-3.0L2.5,-0.5"/>
                </g>
                <g id="arrowDown" xlink:href="#dirArrow" transform="rotate(180) translate(-30 -48)" onmousedown="handlePan(0,1)">
                  <use xlink:href="#rim" fill="#404040">
                        <set attributeName="fill" to="#808080" begin="arrowDown.mouseover" end="arrowDown.mouseout"/>
                  </use>
                  <path fill="none" stroke="white" stroke-width="1.5" d="M0,-3.0v7 M-2.5,-0.5L0,-3.0L2.5,-0.5"/>
                </g>
                <g id="arrowLeft" xlink:href="#dirArrow" transform="rotate(270) translate(-36 17)" onmousedown="handlePan(-1,0)">
                  <use xlink:href="#rim" fill="#404040">
                        <set attributeName="fill" to="#808080" begin="arrowLeft.mouseover" end="arrowLeft.mouseout"/>
                  </use>
                  <path fill="none" stroke="white" stroke-width="1.5" d="M0,-3.0v7 M-2.5,-0.5L0,-3.0L2.5,-0.5"/>
                </g>
        </g>
        <svg viewBox="0 0 15 15" width="100%" height="30px" preserveAspectRatio="xMaxYMin meet">
         <g id="arrow_out" transform="scale(0.3 0.3)">
          <a xlink:href="structchi_1_1Context_a1a0ed6a11af4c2625955bc5df77e135c_cgraph_org.svg" target="_base">
           <rect id="button" ry="5" rx="5" y="6" x="6" height="38" width="38"
                fill="#f2f5e9" fill-opacity="0.5" stroke="#606060" stroke-width="1.0"/>
           <path id="arrow"
             d="M 11.500037,31.436501 C 11.940474,20.09759 22.043105,11.32322 32.158766,21.979434 L 37.068811,17.246167 C 37.068811,17.246167 37.088388,32 37.088388,32 L 22.160133,31.978069 C 22.160133,31.978069 26.997745,27.140456 26.997745,27.140456 C 18.528582,18.264221 13.291696,25.230495 11.500037,31.436501 z"
             style="fill:#404040;"/>
          </a>
         </g>
        </svg>
</svg>
