<?xml version="1.0" encoding="UTF-8" standalone="no"?>
<!DOCTYPE svg PUBLIC "-//W3C//DTD SVG 1.1//EN"
 "http://www.w3.org/Graphics/SVG/1.1/DTD/svg11.dtd">
<!-- Generated by graphviz version 2.40.1 (20161225.0304)
 -->
<!-- Title: chi::GraphModule::cEnabled Pages: 1 -->
<!--zoomable 331 -->
<svg id="main" version="1.1" xmlns="http://www.w3.org/2000/svg" xmlns:xlink="http://www.w3.org/1999/xlink" xml:space="preserve" onload="init(evt)">
<style type="text/css"><![CDATA[
.edge:hover path { stroke: red; }
.edge:hover polygon { stroke: red; fill: red; }
]]></style>
<script type="text/javascript"><![CDATA[
var edges = document.getElementsByTagName('g');
if (edges && edges.length) {
  for (var i=0;i<edges.length;i++) {
    if (edges[i].id.substr(0,4)=='edge') {
      edges[i].setAttribute('class','edge');
    }
  }
}
]]></script>
        <defs>
                <circle id="rim" cx="0" cy="0" r="7"/>
                <circle id="rim2" cx="0" cy="0" r="3.5"/>
                <g id="zoomPlus">
                        <use xlink:href="#rim" fill="#404040">
                                <set attributeName="fill" to="#808080" begin="zoomplus.mouseover" end="zoomplus.mouseout"/>
                        </use>
                        <path d="M-4,0h8M0,-4v8" fill="none" stroke="white" stroke-width="1.5" pointer-events="none"/>
                </g>
                <g id="zoomMin">
                        <use xlink:href="#rim" fill="#404040">
                                <set attributeName="fill" to="#808080" begin="zoomminus.mouseover" end="zoomminus.mouseout"/>
                        </use>
                        <path d="M-4,0h8" fill="none" stroke="white" stroke-width="1.5" pointer-events="none"/>
                </g>
                <g id="dirArrow">
                        <path fill="none" stroke="white" stroke-width="1.5" d="M0,-3.0v7 M-2.5,-0.5L0,-3.0L2.5,-0.5"/>
                </g>
               <g id="resetDef">
                       <use xlink:href="#rim2" fill="#404040">
                               <set attributeName="fill" to="#808080" begin="reset.mouseover" end="reset.mouseout"/>
                       </use>
               </g>
        </defs>

<script type="text/javascript">
var viewWidth = 1521;
var viewHeight = 331;
var sectionId = 'dynsection-7';
</script>
<script xlink:href="svgpan.js"/>
<svg id="graph" class="graph">
<g id="viewport">
<title>chi::GraphModule::cEnabled</title>
<polygon fill="#ffffff" stroke="transparent" points="-4,4 -4,-327 1517,-327 1517,4 -4,4"/>
<!-- Node152 -->
<g id="node1" class="node">
<title>Node152</title>
<polygon fill="#bfbfbf" stroke="#000000" points="0,-195 0,-214 140,-214 140,-195 0,-195"/>
<text text-anchor="middle" x="70" y="-202" font-family="Helvetica,sans-Serif" font-size="10.00" fill="#000000">chi::GraphModule::cEnabled</text>
</g>
<!-- Node153 -->
<g id="node2" class="node">
<title>Node153</title>
<g id="a_node2"><a xlink:href="structchi_1_1GraphModule.html#a9b73bbbfa91d6a2f92bcca270bdb7b2f" target="_top" xlink:title="Generate a llvm::Module from the module. ">
<polygon fill="#ffffff" stroke="#000000" points="178.5,-292.5 178.5,-322.5 315.5,-322.5 315.5,-292.5 178.5,-292.5"/>
<text text-anchor="start" x="186.5" y="-310.5" font-family="Helvetica,sans-Serif" font-size="10.00" fill="#000000">chi::GraphModule::generate</text>
<text text-anchor="middle" x="247" y="-299.5" font-family="Helvetica,sans-Serif" font-size="10.00" fill="#000000">Module</text>
</a>
</g>
</g>
<!-- Node152&#45;&gt;Node153 -->
<g id="edge1" class="edge">
<title>Node152&#45;&gt;Node153</title>
<path fill="none" stroke="#191970" d="M90.2645,-220.3108C111.0286,-236.0577 144.6253,-260.3014 176,-277.5 185.8567,-282.9031 196.8893,-287.9904 207.2648,-292.3875"/>
<polygon fill="#191970" stroke="#191970" points="92.2617,-217.4317 82.1952,-214.1276 88.0041,-222.9881 92.2617,-217.4317"/>
</g>
<!-- Node154 -->
<g id="node3" class="node">
<title>Node154</title>
<g id="a_node3"><a xlink:href="namespacechi.html#a9a4f3fa54c612f0c559a353bb7382d5a" target="_top" xlink:title="Serialize a JsonModule to json. ">
<polygon fill="#ffffff" stroke="#000000" points="1203,-90 1203,-109 1326,-109 1326,-90 1203,-90"/>
<text text-anchor="middle" x="1264.5" y="-97" font-family="Helvetica,sans-Serif" font-size="10.00" fill="#000000">chi::graphModuleToJson</text>
</a>
</g>
</g>
<!-- Node152&#45;&gt;Node154 -->
<g id="edge2" class="edge">
<title>Node152&#45;&gt;Node154</title>
<path fill="none" stroke="#191970" d="M114.055,-216.7747C180.0922,-234.0629 308.918,-263.5 420.5,-263.5 420.5,-263.5 420.5,-263.5 918.5,-263.5 1033.1229,-263.5 1067.6208,-251.6157 1167,-194.5 1206.9566,-171.536 1242.6128,-128.4357 1257.3366,-109.1996"/>
<polygon fill="#191970" stroke="#191970" points="114.5708,-213.2906 104.0078,-214.1107 112.7768,-220.0568 114.5708,-213.2906"/>
</g>
<!-- Node156 -->
<g id="node5" class="node">
<title>Node156</title>
<g id="a_node5"><a xlink:href="structchi_1_1GraphModule.html#a133c0595e0bb888f958e9769838f6c0c" target="_top" xlink:title="Create a node type that is in the module from the name and json. ">
<polygon fill="#ffffff" stroke="#000000" points="176,-112.5 176,-142.5 318,-142.5 318,-112.5 176,-112.5"/>
<text text-anchor="start" x="184" y="-130.5" font-family="Helvetica,sans-Serif" font-size="10.00" fill="#000000">chi::GraphModule::nodeType</text>
<text text-anchor="middle" x="247" y="-119.5" font-family="Helvetica,sans-Serif" font-size="10.00" fill="#000000">FromName</text>
</a>
</g>
</g>
<!-- Node152&#45;&gt;Node156 -->
<g id="edge4" class="edge">
<title>Node152&#45;&gt;Node156</title>
<path fill="none" stroke="#191970" d="M101.5664,-190.7677C132.7451,-177.2041 180.3055,-156.514 212.4738,-142.5199"/>
<polygon fill="#191970" stroke="#191970" points="99.833,-187.7049 92.0593,-194.9036 102.6254,-194.1238 99.833,-187.7049"/>
</g>
<!-- Node170 -->
<g id="node19" class="node">
<title>Node170</title>
<g id="a_node19"><a xlink:href="structchi_1_1GraphModule.html#a53a1a284ab878783e74a957bb3b711b3" target="_top" xlink:title="Get the possible node type names. ">
<polygon fill="#ffffff" stroke="#000000" points="176,-63.5 176,-93.5 318,-93.5 318,-63.5 176,-63.5"/>
<text text-anchor="start" x="184" y="-81.5" font-family="Helvetica,sans-Serif" font-size="10.00" fill="#000000">chi::GraphModule::nodeType</text>
<text text-anchor="middle" x="247" y="-70.5" font-family="Helvetica,sans-Serif" font-size="10.00" fill="#000000">Names</text>
</a>
</g>
</g>
<!-- Node152&#45;&gt;Node170 -->
<g id="edge30" class="edge">
<title>Node152&#45;&gt;Node170</title>
<path fill="none" stroke="#191970" d="M84.3688,-186.793C103.2679,-164.5405 138.5012,-126.4856 176,-103.5 182.1279,-99.7438 188.8999,-96.4476 195.7564,-93.5872"/>
<polygon fill="#191970" stroke="#191970" points="81.4531,-184.8246 77.7389,-194.7471 86.8302,-189.3065 81.4531,-184.8246"/>
</g>
<!-- Node155 -->
<g id="node4" class="node">
<title>Node155</title>
<g id="a_node4"><a xlink:href="structchi_1_1GraphModule.html#a5cd9fb1738336d5d382ebb50753bda3e" target="_top" xlink:title="Serialize to disk in the context. ">
<polygon fill="#ffffff" stroke="#000000" points="1362,-90 1362,-109 1513,-109 1513,-90 1362,-90"/>
<text text-anchor="middle" x="1437.5" y="-97" font-family="Helvetica,sans-Serif" font-size="10.00" fill="#000000">chi::GraphModule::saveToDisk</text>
</a>
</g>
</g>
<!-- Node154&#45;&gt;Node155 -->
<g id="edge3" class="edge">
<title>Node154&#45;&gt;Node155</title>
<path fill="none" stroke="#191970" d="M1336.5243,-99.5C1344.8612,-99.5 1353.3827,-99.5 1361.7672,-99.5"/>
<polygon fill="#191970" stroke="#191970" points="1336.4684,-96.0001 1326.4683,-99.5 1336.4683,-103.0001 1336.4684,-96.0001"/>
</g>
<!-- Node157 -->
<g id="node6" class="node">
<title>Node157</title>
<g id="a_node6"><a xlink:href="structchi_1_1GraphFunction.html#a60bc423cb4fed3605a446da112949483" target="_top" xlink:title="Rename a local variable. ">
<polygon fill="#ffffff" stroke="#000000" points="364,-49.5 364,-79.5 477,-79.5 477,-49.5 364,-49.5"/>
<text text-anchor="start" x="372" y="-67.5" font-family="Helvetica,sans-Serif" font-size="10.00" fill="#000000">chi::GraphFunction</text>
<text text-anchor="middle" x="420.5" y="-56.5" font-family="Helvetica,sans-Serif" font-size="10.00" fill="#000000">::renameLocalVariable</text>
</a>
</g>
</g>
<!-- Node156&#45;&gt;Node157 -->
<g id="edge5" class="edge">
<title>Node156&#45;&gt;Node157</title>
<path fill="none" stroke="#191970" d="M299.8004,-109.0166C305.9417,-106.8347 312.1122,-104.6278 318,-102.5 338.5262,-95.082 361.2951,-86.6603 380.1497,-79.6336"/>
<polygon fill="#191970" stroke="#191970" points="298.4768,-105.7723 290.2188,-112.4098 300.8135,-112.3708 298.4768,-105.7723"/>
</g>
<!-- Node160 -->
<g id="node9" class="node">
<title>Node160</title>
<g id="a_node9"><a xlink:href="structchi_1_1GraphFunction.html#a4c38679ec5e727bfb71c8eaaa5a8ca1a" target="_top" xlink:title="Set a new type to a local variable. ">
<polygon fill="#ffffff" stroke="#000000" points="366.5,-.5 366.5,-30.5 474.5,-30.5 474.5,-.5 366.5,-.5"/>
<text text-anchor="start" x="374.5" y="-18.5" font-family="Helvetica,sans-Serif" font-size="10.00" fill="#000000">chi::GraphFunction</text>
<text text-anchor="middle" x="420.5" y="-7.5" font-family="Helvetica,sans-Serif" font-size="10.00" fill="#000000">::retypeLocalVariable</text>
</a>
</g>
</g>
<!-- Node156&#45;&gt;Node160 -->
<g id="edge9" class="edge">
<title>Node156&#45;&gt;Node160</title>
<path fill="none" stroke="#191970" d="M311.6085,-107.2292C313.8392,-105.7585 315.9802,-104.1844 318,-102.5 342.7669,-81.8456 329.3139,-60.2508 354,-39.5 358.0401,-36.104 362.5992,-33.1717 367.3889,-30.6431"/>
<polygon fill="#191970" stroke="#191970" points="309.5444,-104.379 302.6268,-112.4038 313.0388,-110.4444 309.5444,-104.379"/>
</g>
<!-- Node161 -->
<g id="node10" class="node">
<title>Node161</title>
<g id="a_node10"><a xlink:href="structchi_1_1GraphStruct.html#a464c5edd4ebcb07161c3d05312f1fc33" target="_top" xlink:title="Set the name of the struct, and optionally update all references in the context. ">
<polygon fill="#ffffff" stroke="#000000" points="354,-137 354,-156 487,-156 487,-137 354,-137"/>
<text text-anchor="middle" x="420.5" y="-144" font-family="Helvetica,sans-Serif" font-size="10.00" fill="#000000">chi::GraphStruct::setName</text>
</a>
</g>
</g>
<!-- Node156&#45;&gt;Node161 -->
<g id="edge11" class="edge">
<title>Node156&#45;&gt;Node161</title>
<path fill="none" stroke="#191970" d="M328.0933,-136.3805C336.6783,-137.3207 345.3374,-138.2689 353.7325,-139.1883"/>
<polygon fill="#191970" stroke="#191970" points="328.3913,-132.8923 318.0697,-135.2828 327.6292,-139.8507 328.3913,-132.8923"/>
</g>
<!-- Node168 -->
<g id="node17" class="node">
<title>Node168</title>
<g id="a_node17"><a xlink:href="structchi_1_1GraphStruct.html#a27c5062196f73eae3125c0baeb592d00" target="_top" xlink:title="Get the DataType of the struct. ">
<polygon fill="#ffffff" stroke="#000000" points="684,-90 684,-109 818,-109 818,-90 684,-90"/>
<text text-anchor="middle" x="751" y="-97" font-family="Helvetica,sans-Serif" font-size="10.00" fill="#000000">chi::GraphStruct::dataType</text>
</a>
</g>
</g>
<!-- Node156&#45;&gt;Node168 -->
<g id="edge29" class="edge">
<title>Node156&#45;&gt;Node168</title>
<path fill="none" stroke="#191970" d="M328.3768,-122.9791C427.172,-117.4904 591.941,-108.3366 683.8397,-103.2311"/>
<polygon fill="#191970" stroke="#191970" points="327.9324,-119.4983 318.1419,-123.5477 328.3207,-126.4875 327.9324,-119.4983"/>
</g>
<!-- Node158 -->
<g id="node7" class="node">
<title>Node158</title>
<g id="a_node7"><a xlink:href="structchi_1_1GraphFunction.html#a44f8f791775e4878b6bde37140cd131d" target="_top" xlink:title="Get the local variables. ">
<polygon fill="#ffffff" stroke="#000000" points="536,-8.5 536,-38.5 635,-38.5 635,-8.5 536,-8.5"/>
<text text-anchor="start" x="544" y="-26.5" font-family="Helvetica,sans-Serif" font-size="10.00" fill="#000000">chi::GraphFunction</text>
<text text-anchor="middle" x="585.5" y="-15.5" font-family="Helvetica,sans-Serif" font-size="10.00" fill="#000000">::localVariables</text>
</a>
</g>
</g>
<!-- Node157&#45;&gt;Node158 -->
<g id="edge6" class="edge">
<title>Node157&#45;&gt;Node158</title>
<path fill="none" stroke="#191970" d="M487.2452,-47.9148C503.4568,-43.8865 520.5114,-39.6487 535.7778,-35.8552"/>
<polygon fill="#191970" stroke="#191970" points="486.1445,-44.5818 477.2836,-50.3901 487.8326,-51.3752 486.1445,-44.5818"/>
</g>
<!-- Node159 -->
<g id="node8" class="node">
<title>Node159</title>
<g id="a_node8"><a xlink:href="namespacechi.html#afd8b8d8a207d88359ad1e6a48d8f3bb1" target="_top" xlink:title="Serialize a GraphFunction to json. ">
<polygon fill="#ffffff" stroke="#000000" points="854,-14 854,-33 983,-33 983,-14 854,-14"/>
<text text-anchor="middle" x="918.5" y="-21" font-family="Helvetica,sans-Serif" font-size="10.00" fill="#000000">chi::graphFunctionToJson</text>
</a>
</g>
</g>
<!-- Node158&#45;&gt;Node159 -->
<g id="edge7" class="edge">
<title>Node158&#45;&gt;Node159</title>
<path fill="none" stroke="#191970" d="M645.5889,-23.5C704.309,-23.5 793.4223,-23.5 853.704,-23.5"/>
<polygon fill="#191970" stroke="#191970" points="645.3535,-20.0001 635.3535,-23.5 645.3534,-27.0001 645.3535,-20.0001"/>
</g>
<!-- Node159&#45;&gt;Node154 -->
<g id="edge8" class="edge">
<title>Node159&#45;&gt;Node154</title>
<path fill="none" stroke="#191970" d="M993.1818,-20.5464C1043.3999,-20.6428 1110.4898,-24.8539 1167,-42.5 1200.502,-52.9615 1234.822,-76.6609 1252.4367,-89.9712"/>
<polygon fill="#191970" stroke="#191970" points="993.0395,-17.0468 983.0519,-20.582 993.0642,-24.0467 993.0395,-17.0468"/>
</g>
<!-- Node160&#45;&gt;Node158 -->
<g id="edge10" class="edge">
<title>Node160&#45;&gt;Node158</title>
<path fill="none" stroke="#191970" d="M484.8966,-18.6223C501.8159,-19.4426 519.8037,-20.3147 535.8198,-21.0913"/>
<polygon fill="#191970" stroke="#191970" points="484.685,-15.108 474.5272,-18.1195 484.3459,-22.0998 484.685,-15.108"/>
</g>
<!-- Node162 -->
<g id="node11" class="node">
<title>Node162</title>
<g id="a_node11"><a xlink:href="structchi_1_1GraphStruct.html#a82a1da52a4bf23e1e7fef4d7228603b1" target="_top" xlink:title="Get the module. ">
<polygon fill="#ffffff" stroke="#000000" points="523,-137 523,-156 648,-156 648,-137 523,-137"/>
<text text-anchor="middle" x="585.5" y="-144" font-family="Helvetica,sans-Serif" font-size="10.00" fill="#000000">chi::GraphStruct::module</text>
</a>
</g>
</g>
<!-- Node161&#45;&gt;Node162 -->
<g id="edge12" class="edge">
<title>Node161&#45;&gt;Node162</title>
<path fill="none" stroke="#191970" d="M497.1819,-139.7649C505.7919,-139.7207 514.4868,-139.7748 522.889,-139.9275"/>
<polygon fill="#191970" stroke="#191970" points="497.1018,-136.2655 487.1362,-139.8622 497.1696,-143.2651 497.1018,-136.2655"/>
</g>
<!-- Node162&#45;&gt;Node161 -->
<g id="edge14" class="edge">
<title>Node162&#45;&gt;Node161</title>
<path fill="none" stroke="#191970" d="M512.6341,-153.2089C504.1507,-153.2816 495.5296,-153.2579 487.1362,-153.1378"/>
<polygon fill="#191970" stroke="#191970" points="512.9364,-156.7053 522.889,-153.0725 512.8433,-149.7059 512.9364,-156.7053"/>
</g>
<!-- Node163 -->
<g id="node12" class="node">
<title>Node163</title>
<g id="a_node12"><a xlink:href="structchi_1_1GraphModule.html#ac7147fb4875838de42b33a72834f3203" target="_top" xlink:title="Remove a struct from the module by pointer. ">
<polygon fill="#ffffff" stroke="#000000" points="685.5,-204.5 685.5,-234.5 816.5,-234.5 816.5,-204.5 685.5,-204.5"/>
<text text-anchor="start" x="693.5" y="-222.5" font-family="Helvetica,sans-Serif" font-size="10.00" fill="#000000">chi::GraphModule::remove</text>
<text text-anchor="middle" x="751" y="-211.5" font-family="Helvetica,sans-Serif" font-size="10.00" fill="#000000">Struct</text>
</a>
</g>
</g>
<!-- Node162&#45;&gt;Node163 -->
<g id="edge13" class="edge">
<title>Node162&#45;&gt;Node163</title>
<path fill="none" stroke="#191970" d="M616.6061,-160.2205C645.106,-172.7915 687.2218,-191.3682 716.6895,-204.366"/>
<polygon fill="#191970" stroke="#191970" points="617.6982,-156.8769 607.1362,-156.0435 614.8732,-163.2816 617.6982,-156.8769"/>
</g>
<!-- Node164 -->
<g id="node13" class="node">
<title>Node164</title>
<g id="a_node13"><a xlink:href="structchi_1_1GraphStruct.html#aba05cdce9627a23da0449801e068d85d" target="_top" xlink:title="Add a new type to the struct. ">
<polygon fill="#ffffff" stroke="#000000" points="1027.5,-128 1027.5,-147 1158.5,-147 1158.5,-128 1027.5,-128"/>
<text text-anchor="middle" x="1093" y="-135" font-family="Helvetica,sans-Serif" font-size="10.00" fill="#000000">chi::GraphStruct::addType</text>
</a>
</g>
</g>
<!-- Node162&#45;&gt;Node164 -->
<g id="edge15" class="edge">
<title>Node162&#45;&gt;Node164</title>
<path fill="none" stroke="#191970" d="M658.4367,-145.2065C757.2539,-143.4541 932.2047,-140.3515 1027.1938,-138.667"/>
<polygon fill="#191970" stroke="#191970" points="658.1748,-141.7105 648.2385,-145.3874 658.299,-148.7094 658.1748,-141.7105"/>
</g>
<!-- Node166 -->
<g id="node15" class="node">
<title>Node166</title>
<g id="a_node15"><a xlink:href="structchi_1_1GraphStruct.html#a89d3ea5e72ed6e7d8380fb82fa5eb521" target="_top" xlink:title="Change the type and name of a type. ">
<polygon fill="#ffffff" stroke="#000000" points="1020.5,-52 1020.5,-71 1165.5,-71 1165.5,-52 1020.5,-52"/>
<text text-anchor="middle" x="1093" y="-59" font-family="Helvetica,sans-Serif" font-size="10.00" fill="#000000">chi::GraphStruct::modifyType</text>
</a>
</g>
</g>
<!-- Node162&#45;&gt;Node166 -->
<g id="edge26" class="edge">
<title>Node162&#45;&gt;Node166</title>
<path fill="none" stroke="#191970" d="M603.3201,-130.095C621.8986,-114.1383 652.6358,-90.8375 684,-80.5 796.9123,-43.2848 936.8612,-46.5867 1020.3256,-53.349"/>
<polygon fill="#191970" stroke="#191970" points="600.8629,-127.5955 595.6811,-136.8367 605.4948,-132.8439 600.8629,-127.5955"/>
</g>
<!-- Node167 -->
<g id="node16" class="node">
<title>Node167</title>
<g id="a_node16"><a xlink:href="structchi_1_1GraphStruct.html#a759b0b44c984d7aaa6c2fb32e035264b" target="_top" xlink:title="Remove a type from a struct. ">
<polygon fill="#ffffff" stroke="#000000" points="1019,-166 1019,-185 1167,-185 1167,-166 1019,-166"/>
<text text-anchor="middle" x="1093" y="-173" font-family="Helvetica,sans-Serif" font-size="10.00" fill="#000000">chi::GraphStruct::removeType</text>
</a>
</g>
</g>
<!-- Node162&#45;&gt;Node167 -->
<g id="edge27" class="edge">
<title>Node162&#45;&gt;Node167</title>
<path fill="none" stroke="#191970" d="M658.3261,-155.1892C666.971,-156.0559 675.677,-156.8529 684,-157.5 800.7448,-166.5774 936.6188,-171.4261 1018.6493,-173.7294"/>
<polygon fill="#191970" stroke="#191970" points="658.5395,-151.6927 648.2323,-154.1445 657.8188,-158.6555 658.5395,-151.6927"/>
</g>
<!-- Node162&#45;&gt;Node168 -->
<g id="edge28" class="edge">
<title>Node162&#45;&gt;Node168</title>
<path fill="none" stroke="#191970" d="M628.7933,-134.2052C656.4274,-126.3575 691.7262,-116.333 717.2748,-109.0776"/>
<polygon fill="#191970" stroke="#191970" points="627.6548,-130.8901 618.9914,-136.9888 629.5672,-137.6238 627.6548,-130.8901"/>
</g>
<!-- Node165 -->
<g id="node14" class="node">
<title>Node165</title>
<g id="a_node14"><a xlink:href="structchi_1_1GraphStruct.html#ae1895cfaebac03e21d35ec2a155b3c10" target="_top" xlink:title="Get the types the struct contains. ">
<polygon fill="#ffffff" stroke="#000000" points="859.5,-90 859.5,-109 977.5,-109 977.5,-90 859.5,-90"/>
<text text-anchor="middle" x="918.5" y="-97" font-family="Helvetica,sans-Serif" font-size="10.00" fill="#000000">chi::GraphStruct::types</text>
</a>
</g>
</g>
<!-- Node164&#45;&gt;Node165 -->
<g id="edge16" class="edge">
<title>Node164&#45;&gt;Node165</title>
<path fill="none" stroke="#191970" d="M1017.3083,-127.7141C989.6363,-121.9428 960.3854,-114.9081 940.9556,-109.0924"/>
<polygon fill="#191970" stroke="#191970" points="1016.9124,-131.2054 1027.4107,-129.7786 1018.314,-124.3472 1016.9124,-131.2054"/>
</g>
<!-- Node165&#45;&gt;Node164 -->
<g id="edge17" class="edge">
<title>Node165&#45;&gt;Node164</title>
<path fill="none" stroke="#191970" d="M987.4932,-107.9074C1017.1254,-113.9224 1049.6988,-121.6582 1070.7,-127.9542"/>
<polygon fill="#191970" stroke="#191970" points="988.068,-104.4533 977.5777,-105.9381 986.7043,-111.3192 988.068,-104.4533"/>
</g>
<!-- Node165&#45;&gt;Node166 -->
<g id="edge18" class="edge">
<title>Node165&#45;&gt;Node166</title>
<path fill="none" stroke="#191970" d="M950.5898,-87.143C970.1903,-81.7249 996.0867,-75.6538 1020.4166,-70.6416"/>
<polygon fill="#191970" stroke="#191970" points="949.6022,-83.785 940.9556,-89.9076 951.5331,-90.5135 949.6022,-83.785"/>
</g>
<!-- Node165&#45;&gt;Node167 -->
<g id="edge20" class="edge">
<title>Node165&#45;&gt;Node167</title>
<path fill="none" stroke="#191970" d="M952.8224,-113.997C971.7329,-124.5813 995.9815,-138.2092 1019,-147.5 1038.5567,-155.3936 1062.3664,-160.8112 1077.6019,-165.9399"/>
<polygon fill="#191970" stroke="#191970" points="954.4355,-110.8892 943.9966,-109.0779 951.0276,-117.0036 954.4355,-110.8892"/>
</g>
<!-- Node165&#45;&gt;Node168 -->
<g id="edge22" class="edge">
<title>Node165&#45;&gt;Node168</title>
<path fill="none" stroke="#191970" d="M849.2691,-106.159C838.9865,-106.2891 828.4027,-106.2797 818.1635,-106.1309"/>
<polygon fill="#191970" stroke="#191970" points="849.4897,-109.6558 859.4274,-105.9825 849.368,-102.6569 849.4897,-109.6558"/>
</g>
<!-- Node169 -->
<g id="node18" class="node">
<title>Node169</title>
<g id="a_node18"><a xlink:href="namespacechi.html#af74872167b12e4ad8a387faab1f03fbb" target="_top" xlink:title="Serialize a GraphStruct to json. ">
<polygon fill="#ffffff" stroke="#000000" points="1034,-90 1034,-109 1152,-109 1152,-90 1034,-90"/>
<text text-anchor="middle" x="1093" y="-97" font-family="Helvetica,sans-Serif" font-size="10.00" fill="#000000">chi::graphStructToJson</text>
</a>
</g>
</g>
<!-- Node165&#45;&gt;Node169 -->
<g id="edge24" class="edge">
<title>Node165&#45;&gt;Node169</title>
<path fill="none" stroke="#191970" d="M987.9802,-99.5C1003.215,-99.5 1019.2047,-99.5 1033.9831,-99.5"/>
<polygon fill="#191970" stroke="#191970" points="987.5778,-96.0001 977.5777,-99.5 987.5777,-103.0001 987.5778,-96.0001"/>
</g>
<!-- Node166&#45;&gt;Node165 -->
<g id="edge19" class="edge">
<title>Node166&#45;&gt;Node165</title>
<path fill="none" stroke="#191970" d="M1060.9886,-73.8354C1037.6965,-80.2773 1005.4836,-87.6464 977.5777,-93.0619"/>
<polygon fill="#191970" stroke="#191970" points="1062.055,-77.1706 1070.7,-71.0458 1060.1224,-70.4427 1062.055,-77.1706"/>
</g>
<!-- Node167&#45;&gt;Node165 -->
<g id="edge21" class="edge">
<title>Node167&#45;&gt;Node165</title>
<path fill="none" stroke="#191970" d="M1010.6551,-161.9321C975.3328,-146.2381 940.0795,-122.9021 925.4828,-109.0422"/>
<polygon fill="#191970" stroke="#191970" points="1009.5387,-165.2604 1020.1114,-165.9441 1012.2727,-158.8164 1009.5387,-165.2604"/>
</g>
<!-- Node168&#45;&gt;Node165 -->
<g id="edge23" class="edge">
<title>Node168&#45;&gt;Node165</title>
<path fill="none" stroke="#191970" d="M828.1688,-92.7686C838.6715,-92.7092 849.3131,-92.7922 859.4274,-93.0175"/>
<polygon fill="#191970" stroke="#191970" points="828.1278,-89.2687 818.1635,-92.8691 828.1982,-96.2683 828.1278,-89.2687"/>
</g>
<!-- Node169&#45;&gt;Node154 -->
<g id="edge25" class="edge">
<title>Node169&#45;&gt;Node154</title>
<path fill="none" stroke="#191970" d="M1162.1549,-99.5C1175.5813,-99.5 1189.572,-99.5 1202.7417,-99.5"/>
<polygon fill="#191970" stroke="#191970" points="1162.0206,-96.0001 1152.0206,-99.5 1162.0205,-103.0001 1162.0206,-96.0001"/>
</g>
</g>
</svg>
        <g id="navigator" transform="translate(0 0)" fill="#404254">
                <rect fill="#f2f5e9" fill-opacity="0.5" stroke="#606060" stroke-width=".5" x="0" y="0" width="60" height="60"/>
                <use id="zoomplus" xlink:href="#zoomPlus" x="17" y="9" onmousedown="handleZoom(evt,'in')"/>
                <use id="zoomminus" xlink:href="#zoomMin" x="42" y="9" onmousedown="handleZoom(evt,'out')"/>
                <use id="reset" xlink:href="#resetDef" x="30" y="36" onmousedown="handleReset()"/>
                <g id="arrowUp" xlink:href="#dirArrow" transform="translate(30 24)" onmousedown="handlePan(0,-1)">
                  <use xlink:href="#rim" fill="#404040">
                        <set attributeName="fill" to="#808080" begin="arrowUp.mouseover" end="arrowUp.mouseout"/>
                  </use>
                  <path fill="none" stroke="white" stroke-width="1.5" d="M0,-3.0v7 M-2.5,-0.5L0,-3.0L2.5,-0.5"/>
                </g>
                <g id="arrowRight" xlink:href="#dirArrow" transform="rotate(90) translate(36 -43)" onmousedown="handlePan(1,0)">
                  <use xlink:href="#rim" fill="#404040">
                        <set attributeName="fill" to="#808080" begin="arrowRight.mouseover" end="arrowRight.mouseout"/>
                  </use>
                  <path fill="none" stroke="white" stroke-width="1.5" d="M0,-3.0v7 M-2.5,-0.5L0,-3.0L2.5,-0.5"/>
                </g>
                <g id="arrowDown" xlink:href="#dirArrow" transform="rotate(180) translate(-30 -48)" onmousedown="handlePan(0,1)">
                  <use xlink:href="#rim" fill="#404040">
                        <set attributeName="fill" to="#808080" begin="arrowDown.mouseover" end="arrowDown.mouseout"/>
                  </use>
                  <path fill="none" stroke="white" stroke-width="1.5" d="M0,-3.0v7 M-2.5,-0.5L0,-3.0L2.5,-0.5"/>
                </g>
                <g id="arrowLeft" xlink:href="#dirArrow" transform="rotate(270) translate(-36 17)" onmousedown="handlePan(-1,0)">
                  <use xlink:href="#rim" fill="#404040">
                        <set attributeName="fill" to="#808080" begin="arrowLeft.mouseover" end="arrowLeft.mouseout"/>
                  </use>
                  <path fill="none" stroke="white" stroke-width="1.5" d="M0,-3.0v7 M-2.5,-0.5L0,-3.0L2.5,-0.5"/>
                </g>
        </g>
        <svg viewBox="0 0 15 15" width="100%" height="30px" preserveAspectRatio="xMaxYMin meet">
         <g id="arrow_out" transform="scale(0.3 0.3)">
          <a xlink:href="structchi_1_1GraphModule_ac251cc6b4242642f6601c8c3607f5747_icgraph_org.svg" target="_base">
           <rect id="button" ry="5" rx="5" y="6" x="6" height="38" width="38"
                fill="#f2f5e9" fill-opacity="0.5" stroke="#606060" stroke-width="1.0"/>
           <path id="arrow"
             d="M 11.500037,31.436501 C 11.940474,20.09759 22.043105,11.32322 32.158766,21.979434 L 37.068811,17.246167 C 37.068811,17.246167 37.088388,32 37.088388,32 L 22.160133,31.978069 C 22.160133,31.978069 26.997745,27.140456 26.997745,27.140456 C 18.528582,18.264221 13.291696,25.230495 11.500037,31.436501 z"
             style="fill:#404040;"/>
          </a>
         </g>
        </svg>
</svg>
