<?xml version="1.0" encoding="UTF-8" standalone="no"?>
<!DOCTYPE svg PUBLIC "-//W3C//DTD SVG 1.1//EN"
 "http://www.w3.org/Graphics/SVG/1.1/DTD/svg11.dtd">
<!-- Generated by graphviz version 2.40.1 (20161225.0304)
 -->
<!-- Title: chi::NodeCompiler::llvmModule Pages: 1 -->
<!--zoomable 575 -->
<svg id="main" version="1.1" xmlns="http://www.w3.org/2000/svg" xmlns:xlink="http://www.w3.org/1999/xlink" xml:space="preserve" onload="init(evt)">
<style type="text/css"><![CDATA[
.edge:hover path { stroke: red; }
.edge:hover polygon { stroke: red; fill: red; }
]]></style>
<script type="text/javascript"><![CDATA[
var edges = document.getElementsByTagName('g');
if (edges && edges.length) {
  for (var i=0;i<edges.length;i++) {
    if (edges[i].id.substr(0,4)=='edge') {
      edges[i].setAttribute('class','edge');
    }
  }
}
]]></script>
        <defs>
                <circle id="rim" cx="0" cy="0" r="7"/>
                <circle id="rim2" cx="0" cy="0" r="3.5"/>
                <g id="zoomPlus">
                        <use xlink:href="#rim" fill="#404040">
                                <set attributeName="fill" to="#808080" begin="zoomplus.mouseover" end="zoomplus.mouseout"/>
                        </use>
                        <path d="M-4,0h8M0,-4v8" fill="none" stroke="white" stroke-width="1.5" pointer-events="none"/>
                </g>
                <g id="zoomMin">
                        <use xlink:href="#rim" fill="#404040">
                                <set attributeName="fill" to="#808080" begin="zoomminus.mouseover" end="zoomminus.mouseout"/>
                        </use>
                        <path d="M-4,0h8" fill="none" stroke="white" stroke-width="1.5" pointer-events="none"/>
                </g>
                <g id="dirArrow">
                        <path fill="none" stroke="white" stroke-width="1.5" d="M0,-3.0v7 M-2.5,-0.5L0,-3.0L2.5,-0.5"/>
                </g>
               <g id="resetDef">
                       <use xlink:href="#rim2" fill="#404040">
                               <set attributeName="fill" to="#808080" begin="reset.mouseover" end="reset.mouseout"/>
                       </use>
               </g>
        </defs>

<script type="text/javascript">
var viewWidth = 1125;
var viewHeight = 575;
var sectionId = 'dynsection-17';
</script>
<script xlink:href="svgpan.js"/>
<svg id="graph" class="graph">
<g id="viewport">
<title>chi::NodeCompiler::llvmModule</title>
<polygon fill="#ffffff" stroke="transparent" points="-4,4 -4,-570.9439 1121,-570.9439 1121,4 -4,4"/>
<!-- Node283 -->
<g id="node1" class="node">
<title>Node283</title>
<polygon fill="#bfbfbf" stroke="#000000" points="0,-271.4439 0,-301.4439 102,-301.4439 102,-271.4439 0,-271.4439"/>
<text text-anchor="start" x="8" y="-289.4439" font-family="Helvetica,sans-Serif" font-size="10.00" fill="#000000">chi::NodeCompiler::</text>
<text text-anchor="middle" x="51" y="-278.4439" font-family="Helvetica,sans-Serif" font-size="10.00" fill="#000000">llvmModule</text>
</g>
<!-- Node284 -->
<g id="node2" class="node">
<title>Node284</title>
<g id="a_node2"><a xlink:href="structchi_1_1NodeCompiler.html#a8a595537ffd4b3116059d59e3fd61f8b" target="_top" xlink:title="The node we&#39;re compiling. ">
<polygon fill="#ffffff" stroke="#000000" points="138,-276.9439 138,-295.9439 261,-295.9439 261,-276.9439 138,-276.9439"/>
<text text-anchor="middle" x="199.5" y="-283.9439" font-family="Helvetica,sans-Serif" font-size="10.00" fill="#000000">chi::NodeCompiler::node</text>
</a>
</g>
</g>
<!-- Node283&#45;&gt;Node284 -->
<g id="edge1" class="edge">
<title>Node283&#45;&gt;Node284</title>
<path fill="none" stroke="#191970" d="M112.2483,-286.4439C120.6828,-286.4439 129.3482,-286.4439 137.7909,-286.4439"/>
<polygon fill="#191970" stroke="#191970" points="112.1053,-282.944 102.1053,-286.4439 112.1052,-289.944 112.1053,-282.944"/>
</g>
<!-- Node285 -->
<g id="node3" class="node">
<title>Node285</title>
<g id="a_node3"><a xlink:href="structchi_1_1NodeCompiler.html#a60d81f093668468eb14be0e18e319ed5" target="_top" xlink:title="Constructor. ">
<polygon fill="#ffffff" stroke="#000000" points="306.5,-536.4439 306.5,-566.4439 408.5,-566.4439 408.5,-536.4439 306.5,-536.4439"/>
<text text-anchor="start" x="314.5" y="-554.4439" font-family="Helvetica,sans-Serif" font-size="10.00" fill="#000000">chi::NodeCompiler::</text>
<text text-anchor="middle" x="357.5" y="-543.4439" font-family="Helvetica,sans-Serif" font-size="10.00" fill="#000000">NodeCompiler</text>
</a>
</g>
</g>
<!-- Node284&#45;&gt;Node285 -->
<g id="edge2" class="edge">
<title>Node284&#45;&gt;Node285</title>
<path fill="none" stroke="#191970" d="M202.8408,-306.2448C211.1895,-350.185 236.776,-457.0397 297,-521.4439 302.6052,-527.4382 309.6686,-532.3974 316.9735,-536.4394"/>
<polygon fill="#191970" stroke="#191970" points="206.261,-305.4892 201.0409,-296.2696 199.3723,-306.7322 206.261,-305.4892"/>
</g>
<!-- Node286 -->
<g id="node4" class="node">
<title>Node286</title>
<g id="a_node4"><a xlink:href="structchi_1_1NodeCompiler.html#aa31a7c7955b51e5610b966f81bdc989d" target="_top" xlink:title="node().type().pure() ">
<polygon fill="#ffffff" stroke="#000000" points="297,-306.9439 297,-325.9439 418,-325.9439 418,-306.9439 297,-306.9439"/>
<text text-anchor="middle" x="357.5" y="-313.9439" font-family="Helvetica,sans-Serif" font-size="10.00" fill="#000000">chi::NodeCompiler::pure</text>
</a>
</g>
</g>
<!-- Node284&#45;&gt;Node286 -->
<g id="edge3" class="edge">
<title>Node284&#45;&gt;Node286</title>
<path fill="none" stroke="#191970" d="M270.9254,-293.2833C293.3694,-297.3805 316.6363,-302.3663 333.3904,-306.848"/>
<polygon fill="#191970" stroke="#191970" points="271.4974,-289.8302 261.0393,-291.5273 270.2731,-296.7223 271.4974,-289.8302"/>
</g>
<!-- Node288 -->
<g id="node6" class="node">
<title>Node288</title>
<g id="a_node6"><a xlink:href="structchi_1_1NodeCompiler.html#af391b4e8ecebe8859490749bac0425de" target="_top" xlink:title="Add the basic blocks and fill the pure blocks, but don&#39;t fill the code block nop if its already been ...">
<polygon fill="#ffffff" stroke="#000000" points="872.5,-254.4439 872.5,-284.4439 974.5,-284.4439 974.5,-254.4439 872.5,-254.4439"/>
<text text-anchor="start" x="880.5" y="-272.4439" font-family="Helvetica,sans-Serif" font-size="10.00" fill="#000000">chi::NodeCompiler::</text>
<text text-anchor="middle" x="923.5" y="-261.4439" font-family="Helvetica,sans-Serif" font-size="10.00" fill="#000000">compile_stage1</text>
</a>
</g>
</g>
<!-- Node284&#45;&gt;Node288 -->
<g id="edge28" class="edge">
<title>Node284&#45;&gt;Node288</title>
<path fill="none" stroke="#191970" d="M229.1213,-301.0142C282.0607,-331.0292 397.4584,-395.4439 505,-395.4439 505,-395.4439 505,-395.4439 643,-395.4439 729.0491,-395.4439 756.7378,-395.1578 832,-353.4439 863.6974,-335.8757 891.5152,-303.9396 907.9212,-284.6553"/>
<polygon fill="#191970" stroke="#191970" points="230.702,-297.8871 220.2763,-296.0012 227.2504,-303.977 230.702,-297.8871"/>
</g>
<!-- Node289 -->
<g id="node7" class="node">
<title>Node289</title>
<g id="a_node7"><a xlink:href="structchi_1_1NodeCompiler.html#ac3f5bd1f1f84fc1b35fc8ad54db3c844" target="_top" xlink:title="Fill the codegen block If compile_stage1 hasn&#39;t been called for this inputExecID, then it will be cal...">
<polygon fill="#ffffff" stroke="#000000" points="1015,-159.4439 1015,-189.4439 1117,-189.4439 1117,-159.4439 1015,-159.4439"/>
<text text-anchor="start" x="1023" y="-177.4439" font-family="Helvetica,sans-Serif" font-size="10.00" fill="#000000">chi::NodeCompiler::</text>
<text text-anchor="middle" x="1066" y="-166.4439" font-family="Helvetica,sans-Serif" font-size="10.00" fill="#000000">compile_stage2</text>
</a>
</g>
</g>
<!-- Node284&#45;&gt;Node289 -->
<g id="edge29" class="edge">
<title>Node284&#45;&gt;Node289</title>
<path fill="none" stroke="#191970" d="M215.4613,-304.1661C256.6976,-353.8844 372.8446,-489.4439 505,-489.4439 505,-489.4439 505,-489.4439 781,-489.4439 880.6081,-489.4439 912.5245,-458.6247 979,-384.4439 1032.7866,-324.4227 1055.3118,-227.0908 1062.8376,-189.5163"/>
<polygon fill="#191970" stroke="#191970" points="217.9291,-301.6585 208.8565,-296.187 212.5368,-306.1221 217.9291,-301.6585"/>
</g>
<!-- Node290 -->
<g id="node8" class="node">
<title>Node290</title>
<g id="a_node8"><a xlink:href="structchi_1_1NodeCompiler.html#a4599a3322541fe67adfa343c19b00dc4" target="_top" xlink:title="The number of input execs that we can compile If it&#39;s pure or an entry node, this is 1...">
<polygon fill="#ffffff" stroke="#000000" points="454,-240.4439 454,-270.4439 556,-270.4439 556,-240.4439 454,-240.4439"/>
<text text-anchor="start" x="462" y="-258.4439" font-family="Helvetica,sans-Serif" font-size="10.00" fill="#000000">chi::NodeCompiler::</text>
<text text-anchor="middle" x="505" y="-247.4439" font-family="Helvetica,sans-Serif" font-size="10.00" fill="#000000">inputExecs</text>
</a>
</g>
</g>
<!-- Node284&#45;&gt;Node290 -->
<g id="edge34" class="edge">
<title>Node284&#45;&gt;Node290</title>
<path fill="none" stroke="#191970" d="M254.7824,-275.4955C311.4278,-267.818 398.7833,-259.0028 453.8689,-255.4406"/>
<polygon fill="#191970" stroke="#191970" points="254.0003,-272.0705 244.5776,-276.9143 254.9643,-279.0038 254.0003,-272.0705"/>
</g>
<!-- Node295 -->
<g id="node13" class="node">
<title>Node295</title>
<g id="a_node13"><a xlink:href="structchi_1_1NodeCompiler.html#a7b0bd7aecf8cfc98804b31b21066b6d1" target="_top" xlink:title="Just node().context() ">
<polygon fill="#ffffff" stroke="#000000" points="454,-93.4439 454,-123.4439 556,-123.4439 556,-93.4439 454,-93.4439"/>
<text text-anchor="start" x="462" y="-111.4439" font-family="Helvetica,sans-Serif" font-size="10.00" fill="#000000">chi::NodeCompiler::</text>
<text text-anchor="middle" x="505" y="-100.4439" font-family="Helvetica,sans-Serif" font-size="10.00" fill="#000000">context</text>
</a>
</g>
</g>
<!-- Node284&#45;&gt;Node295 -->
<g id="edge30" class="edge">
<title>Node284&#45;&gt;Node295</title>
<path fill="none" stroke="#191970" d="M204.6727,-266.9634C216.133,-232.9289 246.6996,-164.5491 297,-132.4439 344.1546,-102.3466 409.2408,-96.4376 453.9815,-98.4762"/>
<polygon fill="#191970" stroke="#191970" points="201.2667,-266.1284 201.6223,-276.7172 207.9476,-268.2177 201.2667,-266.1284"/>
</g>
<!-- Node286&#45;&gt;Node284 -->
<g id="edge4" class="edge">
<title>Node286&#45;&gt;Node284</title>
<path fill="none" stroke="#191970" d="M286.709,-309.7201C264.0194,-305.5921 240.4168,-300.5412 223.4968,-296.0096"/>
<polygon fill="#191970" stroke="#191970" points="286.2404,-313.1914 296.6973,-311.4873 287.4601,-306.2985 286.2404,-313.1914"/>
</g>
<!-- Node287 -->
<g id="node5" class="node">
<title>Node287</title>
<g id="a_node5"><a xlink:href="structchi_1_1NodeCompiler.html#a7dc06ad0390f2113fbeb5e7c0cf3dd06" target="_top" xlink:title="Get the IndirectBrInst* for the pure. ">
<polygon fill="#ffffff" stroke="#000000" points="730,-298.4439 730,-328.4439 832,-328.4439 832,-298.4439 730,-298.4439"/>
<text text-anchor="start" x="738" y="-316.4439" font-family="Helvetica,sans-Serif" font-size="10.00" fill="#000000">chi::NodeCompiler::</text>
<text text-anchor="middle" x="781" y="-305.4439" font-family="Helvetica,sans-Serif" font-size="10.00" fill="#000000">jumpBackInst</text>
</a>
</g>
</g>
<!-- Node286&#45;&gt;Node287 -->
<g id="edge5" class="edge">
<title>Node286&#45;&gt;Node287</title>
<path fill="none" stroke="#191970" d="M428.2796,-315.9425C513.4527,-315.3391 654.3839,-314.3408 729.7381,-313.807"/>
<polygon fill="#191970" stroke="#191970" points="428.1521,-312.4432 418.1772,-316.0141 428.2018,-319.443 428.1521,-312.4432"/>
</g>
<!-- Node286&#45;&gt;Node288 -->
<g id="edge10" class="edge">
<title>Node286&#45;&gt;Node288</title>
<path fill="none" stroke="#191970" d="M401.2799,-328.5081C486.684,-349.8708 680.4184,-387.602 832,-337.4439 863.3791,-327.0606 892.7563,-301.2867 909.39,-284.6207"/>
<polygon fill="#191970" stroke="#191970" points="401.9667,-325.0713 391.4119,-325.991 400.2366,-331.8541 401.9667,-325.0713"/>
</g>
<!-- Node286&#45;&gt;Node289 -->
<g id="edge11" class="edge">
<title>Node286&#45;&gt;Node289</title>
<path fill="none" stroke="#191970" d="M376.3558,-332.6609C420.0666,-368.5306 533.0015,-451.4439 643,-451.4439 643,-451.4439 643,-451.4439 781,-451.4439 932.4528,-451.4439 1033.7118,-247.8012 1059.5076,-189.7312"/>
<polygon fill="#191970" stroke="#191970" points="378.478,-329.8734 368.558,-326.1527 373.9927,-335.2475 378.478,-329.8734"/>
</g>
<!-- Node286&#45;&gt;Node290 -->
<g id="edge12" class="edge">
<title>Node286&#45;&gt;Node290</title>
<path fill="none" stroke="#191970" d="M389.9722,-303.0147C413.222,-293.3995 444.545,-280.4456 468.634,-270.4834"/>
<polygon fill="#191970" stroke="#191970" points="388.4502,-299.8566 380.5469,-306.9126 391.1254,-306.3252 388.4502,-299.8566"/>
</g>
<!-- Node287&#45;&gt;Node288 -->
<g id="edge6" class="edge">
<title>Node287&#45;&gt;Node288</title>
<path fill="none" stroke="#191970" d="M839.3373,-295.431C851.049,-291.8147 863.2422,-288.0498 874.5936,-284.5448"/>
<polygon fill="#191970" stroke="#191970" points="838.1641,-292.1301 829.6419,-298.4246 840.2294,-298.8185 838.1641,-292.1301"/>
</g>
<!-- Node288&#45;&gt;Node284 -->
<g id="edge9" class="edge">
<title>Node288&#45;&gt;Node284</title>
<path fill="none" stroke="#191970" d="M911.4232,-293.0722C895.6742,-317.0587 866.0794,-352.5555 832,-371.4439 756.7378,-413.1578 729.0491,-413.4439 643,-413.4439 505,-413.4439 505,-413.4439 505,-413.4439 379.9144,-413.4439 244.2002,-326.2979 208.5042,-296.076"/>
<polygon fill="#191970" stroke="#191970" points="914.4455,-294.8399 916.7617,-284.5013 908.5039,-291.1389 914.4455,-294.8399"/>
</g>
<!-- Node288&#45;&gt;Node289 -->
<g id="edge7" class="edge">
<title>Node288&#45;&gt;Node289</title>
<path fill="none" stroke="#191970" d="M954.6592,-248.6711C981.319,-230.8978 1019.0809,-205.7233 1043.0542,-189.7411"/>
<polygon fill="#191970" stroke="#191970" points="952.4586,-245.9316 946.0795,-254.3908 956.3415,-251.756 952.4586,-245.9316"/>
</g>
<!-- Node289&#45;&gt;Node284 -->
<g id="edge8" class="edge">
<title>Node289&#45;&gt;Node284</title>
<path fill="none" stroke="#191970" d="M1062.8064,-199.5032C1055.2496,-245.359 1032.7125,-342.5055 979,-402.4439 912.5245,-476.6247 880.6081,-507.4439 781,-507.4439 505,-507.4439 505,-507.4439 505,-507.4439 357.8084,-507.4439 230.4753,-339.2827 204.382,-296.1394"/>
<polygon fill="#191970" stroke="#191970" points="1066.2826,-199.925 1064.3433,-189.5092 1059.3639,-198.8609 1066.2826,-199.925"/>
</g>
<!-- Node290&#45;&gt;Node284 -->
<g id="edge27" class="edge">
<title>Node290&#45;&gt;Node284</title>
<path fill="none" stroke="#191970" d="M443.9594,-267.1627C390.9545,-274.1668 314.5559,-281.9272 261.3225,-285.7192"/>
<polygon fill="#191970" stroke="#191970" points="444.4625,-270.6266 453.9038,-265.8191 443.5252,-263.6896 444.4625,-270.6266"/>
</g>
<!-- Node290&#45;&gt;Node288 -->
<g id="edge21" class="edge">
<title>Node290&#45;&gt;Node288</title>
<path fill="none" stroke="#191970" d="M566.3398,-257.4959C649.1618,-260.2665 795.2442,-265.1534 872.4192,-267.7351"/>
<polygon fill="#191970" stroke="#191970" points="566.4278,-253.9969 556.3163,-257.1606 566.1937,-260.993 566.4278,-253.9969"/>
</g>
<!-- Node290&#45;&gt;Node289 -->
<g id="edge22" class="edge">
<title>Node290&#45;&gt;Node289</title>
<path fill="none" stroke="#191970" d="M522.3509,-232.346C538.1819,-213.2028 563.4162,-187.1476 592,-174.4439 734.1266,-111.2775 924.7525,-141.3802 1014.798,-161.4638"/>
<polygon fill="#191970" stroke="#191970" points="519.48,-230.3318 515.9602,-240.3249 524.9435,-234.7079 519.48,-230.3318"/>
</g>
<!-- Node291 -->
<g id="node9" class="node">
<title>Node291</title>
<g id="a_node9"><a xlink:href="structchi_1_1NodeCompiler.html#ac63b5729c1bdb67a231a1f948ad59374" target="_top" xlink:title="Get the code block for a given inputExecID Requires that compile_stage1 has been called for this ID...">
<polygon fill="#ffffff" stroke="#000000" points="592,-184.4439 592,-214.4439 694,-214.4439 694,-184.4439 592,-184.4439"/>
<text text-anchor="start" x="600" y="-202.4439" font-family="Helvetica,sans-Serif" font-size="10.00" fill="#000000">chi::NodeCompiler::</text>
<text text-anchor="middle" x="643" y="-191.4439" font-family="Helvetica,sans-Serif" font-size="10.00" fill="#000000">codeBlock</text>
</a>
</g>
</g>
<!-- Node290&#45;&gt;Node291 -->
<g id="edge13" class="edge">
<title>Node290&#45;&gt;Node291</title>
<path fill="none" stroke="#191970" d="M551.5593,-236.5503C569.2713,-229.3628 589.1972,-221.2769 605.9165,-214.4923"/>
<polygon fill="#191970" stroke="#191970" points="549.9315,-233.4335 541.9815,-240.4369 552.5637,-239.9198 549.9315,-233.4335"/>
</g>
<!-- Node292 -->
<g id="node10" class="node">
<title>Node292</title>
<g id="a_node10"><a xlink:href="structchi_1_1NodeCompiler.html#a12c42cfcd23400c523184966ed238806" target="_top" xlink:title="Get the first block to jump to for the node If there are dependent pures, it&#39;s the first pure block O...">
<polygon fill="#ffffff" stroke="#000000" points="730,-172.4439 730,-202.4439 832,-202.4439 832,-172.4439 730,-172.4439"/>
<text text-anchor="start" x="738" y="-190.4439" font-family="Helvetica,sans-Serif" font-size="10.00" fill="#000000">chi::NodeCompiler::</text>
<text text-anchor="middle" x="781" y="-179.4439" font-family="Helvetica,sans-Serif" font-size="10.00" fill="#000000">firstBlock</text>
</a>
</g>
</g>
<!-- Node290&#45;&gt;Node292 -->
<g id="edge26" class="edge">
<title>Node290&#45;&gt;Node292</title>
<path fill="none" stroke="#191970" d="M566.4582,-248.5913C603.8073,-243.5544 652.1945,-235.4666 694,-223.4439 712.8514,-218.0225 733.1458,-209.7735 749.3882,-202.539"/>
<polygon fill="#191970" stroke="#191970" points="565.6915,-245.1617 556.2312,-249.9317 566.6013,-252.1024 565.6915,-245.1617"/>
</g>
<!-- Node294 -->
<g id="node12" class="node">
<title>Node294</title>
<g id="a_node12"><a xlink:href="structchi_1_1NodeCompiler.html#ab3db1222a66ea1767cd6dbc8a8a10963" target="_top" xlink:title="Get if compile_stage2 has been called for a given inputExecID. ">
<polygon fill="#ffffff" stroke="#000000" points="592,-20.4439 592,-50.4439 694,-50.4439 694,-20.4439 592,-20.4439"/>
<text text-anchor="start" x="600" y="-38.4439" font-family="Helvetica,sans-Serif" font-size="10.00" fill="#000000">chi::NodeCompiler::</text>
<text text-anchor="middle" x="643" y="-27.4439" font-family="Helvetica,sans-Serif" font-size="10.00" fill="#000000">compiled</text>
</a>
</g>
</g>
<!-- Node290&#45;&gt;Node294 -->
<g id="edge23" class="edge">
<title>Node290&#45;&gt;Node294</title>
<path fill="none" stroke="#191970" d="M515.2624,-230.8952C535.6066,-182.5659 580.114,-78.6128 592,-65.4439 597.2309,-59.6484 603.8508,-54.6499 610.574,-50.486"/>
<polygon fill="#191970" stroke="#191970" points="511.9531,-229.736 511.3083,-240.3112 518.4072,-232.4463 511.9531,-229.736"/>
</g>
<!-- Node291&#45;&gt;Node284 -->
<g id="edge20" class="edge">
<title>Node291&#45;&gt;Node284</title>
<path fill="none" stroke="#191970" d="M582.1077,-208.629C512.7307,-219.4931 396.1281,-238.9672 297,-261.4439 276.2087,-266.1582 253.0907,-272.057 234.5856,-276.9406"/>
<polygon fill="#191970" stroke="#191970" points="582.6511,-212.0867 591.9933,-207.0892 581.5737,-205.1701 582.6511,-212.0867"/>
</g>
<!-- Node291&#45;&gt;Node288 -->
<g id="edge14" class="edge">
<title>Node291&#45;&gt;Node288</title>
<path fill="none" stroke="#191970" d="M703.8994,-214.6416C754.205,-227.1956 824.8103,-244.8154 872.2559,-256.6557"/>
<polygon fill="#191970" stroke="#191970" points="704.6718,-211.2271 694.1219,-212.2016 702.9768,-218.0188 704.6718,-211.2271"/>
</g>
<!-- Node291&#45;&gt;Node289 -->
<g id="edge15" class="edge">
<title>Node291&#45;&gt;Node289</title>
<path fill="none" stroke="#191970" d="M679.6934,-179.9626C694.8274,-172.9678 712.8191,-165.9455 730,-162.4439 829.2328,-142.2192 948.2915,-154.9203 1014.7227,-165.207"/>
<polygon fill="#191970" stroke="#191970" points="678.1798,-176.8067 670.6724,-184.2826 681.2033,-183.1201 678.1798,-176.8067"/>
</g>
<!-- Node291&#45;&gt;Node292 -->
<g id="edge16" class="edge">
<title>Node291&#45;&gt;Node292</title>
<path fill="none" stroke="#191970" d="M704.4957,-194.0964C712.872,-193.3681 721.3977,-192.6267 729.571,-191.916"/>
<polygon fill="#191970" stroke="#191970" points="704.0453,-190.6223 694.3861,-194.9755 704.6517,-197.596 704.0453,-190.6223"/>
</g>
<!-- Node292&#45;&gt;Node284 -->
<g id="edge19" class="edge">
<title>Node292&#45;&gt;Node284</title>
<path fill="none" stroke="#191970" d="M719.6363,-177.1144C711.0495,-176.0082 702.3193,-175.062 694,-174.4439 648.7913,-171.0849 637.1054,-169.9034 592,-174.4439 458.8773,-187.8446 422.8978,-189.1563 297,-234.4439 265.9512,-245.6127 232.6112,-265.247 214.0747,-276.9296"/>
<polygon fill="#191970" stroke="#191970" points="719.2361,-180.5922 729.6175,-178.4764 720.1826,-173.6564 719.2361,-180.5922"/>
</g>
<!-- Node292&#45;&gt;Node288 -->
<g id="edge18" class="edge">
<title>Node292&#45;&gt;Node288</title>
<path fill="none" stroke="#191970" d="M815.9582,-207.5602C840.9972,-221.9686 874.1939,-241.0713 897.0464,-254.2215"/>
<polygon fill="#191970" stroke="#191970" points="817.5498,-204.438 807.1367,-202.4839 814.0585,-210.5052 817.5498,-204.438"/>
</g>
<!-- Node293 -->
<g id="node11" class="node">
<title>Node293</title>
<g id="a_node11"><a xlink:href="structchi_1_1FunctionCompiler.html#ad5d91d8dbaa379a0b90107f37427dec8" target="_top" xlink:title="Generates the contents of the function. ">
<polygon fill="#ffffff" stroke="#000000" points="868,-172.4439 868,-202.4439 979,-202.4439 979,-172.4439 868,-172.4439"/>
<text text-anchor="start" x="876" y="-190.4439" font-family="Helvetica,sans-Serif" font-size="10.00" fill="#000000">chi::FunctionCompiler</text>
<text text-anchor="middle" x="923.5" y="-179.4439" font-family="Helvetica,sans-Serif" font-size="10.00" fill="#000000">::compile</text>
</a>
</g>
</g>
<!-- Node292&#45;&gt;Node293 -->
<g id="edge17" class="edge">
<title>Node292&#45;&gt;Node293</title>
<path fill="none" stroke="#191970" d="M842.318,-187.4439C850.8478,-187.4439 859.5713,-187.4439 867.9866,-187.4439"/>
<polygon fill="#191970" stroke="#191970" points="842.0433,-183.944 832.0433,-187.4439 842.0432,-190.944 842.0433,-183.944"/>
</g>
<!-- Node294&#45;&gt;Node284 -->
<g id="edge25" class="edge">
<title>Node294&#45;&gt;Node284</title>
<path fill="none" stroke="#191970" d="M581.6616,-32.3437C507.1744,-31.7236 381.0921,-41.1387 297,-103.4439 235.3905,-149.0913 208.8061,-245.4651 201.6137,-276.5528"/>
<polygon fill="#191970" stroke="#191970" points="581.7694,-35.8456 591.8199,-32.4934 581.8726,-28.8464 581.7694,-35.8456"/>
</g>
<!-- Node294&#45;&gt;Node289 -->
<g id="edge24" class="edge">
<title>Node294&#45;&gt;Node289</title>
<path fill="none" stroke="#191970" d="M698.3293,-53.6254C782.6923,-81.3475 941.9206,-133.6707 1020.2003,-159.3938"/>
<polygon fill="#191970" stroke="#191970" points="699.2632,-50.2482 688.6703,-50.4514 697.0779,-56.8984 699.2632,-50.2482"/>
</g>
<!-- Node295&#45;&gt;Node284 -->
<g id="edge31" class="edge">
<title>Node295&#45;&gt;Node284</title>
<path fill="none" stroke="#191970" d="M443.9776,-113.0966C399.9275,-115.418 340.7469,-122.5216 297,-150.4439 246.6257,-182.5962 216.0432,-251.13 204.6223,-276.9106"/>
<polygon fill="#191970" stroke="#191970" points="444.1541,-116.5922 453.9815,-112.6336 443.8304,-109.5997 444.1541,-116.5922"/>
</g>
<!-- Node295&#45;&gt;Node288 -->
<g id="edge32" class="edge">
<title>Node295&#45;&gt;Node288</title>
<path fill="none" stroke="#191970" d="M566.478,-105.2612C635.9935,-104.5244 750.1345,-112.2053 832,-162.4439 855.0324,-176.5782 850.6219,-190.7491 868,-211.4439 880.7266,-226.5994 896.4108,-242.7871 907.8558,-254.1989"/>
<polygon fill="#191970" stroke="#191970" points="566.0747,-101.7674 556.1355,-105.4366 566.1935,-108.7664 566.0747,-101.7674"/>
</g>
<!-- Node295&#45;&gt;Node289 -->
<g id="edge33" class="edge">
<title>Node295&#45;&gt;Node289</title>
<path fill="none" stroke="#191970" d="M518.0979,-84.4227C532.6155,-60.5904 558.4751,-25.5115 592,-10.4439 633.349,8.1403 649.2751,-3.0413 694,-10.4439 826.0062,-32.2927 861.0778,-44.2192 979,-107.4439 1005.8824,-121.857 1033.1462,-144.4256 1049.8137,-159.3252"/>
<polygon fill="#191970" stroke="#191970" points="514.9634,-82.8489 512.9247,-93.2458 521.002,-86.3895 514.9634,-82.8489"/>
</g>
</g>
</svg>
        <g id="navigator" transform="translate(0 0)" fill="#404254">
                <rect fill="#f2f5e9" fill-opacity="0.5" stroke="#606060" stroke-width=".5" x="0" y="0" width="60" height="60"/>
                <use id="zoomplus" xlink:href="#zoomPlus" x="17" y="9" onmousedown="handleZoom(evt,'in')"/>
                <use id="zoomminus" xlink:href="#zoomMin" x="42" y="9" onmousedown="handleZoom(evt,'out')"/>
                <use id="reset" xlink:href="#resetDef" x="30" y="36" onmousedown="handleReset()"/>
                <g id="arrowUp" xlink:href="#dirArrow" transform="translate(30 24)" onmousedown="handlePan(0,-1)">
                  <use xlink:href="#rim" fill="#404040">
                        <set attributeName="fill" to="#808080" begin="arrowUp.mouseover" end="arrowUp.mouseout"/>
                  </use>
                  <path fill="none" stroke="white" stroke-width="1.5" d="M0,-3.0v7 M-2.5,-0.5L0,-3.0L2.5,-0.5"/>
                </g>
                <g id="arrowRight" xlink:href="#dirArrow" transform="rotate(90) translate(36 -43)" onmousedown="handlePan(1,0)">
                  <use xlink:href="#rim" fill="#404040">
                        <set attributeName="fill" to="#808080" begin="arrowRight.mouseover" end="arrowRight.mouseout"/>
                  </use>
                  <path fill="none" stroke="white" stroke-width="1.5" d="M0,-3.0v7 M-2.5,-0.5L0,-3.0L2.5,-0.5"/>
                </g>
                <g id="arrowDown" xlink:href="#dirArrow" transform="rotate(180) translate(-30 -48)" onmousedown="handlePan(0,1)">
                  <use xlink:href="#rim" fill="#404040">
                        <set attributeName="fill" to="#808080" begin="arrowDown.mouseover" end="arrowDown.mouseout"/>
                  </use>
                  <path fill="none" stroke="white" stroke-width="1.5" d="M0,-3.0v7 M-2.5,-0.5L0,-3.0L2.5,-0.5"/>
                </g>
                <g id="arrowLeft" xlink:href="#dirArrow" transform="rotate(270) translate(-36 17)" onmousedown="handlePan(-1,0)">
                  <use xlink:href="#rim" fill="#404040">
                        <set attributeName="fill" to="#808080" begin="arrowLeft.mouseover" end="arrowLeft.mouseout"/>
                  </use>
                  <path fill="none" stroke="white" stroke-width="1.5" d="M0,-3.0v7 M-2.5,-0.5L0,-3.0L2.5,-0.5"/>
                </g>
        </g>
        <svg viewBox="0 0 15 15" width="100%" height="30px" preserveAspectRatio="xMaxYMin meet">
         <g id="arrow_out" transform="scale(0.3 0.3)">
          <a xlink:href="structchi_1_1NodeCompiler_a3825379c4840a017b6ab91ec5b42cc6c_icgraph_org.svg" target="_base">
           <rect id="button" ry="5" rx="5" y="6" x="6" height="38" width="38"
                fill="#f2f5e9" fill-opacity="0.5" stroke="#606060" stroke-width="1.0"/>
           <path id="arrow"
             d="M 11.500037,31.436501 C 11.940474,20.09759 22.043105,11.32322 32.158766,21.979434 L 37.068811,17.246167 C 37.068811,17.246167 37.088388,32 37.088388,32 L 22.160133,31.978069 C 22.160133,31.978069 26.997745,27.140456 26.997745,27.140456 C 18.528582,18.264221 13.291696,25.230495 11.500037,31.436501 z"
             style="fill:#404040;"/>
          </a>
         </g>
        </svg>
</svg>
