<?xml version="1.0" encoding="UTF-8" standalone="no"?>
<!DOCTYPE svg PUBLIC "-//W3C//DTD SVG 1.1//EN"
 "http://www.w3.org/Graphics/SVG/1.1/DTD/svg11.dtd">
<!-- Generated by graphviz version 2.40.1 (20161225.0304)
 -->
<!-- Title: chig::GraphFunction::dataInputs Pages: 1 -->
<svg width="1057pt" height="381pt"
 viewBox="0.00 0.00 1057.00 380.77" xmlns="http://www.w3.org/2000/svg" xmlns:xlink="http://www.w3.org/1999/xlink">
<g id="graph0" class="graph" transform="scale(1 1) rotate(0) translate(4 376.774)">
<title>chig::GraphFunction::dataInputs</title>
<polygon fill="#ffffff" stroke="transparent" points="-4,4 -4,-376.774 1053,-376.774 1053,4 -4,4"/>
<!-- Node144 -->
<g id="node1" class="node">
<title>Node144</title>
<polygon fill="#bfbfbf" stroke="#000000" points="0,-195.5 0,-225.5 104,-225.5 104,-195.5 0,-195.5"/>
<text text-anchor="start" x="8" y="-213.5" font-family="Helvetica,sans-Serif" font-size="10.00" fill="#000000">chig::GraphFunction</text>
<text text-anchor="middle" x="52" y="-202.5" font-family="Helvetica,sans-Serif" font-size="10.00" fill="#000000">::dataInputs</text>
</g>
<!-- Node145 -->
<g id="node2" class="node">
<title>Node145</title>
<g id="a_node2"><a xlink:href="namespacechig.html#a4f26546c4bc76c31cc822d0365be0f30" target="_top" xlink:title="Compile the graph to an llvm::Function (usually called from JsonModule::generateModule) ...">
<polygon fill="#ffffff" stroke="#000000" points="622,-299 622,-318 734,-318 734,-299 622,-299"/>
<text text-anchor="middle" x="678" y="-306" font-family="Helvetica,sans-Serif" font-size="10.00" fill="#000000">chig::compileFunction</text>
</a>
</g>
</g>
<!-- Node144&#45;&gt;Node145 -->
<g id="edge1" class="edge">
<title>Node144&#45;&gt;Node145</title>
<path fill="none" stroke="#191970" d="M76.3442,-232.213C117.4233,-267.0887 204.6967,-333.7764 293,-354.5 415.0457,-383.1425 452.2753,-374.0773 575,-348.5 605.4228,-342.1595 638.5883,-327.8256 658.8424,-318.1541"/>
<polygon fill="#191970" stroke="#191970" points="78.6206,-229.5545 68.7577,-225.6851 74.0549,-234.8606 78.6206,-229.5545"/>
</g>
<!-- Node147 -->
<g id="node4" class="node">
<title>Node147</title>
<g id="a_node4"><a xlink:href="structchig_1_1GraphFunction.html#abc41f524da8fd9b7308cb7abaa2b28c9" target="_top" xlink:title="Create a fresh NodeType for an entry. ">
<polygon fill="#ffffff" stroke="#000000" points="140,-129.5 140,-159.5 257,-159.5 257,-129.5 140,-129.5"/>
<text text-anchor="start" x="148" y="-147.5" font-family="Helvetica,sans-Serif" font-size="10.00" fill="#000000">chig::GraphFunction</text>
<text text-anchor="middle" x="198.5" y="-136.5" font-family="Helvetica,sans-Serif" font-size="10.00" fill="#000000">::createEntryNodeType</text>
</a>
</g>
</g>
<!-- Node144&#45;&gt;Node147 -->
<g id="edge3" class="edge">
<title>Node144&#45;&gt;Node147</title>
<path fill="none" stroke="#191970" d="M94.8873,-191.1788C117.2634,-181.098 144.2326,-168.9481 165.0463,-159.5713"/>
<polygon fill="#191970" stroke="#191970" points="93.2899,-188.0596 85.6101,-195.3583 96.1652,-194.4418 93.2899,-188.0596"/>
</g>
<!-- Node153 -->
<g id="node10" class="node">
<title>Node153</title>
<g id="a_node10"><a xlink:href="namespacechig.html#ad0fd9448ab1cd1d73351fad5967a7b9b" target="_top" xlink:title="Serialize a GraphFunction to json. ">
<polygon fill="#ffffff" stroke="#000000" points="611,-6 611,-25 745,-25 745,-6 611,-6"/>
<text text-anchor="middle" x="678" y="-13" font-family="Helvetica,sans-Serif" font-size="10.00" fill="#000000">chig::graphFunctionToJson</text>
</a>
</g>
</g>
<!-- Node144&#45;&gt;Node153 -->
<g id="edge25" class="edge">
<title>Node144&#45;&gt;Node153</title>
<path fill="none" stroke="#191970" d="M70.082,-187.1489C86.5625,-167.1057 112.473,-138.523 140,-119.5 264.0696,-33.7595 313.0974,-32.0496 463,-15.5 512.3443,-10.0523 568.448,-10.2651 610.969,-11.7272"/>
<polygon fill="#191970" stroke="#191970" points="67.172,-185.1818 63.6191,-195.1632 72.621,-189.576 67.172,-185.1818"/>
</g>
<!-- Node156 -->
<g id="node13" class="node">
<title>Node156</title>
<g id="a_node13"><a xlink:href="structchig_1_1GraphFunction.html#aa47e30665a08b671950c4e8411c7a4ba" target="_top" xlink:title="Gets the node with type lang:entry returns nullptr on failure Also returns nullptr if there are two e...">
<polygon fill="#ffffff" stroke="#000000" points="146.5,-239.5 146.5,-269.5 250.5,-269.5 250.5,-239.5 146.5,-239.5"/>
<text text-anchor="start" x="154.5" y="-257.5" font-family="Helvetica,sans-Serif" font-size="10.00" fill="#000000">chig::GraphFunction</text>
<text text-anchor="middle" x="198.5" y="-246.5" font-family="Helvetica,sans-Serif" font-size="10.00" fill="#000000">::entryNode</text>
</a>
</g>
</g>
<!-- Node144&#45;&gt;Node156 -->
<g id="edge15" class="edge">
<title>Node144&#45;&gt;Node156</title>
<path fill="none" stroke="#191970" d="M111.6138,-228.4045C123.7645,-232.0538 136.434,-235.859 148.2207,-239.3991"/>
<polygon fill="#191970" stroke="#191970" points="112.5914,-225.0437 102.0072,-225.5192 110.5778,-231.7479 112.5914,-225.0437"/>
</g>
<!-- Node159 -->
<g id="node16" class="node">
<title>Node159</title>
<g id="a_node16"><a xlink:href="structchig_1_1GraphFunction.html#a6aae3374651aca2f0973c81ecae2d848" target="_top" xlink:title="Get the LLVM function type for the function. ">
<polygon fill="#ffffff" stroke="#000000" points="467,-229.5 467,-259.5 571,-259.5 571,-229.5 467,-229.5"/>
<text text-anchor="start" x="475" y="-247.5" font-family="Helvetica,sans-Serif" font-size="10.00" fill="#000000">chig::GraphFunction</text>
<text text-anchor="middle" x="519" y="-236.5" font-family="Helvetica,sans-Serif" font-size="10.00" fill="#000000">::functionType</text>
</a>
</g>
</g>
<!-- Node144&#45;&gt;Node159 -->
<g id="edge22" class="edge">
<title>Node144&#45;&gt;Node159</title>
<path fill="none" stroke="#191970" d="M114.3065,-215.0362C207.1528,-221.7959 380.1511,-234.3911 466.7678,-240.6972"/>
<polygon fill="#191970" stroke="#191970" points="114.4393,-211.5367 104.2115,-214.3013 113.9309,-218.5182 114.4393,-211.5367"/>
</g>
<!-- Node146 -->
<g id="node3" class="node">
<title>Node146</title>
<g id="a_node3"><a xlink:href="structchig_1_1GraphModule.html#a4c3a1ba833c0bd7e9a3daf0fd42eb6c6" target="_top" xlink:title="Generate a llvm::Module from the module. ">
<polygon fill="#ffffff" stroke="#000000" points="793,-293.5 793,-323.5 897,-323.5 897,-293.5 793,-293.5"/>
<text text-anchor="start" x="801" y="-311.5" font-family="Helvetica,sans-Serif" font-size="10.00" fill="#000000">chig::GraphModule::</text>
<text text-anchor="middle" x="845" y="-300.5" font-family="Helvetica,sans-Serif" font-size="10.00" fill="#000000">generateModule</text>
</a>
</g>
</g>
<!-- Node145&#45;&gt;Node146 -->
<g id="edge2" class="edge">
<title>Node145&#45;&gt;Node146</title>
<path fill="none" stroke="#191970" d="M744.4681,-308.5C760.5187,-308.5 777.4462,-308.5 792.7399,-308.5"/>
<polygon fill="#191970" stroke="#191970" points="744.0732,-305.0001 734.0732,-308.5 744.0731,-312.0001 744.0732,-305.0001"/>
</g>
<!-- Node148 -->
<g id="node5" class="node">
<title>Node148</title>
<g id="a_node5"><a xlink:href="structchig_1_1GraphFunction.html#a1fd77fbd5bb46690fdc79cd9c6d35917" target="_top" xlink:title="Creates an entry node if it doesn&#39;t already exist, else just return it. ">
<polygon fill="#ffffff" stroke="#000000" points="301.5,-151.5 301.5,-181.5 418.5,-181.5 418.5,-151.5 301.5,-151.5"/>
<text text-anchor="start" x="309.5" y="-169.5" font-family="Helvetica,sans-Serif" font-size="10.00" fill="#000000">chig::GraphFunction</text>
<text text-anchor="middle" x="360" y="-158.5" font-family="Helvetica,sans-Serif" font-size="10.00" fill="#000000">::getOrInsertEntryNode</text>
</a>
</g>
</g>
<!-- Node147&#45;&gt;Node148 -->
<g id="edge4" class="edge">
<title>Node147&#45;&gt;Node148</title>
<path fill="none" stroke="#191970" d="M267.4841,-153.8972C278.7383,-155.4303 290.3041,-157.0058 301.2817,-158.5012"/>
<polygon fill="#191970" stroke="#191970" points="267.643,-150.3866 257.2621,-152.5047 266.6981,-157.3226 267.643,-150.3866"/>
</g>
<!-- Node149 -->
<g id="node6" class="node">
<title>Node149</title>
<g id="a_node6"><a xlink:href="structchig_1_1GraphFunction.html#a79cbfaf26d9a966ae8048c81dc09777e" target="_top" xlink:title="chig::GraphFunction\l::nodes">
<polygon fill="#ffffff" stroke="#000000" points="793,-147.5 793,-177.5 897,-177.5 897,-147.5 793,-147.5"/>
<text text-anchor="start" x="801" y="-165.5" font-family="Helvetica,sans-Serif" font-size="10.00" fill="#000000">chig::GraphFunction</text>
<text text-anchor="middle" x="845" y="-154.5" font-family="Helvetica,sans-Serif" font-size="10.00" fill="#000000">::nodes</text>
</a>
</g>
</g>
<!-- Node147&#45;&gt;Node149 -->
<g id="edge6" class="edge">
<title>Node147&#45;&gt;Node149</title>
<path fill="none" stroke="#191970" d="M267.3083,-142.0608C275.9569,-141.8292 284.6835,-141.632 293,-141.5 352.5481,-140.555 367.4632,-140.0054 427,-141.5 558.8381,-144.8096 713.8453,-153.9821 792.8989,-159.0405"/>
<polygon fill="#191970" stroke="#191970" points="267.1176,-138.5647 257.2207,-142.3465 267.3158,-145.5619 267.1176,-138.5647"/>
</g>
<!-- Node150 -->
<g id="node7" class="node">
<title>Node150</title>
<g id="a_node7"><a xlink:href="structchig_1_1GraphFunction.html#a242c9e82374bc304966506efd81ed0f5" target="_top" xlink:title="Rename an exec output If idx is out of range, this function does nothing. ">
<polygon fill="#ffffff" stroke="#000000" points="306.5,-63.5 306.5,-93.5 413.5,-93.5 413.5,-63.5 306.5,-63.5"/>
<text text-anchor="start" x="314.5" y="-81.5" font-family="Helvetica,sans-Serif" font-size="10.00" fill="#000000">chig::GraphFunction</text>
<text text-anchor="middle" x="360" y="-70.5" font-family="Helvetica,sans-Serif" font-size="10.00" fill="#000000">::renameExecOutput</text>
</a>
</g>
</g>
<!-- Node147&#45;&gt;Node150 -->
<g id="edge7" class="edge">
<title>Node147&#45;&gt;Node150</title>
<path fill="none" stroke="#191970" d="M245.119,-125.4483C269.9143,-115.3152 299.9713,-103.0318 323.121,-93.5713"/>
<polygon fill="#191970" stroke="#191970" points="243.4841,-122.3353 235.5514,-129.3583 246.1323,-128.8151 243.4841,-122.3353"/>
</g>
<!-- Node148&#45;&gt;Node149 -->
<g id="edge5" class="edge">
<title>Node148&#45;&gt;Node149</title>
<path fill="none" stroke="#191970" d="M428.6095,-165.9341C526.7153,-165.125 704.9237,-163.6553 792.9437,-162.9293"/>
<polygon fill="#191970" stroke="#191970" points="428.4731,-162.4351 418.5023,-166.0175 428.5309,-169.4348 428.4731,-162.4351"/>
</g>
<!-- Node151 -->
<g id="node8" class="node">
<title>Node151</title>
<g id="a_node8"><a xlink:href="structchig_1_1GraphFunction.html#ae155f716b072ef5f8e3ba064ae7ef8c0" target="_top" xlink:title="Get the function exec outputs. ">
<polygon fill="#ffffff" stroke="#000000" points="467,-25.5 467,-55.5 571,-55.5 571,-25.5 467,-25.5"/>
<text text-anchor="start" x="475" y="-43.5" font-family="Helvetica,sans-Serif" font-size="10.00" fill="#000000">chig::GraphFunction</text>
<text text-anchor="middle" x="519" y="-32.5" font-family="Helvetica,sans-Serif" font-size="10.00" fill="#000000">::execOutputs</text>
</a>
</g>
</g>
<!-- Node150&#45;&gt;Node151 -->
<g id="edge8" class="edge">
<title>Node150&#45;&gt;Node151</title>
<path fill="none" stroke="#191970" d="M423.6221,-63.2947C437.9669,-59.8664 453.0308,-56.2662 466.8411,-52.9656"/>
<polygon fill="#191970" stroke="#191970" points="422.7426,-59.9063 413.8301,-65.6349 424.3698,-66.7145 422.7426,-59.9063"/>
</g>
<!-- Node152 -->
<g id="node9" class="node">
<title>Node152</title>
<g id="a_node9"><a xlink:href="structchig_1_1GraphFunction.html#ac7c52122fef0c74d9d0ee04af9a741c4" target="_top" xlink:title="Create a fresh NodeType for an exit. ">
<polygon fill="#ffffff" stroke="#000000" points="622.5,-63.5 622.5,-93.5 733.5,-93.5 733.5,-63.5 622.5,-63.5"/>
<text text-anchor="start" x="630.5" y="-81.5" font-family="Helvetica,sans-Serif" font-size="10.00" fill="#000000">chig::GraphFunction</text>
<text text-anchor="middle" x="678" y="-70.5" font-family="Helvetica,sans-Serif" font-size="10.00" fill="#000000">::createExitNodeType</text>
</a>
</g>
</g>
<!-- Node151&#45;&gt;Node152 -->
<g id="edge9" class="edge">
<title>Node151&#45;&gt;Node152</title>
<path fill="none" stroke="#191970" d="M580.8462,-55.2808C594.4936,-58.5425 608.872,-61.9788 622.2604,-65.1786"/>
<polygon fill="#191970" stroke="#191970" points="581.6022,-51.863 571.0625,-52.9426 579.975,-58.6713 581.6022,-51.863"/>
</g>
<!-- Node151&#45;&gt;Node153 -->
<g id="edge12" class="edge">
<title>Node151&#45;&gt;Node153</title>
<path fill="none" stroke="#191970" d="M580.9933,-30.7526C593.0034,-28.8642 605.5743,-26.8877 617.5346,-25.0071"/>
<polygon fill="#191970" stroke="#191970" points="580.3975,-27.3032 571.0625,-32.3141 581.4848,-34.2183 580.3975,-27.3032"/>
</g>
<!-- Node152&#45;&gt;Node149 -->
<g id="edge10" class="edge">
<title>Node152&#45;&gt;Node149</title>
<path fill="none" stroke="#191970" d="M722.1915,-97.7283C729.8427,-101.2164 737.686,-104.8939 745,-108.5 770.1292,-120.8897 798.1486,-136.1492 818.12,-147.2827"/>
<polygon fill="#191970" stroke="#191970" points="723.5574,-94.5049 713.0025,-93.5852 720.6801,-100.8863 723.5574,-94.5049"/>
</g>
<!-- Node152&#45;&gt;Node150 -->
<g id="edge11" class="edge">
<title>Node152&#45;&gt;Node150</title>
<path fill="none" stroke="#191970" d="M612.0282,-78.5C553.2372,-78.5 468.2711,-78.5 413.5848,-78.5"/>
<polygon fill="#191970" stroke="#191970" points="612.3227,-82.0001 622.3226,-78.5 612.3226,-75.0001 612.3227,-82.0001"/>
</g>
<!-- Node154 -->
<g id="node11" class="node">
<title>Node154</title>
<g id="a_node11"><a xlink:href="namespacechig.html#aaef3bb08f472ae32b2d3b292e69a007a" target="_top" xlink:title="Serialize a JsonModule to json. ">
<polygon fill="#ffffff" stroke="#000000" points="781,-6 781,-25 909,-25 909,-6 781,-6"/>
<text text-anchor="middle" x="845" y="-13" font-family="Helvetica,sans-Serif" font-size="10.00" fill="#000000">chig::graphModuleToJson</text>
</a>
</g>
</g>
<!-- Node153&#45;&gt;Node154 -->
<g id="edge13" class="edge">
<title>Node153&#45;&gt;Node154</title>
<path fill="none" stroke="#191970" d="M755.6566,-15.5C764.0806,-15.5 772.5843,-15.5 780.8225,-15.5"/>
<polygon fill="#191970" stroke="#191970" points="755.444,-12.0001 745.4439,-15.5 755.4439,-19.0001 755.444,-12.0001"/>
</g>
<!-- Node155 -->
<g id="node12" class="node">
<title>Node155</title>
<g id="a_node12"><a xlink:href="structchig_1_1GraphModule.html#accb1a64da697a29e28d78a9a09bd52ff" target="_top" xlink:title="Serialize to disk in the context. ">
<polygon fill="#ffffff" stroke="#000000" points="945,-.5 945,-30.5 1049,-30.5 1049,-.5 945,-.5"/>
<text text-anchor="start" x="953" y="-18.5" font-family="Helvetica,sans-Serif" font-size="10.00" fill="#000000">chig::GraphModule::</text>
<text text-anchor="middle" x="997" y="-7.5" font-family="Helvetica,sans-Serif" font-size="10.00" fill="#000000">saveToDisk</text>
</a>
</g>
</g>
<!-- Node154&#45;&gt;Node155 -->
<g id="edge14" class="edge">
<title>Node154&#45;&gt;Node155</title>
<path fill="none" stroke="#191970" d="M919.0838,-15.5C927.6912,-15.5 936.3313,-15.5 944.5622,-15.5"/>
<polygon fill="#191970" stroke="#191970" points="919.0212,-12.0001 909.0211,-15.5 919.0211,-19.0001 919.0212,-12.0001"/>
</g>
<!-- Node156&#45;&gt;Node145 -->
<g id="edge17" class="edge">
<title>Node156&#45;&gt;Node145</title>
<path fill="none" stroke="#191970" d="M260.9468,-261.5326C354.9863,-272.1231 531.5303,-292.005 621.7724,-302.1678"/>
<polygon fill="#191970" stroke="#191970" points="261.0566,-258.0229 250.7277,-260.3817 260.2732,-264.9789 261.0566,-258.0229"/>
</g>
<!-- Node156&#45;&gt;Node148 -->
<g id="edge21" class="edge">
<title>Node156&#45;&gt;Node148</title>
<path fill="none" stroke="#191970" d="M235.4126,-234.3866C264.9035,-218.3173 305.5882,-196.1485 332.3297,-181.5773"/>
<polygon fill="#191970" stroke="#191970" points="233.3692,-231.5141 226.2628,-239.3723 236.7186,-237.6609 233.3692,-231.5141"/>
</g>
<!-- Node156&#45;&gt;Node149 -->
<g id="edge16" class="edge">
<title>Node156&#45;&gt;Node149</title>
<path fill="none" stroke="#191970" d="M260.6153,-246.2831C362.0648,-232.7683 569.5998,-204.7254 745,-178.5 760.5628,-176.1731 777.4665,-173.5176 792.8713,-171.0476"/>
<polygon fill="#191970" stroke="#191970" points="259.9948,-242.8348 250.5439,-247.6235 260.9183,-249.7736 259.9948,-242.8348"/>
</g>
<!-- Node157 -->
<g id="node14" class="node">
<title>Node157</title>
<g id="a_node14"><a xlink:href="namespacechig.html#ad868894793d664b6ae994f24fc781b4b" target="_top" xlink:title="The make sure that nodes are called before their outputs are used. ">
<polygon fill="#ffffff" stroke="#000000" points="293,-315.5 293,-345.5 427,-345.5 427,-315.5 293,-315.5"/>
<text text-anchor="start" x="301" y="-333.5" font-family="Helvetica,sans-Serif" font-size="10.00" fill="#000000">chig::validateFunctionNode</text>
<text text-anchor="middle" x="360" y="-322.5" font-family="Helvetica,sans-Serif" font-size="10.00" fill="#000000">Inputs</text>
</a>
</g>
</g>
<!-- Node156&#45;&gt;Node157 -->
<g id="edge18" class="edge">
<title>Node156&#45;&gt;Node157</title>
<path fill="none" stroke="#191970" d="M238.0507,-274.1014C254.9235,-282.3727 274.8665,-292.0294 293,-300.5 303.6233,-305.4624 315.2642,-310.7325 325.8193,-315.4484"/>
<polygon fill="#191970" stroke="#191970" points="239.5423,-270.9346 229.0237,-269.6651 236.4547,-277.217 239.5423,-270.9346"/>
</g>
<!-- Node158 -->
<g id="node15" class="node">
<title>Node158</title>
<g id="a_node15"><a xlink:href="namespacechig.html#afccf44a2370371aae836862d9731155e" target="_top" xlink:title="Validate that a function is compilable. ">
<polygon fill="#ffffff" stroke="#000000" points="463,-320 463,-339 575,-339 575,-320 463,-320"/>
<text text-anchor="middle" x="519" y="-327" font-family="Helvetica,sans-Serif" font-size="10.00" fill="#000000">chig::validateFunction</text>
</a>
</g>
</g>
<!-- Node157&#45;&gt;Node158 -->
<g id="edge19" class="edge">
<title>Node157&#45;&gt;Node158</title>
<path fill="none" stroke="#191970" d="M437.4911,-330.0126C446.0943,-329.9585 454.7289,-329.9042 462.9915,-329.8523"/>
<polygon fill="#191970" stroke="#191970" points="437.4081,-326.513 427.4303,-330.0759 437.4522,-333.5129 437.4081,-326.513"/>
</g>
<!-- Node158&#45;&gt;Node145 -->
<g id="edge20" class="edge">
<title>Node158&#45;&gt;Node145</title>
<path fill="none" stroke="#191970" d="M585.186,-320.7584C597.3959,-319.1458 610.037,-317.4762 621.9128,-315.9077"/>
<polygon fill="#191970" stroke="#191970" points="584.513,-317.3168 575.0575,-322.0962 585.4297,-324.2566 584.513,-317.3168"/>
</g>
<!-- Node159&#45;&gt;Node145 -->
<g id="edge24" class="edge">
<title>Node159&#45;&gt;Node145</title>
<path fill="none" stroke="#191970" d="M565.8352,-263.3519C594.8971,-275.0498 631.0086,-289.5852 654.2753,-298.9504"/>
<polygon fill="#191970" stroke="#191970" points="566.8621,-259.9924 556.2784,-259.5052 564.2482,-266.4861 566.8621,-259.9924"/>
</g>
<!-- Node159&#45;&gt;Node149 -->
<g id="edge23" class="edge">
<title>Node159&#45;&gt;Node149</title>
<path fill="none" stroke="#191970" d="M581.4136,-242.032C627.5123,-238.8228 691.3112,-231.4465 745,-214.5 772.8042,-205.7238 802.1186,-189.5481 821.7663,-177.5594"/>
<polygon fill="#191970" stroke="#191970" points="581.022,-238.55 571.27,-242.691 581.4759,-245.5353 581.022,-238.55"/>
</g>
</g>
</svg>
