<?xml version="1.0" encoding="UTF-8" standalone="no"?>
<!DOCTYPE svg PUBLIC "-//W3C//DTD SVG 1.1//EN"
 "http://www.w3.org/Graphics/SVG/1.1/DTD/svg11.dtd">
<!-- Generated by graphviz version 2.40.1 (20161225.0304)
 -->
<!-- Title: chig::NodeType::dataInputs Pages: 1 -->
<!--zoomable 167 -->
<svg id="main" version="1.1" xmlns="http://www.w3.org/2000/svg" xmlns:xlink="http://www.w3.org/1999/xlink" xml:space="preserve" onload="init(evt)">
<style type="text/css"><![CDATA[
.edge:hover path { stroke: red; }
.edge:hover polygon { stroke: red; fill: red; }
]]></style>
<script type="text/javascript"><![CDATA[
var edges = document.getElementsByTagName('g');
if (edges && edges.length) {
  for (var i=0;i<edges.length;i++) {
    if (edges[i].id.substr(0,4)=='edge') {
      edges[i].setAttribute('class','edge');
    }
  }
}
]]></script>
        <defs>
                <circle id="rim" cx="0" cy="0" r="7"/>
                <circle id="rim2" cx="0" cy="0" r="3.5"/>
                <g id="zoomPlus">
                        <use xlink:href="#rim" fill="#404040">
                                <set attributeName="fill" to="#808080" begin="zoomplus.mouseover" end="zoomplus.mouseout"/>
                        </use>
                        <path d="M-4,0h8M0,-4v8" fill="none" stroke="white" stroke-width="1.5" pointer-events="none"/>
                </g>
                <g id="zoomMin">
                        <use xlink:href="#rim" fill="#404040">
                                <set attributeName="fill" to="#808080" begin="zoomminus.mouseover" end="zoomminus.mouseout"/>
                        </use>
                        <path d="M-4,0h8" fill="none" stroke="white" stroke-width="1.5" pointer-events="none"/>
                </g>
                <g id="dirArrow">
                        <path fill="none" stroke="white" stroke-width="1.5" d="M0,-3.0v7 M-2.5,-0.5L0,-3.0L2.5,-0.5"/>
                </g>
               <g id="resetDef">
                       <use xlink:href="#rim2" fill="#404040">
                               <set attributeName="fill" to="#808080" begin="reset.mouseover" end="reset.mouseout"/>
                       </use>
               </g>
        </defs>

<script type="text/javascript">
var viewWidth = 1055;
var viewHeight = 167;
var sectionId = 'dynsection-4';
</script>
<script xlink:href="svgpan.js"/>
<svg id="graph" class="graph">
<g id="viewport">
<title>chig::NodeType::dataInputs</title>
<polygon fill="#ffffff" stroke="transparent" points="-4,4 -4,-163 1051,-163 1051,4 -4,4"/>
<!-- Node38 -->
<g id="node1" class="node">
<title>Node38</title>
<polygon fill="#bfbfbf" stroke="#000000" points="0,-30 0,-49 137,-49 137,-30 0,-30"/>
<text text-anchor="middle" x="68.5" y="-37" font-family="Helvetica,sans-Serif" font-size="10.00" fill="#000000">chig::NodeType::dataInputs</text>
</g>
<!-- Node39 -->
<g id="node2" class="node">
<title>Node39</title>
<g id="a_node2"><a xlink:href="namespacechig.html#ad3c2fc880f6843f9a8a0f5ee0d62249d" target="_top" xlink:title="Connects two nodes&#39; data connections. ">
<polygon fill="#ffffff" stroke="#000000" points="173,-112 173,-131 268,-131 268,-112 173,-112"/>
<text text-anchor="middle" x="220.5" y="-119" font-family="Helvetica,sans-Serif" font-size="10.00" fill="#000000">chig::connectData</text>
</a>
</g>
</g>
<!-- Node38&#45;&gt;Node39 -->
<g id="edge1" class="edge">
<title>Node38&#45;&gt;Node39</title>
<path fill="none" stroke="#191970" d="M95.1845,-53.8956C126.17,-70.6115 176.4035,-97.7111 202.8791,-111.994"/>
<polygon fill="#191970" stroke="#191970" points="96.6966,-50.7345 86.2338,-49.0669 93.373,-56.8952 96.6966,-50.7345"/>
</g>
<!-- Node45 -->
<g id="node8" class="node">
<title>Node45</title>
<g id="a_node8"><a xlink:href="namespacechig.html#a26aa6586df79345493de9fc130291c18" target="_top" xlink:title="Disconnect a data connection. ">
<polygon fill="#ffffff" stroke="#000000" points="441,-68 441,-87 549,-87 549,-68 441,-68"/>
<text text-anchor="middle" x="495" y="-75" font-family="Helvetica,sans-Serif" font-size="10.00" fill="#000000">chig::disconnectData</text>
</a>
</g>
</g>
<!-- Node38&#45;&gt;Node45 -->
<g id="edge16" class="edge">
<title>Node38&#45;&gt;Node45</title>
<path fill="none" stroke="#191970" d="M147.1867,-46.5108C232.5529,-54.1167 366.5628,-66.0566 440.8516,-72.6755"/>
<polygon fill="#191970" stroke="#191970" points="147.2958,-43.0067 137.0246,-45.6054 146.6745,-49.9791 147.2958,-43.0067"/>
</g>
<!-- Node48 -->
<g id="node11" class="node">
<title>Node48</title>
<g id="a_node11"><a xlink:href="structchig_1_1NodeInstance.html#ab7b23fb84fff7176f7a6e62ce3762153" target="_top" xlink:title="Set the type of the node instance. ">
<polygon fill="#ffffff" stroke="#000000" points="601.5,-.5 601.5,-30.5 702.5,-30.5 702.5,-.5 601.5,-.5"/>
<text text-anchor="start" x="609.5" y="-18.5" font-family="Helvetica,sans-Serif" font-size="10.00" fill="#000000">chig::NodeInstance</text>
<text text-anchor="middle" x="652" y="-7.5" font-family="Helvetica,sans-Serif" font-size="10.00" fill="#000000">::setType</text>
</a>
</g>
</g>
<!-- Node38&#45;&gt;Node48 -->
<g id="edge17" class="edge">
<title>Node38&#45;&gt;Node48</title>
<path fill="none" stroke="#191970" d="M147.1562,-36.2648C268.9182,-31.2566 499.6082,-21.768 601.4789,-17.578"/>
<polygon fill="#191970" stroke="#191970" points="146.9984,-32.7682 137.1507,-36.6763 147.2861,-39.7623 146.9984,-32.7682"/>
</g>
<!-- Node40 -->
<g id="node3" class="node">
<title>Node40</title>
<g id="a_node3"><a xlink:href="structchig_1_1NodeInstance.html#ac06ee5988ee5f130088fee83a550f4d2" target="_top" xlink:title="Get the containing GraphFunction. ">
<polygon fill="#ffffff" stroke="#000000" points="304,-106.5 304,-136.5 405,-136.5 405,-106.5 304,-106.5"/>
<text text-anchor="start" x="312" y="-124.5" font-family="Helvetica,sans-Serif" font-size="10.00" fill="#000000">chig::NodeInstance</text>
<text text-anchor="middle" x="354.5" y="-113.5" font-family="Helvetica,sans-Serif" font-size="10.00" fill="#000000">::function</text>
</a>
</g>
</g>
<!-- Node39&#45;&gt;Node40 -->
<g id="edge2" class="edge">
<title>Node39&#45;&gt;Node40</title>
<path fill="none" stroke="#191970" d="M278.3412,-114.8064C286.8324,-114.7013 295.5235,-114.7431 303.8553,-114.932"/>
<polygon fill="#191970" stroke="#191970" points="278.0499,-111.3113 268.1207,-115.0075 278.1876,-118.31 278.0499,-111.3113"/>
</g>
<!-- Node42 -->
<g id="node5" class="node">
<title>Node42</title>
<g id="a_node5"><a xlink:href="namespacechig.html#a62056798e67720d435705b99f7e16cd0" target="_top" xlink:title="Load a GraphFunction–must already exist (use createGraphFunctionDeclarationFromJson) ...">
<polygon fill="#ffffff" stroke="#000000" points="585,-134 585,-153 719,-153 719,-134 585,-134"/>
<text text-anchor="middle" x="652" y="-141" font-family="Helvetica,sans-Serif" font-size="10.00" fill="#000000">chig::jsonToGraphFunction</text>
</a>
</g>
</g>
<!-- Node39&#45;&gt;Node42 -->
<g id="edge15" class="edge">
<title>Node39&#45;&gt;Node42</title>
<path fill="none" stroke="#191970" d="M255.385,-134.4145C270.16,-139.2334 287.6987,-144.112 304,-146.5 400.8451,-160.6867 514.4778,-155.717 584.8695,-150.1546"/>
<polygon fill="#191970" stroke="#191970" points="256.2411,-131.0093 245.6468,-131.1193 253.9973,-137.64 256.2411,-131.0093"/>
</g>
<!-- Node40&#45;&gt;Node39 -->
<g id="edge3" class="edge">
<title>Node40&#45;&gt;Node39</title>
<path fill="none" stroke="#191970" d="M293.8329,-128.2231C285.2106,-128.2965 276.4472,-128.2196 268.1207,-127.9925"/>
<polygon fill="#191970" stroke="#191970" points="293.9107,-131.7224 303.8553,-128.068 293.8023,-124.7233 293.9107,-131.7224"/>
</g>
<!-- Node41 -->
<g id="node4" class="node">
<title>Node41</title>
<g id="a_node4"><a xlink:href="namespacechig.html#a8a2e0029b591b2c20b39d570753f123f" target="_top" xlink:title="Connects two nodes&#39; exec connections. ">
<polygon fill="#ffffff" stroke="#000000" points="446,-112 446,-131 544,-131 544,-112 446,-112"/>
<text text-anchor="middle" x="495" y="-119" font-family="Helvetica,sans-Serif" font-size="10.00" fill="#000000">chig::connectExec</text>
</a>
</g>
</g>
<!-- Node40&#45;&gt;Node41 -->
<g id="edge4" class="edge">
<title>Node40&#45;&gt;Node41</title>
<path fill="none" stroke="#191970" d="M415.2827,-114.8048C425.4642,-114.6863 435.9159,-114.76 445.7612,-115.0258"/>
<polygon fill="#191970" stroke="#191970" points="415.1585,-111.3064 405.2237,-114.9873 415.2856,-118.3052 415.1585,-111.3064"/>
</g>
<!-- Node40&#45;&gt;Node45 -->
<g id="edge9" class="edge">
<title>Node40&#45;&gt;Node45</title>
<path fill="none" stroke="#191970" d="M394.3244,-102.8758C409.6462,-97.4368 427.3613,-91.7636 443.62,-87.0618"/>
<polygon fill="#191970" stroke="#191970" points="392.8386,-99.692 384.6408,-106.4036 395.2348,-106.2691 392.8386,-99.692"/>
</g>
<!-- Node41&#45;&gt;Node40 -->
<g id="edge5" class="edge">
<title>Node41&#45;&gt;Node40</title>
<path fill="none" stroke="#191970" d="M435.7462,-128.176C425.594,-128.3137 415.1277,-128.2593 405.2237,-128.0127"/>
<polygon fill="#191970" stroke="#191970" points="435.8338,-131.675 445.7612,-127.9742 435.6927,-124.6764 435.8338,-131.675"/>
</g>
<!-- Node41&#45;&gt;Node42 -->
<g id="edge6" class="edge">
<title>Node41&#45;&gt;Node42</title>
<path fill="none" stroke="#191970" d="M554.406,-129.8244C564.3349,-131.2157 574.6976,-132.6678 584.805,-134.0841"/>
<polygon fill="#191970" stroke="#191970" points="554.634,-126.3222 544.245,-128.4006 553.6625,-133.2545 554.634,-126.3222"/>
</g>
<!-- Node43 -->
<g id="node6" class="node">
<title>Node43</title>
<g id="a_node6"><a xlink:href="namespacechig.html#a1f28de74faa271cf31249935c9640c58" target="_top" xlink:title="Load a GraphModule from json. ">
<polygon fill="#ffffff" stroke="#000000" points="755,-134 755,-153 883,-153 883,-134 755,-134"/>
<text text-anchor="middle" x="819" y="-141" font-family="Helvetica,sans-Serif" font-size="10.00" fill="#000000">chig::jsonToGraphModule</text>
</a>
</g>
</g>
<!-- Node42&#45;&gt;Node43 -->
<g id="edge7" class="edge">
<title>Node42&#45;&gt;Node43</title>
<path fill="none" stroke="#191970" d="M729.6566,-143.5C738.0806,-143.5 746.5843,-143.5 754.8225,-143.5"/>
<polygon fill="#191970" stroke="#191970" points="729.444,-140.0001 719.4439,-143.5 729.4439,-147.0001 729.444,-140.0001"/>
</g>
<!-- Node44 -->
<g id="node7" class="node">
<title>Node44</title>
<g id="a_node7"><a xlink:href="structchig_1_1Context.html#a0d9ec5f2803a5777d2e389256ccb3e3b" target="_top" xlink:title="Load a module from JSON – avoid this use the string overload. ">
<polygon fill="#ffffff" stroke="#000000" points="919,-128.5 919,-158.5 1047,-158.5 1047,-128.5 919,-128.5"/>
<text text-anchor="start" x="927" y="-146.5" font-family="Helvetica,sans-Serif" font-size="10.00" fill="#000000">chig::Context::addModule</text>
<text text-anchor="middle" x="983" y="-135.5" font-family="Helvetica,sans-Serif" font-size="10.00" fill="#000000">FromJson</text>
</a>
</g>
</g>
<!-- Node43&#45;&gt;Node44 -->
<g id="edge8" class="edge">
<title>Node43&#45;&gt;Node44</title>
<path fill="none" stroke="#191970" d="M893.5641,-143.5C902.0037,-143.5 910.5492,-143.5 918.8391,-143.5"/>
<polygon fill="#191970" stroke="#191970" points="893.3465,-140.0001 883.3464,-143.5 893.3464,-147.0001 893.3465,-140.0001"/>
</g>
<!-- Node45&#45;&gt;Node39 -->
<g id="edge10" class="edge">
<title>Node45&#45;&gt;Node39</title>
<path fill="none" stroke="#191970" d="M430.4915,-81.4229C393.2772,-84.3901 345.7316,-89.383 304,-97.5 285.4925,-101.0998 265.1508,-106.9062 249.1786,-111.9061"/>
<polygon fill="#191970" stroke="#191970" points="430.9979,-84.8944 440.7005,-80.6388 430.4618,-77.915 430.9979,-84.8944"/>
</g>
<!-- Node45&#45;&gt;Node40 -->
<g id="edge11" class="edge">
<title>Node45&#45;&gt;Node40</title>
<path fill="none" stroke="#191970" d="M469.4121,-90.864C451.5142,-97.7861 427.0083,-105.8478 405.2237,-112.1277"/>
<polygon fill="#191970" stroke="#191970" points="470.9024,-94.0369 478.8657,-87.0486 468.2826,-87.5456 470.9024,-94.0369"/>
</g>
<!-- Node46 -->
<g id="node9" class="node">
<title>Node46</title>
<g id="a_node9"><a xlink:href="structchig_1_1GraphFunction.html#a398599d8fe1982a3c76462b1b2375a6e" target="_top" xlink:title="Remove a node from the function. ">
<polygon fill="#ffffff" stroke="#000000" points="600,-62.5 600,-92.5 704,-92.5 704,-62.5 600,-62.5"/>
<text text-anchor="start" x="608" y="-80.5" font-family="Helvetica,sans-Serif" font-size="10.00" fill="#000000">chig::GraphFunction</text>
<text text-anchor="middle" x="652" y="-69.5" font-family="Helvetica,sans-Serif" font-size="10.00" fill="#000000">::removeNode</text>
</a>
</g>
</g>
<!-- Node45&#45;&gt;Node46 -->
<g id="edge12" class="edge">
<title>Node45&#45;&gt;Node46</title>
<path fill="none" stroke="#191970" d="M559.2544,-77.5C572.8103,-77.5 586.9526,-77.5 599.9904,-77.5"/>
<polygon fill="#191970" stroke="#191970" points="559.0305,-74.0001 549.0305,-77.5 559.0305,-81.0001 559.0305,-74.0001"/>
</g>
<!-- Node45&#45;&gt;Node48 -->
<g id="edge14" class="edge">
<title>Node45&#45;&gt;Node48</title>
<path fill="none" stroke="#191970" d="M528.6107,-64.227C553.5875,-54.3635 587.6965,-40.8937 613.7229,-30.6158"/>
<polygon fill="#191970" stroke="#191970" points="527.2026,-61.0199 519.1872,-67.9484 529.7738,-67.5307 527.2026,-61.0199"/>
</g>
<!-- Node47 -->
<g id="node10" class="node">
<title>Node47</title>
<g id="a_node10"><a xlink:href="structchig_1_1GraphFunction.html#a79cbfaf26d9a966ae8048c81dc09777e" target="_top" xlink:title="chig::GraphFunction\l::nodes">
<polygon fill="#ffffff" stroke="#000000" points="767,-62.5 767,-92.5 871,-92.5 871,-62.5 767,-62.5"/>
<text text-anchor="start" x="775" y="-80.5" font-family="Helvetica,sans-Serif" font-size="10.00" fill="#000000">chig::GraphFunction</text>
<text text-anchor="middle" x="819" y="-69.5" font-family="Helvetica,sans-Serif" font-size="10.00" fill="#000000">::nodes</text>
</a>
</g>
</g>
<!-- Node46&#45;&gt;Node47 -->
<g id="edge13" class="edge">
<title>Node46&#45;&gt;Node47</title>
<path fill="none" stroke="#191970" d="M714.8565,-77.5C731.9812,-77.5 750.3418,-77.5 766.8042,-77.5"/>
<polygon fill="#191970" stroke="#191970" points="714.3817,-74.0001 704.3816,-77.5 714.3816,-81.0001 714.3817,-74.0001"/>
</g>
</g>
</svg>
        <g id="navigator" transform="translate(0 0)" fill="#404254">
                <rect fill="#f2f5e9" fill-opacity="0.5" stroke="#606060" stroke-width=".5" x="0" y="0" width="60" height="60"/>
                <use id="zoomplus" xlink:href="#zoomPlus" x="17" y="9" onmousedown="handleZoom(evt,'in')"/>
                <use id="zoomminus" xlink:href="#zoomMin" x="42" y="9" onmousedown="handleZoom(evt,'out')"/>
                <use id="reset" xlink:href="#resetDef" x="30" y="36" onmousedown="handleReset()"/>
                <g id="arrowUp" xlink:href="#dirArrow" transform="translate(30 24)" onmousedown="handlePan(0,-1)">
                  <use xlink:href="#rim" fill="#404040">
                        <set attributeName="fill" to="#808080" begin="arrowUp.mouseover" end="arrowUp.mouseout"/>
                  </use>
                  <path fill="none" stroke="white" stroke-width="1.5" d="M0,-3.0v7 M-2.5,-0.5L0,-3.0L2.5,-0.5"/>
                </g>
                <g id="arrowRight" xlink:href="#dirArrow" transform="rotate(90) translate(36 -43)" onmousedown="handlePan(1,0)">
                  <use xlink:href="#rim" fill="#404040">
                        <set attributeName="fill" to="#808080" begin="arrowRight.mouseover" end="arrowRight.mouseout"/>
                  </use>
                  <path fill="none" stroke="white" stroke-width="1.5" d="M0,-3.0v7 M-2.5,-0.5L0,-3.0L2.5,-0.5"/>
                </g>
                <g id="arrowDown" xlink:href="#dirArrow" transform="rotate(180) translate(-30 -48)" onmousedown="handlePan(0,1)">
                  <use xlink:href="#rim" fill="#404040">
                        <set attributeName="fill" to="#808080" begin="arrowDown.mouseover" end="arrowDown.mouseout"/>
                  </use>
                  <path fill="none" stroke="white" stroke-width="1.5" d="M0,-3.0v7 M-2.5,-0.5L0,-3.0L2.5,-0.5"/>
                </g>
                <g id="arrowLeft" xlink:href="#dirArrow" transform="rotate(270) translate(-36 17)" onmousedown="handlePan(-1,0)">
                  <use xlink:href="#rim" fill="#404040">
                        <set attributeName="fill" to="#808080" begin="arrowLeft.mouseover" end="arrowLeft.mouseout"/>
                  </use>
                  <path fill="none" stroke="white" stroke-width="1.5" d="M0,-3.0v7 M-2.5,-0.5L0,-3.0L2.5,-0.5"/>
                </g>
        </g>
        <svg viewBox="0 0 15 15" width="100%" height="30px" preserveAspectRatio="xMaxYMin meet">
         <g id="arrow_out" transform="scale(0.3 0.3)">
          <a xlink:href="structchig_1_1NodeType_ae03c2c70c06ea281a87b1b40c0514064_icgraph_org.svg" target="_base">
           <rect id="button" ry="5" rx="5" y="6" x="6" height="38" width="38"
                fill="#f2f5e9" fill-opacity="0.5" stroke="#606060" stroke-width="1.0"/>
           <path id="arrow"
             d="M 11.500037,31.436501 C 11.940474,20.09759 22.043105,11.32322 32.158766,21.979434 L 37.068811,17.246167 C 37.068811,17.246167 37.088388,32 37.088388,32 L 22.160133,31.978069 C 22.160133,31.978069 26.997745,27.140456 26.997745,27.140456 C 18.528582,18.264221 13.291696,25.230495 11.500037,31.436501 z"
             style="fill:#404040;"/>
          </a>
         </g>
        </svg>
</svg>
