<?xml version="1.0" encoding="UTF-8" standalone="no"?>
<!DOCTYPE svg PUBLIC "-//W3C//DTD SVG 1.1//EN"
 "http://www.w3.org/Graphics/SVG/1.1/DTD/svg11.dtd">
<!-- Generated by graphviz version 2.40.1 (20161225.0304)
 -->
<!-- Title: chi::GraphFunction::insertNode Pages: 1 -->
<svg width="436pt" height="176pt"
 viewBox="0.00 0.00 436.00 175.50" xmlns="http://www.w3.org/2000/svg" xmlns:xlink="http://www.w3.org/1999/xlink">
<g id="graph0" class="graph" transform="scale(1 1) rotate(0) translate(4 171.5)">
<title>chi::GraphFunction::insertNode</title>
<polygon fill="#ffffff" stroke="transparent" points="-4,4 -4,-171.5 432,-171.5 432,4 -4,4"/>
<!-- Node387 -->
<g id="node1" class="node">
<title>Node387</title>
<polygon fill="#bfbfbf" stroke="#000000" points="0,-73.5 0,-103.5 99,-103.5 99,-73.5 0,-73.5"/>
<text text-anchor="start" x="8" y="-91.5" font-family="Helvetica,sans-Serif" font-size="10.00" fill="#000000">chi::GraphFunction</text>
<text text-anchor="middle" x="49.5" y="-80.5" font-family="Helvetica,sans-Serif" font-size="10.00" fill="#000000">::insertNode</text>
</g>
<!-- Node388 -->
<g id="node2" class="node">
<title>Node388</title>
<g id="a_node2"><a xlink:href="structchi_1_1Result.html#a59ef40f4a327cbdea263d6e4b5af2ad8" target="_top" xlink:title="Add a entry to the result, either a warning or an error. ">
<polygon fill="#ffffff" stroke="#000000" points="148.5,-148 148.5,-167 256.5,-167 256.5,-148 148.5,-148"/>
<text text-anchor="middle" x="202.5" y="-155" font-family="Helvetica,sans-Serif" font-size="10.00" fill="#000000">chi::Result::addEntry</text>
</a>
</g>
</g>
<!-- Node387&#45;&gt;Node388 -->
<g id="edge1" class="edge">
<title>Node387&#45;&gt;Node388</title>
<path fill="none" stroke="#191970" d="M71.5412,-103.505C88.3422,-114.4097 112.3684,-128.8842 135,-138.5 140.5271,-140.8484 146.4303,-142.9972 152.3596,-144.9361"/>
<polygon fill="#191970" stroke="#191970" points="151.7135,-148.3994 162.3008,-147.9993 153.7749,-141.7098 151.7135,-148.3994"/>
</g>
<!-- Node390 -->
<g id="node4" class="node">
<title>Node390</title>
<g id="a_node4"><a xlink:href="structchi_1_1GraphFunction.html#a0564412e260698bdb3872d3d12dfc3bc" target="_top" xlink:title="Get the GraphModule that contains this GraphFunction. ">
<polygon fill="#ffffff" stroke="#000000" points="153,-98.5 153,-128.5 252,-128.5 252,-98.5 153,-98.5"/>
<text text-anchor="start" x="161" y="-116.5" font-family="Helvetica,sans-Serif" font-size="10.00" fill="#000000">chi::GraphFunction</text>
<text text-anchor="middle" x="202.5" y="-105.5" font-family="Helvetica,sans-Serif" font-size="10.00" fill="#000000">::module</text>
</a>
</g>
</g>
<!-- Node387&#45;&gt;Node390 -->
<g id="edge3" class="edge">
<title>Node387&#45;&gt;Node390</title>
<path fill="none" stroke="#191970" d="M99.1747,-96.6168C113.0068,-98.8769 128.1786,-101.356 142.5346,-103.7017"/>
<polygon fill="#191970" stroke="#191970" points="142.3793,-107.2227 152.8129,-105.3812 143.5082,-100.3143 142.3793,-107.2227"/>
</g>
<!-- Node391 -->
<g id="node5" class="node">
<title>Node391</title>
<g id="a_node5"><a xlink:href="structchi_1_1GraphFunction.html#aa5985d96d7564d7ee7f240fdb02b41a6" target="_top" xlink:title="Get the nodes in the function Usually called by connectData or connectExec or GraphFunction. ">
<polygon fill="#ffffff" stroke="#000000" points="153,-49.5 153,-79.5 252,-79.5 252,-49.5 153,-49.5"/>
<text text-anchor="start" x="161" y="-67.5" font-family="Helvetica,sans-Serif" font-size="10.00" fill="#000000">chi::GraphFunction</text>
<text text-anchor="middle" x="202.5" y="-56.5" font-family="Helvetica,sans-Serif" font-size="10.00" fill="#000000">::nodes</text>
</a>
</g>
</g>
<!-- Node387&#45;&gt;Node391 -->
<g id="edge4" class="edge">
<title>Node387&#45;&gt;Node391</title>
<path fill="none" stroke="#191970" d="M99.1747,-80.7079C113.0068,-78.5381 128.1786,-76.1583 142.5346,-73.9063"/>
<polygon fill="#191970" stroke="#191970" points="143.4761,-77.3015 152.8129,-72.2941 142.3913,-70.3861 143.4761,-77.3015"/>
</g>
<!-- Node392 -->
<g id="node6" class="node">
<title>Node392</title>
<g id="a_node6"><a xlink:href="structchi_1_1ChiModule.html#af3cdb7e3d333fedc74ad862dcc5bca9f" target="_top" xlink:title="Update the last edit time, signifying that it&#39;s been edited. ">
<polygon fill="#ffffff" stroke="#000000" points="135,-.5 135,-30.5 270,-30.5 270,-.5 135,-.5"/>
<text text-anchor="start" x="143" y="-18.5" font-family="Helvetica,sans-Serif" font-size="10.00" fill="#000000">chi::ChiModule::updateLast</text>
<text text-anchor="middle" x="202.5" y="-7.5" font-family="Helvetica,sans-Serif" font-size="10.00" fill="#000000">EditTime</text>
</a>
</g>
</g>
<!-- Node387&#45;&gt;Node392 -->
<g id="edge5" class="edge">
<title>Node387&#45;&gt;Node392</title>
<path fill="none" stroke="#191970" d="M74.0268,-73.3723C90.834,-63.3469 113.8321,-50.2884 135,-40.5 139.631,-38.3585 144.5018,-36.2643 149.418,-34.2566"/>
<polygon fill="#191970" stroke="#191970" points="150.867,-37.4473 158.8772,-30.5128 148.2909,-30.9386 150.867,-37.4473"/>
</g>
<!-- Node389 -->
<g id="node3" class="node">
<title>Node389</title>
<g id="a_node3"><a xlink:href="structchi_1_1Result.html#aa078d3cb3dfb2fb63e81b71acea036e0" target="_top" xlink:title="Get the JSON associated with the context that&#39;s been added. ">
<polygon fill="#ffffff" stroke="#000000" points="306,-148 306,-167 428,-167 428,-148 306,-148"/>
<text text-anchor="middle" x="367" y="-155" font-family="Helvetica,sans-Serif" font-size="10.00" fill="#000000">chi::Result::contextJson</text>
</a>
</g>
</g>
<!-- Node388&#45;&gt;Node389 -->
<g id="edge2" class="edge">
<title>Node388&#45;&gt;Node389</title>
<path fill="none" stroke="#191970" d="M256.8194,-157.5C269.2251,-157.5 282.5929,-157.5 295.5928,-157.5"/>
<polygon fill="#191970" stroke="#191970" points="295.9143,-161.0001 305.9143,-157.5 295.9143,-154.0001 295.9143,-161.0001"/>
</g>
</g>
</svg>
