<?xml version="1.0" encoding="UTF-8" standalone="no"?>
<!DOCTYPE svg PUBLIC "-//W3C//DTD SVG 1.1//EN"
 "http://www.w3.org/Graphics/SVG/1.1/DTD/svg11.dtd">
<!-- Generated by graphviz version 2.40.1 (20161225.0304)
 -->
<!-- Title: chi::GraphFunction::removeNode Pages: 1 -->
<!--zoomable 356 -->
<svg id="main" version="1.1" xmlns="http://www.w3.org/2000/svg" xmlns:xlink="http://www.w3.org/1999/xlink" xml:space="preserve" onload="init(evt)">
<style type="text/css"><![CDATA[
.edge:hover path { stroke: red; }
.edge:hover polygon { stroke: red; fill: red; }
]]></style>
<script type="text/javascript"><![CDATA[
var edges = document.getElementsByTagName('g');
if (edges && edges.length) {
  for (var i=0;i<edges.length;i++) {
    if (edges[i].id.substr(0,4)=='edge') {
      edges[i].setAttribute('class','edge');
    }
  }
}
]]></script>
        <defs>
                <circle id="rim" cx="0" cy="0" r="7"/>
                <circle id="rim2" cx="0" cy="0" r="3.5"/>
                <g id="zoomPlus">
                        <use xlink:href="#rim" fill="#404040">
                                <set attributeName="fill" to="#808080" begin="zoomplus.mouseover" end="zoomplus.mouseout"/>
                        </use>
                        <path d="M-4,0h8M0,-4v8" fill="none" stroke="white" stroke-width="1.5" pointer-events="none"/>
                </g>
                <g id="zoomMin">
                        <use xlink:href="#rim" fill="#404040">
                                <set attributeName="fill" to="#808080" begin="zoomminus.mouseover" end="zoomminus.mouseout"/>
                        </use>
                        <path d="M-4,0h8" fill="none" stroke="white" stroke-width="1.5" pointer-events="none"/>
                </g>
                <g id="dirArrow">
                        <path fill="none" stroke="white" stroke-width="1.5" d="M0,-3.0v7 M-2.5,-0.5L0,-3.0L2.5,-0.5"/>
                </g>
               <g id="resetDef">
                       <use xlink:href="#rim2" fill="#404040">
                               <set attributeName="fill" to="#808080" begin="reset.mouseover" end="reset.mouseout"/>
                       </use>
               </g>
        </defs>

<script type="text/javascript">
var viewWidth = 596;
var viewHeight = 356;
var sectionId = 'dynsection-45';
</script>
<script xlink:href="svgpan.js"/>
<svg id="graph" class="graph">
<g id="viewport">
<title>chi::GraphFunction::removeNode</title>
<polygon fill="#ffffff" stroke="transparent" points="-4,4 -4,-352 592,-352 592,4 -4,4"/>
<!-- Node644 -->
<g id="node1" class="node">
<title>Node644</title>
<polygon fill="#bfbfbf" stroke="#000000" points="0,-146 0,-176 99,-176 99,-146 0,-146"/>
<text text-anchor="start" x="8" y="-164" font-family="Helvetica,sans-Serif" font-size="10.00" fill="#000000">chi::GraphFunction</text>
<text text-anchor="middle" x="49.5" y="-153" font-family="Helvetica,sans-Serif" font-size="10.00" fill="#000000">::removeNode</text>
</g>
<!-- Node645 -->
<g id="node2" class="node">
<title>Node645</title>
<g id="a_node2"><a xlink:href="namespacechi.html#a4694f9910cf90fd7c202fe117c4f257e" target="_top" xlink:title="Disconnect a data connection. ">
<polygon fill="#ffffff" stroke="#000000" points="138,-170.5 138,-189.5 241,-189.5 241,-170.5 138,-170.5"/>
<text text-anchor="middle" x="189.5" y="-177.5" font-family="Helvetica,sans-Serif" font-size="10.00" fill="#000000">chi::disconnectData</text>
</a>
</g>
</g>
<!-- Node644&#45;&gt;Node645 -->
<g id="edge1" class="edge">
<title>Node644&#45;&gt;Node645</title>
<path fill="none" stroke="#191970" d="M99.253,-167.7522C108.3723,-168.9898 117.9932,-170.2955 127.4201,-171.5749"/>
<polygon fill="#191970" stroke="#191970" points="127.1603,-175.0716 137.5401,-172.9483 128.1017,-168.1352 127.1603,-175.0716"/>
</g>
<!-- Node659 -->
<g id="node16" class="node">
<title>Node659</title>
<g id="a_node16"><a xlink:href="namespacechi.html#a103b99abd766aa4d303a5004fe783c03" target="_top" xlink:title="Disconnect a exec connection. ">
<polygon fill="#ffffff" stroke="#000000" points="137,-233.5 137,-252.5 242,-252.5 242,-233.5 137,-233.5"/>
<text text-anchor="middle" x="189.5" y="-240.5" font-family="Helvetica,sans-Serif" font-size="10.00" fill="#000000">chi::disconnectExec</text>
</a>
</g>
</g>
<!-- Node644&#45;&gt;Node659 -->
<g id="edge15" class="edge">
<title>Node644&#45;&gt;Node659</title>
<path fill="none" stroke="#191970" d="M75.1782,-176.0401C100.517,-190.8814 139.0184,-213.4322 164.2187,-228.1924"/>
<polygon fill="#191970" stroke="#191970" points="162.7727,-231.4016 173.1705,-233.4356 166.3106,-225.3614 162.7727,-231.4016"/>
</g>
<!-- Node661 -->
<g id="node18" class="node">
<title>Node661</title>
<g id="a_node18"><a xlink:href="structchi_1_1NodeInstance.html#aa82e9350339e553aa56d2bac1d3a3834" target="_top" xlink:title="Get the ID of the instance, unique to the graph. ">
<polygon fill="#ffffff" stroke="#000000" points="135,-132.5 135,-151.5 244,-151.5 244,-132.5 135,-132.5"/>
<text text-anchor="middle" x="189.5" y="-139.5" font-family="Helvetica,sans-Serif" font-size="10.00" fill="#000000">chi::NodeInstance::id</text>
</a>
</g>
</g>
<!-- Node644&#45;&gt;Node661 -->
<g id="edge21" class="edge">
<title>Node644&#45;&gt;Node661</title>
<path fill="none" stroke="#191970" d="M99.253,-154.2478C107.5004,-153.1285 116.1581,-151.9535 124.7115,-150.7927"/>
<polygon fill="#191970" stroke="#191970" points="125.2352,-154.2538 134.6736,-149.4407 124.2938,-147.3174 125.2352,-154.2538"/>
</g>
<!-- Node662 -->
<g id="node19" class="node">
<title>Node662</title>
<g id="a_node19"><a xlink:href="structchi_1_1GraphFunction.html#aa5985d96d7564d7ee7f240fdb02b41a6" target="_top" xlink:title="Get the nodes in the function Usually called by connectData or connectExec or GraphFunction. ">
<polygon fill="#ffffff" stroke="#000000" points="140,-83 140,-113 239,-113 239,-83 140,-83"/>
<text text-anchor="start" x="148" y="-101" font-family="Helvetica,sans-Serif" font-size="10.00" fill="#000000">chi::GraphFunction</text>
<text text-anchor="middle" x="189.5" y="-90" font-family="Helvetica,sans-Serif" font-size="10.00" fill="#000000">::nodes</text>
</a>
</g>
</g>
<!-- Node644&#45;&gt;Node662 -->
<g id="edge22" class="edge">
<title>Node644&#45;&gt;Node662</title>
<path fill="none" stroke="#191970" d="M83.0335,-145.9099C102.0284,-137.3622 125.9937,-126.5778 146.3751,-117.4062"/>
<polygon fill="#191970" stroke="#191970" points="148.072,-120.4807 155.7549,-113.1853 145.1994,-114.0973 148.072,-120.4807"/>
</g>
<!-- Node646 -->
<g id="node3" class="node">
<title>Node646</title>
<g id="a_node3"><a xlink:href="structchi_1_1Result.html#a59ef40f4a327cbdea263d6e4b5af2ad8" target="_top" xlink:title="Add a entry to the result, either a warning or an error. ">
<polygon fill="#ffffff" stroke="#000000" points="299.5,-252.5 299.5,-271.5 407.5,-271.5 407.5,-252.5 299.5,-252.5"/>
<text text-anchor="middle" x="353.5" y="-259.5" font-family="Helvetica,sans-Serif" font-size="10.00" fill="#000000">chi::Result::addEntry</text>
</a>
</g>
</g>
<!-- Node645&#45;&gt;Node646 -->
<g id="edge2" class="edge">
<title>Node645&#45;&gt;Node646</title>
<path fill="none" stroke="#191970" d="M200.4131,-189.558C216.6653,-203.3144 248.6857,-228.6179 280,-243 285.2942,-245.4315 290.9515,-247.5899 296.6887,-249.4968"/>
<polygon fill="#191970" stroke="#191970" points="295.7822,-252.8797 306.3692,-252.4726 297.8391,-246.1887 295.7822,-252.8797"/>
</g>
<!-- Node647 -->
<g id="node4" class="node">
<title>Node647</title>
<g id="a_node4"><a xlink:href="structchi_1_1NodeType.html#a7d2edfc21ff54a1ff8ad98fffb969268" target="_top" xlink:title="Get the data inputs for the node. ">
<polygon fill="#ffffff" stroke="#000000" points="288,-.5 288,-19.5 419,-19.5 419,-.5 288,-.5"/>
<text text-anchor="middle" x="353.5" y="-7.5" font-family="Helvetica,sans-Serif" font-size="10.00" fill="#000000">chi::NodeType::dataInputs</text>
</a>
</g>
</g>
<!-- Node645&#45;&gt;Node647 -->
<g id="edge3" class="edge">
<title>Node645&#45;&gt;Node647</title>
<path fill="none" stroke="#191970" d="M231.1246,-170.4307C235.918,-167.9725 240.3769,-164.8829 244,-161 285.4856,-116.5396 236.7166,-71.7121 280,-29 281.4424,-27.5767 282.9766,-26.2558 284.5865,-25.0301"/>
<polygon fill="#191970" stroke="#191970" points="286.5588,-27.925 293.1908,-19.6626 282.8538,-21.9858 286.5588,-27.925"/>
</g>
<!-- Node648 -->
<g id="node5" class="node">
<title>Node648</title>
<g id="a_node5"><a xlink:href="structchi_1_1NodeType.html#aade37588d98e93b19a9a47e16c850684" target="_top" xlink:title="Get the data outputs for the node. ">
<polygon fill="#ffffff" stroke="#000000" points="284,-126.5 284,-145.5 423,-145.5 423,-126.5 284,-126.5"/>
<text text-anchor="middle" x="353.5" y="-133.5" font-family="Helvetica,sans-Serif" font-size="10.00" fill="#000000">chi::NodeType::dataOutputs</text>
</a>
</g>
</g>
<!-- Node645&#45;&gt;Node648 -->
<g id="edge4" class="edge">
<title>Node645&#45;&gt;Node648</title>
<path fill="none" stroke="#191970" d="M225.0856,-170.4527C249.4777,-163.9084 282.0399,-155.1722 308.2709,-148.1346"/>
<polygon fill="#191970" stroke="#191970" points="309.2324,-151.5005 317.9839,-145.5287 307.4185,-144.7396 309.2324,-151.5005"/>
</g>
<!-- Node649 -->
<g id="node6" class="node">
<title>Node649</title>
<g id="a_node6"><a xlink:href="structchi_1_1NodeInstance.html#a8f64930fd9578431a11cad0702b4100c" target="_top" xlink:title="Get the containing GraphFunction. ">
<polygon fill="#ffffff" stroke="#000000" points="303,-77 303,-107 404,-107 404,-77 303,-77"/>
<text text-anchor="start" x="311" y="-95" font-family="Helvetica,sans-Serif" font-size="10.00" fill="#000000">chi::NodeInstance::</text>
<text text-anchor="middle" x="353.5" y="-84" font-family="Helvetica,sans-Serif" font-size="10.00" fill="#000000">function</text>
</a>
</g>
</g>
<!-- Node645&#45;&gt;Node649 -->
<g id="edge5" class="edge">
<title>Node645&#45;&gt;Node649</title>
<path fill="none" stroke="#191970" d="M226.0443,-170.4005C232.3327,-167.8887 238.5803,-164.79 244,-161 264.7063,-146.52 259.2389,-131.4013 280,-117 284.1842,-114.0976 288.7342,-111.5073 293.451,-109.2003"/>
<polygon fill="#191970" stroke="#191970" points="294.9552,-112.362 302.6748,-105.1053 292.1148,-105.9642 294.9552,-112.362"/>
</g>
<!-- Node650 -->
<g id="node7" class="node">
<title>Node650</title>
<g id="a_node7"><a xlink:href="structchi_1_1NodeType.html#a7031e3c04e9a0227b09f8f854ce8b7f9" target="_top" xlink:title="Get the qualified name of the node type, like module.name():name() ">
<polygon fill="#ffffff" stroke="#000000" points="280,-214.5 280,-233.5 427,-233.5 427,-214.5 280,-214.5"/>
<text text-anchor="middle" x="353.5" y="-221.5" font-family="Helvetica,sans-Serif" font-size="10.00" fill="#000000">chi::NodeType::qualifiedName</text>
</a>
</g>
</g>
<!-- Node645&#45;&gt;Node650 -->
<g id="edge6" class="edge">
<title>Node645&#45;&gt;Node650</title>
<path fill="none" stroke="#191970" d="M223.4143,-189.5117C240.388,-194.2358 261.2608,-199.99 280,-205 288.511,-207.2754 297.5885,-209.658 306.3563,-211.9366"/>
<polygon fill="#191970" stroke="#191970" points="305.5191,-215.3352 316.0773,-214.4537 307.2739,-208.5587 305.5191,-215.3352"/>
</g>
<!-- Node655 -->
<g id="node12" class="node">
<title>Node655</title>
<g id="a_node12"><a xlink:href="structchi_1_1NodeInstance.html#a993d848a1b95077007e232d177f58308" target="_top" xlink:title="Get the ID as a string. ">
<polygon fill="#ffffff" stroke="#000000" points="303,-165 303,-195 404,-195 404,-165 303,-165"/>
<text text-anchor="start" x="311" y="-183" font-family="Helvetica,sans-Serif" font-size="10.00" fill="#000000">chi::NodeInstance::</text>
<text text-anchor="middle" x="353.5" y="-172" font-family="Helvetica,sans-Serif" font-size="10.00" fill="#000000">stringId</text>
</a>
</g>
</g>
<!-- Node645&#45;&gt;Node655 -->
<g id="edge11" class="edge">
<title>Node645&#45;&gt;Node655</title>
<path fill="none" stroke="#191970" d="M241.3906,-180C257.6325,-180 275.7046,-180 292.5135,-180"/>
<polygon fill="#191970" stroke="#191970" points="292.7885,-183.5001 302.7885,-180 292.7885,-176.5001 292.7885,-183.5001"/>
</g>
<!-- Node656 -->
<g id="node13" class="node">
<title>Node656</title>
<g id="a_node13"><a xlink:href="structchi_1_1NodeType.html#ac99bef32e3e5e564119dbb8de69d2273" target="_top" xlink:title="Create the JSON necessary to store the object. ">
<polygon fill="#ffffff" stroke="#000000" points="293.5,-38.5 293.5,-57.5 413.5,-57.5 413.5,-38.5 293.5,-38.5"/>
<text text-anchor="middle" x="353.5" y="-45.5" font-family="Helvetica,sans-Serif" font-size="10.00" fill="#000000">chi::NodeType::toJSON</text>
</a>
</g>
</g>
<!-- Node645&#45;&gt;Node656 -->
<g id="edge12" class="edge">
<title>Node645&#45;&gt;Node656</title>
<path fill="none" stroke="#191970" d="M229.9427,-170.4842C235.0991,-168.0143 239.9725,-164.9073 244,-161 276.1093,-129.8491 246.6337,-96.8005 280,-67 281.7571,-65.4307 283.6272,-63.9878 285.5859,-62.6615"/>
<polygon fill="#191970" stroke="#191970" points="287.6612,-65.5103 294.666,-57.5615 284.2331,-59.4071 287.6612,-65.5103"/>
</g>
<!-- Node658 -->
<g id="node15" class="node">
<title>Node658</title>
<g id="a_node15"><a xlink:href="structchi_1_1NodeInstance.html#a5d6678d5a90e6b1adb7dafb868b974b1" target="_top" xlink:title="Get the type of the instance. ">
<polygon fill="#ffffff" stroke="#000000" points="293.5,-290.5 293.5,-309.5 413.5,-309.5 413.5,-290.5 293.5,-290.5"/>
<text text-anchor="middle" x="353.5" y="-297.5" font-family="Helvetica,sans-Serif" font-size="10.00" fill="#000000">chi::NodeInstance::type</text>
</a>
</g>
</g>
<!-- Node645&#45;&gt;Node658 -->
<g id="edge14" class="edge">
<title>Node645&#45;&gt;Node658</title>
<path fill="none" stroke="#191970" d="M204.0252,-189.7086C215.6866,-197.9524 232.0321,-210.5582 244,-224 263.9245,-246.3784 255.7931,-263.3421 280,-281 282.662,-282.9418 285.505,-284.6856 288.4683,-286.2514"/>
<polygon fill="#191970" stroke="#191970" points="287.1069,-289.4772 297.6584,-290.4354 290.0075,-283.1064 287.1069,-289.4772"/>
</g>
<!-- Node651 -->
<g id="node8" class="node">
<title>Node651</title>
<g id="a_node8"><a xlink:href="structchi_1_1NodeType.html#a4fd551737d6b3bb4d6609f1ee8e054aa" target="_top" xlink:title="Get the ChiModule this NodeType belongs to. ">
<polygon fill="#ffffff" stroke="#000000" points="467,-157.5 467,-176.5 584,-176.5 584,-157.5 467,-157.5"/>
<text text-anchor="middle" x="525.5" y="-164.5" font-family="Helvetica,sans-Serif" font-size="10.00" fill="#000000">chi::NodeType::module</text>
</a>
</g>
</g>
<!-- Node650&#45;&gt;Node651 -->
<g id="edge7" class="edge">
<title>Node650&#45;&gt;Node651</title>
<path fill="none" stroke="#191970" d="M397.1701,-214.4956C407.1152,-211.8416 417.5357,-208.6632 427,-205 443.872,-198.4697 446.2694,-192.8845 463,-186 468.4422,-183.7606 474.246,-181.6484 480.0413,-179.7038"/>
<polygon fill="#191970" stroke="#191970" points="481.2692,-182.9857 489.7209,-176.5967 479.1297,-176.3206 481.2692,-182.9857"/>
</g>
<!-- Node652 -->
<g id="node9" class="node">
<title>Node652</title>
<g id="a_node9"><a xlink:href="structchi_1_1ChiModule.html#a92ab6d528ac41a91b6ac21ededfccc38" target="_top" xlink:title="Get the full name of the module. ">
<polygon fill="#ffffff" stroke="#000000" points="463,-271.5 463,-290.5 588,-290.5 588,-271.5 463,-271.5"/>
<text text-anchor="middle" x="525.5" y="-278.5" font-family="Helvetica,sans-Serif" font-size="10.00" fill="#000000">chi::ChiModule::fullName</text>
</a>
</g>
</g>
<!-- Node650&#45;&gt;Node652 -->
<g id="edge8" class="edge">
<title>Node650&#45;&gt;Node652</title>
<path fill="none" stroke="#191970" d="M397.1701,-233.5044C407.1152,-236.1584 417.5357,-239.3368 427,-243 443.872,-249.5303 446.2694,-255.1155 463,-262 468.4422,-264.2394 474.246,-266.3516 480.0413,-268.2962"/>
<polygon fill="#191970" stroke="#191970" points="479.1297,-271.6794 489.7209,-271.4033 481.2692,-265.0143 479.1297,-271.6794"/>
</g>
<!-- Node653 -->
<g id="node10" class="node">
<title>Node653</title>
<g id="a_node10"><a xlink:href="structchi_1_1NodeType.html#ad301375a4b84ddc699337e285ee78cc3" target="_top" xlink:title="Get the name of the NodeType in the ChiModule. ">
<polygon fill="#ffffff" stroke="#000000" points="470.5,-233.5 470.5,-252.5 580.5,-252.5 580.5,-233.5 470.5,-233.5"/>
<text text-anchor="middle" x="525.5" y="-240.5" font-family="Helvetica,sans-Serif" font-size="10.00" fill="#000000">chi::NodeType::name</text>
</a>
</g>
</g>
<!-- Node650&#45;&gt;Node653 -->
<g id="edge9" class="edge">
<title>Node650&#45;&gt;Node653</title>
<path fill="none" stroke="#191970" d="M427.4417,-232.168C438.3436,-233.3723 449.5092,-234.6057 460.219,-235.7887"/>
<polygon fill="#191970" stroke="#191970" points="460.0001,-239.2858 470.324,-236.905 460.7688,-232.3281 460.0001,-239.2858"/>
</g>
<!-- Node654 -->
<g id="node11" class="node">
<title>Node654</title>
<g id="a_node11"><a xlink:href="structchi_1_1NodeType.html#a6094ca464bc8672da707a277b59d1d89" target="_top" xlink:title="A virtual function that is called when this node needs to be called. ">
<polygon fill="#ffffff" stroke="#000000" points="464.5,-195.5 464.5,-214.5 586.5,-214.5 586.5,-195.5 464.5,-195.5"/>
<text text-anchor="middle" x="525.5" y="-202.5" font-family="Helvetica,sans-Serif" font-size="10.00" fill="#000000">chi::NodeType::codegen</text>
</a>
</g>
</g>
<!-- Node650&#45;&gt;Node654 -->
<g id="edge10" class="edge">
<title>Node650&#45;&gt;Node654</title>
<path fill="none" stroke="#191970" d="M427.4417,-215.832C436.2764,-214.8561 445.2844,-213.861 454.0826,-212.8891"/>
<polygon fill="#191970" stroke="#191970" points="454.7364,-216.3383 464.2916,-211.7614 453.9678,-209.3806 454.7364,-216.3383"/>
</g>
<!-- Node657 -->
<g id="node14" class="node">
<title>Node657</title>
<g id="a_node14"><a xlink:href="structchi_1_1NodeType.html#a9de5373607ac5fb322665c487010ecf2" target="_top" xlink:title="Clones the type. ">
<polygon fill="#ffffff" stroke="#000000" points="471,-38.5 471,-57.5 580,-57.5 580,-38.5 471,-38.5"/>
<text text-anchor="middle" x="525.5" y="-45.5" font-family="Helvetica,sans-Serif" font-size="10.00" fill="#000000">chi::NodeType::clone</text>
</a>
</g>
</g>
<!-- Node656&#45;&gt;Node657 -->
<g id="edge13" class="edge">
<title>Node656&#45;&gt;Node657</title>
<path fill="none" stroke="#191970" d="M413.6573,-48C428.915,-48 445.3692,-48 460.8398,-48"/>
<polygon fill="#191970" stroke="#191970" points="460.8418,-51.5001 470.8418,-48 460.8418,-44.5001 460.8418,-51.5001"/>
</g>
<!-- Node659&#45;&gt;Node646 -->
<g id="edge16" class="edge">
<title>Node659&#45;&gt;Node646</title>
<path fill="none" stroke="#191970" d="M242.2934,-249.1163C257.2717,-250.8516 273.7456,-252.7602 289.3185,-254.5643"/>
<polygon fill="#191970" stroke="#191970" points="289.0609,-258.0578 299.3973,-255.732 289.8666,-251.1043 289.0609,-258.0578"/>
</g>
<!-- Node659&#45;&gt;Node650 -->
<g id="edge18" class="edge">
<title>Node659&#45;&gt;Node650</title>
<path fill="none" stroke="#191970" d="M242.2934,-236.8837C251.0953,-235.864 260.4137,-234.7844 269.7622,-233.7013"/>
<polygon fill="#191970" stroke="#191970" points="270.3644,-237.1551 279.8951,-232.5274 269.5587,-230.2016 270.3644,-237.1551"/>
</g>
<!-- Node659&#45;&gt;Node655 -->
<g id="edge19" class="edge">
<title>Node659&#45;&gt;Node655</title>
<path fill="none" stroke="#191970" d="M211.2728,-233.3551C229.4981,-225.4034 256.2612,-214.0085 280,-205 285.7888,-202.8032 291.8668,-200.5899 297.9438,-198.4366"/>
<polygon fill="#191970" stroke="#191970" points="299.1658,-201.7171 307.4508,-195.1133 296.8559,-195.1092 299.1658,-201.7171"/>
</g>
<!-- Node659&#45;&gt;Node658 -->
<g id="edge20" class="edge">
<title>Node659&#45;&gt;Node658</title>
<path fill="none" stroke="#191970" d="M210.0205,-252.6209C228.1534,-260.8786 255.4562,-272.7232 280,-281 287.2074,-283.4305 294.9006,-285.7308 302.4941,-287.836"/>
<polygon fill="#191970" stroke="#191970" points="301.8046,-291.2748 312.3701,-290.4857 303.6186,-284.5139 301.8046,-291.2748"/>
</g>
<!-- Node660 -->
<g id="node17" class="node">
<title>Node660</title>
<g id="a_node17"><a xlink:href="structchi_1_1NodeType.html#aa93f41674ea15d335db358d8aa4745a1" target="_top" xlink:title="Get the execution outputs for the node. ">
<polygon fill="#ffffff" stroke="#000000" points="283,-328.5 283,-347.5 424,-347.5 424,-328.5 283,-328.5"/>
<text text-anchor="middle" x="353.5" y="-335.5" font-family="Helvetica,sans-Serif" font-size="10.00" fill="#000000">chi::NodeType::execOutputs</text>
</a>
</g>
</g>
<!-- Node659&#45;&gt;Node660 -->
<g id="edge17" class="edge">
<title>Node659&#45;&gt;Node660</title>
<path fill="none" stroke="#191970" d="M198.2464,-252.7576C213.3251,-268.975 245.8935,-301.4277 280,-319 284.5693,-321.3542 289.4523,-323.4321 294.4473,-325.2632"/>
<polygon fill="#191970" stroke="#191970" points="293.5443,-328.6514 304.1379,-328.4881 295.7547,-322.0095 293.5443,-328.6514"/>
</g>
</g>
</svg>
        <g id="navigator" transform="translate(0 0)" fill="#404254">
                <rect fill="#f2f5e9" fill-opacity="0.5" stroke="#606060" stroke-width=".5" x="0" y="0" width="60" height="60"/>
                <use id="zoomplus" xlink:href="#zoomPlus" x="17" y="9" onmousedown="handleZoom(evt,'in')"/>
                <use id="zoomminus" xlink:href="#zoomMin" x="42" y="9" onmousedown="handleZoom(evt,'out')"/>
                <use id="reset" xlink:href="#resetDef" x="30" y="36" onmousedown="handleReset()"/>
                <g id="arrowUp" xlink:href="#dirArrow" transform="translate(30 24)" onmousedown="handlePan(0,-1)">
                  <use xlink:href="#rim" fill="#404040">
                        <set attributeName="fill" to="#808080" begin="arrowUp.mouseover" end="arrowUp.mouseout"/>
                  </use>
                  <path fill="none" stroke="white" stroke-width="1.5" d="M0,-3.0v7 M-2.5,-0.5L0,-3.0L2.5,-0.5"/>
                </g>
                <g id="arrowRight" xlink:href="#dirArrow" transform="rotate(90) translate(36 -43)" onmousedown="handlePan(1,0)">
                  <use xlink:href="#rim" fill="#404040">
                        <set attributeName="fill" to="#808080" begin="arrowRight.mouseover" end="arrowRight.mouseout"/>
                  </use>
                  <path fill="none" stroke="white" stroke-width="1.5" d="M0,-3.0v7 M-2.5,-0.5L0,-3.0L2.5,-0.5"/>
                </g>
                <g id="arrowDown" xlink:href="#dirArrow" transform="rotate(180) translate(-30 -48)" onmousedown="handlePan(0,1)">
                  <use xlink:href="#rim" fill="#404040">
                        <set attributeName="fill" to="#808080" begin="arrowDown.mouseover" end="arrowDown.mouseout"/>
                  </use>
                  <path fill="none" stroke="white" stroke-width="1.5" d="M0,-3.0v7 M-2.5,-0.5L0,-3.0L2.5,-0.5"/>
                </g>
                <g id="arrowLeft" xlink:href="#dirArrow" transform="rotate(270) translate(-36 17)" onmousedown="handlePan(-1,0)">
                  <use xlink:href="#rim" fill="#404040">
                        <set attributeName="fill" to="#808080" begin="arrowLeft.mouseover" end="arrowLeft.mouseout"/>
                  </use>
                  <path fill="none" stroke="white" stroke-width="1.5" d="M0,-3.0v7 M-2.5,-0.5L0,-3.0L2.5,-0.5"/>
                </g>
        </g>
        <svg viewBox="0 0 15 15" width="100%" height="30px" preserveAspectRatio="xMaxYMin meet">
         <g id="arrow_out" transform="scale(0.3 0.3)">
          <a xlink:href="structchi_1_1GraphFunction_ad4c3e2b91ad53ad79513e3dfdc07a36c_cgraph_org.svg" target="_base">
           <rect id="button" ry="5" rx="5" y="6" x="6" height="38" width="38"
                fill="#f2f5e9" fill-opacity="0.5" stroke="#606060" stroke-width="1.0"/>
           <path id="arrow"
             d="M 11.500037,31.436501 C 11.940474,20.09759 22.043105,11.32322 32.158766,21.979434 L 37.068811,17.246167 C 37.068811,17.246167 37.088388,32 37.088388,32 L 22.160133,31.978069 C 22.160133,31.978069 26.997745,27.140456 26.997745,27.140456 C 18.528582,18.264221 13.291696,25.230495 11.500037,31.436501 z"
             style="fill:#404040;"/>
          </a>
         </g>
        </svg>
</svg>
