<?xml version="1.0" encoding="UTF-8" standalone="no"?>
<!DOCTYPE svg PUBLIC "-//W3C//DTD SVG 1.1//EN"
 "http://www.w3.org/Graphics/SVG/1.1/DTD/svg11.dtd">
<!-- Generated by graphviz version 2.40.1 (20161225.0304)
 -->
<!-- Title: chi::GraphModule::nodeTypeFromName Pages: 1 -->
<svg width="945pt" height="88pt"
 viewBox="0.00 0.00 945.00 88.00" xmlns="http://www.w3.org/2000/svg" xmlns:xlink="http://www.w3.org/1999/xlink">
<g id="graph0" class="graph" transform="scale(1 1) rotate(0) translate(4 84)">
<title>chi::GraphModule::nodeTypeFromName</title>
<polygon fill="#ffffff" stroke="transparent" points="-4,4 -4,-84 941,-84 941,4 -4,4"/>
<!-- Node191 -->
<g id="node1" class="node">
<title>Node191</title>
<polygon fill="#bfbfbf" stroke="#000000" points="0,-24.5 0,-54.5 142,-54.5 142,-24.5 0,-24.5"/>
<text text-anchor="start" x="8" y="-42.5" font-family="Helvetica,sans-Serif" font-size="10.00" fill="#000000">chi::GraphModule::nodeType</text>
<text text-anchor="middle" x="71" y="-31.5" font-family="Helvetica,sans-Serif" font-size="10.00" fill="#000000">FromName</text>
</g>
<!-- Node192 -->
<g id="node2" class="node">
<title>Node192</title>
<g id="a_node2"><a xlink:href="structchi_1_1GraphFunction.html#a60bc423cb4fed3605a446da112949483" target="_top" xlink:title="Rename a local variable. ">
<polygon fill="#ffffff" stroke="#000000" points="178,-49.5 178,-79.5 291,-79.5 291,-49.5 178,-49.5"/>
<text text-anchor="start" x="186" y="-67.5" font-family="Helvetica,sans-Serif" font-size="10.00" fill="#000000">chi::GraphFunction</text>
<text text-anchor="middle" x="234.5" y="-56.5" font-family="Helvetica,sans-Serif" font-size="10.00" fill="#000000">::renameLocalVariable</text>
</a>
</g>
</g>
<!-- Node191&#45;&gt;Node192 -->
<g id="edge1" class="edge">
<title>Node191&#45;&gt;Node192</title>
<path fill="none" stroke="#191970" d="M152.3064,-51.9322C160.9054,-53.247 169.5108,-54.5628 177.7423,-55.8214"/>
<polygon fill="#191970" stroke="#191970" points="152.652,-48.4444 142.2379,-50.3926 151.5939,-55.364 152.652,-48.4444"/>
</g>
<!-- Node197 -->
<g id="node7" class="node">
<title>Node197</title>
<g id="a_node7"><a xlink:href="structchi_1_1GraphFunction.html#a4c38679ec5e727bfb71c8eaaa5a8ca1a" target="_top" xlink:title="Set a new type to a local variable. ">
<polygon fill="#ffffff" stroke="#000000" points="180.5,-.5 180.5,-30.5 288.5,-30.5 288.5,-.5 180.5,-.5"/>
<text text-anchor="start" x="188.5" y="-18.5" font-family="Helvetica,sans-Serif" font-size="10.00" fill="#000000">chi::GraphFunction</text>
<text text-anchor="middle" x="234.5" y="-7.5" font-family="Helvetica,sans-Serif" font-size="10.00" fill="#000000">::retypeLocalVariable</text>
</a>
</g>
</g>
<!-- Node191&#45;&gt;Node197 -->
<g id="edge6" class="edge">
<title>Node191&#45;&gt;Node197</title>
<path fill="none" stroke="#191970" d="M152.1358,-27.5902C161.6584,-26.1923 171.1921,-24.7929 180.2201,-23.4677"/>
<polygon fill="#191970" stroke="#191970" points="151.6235,-24.1278 142.2379,-29.0431 152.6402,-31.0535 151.6235,-24.1278"/>
</g>
<!-- Node193 -->
<g id="node3" class="node">
<title>Node193</title>
<g id="a_node3"><a xlink:href="structchi_1_1GraphFunction.html#a44f8f791775e4878b6bde37140cd131d" target="_top" xlink:title="Get the local variables. ">
<polygon fill="#ffffff" stroke="#000000" points="327,-24.5 327,-54.5 426,-54.5 426,-24.5 327,-24.5"/>
<text text-anchor="start" x="335" y="-42.5" font-family="Helvetica,sans-Serif" font-size="10.00" fill="#000000">chi::GraphFunction</text>
<text text-anchor="middle" x="376.5" y="-31.5" font-family="Helvetica,sans-Serif" font-size="10.00" fill="#000000">::localVariables</text>
</a>
</g>
</g>
<!-- Node192&#45;&gt;Node193 -->
<g id="edge2" class="edge">
<title>Node192&#45;&gt;Node193</title>
<path fill="none" stroke="#191970" d="M301.0501,-52.7834C309.6457,-51.2701 318.3285,-49.7415 326.5921,-48.2866"/>
<polygon fill="#191970" stroke="#191970" points="300.2718,-49.3665 291.0302,-54.5475 301.4856,-56.2605 300.2718,-49.3665"/>
</g>
<!-- Node194 -->
<g id="node4" class="node">
<title>Node194</title>
<g id="a_node4"><a xlink:href="namespacechi.html#afd8b8d8a207d88359ad1e6a48d8f3bb1" target="_top" xlink:title="Serialize a GraphFunction to json. ">
<polygon fill="#ffffff" stroke="#000000" points="462,-30 462,-49 591,-49 591,-30 462,-30"/>
<text text-anchor="middle" x="526.5" y="-37" font-family="Helvetica,sans-Serif" font-size="10.00" fill="#000000">chi::graphFunctionToJson</text>
</a>
</g>
</g>
<!-- Node193&#45;&gt;Node194 -->
<g id="edge3" class="edge">
<title>Node193&#45;&gt;Node194</title>
<path fill="none" stroke="#191970" d="M436.142,-39.5C444.5655,-39.5 453.259,-39.5 461.7726,-39.5"/>
<polygon fill="#191970" stroke="#191970" points="436.0314,-36.0001 426.0313,-39.5 436.0313,-43.0001 436.0314,-36.0001"/>
</g>
<!-- Node195 -->
<g id="node5" class="node">
<title>Node195</title>
<g id="a_node5"><a xlink:href="namespacechi.html#a9a4f3fa54c612f0c559a353bb7382d5a" target="_top" xlink:title="Serialize a JsonModule to json. ">
<polygon fill="#ffffff" stroke="#000000" points="627,-30 627,-49 750,-49 750,-30 627,-30"/>
<text text-anchor="middle" x="688.5" y="-37" font-family="Helvetica,sans-Serif" font-size="10.00" fill="#000000">chi::graphModuleToJson</text>
</a>
</g>
</g>
<!-- Node194&#45;&gt;Node195 -->
<g id="edge4" class="edge">
<title>Node194&#45;&gt;Node195</title>
<path fill="none" stroke="#191970" d="M601.7026,-39.5C610.1561,-39.5 618.6942,-39.5 626.9461,-39.5"/>
<polygon fill="#191970" stroke="#191970" points="601.4582,-36.0001 591.4582,-39.5 601.4581,-43.0001 601.4582,-36.0001"/>
</g>
<!-- Node196 -->
<g id="node6" class="node">
<title>Node196</title>
<g id="a_node6"><a xlink:href="structchi_1_1GraphModule.html#a5cd9fb1738336d5d382ebb50753bda3e" target="_top" xlink:title="Serialize to disk in the context. ">
<polygon fill="#ffffff" stroke="#000000" points="786,-30 786,-49 937,-49 937,-30 786,-30"/>
<text text-anchor="middle" x="861.5" y="-37" font-family="Helvetica,sans-Serif" font-size="10.00" fill="#000000">chi::GraphModule::saveToDisk</text>
</a>
</g>
</g>
<!-- Node195&#45;&gt;Node196 -->
<g id="edge5" class="edge">
<title>Node195&#45;&gt;Node196</title>
<path fill="none" stroke="#191970" d="M760.5243,-39.5C768.8612,-39.5 777.3827,-39.5 785.7672,-39.5"/>
<polygon fill="#191970" stroke="#191970" points="760.4684,-36.0001 750.4683,-39.5 760.4683,-43.0001 760.4684,-36.0001"/>
</g>
<!-- Node197&#45;&gt;Node193 -->
<g id="edge7" class="edge">
<title>Node197&#45;&gt;Node193</title>
<path fill="none" stroke="#191970" d="M298.7088,-26.3522C308.122,-27.9432 317.6959,-29.5613 326.7605,-31.0933"/>
<polygon fill="#191970" stroke="#191970" points="299.0327,-22.8574 288.5892,-24.6418 297.866,-29.7595 299.0327,-22.8574"/>
</g>
</g>
</svg>
