<?xml version="1.0" encoding="UTF-8" standalone="no"?>
<!DOCTYPE svg PUBLIC "-//W3C//DTD SVG 1.1//EN"
 "http://www.w3.org/Graphics/SVG/1.1/DTD/svg11.dtd">
<!-- Generated by graphviz version 2.40.1 (20161225.0304)
 -->
<!-- Title: chi::Context::createConverterNodeType Pages: 1 -->
<!--zoomable 104 -->
<svg id="main" version="1.1" xmlns="http://www.w3.org/2000/svg" xmlns:xlink="http://www.w3.org/1999/xlink" xml:space="preserve" onload="init(evt)">
<style type="text/css"><![CDATA[
.edge:hover path { stroke: red; }
.edge:hover polygon { stroke: red; fill: red; }
]]></style>
<script type="text/javascript"><![CDATA[
var edges = document.getElementsByTagName('g');
if (edges && edges.length) {
  for (var i=0;i<edges.length;i++) {
    if (edges[i].id.substr(0,4)=='edge') {
      edges[i].setAttribute('class','edge');
    }
  }
}
]]></script>
        <defs>
                <circle id="rim" cx="0" cy="0" r="7"/>
                <circle id="rim2" cx="0" cy="0" r="3.5"/>
                <g id="zoomPlus">
                        <use xlink:href="#rim" fill="#404040">
                                <set attributeName="fill" to="#808080" begin="zoomplus.mouseover" end="zoomplus.mouseout"/>
                        </use>
                        <path d="M-4,0h8M0,-4v8" fill="none" stroke="white" stroke-width="1.5" pointer-events="none"/>
                </g>
                <g id="zoomMin">
                        <use xlink:href="#rim" fill="#404040">
                                <set attributeName="fill" to="#808080" begin="zoomminus.mouseover" end="zoomminus.mouseout"/>
                        </use>
                        <path d="M-4,0h8" fill="none" stroke="white" stroke-width="1.5" pointer-events="none"/>
                </g>
                <g id="dirArrow">
                        <path fill="none" stroke="white" stroke-width="1.5" d="M0,-3.0v7 M-2.5,-0.5L0,-3.0L2.5,-0.5"/>
                </g>
               <g id="resetDef">
                       <use xlink:href="#rim2" fill="#404040">
                               <set attributeName="fill" to="#808080" begin="reset.mouseover" end="reset.mouseout"/>
                       </use>
               </g>
        </defs>

<script type="text/javascript">
var viewWidth = 524;
var viewHeight = 104;
var sectionId = 'dynsection-8';
</script>
<script xlink:href="svgpan.js"/>
<svg id="graph" class="graph">
<g id="viewport">
<title>chi::Context::createConverterNodeType</title>
<polygon fill="#ffffff" stroke="transparent" points="-4,4 -4,-100 520,-100 520,4 -4,4"/>
<!-- Node167 -->
<g id="node1" class="node">
<title>Node167</title>
<polygon fill="#bfbfbf" stroke="#000000" points="0,-14 0,-44 144,-44 144,-14 0,-14"/>
<text text-anchor="start" x="8" y="-32" font-family="Helvetica,sans-Serif" font-size="10.00" fill="#000000">chi::Context::createConverter</text>
<text text-anchor="middle" x="72" y="-21" font-family="Helvetica,sans-Serif" font-size="10.00" fill="#000000">NodeType</text>
</g>
<!-- Node168 -->
<g id="node2" class="node">
<title>Node168</title>
<g id="a_node2"><a xlink:href="structchi_1_1DataType.html#ae9fab4c8e69822190df1c28f1793005c" target="_top" xlink:title="Get the qualified name of the type (module().fullName() + &quot;:&quot; name()) ">
<polygon fill="#ffffff" stroke="#000000" points="180,-19.5 180,-38.5 325,-38.5 325,-19.5 180,-19.5"/>
<text text-anchor="middle" x="252.5" y="-26.5" font-family="Helvetica,sans-Serif" font-size="10.00" fill="#000000">chi::DataType::qualifiedName</text>
</a>
</g>
</g>
<!-- Node167&#45;&gt;Node168 -->
<g id="edge1" class="edge">
<title>Node167&#45;&gt;Node168</title>
<path fill="none" stroke="#191970" d="M144.1166,-29C152.5859,-29 161.2776,-29 169.8762,-29"/>
<polygon fill="#191970" stroke="#191970" points="169.9087,-32.5001 179.9086,-29 169.9086,-25.5001 169.9087,-32.5001"/>
</g>
<!-- Node169 -->
<g id="node3" class="node">
<title>Node169</title>
<g id="a_node3"><a xlink:href="structchi_1_1DataType.html#a41a23985893c9c15c49ed8c9eec9ea9c" target="_top" xlink:title="Get the module this is a part of. ">
<polygon fill="#ffffff" stroke="#000000" points="381,-76.5 381,-95.5 496,-95.5 496,-76.5 381,-76.5"/>
<text text-anchor="middle" x="438.5" y="-83.5" font-family="Helvetica,sans-Serif" font-size="10.00" fill="#000000">chi::DataType::module</text>
</a>
</g>
</g>
<!-- Node168&#45;&gt;Node169 -->
<g id="edge2" class="edge">
<title>Node168&#45;&gt;Node169</title>
<path fill="none" stroke="#191970" d="M277.7046,-38.6044C299.5517,-46.7418 332.1092,-58.4211 361,-67 369.2088,-69.4375 377.9718,-71.8057 386.5428,-73.9958"/>
<polygon fill="#191970" stroke="#191970" points="385.921,-77.4481 396.4714,-76.4786 387.6192,-70.6572 385.921,-77.4481"/>
</g>
<!-- Node170 -->
<g id="node4" class="node">
<title>Node170</title>
<g id="a_node4"><a xlink:href="structchi_1_1ChiModule.html#a92ab6d528ac41a91b6ac21ededfccc38" target="_top" xlink:title="Get the full name of the module. ">
<polygon fill="#ffffff" stroke="#000000" points="376,-38.5 376,-57.5 501,-57.5 501,-38.5 376,-38.5"/>
<text text-anchor="middle" x="438.5" y="-45.5" font-family="Helvetica,sans-Serif" font-size="10.00" fill="#000000">chi::ChiModule::fullName</text>
</a>
</g>
</g>
<!-- Node168&#45;&gt;Node170 -->
<g id="edge3" class="edge">
<title>Node168&#45;&gt;Node170</title>
<path fill="none" stroke="#191970" d="M325.2116,-36.4275C338.5273,-37.7877 352.4264,-39.2075 365.7434,-40.5679"/>
<polygon fill="#191970" stroke="#191970" points="365.4903,-44.0602 375.7943,-41.5946 366.2017,-37.0964 365.4903,-44.0602"/>
</g>
<!-- Node171 -->
<g id="node5" class="node">
<title>Node171</title>
<g id="a_node5"><a xlink:href="structchi_1_1DataType.html#a83a00e50994b0e126fdf856205a72a1e" target="_top" xlink:title="Get the unqualified name of the type. ">
<polygon fill="#ffffff" stroke="#000000" points="361,-.5 361,-19.5 516,-19.5 516,-.5 361,-.5"/>
<text text-anchor="middle" x="438.5" y="-7.5" font-family="Helvetica,sans-Serif" font-size="10.00" fill="#000000">chi::DataType::unqualifiedName</text>
</a>
</g>
</g>
<!-- Node168&#45;&gt;Node171 -->
<g id="edge4" class="edge">
<title>Node168&#45;&gt;Node171</title>
<path fill="none" stroke="#191970" d="M291.0393,-19.4705C308.4136,-16.8554 329.7035,-14.2979 350.6444,-12.2337"/>
<polygon fill="#191970" stroke="#191970" points="351.2535,-15.6917 360.8778,-11.2618 350.5917,-8.723 351.2535,-15.6917"/>
</g>
<!-- Node171&#45;&gt;Node168 -->
<g id="edge5" class="edge">
<title>Node171&#45;&gt;Node168</title>
<path fill="none" stroke="#191970" d="M400.1338,-19.5035C381.2992,-22.343 357.8326,-25.1163 335.1912,-27.266"/>
<polygon fill="#191970" stroke="#191970" points="334.8517,-23.7824 325.2116,-28.1776 335.4885,-30.7534 334.8517,-23.7824"/>
</g>
</g>
</svg>
        <g id="navigator" transform="translate(0 0)" fill="#404254">
                <rect fill="#f2f5e9" fill-opacity="0.5" stroke="#606060" stroke-width=".5" x="0" y="0" width="60" height="60"/>
                <use id="zoomplus" xlink:href="#zoomPlus" x="17" y="9" onmousedown="handleZoom(evt,'in')"/>
                <use id="zoomminus" xlink:href="#zoomMin" x="42" y="9" onmousedown="handleZoom(evt,'out')"/>
                <use id="reset" xlink:href="#resetDef" x="30" y="36" onmousedown="handleReset()"/>
                <g id="arrowUp" xlink:href="#dirArrow" transform="translate(30 24)" onmousedown="handlePan(0,-1)">
                  <use xlink:href="#rim" fill="#404040">
                        <set attributeName="fill" to="#808080" begin="arrowUp.mouseover" end="arrowUp.mouseout"/>
                  </use>
                  <path fill="none" stroke="white" stroke-width="1.5" d="M0,-3.0v7 M-2.5,-0.5L0,-3.0L2.5,-0.5"/>
                </g>
                <g id="arrowRight" xlink:href="#dirArrow" transform="rotate(90) translate(36 -43)" onmousedown="handlePan(1,0)">
                  <use xlink:href="#rim" fill="#404040">
                        <set attributeName="fill" to="#808080" begin="arrowRight.mouseover" end="arrowRight.mouseout"/>
                  </use>
                  <path fill="none" stroke="white" stroke-width="1.5" d="M0,-3.0v7 M-2.5,-0.5L0,-3.0L2.5,-0.5"/>
                </g>
                <g id="arrowDown" xlink:href="#dirArrow" transform="rotate(180) translate(-30 -48)" onmousedown="handlePan(0,1)">
                  <use xlink:href="#rim" fill="#404040">
                        <set attributeName="fill" to="#808080" begin="arrowDown.mouseover" end="arrowDown.mouseout"/>
                  </use>
                  <path fill="none" stroke="white" stroke-width="1.5" d="M0,-3.0v7 M-2.5,-0.5L0,-3.0L2.5,-0.5"/>
                </g>
                <g id="arrowLeft" xlink:href="#dirArrow" transform="rotate(270) translate(-36 17)" onmousedown="handlePan(-1,0)">
                  <use xlink:href="#rim" fill="#404040">
                        <set attributeName="fill" to="#808080" begin="arrowLeft.mouseover" end="arrowLeft.mouseout"/>
                  </use>
                  <path fill="none" stroke="white" stroke-width="1.5" d="M0,-3.0v7 M-2.5,-0.5L0,-3.0L2.5,-0.5"/>
                </g>
        </g>
        <svg viewBox="0 0 15 15" width="100%" height="30px" preserveAspectRatio="xMaxYMin meet">
         <g id="arrow_out" transform="scale(0.3 0.3)">
          <a xlink:href="structchi_1_1Context_a3fd760dec52171aaf960e55ff08d9346_cgraph_org.svg" target="_base">
           <rect id="button" ry="5" rx="5" y="6" x="6" height="38" width="38"
                fill="#f2f5e9" fill-opacity="0.5" stroke="#606060" stroke-width="1.0"/>
           <path id="arrow"
             d="M 11.500037,31.436501 C 11.940474,20.09759 22.043105,11.32322 32.158766,21.979434 L 37.068811,17.246167 C 37.068811,17.246167 37.088388,32 37.088388,32 L 22.160133,31.978069 C 22.160133,31.978069 26.997745,27.140456 26.997745,27.140456 C 18.528582,18.264221 13.291696,25.230495 11.500037,31.436501 z"
             style="fill:#404040;"/>
          </a>
         </g>
        </svg>
</svg>
