<?xml version="1.0" encoding="UTF-8" standalone="no"?>
<!DOCTYPE svg PUBLIC "-//W3C//DTD SVG 1.1//EN"
 "http://www.w3.org/Graphics/SVG/1.1/DTD/svg11.dtd">
<!-- Generated by graphviz version 2.40.1 (20161225.0304)
 -->
<!-- Title: chi::Context::compileModule Pages: 1 -->
<!--zoomable 253 -->
<svg id="main" version="1.1" xmlns="http://www.w3.org/2000/svg" xmlns:xlink="http://www.w3.org/1999/xlink" xml:space="preserve" onload="init(evt)">
<style type="text/css"><![CDATA[
.edge:hover path { stroke: red; }
.edge:hover polygon { stroke: red; fill: red; }
]]></style>
<script type="text/javascript"><![CDATA[
var edges = document.getElementsByTagName('g');
if (edges && edges.length) {
  for (var i=0;i<edges.length;i++) {
    if (edges[i].id.substr(0,4)=='edge') {
      edges[i].setAttribute('class','edge');
    }
  }
}
]]></script>
        <defs>
                <circle id="rim" cx="0" cy="0" r="7"/>
                <circle id="rim2" cx="0" cy="0" r="3.5"/>
                <g id="zoomPlus">
                        <use xlink:href="#rim" fill="#404040">
                                <set attributeName="fill" to="#808080" begin="zoomplus.mouseover" end="zoomplus.mouseout"/>
                        </use>
                        <path d="M-4,0h8M0,-4v8" fill="none" stroke="white" stroke-width="1.5" pointer-events="none"/>
                </g>
                <g id="zoomMin">
                        <use xlink:href="#rim" fill="#404040">
                                <set attributeName="fill" to="#808080" begin="zoomminus.mouseover" end="zoomminus.mouseout"/>
                        </use>
                        <path d="M-4,0h8" fill="none" stroke="white" stroke-width="1.5" pointer-events="none"/>
                </g>
                <g id="dirArrow">
                        <path fill="none" stroke="white" stroke-width="1.5" d="M0,-3.0v7 M-2.5,-0.5L0,-3.0L2.5,-0.5"/>
                </g>
               <g id="resetDef">
                       <use xlink:href="#rim2" fill="#404040">
                               <set attributeName="fill" to="#808080" begin="reset.mouseover" end="reset.mouseout"/>
                       </use>
               </g>
        </defs>

<script type="text/javascript">
var viewWidth = 1758;
var viewHeight = 253;
var sectionId = 'dynsection-4';
</script>
<script xlink:href="svgpan.js"/>
<svg id="graph" class="graph">
<g id="viewport">
<title>chi::Context::compileModule</title>
<polygon fill="#ffffff" stroke="transparent" points="-4,4 -4,-248.8631 1754,-248.8631 1754,4 -4,4"/>
<!-- Node74 -->
<g id="node1" class="node">
<title>Node74</title>
<polygon fill="#bfbfbf" stroke="#000000" points="0,-113.3631 0,-132.3631 140,-132.3631 140,-113.3631 0,-113.3631"/>
<text text-anchor="middle" x="70" y="-120.3631" font-family="Helvetica,sans-Serif" font-size="10.00" fill="#000000">chi::Context::compileModule</text>
</g>
<!-- Node75 -->
<g id="node2" class="node">
<title>Node75</title>
<g id="a_node2"><a xlink:href="structchi_1_1Context.html#ad535dc768a4386dbd06c8b769c5d549f" target="_top" xlink:title="Compile a module to a llvm::Module. ">
<polygon fill="#ffffff" stroke="#000000" points="1423,-216.3631 1423,-235.3631 1563,-235.3631 1563,-216.3631 1423,-216.3631"/>
<text text-anchor="middle" x="1493" y="-223.3631" font-family="Helvetica,sans-Serif" font-size="10.00" fill="#000000">chi::Context::compileModule</text>
</a>
</g>
</g>
<!-- Node74&#45;&gt;Node75 -->
<g id="edge1" class="edge">
<title>Node74&#45;&gt;Node75</title>
<path fill="none" stroke="#191970" d="M93.8054,-137.6247C148.519,-170.0974 288.3528,-244.8631 416,-244.8631 416,-244.8631 416,-244.8631 1115.5,-244.8631 1222.7906,-244.8631 1347.0171,-237.1129 1422.7826,-231.5123"/>
<polygon fill="#191970" stroke="#191970" points="95.556,-134.5933 85.1831,-132.4362 91.9468,-140.5911 95.556,-134.5933"/>
</g>
<!-- Node76 -->
<g id="node3" class="node">
<title>Node76</title>
<g id="a_node3"><a xlink:href="structchi_1_1Context.html#a79e291c879b4017b47ef9605e1e638ba" target="_top" xlink:title="Check if this context has a workspace bound to it – same as !workspacePath().empty() ...">
<polygon fill="#ffffff" stroke="#000000" points="176,-91.3631 176,-110.3631 316,-110.3631 316,-91.3631 176,-91.3631"/>
<text text-anchor="middle" x="246" y="-98.3631" font-family="Helvetica,sans-Serif" font-size="10.00" fill="#000000">chi::Context::hasWorkspace</text>
</a>
</g>
</g>
<!-- Node74&#45;&gt;Node76 -->
<g id="edge2" class="edge">
<title>Node74&#45;&gt;Node76</title>
<path fill="none" stroke="#191970" d="M150.1006,-112.8505C158.7058,-111.7749 167.4124,-110.6865 175.888,-109.6271"/>
<polygon fill="#191970" stroke="#191970" points="149.5542,-109.3915 140.0656,-114.1049 150.4225,-116.3374 149.5542,-109.3915"/>
</g>
<!-- Node77 -->
<g id="node4" class="node">
<title>Node77</title>
<g id="a_node4"><a xlink:href="structchi_1_1Context.html#a28706d36f049088c98cd726921512668" target="_top" xlink:title="Gets a NodeType from the JSON and name. ">
<polygon fill="#ffffff" stroke="#000000" points="176,-129.8631 176,-159.8631 316,-159.8631 316,-129.8631 176,-129.8631"/>
<text text-anchor="start" x="184" y="-147.8631" font-family="Helvetica,sans-Serif" font-size="10.00" fill="#000000">chi::Context::nodeTypeFrom</text>
<text text-anchor="middle" x="246" y="-136.8631" font-family="Helvetica,sans-Serif" font-size="10.00" fill="#000000">Module</text>
</a>
</g>
</g>
<!-- Node74&#45;&gt;Node77 -->
<g id="edge3" class="edge">
<title>Node74&#45;&gt;Node77</title>
<path fill="none" stroke="#191970" d="M150.1006,-132.8757C158.7058,-133.9513 167.4124,-135.0396 175.888,-136.0991"/>
<polygon fill="#191970" stroke="#191970" points="150.4225,-129.3887 140.0656,-131.6213 149.5542,-136.3347 150.4225,-129.3887"/>
</g>
<!-- Node95 -->
<g id="node22" class="node">
<title>Node95</title>
<g id="a_node22"><a xlink:href="classchi_1_1Debugger.html#a886cc971180144623a6428a8cd79d4ae" target="_top" xlink:title="Start debugging the process. ">
<polygon fill="#ffffff" stroke="#000000" points="195,-53.3631 195,-72.3631 297,-72.3631 297,-53.3631 195,-53.3631"/>
<text text-anchor="middle" x="246" y="-60.3631" font-family="Helvetica,sans-Serif" font-size="10.00" fill="#000000">chi::Debugger::start</text>
</a>
</g>
</g>
<!-- Node74&#45;&gt;Node95 -->
<g id="edge28" class="edge">
<title>Node74&#45;&gt;Node95</title>
<path fill="none" stroke="#191970" d="M102.2489,-109.3835C123.0923,-100.9224 150.9136,-90.0945 176,-81.8631 186.2898,-78.4867 197.5659,-75.2347 208.0044,-72.4044"/>
<polygon fill="#191970" stroke="#191970" points="100.8387,-106.1788 92.9095,-113.2058 103.4901,-112.6573 100.8387,-106.1788"/>
</g>
<!-- Node78 -->
<g id="node5" class="node">
<title>Node78</title>
<g id="a_node5"><a xlink:href="structchi_1_1GraphFunction.html#abcd2e1de52782e5a16aca65b9af328ca" target="_top" xlink:title="Add a node to the graph using module, type, and json. ">
<polygon fill="#ffffff" stroke="#000000" points="366.5,-129.8631 366.5,-159.8631 465.5,-159.8631 465.5,-129.8631 366.5,-129.8631"/>
<text text-anchor="start" x="374.5" y="-147.8631" font-family="Helvetica,sans-Serif" font-size="10.00" fill="#000000">chi::GraphFunction</text>
<text text-anchor="middle" x="416" y="-136.8631" font-family="Helvetica,sans-Serif" font-size="10.00" fill="#000000">::insertNode</text>
</a>
</g>
</g>
<!-- Node77&#45;&gt;Node78 -->
<g id="edge4" class="edge">
<title>Node77&#45;&gt;Node78</title>
<path fill="none" stroke="#191970" d="M326.4585,-144.8631C340.0385,-144.8631 353.7736,-144.8631 366.2718,-144.8631"/>
<polygon fill="#191970" stroke="#191970" points="326.127,-141.3632 316.127,-144.8631 326.127,-148.3632 326.127,-141.3632"/>
</g>
<!-- Node79 -->
<g id="node6" class="node">
<title>Node79</title>
<g id="a_node6"><a xlink:href="structchi_1_1GraphFunction.html#a1d740529978bdf31284b6b815ec0426b" target="_top" xlink:title="Create a fresh NodeType for an entry. ">
<polygon fill="#ffffff" stroke="#000000" points="357.5,-80.8631 357.5,-110.8631 474.5,-110.8631 474.5,-80.8631 357.5,-80.8631"/>
<text text-anchor="start" x="365.5" y="-98.8631" font-family="Helvetica,sans-Serif" font-size="10.00" fill="#000000">chi::GraphFunction</text>
<text text-anchor="middle" x="416" y="-87.8631" font-family="Helvetica,sans-Serif" font-size="10.00" fill="#000000">::createEntryNodeType</text>
</a>
</g>
</g>
<!-- Node77&#45;&gt;Node79 -->
<g id="edge6" class="edge">
<title>Node77&#45;&gt;Node79</title>
<path fill="none" stroke="#191970" d="M308.0815,-126.969C326.3664,-121.6986 346.1804,-115.9875 363.7802,-110.9146"/>
<polygon fill="#191970" stroke="#191970" points="307.0322,-123.6289 298.3928,-129.7616 308.971,-130.355 307.0322,-123.6289"/>
</g>
<!-- Node84 -->
<g id="node11" class="node">
<title>Node84</title>
<g id="a_node11"><a xlink:href="structchi_1_1GraphFunction.html#af14ad950cfff4ad3091827f9b6ad1cd2" target="_top" xlink:title="Create a fresh NodeType for an exit. ">
<polygon fill="#ffffff" stroke="#000000" points="883,-65.8631 883,-95.8631 994,-95.8631 994,-65.8631 883,-65.8631"/>
<text text-anchor="start" x="891" y="-83.8631" font-family="Helvetica,sans-Serif" font-size="10.00" fill="#000000">chi::GraphFunction</text>
<text text-anchor="middle" x="938.5" y="-72.8631" font-family="Helvetica,sans-Serif" font-size="10.00" fill="#000000">::createExitNodeType</text>
</a>
</g>
</g>
<!-- Node77&#45;&gt;Node84 -->
<g id="edge18" class="edge">
<title>Node77&#45;&gt;Node84</title>
<path fill="none" stroke="#191970" d="M308.0747,-125.0825C310.8345,-123.467 313.4934,-121.7297 316,-119.8631 337.674,-103.7227 329.0926,-85.1991 352,-70.8631 475.3327,6.3214 529.1032,-25.0282 674,-11.8631 747.4751,-5.1872 769.6391,10.3294 840,-11.8631 873.4523,-22.4142 905.4188,-48.8328 923.443,-65.7488"/>
<polygon fill="#191970" stroke="#191970" points="306.2197,-122.1028 298.9795,-129.8377 309.463,-128.3061 306.2197,-122.1028"/>
</g>
<!-- Node88 -->
<g id="node15" class="node">
<title>Node88</title>
<g id="a_node15"><a xlink:href="namespacechi.html#a6a3fedb48e6702c016f996d8a7f445fc" target="_top" xlink:title="Load a GraphFunction–must already exist (use createGraphFunctionDeclarationFromJson) ...">
<polygon fill="#ffffff" stroke="#000000" points="352,-197.3631 352,-216.3631 480,-216.3631 480,-197.3631 352,-197.3631"/>
<text text-anchor="middle" x="416" y="-204.3631" font-family="Helvetica,sans-Serif" font-size="10.00" fill="#000000">chi::jsonToGraphFunction</text>
</a>
</g>
</g>
<!-- Node77&#45;&gt;Node88 -->
<g id="edge19" class="edge">
<title>Node77&#45;&gt;Node88</title>
<path fill="none" stroke="#191970" d="M291.4787,-163.7426C310.1178,-171.2548 331.9772,-179.7788 352,-186.8631 362.3159,-190.513 373.685,-194.179 383.9429,-197.3572"/>
<polygon fill="#191970" stroke="#191970" points="292.6343,-160.4344 282.0519,-159.9193 290.0033,-166.9212 292.6343,-160.4344"/>
</g>
<!-- Node78&#45;&gt;Node78 -->
<g id="edge5" class="edge">
<title>Node78&#45;&gt;Node78</title>
<path fill="none" stroke="#191970" d="M387.5699,-170.321C391.0985,-175.042 400.5752,-178.3631 416,-178.3631 441.3125,-178.3631 450.6069,-169.4197 443.8833,-160.0221"/>
<polygon fill="#191970" stroke="#191970" points="391.0815,-170.1936 388.1167,-160.0221 384.0914,-169.8224 391.0815,-170.1936"/>
</g>
<!-- Node80 -->
<g id="node7" class="node">
<title>Node80</title>
<g id="a_node7"><a xlink:href="structchi_1_1GraphFunction.html#a900c0b670ad04a76b6add803ade7ae0d" target="_top" xlink:title="chi::GraphFunction\l::nodes">
<polygon fill="#ffffff" stroke="#000000" points="1066,-109.8631 1066,-139.8631 1165,-139.8631 1165,-109.8631 1066,-109.8631"/>
<text text-anchor="start" x="1074" y="-127.8631" font-family="Helvetica,sans-Serif" font-size="10.00" fill="#000000">chi::GraphFunction</text>
<text text-anchor="middle" x="1115.5" y="-116.8631" font-family="Helvetica,sans-Serif" font-size="10.00" fill="#000000">::nodes</text>
</a>
</g>
</g>
<!-- Node79&#45;&gt;Node80 -->
<g id="edge7" class="edge">
<title>Node79&#45;&gt;Node80</title>
<path fill="none" stroke="#191970" d="M472.9568,-113.7829C486.941,-117.7932 501.9358,-121.7697 516,-124.8631 726.6111,-171.1868 786.2636,-158.6421 1001,-138.8631 1022.338,-136.8977 1045.8417,-134.1294 1065.973,-131.5729"/>
<polygon fill="#191970" stroke="#191970" points="473.5607,-110.3131 462.9804,-110.8689 471.598,-117.0323 473.5607,-110.3131"/>
</g>
<!-- Node81 -->
<g id="node8" class="node">
<title>Node81</title>
<g id="a_node8"><a xlink:href="structchi_1_1GraphFunction.html#a0e722c9bae3101c4bb54ad9baae6f841" target="_top" xlink:title="Creates an entry node if it doesn&#39;t already exist, else just return it. ">
<polygon fill="#ffffff" stroke="#000000" points="698.5,-109.8631 698.5,-139.8631 815.5,-139.8631 815.5,-109.8631 698.5,-109.8631"/>
<text text-anchor="start" x="706.5" y="-127.8631" font-family="Helvetica,sans-Serif" font-size="10.00" fill="#000000">chi::GraphFunction</text>
<text text-anchor="middle" x="757" y="-116.8631" font-family="Helvetica,sans-Serif" font-size="10.00" fill="#000000">::getOrInsertEntryNode</text>
</a>
</g>
</g>
<!-- Node79&#45;&gt;Node81 -->
<g id="edge8" class="edge">
<title>Node79&#45;&gt;Node81</title>
<path fill="none" stroke="#191970" d="M484.6607,-102.1061C495.157,-103.0421 505.8664,-103.9866 516,-104.8631 578.1145,-110.2355 649.2607,-116.1049 698.0595,-120.0869"/>
<polygon fill="#191970" stroke="#191970" points="484.9604,-98.619 474.6883,-101.2138 484.3365,-105.5912 484.9604,-98.619"/>
</g>
<!-- Node82 -->
<g id="node9" class="node">
<title>Node82</title>
<g id="a_node9"><a xlink:href="structchi_1_1GraphFunction.html#a3c10d56dd68371400993b4a3c120f585" target="_top" xlink:title="Rename an exec output If idx is out of range, this function does nothing. ">
<polygon fill="#ffffff" stroke="#000000" points="523.5,-65.8631 523.5,-95.8631 630.5,-95.8631 630.5,-65.8631 523.5,-65.8631"/>
<text text-anchor="start" x="531.5" y="-83.8631" font-family="Helvetica,sans-Serif" font-size="10.00" fill="#000000">chi::GraphFunction</text>
<text text-anchor="middle" x="577" y="-72.8631" font-family="Helvetica,sans-Serif" font-size="10.00" fill="#000000">::renameExecOutput</text>
</a>
</g>
</g>
<!-- Node79&#45;&gt;Node82 -->
<g id="edge10" class="edge">
<title>Node79&#45;&gt;Node82</title>
<path fill="none" stroke="#191970" d="M484.79,-89.4541C497.6622,-88.2548 510.9426,-87.0175 523.2766,-85.8684"/>
<polygon fill="#191970" stroke="#191970" points="484.2123,-85.9926 474.5801,-90.4053 484.8617,-92.9625 484.2123,-85.9926"/>
</g>
<!-- Node81&#45;&gt;Node80 -->
<g id="edge9" class="edge">
<title>Node81&#45;&gt;Node80</title>
<path fill="none" stroke="#191970" d="M825.891,-124.8631C896.1917,-124.8631 1003.5662,-124.8631 1065.9161,-124.8631"/>
<polygon fill="#191970" stroke="#191970" points="825.7976,-121.3632 815.7975,-124.8631 825.7975,-128.3632 825.7976,-121.3632"/>
</g>
<!-- Node83 -->
<g id="node10" class="node">
<title>Node83</title>
<g id="a_node10"><a xlink:href="structchi_1_1GraphFunction.html#ab47bbbd84f14240b824c1a780b125207" target="_top" xlink:title="Get the function exec outputs. ">
<polygon fill="#ffffff" stroke="#000000" points="707.5,-21.8631 707.5,-51.8631 806.5,-51.8631 806.5,-21.8631 707.5,-21.8631"/>
<text text-anchor="start" x="715.5" y="-39.8631" font-family="Helvetica,sans-Serif" font-size="10.00" fill="#000000">chi::GraphFunction</text>
<text text-anchor="middle" x="757" y="-28.8631" font-family="Helvetica,sans-Serif" font-size="10.00" fill="#000000">::execOutputs</text>
</a>
</g>
</g>
<!-- Node82&#45;&gt;Node83 -->
<g id="edge11" class="edge">
<title>Node82&#45;&gt;Node83</title>
<path fill="none" stroke="#191970" d="M640.4276,-65.3585C662.3959,-59.9885 686.6846,-54.0513 707.3797,-48.9925"/>
<polygon fill="#191970" stroke="#191970" points="639.4015,-62.0062 630.5186,-67.7807 641.0637,-68.806 639.4015,-62.0062"/>
</g>
<!-- Node83&#45;&gt;Node84 -->
<g id="edge12" class="edge">
<title>Node83&#45;&gt;Node84</title>
<path fill="none" stroke="#191970" d="M816.5241,-51.2931C837.8841,-56.4713 861.8725,-62.2867 882.8878,-67.3813"/>
<polygon fill="#191970" stroke="#191970" points="817.1388,-47.8409 806.5957,-48.8863 815.4896,-54.6438 817.1388,-47.8409"/>
</g>
<!-- Node85 -->
<g id="node12" class="node">
<title>Node85</title>
<g id="a_node12"><a xlink:href="namespacechi.html#afd8b8d8a207d88359ad1e6a48d8f3bb1" target="_top" xlink:title="Serialize a GraphFunction to json. ">
<polygon fill="#ffffff" stroke="#000000" points="1051,-49.3631 1051,-68.3631 1180,-68.3631 1180,-49.3631 1051,-49.3631"/>
<text text-anchor="middle" x="1115.5" y="-56.3631" font-family="Helvetica,sans-Serif" font-size="10.00" fill="#000000">chi::graphFunctionToJson</text>
</a>
</g>
</g>
<!-- Node83&#45;&gt;Node85 -->
<g id="edge15" class="edge">
<title>Node83&#45;&gt;Node85</title>
<path fill="none" stroke="#191970" d="M816.8991,-40.5389C881.6332,-44.5114 984.4297,-50.8197 1050.9286,-54.9005"/>
<polygon fill="#191970" stroke="#191970" points="817.0435,-37.0413 806.8479,-39.9221 816.6147,-44.0281 817.0435,-37.0413"/>
</g>
<!-- Node84&#45;&gt;Node80 -->
<g id="edge13" class="edge">
<title>Node84&#45;&gt;Node80</title>
<path fill="none" stroke="#191970" d="M1003.9122,-97.1237C1024.3999,-102.2167 1046.6625,-107.7509 1065.8747,-112.5268"/>
<polygon fill="#191970" stroke="#191970" points="1004.5673,-93.6801 994.0183,-94.6642 1002.8785,-100.4734 1004.5673,-93.6801"/>
</g>
<!-- Node84&#45;&gt;Node82 -->
<g id="edge14" class="edge">
<title>Node84&#45;&gt;Node82</title>
<path fill="none" stroke="#191970" d="M872.6149,-80.8631C803.1955,-80.8631 695.1793,-80.8631 630.7299,-80.8631"/>
<polygon fill="#191970" stroke="#191970" points="872.9895,-84.3632 882.9895,-80.8631 872.9894,-77.3632 872.9895,-84.3632"/>
</g>
<!-- Node86 -->
<g id="node13" class="node">
<title>Node86</title>
<g id="a_node13"><a xlink:href="namespacechi.html#a9a4f3fa54c612f0c559a353bb7382d5a" target="_top" xlink:title="Serialize a JsonModule to json. ">
<polygon fill="#ffffff" stroke="#000000" points="1431.5,-159.3631 1431.5,-178.3631 1554.5,-178.3631 1554.5,-159.3631 1431.5,-159.3631"/>
<text text-anchor="middle" x="1493" y="-166.3631" font-family="Helvetica,sans-Serif" font-size="10.00" fill="#000000">chi::graphModuleToJson</text>
</a>
</g>
</g>
<!-- Node85&#45;&gt;Node86 -->
<g id="edge16" class="edge">
<title>Node85&#45;&gt;Node86</title>
<path fill="none" stroke="#191970" d="M1158.0796,-71.2704C1234.167,-93.4415 1391.8906,-139.4007 1460.2361,-159.316"/>
<polygon fill="#191970" stroke="#191970" points="1158.9202,-67.8698 1148.3403,-68.4324 1156.9618,-74.5903 1158.9202,-67.8698"/>
</g>
<!-- Node87 -->
<g id="node14" class="node">
<title>Node87</title>
<g id="a_node14"><a xlink:href="structchi_1_1GraphModule.html#a5cd9fb1738336d5d382ebb50753bda3e" target="_top" xlink:title="Serialize to disk in the context. ">
<polygon fill="#ffffff" stroke="#000000" points="1599,-159.3631 1599,-178.3631 1750,-178.3631 1750,-159.3631 1599,-159.3631"/>
<text text-anchor="middle" x="1674.5" y="-166.3631" font-family="Helvetica,sans-Serif" font-size="10.00" fill="#000000">chi::GraphModule::saveToDisk</text>
</a>
</g>
</g>
<!-- Node86&#45;&gt;Node87 -->
<g id="edge17" class="edge">
<title>Node86&#45;&gt;Node87</title>
<path fill="none" stroke="#191970" d="M1564.8263,-168.8631C1575.9968,-168.8631 1587.5676,-168.8631 1598.8204,-168.8631"/>
<polygon fill="#191970" stroke="#191970" points="1564.7009,-165.3632 1554.7009,-168.8631 1564.7008,-172.3632 1564.7009,-165.3632"/>
</g>
<!-- Node89 -->
<g id="node16" class="node">
<title>Node89</title>
<g id="a_node16"><a xlink:href="namespacechi.html#a4489e333fecc4168278e94f8b3f81e3c" target="_top" xlink:title="Load a GraphModule from json. ">
<polygon fill="#ffffff" stroke="#000000" points="516,-197.3631 516,-216.3631 638,-216.3631 638,-197.3631 516,-197.3631"/>
<text text-anchor="middle" x="577" y="-204.3631" font-family="Helvetica,sans-Serif" font-size="10.00" fill="#000000">chi::jsonToGraphModule</text>
</a>
</g>
</g>
<!-- Node88&#45;&gt;Node89 -->
<g id="edge20" class="edge">
<title>Node88&#45;&gt;Node89</title>
<path fill="none" stroke="#191970" d="M490.1006,-206.8631C498.683,-206.8631 507.363,-206.8631 515.7471,-206.8631"/>
<polygon fill="#191970" stroke="#191970" points="490.0941,-203.3632 480.0941,-206.8631 490.094,-210.3632 490.0941,-203.3632"/>
</g>
<!-- Node90 -->
<g id="node17" class="node">
<title>Node90</title>
<g id="a_node17"><a xlink:href="structchi_1_1Context.html#a2db103f3a2f77710dfa51489f63ec97f" target="_top" xlink:title="Load a module from JSON – avoid this use the string overload. ">
<polygon fill="#ffffff" stroke="#000000" points="674,-197.3631 674,-216.3631 840,-216.3631 840,-197.3631 674,-197.3631"/>
<text text-anchor="middle" x="757" y="-204.3631" font-family="Helvetica,sans-Serif" font-size="10.00" fill="#000000">chi::Context::addModuleFromJson</text>
</a>
</g>
</g>
<!-- Node89&#45;&gt;Node90 -->
<g id="edge21" class="edge">
<title>Node89&#45;&gt;Node90</title>
<path fill="none" stroke="#191970" d="M648.3335,-206.8631C656.7586,-206.8631 665.412,-206.8631 673.9806,-206.8631"/>
<polygon fill="#191970" stroke="#191970" points="648.191,-203.3632 638.191,-206.8631 648.1909,-210.3632 648.191,-203.3632"/>
</g>
<!-- Node91 -->
<g id="node18" class="node">
<title>Node91</title>
<g id="a_node18"><a xlink:href="structchi_1_1Context.html#a508c786fe61ffa67c2a44850ecac4a7b" target="_top" xlink:title="Load a module from disk, also loads dependencies. ">
<polygon fill="#ffffff" stroke="#000000" points="876,-197.3631 876,-216.3631 1001,-216.3631 1001,-197.3631 876,-197.3631"/>
<text text-anchor="middle" x="938.5" y="-204.3631" font-family="Helvetica,sans-Serif" font-size="10.00" fill="#000000">chi::Context::loadModule</text>
</a>
</g>
</g>
<!-- Node90&#45;&gt;Node91 -->
<g id="edge22" class="edge">
<title>Node90&#45;&gt;Node91</title>
<path fill="none" stroke="#191970" d="M850.2319,-206.8631C858.9115,-206.8631 867.5607,-206.8631 875.8618,-206.8631"/>
<polygon fill="#191970" stroke="#191970" points="850.0481,-203.3632 840.048,-206.8631 850.048,-210.3632 850.0481,-203.3632"/>
</g>
<!-- Node92 -->
<g id="node19" class="node">
<title>Node92</title>
<g id="a_node19"><a xlink:href="structchi_1_1ChiModule.html#aab11d61e0c0138e5fc5ce176c20e3bec" target="_top" xlink:title="Add a dependency to the module Loads the module from context() if it isn&#39;t already loaded...">
<polygon fill="#ffffff" stroke="#000000" points="1037,-197.3631 1037,-216.3631 1194,-216.3631 1194,-197.3631 1037,-197.3631"/>
<text text-anchor="middle" x="1115.5" y="-204.3631" font-family="Helvetica,sans-Serif" font-size="10.00" fill="#000000">chi::ChiModule::addDependency</text>
</a>
</g>
</g>
<!-- Node91&#45;&gt;Node92 -->
<g id="edge23" class="edge">
<title>Node91&#45;&gt;Node92</title>
<path fill="none" stroke="#191970" d="M1011.4468,-206.8631C1019.7758,-206.8631 1028.2946,-206.8631 1036.6954,-206.8631"/>
<polygon fill="#191970" stroke="#191970" points="1011.402,-203.3632 1001.402,-206.8631 1011.4019,-210.3632 1011.402,-203.3632"/>
</g>
<!-- Node93 -->
<g id="node20" class="node">
<title>Node93</title>
<g id="a_node20"><a xlink:href="structchi_1_1ChiModule.html#a9c0d4b1b54bca0194ea4061ae4883779" target="_top" xlink:title="Get the dependencies. ">
<polygon fill="#ffffff" stroke="#000000" points="1235,-197.3631 1235,-216.3631 1382,-216.3631 1382,-197.3631 1235,-197.3631"/>
<text text-anchor="middle" x="1308.5" y="-204.3631" font-family="Helvetica,sans-Serif" font-size="10.00" fill="#000000">chi::ChiModule::dependencies</text>
</a>
</g>
</g>
<!-- Node92&#45;&gt;Node93 -->
<g id="edge24" class="edge">
<title>Node92&#45;&gt;Node93</title>
<path fill="none" stroke="#191970" d="M1204.1712,-206.8631C1214.3983,-206.8631 1224.7436,-206.8631 1234.7433,-206.8631"/>
<polygon fill="#191970" stroke="#191970" points="1204.0005,-203.3632 1194.0005,-206.8631 1204.0005,-210.3632 1204.0005,-203.3632"/>
</g>
<!-- Node94 -->
<g id="node21" class="node">
<title>Node94</title>
<g id="a_node21"><a xlink:href="structchi_1_1GraphModule.html#a1f776646b9c9bdd615f7e35cebf7760a" target="_top" xlink:title="Construct a GraphModule. ">
<polygon fill="#ffffff" stroke="#000000" points="1230,-159.3631 1230,-178.3631 1387,-178.3631 1387,-159.3631 1230,-159.3631"/>
<text text-anchor="middle" x="1308.5" y="-166.3631" font-family="Helvetica,sans-Serif" font-size="10.00" fill="#000000">chi::GraphModule::GraphModule</text>
</a>
</g>
</g>
<!-- Node92&#45;&gt;Node94 -->
<g id="edge27" class="edge">
<title>Node92&#45;&gt;Node94</title>
<path fill="none" stroke="#191970" d="M1174.1016,-195.3249C1201.6289,-189.9051 1234.0476,-183.5221 1260.1482,-178.3831"/>
<polygon fill="#191970" stroke="#191970" points="1173.3375,-191.9081 1164.202,-197.2741 1174.6898,-198.7762 1173.3375,-191.9081"/>
</g>
<!-- Node93&#45;&gt;Node75 -->
<g id="edge25" class="edge">
<title>Node93&#45;&gt;Node75</title>
<path fill="none" stroke="#191970" d="M1392.3096,-215.4939C1402.4689,-216.5401 1412.7658,-217.6005 1422.7021,-218.6237"/>
<polygon fill="#191970" stroke="#191970" points="1392.5207,-211.9972 1382.2147,-214.4543 1391.8035,-218.9604 1392.5207,-211.9972"/>
</g>
<!-- Node93&#45;&gt;Node86 -->
<g id="edge26" class="edge">
<title>Node93&#45;&gt;Node86</title>
<path fill="none" stroke="#191970" d="M1364.8672,-195.2536C1391.1074,-189.8491 1421.936,-183.4995 1446.7776,-178.3831"/>
<polygon fill="#191970" stroke="#191970" points="1364.1455,-191.8287 1355.0571,-197.2741 1365.5576,-198.6848 1364.1455,-191.8287"/>
</g>
</g>
</svg>
        <g id="navigator" transform="translate(0 0)" fill="#404254">
                <rect fill="#f2f5e9" fill-opacity="0.5" stroke="#606060" stroke-width=".5" x="0" y="0" width="60" height="60"/>
                <use id="zoomplus" xlink:href="#zoomPlus" x="17" y="9" onmousedown="handleZoom(evt,'in')"/>
                <use id="zoomminus" xlink:href="#zoomMin" x="42" y="9" onmousedown="handleZoom(evt,'out')"/>
                <use id="reset" xlink:href="#resetDef" x="30" y="36" onmousedown="handleReset()"/>
                <g id="arrowUp" xlink:href="#dirArrow" transform="translate(30 24)" onmousedown="handlePan(0,-1)">
                  <use xlink:href="#rim" fill="#404040">
                        <set attributeName="fill" to="#808080" begin="arrowUp.mouseover" end="arrowUp.mouseout"/>
                  </use>
                  <path fill="none" stroke="white" stroke-width="1.5" d="M0,-3.0v7 M-2.5,-0.5L0,-3.0L2.5,-0.5"/>
                </g>
                <g id="arrowRight" xlink:href="#dirArrow" transform="rotate(90) translate(36 -43)" onmousedown="handlePan(1,0)">
                  <use xlink:href="#rim" fill="#404040">
                        <set attributeName="fill" to="#808080" begin="arrowRight.mouseover" end="arrowRight.mouseout"/>
                  </use>
                  <path fill="none" stroke="white" stroke-width="1.5" d="M0,-3.0v7 M-2.5,-0.5L0,-3.0L2.5,-0.5"/>
                </g>
                <g id="arrowDown" xlink:href="#dirArrow" transform="rotate(180) translate(-30 -48)" onmousedown="handlePan(0,1)">
                  <use xlink:href="#rim" fill="#404040">
                        <set attributeName="fill" to="#808080" begin="arrowDown.mouseover" end="arrowDown.mouseout"/>
                  </use>
                  <path fill="none" stroke="white" stroke-width="1.5" d="M0,-3.0v7 M-2.5,-0.5L0,-3.0L2.5,-0.5"/>
                </g>
                <g id="arrowLeft" xlink:href="#dirArrow" transform="rotate(270) translate(-36 17)" onmousedown="handlePan(-1,0)">
                  <use xlink:href="#rim" fill="#404040">
                        <set attributeName="fill" to="#808080" begin="arrowLeft.mouseover" end="arrowLeft.mouseout"/>
                  </use>
                  <path fill="none" stroke="white" stroke-width="1.5" d="M0,-3.0v7 M-2.5,-0.5L0,-3.0L2.5,-0.5"/>
                </g>
        </g>
        <svg viewBox="0 0 15 15" width="100%" height="30px" preserveAspectRatio="xMaxYMin meet">
         <g id="arrow_out" transform="scale(0.3 0.3)">
          <a xlink:href="structchi_1_1Context_ad1bbd4d5eb33a8ce34292eb6a192d10d_icgraph_org.svg" target="_base">
           <rect id="button" ry="5" rx="5" y="6" x="6" height="38" width="38"
                fill="#f2f5e9" fill-opacity="0.5" stroke="#606060" stroke-width="1.0"/>
           <path id="arrow"
             d="M 11.500037,31.436501 C 11.940474,20.09759 22.043105,11.32322 32.158766,21.979434 L 37.068811,17.246167 C 37.068811,17.246167 37.088388,32 37.088388,32 L 22.160133,31.978069 C 22.160133,31.978069 26.997745,27.140456 26.997745,27.140456 C 18.528582,18.264221 13.291696,25.230495 11.500037,31.436501 z"
             style="fill:#404040;"/>
          </a>
         </g>
        </svg>
</svg>
