<?xml version="1.0" encoding="UTF-8" standalone="no"?>
<!DOCTYPE svg PUBLIC "-//W3C//DTD SVG 1.1//EN"
 "http://www.w3.org/Graphics/SVG/1.1/DTD/svg11.dtd">
<!-- Generated by graphviz version 2.40.1 (20161225.0304)
 -->
<!-- Title: chi::GraphFunction::dataOutputs Pages: 1 -->
<svg width="247pt" height="186pt"
 viewBox="0.00 0.00 247.00 186.00" xmlns="http://www.w3.org/2000/svg" xmlns:xlink="http://www.w3.org/1999/xlink">
<g id="graph0" class="graph" transform="scale(1 1) rotate(0) translate(4 182)">
<title>chi::GraphFunction::dataOutputs</title>
<polygon fill="#ffffff" stroke="transparent" points="-4,4 -4,-182 243,-182 243,4 -4,4"/>
<!-- Node196 -->
<g id="node1" class="node">
<title>Node196</title>
<polygon fill="#bfbfbf" stroke="#000000" points="0,-73.5 0,-103.5 99,-103.5 99,-73.5 0,-73.5"/>
<text text-anchor="start" x="8" y="-91.5" font-family="Helvetica,sans-Serif" font-size="10.00" fill="#000000">chi::GraphFunction</text>
<text text-anchor="middle" x="49.5" y="-80.5" font-family="Helvetica,sans-Serif" font-size="10.00" fill="#000000">::dataOutputs</text>
</g>
<!-- Node197 -->
<g id="node2" class="node">
<title>Node197</title>
<g id="a_node2"><a xlink:href="structchi_1_1GraphFunction.html#aef07b609586e0961cc16d0000362470d" target="_top" xlink:title="Add an data output to the end of the argument list. ">
<polygon fill="#ffffff" stroke="#000000" points="137.5,-147.5 137.5,-177.5 236.5,-177.5 236.5,-147.5 137.5,-147.5"/>
<text text-anchor="start" x="145.5" y="-165.5" font-family="Helvetica,sans-Serif" font-size="10.00" fill="#000000">chi::GraphFunction</text>
<text text-anchor="middle" x="187" y="-154.5" font-family="Helvetica,sans-Serif" font-size="10.00" fill="#000000">::addDataOutput</text>
</a>
</g>
</g>
<!-- Node196&#45;&gt;Node197 -->
<g id="edge1" class="edge">
<title>Node196&#45;&gt;Node197</title>
<path fill="none" stroke="#191970" d="M73.8399,-103.5812C90.7587,-113.8534 113.9603,-127.5255 135,-138.5 137.9092,-140.0175 140.9324,-141.5425 143.992,-143.048"/>
<polygon fill="#191970" stroke="#191970" points="142.673,-146.2973 153.2018,-147.4784 145.7075,-139.9893 142.673,-146.2973"/>
</g>
<!-- Node198 -->
<g id="node3" class="node">
<title>Node198</title>
<g id="a_node3"><a xlink:href="structchi_1_1GraphFunction.html#a65db0e7550128544600ebb1fff4bd69c" target="_top" xlink:title="Remove an data output from the argument list Also removes invalid connections If idx is out of range...">
<polygon fill="#ffffff" stroke="#000000" points="135,-98.5 135,-128.5 239,-128.5 239,-98.5 135,-98.5"/>
<text text-anchor="start" x="143" y="-116.5" font-family="Helvetica,sans-Serif" font-size="10.00" fill="#000000">chi::GraphFunction</text>
<text text-anchor="middle" x="187" y="-105.5" font-family="Helvetica,sans-Serif" font-size="10.00" fill="#000000">::removeDataOutput</text>
</a>
</g>
</g>
<!-- Node196&#45;&gt;Node198 -->
<g id="edge2" class="edge">
<title>Node196&#45;&gt;Node198</title>
<path fill="none" stroke="#191970" d="M99.1407,-97.5256C107.4341,-99.0335 116.1305,-100.6146 124.6924,-102.1713"/>
<polygon fill="#191970" stroke="#191970" points="124.1846,-105.6363 134.6494,-103.9817 125.4369,-98.7492 124.1846,-105.6363"/>
</g>
<!-- Node199 -->
<g id="node4" class="node">
<title>Node199</title>
<g id="a_node4"><a xlink:href="structchi_1_1GraphFunction.html#a8b31017553adfc52ad6140868c328fbd" target="_top" xlink:title="Modify an data output (change it&#39;s type and docstring) ">
<polygon fill="#ffffff" stroke="#000000" points="135,-49.5 135,-79.5 239,-79.5 239,-49.5 135,-49.5"/>
<text text-anchor="start" x="143" y="-67.5" font-family="Helvetica,sans-Serif" font-size="10.00" fill="#000000">chi::GraphFunction</text>
<text text-anchor="middle" x="187" y="-56.5" font-family="Helvetica,sans-Serif" font-size="10.00" fill="#000000">::renameDataOutput</text>
</a>
</g>
</g>
<!-- Node196&#45;&gt;Node199 -->
<g id="edge3" class="edge">
<title>Node196&#45;&gt;Node199</title>
<path fill="none" stroke="#191970" d="M99.1407,-79.8354C107.4341,-78.3879 116.1305,-76.87 124.6924,-75.3755"/>
<polygon fill="#191970" stroke="#191970" points="125.4002,-78.805 134.6494,-73.6376 124.1965,-71.9092 125.4002,-78.805"/>
</g>
<!-- Node200 -->
<g id="node5" class="node">
<title>Node200</title>
<g id="a_node5"><a xlink:href="structchi_1_1GraphFunction.html#a7772a0180716a2c29436d086d757743e" target="_top" xlink:title="Change the type of a data output This also updates all exit nodes and disconnects invalid connections...">
<polygon fill="#ffffff" stroke="#000000" points="137.5,-.5 137.5,-30.5 236.5,-30.5 236.5,-.5 137.5,-.5"/>
<text text-anchor="start" x="145.5" y="-18.5" font-family="Helvetica,sans-Serif" font-size="10.00" fill="#000000">chi::GraphFunction</text>
<text text-anchor="middle" x="187" y="-7.5" font-family="Helvetica,sans-Serif" font-size="10.00" fill="#000000">::retypeDataOutput</text>
</a>
</g>
</g>
<!-- Node196&#45;&gt;Node200 -->
<g id="edge4" class="edge">
<title>Node196&#45;&gt;Node200</title>
<path fill="none" stroke="#191970" d="M75.4598,-73.3611C92.288,-63.6883 114.7654,-51.0305 135,-40.5 138.4987,-38.6792 142.1514,-36.8271 145.8278,-34.9963"/>
<polygon fill="#191970" stroke="#191970" points="147.5088,-38.0701 154.9413,-30.5197 144.4225,-31.7872 147.5088,-38.0701"/>
</g>
</g>
</svg>
