<?xml version="1.0" encoding="UTF-8" standalone="no"?>
<!DOCTYPE svg PUBLIC "-//W3C//DTD SVG 1.1//EN"
 "http://www.w3.org/Graphics/SVG/1.1/DTD/svg11.dtd">
<!-- Generated by graphviz version 2.40.1 (20161225.0304)
 -->
<!-- Title: chi::GraphStruct::module Pages: 1 -->
<svg width="987pt" height="142pt"
 viewBox="0.00 0.00 987.00 142.00" xmlns="http://www.w3.org/2000/svg" xmlns:xlink="http://www.w3.org/1999/xlink">
<g id="graph0" class="graph" transform="scale(1 1) rotate(0) translate(4 138)">
<title>chi::GraphStruct::module</title>
<polygon fill="#ffffff" stroke="transparent" points="-4,4 -4,-138 983,-138 983,4 -4,4"/>
<!-- Node48 -->
<g id="node1" class="node">
<title>Node48</title>
<polygon fill="#bfbfbf" stroke="#000000" points="0,-54.5 0,-73.5 125,-73.5 125,-54.5 0,-54.5"/>
<text text-anchor="middle" x="62.5" y="-61.5" font-family="Helvetica,sans-Serif" font-size="10.00" fill="#000000">chi::GraphStruct::module</text>
</g>
<!-- Node49 -->
<g id="node2" class="node">
<title>Node49</title>
<g id="a_node2"><a xlink:href="structchi_1_1GraphStruct.html#a27c5062196f73eae3125c0baeb592d00" target="_top" xlink:title="Get the DataType of the struct. ">
<polygon fill="#ffffff" stroke="#000000" points="161,-76.5 161,-95.5 295,-95.5 295,-76.5 161,-76.5"/>
<text text-anchor="middle" x="228" y="-83.5" font-family="Helvetica,sans-Serif" font-size="10.00" fill="#000000">chi::GraphStruct::dataType</text>
</a>
</g>
</g>
<!-- Node48&#45;&gt;Node49 -->
<g id="edge1" class="edge">
<title>Node48&#45;&gt;Node49</title>
<path fill="none" stroke="#191970" d="M135.0681,-73.6465C143.6639,-74.7892 152.4086,-75.9516 160.9234,-77.0835"/>
<polygon fill="#191970" stroke="#191970" points="135.4425,-70.1656 125.0685,-72.3173 134.52,-77.1045 135.4425,-70.1656"/>
</g>
<!-- Node57 -->
<g id="node10" class="node">
<title>Node57</title>
<g id="a_node10"><a xlink:href="structchi_1_1GraphModule.html#ac7147fb4875838de42b33a72834f3203" target="_top" xlink:title="Remove a struct from the module by pointer. ">
<polygon fill="#ffffff" stroke="#000000" points="162.5,-27 162.5,-57 293.5,-57 293.5,-27 162.5,-27"/>
<text text-anchor="start" x="170.5" y="-45" font-family="Helvetica,sans-Serif" font-size="10.00" fill="#000000">chi::GraphModule::remove</text>
<text text-anchor="middle" x="228" y="-34" font-family="Helvetica,sans-Serif" font-size="10.00" fill="#000000">Struct</text>
</a>
</g>
</g>
<!-- Node48&#45;&gt;Node57 -->
<g id="edge13" class="edge">
<title>Node48&#45;&gt;Node57</title>
<path fill="none" stroke="#191970" d="M135.1711,-54.3398C144.201,-53.1394 153.3934,-51.9175 162.3096,-50.7323"/>
<polygon fill="#191970" stroke="#191970" points="134.52,-50.8955 125.0685,-55.6827 135.4425,-57.8344 134.52,-50.8955"/>
</g>
<!-- Node50 -->
<g id="node3" class="node">
<title>Node50</title>
<g id="a_node3"><a xlink:href="structchi_1_1GraphStruct.html#ae1895cfaebac03e21d35ec2a155b3c10" target="_top" xlink:title="Get the types the struct contains. ">
<polygon fill="#ffffff" stroke="#000000" points="331,-76.5 331,-95.5 449,-95.5 449,-76.5 331,-76.5"/>
<text text-anchor="middle" x="390" y="-83.5" font-family="Helvetica,sans-Serif" font-size="10.00" fill="#000000">chi::GraphStruct::types</text>
</a>
</g>
</g>
<!-- Node49&#45;&gt;Node50 -->
<g id="edge2" class="edge">
<title>Node49&#45;&gt;Node50</title>
<path fill="none" stroke="#191970" d="M305.3426,-79.2561C313.9429,-79.2273 322.5982,-79.3002 330.9198,-79.4747"/>
<polygon fill="#191970" stroke="#191970" points="305.2668,-75.7565 295.2952,-79.3366 305.323,-82.7563 305.2668,-75.7565"/>
</g>
<!-- Node50&#45;&gt;Node49 -->
<g id="edge9" class="edge">
<title>Node50&#45;&gt;Node49</title>
<path fill="none" stroke="#191970" d="M320.743,-92.6865C312.3085,-92.7783 303.7005,-92.7706 295.2952,-92.6634"/>
<polygon fill="#191970" stroke="#191970" points="320.9766,-96.1834 330.9198,-92.5253 320.8656,-89.1843 320.9766,-96.1834"/>
</g>
<!-- Node51 -->
<g id="node4" class="node">
<title>Node51</title>
<g id="a_node4"><a xlink:href="structchi_1_1GraphStruct.html#ad2857a2f5fec097866d903468e4e4b85" target="_top" xlink:title="Add a new type to the struct. ">
<polygon fill="#ffffff" stroke="#000000" points="493.5,-114.5 493.5,-133.5 624.5,-133.5 624.5,-114.5 493.5,-114.5"/>
<text text-anchor="middle" x="559" y="-121.5" font-family="Helvetica,sans-Serif" font-size="10.00" fill="#000000">chi::GraphStruct::addType</text>
</a>
</g>
</g>
<!-- Node50&#45;&gt;Node51 -->
<g id="edge3" class="edge">
<title>Node50&#45;&gt;Node51</title>
<path fill="none" stroke="#191970" d="M458.9482,-94.8558C487.1102,-100.8125 517.6592,-108.3366 537.4942,-114.4825"/>
<polygon fill="#191970" stroke="#191970" points="459.6099,-91.4186 449.108,-92.8191 458.191,-98.2733 459.6099,-91.4186"/>
</g>
<!-- Node52 -->
<g id="node5" class="node">
<title>Node52</title>
<g id="a_node5"><a xlink:href="structchi_1_1GraphStruct.html#a14ceb731adea8daa0edd34c22d9fab6a" target="_top" xlink:title="Change the type and name of a type. ">
<polygon fill="#ffffff" stroke="#000000" points="486.5,-76.5 486.5,-95.5 631.5,-95.5 631.5,-76.5 486.5,-76.5"/>
<text text-anchor="middle" x="559" y="-83.5" font-family="Helvetica,sans-Serif" font-size="10.00" fill="#000000">chi::GraphStruct::modifyType</text>
</a>
</g>
</g>
<!-- Node50&#45;&gt;Node52 -->
<g id="edge5" class="edge">
<title>Node50&#45;&gt;Node52</title>
<path fill="none" stroke="#191970" d="M459.3815,-79.347C468.2435,-79.2322 477.3348,-79.2193 486.2483,-79.3083"/>
<polygon fill="#191970" stroke="#191970" points="459.0446,-75.8523 449.108,-79.5285 459.1683,-82.8512 459.0446,-75.8523"/>
</g>
<!-- Node53 -->
<g id="node6" class="node">
<title>Node53</title>
<g id="a_node6"><a xlink:href="structchi_1_1GraphStruct.html#a02b93bf782565092d7ef58e2320f7589" target="_top" xlink:title="Remove a type from a struct. ">
<polygon fill="#ffffff" stroke="#000000" points="485,-38.5 485,-57.5 633,-57.5 633,-38.5 485,-38.5"/>
<text text-anchor="middle" x="559" y="-45.5" font-family="Helvetica,sans-Serif" font-size="10.00" fill="#000000">chi::GraphStruct::removeType</text>
</a>
</g>
</g>
<!-- Node50&#45;&gt;Node53 -->
<g id="edge7" class="edge">
<title>Node50&#45;&gt;Node53</title>
<path fill="none" stroke="#191970" d="M421.3627,-73.5619C439.8005,-68.3099 463.9187,-62.4536 486.806,-57.547"/>
<polygon fill="#191970" stroke="#191970" points="420.3433,-70.2134 411.7478,-76.4076 422.33,-76.9256 420.3433,-70.2134"/>
</g>
<!-- Node54 -->
<g id="node7" class="node">
<title>Node54</title>
<g id="a_node7"><a xlink:href="namespacechi.html#af74872167b12e4ad8a387faab1f03fbb" target="_top" xlink:title="Serialize a GraphStruct to json. ">
<polygon fill="#ffffff" stroke="#000000" points="500,-.5 500,-19.5 618,-19.5 618,-.5 500,-.5"/>
<text text-anchor="middle" x="559" y="-7.5" font-family="Helvetica,sans-Serif" font-size="10.00" fill="#000000">chi::graphStructToJson</text>
</a>
</g>
</g>
<!-- Node50&#45;&gt;Node54 -->
<g id="edge10" class="edge">
<title>Node50&#45;&gt;Node54</title>
<path fill="none" stroke="#191970" d="M411.5373,-70.5968C430.1938,-57.8746 458.311,-40.1544 485,-29 493.9338,-25.2662 503.7898,-22.1169 513.3156,-19.5223"/>
<polygon fill="#191970" stroke="#191970" points="409.4078,-67.8143 403.1863,-76.3901 413.3977,-73.5659 409.4078,-67.8143"/>
</g>
<!-- Node51&#45;&gt;Node50 -->
<g id="edge4" class="edge">
<title>Node51&#45;&gt;Node50</title>
<path fill="none" stroke="#191970" d="M483.3111,-113.6985C457.2259,-108.0275 430.0084,-101.236 411.7478,-95.5924"/>
<polygon fill="#191970" stroke="#191970" points="482.7222,-117.1515 493.2321,-115.8123 484.181,-110.3052 482.7222,-117.1515"/>
</g>
<!-- Node52&#45;&gt;Node50 -->
<g id="edge6" class="edge">
<title>Node52&#45;&gt;Node50</title>
<path fill="none" stroke="#191970" d="M476.0205,-92.749C466.9329,-92.7606 457.8219,-92.6681 449.108,-92.4715"/>
<polygon fill="#191970" stroke="#191970" points="476.2681,-96.2478 486.2483,-92.6917 476.2288,-89.2479 476.2681,-96.2478"/>
</g>
<!-- Node53&#45;&gt;Node50 -->
<g id="edge8" class="edge">
<title>Node53&#45;&gt;Node50</title>
<path fill="none" stroke="#191970" d="M527.6955,-60.4215C505.6881,-66.6929 475.5672,-73.8286 449.108,-79.1809"/>
<polygon fill="#191970" stroke="#191970" points="528.901,-63.7148 537.4942,-57.5175 526.9118,-57.0034 528.901,-63.7148"/>
</g>
<!-- Node55 -->
<g id="node8" class="node">
<title>Node55</title>
<g id="a_node8"><a xlink:href="namespacechi.html#a9a4f3fa54c612f0c559a353bb7382d5a" target="_top" xlink:title="Serialize a JsonModule to json. ">
<polygon fill="#ffffff" stroke="#000000" points="669,-.5 669,-19.5 792,-19.5 792,-.5 669,-.5"/>
<text text-anchor="middle" x="730.5" y="-7.5" font-family="Helvetica,sans-Serif" font-size="10.00" fill="#000000">chi::graphModuleToJson</text>
</a>
</g>
</g>
<!-- Node54&#45;&gt;Node55 -->
<g id="edge11" class="edge">
<title>Node54&#45;&gt;Node55</title>
<path fill="none" stroke="#191970" d="M628.1549,-10C641.5813,-10 655.572,-10 668.7417,-10"/>
<polygon fill="#191970" stroke="#191970" points="628.0206,-6.5001 618.0206,-10 628.0205,-13.5001 628.0206,-6.5001"/>
</g>
<!-- Node56 -->
<g id="node9" class="node">
<title>Node56</title>
<g id="a_node9"><a xlink:href="structchi_1_1GraphModule.html#a5cd9fb1738336d5d382ebb50753bda3e" target="_top" xlink:title="Serialize to disk in the context. ">
<polygon fill="#ffffff" stroke="#000000" points="828,-.5 828,-19.5 979,-19.5 979,-.5 828,-.5"/>
<text text-anchor="middle" x="903.5" y="-7.5" font-family="Helvetica,sans-Serif" font-size="10.00" fill="#000000">chi::GraphModule::saveToDisk</text>
</a>
</g>
</g>
<!-- Node55&#45;&gt;Node56 -->
<g id="edge12" class="edge">
<title>Node55&#45;&gt;Node56</title>
<path fill="none" stroke="#191970" d="M802.5243,-10C810.8612,-10 819.3827,-10 827.7672,-10"/>
<polygon fill="#191970" stroke="#191970" points="802.4684,-6.5001 792.4683,-10 802.4683,-13.5001 802.4684,-6.5001"/>
</g>
</g>
</svg>
