<?xml version="1.0" encoding="UTF-8" standalone="no"?>
<!DOCTYPE svg PUBLIC "-//W3C//DTD SVG 1.1//EN"
 "http://www.w3.org/Graphics/SVG/1.1/DTD/svg11.dtd">
<!-- Generated by graphviz version 2.40.1 (20161225.0304)
 -->
<!-- Title: chi::NodeCompiler::jumpBackInst Pages: 1 -->
<!--zoomable 827 -->
<svg id="main" version="1.1" xmlns="http://www.w3.org/2000/svg" xmlns:xlink="http://www.w3.org/1999/xlink" xml:space="preserve" onload="init(evt)">
<style type="text/css"><![CDATA[
.edge:hover path { stroke: red; }
.edge:hover polygon { stroke: red; fill: red; }
]]></style>
<script type="text/javascript"><![CDATA[
var edges = document.getElementsByTagName('g');
if (edges && edges.length) {
  for (var i=0;i<edges.length;i++) {
    if (edges[i].id.substr(0,4)=='edge') {
      edges[i].setAttribute('class','edge');
    }
  }
}
]]></script>
        <defs>
                <circle id="rim" cx="0" cy="0" r="7"/>
                <circle id="rim2" cx="0" cy="0" r="3.5"/>
                <g id="zoomPlus">
                        <use xlink:href="#rim" fill="#404040">
                                <set attributeName="fill" to="#808080" begin="zoomplus.mouseover" end="zoomplus.mouseout"/>
                        </use>
                        <path d="M-4,0h8M0,-4v8" fill="none" stroke="white" stroke-width="1.5" pointer-events="none"/>
                </g>
                <g id="zoomMin">
                        <use xlink:href="#rim" fill="#404040">
                                <set attributeName="fill" to="#808080" begin="zoomminus.mouseover" end="zoomminus.mouseout"/>
                        </use>
                        <path d="M-4,0h8" fill="none" stroke="white" stroke-width="1.5" pointer-events="none"/>
                </g>
                <g id="dirArrow">
                        <path fill="none" stroke="white" stroke-width="1.5" d="M0,-3.0v7 M-2.5,-0.5L0,-3.0L2.5,-0.5"/>
                </g>
               <g id="resetDef">
                       <use xlink:href="#rim2" fill="#404040">
                               <set attributeName="fill" to="#808080" begin="reset.mouseover" end="reset.mouseout"/>
                       </use>
               </g>
        </defs>

<script type="text/javascript">
var viewWidth = 1192;
var viewHeight = 827;
var sectionId = 'dynsection-14';
</script>
<script xlink:href="svgpan.js"/>
<svg id="graph" class="graph">
<g id="viewport">
<title>chi::NodeCompiler::jumpBackInst</title>
<polygon fill="#ffffff" stroke="transparent" points="-4,4 -4,-823 1188,-823 1188,4 -4,4"/>
<!-- Node246 -->
<g id="node1" class="node">
<title>Node246</title>
<polygon fill="#bfbfbf" stroke="#000000" points="0,-766 0,-796 102,-796 102,-766 0,-766"/>
<text text-anchor="start" x="8" y="-784" font-family="Helvetica,sans-Serif" font-size="10.00" fill="#000000">chi::NodeCompiler::</text>
<text text-anchor="middle" x="51" y="-773" font-family="Helvetica,sans-Serif" font-size="10.00" fill="#000000">jumpBackInst</text>
</g>
<!-- Node247 -->
<g id="node2" class="node">
<title>Node247</title>
<g id="a_node2"><a xlink:href="namespacechi.html#a00be19cc8464681f474ecbcd27abe13c" target="_top" xlink:title="Get the pures a NodeInstance relies on These are all the dependent pures (it&#39;s fetched recursively) T...">
<polygon fill="#ffffff" stroke="#000000" points="759,-734.5 759,-753.5 908,-753.5 908,-734.5 759,-734.5"/>
<text text-anchor="middle" x="833.5" y="-741.5" font-family="Helvetica,sans-Serif" font-size="10.00" fill="#000000">chi::dependentPuresRecursive</text>
</a>
</g>
</g>
<!-- Node246&#45;&gt;Node247 -->
<g id="edge1" class="edge">
<title>Node246&#45;&gt;Node247</title>
<path fill="none" stroke="#191970" d="M102.1096,-791.2833C162.5847,-802.5372 266.4419,-819 356.5,-819 356.5,-819 356.5,-819 505,-819 614.7697,-819 740.1129,-778.7048 799.2234,-757.1861"/>
<polygon fill="#191970" stroke="#191970" points="800.6317,-760.3972 808.8014,-753.6514 798.2081,-753.8301 800.6317,-760.3972"/>
</g>
<!-- Node248 -->
<g id="node3" class="node">
<title>Node248</title>
<g id="a_node3"><a xlink:href="structchi_1_1NodeCompiler.html#aa31a7c7955b51e5610b966f81bdc989d" target="_top" xlink:title="node().type().pure() ">
<polygon fill="#ffffff" stroke="#000000" points="138,-431.5 138,-450.5 259,-450.5 259,-431.5 138,-431.5"/>
<text text-anchor="middle" x="198.5" y="-438.5" font-family="Helvetica,sans-Serif" font-size="10.00" fill="#000000">chi::NodeCompiler::pure</text>
</a>
</g>
</g>
<!-- Node246&#45;&gt;Node248 -->
<g id="edge2" class="edge">
<title>Node246&#45;&gt;Node248</title>
<path fill="none" stroke="#191970" d="M57.5282,-765.9519C81.4033,-710.9179 163.9553,-520.6285 190.3304,-459.8315"/>
<polygon fill="#191970" stroke="#191970" points="193.5526,-461.1983 194.3217,-450.6314 187.1309,-458.4123 193.5526,-461.1983"/>
</g>
<!-- Node249 -->
<g id="node4" class="node">
<title>Node249</title>
<g id="a_node4"><a xlink:href="structchi_1_1NodeCompiler.html#a8a595537ffd4b3116059d59e3fd61f8b" target="_top" xlink:title="The node we&#39;re compiling. ">
<polygon fill="#ffffff" stroke="#000000" points="295,-431.5 295,-450.5 418,-450.5 418,-431.5 295,-431.5"/>
<text text-anchor="middle" x="356.5" y="-438.5" font-family="Helvetica,sans-Serif" font-size="10.00" fill="#000000">chi::NodeCompiler::node</text>
</a>
</g>
</g>
<!-- Node248&#45;&gt;Node249 -->
<g id="edge3" class="edge">
<title>Node248&#45;&gt;Node249</title>
<path fill="none" stroke="#191970" d="M259.1351,-434.4148C267.5792,-434.2607 276.3197,-434.2147 284.941,-434.2767"/>
<polygon fill="#191970" stroke="#191970" points="284.9399,-437.7768 294.9819,-434.3991 285.0253,-430.7774 284.9399,-437.7768"/>
</g>
<!-- Node264 -->
<g id="node19" class="node">
<title>Node264</title>
<g id="a_node19"><a xlink:href="structchi_1_1NodeInstance.html#a5d6678d5a90e6b1adb7dafb868b974b1" target="_top" xlink:title="Get the type of the instance. ">
<polygon fill="#ffffff" stroke="#000000" points="597.5,-.5 597.5,-19.5 717.5,-19.5 717.5,-.5 597.5,-.5"/>
<text text-anchor="middle" x="657.5" y="-7.5" font-family="Helvetica,sans-Serif" font-size="10.00" fill="#000000">chi::NodeInstance::type</text>
</a>
</g>
</g>
<!-- Node248&#45;&gt;Node264 -->
<g id="edge46" class="edge">
<title>Node248&#45;&gt;Node264</title>
<path fill="none" stroke="#191970" d="M204.9531,-431.2813C219.7058,-409.3554 257.5251,-354.7788 295,-314 344.8256,-259.7816 364.2468,-253.3271 418,-203 496.6971,-129.319 500.7194,-91.3583 592,-34 598.7054,-29.7865 606.2589,-26.1596 613.7896,-23.0946"/>
<polygon fill="#191970" stroke="#191970" points="615.139,-26.3262 623.2509,-19.5109 612.6595,-19.7801 615.139,-26.3262"/>
</g>
<!-- Node267 -->
<g id="node22" class="node">
<title>Node267</title>
<g id="a_node22"><a xlink:href="structchi_1_1NodeType.html#a0e5eb5e2862761cd67f3ff4761175dd5" target="_top" xlink:title="Get if this node is pure. ">
<polygon fill="#ffffff" stroke="#000000" points="304.5,-174.5 304.5,-193.5 408.5,-193.5 408.5,-174.5 304.5,-174.5"/>
<text text-anchor="middle" x="356.5" y="-181.5" font-family="Helvetica,sans-Serif" font-size="10.00" fill="#000000">chi::NodeType::pure</text>
</a>
</g>
</g>
<!-- Node248&#45;&gt;Node267 -->
<g id="edge47" class="edge">
<title>Node248&#45;&gt;Node267</title>
<path fill="none" stroke="#191970" d="M199.811,-431.054C204.9835,-395.6732 227.1297,-274.4872 295,-208 298.9913,-204.09 303.6927,-200.7988 308.689,-198.0326"/>
<polygon fill="#191970" stroke="#191970" points="310.4144,-201.0867 317.9112,-193.6001 307.382,-194.7776 310.4144,-201.0867"/>
</g>
<!-- Node249&#45;&gt;Node248 -->
<g id="edge4" class="edge">
<title>Node249&#45;&gt;Node248</title>
<path fill="none" stroke="#191970" d="M294.9819,-447.6009C286.5176,-447.7475 277.7714,-447.786 269.159,-447.7164"/>
<polygon fill="#191970" stroke="#191970" points="269.1801,-444.2165 259.1351,-447.5852 269.0883,-451.2159 269.1801,-444.2165"/>
</g>
<!-- Node250 -->
<g id="node5" class="node">
<title>Node250</title>
<g id="a_node5"><a xlink:href="structchi_1_1NodeCompiler.html#af391b4e8ecebe8859490749bac0425de" target="_top" xlink:title="Add the basic blocks and fill the pure blocks, but don&#39;t fill the code block nop if its already been ...">
<polygon fill="#ffffff" stroke="#000000" points="606.5,-605 606.5,-635 708.5,-635 708.5,-605 606.5,-605"/>
<text text-anchor="start" x="614.5" y="-623" font-family="Helvetica,sans-Serif" font-size="10.00" fill="#000000">chi::NodeCompiler::</text>
<text text-anchor="middle" x="657.5" y="-612" font-family="Helvetica,sans-Serif" font-size="10.00" fill="#000000">compile_stage1</text>
</a>
</g>
</g>
<!-- Node249&#45;&gt;Node250 -->
<g id="edge5" class="edge">
<title>Node249&#45;&gt;Node250</title>
<path fill="none" stroke="#191970" d="M361.6011,-450.6172C372.9821,-476.5744 403.493,-545.528 454,-578 496.2255,-605.1477 553.2663,-612.4538 596.2139,-614.991"/>
<polygon fill="#191970" stroke="#191970" points="596.087,-618.4891 606.2564,-615.517 596.4533,-611.4987 596.087,-618.4891"/>
</g>
<!-- Node251 -->
<g id="node6" class="node">
<title>Node251</title>
<g id="a_node6"><a xlink:href="structchi_1_1NodeCompiler.html#ac63b5729c1bdb67a231a1f948ad59374" target="_top" xlink:title="Get the code block for a given inputExecID Requires that compile_stage1 has been called for this ID...">
<polygon fill="#ffffff" stroke="#000000" points="944,-516 944,-546 1046,-546 1046,-516 944,-516"/>
<text text-anchor="start" x="952" y="-534" font-family="Helvetica,sans-Serif" font-size="10.00" fill="#000000">chi::NodeCompiler::</text>
<text text-anchor="middle" x="995" y="-523" font-family="Helvetica,sans-Serif" font-size="10.00" fill="#000000">codeBlock</text>
</a>
</g>
</g>
<!-- Node249&#45;&gt;Node251 -->
<g id="edge40" class="edge">
<title>Node249&#45;&gt;Node251</title>
<path fill="none" stroke="#191970" d="M365.8251,-450.536C382.1974,-466.7445 417.8207,-499.6868 454,-518 510.759,-546.7303 528.9572,-547.4788 592,-556 649.6975,-563.7987 664.9163,-560.0143 723,-556 739.1151,-554.8862 742.9463,-552.7938 759,-551 818.2009,-544.3851 885.9753,-538.8521 933.6612,-535.2949"/>
<polygon fill="#191970" stroke="#191970" points="934.1075,-538.7715 943.8223,-534.5441 933.5916,-531.7906 934.1075,-538.7715"/>
</g>
<!-- Node252 -->
<g id="node7" class="node">
<title>Node252</title>
<g id="a_node7"><a xlink:href="structchi_1_1NodeCompiler.html#a4599a3322541fe67adfa343c19b00dc4" target="_top" xlink:title="The number of input execs that we can compile If it&#39;s pure or an entry node, this is 1...">
<polygon fill="#ffffff" stroke="#000000" points="1082,-443 1082,-473 1184,-473 1184,-443 1082,-443"/>
<text text-anchor="start" x="1090" y="-461" font-family="Helvetica,sans-Serif" font-size="10.00" fill="#000000">chi::NodeCompiler::</text>
<text text-anchor="middle" x="1133" y="-450" font-family="Helvetica,sans-Serif" font-size="10.00" fill="#000000">inputExecs</text>
</a>
</g>
</g>
<!-- Node249&#45;&gt;Node252 -->
<g id="edge45" class="edge">
<title>Node249&#45;&gt;Node252</title>
<path fill="none" stroke="#191970" d="M373.2681,-431.3886C418.5789,-412.6141 547.472,-376 657.5,-376 657.5,-376 657.5,-376 833.5,-376 928.7608,-376 955.1123,-375.4686 1046,-404 1069.6255,-411.4165 1094.5229,-424.9556 1111.6012,-436.9088"/>
<polygon fill="#191970" stroke="#191970" points="1109.6556,-439.8235 1119.7711,-442.9742 1113.8282,-434.203 1109.6556,-439.8235"/>
</g>
<!-- Node253 -->
<g id="node8" class="node">
<title>Node253</title>
<g id="a_node8"><a xlink:href="structchi_1_1NodeCompiler.html#a7b0bd7aecf8cfc98804b31b21066b6d1" target="_top" xlink:title="Just node().context() ">
<polygon fill="#ffffff" stroke="#000000" points="782.5,-423 782.5,-453 884.5,-453 884.5,-423 782.5,-423"/>
<text text-anchor="start" x="790.5" y="-441" font-family="Helvetica,sans-Serif" font-size="10.00" fill="#000000">chi::NodeCompiler::</text>
<text text-anchor="middle" x="833.5" y="-430" font-family="Helvetica,sans-Serif" font-size="10.00" fill="#000000">context</text>
</a>
</g>
</g>
<!-- Node249&#45;&gt;Node253 -->
<g id="edge44" class="edge">
<title>Node249&#45;&gt;Node253</title>
<path fill="none" stroke="#191970" d="M418.3704,-435.8941C509.999,-432.6021 680.759,-431.5329 772.11,-433.6836"/>
<polygon fill="#191970" stroke="#191970" points="772.222,-437.1875 782.309,-433.9466 772.4026,-430.1899 772.222,-437.1875"/>
</g>
<!-- Node255 -->
<g id="node10" class="node">
<title>Node255</title>
<g id="a_node10"><a xlink:href="structchi_1_1NodeCompiler.html#a12c42cfcd23400c523184966ed238806" target="_top" xlink:title="Get the first block to jump to for the node If there are dependent pures, it&#39;s the first pure block O...">
<polygon fill="#ffffff" stroke="#000000" points="782.5,-685 782.5,-715 884.5,-715 884.5,-685 782.5,-685"/>
<text text-anchor="start" x="790.5" y="-703" font-family="Helvetica,sans-Serif" font-size="10.00" fill="#000000">chi::NodeCompiler::</text>
<text text-anchor="middle" x="833.5" y="-692" font-family="Helvetica,sans-Serif" font-size="10.00" fill="#000000">firstBlock</text>
</a>
</g>
</g>
<!-- Node249&#45;&gt;Node255 -->
<g id="edge39" class="edge">
<title>Node249&#45;&gt;Node255</title>
<path fill="none" stroke="#191970" d="M358.4548,-450.6192C365.318,-481.7562 391.3721,-580.4671 454,-627 548.3831,-697.1271 691.3957,-705.4501 772.2219,-703.7239"/>
<polygon fill="#191970" stroke="#191970" points="772.3417,-707.222 782.2428,-703.4513 772.1512,-700.2246 772.3417,-707.222"/>
</g>
<!-- Node259 -->
<g id="node14" class="node">
<title>Node259</title>
<g id="a_node14"><a xlink:href="structchi_1_1NodeCompiler.html#ac3f5bd1f1f84fc1b35fc8ad54db3c844" target="_top" xlink:title="Fill the codegen block If compile_stage1 hasn&#39;t been called for this inputExecID, then it will be cal...">
<polygon fill="#ffffff" stroke="#000000" points="454,-251 454,-281 556,-281 556,-251 454,-251"/>
<text text-anchor="start" x="462" y="-269" font-family="Helvetica,sans-Serif" font-size="10.00" fill="#000000">chi::NodeCompiler::</text>
<text text-anchor="middle" x="505" y="-258" font-family="Helvetica,sans-Serif" font-size="10.00" fill="#000000">compile_stage2</text>
</a>
</g>
</g>
<!-- Node249&#45;&gt;Node259 -->
<g id="edge24" class="edge">
<title>Node249&#45;&gt;Node259</title>
<path fill="none" stroke="#191970" d="M360.7202,-431.1598C370.7501,-414.2135 396.7644,-381.6127 418,-354 434.2566,-332.8615 436.3274,-325.9697 454,-306 459.3783,-299.9227 465.3789,-293.7172 471.322,-288.0099"/>
<polygon fill="#191970" stroke="#191970" points="473.8228,-290.4639 478.7681,-281.094 469.059,-285.3349 473.8228,-290.4639"/>
</g>
<!-- Node261 -->
<g id="node16" class="node">
<title>Node261</title>
<g id="a_node16"><a xlink:href="structchi_1_1NodeCompiler.html#ab3db1222a66ea1767cd6dbc8a8a10963" target="_top" xlink:title="Get if compile_stage2 has been called for a given inputExecID. ">
<polygon fill="#ffffff" stroke="#000000" points="606.5,-241 606.5,-271 708.5,-271 708.5,-241 606.5,-241"/>
<text text-anchor="start" x="614.5" y="-259" font-family="Helvetica,sans-Serif" font-size="10.00" fill="#000000">chi::NodeCompiler::</text>
<text text-anchor="middle" x="657.5" y="-248" font-family="Helvetica,sans-Serif" font-size="10.00" fill="#000000">compiled</text>
</a>
</g>
</g>
<!-- Node249&#45;&gt;Node261 -->
<g id="edge38" class="edge">
<title>Node249&#45;&gt;Node261</title>
<path fill="none" stroke="#191970" d="M366.7831,-431.4958C384.0011,-415.859 420.1178,-384.2271 454,-362 506.797,-327.3645 572.2319,-294.9812 614.4123,-275.3399"/>
<polygon fill="#191970" stroke="#191970" points="615.9601,-278.4803 623.5681,-271.1067 613.0224,-272.1266 615.9601,-278.4803"/>
</g>
<!-- Node265 -->
<g id="node20" class="node">
<title>Node265</title>
<g id="a_node20"><a xlink:href="structchi_1_1NodeCompiler.html#a3825379c4840a017b6ab91ec5b42cc6c" target="_top" xlink:title="Get the module being generated. ">
<polygon fill="#ffffff" stroke="#000000" points="454,-479 454,-509 556,-509 556,-479 454,-479"/>
<text text-anchor="start" x="462" y="-497" font-family="Helvetica,sans-Serif" font-size="10.00" fill="#000000">chi::NodeCompiler::</text>
<text text-anchor="middle" x="505" y="-486" font-family="Helvetica,sans-Serif" font-size="10.00" fill="#000000">llvmModule</text>
</a>
</g>
</g>
<!-- Node249&#45;&gt;Node265 -->
<g id="edge41" class="edge">
<title>Node249&#45;&gt;Node265</title>
<path fill="none" stroke="#191970" d="M383.3922,-450.5979C402.8592,-457.5457 429.7801,-467.1538 453.3448,-475.5641"/>
<polygon fill="#191970" stroke="#191970" points="452.2709,-478.897 462.8655,-478.9621 454.6239,-472.3043 452.2709,-478.897"/>
</g>
<!-- Node250&#45;&gt;Node246 -->
<g id="edge19" class="edge">
<title>Node250&#45;&gt;Node246</title>
<path fill="none" stroke="#191970" d="M606.3866,-633.6033C590.2661,-637.8918 572.3894,-642.6457 556,-647 395.762,-689.5717 206.9008,-739.6627 111.9762,-764.8332"/>
<polygon fill="#191970" stroke="#191970" points="111.0256,-761.4643 102.2567,-767.4104 112.8197,-768.2304 111.0256,-761.4643"/>
</g>
<!-- Node250&#45;&gt;Node247 -->
<g id="edge13" class="edge">
<title>Node250&#45;&gt;Node247</title>
<path fill="none" stroke="#191970" d="M668.1085,-635.228C684.7934,-658.017 719.3802,-700.7905 759,-724 763.5066,-726.64 768.3691,-728.9397 773.3745,-730.9417"/>
<polygon fill="#191970" stroke="#191970" points="772.5258,-734.3555 783.1203,-734.4357 774.8882,-727.7662 772.5258,-734.3555"/>
</g>
<!-- Node250&#45;&gt;Node248 -->
<g id="edge23" class="edge">
<title>Node250&#45;&gt;Node248</title>
<path fill="none" stroke="#191970" d="M606.3921,-631.2604C564.3999,-638.2884 503.9189,-643.2457 454,-627 348.7893,-592.7601 250.7933,-497.0497 213.9292,-457.9577"/>
<polygon fill="#191970" stroke="#191970" points="216.3832,-455.457 207.0101,-450.5178 211.2573,-460.2241 216.3832,-455.457"/>
</g>
<!-- Node250&#45;&gt;Node249 -->
<g id="edge20" class="edge">
<title>Node250&#45;&gt;Node249</title>
<path fill="none" stroke="#191970" d="M606.2564,-629.7863C562.5073,-631.4977 499.6107,-625.3241 454,-596 403.5671,-563.5756 373.0716,-494.7767 361.6513,-460.5652"/>
<polygon fill="#191970" stroke="#191970" points="364.9167,-459.278 358.6126,-450.7628 358.2306,-461.3508 364.9167,-459.278"/>
</g>
<!-- Node250&#45;&gt;Node251 -->
<g id="edge6" class="edge">
<title>Node250&#45;&gt;Node251</title>
<path fill="none" stroke="#191970" d="M708.6069,-606.3722C724.7271,-602.0825 742.6053,-597.3341 759,-593 818.4568,-577.282 886.3737,-559.4526 934.035,-546.9611"/>
<polygon fill="#191970" stroke="#191970" points="935.1015,-550.2999 943.8876,-544.3793 933.327,-543.5285 935.1015,-550.2999"/>
</g>
<!-- Node250&#45;&gt;Node252 -->
<g id="edge18" class="edge">
<title>Node250&#45;&gt;Node252</title>
<path fill="none" stroke="#191970" d="M708.6691,-622.7965C786.9894,-624.7073 938.7763,-618.8668 1046,-555 1076.7468,-536.686 1102.7171,-503.963 1118.0722,-481.6342"/>
<polygon fill="#191970" stroke="#191970" points="1121.1544,-483.3212 1123.7992,-473.0617 1115.3338,-479.4326 1121.1544,-483.3212"/>
</g>
<!-- Node250&#45;&gt;Node253 -->
<g id="edge10" class="edge">
<title>Node250&#45;&gt;Node253</title>
<path fill="none" stroke="#191970" d="M676.9219,-604.9552C691.2743,-592.9913 710.4274,-575.1329 723,-556 747.5679,-518.6128 726.5223,-492.7666 759,-462 763.1309,-458.0867 767.9038,-454.8115 772.9981,-452.0703"/>
<polygon fill="#191970" stroke="#191970" points="774.8453,-455.0718 782.4456,-447.6904 771.901,-448.7211 774.8453,-455.0718"/>
</g>
<!-- Node250&#45;&gt;Node255 -->
<g id="edge14" class="edge">
<title>Node250&#45;&gt;Node255</title>
<path fill="none" stroke="#191970" d="M688.7593,-635.0973C699.6922,-640.5487 711.9837,-646.8723 723,-653 739.3867,-662.1149 742.0043,-667.0784 759,-675 763.869,-677.2694 769.0026,-679.4321 774.2043,-681.4673"/>
<polygon fill="#191970" stroke="#191970" points="773.0062,-684.7559 783.5985,-684.9883 775.463,-678.2012 773.0062,-684.7559"/>
</g>
<!-- Node256 -->
<g id="node11" class="node">
<title>Node256</title>
<g id="a_node11"><a xlink:href="structchi_1_1NodeCompiler.html#afd650ba41704bbeca337cbadb18f03cf" target="_top" xlink:title="Get the function compiler. ">
<polygon fill="#ffffff" stroke="#000000" points="782.5,-472 782.5,-502 884.5,-502 884.5,-472 782.5,-472"/>
<text text-anchor="start" x="790.5" y="-490" font-family="Helvetica,sans-Serif" font-size="10.00" fill="#000000">chi::NodeCompiler::</text>
<text text-anchor="middle" x="833.5" y="-479" font-family="Helvetica,sans-Serif" font-size="10.00" fill="#000000">funcCompiler</text>
</a>
</g>
</g>
<!-- Node250&#45;&gt;Node256 -->
<g id="edge17" class="edge">
<title>Node250&#45;&gt;Node256</title>
<path fill="none" stroke="#191970" d="M677.6894,-604.7432C709.1195,-580.9921 769.8322,-535.1126 805.483,-508.1719"/>
<polygon fill="#191970" stroke="#191970" points="807.678,-510.9002 813.546,-502.0789 803.4577,-505.3155 807.678,-510.9002"/>
</g>
<!-- Node257 -->
<g id="node12" class="node">
<title>Node257</title>
<g id="a_node12"><a xlink:href="structchi_1_1FunctionCompiler.html#a85f29ea79e8fab1c963f096be468a1a5" target="_top" xlink:title="Get a node compile for a certain node. ">
<polygon fill="#ffffff" stroke="#000000" points="778,-636 778,-666 889,-666 889,-636 778,-636"/>
<text text-anchor="start" x="786" y="-654" font-family="Helvetica,sans-Serif" font-size="10.00" fill="#000000">chi::FunctionCompiler</text>
<text text-anchor="middle" x="833.5" y="-643" font-family="Helvetica,sans-Serif" font-size="10.00" fill="#000000">::nodeCompiler</text>
</a>
</g>
</g>
<!-- Node250&#45;&gt;Node257 -->
<g id="edge21" class="edge">
<title>Node250&#45;&gt;Node257</title>
<path fill="none" stroke="#191970" d="M708.8796,-629.0498C727.2832,-632.2914 748.2875,-635.991 767.7402,-639.4173"/>
<polygon fill="#191970" stroke="#191970" points="767.2937,-642.8925 777.7492,-641.1803 768.508,-635.9986 767.2937,-642.8925"/>
</g>
<!-- Node251&#45;&gt;Node252 -->
<g id="edge7" class="edge">
<title>Node251&#45;&gt;Node252</title>
<path fill="none" stroke="#191970" d="M1023.5937,-515.8744C1044.4099,-504.8629 1072.8016,-489.8441 1095.4456,-477.8657"/>
<polygon fill="#191970" stroke="#191970" points="1097.2401,-480.8761 1104.4429,-473.1063 1093.9669,-474.6884 1097.2401,-480.8761"/>
</g>
<!-- Node252&#45;&gt;Node248 -->
<g id="edge9" class="edge">
<title>Node252&#45;&gt;Node248</title>
<path fill="none" stroke="#191970" d="M1131.9104,-473.0071C1128.0658,-515.2801 1111.5759,-636.7626 1046,-706 956.5735,-800.4198 887.5147,-782.9039 759,-763 541.1949,-729.2671 465.0085,-728.2644 295,-588 251.2055,-551.8676 220.113,-490.6528 206.3802,-459.868"/>
<polygon fill="#191970" stroke="#191970" points="209.5837,-458.4579 202.3953,-450.6748 203.1611,-461.2419 209.5837,-458.4579"/>
</g>
<!-- Node252&#45;&gt;Node249 -->
<g id="edge8" class="edge">
<title>Node252&#45;&gt;Node249</title>
<path fill="none" stroke="#191970" d="M1094.3944,-442.8094C1079.7218,-435.3941 1062.5489,-427.195 1046,-422 955.1123,-393.4686 928.7608,-394 833.5,-394 657.5,-394 657.5,-394 657.5,-394 574.2956,-394 480.3032,-414.938 419.8252,-429.1505"/>
<polygon fill="#191970" stroke="#191970" points="418.9739,-425.7552 410.044,-431.4569 420.5804,-432.5684 418.9739,-425.7552"/>
</g>
<!-- Node253&#45;&gt;Node249 -->
<g id="edge11" class="edge">
<title>Node253&#45;&gt;Node249</title>
<path fill="none" stroke="#191970" d="M782.309,-442.6973C697.0556,-446.1773 525.762,-447.4614 428.42,-445.5434"/>
<polygon fill="#191970" stroke="#191970" points="428.4432,-442.0432 418.3704,-445.3277 428.293,-449.0416 428.4432,-442.0432"/>
</g>
<!-- Node254 -->
<g id="node9" class="node">
<title>Node254</title>
<g id="a_node9"><a xlink:href="structchi_1_1NodeInstance.html#ac2ada83d65425a80a4af74da5414fd75" target="_top" xlink:title="Get the containing Context object. ">
<polygon fill="#ffffff" stroke="#000000" points="944.5,-423 944.5,-453 1045.5,-453 1045.5,-423 944.5,-423"/>
<text text-anchor="start" x="952.5" y="-441" font-family="Helvetica,sans-Serif" font-size="10.00" fill="#000000">chi::NodeInstance::</text>
<text text-anchor="middle" x="995" y="-430" font-family="Helvetica,sans-Serif" font-size="10.00" fill="#000000">context</text>
</a>
</g>
</g>
<!-- Node253&#45;&gt;Node254 -->
<g id="edge12" class="edge">
<title>Node253&#45;&gt;Node254</title>
<path fill="none" stroke="#191970" d="M884.5996,-438C900.3644,-438 917.88,-438 934.2296,-438"/>
<polygon fill="#191970" stroke="#191970" points="934.2328,-441.5001 944.2328,-438 934.2328,-434.5001 934.2328,-441.5001"/>
</g>
<!-- Node255&#45;&gt;Node251 -->
<g id="edge15" class="edge">
<title>Node255&#45;&gt;Node251</title>
<path fill="none" stroke="#191970" d="M884.8612,-688.1199C893.1232,-684.7524 901.1863,-680.4599 908,-675 918.6377,-666.4759 960.0239,-593.8105 981.6573,-555.0824"/>
<polygon fill="#191970" stroke="#191970" points="984.8926,-556.4666 986.701,-546.0272 978.7773,-553.0603 984.8926,-556.4666"/>
</g>
<!-- Node255&#45;&gt;Node252 -->
<g id="edge16" class="edge">
<title>Node255&#45;&gt;Node252</title>
<path fill="none" stroke="#191970" d="M884.8286,-707.6992C931.5816,-711.7902 1000.1313,-710.1092 1046,-675 1107.7658,-627.7227 1125.8107,-529.6262 1130.98,-483.2879"/>
<polygon fill="#191970" stroke="#191970" points="1134.4769,-483.4931 1131.9909,-473.1941 1127.5117,-482.7955 1134.4769,-483.4931"/>
</g>
<!-- Node258 -->
<g id="node13" class="node">
<title>Node258</title>
<g id="a_node13"><a xlink:href="structchi_1_1NodeInstance.html#a8f64930fd9578431a11cad0702b4100c" target="_top" xlink:title="Get the containing GraphFunction. ">
<polygon fill="#ffffff" stroke="#000000" points="944.5,-636 944.5,-666 1045.5,-666 1045.5,-636 944.5,-636"/>
<text text-anchor="start" x="952.5" y="-654" font-family="Helvetica,sans-Serif" font-size="10.00" fill="#000000">chi::NodeInstance::</text>
<text text-anchor="middle" x="995" y="-643" font-family="Helvetica,sans-Serif" font-size="10.00" fill="#000000">function</text>
</a>
</g>
</g>
<!-- Node257&#45;&gt;Node258 -->
<g id="edge22" class="edge">
<title>Node257&#45;&gt;Node258</title>
<path fill="none" stroke="#191970" d="M889.0791,-651C903.6836,-651 919.5087,-651 934.3638,-651"/>
<polygon fill="#191970" stroke="#191970" points="934.4663,-654.5001 944.4662,-651 934.4662,-647.5001 934.4663,-654.5001"/>
</g>
<!-- Node259&#45;&gt;Node248 -->
<g id="edge35" class="edge">
<title>Node259&#45;&gt;Node248</title>
<path fill="none" stroke="#191970" d="M478.5487,-281.1027C420.3459,-314.3343 281.7917,-393.4435 224.2452,-426.3005"/>
<polygon fill="#191970" stroke="#191970" points="222.3641,-423.3441 215.4154,-431.342 225.835,-429.423 222.3641,-423.3441"/>
</g>
<!-- Node259&#45;&gt;Node249 -->
<g id="edge34" class="edge">
<title>Node259&#45;&gt;Node249</title>
<path fill="none" stroke="#191970" d="M495.1448,-281.2277C484.5223,-293.0517 467.3452,-308.9202 454,-324 436.3274,-343.9697 434.2566,-350.8615 418,-372 404.2908,-389.8261 388.59,-409.7311 376.484,-423.7816"/>
<polygon fill="#191970" stroke="#191970" points="373.8207,-421.5099 369.8139,-431.3179 379.0625,-426.1493 373.8207,-421.5099"/>
</g>
<!-- Node259&#45;&gt;Node250 -->
<g id="edge27" class="edge">
<title>Node259&#45;&gt;Node250</title>
<path fill="none" stroke="#191970" d="M508.4705,-281.1051C520.6851,-333.5656 562.5397,-507.3197 592,-556 601.748,-572.1076 616.4934,-587.0079 629.5269,-598.3712"/>
<polygon fill="#191970" stroke="#191970" points="627.4574,-601.2041 637.3609,-604.9685 631.9665,-595.8498 627.4574,-601.2041"/>
</g>
<!-- Node259&#45;&gt;Node251 -->
<g id="edge25" class="edge">
<title>Node259&#45;&gt;Node251</title>
<path fill="none" stroke="#191970" d="M556.0484,-274.6713C637.3288,-290.5203 798.1746,-330.4249 908,-413 929.5994,-429.2401 927.9687,-440.2452 944,-462 955.236,-477.2475 967.8917,-494.3702 977.7851,-507.744"/>
<polygon fill="#191970" stroke="#191970" points="975.0832,-509.9769 983.8448,-515.9338 980.7103,-505.8132 975.0832,-509.9769"/>
</g>
<!-- Node259&#45;&gt;Node252 -->
<g id="edge33" class="edge">
<title>Node259&#45;&gt;Node252</title>
<path fill="none" stroke="#191970" d="M510.5767,-250.7244C527.0461,-206.0161 575.3555,-77.8889 592,-67 640.7222,-35.1257 667.5058,-49.3868 723,-67 890.4841,-120.1574 929.7118,-163.2665 1046,-295 1083.5145,-337.4972 1110.6936,-398.9956 1123.9299,-433.0109"/>
<polygon fill="#191970" stroke="#191970" points="1120.7624,-434.5288 1127.5861,-442.6336 1127.306,-432.0425 1120.7624,-434.5288"/>
</g>
<!-- Node259&#45;&gt;Node253 -->
<g id="edge30" class="edge">
<title>Node259&#45;&gt;Node253</title>
<path fill="none" stroke="#191970" d="M532.3238,-250.8219C575.8888,-228.8606 662.3492,-194.625 723,-231 789.9501,-271.1529 818.5863,-367.1877 828.7537,-412.9395"/>
<polygon fill="#191970" stroke="#191970" points="825.3693,-413.8537 830.8531,-422.9189 832.2194,-412.4126 825.3693,-413.8537"/>
</g>
<!-- Node259&#45;&gt;Node256 -->
<g id="edge32" class="edge">
<title>Node259&#45;&gt;Node256</title>
<path fill="none" stroke="#191970" d="M520.6072,-281.1412C558.4854,-317.1544 659.506,-408.8685 759,-462 763.4734,-464.3889 768.2185,-466.6111 773.0619,-468.6647"/>
<polygon fill="#191970" stroke="#191970" points="771.8668,-471.956 782.4521,-472.4056 774.4575,-465.4531 771.8668,-471.956"/>
</g>
<!-- Node260 -->
<g id="node15" class="node">
<title>Node260</title>
<g id="a_node15"><a xlink:href="structchi_1_1NodeType.html#ac6662ce1a327258cd1f879b63cfbfa06" target="_top" xlink:title="A virtual function that is called when this node needs to be called. ">
<polygon fill="#ffffff" stroke="#000000" points="596.5,-164.5 596.5,-183.5 718.5,-183.5 718.5,-164.5 596.5,-164.5"/>
<text text-anchor="middle" x="657.5" y="-171.5" font-family="Helvetica,sans-Serif" font-size="10.00" fill="#000000">chi::NodeType::codegen</text>
</a>
</g>
</g>
<!-- Node259&#45;&gt;Node260 -->
<g id="edge26" class="edge">
<title>Node259&#45;&gt;Node260</title>
<path fill="none" stroke="#191970" d="M533.9862,-250.8458C541.4355,-246.4491 549.2476,-241.3724 556,-236 574.2052,-221.5154 572.5634,-210.7849 592,-198 598.3302,-193.8362 605.4783,-190.2741 612.6665,-187.2684"/>
<polygon fill="#191970" stroke="#191970" points="614.3474,-190.3716 622.4203,-183.5103 611.8306,-183.8397 614.3474,-190.3716"/>
</g>
<!-- Node259&#45;&gt;Node261 -->
<g id="edge28" class="edge">
<title>Node259&#45;&gt;Node261</title>
<path fill="none" stroke="#191970" d="M556.2045,-262.6423C569.0987,-261.7968 583.0678,-260.8808 596.3939,-260.007"/>
<polygon fill="#191970" stroke="#191970" points="596.6811,-263.4957 606.4306,-259.3488 596.223,-256.5107 596.6811,-263.4957"/>
</g>
<!-- Node262 -->
<g id="node17" class="node">
<title>Node262</title>
<g id="a_node17"><a xlink:href="structchi_1_1NodeType.html#a7d2edfc21ff54a1ff8ad98fffb969268" target="_top" xlink:title="Get the data inputs for the node. ">
<polygon fill="#ffffff" stroke="#000000" points="592,-126.5 592,-145.5 723,-145.5 723,-126.5 592,-126.5"/>
<text text-anchor="middle" x="657.5" y="-133.5" font-family="Helvetica,sans-Serif" font-size="10.00" fill="#000000">chi::NodeType::dataInputs</text>
</a>
</g>
</g>
<!-- Node259&#45;&gt;Node262 -->
<g id="edge31" class="edge">
<title>Node259&#45;&gt;Node262</title>
<path fill="none" stroke="#191970" d="M537.7394,-250.8362C544.3685,-246.703 550.87,-241.748 556,-236 582.2319,-206.608 562.3161,-180.9011 592,-155 593.9516,-153.2971 596.0479,-151.7465 598.2499,-150.3346"/>
<polygon fill="#191970" stroke="#191970" points="600.0233,-153.3553 607.1851,-145.5477 596.7176,-147.185 600.0233,-153.3553"/>
</g>
<!-- Node263 -->
<g id="node18" class="node">
<title>Node263</title>
<g id="a_node18"><a xlink:href="structchi_1_1NodeCompiler.html#a4798bbddf994de6c4e3f607991456e09" target="_top" xlink:title="Get return values. ">
<polygon fill="#ffffff" stroke="#000000" points="606.5,-77 606.5,-107 708.5,-107 708.5,-77 606.5,-77"/>
<text text-anchor="start" x="614.5" y="-95" font-family="Helvetica,sans-Serif" font-size="10.00" fill="#000000">chi::NodeCompiler::</text>
<text text-anchor="middle" x="657.5" y="-84" font-family="Helvetica,sans-Serif" font-size="10.00" fill="#000000">returnValues</text>
</a>
</g>
</g>
<!-- Node259&#45;&gt;Node263 -->
<g id="edge36" class="edge">
<title>Node259&#45;&gt;Node263</title>
<path fill="none" stroke="#191970" d="M538.8176,-250.9632C545.2255,-246.8666 551.3644,-241.8944 556,-236 590.158,-192.5665 554.3363,-157.4312 592,-117 593.7786,-115.0908 595.7186,-113.326 597.7805,-111.6948"/>
<polygon fill="#191970" stroke="#191970" points="599.877,-114.5036 606.2543,-106.0431 595.9929,-108.68 599.877,-114.5036"/>
</g>
<!-- Node259&#45;&gt;Node264 -->
<g id="edge37" class="edge">
<title>Node259&#45;&gt;Node264</title>
<path fill="none" stroke="#191970" d="M540.1434,-250.8513C546.2205,-246.8212 551.8941,-241.9032 556,-236 608.0705,-161.1354 533.3939,-103.8668 592,-34 595.1425,-30.2537 598.923,-27.0922 603.0621,-24.4241"/>
<polygon fill="#191970" stroke="#191970" points="604.8371,-27.4433 611.9722,-19.6112 601.5103,-21.2843 604.8371,-27.4433"/>
</g>
<!-- Node261&#45;&gt;Node252 -->
<g id="edge29" class="edge">
<title>Node261&#45;&gt;Node252</title>
<path fill="none" stroke="#191970" d="M708.6155,-256.4366C760.1142,-258.1824 841.2877,-264.5348 908,-286 974.6541,-307.4464 991.0725,-318.5755 1046,-362 1073.2939,-383.5779 1099.3683,-414.1301 1115.7315,-434.9328"/>
<polygon fill="#191970" stroke="#191970" points="1113.0308,-437.1618 1121.9197,-442.927 1118.5662,-432.8769 1113.0308,-437.1618"/>
</g>
<!-- Node265&#45;&gt;Node256 -->
<g id="edge42" class="edge">
<title>Node265&#45;&gt;Node256</title>
<path fill="none" stroke="#191970" d="M556.3281,-492.9063C614.7023,-491.6624 709.9583,-489.6325 772.1882,-488.3065"/>
<polygon fill="#191970" stroke="#191970" points="772.3389,-491.8042 782.2621,-488.0918 772.1897,-484.8058 772.3389,-491.8042"/>
</g>
<!-- Node266 -->
<g id="node21" class="node">
<title>Node266</title>
<g id="a_node21"><a xlink:href="structchi_1_1FunctionCompiler.html#a3bc147aa1b93c8e8c08c91ade3e13024" target="_top" xlink:title="Get the module being generated. ">
<polygon fill="#ffffff" stroke="#000000" points="602,-517 602,-547 713,-547 713,-517 602,-517"/>
<text text-anchor="start" x="610" y="-535" font-family="Helvetica,sans-Serif" font-size="10.00" fill="#000000">chi::FunctionCompiler</text>
<text text-anchor="middle" x="657.5" y="-524" font-family="Helvetica,sans-Serif" font-size="10.00" fill="#000000">::llvmModule</text>
</a>
</g>
</g>
<!-- Node265&#45;&gt;Node266 -->
<g id="edge43" class="edge">
<title>Node265&#45;&gt;Node266</title>
<path fill="none" stroke="#191970" d="M556.2045,-506.7592C567.6967,-509.6228 580.0427,-512.6992 592.0263,-515.6852"/>
<polygon fill="#191970" stroke="#191970" points="591.431,-519.1439 601.9806,-518.1656 593.1235,-512.3516 591.431,-519.1439"/>
</g>
</g>
</svg>
        <g id="navigator" transform="translate(0 0)" fill="#404254">
                <rect fill="#f2f5e9" fill-opacity="0.5" stroke="#606060" stroke-width=".5" x="0" y="0" width="60" height="60"/>
                <use id="zoomplus" xlink:href="#zoomPlus" x="17" y="9" onmousedown="handleZoom(evt,'in')"/>
                <use id="zoomminus" xlink:href="#zoomMin" x="42" y="9" onmousedown="handleZoom(evt,'out')"/>
                <use id="reset" xlink:href="#resetDef" x="30" y="36" onmousedown="handleReset()"/>
                <g id="arrowUp" xlink:href="#dirArrow" transform="translate(30 24)" onmousedown="handlePan(0,-1)">
                  <use xlink:href="#rim" fill="#404040">
                        <set attributeName="fill" to="#808080" begin="arrowUp.mouseover" end="arrowUp.mouseout"/>
                  </use>
                  <path fill="none" stroke="white" stroke-width="1.5" d="M0,-3.0v7 M-2.5,-0.5L0,-3.0L2.5,-0.5"/>
                </g>
                <g id="arrowRight" xlink:href="#dirArrow" transform="rotate(90) translate(36 -43)" onmousedown="handlePan(1,0)">
                  <use xlink:href="#rim" fill="#404040">
                        <set attributeName="fill" to="#808080" begin="arrowRight.mouseover" end="arrowRight.mouseout"/>
                  </use>
                  <path fill="none" stroke="white" stroke-width="1.5" d="M0,-3.0v7 M-2.5,-0.5L0,-3.0L2.5,-0.5"/>
                </g>
                <g id="arrowDown" xlink:href="#dirArrow" transform="rotate(180) translate(-30 -48)" onmousedown="handlePan(0,1)">
                  <use xlink:href="#rim" fill="#404040">
                        <set attributeName="fill" to="#808080" begin="arrowDown.mouseover" end="arrowDown.mouseout"/>
                  </use>
                  <path fill="none" stroke="white" stroke-width="1.5" d="M0,-3.0v7 M-2.5,-0.5L0,-3.0L2.5,-0.5"/>
                </g>
                <g id="arrowLeft" xlink:href="#dirArrow" transform="rotate(270) translate(-36 17)" onmousedown="handlePan(-1,0)">
                  <use xlink:href="#rim" fill="#404040">
                        <set attributeName="fill" to="#808080" begin="arrowLeft.mouseover" end="arrowLeft.mouseout"/>
                  </use>
                  <path fill="none" stroke="white" stroke-width="1.5" d="M0,-3.0v7 M-2.5,-0.5L0,-3.0L2.5,-0.5"/>
                </g>
        </g>
        <svg viewBox="0 0 15 15" width="100%" height="30px" preserveAspectRatio="xMaxYMin meet">
         <g id="arrow_out" transform="scale(0.3 0.3)">
          <a xlink:href="structchi_1_1NodeCompiler_a7dc06ad0390f2113fbeb5e7c0cf3dd06_cgraph_org.svg" target="_base">
           <rect id="button" ry="5" rx="5" y="6" x="6" height="38" width="38"
                fill="#f2f5e9" fill-opacity="0.5" stroke="#606060" stroke-width="1.0"/>
           <path id="arrow"
             d="M 11.500037,31.436501 C 11.940474,20.09759 22.043105,11.32322 32.158766,21.979434 L 37.068811,17.246167 C 37.068811,17.246167 37.088388,32 37.088388,32 L 22.160133,31.978069 C 22.160133,31.978069 26.997745,27.140456 26.997745,27.140456 C 18.528582,18.264221 13.291696,25.230495 11.500037,31.436501 z"
             style="fill:#404040;"/>
          </a>
         </g>
        </svg>
</svg>
