<?xml version="1.0" encoding="UTF-8" standalone="no"?>
<!DOCTYPE svg PUBLIC "-//W3C//DTD SVG 1.1//EN"
 "http://www.w3.org/Graphics/SVG/1.1/DTD/svg11.dtd">
<!-- Generated by graphviz version 2.40.1 (20161225.0304)
 -->
<!-- Title: chi::GraphModule::createLineNumberAssoc Pages: 1 -->
<!--zoomable 105 -->
<svg id="main" version="1.1" xmlns="http://www.w3.org/2000/svg" xmlns:xlink="http://www.w3.org/1999/xlink" xml:space="preserve" onload="init(evt)">
<style type="text/css"><![CDATA[
.edge:hover path { stroke: red; }
.edge:hover polygon { stroke: red; fill: red; }
]]></style>
<script type="text/javascript"><![CDATA[
var edges = document.getElementsByTagName('g');
if (edges && edges.length) {
  for (var i=0;i<edges.length;i++) {
    if (edges[i].id.substr(0,4)=='edge') {
      edges[i].setAttribute('class','edge');
    }
  }
}
]]></script>
        <defs>
                <circle id="rim" cx="0" cy="0" r="7"/>
                <circle id="rim2" cx="0" cy="0" r="3.5"/>
                <g id="zoomPlus">
                        <use xlink:href="#rim" fill="#404040">
                                <set attributeName="fill" to="#808080" begin="zoomplus.mouseover" end="zoomplus.mouseout"/>
                        </use>
                        <path d="M-4,0h8M0,-4v8" fill="none" stroke="white" stroke-width="1.5" pointer-events="none"/>
                </g>
                <g id="zoomMin">
                        <use xlink:href="#rim" fill="#404040">
                                <set attributeName="fill" to="#808080" begin="zoomminus.mouseover" end="zoomminus.mouseout"/>
                        </use>
                        <path d="M-4,0h8" fill="none" stroke="white" stroke-width="1.5" pointer-events="none"/>
                </g>
                <g id="dirArrow">
                        <path fill="none" stroke="white" stroke-width="1.5" d="M0,-3.0v7 M-2.5,-0.5L0,-3.0L2.5,-0.5"/>
                </g>
               <g id="resetDef">
                       <use xlink:href="#rim2" fill="#404040">
                               <set attributeName="fill" to="#808080" begin="reset.mouseover" end="reset.mouseout"/>
                       </use>
               </g>
        </defs>

<script type="text/javascript">
var viewWidth = 647;
var viewHeight = 105;
var sectionId = 'dynsection-8';
</script>
<script xlink:href="svgpan.js"/>
<svg id="graph" class="graph">
<g id="viewport">
<title>chi::GraphModule::createLineNumberAssoc</title>
<polygon fill="#ffffff" stroke="transparent" points="-4,4 -4,-100.5 643,-100.5 643,4 -4,4"/>
<!-- Node149 -->
<g id="node1" class="node">
<title>Node149</title>
<polygon fill="#bfbfbf" stroke="#000000" points="0,-36 0,-66 126,-66 126,-36 0,-36"/>
<text text-anchor="start" x="8" y="-54" font-family="Helvetica,sans-Serif" font-size="10.00" fill="#000000">chi::GraphModule::create</text>
<text text-anchor="middle" x="63" y="-43" font-family="Helvetica,sans-Serif" font-size="10.00" fill="#000000">LineNumberAssoc</text>
</g>
<!-- Node150 -->
<g id="node2" class="node">
<title>Node150</title>
<g id="a_node2"><a xlink:href="namespacechi.html#a8329038fce8125396cc9775460aa427b" target="_top" xlink:title="Compile the graph to an llvm::Function (usually called from JsonModule::generateModule) ...">
<polygon fill="#ffffff" stroke="#000000" points="185.5,-65.5 185.5,-84.5 292.5,-84.5 292.5,-65.5 185.5,-65.5"/>
<text text-anchor="middle" x="239" y="-72.5" font-family="Helvetica,sans-Serif" font-size="10.00" fill="#000000">chi::compileFunction</text>
</a>
</g>
</g>
<!-- Node149&#45;&gt;Node150 -->
<g id="edge1" class="edge">
<title>Node149&#45;&gt;Node150</title>
<path fill="none" stroke="#191970" d="M136.1974,-60.9815C152.689,-63.2303 169.8947,-65.5765 185.4072,-67.6919"/>
<polygon fill="#191970" stroke="#191970" points="136.4242,-57.4801 126.0429,-59.5968 135.4783,-64.4159 136.4242,-57.4801"/>
</g>
<!-- Node152 -->
<g id="node4" class="node">
<title>Node152</title>
<g id="a_node4"><a xlink:href="classchi_1_1Debugger.html#ae142902fa85248f40cbeea7199c86ad9" target="_top" xlink:title="Get a NodeInstance from a frame. ">
<polygon fill="#ffffff" stroke="#000000" points="162,-22.5 162,-41.5 316,-41.5 316,-22.5 162,-22.5"/>
<text text-anchor="middle" x="239" y="-29.5" font-family="Helvetica,sans-Serif" font-size="10.00" fill="#000000">chi::Debugger::nodeFromFrame</text>
</a>
</g>
</g>
<!-- Node149&#45;&gt;Node152 -->
<g id="edge3" class="edge">
<title>Node149&#45;&gt;Node152</title>
<path fill="none" stroke="#191970" d="M135.9937,-43.12C144.5642,-42.1948 153.3303,-41.2484 161.9539,-40.3175"/>
<polygon fill="#191970" stroke="#191970" points="135.6095,-39.641 126.0429,-44.1942 136.3608,-46.6006 135.6095,-39.641"/>
</g>
<!-- Node151 -->
<g id="node3" class="node">
<title>Node151</title>
<g id="a_node3"><a xlink:href="structchi_1_1GraphModule.html#a9b73bbbfa91d6a2f92bcca270bdb7b2f" target="_top" xlink:title="Generate a llvm::Module from the module. ">
<polygon fill="#ffffff" stroke="#000000" points="352,-66 352,-96 489,-96 489,-66 352,-66"/>
<text text-anchor="start" x="360" y="-84" font-family="Helvetica,sans-Serif" font-size="10.00" fill="#000000">chi::GraphModule::generate</text>
<text text-anchor="middle" x="420.5" y="-73" font-family="Helvetica,sans-Serif" font-size="10.00" fill="#000000">Module</text>
</a>
</g>
</g>
<!-- Node150&#45;&gt;Node151 -->
<g id="edge2" class="edge">
<title>Node150&#45;&gt;Node151</title>
<path fill="none" stroke="#191970" d="M303.1499,-77.1207C318.9419,-77.6427 335.9128,-78.2037 351.9059,-78.7324"/>
<polygon fill="#191970" stroke="#191970" points="303.0748,-73.6164 292.9646,-76.784 302.8434,-80.6125 303.0748,-73.6164"/>
</g>
<!-- Node153 -->
<g id="node5" class="node">
<title>Node153</title>
<g id="a_node5"><a xlink:href="classchi_1_1Debugger.html#a7b4b8117f767d7fc591ff1f54516c681" target="_top" xlink:title="Get the output of a node. ">
<polygon fill="#ffffff" stroke="#000000" points="352,-17 352,-47 489,-47 489,-17 352,-17"/>
<text text-anchor="start" x="360" y="-35" font-family="Helvetica,sans-Serif" font-size="10.00" fill="#000000">chi::Debugger::inspectNode</text>
<text text-anchor="middle" x="420.5" y="-24" font-family="Helvetica,sans-Serif" font-size="10.00" fill="#000000">Output</text>
</a>
</g>
</g>
<!-- Node152&#45;&gt;Node153 -->
<g id="edge4" class="edge">
<title>Node152&#45;&gt;Node153</title>
<path fill="none" stroke="#191970" d="M326.305,-32C334.9147,-32 343.5658,-32 351.9478,-32"/>
<polygon fill="#191970" stroke="#191970" points="326.2356,-28.5001 316.2355,-32 326.2355,-35.5001 326.2356,-28.5001"/>
</g>
<!-- Node154 -->
<g id="node6" class="node">
<title>Node154</title>
<g id="a_node6"><a xlink:href="classchi_1_1Debugger.html#a50f4de4ab6a18afa2eb82f5a5f43b06a" target="_top" xlink:title="Check if the process is executing. ">
<polygon fill="#ffffff" stroke="#000000" points="525,-.5 525,-19.5 639,-19.5 639,-.5 525,-.5"/>
<text text-anchor="middle" x="582" y="-7.5" font-family="Helvetica,sans-Serif" font-size="10.00" fill="#000000">chi::Debugger::running</text>
</a>
</g>
</g>
<!-- Node152&#45;&gt;Node154 -->
<g id="edge6" class="edge">
<title>Node152&#45;&gt;Node154</title>
<path fill="none" stroke="#191970" d="M282.6258,-20.0215C303.4504,-14.9043 328.8276,-9.5327 352,-7 412.5284,-.3844 428.119,-6.0183 489,-7 500.6295,-7.1875 513.0739,-7.5069 524.9548,-7.8691"/>
<polygon fill="#191970" stroke="#191970" points="281.6388,-16.6607 272.7981,-22.4996 283.3504,-23.4482 281.6388,-16.6607"/>
</g>
<!-- Node153&#45;&gt;Node154 -->
<g id="edge5" class="edge">
<title>Node153&#45;&gt;Node154</title>
<path fill="none" stroke="#191970" d="M499.5001,-21.2384C508.0839,-20.0691 516.6939,-18.8962 524.9422,-17.7726"/>
<polygon fill="#191970" stroke="#191970" points="498.895,-17.7884 489.459,-22.6062 499.8399,-24.7243 498.895,-17.7884"/>
</g>
</g>
</svg>
        <g id="navigator" transform="translate(0 0)" fill="#404254">
                <rect fill="#f2f5e9" fill-opacity="0.5" stroke="#606060" stroke-width=".5" x="0" y="0" width="60" height="60"/>
                <use id="zoomplus" xlink:href="#zoomPlus" x="17" y="9" onmousedown="handleZoom(evt,'in')"/>
                <use id="zoomminus" xlink:href="#zoomMin" x="42" y="9" onmousedown="handleZoom(evt,'out')"/>
                <use id="reset" xlink:href="#resetDef" x="30" y="36" onmousedown="handleReset()"/>
                <g id="arrowUp" xlink:href="#dirArrow" transform="translate(30 24)" onmousedown="handlePan(0,-1)">
                  <use xlink:href="#rim" fill="#404040">
                        <set attributeName="fill" to="#808080" begin="arrowUp.mouseover" end="arrowUp.mouseout"/>
                  </use>
                  <path fill="none" stroke="white" stroke-width="1.5" d="M0,-3.0v7 M-2.5,-0.5L0,-3.0L2.5,-0.5"/>
                </g>
                <g id="arrowRight" xlink:href="#dirArrow" transform="rotate(90) translate(36 -43)" onmousedown="handlePan(1,0)">
                  <use xlink:href="#rim" fill="#404040">
                        <set attributeName="fill" to="#808080" begin="arrowRight.mouseover" end="arrowRight.mouseout"/>
                  </use>
                  <path fill="none" stroke="white" stroke-width="1.5" d="M0,-3.0v7 M-2.5,-0.5L0,-3.0L2.5,-0.5"/>
                </g>
                <g id="arrowDown" xlink:href="#dirArrow" transform="rotate(180) translate(-30 -48)" onmousedown="handlePan(0,1)">
                  <use xlink:href="#rim" fill="#404040">
                        <set attributeName="fill" to="#808080" begin="arrowDown.mouseover" end="arrowDown.mouseout"/>
                  </use>
                  <path fill="none" stroke="white" stroke-width="1.5" d="M0,-3.0v7 M-2.5,-0.5L0,-3.0L2.5,-0.5"/>
                </g>
                <g id="arrowLeft" xlink:href="#dirArrow" transform="rotate(270) translate(-36 17)" onmousedown="handlePan(-1,0)">
                  <use xlink:href="#rim" fill="#404040">
                        <set attributeName="fill" to="#808080" begin="arrowLeft.mouseover" end="arrowLeft.mouseout"/>
                  </use>
                  <path fill="none" stroke="white" stroke-width="1.5" d="M0,-3.0v7 M-2.5,-0.5L0,-3.0L2.5,-0.5"/>
                </g>
        </g>
        <svg viewBox="0 0 15 15" width="100%" height="30px" preserveAspectRatio="xMaxYMin meet">
         <g id="arrow_out" transform="scale(0.3 0.3)">
          <a xlink:href="structchi_1_1GraphModule_a0f4f97f458bbbacd6ff3c1be55441b98_icgraph_org.svg" target="_base">
           <rect id="button" ry="5" rx="5" y="6" x="6" height="38" width="38"
                fill="#f2f5e9" fill-opacity="0.5" stroke="#606060" stroke-width="1.0"/>
           <path id="arrow"
             d="M 11.500037,31.436501 C 11.940474,20.09759 22.043105,11.32322 32.158766,21.979434 L 37.068811,17.246167 C 37.068811,17.246167 37.088388,32 37.088388,32 L 22.160133,31.978069 C 22.160133,31.978069 26.997745,27.140456 26.997745,27.140456 C 18.528582,18.264221 13.291696,25.230495 11.500037,31.436501 z"
             style="fill:#404040;"/>
          </a>
         </g>
        </svg>
</svg>
