<?xml version="1.0" encoding="UTF-8" standalone="no"?>
<!DOCTYPE svg PUBLIC "-//W3C//DTD SVG 1.1//EN"
 "http://www.w3.org/Graphics/SVG/1.1/DTD/svg11.dtd">
<!-- Generated by graphviz version 2.40.1 (20161225.0304)
 -->
<!-- Title: chi::GraphFunction::localVariableFromName Pages: 1 -->
<svg width="1022pt" height="83pt"
 viewBox="0.00 0.00 1022.00 83.00" xmlns="http://www.w3.org/2000/svg" xmlns:xlink="http://www.w3.org/1999/xlink">
<g id="graph0" class="graph" transform="scale(1 1) rotate(0) translate(4 79)">
<title>chi::GraphFunction::localVariableFromName</title>
<polygon fill="#ffffff" stroke="transparent" points="-4,4 -4,-79 1018,-79 1018,4 -4,4"/>
<!-- Node320 -->
<g id="node1" class="node">
<title>Node320</title>
<polygon fill="#bfbfbf" stroke="#000000" points="0,-22.5 0,-52.5 126,-52.5 126,-22.5 0,-22.5"/>
<text text-anchor="start" x="8" y="-40.5" font-family="Helvetica,sans-Serif" font-size="10.00" fill="#000000">chi::GraphFunction</text>
<text text-anchor="middle" x="63" y="-29.5" font-family="Helvetica,sans-Serif" font-size="10.00" fill="#000000">::localVariableFromName</text>
</g>
<!-- Node321 -->
<g id="node2" class="node">
<title>Node321</title>
<g id="a_node2"><a xlink:href="structchi_1_1GraphFunction.html#a9a3b003e74692f5d0aa474d28c0dd23d" target="_top" xlink:title="Create a new local varaible in the module. ">
<polygon fill="#ffffff" stroke="#000000" points="162,-44.5 162,-74.5 296,-74.5 296,-44.5 162,-44.5"/>
<text text-anchor="start" x="170" y="-62.5" font-family="Helvetica,sans-Serif" font-size="10.00" fill="#000000">chi::GraphFunction</text>
<text text-anchor="middle" x="229" y="-51.5" font-family="Helvetica,sans-Serif" font-size="10.00" fill="#000000">::getOrCreateLocalVariable</text>
</a>
</g>
</g>
<!-- Node320&#45;&gt;Node321 -->
<g id="edge1" class="edge">
<title>Node320&#45;&gt;Node321</title>
<path fill="none" stroke="#191970" d="M136.1577,-47.1956C144.6876,-48.3261 153.3581,-49.4752 161.802,-50.5942"/>
<polygon fill="#191970" stroke="#191970" points="136.6042,-43.7243 126.231,-45.88 135.6845,-50.6636 136.6042,-43.7243"/>
</g>
<!-- Node325 -->
<g id="node6" class="node">
<title>Node325</title>
<g id="a_node6"><a xlink:href="structchi_1_1GraphFunction.html#a44f8f791775e4878b6bde37140cd131d" target="_top" xlink:title="Get the local variables. ">
<polygon fill="#ffffff" stroke="#000000" points="346.5,-.5 346.5,-30.5 445.5,-30.5 445.5,-.5 346.5,-.5"/>
<text text-anchor="start" x="354.5" y="-18.5" font-family="Helvetica,sans-Serif" font-size="10.00" fill="#000000">chi::GraphFunction</text>
<text text-anchor="middle" x="396" y="-7.5" font-family="Helvetica,sans-Serif" font-size="10.00" fill="#000000">::localVariables</text>
</a>
</g>
</g>
<!-- Node320&#45;&gt;Node325 -->
<g id="edge9" class="edge">
<title>Node320&#45;&gt;Node325</title>
<path fill="none" stroke="#191970" d="M136.0153,-32.6762C199.7614,-28.4647 290.5555,-22.4663 346.2541,-18.7865"/>
<polygon fill="#191970" stroke="#191970" points="135.7737,-29.1844 126.0262,-33.3361 136.2352,-36.1692 135.7737,-29.1844"/>
</g>
<!-- Node322 -->
<g id="node3" class="node">
<title>Node322</title>
<g id="a_node3"><a xlink:href="namespacechi.html#a6a3fedb48e6702c016f996d8a7f445fc" target="_top" xlink:title="Load a GraphFunction–must already exist (use createGraphFunctionDeclarationFromJson) ...">
<polygon fill="#ffffff" stroke="#000000" points="332,-50 332,-69 460,-69 460,-50 332,-50"/>
<text text-anchor="middle" x="396" y="-57" font-family="Helvetica,sans-Serif" font-size="10.00" fill="#000000">chi::jsonToGraphFunction</text>
</a>
</g>
</g>
<!-- Node321&#45;&gt;Node322 -->
<g id="edge2" class="edge">
<title>Node321&#45;&gt;Node322</title>
<path fill="none" stroke="#191970" d="M306.6566,-59.5C315.0806,-59.5 323.5843,-59.5 331.8225,-59.5"/>
<polygon fill="#191970" stroke="#191970" points="306.444,-56.0001 296.4439,-59.5 306.4439,-63.0001 306.444,-56.0001"/>
</g>
<!-- Node321&#45;&gt;Node325 -->
<g id="edge5" class="edge">
<title>Node321&#45;&gt;Node325</title>
<path fill="none" stroke="#191970" d="M295.7846,-41.9041C312.6172,-37.4691 330.3947,-32.7852 346.2275,-28.6137"/>
<polygon fill="#191970" stroke="#191970" points="294.7831,-38.5484 286.0048,-44.4808 296.5666,-45.3174 294.7831,-38.5484"/>
</g>
<!-- Node323 -->
<g id="node4" class="node">
<title>Node323</title>
<g id="a_node4"><a xlink:href="namespacechi.html#a4489e333fecc4168278e94f8b3f81e3c" target="_top" xlink:title="Load a GraphModule from json. ">
<polygon fill="#ffffff" stroke="#000000" points="499.5,-50 499.5,-69 621.5,-69 621.5,-50 499.5,-50"/>
<text text-anchor="middle" x="560.5" y="-57" font-family="Helvetica,sans-Serif" font-size="10.00" fill="#000000">chi::jsonToGraphModule</text>
</a>
</g>
</g>
<!-- Node322&#45;&gt;Node323 -->
<g id="edge3" class="edge">
<title>Node322&#45;&gt;Node323</title>
<path fill="none" stroke="#191970" d="M470.1507,-59.5C479.8986,-59.5 489.7997,-59.5 499.2992,-59.5"/>
<polygon fill="#191970" stroke="#191970" points="470.0711,-56.0001 460.071,-59.5 470.071,-63.0001 470.0711,-56.0001"/>
</g>
<!-- Node324 -->
<g id="node5" class="node">
<title>Node324</title>
<g id="a_node5"><a xlink:href="structchi_1_1Context.html#a2db103f3a2f77710dfa51489f63ec97f" target="_top" xlink:title="Load a module from JSON – avoid this use the string overload. ">
<polygon fill="#ffffff" stroke="#000000" points="661,-50 661,-69 827,-69 827,-50 661,-50"/>
<text text-anchor="middle" x="744" y="-57" font-family="Helvetica,sans-Serif" font-size="10.00" fill="#000000">chi::Context::addModuleFromJson</text>
</a>
</g>
</g>
<!-- Node323&#45;&gt;Node324 -->
<g id="edge4" class="edge">
<title>Node323&#45;&gt;Node324</title>
<path fill="none" stroke="#191970" d="M631.8195,-59.5C641.3667,-59.5 651.2248,-59.5 660.9512,-59.5"/>
<polygon fill="#191970" stroke="#191970" points="631.6029,-56.0001 621.6028,-59.5 631.6028,-63.0001 631.6029,-56.0001"/>
</g>
<!-- Node326 -->
<g id="node7" class="node">
<title>Node326</title>
<g id="a_node7"><a xlink:href="namespacechi.html#afd8b8d8a207d88359ad1e6a48d8f3bb1" target="_top" xlink:title="Serialize a GraphFunction to json. ">
<polygon fill="#ffffff" stroke="#000000" points="496,-6 496,-25 625,-25 625,-6 496,-6"/>
<text text-anchor="middle" x="560.5" y="-13" font-family="Helvetica,sans-Serif" font-size="10.00" fill="#000000">chi::graphFunctionToJson</text>
</a>
</g>
</g>
<!-- Node325&#45;&gt;Node326 -->
<g id="edge6" class="edge">
<title>Node325&#45;&gt;Node326</title>
<path fill="none" stroke="#191970" d="M456.0216,-15.5C469.0127,-15.5 482.8038,-15.5 495.9601,-15.5"/>
<polygon fill="#191970" stroke="#191970" points="455.8019,-12.0001 445.8018,-15.5 455.8018,-19.0001 455.8019,-12.0001"/>
</g>
<!-- Node327 -->
<g id="node8" class="node">
<title>Node327</title>
<g id="a_node8"><a xlink:href="namespacechi.html#a9a4f3fa54c612f0c559a353bb7382d5a" target="_top" xlink:title="Serialize a JsonModule to json. ">
<polygon fill="#ffffff" stroke="#000000" points="682.5,-6 682.5,-25 805.5,-25 805.5,-6 682.5,-6"/>
<text text-anchor="middle" x="744" y="-13" font-family="Helvetica,sans-Serif" font-size="10.00" fill="#000000">chi::graphModuleToJson</text>
</a>
</g>
</g>
<!-- Node326&#45;&gt;Node327 -->
<g id="edge7" class="edge">
<title>Node326&#45;&gt;Node327</title>
<path fill="none" stroke="#191970" d="M635.3448,-15.5C650.9686,-15.5 667.2698,-15.5 682.3508,-15.5"/>
<polygon fill="#191970" stroke="#191970" points="635.1953,-12.0001 625.1952,-15.5 635.1952,-19.0001 635.1953,-12.0001"/>
</g>
<!-- Node328 -->
<g id="node9" class="node">
<title>Node328</title>
<g id="a_node9"><a xlink:href="structchi_1_1GraphModule.html#a5cd9fb1738336d5d382ebb50753bda3e" target="_top" xlink:title="Serialize to disk in the context. ">
<polygon fill="#ffffff" stroke="#000000" points="863,-6 863,-25 1014,-25 1014,-6 863,-6"/>
<text text-anchor="middle" x="938.5" y="-13" font-family="Helvetica,sans-Serif" font-size="10.00" fill="#000000">chi::GraphModule::saveToDisk</text>
</a>
</g>
</g>
<!-- Node327&#45;&gt;Node328 -->
<g id="edge8" class="edge">
<title>Node327&#45;&gt;Node328</title>
<path fill="none" stroke="#191970" d="M815.9281,-15.5C831.1666,-15.5 847.2967,-15.5 862.6746,-15.5"/>
<polygon fill="#191970" stroke="#191970" points="815.541,-12.0001 805.541,-15.5 815.541,-19.0001 815.541,-12.0001"/>
</g>
</g>
</svg>
