<?xml version="1.0" encoding="UTF-8" standalone="no"?>
<!DOCTYPE svg PUBLIC "-//W3C//DTD SVG 1.1//EN"
 "http://www.w3.org/Graphics/SVG/1.1/DTD/svg11.dtd">
<!-- Generated by graphviz version 2.40.1 (20161225.0304)
 -->
<!-- Title: chi::NodeInstance::context Pages: 1 -->
<!--zoomable 527 -->
<svg id="main" version="1.1" xmlns="http://www.w3.org/2000/svg" xmlns:xlink="http://www.w3.org/1999/xlink" xml:space="preserve" onload="init(evt)">
<style type="text/css"><![CDATA[
.edge:hover path { stroke: red; }
.edge:hover polygon { stroke: red; fill: red; }
]]></style>
<script type="text/javascript"><![CDATA[
var edges = document.getElementsByTagName('g');
if (edges && edges.length) {
  for (var i=0;i<edges.length;i++) {
    if (edges[i].id.substr(0,4)=='edge') {
      edges[i].setAttribute('class','edge');
    }
  }
}
]]></script>
        <defs>
                <circle id="rim" cx="0" cy="0" r="7"/>
                <circle id="rim2" cx="0" cy="0" r="3.5"/>
                <g id="zoomPlus">
                        <use xlink:href="#rim" fill="#404040">
                                <set attributeName="fill" to="#808080" begin="zoomplus.mouseover" end="zoomplus.mouseout"/>
                        </use>
                        <path d="M-4,0h8M0,-4v8" fill="none" stroke="white" stroke-width="1.5" pointer-events="none"/>
                </g>
                <g id="zoomMin">
                        <use xlink:href="#rim" fill="#404040">
                                <set attributeName="fill" to="#808080" begin="zoomminus.mouseover" end="zoomminus.mouseout"/>
                        </use>
                        <path d="M-4,0h8" fill="none" stroke="white" stroke-width="1.5" pointer-events="none"/>
                </g>
                <g id="dirArrow">
                        <path fill="none" stroke="white" stroke-width="1.5" d="M0,-3.0v7 M-2.5,-0.5L0,-3.0L2.5,-0.5"/>
                </g>
               <g id="resetDef">
                       <use xlink:href="#rim2" fill="#404040">
                               <set attributeName="fill" to="#808080" begin="reset.mouseover" end="reset.mouseout"/>
                       </use>
               </g>
        </defs>

<script type="text/javascript">
var viewWidth = 1262;
var viewHeight = 527;
var sectionId = 'dynsection-2';
</script>
<script xlink:href="svgpan.js"/>
<svg id="graph" class="graph">
<g id="viewport">
<title>chi::NodeInstance::context</title>
<polygon fill="#ffffff" stroke="transparent" points="-4,4 -4,-523 1258,-523 1258,4 -4,4"/>
<!-- Node4 -->
<g id="node1" class="node">
<title>Node4</title>
<polygon fill="#bfbfbf" stroke="#000000" points="0,-263 0,-293 101,-293 101,-263 0,-263"/>
<text text-anchor="start" x="8" y="-281" font-family="Helvetica,sans-Serif" font-size="10.00" fill="#000000">chi::NodeInstance::</text>
<text text-anchor="middle" x="50.5" y="-270" font-family="Helvetica,sans-Serif" font-size="10.00" fill="#000000">context</text>
</g>
<!-- Node5 -->
<g id="node2" class="node">
<title>Node5</title>
<g id="a_node2"><a xlink:href="structchi_1_1NodeCompiler.html#a7b0bd7aecf8cfc98804b31b21066b6d1" target="_top" xlink:title="Just node().context() ">
<polygon fill="#ffffff" stroke="#000000" points="137,-263 137,-293 239,-293 239,-263 137,-263"/>
<text text-anchor="start" x="145" y="-281" font-family="Helvetica,sans-Serif" font-size="10.00" fill="#000000">chi::NodeCompiler::</text>
<text text-anchor="middle" x="188" y="-270" font-family="Helvetica,sans-Serif" font-size="10.00" fill="#000000">context</text>
</a>
</g>
</g>
<!-- Node4&#45;&gt;Node5 -->
<g id="edge1" class="edge">
<title>Node4&#45;&gt;Node5</title>
<path fill="none" stroke="#191970" d="M111.5423,-278C120.025,-278 128.6662,-278 136.9405,-278"/>
<polygon fill="#191970" stroke="#191970" points="111.3093,-274.5001 101.3093,-278 111.3092,-281.5001 111.3093,-274.5001"/>
</g>
<!-- Node6 -->
<g id="node3" class="node">
<title>Node6</title>
<g id="a_node3"><a xlink:href="structchi_1_1NodeCompiler.html#a8a595537ffd4b3116059d59e3fd61f8b" target="_top" xlink:title="The node we&#39;re compiling. ">
<polygon fill="#ffffff" stroke="#000000" points="275,-268.5 275,-287.5 398,-287.5 398,-268.5 275,-268.5"/>
<text text-anchor="middle" x="336.5" y="-275.5" font-family="Helvetica,sans-Serif" font-size="10.00" fill="#000000">chi::NodeCompiler::node</text>
</a>
</g>
</g>
<!-- Node5&#45;&gt;Node6 -->
<g id="edge2" class="edge">
<title>Node5&#45;&gt;Node6</title>
<path fill="none" stroke="#191970" d="M249.2483,-271.3428C257.6828,-271.2213 266.3482,-271.2191 274.7909,-271.3363"/>
<polygon fill="#191970" stroke="#191970" points="249.0316,-267.8464 239.1053,-271.5503 249.1748,-274.845 249.0316,-267.8464"/>
</g>
<!-- Node7 -->
<g id="node4" class="node">
<title>Node7</title>
<g id="a_node4"><a xlink:href="structchi_1_1NodeCompiler.html#af391b4e8ecebe8859490749bac0425de" target="_top" xlink:title="Add the basic blocks and fill the pure blocks, but don&#39;t fill the code block nop if its already been ...">
<polygon fill="#ffffff" stroke="#000000" points="1009.5,-123 1009.5,-153 1111.5,-153 1111.5,-123 1009.5,-123"/>
<text text-anchor="start" x="1017.5" y="-141" font-family="Helvetica,sans-Serif" font-size="10.00" fill="#000000">chi::NodeCompiler::</text>
<text text-anchor="middle" x="1060.5" y="-130" font-family="Helvetica,sans-Serif" font-size="10.00" fill="#000000">compile_stage1</text>
</a>
</g>
</g>
<!-- Node5&#45;&gt;Node7 -->
<g id="edge33" class="edge">
<title>Node5&#45;&gt;Node7</title>
<path fill="none" stroke="#191970" d="M199.9113,-253.535C234.8602,-185.6665 344.2041,0 494.5,0 494.5,0 494.5,0 780,0 867.4845,0 892.6465,-12.2955 969,-55 1001.1958,-73.0071 1031.433,-104.2847 1047.8099,-122.8719"/>
<polygon fill="#191970" stroke="#191970" points="196.6876,-252.1541 195.2987,-262.6575 202.9345,-255.3127 196.6876,-252.1541"/>
</g>
<!-- Node8 -->
<g id="node5" class="node">
<title>Node8</title>
<g id="a_node5"><a xlink:href="structchi_1_1NodeCompiler.html#ac3f5bd1f1f84fc1b35fc8ad54db3c844" target="_top" xlink:title="Fill the codegen block If compile_stage1 hasn&#39;t been called for this inputExecID, then it will be cal...">
<polygon fill="#ffffff" stroke="#000000" points="1152,-388 1152,-418 1254,-418 1254,-388 1152,-388"/>
<text text-anchor="start" x="1160" y="-406" font-family="Helvetica,sans-Serif" font-size="10.00" fill="#000000">chi::NodeCompiler::</text>
<text text-anchor="middle" x="1203" y="-395" font-family="Helvetica,sans-Serif" font-size="10.00" fill="#000000">compile_stage2</text>
</a>
</g>
</g>
<!-- Node5&#45;&gt;Node8 -->
<g id="edge34" class="edge">
<title>Node5&#45;&gt;Node8</title>
<path fill="none" stroke="#191970" d="M202.322,-301.6313C241.1188,-362.3341 354.7824,-519 494.5,-519 494.5,-519 494.5,-519 918,-519 1008.4453,-519 1034.6294,-511.4864 1116,-472 1144.2702,-458.2815 1171.8108,-434.0593 1188.0898,-418.2708"/>
<polygon fill="#191970" stroke="#191970" points="205.2298,-299.6804 196.9456,-293.0756 199.3029,-303.4049 205.2298,-299.6804"/>
</g>
<!-- Node6&#45;&gt;Node5 -->
<g id="edge8" class="edge">
<title>Node6&#45;&gt;Node5</title>
<path fill="none" stroke="#191970" d="M264.6945,-284.7467C256.0527,-284.7698 247.3666,-284.6707 239.1053,-284.4497"/>
<polygon fill="#191970" stroke="#191970" points="264.8201,-288.2459 274.7909,-284.6637 264.7624,-281.2462 264.8201,-288.2459"/>
</g>
<!-- Node6&#45;&gt;Node7 -->
<g id="edge3" class="edge">
<title>Node6&#45;&gt;Node7</title>
<path fill="none" stroke="#191970" d="M346.0116,-259.2726C379.5949,-202.4968 498.3544,-38 642,-38 642,-38 642,-38 780,-38 883.417,-38 998.2738,-94.6584 1042.1276,-122.9827"/>
<polygon fill="#191970" stroke="#191970" points="342.7934,-257.8518 340.8966,-268.2754 348.8797,-261.3097 342.7934,-257.8518"/>
</g>
<!-- Node6&#45;&gt;Node8 -->
<g id="edge7" class="edge">
<title>Node6&#45;&gt;Node8</title>
<path fill="none" stroke="#191970" d="M346.8383,-296.8453C361.4308,-326.1103 391.156,-381.2437 434,-411 512.265,-465.3571 546.7104,-463 642,-463 642,-463 642,-463 918,-463 1001.7447,-463 1095.5428,-434.5094 1151.8953,-416.5311"/>
<polygon fill="#191970" stroke="#191970" points="349.8704,-295.0801 342.3111,-287.6567 343.5912,-298.1739 349.8704,-295.0801"/>
</g>
<!-- Node9 -->
<g id="node6" class="node">
<title>Node9</title>
<g id="a_node6"><a xlink:href="structchi_1_1NodeCompiler.html#a4599a3322541fe67adfa343c19b00dc4" target="_top" xlink:title="The number of input execs that we can compile If it&#39;s pure or an entry node, this is 1...">
<polygon fill="#ffffff" stroke="#000000" points="591,-263 591,-293 693,-293 693,-263 591,-263"/>
<text text-anchor="start" x="599" y="-281" font-family="Helvetica,sans-Serif" font-size="10.00" fill="#000000">chi::NodeCompiler::</text>
<text text-anchor="middle" x="642" y="-270" font-family="Helvetica,sans-Serif" font-size="10.00" fill="#000000">inputExecs</text>
</a>
</g>
</g>
<!-- Node6&#45;&gt;Node9 -->
<g id="edge9" class="edge">
<title>Node6&#45;&gt;Node9</title>
<path fill="none" stroke="#191970" d="M408.542,-272.169C464.6003,-270.7582 541.0041,-270.9717 590.9038,-272.8096"/>
<polygon fill="#191970" stroke="#191970" points="408.222,-268.6765 398.3225,-272.4514 408.4154,-275.6738 408.222,-268.6765"/>
</g>
<!-- Node14 -->
<g id="node11" class="node">
<title>Node14</title>
<g id="a_node11"><a xlink:href="structchi_1_1NodeCompiler.html#a60d81f093668468eb14be0e18e319ed5" target="_top" xlink:title="Constructor. ">
<polygon fill="#ffffff" stroke="#000000" points="443.5,-316 443.5,-346 545.5,-346 545.5,-316 443.5,-316"/>
<text text-anchor="start" x="451.5" y="-334" font-family="Helvetica,sans-Serif" font-size="10.00" fill="#000000">chi::NodeCompiler::</text>
<text text-anchor="middle" x="494.5" y="-323" font-family="Helvetica,sans-Serif" font-size="10.00" fill="#000000">NodeCompiler</text>
</a>
</g>
</g>
<!-- Node6&#45;&gt;Node14 -->
<g id="edge25" class="edge">
<title>Node6&#45;&gt;Node14</title>
<path fill="none" stroke="#191970" d="M374.7015,-290.8144C397.2902,-298.3916 426.0122,-308.0263 449.6701,-315.9621"/>
<polygon fill="#191970" stroke="#191970" points="375.7065,-287.46 365.1126,-287.5979 373.4803,-294.0965 375.7065,-287.46"/>
</g>
<!-- Node15 -->
<g id="node12" class="node">
<title>Node15</title>
<g id="a_node12"><a xlink:href="structchi_1_1NodeCompiler.html#aa31a7c7955b51e5610b966f81bdc989d" target="_top" xlink:title="node().type().pure() ">
<polygon fill="#ffffff" stroke="#000000" points="434,-173.5 434,-192.5 555,-192.5 555,-173.5 434,-173.5"/>
<text text-anchor="middle" x="494.5" y="-180.5" font-family="Helvetica,sans-Serif" font-size="10.00" fill="#000000">chi::NodeCompiler::pure</text>
</a>
</g>
</g>
<!-- Node6&#45;&gt;Node15 -->
<g id="edge26" class="edge">
<title>Node6&#45;&gt;Node15</title>
<path fill="none" stroke="#191970" d="M351.9208,-261.7173C371.0258,-246.7697 404.6487,-225.4161 434,-208 442.8074,-202.774 452.436,-197.27 461.3694,-192.5783"/>
<polygon fill="#191970" stroke="#191970" points="349.4611,-259.2107 344.0107,-268.2961 353.9372,-264.5926 349.4611,-259.2107"/>
</g>
<!-- Node7&#45;&gt;Node6 -->
<g id="edge6" class="edge">
<title>Node7&#45;&gt;Node6</title>
<path fill="none" stroke="#191970" d="M1012.4131,-118.7264C957.733,-94.2773 865.0022,-56 780,-56 642,-56 642,-56 642,-56 496.3791,-56 376.3334,-225.052 344.6746,-268.2841"/>
<polygon fill="#191970" stroke="#191970" points="1011.2854,-122.057 1021.8408,-122.9695 1014.1583,-115.6737 1011.2854,-122.057"/>
</g>
<!-- Node7&#45;&gt;Node8 -->
<g id="edge4" class="edge">
<title>Node7&#45;&gt;Node8</title>
<path fill="none" stroke="#191970" d="M1073.4739,-162.1268C1102.3363,-215.8008 1171.1731,-343.8132 1194.8422,-387.8293"/>
<polygon fill="#191970" stroke="#191970" points="1076.3884,-160.1566 1068.5697,-153.0068 1070.2232,-163.4718 1076.3884,-160.1566"/>
</g>
<!-- Node8&#45;&gt;Node6 -->
<g id="edge5" class="edge">
<title>Node8&#45;&gt;Node6</title>
<path fill="none" stroke="#191970" d="M1169.5088,-422.3049C1116.8868,-445.701 1011.2155,-481 918,-481 642,-481 642,-481 642,-481 546.7104,-481 512.265,-483.3571 434,-429 380.7009,-391.9824 347.7046,-315.6912 338.8881,-287.8238"/>
<polygon fill="#191970" stroke="#191970" points="1171.0733,-425.438 1178.7022,-418.0861 1168.1537,-419.0759 1171.0733,-425.438"/>
</g>
<!-- Node9&#45;&gt;Node6 -->
<g id="edge24" class="edge">
<title>Node9&#45;&gt;Node6</title>
<path fill="none" stroke="#191970" d="M580.6285,-283.535C527.6369,-285.1504 451.4452,-285.155 398.3225,-283.5486"/>
<polygon fill="#191970" stroke="#191970" points="581.0268,-287.0237 590.9038,-283.1904 580.7921,-280.0276 581.0268,-287.0237"/>
</g>
<!-- Node9&#45;&gt;Node7 -->
<g id="edge18" class="edge">
<title>Node9&#45;&gt;Node7</title>
<path fill="none" stroke="#191970" d="M675.2999,-257.7548C691.1619,-248.7041 710.6412,-238.4268 729,-231 742.2122,-225.6552 919.7838,-176.6418 1009.4454,-152.0037"/>
<polygon fill="#191970" stroke="#191970" points="673.3068,-254.8647 666.4144,-262.9111 676.8203,-260.9191 673.3068,-254.8647"/>
</g>
<!-- Node9&#45;&gt;Node8 -->
<g id="edge19" class="edge">
<title>Node9&#45;&gt;Node8</title>
<path fill="none" stroke="#191970" d="M676.8616,-297.8804C692.4957,-306.3096 711.3561,-315.8217 729,-323 874.7156,-382.2836 1062.8351,-397.6372 1151.9082,-401.6122"/>
<polygon fill="#191970" stroke="#191970" points="678.5159,-294.7959 668.0629,-293.0684 675.1571,-300.9375 678.5159,-294.7959"/>
</g>
<!-- Node10 -->
<g id="node7" class="node">
<title>Node10</title>
<g id="a_node7"><a xlink:href="structchi_1_1NodeCompiler.html#ac63b5729c1bdb67a231a1f948ad59374" target="_top" xlink:title="Get the code block for a given inputExecID Requires that compile_stage1 has been called for this ID...">
<polygon fill="#ffffff" stroke="#000000" points="729,-240 729,-270 831,-270 831,-240 729,-240"/>
<text text-anchor="start" x="737" y="-258" font-family="Helvetica,sans-Serif" font-size="10.00" fill="#000000">chi::NodeCompiler::</text>
<text text-anchor="middle" x="780" y="-247" font-family="Helvetica,sans-Serif" font-size="10.00" fill="#000000">codeBlock</text>
</a>
</g>
</g>
<!-- Node9&#45;&gt;Node10 -->
<g id="edge10" class="edge">
<title>Node9&#45;&gt;Node10</title>
<path fill="none" stroke="#191970" d="M703.4957,-267.7507C711.872,-266.3547 720.3977,-264.9337 728.571,-263.5715"/>
<polygon fill="#191970" stroke="#191970" points="702.6746,-264.3392 693.3861,-269.4356 703.8255,-271.244 702.6746,-264.3392"/>
</g>
<!-- Node11 -->
<g id="node8" class="node">
<title>Node11</title>
<g id="a_node8"><a xlink:href="structchi_1_1NodeCompiler.html#a12c42cfcd23400c523184966ed238806" target="_top" xlink:title="Get the first block to jump to for the node If there are dependent pures, it&#39;s the first pure block O...">
<polygon fill="#ffffff" stroke="#000000" points="867,-325 867,-355 969,-355 969,-325 867,-325"/>
<text text-anchor="start" x="875" y="-343" font-family="Helvetica,sans-Serif" font-size="10.00" fill="#000000">chi::NodeCompiler::</text>
<text text-anchor="middle" x="918" y="-332" font-family="Helvetica,sans-Serif" font-size="10.00" fill="#000000">firstBlock</text>
</a>
</g>
</g>
<!-- Node9&#45;&gt;Node11 -->
<g id="edge23" class="edge">
<title>Node9&#45;&gt;Node11</title>
<path fill="none" stroke="#191970" d="M703.1197,-291.7298C752.1684,-302.748 820.2468,-318.0409 866.5404,-328.4402"/>
<polygon fill="#191970" stroke="#191970" points="703.7907,-288.2934 693.2667,-289.5164 702.2564,-295.1232 703.7907,-288.2934"/>
</g>
<!-- Node13 -->
<g id="node10" class="node">
<title>Node13</title>
<g id="a_node10"><a xlink:href="structchi_1_1NodeCompiler.html#ab3db1222a66ea1767cd6dbc8a8a10963" target="_top" xlink:title="Get if compile_stage2 has been called for a given inputExecID. ">
<polygon fill="#ffffff" stroke="#000000" points="729,-404 729,-434 831,-434 831,-404 729,-404"/>
<text text-anchor="start" x="737" y="-422" font-family="Helvetica,sans-Serif" font-size="10.00" fill="#000000">chi::NodeCompiler::</text>
<text text-anchor="middle" x="780" y="-411" font-family="Helvetica,sans-Serif" font-size="10.00" fill="#000000">compiled</text>
</a>
</g>
</g>
<!-- Node9&#45;&gt;Node13 -->
<g id="edge20" class="edge">
<title>Node9&#45;&gt;Node13</title>
<path fill="none" stroke="#191970" d="M663.8178,-300.2921C692.0362,-329.1239 740.4593,-378.5997 764.9194,-403.5916"/>
<polygon fill="#191970" stroke="#191970" points="666.2644,-297.7881 656.7684,-293.0895 661.2617,-302.6843 666.2644,-297.7881"/>
</g>
<!-- Node10&#45;&gt;Node6 -->
<g id="edge17" class="edge">
<title>Node10&#45;&gt;Node6</title>
<path fill="none" stroke="#191970" d="M718.8477,-254.2085C710.1709,-254.122 701.3596,-254.048 693,-254 647.6674,-253.7395 636.2832,-251.8696 591,-254 524.9468,-257.1076 449.5691,-264.728 398.0975,-270.5553"/>
<polygon fill="#191970" stroke="#191970" points="718.9004,-257.7092 728.9368,-254.315 718.9743,-250.7096 718.9004,-257.7092"/>
</g>
<!-- Node10&#45;&gt;Node7 -->
<g id="edge11" class="edge">
<title>Node10&#45;&gt;Node7</title>
<path fill="none" stroke="#191970" d="M840.9319,-240.3484C878.7266,-230.2036 927.7699,-215.0975 969,-196 994.7698,-184.0636 1021.9736,-166.0293 1039.954,-153.2436"/>
<polygon fill="#191970" stroke="#191970" points="839.8581,-237.0119 831.0828,-242.9486 841.6449,-243.78 839.8581,-237.0119"/>
</g>
<!-- Node10&#45;&gt;Node8 -->
<g id="edge12" class="edge">
<title>Node10&#45;&gt;Node8</title>
<path fill="none" stroke="#191970" d="M841.1265,-267.0888C849.8072,-268.7634 858.6264,-270.4422 867,-272 977.4855,-292.5546 1016.3262,-264.0898 1116,-316 1149.3435,-333.3654 1177.9608,-367.9744 1192.5904,-387.9093"/>
<polygon fill="#191970" stroke="#191970" points="841.518,-263.5996 831.0346,-265.1323 840.1857,-270.4716 841.518,-263.5996"/>
</g>
<!-- Node10&#45;&gt;Node11 -->
<g id="edge13" class="edge">
<title>Node10&#45;&gt;Node11</title>
<path fill="none" stroke="#191970" d="M815.2458,-275.2651C820.5648,-278.4579 825.9562,-281.7717 831,-285 847.4067,-295.5013 850.5933,-299.4987 867,-310 874.8733,-315.0394 883.5934,-320.2868 891.5635,-324.9576"/>
<polygon fill="#191970" stroke="#191970" points="816.8234,-272.1316 806.4365,-270.0424 813.2535,-278.1529 816.8234,-272.1316"/>
</g>
<!-- Node11&#45;&gt;Node6 -->
<g id="edge16" class="edge">
<title>Node11&#45;&gt;Node6</title>
<path fill="none" stroke="#191970" d="M856.8,-355.8095C762.8215,-377.079 578.6704,-406.7477 434,-356 394.7259,-342.2234 359.5192,-305.2367 344.3705,-287.6044"/>
<polygon fill="#191970" stroke="#191970" points="857.7512,-359.1821 866.7076,-353.5223 856.1765,-352.3615 857.7512,-359.1821"/>
</g>
<!-- Node11&#45;&gt;Node7 -->
<g id="edge15" class="edge">
<title>Node11&#45;&gt;Node7</title>
<path fill="none" stroke="#191970" d="M934.5131,-316.5919C964.0671,-274.6978 1025.2133,-188.0204 1049.8594,-153.0835"/>
<polygon fill="#191970" stroke="#191970" points="931.6152,-314.6282 928.7107,-324.8172 937.3351,-318.6634 931.6152,-314.6282"/>
</g>
<!-- Node12 -->
<g id="node9" class="node">
<title>Node12</title>
<g id="a_node9"><a xlink:href="structchi_1_1FunctionCompiler.html#ad5d91d8dbaa379a0b90107f37427dec8" target="_top" xlink:title="Generates the contents of the function. ">
<polygon fill="#ffffff" stroke="#000000" points="1005,-325 1005,-355 1116,-355 1116,-325 1005,-325"/>
<text text-anchor="start" x="1013" y="-343" font-family="Helvetica,sans-Serif" font-size="10.00" fill="#000000">chi::FunctionCompiler</text>
<text text-anchor="middle" x="1060.5" y="-332" font-family="Helvetica,sans-Serif" font-size="10.00" fill="#000000">::compile</text>
</a>
</g>
</g>
<!-- Node11&#45;&gt;Node12 -->
<g id="edge14" class="edge">
<title>Node11&#45;&gt;Node12</title>
<path fill="none" stroke="#191970" d="M979.318,-340C987.8478,-340 996.5713,-340 1004.9866,-340"/>
<polygon fill="#191970" stroke="#191970" points="979.0433,-336.5001 969.0433,-340 979.0432,-343.5001 979.0433,-336.5001"/>
</g>
<!-- Node13&#45;&gt;Node6 -->
<g id="edge22" class="edge">
<title>Node13&#45;&gt;Node6</title>
<path fill="none" stroke="#191970" d="M718.7084,-426.9024C646.5078,-433.335 524.8973,-434.9754 434,-389 387.7658,-365.615 353.7895,-310.0237 341.513,-287.6116"/>
<polygon fill="#191970" stroke="#191970" points="719.3695,-430.3554 728.9929,-425.9236 718.7062,-423.3868 719.3695,-430.3554"/>
</g>
<!-- Node13&#45;&gt;Node8 -->
<g id="edge21" class="edge">
<title>Node13&#45;&gt;Node8</title>
<path fill="none" stroke="#191970" d="M841.1488,-416.687C924.8599,-413.5207 1073.639,-407.8931 1151.7954,-404.9368"/>
<polygon fill="#191970" stroke="#191970" points="840.8842,-413.1945 831.0237,-417.07 841.1489,-420.1894 840.8842,-413.1945"/>
</g>
<!-- Node15&#45;&gt;Node6 -->
<g id="edge32" class="edge">
<title>Node15&#45;&gt;Node6</title>
<path fill="none" stroke="#191970" d="M479.1257,-198.688C466.829,-207.1432 449.1928,-216.9851 434,-226 409.7881,-240.3666 382.6695,-257.4124 363.1911,-268.3242"/>
<polygon fill="#191970" stroke="#191970" points="481.4481,-201.3217 487.3593,-192.5292 477.2552,-195.7163 481.4481,-201.3217"/>
</g>
<!-- Node15&#45;&gt;Node7 -->
<g id="edge27" class="edge">
<title>Node15&#45;&gt;Node7</title>
<path fill="none" stroke="#191970" d="M522.3779,-168.9535C541.2698,-160.0636 567.062,-149.1279 591,-143 754.2637,-101.2058 801.9681,-90.5921 969,-113 984.179,-115.0363 1000.405,-118.8924 1014.9142,-122.9774"/>
<polygon fill="#191970" stroke="#191970" points="520.6692,-165.8915 513.174,-173.3796 523.703,-172.1999 520.6692,-165.8915"/>
</g>
<!-- Node15&#45;&gt;Node8 -->
<g id="edge28" class="edge">
<title>Node15&#45;&gt;Node8</title>
<path fill="none" stroke="#191970" d="M565.1321,-176.5905C687.3825,-169.0336 941.9973,-169.1995 1116,-279 1158.2563,-305.6649 1185.7117,-361.0535 1197.0597,-387.8409"/>
<polygon fill="#191970" stroke="#191970" points="564.8906,-173.0987 555.1403,-177.2439 565.3474,-180.0838 564.8906,-173.0987"/>
</g>
<!-- Node15&#45;&gt;Node9 -->
<g id="edge29" class="edge">
<title>Node15&#45;&gt;Node9</title>
<path fill="none" stroke="#191970" d="M518.0729,-198.1825C545.6493,-215.9436 591.0264,-245.1696 618.5499,-262.8965"/>
<polygon fill="#191970" stroke="#191970" points="519.7572,-195.1042 509.4548,-192.6319 515.9668,-200.9892 519.7572,-195.1042"/>
</g>
<!-- Node16 -->
<g id="node13" class="node">
<title>Node16</title>
<g id="a_node13"><a xlink:href="structchi_1_1NodeCompiler.html#a7dc06ad0390f2113fbeb5e7c0cf3dd06" target="_top" xlink:title="Get the IndirectBrInst* for the pure. ">
<polygon fill="#ffffff" stroke="#000000" points="867,-123 867,-153 969,-153 969,-123 867,-123"/>
<text text-anchor="start" x="875" y="-141" font-family="Helvetica,sans-Serif" font-size="10.00" fill="#000000">chi::NodeCompiler::</text>
<text text-anchor="middle" x="918" y="-130" font-family="Helvetica,sans-Serif" font-size="10.00" fill="#000000">jumpBackInst</text>
</a>
</g>
</g>
<!-- Node15&#45;&gt;Node16 -->
<g id="edge30" class="edge">
<title>Node15&#45;&gt;Node16</title>
<path fill="none" stroke="#191970" d="M536.8366,-170.7231C553.571,-166.3314 573.058,-161.7841 591,-159 687.8304,-143.9745 802.3983,-139.6616 866.9963,-138.4477"/>
<polygon fill="#191970" stroke="#191970" points="535.5585,-167.4425 526.8112,-173.4204 537.3772,-174.2021 535.5585,-167.4425"/>
</g>
<!-- Node16&#45;&gt;Node7 -->
<g id="edge31" class="edge">
<title>Node16&#45;&gt;Node7</title>
<path fill="none" stroke="#191970" d="M979.3372,-138C989.3402,-138 999.609,-138 1009.3342,-138"/>
<polygon fill="#191970" stroke="#191970" points="979.0433,-134.5001 969.0433,-138 979.0432,-141.5001 979.0433,-134.5001"/>
</g>
</g>
</svg>
        <g id="navigator" transform="translate(0 0)" fill="#404254">
                <rect fill="#f2f5e9" fill-opacity="0.5" stroke="#606060" stroke-width=".5" x="0" y="0" width="60" height="60"/>
                <use id="zoomplus" xlink:href="#zoomPlus" x="17" y="9" onmousedown="handleZoom(evt,'in')"/>
                <use id="zoomminus" xlink:href="#zoomMin" x="42" y="9" onmousedown="handleZoom(evt,'out')"/>
                <use id="reset" xlink:href="#resetDef" x="30" y="36" onmousedown="handleReset()"/>
                <g id="arrowUp" xlink:href="#dirArrow" transform="translate(30 24)" onmousedown="handlePan(0,-1)">
                  <use xlink:href="#rim" fill="#404040">
                        <set attributeName="fill" to="#808080" begin="arrowUp.mouseover" end="arrowUp.mouseout"/>
                  </use>
                  <path fill="none" stroke="white" stroke-width="1.5" d="M0,-3.0v7 M-2.5,-0.5L0,-3.0L2.5,-0.5"/>
                </g>
                <g id="arrowRight" xlink:href="#dirArrow" transform="rotate(90) translate(36 -43)" onmousedown="handlePan(1,0)">
                  <use xlink:href="#rim" fill="#404040">
                        <set attributeName="fill" to="#808080" begin="arrowRight.mouseover" end="arrowRight.mouseout"/>
                  </use>
                  <path fill="none" stroke="white" stroke-width="1.5" d="M0,-3.0v7 M-2.5,-0.5L0,-3.0L2.5,-0.5"/>
                </g>
                <g id="arrowDown" xlink:href="#dirArrow" transform="rotate(180) translate(-30 -48)" onmousedown="handlePan(0,1)">
                  <use xlink:href="#rim" fill="#404040">
                        <set attributeName="fill" to="#808080" begin="arrowDown.mouseover" end="arrowDown.mouseout"/>
                  </use>
                  <path fill="none" stroke="white" stroke-width="1.5" d="M0,-3.0v7 M-2.5,-0.5L0,-3.0L2.5,-0.5"/>
                </g>
                <g id="arrowLeft" xlink:href="#dirArrow" transform="rotate(270) translate(-36 17)" onmousedown="handlePan(-1,0)">
                  <use xlink:href="#rim" fill="#404040">
                        <set attributeName="fill" to="#808080" begin="arrowLeft.mouseover" end="arrowLeft.mouseout"/>
                  </use>
                  <path fill="none" stroke="white" stroke-width="1.5" d="M0,-3.0v7 M-2.5,-0.5L0,-3.0L2.5,-0.5"/>
                </g>
        </g>
        <svg viewBox="0 0 15 15" width="100%" height="30px" preserveAspectRatio="xMaxYMin meet">
         <g id="arrow_out" transform="scale(0.3 0.3)">
          <a xlink:href="structchi_1_1NodeInstance_ac2ada83d65425a80a4af74da5414fd75_icgraph_org.svg" target="_base">
           <rect id="button" ry="5" rx="5" y="6" x="6" height="38" width="38"
                fill="#f2f5e9" fill-opacity="0.5" stroke="#606060" stroke-width="1.0"/>
           <path id="arrow"
             d="M 11.500037,31.436501 C 11.940474,20.09759 22.043105,11.32322 32.158766,21.979434 L 37.068811,17.246167 C 37.068811,17.246167 37.088388,32 37.088388,32 L 22.160133,31.978069 C 22.160133,31.978069 26.997745,27.140456 26.997745,27.140456 C 18.528582,18.264221 13.291696,25.230495 11.500037,31.436501 z"
             style="fill:#404040;"/>
          </a>
         </g>
        </svg>
</svg>
