<?xml version="1.0" encoding="UTF-8" standalone="no"?>
<!DOCTYPE svg PUBLIC "-//W3C//DTD SVG 1.1//EN"
 "http://www.w3.org/Graphics/SVG/1.1/DTD/svg11.dtd">
<!-- Generated by graphviz version 2.40.1 (20161225.0304)
 -->
<!-- Title: chig::NodeInstance::x Pages: 1 -->
<svg width="257pt" height="88pt"
 viewBox="0.00 0.00 257.00 88.00" xmlns="http://www.w3.org/2000/svg" xmlns:xlink="http://www.w3.org/1999/xlink">
<g id="graph0" class="graph" transform="scale(1 1) rotate(0) translate(4 84)">
<title>chig::NodeInstance::x</title>
<polygon fill="#ffffff" stroke="transparent" points="-4,4 -4,-84 253,-84 253,4 -4,4"/>
<!-- Node86 -->
<g id="node1" class="node">
<title>Node86</title>
<polygon fill="#bfbfbf" stroke="#000000" points="0,-30 0,-49 112,-49 112,-30 0,-30"/>
<text text-anchor="middle" x="56" y="-37" font-family="Helvetica,sans-Serif" font-size="10.00" fill="#000000">chig::NodeInstance::x</text>
</g>
<!-- Node87 -->
<g id="node2" class="node">
<title>Node87</title>
<g id="a_node2"><a xlink:href="structchig_1_1NodeInstance.html#a2b736c092e6c31e19e2ed9b5be1fc6ec" target="_top" xlink:title="Copy constructor. ">
<polygon fill="#ffffff" stroke="#000000" points="148,-49.5 148,-79.5 249,-79.5 249,-49.5 148,-49.5"/>
<text text-anchor="start" x="156" y="-67.5" font-family="Helvetica,sans-Serif" font-size="10.00" fill="#000000">chig::NodeInstance</text>
<text text-anchor="middle" x="198.5" y="-56.5" font-family="Helvetica,sans-Serif" font-size="10.00" fill="#000000">::NodeInstance</text>
</a>
</g>
</g>
<!-- Node86&#45;&gt;Node87 -->
<g id="edge1" class="edge">
<title>Node86&#45;&gt;Node87</title>
<path fill="none" stroke="#191970" d="M120.1786,-50.7594C129.3859,-52.3747 138.7523,-54.018 147.6546,-55.5798"/>
<polygon fill="#191970" stroke="#191970" points="120.734,-47.3035 110.2796,-49.0227 119.5244,-54.1982 120.734,-47.3035"/>
</g>
<!-- Node88 -->
<g id="node3" class="node">
<title>Node88</title>
<g id="a_node3"><a xlink:href="structchig_1_1NodeInstance.html#a3c1b4ddc0c288cbacf6e4aaa7810a349" target="_top" xlink:title="Copy assignment operator. ">
<polygon fill="#ffffff" stroke="#000000" points="148,-.5 148,-30.5 249,-30.5 249,-.5 148,-.5"/>
<text text-anchor="start" x="156" y="-18.5" font-family="Helvetica,sans-Serif" font-size="10.00" fill="#000000">chig::NodeInstance</text>
<text text-anchor="middle" x="198.5" y="-7.5" font-family="Helvetica,sans-Serif" font-size="10.00" fill="#000000">::operator=</text>
</a>
</g>
</g>
<!-- Node86&#45;&gt;Node88 -->
<g id="edge2" class="edge">
<title>Node86&#45;&gt;Node88</title>
<path fill="none" stroke="#191970" d="M122.2689,-28.3389C130.8068,-26.901 139.4406,-25.4469 147.6766,-24.0597"/>
<polygon fill="#191970" stroke="#191970" points="121.5996,-24.9023 112.3198,-30.0146 122.7622,-31.8051 121.5996,-24.9023"/>
</g>
</g>
</svg>
