<?xml version="1.0" encoding="UTF-8" standalone="no"?>
<!DOCTYPE svg PUBLIC "-//W3C//DTD SVG 1.1//EN"
 "http://www.w3.org/Graphics/SVG/1.1/DTD/svg11.dtd">
<!-- Generated by graphviz version 2.40.1 (20161225.0304)
 -->
<!-- Title: chi::Result::operator! Pages: 1 -->
<svg width="257pt" height="66pt"
 viewBox="0.00 0.00 257.00 66.00" xmlns="http://www.w3.org/2000/svg" xmlns:xlink="http://www.w3.org/1999/xlink">
<g id="graph0" class="graph" transform="scale(1 1) rotate(0) translate(4 62)">
<title>chi::Result::operator!</title>
<polygon fill="#ffffff" stroke="transparent" points="-4,4 -4,-62 253,-62 253,4 -4,4"/>
<!-- Node246 -->
<g id="node1" class="node">
<title>Node246</title>
<polygon fill="#bfbfbf" stroke="#000000" points="0,-19.5 0,-38.5 107,-38.5 107,-19.5 0,-19.5"/>
<text text-anchor="middle" x="53.5" y="-26.5" font-family="Helvetica,sans-Serif" font-size="10.00" fill="#000000">chi::Result::operator!</text>
</g>
<!-- Node247 -->
<g id="node2" class="node">
<title>Node247</title>
<g id="a_node2"><a xlink:href="structchi_1_1Result.html#a2e208b26f30dc292c5ab72354757b6dd" target="_top" xlink:title="Dump to a pretty&#45;printed error message. ">
<polygon fill="#ffffff" stroke="#000000" points="149.5,-38.5 149.5,-57.5 242.5,-57.5 242.5,-38.5 149.5,-38.5"/>
<text text-anchor="middle" x="196" y="-45.5" font-family="Helvetica,sans-Serif" font-size="10.00" fill="#000000">chi::Result::dump</text>
</a>
</g>
</g>
<!-- Node246&#45;&gt;Node247 -->
<g id="edge1" class="edge">
<title>Node246&#45;&gt;Node247</title>
<path fill="none" stroke="#191970" d="M107.3731,-36.1831C117.6586,-37.5545 128.4585,-38.9945 138.8425,-40.379"/>
<polygon fill="#191970" stroke="#191970" points="138.6784,-43.888 149.0533,-41.7404 139.6036,-36.9494 138.6784,-43.888"/>
</g>
<!-- Node248 -->
<g id="node3" class="node">
<title>Node248</title>
<g id="a_node3"><a xlink:href="structchi_1_1Result.html#a98065cddbdc75d3130b5d8c3d567f507" target="_top" xlink:title="Success test. ">
<polygon fill="#ffffff" stroke="#000000" points="143,-.5 143,-19.5 249,-19.5 249,-.5 143,-.5"/>
<text text-anchor="middle" x="196" y="-7.5" font-family="Helvetica,sans-Serif" font-size="10.00" fill="#000000">chi::Result::success</text>
</a>
</g>
</g>
<!-- Node246&#45;&gt;Node248 -->
<g id="edge2" class="edge">
<title>Node246&#45;&gt;Node248</title>
<path fill="none" stroke="#191970" d="M107.3731,-21.8169C115.7571,-20.699 124.483,-19.5356 133.0468,-18.3938"/>
<polygon fill="#191970" stroke="#191970" points="133.5456,-21.8583 142.9952,-17.0673 132.6203,-14.9197 133.5456,-21.8583"/>
</g>
</g>
</svg>
