<?xml version="1.0" encoding="UTF-8" standalone="no"?>
<!DOCTYPE svg PUBLIC "-//W3C//DTD SVG 1.1//EN"
 "http://www.w3.org/Graphics/SVG/1.1/DTD/svg11.dtd">
<!-- Generated by graphviz version 2.40.1 (20161225.0304)
 -->
<!-- Title: chi::Subprocess::setArguments Pages: 1 -->
<svg width="833pt" height="238pt"
 viewBox="0.00 0.00 833.00 238.00" xmlns="http://www.w3.org/2000/svg" xmlns:xlink="http://www.w3.org/1999/xlink">
<g id="graph0" class="graph" transform="scale(1 1) rotate(0) translate(4 234)">
<title>chi::Subprocess::setArguments</title>
<polygon fill="#ffffff" stroke="transparent" points="-4,4 -4,-234 829,-234 829,4 -4,4"/>
<!-- Node218 -->
<g id="node1" class="node">
<title>Node218</title>
<polygon fill="#bfbfbf" stroke="#000000" points="0,-133.5 0,-152.5 154,-152.5 154,-133.5 0,-133.5"/>
<text text-anchor="middle" x="77" y="-140.5" font-family="Helvetica,sans-Serif" font-size="10.00" fill="#000000">chi::Subprocess::setArguments</text>
</g>
<!-- Node219 -->
<g id="node2" class="node">
<title>Node219</title>
<g id="a_node2"><a xlink:href="structchi_1_1Subprocess.html#a9b2f4ecd9a0239232deaf3ff46c48bf0" target="_top" xlink:title="Check if the child has started (start() has been called) ">
<polygon fill="#ffffff" stroke="#000000" points="190,-133.5 190,-152.5 313,-152.5 313,-133.5 190,-133.5"/>
<text text-anchor="middle" x="251.5" y="-140.5" font-family="Helvetica,sans-Serif" font-size="10.00" fill="#000000">chi::Subprocess::started</text>
</a>
</g>
</g>
<!-- Node218&#45;&gt;Node219 -->
<g id="edge1" class="edge">
<title>Node218&#45;&gt;Node219</title>
<path fill="none" stroke="#191970" d="M154.0462,-143C162.5493,-143 171.1835,-143 179.6198,-143"/>
<polygon fill="#191970" stroke="#191970" points="179.7899,-146.5001 189.7898,-143 179.7898,-139.5001 179.7899,-146.5001"/>
</g>
<!-- Node220 -->
<g id="node3" class="node">
<title>Node220</title>
<g id="a_node3"><a xlink:href="structchi_1_1Subprocess.html#a62114d525126e682028af5a906f771a6" target="_top" xlink:title="Pushes data to the stdin stream of the child process. ">
<polygon fill="#ffffff" stroke="#000000" points="349,-133.5 349,-152.5 498,-152.5 498,-133.5 349,-133.5"/>
<text text-anchor="middle" x="423.5" y="-140.5" font-family="Helvetica,sans-Serif" font-size="10.00" fill="#000000">chi::Subprocess::pushToStdIn</text>
</a>
</g>
</g>
<!-- Node219&#45;&gt;Node220 -->
<g id="edge2" class="edge">
<title>Node219&#45;&gt;Node220</title>
<path fill="none" stroke="#191970" d="M313.1101,-136.4973C321.4241,-136.3244 330.0696,-136.2422 338.699,-136.2506"/>
<polygon fill="#191970" stroke="#191970" points="338.7831,-139.751 348.8009,-136.3021 338.8189,-132.7511 338.7831,-139.751"/>
</g>
<!-- Node228 -->
<g id="node11" class="node">
<title>Node228</title>
<g id="a_node11"><a xlink:href="structchi_1_1Subprocess.html#a45fd483d620609100cdd6065ce4751f2" target="_top" xlink:title="Close the STDIN stream (send an EOF) ">
<polygon fill="#ffffff" stroke="#000000" points="353.5,-95.5 353.5,-114.5 493.5,-114.5 493.5,-95.5 353.5,-95.5"/>
<text text-anchor="middle" x="423.5" y="-102.5" font-family="Helvetica,sans-Serif" font-size="10.00" fill="#000000">chi::Subprocess::closeStdIn</text>
</a>
</g>
</g>
<!-- Node219&#45;&gt;Node228 -->
<g id="edge15" class="edge">
<title>Node219&#45;&gt;Node228</title>
<path fill="none" stroke="#191970" d="M294.9029,-133.411C317.9068,-128.3287 346.3509,-122.0446 370.6342,-116.6797"/>
<polygon fill="#191970" stroke="#191970" points="371.3998,-120.095 380.4092,-114.5201 369.8896,-113.2598 371.3998,-120.095"/>
</g>
<!-- Node220&#45;&gt;Node219 -->
<g id="edge14" class="edge">
<title>Node220&#45;&gt;Node219</title>
<path fill="none" stroke="#191970" d="M348.8009,-149.6979C340.3304,-149.7764 331.7111,-149.7662 323.2794,-149.6673"/>
<polygon fill="#191970" stroke="#191970" points="323.1655,-146.1651 313.1101,-149.5027 323.0521,-153.1642 323.1655,-146.1651"/>
</g>
<!-- Node221 -->
<g id="node4" class="node">
<title>Node221</title>
<g id="a_node4"><a xlink:href="structchi_1_1Result.html#a59ef40f4a327cbdea263d6e4b5af2ad8" target="_top" xlink:title="Add a entry to the result, either a warning or an error. ">
<polygon fill="#ffffff" stroke="#000000" points="542,-95.5 542,-114.5 650,-114.5 650,-95.5 542,-95.5"/>
<text text-anchor="middle" x="596" y="-102.5" font-family="Helvetica,sans-Serif" font-size="10.00" fill="#000000">chi::Result::addEntry</text>
</a>
</g>
</g>
<!-- Node220&#45;&gt;Node221 -->
<g id="edge3" class="edge">
<title>Node220&#45;&gt;Node221</title>
<path fill="none" stroke="#191970" d="M467.029,-133.411C490.0999,-128.3287 518.6266,-122.0446 542.9805,-116.6797"/>
<polygon fill="#191970" stroke="#191970" points="543.7711,-120.0895 552.784,-114.5201 542.2651,-113.2534 543.7711,-120.0895"/>
</g>
<!-- Node223 -->
<g id="node6" class="node">
<title>Node223</title>
<g id="a_node6"><a xlink:href="structchi_1_1Subprocess.html#a9497b25fd496cd7a0ad464dfeb6e242d" target="_top" xlink:title="Checks if the stdin is closed. ">
<polygon fill="#ffffff" stroke="#000000" points="534,-134 534,-164 658,-164 658,-134 534,-134"/>
<text text-anchor="start" x="542" y="-152" font-family="Helvetica,sans-Serif" font-size="10.00" fill="#000000">chi::Subprocess::isStdIn</text>
<text text-anchor="middle" x="596" y="-141" font-family="Helvetica,sans-Serif" font-size="10.00" fill="#000000">Closed</text>
</a>
</g>
</g>
<!-- Node220&#45;&gt;Node223 -->
<g id="edge5" class="edge">
<title>Node220&#45;&gt;Node223</title>
<path fill="none" stroke="#191970" d="M498.1577,-145.5968C506.6379,-145.8918 515.2704,-146.192 523.7192,-146.4859"/>
<polygon fill="#191970" stroke="#191970" points="523.7954,-149.9906 533.9111,-146.8404 524.0388,-142.9948 523.7954,-149.9906"/>
</g>
<!-- Node222 -->
<g id="node5" class="node">
<title>Node222</title>
<g id="a_node5"><a xlink:href="structchi_1_1Result.html#aa078d3cb3dfb2fb63e81b71acea036e0" target="_top" xlink:title="Get the JSON associated with the context that&#39;s been added. ">
<polygon fill="#ffffff" stroke="#000000" points="698.5,-95.5 698.5,-114.5 820.5,-114.5 820.5,-95.5 698.5,-95.5"/>
<text text-anchor="middle" x="759.5" y="-102.5" font-family="Helvetica,sans-Serif" font-size="10.00" fill="#000000">chi::Result::contextJson</text>
</a>
</g>
</g>
<!-- Node221&#45;&gt;Node222 -->
<g id="edge4" class="edge">
<title>Node221&#45;&gt;Node222</title>
<path fill="none" stroke="#191970" d="M650.4431,-105C662.5376,-105 675.533,-105 688.1891,-105"/>
<polygon fill="#191970" stroke="#191970" points="688.2426,-108.5001 698.2425,-105 688.2425,-101.5001 688.2426,-108.5001"/>
</g>
<!-- Node224 -->
<g id="node7" class="node">
<title>Node224</title>
<g id="a_node7"><a xlink:href="structchi_1_1Subprocess.html#a2f57bcbe46b93798d8ca769dc7aab4c9" target="_top" xlink:title="Wait and gets the exit code. ">
<polygon fill="#ffffff" stroke="#000000" points="694,-210.5 694,-229.5 825,-229.5 825,-210.5 694,-210.5"/>
<text text-anchor="middle" x="759.5" y="-217.5" font-family="Helvetica,sans-Serif" font-size="10.00" fill="#000000">chi::Subprocess::exitCode</text>
</a>
</g>
</g>
<!-- Node223&#45;&gt;Node224 -->
<g id="edge6" class="edge">
<title>Node223&#45;&gt;Node224</title>
<path fill="none" stroke="#191970" d="M630.6741,-164.0573C659.5191,-176.5832 700.2258,-194.2601 728.1167,-206.3718"/>
<polygon fill="#191970" stroke="#191970" points="726.8406,-209.6333 737.4072,-210.4062 729.6288,-203.2126 726.8406,-209.6333"/>
</g>
<!-- Node225 -->
<g id="node8" class="node">
<title>Node225</title>
<g id="a_node8"><a xlink:href="structchi_1_1Subprocess.html#aaaf29ada876d6088621cc0d8c84c7e47" target="_top" xlink:title="Kill the child process On POSIX, this sends SIGINT. ">
<polygon fill="#ffffff" stroke="#000000" points="707,-150.5 707,-169.5 812,-169.5 812,-150.5 707,-150.5"/>
<text text-anchor="middle" x="759.5" y="-157.5" font-family="Helvetica,sans-Serif" font-size="10.00" fill="#000000">chi::Subprocess::kill</text>
</a>
</g>
</g>
<!-- Node223&#45;&gt;Node225 -->
<g id="edge8" class="edge">
<title>Node223&#45;&gt;Node225</title>
<path fill="none" stroke="#191970" d="M658.2788,-153.19C670.9538,-154.0428 684.292,-154.9401 696.9756,-155.7935"/>
<polygon fill="#191970" stroke="#191970" points="696.7696,-159.2874 706.9821,-156.4667 697.2396,-152.3032 696.7696,-159.2874"/>
</g>
<!-- Node226 -->
<g id="node9" class="node">
<title>Node226</title>
<g id="a_node9"><a xlink:href="structchi_1_1Subprocess.html#ab07c04b4c4ef24cde067e11faf0837ce" target="_top" xlink:title="Check if the process is still running. ">
<polygon fill="#ffffff" stroke="#000000" points="697,-57.5 697,-76.5 822,-76.5 822,-57.5 697,-57.5"/>
<text text-anchor="middle" x="759.5" y="-64.5" font-family="Helvetica,sans-Serif" font-size="10.00" fill="#000000">chi::Subprocess::running</text>
</a>
</g>
</g>
<!-- Node223&#45;&gt;Node226 -->
<g id="edge10" class="edge">
<title>Node223&#45;&gt;Node226</title>
<path fill="none" stroke="#191970" d="M640.2354,-133.9164C646.4253,-131.0284 652.532,-127.7236 658,-124 677.2292,-110.9052 674.1346,-98.1079 694,-86 697.428,-83.9106 701.097,-82.0414 704.883,-80.3707"/>
<polygon fill="#191970" stroke="#191970" points="706.4318,-83.5229 714.4642,-76.6142 703.8766,-77.0059 706.4318,-83.5229"/>
</g>
<!-- Node227 -->
<g id="node10" class="node">
<title>Node227</title>
<g id="a_node10"><a xlink:href="structchi_1_1Subprocess.html#aeea9178c987445e45d97e4d4210a983c" target="_top" xlink:title="Wait for the process to complete. ">
<polygon fill="#ffffff" stroke="#000000" points="704.5,-.5 704.5,-19.5 814.5,-19.5 814.5,-.5 704.5,-.5"/>
<text text-anchor="middle" x="759.5" y="-7.5" font-family="Helvetica,sans-Serif" font-size="10.00" fill="#000000">chi::Subprocess::wait</text>
</a>
</g>
</g>
<!-- Node223&#45;&gt;Node227 -->
<g id="edge12" class="edge">
<title>Node223&#45;&gt;Node227</title>
<path fill="none" stroke="#191970" d="M644.2498,-133.8747C649.2328,-131.0882 653.9461,-127.8211 658,-124 685.1978,-98.3637 668.6951,-75.5064 694,-48 702.9704,-38.2492 715.0292,-30.2864 726.3545,-24.2151"/>
<polygon fill="#191970" stroke="#191970" points="728.2483,-27.1805 735.6113,-19.5623 725.1046,-20.9261 728.2483,-27.1805"/>
</g>
<!-- Node224&#45;&gt;Node219 -->
<g id="edge7" class="edge">
<title>Node224&#45;&gt;Node219</title>
<path fill="none" stroke="#191970" d="M693.8168,-220.0867C611.9298,-218.8314 468.2132,-212.1234 349,-183 324.5204,-177.0197 298.1596,-165.8962 279.0274,-156.8946"/>
<polygon fill="#191970" stroke="#191970" points="280.5221,-153.7297 269.9932,-152.5489 277.4876,-160.0379 280.5221,-153.7297"/>
</g>
<!-- Node225&#45;&gt;Node219 -->
<g id="edge9" class="edge">
<title>Node225&#45;&gt;Node219</title>
<path fill="none" stroke="#191970" d="M706.9616,-168.6427C691.2586,-170.8479 673.9719,-172.9037 658,-174 520.8858,-183.4116 485.3017,-179.628 349,-162 334.27,-160.095 318.4158,-157.3213 303.8611,-154.479"/>
<polygon fill="#191970" stroke="#191970" points="304.5145,-151.0404 294.0221,-152.5102 303.1409,-157.9044 304.5145,-151.0404"/>
</g>
<!-- Node226&#45;&gt;Node219 -->
<g id="edge11" class="edge">
<title>Node226&#45;&gt;Node219</title>
<path fill="none" stroke="#191970" d="M696.8676,-59.9612C614.7908,-52.9512 467.378,-48.0369 349,-86 320.3096,-95.2009 290.9327,-113.8932 272.0307,-127.3674"/>
<polygon fill="#191970" stroke="#191970" points="269.894,-124.5938 263.8826,-133.3181 274.0225,-130.2468 269.894,-124.5938"/>
</g>
<!-- Node227&#45;&gt;Node219 -->
<g id="edge13" class="edge">
<title>Node227&#45;&gt;Node219</title>
<path fill="none" stroke="#191970" d="M704.2548,-5.6118C622.7174,-1.3853 467.0709,-2.0307 349,-55 313.5024,-70.925 282.0112,-104.7139 264.9549,-125.4796"/>
<polygon fill="#191970" stroke="#191970" points="262.0624,-123.4929 258.5592,-133.4918 267.5332,-127.8599 262.0624,-123.4929"/>
</g>
<!-- Node228&#45;&gt;Node221 -->
<g id="edge16" class="edge">
<title>Node228&#45;&gt;Node221</title>
<path fill="none" stroke="#191970" d="M493.6624,-105C506.1964,-105 519.2004,-105 531.5642,-105"/>
<polygon fill="#191970" stroke="#191970" points="531.775,-108.5001 541.775,-105 531.7749,-101.5001 531.775,-108.5001"/>
</g>
<!-- Node228&#45;&gt;Node223 -->
<g id="edge17" class="edge">
<title>Node228&#45;&gt;Node223</title>
<path fill="none" stroke="#191970" d="M460.9299,-114.5473C480.2647,-119.4791 504.4799,-125.6558 527.0475,-131.4121"/>
<polygon fill="#191970" stroke="#191970" points="526.3821,-134.8544 536.9369,-133.9346 528.1123,-128.0716 526.3821,-134.8544"/>
</g>
<!-- Node228&#45;&gt;Node226 -->
<g id="edge18" class="edge">
<title>Node228&#45;&gt;Node226</title>
<path fill="none" stroke="#191970" d="M473.4195,-95.477C492.3403,-92.1152 514.1124,-88.5428 534,-86 584.7971,-79.5051 642.3269,-74.6984 686.564,-71.5446"/>
<polygon fill="#191970" stroke="#191970" points="686.9193,-75.0284 696.6501,-70.8376 686.4298,-68.0455 686.9193,-75.0284"/>
</g>
</g>
</svg>
