<?xml version="1.0" encoding="UTF-8" standalone="no"?>
<!DOCTYPE svg PUBLIC "-//W3C//DTD SVG 1.1//EN"
 "http://www.w3.org/Graphics/SVG/1.1/DTD/svg11.dtd">
<!-- Generated by graphviz version 2.40.1 (20161225.0304)
 -->
<!-- Title: chi::Context::workspacePath Pages: 1 -->
<svg width="2266pt" height="420pt"
 viewBox="0.00 0.00 2266.00 420.00" xmlns="http://www.w3.org/2000/svg" xmlns:xlink="http://www.w3.org/1999/xlink">
<g id="graph0" class="graph" transform="scale(1 1) rotate(0) translate(4 416)">
<title>chi::Context::workspacePath</title>
<polygon fill="#ffffff" stroke="transparent" points="-4,4 -4,-416 2262,-416 2262,4 -4,4"/>
<!-- Node521 -->
<g id="node1" class="node">
<title>Node521</title>
<polygon fill="#bfbfbf" stroke="#000000" points="0,-152.5 0,-171.5 142,-171.5 142,-152.5 0,-152.5"/>
<text text-anchor="middle" x="71" y="-159.5" font-family="Helvetica,sans-Serif" font-size="10.00" fill="#000000">chi::Context::workspacePath</text>
</g>
<!-- Node522 -->
<g id="node2" class="node">
<title>Node522</title>
<g id="a_node2"><a xlink:href="structchi_1_1DefaultModuleCache.html#a6088e4753cdc1233ae29f6513999e59d" target="_top" xlink:title="Get the cache name for a module. ">
<polygon fill="#ffffff" stroke="#000000" points="179.5,-273 179.5,-303 304.5,-303 304.5,-273 179.5,-273"/>
<text text-anchor="start" x="187.5" y="-291" font-family="Helvetica,sans-Serif" font-size="10.00" fill="#000000">chi::DefaultModuleCache</text>
<text text-anchor="middle" x="242" y="-280" font-family="Helvetica,sans-Serif" font-size="10.00" fill="#000000">::cachePathForModule</text>
</a>
</g>
</g>
<!-- Node521&#45;&gt;Node522 -->
<g id="edge1" class="edge">
<title>Node521&#45;&gt;Node522</title>
<path fill="none" stroke="#191970" d="M92.245,-177.6542C125.3827,-202.0714 188.9508,-248.9112 221.577,-272.9515"/>
<polygon fill="#191970" stroke="#191970" points="94.2609,-174.7921 84.1341,-171.6778 90.1085,-180.4275 94.2609,-174.7921"/>
</g>
<!-- Node527 -->
<g id="node7" class="node">
<title>Node527</title>
<g id="a_node7"><a xlink:href="namespacechi.html#a4489e333fecc4168278e94f8b3f81e3c" target="_top" xlink:title="Load a GraphModule from json. ">
<polygon fill="#ffffff" stroke="#000000" points="181,-190.5 181,-209.5 303,-209.5 303,-190.5 181,-190.5"/>
<text text-anchor="middle" x="242" y="-197.5" font-family="Helvetica,sans-Serif" font-size="10.00" fill="#000000">chi::jsonToGraphModule</text>
</a>
</g>
</g>
<!-- Node521&#45;&gt;Node527 -->
<g id="edge7" class="edge">
<title>Node521&#45;&gt;Node527</title>
<path fill="none" stroke="#191970" d="M124.2092,-173.8243C148.3172,-179.1816 176.4401,-185.4311 199.1598,-190.4799"/>
<polygon fill="#191970" stroke="#191970" points="124.6717,-170.3417 114.1505,-171.589 123.1531,-177.175 124.6717,-170.3417"/>
</g>
<!-- Node529 -->
<g id="node9" class="node">
<title>Node529</title>
<g id="a_node9"><a xlink:href="structchi_1_1Context.html#a844bdec56838399cb4d7a5f7ea223834" target="_top" xlink:title="Load a module from disk, also loads dependencies. ">
<polygon fill="#ffffff" stroke="#000000" points="544.5,-192.5 544.5,-211.5 669.5,-211.5 669.5,-192.5 544.5,-192.5"/>
<text text-anchor="middle" x="607" y="-199.5" font-family="Helvetica,sans-Serif" font-size="10.00" fill="#000000">chi::Context::loadModule</text>
</a>
</g>
</g>
<!-- Node521&#45;&gt;Node529 -->
<g id="edge17" class="edge">
<title>Node521&#45;&gt;Node529</title>
<path fill="none" stroke="#191970" d="M152.2583,-161.5244C240.2662,-161.9421 384.6262,-165.3424 508,-181 528.3932,-183.5881 550.8247,-188.197 569.1715,-192.4389"/>
<polygon fill="#191970" stroke="#191970" points="152.0868,-158.0239 142.0744,-161.4882 152.0619,-165.0238 152.0868,-158.0239"/>
</g>
<!-- Node536 -->
<g id="node16" class="node">
<title>Node536</title>
<g id="a_node16"><a xlink:href="structchi_1_1Context.html#a8a16da32d939654600ac50084381e054" target="_top" xlink:title="Get the list of modules in the workspace. ">
<polygon fill="#ffffff" stroke="#000000" points="179.5,-53 179.5,-83 304.5,-83 304.5,-53 179.5,-53"/>
<text text-anchor="start" x="187.5" y="-71" font-family="Helvetica,sans-Serif" font-size="10.00" fill="#000000">chi::Context::listModules</text>
<text text-anchor="middle" x="242" y="-60" font-family="Helvetica,sans-Serif" font-size="10.00" fill="#000000">InWorkspace</text>
</a>
</g>
</g>
<!-- Node521&#45;&gt;Node536 -->
<g id="edge16" class="edge">
<title>Node521&#45;&gt;Node536</title>
<path fill="none" stroke="#191970" d="M91.7853,-146.41C112.7595,-131.1666 146.4669,-107.98 178,-92 184.351,-88.7815 191.2406,-85.7533 198.0675,-83.003"/>
<polygon fill="#191970" stroke="#191970" points="89.6039,-143.6696 83.6194,-152.4124 93.7498,-149.3098 89.6039,-143.6696"/>
</g>
<!-- Node537 -->
<g id="node17" class="node">
<title>Node537</title>
<g id="a_node17"><a xlink:href="structchi_1_1GraphModule.html#a1c1a23b9aa7967948e97dc9650099188" target="_top" xlink:title="Get the path to the source file It&#39;s not garunteed to exist, because it could have not been saved...">
<polygon fill="#ffffff" stroke="#000000" points="178,-102 178,-132 306,-132 306,-102 178,-102"/>
<text text-anchor="start" x="186" y="-120" font-family="Helvetica,sans-Serif" font-size="10.00" fill="#000000">chi::GraphModule::source</text>
<text text-anchor="middle" x="242" y="-109" font-family="Helvetica,sans-Serif" font-size="10.00" fill="#000000">FilePath</text>
</a>
</g>
</g>
<!-- Node521&#45;&gt;Node537 -->
<g id="edge18" class="edge">
<title>Node521&#45;&gt;Node537</title>
<path fill="none" stroke="#191970" d="M117.1587,-149.853C138.0285,-144.3609 162.8975,-137.8165 184.9258,-132.0195"/>
<polygon fill="#191970" stroke="#191970" points="116.0447,-146.5269 107.2647,-152.4567 117.8262,-153.2964 116.0447,-146.5269"/>
</g>
<!-- Node523 -->
<g id="node3" class="node">
<title>Node523</title>
<g id="a_node3"><a xlink:href="structchi_1_1DefaultModuleCache.html#a5b638a834c434c103ebc5c0d3a70d021" target="_top" xlink:title="Cache a module. ">
<polygon fill="#ffffff" stroke="#000000" points="362.5,-229 362.5,-259 487.5,-259 487.5,-229 362.5,-229"/>
<text text-anchor="start" x="370.5" y="-247" font-family="Helvetica,sans-Serif" font-size="10.00" fill="#000000">chi::DefaultModuleCache</text>
<text text-anchor="middle" x="425" y="-236" font-family="Helvetica,sans-Serif" font-size="10.00" fill="#000000">::cacheModule</text>
</a>
</g>
</g>
<!-- Node522&#45;&gt;Node523 -->
<g id="edge2" class="edge">
<title>Node522&#45;&gt;Node523</title>
<path fill="none" stroke="#191970" d="M314.2721,-270.6231C330.2195,-266.7888 346.9831,-262.7582 362.5046,-259.0262"/>
<polygon fill="#191970" stroke="#191970" points="313.3711,-267.2399 304.4664,-272.9808 315.0075,-274.046 313.3711,-267.2399"/>
</g>
<!-- Node524 -->
<g id="node4" class="node">
<title>Node524</title>
<g id="a_node4"><a xlink:href="structchi_1_1DefaultModuleCache.html#a3b4f579458e59863f464f0b28e22ac10" target="_top" xlink:title="chi::DefaultModuleCache\l::invalidateCache">
<polygon fill="#ffffff" stroke="#000000" points="362.5,-366 362.5,-396 487.5,-396 487.5,-366 362.5,-366"/>
<text text-anchor="start" x="370.5" y="-384" font-family="Helvetica,sans-Serif" font-size="10.00" fill="#000000">chi::DefaultModuleCache</text>
<text text-anchor="middle" x="425" y="-373" font-family="Helvetica,sans-Serif" font-size="10.00" fill="#000000">::invalidateCache</text>
</a>
</g>
</g>
<!-- Node522&#45;&gt;Node524 -->
<g id="edge3" class="edge">
<title>Node522&#45;&gt;Node524</title>
<path fill="none" stroke="#191970" d="M268.0917,-309.5112C287.474,-324.5883 315.1042,-344.2481 342,-357 349.048,-360.3416 356.6573,-363.3159 364.3091,-365.9343"/>
<polygon fill="#191970" stroke="#191970" points="270.0722,-306.6152 260.058,-303.1561 265.7294,-312.1052 270.0722,-306.6152"/>
</g>
<!-- Node525 -->
<g id="node5" class="node">
<title>Node525</title>
<g id="a_node5"><a xlink:href="structchi_1_1DefaultModuleCache.html#a550d8acf4e89a39d9399c0f512ac04f3" target="_top" xlink:title="Get the time that a cache was updated. ">
<polygon fill="#ffffff" stroke="#000000" points="362.5,-317 362.5,-347 487.5,-347 487.5,-317 362.5,-317"/>
<text text-anchor="start" x="370.5" y="-335" font-family="Helvetica,sans-Serif" font-size="10.00" fill="#000000">chi::DefaultModuleCache</text>
<text text-anchor="middle" x="425" y="-324" font-family="Helvetica,sans-Serif" font-size="10.00" fill="#000000">::cacheUpdateTime</text>
</a>
</g>
</g>
<!-- Node522&#45;&gt;Node525 -->
<g id="edge4" class="edge">
<title>Node522&#45;&gt;Node525</title>
<path fill="none" stroke="#191970" d="M314.2721,-305.3769C330.2195,-309.2112 346.9831,-313.2418 362.5046,-316.9738"/>
<polygon fill="#191970" stroke="#191970" points="315.0075,-301.954 304.4664,-303.0192 313.3711,-308.7601 315.0075,-301.954"/>
</g>
<!-- Node526 -->
<g id="node6" class="node">
<title>Node526</title>
<g id="a_node6"><a xlink:href="structchi_1_1DefaultModuleCache.html#a0ed6e8d3f71ca9e215d3564d5beb46c9" target="_top" xlink:title="Retrieve a module from the cache. ">
<polygon fill="#ffffff" stroke="#000000" points="544.5,-295 544.5,-325 669.5,-325 669.5,-295 544.5,-295"/>
<text text-anchor="start" x="552.5" y="-313" font-family="Helvetica,sans-Serif" font-size="10.00" fill="#000000">chi::DefaultModuleCache</text>
<text text-anchor="middle" x="607" y="-302" font-family="Helvetica,sans-Serif" font-size="10.00" fill="#000000">::retrieveFromCache</text>
</a>
</g>
</g>
<!-- Node522&#45;&gt;Node526 -->
<g id="edge6" class="edge">
<title>Node522&#45;&gt;Node526</title>
<path fill="none" stroke="#191970" d="M314.836,-292.3901C382.0326,-296.4403 480.7555,-302.3907 544.4634,-306.2307"/>
<polygon fill="#191970" stroke="#191970" points="314.9382,-288.89 304.7457,-291.7819 314.517,-295.8773 314.9382,-288.89"/>
</g>
<!-- Node525&#45;&gt;Node526 -->
<g id="edge5" class="edge">
<title>Node525&#45;&gt;Node526</title>
<path fill="none" stroke="#191970" d="M497.6455,-323.2187C513.071,-321.3541 529.2306,-319.4007 544.2505,-317.5851"/>
<polygon fill="#191970" stroke="#191970" points="497.1418,-319.754 487.6341,-324.4288 497.9819,-326.7034 497.1418,-319.754"/>
</g>
<!-- Node528 -->
<g id="node8" class="node">
<title>Node528</title>
<g id="a_node8"><a xlink:href="structchi_1_1Context.html#a2db103f3a2f77710dfa51489f63ec97f" target="_top" xlink:title="Load a module from JSON – avoid this use the string overload. ">
<polygon fill="#ffffff" stroke="#000000" points="342,-190.5 342,-209.5 508,-209.5 508,-190.5 342,-190.5"/>
<text text-anchor="middle" x="425" y="-197.5" font-family="Helvetica,sans-Serif" font-size="10.00" fill="#000000">chi::Context::addModuleFromJson</text>
</a>
</g>
</g>
<!-- Node527&#45;&gt;Node528 -->
<g id="edge8" class="edge">
<title>Node527&#45;&gt;Node528</title>
<path fill="none" stroke="#191970" d="M313.2003,-200C322.5508,-200 332.1991,-200 341.7274,-200"/>
<polygon fill="#191970" stroke="#191970" points="313.1908,-196.5001 303.1908,-200 313.1907,-203.5001 313.1908,-196.5001"/>
</g>
<!-- Node528&#45;&gt;Node529 -->
<g id="edge9" class="edge">
<title>Node528&#45;&gt;Node529</title>
<path fill="none" stroke="#191970" d="M518.0339,-201.0224C526.9176,-201.12 535.7753,-201.2173 544.2684,-201.3106"/>
<polygon fill="#191970" stroke="#191970" points="518.049,-197.5224 508.0111,-200.9122 517.972,-204.522 518.049,-197.5224"/>
</g>
<!-- Node530 -->
<g id="node10" class="node">
<title>Node530</title>
<g id="a_node10"><a xlink:href="structchi_1_1ChiModule.html#a61a5581c1a0a6467a24edde9eaaa60e0" target="_top" xlink:title="Add a dependency to the module Loads the module from context() if it isn&#39;t already loaded...">
<polygon fill="#ffffff" stroke="#000000" points="706,-354.5 706,-373.5 863,-373.5 863,-354.5 706,-354.5"/>
<text text-anchor="middle" x="784.5" y="-361.5" font-family="Helvetica,sans-Serif" font-size="10.00" fill="#000000">chi::ChiModule::addDependency</text>
</a>
</g>
</g>
<!-- Node529&#45;&gt;Node530 -->
<g id="edge10" class="edge">
<title>Node529&#45;&gt;Node530</title>
<path fill="none" stroke="#191970" d="M625.0846,-218.5054C661.8394,-252.0506 744.2748,-327.2874 773.7591,-354.197"/>
<polygon fill="#191970" stroke="#191970" points="627.3175,-215.8048 617.5719,-211.6487 622.5987,-220.9751 627.3175,-215.8048"/>
</g>
<!-- Node531 -->
<g id="node11" class="node">
<title>Node531</title>
<g id="a_node11"><a xlink:href="structchi_1_1ChiModule.html#a9c0d4b1b54bca0194ea4061ae4883779" target="_top" xlink:title="Get the dependencies. ">
<polygon fill="#ffffff" stroke="#000000" points="904,-354.5 904,-373.5 1051,-373.5 1051,-354.5 904,-354.5"/>
<text text-anchor="middle" x="977.5" y="-361.5" font-family="Helvetica,sans-Serif" font-size="10.00" fill="#000000">chi::ChiModule::dependencies</text>
</a>
</g>
</g>
<!-- Node530&#45;&gt;Node531 -->
<g id="edge11" class="edge">
<title>Node530&#45;&gt;Node531</title>
<path fill="none" stroke="#191970" d="M873.1712,-364C883.3983,-364 893.7436,-364 903.7433,-364"/>
<polygon fill="#191970" stroke="#191970" points="873.0005,-360.5001 863.0005,-364 873.0005,-367.5001 873.0005,-360.5001"/>
</g>
<!-- Node535 -->
<g id="node15" class="node">
<title>Node535</title>
<g id="a_node15"><a xlink:href="structchi_1_1GraphModule.html#adeeeec5c69812ddeb43a64d3009a4eda" target="_top" xlink:title="Construct a GraphModule. ">
<polygon fill="#ffffff" stroke="#000000" points="899,-392.5 899,-411.5 1056,-411.5 1056,-392.5 899,-392.5"/>
<text text-anchor="middle" x="977.5" y="-399.5" font-family="Helvetica,sans-Serif" font-size="10.00" fill="#000000">chi::GraphModule::GraphModule</text>
</a>
</g>
</g>
<!-- Node530&#45;&gt;Node535 -->
<g id="edge15" class="edge">
<title>Node530&#45;&gt;Node535</title>
<path fill="none" stroke="#191970" d="M843.1016,-375.5381C870.6289,-380.958 903.0476,-387.341 929.1482,-392.4799"/>
<polygon fill="#191970" stroke="#191970" points="843.6898,-372.0868 833.202,-373.589 842.3375,-378.955 843.6898,-372.0868"/>
</g>
<!-- Node532 -->
<g id="node12" class="node">
<title>Node532</title>
<g id="a_node12"><a xlink:href="structchi_1_1Context.html#ae21e68cd2d6ec6a8d6923fa330b36827" target="_top" xlink:title="Compile a module to a llvm::Module. ">
<polygon fill="#ffffff" stroke="#000000" points="1092,-392.5 1092,-411.5 1232,-411.5 1232,-392.5 1092,-392.5"/>
<text text-anchor="middle" x="1162" y="-399.5" font-family="Helvetica,sans-Serif" font-size="10.00" fill="#000000">chi::Context::compileModule</text>
</a>
</g>
</g>
<!-- Node531&#45;&gt;Node532 -->
<g id="edge12" class="edge">
<title>Node531&#45;&gt;Node532</title>
<path fill="none" stroke="#191970" d="M1033.8672,-375.6095C1060.1074,-381.014 1090.936,-387.3635 1115.7776,-392.4799"/>
<polygon fill="#191970" stroke="#191970" points="1034.5576,-372.1783 1024.0571,-373.589 1033.1455,-379.0344 1034.5576,-372.1783"/>
</g>
<!-- Node533 -->
<g id="node13" class="node">
<title>Node533</title>
<g id="a_node13"><a xlink:href="namespacechi.html#a9a4f3fa54c612f0c559a353bb7382d5a" target="_top" xlink:title="Serialize a JsonModule to json. ">
<polygon fill="#ffffff" stroke="#000000" points="1948,-278.5 1948,-297.5 2071,-297.5 2071,-278.5 1948,-278.5"/>
<text text-anchor="middle" x="2009.5" y="-285.5" font-family="Helvetica,sans-Serif" font-size="10.00" fill="#000000">chi::graphModuleToJson</text>
</a>
</g>
</g>
<!-- Node531&#45;&gt;Node533 -->
<g id="edge13" class="edge">
<title>Node531&#45;&gt;Node533</title>
<path fill="none" stroke="#191970" d="M1061.4945,-364C1133.0153,-364 1238.5011,-364 1330.5,-364 1330.5,-364 1330.5,-364 1663.5,-364 1774.4583,-364 1805.7743,-372.0603 1912,-340 1943.9565,-330.3551 1977.5147,-309.7986 1995.7342,-297.6191"/>
<polygon fill="#191970" stroke="#191970" points="1061.1944,-360.5001 1051.1944,-364 1061.1944,-367.5001 1061.1944,-360.5001"/>
</g>
<!-- Node534 -->
<g id="node14" class="node">
<title>Node534</title>
<g id="a_node14"><a xlink:href="structchi_1_1GraphModule.html#a5cd9fb1738336d5d382ebb50753bda3e" target="_top" xlink:title="Serialize to disk in the context. ">
<polygon fill="#ffffff" stroke="#000000" points="2107,-158.5 2107,-177.5 2258,-177.5 2258,-158.5 2107,-158.5"/>
<text text-anchor="middle" x="2182.5" y="-165.5" font-family="Helvetica,sans-Serif" font-size="10.00" fill="#000000">chi::GraphModule::saveToDisk</text>
</a>
</g>
</g>
<!-- Node533&#45;&gt;Node534 -->
<g id="edge14" class="edge">
<title>Node533&#45;&gt;Node534</title>
<path fill="none" stroke="#191970" d="M2031.7894,-272.5391C2068.0206,-247.4077 2138.647,-198.4183 2168.5691,-177.6631"/>
<polygon fill="#191970" stroke="#191970" points="2029.5868,-269.8073 2023.3649,-278.3827 2033.5765,-275.5591 2029.5868,-269.8073"/>
</g>
<!-- Node537&#45;&gt;Node534 -->
<g id="edge52" class="edge">
<title>Node537&#45;&gt;Node534</title>
<path fill="none" stroke="#191970" d="M299.8745,-99.1304C371.3233,-78.6859 496.9019,-48 607,-48 607,-48 607,-48 1838,-48 1971.9506,-48 2119.7107,-129.9072 2167.0329,-158.3827"/>
<polygon fill="#191970" stroke="#191970" points="298.7915,-95.8001 290.1593,-101.9429 300.7382,-102.524 298.7915,-95.8001"/>
</g>
<!-- Node538 -->
<g id="node18" class="node">
<title>Node538</title>
<g id="a_node18"><a xlink:href="structchi_1_1GraphModule.html#a10cfac308c6e0f1fa38be5513b2380cc" target="_top" xlink:title="Get the path to the .c directory. It is not garunteed to exist, even if cEnabled() is true...">
<polygon fill="#ffffff" stroke="#000000" points="360.5,-102 360.5,-132 489.5,-132 489.5,-102 360.5,-102"/>
<text text-anchor="start" x="368.5" y="-120" font-family="Helvetica,sans-Serif" font-size="10.00" fill="#000000">chi::GraphModule::pathTo</text>
<text text-anchor="middle" x="425" y="-109" font-family="Helvetica,sans-Serif" font-size="10.00" fill="#000000">CSources</text>
</a>
</g>
</g>
<!-- Node537&#45;&gt;Node538 -->
<g id="edge19" class="edge">
<title>Node537&#45;&gt;Node538</title>
<path fill="none" stroke="#191970" d="M316.0573,-117C330.75,-117 346.0658,-117 360.4127,-117"/>
<polygon fill="#191970" stroke="#191970" points="316.0046,-113.5001 306.0045,-117 316.0045,-120.5001 316.0046,-113.5001"/>
</g>
<!-- Node557 -->
<g id="node37" class="node">
<title>Node557</title>
<g id="a_node37"><a xlink:href="classchi_1_1Debugger.html#a91a4d103d38bb2b1132ec7f83f4d77e2" target="_top" xlink:title="Set a breakpoint on a given node. ">
<polygon fill="#ffffff" stroke="#000000" points="353.5,-.5 353.5,-19.5 496.5,-19.5 496.5,-.5 353.5,-.5"/>
<text text-anchor="middle" x="425" y="-7.5" font-family="Helvetica,sans-Serif" font-size="10.00" fill="#000000">chi::Debugger::setBreakpoint</text>
</a>
</g>
</g>
<!-- Node537&#45;&gt;Node557 -->
<g id="edge53" class="edge">
<title>Node537&#45;&gt;Node557</title>
<path fill="none" stroke="#191970" d="M299.6443,-96.7036C301.8634,-95.2348 303.9939,-93.6687 306,-92 329.3248,-72.5977 317.8176,-52.3223 342,-34 350.3691,-27.659 360.3671,-22.9913 370.4775,-19.5559"/>
<polygon fill="#191970" stroke="#191970" points="297.6033,-93.8418 290.7221,-101.8979 301.1252,-99.8913 297.6033,-93.8418"/>
</g>
<!-- Node539 -->
<g id="node19" class="node">
<title>Node539</title>
<g id="a_node19"><a xlink:href="structchi_1_1GraphModule.html#a9b73bbbfa91d6a2f92bcca270bdb7b2f" target="_top" xlink:title="Generate a llvm::Module from the module. ">
<polygon fill="#ffffff" stroke="#000000" points="909,-99 909,-129 1046,-129 1046,-99 909,-99"/>
<text text-anchor="start" x="917" y="-117" font-family="Helvetica,sans-Serif" font-size="10.00" fill="#000000">chi::GraphModule::generate</text>
<text text-anchor="middle" x="977.5" y="-106" font-family="Helvetica,sans-Serif" font-size="10.00" fill="#000000">Module</text>
</a>
</g>
</g>
<!-- Node538&#45;&gt;Node539 -->
<g id="edge20" class="edge">
<title>Node538&#45;&gt;Node539</title>
<path fill="none" stroke="#191970" d="M499.8671,-116.5935C607.5481,-116.0088 804.6191,-114.9387 908.776,-114.3732"/>
<polygon fill="#191970" stroke="#191970" points="499.7124,-113.0942 489.7315,-116.6485 499.7504,-120.0941 499.7124,-113.0942"/>
</g>
<!-- Node540 -->
<g id="node20" class="node">
<title>Node540</title>
<g id="a_node20"><a xlink:href="structchi_1_1GraphModule.html#a24162d01532244d8945128b71af5fc48" target="_top" xlink:title="From C code, create a NodeType. ">
<polygon fill="#ffffff" stroke="#000000" points="544,-143 544,-173 670,-173 670,-143 544,-143"/>
<text text-anchor="start" x="552" y="-161" font-family="Helvetica,sans-Serif" font-size="10.00" fill="#000000">chi::GraphModule::create</text>
<text text-anchor="middle" x="607" y="-150" font-family="Helvetica,sans-Serif" font-size="10.00" fill="#000000">NodeTypeFromCCode</text>
</a>
</g>
</g>
<!-- Node538&#45;&gt;Node540 -->
<g id="edge21" class="edge">
<title>Node538&#45;&gt;Node540</title>
<path fill="none" stroke="#191970" d="M499.6957,-133.8271C514.3267,-137.123 529.5389,-140.55 543.7523,-143.7519"/>
<polygon fill="#191970" stroke="#191970" points="500.2036,-130.3538 489.6788,-131.5705 498.6652,-137.1827 500.2036,-130.3538"/>
</g>
<!-- Node541 -->
<g id="node21" class="node">
<title>Node541</title>
<g id="a_node21"><a xlink:href="structchi_1_1GraphModule.html#ac251cc6b4242642f6601c8c3607f5747" target="_top" xlink:title="Gets if C support is enabled. ">
<polygon fill="#ffffff" stroke="#000000" points="714.5,-153.5 714.5,-172.5 854.5,-172.5 854.5,-153.5 714.5,-153.5"/>
<text text-anchor="middle" x="784.5" y="-160.5" font-family="Helvetica,sans-Serif" font-size="10.00" fill="#000000">chi::GraphModule::cEnabled</text>
</a>
</g>
</g>
<!-- Node540&#45;&gt;Node541 -->
<g id="edge22" class="edge">
<title>Node540&#45;&gt;Node541</title>
<path fill="none" stroke="#191970" d="M680.3085,-160.065C691.5751,-160.3824 703.1842,-160.7094 714.3792,-161.0248"/>
<polygon fill="#191970" stroke="#191970" points="680.1743,-156.56 670.0796,-159.7769 679.9771,-163.5572 680.1743,-156.56"/>
</g>
<!-- Node541&#45;&gt;Node533 -->
<g id="edge51" class="edge">
<title>Node541&#45;&gt;Node533</title>
<path fill="none" stroke="#191970" d="M804.8461,-178.9236C859.3589,-219.9369 1014.5836,-326 1162,-326 1162,-326 1162,-326 1663.5,-326 1767.5918,-326 1888.2512,-308.7963 1956.0578,-297.54"/>
<polygon fill="#191970" stroke="#191970" points="806.7708,-175.9898 796.697,-172.7083 802.5257,-181.5557 806.7708,-175.9898"/>
</g>
<!-- Node541&#45;&gt;Node539 -->
<g id="edge23" class="edge">
<title>Node541&#45;&gt;Node539</title>
<path fill="none" stroke="#191970" d="M832.1662,-150.8982C858.1864,-144.292 890.6388,-136.0529 918.2728,-129.037"/>
<polygon fill="#191970" stroke="#191970" points="831.0017,-147.5827 822.1705,-153.436 832.7243,-154.3675 831.0017,-147.5827"/>
</g>
<!-- Node542 -->
<g id="node22" class="node">
<title>Node542</title>
<g id="a_node22"><a xlink:href="structchi_1_1GraphModule.html#a133c0595e0bb888f958e9769838f6c0c" target="_top" xlink:title="Create a node type that is in the module from the name and json. ">
<polygon fill="#ffffff" stroke="#000000" points="906.5,-197 906.5,-227 1048.5,-227 1048.5,-197 906.5,-197"/>
<text text-anchor="start" x="914.5" y="-215" font-family="Helvetica,sans-Serif" font-size="10.00" fill="#000000">chi::GraphModule::nodeType</text>
<text text-anchor="middle" x="977.5" y="-204" font-family="Helvetica,sans-Serif" font-size="10.00" fill="#000000">FromName</text>
</a>
</g>
</g>
<!-- Node541&#45;&gt;Node542 -->
<g id="edge24" class="edge">
<title>Node541&#45;&gt;Node542</title>
<path fill="none" stroke="#191970" d="M832.1662,-175.1018C858.1864,-181.708 890.6388,-189.9471 918.2728,-196.963"/>
<polygon fill="#191970" stroke="#191970" points="832.7243,-171.6325 822.1705,-172.564 831.0017,-178.4173 832.7243,-171.6325"/>
</g>
<!-- Node556 -->
<g id="node36" class="node">
<title>Node556</title>
<g id="a_node36"><a xlink:href="structchi_1_1GraphModule.html#a53a1a284ab878783e74a957bb3b711b3" target="_top" xlink:title="Get the possible node type names. ">
<polygon fill="#ffffff" stroke="#000000" points="906.5,-148 906.5,-178 1048.5,-178 1048.5,-148 906.5,-148"/>
<text text-anchor="start" x="914.5" y="-166" font-family="Helvetica,sans-Serif" font-size="10.00" fill="#000000">chi::GraphModule::nodeType</text>
<text text-anchor="middle" x="977.5" y="-155" font-family="Helvetica,sans-Serif" font-size="10.00" fill="#000000">Names</text>
</a>
</g>
</g>
<!-- Node541&#45;&gt;Node556 -->
<g id="edge50" class="edge">
<title>Node541&#45;&gt;Node556</title>
<path fill="none" stroke="#191970" d="M865.0929,-163C878.7899,-163 892.9265,-163 906.3577,-163"/>
<polygon fill="#191970" stroke="#191970" points="864.7234,-159.5001 854.7234,-163 864.7234,-166.5001 864.7234,-159.5001"/>
</g>
<!-- Node543 -->
<g id="node23" class="node">
<title>Node543</title>
<g id="a_node23"><a xlink:href="structchi_1_1GraphFunction.html#a60bc423cb4fed3605a446da112949483" target="_top" xlink:title="Rename a local variable. ">
<polygon fill="#ffffff" stroke="#000000" points="1105.5,-218 1105.5,-248 1218.5,-248 1218.5,-218 1105.5,-218"/>
<text text-anchor="start" x="1113.5" y="-236" font-family="Helvetica,sans-Serif" font-size="10.00" fill="#000000">chi::GraphFunction</text>
<text text-anchor="middle" x="1162" y="-225" font-family="Helvetica,sans-Serif" font-size="10.00" fill="#000000">::renameLocalVariable</text>
</a>
</g>
</g>
<!-- Node542&#45;&gt;Node543 -->
<g id="edge25" class="edge">
<title>Node542&#45;&gt;Node543</title>
<path fill="none" stroke="#191970" d="M1058.7926,-221.2528C1074.4742,-223.0377 1090.5843,-224.8714 1105.2756,-226.5436"/>
<polygon fill="#191970" stroke="#191970" points="1058.9003,-217.7426 1048.5686,-220.0891 1058.1086,-224.6977 1058.9003,-217.7426"/>
</g>
<!-- Node546 -->
<g id="node26" class="node">
<title>Node546</title>
<g id="a_node26"><a xlink:href="structchi_1_1GraphFunction.html#a4c38679ec5e727bfb71c8eaaa5a8ca1a" target="_top" xlink:title="Set a new type to a local variable. ">
<polygon fill="#ffffff" stroke="#000000" points="1108,-267 1108,-297 1216,-297 1216,-267 1108,-267"/>
<text text-anchor="start" x="1116" y="-285" font-family="Helvetica,sans-Serif" font-size="10.00" fill="#000000">chi::GraphFunction</text>
<text text-anchor="middle" x="1162" y="-274" font-family="Helvetica,sans-Serif" font-size="10.00" fill="#000000">::retypeLocalVariable</text>
</a>
</g>
</g>
<!-- Node542&#45;&gt;Node546 -->
<g id="edge29" class="edge">
<title>Node542&#45;&gt;Node546</title>
<path fill="none" stroke="#191970" d="M1022.9582,-230.8906C1043.886,-239.4253 1069.1037,-249.4821 1092,-258 1100.0675,-261.0012 1108.7069,-264.0754 1117.0663,-266.9788"/>
<polygon fill="#191970" stroke="#191970" points="1024.2489,-227.6372 1013.6683,-227.0874 1021.5968,-234.1153 1024.2489,-227.6372"/>
</g>
<!-- Node547 -->
<g id="node27" class="node">
<title>Node547</title>
<g id="a_node27"><a xlink:href="structchi_1_1GraphStruct.html#a464c5edd4ebcb07161c3d05312f1fc33" target="_top" xlink:title="Set the name of the struct, and optionally update all references in the context. ">
<polygon fill="#ffffff" stroke="#000000" points="1095.5,-141.5 1095.5,-160.5 1228.5,-160.5 1228.5,-141.5 1095.5,-141.5"/>
<text text-anchor="middle" x="1162" y="-148.5" font-family="Helvetica,sans-Serif" font-size="10.00" fill="#000000">chi::GraphStruct::setName</text>
</a>
</g>
</g>
<!-- Node542&#45;&gt;Node547 -->
<g id="edge31" class="edge">
<title>Node542&#45;&gt;Node547</title>
<path fill="none" stroke="#191970" d="M1037.8928,-193.8689C1044.0224,-191.9291 1050.144,-189.9512 1056,-188 1072.139,-182.6226 1075.9536,-180.6477 1092,-175 1105.694,-170.1803 1120.9375,-164.9393 1133.6945,-160.5881"/>
<polygon fill="#191970" stroke="#191970" points="1036.7877,-190.5473 1028.291,-196.8765 1038.88,-197.2273 1036.7877,-190.5473"/>
</g>
<!-- Node554 -->
<g id="node34" class="node">
<title>Node554</title>
<g id="a_node34"><a xlink:href="structchi_1_1GraphStruct.html#a27c5062196f73eae3125c0baeb592d00" target="_top" xlink:title="Get the DataType of the struct. ">
<polygon fill="#ffffff" stroke="#000000" points="1429,-202.5 1429,-221.5 1563,-221.5 1563,-202.5 1429,-202.5"/>
<text text-anchor="middle" x="1496" y="-209.5" font-family="Helvetica,sans-Serif" font-size="10.00" fill="#000000">chi::GraphStruct::dataType</text>
</a>
</g>
</g>
<!-- Node542&#45;&gt;Node554 -->
<g id="edge49" class="edge">
<title>Node542&#45;&gt;Node554</title>
<path fill="none" stroke="#191970" d="M1058.8245,-209.6065C1069.9706,-209.3552 1081.2675,-209.1406 1092,-209 1210.5278,-207.4475 1348.6276,-209.2522 1428.8031,-210.6581"/>
<polygon fill="#191970" stroke="#191970" points="1058.5657,-206.1115 1048.6511,-209.8465 1058.7308,-213.1096 1058.5657,-206.1115"/>
</g>
<!-- Node544 -->
<g id="node24" class="node">
<title>Node544</title>
<g id="a_node24"><a xlink:href="structchi_1_1GraphFunction.html#a44f8f791775e4878b6bde37140cd131d" target="_top" xlink:title="Get the local variables. ">
<polygon fill="#ffffff" stroke="#000000" points="1281,-267 1281,-297 1380,-297 1380,-267 1281,-267"/>
<text text-anchor="start" x="1289" y="-285" font-family="Helvetica,sans-Serif" font-size="10.00" fill="#000000">chi::GraphFunction</text>
<text text-anchor="middle" x="1330.5" y="-274" font-family="Helvetica,sans-Serif" font-size="10.00" fill="#000000">::localVariables</text>
</a>
</g>
</g>
<!-- Node543&#45;&gt;Node544 -->
<g id="edge26" class="edge">
<title>Node543&#45;&gt;Node544</title>
<path fill="none" stroke="#191970" d="M1223.5961,-250.9122C1242.4051,-256.3819 1262.8414,-262.3248 1280.7599,-267.5355"/>
<polygon fill="#191970" stroke="#191970" points="1224.51,-247.5331 1213.9305,-248.1014 1222.5554,-254.2546 1224.51,-247.5331"/>
</g>
<!-- Node545 -->
<g id="node25" class="node">
<title>Node545</title>
<g id="a_node25"><a xlink:href="namespacechi.html#afd8b8d8a207d88359ad1e6a48d8f3bb1" target="_top" xlink:title="Serialize a GraphFunction to json. ">
<polygon fill="#ffffff" stroke="#000000" points="1599,-278.5 1599,-297.5 1728,-297.5 1728,-278.5 1599,-278.5"/>
<text text-anchor="middle" x="1663.5" y="-285.5" font-family="Helvetica,sans-Serif" font-size="10.00" fill="#000000">chi::graphFunctionToJson</text>
</a>
</g>
</g>
<!-- Node544&#45;&gt;Node545 -->
<g id="edge27" class="edge">
<title>Node544&#45;&gt;Node545</title>
<path fill="none" stroke="#191970" d="M1390.5889,-283.0827C1449.309,-284.1407 1538.4223,-285.7463 1598.704,-286.8325"/>
<polygon fill="#191970" stroke="#191970" points="1390.4149,-279.5791 1380.3535,-282.8983 1390.2888,-286.5779 1390.4149,-279.5791"/>
</g>
<!-- Node545&#45;&gt;Node533 -->
<g id="edge28" class="edge">
<title>Node545&#45;&gt;Node533</title>
<path fill="none" stroke="#191970" d="M1738.3796,-288C1800.9686,-288 1889.1567,-288 1947.7602,-288"/>
<polygon fill="#191970" stroke="#191970" points="1738.1741,-284.5001 1728.1741,-288 1738.174,-291.5001 1738.1741,-284.5001"/>
</g>
<!-- Node546&#45;&gt;Node544 -->
<g id="edge30" class="edge">
<title>Node546&#45;&gt;Node544</title>
<path fill="none" stroke="#191970" d="M1226.4171,-282C1244.4928,-282 1263.8597,-282 1280.9268,-282"/>
<polygon fill="#191970" stroke="#191970" points="1226.242,-278.5001 1216.242,-282 1226.2419,-285.5001 1226.242,-278.5001"/>
</g>
<!-- Node548 -->
<g id="node28" class="node">
<title>Node548</title>
<g id="a_node28"><a xlink:href="structchi_1_1GraphStruct.html#a82a1da52a4bf23e1e7fef4d7228603b1" target="_top" xlink:title="Get the module. ">
<polygon fill="#ffffff" stroke="#000000" points="1268,-141.5 1268,-160.5 1393,-160.5 1393,-141.5 1268,-141.5"/>
<text text-anchor="middle" x="1330.5" y="-148.5" font-family="Helvetica,sans-Serif" font-size="10.00" fill="#000000">chi::GraphStruct::module</text>
</a>
</g>
</g>
<!-- Node547&#45;&gt;Node548 -->
<g id="edge32" class="edge">
<title>Node547&#45;&gt;Node548</title>
<path fill="none" stroke="#191970" d="M1238.7217,-144.274C1248.5076,-144.2114 1258.43,-144.2712 1267.9551,-144.4532"/>
<polygon fill="#191970" stroke="#191970" points="1238.5572,-140.7755 1228.5957,-144.3835 1238.6329,-147.7751 1238.5572,-140.7755"/>
</g>
<!-- Node548&#45;&gt;Node547 -->
<g id="edge34" class="edge">
<title>Node548&#45;&gt;Node547</title>
<path fill="none" stroke="#191970" d="M1257.9075,-157.6922C1248.1708,-157.7893 1238.2222,-157.764 1228.5957,-157.6165"/>
<polygon fill="#191970" stroke="#191970" points="1258.0069,-161.1913 1267.9551,-157.5468 1257.9055,-154.192 1258.0069,-161.1913"/>
</g>
<!-- Node549 -->
<g id="node29" class="node">
<title>Node549</title>
<g id="a_node29"><a xlink:href="structchi_1_1GraphModule.html#a3fcbfb1633209d96ee54e103b361e9fb" target="_top" xlink:title="Remove a struct from the module by pointer. ">
<polygon fill="#ffffff" stroke="#000000" points="1430.5,-115 1430.5,-145 1561.5,-145 1561.5,-115 1430.5,-115"/>
<text text-anchor="start" x="1438.5" y="-133" font-family="Helvetica,sans-Serif" font-size="10.00" fill="#000000">chi::GraphModule::remove</text>
<text text-anchor="middle" x="1496" y="-122" font-family="Helvetica,sans-Serif" font-size="10.00" fill="#000000">Struct</text>
</a>
</g>
</g>
<!-- Node548&#45;&gt;Node549 -->
<g id="edge33" class="edge">
<title>Node548&#45;&gt;Node549</title>
<path fill="none" stroke="#191970" d="M1403.1711,-141.7789C1412.201,-140.6331 1421.3934,-139.4667 1430.3096,-138.3353"/>
<polygon fill="#191970" stroke="#191970" points="1402.5483,-138.3298 1393.0685,-143.0608 1403.4295,-145.2741 1402.5483,-138.3298"/>
</g>
<!-- Node550 -->
<g id="node30" class="node">
<title>Node550</title>
<g id="a_node30"><a xlink:href="structchi_1_1GraphStruct.html#aba05cdce9627a23da0449801e068d85d" target="_top" xlink:title="Add a new type to the struct. ">
<polygon fill="#ffffff" stroke="#000000" points="1772.5,-240.5 1772.5,-259.5 1903.5,-259.5 1903.5,-240.5 1772.5,-240.5"/>
<text text-anchor="middle" x="1838" y="-247.5" font-family="Helvetica,sans-Serif" font-size="10.00" fill="#000000">chi::GraphStruct::addType</text>
</a>
</g>
</g>
<!-- Node548&#45;&gt;Node550 -->
<g id="edge35" class="edge">
<title>Node548&#45;&gt;Node550</title>
<path fill="none" stroke="#191970" d="M1345.1564,-168.1861C1362.8042,-187.4816 1394.4176,-217.8141 1429,-231 1543.5732,-274.6856 1689.4452,-268.1248 1772.4147,-259.1974"/>
<polygon fill="#191970" stroke="#191970" points="1347.7395,-165.8238 1338.4801,-160.6744 1342.5073,-170.4741 1347.7395,-165.8238"/>
</g>
<!-- Node552 -->
<g id="node32" class="node">
<title>Node552</title>
<g id="a_node32"><a xlink:href="structchi_1_1GraphStruct.html#a89d3ea5e72ed6e7d8380fb82fa5eb521" target="_top" xlink:title="Change the type and name of a type. ">
<polygon fill="#ffffff" stroke="#000000" points="1765.5,-164.5 1765.5,-183.5 1910.5,-183.5 1910.5,-164.5 1765.5,-164.5"/>
<text text-anchor="middle" x="1838" y="-171.5" font-family="Helvetica,sans-Serif" font-size="10.00" fill="#000000">chi::GraphStruct::modifyType</text>
</a>
</g>
</g>
<!-- Node548&#45;&gt;Node552 -->
<g id="edge46" class="edge">
<title>Node548&#45;&gt;Node552</title>
<path fill="none" stroke="#191970" d="M1403.4845,-154.3077C1499.9205,-158.6782 1668.8052,-166.3321 1765.1658,-170.6991"/>
<polygon fill="#191970" stroke="#191970" points="1403.3867,-150.7997 1393.2385,-153.8433 1403.0697,-157.7926 1403.3867,-150.7997"/>
</g>
<!-- Node553 -->
<g id="node33" class="node">
<title>Node553</title>
<g id="a_node33"><a xlink:href="structchi_1_1GraphStruct.html#a759b0b44c984d7aaa6c2fb32e035264b" target="_top" xlink:title="Remove a type from a struct. ">
<polygon fill="#ffffff" stroke="#000000" points="1764,-126.5 1764,-145.5 1912,-145.5 1912,-126.5 1764,-126.5"/>
<text text-anchor="middle" x="1838" y="-133.5" font-family="Helvetica,sans-Serif" font-size="10.00" fill="#000000">chi::GraphStruct::removeType</text>
</a>
</g>
</g>
<!-- Node548&#45;&gt;Node553 -->
<g id="edge47" class="edge">
<title>Node548&#45;&gt;Node553</title>
<path fill="none" stroke="#191970" d="M1354.1526,-136.343C1373.4756,-125.2785 1401.9239,-111.0108 1429,-105 1564.5605,-74.9062 1730.9112,-108.6451 1802.4908,-126.4325"/>
<polygon fill="#191970" stroke="#191970" points="1352.2889,-133.3787 1345.4458,-141.4671 1355.8393,-139.4115 1352.2889,-133.3787"/>
</g>
<!-- Node548&#45;&gt;Node554 -->
<g id="edge48" class="edge">
<title>Node548&#45;&gt;Node554</title>
<path fill="none" stroke="#191970" d="M1364.9468,-164.0872C1383.8342,-171.2258 1407.6783,-180.1771 1429,-188 1442.1076,-192.8091 1456.6978,-198.0488 1468.908,-202.402"/>
<polygon fill="#191970" stroke="#191970" points="1366.1527,-160.8014 1355.5612,-160.535 1363.6749,-167.3482 1366.1527,-160.8014"/>
</g>
<!-- Node551 -->
<g id="node31" class="node">
<title>Node551</title>
<g id="a_node31"><a xlink:href="structchi_1_1GraphStruct.html#ae1895cfaebac03e21d35ec2a155b3c10" target="_top" xlink:title="Get the types the struct contains. ">
<polygon fill="#ffffff" stroke="#000000" points="1604.5,-202.5 1604.5,-221.5 1722.5,-221.5 1722.5,-202.5 1604.5,-202.5"/>
<text text-anchor="middle" x="1663.5" y="-209.5" font-family="Helvetica,sans-Serif" font-size="10.00" fill="#000000">chi::GraphStruct::types</text>
</a>
</g>
</g>
<!-- Node550&#45;&gt;Node551 -->
<g id="edge36" class="edge">
<title>Node550&#45;&gt;Node551</title>
<path fill="none" stroke="#191970" d="M1762.3083,-240.2141C1734.6363,-234.4428 1705.3854,-227.4081 1685.9556,-221.5924"/>
<polygon fill="#191970" stroke="#191970" points="1761.9124,-243.7054 1772.4107,-242.2786 1763.314,-236.8472 1761.9124,-243.7054"/>
</g>
<!-- Node551&#45;&gt;Node550 -->
<g id="edge37" class="edge">
<title>Node551&#45;&gt;Node550</title>
<path fill="none" stroke="#191970" d="M1732.4932,-220.4074C1762.1254,-226.4224 1794.6988,-234.1582 1815.7,-240.4542"/>
<polygon fill="#191970" stroke="#191970" points="1733.068,-216.9533 1722.5777,-218.4381 1731.7043,-223.8192 1733.068,-216.9533"/>
</g>
<!-- Node551&#45;&gt;Node552 -->
<g id="edge38" class="edge">
<title>Node551&#45;&gt;Node552</title>
<path fill="none" stroke="#191970" d="M1695.5898,-199.643C1715.1903,-194.2249 1741.0867,-188.1538 1765.4166,-183.1416"/>
<polygon fill="#191970" stroke="#191970" points="1694.6022,-196.285 1685.9556,-202.4076 1696.5331,-203.0135 1694.6022,-196.285"/>
</g>
<!-- Node551&#45;&gt;Node553 -->
<g id="edge40" class="edge">
<title>Node551&#45;&gt;Node553</title>
<path fill="none" stroke="#191970" d="M1678.0506,-195.8998C1697.0623,-180.5616 1731.7392,-159.0212 1764,-146 1764.369,-145.8511 1764.7395,-145.703 1765.1114,-145.5559"/>
<polygon fill="#191970" stroke="#191970" points="1675.748,-193.2638 1670.4828,-202.4578 1680.3322,-198.5539 1675.748,-193.2638"/>
</g>
<!-- Node551&#45;&gt;Node554 -->
<g id="edge42" class="edge">
<title>Node551&#45;&gt;Node554</title>
<path fill="none" stroke="#191970" d="M1594.2691,-218.659C1583.9865,-218.7891 1573.4027,-218.7797 1563.1635,-218.6309"/>
<polygon fill="#191970" stroke="#191970" points="1594.4897,-222.1558 1604.4274,-218.4825 1594.368,-215.1569 1594.4897,-222.1558"/>
</g>
<!-- Node555 -->
<g id="node35" class="node">
<title>Node555</title>
<g id="a_node35"><a xlink:href="namespacechi.html#af74872167b12e4ad8a387faab1f03fbb" target="_top" xlink:title="Serialize a GraphStruct to json. ">
<polygon fill="#ffffff" stroke="#000000" points="1779,-202.5 1779,-221.5 1897,-221.5 1897,-202.5 1779,-202.5"/>
<text text-anchor="middle" x="1838" y="-209.5" font-family="Helvetica,sans-Serif" font-size="10.00" fill="#000000">chi::graphStructToJson</text>
</a>
</g>
</g>
<!-- Node551&#45;&gt;Node555 -->
<g id="edge44" class="edge">
<title>Node551&#45;&gt;Node555</title>
<path fill="none" stroke="#191970" d="M1732.9802,-212C1748.215,-212 1764.2047,-212 1778.9831,-212"/>
<polygon fill="#191970" stroke="#191970" points="1732.5778,-208.5001 1722.5777,-212 1732.5777,-215.5001 1732.5778,-208.5001"/>
</g>
<!-- Node552&#45;&gt;Node551 -->
<g id="edge39" class="edge">
<title>Node552&#45;&gt;Node551</title>
<path fill="none" stroke="#191970" d="M1805.9886,-186.3354C1782.6965,-192.7773 1750.4836,-200.1464 1722.5777,-205.5619"/>
<polygon fill="#191970" stroke="#191970" points="1807.055,-189.6706 1815.7,-183.5458 1805.1224,-182.9427 1807.055,-189.6706"/>
</g>
<!-- Node553&#45;&gt;Node551 -->
<g id="edge41" class="edge">
<title>Node553&#45;&gt;Node551</title>
<path fill="none" stroke="#191970" d="M1812.7892,-148.6146C1798.228,-152.8995 1779.737,-157.6481 1764,-164 1737.2148,-174.8112 1708.7641,-191.4949 1688.9966,-202.4221"/>
<polygon fill="#191970" stroke="#191970" points="1814.094,-151.8741 1822.6019,-145.5601 1812.0135,-145.1904 1814.094,-151.8741"/>
</g>
<!-- Node554&#45;&gt;Node551 -->
<g id="edge43" class="edge">
<title>Node554&#45;&gt;Node551</title>
<path fill="none" stroke="#191970" d="M1573.1688,-205.2686C1583.6715,-205.2092 1594.3131,-205.2922 1604.4274,-205.5175"/>
<polygon fill="#191970" stroke="#191970" points="1573.1278,-201.7687 1563.1635,-205.3691 1573.1982,-208.7683 1573.1278,-201.7687"/>
</g>
<!-- Node555&#45;&gt;Node533 -->
<g id="edge45" class="edge">
<title>Node555&#45;&gt;Node533</title>
<path fill="none" stroke="#191970" d="M1893.5466,-224.4621C1899.8547,-226.4055 1906.1233,-228.5831 1912,-231 1943.7342,-244.0511 1977.6436,-265.895 1995.9249,-278.4116"/>
<polygon fill="#191970" stroke="#191970" points="1894.2308,-221.0166 1883.652,-221.6004 1892.2859,-227.741 1894.2308,-221.0166"/>
</g>
<!-- Node558 -->
<g id="node38" class="node">
<title>Node558</title>
<g id="a_node38"><a xlink:href="classchi_1_1Debugger.html#a50f4de4ab6a18afa2eb82f5a5f43b06a" target="_top" xlink:title="Check if the process is executing. ">
<polygon fill="#ffffff" stroke="#000000" points="550,-.5 550,-19.5 664,-19.5 664,-.5 550,-.5"/>
<text text-anchor="middle" x="607" y="-7.5" font-family="Helvetica,sans-Serif" font-size="10.00" fill="#000000">chi::Debugger::running</text>
</a>
</g>
</g>
<!-- Node557&#45;&gt;Node558 -->
<g id="edge54" class="edge">
<title>Node557&#45;&gt;Node558</title>
<path fill="none" stroke="#191970" d="M507.0814,-10C521.4815,-10 536.1823,-10 549.7229,-10"/>
<polygon fill="#191970" stroke="#191970" points="506.67,-6.5001 496.67,-10 506.6699,-13.5001 506.67,-6.5001"/>
</g>
</g>
</svg>
