<?xml version="1.0" encoding="UTF-8" standalone="no"?>
<!DOCTYPE svg PUBLIC "-//W3C//DTD SVG 1.1//EN"
 "http://www.w3.org/Graphics/SVG/1.1/DTD/svg11.dtd">
<!-- Generated by graphviz version 2.40.1 (20161225.0304)
 -->
<!-- Title: chig::NodeInstance::setType Pages: 1 -->
<!--zoomable 306 -->
<svg id="main" version="1.1" xmlns="http://www.w3.org/2000/svg" xmlns:xlink="http://www.w3.org/1999/xlink" xml:space="preserve" onload="init(evt)">
<style type="text/css"><![CDATA[
.edge:hover path { stroke: red; }
.edge:hover polygon { stroke: red; fill: red; }
]]></style>
<script type="text/javascript"><![CDATA[
var edges = document.getElementsByTagName('g');
if (edges && edges.length) {
  for (var i=0;i<edges.length;i++) {
    if (edges[i].id.substr(0,4)=='edge') {
      edges[i].setAttribute('class','edge');
    }
  }
}
]]></script>
        <defs>
                <circle id="rim" cx="0" cy="0" r="7"/>
                <circle id="rim2" cx="0" cy="0" r="3.5"/>
                <g id="zoomPlus">
                        <use xlink:href="#rim" fill="#404040">
                                <set attributeName="fill" to="#808080" begin="zoomplus.mouseover" end="zoomplus.mouseout"/>
                        </use>
                        <path d="M-4,0h8M0,-4v8" fill="none" stroke="white" stroke-width="1.5" pointer-events="none"/>
                </g>
                <g id="zoomMin">
                        <use xlink:href="#rim" fill="#404040">
                                <set attributeName="fill" to="#808080" begin="zoomminus.mouseover" end="zoomminus.mouseout"/>
                        </use>
                        <path d="M-4,0h8" fill="none" stroke="white" stroke-width="1.5" pointer-events="none"/>
                </g>
                <g id="dirArrow">
                        <path fill="none" stroke="white" stroke-width="1.5" d="M0,-3.0v7 M-2.5,-0.5L0,-3.0L2.5,-0.5"/>
                </g>
               <g id="resetDef">
                       <use xlink:href="#rim2" fill="#404040">
                               <set attributeName="fill" to="#808080" begin="reset.mouseover" end="reset.mouseout"/>
                       </use>
               </g>
        </defs>

<script type="text/javascript">
var viewWidth = 655;
var viewHeight = 306;
var sectionId = 'dynsection-3';
</script>
<script xlink:href="svgpan.js"/>
<svg id="graph" class="graph">
<g id="viewport">
<title>chig::NodeInstance::setType</title>
<polygon fill="#ffffff" stroke="transparent" points="-4,4 -4,-302 651,-302 651,4 -4,4"/>
<!-- Node17 -->
<g id="node1" class="node">
<title>Node17</title>
<polygon fill="#bfbfbf" stroke="#000000" points="0,-197 0,-227 110,-227 110,-197 0,-197"/>
<text text-anchor="start" x="8" y="-215" font-family="Helvetica,sans-Serif" font-size="10.00" fill="#000000">chig::NodeInstance</text>
<text text-anchor="middle" x="55" y="-204" font-family="Helvetica,sans-Serif" font-size="10.00" fill="#000000">::setType</text>
</g>
<!-- Node18 -->
<g id="node2" class="node">
<title>Node18</title>
<g id="a_node2"><a xlink:href="namespacechig.html#a5977e55ae63e7f16a0ac342e2311e1b6" target="_top" xlink:title="chig::disconnectData">
<polygon fill="#ffffff" stroke="#000000" points="146,-142.5 146,-161.5 265,-161.5 265,-142.5 146,-142.5"/>
<text text-anchor="middle" x="205.5" y="-149.5" font-family="Helvetica,sans-Serif" font-size="10.00" fill="#000000">chig::disconnectData</text>
</a>
</g>
</g>
<!-- Node17&#45;&gt;Node18 -->
<g id="edge1" class="edge">
<title>Node17&#45;&gt;Node18</title>
<path fill="none" stroke="#191970" d="M92.9775,-196.8595C117.3596,-187.139 148.7261,-174.6341 172.1459,-165.2973"/>
<polygon fill="#191970" stroke="#191970" points="173.66,-168.4617 181.6528,-161.5072 171.0676,-161.9593 173.66,-168.4617"/>
</g>
<!-- Node22 -->
<g id="node6" class="node">
<title>Node22</title>
<g id="a_node6"><a xlink:href="structchig_1_1NodeInstance.html#a1468afe4799106831566bd283332a516" target="_top" xlink:title="chig::NodeInstance::id">
<polygon fill="#ffffff" stroke="#000000" points="323.5,-278.5 323.5,-297.5 448.5,-297.5 448.5,-278.5 323.5,-278.5"/>
<text text-anchor="middle" x="386" y="-285.5" font-family="Helvetica,sans-Serif" font-size="10.00" fill="#000000">chig::NodeInstance::id</text>
</a>
</g>
</g>
<!-- Node17&#45;&gt;Node22 -->
<g id="edge20" class="edge">
<title>Node17&#45;&gt;Node22</title>
<path fill="none" stroke="#191970" d="M110.1732,-224.9132C160.0113,-236.5469 235.3842,-254.0649 301,-269 311.3911,-271.3652 322.503,-273.8681 333.1512,-276.2536"/>
<polygon fill="#191970" stroke="#191970" points="332.6568,-279.7295 343.1797,-278.4965 334.1847,-272.8982 332.6568,-279.7295"/>
</g>
<!-- Node31 -->
<g id="node15" class="node">
<title>Node31</title>
<g id="a_node15"><a xlink:href="namespacechig.html#a215d31f09c52ea11a74173e7ac1392bb" target="_top" xlink:title="chig::disconnectExec">
<polygon fill="#ffffff" stroke="#000000" points="146,-202.5 146,-221.5 265,-221.5 265,-202.5 146,-202.5"/>
<text text-anchor="middle" x="205.5" y="-209.5" font-family="Helvetica,sans-Serif" font-size="10.00" fill="#000000">chig::disconnectExec</text>
</a>
</g>
</g>
<!-- Node17&#45;&gt;Node31 -->
<g id="edge14" class="edge">
<title>Node17&#45;&gt;Node31</title>
<path fill="none" stroke="#191970" d="M110.1861,-212C118.4166,-212 126.9927,-212 135.4796,-212"/>
<polygon fill="#191970" stroke="#191970" points="135.7584,-215.5001 145.7583,-212 135.7583,-208.5001 135.7584,-215.5001"/>
</g>
<!-- Node19 -->
<g id="node3" class="node">
<title>Node19</title>
<g id="a_node3"><a xlink:href="structchig_1_1Result.html#aabb30a56760c3a817518912d9eabb491" target="_top" xlink:title="chig::Result::addEntry">
<polygon fill="#ffffff" stroke="#000000" points="324.5,-202.5 324.5,-221.5 447.5,-221.5 447.5,-202.5 324.5,-202.5"/>
<text text-anchor="middle" x="386" y="-209.5" font-family="Helvetica,sans-Serif" font-size="10.00" fill="#000000">chig::Result::addEntry</text>
</a>
</g>
</g>
<!-- Node18&#45;&gt;Node19 -->
<g id="edge2" class="edge">
<title>Node18&#45;&gt;Node19</title>
<path fill="none" stroke="#191970" d="M224.8448,-161.5691C243.854,-170.6674 273.8743,-184.2295 301,-193 309.0661,-195.608 317.6759,-197.9849 326.2043,-200.107"/>
<polygon fill="#191970" stroke="#191970" points="325.6016,-203.5614 336.1411,-202.4795 327.2273,-196.7527 325.6016,-203.5614"/>
</g>
<!-- Node20 -->
<g id="node4" class="node">
<title>Node20</title>
<g id="a_node4"><a xlink:href="structchig_1_1NodeType.html#a3dfb8b1b093b9de0ee59e8eee7ab84e1" target="_top" xlink:title="chig::NodeType::dataInputs">
<polygon fill="#ffffff" stroke="#000000" points="311,-76.5 311,-95.5 461,-95.5 461,-76.5 311,-76.5"/>
<text text-anchor="middle" x="386" y="-83.5" font-family="Helvetica,sans-Serif" font-size="10.00" fill="#000000">chig::NodeType::dataInputs</text>
</a>
</g>
</g>
<!-- Node18&#45;&gt;Node20 -->
<g id="edge3" class="edge">
<title>Node18&#45;&gt;Node20</title>
<path fill="none" stroke="#191970" d="M222.6124,-142.3468C241.3559,-132.1123 272.5467,-116.0645 301,-106 309.5016,-102.9928 318.6416,-100.3033 327.6643,-97.9462"/>
<polygon fill="#191970" stroke="#191970" points="328.5203,-101.34 337.3732,-95.5196 326.8229,-94.5489 328.5203,-101.34"/>
</g>
<!-- Node21 -->
<g id="node5" class="node">
<title>Node21</title>
<g id="a_node5"><a xlink:href="structchig_1_1NodeType.html#a7eb591e0e93940aeef541d9d37679b61" target="_top" xlink:title="chig::NodeType::dataOutputs">
<polygon fill="#ffffff" stroke="#000000" points="307,-38.5 307,-57.5 465,-57.5 465,-38.5 307,-38.5"/>
<text text-anchor="middle" x="386" y="-45.5" font-family="Helvetica,sans-Serif" font-size="10.00" fill="#000000">chig::NodeType::dataOutputs</text>
</a>
</g>
</g>
<!-- Node18&#45;&gt;Node21 -->
<g id="edge4" class="edge">
<title>Node18&#45;&gt;Node21</title>
<path fill="none" stroke="#191970" d="M213.3109,-142.3632C228.3185,-124.531 263.0746,-86.4371 301,-67 305.5921,-64.6465 310.4703,-62.5828 315.4768,-60.7736"/>
<polygon fill="#191970" stroke="#191970" points="316.7975,-64.0244 325.2211,-57.5984 314.6287,-57.3688 316.7975,-64.0244"/>
</g>
<!-- Node18&#45;&gt;Node22 -->
<g id="edge5" class="edge">
<title>Node18&#45;&gt;Node22</title>
<path fill="none" stroke="#191970" d="M224.3443,-161.5413C237.1308,-168.7725 253.7013,-179.7185 265,-193 289.218,-221.468 271.8012,-245.6683 301,-269 304.8577,-272.0825 309.1143,-274.6878 313.6054,-276.8874"/>
<polygon fill="#191970" stroke="#191970" points="312.524,-280.2288 323.1003,-280.8556 315.2233,-273.7702 312.524,-280.2288"/>
</g>
<!-- Node23 -->
<g id="node7" class="node">
<title>Node23</title>
<g id="a_node7"><a xlink:href="structchig_1_1NodeType.html#aec01c9c30813ec9f0e15dda0f7ae34f3" target="_top" xlink:title="chig::NodeType::qualifiedName">
<polygon fill="#ffffff" stroke="#000000" points="301,-164.5 301,-183.5 471,-183.5 471,-164.5 301,-164.5"/>
<text text-anchor="middle" x="386" y="-171.5" font-family="Helvetica,sans-Serif" font-size="10.00" fill="#000000">chig::NodeType::qualifiedName</text>
</a>
</g>
</g>
<!-- Node18&#45;&gt;Node23 -->
<g id="edge6" class="edge">
<title>Node18&#45;&gt;Node23</title>
<path fill="none" stroke="#191970" d="M265.1027,-159.2646C275.5591,-160.5391 286.6383,-161.8894 297.679,-163.2351"/>
<polygon fill="#191970" stroke="#191970" points="297.4387,-166.7316 307.7887,-164.4673 298.2856,-159.7831 297.4387,-166.7316"/>
</g>
<!-- Node28 -->
<g id="node12" class="node">
<title>Node28</title>
<g id="a_node12"><a xlink:href="structchig_1_1NodeType.html#ae32c95d458c85ea3633a3e5cb9fd321c" target="_top" xlink:title="chig::NodeType::toJSON">
<polygon fill="#ffffff" stroke="#000000" points="320,-.5 320,-19.5 452,-19.5 452,-.5 320,-.5"/>
<text text-anchor="middle" x="386" y="-7.5" font-family="Helvetica,sans-Serif" font-size="10.00" fill="#000000">chig::NodeType::toJSON</text>
</a>
</g>
</g>
<!-- Node18&#45;&gt;Node28 -->
<g id="edge11" class="edge">
<title>Node18&#45;&gt;Node28</title>
<path fill="none" stroke="#191970" d="M209.9554,-142.4934C221.4364,-119.1072 254.4273,-58.5409 301,-29 304.3519,-26.8739 307.9101,-24.9841 311.597,-23.3044"/>
<polygon fill="#191970" stroke="#191970" points="312.9998,-26.5129 320.9828,-19.5471 310.3983,-20.0143 312.9998,-26.5129"/>
</g>
<!-- Node30 -->
<g id="node14" class="node">
<title>Node30</title>
<g id="a_node14"><a xlink:href="structchig_1_1NodeInstance.html#a5c9d6934e14f56ff4317ff08e170e83a" target="_top" xlink:title="chig::NodeInstance\l::type">
<polygon fill="#ffffff" stroke="#000000" points="331,-115 331,-145 441,-145 441,-115 331,-115"/>
<text text-anchor="start" x="339" y="-133" font-family="Helvetica,sans-Serif" font-size="10.00" fill="#000000">chig::NodeInstance</text>
<text text-anchor="middle" x="386" y="-122" font-family="Helvetica,sans-Serif" font-size="10.00" fill="#000000">::type</text>
</a>
</g>
</g>
<!-- Node18&#45;&gt;Node30 -->
<g id="edge13" class="edge">
<title>Node18&#45;&gt;Node30</title>
<path fill="none" stroke="#191970" d="M265.1027,-144.7354C282.9509,-142.56 302.6138,-140.1634 320.8024,-137.9465"/>
<polygon fill="#191970" stroke="#191970" points="321.2315,-141.4202 330.7346,-136.7359 320.3846,-134.4716 321.2315,-141.4202"/>
</g>
<!-- Node24 -->
<g id="node8" class="node">
<title>Node24</title>
<g id="a_node8"><a xlink:href="structchig_1_1NodeType.html#ad18d6f37b20e92bcd580bcf7c7504e64" target="_top" xlink:title="chig::NodeType::module">
<polygon fill="#ffffff" stroke="#000000" points="509.5,-107.5 509.5,-126.5 644.5,-126.5 644.5,-107.5 509.5,-107.5"/>
<text text-anchor="middle" x="577" y="-114.5" font-family="Helvetica,sans-Serif" font-size="10.00" fill="#000000">chig::NodeType::module</text>
</a>
</g>
</g>
<!-- Node23&#45;&gt;Node24 -->
<g id="edge7" class="edge">
<title>Node23&#45;&gt;Node24</title>
<path fill="none" stroke="#191970" d="M438.7771,-164.493C449.5898,-161.9101 460.7832,-158.7615 471,-155 487.9776,-148.7494 490.1678,-142.6321 507,-136 512.9971,-133.6371 519.3945,-131.4595 525.7925,-129.4876"/>
<polygon fill="#191970" stroke="#191970" points="527.1755,-132.7296 535.7894,-126.561 525.2088,-126.0116 527.1755,-132.7296"/>
</g>
<!-- Node25 -->
<g id="node9" class="node">
<title>Node25</title>
<g id="a_node9"><a xlink:href="structchig_1_1ChigModule.html#a1fe8df6ff170ecd33057387571bb5cd2" target="_top" xlink:title="chig::ChigModule::name">
<polygon fill="#ffffff" stroke="#000000" points="510,-221.5 510,-240.5 644,-240.5 644,-221.5 510,-221.5"/>
<text text-anchor="middle" x="577" y="-228.5" font-family="Helvetica,sans-Serif" font-size="10.00" fill="#000000">chig::ChigModule::name</text>
</a>
</g>
</g>
<!-- Node23&#45;&gt;Node25 -->
<g id="edge8" class="edge">
<title>Node23&#45;&gt;Node25</title>
<path fill="none" stroke="#191970" d="M438.7771,-183.507C449.5898,-186.0899 460.7832,-189.2385 471,-193 487.9776,-199.2506 490.1678,-205.3679 507,-212 512.9971,-214.3629 519.3945,-216.5405 525.7925,-218.5124"/>
<polygon fill="#191970" stroke="#191970" points="525.2088,-221.9884 535.7894,-221.439 527.1755,-215.2704 525.2088,-221.9884"/>
</g>
<!-- Node26 -->
<g id="node10" class="node">
<title>Node26</title>
<g id="a_node10"><a xlink:href="structchig_1_1NodeType.html#aeba0c62eaae2a477171d83a65c877f53" target="_top" xlink:title="chig::NodeType::name">
<polygon fill="#ffffff" stroke="#000000" points="514,-183.5 514,-202.5 640,-202.5 640,-183.5 514,-183.5"/>
<text text-anchor="middle" x="577" y="-190.5" font-family="Helvetica,sans-Serif" font-size="10.00" fill="#000000">chig::NodeType::name</text>
</a>
</g>
</g>
<!-- Node23&#45;&gt;Node26 -->
<g id="edge9" class="edge">
<title>Node23&#45;&gt;Node26</title>
<path fill="none" stroke="#191970" d="M471.166,-182.472C482.0216,-183.5519 493.0575,-184.6497 503.7037,-185.7087"/>
<polygon fill="#191970" stroke="#191970" points="503.4754,-189.2032 513.7728,-186.7104 504.1684,-182.2376 503.4754,-189.2032"/>
</g>
<!-- Node27 -->
<g id="node11" class="node">
<title>Node27</title>
<g id="a_node11"><a xlink:href="structchig_1_1NodeType.html#ad61ce1a20fa6b174027cbbdd43782d9c" target="_top" xlink:title="chig::NodeType::codegen">
<polygon fill="#ffffff" stroke="#000000" points="507,-145.5 507,-164.5 647,-164.5 647,-145.5 507,-145.5"/>
<text text-anchor="middle" x="577" y="-152.5" font-family="Helvetica,sans-Serif" font-size="10.00" fill="#000000">chig::NodeType::codegen</text>
</a>
</g>
</g>
<!-- Node23&#45;&gt;Node27 -->
<g id="edge10" class="edge">
<title>Node23&#45;&gt;Node27</title>
<path fill="none" stroke="#191970" d="M471.166,-165.528C479.6528,-164.6838 488.2497,-163.8286 496.6845,-162.9895"/>
<polygon fill="#191970" stroke="#191970" points="497.27,-166.4486 506.8744,-161.9758 496.577,-159.483 497.27,-166.4486"/>
</g>
<!-- Node29 -->
<g id="node13" class="node">
<title>Node29</title>
<g id="a_node13"><a xlink:href="structchig_1_1NodeType.html#a4225c75840cda9382e6f5ff169d59513" target="_top" xlink:title="chig::NodeType::clone">
<polygon fill="#ffffff" stroke="#000000" points="514.5,-.5 514.5,-19.5 639.5,-19.5 639.5,-.5 514.5,-.5"/>
<text text-anchor="middle" x="577" y="-7.5" font-family="Helvetica,sans-Serif" font-size="10.00" fill="#000000">chig::NodeType::clone</text>
</a>
</g>
</g>
<!-- Node28&#45;&gt;Node29 -->
<g id="edge12" class="edge">
<title>Node28&#45;&gt;Node29</title>
<path fill="none" stroke="#191970" d="M452.2665,-10C468.9518,-10 486.9547,-10 503.9517,-10"/>
<polygon fill="#191970" stroke="#191970" points="504.3841,-13.5001 514.384,-10 504.384,-6.5001 504.3841,-13.5001"/>
</g>
<!-- Node31&#45;&gt;Node19 -->
<g id="edge15" class="edge">
<title>Node31&#45;&gt;Node19</title>
<path fill="none" stroke="#191970" d="M265.1027,-212C280.8346,-212 297.9764,-212 314.2757,-212"/>
<polygon fill="#191970" stroke="#191970" points="314.2954,-215.5001 324.2953,-212 314.2953,-208.5001 314.2954,-215.5001"/>
</g>
<!-- Node31&#45;&gt;Node22 -->
<g id="edge17" class="edge">
<title>Node31&#45;&gt;Node22</title>
<path fill="none" stroke="#191970" d="M218.4003,-221.5365C236.1293,-234.2 269.4287,-256.4262 301,-269 307.4182,-271.5561 314.2528,-273.8051 321.1507,-275.775"/>
<polygon fill="#191970" stroke="#191970" points="320.6975,-279.2761 331.2613,-278.4649 322.4973,-272.5114 320.6975,-279.2761"/>
</g>
<!-- Node31&#45;&gt;Node23 -->
<g id="edge18" class="edge">
<title>Node31&#45;&gt;Node23</title>
<path fill="none" stroke="#191970" d="M251.0478,-202.411C275.2959,-197.3061 305.3037,-190.9887 330.8612,-185.6082"/>
<polygon fill="#191970" stroke="#191970" points="331.7153,-189.0052 340.7798,-183.5201 330.2732,-182.1553 331.7153,-189.0052"/>
</g>
<!-- Node31&#45;&gt;Node30 -->
<g id="edge19" class="edge">
<title>Node31&#45;&gt;Node30</title>
<path fill="none" stroke="#191970" d="M219.1424,-202.3437C237.1601,-189.9529 270.2155,-168.456 301,-155 307.3447,-152.2267 314.0863,-149.6557 320.889,-147.3017"/>
<polygon fill="#191970" stroke="#191970" points="322.4619,-150.4683 330.8604,-144.0096 320.2673,-143.8212 322.4619,-150.4683"/>
</g>
<!-- Node32 -->
<g id="node16" class="node">
<title>Node32</title>
<g id="a_node16"><a xlink:href="structchig_1_1NodeType.html#afc4ee5b526c87f79a4b4e2a902e209a8" target="_top" xlink:title="chig::NodeType::execOutputs">
<polygon fill="#ffffff" stroke="#000000" points="306,-240.5 306,-259.5 466,-259.5 466,-240.5 306,-240.5"/>
<text text-anchor="middle" x="386" y="-247.5" font-family="Helvetica,sans-Serif" font-size="10.00" fill="#000000">chig::NodeType::execOutputs</text>
</a>
</g>
</g>
<!-- Node31&#45;&gt;Node32 -->
<g id="edge16" class="edge">
<title>Node31&#45;&gt;Node32</title>
<path fill="none" stroke="#191970" d="M251.0478,-221.589C275.2959,-226.6939 305.3037,-233.0113 330.8612,-238.3918"/>
<polygon fill="#191970" stroke="#191970" points="330.2732,-241.8447 340.7798,-240.4799 331.7153,-234.9948 330.2732,-241.8447"/>
</g>
</g>
</svg>
        <g id="navigator" transform="translate(0 0)" fill="#404254">
                <rect fill="#f2f5e9" fill-opacity="0.5" stroke="#606060" stroke-width=".5" x="0" y="0" width="60" height="60"/>
                <use id="zoomplus" xlink:href="#zoomPlus" x="17" y="9" onmousedown="handleZoom(evt,'in')"/>
                <use id="zoomminus" xlink:href="#zoomMin" x="42" y="9" onmousedown="handleZoom(evt,'out')"/>
                <use id="reset" xlink:href="#resetDef" x="30" y="36" onmousedown="handleReset()"/>
                <g id="arrowUp" xlink:href="#dirArrow" transform="translate(30 24)" onmousedown="handlePan(0,-1)">
                  <use xlink:href="#rim" fill="#404040">
                        <set attributeName="fill" to="#808080" begin="arrowUp.mouseover" end="arrowUp.mouseout"/>
                  </use>
                  <path fill="none" stroke="white" stroke-width="1.5" d="M0,-3.0v7 M-2.5,-0.5L0,-3.0L2.5,-0.5"/>
                </g>
                <g id="arrowRight" xlink:href="#dirArrow" transform="rotate(90) translate(36 -43)" onmousedown="handlePan(1,0)">
                  <use xlink:href="#rim" fill="#404040">
                        <set attributeName="fill" to="#808080" begin="arrowRight.mouseover" end="arrowRight.mouseout"/>
                  </use>
                  <path fill="none" stroke="white" stroke-width="1.5" d="M0,-3.0v7 M-2.5,-0.5L0,-3.0L2.5,-0.5"/>
                </g>
                <g id="arrowDown" xlink:href="#dirArrow" transform="rotate(180) translate(-30 -48)" onmousedown="handlePan(0,1)">
                  <use xlink:href="#rim" fill="#404040">
                        <set attributeName="fill" to="#808080" begin="arrowDown.mouseover" end="arrowDown.mouseout"/>
                  </use>
                  <path fill="none" stroke="white" stroke-width="1.5" d="M0,-3.0v7 M-2.5,-0.5L0,-3.0L2.5,-0.5"/>
                </g>
                <g id="arrowLeft" xlink:href="#dirArrow" transform="rotate(270) translate(-36 17)" onmousedown="handlePan(-1,0)">
                  <use xlink:href="#rim" fill="#404040">
                        <set attributeName="fill" to="#808080" begin="arrowLeft.mouseover" end="arrowLeft.mouseout"/>
                  </use>
                  <path fill="none" stroke="white" stroke-width="1.5" d="M0,-3.0v7 M-2.5,-0.5L0,-3.0L2.5,-0.5"/>
                </g>
        </g>
        <svg viewBox="0 0 15 15" width="100%" height="30px" preserveAspectRatio="xMaxYMin meet">
         <g id="arrow_out" transform="scale(0.3 0.3)">
          <a xlink:href="structchig_1_1NodeInstance_ab7b23fb84fff7176f7a6e62ce3762153_cgraph_org.svg" target="_base">
           <rect id="button" ry="5" rx="5" y="6" x="6" height="38" width="38"
                fill="#f2f5e9" fill-opacity="0.5" stroke="#606060" stroke-width="1.0"/>
           <path id="arrow"
             d="M 11.500037,31.436501 C 11.940474,20.09759 22.043105,11.32322 32.158766,21.979434 L 37.068811,17.246167 C 37.068811,17.246167 37.088388,32 37.088388,32 L 22.160133,31.978069 C 22.160133,31.978069 26.997745,27.140456 26.997745,27.140456 C 18.528582,18.264221 13.291696,25.230495 11.500037,31.436501 z"
             style="fill:#404040;"/>
          </a>
         </g>
        </svg>
</svg>
