<?xml version="1.0" encoding="UTF-8" standalone="no"?>
<!DOCTYPE svg PUBLIC "-//W3C//DTD SVG 1.1//EN"
 "http://www.w3.org/Graphics/SVG/1.1/DTD/svg11.dtd">
<!-- Generated by graphviz version 2.40.1 (20161225.0304)
 -->
<!-- Title: chig::GraphModule::removeFunction Pages: 1 -->
<svg width="392pt" height="88pt"
 viewBox="0.00 0.00 392.00 88.00" xmlns="http://www.w3.org/2000/svg" xmlns:xlink="http://www.w3.org/1999/xlink">
<g id="graph0" class="graph" transform="scale(1 1) rotate(0) translate(4 84)">
<title>chig::GraphModule::removeFunction</title>
<polygon fill="#ffffff" stroke="transparent" points="-4,4 -4,-84 388,-84 388,4 -4,4"/>
<!-- Node332 -->
<g id="node1" class="node">
<title>Node332</title>
<polygon fill="#bfbfbf" stroke="#000000" points="0,-24.5 0,-54.5 104,-54.5 104,-24.5 0,-24.5"/>
<text text-anchor="start" x="8" y="-42.5" font-family="Helvetica,sans-Serif" font-size="10.00" fill="#000000">chig::GraphModule::</text>
<text text-anchor="middle" x="52" y="-31.5" font-family="Helvetica,sans-Serif" font-size="10.00" fill="#000000">removeFunction</text>
</g>
<!-- Node333 -->
<g id="node2" class="node">
<title>Node333</title>
<g id="a_node2"><a xlink:href="structchig_1_1GraphModule.html#a2b80440a0bdf4c760a12ea0309d68060" target="_top" xlink:title="Get the path to the source file It&#39;s not garunteed to exist, because it could have not been saved...">
<polygon fill="#ffffff" stroke="#000000" points="140,-24.5 140,-54.5 244,-54.5 244,-24.5 140,-24.5"/>
<text text-anchor="start" x="148" y="-42.5" font-family="Helvetica,sans-Serif" font-size="10.00" fill="#000000">chig::GraphModule::</text>
<text text-anchor="middle" x="192" y="-31.5" font-family="Helvetica,sans-Serif" font-size="10.00" fill="#000000">sourceFilePath</text>
</a>
</g>
</g>
<!-- Node332&#45;&gt;Node333 -->
<g id="edge1" class="edge">
<title>Node332&#45;&gt;Node333</title>
<path fill="none" stroke="#191970" d="M114.3869,-39.5C122.8847,-39.5 131.5339,-39.5 139.8256,-39.5"/>
<polygon fill="#191970" stroke="#191970" points="114.1309,-36.0001 104.1308,-39.5 114.1308,-43.0001 114.1309,-36.0001"/>
</g>
<!-- Node334 -->
<g id="node3" class="node">
<title>Node334</title>
<g id="a_node3"><a xlink:href="structchig_1_1GraphModule.html#a4c3a1ba833c0bd7e9a3daf0fd42eb6c6" target="_top" xlink:title="Generate a llvm::Module from the module. ">
<polygon fill="#ffffff" stroke="#000000" points="280,-49.5 280,-79.5 384,-79.5 384,-49.5 280,-49.5"/>
<text text-anchor="start" x="288" y="-67.5" font-family="Helvetica,sans-Serif" font-size="10.00" fill="#000000">chig::GraphModule::</text>
<text text-anchor="middle" x="332" y="-56.5" font-family="Helvetica,sans-Serif" font-size="10.00" fill="#000000">generateModule</text>
</a>
</g>
</g>
<!-- Node333&#45;&gt;Node334 -->
<g id="edge2" class="edge">
<title>Node333&#45;&gt;Node334</title>
<path fill="none" stroke="#191970" d="M254.1068,-50.5905C262.6945,-52.124 271.4428,-53.6862 279.8256,-55.1831"/>
<polygon fill="#191970" stroke="#191970" points="254.5904,-47.1216 244.1308,-48.8091 253.3598,-54.0126 254.5904,-47.1216"/>
</g>
<!-- Node335 -->
<g id="node4" class="node">
<title>Node335</title>
<g id="a_node4"><a xlink:href="structchig_1_1GraphModule.html#accb1a64da697a29e28d78a9a09bd52ff" target="_top" xlink:title="Serialize to disk in the context. ">
<polygon fill="#ffffff" stroke="#000000" points="280,-.5 280,-30.5 384,-30.5 384,-.5 280,-.5"/>
<text text-anchor="start" x="288" y="-18.5" font-family="Helvetica,sans-Serif" font-size="10.00" fill="#000000">chig::GraphModule::</text>
<text text-anchor="middle" x="332" y="-7.5" font-family="Helvetica,sans-Serif" font-size="10.00" fill="#000000">saveToDisk</text>
</a>
</g>
</g>
<!-- Node333&#45;&gt;Node335 -->
<g id="edge3" class="edge">
<title>Node333&#45;&gt;Node335</title>
<path fill="none" stroke="#191970" d="M254.1068,-28.8531C262.6945,-27.3809 271.4428,-25.8812 279.8256,-24.4442"/>
<polygon fill="#191970" stroke="#191970" points="253.3957,-25.4239 244.1308,-30.5633 254.5785,-32.3232 253.3957,-25.4239"/>
</g>
</g>
</svg>
