<?xml version="1.0" encoding="UTF-8" standalone="no"?>
<!DOCTYPE svg PUBLIC "-//W3C//DTD SVG 1.1//EN"
 "http://www.w3.org/Graphics/SVG/1.1/DTD/svg11.dtd">
<!-- Generated by graphviz version 2.40.1 (20161225.0304)
 -->
<!-- Title: chig::GraphFunction::module Pages: 1 -->
<!--zoomable 484 -->
<svg id="main" version="1.1" xmlns="http://www.w3.org/2000/svg" xmlns:xlink="http://www.w3.org/1999/xlink" xml:space="preserve" onload="init(evt)">
<style type="text/css"><![CDATA[
.edge:hover path { stroke: red; }
.edge:hover polygon { stroke: red; fill: red; }
]]></style>
<script type="text/javascript"><![CDATA[
var edges = document.getElementsByTagName('g');
if (edges && edges.length) {
  for (var i=0;i<edges.length;i++) {
    if (edges[i].id.substr(0,4)=='edge') {
      edges[i].setAttribute('class','edge');
    }
  }
}
]]></script>
        <defs>
                <circle id="rim" cx="0" cy="0" r="7"/>
                <circle id="rim2" cx="0" cy="0" r="3.5"/>
                <g id="zoomPlus">
                        <use xlink:href="#rim" fill="#404040">
                                <set attributeName="fill" to="#808080" begin="zoomplus.mouseover" end="zoomplus.mouseout"/>
                        </use>
                        <path d="M-4,0h8M0,-4v8" fill="none" stroke="white" stroke-width="1.5" pointer-events="none"/>
                </g>
                <g id="zoomMin">
                        <use xlink:href="#rim" fill="#404040">
                                <set attributeName="fill" to="#808080" begin="zoomminus.mouseover" end="zoomminus.mouseout"/>
                        </use>
                        <path d="M-4,0h8" fill="none" stroke="white" stroke-width="1.5" pointer-events="none"/>
                </g>
                <g id="dirArrow">
                        <path fill="none" stroke="white" stroke-width="1.5" d="M0,-3.0v7 M-2.5,-0.5L0,-3.0L2.5,-0.5"/>
                </g>
               <g id="resetDef">
                       <use xlink:href="#rim2" fill="#404040">
                               <set attributeName="fill" to="#808080" begin="reset.mouseover" end="reset.mouseout"/>
                       </use>
               </g>
        </defs>

<script type="text/javascript">
var viewWidth = 1143;
var viewHeight = 484;
var sectionId = 'dynsection-37';
</script>
<script xlink:href="svgpan.js"/>
<svg id="graph" class="graph">
<g id="viewport">
<title>chig::GraphFunction::module</title>
<polygon fill="#ffffff" stroke="transparent" points="-4,4 -4,-480.4472 1139,-480.4472 1139,4 -4,4"/>
<!-- Node417 -->
<g id="node1" class="node">
<title>Node417</title>
<polygon fill="#bfbfbf" stroke="#000000" points="0,-184 0,-214 113,-214 113,-184 0,-184"/>
<text text-anchor="start" x="8" y="-202" font-family="Helvetica,sans-Serif" font-size="10.00" fill="#000000">chig::GraphFunction</text>
<text text-anchor="middle" x="56.5" y="-191" font-family="Helvetica,sans-Serif" font-size="10.00" fill="#000000">::module</text>
</g>
<!-- Node418 -->
<g id="node2" class="node">
<title>Node418</title>
<g id="a_node2"><a xlink:href="namespacechig.html#a4f26546c4bc76c31cc822d0365be0f30" target="_top" xlink:title="Compile the graph to an llvm::Function (usually called from JsonModule::generateModule) ...">
<polygon fill="#ffffff" stroke="#000000" points="855.5,-428.5 855.5,-447.5 978.5,-447.5 978.5,-428.5 855.5,-428.5"/>
<text text-anchor="middle" x="917" y="-435.5" font-family="Helvetica,sans-Serif" font-size="10.00" fill="#000000">chig::compileFunction</text>
</a>
</g>
</g>
<!-- Node417&#45;&gt;Node418 -->
<g id="edge1" class="edge">
<title>Node417&#45;&gt;Node418</title>
<path fill="none" stroke="#191970" d="M69.1044,-223.377C106.0107,-291.0013 220.9603,-476 374,-476 374,-476 374,-476 557.5,-476 670.7821,-476 699.8236,-477.789 812,-462 835.5163,-458.69 861.5415,-452.7576 881.7987,-447.6192"/>
<polygon fill="#191970" stroke="#191970" points="72.0405,-221.4462 64.2302,-214.2873 65.8715,-224.7542 72.0405,-221.4462"/>
</g>
<!-- Node420 -->
<g id="node4" class="node">
<title>Node420</title>
<g id="a_node4"><a xlink:href="structchig_1_1GraphFunction.html#a79cbfaf26d9a966ae8048c81dc09777e" target="_top" xlink:title="chig::GraphFunction\l::nodes">
<polygon fill="#ffffff" stroke="#000000" points="860.5,-247 860.5,-277 973.5,-277 973.5,-247 860.5,-247"/>
<text text-anchor="start" x="868.5" y="-265" font-family="Helvetica,sans-Serif" font-size="10.00" fill="#000000">chig::GraphFunction</text>
<text text-anchor="middle" x="917" y="-254" font-family="Helvetica,sans-Serif" font-size="10.00" fill="#000000">::nodes</text>
</a>
</g>
</g>
<!-- Node417&#45;&gt;Node420 -->
<g id="edge3" class="edge">
<title>Node417&#45;&gt;Node420</title>
<path fill="none" stroke="#191970" d="M112.1852,-181.0735C175.067,-162.4501 280.784,-136 374,-136 374,-136 374,-136 557.5,-136 670.9259,-136 709.5459,-106.3318 812,-155 833.0141,-164.9822 831.7733,-176.3288 848,-193 866.197,-211.6955 887.4703,-232.8675 901.5336,-246.771"/>
<polygon fill="#191970" stroke="#191970" points="111.0408,-177.7626 102.4693,-183.99 113.0534,-184.4671 111.0408,-177.7626"/>
</g>
<!-- Node421 -->
<g id="node5" class="node">
<title>Node421</title>
<g id="a_node5"><a xlink:href="structchig_1_1GraphFunction.html#ac4c14204d36773082b3fe93b48be4279" target="_top" xlink:title="Gets the nodes with a given type. ">
<polygon fill="#ffffff" stroke="#000000" points="150.5,-225 150.5,-255 263.5,-255 263.5,-225 150.5,-225"/>
<text text-anchor="start" x="158.5" y="-243" font-family="Helvetica,sans-Serif" font-size="10.00" fill="#000000">chig::GraphFunction</text>
<text text-anchor="middle" x="207" y="-232" font-family="Helvetica,sans-Serif" font-size="10.00" fill="#000000">::nodesWithType</text>
</a>
</g>
</g>
<!-- Node417&#45;&gt;Node421 -->
<g id="edge4" class="edge">
<title>Node417&#45;&gt;Node421</title>
<path fill="none" stroke="#191970" d="M121.6379,-216.7452C131.6989,-219.4861 142.0055,-222.2939 151.8206,-224.9677"/>
<polygon fill="#191970" stroke="#191970" points="122.2544,-213.2857 111.6861,-214.0341 120.4145,-220.0395 122.2544,-213.2857"/>
</g>
<!-- Node432 -->
<g id="node16" class="node">
<title>Node432</title>
<g id="a_node16"><a xlink:href="namespacechig.html#afcb097e8f99cd26ed33dd582f0d952f0" target="_top" xlink:title="Parse a colonated pair Example: lang:i32 would turn into {lang, i32}. ">
<polygon fill="#ffffff" stroke="#000000" points="149,-66.5 149,-85.5 265,-85.5 265,-66.5 149,-66.5"/>
<text text-anchor="middle" x="207" y="-73.5" font-family="Helvetica,sans-Serif" font-size="10.00" fill="#000000">chig::parseColonPair</text>
</a>
</g>
</g>
<!-- Node417&#45;&gt;Node432 -->
<g id="edge22" class="edge">
<title>Node417&#45;&gt;Node432</title>
<path fill="none" stroke="#191970" d="M82.1837,-177.3431C100.6717,-161.8217 126.2574,-140.4802 149,-122 164.5597,-109.3565 182.6936,-95.0407 194.4865,-85.7858"/>
<polygon fill="#191970" stroke="#191970" points="79.8772,-174.7096 74.4744,-183.8233 84.3814,-180.068 79.8772,-174.7096"/>
</g>
<!-- Node419 -->
<g id="node3" class="node">
<title>Node419</title>
<g id="a_node3"><a xlink:href="structchig_1_1GraphModule.html#a4c3a1ba833c0bd7e9a3daf0fd42eb6c6" target="_top" xlink:title="Generate a llvm::Module from the module. ">
<polygon fill="#ffffff" stroke="#000000" points="1022,-423 1022,-453 1135,-453 1135,-423 1022,-423"/>
<text text-anchor="start" x="1030" y="-441" font-family="Helvetica,sans-Serif" font-size="10.00" fill="#000000">chig::GraphModule::</text>
<text text-anchor="middle" x="1078.5" y="-430" font-family="Helvetica,sans-Serif" font-size="10.00" fill="#000000">generateModule</text>
</a>
</g>
</g>
<!-- Node418&#45;&gt;Node419 -->
<g id="edge2" class="edge">
<title>Node418&#45;&gt;Node419</title>
<path fill="none" stroke="#191970" d="M988.6605,-438C999.8043,-438 1011.182,-438 1021.9301,-438"/>
<polygon fill="#191970" stroke="#191970" points="988.517,-434.5001 978.5169,-438 988.5169,-441.5001 988.517,-434.5001"/>
</g>
<!-- Node421&#45;&gt;Node420 -->
<g id="edge5" class="edge">
<title>Node421&#45;&gt;Node420</title>
<path fill="none" stroke="#191970" d="M273.8754,-242.1431C282.9906,-242.4327 292.2256,-242.7247 301,-243 506.8646,-249.4599 751.4352,-256.948 860.0988,-260.2653"/>
<polygon fill="#191970" stroke="#191970" points="273.7723,-238.6382 263.666,-241.8183 273.5496,-245.6346 273.7723,-238.6382"/>
</g>
<!-- Node422 -->
<g id="node6" class="node">
<title>Node422</title>
<g id="a_node6"><a xlink:href="structchig_1_1GraphFunction.html#aa47e30665a08b671950c4e8411c7a4ba" target="_top" xlink:title="Gets the node with type lang:entry returns nullptr on failure Also returns nullptr if there are two e...">
<polygon fill="#ffffff" stroke="#000000" points="317.5,-335 317.5,-365 430.5,-365 430.5,-335 317.5,-335"/>
<text text-anchor="start" x="325.5" y="-353" font-family="Helvetica,sans-Serif" font-size="10.00" fill="#000000">chig::GraphFunction</text>
<text text-anchor="middle" x="374" y="-342" font-family="Helvetica,sans-Serif" font-size="10.00" fill="#000000">::entryNode</text>
</a>
</g>
</g>
<!-- Node421&#45;&gt;Node422 -->
<g id="edge6" class="edge">
<title>Node421&#45;&gt;Node422</title>
<path fill="none" stroke="#191970" d="M238.627,-260.8322C271.4535,-282.4544 321.9924,-315.7435 351.1384,-334.9415"/>
<polygon fill="#191970" stroke="#191970" points="240.1469,-257.6423 229.8705,-255.0644 236.2964,-263.4881 240.1469,-257.6423"/>
</g>
<!-- Node426 -->
<g id="node10" class="node">
<title>Node426</title>
<g id="a_node10"><a xlink:href="structchig_1_1GraphFunction.html#ae355b017f2859dabff4fa17791317d77" target="_top" xlink:title="Modify an exec output (change docstring) ">
<polygon fill="#ffffff" stroke="#000000" points="317.5,-203 317.5,-233 430.5,-233 430.5,-203 317.5,-203"/>
<text text-anchor="start" x="325.5" y="-221" font-family="Helvetica,sans-Serif" font-size="10.00" fill="#000000">chig::GraphFunction</text>
<text text-anchor="middle" x="374" y="-210" font-family="Helvetica,sans-Serif" font-size="10.00" fill="#000000">::modifyExecOutput</text>
</a>
</g>
</g>
<!-- Node421&#45;&gt;Node426 -->
<g id="edge14" class="edge">
<title>Node421&#45;&gt;Node426</title>
<path fill="none" stroke="#191970" d="M273.8575,-231.1924C288.2306,-229.299 303.2893,-227.3152 317.2357,-225.4779"/>
<polygon fill="#191970" stroke="#191970" points="272.9958,-227.7756 263.5386,-232.5518 273.9101,-234.7157 272.9958,-227.7756"/>
</g>
<!-- Node422&#45;&gt;Node418 -->
<g id="edge7" class="edge">
<title>Node422&#45;&gt;Node418</title>
<path fill="none" stroke="#191970" d="M399.4652,-371.5883C420.4046,-387.9197 451.6348,-409.1582 483,-419 610.5491,-459.0224 769.5296,-452.7317 855.2701,-445.0741"/>
<polygon fill="#191970" stroke="#191970" points="401.4195,-368.6697 391.4228,-365.1601 397.0489,-374.1377 401.4195,-368.6697"/>
</g>
<!-- Node422&#45;&gt;Node420 -->
<g id="edge10" class="edge">
<title>Node422&#45;&gt;Node420</title>
<path fill="none" stroke="#191970" d="M440.8153,-347.767C527.6314,-343.5781 683.3242,-331.6537 812,-298 833.9996,-292.2463 858.027,-284.1481 877.5387,-277.0892"/>
<polygon fill="#191970" stroke="#191970" points="440.4035,-344.2822 430.5759,-348.2404 440.7269,-351.2747 440.4035,-344.2822"/>
</g>
<!-- Node423 -->
<g id="node7" class="node">
<title>Node423</title>
<g id="a_node7"><a xlink:href="structchig_1_1GraphFunction.html#a1fd77fbd5bb46690fdc79cd9c6d35917" target="_top" xlink:title="Creates an entry node if it doesn&#39;t already exist, else just return it. ">
<polygon fill="#ffffff" stroke="#000000" points="493.5,-291 493.5,-321 621.5,-321 621.5,-291 493.5,-291"/>
<text text-anchor="start" x="501.5" y="-309" font-family="Helvetica,sans-Serif" font-size="10.00" fill="#000000">chig::GraphFunction</text>
<text text-anchor="middle" x="557.5" y="-298" font-family="Helvetica,sans-Serif" font-size="10.00" fill="#000000">::getOrInsertEntryNode</text>
</a>
</g>
</g>
<!-- Node422&#45;&gt;Node423 -->
<g id="edge8" class="edge">
<title>Node422&#45;&gt;Node423</title>
<path fill="none" stroke="#191970" d="M440.7541,-333.9936C458.3776,-329.7678 477.3332,-325.2226 494.7377,-321.0493"/>
<polygon fill="#191970" stroke="#191970" points="439.4616,-330.7042 430.5534,-336.4395 441.0938,-337.5112 439.4616,-330.7042"/>
</g>
<!-- Node424 -->
<g id="node8" class="node">
<title>Node424</title>
<g id="a_node8"><a xlink:href="namespacechig.html#ad868894793d664b6ae994f24fc781b4b" target="_top" xlink:title="The make sure that nodes are called before their outputs are used. ">
<polygon fill="#ffffff" stroke="#000000" points="483,-379 483,-409 632,-409 632,-379 483,-379"/>
<text text-anchor="start" x="491" y="-397" font-family="Helvetica,sans-Serif" font-size="10.00" fill="#000000">chig::validateFunctionNode</text>
<text text-anchor="middle" x="557.5" y="-386" font-family="Helvetica,sans-Serif" font-size="10.00" fill="#000000">Inputs</text>
</a>
</g>
</g>
<!-- Node422&#45;&gt;Node424 -->
<g id="edge11" class="edge">
<title>Node422&#45;&gt;Node424</title>
<path fill="none" stroke="#191970" d="M440.7541,-366.0064C458.3776,-370.2322 477.3332,-374.7774 494.7377,-378.9507"/>
<polygon fill="#191970" stroke="#191970" points="441.0938,-362.4888 430.5534,-363.5605 439.4616,-369.2958 441.0938,-362.4888"/>
</g>
<!-- Node423&#45;&gt;Node420 -->
<g id="edge9" class="edge">
<title>Node423&#45;&gt;Node420</title>
<path fill="none" stroke="#191970" d="M631.8246,-297.5406C682.5972,-291.6877 751.3952,-283.6119 812,-276 827.6925,-274.029 844.6913,-271.8024 860.3477,-269.7142"/>
<polygon fill="#191970" stroke="#191970" points="631.1304,-294.0973 621.5961,-298.7177 631.9307,-301.0514 631.1304,-294.0973"/>
</g>
<!-- Node425 -->
<g id="node9" class="node">
<title>Node425</title>
<g id="a_node9"><a xlink:href="namespacechig.html#afccf44a2370371aae836862d9731155e" target="_top" xlink:title="Validate that a function is compilable. ">
<polygon fill="#ffffff" stroke="#000000" points="678,-387.5 678,-406.5 802,-406.5 802,-387.5 678,-387.5"/>
<text text-anchor="middle" x="740" y="-394.5" font-family="Helvetica,sans-Serif" font-size="10.00" fill="#000000">chig::validateFunction</text>
</a>
</g>
</g>
<!-- Node424&#45;&gt;Node425 -->
<g id="edge12" class="edge">
<title>Node424&#45;&gt;Node425</title>
<path fill="none" stroke="#191970" d="M642.2765,-395.3936C654.269,-395.5907 666.4115,-395.7903 677.8696,-395.9787"/>
<polygon fill="#191970" stroke="#191970" points="642.3125,-391.8938 632.2563,-395.2289 642.1974,-398.8929 642.3125,-391.8938"/>
</g>
<!-- Node425&#45;&gt;Node418 -->
<g id="edge13" class="edge">
<title>Node425&#45;&gt;Node418</title>
<path fill="none" stroke="#191970" d="M791.0669,-408.8291C817.9916,-415.0658 850.5831,-422.6153 875.8642,-428.4714"/>
<polygon fill="#191970" stroke="#191970" points="791.5842,-405.3563 781.0522,-406.5093 790.0045,-412.1757 791.5842,-405.3563"/>
</g>
<!-- Node427 -->
<g id="node11" class="node">
<title>Node427</title>
<g id="a_node11"><a xlink:href="structchig_1_1GraphFunction.html#ae155f716b072ef5f8e3ba064ae7ef8c0" target="_top" xlink:title="Get the function exec outputs. ">
<polygon fill="#ffffff" stroke="#000000" points="501,-165 501,-195 614,-195 614,-165 501,-165"/>
<text text-anchor="start" x="509" y="-183" font-family="Helvetica,sans-Serif" font-size="10.00" fill="#000000">chig::GraphFunction</text>
<text text-anchor="middle" x="557.5" y="-172" font-family="Helvetica,sans-Serif" font-size="10.00" fill="#000000">::execOutputs</text>
</a>
</g>
</g>
<!-- Node426&#45;&gt;Node427 -->
<g id="edge15" class="edge">
<title>Node426&#45;&gt;Node427</title>
<path fill="none" stroke="#191970" d="M440.4189,-204.2457C460.2106,-200.1471 481.7085,-195.6952 500.8175,-191.7381"/>
<polygon fill="#191970" stroke="#191970" points="439.6358,-200.8335 430.5534,-206.2887 441.0554,-207.6881 439.6358,-200.8335"/>
</g>
<!-- Node428 -->
<g id="node12" class="node">
<title>Node428</title>
<g id="a_node12"><a xlink:href="structchig_1_1GraphFunction.html#ac7c52122fef0c74d9d0ee04af9a741c4" target="_top" xlink:title="Create a fresh NodeType for an exit. ">
<polygon fill="#ffffff" stroke="#000000" points="679,-203 679,-233 801,-233 801,-203 679,-203"/>
<text text-anchor="start" x="687" y="-221" font-family="Helvetica,sans-Serif" font-size="10.00" fill="#000000">chig::GraphFunction</text>
<text text-anchor="middle" x="740" y="-210" font-family="Helvetica,sans-Serif" font-size="10.00" fill="#000000">::createExitNodeType</text>
</a>
</g>
</g>
<!-- Node427&#45;&gt;Node428 -->
<g id="edge16" class="edge">
<title>Node427&#45;&gt;Node428</title>
<path fill="none" stroke="#191970" d="M624.0374,-193.8544C641.9557,-197.5853 661.2488,-201.6025 678.8574,-205.2689"/>
<polygon fill="#191970" stroke="#191970" points="624.7473,-190.4272 614.2437,-191.8151 623.3203,-197.2802 624.7473,-190.4272"/>
</g>
<!-- Node429 -->
<g id="node13" class="node">
<title>Node429</title>
<g id="a_node13"><a xlink:href="namespacechig.html#ad0fd9448ab1cd1d73351fad5967a7b9b" target="_top" xlink:title="Serialize a GraphFunction to json. ">
<polygon fill="#ffffff" stroke="#000000" points="668,-164.5 668,-183.5 812,-183.5 812,-164.5 668,-164.5"/>
<text text-anchor="middle" x="740" y="-171.5" font-family="Helvetica,sans-Serif" font-size="10.00" fill="#000000">chig::graphFunctionToJson</text>
</a>
</g>
</g>
<!-- Node427&#45;&gt;Node429 -->
<g id="edge19" class="edge">
<title>Node427&#45;&gt;Node429</title>
<path fill="none" stroke="#191970" d="M624.3677,-177.8016C638.5052,-177.3368 653.4854,-176.8443 667.8097,-176.3734"/>
<polygon fill="#191970" stroke="#191970" points="624.1233,-174.3077 614.2437,-178.1345 624.3534,-181.3039 624.1233,-174.3077"/>
</g>
<!-- Node428&#45;&gt;Node420 -->
<g id="edge18" class="edge">
<title>Node428&#45;&gt;Node420</title>
<path fill="none" stroke="#191970" d="M810.1244,-235.4321C826.821,-239.5826 844.4303,-243.9601 860.4314,-247.9378"/>
<polygon fill="#191970" stroke="#191970" points="810.9673,-232.0351 800.4183,-233.0192 809.2786,-238.8284 810.9673,-232.0351"/>
</g>
<!-- Node428&#45;&gt;Node426 -->
<g id="edge17" class="edge">
<title>Node428&#45;&gt;Node426</title>
<path fill="none" stroke="#191970" d="M668.3825,-218C598.8737,-218 494.765,-218 430.7859,-218"/>
<polygon fill="#191970" stroke="#191970" points="668.8035,-221.5001 678.8034,-218 668.8034,-214.5001 668.8035,-221.5001"/>
</g>
<!-- Node430 -->
<g id="node14" class="node">
<title>Node430</title>
<g id="a_node14"><a xlink:href="namespacechig.html#aaef3bb08f472ae32b2d3b292e69a007a" target="_top" xlink:title="Serialize a JsonModule to json. ">
<polygon fill="#ffffff" stroke="#000000" points="848,-164.5 848,-183.5 986,-183.5 986,-164.5 848,-164.5"/>
<text text-anchor="middle" x="917" y="-171.5" font-family="Helvetica,sans-Serif" font-size="10.00" fill="#000000">chig::graphModuleToJson</text>
</a>
</g>
</g>
<!-- Node429&#45;&gt;Node430 -->
<g id="edge20" class="edge">
<title>Node429&#45;&gt;Node430</title>
<path fill="none" stroke="#191970" d="M822.5224,-174C830.9926,-174 839.5362,-174 847.8409,-174"/>
<polygon fill="#191970" stroke="#191970" points="822.248,-170.5001 812.248,-174 822.2479,-177.5001 822.248,-170.5001"/>
</g>
<!-- Node431 -->
<g id="node15" class="node">
<title>Node431</title>
<g id="a_node15"><a xlink:href="structchig_1_1GraphModule.html#accb1a64da697a29e28d78a9a09bd52ff" target="_top" xlink:title="Serialize to disk in the context. ">
<polygon fill="#ffffff" stroke="#000000" points="1022,-159 1022,-189 1135,-189 1135,-159 1022,-159"/>
<text text-anchor="start" x="1030" y="-177" font-family="Helvetica,sans-Serif" font-size="10.00" fill="#000000">chig::GraphModule::</text>
<text text-anchor="middle" x="1078.5" y="-166" font-family="Helvetica,sans-Serif" font-size="10.00" fill="#000000">saveToDisk</text>
</a>
</g>
</g>
<!-- Node430&#45;&gt;Node431 -->
<g id="edge21" class="edge">
<title>Node430&#45;&gt;Node431</title>
<path fill="none" stroke="#191970" d="M996.4374,-174C1004.9913,-174 1013.5649,-174 1021.774,-174"/>
<polygon fill="#191970" stroke="#191970" points="996.4278,-170.5001 986.4278,-174 996.4278,-177.5001 996.4278,-170.5001"/>
</g>
<!-- Node433 -->
<g id="node17" class="node">
<title>Node433</title>
<g id="a_node17"><a xlink:href="namespacechig.html#a860a6f4d8180f1fb71729896291891b7" target="_top" xlink:title="Create a forward declaration of a function in a module with an empty graph. ">
<polygon fill="#ffffff" stroke="#000000" points="302,-39 302,-69 446,-69 446,-39 302,-39"/>
<text text-anchor="start" x="310" y="-57" font-family="Helvetica,sans-Serif" font-size="10.00" fill="#000000">chig::createGraphFunction</text>
<text text-anchor="middle" x="374" y="-46" font-family="Helvetica,sans-Serif" font-size="10.00" fill="#000000">DeclarationFromJson</text>
</a>
</g>
</g>
<!-- Node432&#45;&gt;Node433 -->
<g id="edge23" class="edge">
<title>Node432&#45;&gt;Node433</title>
<path fill="none" stroke="#191970" d="M275.4788,-66.9788C284.1651,-65.8345 293.0755,-64.6607 301.8174,-63.5091"/>
<polygon fill="#191970" stroke="#191970" points="274.8657,-63.5293 265.4085,-68.3055 275.78,-70.4693 274.8657,-63.5293"/>
</g>
<!-- Node436 -->
<g id="node20" class="node">
<title>Node436</title>
<g id="a_node20"><a xlink:href="namespacechig.html#a62056798e67720d435705b99f7e16cd0" target="_top" xlink:title="Load a GraphFunction–must already exist (use createGraphFunctionDeclarationFromJson) ...">
<polygon fill="#ffffff" stroke="#000000" points="301,-.5 301,-19.5 447,-19.5 447,-.5 301,-.5"/>
<text text-anchor="middle" x="374" y="-7.5" font-family="Helvetica,sans-Serif" font-size="10.00" fill="#000000">chig::jsonToGraphFunction</text>
</a>
</g>
</g>
<!-- Node432&#45;&gt;Node436 -->
<g id="edge26" class="edge">
<title>Node432&#45;&gt;Node436</title>
<path fill="none" stroke="#191970" d="M232.4782,-61.4352C251.0272,-51.2885 276.999,-38.0104 301,-29 310.5631,-25.4099 321.0756,-22.2436 331.0711,-19.5762"/>
<polygon fill="#191970" stroke="#191970" points="230.549,-58.5029 223.5046,-66.4166 233.9466,-64.6232 230.549,-58.5029"/>
</g>
<!-- Node437 -->
<g id="node21" class="node">
<title>Node437</title>
<g id="a_node21"><a xlink:href="namespacechig.html#a2af3c68005d33184e5e66b35c4737902" target="_top" xlink:title="Load a GraphStruct from json. ">
<polygon fill="#ffffff" stroke="#000000" points="307.5,-88.5 307.5,-107.5 440.5,-107.5 440.5,-88.5 307.5,-88.5"/>
<text text-anchor="middle" x="374" y="-95.5" font-family="Helvetica,sans-Serif" font-size="10.00" fill="#000000">chig::jsonToGraphStruct</text>
</a>
</g>
</g>
<!-- Node432&#45;&gt;Node437 -->
<g id="edge28" class="edge">
<title>Node432&#45;&gt;Node437</title>
<path fill="none" stroke="#191970" d="M275.3973,-85.0104C285.9459,-86.4001 296.8272,-87.8335 307.3373,-89.2181"/>
<polygon fill="#191970" stroke="#191970" points="275.78,-81.5307 265.4085,-83.6945 274.8657,-88.4707 275.78,-81.5307"/>
</g>
<!-- Node434 -->
<g id="node18" class="node">
<title>Node434</title>
<g id="a_node18"><a xlink:href="namespacechig.html#a1f28de74faa271cf31249935c9640c58" target="_top" xlink:title="Load a GraphModule from json. ">
<polygon fill="#ffffff" stroke="#000000" points="487.5,-44.5 487.5,-63.5 627.5,-63.5 627.5,-44.5 487.5,-44.5"/>
<text text-anchor="middle" x="557.5" y="-51.5" font-family="Helvetica,sans-Serif" font-size="10.00" fill="#000000">chig::jsonToGraphModule</text>
</a>
</g>
</g>
<!-- Node433&#45;&gt;Node434 -->
<g id="edge24" class="edge">
<title>Node433&#45;&gt;Node434</title>
<path fill="none" stroke="#191970" d="M456.5071,-54C466.8256,-54 477.3017,-54 487.4061,-54"/>
<polygon fill="#191970" stroke="#191970" points="456.2607,-50.5001 446.2606,-54 456.2606,-57.5001 456.2607,-50.5001"/>
</g>
<!-- Node435 -->
<g id="node19" class="node">
<title>Node435</title>
<g id="a_node19"><a xlink:href="structchig_1_1Context.html#a0d9ec5f2803a5777d2e389256ccb3e3b" target="_top" xlink:title="Load a module from JSON – avoid this use the string overload. ">
<polygon fill="#ffffff" stroke="#000000" points="670,-39 670,-69 810,-69 810,-39 670,-39"/>
<text text-anchor="start" x="678" y="-57" font-family="Helvetica,sans-Serif" font-size="10.00" fill="#000000">chig::Context::addModule</text>
<text text-anchor="middle" x="740" y="-46" font-family="Helvetica,sans-Serif" font-size="10.00" fill="#000000">FromJson</text>
</a>
</g>
</g>
<!-- Node434&#45;&gt;Node435 -->
<g id="edge25" class="edge">
<title>Node434&#45;&gt;Node435</title>
<path fill="none" stroke="#191970" d="M637.7182,-54C648.4231,-54 659.3335,-54 669.8486,-54"/>
<polygon fill="#191970" stroke="#191970" points="637.5374,-50.5001 627.5373,-54 637.5373,-57.5001 637.5374,-50.5001"/>
</g>
<!-- Node436&#45;&gt;Node434 -->
<g id="edge27" class="edge">
<title>Node436&#45;&gt;Node434</title>
<path fill="none" stroke="#191970" d="M423.9161,-21.969C453.4112,-29.0414 490.2456,-37.8736 517.7609,-44.4713"/>
<polygon fill="#191970" stroke="#191970" points="424.3573,-18.4756 413.8168,-19.5473 422.725,-25.2827 424.3573,-18.4756"/>
</g>
<!-- Node437&#45;&gt;Node434 -->
<g id="edge29" class="edge">
<title>Node437&#45;&gt;Node434</title>
<path fill="none" stroke="#191970" d="M423.9161,-86.031C453.4112,-78.9586 490.2456,-70.1264 517.7609,-63.5287"/>
<polygon fill="#191970" stroke="#191970" points="422.725,-82.7173 413.8168,-88.4527 424.3573,-89.5244 422.725,-82.7173"/>
</g>
</g>
</svg>
        <g id="navigator" transform="translate(0 0)" fill="#404254">
                <rect fill="#f2f5e9" fill-opacity="0.5" stroke="#606060" stroke-width=".5" x="0" y="0" width="60" height="60"/>
                <use id="zoomplus" xlink:href="#zoomPlus" x="17" y="9" onmousedown="handleZoom(evt,'in')"/>
                <use id="zoomminus" xlink:href="#zoomMin" x="42" y="9" onmousedown="handleZoom(evt,'out')"/>
                <use id="reset" xlink:href="#resetDef" x="30" y="36" onmousedown="handleReset()"/>
                <g id="arrowUp" xlink:href="#dirArrow" transform="translate(30 24)" onmousedown="handlePan(0,-1)">
                  <use xlink:href="#rim" fill="#404040">
                        <set attributeName="fill" to="#808080" begin="arrowUp.mouseover" end="arrowUp.mouseout"/>
                  </use>
                  <path fill="none" stroke="white" stroke-width="1.5" d="M0,-3.0v7 M-2.5,-0.5L0,-3.0L2.5,-0.5"/>
                </g>
                <g id="arrowRight" xlink:href="#dirArrow" transform="rotate(90) translate(36 -43)" onmousedown="handlePan(1,0)">
                  <use xlink:href="#rim" fill="#404040">
                        <set attributeName="fill" to="#808080" begin="arrowRight.mouseover" end="arrowRight.mouseout"/>
                  </use>
                  <path fill="none" stroke="white" stroke-width="1.5" d="M0,-3.0v7 M-2.5,-0.5L0,-3.0L2.5,-0.5"/>
                </g>
                <g id="arrowDown" xlink:href="#dirArrow" transform="rotate(180) translate(-30 -48)" onmousedown="handlePan(0,1)">
                  <use xlink:href="#rim" fill="#404040">
                        <set attributeName="fill" to="#808080" begin="arrowDown.mouseover" end="arrowDown.mouseout"/>
                  </use>
                  <path fill="none" stroke="white" stroke-width="1.5" d="M0,-3.0v7 M-2.5,-0.5L0,-3.0L2.5,-0.5"/>
                </g>
                <g id="arrowLeft" xlink:href="#dirArrow" transform="rotate(270) translate(-36 17)" onmousedown="handlePan(-1,0)">
                  <use xlink:href="#rim" fill="#404040">
                        <set attributeName="fill" to="#808080" begin="arrowLeft.mouseover" end="arrowLeft.mouseout"/>
                  </use>
                  <path fill="none" stroke="white" stroke-width="1.5" d="M0,-3.0v7 M-2.5,-0.5L0,-3.0L2.5,-0.5"/>
                </g>
        </g>
        <svg viewBox="0 0 15 15" width="100%" height="30px" preserveAspectRatio="xMaxYMin meet">
         <g id="arrow_out" transform="scale(0.3 0.3)">
          <a xlink:href="structchig_1_1GraphFunction_a2eddb58def91a9e0fce7212db3834827_icgraph_org.svg" target="_base">
           <rect id="button" ry="5" rx="5" y="6" x="6" height="38" width="38"
                fill="#f2f5e9" fill-opacity="0.5" stroke="#606060" stroke-width="1.0"/>
           <path id="arrow"
             d="M 11.500037,31.436501 C 11.940474,20.09759 22.043105,11.32322 32.158766,21.979434 L 37.068811,17.246167 C 37.068811,17.246167 37.088388,32 37.088388,32 L 22.160133,31.978069 C 22.160133,31.978069 26.997745,27.140456 26.997745,27.140456 C 18.528582,18.264221 13.291696,25.230495 11.500037,31.436501 z"
             style="fill:#404040;"/>
          </a>
         </g>
        </svg>
</svg>
