<?xml version="1.0" encoding="UTF-8" standalone="no"?>
<!DOCTYPE svg PUBLIC "-//W3C//DTD SVG 1.1//EN"
 "http://www.w3.org/Graphics/SVG/1.1/DTD/svg11.dtd">
<!-- Generated by graphviz version 2.40.1 (20161225.0304)
 -->
<!-- Title: chig::NodeType::makePure Pages: 1 -->
<svg width="367pt" height="66pt"
 viewBox="0.00 0.00 367.00 66.00" xmlns="http://www.w3.org/2000/svg" xmlns:xlink="http://www.w3.org/1999/xlink">
<g id="graph0" class="graph" transform="scale(1 1) rotate(0) translate(4 62)">
<title>chig::NodeType::makePure</title>
<polygon fill="#ffffff" stroke="transparent" points="-4,4 -4,-62 363,-62 363,4 -4,4"/>
<!-- Node89 -->
<g id="node1" class="node">
<title>Node89</title>
<polygon fill="#bfbfbf" stroke="#000000" points="0,-19.5 0,-38.5 148,-38.5 148,-19.5 0,-19.5"/>
<text text-anchor="middle" x="74" y="-26.5" font-family="Helvetica,sans-Serif" font-size="10.00" fill="#000000">chig::NodeType::makePure</text>
</g>
<!-- Node90 -->
<g id="node2" class="node">
<title>Node90</title>
<g id="a_node2"><a xlink:href="structchig_1_1NodeType.html#af2c90f6feb76c07a1a60aec4e6f44b18" target="_top" xlink:title="chig::NodeType::setExecInputs">
<polygon fill="#ffffff" stroke="#000000" points="188,-38.5 188,-57.5 355,-57.5 355,-38.5 188,-38.5"/>
<text text-anchor="middle" x="271.5" y="-45.5" font-family="Helvetica,sans-Serif" font-size="10.00" fill="#000000">chig::NodeType::setExecInputs</text>
</a>
</g>
</g>
<!-- Node89&#45;&gt;Node90 -->
<g id="edge1" class="edge">
<title>Node89&#45;&gt;Node90</title>
<path fill="none" stroke="#191970" d="M148.1036,-36.129C157.6896,-37.0511 167.6065,-38.0052 177.4608,-38.9532"/>
<polygon fill="#191970" stroke="#191970" points="177.4015,-42.4636 187.6908,-39.9373 178.0719,-35.4957 177.4015,-42.4636"/>
</g>
<!-- Node91 -->
<g id="node3" class="node">
<title>Node91</title>
<g id="a_node3"><a xlink:href="structchig_1_1NodeType.html#af0820866c93d3c2975aea01d582501a6" target="_top" xlink:title="chig::NodeType::setExecOutputs">
<polygon fill="#ffffff" stroke="#000000" points="184,-.5 184,-19.5 359,-19.5 359,-.5 184,-.5"/>
<text text-anchor="middle" x="271.5" y="-7.5" font-family="Helvetica,sans-Serif" font-size="10.00" fill="#000000">chig::NodeType::setExecOutputs</text>
</a>
</g>
</g>
<!-- Node89&#45;&gt;Node91 -->
<g id="edge2" class="edge">
<title>Node89&#45;&gt;Node91</title>
<path fill="none" stroke="#191970" d="M148.1036,-21.871C156.4428,-21.0688 165.0325,-20.2424 173.6135,-19.4169"/>
<polygon fill="#191970" stroke="#191970" points="174.0484,-22.8913 183.6673,-18.4497 173.378,-15.9235 174.0484,-22.8913"/>
</g>
</g>
</svg>
