<?xml version="1.0" encoding="UTF-8" standalone="no"?>
<!DOCTYPE svg PUBLIC "-//W3C//DTD SVG 1.1//EN"
 "http://www.w3.org/Graphics/SVG/1.1/DTD/svg11.dtd">
<!-- Generated by graphviz version 2.40.1 (20161225.0304)
 -->
<!-- Title: chig::GraphStruct::name Pages: 1 -->
<!--zoomable 181 -->
<svg id="main" version="1.1" xmlns="http://www.w3.org/2000/svg" xmlns:xlink="http://www.w3.org/1999/xlink" xml:space="preserve" onload="init(evt)">
<style type="text/css"><![CDATA[
.edge:hover path { stroke: red; }
.edge:hover polygon { stroke: red; fill: red; }
]]></style>
<script type="text/javascript"><![CDATA[
var edges = document.getElementsByTagName('g');
if (edges && edges.length) {
  for (var i=0;i<edges.length;i++) {
    if (edges[i].id.substr(0,4)=='edge') {
      edges[i].setAttribute('class','edge');
    }
  }
}
]]></script>
        <defs>
                <circle id="rim" cx="0" cy="0" r="7"/>
                <circle id="rim2" cx="0" cy="0" r="3.5"/>
                <g id="zoomPlus">
                        <use xlink:href="#rim" fill="#404040">
                                <set attributeName="fill" to="#808080" begin="zoomplus.mouseover" end="zoomplus.mouseout"/>
                        </use>
                        <path d="M-4,0h8M0,-4v8" fill="none" stroke="white" stroke-width="1.5" pointer-events="none"/>
                </g>
                <g id="zoomMin">
                        <use xlink:href="#rim" fill="#404040">
                                <set attributeName="fill" to="#808080" begin="zoomminus.mouseover" end="zoomminus.mouseout"/>
                        </use>
                        <path d="M-4,0h8" fill="none" stroke="white" stroke-width="1.5" pointer-events="none"/>
                </g>
                <g id="dirArrow">
                        <path fill="none" stroke="white" stroke-width="1.5" d="M0,-3.0v7 M-2.5,-0.5L0,-3.0L2.5,-0.5"/>
                </g>
               <g id="resetDef">
                       <use xlink:href="#rim2" fill="#404040">
                               <set attributeName="fill" to="#808080" begin="reset.mouseover" end="reset.mouseout"/>
                       </use>
               </g>
        </defs>

<script type="text/javascript">
var viewWidth = 918;
var viewHeight = 181;
var sectionId = 'dynsection-7';
</script>
<script xlink:href="svgpan.js"/>
<svg id="graph" class="graph">
<g id="viewport">
<title>chig::GraphStruct::name</title>
<polygon fill="#ffffff" stroke="transparent" points="-4,4 -4,-177 914,-177 914,4 -4,4"/>
<!-- Node59 -->
<g id="node1" class="node">
<title>Node59</title>
<polygon fill="#bfbfbf" stroke="#000000" points="0,-74 0,-93 134,-93 134,-74 0,-74"/>
<text text-anchor="middle" x="67" y="-81" font-family="Helvetica,sans-Serif" font-size="10.00" fill="#000000">chig::GraphStruct::name</text>
</g>
<!-- Node60 -->
<g id="node2" class="node">
<title>Node60</title>
<g id="a_node2"><a xlink:href="structchig_1_1GraphStruct.html#ab62184ef12dfbc341714656505a037cf" target="_top" xlink:title="Get the DataType of the struct. ">
<polygon fill="#ffffff" stroke="#000000" points="170,-93.5 170,-123.5 277,-123.5 277,-93.5 170,-93.5"/>
<text text-anchor="start" x="178" y="-111.5" font-family="Helvetica,sans-Serif" font-size="10.00" fill="#000000">chig::GraphStruct::</text>
<text text-anchor="middle" x="223.5" y="-100.5" font-family="Helvetica,sans-Serif" font-size="10.00" fill="#000000">dataType</text>
</a>
</g>
</g>
<!-- Node59&#45;&gt;Node60 -->
<g id="edge1" class="edge">
<title>Node59&#45;&gt;Node60</title>
<path fill="none" stroke="#191970" d="M136.7519,-94.6425C147.8925,-96.4221 159.2657,-98.2389 169.9537,-99.9463"/>
<polygon fill="#191970" stroke="#191970" points="137.0393,-91.1441 126.6124,-93.0227 135.9351,-98.0565 137.0393,-91.1441"/>
</g>
<!-- Node68 -->
<g id="node10" class="node">
<title>Node68</title>
<g id="a_node10"><a xlink:href="structchig_1_1GraphStruct.html#abf5c04e575b4e68df1a9c4d31fba2a0e" target="_top" xlink:title="GraphType constructor; don&#39;t use this use GraphModule::newStruct. ">
<polygon fill="#ffffff" stroke="#000000" points="170,-44.5 170,-74.5 277,-74.5 277,-44.5 170,-44.5"/>
<text text-anchor="start" x="178" y="-62.5" font-family="Helvetica,sans-Serif" font-size="10.00" fill="#000000">chig::GraphStruct::</text>
<text text-anchor="middle" x="223.5" y="-51.5" font-family="Helvetica,sans-Serif" font-size="10.00" fill="#000000">GraphStruct</text>
</a>
</g>
</g>
<!-- Node59&#45;&gt;Node68 -->
<g id="edge13" class="edge">
<title>Node59&#45;&gt;Node68</title>
<path fill="none" stroke="#191970" d="M139.5006,-72.3817C149.7692,-70.807 160.1705,-69.2119 169.9922,-67.7057"/>
<polygon fill="#191970" stroke="#191970" points="138.6565,-68.9701 129.3026,-73.9456 139.7176,-75.8893 138.6565,-68.9701"/>
</g>
<!-- Node61 -->
<g id="node3" class="node">
<title>Node61</title>
<g id="a_node3"><a xlink:href="structchig_1_1GraphStruct.html#a7c1a043c5bd131f444ebee3d9fac44ed" target="_top" xlink:title="Get the types the struct contains. ">
<polygon fill="#ffffff" stroke="#000000" points="313,-93.5 313,-123.5 420,-123.5 420,-93.5 313,-93.5"/>
<text text-anchor="start" x="321" y="-111.5" font-family="Helvetica,sans-Serif" font-size="10.00" fill="#000000">chig::GraphStruct::</text>
<text text-anchor="middle" x="366.5" y="-100.5" font-family="Helvetica,sans-Serif" font-size="10.00" fill="#000000">types</text>
</a>
</g>
</g>
<!-- Node60&#45;&gt;Node61 -->
<g id="edge2" class="edge">
<title>Node60&#45;&gt;Node61</title>
<path fill="none" stroke="#191970" d="M287.3238,-101.7847C295.7452,-101.7083 304.3103,-101.7581 312.5445,-101.934"/>
<polygon fill="#191970" stroke="#191970" points="287.1,-98.2876 277.1548,-101.9404 287.2072,-105.2868 287.1,-98.2876"/>
</g>
<!-- Node61&#45;&gt;Node60 -->
<g id="edge9" class="edge">
<title>Node61&#45;&gt;Node60</title>
<path fill="none" stroke="#191970" d="M302.3684,-115.218C293.9436,-115.2914 285.3808,-115.2385 277.1548,-115.0596"/>
<polygon fill="#191970" stroke="#191970" points="302.5979,-118.7151 312.5445,-115.066 302.4933,-111.7159 302.5979,-118.7151"/>
</g>
<!-- Node62 -->
<g id="node4" class="node">
<title>Node62</title>
<g id="a_node4"><a xlink:href="structchig_1_1GraphStruct.html#a1fd6254fcd1bc4497fb66b0a8f92eb0b" target="_top" xlink:title="Add a new type to the struct. ">
<polygon fill="#ffffff" stroke="#000000" points="468,-142.5 468,-172.5 575,-172.5 575,-142.5 468,-142.5"/>
<text text-anchor="start" x="476" y="-160.5" font-family="Helvetica,sans-Serif" font-size="10.00" fill="#000000">chig::GraphStruct::</text>
<text text-anchor="middle" x="521.5" y="-149.5" font-family="Helvetica,sans-Serif" font-size="10.00" fill="#000000">addType</text>
</a>
</g>
</g>
<!-- Node61&#45;&gt;Node62 -->
<g id="edge3" class="edge">
<title>Node61&#45;&gt;Node62</title>
<path fill="none" stroke="#191970" d="M429.9031,-121.8938C451.1308,-128.2996 473.8188,-135.8627 491.3041,-142.4768"/>
<polygon fill="#191970" stroke="#191970" points="430.8589,-118.5267 420.2765,-119.0396 428.869,-125.2379 430.8589,-118.5267"/>
</g>
<!-- Node63 -->
<g id="node5" class="node">
<title>Node63</title>
<g id="a_node5"><a xlink:href="structchig_1_1GraphStruct.html#a40f421df5b78913f266df3aefb8a3fd3" target="_top" xlink:title="Change the type and name of a type. ">
<polygon fill="#ffffff" stroke="#000000" points="468,-93.5 468,-123.5 575,-123.5 575,-93.5 468,-93.5"/>
<text text-anchor="start" x="476" y="-111.5" font-family="Helvetica,sans-Serif" font-size="10.00" fill="#000000">chig::GraphStruct::</text>
<text text-anchor="middle" x="521.5" y="-100.5" font-family="Helvetica,sans-Serif" font-size="10.00" fill="#000000">modifyType</text>
</a>
</g>
</g>
<!-- Node61&#45;&gt;Node63 -->
<g id="edge5" class="edge">
<title>Node61&#45;&gt;Node63</title>
<path fill="none" stroke="#191970" d="M430.5447,-101.8412C442.9359,-101.6716 455.8005,-101.7385 467.8186,-102.0417"/>
<polygon fill="#191970" stroke="#191970" points="430.2071,-98.347 420.2765,-102.0393 430.3421,-105.3457 430.2071,-98.347"/>
</g>
<!-- Node64 -->
<g id="node6" class="node">
<title>Node64</title>
<g id="a_node6"><a xlink:href="structchig_1_1GraphStruct.html#abefe7c0c45f61546d82649a27bea2119" target="_top" xlink:title="Remove a type from a struct. ">
<polygon fill="#ffffff" stroke="#000000" points="468,-44.5 468,-74.5 575,-74.5 575,-44.5 468,-44.5"/>
<text text-anchor="start" x="476" y="-62.5" font-family="Helvetica,sans-Serif" font-size="10.00" fill="#000000">chig::GraphStruct::</text>
<text text-anchor="middle" x="521.5" y="-51.5" font-family="Helvetica,sans-Serif" font-size="10.00" fill="#000000">removeType</text>
</a>
</g>
</g>
<!-- Node61&#45;&gt;Node64 -->
<g id="edge7" class="edge">
<title>Node61&#45;&gt;Node64</title>
<path fill="none" stroke="#191970" d="M406.161,-89.9851C424.8961,-83.2308 447.5408,-75.9115 467.7872,-70.0211"/>
<polygon fill="#191970" stroke="#191970" points="404.9244,-86.7106 396.7535,-93.455 407.3469,-93.2781 404.9244,-86.7106"/>
</g>
<!-- Node65 -->
<g id="node7" class="node">
<title>Node65</title>
<g id="a_node7"><a xlink:href="namespacechig.html#a47dace3c5d5158aba08f3ee10dd100e9" target="_top" xlink:title="Serialize a GraphStruct to json. ">
<polygon fill="#ffffff" stroke="#000000" points="456,-6 456,-25 587,-25 587,-6 456,-6"/>
<text text-anchor="middle" x="521.5" y="-13" font-family="Helvetica,sans-Serif" font-size="10.00" fill="#000000">chig::graphStructToJson</text>
</a>
</g>
</g>
<!-- Node61&#45;&gt;Node65 -->
<g id="edge10" class="edge">
<title>Node61&#45;&gt;Node65</title>
<path fill="none" stroke="#191970" d="M388.6031,-86.3075C405.7122,-70.2227 430.6891,-49.0096 456,-35.5 463.8669,-31.3011 472.7462,-27.8458 481.3695,-25.0589"/>
<polygon fill="#191970" stroke="#191970" points="386.1168,-83.8426 381.3229,-93.2908 390.9625,-88.8943 386.1168,-83.8426"/>
</g>
<!-- Node62&#45;&gt;Node61 -->
<g id="edge4" class="edge">
<title>Node62&#45;&gt;Node61</title>
<path fill="none" stroke="#191970" d="M458.163,-144.1261C436.9396,-137.7232 414.2492,-130.1608 396.7535,-123.545"/>
<polygon fill="#191970" stroke="#191970" points="457.2048,-147.4926 467.7872,-146.9789 459.1942,-140.7812 457.2048,-147.4926"/>
</g>
<!-- Node63&#45;&gt;Node61 -->
<g id="edge6" class="edge">
<title>Node63&#45;&gt;Node61</title>
<path fill="none" stroke="#191970" d="M457.5533,-115.1574C445.1646,-115.3283 432.2991,-115.2627 420.2765,-114.9607"/>
<polygon fill="#191970" stroke="#191970" points="457.8884,-118.6517 467.8186,-114.9583 457.7526,-111.653 457.8884,-118.6517"/>
</g>
<!-- Node64&#45;&gt;Node61 -->
<g id="edge8" class="edge">
<title>Node64&#45;&gt;Node61</title>
<path fill="none" stroke="#191970" d="M481.9013,-77.9925C463.1737,-84.7459 440.5291,-92.0667 420.2765,-97.9604"/>
<polygon fill="#191970" stroke="#191970" points="483.1338,-81.2684 491.3041,-74.5232 480.7107,-74.7012 483.1338,-81.2684"/>
</g>
<!-- Node66 -->
<g id="node8" class="node">
<title>Node66</title>
<g id="a_node8"><a xlink:href="namespacechig.html#aaef3bb08f472ae32b2d3b292e69a007a" target="_top" xlink:title="Serialize a JsonModule to json. ">
<polygon fill="#ffffff" stroke="#000000" points="623,-6 623,-25 761,-25 761,-6 623,-6"/>
<text text-anchor="middle" x="692" y="-13" font-family="Helvetica,sans-Serif" font-size="10.00" fill="#000000">chig::graphModuleToJson</text>
</a>
</g>
</g>
<!-- Node65&#45;&gt;Node66 -->
<g id="edge11" class="edge">
<title>Node65&#45;&gt;Node66</title>
<path fill="none" stroke="#191970" d="M597.6007,-15.5C606.0145,-15.5 614.5486,-15.5 622.87,-15.5"/>
<polygon fill="#191970" stroke="#191970" points="597.4198,-12.0001 587.4198,-15.5 597.4197,-19.0001 597.4198,-12.0001"/>
</g>
<!-- Node67 -->
<g id="node9" class="node">
<title>Node67</title>
<g id="a_node9"><a xlink:href="structchig_1_1GraphModule.html#accb1a64da697a29e28d78a9a09bd52ff" target="_top" xlink:title="Serialize to disk in the context. ">
<polygon fill="#ffffff" stroke="#000000" points="797,-.5 797,-30.5 910,-30.5 910,-.5 797,-.5"/>
<text text-anchor="start" x="805" y="-18.5" font-family="Helvetica,sans-Serif" font-size="10.00" fill="#000000">chig::GraphModule::</text>
<text text-anchor="middle" x="853.5" y="-7.5" font-family="Helvetica,sans-Serif" font-size="10.00" fill="#000000">saveToDisk</text>
</a>
</g>
</g>
<!-- Node66&#45;&gt;Node67 -->
<g id="edge12" class="edge">
<title>Node66&#45;&gt;Node67</title>
<path fill="none" stroke="#191970" d="M771.4374,-15.5C779.9913,-15.5 788.5649,-15.5 796.774,-15.5"/>
<polygon fill="#191970" stroke="#191970" points="771.4278,-12.0001 761.4278,-15.5 771.4278,-19.0001 771.4278,-12.0001"/>
</g>
</g>
</svg>
        <g id="navigator" transform="translate(0 0)" fill="#404254">
                <rect fill="#f2f5e9" fill-opacity="0.5" stroke="#606060" stroke-width=".5" x="0" y="0" width="60" height="60"/>
                <use id="zoomplus" xlink:href="#zoomPlus" x="17" y="9" onmousedown="handleZoom(evt,'in')"/>
                <use id="zoomminus" xlink:href="#zoomMin" x="42" y="9" onmousedown="handleZoom(evt,'out')"/>
                <use id="reset" xlink:href="#resetDef" x="30" y="36" onmousedown="handleReset()"/>
                <g id="arrowUp" xlink:href="#dirArrow" transform="translate(30 24)" onmousedown="handlePan(0,-1)">
                  <use xlink:href="#rim" fill="#404040">
                        <set attributeName="fill" to="#808080" begin="arrowUp.mouseover" end="arrowUp.mouseout"/>
                  </use>
                  <path fill="none" stroke="white" stroke-width="1.5" d="M0,-3.0v7 M-2.5,-0.5L0,-3.0L2.5,-0.5"/>
                </g>
                <g id="arrowRight" xlink:href="#dirArrow" transform="rotate(90) translate(36 -43)" onmousedown="handlePan(1,0)">
                  <use xlink:href="#rim" fill="#404040">
                        <set attributeName="fill" to="#808080" begin="arrowRight.mouseover" end="arrowRight.mouseout"/>
                  </use>
                  <path fill="none" stroke="white" stroke-width="1.5" d="M0,-3.0v7 M-2.5,-0.5L0,-3.0L2.5,-0.5"/>
                </g>
                <g id="arrowDown" xlink:href="#dirArrow" transform="rotate(180) translate(-30 -48)" onmousedown="handlePan(0,1)">
                  <use xlink:href="#rim" fill="#404040">
                        <set attributeName="fill" to="#808080" begin="arrowDown.mouseover" end="arrowDown.mouseout"/>
                  </use>
                  <path fill="none" stroke="white" stroke-width="1.5" d="M0,-3.0v7 M-2.5,-0.5L0,-3.0L2.5,-0.5"/>
                </g>
                <g id="arrowLeft" xlink:href="#dirArrow" transform="rotate(270) translate(-36 17)" onmousedown="handlePan(-1,0)">
                  <use xlink:href="#rim" fill="#404040">
                        <set attributeName="fill" to="#808080" begin="arrowLeft.mouseover" end="arrowLeft.mouseout"/>
                  </use>
                  <path fill="none" stroke="white" stroke-width="1.5" d="M0,-3.0v7 M-2.5,-0.5L0,-3.0L2.5,-0.5"/>
                </g>
        </g>
        <svg viewBox="0 0 15 15" width="100%" height="30px" preserveAspectRatio="xMaxYMin meet">
         <g id="arrow_out" transform="scale(0.3 0.3)">
          <a xlink:href="structchig_1_1GraphStruct_ac791660a36070de71e34e03c2a96233d_icgraph_org.svg" target="_base">
           <rect id="button" ry="5" rx="5" y="6" x="6" height="38" width="38"
                fill="#f2f5e9" fill-opacity="0.5" stroke="#606060" stroke-width="1.0"/>
           <path id="arrow"
             d="M 11.500037,31.436501 C 11.940474,20.09759 22.043105,11.32322 32.158766,21.979434 L 37.068811,17.246167 C 37.068811,17.246167 37.088388,32 37.088388,32 L 22.160133,31.978069 C 22.160133,31.978069 26.997745,27.140456 26.997745,27.140456 C 18.528582,18.264221 13.291696,25.230495 11.500037,31.436501 z"
             style="fill:#404040;"/>
          </a>
         </g>
        </svg>
</svg>
