<?xml version="1.0" encoding="UTF-8" standalone="no"?>
<!DOCTYPE svg PUBLIC "-//W3C//DTD SVG 1.1//EN"
 "http://www.w3.org/Graphics/SVG/1.1/DTD/svg11.dtd">
<!-- Generated by graphviz version 2.40.1 (20161225.0304)
 -->
<!-- Title: chig::GraphFunction::removeExecInput Pages: 1 -->
<!--zoomable 287 -->
<svg id="main" version="1.1" xmlns="http://www.w3.org/2000/svg" xmlns:xlink="http://www.w3.org/1999/xlink" xml:space="preserve" onload="init(evt)">
<style type="text/css"><![CDATA[
.edge:hover path { stroke: red; }
.edge:hover polygon { stroke: red; fill: red; }
]]></style>
<script type="text/javascript"><![CDATA[
var edges = document.getElementsByTagName('g');
if (edges && edges.length) {
  for (var i=0;i<edges.length;i++) {
    if (edges[i].id.substr(0,4)=='edge') {
      edges[i].setAttribute('class','edge');
    }
  }
}
]]></script>
        <defs>
                <circle id="rim" cx="0" cy="0" r="7"/>
                <circle id="rim2" cx="0" cy="0" r="3.5"/>
                <g id="zoomPlus">
                        <use xlink:href="#rim" fill="#404040">
                                <set attributeName="fill" to="#808080" begin="zoomplus.mouseover" end="zoomplus.mouseout"/>
                        </use>
                        <path d="M-4,0h8M0,-4v8" fill="none" stroke="white" stroke-width="1.5" pointer-events="none"/>
                </g>
                <g id="zoomMin">
                        <use xlink:href="#rim" fill="#404040">
                                <set attributeName="fill" to="#808080" begin="zoomminus.mouseover" end="zoomminus.mouseout"/>
                        </use>
                        <path d="M-4,0h8" fill="none" stroke="white" stroke-width="1.5" pointer-events="none"/>
                </g>
                <g id="dirArrow">
                        <path fill="none" stroke="white" stroke-width="1.5" d="M0,-3.0v7 M-2.5,-0.5L0,-3.0L2.5,-0.5"/>
                </g>
               <g id="resetDef">
                       <use xlink:href="#rim2" fill="#404040">
                               <set attributeName="fill" to="#808080" begin="reset.mouseover" end="reset.mouseout"/>
                       </use>
               </g>
        </defs>

<script type="text/javascript">
var viewWidth = 1250;
var viewHeight = 287;
var sectionId = 'dynsection-44';
</script>
<script xlink:href="svgpan.js"/>
<svg id="graph" class="graph">
<g id="viewport">
<title>chig::GraphFunction::removeExecInput</title>
<polygon fill="#ffffff" stroke="transparent" points="-4,4 -4,-283.0824 1246,-283.0824 1246,4 -4,4"/>
<!-- Node662 -->
<g id="node1" class="node">
<title>Node662</title>
<polygon fill="#bfbfbf" stroke="#000000" points="0,-146.5 0,-176.5 113,-176.5 113,-146.5 0,-146.5"/>
<text text-anchor="start" x="8" y="-164.5" font-family="Helvetica,sans-Serif" font-size="10.00" fill="#000000">chig::GraphFunction</text>
<text text-anchor="middle" x="56.5" y="-153.5" font-family="Helvetica,sans-Serif" font-size="10.00" fill="#000000">::removeExecInput</text>
</g>
<!-- Node663 -->
<g id="node2" class="node">
<title>Node663</title>
<g id="a_node2"><a xlink:href="structchig_1_1GraphFunction.html#a217197f9e54f57cd7a8751a335f4710b" target="_top" xlink:title="chig::GraphFunction\l::execInputs">
<polygon fill="#ffffff" stroke="#000000" points="149,-146.5 149,-176.5 262,-176.5 262,-146.5 149,-146.5"/>
<text text-anchor="start" x="157" y="-164.5" font-family="Helvetica,sans-Serif" font-size="10.00" fill="#000000">chig::GraphFunction</text>
<text text-anchor="middle" x="205.5" y="-153.5" font-family="Helvetica,sans-Serif" font-size="10.00" fill="#000000">::execInputs</text>
</a>
</g>
</g>
<!-- Node662&#45;&gt;Node663 -->
<g id="edge1" class="edge">
<title>Node662&#45;&gt;Node663</title>
<path fill="none" stroke="#191970" d="M123.5076,-161.5C131.9902,-161.5 140.6037,-161.5 148.9022,-161.5"/>
<polygon fill="#191970" stroke="#191970" points="123.2556,-158.0001 113.2556,-161.5 123.2555,-165.0001 123.2556,-158.0001"/>
</g>
<!-- Node664 -->
<g id="node3" class="node">
<title>Node664</title>
<g id="a_node3"><a xlink:href="structchig_1_1GraphFunction.html#abc41f524da8fd9b7308cb7abaa2b28c9" target="_top" xlink:title="chig::GraphFunction\l::createEntryNodeType">
<polygon fill="#ffffff" stroke="#000000" points="298,-211.5 298,-241.5 426,-241.5 426,-211.5 298,-211.5"/>
<text text-anchor="start" x="306" y="-229.5" font-family="Helvetica,sans-Serif" font-size="10.00" fill="#000000">chig::GraphFunction</text>
<text text-anchor="middle" x="362" y="-218.5" font-family="Helvetica,sans-Serif" font-size="10.00" fill="#000000">::createEntryNodeType</text>
</a>
</g>
</g>
<!-- Node663&#45;&gt;Node664 -->
<g id="edge2" class="edge">
<title>Node663&#45;&gt;Node664</title>
<path fill="none" stroke="#191970" d="M251.2828,-180.5152C274.9659,-190.3517 303.4724,-202.1914 325.6285,-211.3936"/>
<polygon fill="#191970" stroke="#191970" points="252.3753,-177.1791 241.7976,-176.5757 249.6902,-183.6437 252.3753,-177.1791"/>
</g>
<!-- Node672 -->
<g id="node11" class="node">
<title>Node672</title>
<g id="a_node11"><a xlink:href="structchig_1_1GraphFunction.html#af4417b3cb4bb432656d8d929a81a07f8" target="_top" xlink:title="chig::GraphFunction\l::fromJSON">
<polygon fill="#ffffff" stroke="#000000" points="779.5,-.5 779.5,-30.5 892.5,-30.5 892.5,-.5 779.5,-.5"/>
<text text-anchor="start" x="787.5" y="-18.5" font-family="Helvetica,sans-Serif" font-size="10.00" fill="#000000">chig::GraphFunction</text>
<text text-anchor="middle" x="836" y="-7.5" font-family="Helvetica,sans-Serif" font-size="10.00" fill="#000000">::fromJSON</text>
</a>
</g>
</g>
<!-- Node663&#45;&gt;Node672 -->
<g id="edge23" class="edge">
<title>Node663&#45;&gt;Node672</title>
<path fill="none" stroke="#191970" d="M271.9741,-143.9899C280.7171,-141.764 289.5665,-139.5498 298,-137.5 472.9618,-94.9753 681.0954,-49.1133 779.3217,-27.7496"/>
<polygon fill="#191970" stroke="#191970" points="270.9945,-140.6277 262.1758,-146.4997 272.7316,-147.4088 270.9945,-140.6277"/>
</g>
<!-- Node675 -->
<g id="node14" class="node">
<title>Node675</title>
<g id="a_node14"><a xlink:href="structchig_1_1GraphFunction.html#aa47e30665a08b671950c4e8411c7a4ba" target="_top" xlink:title="chig::GraphFunction\l::entryNode">
<polygon fill="#ffffff" stroke="#000000" points="305.5,-146.5 305.5,-176.5 418.5,-176.5 418.5,-146.5 305.5,-146.5"/>
<text text-anchor="start" x="313.5" y="-164.5" font-family="Helvetica,sans-Serif" font-size="10.00" fill="#000000">chig::GraphFunction</text>
<text text-anchor="middle" x="362" y="-153.5" font-family="Helvetica,sans-Serif" font-size="10.00" fill="#000000">::entryNode</text>
</a>
</g>
</g>
<!-- Node663&#45;&gt;Node675 -->
<g id="edge19" class="edge">
<title>Node663&#45;&gt;Node675</title>
<path fill="none" stroke="#191970" d="M272.0538,-161.5C283.1276,-161.5 294.5211,-161.5 305.3201,-161.5"/>
<polygon fill="#191970" stroke="#191970" points="272.0001,-158.0001 262.0001,-161.5 272.0001,-165.0001 272.0001,-158.0001"/>
</g>
<!-- Node665 -->
<g id="node4" class="node">
<title>Node665</title>
<g id="a_node4"><a xlink:href="structchig_1_1GraphFunction.html#a1fd77fbd5bb46690fdc79cd9c6d35917" target="_top" xlink:title="chig::GraphFunction\l::getOrInsertEntryNode">
<polygon fill="#ffffff" stroke="#000000" points="611,-228.5 611,-258.5 739,-258.5 739,-228.5 611,-228.5"/>
<text text-anchor="start" x="619" y="-246.5" font-family="Helvetica,sans-Serif" font-size="10.00" fill="#000000">chig::GraphFunction</text>
<text text-anchor="middle" x="675" y="-235.5" font-family="Helvetica,sans-Serif" font-size="10.00" fill="#000000">::getOrInsertEntryNode</text>
</a>
</g>
</g>
<!-- Node664&#45;&gt;Node665 -->
<g id="edge3" class="edge">
<title>Node664&#45;&gt;Node665</title>
<path fill="none" stroke="#191970" d="M436.148,-230.5272C489.3361,-233.416 560.27,-237.2687 610.9902,-240.0234"/>
<polygon fill="#191970" stroke="#191970" points="436.2706,-227.0288 426.0955,-229.9812 435.8909,-234.0185 436.2706,-227.0288"/>
</g>
<!-- Node666 -->
<g id="node5" class="node">
<title>Node666</title>
<g id="a_node5"><a xlink:href="structchig_1_1GraphFunction.html#a70b74dd7330f7afb2b3ab38feebd57c5" target="_top" xlink:title="chig::GraphFunction\l::insertNode">
<polygon fill="#ffffff" stroke="#000000" points="956.5,-228.5 956.5,-258.5 1069.5,-258.5 1069.5,-228.5 956.5,-228.5"/>
<text text-anchor="start" x="964.5" y="-246.5" font-family="Helvetica,sans-Serif" font-size="10.00" fill="#000000">chig::GraphFunction</text>
<text text-anchor="middle" x="1013" y="-235.5" font-family="Helvetica,sans-Serif" font-size="10.00" fill="#000000">::insertNode</text>
</a>
</g>
</g>
<!-- Node664&#45;&gt;Node666 -->
<g id="edge7" class="edge">
<title>Node664&#45;&gt;Node666</title>
<path fill="none" stroke="#191970" d="M435.9589,-243.4924C444.715,-245.2901 453.5423,-247.0047 462,-248.5 652.5437,-282.1879 704.5507,-286.6256 897,-266.5 916.5007,-264.4607 937.5951,-260.7421 956.3803,-256.881"/>
<polygon fill="#191970" stroke="#191970" points="436.6317,-240.0574 426.1268,-241.4346 435.1977,-246.909 436.6317,-240.0574"/>
</g>
<!-- Node668 -->
<g id="node7" class="node">
<title>Node668</title>
<g id="a_node7"><a xlink:href="structchig_1_1GraphFunction.html#a3765dc838314ff13457ac933b043f711" target="_top" xlink:title="chig::GraphFunction\l::modifyDataOutput">
<polygon fill="#ffffff" stroke="#000000" points="462,-146.5 462,-176.5 575,-176.5 575,-146.5 462,-146.5"/>
<text text-anchor="start" x="470" y="-164.5" font-family="Helvetica,sans-Serif" font-size="10.00" fill="#000000">chig::GraphFunction</text>
<text text-anchor="middle" x="518.5" y="-153.5" font-family="Helvetica,sans-Serif" font-size="10.00" fill="#000000">::modifyDataOutput</text>
</a>
</g>
</g>
<!-- Node664&#45;&gt;Node668 -->
<g id="edge8" class="edge">
<title>Node664&#45;&gt;Node668</title>
<path fill="none" stroke="#191970" d="M407.7828,-207.4848C431.4659,-197.6483 459.9724,-185.8086 482.1285,-176.6064"/>
<polygon fill="#191970" stroke="#191970" points="406.1902,-204.3563 398.2976,-211.4243 408.8753,-210.8209 406.1902,-204.3563"/>
</g>
<!-- Node665&#45;&gt;Node666 -->
<g id="edge4" class="edge">
<title>Node665&#45;&gt;Node666</title>
<path fill="none" stroke="#191970" d="M749.5495,-237.7914C811.9636,-236.2477 899.6946,-236.4202 956.4495,-238.309"/>
<polygon fill="#191970" stroke="#191970" points="749.273,-234.2975 739.3708,-238.0652 749.4613,-241.2949 749.273,-234.2975"/>
</g>
<!-- Node666&#45;&gt;Node665 -->
<g id="edge5" class="edge">
<title>Node666&#45;&gt;Node665</title>
<path fill="none" stroke="#191970" d="M946.3209,-249.001C886.301,-250.6881 798.6691,-250.6661 739.3708,-248.9348"/>
<polygon fill="#191970" stroke="#191970" points="946.5612,-252.4953 956.4495,-248.691 946.347,-245.4986 946.5612,-252.4953"/>
</g>
<!-- Node667 -->
<g id="node6" class="node">
<title>Node667</title>
<g id="a_node6"><a xlink:href="structchig_1_1GraphFunction.html#a449ab966907b5e32dd00d5f6bb1b3ede" target="_top" xlink:title="chig::GraphFunction\l::insertNode">
<polygon fill="#ffffff" stroke="#000000" points="1129,-228.5 1129,-258.5 1242,-258.5 1242,-228.5 1129,-228.5"/>
<text text-anchor="start" x="1137" y="-246.5" font-family="Helvetica,sans-Serif" font-size="10.00" fill="#000000">chig::GraphFunction</text>
<text text-anchor="middle" x="1185.5" y="-235.5" font-family="Helvetica,sans-Serif" font-size="10.00" fill="#000000">::insertNode</text>
</a>
</g>
</g>
<!-- Node666&#45;&gt;Node667 -->
<g id="edge6" class="edge">
<title>Node666&#45;&gt;Node667</title>
<path fill="none" stroke="#191970" d="M1080.3531,-243.5C1096.4063,-243.5 1113.3781,-243.5 1128.893,-243.5"/>
<polygon fill="#191970" stroke="#191970" points="1079.9611,-240.0001 1069.961,-243.5 1079.961,-247.0001 1079.9611,-240.0001"/>
</g>
<!-- Node669 -->
<g id="node8" class="node">
<title>Node669</title>
<g id="a_node8"><a xlink:href="structchig_1_1GraphFunction.html#ae734c04f29489efeb96227a20e2ada22" target="_top" xlink:title="chig::GraphFunction\l::dataOutputs">
<polygon fill="#ffffff" stroke="#000000" points="618.5,-126.5 618.5,-156.5 731.5,-156.5 731.5,-126.5 618.5,-126.5"/>
<text text-anchor="start" x="626.5" y="-144.5" font-family="Helvetica,sans-Serif" font-size="10.00" fill="#000000">chig::GraphFunction</text>
<text text-anchor="middle" x="675" y="-133.5" font-family="Helvetica,sans-Serif" font-size="10.00" fill="#000000">::dataOutputs</text>
</a>
</g>
</g>
<!-- Node668&#45;&gt;Node669 -->
<g id="edge9" class="edge">
<title>Node668&#45;&gt;Node669</title>
<path fill="none" stroke="#191970" d="M585.0538,-152.9947C596.1276,-151.5795 607.5211,-150.1235 618.3201,-148.7434"/>
<polygon fill="#191970" stroke="#191970" points="584.4757,-149.54 575.0001,-154.2795 585.3631,-156.4836 584.4757,-149.54"/>
</g>
<!-- Node670 -->
<g id="node9" class="node">
<title>Node670</title>
<g id="a_node9"><a xlink:href="structchig_1_1GraphFunction.html#ac808aecb5fec9cd3a2a1f59e18c90eee" target="_top" xlink:title="chig::GraphFunction\l::compile">
<polygon fill="#ffffff" stroke="#000000" points="956.5,-82.5 956.5,-112.5 1069.5,-112.5 1069.5,-82.5 956.5,-82.5"/>
<text text-anchor="start" x="964.5" y="-100.5" font-family="Helvetica,sans-Serif" font-size="10.00" fill="#000000">chig::GraphFunction</text>
<text text-anchor="middle" x="1013" y="-89.5" font-family="Helvetica,sans-Serif" font-size="10.00" fill="#000000">::compile</text>
</a>
</g>
</g>
<!-- Node669&#45;&gt;Node670 -->
<g id="edge10" class="edge">
<title>Node669&#45;&gt;Node670</title>
<path fill="none" stroke="#191970" d="M738.1686,-124.0325C750.3179,-121.1499 762.9966,-118.4657 775,-116.5 836.5636,-106.4183 907.9983,-101.6237 956.4206,-99.3842"/>
<polygon fill="#191970" stroke="#191970" points="736.9977,-120.7156 728.1142,-126.4891 738.6592,-127.5155 736.9977,-120.7156"/>
</g>
<!-- Node671 -->
<g id="node10" class="node">
<title>Node671</title>
<g id="a_node10"><a xlink:href="structchig_1_1GraphFunction.html#ac7c52122fef0c74d9d0ee04af9a741c4" target="_top" xlink:title="chig::GraphFunction\l::createExitNodeType">
<polygon fill="#ffffff" stroke="#000000" points="775,-175.5 775,-205.5 897,-205.5 897,-175.5 775,-175.5"/>
<text text-anchor="start" x="783" y="-193.5" font-family="Helvetica,sans-Serif" font-size="10.00" fill="#000000">chig::GraphFunction</text>
<text text-anchor="middle" x="836" y="-182.5" font-family="Helvetica,sans-Serif" font-size="10.00" fill="#000000">::createExitNodeType</text>
</a>
</g>
</g>
<!-- Node669&#45;&gt;Node671 -->
<g id="edge11" class="edge">
<title>Node669&#45;&gt;Node671</title>
<path fill="none" stroke="#191970" d="M734.5139,-159.6129C751.6301,-164.8222 770.1072,-170.4457 786.5448,-175.4484"/>
<polygon fill="#191970" stroke="#191970" points="735.2049,-156.1648 724.619,-156.6014 733.1667,-162.8615 735.2049,-156.1648"/>
</g>
<!-- Node669&#45;&gt;Node672 -->
<g id="edge14" class="edge">
<title>Node669&#45;&gt;Node672</title>
<path fill="none" stroke="#191970" d="M702.5932,-119.9053C735.0386,-94.5133 788.0646,-53.0147 816.5108,-30.7524"/>
<polygon fill="#191970" stroke="#191970" points="700.1383,-117.3821 694.4204,-126.3015 704.4525,-122.8946 700.1383,-117.3821"/>
</g>
<!-- Node674 -->
<g id="node13" class="node">
<title>Node674</title>
<g id="a_node13"><a xlink:href="structchig_1_1GraphFunction.html#a6aae3374651aca2f0973c81ecae2d848" target="_top" xlink:title="chig::GraphFunction\l::functionType">
<polygon fill="#ffffff" stroke="#000000" points="779.5,-126.5 779.5,-156.5 892.5,-156.5 892.5,-126.5 779.5,-126.5"/>
<text text-anchor="start" x="787.5" y="-144.5" font-family="Helvetica,sans-Serif" font-size="10.00" fill="#000000">chig::GraphFunction</text>
<text text-anchor="middle" x="836" y="-133.5" font-family="Helvetica,sans-Serif" font-size="10.00" fill="#000000">::functionType</text>
</a>
</g>
</g>
<!-- Node669&#45;&gt;Node674 -->
<g id="edge16" class="edge">
<title>Node669&#45;&gt;Node674</title>
<path fill="none" stroke="#191970" d="M742.0797,-141.5C754.5173,-141.5 767.3947,-141.5 779.4788,-141.5"/>
<polygon fill="#191970" stroke="#191970" points="741.7626,-138.0001 731.7626,-141.5 741.7625,-145.0001 741.7626,-138.0001"/>
</g>
<!-- Node671&#45;&gt;Node666 -->
<g id="edge12" class="edge">
<title>Node671&#45;&gt;Node666</title>
<path fill="none" stroke="#191970" d="M895.9993,-208.4659C917.661,-214.9522 941.8731,-222.2021 962.6267,-228.4165"/>
<polygon fill="#191970" stroke="#191970" points="896.8314,-205.0616 886.2476,-205.5459 894.8234,-211.7674 896.8314,-205.0616"/>
</g>
<!-- Node671&#45;&gt;Node668 -->
<g id="edge13" class="edge">
<title>Node671&#45;&gt;Node668</title>
<path fill="none" stroke="#191970" d="M764.798,-183.9965C707.5736,-178.7697 628.2661,-171.5259 575.2626,-166.6846"/>
<polygon fill="#191970" stroke="#191970" points="764.5793,-187.491 774.8562,-184.9152 765.2161,-180.52 764.5793,-187.491"/>
</g>
<!-- Node673 -->
<g id="node12" class="node">
<title>Node673</title>
<g id="a_node12"><a xlink:href="structchig_1_1JsonModule.html#ae9d14a6f432082a9489d3b5ccf5ae338" target="_top" xlink:title="chig::JsonModule::JsonModule">
<polygon fill="#ffffff" stroke="#000000" points="933,-6 933,-25 1093,-25 1093,-6 933,-6"/>
<text text-anchor="middle" x="1013" y="-13" font-family="Helvetica,sans-Serif" font-size="10.00" fill="#000000">chig::JsonModule::JsonModule</text>
</a>
</g>
</g>
<!-- Node672&#45;&gt;Node673 -->
<g id="edge15" class="edge">
<title>Node672&#45;&gt;Node673</title>
<path fill="none" stroke="#191970" d="M903.0049,-15.5C912.7764,-15.5 922.9202,-15.5 932.9192,-15.5"/>
<polygon fill="#191970" stroke="#191970" points="902.9782,-12.0001 892.9782,-15.5 902.9782,-19.0001 902.9782,-12.0001"/>
</g>
<!-- Node674&#45;&gt;Node666 -->
<g id="edge18" class="edge">
<title>Node674&#45;&gt;Node666</title>
<path fill="none" stroke="#191970" d="M885.2909,-160.7106C889.2978,-162.571 893.2459,-164.5097 897,-166.5 932.2377,-185.1816 970.2406,-211.7689 992.8057,-228.3101"/>
<polygon fill="#191970" stroke="#191970" points="886.457,-157.3985 875.8983,-156.5247 883.6076,-163.7923 886.457,-157.3985"/>
</g>
<!-- Node674&#45;&gt;Node670 -->
<g id="edge17" class="edge">
<title>Node674&#45;&gt;Node670</title>
<path fill="none" stroke="#191970" d="M903.1592,-124.8051C920.7232,-120.4389 939.4798,-115.7762 956.4314,-111.5622"/>
<polygon fill="#191970" stroke="#191970" points="901.8385,-121.5268 892.9782,-127.3359 903.5272,-128.32 901.8385,-121.5268"/>
</g>
<!-- Node675&#45;&gt;Node665 -->
<g id="edge21" class="edge">
<title>Node675&#45;&gt;Node665</title>
<path fill="none" stroke="#191970" d="M428.5358,-178.9311C484.7069,-193.6469 564.2921,-214.4967 617.682,-228.4838"/>
<polygon fill="#191970" stroke="#191970" points="429.2425,-175.4982 418.6819,-176.3496 427.4685,-182.2697 429.2425,-175.4982"/>
</g>
<!-- Node675&#45;&gt;Node668 -->
<g id="edge22" class="edge">
<title>Node675&#45;&gt;Node668</title>
<path fill="none" stroke="#191970" d="M428.5538,-161.5C439.6276,-161.5 451.0211,-161.5 461.8201,-161.5"/>
<polygon fill="#191970" stroke="#191970" points="428.5001,-158.0001 418.5001,-161.5 428.5001,-165.0001 428.5001,-158.0001"/>
</g>
<!-- Node675&#45;&gt;Node670 -->
<g id="edge20" class="edge">
<title>Node675&#45;&gt;Node670</title>
<path fill="none" stroke="#191970" d="M428.7069,-144.556C439.788,-142.0104 451.1894,-139.5542 462,-137.5 599.6692,-111.3401 635.0859,-107.3218 775,-99.5 836.8847,-96.0404 907.9591,-95.9483 956.2076,-96.4653"/>
<polygon fill="#191970" stroke="#191970" points="427.5861,-141.2236 418.6465,-146.9098 429.1809,-148.0395 427.5861,-141.2236"/>
</g>
</g>
</svg>
        <g id="navigator" transform="translate(0 0)" fill="#404254">
                <rect fill="#f2f5e9" fill-opacity="0.5" stroke="#606060" stroke-width=".5" x="0" y="0" width="60" height="60"/>
                <use id="zoomplus" xlink:href="#zoomPlus" x="17" y="9" onmousedown="handleZoom(evt,'in')"/>
                <use id="zoomminus" xlink:href="#zoomMin" x="42" y="9" onmousedown="handleZoom(evt,'out')"/>
                <use id="reset" xlink:href="#resetDef" x="30" y="36" onmousedown="handleReset()"/>
                <g id="arrowUp" xlink:href="#dirArrow" transform="translate(30 24)" onmousedown="handlePan(0,-1)">
                  <use xlink:href="#rim" fill="#404040">
                        <set attributeName="fill" to="#808080" begin="arrowUp.mouseover" end="arrowUp.mouseout"/>
                  </use>
                  <path fill="none" stroke="white" stroke-width="1.5" d="M0,-3.0v7 M-2.5,-0.5L0,-3.0L2.5,-0.5"/>
                </g>
                <g id="arrowRight" xlink:href="#dirArrow" transform="rotate(90) translate(36 -43)" onmousedown="handlePan(1,0)">
                  <use xlink:href="#rim" fill="#404040">
                        <set attributeName="fill" to="#808080" begin="arrowRight.mouseover" end="arrowRight.mouseout"/>
                  </use>
                  <path fill="none" stroke="white" stroke-width="1.5" d="M0,-3.0v7 M-2.5,-0.5L0,-3.0L2.5,-0.5"/>
                </g>
                <g id="arrowDown" xlink:href="#dirArrow" transform="rotate(180) translate(-30 -48)" onmousedown="handlePan(0,1)">
                  <use xlink:href="#rim" fill="#404040">
                        <set attributeName="fill" to="#808080" begin="arrowDown.mouseover" end="arrowDown.mouseout"/>
                  </use>
                  <path fill="none" stroke="white" stroke-width="1.5" d="M0,-3.0v7 M-2.5,-0.5L0,-3.0L2.5,-0.5"/>
                </g>
                <g id="arrowLeft" xlink:href="#dirArrow" transform="rotate(270) translate(-36 17)" onmousedown="handlePan(-1,0)">
                  <use xlink:href="#rim" fill="#404040">
                        <set attributeName="fill" to="#808080" begin="arrowLeft.mouseover" end="arrowLeft.mouseout"/>
                  </use>
                  <path fill="none" stroke="white" stroke-width="1.5" d="M0,-3.0v7 M-2.5,-0.5L0,-3.0L2.5,-0.5"/>
                </g>
        </g>
        <svg viewBox="0 0 15 15" width="100%" height="30px" preserveAspectRatio="xMaxYMin meet">
         <g id="arrow_out" transform="scale(0.3 0.3)">
          <a xlink:href="structchig_1_1GraphFunction_a390ce7b4174a06ecd00ae7c72af9e157_icgraph_org.svg" target="_base">
           <rect id="button" ry="5" rx="5" y="6" x="6" height="38" width="38"
                fill="#f2f5e9" fill-opacity="0.5" stroke="#606060" stroke-width="1.0"/>
           <path id="arrow"
             d="M 11.500037,31.436501 C 11.940474,20.09759 22.043105,11.32322 32.158766,21.979434 L 37.068811,17.246167 C 37.068811,17.246167 37.088388,32 37.088388,32 L 22.160133,31.978069 C 22.160133,31.978069 26.997745,27.140456 26.997745,27.140456 C 18.528582,18.264221 13.291696,25.230495 11.500037,31.436501 z"
             style="fill:#404040;"/>
          </a>
         </g>
        </svg>
</svg>
