<?xml version="1.0" encoding="UTF-8" standalone="no"?>
<!DOCTYPE svg PUBLIC "-//W3C//DTD SVG 1.1//EN"
 "http://www.w3.org/Graphics/SVG/1.1/DTD/svg11.dtd">
<!-- Generated by graphviz version 2.40.1 (20161225.0304)
 -->
<!-- Title: chig::NodeType::dataInputs Pages: 1 -->
<svg width="822pt" height="214pt"
 viewBox="0.00 0.00 822.00 214.00" xmlns="http://www.w3.org/2000/svg" xmlns:xlink="http://www.w3.org/1999/xlink">
<g id="graph0" class="graph" transform="scale(1 1) rotate(0) translate(4 210)">
<title>chig::NodeType::dataInputs</title>
<polygon fill="#ffffff" stroke="transparent" points="-4,4 -4,-210 818,-210 818,4 -4,4"/>
<!-- Node37 -->
<g id="node1" class="node">
<title>Node37</title>
<polygon fill="#bfbfbf" stroke="#000000" points="0,-93.5 0,-112.5 150,-112.5 150,-93.5 0,-93.5"/>
<text text-anchor="middle" x="75" y="-100.5" font-family="Helvetica,sans-Serif" font-size="10.00" fill="#000000">chig::NodeType::dataInputs</text>
</g>
<!-- Node38 -->
<g id="node2" class="node">
<title>Node38</title>
<g id="a_node2"><a xlink:href="namespacechig.html#a6820d7f55025ec401bff502f0e6eb10d" target="_top" xlink:title="chig::connectData">
<polygon fill="#ffffff" stroke="#000000" points="193.5,-142.5 193.5,-161.5 297.5,-161.5 297.5,-142.5 193.5,-142.5"/>
<text text-anchor="middle" x="245.5" y="-149.5" font-family="Helvetica,sans-Serif" font-size="10.00" fill="#000000">chig::connectData</text>
</a>
</g>
</g>
<!-- Node37&#45;&gt;Node38 -->
<g id="edge1" class="edge">
<title>Node37&#45;&gt;Node38</title>
<path fill="none" stroke="#191970" d="M118.2165,-115.42C147.4405,-123.8187 185.4543,-134.7435 212.3051,-142.4601"/>
<polygon fill="#191970" stroke="#191970" points="118.8566,-111.9623 108.2789,-112.564 116.9231,-118.69 118.8566,-111.9623"/>
</g>
<!-- Node41 -->
<g id="node5" class="node">
<title>Node41</title>
<g id="a_node5"><a xlink:href="namespacechig.html#a5977e55ae63e7f16a0ac342e2311e1b6" target="_top" xlink:title="chig::disconnectData">
<polygon fill="#ffffff" stroke="#000000" points="186,-93.5 186,-112.5 305,-112.5 305,-93.5 186,-93.5"/>
<text text-anchor="middle" x="245.5" y="-100.5" font-family="Helvetica,sans-Serif" font-size="10.00" fill="#000000">chig::disconnectData</text>
</a>
</g>
</g>
<!-- Node37&#45;&gt;Node41 -->
<g id="edge4" class="edge">
<title>Node37&#45;&gt;Node41</title>
<path fill="none" stroke="#191970" d="M160.4078,-103C169.0524,-103 177.6949,-103 185.9796,-103"/>
<polygon fill="#191970" stroke="#191970" points="160.2801,-99.5001 150.2801,-103 160.2801,-106.5001 160.2801,-99.5001"/>
</g>
<!-- Node47 -->
<g id="node11" class="node">
<title>Node47</title>
<g id="a_node11"><a xlink:href="structchig_1_1GraphFunction.html#af4417b3cb4bb432656d8d929a81a07f8" target="_top" xlink:title="chig::GraphFunction\l::fromJSON">
<polygon fill="#ffffff" stroke="#000000" points="189,-20 189,-50 302,-50 302,-20 189,-20"/>
<text text-anchor="start" x="197" y="-38" font-family="Helvetica,sans-Serif" font-size="10.00" fill="#000000">chig::GraphFunction</text>
<text text-anchor="middle" x="245.5" y="-27" font-family="Helvetica,sans-Serif" font-size="10.00" fill="#000000">::fromJSON</text>
</a>
</g>
</g>
<!-- Node37&#45;&gt;Node47 -->
<g id="edge12" class="edge">
<title>Node37&#45;&gt;Node47</title>
<path fill="none" stroke="#191970" d="M108.6069,-89.5967C137.1491,-78.2133 178.085,-61.8869 207.7498,-50.0558"/>
<polygon fill="#191970" stroke="#191970" points="107.0588,-86.4459 99.0669,-93.4015 109.652,-92.9479 107.0588,-86.4459"/>
</g>
<!-- Node39 -->
<g id="node3" class="node">
<title>Node39</title>
<g id="a_node3"><a xlink:href="structchig_1_1NodeInstance.html#a664d68ae63b0ec095892d17597ef9623" target="_top" xlink:title="Get the containing Context object. ">
<polygon fill="#ffffff" stroke="#000000" points="366,-137 366,-167 476,-167 476,-137 366,-137"/>
<text text-anchor="start" x="374" y="-155" font-family="Helvetica,sans-Serif" font-size="10.00" fill="#000000">chig::NodeInstance</text>
<text text-anchor="middle" x="421" y="-144" font-family="Helvetica,sans-Serif" font-size="10.00" fill="#000000">::context</text>
</a>
</g>
</g>
<!-- Node38&#45;&gt;Node39 -->
<g id="edge2" class="edge">
<title>Node38&#45;&gt;Node39</title>
<path fill="none" stroke="#191970" d="M307.7326,-152C326.7335,-152 347.4826,-152 365.9701,-152"/>
<polygon fill="#191970" stroke="#191970" points="307.6807,-148.5001 297.6806,-152 307.6806,-155.5001 307.6807,-148.5001"/>
</g>
<!-- Node40 -->
<g id="node4" class="node">
<title>Node40</title>
<g id="a_node4"><a xlink:href="structchig_1_1Graph.html#a3e0191ef63e6fa4137cebae20b27b9ed" target="_top" xlink:title="chig::Graph::Graph">
<polygon fill="#ffffff" stroke="#000000" points="367.5,-186.5 367.5,-205.5 474.5,-205.5 474.5,-186.5 367.5,-186.5"/>
<text text-anchor="middle" x="421" y="-193.5" font-family="Helvetica,sans-Serif" font-size="10.00" fill="#000000">chig::Graph::Graph</text>
</a>
</g>
</g>
<!-- Node38&#45;&gt;Node40 -->
<g id="edge3" class="edge">
<title>Node38&#45;&gt;Node40</title>
<path fill="none" stroke="#191970" d="M291.2926,-164.2145C307.0289,-168.3516 324.7678,-172.9484 341,-177 353.6038,-180.146 367.3557,-183.4562 379.8469,-186.4163"/>
<polygon fill="#191970" stroke="#191970" points="291.8386,-160.7389 281.2766,-161.5726 290.0532,-167.5074 291.8386,-160.7389"/>
</g>
<!-- Node41&#45;&gt;Node39 -->
<g id="edge5" class="edge">
<title>Node41&#45;&gt;Node39</title>
<path fill="none" stroke="#191970" d="M289.4737,-115.2776C313.027,-121.8537 342.2372,-130.0092 367.1431,-136.963"/>
<polygon fill="#191970" stroke="#191970" points="290.3277,-111.8822 279.7548,-112.564 288.4452,-118.6243 290.3277,-111.8822"/>
</g>
<!-- Node42 -->
<g id="node6" class="node">
<title>Node42</title>
<g id="a_node6"><a xlink:href="structchig_1_1GraphFunction.html#a398599d8fe1982a3c76462b1b2375a6e" target="_top" xlink:title="chig::GraphFunction\l::removeNode">
<polygon fill="#ffffff" stroke="#000000" points="364.5,-88 364.5,-118 477.5,-118 477.5,-88 364.5,-88"/>
<text text-anchor="start" x="372.5" y="-106" font-family="Helvetica,sans-Serif" font-size="10.00" fill="#000000">chig::GraphFunction</text>
<text text-anchor="middle" x="421" y="-95" font-family="Helvetica,sans-Serif" font-size="10.00" fill="#000000">::removeNode</text>
</a>
</g>
</g>
<!-- Node41&#45;&gt;Node42 -->
<g id="edge6" class="edge">
<title>Node41&#45;&gt;Node42</title>
<path fill="none" stroke="#191970" d="M315.8491,-103C331.9556,-103 348.8768,-103 364.3231,-103"/>
<polygon fill="#191970" stroke="#191970" points="315.4063,-99.5001 305.4063,-103 315.4063,-106.5001 315.4063,-99.5001"/>
</g>
<!-- Node46 -->
<g id="node10" class="node">
<title>Node46</title>
<g id="a_node10"><a xlink:href="structchig_1_1NodeInstance.html#ab7b23fb84fff7176f7a6e62ce3762153" target="_top" xlink:title="chig::NodeInstance\l::setType">
<polygon fill="#ffffff" stroke="#000000" points="366,-39 366,-69 476,-69 476,-39 366,-39"/>
<text text-anchor="start" x="374" y="-57" font-family="Helvetica,sans-Serif" font-size="10.00" fill="#000000">chig::NodeInstance</text>
<text text-anchor="middle" x="421" y="-46" font-family="Helvetica,sans-Serif" font-size="10.00" fill="#000000">::setType</text>
</a>
</g>
</g>
<!-- Node41&#45;&gt;Node46 -->
<g id="edge11" class="edge">
<title>Node41&#45;&gt;Node46</title>
<path fill="none" stroke="#191970" d="M289.4737,-90.7224C313.027,-84.1463 342.2372,-75.9908 367.1431,-69.037"/>
<polygon fill="#191970" stroke="#191970" points="288.4452,-87.3757 279.7548,-93.436 290.3277,-94.1178 288.4452,-87.3757"/>
</g>
<!-- Node43 -->
<g id="node7" class="node">
<title>Node43</title>
<g id="a_node7"><a xlink:href="structchig_1_1GraphFunction.html#a70b74dd7330f7afb2b3ab38feebd57c5" target="_top" xlink:title="chig::GraphFunction\l::insertNode">
<polygon fill="#ffffff" stroke="#000000" points="537,-88 537,-118 650,-118 650,-88 537,-88"/>
<text text-anchor="start" x="545" y="-106" font-family="Helvetica,sans-Serif" font-size="10.00" fill="#000000">chig::GraphFunction</text>
<text text-anchor="middle" x="593.5" y="-95" font-family="Helvetica,sans-Serif" font-size="10.00" fill="#000000">::insertNode</text>
</a>
</g>
</g>
<!-- Node42&#45;&gt;Node43 -->
<g id="edge7" class="edge">
<title>Node42&#45;&gt;Node43</title>
<path fill="none" stroke="#191970" d="M488.3531,-103C504.4063,-103 521.3781,-103 536.893,-103"/>
<polygon fill="#191970" stroke="#191970" points="487.9611,-99.5001 477.961,-103 487.961,-106.5001 487.9611,-99.5001"/>
</g>
<!-- Node44 -->
<g id="node8" class="node">
<title>Node44</title>
<g id="a_node8"><a xlink:href="structchig_1_1GraphFunction.html#a1fd77fbd5bb46690fdc79cd9c6d35917" target="_top" xlink:title="chig::GraphFunction\l::getOrInsertEntryNode">
<polygon fill="#ffffff" stroke="#000000" points="686,-88 686,-118 814,-118 814,-88 686,-88"/>
<text text-anchor="start" x="694" y="-106" font-family="Helvetica,sans-Serif" font-size="10.00" fill="#000000">chig::GraphFunction</text>
<text text-anchor="middle" x="750" y="-95" font-family="Helvetica,sans-Serif" font-size="10.00" fill="#000000">::getOrInsertEntryNode</text>
</a>
</g>
</g>
<!-- Node43&#45;&gt;Node44 -->
<g id="edge8" class="edge">
<title>Node43&#45;&gt;Node44</title>
<path fill="none" stroke="#191970" d="M660.2454,-96.3153C668.7427,-96.2182 677.4251,-96.2294 685.8798,-96.3488"/>
<polygon fill="#191970" stroke="#191970" points="659.9399,-92.8198 650.0001,-96.4873 660.0575,-99.8188 659.9399,-92.8198"/>
</g>
<!-- Node45 -->
<g id="node9" class="node">
<title>Node45</title>
<g id="a_node9"><a xlink:href="structchig_1_1GraphFunction.html#a449ab966907b5e32dd00d5f6bb1b3ede" target="_top" xlink:title="chig::GraphFunction\l::insertNode">
<polygon fill="#ffffff" stroke="#000000" points="693.5,-39 693.5,-69 806.5,-69 806.5,-39 693.5,-39"/>
<text text-anchor="start" x="701.5" y="-57" font-family="Helvetica,sans-Serif" font-size="10.00" fill="#000000">chig::GraphFunction</text>
<text text-anchor="middle" x="750" y="-46" font-family="Helvetica,sans-Serif" font-size="10.00" fill="#000000">::insertNode</text>
</a>
</g>
</g>
<!-- Node43&#45;&gt;Node45 -->
<g id="edge10" class="edge">
<title>Node43&#45;&gt;Node45</title>
<path fill="none" stroke="#191970" d="M651.3504,-84.8871C667.9883,-79.6778 685.9489,-74.0543 701.9271,-69.0516"/>
<polygon fill="#191970" stroke="#191970" points="650.2295,-81.5704 641.7322,-87.8986 652.3211,-88.2506 650.2295,-81.5704"/>
</g>
<!-- Node44&#45;&gt;Node43 -->
<g id="edge9" class="edge">
<title>Node44&#45;&gt;Node43</title>
<path fill="none" stroke="#191970" d="M675.7643,-109.7421C667.0999,-109.7762 658.3697,-109.6998 650.0001,-109.5127"/>
<polygon fill="#191970" stroke="#191970" points="675.9117,-113.241 685.8798,-109.6512 675.8487,-106.2413 675.9117,-113.241"/>
</g>
<!-- Node48 -->
<g id="node12" class="node">
<title>Node48</title>
<g id="a_node12"><a xlink:href="structchig_1_1JsonModule.html#ae9d14a6f432082a9489d3b5ccf5ae338" target="_top" xlink:title="chig::JsonModule::JsonModule">
<polygon fill="#ffffff" stroke="#000000" points="341,-.5 341,-19.5 501,-19.5 501,-.5 341,-.5"/>
<text text-anchor="middle" x="421" y="-7.5" font-family="Helvetica,sans-Serif" font-size="10.00" fill="#000000">chig::JsonModule::JsonModule</text>
</a>
</g>
</g>
<!-- Node47&#45;&gt;Node48 -->
<g id="edge13" class="edge">
<title>Node47&#45;&gt;Node48</title>
<path fill="none" stroke="#191970" d="M312.726,-25.4236C326.3333,-23.4853 340.6381,-21.4476 354.2296,-19.5115"/>
<polygon fill="#191970" stroke="#191970" points="311.8863,-22.0078 302.4798,-26.8832 312.8735,-28.9379 311.8863,-22.0078"/>
</g>
</g>
</svg>
