<?xml version="1.0" encoding="UTF-8" standalone="no"?>
<!DOCTYPE svg PUBLIC "-//W3C//DTD SVG 1.1//EN"
 "http://www.w3.org/Graphics/SVG/1.1/DTD/svg11.dtd">
<!-- Generated by graphviz version 2.40.1 (20161225.0304)
 -->
<!-- Title: chig::GraphFunction::modifyDataInput Pages: 1 -->
<!--zoomable 373 -->
<svg id="main" version="1.1" xmlns="http://www.w3.org/2000/svg" xmlns:xlink="http://www.w3.org/1999/xlink" xml:space="preserve" onload="init(evt)">
<style type="text/css"><![CDATA[
.edge:hover path { stroke: red; }
.edge:hover polygon { stroke: red; fill: red; }
]]></style>
<script type="text/javascript"><![CDATA[
var edges = document.getElementsByTagName('g');
if (edges && edges.length) {
  for (var i=0;i<edges.length;i++) {
    if (edges[i].id.substr(0,4)=='edge') {
      edges[i].setAttribute('class','edge');
    }
  }
}
]]></script>
        <defs>
                <circle id="rim" cx="0" cy="0" r="7"/>
                <circle id="rim2" cx="0" cy="0" r="3.5"/>
                <g id="zoomPlus">
                        <use xlink:href="#rim" fill="#404040">
                                <set attributeName="fill" to="#808080" begin="zoomplus.mouseover" end="zoomplus.mouseout"/>
                        </use>
                        <path d="M-4,0h8M0,-4v8" fill="none" stroke="white" stroke-width="1.5" pointer-events="none"/>
                </g>
                <g id="zoomMin">
                        <use xlink:href="#rim" fill="#404040">
                                <set attributeName="fill" to="#808080" begin="zoomminus.mouseover" end="zoomminus.mouseout"/>
                        </use>
                        <path d="M-4,0h8" fill="none" stroke="white" stroke-width="1.5" pointer-events="none"/>
                </g>
                <g id="dirArrow">
                        <path fill="none" stroke="white" stroke-width="1.5" d="M0,-3.0v7 M-2.5,-0.5L0,-3.0L2.5,-0.5"/>
                </g>
               <g id="resetDef">
                       <use xlink:href="#rim2" fill="#404040">
                               <set attributeName="fill" to="#808080" begin="reset.mouseover" end="reset.mouseout"/>
                       </use>
               </g>
        </defs>

<script type="text/javascript">
var viewWidth = 1431;
var viewHeight = 373;
var sectionId = 'dynsection-28';
</script>
<script xlink:href="svgpan.js"/>
<svg id="graph" class="graph">
<g id="viewport">
<title>chig::GraphFunction::modifyDataInput</title>
<polygon fill="#ffffff" stroke="transparent" points="-4,4 -4,-369.3258 1427,-369.3258 1427,4 -4,4"/>
<!-- Node319 -->
<g id="node1" class="node">
<title>Node319</title>
<polygon fill="#bfbfbf" stroke="#000000" points="0,-183.9846 0,-213.9846 113,-213.9846 113,-183.9846 0,-183.9846"/>
<text text-anchor="start" x="8" y="-201.9846" font-family="Helvetica,sans-Serif" font-size="10.00" fill="#000000">chig::GraphFunction</text>
<text text-anchor="middle" x="56.5" y="-190.9846" font-family="Helvetica,sans-Serif" font-size="10.00" fill="#000000">::modifyDataInput</text>
</g>
<!-- Node320 -->
<g id="node2" class="node">
<title>Node320</title>
<g id="a_node2"><a xlink:href="structchig_1_1GraphFunction.html#ad871a4642c83ead67062eb907b55443f" target="_top" xlink:title="Get the function data inputs in the format {type, docstring}. ">
<polygon fill="#ffffff" stroke="#000000" points="149,-183.9846 149,-213.9846 262,-213.9846 262,-183.9846 149,-183.9846"/>
<text text-anchor="start" x="157" y="-201.9846" font-family="Helvetica,sans-Serif" font-size="10.00" fill="#000000">chig::GraphFunction</text>
<text text-anchor="middle" x="205.5" y="-190.9846" font-family="Helvetica,sans-Serif" font-size="10.00" fill="#000000">::dataInputs</text>
</a>
</g>
</g>
<!-- Node319&#45;&gt;Node320 -->
<g id="edge1" class="edge">
<title>Node319&#45;&gt;Node320</title>
<path fill="none" stroke="#191970" d="M123.5076,-198.9846C131.9902,-198.9846 140.6037,-198.9846 148.9022,-198.9846"/>
<polygon fill="#191970" stroke="#191970" points="123.2556,-195.4847 113.2556,-198.9846 123.2555,-202.4847 123.2556,-195.4847"/>
</g>
<!-- Node321 -->
<g id="node3" class="node">
<title>Node321</title>
<g id="a_node3"><a xlink:href="namespacechig.html#a4f26546c4bc76c31cc822d0365be0f30" target="_top" xlink:title="Compile the graph to an llvm::Function (usually called from JsonModule::generateModule) ...">
<polygon fill="#ffffff" stroke="#000000" points="817.5,-265.4846 817.5,-284.4846 940.5,-284.4846 940.5,-265.4846 817.5,-265.4846"/>
<text text-anchor="middle" x="879" y="-272.4846" font-family="Helvetica,sans-Serif" font-size="10.00" fill="#000000">chig::compileFunction</text>
</a>
</g>
</g>
<!-- Node320&#45;&gt;Node321 -->
<g id="edge2" class="edge">
<title>Node320&#45;&gt;Node321</title>
<path fill="none" stroke="#191970" d="M231.0436,-220.3961C274.8558,-255.4232 368.661,-323.1631 462,-343.9846 596.0956,-373.8978 639.0217,-373.1706 771,-334.9846 808.2935,-324.1942 846.8401,-298.6685 866.2251,-284.6382"/>
<polygon fill="#191970" stroke="#191970" points="233.1835,-217.6252 223.2091,-214.0526 228.7786,-223.0655 233.1835,-217.6252"/>
</g>
<!-- Node324 -->
<g id="node6" class="node">
<title>Node324</title>
<g id="a_node6"><a xlink:href="structchig_1_1GraphFunction.html#abc41f524da8fd9b7308cb7abaa2b28c9" target="_top" xlink:title="Create a fresh NodeType for an entry. ">
<polygon fill="#ffffff" stroke="#000000" points="298,-117.9846 298,-147.9846 426,-147.9846 426,-117.9846 298,-117.9846"/>
<text text-anchor="start" x="306" y="-135.9846" font-family="Helvetica,sans-Serif" font-size="10.00" fill="#000000">chig::GraphFunction</text>
<text text-anchor="middle" x="362" y="-124.9846" font-family="Helvetica,sans-Serif" font-size="10.00" fill="#000000">::createEntryNodeType</text>
</a>
</g>
</g>
<!-- Node320&#45;&gt;Node324 -->
<g id="edge5" class="edge">
<title>Node320&#45;&gt;Node324</title>
<path fill="none" stroke="#191970" d="M250.6757,-179.9329C274.7033,-169.7998 303.8298,-157.5164 326.2628,-148.0559"/>
<polygon fill="#191970" stroke="#191970" points="249.2583,-176.732 241.4043,-183.8428 251.9785,-183.1819 249.2583,-176.732"/>
</g>
<!-- Node330 -->
<g id="node12" class="node">
<title>Node330</title>
<g id="a_node12"><a xlink:href="namespacechig.html#ad0fd9448ab1cd1d73351fad5967a7b9b" target="_top" xlink:title="Serialize a GraphFunction to json. ">
<polygon fill="#ffffff" stroke="#000000" points="807,-13.4846 807,-32.4846 951,-32.4846 951,-13.4846 807,-13.4846"/>
<text text-anchor="middle" x="879" y="-20.4846" font-family="Helvetica,sans-Serif" font-size="10.00" fill="#000000">chig::graphFunctionToJson</text>
</a>
</g>
</g>
<!-- Node320&#45;&gt;Node330 -->
<g id="edge28" class="edge">
<title>Node320&#45;&gt;Node330</title>
<path fill="none" stroke="#191970" d="M224.0956,-176.1356C241.4692,-155.9916 269.0156,-126.9707 298,-107.9846 433.3903,-19.2974 485.978,-20.3511 647,-3.9846 701.8286,1.5883 716.0977,.808 771,-3.9846 792.2417,-5.8388 815.5688,-9.7073 835.0908,-13.4727"/>
<polygon fill="#191970" stroke="#191970" points="221.3067,-174.013 217.5167,-183.9068 226.6493,-178.536 221.3067,-174.013"/>
</g>
<!-- Node333 -->
<g id="node15" class="node">
<title>Node333</title>
<g id="a_node15"><a xlink:href="structchig_1_1GraphFunction.html#aa47e30665a08b671950c4e8411c7a4ba" target="_top" xlink:title="Gets the node with type lang:entry returns nullptr on failure Also returns nullptr if there are two e...">
<polygon fill="#ffffff" stroke="#000000" points="305.5,-227.9846 305.5,-257.9846 418.5,-257.9846 418.5,-227.9846 305.5,-227.9846"/>
<text text-anchor="start" x="313.5" y="-245.9846" font-family="Helvetica,sans-Serif" font-size="10.00" fill="#000000">chig::GraphFunction</text>
<text text-anchor="middle" x="362" y="-234.9846" font-family="Helvetica,sans-Serif" font-size="10.00" fill="#000000">::entryNode</text>
</a>
</g>
</g>
<!-- Node320&#45;&gt;Node333 -->
<g id="edge18" class="edge">
<title>Node320&#45;&gt;Node333</title>
<path fill="none" stroke="#191970" d="M268.8533,-216.7964C282.025,-220.4996 295.7815,-224.3672 308.5545,-227.9584"/>
<polygon fill="#191970" stroke="#191970" points="269.4948,-213.3411 258.9207,-214.0038 267.6001,-220.0798 269.4948,-213.3411"/>
</g>
<!-- Node336 -->
<g id="node18" class="node">
<title>Node336</title>
<g id="a_node18"><a xlink:href="structchig_1_1GraphFunction.html#a6aae3374651aca2f0973c81ecae2d848" target="_top" xlink:title="Get the LLVM function type for the function. ">
<polygon fill="#ffffff" stroke="#000000" points="652.5,-215.9846 652.5,-245.9846 765.5,-245.9846 765.5,-215.9846 652.5,-215.9846"/>
<text text-anchor="start" x="660.5" y="-233.9846" font-family="Helvetica,sans-Serif" font-size="10.00" fill="#000000">chig::GraphFunction</text>
<text text-anchor="middle" x="709" y="-222.9846" font-family="Helvetica,sans-Serif" font-size="10.00" fill="#000000">::functionType</text>
</a>
</g>
</g>
<!-- Node320&#45;&gt;Node336 -->
<g id="edge25" class="edge">
<title>Node320&#45;&gt;Node336</title>
<path fill="none" stroke="#191970" d="M272.5616,-203.2467C372.5451,-209.6012 558.9213,-221.4463 652.4284,-227.3892"/>
<polygon fill="#191970" stroke="#191970" points="272.481,-199.7346 262.2791,-202.5932 272.037,-206.7205 272.481,-199.7346"/>
</g>
<!-- Node322 -->
<g id="node4" class="node">
<title>Node322</title>
<g id="a_node4"><a xlink:href="structchig_1_1GraphModule.html#a4c3a1ba833c0bd7e9a3daf0fd42eb6c6" target="_top" xlink:title="Generate a llvm::Module from the module. ">
<polygon fill="#ffffff" stroke="#000000" points="1161,-126.9846 1161,-156.9846 1274,-156.9846 1274,-126.9846 1161,-126.9846"/>
<text text-anchor="start" x="1169" y="-144.9846" font-family="Helvetica,sans-Serif" font-size="10.00" fill="#000000">chig::GraphModule::</text>
<text text-anchor="middle" x="1217.5" y="-133.9846" font-family="Helvetica,sans-Serif" font-size="10.00" fill="#000000">generateModule</text>
</a>
</g>
</g>
<!-- Node321&#45;&gt;Node322 -->
<g id="edge3" class="edge">
<title>Node321&#45;&gt;Node322</title>
<path fill="none" stroke="#191970" d="M912.8687,-261.6772C976.2409,-236.7777 1112.3468,-183.3003 1179.0533,-157.0907"/>
<polygon fill="#191970" stroke="#191970" points="911.3715,-258.505 903.3441,-265.4195 913.9314,-265.0201 911.3715,-258.505"/>
</g>
<!-- Node323 -->
<g id="node5" class="node">
<title>Node323</title>
<g id="a_node5"><a xlink:href="structchig_1_1GraphModule.html#a6d4a66c7e72fc4f83bff139baf819170" target="_top" xlink:title="Get the possible DataType names. ">
<polygon fill="#ffffff" stroke="#000000" points="1310,-91.9846 1310,-121.9846 1423,-121.9846 1423,-91.9846 1310,-91.9846"/>
<text text-anchor="start" x="1318" y="-109.9846" font-family="Helvetica,sans-Serif" font-size="10.00" fill="#000000">chig::GraphModule::</text>
<text text-anchor="middle" x="1366.5" y="-98.9846" font-family="Helvetica,sans-Serif" font-size="10.00" fill="#000000">typeNames</text>
</a>
</g>
</g>
<!-- Node322&#45;&gt;Node323 -->
<g id="edge4" class="edge">
<title>Node322&#45;&gt;Node323</title>
<path fill="none" stroke="#191970" d="M1284.228,-126.3102C1292.8009,-124.2965 1301.5125,-122.2501 1309.9022,-120.2794"/>
<polygon fill="#191970" stroke="#191970" points="1283.1902,-122.9586 1274.2556,-128.6527 1284.791,-129.7732 1283.1902,-122.9586"/>
</g>
<!-- Node325 -->
<g id="node7" class="node">
<title>Node325</title>
<g id="a_node7"><a xlink:href="structchig_1_1GraphFunction.html#a1fd77fbd5bb46690fdc79cd9c6d35917" target="_top" xlink:title="Creates an entry node if it doesn&#39;t already exist, else just return it. ">
<polygon fill="#ffffff" stroke="#000000" points="472.5,-139.9846 472.5,-169.9846 600.5,-169.9846 600.5,-139.9846 472.5,-139.9846"/>
<text text-anchor="start" x="480.5" y="-157.9846" font-family="Helvetica,sans-Serif" font-size="10.00" fill="#000000">chig::GraphFunction</text>
<text text-anchor="middle" x="536.5" y="-146.9846" font-family="Helvetica,sans-Serif" font-size="10.00" fill="#000000">::getOrInsertEntryNode</text>
</a>
</g>
</g>
<!-- Node324&#45;&gt;Node325 -->
<g id="edge6" class="edge">
<title>Node324&#45;&gt;Node325</title>
<path fill="none" stroke="#191970" d="M436.4109,-142.3659C448.3474,-143.8708 460.6116,-145.417 472.2835,-146.8885"/>
<polygon fill="#191970" stroke="#191970" points="436.8409,-138.8925 426.4816,-141.1141 435.9652,-145.8375 436.8409,-138.8925"/>
</g>
<!-- Node326 -->
<g id="node8" class="node">
<title>Node326</title>
<g id="a_node8"><a xlink:href="structchig_1_1GraphFunction.html#a79cbfaf26d9a966ae8048c81dc09777e" target="_top" xlink:title="chig::GraphFunction\l::nodes">
<polygon fill="#ffffff" stroke="#000000" points="999.5,-133.9846 999.5,-163.9846 1112.5,-163.9846 1112.5,-133.9846 999.5,-133.9846"/>
<text text-anchor="start" x="1007.5" y="-151.9846" font-family="Helvetica,sans-Serif" font-size="10.00" fill="#000000">chig::GraphFunction</text>
<text text-anchor="middle" x="1056" y="-140.9846" font-family="Helvetica,sans-Serif" font-size="10.00" fill="#000000">::nodes</text>
</a>
</g>
</g>
<!-- Node324&#45;&gt;Node326 -->
<g id="edge17" class="edge">
<title>Node324&#45;&gt;Node326</title>
<path fill="none" stroke="#191970" d="M436.1773,-130.5111C444.8813,-130.2944 453.6367,-130.11 462,-129.9846 528.2148,-128.9916 544.7928,-128.5718 611,-129.9846 750.7373,-132.9664 914.9887,-141.2093 999.4766,-145.7976"/>
<polygon fill="#191970" stroke="#191970" points="435.914,-127.0168 426.0097,-130.7788 436.0983,-134.0143 435.914,-127.0168"/>
</g>
<!-- Node327 -->
<g id="node9" class="node">
<title>Node327</title>
<g id="a_node9"><a xlink:href="structchig_1_1GraphFunction.html#ae355b017f2859dabff4fa17791317d77" target="_top" xlink:title="Modify an exec output (change docstring) ">
<polygon fill="#ffffff" stroke="#000000" points="480,-51.9846 480,-81.9846 593,-81.9846 593,-51.9846 480,-51.9846"/>
<text text-anchor="start" x="488" y="-69.9846" font-family="Helvetica,sans-Serif" font-size="10.00" fill="#000000">chig::GraphFunction</text>
<text text-anchor="middle" x="536.5" y="-58.9846" font-family="Helvetica,sans-Serif" font-size="10.00" fill="#000000">::modifyExecOutput</text>
</a>
</g>
</g>
<!-- Node324&#45;&gt;Node327 -->
<g id="edge8" class="edge">
<title>Node324&#45;&gt;Node327</title>
<path fill="none" stroke="#191970" d="M411.6617,-114.2014C438.5874,-104.0174 471.4179,-91.6001 496.6525,-82.0559"/>
<polygon fill="#191970" stroke="#191970" points="410.149,-111.0315 402.0338,-117.8428 412.6254,-117.5788 410.149,-111.0315"/>
</g>
<!-- Node325&#45;&gt;Node326 -->
<g id="edge7" class="edge">
<title>Node325&#45;&gt;Node326</title>
<path fill="none" stroke="#191970" d="M610.9233,-154.125C715.9136,-152.9124 905.2005,-150.7262 999.4683,-149.6375"/>
<polygon fill="#191970" stroke="#191970" points="610.6808,-150.6275 600.7219,-154.2428 610.7617,-157.627 610.6808,-150.6275"/>
</g>
<!-- Node328 -->
<g id="node10" class="node">
<title>Node328</title>
<g id="a_node10"><a xlink:href="structchig_1_1GraphFunction.html#ae155f716b072ef5f8e3ba064ae7ef8c0" target="_top" xlink:title="Get the function exec outputs. ">
<polygon fill="#ffffff" stroke="#000000" points="652.5,-13.9846 652.5,-43.9846 765.5,-43.9846 765.5,-13.9846 652.5,-13.9846"/>
<text text-anchor="start" x="660.5" y="-31.9846" font-family="Helvetica,sans-Serif" font-size="10.00" fill="#000000">chig::GraphFunction</text>
<text text-anchor="middle" x="709" y="-20.9846" font-family="Helvetica,sans-Serif" font-size="10.00" fill="#000000">::execOutputs</text>
</a>
</g>
</g>
<!-- Node327&#45;&gt;Node328 -->
<g id="edge9" class="edge">
<title>Node327&#45;&gt;Node328</title>
<path fill="none" stroke="#191970" d="M603.3947,-52.2484C619.5829,-48.6823 636.7303,-44.9049 652.393,-41.4545"/>
<polygon fill="#191970" stroke="#191970" points="602.4739,-48.8672 593.461,-54.4366 603.9799,-55.7033 602.4739,-48.8672"/>
</g>
<!-- Node329 -->
<g id="node11" class="node">
<title>Node329</title>
<g id="a_node11"><a xlink:href="structchig_1_1GraphFunction.html#ac7c52122fef0c74d9d0ee04af9a741c4" target="_top" xlink:title="Create a fresh NodeType for an exit. ">
<polygon fill="#ffffff" stroke="#000000" points="818,-51.9846 818,-81.9846 940,-81.9846 940,-51.9846 818,-51.9846"/>
<text text-anchor="start" x="826" y="-69.9846" font-family="Helvetica,sans-Serif" font-size="10.00" fill="#000000">chig::GraphFunction</text>
<text text-anchor="middle" x="879" y="-58.9846" font-family="Helvetica,sans-Serif" font-size="10.00" fill="#000000">::createExitNodeType</text>
</a>
</g>
</g>
<!-- Node328&#45;&gt;Node329 -->
<g id="edge10" class="edge">
<title>Node328&#45;&gt;Node329</title>
<path fill="none" stroke="#191970" d="M775.6235,-43.8769C789.5788,-46.9963 804.2281,-50.2709 817.9675,-53.342"/>
<polygon fill="#191970" stroke="#191970" points="776.1302,-40.4039 765.6075,-41.638 774.6032,-47.2353 776.1302,-40.4039"/>
</g>
<!-- Node328&#45;&gt;Node330 -->
<g id="edge13" class="edge">
<title>Node328&#45;&gt;Node330</title>
<path fill="none" stroke="#191970" d="M775.703,-26.6304C785.9459,-26.2688 796.561,-25.8942 806.9143,-25.5288"/>
<polygon fill="#191970" stroke="#191970" points="775.4778,-23.136 765.6075,-26.9867 775.7248,-30.1317 775.4778,-23.136"/>
</g>
<!-- Node329&#45;&gt;Node326 -->
<g id="edge12" class="edge">
<title>Node329&#45;&gt;Node326</title>
<path fill="none" stroke="#191970" d="M925.9039,-86.0091C934.3017,-89.5625 942.9412,-93.3149 951,-96.9846 976.9183,-108.787 1005.891,-123.2323 1026.826,-133.9"/>
<polygon fill="#191970" stroke="#191970" points="927.1448,-82.7343 916.5691,-82.0969 924.439,-89.1902 927.1448,-82.7343"/>
</g>
<!-- Node329&#45;&gt;Node327 -->
<g id="edge11" class="edge">
<title>Node329&#45;&gt;Node327</title>
<path fill="none" stroke="#191970" d="M807.3625,-66.9846C743.6473,-66.9846 651.7303,-66.9846 593.0569,-66.9846"/>
<polygon fill="#191970" stroke="#191970" points="807.7309,-70.4847 817.7308,-66.9846 807.7308,-63.4847 807.7309,-70.4847"/>
</g>
<!-- Node331 -->
<g id="node13" class="node">
<title>Node331</title>
<g id="a_node13"><a xlink:href="namespacechig.html#aaef3bb08f472ae32b2d3b292e69a007a" target="_top" xlink:title="Serialize a JsonModule to json. ">
<polygon fill="#ffffff" stroke="#000000" points="987,-54.4846 987,-73.4846 1125,-73.4846 1125,-54.4846 987,-54.4846"/>
<text text-anchor="middle" x="1056" y="-61.4846" font-family="Helvetica,sans-Serif" font-size="10.00" fill="#000000">chig::graphModuleToJson</text>
</a>
</g>
</g>
<!-- Node330&#45;&gt;Node331 -->
<g id="edge14" class="edge">
<title>Node330&#45;&gt;Node331</title>
<path fill="none" stroke="#191970" d="M930.0669,-34.8136C956.9916,-41.0504 989.5831,-48.5999 1014.8642,-54.4559"/>
<polygon fill="#191970" stroke="#191970" points="930.5842,-31.3408 920.0522,-32.4939 929.0045,-38.1603 930.5842,-31.3408"/>
</g>
<!-- Node332 -->
<g id="node14" class="node">
<title>Node332</title>
<g id="a_node14"><a xlink:href="structchig_1_1GraphModule.html#accb1a64da697a29e28d78a9a09bd52ff" target="_top" xlink:title="Serialize to disk in the context. ">
<polygon fill="#ffffff" stroke="#000000" points="1161,-67.9846 1161,-97.9846 1274,-97.9846 1274,-67.9846 1161,-67.9846"/>
<text text-anchor="start" x="1169" y="-85.9846" font-family="Helvetica,sans-Serif" font-size="10.00" fill="#000000">chig::GraphModule::</text>
<text text-anchor="middle" x="1217.5" y="-74.9846" font-family="Helvetica,sans-Serif" font-size="10.00" fill="#000000">saveToDisk</text>
</a>
</g>
</g>
<!-- Node331&#45;&gt;Node332 -->
<g id="edge15" class="edge">
<title>Node331&#45;&gt;Node332</title>
<path fill="none" stroke="#191970" d="M1135.4374,-73.3302C1143.9913,-74.3365 1152.5649,-75.3452 1160.774,-76.3109"/>
<polygon fill="#191970" stroke="#191970" points="1135.7683,-69.845 1125.4278,-72.1526 1134.9503,-76.7971 1135.7683,-69.845"/>
</g>
<!-- Node332&#45;&gt;Node323 -->
<g id="edge16" class="edge">
<title>Node332&#45;&gt;Node323</title>
<path fill="none" stroke="#191970" d="M1284.228,-93.7327C1292.8009,-95.1136 1301.5125,-96.5168 1309.9022,-97.8682"/>
<polygon fill="#191970" stroke="#191970" points="1284.6849,-90.2613 1274.2556,-92.1264 1283.5717,-97.1722 1284.6849,-90.2613"/>
</g>
<!-- Node333&#45;&gt;Node321 -->
<g id="edge19" class="edge">
<title>Node333&#45;&gt;Node321</title>
<path fill="none" stroke="#191970" d="M428.6764,-248.5272C439.8012,-249.3921 451.2244,-250.2436 462,-250.9846 588.0608,-259.6536 735.7091,-267.6405 817.1528,-271.8575"/>
<polygon fill="#191970" stroke="#191970" points="428.8146,-245.0273 418.5708,-247.7318 428.2653,-252.0057 428.8146,-245.0273"/>
</g>
<!-- Node333&#45;&gt;Node325 -->
<g id="edge20" class="edge">
<title>Node333&#45;&gt;Node325</title>
<path fill="none" stroke="#191970" d="M401.059,-223.2872C432.9864,-207.1863 477.4581,-184.7593 506.6024,-170.0619"/>
<polygon fill="#191970" stroke="#191970" points="399.3505,-220.2289 391.9976,-227.8568 402.5025,-226.4791 399.3505,-220.2289"/>
</g>
<!-- Node333&#45;&gt;Node326 -->
<g id="edge21" class="edge">
<title>Node333&#45;&gt;Node326</title>
<path fill="none" stroke="#191970" d="M428.5856,-234.3353C577.2839,-215.0121 925.3769,-169.7328 951,-165.9846 966.714,-163.6859 983.7198,-161.0131 999.3761,-158.477"/>
<polygon fill="#191970" stroke="#191970" points="428.1234,-230.8658 418.6578,-235.6253 429.0255,-237.8074 428.1234,-230.8658"/>
</g>
<!-- Node334 -->
<g id="node16" class="node">
<title>Node334</title>
<g id="a_node16"><a xlink:href="namespacechig.html#ad868894793d664b6ae994f24fc781b4b" target="_top" xlink:title="The make sure that nodes are called before their outputs are used. ">
<polygon fill="#ffffff" stroke="#000000" points="462,-303.9846 462,-333.9846 611,-333.9846 611,-303.9846 462,-303.9846"/>
<text text-anchor="start" x="470" y="-321.9846" font-family="Helvetica,sans-Serif" font-size="10.00" fill="#000000">chig::validateFunctionNode</text>
<text text-anchor="middle" x="536.5" y="-310.9846" font-family="Helvetica,sans-Serif" font-size="10.00" fill="#000000">Inputs</text>
</a>
</g>
</g>
<!-- Node333&#45;&gt;Node334 -->
<g id="edge22" class="edge">
<title>Node333&#45;&gt;Node334</title>
<path fill="none" stroke="#191970" d="M402.8852,-262.3332C420.9194,-270.7272 442.4233,-280.5462 462,-288.9846 473.652,-294.0071 486.4339,-299.2497 498.07,-303.9212"/>
<polygon fill="#191970" stroke="#191970" points="404.3409,-259.1502 393.7994,-258.0884 401.378,-265.4922 404.3409,-259.1502"/>
</g>
<!-- Node335 -->
<g id="node17" class="node">
<title>Node335</title>
<g id="a_node17"><a xlink:href="namespacechig.html#afccf44a2370371aae836862d9731155e" target="_top" xlink:title="Validate that a function is compilable. ">
<polygon fill="#ffffff" stroke="#000000" points="647,-306.4846 647,-325.4846 771,-325.4846 771,-306.4846 647,-306.4846"/>
<text text-anchor="middle" x="709" y="-313.4846" font-family="Helvetica,sans-Serif" font-size="10.00" fill="#000000">chig::validateFunction</text>
</a>
</g>
</g>
<!-- Node334&#45;&gt;Node335 -->
<g id="edge23" class="edge">
<title>Node334&#45;&gt;Node335</title>
<path fill="none" stroke="#191970" d="M621.2728,-317.5103C629.9149,-317.36 638.5767,-317.2093 646.9111,-317.0644"/>
<polygon fill="#191970" stroke="#191970" points="621.0953,-314.0127 611.1577,-317.6862 621.2171,-321.0117 621.0953,-314.0127"/>
</g>
<!-- Node335&#45;&gt;Node321 -->
<g id="edge24" class="edge">
<title>Node335&#45;&gt;Node321</title>
<path fill="none" stroke="#191970" d="M758.3894,-304.073C784.1828,-297.8523 815.3167,-290.3435 839.491,-284.5132"/>
<polygon fill="#191970" stroke="#191970" points="757.3294,-300.7282 748.4287,-306.4753 758.9706,-307.5331 757.3294,-300.7282"/>
</g>
<!-- Node336&#45;&gt;Node321 -->
<g id="edge26" class="edge">
<title>Node336&#45;&gt;Node321</title>
<path fill="none" stroke="#191970" d="M775.5219,-248.202C798.1768,-254.0656 822.6719,-260.4055 842.1404,-265.4444"/>
<polygon fill="#191970" stroke="#191970" points="776.1655,-244.7533 765.6075,-245.6359 774.4115,-251.53 776.1655,-244.7533"/>
</g>
<!-- Node336&#45;&gt;Node326 -->
<g id="edge27" class="edge">
<title>Node336&#45;&gt;Node326</title>
<path fill="none" stroke="#191970" d="M776.071,-228.7106C825.3507,-225.5967 893.4592,-218.2548 951,-200.9846 980.0304,-192.2714 1010.8375,-176.0854 1031.5187,-164.077"/>
<polygon fill="#191970" stroke="#191970" points="775.6284,-225.2305 765.8516,-229.3129 776.0403,-232.2184 775.6284,-225.2305"/>
</g>
</g>
</svg>
        <g id="navigator" transform="translate(0 0)" fill="#404254">
                <rect fill="#f2f5e9" fill-opacity="0.5" stroke="#606060" stroke-width=".5" x="0" y="0" width="60" height="60"/>
                <use id="zoomplus" xlink:href="#zoomPlus" x="17" y="9" onmousedown="handleZoom(evt,'in')"/>
                <use id="zoomminus" xlink:href="#zoomMin" x="42" y="9" onmousedown="handleZoom(evt,'out')"/>
                <use id="reset" xlink:href="#resetDef" x="30" y="36" onmousedown="handleReset()"/>
                <g id="arrowUp" xlink:href="#dirArrow" transform="translate(30 24)" onmousedown="handlePan(0,-1)">
                  <use xlink:href="#rim" fill="#404040">
                        <set attributeName="fill" to="#808080" begin="arrowUp.mouseover" end="arrowUp.mouseout"/>
                  </use>
                  <path fill="none" stroke="white" stroke-width="1.5" d="M0,-3.0v7 M-2.5,-0.5L0,-3.0L2.5,-0.5"/>
                </g>
                <g id="arrowRight" xlink:href="#dirArrow" transform="rotate(90) translate(36 -43)" onmousedown="handlePan(1,0)">
                  <use xlink:href="#rim" fill="#404040">
                        <set attributeName="fill" to="#808080" begin="arrowRight.mouseover" end="arrowRight.mouseout"/>
                  </use>
                  <path fill="none" stroke="white" stroke-width="1.5" d="M0,-3.0v7 M-2.5,-0.5L0,-3.0L2.5,-0.5"/>
                </g>
                <g id="arrowDown" xlink:href="#dirArrow" transform="rotate(180) translate(-30 -48)" onmousedown="handlePan(0,1)">
                  <use xlink:href="#rim" fill="#404040">
                        <set attributeName="fill" to="#808080" begin="arrowDown.mouseover" end="arrowDown.mouseout"/>
                  </use>
                  <path fill="none" stroke="white" stroke-width="1.5" d="M0,-3.0v7 M-2.5,-0.5L0,-3.0L2.5,-0.5"/>
                </g>
                <g id="arrowLeft" xlink:href="#dirArrow" transform="rotate(270) translate(-36 17)" onmousedown="handlePan(-1,0)">
                  <use xlink:href="#rim" fill="#404040">
                        <set attributeName="fill" to="#808080" begin="arrowLeft.mouseover" end="arrowLeft.mouseout"/>
                  </use>
                  <path fill="none" stroke="white" stroke-width="1.5" d="M0,-3.0v7 M-2.5,-0.5L0,-3.0L2.5,-0.5"/>
                </g>
        </g>
        <svg viewBox="0 0 15 15" width="100%" height="30px" preserveAspectRatio="xMaxYMin meet">
         <g id="arrow_out" transform="scale(0.3 0.3)">
          <a xlink:href="structchig_1_1GraphFunction_a452c6ff0834f1acdb6740267ef468250_icgraph_org.svg" target="_base">
           <rect id="button" ry="5" rx="5" y="6" x="6" height="38" width="38"
                fill="#f2f5e9" fill-opacity="0.5" stroke="#606060" stroke-width="1.0"/>
           <path id="arrow"
             d="M 11.500037,31.436501 C 11.940474,20.09759 22.043105,11.32322 32.158766,21.979434 L 37.068811,17.246167 C 37.068811,17.246167 37.088388,32 37.088388,32 L 22.160133,31.978069 C 22.160133,31.978069 26.997745,27.140456 26.997745,27.140456 C 18.528582,18.264221 13.291696,25.230495 11.500037,31.436501 z"
             style="fill:#404040;"/>
          </a>
         </g>
        </svg>
</svg>
