<?xml version="1.0" encoding="UTF-8" standalone="no"?>
<!DOCTYPE svg PUBLIC "-//W3C//DTD SVG 1.1//EN"
 "http://www.w3.org/Graphics/SVG/1.1/DTD/svg11.dtd">
<!-- Generated by graphviz version 2.40.1 (20161225.0304)
 -->
<!-- Title: chig::ChigModule::context Pages: 1 -->
<!--zoomable 408 -->
<svg id="main" version="1.1" xmlns="http://www.w3.org/2000/svg" xmlns:xlink="http://www.w3.org/1999/xlink" xml:space="preserve" onload="init(evt)">
<style type="text/css"><![CDATA[
.edge:hover path { stroke: red; }
.edge:hover polygon { stroke: red; fill: red; }
]]></style>
<script type="text/javascript"><![CDATA[
var edges = document.getElementsByTagName('g');
if (edges && edges.length) {
  for (var i=0;i<edges.length;i++) {
    if (edges[i].id.substr(0,4)=='edge') {
      edges[i].setAttribute('class','edge');
    }
  }
}
]]></script>
        <defs>
                <circle id="rim" cx="0" cy="0" r="7"/>
                <circle id="rim2" cx="0" cy="0" r="3.5"/>
                <g id="zoomPlus">
                        <use xlink:href="#rim" target="_top" fill="#404040">
                                <set attributeName="fill" to="#808080" begin="zoomplus.mouseover" end="zoomplus.mouseout"/>
                        </use>
                        <path d="M-4,0h8M0,-4v8" fill="none" stroke="white" stroke-width="1.5" pointer-events="none"/>
                </g>
                <g id="zoomMin">
                        <use xlink:href="#rim" target="_top" fill="#404040">
                                <set attributeName="fill" to="#808080" begin="zoomminus.mouseover" end="zoomminus.mouseout"/>
                        </use>
                        <path d="M-4,0h8" fill="none" stroke="white" stroke-width="1.5" pointer-events="none"/>
                </g>
                <g id="dirArrow">
                        <path fill="none" stroke="white" stroke-width="1.5" d="M0,-3.0v7 M-2.5,-0.5L0,-3.0L2.5,-0.5"/>
                </g>
               <g id="resetDef">
                       <use xlink:href="#rim2" target="_top" fill="#404040">
                               <set attributeName="fill" to="#808080" begin="reset.mouseover" end="reset.mouseout"/>
                       </use>
               </g>
        </defs>

<script type="text/javascript">
var viewWidth = 1569;
var viewHeight = 408;
var sectionId = 'dynsection-4';
</script>
<script xlink:href="svgpan.js" target="_top"/>
<svg id="graph" class="graph">
<g id="viewport">
<title>chig::ChigModule::context</title>
<polygon fill="#ffffff" stroke="transparent" points="-4,4 -4,-403.6212 1565,-403.6212 1565,4 -4,4"/>
<!-- Node57 -->
<g id="node1" class="node">
<title>Node57</title>
<polygon fill="#bfbfbf" stroke="#000000" points="0,-182.5 0,-201.5 130,-201.5 130,-182.5 0,-182.5"/>
<text text-anchor="middle" x="65" y="-189.5" font-family="Helvetica,sans-Serif" font-size="10.00" fill="#000000">chig::ChigModule::context</text>
</g>
<!-- Node58 -->
<g id="node2" class="node">
<title>Node58</title>
<g id="a_node2"><a xlink:href="structchig_1_1ChigModule.html#ad5feee65f261f3777edddd027eb89400" target="_top" target="_top" xlink:title="Add a dependency to the module Loads the module from context() if it isn&#39;t already loaded...">
<polygon fill="#ffffff" stroke="#000000" points="896,-298.5 896,-317.5 1063,-317.5 1063,-298.5 896,-298.5"/>
<text text-anchor="middle" x="979.5" y="-305.5" font-family="Helvetica,sans-Serif" font-size="10.00" fill="#000000">chig::ChigModule::addDependency</text>
</a>
</g>
</g>
<!-- Node57&#45;&gt;Node58 -->
<g id="edge1" class="edge">
<title>Node57&#45;&gt;Node58</title>
<path fill="none" stroke="#191970" d="M72.4791,-210.9072C85.9203,-242.0349 117.3746,-303.2819 166,-330 278.4247,-391.7737 325.7218,-349 454,-349 454,-349 454,-349 630,-349 737.524,-349 862.3958,-329.6211 929.9404,-317.5093"/>
<polygon fill="#191970" stroke="#191970" points="75.681,-209.4912 68.6126,-201.5989 69.2165,-212.1765 75.681,-209.4912"/>
</g>
<!-- Node61 -->
<g id="node5" class="node">
<title>Node61</title>
<g id="a_node5"><a xlink:href="structchig_1_1GraphModule.html#accb1a64da697a29e28d78a9a09bd52ff" target="_top" target="_top" xlink:title="Serialize to disk in the context. ">
<polygon fill="#ffffff" stroke="#000000" points="1457,-263 1457,-293 1561,-293 1561,-263 1457,-263"/>
<text text-anchor="start" x="1465" y="-281" font-family="Helvetica,sans-Serif" font-size="10.00" fill="#000000">chig::GraphModule::</text>
<text text-anchor="middle" x="1509" y="-270" font-family="Helvetica,sans-Serif" font-size="10.00" fill="#000000">saveToDisk</text>
</a>
</g>
</g>
<!-- Node57&#45;&gt;Node61 -->
<g id="edge23" class="edge">
<title>Node57&#45;&gt;Node61</title>
<path fill="none" stroke="#191970" d="M70.3892,-211.6558C81.4952,-248.0043 110.6553,-325.1867 166,-360 274.8224,-428.4521 325.4387,-387 454,-387 454,-387 454,-387 1178,-387 1296.5818,-387 1427.6113,-323.1062 1482.5175,-293.156"/>
<polygon fill="#191970" stroke="#191970" points="73.6692,-210.401 67.5131,-201.7783 66.9484,-212.358 73.6692,-210.401"/>
</g>
<!-- Node63 -->
<g id="node7" class="node">
<title>Node63</title>
<g id="a_node7"><a xlink:href="namespacechig.html#a860a6f4d8180f1fb71729896291891b7" target="_top" target="_top" xlink:title="Create a forward declaration of a function in a module with an empty graph. ">
<polygon fill="#ffffff" stroke="#000000" points="188.5,-290 188.5,-320 319.5,-320 319.5,-290 188.5,-290"/>
<text text-anchor="start" x="196.5" y="-308" font-family="Helvetica,sans-Serif" font-size="10.00" fill="#000000">chig::createGraphFunction</text>
<text text-anchor="middle" x="254" y="-297" font-family="Helvetica,sans-Serif" font-size="10.00" fill="#000000">DeclarationFromJson</text>
</a>
</g>
</g>
<!-- Node57&#45;&gt;Node63 -->
<g id="edge6" class="edge">
<title>Node57&#45;&gt;Node63</title>
<path fill="none" stroke="#191970" d="M80.1758,-209.1803C98.5956,-229.0132 131.4978,-261.2962 166,-280 172.9813,-283.7846 180.5925,-287.0445 188.3212,-289.8403"/>
<polygon fill="#191970" stroke="#191970" points="82.7408,-206.7986 73.4208,-201.7599 77.5643,-211.5109 82.7408,-206.7986"/>
</g>
<!-- Node67 -->
<g id="node11" class="node">
<title>Node67</title>
<g id="a_node11"><a xlink:href="namespacechig.html#a2af3c68005d33184e5e66b35c4737902" target="_top" target="_top" xlink:title="Load a GraphStruct from json. ">
<polygon fill="#ffffff" stroke="#000000" points="193,-251.5 193,-270.5 315,-270.5 315,-251.5 193,-251.5"/>
<text text-anchor="middle" x="254" y="-258.5" font-family="Helvetica,sans-Serif" font-size="10.00" fill="#000000">chig::jsonToGraphStruct</text>
</a>
</g>
</g>
<!-- Node57&#45;&gt;Node67 -->
<g id="edge11" class="edge">
<title>Node57&#45;&gt;Node67</title>
<path fill="none" stroke="#191970" d="M90.4466,-206.3618C110.462,-217.157 139.3298,-231.6381 166,-241 177.6786,-245.0995 190.5296,-248.5734 202.7172,-251.4175"/>
<polygon fill="#191970" stroke="#191970" points="92.0994,-203.2765 81.647,-201.5452 88.7384,-209.4168 92.0994,-203.2765"/>
</g>
<!-- Node68 -->
<g id="node12" class="node">
<title>Node68</title>
<g id="a_node12"><a xlink:href="structchig_1_1LangModule.html#adab4150aa733a4aa66bc0ede5654dcaa" target="_top" target="_top" xlink:title="Default constructor, usually called from Context::loadModule(&quot;lang&quot;) ">
<polygon fill="#ffffff" stroke="#000000" points="378,-73.5 378,-92.5 530,-92.5 530,-73.5 378,-73.5"/>
<text text-anchor="middle" x="454" y="-80.5" font-family="Helvetica,sans-Serif" font-size="10.00" fill="#000000">chig::LangModule::LangModule</text>
</a>
</g>
</g>
<!-- Node57&#45;&gt;Node68 -->
<g id="edge13" class="edge">
<title>Node57&#45;&gt;Node68</title>
<path fill="none" stroke="#191970" d="M90.3995,-177.5021C110.3896,-166.6336 139.2462,-152.1204 166,-143 177.3905,-139.117 328.1543,-108.4216 406.8667,-92.5045"/>
<polygon fill="#191970" stroke="#191970" points="88.6738,-174.4568 81.6127,-182.3557 92.0584,-180.5842 88.6738,-174.4568"/>
</g>
<!-- Node69 -->
<g id="node13" class="node">
<title>Node69</title>
<g id="a_node13"><a xlink:href="structchig_1_1NodeType.html#a83c7ce04c8c7b38c1a3fac17bf0dbe3d" target="_top" target="_top" xlink:title="Constructor. ">
<polygon fill="#ffffff" stroke="#000000" points="186.5,-38.5 186.5,-57.5 321.5,-57.5 321.5,-38.5 186.5,-38.5"/>
<text text-anchor="middle" x="254" y="-45.5" font-family="Helvetica,sans-Serif" font-size="10.00" fill="#000000">chig::NodeType::NodeType</text>
</a>
</g>
</g>
<!-- Node57&#45;&gt;Node69 -->
<g id="edge14" class="edge">
<title>Node57&#45;&gt;Node69</title>
<path fill="none" stroke="#191970" d="M74.6794,-173.2349C90.0667,-145.3928 122.8356,-93.5785 166,-67 172.2553,-63.1483 179.1799,-60.0705 186.3172,-57.6122"/>
<polygon fill="#191970" stroke="#191970" points="71.4508,-171.8497 69.8098,-182.3167 77.6199,-175.1576 71.4508,-171.8497"/>
</g>
<!-- Node70 -->
<g id="node14" class="node">
<title>Node70</title>
<g id="a_node14"><a xlink:href="structchig_1_1CModule.html#a2cabea4f20241d1c2451fd5b9c4dc9c7" target="_top" target="_top" xlink:title="Create a node type that is in the module from the name and json. ">
<polygon fill="#ffffff" stroke="#000000" points="166,-.5 166,-19.5 342,-19.5 342,-.5 166,-.5"/>
<text text-anchor="middle" x="254" y="-7.5" font-family="Helvetica,sans-Serif" font-size="10.00" fill="#000000">chig::CModule::nodeTypeFromName</text>
</a>
</g>
</g>
<!-- Node57&#45;&gt;Node70 -->
<g id="edge15" class="edge">
<title>Node57&#45;&gt;Node70</title>
<path fill="none" stroke="#191970" d="M71.2951,-172.5703C83.5871,-137.8871 114.2062,-65.5365 166,-29 171.4919,-25.1259 177.6216,-22.0172 184.02,-19.5261"/>
<polygon fill="#191970" stroke="#191970" points="67.8533,-171.82 67.9445,-182.4144 74.48,-174.0755 67.8533,-171.82"/>
</g>
<!-- Node71 -->
<g id="node15" class="node">
<title>Node71</title>
<g id="a_node15"><a xlink:href="structchig_1_1GraphModule.html#a3a3e16c194c091ee109eabaca14e3c43" target="_top" target="_top" xlink:title="Create a node type that is in the module from the name and json. ">
<polygon fill="#ffffff" stroke="#000000" points="200.5,-202 200.5,-232 307.5,-232 307.5,-202 200.5,-202"/>
<text text-anchor="start" x="208.5" y="-220" font-family="Helvetica,sans-Serif" font-size="10.00" fill="#000000">chig::GraphModule::</text>
<text text-anchor="middle" x="254" y="-209" font-family="Helvetica,sans-Serif" font-size="10.00" fill="#000000">nodeTypeFromName</text>
</a>
</g>
</g>
<!-- Node57&#45;&gt;Node71 -->
<g id="edge16" class="edge">
<title>Node57&#45;&gt;Node71</title>
<path fill="none" stroke="#191970" d="M140.1401,-201.9392C160.3058,-204.6066 181.7004,-207.4366 200.4345,-209.9146"/>
<polygon fill="#191970" stroke="#191970" points="140.4157,-198.4452 130.0431,-200.6036 139.4977,-205.3848 140.4157,-198.4452"/>
</g>
<!-- Node76 -->
<g id="node20" class="node">
<title>Node76</title>
<g id="a_node20"><a xlink:href="structchig_1_1GraphModule.html#a2b80440a0bdf4c760a12ea0309d68060" target="_top" target="_top" xlink:title="Get the path to the source file It&#39;s not garunteed to exist, because it could have not been saved...">
<polygon fill="#ffffff" stroke="#000000" points="202,-153 202,-183 306,-183 306,-153 202,-153"/>
<text text-anchor="start" x="210" y="-171" font-family="Helvetica,sans-Serif" font-size="10.00" fill="#000000">chig::GraphModule::</text>
<text text-anchor="middle" x="254" y="-160" font-family="Helvetica,sans-Serif" font-size="10.00" fill="#000000">sourceFilePath</text>
</a>
</g>
</g>
<!-- Node57&#45;&gt;Node76 -->
<g id="edge24" class="edge">
<title>Node57&#45;&gt;Node76</title>
<path fill="none" stroke="#191970" d="M140.0951,-182.4641C160.8221,-179.8321 182.8507,-177.0348 201.9563,-174.6087"/>
<polygon fill="#191970" stroke="#191970" points="139.5225,-179.0086 130.0431,-183.7406 140.4044,-185.9529 139.5225,-179.0086"/>
</g>
<!-- Node78 -->
<g id="node22" class="node">
<title>Node78</title>
<g id="a_node22"><a xlink:href="structchig_1_1LangModule.html#a8c6c7b9ada9f7dc770842e9a065ca1b2" target="_top" target="_top" xlink:title="Get a DataType from the name. ">
<polygon fill="#ffffff" stroke="#000000" points="171,-76.5 171,-95.5 337,-95.5 337,-76.5 171,-76.5"/>
<text text-anchor="middle" x="254" y="-83.5" font-family="Helvetica,sans-Serif" font-size="10.00" fill="#000000">chig::LangModule::typeFromName</text>
</a>
</g>
</g>
<!-- Node57&#45;&gt;Node78 -->
<g id="edge27" class="edge">
<title>Node57&#45;&gt;Node78</title>
<path fill="none" stroke="#191970" d="M81.219,-175.1519C99.9797,-156.6025 132.5921,-127.1427 166,-110 177.9758,-103.8548 191.7004,-99.1446 204.6923,-95.5938"/>
<polygon fill="#191970" stroke="#191970" points="78.6212,-172.8009 74.0648,-182.366 83.5916,-177.73 78.6212,-172.8009"/>
</g>
<!-- Node59 -->
<g id="node3" class="node">
<title>Node59</title>
<g id="a_node3"><a xlink:href="structchig_1_1ChigModule.html#a7f239dc07b0a4d74d6907da6f25127dc" target="_top" target="_top" xlink:title="Get the dependencies. ">
<polygon fill="#ffffff" stroke="#000000" points="1099,-312.5 1099,-331.5 1257,-331.5 1257,-312.5 1099,-312.5"/>
<text text-anchor="middle" x="1178" y="-319.5" font-family="Helvetica,sans-Serif" font-size="10.00" fill="#000000">chig::ChigModule::dependencies</text>
</a>
</g>
</g>
<!-- Node58&#45;&gt;Node59 -->
<g id="edge2" class="edge">
<title>Node58&#45;&gt;Node59</title>
<path fill="none" stroke="#191970" d="M1073.1763,-314.6069C1081.7894,-315.2144 1090.4588,-315.8258 1098.9237,-316.4228"/>
<polygon fill="#191970" stroke="#191970" points="1073.3281,-311.109 1063.1066,-313.8967 1072.8355,-318.0916 1073.3281,-311.109"/>
</g>
<!-- Node62 -->
<g id="node6" class="node">
<title>Node62</title>
<g id="a_node6"><a xlink:href="structchig_1_1GraphModule.html#a65458343d0344b6b806f9b0b780b32f4" target="_top" target="_top" xlink:title="Construct a GraphModule. ">
<polygon fill="#ffffff" stroke="#000000" points="1126,-263 1126,-293 1230,-293 1230,-263 1126,-263"/>
<text text-anchor="start" x="1134" y="-281" font-family="Helvetica,sans-Serif" font-size="10.00" fill="#000000">chig::GraphModule::</text>
<text text-anchor="middle" x="1178" y="-270" font-family="Helvetica,sans-Serif" font-size="10.00" fill="#000000">GraphModule</text>
</a>
</g>
</g>
<!-- Node58&#45;&gt;Node62 -->
<g id="edge5" class="edge">
<title>Node58&#45;&gt;Node62</title>
<path fill="none" stroke="#191970" d="M1052.4746,-296.9711C1076.7671,-293.2997 1103.3226,-289.2863 1125.7268,-285.9002"/>
<polygon fill="#191970" stroke="#191970" points="1051.944,-293.5114 1042.5794,-298.4666 1052.9902,-300.4328 1051.944,-293.5114"/>
</g>
<!-- Node60 -->
<g id="node4" class="node">
<title>Node60</title>
<g id="a_node4"><a xlink:href="namespacechig.html#aaef3bb08f472ae32b2d3b292e69a007a" target="_top" target="_top" xlink:title="Serialize a JsonModule to json. ">
<polygon fill="#ffffff" stroke="#000000" points="1293,-268.5 1293,-287.5 1421,-287.5 1421,-268.5 1293,-268.5"/>
<text text-anchor="middle" x="1357" y="-275.5" font-family="Helvetica,sans-Serif" font-size="10.00" fill="#000000">chig::graphModuleToJson</text>
</a>
</g>
</g>
<!-- Node59&#45;&gt;Node60 -->
<g id="edge3" class="edge">
<title>Node59&#45;&gt;Node60</title>
<path fill="none" stroke="#191970" d="M1228.0475,-310.0348C1237.6605,-307.7163 1247.6452,-305.2942 1257,-303 1277.5088,-297.9702 1300.3574,-292.2657 1319.0314,-287.5771"/>
<polygon fill="#191970" stroke="#191970" points="1227.1094,-306.6606 1218.2062,-312.4037 1228.7476,-313.4662 1227.1094,-306.6606"/>
</g>
<!-- Node60&#45;&gt;Node61 -->
<g id="edge4" class="edge">
<title>Node60&#45;&gt;Node61</title>
<path fill="none" stroke="#191970" d="M1431.0838,-278C1439.6912,-278 1448.3313,-278 1456.5622,-278"/>
<polygon fill="#191970" stroke="#191970" points="1431.0212,-274.5001 1421.0211,-278 1431.0211,-281.5001 1431.0212,-274.5001"/>
</g>
<!-- Node64 -->
<g id="node8" class="node">
<title>Node64</title>
<g id="a_node8"><a xlink:href="namespacechig.html#a3b1bc50c9d7b3cdb17ffcb3ad602f7ab" target="_top" target="_top" xlink:title="Load a GraphModule from json. ">
<polygon fill="#ffffff" stroke="#000000" points="390,-298.5 390,-317.5 518,-317.5 518,-298.5 390,-298.5"/>
<text text-anchor="middle" x="454" y="-305.5" font-family="Helvetica,sans-Serif" font-size="10.00" fill="#000000">chig::jsonToGraphModule</text>
</a>
</g>
</g>
<!-- Node63&#45;&gt;Node64 -->
<g id="edge7" class="edge">
<title>Node63&#45;&gt;Node64</title>
<path fill="none" stroke="#191970" d="M329.9598,-306.1394C349.7222,-306.4358 370.816,-306.7522 389.8989,-307.0385"/>
<polygon fill="#191970" stroke="#191970" points="329.8159,-302.6369 319.7645,-305.9865 329.7108,-309.6362 329.8159,-302.6369"/>
</g>
<!-- Node65 -->
<g id="node9" class="node">
<title>Node65</title>
<g id="a_node9"><a xlink:href="structchig_1_1Context.html#a077f8ef8c0dd541ec2e2d64bcd8f9fc0" target="_top" target="_top" xlink:title="Load a module from JSON – avoid this use the string overload. ">
<polygon fill="#ffffff" stroke="#000000" points="566,-290 566,-320 694,-320 694,-290 566,-290"/>
<text text-anchor="start" x="574" y="-308" font-family="Helvetica,sans-Serif" font-size="10.00" fill="#000000">chig::Context::addModule</text>
<text text-anchor="middle" x="630" y="-297" font-family="Helvetica,sans-Serif" font-size="10.00" fill="#000000">FromJson</text>
</a>
</g>
</g>
<!-- Node64&#45;&gt;Node65 -->
<g id="edge8" class="edge">
<title>Node64&#45;&gt;Node65</title>
<path fill="none" stroke="#191970" d="M528.3613,-306.7325C540.7817,-306.5208 553.5737,-306.3027 565.7148,-306.0958"/>
<polygon fill="#191970" stroke="#191970" points="527.9768,-303.2384 518.0379,-306.9084 528.0961,-310.2374 527.9768,-303.2384"/>
</g>
<!-- Node66 -->
<g id="node10" class="node">
<title>Node66</title>
<g id="a_node10"><a xlink:href="structchig_1_1Context.html#a75ab64b58e168998761ed6ebd5e493b2" target="_top" target="_top" xlink:title="Load a module from disk. ">
<polygon fill="#ffffff" stroke="#000000" points="730,-298.5 730,-317.5 860,-317.5 860,-298.5 730,-298.5"/>
<text text-anchor="middle" x="795" y="-305.5" font-family="Helvetica,sans-Serif" font-size="10.00" fill="#000000">chig::Context::loadModule</text>
</a>
</g>
</g>
<!-- Node65&#45;&gt;Node66 -->
<g id="edge9" class="edge">
<title>Node65&#45;&gt;Node66</title>
<path fill="none" stroke="#191970" d="M704.4926,-306.3544C712.9426,-306.508 721.5057,-306.6637 729.8228,-306.815"/>
<polygon fill="#191970" stroke="#191970" points="704.3278,-302.8509 694.2658,-306.1685 704.2005,-309.8498 704.3278,-302.8509"/>
</g>
<!-- Node66&#45;&gt;Node58 -->
<g id="edge10" class="edge">
<title>Node66&#45;&gt;Node58</title>
<path fill="none" stroke="#191970" d="M870.2627,-308C878.734,-308 887.4033,-308 895.9713,-308"/>
<polygon fill="#191970" stroke="#191970" points="870.0478,-304.5001 860.0478,-308 870.0478,-311.5001 870.0478,-304.5001"/>
</g>
<!-- Node67&#45;&gt;Node64 -->
<g id="edge12" class="edge">
<title>Node67&#45;&gt;Node64</title>
<path fill="none" stroke="#191970" d="M306.5975,-272.8358C318.2609,-275.4933 330.5554,-278.3201 342,-281 366.246,-286.6775 393.3986,-293.2186 414.8962,-298.4406"/>
<polygon fill="#191970" stroke="#191970" points="307.0746,-269.355 296.5476,-270.5519 305.5233,-276.181 307.0746,-269.355"/>
</g>
<!-- Node72 -->
<g id="node16" class="node">
<title>Node72</title>
<g id="a_node16"><a xlink:href="structchig_1_1GraphFunction.html#a9eff598c36c450953054331757bf6d6b" target="_top" target="_top" xlink:title="Rename a local variable. ">
<polygon fill="#ffffff" stroke="#000000" points="397.5,-249 397.5,-279 510.5,-279 510.5,-249 397.5,-249"/>
<text text-anchor="start" x="405.5" y="-267" font-family="Helvetica,sans-Serif" font-size="10.00" fill="#000000">chig::GraphFunction</text>
<text text-anchor="middle" x="454" y="-256" font-family="Helvetica,sans-Serif" font-size="10.00" fill="#000000">::renameLocalVariable</text>
</a>
</g>
</g>
<!-- Node71&#45;&gt;Node72 -->
<g id="edge17" class="edge">
<title>Node71&#45;&gt;Node72</title>
<path fill="none" stroke="#191970" d="M317.5928,-231.9443C343.234,-237.97 372.5737,-244.8648 397.4566,-250.7123"/>
<polygon fill="#191970" stroke="#191970" points="318.1319,-228.4757 307.5963,-229.5951 316.5304,-235.2901 318.1319,-228.4757"/>
</g>
<!-- Node75 -->
<g id="node19" class="node">
<title>Node75</title>
<g id="a_node19"><a xlink:href="structchig_1_1GraphFunction.html#a905a09106e02a246daac43a37c42b97b" target="_top" target="_top" xlink:title="Set a new type to a local variable. ">
<polygon fill="#ffffff" stroke="#000000" points="400,-200 400,-230 508,-230 508,-200 400,-200"/>
<text text-anchor="start" x="408" y="-218" font-family="Helvetica,sans-Serif" font-size="10.00" fill="#000000">chig::GraphFunction</text>
<text text-anchor="middle" x="454" y="-207" font-family="Helvetica,sans-Serif" font-size="10.00" fill="#000000">::retypeLocalVariable</text>
</a>
</g>
</g>
<!-- Node71&#45;&gt;Node75 -->
<g id="edge21" class="edge">
<title>Node71&#45;&gt;Node75</title>
<path fill="none" stroke="#191970" d="M317.8908,-216.3611C344.3092,-216.0969 374.6115,-215.7939 399.908,-215.5409"/>
<polygon fill="#191970" stroke="#191970" points="317.5608,-212.8641 307.5963,-216.464 317.6309,-219.8638 317.5608,-212.8641"/>
</g>
<!-- Node73 -->
<g id="node17" class="node">
<title>Node73</title>
<g id="a_node17"><a xlink:href="structchig_1_1GraphFunction.html#a72a81861d1331948804b2a267598ec79" target="_top" target="_top" xlink:title="Get the local variables. ">
<polygon fill="#ffffff" stroke="#000000" points="578,-219 578,-249 682,-249 682,-219 578,-219"/>
<text text-anchor="start" x="586" y="-237" font-family="Helvetica,sans-Serif" font-size="10.00" fill="#000000">chig::GraphFunction</text>
<text text-anchor="middle" x="630" y="-226" font-family="Helvetica,sans-Serif" font-size="10.00" fill="#000000">::localVariables</text>
</a>
</g>
</g>
<!-- Node72&#45;&gt;Node73 -->
<g id="edge18" class="edge">
<title>Node72&#45;&gt;Node73</title>
<path fill="none" stroke="#191970" d="M520.7103,-252.6289C539.65,-249.4006 559.9895,-245.9336 577.9253,-242.8764"/>
<polygon fill="#191970" stroke="#191970" points="519.926,-249.2121 510.6563,-254.3427 521.1022,-256.1125 519.926,-249.2121"/>
</g>
<!-- Node74 -->
<g id="node18" class="node">
<title>Node74</title>
<g id="a_node18"><a xlink:href="namespacechig.html#ad0fd9448ab1cd1d73351fad5967a7b9b" target="_top" target="_top" xlink:title="Serialize a GraphFunction to json. ">
<polygon fill="#ffffff" stroke="#000000" points="912.5,-224.5 912.5,-243.5 1046.5,-243.5 1046.5,-224.5 912.5,-224.5"/>
<text text-anchor="middle" x="979.5" y="-231.5" font-family="Helvetica,sans-Serif" font-size="10.00" fill="#000000">chig::graphFunctionToJson</text>
</a>
</g>
</g>
<!-- Node73&#45;&gt;Node74 -->
<g id="edge19" class="edge">
<title>Node73&#45;&gt;Node74</title>
<path fill="none" stroke="#191970" d="M692.3505,-234C754.2744,-234 848.9093,-234 912.4328,-234"/>
<polygon fill="#191970" stroke="#191970" points="692.3237,-230.5001 682.3237,-234 692.3236,-237.5001 692.3237,-230.5001"/>
</g>
<!-- Node74&#45;&gt;Node60 -->
<g id="edge20" class="edge">
<title>Node74&#45;&gt;Node60</title>
<path fill="none" stroke="#191970" d="M1056.7498,-236.1809C1112.6354,-238.5807 1189.8215,-243.5894 1257,-254 1279.2308,-257.4451 1303.803,-263.3129 1323.0264,-268.384"/>
<polygon fill="#191970" stroke="#191970" points="1056.7051,-232.6762 1046.5698,-235.7625 1056.4176,-239.6703 1056.7051,-232.6762"/>
</g>
<!-- Node75&#45;&gt;Node73 -->
<g id="edge22" class="edge">
<title>Node75&#45;&gt;Node73</title>
<path fill="none" stroke="#191970" d="M518.291,-221.9405C537.8453,-224.0515 559.0872,-226.3446 577.746,-228.3589"/>
<polygon fill="#191970" stroke="#191970" points="518.5598,-218.4493 508.2419,-220.8557 517.8085,-225.4088 518.5598,-218.4493"/>
</g>
<!-- Node76&#45;&gt;Node61 -->
<g id="edge26" class="edge">
<title>Node76&#45;&gt;Node61</title>
<path fill="none" stroke="#191970" d="M316.1558,-168.7994C390.7142,-169.6881 519.4893,-171 630,-171 630,-171 630,-171 1178,-171 1296.0687,-171 1426.8434,-233.4018 1482.0606,-262.8965"/>
<polygon fill="#191970" stroke="#191970" points="316.0441,-165.2979 306.0026,-168.677 315.9597,-172.2974 316.0441,-165.2979"/>
</g>
<!-- Node77 -->
<g id="node21" class="node">
<title>Node77</title>
<g id="a_node21"><a xlink:href="structchig_1_1GraphModule.html#a4c3a1ba833c0bd7e9a3daf0fd42eb6c6" target="_top" target="_top" xlink:title="Generate a llvm::Module from the module. ">
<polygon fill="#ffffff" stroke="#000000" points="402,-112 402,-142 506,-142 506,-112 402,-112"/>
<text text-anchor="start" x="410" y="-130" font-family="Helvetica,sans-Serif" font-size="10.00" fill="#000000">chig::GraphModule::</text>
<text text-anchor="middle" x="454" y="-119" font-family="Helvetica,sans-Serif" font-size="10.00" fill="#000000">generateModule</text>
</a>
</g>
</g>
<!-- Node76&#45;&gt;Node77 -->
<g id="edge25" class="edge">
<title>Node76&#45;&gt;Node77</title>
<path fill="none" stroke="#191970" d="M315.9529,-155.2997C343.5066,-149.6511 375.5894,-143.0742 401.8879,-137.683"/>
<polygon fill="#191970" stroke="#191970" points="315.1189,-151.8978 306.0255,-157.3348 316.5247,-158.7551 315.1189,-151.8978"/>
</g>
<!-- Node78&#45;&gt;Node68 -->
<g id="edge28" class="edge">
<title>Node78&#45;&gt;Node68</title>
<path fill="none" stroke="#191970" d="M347.2862,-84.6007C357.5396,-84.4469 367.8874,-84.2917 377.8961,-84.1416"/>
<polygon fill="#191970" stroke="#191970" points="347.0268,-81.1041 337.0805,-84.7538 347.1319,-88.1033 347.0268,-81.1041"/>
</g>
</g>
</svg>
        <g id="navigator" transform="translate(0 0)" fill="#404254">
                <rect fill="#f2f5e9" fill-opacity="0.5" stroke="#606060" stroke-width=".5" x="0" y="0" width="60" height="60"/>
                <use id="zoomplus" xlink:href="#zoomPlus" target="_top" x="17" y="9" onmousedown="handleZoom(evt,'in')"/>
                <use id="zoomminus" xlink:href="#zoomMin" target="_top" x="42" y="9" onmousedown="handleZoom(evt,'out')"/>
                <use id="reset" xlink:href="#resetDef" target="_top" x="30" y="36" onmousedown="handleReset()"/>
                <g id="arrowUp" xlink:href="#dirArrow" target="_top" transform="translate(30 24)" onmousedown="handlePan(0,-1)">
                  <use xlink:href="#rim" target="_top" fill="#404040">
                        <set attributeName="fill" to="#808080" begin="arrowUp.mouseover" end="arrowUp.mouseout"/>
                  </use>
                  <path fill="none" stroke="white" stroke-width="1.5" d="M0,-3.0v7 M-2.5,-0.5L0,-3.0L2.5,-0.5"/>
                </g>
                <g id="arrowRight" xlink:href="#dirArrow" target="_top" transform="rotate(90) translate(36 -43)" onmousedown="handlePan(1,0)">
                  <use xlink:href="#rim" target="_top" fill="#404040">
                        <set attributeName="fill" to="#808080" begin="arrowRight.mouseover" end="arrowRight.mouseout"/>
                  </use>
                  <path fill="none" stroke="white" stroke-width="1.5" d="M0,-3.0v7 M-2.5,-0.5L0,-3.0L2.5,-0.5"/>
                </g>
                <g id="arrowDown" xlink:href="#dirArrow" target="_top" transform="rotate(180) translate(-30 -48)" onmousedown="handlePan(0,1)">
                  <use xlink:href="#rim" target="_top" fill="#404040">
                        <set attributeName="fill" to="#808080" begin="arrowDown.mouseover" end="arrowDown.mouseout"/>
                  </use>
                  <path fill="none" stroke="white" stroke-width="1.5" d="M0,-3.0v7 M-2.5,-0.5L0,-3.0L2.5,-0.5"/>
                </g>
                <g id="arrowLeft" xlink:href="#dirArrow" target="_top" transform="rotate(270) translate(-36 17)" onmousedown="handlePan(-1,0)">
                  <use xlink:href="#rim" target="_top" fill="#404040">
                        <set attributeName="fill" to="#808080" begin="arrowLeft.mouseover" end="arrowLeft.mouseout"/>
                  </use>
                  <path fill="none" stroke="white" stroke-width="1.5" d="M0,-3.0v7 M-2.5,-0.5L0,-3.0L2.5,-0.5"/>
                </g>
        </g>
        <svg viewBox="0 0 15 15" width="100%" height="30px" preserveAspectRatio="xMaxYMin meet">
         <g id="arrow_out" transform="scale(0.3 0.3)">
          <a xlink:href="structchig_1_1ChigModule_aad81aae17452ddc5fc43809924236385_icgraph_org.svg" target="_top" target="_base">
           <rect id="button" ry="5" rx="5" y="6" x="6" height="38" width="38"
                fill="#f2f5e9" fill-opacity="0.5" stroke="#606060" stroke-width="1.0"/>
           <path id="arrow"
             d="M 11.500037,31.436501 C 11.940474,20.09759 22.043105,11.32322 32.158766,21.979434 L 37.068811,17.246167 C 37.068811,17.246167 37.088388,32 37.088388,32 L 22.160133,31.978069 C 22.160133,31.978069 26.997745,27.140456 26.997745,27.140456 C 18.528582,18.264221 13.291696,25.230495 11.500037,31.436501 z"
             style="fill:#404040;"/>
          </a>
         </g>
        </svg>
</svg>
