<?xml version="1.0" encoding="UTF-8" standalone="no"?>
<!DOCTYPE svg PUBLIC "-//W3C//DTD SVG 1.1//EN"
 "http://www.w3.org/Graphics/SVG/1.1/DTD/svg11.dtd">
<!-- Generated by graphviz version 2.40.1 (20161225.0304)
 -->
<!-- Title: chig::ChigModule::fullName Pages: 1 -->
<svg width="448pt" height="214pt"
 viewBox="0.00 0.00 448.00 214.00" xmlns="http://www.w3.org/2000/svg" xmlns:xlink="http://www.w3.org/1999/xlink">
<g id="graph0" class="graph" transform="scale(1 1) rotate(0) translate(4 210)">
<title>chig::ChigModule::fullName</title>
<polygon fill="#ffffff" stroke="transparent" points="-4,4 -4,-210 444,-210 444,4 -4,4"/>
<!-- Node37 -->
<g id="node1" class="node">
<title>Node37</title>
<polygon fill="#bfbfbf" stroke="#000000" points="0,-99 0,-118 136,-118 136,-99 0,-99"/>
<text text-anchor="middle" x="68" y="-106" font-family="Helvetica,sans-Serif" font-size="10.00" fill="#000000">chig::ChigModule::fullName</text>
</g>
<!-- Node38 -->
<g id="node2" class="node">
<title>Node38</title>
<g id="a_node2"><a xlink:href="structchig_1_1Context.html#a0d9ec5f2803a5777d2e389256ccb3e3b" target="_top" xlink:title="Load a module from JSON – avoid this use the string overload. ">
<polygon fill="#ffffff" stroke="#000000" points="172,-175.5 172,-205.5 300,-205.5 300,-175.5 172,-175.5"/>
<text text-anchor="start" x="180" y="-193.5" font-family="Helvetica,sans-Serif" font-size="10.00" fill="#000000">chig::Context::addModule</text>
<text text-anchor="middle" x="236" y="-182.5" font-family="Helvetica,sans-Serif" font-size="10.00" fill="#000000">FromJson</text>
</a>
</g>
</g>
<!-- Node37&#45;&gt;Node38 -->
<g id="edge1" class="edge">
<title>Node37&#45;&gt;Node38</title>
<path fill="none" stroke="#191970" d="M92.6844,-123.2082C113.468,-135.3037 144.1738,-152.5058 172,-165.5 179.3497,-168.9321 187.3105,-172.3049 195.0391,-175.4076"/>
<polygon fill="#191970" stroke="#191970" points="94.2758,-120.084 83.8793,-118.0436 90.7342,-126.122 94.2758,-120.084"/>
</g>
<!-- Node39 -->
<g id="node3" class="node">
<title>Node39</title>
<g id="a_node3"><a xlink:href="namespacechig.html#a4f26546c4bc76c31cc822d0365be0f30" target="_top" xlink:title="Compile the graph to an llvm::Function (usually called from JsonModule::generateModule) ...">
<polygon fill="#ffffff" stroke="#000000" points="180,-137 180,-156 292,-156 292,-137 180,-137"/>
<text text-anchor="middle" x="236" y="-144" font-family="Helvetica,sans-Serif" font-size="10.00" fill="#000000">chig::compileFunction</text>
</a>
</g>
</g>
<!-- Node37&#45;&gt;Node39 -->
<g id="edge2" class="edge">
<title>Node37&#45;&gt;Node39</title>
<path fill="none" stroke="#191970" d="M120.2757,-120.3243C143.9607,-125.6816 171.5903,-131.9311 193.9114,-136.9799"/>
<polygon fill="#191970" stroke="#191970" points="120.9193,-116.8815 110.3935,-118.089 119.3749,-123.709 120.9193,-116.8815"/>
</g>
<!-- Node40 -->
<g id="node4" class="node">
<title>Node40</title>
<g id="a_node4"><a xlink:href="structchig_1_1GraphModule.html#a4c3a1ba833c0bd7e9a3daf0fd42eb6c6" target="_top" xlink:title="Generate a llvm::Module from the module. ">
<polygon fill="#ffffff" stroke="#000000" points="336,-93.5 336,-123.5 440,-123.5 440,-93.5 336,-93.5"/>
<text text-anchor="start" x="344" y="-111.5" font-family="Helvetica,sans-Serif" font-size="10.00" fill="#000000">chig::GraphModule::</text>
<text text-anchor="middle" x="388" y="-100.5" font-family="Helvetica,sans-Serif" font-size="10.00" fill="#000000">generateModule</text>
</a>
</g>
</g>
<!-- Node37&#45;&gt;Node40 -->
<g id="edge4" class="edge">
<title>Node37&#45;&gt;Node40</title>
<path fill="none" stroke="#191970" d="M146.2798,-108.5C205.2642,-108.5 284.5034,-108.5 335.9095,-108.5"/>
<polygon fill="#191970" stroke="#191970" points="146.2556,-105.0001 136.2555,-108.5 146.2555,-112.0001 146.2556,-105.0001"/>
</g>
<!-- Node41 -->
<g id="node5" class="node">
<title>Node41</title>
<g id="a_node5"><a xlink:href="structchig_1_1GraphModule.html#a3a3e16c194c091ee109eabaca14e3c43" target="_top" xlink:title="Create a node type that is in the module from the name and json. ">
<polygon fill="#ffffff" stroke="#000000" points="182.5,-49.5 182.5,-79.5 289.5,-79.5 289.5,-49.5 182.5,-49.5"/>
<text text-anchor="start" x="190.5" y="-67.5" font-family="Helvetica,sans-Serif" font-size="10.00" fill="#000000">chig::GraphModule::</text>
<text text-anchor="middle" x="236" y="-56.5" font-family="Helvetica,sans-Serif" font-size="10.00" fill="#000000">nodeTypeFromName</text>
</a>
</g>
</g>
<!-- Node37&#45;&gt;Node41 -->
<g id="edge5" class="edge">
<title>Node37&#45;&gt;Node41</title>
<path fill="none" stroke="#191970" d="M114.156,-96.4115C135.277,-90.8798 160.4337,-84.2912 182.3891,-78.541"/>
<polygon fill="#191970" stroke="#191970" points="113.2404,-93.0332 104.4535,-98.9527 115.014,-99.8048 113.2404,-93.0332"/>
</g>
<!-- Node42 -->
<g id="node6" class="node">
<title>Node42</title>
<g id="a_node6"><a xlink:href="structchig_1_1GraphModule.html#a2b80440a0bdf4c760a12ea0309d68060" target="_top" xlink:title="Get the path to the source file It&#39;s not garunteed to exist, because it could have not been saved...">
<polygon fill="#ffffff" stroke="#000000" points="184,-.5 184,-30.5 288,-30.5 288,-.5 184,-.5"/>
<text text-anchor="start" x="192" y="-18.5" font-family="Helvetica,sans-Serif" font-size="10.00" fill="#000000">chig::GraphModule::</text>
<text text-anchor="middle" x="236" y="-7.5" font-family="Helvetica,sans-Serif" font-size="10.00" fill="#000000">sourceFilePath</text>
</a>
</g>
</g>
<!-- Node37&#45;&gt;Node42 -->
<g id="edge6" class="edge">
<title>Node37&#45;&gt;Node42</title>
<path fill="none" stroke="#191970" d="M88.7786,-92.6588C109.1784,-77.6124 141.5762,-55.0415 172,-39.5 178.2349,-36.315 184.9954,-33.3233 191.7079,-30.605"/>
<polygon fill="#191970" stroke="#191970" points="86.4755,-90.0104 80.5557,-98.7972 90.6629,-95.6199 86.4755,-90.0104"/>
</g>
<!-- Node39&#45;&gt;Node40 -->
<g id="edge3" class="edge">
<title>Node39&#45;&gt;Node40</title>
<path fill="none" stroke="#191970" d="M284.2948,-134.4263C300.726,-130.3185 319.1589,-125.7103 335.8763,-121.5309"/>
<polygon fill="#191970" stroke="#191970" points="283.2085,-131.0901 274.356,-136.911 284.9063,-137.8811 283.2085,-131.0901"/>
</g>
<!-- Node42&#45;&gt;Node40 -->
<g id="edge7" class="edge">
<title>Node42&#45;&gt;Node40</title>
<path fill="none" stroke="#191970" d="M290.6867,-34.6897C293.885,-36.2166 297.0127,-37.8217 300,-39.5 327.2507,-54.8098 355.0312,-78.1538 371.8968,-93.3712"/>
<polygon fill="#191970" stroke="#191970" points="292.1012,-31.4882 281.5439,-30.5972 289.2413,-37.8774 292.1012,-31.4882"/>
</g>
<!-- Node43 -->
<g id="node7" class="node">
<title>Node43</title>
<g id="a_node7"><a xlink:href="structchig_1_1GraphModule.html#accb1a64da697a29e28d78a9a09bd52ff" target="_top" xlink:title="Serialize to disk in the context. ">
<polygon fill="#ffffff" stroke="#000000" points="336,-.5 336,-30.5 440,-30.5 440,-.5 336,-.5"/>
<text text-anchor="start" x="344" y="-18.5" font-family="Helvetica,sans-Serif" font-size="10.00" fill="#000000">chig::GraphModule::</text>
<text text-anchor="middle" x="388" y="-7.5" font-family="Helvetica,sans-Serif" font-size="10.00" fill="#000000">saveToDisk</text>
</a>
</g>
</g>
<!-- Node42&#45;&gt;Node43 -->
<g id="edge8" class="edge">
<title>Node42&#45;&gt;Node43</title>
<path fill="none" stroke="#191970" d="M298.5735,-15.5C310.9659,-15.5 323.8501,-15.5 335.8514,-15.5"/>
<polygon fill="#191970" stroke="#191970" points="298.3098,-12.0001 288.3098,-15.5 298.3097,-19.0001 298.3098,-12.0001"/>
</g>
</g>
</svg>
