<?xml version="1.0" encoding="UTF-8" standalone="no"?>
<!DOCTYPE svg PUBLIC "-//W3C//DTD SVG 1.1//EN"
 "http://www.w3.org/Graphics/SVG/1.1/DTD/svg11.dtd">
<!-- Generated by graphviz version 2.40.1 (20161225.0304)
 -->
<!-- Title: chi::Subprocess::started Pages: 1 -->
<svg width="643pt" height="238pt"
 viewBox="0.00 0.00 643.00 238.00" xmlns="http://www.w3.org/2000/svg" xmlns:xlink="http://www.w3.org/1999/xlink">
<g id="graph0" class="graph" transform="scale(1 1) rotate(0) translate(4 234)">
<title>chi::Subprocess::started</title>
<polygon fill="#ffffff" stroke="transparent" points="-4,4 -4,-234 639,-234 639,4 -4,4"/>
<!-- Node283 -->
<g id="node1" class="node">
<title>Node283</title>
<polygon fill="#bfbfbf" stroke="#000000" points="0,-133.5 0,-152.5 123,-152.5 123,-133.5 0,-133.5"/>
<text text-anchor="middle" x="61.5" y="-140.5" font-family="Helvetica,sans-Serif" font-size="10.00" fill="#000000">chi::Subprocess::started</text>
</g>
<!-- Node284 -->
<g id="node2" class="node">
<title>Node284</title>
<g id="a_node2"><a xlink:href="structchi_1_1Subprocess.html#a45fd483d620609100cdd6065ce4751f2" target="_top" xlink:title="Close the STDIN stream (send an EOF) ">
<polygon fill="#ffffff" stroke="#000000" points="163.5,-95.5 163.5,-114.5 303.5,-114.5 303.5,-95.5 163.5,-95.5"/>
<text text-anchor="middle" x="233.5" y="-102.5" font-family="Helvetica,sans-Serif" font-size="10.00" fill="#000000">chi::Subprocess::closeStdIn</text>
</a>
</g>
</g>
<!-- Node283&#45;&gt;Node284 -->
<g id="edge1" class="edge">
<title>Node283&#45;&gt;Node284</title>
<path fill="none" stroke="#191970" d="M104.9029,-133.411C127.9068,-128.3287 156.3509,-122.0446 180.6342,-116.6797"/>
<polygon fill="#191970" stroke="#191970" points="181.3998,-120.095 190.4092,-114.5201 179.8896,-113.2598 181.3998,-120.095"/>
</g>
<!-- Node292 -->
<g id="node10" class="node">
<title>Node292</title>
<g id="a_node10"><a xlink:href="structchi_1_1Subprocess.html#a62114d525126e682028af5a906f771a6" target="_top" xlink:title="Pushes data to the stdin stream of the child process. ">
<polygon fill="#ffffff" stroke="#000000" points="159,-133.5 159,-152.5 308,-152.5 308,-133.5 159,-133.5"/>
<text text-anchor="middle" x="233.5" y="-140.5" font-family="Helvetica,sans-Serif" font-size="10.00" fill="#000000">chi::Subprocess::pushToStdIn</text>
</a>
</g>
</g>
<!-- Node283&#45;&gt;Node292 -->
<g id="edge14" class="edge">
<title>Node283&#45;&gt;Node292</title>
<path fill="none" stroke="#191970" d="M123.1101,-136.4973C131.4241,-136.3244 140.0696,-136.2422 148.699,-136.2506"/>
<polygon fill="#191970" stroke="#191970" points="148.7831,-139.751 158.8009,-136.3021 148.8189,-132.7511 148.7831,-139.751"/>
</g>
<!-- Node285 -->
<g id="node3" class="node">
<title>Node285</title>
<g id="a_node3"><a xlink:href="structchi_1_1Result.html#a59ef40f4a327cbdea263d6e4b5af2ad8" target="_top" xlink:title="Add a entry to the result, either a warning or an error. ">
<polygon fill="#ffffff" stroke="#000000" points="352,-95.5 352,-114.5 460,-114.5 460,-95.5 352,-95.5"/>
<text text-anchor="middle" x="406" y="-102.5" font-family="Helvetica,sans-Serif" font-size="10.00" fill="#000000">chi::Result::addEntry</text>
</a>
</g>
</g>
<!-- Node284&#45;&gt;Node285 -->
<g id="edge2" class="edge">
<title>Node284&#45;&gt;Node285</title>
<path fill="none" stroke="#191970" d="M303.6624,-105C316.1964,-105 329.2004,-105 341.5642,-105"/>
<polygon fill="#191970" stroke="#191970" points="341.775,-108.5001 351.775,-105 341.7749,-101.5001 341.775,-108.5001"/>
</g>
<!-- Node287 -->
<g id="node5" class="node">
<title>Node287</title>
<g id="a_node5"><a xlink:href="structchi_1_1Subprocess.html#a9497b25fd496cd7a0ad464dfeb6e242d" target="_top" xlink:title="Checks if the stdin is closed. ">
<polygon fill="#ffffff" stroke="#000000" points="344,-134 344,-164 468,-164 468,-134 344,-134"/>
<text text-anchor="start" x="352" y="-152" font-family="Helvetica,sans-Serif" font-size="10.00" fill="#000000">chi::Subprocess::isStdIn</text>
<text text-anchor="middle" x="406" y="-141" font-family="Helvetica,sans-Serif" font-size="10.00" fill="#000000">Closed</text>
</a>
</g>
</g>
<!-- Node284&#45;&gt;Node287 -->
<g id="edge4" class="edge">
<title>Node284&#45;&gt;Node287</title>
<path fill="none" stroke="#191970" d="M270.9299,-114.5473C290.2647,-119.4791 314.4799,-125.6558 337.0475,-131.4121"/>
<polygon fill="#191970" stroke="#191970" points="336.3821,-134.8544 346.9369,-133.9346 338.1123,-128.0716 336.3821,-134.8544"/>
</g>
<!-- Node290 -->
<g id="node8" class="node">
<title>Node290</title>
<g id="a_node8"><a xlink:href="structchi_1_1Subprocess.html#ab07c04b4c4ef24cde067e11faf0837ce" target="_top" xlink:title="Check if the process is still running. ">
<polygon fill="#ffffff" stroke="#000000" points="507,-57.5 507,-76.5 632,-76.5 632,-57.5 507,-57.5"/>
<text text-anchor="middle" x="569.5" y="-64.5" font-family="Helvetica,sans-Serif" font-size="10.00" fill="#000000">chi::Subprocess::running</text>
</a>
</g>
</g>
<!-- Node284&#45;&gt;Node290 -->
<g id="edge13" class="edge">
<title>Node284&#45;&gt;Node290</title>
<path fill="none" stroke="#191970" d="M283.4195,-95.477C302.3403,-92.1152 324.1124,-88.5428 344,-86 394.7971,-79.5051 452.3269,-74.6984 496.564,-71.5446"/>
<polygon fill="#191970" stroke="#191970" points="496.9193,-75.0284 506.6501,-70.8376 496.4298,-68.0455 496.9193,-75.0284"/>
</g>
<!-- Node286 -->
<g id="node4" class="node">
<title>Node286</title>
<g id="a_node4"><a xlink:href="structchi_1_1Result.html#aa078d3cb3dfb2fb63e81b71acea036e0" target="_top" xlink:title="Get the JSON associated with the context that&#39;s been added. ">
<polygon fill="#ffffff" stroke="#000000" points="508.5,-95.5 508.5,-114.5 630.5,-114.5 630.5,-95.5 508.5,-95.5"/>
<text text-anchor="middle" x="569.5" y="-102.5" font-family="Helvetica,sans-Serif" font-size="10.00" fill="#000000">chi::Result::contextJson</text>
</a>
</g>
</g>
<!-- Node285&#45;&gt;Node286 -->
<g id="edge3" class="edge">
<title>Node285&#45;&gt;Node286</title>
<path fill="none" stroke="#191970" d="M460.4431,-105C472.5376,-105 485.533,-105 498.1891,-105"/>
<polygon fill="#191970" stroke="#191970" points="498.2426,-108.5001 508.2425,-105 498.2425,-101.5001 498.2426,-108.5001"/>
</g>
<!-- Node288 -->
<g id="node6" class="node">
<title>Node288</title>
<g id="a_node6"><a xlink:href="structchi_1_1Subprocess.html#a2f57bcbe46b93798d8ca769dc7aab4c9" target="_top" xlink:title="Wait and gets the exit code. ">
<polygon fill="#ffffff" stroke="#000000" points="504,-210.5 504,-229.5 635,-229.5 635,-210.5 504,-210.5"/>
<text text-anchor="middle" x="569.5" y="-217.5" font-family="Helvetica,sans-Serif" font-size="10.00" fill="#000000">chi::Subprocess::exitCode</text>
</a>
</g>
</g>
<!-- Node287&#45;&gt;Node288 -->
<g id="edge5" class="edge">
<title>Node287&#45;&gt;Node288</title>
<path fill="none" stroke="#191970" d="M440.6741,-164.0573C469.5191,-176.5832 510.2258,-194.2601 538.1167,-206.3718"/>
<polygon fill="#191970" stroke="#191970" points="536.8406,-209.6333 547.4072,-210.4062 539.6288,-203.2126 536.8406,-209.6333"/>
</g>
<!-- Node289 -->
<g id="node7" class="node">
<title>Node289</title>
<g id="a_node7"><a xlink:href="structchi_1_1Subprocess.html#aaaf29ada876d6088621cc0d8c84c7e47" target="_top" xlink:title="Kill the child process On POSIX, this sends SIGINT. ">
<polygon fill="#ffffff" stroke="#000000" points="517,-150.5 517,-169.5 622,-169.5 622,-150.5 517,-150.5"/>
<text text-anchor="middle" x="569.5" y="-157.5" font-family="Helvetica,sans-Serif" font-size="10.00" fill="#000000">chi::Subprocess::kill</text>
</a>
</g>
</g>
<!-- Node287&#45;&gt;Node289 -->
<g id="edge7" class="edge">
<title>Node287&#45;&gt;Node289</title>
<path fill="none" stroke="#191970" d="M468.2788,-153.19C480.9538,-154.0428 494.292,-154.9401 506.9756,-155.7935"/>
<polygon fill="#191970" stroke="#191970" points="506.7696,-159.2874 516.9821,-156.4667 507.2396,-152.3032 506.7696,-159.2874"/>
</g>
<!-- Node287&#45;&gt;Node290 -->
<g id="edge9" class="edge">
<title>Node287&#45;&gt;Node290</title>
<path fill="none" stroke="#191970" d="M450.2354,-133.9164C456.4253,-131.0284 462.532,-127.7236 468,-124 487.2292,-110.9052 484.1346,-98.1079 504,-86 507.428,-83.9106 511.097,-82.0414 514.883,-80.3707"/>
<polygon fill="#191970" stroke="#191970" points="516.4318,-83.5229 524.4642,-76.6142 513.8766,-77.0059 516.4318,-83.5229"/>
</g>
<!-- Node291 -->
<g id="node9" class="node">
<title>Node291</title>
<g id="a_node9"><a xlink:href="structchi_1_1Subprocess.html#aeea9178c987445e45d97e4d4210a983c" target="_top" xlink:title="Wait for the process to complete. ">
<polygon fill="#ffffff" stroke="#000000" points="514.5,-.5 514.5,-19.5 624.5,-19.5 624.5,-.5 514.5,-.5"/>
<text text-anchor="middle" x="569.5" y="-7.5" font-family="Helvetica,sans-Serif" font-size="10.00" fill="#000000">chi::Subprocess::wait</text>
</a>
</g>
</g>
<!-- Node287&#45;&gt;Node291 -->
<g id="edge11" class="edge">
<title>Node287&#45;&gt;Node291</title>
<path fill="none" stroke="#191970" d="M454.2498,-133.8747C459.2328,-131.0882 463.9461,-127.8211 468,-124 495.1978,-98.3637 478.6951,-75.5064 504,-48 512.9704,-38.2492 525.0292,-30.2864 536.3545,-24.2151"/>
<polygon fill="#191970" stroke="#191970" points="538.2483,-27.1805 545.6113,-19.5623 535.1046,-20.9261 538.2483,-27.1805"/>
</g>
<!-- Node288&#45;&gt;Node283 -->
<g id="edge6" class="edge">
<title>Node288&#45;&gt;Node283</title>
<path fill="none" stroke="#191970" d="M503.8168,-220.0867C421.9298,-218.8314 278.2132,-212.1234 159,-183 134.5204,-177.0197 108.1596,-165.8962 89.0274,-156.8946"/>
<polygon fill="#191970" stroke="#191970" points="90.5221,-153.7297 79.9932,-152.5489 87.4876,-160.0379 90.5221,-153.7297"/>
</g>
<!-- Node289&#45;&gt;Node283 -->
<g id="edge8" class="edge">
<title>Node289&#45;&gt;Node283</title>
<path fill="none" stroke="#191970" d="M516.9616,-168.6427C501.2586,-170.8479 483.9719,-172.9037 468,-174 330.8858,-183.4116 295.3017,-179.628 159,-162 144.27,-160.095 128.4158,-157.3213 113.8611,-154.479"/>
<polygon fill="#191970" stroke="#191970" points="114.5145,-151.0404 104.0221,-152.5102 113.1409,-157.9044 114.5145,-151.0404"/>
</g>
<!-- Node290&#45;&gt;Node283 -->
<g id="edge10" class="edge">
<title>Node290&#45;&gt;Node283</title>
<path fill="none" stroke="#191970" d="M506.8676,-59.9612C424.7908,-52.9512 277.378,-48.0369 159,-86 130.3096,-95.2009 100.9327,-113.8932 82.0307,-127.3674"/>
<polygon fill="#191970" stroke="#191970" points="79.894,-124.5938 73.8826,-133.3181 84.0225,-130.2468 79.894,-124.5938"/>
</g>
<!-- Node291&#45;&gt;Node283 -->
<g id="edge12" class="edge">
<title>Node291&#45;&gt;Node283</title>
<path fill="none" stroke="#191970" d="M514.2548,-5.6118C432.7174,-1.3853 277.0709,-2.0307 159,-55 123.5024,-70.925 92.0112,-104.7139 74.9549,-125.4796"/>
<polygon fill="#191970" stroke="#191970" points="72.0624,-123.4929 68.5592,-133.4918 77.5332,-127.8599 72.0624,-123.4929"/>
</g>
<!-- Node292&#45;&gt;Node283 -->
<g id="edge17" class="edge">
<title>Node292&#45;&gt;Node283</title>
<path fill="none" stroke="#191970" d="M158.8009,-149.6979C150.3304,-149.7764 141.7111,-149.7662 133.2794,-149.6673"/>
<polygon fill="#191970" stroke="#191970" points="133.1655,-146.1651 123.1101,-149.5027 133.0521,-153.1642 133.1655,-146.1651"/>
</g>
<!-- Node292&#45;&gt;Node285 -->
<g id="edge15" class="edge">
<title>Node292&#45;&gt;Node285</title>
<path fill="none" stroke="#191970" d="M277.029,-133.411C300.0999,-128.3287 328.6266,-122.0446 352.9805,-116.6797"/>
<polygon fill="#191970" stroke="#191970" points="353.7711,-120.0895 362.784,-114.5201 352.2651,-113.2534 353.7711,-120.0895"/>
</g>
<!-- Node292&#45;&gt;Node287 -->
<g id="edge16" class="edge">
<title>Node292&#45;&gt;Node287</title>
<path fill="none" stroke="#191970" d="M308.1577,-145.5968C316.6379,-145.8918 325.2704,-146.192 333.7192,-146.4859"/>
<polygon fill="#191970" stroke="#191970" points="333.7954,-149.9906 343.9111,-146.8404 334.0388,-142.9948 333.7954,-149.9906"/>
</g>
</g>
</svg>
