<?xml version="1.0" encoding="UTF-8" standalone="no"?>
<!DOCTYPE svg PUBLIC "-//W3C//DTD SVG 1.1//EN"
 "http://www.w3.org/Graphics/SVG/1.1/DTD/svg11.dtd">
<!-- Generated by graphviz version 2.40.1 (20161225.0304)
 -->
<!-- Title: chig::GraphFunction::addExecOutput Pages: 1 -->
<svg width="741pt" height="137pt"
 viewBox="0.00 0.00 741.00 137.00" xmlns="http://www.w3.org/2000/svg" xmlns:xlink="http://www.w3.org/1999/xlink">
<g id="graph0" class="graph" transform="scale(1 1) rotate(0) translate(4 133)">
<title>chig::GraphFunction::addExecOutput</title>
<polygon fill="#ffffff" stroke="transparent" points="-4,4 -4,-133 737,-133 737,4 -4,4"/>
<!-- Node64 -->
<g id="node1" class="node">
<title>Node64</title>
<polygon fill="#bfbfbf" stroke="#000000" points="0,-44.5 0,-74.5 113,-74.5 113,-44.5 0,-44.5"/>
<text text-anchor="start" x="8" y="-62.5" font-family="Helvetica,sans-Serif" font-size="10.00" fill="#000000">chig::GraphFunction</text>
<text text-anchor="middle" x="56.5" y="-51.5" font-family="Helvetica,sans-Serif" font-size="10.00" fill="#000000">::addExecOutput</text>
</g>
<!-- Node65 -->
<g id="node2" class="node">
<title>Node65</title>
<g id="a_node2"><a xlink:href="structchig_1_1GraphFunction.html#ae155f716b072ef5f8e3ba064ae7ef8c0" target="_top" xlink:title="Get the function exec outputs. ">
<polygon fill="#ffffff" stroke="#000000" points="149,-44.5 149,-74.5 262,-74.5 262,-44.5 149,-44.5"/>
<text text-anchor="start" x="157" y="-62.5" font-family="Helvetica,sans-Serif" font-size="10.00" fill="#000000">chig::GraphFunction</text>
<text text-anchor="middle" x="205.5" y="-51.5" font-family="Helvetica,sans-Serif" font-size="10.00" fill="#000000">::execOutputs</text>
</a>
</g>
</g>
<!-- Node64&#45;&gt;Node65 -->
<g id="edge1" class="edge">
<title>Node64&#45;&gt;Node65</title>
<path fill="none" stroke="#191970" d="M123.5076,-59.5C131.9902,-59.5 140.6037,-59.5 148.9022,-59.5"/>
<polygon fill="#191970" stroke="#191970" points="123.2556,-56.0001 113.2556,-59.5 123.2555,-63.0001 123.2556,-56.0001"/>
</g>
<!-- Node66 -->
<g id="node3" class="node">
<title>Node66</title>
<g id="a_node3"><a xlink:href="structchig_1_1GraphFunction.html#a5a8768d5514a31104f0b3a9b5553099c" target="_top" xlink:title="Serialize the GraphFunction to JSON (usually called from JsonModule::toJson) ">
<polygon fill="#ffffff" stroke="#000000" points="302.5,-93.5 302.5,-123.5 415.5,-123.5 415.5,-93.5 302.5,-93.5"/>
<text text-anchor="start" x="310.5" y="-111.5" font-family="Helvetica,sans-Serif" font-size="10.00" fill="#000000">chig::GraphFunction</text>
<text text-anchor="middle" x="359" y="-100.5" font-family="Helvetica,sans-Serif" font-size="10.00" fill="#000000">::toJSON</text>
</a>
</g>
</g>
<!-- Node65&#45;&gt;Node66 -->
<g id="edge2" class="edge">
<title>Node65&#45;&gt;Node66</title>
<path fill="none" stroke="#191970" d="M262.6994,-77.7591C278.8895,-82.9273 296.3232,-88.4924 311.8486,-93.4484"/>
<polygon fill="#191970" stroke="#191970" points="263.3984,-74.3083 252.8076,-74.6014 261.2696,-80.9767 263.3984,-74.3083"/>
</g>
<!-- Node67 -->
<g id="node4" class="node">
<title>Node67</title>
<g id="a_node4"><a xlink:href="structchig_1_1GraphFunction.html#ac7c52122fef0c74d9d0ee04af9a741c4" target="_top" xlink:title="Create a fresh NodeType for an exit. ">
<polygon fill="#ffffff" stroke="#000000" points="298,-44.5 298,-74.5 420,-74.5 420,-44.5 298,-44.5"/>
<text text-anchor="start" x="306" y="-62.5" font-family="Helvetica,sans-Serif" font-size="10.00" fill="#000000">chig::GraphFunction</text>
<text text-anchor="middle" x="359" y="-51.5" font-family="Helvetica,sans-Serif" font-size="10.00" fill="#000000">::createExitNodeType</text>
</a>
</g>
</g>
<!-- Node65&#45;&gt;Node67 -->
<g id="edge3" class="edge">
<title>Node65&#45;&gt;Node67</title>
<path fill="none" stroke="#191970" d="M272.4306,-59.5C280.889,-59.5 289.5091,-59.5 297.871,-59.5"/>
<polygon fill="#191970" stroke="#191970" points="272.2217,-56.0001 262.2216,-59.5 272.2216,-63.0001 272.2217,-56.0001"/>
</g>
<!-- Node68 -->
<g id="node5" class="node">
<title>Node68</title>
<g id="a_node5"><a xlink:href="structchig_1_1GraphFunction.html#a70b74dd7330f7afb2b3ab38feebd57c5" target="_top" xlink:title="Add a node to the graph. ">
<polygon fill="#ffffff" stroke="#000000" points="456,-49.5 456,-79.5 569,-79.5 569,-49.5 456,-49.5"/>
<text text-anchor="start" x="464" y="-67.5" font-family="Helvetica,sans-Serif" font-size="10.00" fill="#000000">chig::GraphFunction</text>
<text text-anchor="middle" x="512.5" y="-56.5" font-family="Helvetica,sans-Serif" font-size="10.00" fill="#000000">::insertNode</text>
</a>
</g>
</g>
<!-- Node67&#45;&gt;Node68 -->
<g id="edge4" class="edge">
<title>Node67&#45;&gt;Node68</title>
<path fill="none" stroke="#191970" d="M430.3578,-61.8244C438.8191,-62.1 447.3682,-62.3784 455.5911,-62.6463"/>
<polygon fill="#191970" stroke="#191970" points="430.217,-58.318 420.1083,-61.4905 429.989,-65.3143 430.217,-58.318"/>
</g>
<!-- Node71 -->
<g id="node8" class="node">
<title>Node71</title>
<g id="a_node8"><a xlink:href="structchig_1_1GraphFunction.html#ae355b017f2859dabff4fa17791317d77" target="_top" xlink:title="Modify an exec output (change docstring) ">
<polygon fill="#ffffff" stroke="#000000" points="456,-.5 456,-30.5 569,-30.5 569,-.5 456,-.5"/>
<text text-anchor="start" x="464" y="-18.5" font-family="Helvetica,sans-Serif" font-size="10.00" fill="#000000">chig::GraphFunction</text>
<text text-anchor="middle" x="512.5" y="-7.5" font-family="Helvetica,sans-Serif" font-size="10.00" fill="#000000">::modifyExecOutput</text>
</a>
</g>
</g>
<!-- Node67&#45;&gt;Node71 -->
<g id="edge8" class="edge">
<title>Node67&#45;&gt;Node71</title>
<path fill="none" stroke="#191970" d="M421.1388,-41.6882C434.0581,-37.985 447.5509,-34.1173 460.079,-30.5262"/>
<polygon fill="#191970" stroke="#191970" points="420.0451,-38.3607 411.3967,-44.4808 421.974,-45.0897 420.0451,-38.3607"/>
</g>
<!-- Node69 -->
<g id="node6" class="node">
<title>Node69</title>
<g id="a_node6"><a xlink:href="structchig_1_1GraphFunction.html#a449ab966907b5e32dd00d5f6bb1b3ede" target="_top" xlink:title="Add a node to the graph using module, type, and json. ">
<polygon fill="#ffffff" stroke="#000000" points="612.5,-98.5 612.5,-128.5 725.5,-128.5 725.5,-98.5 612.5,-98.5"/>
<text text-anchor="start" x="620.5" y="-116.5" font-family="Helvetica,sans-Serif" font-size="10.00" fill="#000000">chig::GraphFunction</text>
<text text-anchor="middle" x="669" y="-105.5" font-family="Helvetica,sans-Serif" font-size="10.00" fill="#000000">::insertNode</text>
</a>
</g>
</g>
<!-- Node68&#45;&gt;Node69 -->
<g id="edge5" class="edge">
<title>Node68&#45;&gt;Node69</title>
<path fill="none" stroke="#191970" d="M570.3504,-82.6129C586.9883,-87.8222 604.9489,-93.4457 620.9271,-98.4484"/>
<polygon fill="#191970" stroke="#191970" points="571.3211,-79.2494 560.7322,-79.6014 569.2295,-85.9296 571.3211,-79.2494"/>
</g>
<!-- Node70 -->
<g id="node7" class="node">
<title>Node70</title>
<g id="a_node7"><a xlink:href="structchig_1_1GraphFunction.html#a1fd77fbd5bb46690fdc79cd9c6d35917" target="_top" xlink:title="Creates an entry node if it doesn&#39;t already exist, else just return it. ">
<polygon fill="#ffffff" stroke="#000000" points="605,-49.5 605,-79.5 733,-79.5 733,-49.5 605,-49.5"/>
<text text-anchor="start" x="613" y="-67.5" font-family="Helvetica,sans-Serif" font-size="10.00" fill="#000000">chig::GraphFunction</text>
<text text-anchor="middle" x="669" y="-56.5" font-family="Helvetica,sans-Serif" font-size="10.00" fill="#000000">::getOrInsertEntryNode</text>
</a>
</g>
</g>
<!-- Node68&#45;&gt;Node70 -->
<g id="edge6" class="edge">
<title>Node68&#45;&gt;Node70</title>
<path fill="none" stroke="#191970" d="M579.2454,-57.8153C587.7427,-57.7182 596.4251,-57.7294 604.8798,-57.8488"/>
<polygon fill="#191970" stroke="#191970" points="578.9399,-54.3198 569.0001,-57.9873 579.0575,-61.3188 578.9399,-54.3198"/>
</g>
<!-- Node70&#45;&gt;Node68 -->
<g id="edge7" class="edge">
<title>Node70&#45;&gt;Node68</title>
<path fill="none" stroke="#191970" d="M594.7643,-71.2421C586.0999,-71.2762 577.3697,-71.1998 569.0001,-71.0127"/>
<polygon fill="#191970" stroke="#191970" points="594.9117,-74.741 604.8798,-71.1512 594.8487,-67.7413 594.9117,-74.741"/>
</g>
<!-- Node71&#45;&gt;Node65 -->
<g id="edge9" class="edge">
<title>Node71&#45;&gt;Node65</title>
<path fill="none" stroke="#191970" d="M445.4941,-18.9681C403.006,-21.8515 347.0089,-26.9148 298,-35.5 284.763,-37.8188 270.6422,-41.0729 257.5219,-44.4384"/>
<polygon fill="#191970" stroke="#191970" points="445.967,-22.4447 455.7168,-18.2985 445.5094,-15.4596 445.967,-22.4447"/>
</g>
</g>
</svg>
