<?xml version="1.0" encoding="UTF-8" standalone="no"?>
<!DOCTYPE svg PUBLIC "-//W3C//DTD SVG 1.1//EN"
 "http://www.w3.org/Graphics/SVG/1.1/DTD/svg11.dtd">
<!-- Generated by graphviz version 2.40.1 (20161225.0304)
 -->
<!-- Title: chig::GraphFunction::getOrCreateLocalVariable Pages: 1 -->
<svg width="304pt" height="39pt"
 viewBox="0.00 0.00 304.00 39.00" xmlns="http://www.w3.org/2000/svg" xmlns:xlink="http://www.w3.org/1999/xlink">
<g id="graph0" class="graph" transform="scale(1 1) rotate(0) translate(4 35)">
<title>chig::GraphFunction::getOrCreateLocalVariable</title>
<polygon fill="#ffffff" stroke="transparent" points="-4,4 -4,-35 300,-35 300,4 -4,4"/>
<!-- Node271 -->
<g id="node1" class="node">
<title>Node271</title>
<polygon fill="#bfbfbf" stroke="#000000" points="0,-.5 0,-30.5 134,-30.5 134,-.5 0,-.5"/>
<text text-anchor="start" x="8" y="-18.5" font-family="Helvetica,sans-Serif" font-size="10.00" fill="#000000">chig::GraphFunction</text>
<text text-anchor="middle" x="67" y="-7.5" font-family="Helvetica,sans-Serif" font-size="10.00" fill="#000000">::getOrCreateLocalVariable</text>
</g>
<!-- Node272 -->
<g id="node2" class="node">
<title>Node272</title>
<g id="a_node2"><a xlink:href="structchig_1_1GraphFunction.html#a04b1b8884a857c88ae1eead02d7f49da" target="_top" xlink:title="Get a local varaible by name. ">
<polygon fill="#ffffff" stroke="#000000" points="170,-.5 170,-30.5 296,-30.5 296,-.5 170,-.5"/>
<text text-anchor="start" x="178" y="-18.5" font-family="Helvetica,sans-Serif" font-size="10.00" fill="#000000">chig::GraphFunction</text>
<text text-anchor="middle" x="233" y="-7.5" font-family="Helvetica,sans-Serif" font-size="10.00" fill="#000000">::localVariableFromName</text>
</a>
</g>
</g>
<!-- Node271&#45;&gt;Node272 -->
<g id="edge1" class="edge">
<title>Node271&#45;&gt;Node272</title>
<path fill="none" stroke="#191970" d="M134.0401,-15.5C142.4204,-15.5 151.0263,-15.5 159.4985,-15.5"/>
<polygon fill="#191970" stroke="#191970" points="159.7422,-19.0001 169.7421,-15.5 159.7421,-12.0001 159.7422,-19.0001"/>
</g>
</g>
</svg>
