<?xml version="1.0" encoding="UTF-8" standalone="no"?>
<!DOCTYPE svg PUBLIC "-//W3C//DTD SVG 1.1//EN"
 "http://www.w3.org/Graphics/SVG/1.1/DTD/svg11.dtd">
<!-- Generated by graphviz version 2.40.1 (20161225.0304)
 -->
<!-- Title: chi::GraphModule::addForwardDeclarations Pages: 1 -->
<svg width="330pt" height="39pt"
 viewBox="0.00 0.00 330.00 39.00" xmlns="http://www.w3.org/2000/svg" xmlns:xlink="http://www.w3.org/1999/xlink">
<g id="graph0" class="graph" transform="scale(1 1) rotate(0) translate(4 35)">
<title>chi::GraphModule::addForwardDeclarations</title>
<polygon fill="#ffffff" stroke="transparent" points="-4,4 -4,-35 326,-35 326,4 -4,4"/>
<!-- Node133 -->
<g id="node1" class="node">
<title>Node133</title>
<polygon fill="#bfbfbf" stroke="#000000" points="0,-.5 0,-30.5 149,-30.5 149,-.5 0,-.5"/>
<text text-anchor="start" x="8" y="-18.5" font-family="Helvetica,sans-Serif" font-size="10.00" fill="#000000">chi::GraphModule::addForward</text>
<text text-anchor="middle" x="74.5" y="-7.5" font-family="Helvetica,sans-Serif" font-size="10.00" fill="#000000">Declarations</text>
</g>
<!-- Node134 -->
<g id="node2" class="node">
<title>Node134</title>
<g id="a_node2"><a xlink:href="structchi_1_1GraphModule.html#a9b73bbbfa91d6a2f92bcca270bdb7b2f" target="_top" xlink:title="Generate a llvm::Module from the module. ">
<polygon fill="#ffffff" stroke="#000000" points="185,-.5 185,-30.5 322,-30.5 322,-.5 185,-.5"/>
<text text-anchor="start" x="193" y="-18.5" font-family="Helvetica,sans-Serif" font-size="10.00" fill="#000000">chi::GraphModule::generate</text>
<text text-anchor="middle" x="253.5" y="-7.5" font-family="Helvetica,sans-Serif" font-size="10.00" fill="#000000">Module</text>
</a>
</g>
</g>
<!-- Node133&#45;&gt;Node134 -->
<g id="edge1" class="edge">
<title>Node133&#45;&gt;Node134</title>
<path fill="none" stroke="#191970" d="M159.1369,-15.5C167.7127,-15.5 176.3483,-15.5 184.7274,-15.5"/>
<polygon fill="#191970" stroke="#191970" points="159.116,-12.0001 149.1159,-15.5 159.1159,-19.0001 159.116,-12.0001"/>
</g>
</g>
</svg>
