<?xml version="1.0" encoding="UTF-8" standalone="no"?>
<!DOCTYPE svg PUBLIC "-//W3C//DTD SVG 1.1//EN"
 "http://www.w3.org/Graphics/SVG/1.1/DTD/svg11.dtd">
<!-- Generated by graphviz version 2.40.1 (20161225.0304)
 -->
<!-- Title: chi::GraphFunction::dataOutputs Pages: 1 -->
<svg width="1068pt" height="232pt"
 viewBox="0.00 0.00 1068.00 231.68" xmlns="http://www.w3.org/2000/svg" xmlns:xlink="http://www.w3.org/1999/xlink">
<g id="graph0" class="graph" transform="scale(1 1) rotate(0) translate(4 227.6826)">
<title>chi::GraphFunction::dataOutputs</title>
<polygon fill="#ffffff" stroke="transparent" points="-4,4 -4,-227.6826 1064,-227.6826 1064,4 -4,4"/>
<!-- Node242 -->
<g id="node1" class="node">
<title>Node242</title>
<polygon fill="#bfbfbf" stroke="#000000" points="0,-105.1826 0,-135.1826 99,-135.1826 99,-105.1826 0,-105.1826"/>
<text text-anchor="start" x="8" y="-123.1826" font-family="Helvetica,sans-Serif" font-size="10.00" fill="#000000">chi::GraphFunction</text>
<text text-anchor="middle" x="49.5" y="-112.1826" font-family="Helvetica,sans-Serif" font-size="10.00" fill="#000000">::dataOutputs</text>
</g>
<!-- Node243 -->
<g id="node2" class="node">
<title>Node243</title>
<g id="a_node2"><a xlink:href="structchi_1_1GraphFunction.html#af14ad950cfff4ad3091827f9b6ad1cd2" target="_top" xlink:title="Create a fresh NodeType for an exit. ">
<polygon fill="#ffffff" stroke="#000000" points="135,-56.1826 135,-86.1826 246,-86.1826 246,-56.1826 135,-56.1826"/>
<text text-anchor="start" x="143" y="-74.1826" font-family="Helvetica,sans-Serif" font-size="10.00" fill="#000000">chi::GraphFunction</text>
<text text-anchor="middle" x="190.5" y="-63.1826" font-family="Helvetica,sans-Serif" font-size="10.00" fill="#000000">::createExitNodeType</text>
</a>
</g>
</g>
<!-- Node242&#45;&gt;Node243 -->
<g id="edge1" class="edge">
<title>Node242&#45;&gt;Node243</title>
<path fill="none" stroke="#191970" d="M102.4171,-101.7929C117.0981,-96.691 132.8658,-91.2115 146.9456,-86.3185"/>
<polygon fill="#191970" stroke="#191970" points="101.2521,-98.4924 92.9552,-105.0811 103.55,-105.1045 101.2521,-98.4924"/>
</g>
<!-- Node247 -->
<g id="node6" class="node">
<title>Node247</title>
<g id="a_node6"><a xlink:href="namespacechi.html#a6e8d6d34851f9df4edc4b82fedf424ce" target="_top" xlink:title="Make sure it&#39;s a valid signautre for a main function. ">
<polygon fill="#ffffff" stroke="#000000" points="585.5,-149.1826 585.5,-179.1826 713.5,-179.1826 713.5,-149.1826 585.5,-149.1826"/>
<text text-anchor="start" x="593.5" y="-167.1826" font-family="Helvetica,sans-Serif" font-size="10.00" fill="#000000">chi::validateFunctionMain</text>
<text text-anchor="middle" x="649.5" y="-156.1826" font-family="Helvetica,sans-Serif" font-size="10.00" fill="#000000">Signature</text>
</a>
</g>
</g>
<!-- Node242&#45;&gt;Node247 -->
<g id="edge17" class="edge">
<title>Node242&#45;&gt;Node247</title>
<path fill="none" stroke="#191970" d="M103.2183,-138.0801C113.6553,-140.9321 124.5881,-143.4949 135,-145.1826 295.3622,-171.1753 487.3535,-169.8372 585.2334,-166.8745"/>
<polygon fill="#191970" stroke="#191970" points="103.9734,-134.6559 93.3967,-135.2763 102.0518,-141.387 103.9734,-134.6559"/>
</g>
<!-- Node250 -->
<g id="node9" class="node">
<title>Node250</title>
<g id="a_node9"><a xlink:href="namespacechi.html#afd8b8d8a207d88359ad1e6a48d8f3bb1" target="_top" xlink:title="Serialize a GraphFunction to json. ">
<polygon fill="#ffffff" stroke="#000000" points="585,-11.6826 585,-30.6826 714,-30.6826 714,-11.6826 585,-11.6826"/>
<text text-anchor="middle" x="649.5" y="-18.6826" font-family="Helvetica,sans-Serif" font-size="10.00" fill="#000000">chi::graphFunctionToJson</text>
</a>
</g>
</g>
<!-- Node242&#45;&gt;Node250 -->
<g id="edge14" class="edge">
<title>Node242&#45;&gt;Node250</title>
<path fill="none" stroke="#191970" d="M68.9193,-97.0045C84.7566,-79.9146 108.7393,-57.8564 135,-47.1826 288.0734,15.0351 488.1695,.9917 587.6938,-11.645"/>
<polygon fill="#191970" stroke="#191970" points="65.8907,-95.1398 61.8247,-104.9234 71.1044,-99.8108 65.8907,-95.1398"/>
</g>
<!-- Node253 -->
<g id="node12" class="node">
<title>Node253</title>
<g id="a_node12"><a xlink:href="structchi_1_1GraphFunction.html#aa2c89c659786c9928a616a81dab267e4" target="_top" xlink:title="Get the LLVM function type for the function. ">
<polygon fill="#ffffff" stroke="#000000" points="141,-105.1826 141,-135.1826 240,-135.1826 240,-105.1826 141,-105.1826"/>
<text text-anchor="start" x="149" y="-123.1826" font-family="Helvetica,sans-Serif" font-size="10.00" fill="#000000">chi::GraphFunction</text>
<text text-anchor="middle" x="190.5" y="-112.1826" font-family="Helvetica,sans-Serif" font-size="10.00" fill="#000000">::functionType</text>
</a>
</g>
</g>
<!-- Node242&#45;&gt;Node253 -->
<g id="edge12" class="edge">
<title>Node242&#45;&gt;Node253</title>
<path fill="none" stroke="#191970" d="M109.4944,-120.1826C119.9166,-120.1826 130.6522,-120.1826 140.7623,-120.1826"/>
<polygon fill="#191970" stroke="#191970" points="109.2114,-116.6827 99.2113,-120.1826 109.2113,-123.6827 109.2114,-116.6827"/>
</g>
<!-- Node254 -->
<g id="node13" class="node">
<title>Node254</title>
<g id="a_node13"><a xlink:href="namespacechi.html#af52d66c93c9e19da67c21bbb5747f5a4" target="_top" xlink:title="Make sure the function exit types align with the function type. ">
<polygon fill="#ffffff" stroke="#000000" points="425,-193.1826 425,-223.1826 549,-223.1826 549,-193.1826 425,-193.1826"/>
<text text-anchor="start" x="433" y="-211.1826" font-family="Helvetica,sans-Serif" font-size="10.00" fill="#000000">chi::validateFunctionExit</text>
<text text-anchor="middle" x="487" y="-200.1826" font-family="Helvetica,sans-Serif" font-size="10.00" fill="#000000">Types</text>
</a>
</g>
</g>
<!-- Node242&#45;&gt;Node254 -->
<g id="edge15" class="edge">
<title>Node242&#45;&gt;Node254</title>
<path fill="none" stroke="#191970" d="M73.921,-141.7639C90.0826,-154.7105 112.3964,-170.1731 135,-178.1826 231.9773,-212.5458 353.0042,-214.7559 424.9222,-212.1961"/>
<polygon fill="#191970" stroke="#191970" points="76.0014,-138.9428 66.0613,-135.2759 71.5451,-144.3411 76.0014,-138.9428"/>
</g>
<!-- Node244 -->
<g id="node3" class="node">
<title>Node244</title>
<g id="a_node3"><a xlink:href="structchi_1_1GraphFunction.html#a900c0b670ad04a76b6add803ade7ae0d" target="_top" xlink:title="Get the nodes in the function Usually called by connectData or connectExec or GraphFunction. ">
<polygon fill="#ffffff" stroke="#000000" points="286,-105.1826 286,-135.1826 385,-135.1826 385,-105.1826 286,-105.1826"/>
<text text-anchor="start" x="294" y="-123.1826" font-family="Helvetica,sans-Serif" font-size="10.00" fill="#000000">chi::GraphFunction</text>
<text text-anchor="middle" x="335.5" y="-112.1826" font-family="Helvetica,sans-Serif" font-size="10.00" fill="#000000">::nodes</text>
</a>
</g>
</g>
<!-- Node243&#45;&gt;Node244 -->
<g id="edge2" class="edge">
<title>Node243&#45;&gt;Node244</title>
<path fill="none" stroke="#191970" d="M244.9183,-89.5722C260.0158,-94.6741 276.2308,-100.1537 290.71,-105.0467"/>
<polygon fill="#191970" stroke="#191970" points="245.7822,-86.1697 235.1879,-86.284 243.5411,-92.8013 245.7822,-86.1697"/>
</g>
<!-- Node245 -->
<g id="node4" class="node">
<title>Node245</title>
<g id="a_node4"><a xlink:href="structchi_1_1GraphFunction.html#a3c10d56dd68371400993b4a3c120f585" target="_top" xlink:title="Rename an exec output If idx is out of range, this function does nothing. ">
<polygon fill="#ffffff" stroke="#000000" points="282,-56.1826 282,-86.1826 389,-86.1826 389,-56.1826 282,-56.1826"/>
<text text-anchor="start" x="290" y="-74.1826" font-family="Helvetica,sans-Serif" font-size="10.00" fill="#000000">chi::GraphFunction</text>
<text text-anchor="middle" x="335.5" y="-63.1826" font-family="Helvetica,sans-Serif" font-size="10.00" fill="#000000">::renameExecOutput</text>
</a>
</g>
</g>
<!-- Node243&#45;&gt;Node245 -->
<g id="edge3" class="edge">
<title>Node243&#45;&gt;Node245</title>
<path fill="none" stroke="#191970" d="M256.3807,-71.1826C264.8463,-71.1826 273.4333,-71.1826 281.6748,-71.1826"/>
<polygon fill="#191970" stroke="#191970" points="256.1461,-67.6827 246.1461,-71.1826 256.1461,-74.6827 256.1461,-67.6827"/>
</g>
<!-- Node246 -->
<g id="node5" class="node">
<title>Node246</title>
<g id="a_node5"><a xlink:href="structchi_1_1GraphFunction.html#ab47bbbd84f14240b824c1a780b125207" target="_top" xlink:title="Get the function exec outputs. ">
<polygon fill="#ffffff" stroke="#000000" points="437.5,-37.1826 437.5,-67.1826 536.5,-67.1826 536.5,-37.1826 437.5,-37.1826"/>
<text text-anchor="start" x="445.5" y="-55.1826" font-family="Helvetica,sans-Serif" font-size="10.00" fill="#000000">chi::GraphFunction</text>
<text text-anchor="middle" x="487" y="-44.1826" font-family="Helvetica,sans-Serif" font-size="10.00" fill="#000000">::execOutputs</text>
</a>
</g>
</g>
<!-- Node245&#45;&gt;Node246 -->
<g id="edge4" class="edge">
<title>Node245&#45;&gt;Node246</title>
<path fill="none" stroke="#191970" d="M399.3968,-63.1691C412.094,-61.5767 425.2467,-59.9272 437.3801,-58.4055"/>
<polygon fill="#191970" stroke="#191970" points="398.8265,-59.7131 389.3398,-64.4304 399.6976,-66.6587 398.8265,-59.7131"/>
</g>
<!-- Node246&#45;&gt;Node243 -->
<g id="edge8" class="edge">
<title>Node246&#45;&gt;Node243</title>
<path fill="none" stroke="#191970" d="M427.3841,-45.9574C386.3444,-42.8374 330.6622,-40.9068 282,-47.1826 267.6667,-49.0311 252.3755,-52.4447 238.4787,-56.129"/>
<polygon fill="#191970" stroke="#191970" points="427.2403,-49.4571 437.4892,-46.772 427.8028,-42.4797 427.2403,-49.4571"/>
</g>
<!-- Node246&#45;&gt;Node247 -->
<g id="edge5" class="edge">
<title>Node246&#45;&gt;Node247</title>
<path fill="none" stroke="#191970" d="M517.4663,-73.1809C549.5564,-95.2984 599.2889,-129.5756 627.6728,-149.1386"/>
<polygon fill="#191970" stroke="#191970" points="519.1355,-70.0806 508.9155,-67.2874 515.163,-75.8442 519.1355,-70.0806"/>
</g>
<!-- Node246&#45;&gt;Node250 -->
<g id="edge9" class="edge">
<title>Node246&#45;&gt;Node250</title>
<path fill="none" stroke="#191970" d="M546.6866,-40.7962C564.0765,-37.4787 582.8872,-33.8902 599.6057,-30.7009"/>
<polygon fill="#191970" stroke="#191970" points="545.8053,-37.4011 536.6383,-42.7131 547.1171,-44.2771 545.8053,-37.4011"/>
</g>
<!-- Node248 -->
<g id="node7" class="node">
<title>Node248</title>
<g id="a_node7"><a xlink:href="namespacechi.html#acdc71d0d7f04f55316cc16af79b7f5b1" target="_top" xlink:title="Validate that a function is compilable. ">
<polygon fill="#ffffff" stroke="#000000" points="758,-176.6826 758,-195.6826 865,-195.6826 865,-176.6826 758,-176.6826"/>
<text text-anchor="middle" x="811.5" y="-183.6826" font-family="Helvetica,sans-Serif" font-size="10.00" fill="#000000">chi::validateFunction</text>
</a>
</g>
</g>
<!-- Node247&#45;&gt;Node248 -->
<g id="edge6" class="edge">
<title>Node247&#45;&gt;Node248</title>
<path fill="none" stroke="#191970" d="M723.6014,-174.2457C735.1481,-175.8138 746.8831,-177.4074 757.8587,-178.898"/>
<polygon fill="#191970" stroke="#191970" points="723.9068,-170.7552 713.5267,-172.8776 722.9647,-177.6915 723.9068,-170.7552"/>
</g>
<!-- Node249 -->
<g id="node8" class="node">
<title>Node249</title>
<g id="a_node8"><a xlink:href="structchi_1_1FunctionCompiler.html#a344523ec8a120e2001436268bd47de52" target="_top" xlink:title="Creates the function, but don&#39;t actually generate into it. ">
<polygon fill="#ffffff" stroke="#000000" points="929,-171.1826 929,-201.1826 1040,-201.1826 1040,-171.1826 929,-171.1826"/>
<text text-anchor="start" x="937" y="-189.1826" font-family="Helvetica,sans-Serif" font-size="10.00" fill="#000000">chi::FunctionCompiler</text>
<text text-anchor="middle" x="984.5" y="-178.1826" font-family="Helvetica,sans-Serif" font-size="10.00" fill="#000000">::initialize</text>
</a>
</g>
</g>
<!-- Node248&#45;&gt;Node249 -->
<g id="edge7" class="edge">
<title>Node248&#45;&gt;Node249</title>
<path fill="none" stroke="#191970" d="M875.4512,-186.1826C893.0116,-186.1826 911.9049,-186.1826 928.951,-186.1826"/>
<polygon fill="#191970" stroke="#191970" points="875.29,-182.6827 865.29,-186.1826 875.2899,-189.6827 875.29,-182.6827"/>
</g>
<!-- Node251 -->
<g id="node10" class="node">
<title>Node251</title>
<g id="a_node10"><a xlink:href="namespacechi.html#a9a4f3fa54c612f0c559a353bb7382d5a" target="_top" xlink:title="Serialize a JsonModule to json. ">
<polygon fill="#ffffff" stroke="#000000" points="750,-11.6826 750,-30.6826 873,-30.6826 873,-11.6826 750,-11.6826"/>
<text text-anchor="middle" x="811.5" y="-18.6826" font-family="Helvetica,sans-Serif" font-size="10.00" fill="#000000">chi::graphModuleToJson</text>
</a>
</g>
</g>
<!-- Node250&#45;&gt;Node251 -->
<g id="edge10" class="edge">
<title>Node250&#45;&gt;Node251</title>
<path fill="none" stroke="#191970" d="M724.7026,-21.1826C733.1561,-21.1826 741.6942,-21.1826 749.9461,-21.1826"/>
<polygon fill="#191970" stroke="#191970" points="724.4582,-17.6827 714.4582,-21.1826 724.4581,-24.6827 724.4582,-17.6827"/>
</g>
<!-- Node252 -->
<g id="node11" class="node">
<title>Node252</title>
<g id="a_node11"><a xlink:href="structchi_1_1GraphModule.html#a5cd9fb1738336d5d382ebb50753bda3e" target="_top" xlink:title="Serialize to disk in the context. ">
<polygon fill="#ffffff" stroke="#000000" points="909,-11.6826 909,-30.6826 1060,-30.6826 1060,-11.6826 909,-11.6826"/>
<text text-anchor="middle" x="984.5" y="-18.6826" font-family="Helvetica,sans-Serif" font-size="10.00" fill="#000000">chi::GraphModule::saveToDisk</text>
</a>
</g>
</g>
<!-- Node251&#45;&gt;Node252 -->
<g id="edge11" class="edge">
<title>Node251&#45;&gt;Node252</title>
<path fill="none" stroke="#191970" d="M883.5243,-21.1826C891.8612,-21.1826 900.3827,-21.1826 908.7672,-21.1826"/>
<polygon fill="#191970" stroke="#191970" points="883.4684,-17.6827 873.4683,-21.1826 883.4683,-24.6827 883.4684,-17.6827"/>
</g>
<!-- Node253&#45;&gt;Node244 -->
<g id="edge13" class="edge">
<title>Node253&#45;&gt;Node244</title>
<path fill="none" stroke="#191970" d="M250.6041,-120.1826C262.3836,-120.1826 274.6131,-120.1826 285.9984,-120.1826"/>
<polygon fill="#191970" stroke="#191970" points="250.4008,-116.6827 240.4008,-120.1826 250.4007,-123.6827 250.4008,-116.6827"/>
</g>
<!-- Node254&#45;&gt;Node248 -->
<g id="edge16" class="edge">
<title>Node254&#45;&gt;Node248</title>
<path fill="none" stroke="#191970" d="M559.3636,-203.2766C619.4751,-199.2012 703.637,-193.4953 757.8646,-189.8189"/>
<polygon fill="#191970" stroke="#191970" points="558.9232,-199.7983 549.1829,-203.9668 559.3968,-206.7823 558.9232,-199.7983"/>
</g>
</g>
</svg>
