<?xml version="1.0" encoding="UTF-8" standalone="no"?>
<!DOCTYPE svg PUBLIC "-//W3C//DTD SVG 1.1//EN"
 "http://www.w3.org/Graphics/SVG/1.1/DTD/svg11.dtd">
<!-- Generated by graphviz version 2.40.1 (20161225.0304)
 -->
<!-- Title: chi::Subprocess::setArguments Pages: 1 -->
<svg width="808pt" height="66pt"
 viewBox="0.00 0.00 808.00 66.00" xmlns="http://www.w3.org/2000/svg" xmlns:xlink="http://www.w3.org/1999/xlink">
<g id="graph0" class="graph" transform="scale(1 1) rotate(0) translate(4 62)">
<title>chi::Subprocess::setArguments</title>
<polygon fill="#ffffff" stroke="transparent" points="-4,4 -4,-62 804,-62 804,4 -4,4"/>
<!-- Node220 -->
<g id="node1" class="node">
<title>Node220</title>
<polygon fill="#bfbfbf" stroke="#000000" points="0,-19.5 0,-38.5 154,-38.5 154,-19.5 0,-19.5"/>
<text text-anchor="middle" x="77" y="-26.5" font-family="Helvetica,sans-Serif" font-size="10.00" fill="#000000">chi::Subprocess::setArguments</text>
</g>
<!-- Node221 -->
<g id="node2" class="node">
<title>Node221</title>
<g id="a_node2"><a xlink:href="structchi_1_1Subprocess.html#a9b2f4ecd9a0239232deaf3ff46c48bf0" target="_top" xlink:title="Check if the child has started (start() has been called) ">
<polygon fill="#ffffff" stroke="#000000" points="190,-19.5 190,-38.5 313,-38.5 313,-19.5 190,-19.5"/>
<text text-anchor="middle" x="251.5" y="-26.5" font-family="Helvetica,sans-Serif" font-size="10.00" fill="#000000">chi::Subprocess::started</text>
</a>
</g>
</g>
<!-- Node220&#45;&gt;Node221 -->
<g id="edge1" class="edge">
<title>Node220&#45;&gt;Node221</title>
<path fill="none" stroke="#191970" d="M154.0462,-29C162.5493,-29 171.1835,-29 179.6198,-29"/>
<polygon fill="#191970" stroke="#191970" points="179.7899,-32.5001 189.7898,-29 179.7898,-25.5001 179.7899,-32.5001"/>
</g>
<!-- Node222 -->
<g id="node3" class="node">
<title>Node222</title>
<g id="a_node3"><a xlink:href="structchi_1_1Subprocess.html#a62114d525126e682028af5a906f771a6" target="_top" xlink:title="Pushes data to the stdin stream of the child process. ">
<polygon fill="#ffffff" stroke="#000000" points="349,-38.5 349,-57.5 498,-57.5 498,-38.5 349,-38.5"/>
<text text-anchor="middle" x="423.5" y="-45.5" font-family="Helvetica,sans-Serif" font-size="10.00" fill="#000000">chi::Subprocess::pushToStdIn</text>
</a>
</g>
</g>
<!-- Node221&#45;&gt;Node222 -->
<g id="edge2" class="edge">
<title>Node221&#45;&gt;Node222</title>
<path fill="none" stroke="#191970" d="M313.1101,-35.8058C321.4241,-36.7242 330.0696,-37.6792 338.699,-38.6324"/>
<polygon fill="#191970" stroke="#191970" points="338.477,-42.1291 348.8009,-39.7484 339.2457,-35.1715 338.477,-42.1291"/>
</g>
<!-- Node225 -->
<g id="node6" class="node">
<title>Node225</title>
<g id="a_node6"><a xlink:href="structchi_1_1Subprocess.html#a45fd483d620609100cdd6065ce4751f2" target="_top" xlink:title="Close the STDIN stream (send an EOF) ">
<polygon fill="#ffffff" stroke="#000000" points="353.5,-.5 353.5,-19.5 493.5,-19.5 493.5,-.5 353.5,-.5"/>
<text text-anchor="middle" x="423.5" y="-7.5" font-family="Helvetica,sans-Serif" font-size="10.00" fill="#000000">chi::Subprocess::closeStdIn</text>
</a>
</g>
</g>
<!-- Node221&#45;&gt;Node225 -->
<g id="edge5" class="edge">
<title>Node221&#45;&gt;Node225</title>
<path fill="none" stroke="#191970" d="M313.1101,-22.1942C322.87,-21.1161 333.0867,-19.9875 343.198,-18.8706"/>
<polygon fill="#191970" stroke="#191970" points="343.698,-22.3367 353.2532,-17.7598 342.9293,-15.379 343.698,-22.3367"/>
</g>
<!-- Node223 -->
<g id="node4" class="node">
<title>Node223</title>
<g id="a_node4"><a xlink:href="structchi_1_1Result.html#a59ef40f4a327cbdea263d6e4b5af2ad8" target="_top" xlink:title="Add a entry to the result, either a warning or an error. ">
<polygon fill="#ffffff" stroke="#000000" points="534,-19.5 534,-38.5 642,-38.5 642,-19.5 534,-19.5"/>
<text text-anchor="middle" x="588" y="-26.5" font-family="Helvetica,sans-Serif" font-size="10.00" fill="#000000">chi::Result::addEntry</text>
</a>
</g>
</g>
<!-- Node222&#45;&gt;Node223 -->
<g id="edge3" class="edge">
<title>Node222&#45;&gt;Node223</title>
<path fill="none" stroke="#191970" d="M498.0491,-39.3895C506.631,-38.3982 515.3258,-37.394 523.7552,-36.4204"/>
<polygon fill="#191970" stroke="#191970" points="524.3479,-39.8753 533.8802,-35.2509 523.5446,-32.9215 524.3479,-39.8753"/>
</g>
<!-- Node224 -->
<g id="node5" class="node">
<title>Node224</title>
<g id="a_node5"><a xlink:href="structchi_1_1Result.html#aa078d3cb3dfb2fb63e81b71acea036e0" target="_top" xlink:title="Get the JSON associated with the context that&#39;s been added. ">
<polygon fill="#ffffff" stroke="#000000" points="678,-19.5 678,-38.5 800,-38.5 800,-19.5 678,-19.5"/>
<text text-anchor="middle" x="739" y="-26.5" font-family="Helvetica,sans-Serif" font-size="10.00" fill="#000000">chi::Result::contextJson</text>
</a>
</g>
</g>
<!-- Node223&#45;&gt;Node224 -->
<g id="edge4" class="edge">
<title>Node223&#45;&gt;Node224</title>
<path fill="none" stroke="#191970" d="M642.088,-29C650.4208,-29 659.1331,-29 667.7706,-29"/>
<polygon fill="#191970" stroke="#191970" points="667.8487,-32.5001 677.8487,-29 667.8486,-25.5001 667.8487,-32.5001"/>
</g>
<!-- Node225&#45;&gt;Node223 -->
<g id="edge6" class="edge">
<title>Node225&#45;&gt;Node223</title>
<path fill="none" stroke="#191970" d="M493.74,-18.1128C503.721,-19.2656 513.9431,-20.4463 523.8014,-21.585"/>
<polygon fill="#191970" stroke="#191970" points="523.582,-25.0828 533.9176,-22.7534 524.3853,-18.129 523.582,-25.0828"/>
</g>
</g>
</svg>
