<?xml version="1.0" encoding="UTF-8" standalone="no"?>
<!DOCTYPE svg PUBLIC "-//W3C//DTD SVG 1.1//EN"
 "http://www.w3.org/Graphics/SVG/1.1/DTD/svg11.dtd">
<!-- Generated by graphviz version 2.40.1 (20161225.0304)
 -->
<!-- Title: chi::NodeType::clone Pages: 1 -->
<svg width="2318pt" height="277pt"
 viewBox="0.00 0.00 2318.00 277.33" xmlns="http://www.w3.org/2000/svg" xmlns:xlink="http://www.w3.org/1999/xlink">
<g id="graph0" class="graph" transform="scale(1 1) rotate(0) translate(4 273.3308)">
<title>chi::NodeType::clone</title>
<polygon fill="#ffffff" stroke="transparent" points="-4,4 -4,-273.3308 2314,-273.3308 2314,4 -4,4"/>
<!-- Node6 -->
<g id="node1" class="node">
<title>Node6</title>
<polygon fill="#bfbfbf" stroke="#000000" points="0,-38.5 0,-57.5 109,-57.5 109,-38.5 0,-38.5"/>
<text text-anchor="middle" x="54.5" y="-45.5" font-family="Helvetica,sans-Serif" font-size="10.00" fill="#000000">chi::NodeType::clone</text>
</g>
<!-- Node7 -->
<g id="node2" class="node">
<title>Node7</title>
<g id="a_node2"><a xlink:href="structchi_1_1NodeType.html#ac99bef32e3e5e564119dbb8de69d2273" target="_top" xlink:title="Create the JSON necessary to store the object. ">
<polygon fill="#ffffff" stroke="#000000" points="145,-38.5 145,-57.5 265,-57.5 265,-38.5 145,-38.5"/>
<text text-anchor="middle" x="205" y="-45.5" font-family="Helvetica,sans-Serif" font-size="10.00" fill="#000000">chi::NodeType::toJSON</text>
</a>
</g>
</g>
<!-- Node6&#45;&gt;Node7 -->
<g id="edge1" class="edge">
<title>Node6&#45;&gt;Node7</title>
<path fill="none" stroke="#191970" d="M119.4644,-48C127.9265,-48 136.5654,-48 144.9423,-48"/>
<polygon fill="#191970" stroke="#191970" points="119.2597,-44.5001 109.2597,-48 119.2597,-51.5001 119.2597,-44.5001"/>
</g>
<!-- Node8 -->
<g id="node3" class="node">
<title>Node8</title>
<g id="a_node3"><a xlink:href="namespacechi.html#ab69b013712d615bf9901d7bf2b0b11fb" target="_top" xlink:title="Connects two nodes&#39; data connections. ">
<polygon fill="#ffffff" stroke="#000000" points="301,-79.5 301,-98.5 391,-98.5 391,-79.5 301,-79.5"/>
<text text-anchor="middle" x="346" y="-86.5" font-family="Helvetica,sans-Serif" font-size="10.00" fill="#000000">chi::connectData</text>
</a>
</g>
</g>
<!-- Node7&#45;&gt;Node8 -->
<g id="edge2" class="edge">
<title>Node7&#45;&gt;Node8</title>
<path fill="none" stroke="#191970" d="M247.3545,-60.3158C268.3811,-66.43 293.4042,-73.7062 312.9863,-79.4003"/>
<polygon fill="#191970" stroke="#191970" points="248.2822,-56.9407 237.7026,-57.5093 246.3276,-63.6623 248.2822,-56.9407"/>
</g>
<!-- Node21 -->
<g id="node16" class="node">
<title>Node21</title>
<g id="a_node16"><a xlink:href="namespacechi.html#a4694f9910cf90fd7c202fe117c4f257e" target="_top" xlink:title="Disconnect a data connection. ">
<polygon fill="#ffffff" stroke="#000000" points="577,-.5 577,-19.5 680,-19.5 680,-.5 577,-.5"/>
<text text-anchor="middle" x="628.5" y="-7.5" font-family="Helvetica,sans-Serif" font-size="10.00" fill="#000000">chi::disconnectData</text>
</a>
</g>
</g>
<!-- Node7&#45;&gt;Node21 -->
<g id="edge39" class="edge">
<title>Node7&#45;&gt;Node21</title>
<path fill="none" stroke="#191970" d="M275.3024,-41.6919C360.2593,-34.0688 501.1915,-21.4232 576.7953,-14.6394"/>
<polygon fill="#191970" stroke="#191970" points="274.8746,-38.2161 265.2275,-42.5959 275.5003,-45.1881 274.8746,-38.2161"/>
</g>
<!-- Node9 -->
<g id="node4" class="node">
<title>Node9</title>
<g id="a_node4"><a xlink:href="namespacechi.html#a6a3fedb48e6702c016f996d8a7f445fc" target="_top" xlink:title="Load a GraphFunction–must already exist (use createGraphFunctionDeclarationFromJson) ...">
<polygon fill="#ffffff" stroke="#000000" points="908,-123.5 908,-142.5 1036,-142.5 1036,-123.5 908,-123.5"/>
<text text-anchor="middle" x="972" y="-130.5" font-family="Helvetica,sans-Serif" font-size="10.00" fill="#000000">chi::jsonToGraphFunction</text>
</a>
</g>
</g>
<!-- Node8&#45;&gt;Node9 -->
<g id="edge3" class="edge">
<title>Node8&#45;&gt;Node9</title>
<path fill="none" stroke="#191970" d="M364.4048,-105.3382C399.9768,-135.7794 481.9214,-200.4868 564,-227 694.3302,-269.0995 746.1842,-291.1174 872,-237 893.3713,-227.8075 891.902,-215.7955 908,-199 927.217,-178.9503 949.8773,-155.6653 962.4224,-142.8055"/>
<polygon fill="#191970" stroke="#191970" points="366.6154,-102.6224 356.7674,-98.7149 362.0292,-107.9108 366.6154,-102.6224"/>
</g>
<!-- Node19 -->
<g id="node14" class="node">
<title>Node19</title>
<g id="a_node14"><a xlink:href="structchi_1_1NodeInstance.html#a72d113cfee45f4017adf28b034c6f215" target="_top" xlink:title="Get the containing GraphModule. ">
<polygon fill="#ffffff" stroke="#000000" points="427,-74 427,-104 528,-104 528,-74 427,-74"/>
<text text-anchor="start" x="435" y="-92" font-family="Helvetica,sans-Serif" font-size="10.00" fill="#000000">chi::NodeInstance::</text>
<text text-anchor="middle" x="477.5" y="-81" font-family="Helvetica,sans-Serif" font-size="10.00" fill="#000000">module</text>
</a>
</g>
</g>
<!-- Node8&#45;&gt;Node19 -->
<g id="edge13" class="edge">
<title>Node8&#45;&gt;Node19</title>
<path fill="none" stroke="#191970" d="M401.3687,-82.3253C409.7865,-82.2022 418.4371,-82.23 426.7498,-82.4086"/>
<polygon fill="#191970" stroke="#191970" points="401.1745,-78.8287 391.2548,-82.5503 401.3302,-85.827 401.1745,-78.8287"/>
</g>
<!-- Node10 -->
<g id="node5" class="node">
<title>Node10</title>
<g id="a_node5"><a xlink:href="namespacechi.html#a4489e333fecc4168278e94f8b3f81e3c" target="_top" xlink:title="Load a GraphModule from json. ">
<polygon fill="#ffffff" stroke="#000000" points="1072,-109.5 1072,-128.5 1194,-128.5 1194,-109.5 1072,-109.5"/>
<text text-anchor="middle" x="1133" y="-116.5" font-family="Helvetica,sans-Serif" font-size="10.00" fill="#000000">chi::jsonToGraphModule</text>
</a>
</g>
</g>
<!-- Node9&#45;&gt;Node10 -->
<g id="edge4" class="edge">
<title>Node9&#45;&gt;Node10</title>
<path fill="none" stroke="#191970" d="M1046.1006,-126.5565C1054.683,-125.8102 1063.363,-125.0554 1071.7471,-124.3263"/>
<polygon fill="#191970" stroke="#191970" points="1045.7532,-123.0734 1036.0941,-127.4266 1046.3597,-130.0471 1045.7532,-123.0734"/>
</g>
<!-- Node11 -->
<g id="node6" class="node">
<title>Node11</title>
<g id="a_node6"><a xlink:href="structchi_1_1Context.html#a2db103f3a2f77710dfa51489f63ec97f" target="_top" xlink:title="Load a module from JSON – avoid this use the string overload. ">
<polygon fill="#ffffff" stroke="#000000" points="1230,-109.5 1230,-128.5 1396,-128.5 1396,-109.5 1230,-109.5"/>
<text text-anchor="middle" x="1313" y="-116.5" font-family="Helvetica,sans-Serif" font-size="10.00" fill="#000000">chi::Context::addModuleFromJson</text>
</a>
</g>
</g>
<!-- Node10&#45;&gt;Node11 -->
<g id="edge5" class="edge">
<title>Node10&#45;&gt;Node11</title>
<path fill="none" stroke="#191970" d="M1204.3335,-119C1212.7586,-119 1221.412,-119 1229.9806,-119"/>
<polygon fill="#191970" stroke="#191970" points="1204.191,-115.5001 1194.191,-119 1204.1909,-122.5001 1204.191,-115.5001"/>
</g>
<!-- Node12 -->
<g id="node7" class="node">
<title>Node12</title>
<g id="a_node7"><a xlink:href="structchi_1_1Context.html#a844bdec56838399cb4d7a5f7ea223834" target="_top" xlink:title="Load a module from disk, also loads dependencies. ">
<polygon fill="#ffffff" stroke="#000000" points="1434,-109.5 1434,-128.5 1559,-128.5 1559,-109.5 1434,-109.5"/>
<text text-anchor="middle" x="1496.5" y="-116.5" font-family="Helvetica,sans-Serif" font-size="10.00" fill="#000000">chi::Context::loadModule</text>
</a>
</g>
</g>
<!-- Node11&#45;&gt;Node12 -->
<g id="edge6" class="edge">
<title>Node11&#45;&gt;Node12</title>
<path fill="none" stroke="#191970" d="M1406.3139,-119C1415.6809,-119 1425.0262,-119 1433.9591,-119"/>
<polygon fill="#191970" stroke="#191970" points="1406.1597,-115.5001 1396.1596,-119 1406.1596,-122.5001 1406.1597,-115.5001"/>
</g>
<!-- Node13 -->
<g id="node8" class="node">
<title>Node13</title>
<g id="a_node8"><a xlink:href="structchi_1_1ChiModule.html#a61a5581c1a0a6467a24edde9eaaa60e0" target="_top" xlink:title="Add a dependency to the module Loads the module from context() if it isn&#39;t already loaded...">
<polygon fill="#ffffff" stroke="#000000" points="1597,-109.5 1597,-128.5 1754,-128.5 1754,-109.5 1597,-109.5"/>
<text text-anchor="middle" x="1675.5" y="-116.5" font-family="Helvetica,sans-Serif" font-size="10.00" fill="#000000">chi::ChiModule::addDependency</text>
</a>
</g>
</g>
<!-- Node12&#45;&gt;Node13 -->
<g id="edge7" class="edge">
<title>Node12&#45;&gt;Node13</title>
<path fill="none" stroke="#191970" d="M1569.2562,-119C1578.3556,-119 1587.6944,-119 1596.8781,-119"/>
<polygon fill="#191970" stroke="#191970" points="1569.1055,-115.5001 1559.1055,-119 1569.1055,-122.5001 1569.1055,-115.5001"/>
</g>
<!-- Node14 -->
<g id="node9" class="node">
<title>Node14</title>
<g id="a_node9"><a xlink:href="structchi_1_1ChiModule.html#a9c0d4b1b54bca0194ea4061ae4883779" target="_top" xlink:title="Get the dependencies. ">
<polygon fill="#ffffff" stroke="#000000" points="1795,-109.5 1795,-128.5 1942,-128.5 1942,-109.5 1795,-109.5"/>
<text text-anchor="middle" x="1868.5" y="-116.5" font-family="Helvetica,sans-Serif" font-size="10.00" fill="#000000">chi::ChiModule::dependencies</text>
</a>
</g>
</g>
<!-- Node13&#45;&gt;Node14 -->
<g id="edge8" class="edge">
<title>Node13&#45;&gt;Node14</title>
<path fill="none" stroke="#191970" d="M1764.1712,-119C1774.3983,-119 1784.7436,-119 1794.7433,-119"/>
<polygon fill="#191970" stroke="#191970" points="1764.0005,-115.5001 1754.0005,-119 1764.0005,-122.5001 1764.0005,-115.5001"/>
</g>
<!-- Node18 -->
<g id="node13" class="node">
<title>Node18</title>
<g id="a_node13"><a xlink:href="structchi_1_1GraphModule.html#adeeeec5c69812ddeb43a64d3009a4eda" target="_top" xlink:title="Construct a GraphModule. ">
<polygon fill="#ffffff" stroke="#000000" points="1790,-71.5 1790,-90.5 1947,-90.5 1947,-71.5 1790,-71.5"/>
<text text-anchor="middle" x="1868.5" y="-78.5" font-family="Helvetica,sans-Serif" font-size="10.00" fill="#000000">chi::GraphModule::GraphModule</text>
</a>
</g>
</g>
<!-- Node13&#45;&gt;Node18 -->
<g id="edge12" class="edge">
<title>Node13&#45;&gt;Node18</title>
<path fill="none" stroke="#191970" d="M1734.1016,-107.4619C1761.6289,-102.042 1794.0476,-95.659 1820.1482,-90.5201"/>
<polygon fill="#191970" stroke="#191970" points="1733.3375,-104.045 1724.202,-109.411 1734.6898,-110.9132 1733.3375,-104.045"/>
</g>
<!-- Node15 -->
<g id="node10" class="node">
<title>Node15</title>
<g id="a_node10"><a xlink:href="structchi_1_1Context.html#ae21e68cd2d6ec6a8d6923fa330b36827" target="_top" xlink:title="Compile a module to a llvm::Module. ">
<polygon fill="#ffffff" stroke="#000000" points="1983,-109.5 1983,-128.5 2123,-128.5 2123,-109.5 1983,-109.5"/>
<text text-anchor="middle" x="2053" y="-116.5" font-family="Helvetica,sans-Serif" font-size="10.00" fill="#000000">chi::Context::compileModule</text>
</a>
</g>
</g>
<!-- Node14&#45;&gt;Node15 -->
<g id="edge9" class="edge">
<title>Node14&#45;&gt;Node15</title>
<path fill="none" stroke="#191970" d="M1952.3096,-119C1962.4689,-119 1972.7658,-119 1982.7021,-119"/>
<polygon fill="#191970" stroke="#191970" points="1952.2147,-115.5001 1942.2147,-119 1952.2147,-122.5001 1952.2147,-115.5001"/>
</g>
<!-- Node16 -->
<g id="node11" class="node">
<title>Node16</title>
<g id="a_node11"><a xlink:href="namespacechi.html#a9a4f3fa54c612f0c559a353bb7382d5a" target="_top" xlink:title="Serialize a JsonModule to json. ">
<polygon fill="#ffffff" stroke="#000000" points="1991.5,-52.5 1991.5,-71.5 2114.5,-71.5 2114.5,-52.5 1991.5,-52.5"/>
<text text-anchor="middle" x="2053" y="-59.5" font-family="Helvetica,sans-Serif" font-size="10.00" fill="#000000">chi::graphModuleToJson</text>
</a>
</g>
</g>
<!-- Node14&#45;&gt;Node16 -->
<g id="edge10" class="edge">
<title>Node14&#45;&gt;Node16</title>
<path fill="none" stroke="#191970" d="M1921.4502,-107.0017C1930.0327,-104.8227 1938.7932,-102.4566 1947,-100 1975.2801,-91.5348 2007.0776,-79.8351 2028.4039,-71.6618"/>
<polygon fill="#191970" stroke="#191970" points="1920.3648,-103.6647 1911.5006,-109.4679 1922.049,-110.4591 1920.3648,-103.6647"/>
</g>
<!-- Node17 -->
<g id="node12" class="node">
<title>Node17</title>
<g id="a_node12"><a xlink:href="structchi_1_1GraphModule.html#a5cd9fb1738336d5d382ebb50753bda3e" target="_top" xlink:title="Serialize to disk in the context. ">
<polygon fill="#ffffff" stroke="#000000" points="2159,-52.5 2159,-71.5 2310,-71.5 2310,-52.5 2159,-52.5"/>
<text text-anchor="middle" x="2234.5" y="-59.5" font-family="Helvetica,sans-Serif" font-size="10.00" fill="#000000">chi::GraphModule::saveToDisk</text>
</a>
</g>
</g>
<!-- Node16&#45;&gt;Node17 -->
<g id="edge11" class="edge">
<title>Node16&#45;&gt;Node17</title>
<path fill="none" stroke="#191970" d="M2124.8263,-62C2135.9968,-62 2147.5676,-62 2158.8204,-62"/>
<polygon fill="#191970" stroke="#191970" points="2124.7009,-58.5001 2114.7009,-62 2124.7008,-65.5001 2124.7009,-58.5001"/>
</g>
<!-- Node19&#45;&gt;Node8 -->
<g id="edge14" class="edge">
<title>Node19&#45;&gt;Node8</title>
<path fill="none" stroke="#191970" d="M416.4809,-95.7344C407.9878,-95.7904 399.3888,-95.6955 391.2548,-95.4497"/>
<polygon fill="#191970" stroke="#191970" points="416.7995,-99.2304 426.7498,-95.5914 416.702,-92.2311 416.7995,-99.2304"/>
</g>
<!-- Node20 -->
<g id="node15" class="node">
<title>Node20</title>
<g id="a_node15"><a xlink:href="namespacechi.html#a79423caa23a58e57b775c5137a03ee31" target="_top" xlink:title="Connects two nodes&#39; exec connections. ">
<polygon fill="#ffffff" stroke="#000000" points="754.5,-123.5 754.5,-142.5 846.5,-142.5 846.5,-123.5 754.5,-123.5"/>
<text text-anchor="middle" x="800.5" y="-130.5" font-family="Helvetica,sans-Serif" font-size="10.00" fill="#000000">chi::connectExec</text>
</a>
</g>
</g>
<!-- Node19&#45;&gt;Node20 -->
<g id="edge15" class="edge">
<title>Node19&#45;&gt;Node20</title>
<path fill="none" stroke="#191970" d="M538.6316,-91.9044C604.9381,-98.8977 708.6426,-113.3358 763.5363,-123.475"/>
<polygon fill="#191970" stroke="#191970" points="538.6289,-88.3859 528.3241,-90.8477 537.915,-95.3494 538.6289,-88.3859"/>
</g>
<!-- Node19&#45;&gt;Node21 -->
<g id="edge18" class="edge">
<title>Node19&#45;&gt;Node21</title>
<path fill="none" stroke="#191970" d="M499.9788,-68.3187C508.9023,-62.5147 519.1318,-56.2695 528,-50 545.0065,-37.9769 545.6293,-29.813 564,-20 568.0157,-17.8549 572.3049,-15.9225 576.6909,-14.2195"/>
<polygon fill="#191970" stroke="#191970" points="497.9347,-65.4755 491.5896,-73.9602 501.8409,-71.2842 497.9347,-65.4755"/>
</g>
<!-- Node27 -->
<g id="node22" class="node">
<title>Node27</title>
<g id="a_node22"><a xlink:href="structchi_1_1NodeInstance.html#a5e8c1bd26bd3fbba3a0f7191e7c7f594" target="_top" xlink:title="Set the type of the node instance. ">
<polygon fill="#ffffff" stroke="#000000" points="750,-58 750,-88 851,-88 851,-58 750,-58"/>
<text text-anchor="start" x="758" y="-76" font-family="Helvetica,sans-Serif" font-size="10.00" fill="#000000">chi::NodeInstance::</text>
<text text-anchor="middle" x="800.5" y="-65" font-family="Helvetica,sans-Serif" font-size="10.00" fill="#000000">setType</text>
</a>
</g>
</g>
<!-- Node19&#45;&gt;Node27 -->
<g id="edge38" class="edge">
<title>Node19&#45;&gt;Node27</title>
<path fill="none" stroke="#191970" d="M538.6093,-85.9729C599.7904,-82.9423 692.8275,-78.3336 749.9723,-75.5029"/>
<polygon fill="#191970" stroke="#191970" points="538.1386,-82.4918 528.3241,-86.4824 538.485,-89.4833 538.1386,-82.4918"/>
</g>
<!-- Node28 -->
<g id="node23" class="node">
<title>Node28</title>
<g id="a_node23"><a xlink:href="namespacechi.html#a103b99abd766aa4d303a5004fe783c03" target="_top" xlink:title="Disconnect a exec connection. ">
<polygon fill="#ffffff" stroke="#000000" points="576,-38.5 576,-57.5 681,-57.5 681,-38.5 576,-38.5"/>
<text text-anchor="middle" x="628.5" y="-45.5" font-family="Helvetica,sans-Serif" font-size="10.00" fill="#000000">chi::disconnectExec</text>
</a>
</g>
</g>
<!-- Node19&#45;&gt;Node28 -->
<g id="edge28" class="edge">
<title>Node19&#45;&gt;Node28</title>
<path fill="none" stroke="#191970" d="M521.4711,-70.8638C538.5288,-65.5983 558.2039,-60.1672 575.9955,-55.7925"/>
<polygon fill="#191970" stroke="#191970" points="520.2422,-67.5815 511.7642,-73.9356 522.3543,-74.2553 520.2422,-67.5815"/>
</g>
<!-- Node29 -->
<g id="node24" class="node">
<title>Node29</title>
<g id="a_node24"><a xlink:href="namespacechi.html#a46ba4fa933baeba58beefc9e573b0668" target="_top" xlink:title="Get the mapped line number from a node. ">
<polygon fill="#ffffff" stroke="#000000" points="564,-170.5 564,-189.5 693,-189.5 693,-170.5 564,-170.5"/>
<text text-anchor="middle" x="628.5" y="-177.5" font-family="Helvetica,sans-Serif" font-size="10.00" fill="#000000">chi::lineNumberFromNode</text>
</a>
</g>
</g>
<!-- Node19&#45;&gt;Node29 -->
<g id="edge33" class="edge">
<title>Node19&#45;&gt;Node29</title>
<path fill="none" stroke="#191970" d="M501.5847,-110.8847C518.2057,-125.1469 541.3176,-143.3829 564,-156 574.3369,-161.7499 586.325,-166.6419 597.1412,-170.4795"/>
<polygon fill="#191970" stroke="#191970" points="503.8125,-108.1835 493.9771,-104.2445 499.2094,-113.4572 503.8125,-108.1835"/>
</g>
<!-- Node31 -->
<g id="node26" class="node">
<title>Node31</title>
<g id="a_node26"><a xlink:href="classchi_1_1Debugger.html#a91a4d103d38bb2b1132ec7f83f4d77e2" target="_top" xlink:title="Set a breakpoint on a given node. ">
<polygon fill="#ffffff" stroke="#000000" points="729,-208.5 729,-227.5 872,-227.5 872,-208.5 729,-208.5"/>
<text text-anchor="middle" x="800.5" y="-215.5" font-family="Helvetica,sans-Serif" font-size="10.00" fill="#000000">chi::Debugger::setBreakpoint</text>
</a>
</g>
</g>
<!-- Node19&#45;&gt;Node31 -->
<g id="edge37" class="edge">
<title>Node19&#45;&gt;Node31</title>
<path fill="none" stroke="#191970" d="M488.9639,-113.3224C502.7472,-139.5136 528.5337,-179.978 564,-199 614.366,-226.0134 679.6093,-229.326 728.8077,-226.6938"/>
<polygon fill="#191970" stroke="#191970" points="492.0766,-111.7218 484.4332,-104.385 485.833,-114.887 492.0766,-111.7218"/>
</g>
<!-- Node20&#45;&gt;Node9 -->
<g id="edge16" class="edge">
<title>Node20&#45;&gt;Node9</title>
<path fill="none" stroke="#191970" d="M857.2989,-133C873.4929,-133 891.2475,-133 907.8472,-133"/>
<polygon fill="#191970" stroke="#191970" points="856.9104,-129.5001 846.9104,-133 856.9103,-136.5001 856.9104,-129.5001"/>
</g>
<!-- Node20&#45;&gt;Node19 -->
<g id="edge17" class="edge">
<title>Node20&#45;&gt;Node19</title>
<path fill="none" stroke="#191970" d="M744.2136,-130.6002C683.2973,-124.3405 587.0202,-111.1613 528.3241,-100.9991"/>
<polygon fill="#191970" stroke="#191970" points="744.1193,-134.108 754.4167,-131.6152 744.8123,-127.1423 744.1193,-134.108"/>
</g>
<!-- Node21&#45;&gt;Node8 -->
<g id="edge19" class="edge">
<title>Node21&#45;&gt;Node8</title>
<path fill="none" stroke="#191970" d="M581.5458,-22.0505C540.6196,-32.6809 479.7256,-48.8042 427,-64 410.0302,-68.8908 391.1718,-74.6896 375.924,-79.4706"/>
<polygon fill="#191970" stroke="#191970" points="582.444,-25.4334 591.2462,-19.5366 580.6879,-18.6573 582.444,-25.4334"/>
</g>
<!-- Node21&#45;&gt;Node19 -->
<g id="edge20" class="edge">
<title>Node21&#45;&gt;Node19</title>
<path fill="none" stroke="#191970" d="M604.0303,-22.7667C591.5733,-26.729 576.4687,-31.3397 564,-38 545.6293,-47.813 545.0065,-55.9769 528,-68 525.1688,-70.0015 522.1989,-72.0006 519.1771,-73.9414"/>
<polygon fill="#191970" stroke="#191970" points="605.3544,-26.0156 613.7555,-19.5601 603.1624,-19.3676 605.3544,-26.0156"/>
</g>
<!-- Node22 -->
<g id="node17" class="node">
<title>Node22</title>
<g id="a_node17"><a xlink:href="structchi_1_1GraphFunction.html#a2248f5089ddc01a46b9ba4129925a44c" target="_top" xlink:title="Remove a node from the function. ">
<polygon fill="#ffffff" stroke="#000000" points="751,-9 751,-39 850,-39 850,-9 751,-9"/>
<text text-anchor="start" x="759" y="-27" font-family="Helvetica,sans-Serif" font-size="10.00" fill="#000000">chi::GraphFunction</text>
<text text-anchor="middle" x="800.5" y="-16" font-family="Helvetica,sans-Serif" font-size="10.00" fill="#000000">::removeNode</text>
</a>
</g>
</g>
<!-- Node21&#45;&gt;Node22 -->
<g id="edge21" class="edge">
<title>Node21&#45;&gt;Node22</title>
<path fill="none" stroke="#191970" d="M690.3308,-15.0327C710.2611,-16.655 732.0762,-18.4306 750.9974,-19.9707"/>
<polygon fill="#191970" stroke="#191970" points="690.3567,-11.5234 680.1057,-14.2005 689.7887,-18.5003 690.3567,-11.5234"/>
</g>
<!-- Node21&#45;&gt;Node27 -->
<g id="edge27" class="edge">
<title>Node21&#45;&gt;Node27</title>
<path fill="none" stroke="#191970" d="M674.9847,-22.4819C681.1092,-24.4782 687.2514,-26.6635 693,-29 709.7602,-35.812 712.4149,-40.772 729,-48 737.0769,-51.52 745.8235,-54.9099 754.3361,-57.9967"/>
<polygon fill="#191970" stroke="#191970" points="676.0226,-19.1394 665.4341,-19.506 673.9401,-25.8225 676.0226,-19.1394"/>
</g>
<!-- Node23 -->
<g id="node18" class="node">
<title>Node23</title>
<g id="a_node18"><a xlink:href="structchi_1_1GraphFunction.html#a900c0b670ad04a76b6add803ade7ae0d" target="_top" xlink:title="Get the nodes in the function Usually called by connectData or connectExec or GraphFunction. ">
<polygon fill="#ffffff" stroke="#000000" points="922.5,-53 922.5,-83 1021.5,-83 1021.5,-53 922.5,-53"/>
<text text-anchor="start" x="930.5" y="-71" font-family="Helvetica,sans-Serif" font-size="10.00" fill="#000000">chi::GraphFunction</text>
<text text-anchor="middle" x="972" y="-60" font-family="Helvetica,sans-Serif" font-size="10.00" fill="#000000">::nodes</text>
</a>
</g>
</g>
<!-- Node22&#45;&gt;Node23 -->
<g id="edge22" class="edge">
<title>Node22&#45;&gt;Node23</title>
<path fill="none" stroke="#191970" d="M859.8837,-39.2355C880.2083,-44.4499 902.722,-50.2261 922.2097,-55.2258"/>
<polygon fill="#191970" stroke="#191970" points="860.661,-35.8216 850.1049,-36.7266 858.9214,-42.602 860.661,-35.8216"/>
</g>
<!-- Node24 -->
<g id="node19" class="node">
<title>Node24</title>
<g id="a_node19"><a xlink:href="structchi_1_1GraphFunction.html#a81f2a4203abba46ff8494a6a7e192094" target="_top" xlink:title="Remove a local variable from the function by name. ">
<polygon fill="#ffffff" stroke="#000000" points="1076.5,-19 1076.5,-49 1189.5,-49 1189.5,-19 1076.5,-19"/>
<text text-anchor="start" x="1084.5" y="-37" font-family="Helvetica,sans-Serif" font-size="10.00" fill="#000000">chi::GraphFunction</text>
<text text-anchor="middle" x="1133" y="-26" font-family="Helvetica,sans-Serif" font-size="10.00" fill="#000000">::removeLocalVariable</text>
</a>
</g>
</g>
<!-- Node22&#45;&gt;Node24 -->
<g id="edge23" class="edge">
<title>Node22&#45;&gt;Node24</title>
<path fill="none" stroke="#191970" d="M860.5799,-25.8069C921.929,-27.652 1016.442,-30.4945 1076.4716,-32.2999"/>
<polygon fill="#191970" stroke="#191970" points="860.3793,-22.2994 850.2786,-25.4971 860.1688,-29.2962 860.3793,-22.2994"/>
</g>
<!-- Node25 -->
<g id="node20" class="node">
<title>Node25</title>
<g id="a_node20"><a xlink:href="structchi_1_1GraphFunction.html#a44f8f791775e4878b6bde37140cd131d" target="_top" xlink:title="Get the local variables. ">
<polygon fill="#ffffff" stroke="#000000" points="1263.5,-24 1263.5,-54 1362.5,-54 1362.5,-24 1263.5,-24"/>
<text text-anchor="start" x="1271.5" y="-42" font-family="Helvetica,sans-Serif" font-size="10.00" fill="#000000">chi::GraphFunction</text>
<text text-anchor="middle" x="1313" y="-31" font-family="Helvetica,sans-Serif" font-size="10.00" fill="#000000">::localVariables</text>
</a>
</g>
</g>
<!-- Node24&#45;&gt;Node25 -->
<g id="edge24" class="edge">
<title>Node24&#45;&gt;Node25</title>
<path fill="none" stroke="#191970" d="M1200.0903,-35.8636C1221.0761,-36.4466 1243.8421,-37.0789 1263.3974,-37.6221"/>
<polygon fill="#191970" stroke="#191970" points="1200.0465,-32.3611 1189.9531,-35.582 1199.8521,-39.3584 1200.0465,-32.3611"/>
</g>
<!-- Node26 -->
<g id="node21" class="node">
<title>Node26</title>
<g id="a_node21"><a xlink:href="namespacechi.html#afd8b8d8a207d88359ad1e6a48d8f3bb1" target="_top" xlink:title="Serialize a GraphFunction to json. ">
<polygon fill="#ffffff" stroke="#000000" points="1432,-31.5 1432,-50.5 1561,-50.5 1561,-31.5 1432,-31.5"/>
<text text-anchor="middle" x="1496.5" y="-38.5" font-family="Helvetica,sans-Serif" font-size="10.00" fill="#000000">chi::graphFunctionToJson</text>
</a>
</g>
</g>
<!-- Node25&#45;&gt;Node26 -->
<g id="edge25" class="edge">
<title>Node25&#45;&gt;Node26</title>
<path fill="none" stroke="#191970" d="M1372.918,-39.6531C1391.8106,-39.859 1412.7587,-40.0873 1431.959,-40.2966"/>
<polygon fill="#191970" stroke="#191970" points="1372.6953,-36.1505 1362.6577,-39.5412 1372.619,-43.1501 1372.6953,-36.1505"/>
</g>
<!-- Node26&#45;&gt;Node16 -->
<g id="edge26" class="edge">
<title>Node26&#45;&gt;Node16</title>
<path fill="none" stroke="#191970" d="M1571.2641,-43.8213C1682.2559,-48.0097 1888.5468,-55.7942 1991.3914,-59.6751"/>
<polygon fill="#191970" stroke="#191970" points="1571.2787,-40.3194 1561.1538,-43.4398 1571.0147,-47.3145 1571.2787,-40.3194"/>
</g>
<!-- Node28&#45;&gt;Node19 -->
<g id="edge30" class="edge">
<title>Node28&#45;&gt;Node19</title>
<path fill="none" stroke="#191970" d="M600.6568,-60.9342C580.3954,-67.8052 552.3882,-75.757 528.2009,-81.6489"/>
<polygon fill="#191970" stroke="#191970" points="601.9447,-64.1912 610.2072,-57.5592 599.6124,-57.5912 601.9447,-64.1912"/>
</g>
<!-- Node28&#45;&gt;Node20 -->
<g id="edge29" class="edge">
<title>Node28&#45;&gt;Node20</title>
<path fill="none" stroke="#191970" d="M657.1448,-62.1558C692.2968,-79.5275 750.9436,-108.5099 781.1746,-123.4497"/>
<polygon fill="#191970" stroke="#191970" points="658.4119,-58.878 647.8962,-57.5854 655.3106,-65.1536 658.4119,-58.878"/>
</g>
<!-- Node28&#45;&gt;Node22 -->
<g id="edge31" class="edge">
<title>Node28&#45;&gt;Node22</title>
<path fill="none" stroke="#191970" d="M691.1482,-39.2584C710.8315,-36.5119 732.2807,-33.519 750.9272,-30.9171"/>
<polygon fill="#191970" stroke="#191970" points="690.4606,-35.8203 681.0403,-40.6688 691.428,-42.7532 690.4606,-35.8203"/>
</g>
<!-- Node28&#45;&gt;Node27 -->
<g id="edge32" class="edge">
<title>Node28&#45;&gt;Node27</title>
<path fill="none" stroke="#191970" d="M690.9653,-57.0793C710.2879,-59.8878 731.3277,-62.9459 749.7557,-65.6244"/>
<polygon fill="#191970" stroke="#191970" points="691.4397,-53.6115 681.0403,-55.6367 690.4328,-60.5387 691.4397,-53.6115"/>
</g>
<!-- Node30 -->
<g id="node25" class="node">
<title>Node30</title>
<g id="a_node25"><a xlink:href="classchi_1_1Debugger.html#a4bd2c4dcced3e704b6a4d71b7c2d53d4" target="_top" xlink:title="Get the debugger This should probably be valid...not sure why it wouldn&#39;t be. ">
<polygon fill="#ffffff" stroke="#000000" points="731,-170.5 731,-189.5 870,-189.5 870,-170.5 731,-170.5"/>
<text text-anchor="middle" x="800.5" y="-177.5" font-family="Helvetica,sans-Serif" font-size="10.00" fill="#000000">chi::Debugger::lldbDebugger</text>
</a>
</g>
</g>
<!-- Node29&#45;&gt;Node30 -->
<g id="edge34" class="edge">
<title>Node29&#45;&gt;Node30</title>
<path fill="none" stroke="#191970" d="M703.3207,-180C712.5158,-180 721.8843,-180 730.9961,-180"/>
<polygon fill="#191970" stroke="#191970" points="703.0358,-176.5001 693.0358,-180 703.0358,-183.5001 703.0358,-176.5001"/>
</g>
<!-- Node29&#45;&gt;Node31 -->
<g id="edge35" class="edge">
<title>Node29&#45;&gt;Node31</title>
<path fill="none" stroke="#191970" d="M681.6959,-191.7526C706.0166,-197.1258 734.4547,-203.4086 757.4092,-208.4799"/>
<polygon fill="#191970" stroke="#191970" points="682.4225,-188.3288 671.9029,-189.589 680.9123,-195.164 682.4225,-188.3288"/>
</g>
<!-- Node32 -->
<g id="node27" class="node">
<title>Node32</title>
<g id="a_node27"><a xlink:href="classchi_1_1Debugger.html#a50f4de4ab6a18afa2eb82f5a5f43b06a" target="_top" xlink:title="Check if the process is executing. ">
<polygon fill="#ffffff" stroke="#000000" points="915,-208.5 915,-227.5 1029,-227.5 1029,-208.5 915,-208.5"/>
<text text-anchor="middle" x="972" y="-215.5" font-family="Helvetica,sans-Serif" font-size="10.00" fill="#000000">chi::Debugger::running</text>
</a>
</g>
</g>
<!-- Node31&#45;&gt;Node32 -->
<g id="edge36" class="edge">
<title>Node31&#45;&gt;Node32</title>
<path fill="none" stroke="#191970" d="M882.3075,-218C893.3216,-218 904.4227,-218 914.8818,-218"/>
<polygon fill="#191970" stroke="#191970" points="882.2378,-214.5001 872.2377,-218 882.2377,-221.5001 882.2378,-214.5001"/>
</g>
</g>
</svg>
