<?xml version="1.0" encoding="UTF-8" standalone="no"?>
<!DOCTYPE svg PUBLIC "-//W3C//DTD SVG 1.1//EN"
 "http://www.w3.org/Graphics/SVG/1.1/DTD/svg11.dtd">
<!-- Generated by graphviz version 2.40.1 (20161225.0304)
 -->
<!-- Title: chig::GraphModule::nodeTypeFromName Pages: 1 -->
<!--zoomable 318 -->
<svg id="main" version="1.1" xmlns="http://www.w3.org/2000/svg" xmlns:xlink="http://www.w3.org/1999/xlink" xml:space="preserve" onload="init(evt)">
<style type="text/css"><![CDATA[
.edge:hover path { stroke: red; }
.edge:hover polygon { stroke: red; fill: red; }
]]></style>
<script type="text/javascript"><![CDATA[
var edges = document.getElementsByTagName('g');
if (edges && edges.length) {
  for (var i=0;i<edges.length;i++) {
    if (edges[i].id.substr(0,4)=='edge') {
      edges[i].setAttribute('class','edge');
    }
  }
}
]]></script>
        <defs>
                <circle id="rim" cx="0" cy="0" r="7"/>
                <circle id="rim2" cx="0" cy="0" r="3.5"/>
                <g id="zoomPlus">
                        <use xlink:href="#rim" fill="#404040">
                                <set attributeName="fill" to="#808080" begin="zoomplus.mouseover" end="zoomplus.mouseout"/>
                        </use>
                        <path d="M-4,0h8M0,-4v8" fill="none" stroke="white" stroke-width="1.5" pointer-events="none"/>
                </g>
                <g id="zoomMin">
                        <use xlink:href="#rim" fill="#404040">
                                <set attributeName="fill" to="#808080" begin="zoomminus.mouseover" end="zoomminus.mouseout"/>
                        </use>
                        <path d="M-4,0h8" fill="none" stroke="white" stroke-width="1.5" pointer-events="none"/>
                </g>
                <g id="dirArrow">
                        <path fill="none" stroke="white" stroke-width="1.5" d="M0,-3.0v7 M-2.5,-0.5L0,-3.0L2.5,-0.5"/>
                </g>
               <g id="resetDef">
                       <use xlink:href="#rim2" fill="#404040">
                               <set attributeName="fill" to="#808080" begin="reset.mouseover" end="reset.mouseout"/>
                       </use>
               </g>
        </defs>

<script type="text/javascript">
var viewWidth = 504;
var viewHeight = 318;
var sectionId = 'dynsection-20';
</script>
<script xlink:href="svgpan.js"/>
<svg id="graph" class="graph">
<g id="viewport">
<title>chig::GraphModule::nodeTypeFromName</title>
<polygon fill="#ffffff" stroke="transparent" points="-4,4 -4,-314 500,-314 500,4 -4,4"/>
<!-- Node179 -->
<g id="node1" class="node">
<title>Node179</title>
<polygon fill="#bfbfbf" stroke="#000000" points="0,-159.5 0,-189.5 107,-189.5 107,-159.5 0,-159.5"/>
<text text-anchor="start" x="8" y="-177.5" font-family="Helvetica,sans-Serif" font-size="10.00" fill="#000000">chig::GraphModule::</text>
<text text-anchor="middle" x="53.5" y="-166.5" font-family="Helvetica,sans-Serif" font-size="10.00" fill="#000000">nodeTypeFromName</text>
</g>
<!-- Node180 -->
<g id="node2" class="node">
<title>Node180</title>
<g id="a_node2"><a xlink:href="structchig_1_1Result.html#aabb30a56760c3a817518912d9eabb491" target="_top" xlink:title="Add a entry to the result, either a warning or an error. ">
<polygon fill="#ffffff" stroke="#000000" points="357.5,-200 357.5,-219 470.5,-219 470.5,-200 357.5,-200"/>
<text text-anchor="middle" x="414" y="-207" font-family="Helvetica,sans-Serif" font-size="10.00" fill="#000000">chig::Result::addEntry</text>
</a>
</g>
</g>
<!-- Node179&#45;&gt;Node180 -->
<g id="edge1" class="edge">
<title>Node179&#45;&gt;Node180</title>
<path fill="none" stroke="#191970" d="M68.6624,-189.7001C85.262,-205.1655 113.4723,-228.1497 143,-237.5 224.3351,-263.2558 325.5916,-238.8166 378.318,-222.1297"/>
<polygon fill="#191970" stroke="#191970" points="379.4631,-225.4378 387.8895,-219.0155 377.2972,-218.7813 379.4631,-225.4378"/>
</g>
<!-- Node181 -->
<g id="node3" class="node">
<title>Node181</title>
<g id="a_node3"><a xlink:href="structchig_1_1ChigModule.html#aad81aae17452ddc5fc43809924236385" target="_top" xlink:title="Get the Context that this module belongs to. ">
<polygon fill="#ffffff" stroke="#000000" points="154.5,-285 154.5,-304 284.5,-304 284.5,-285 154.5,-285"/>
<text text-anchor="middle" x="219.5" y="-292" font-family="Helvetica,sans-Serif" font-size="10.00" fill="#000000">chig::ChigModule::context</text>
</a>
</g>
</g>
<!-- Node179&#45;&gt;Node181 -->
<g id="edge2" class="edge">
<title>Node179&#45;&gt;Node181</title>
<path fill="none" stroke="#191970" d="M63.8057,-189.7841C78.8188,-210.9128 108.6835,-248.8794 143,-270.5 150.1104,-274.9798 158.1219,-278.6814 166.214,-281.7228"/>
<polygon fill="#191970" stroke="#191970" points="165.1066,-285.0431 175.7013,-284.9969 167.3902,-278.4261 165.1066,-285.0431"/>
</g>
<!-- Node183 -->
<g id="node5" class="node">
<title>Node183</title>
<g id="a_node5"><a xlink:href="structchig_1_1ChigModule.html#ad730121a133fbc474fcb71d49f31f7b3" target="_top" xlink:title="Get the full name of the module. ">
<polygon fill="#ffffff" stroke="#000000" points="151.5,-209 151.5,-228 287.5,-228 287.5,-209 151.5,-209"/>
<text text-anchor="middle" x="219.5" y="-216" font-family="Helvetica,sans-Serif" font-size="10.00" fill="#000000">chig::ChigModule::fullName</text>
</a>
</g>
</g>
<!-- Node179&#45;&gt;Node183 -->
<g id="edge4" class="edge">
<title>Node179&#45;&gt;Node183</title>
<path fill="none" stroke="#191970" d="M107.439,-189.0227C119.1589,-192.1619 131.4921,-195.4528 143,-198.5 152.7537,-201.0827 163.2126,-203.831 173.1679,-206.4369"/>
<polygon fill="#191970" stroke="#191970" points="172.3503,-209.8408 182.9104,-208.984 174.1209,-203.0684 172.3503,-209.8408"/>
</g>
<!-- Node184 -->
<g id="node6" class="node">
<title>Node184</title>
<g id="a_node6"><a xlink:href="structchig_1_1GraphModule.html#acf2cd8568f77bb56185e87e8ccb5889c" target="_top" xlink:title="Get a function from the name. ">
<polygon fill="#ffffff" stroke="#000000" points="167.5,-159.5 167.5,-189.5 271.5,-189.5 271.5,-159.5 167.5,-159.5"/>
<text text-anchor="start" x="175.5" y="-177.5" font-family="Helvetica,sans-Serif" font-size="10.00" fill="#000000">chig::GraphModule::</text>
<text text-anchor="middle" x="219.5" y="-166.5" font-family="Helvetica,sans-Serif" font-size="10.00" fill="#000000">functionFromName</text>
</a>
</g>
</g>
<!-- Node179&#45;&gt;Node184 -->
<g id="edge5" class="edge">
<title>Node179&#45;&gt;Node184</title>
<path fill="none" stroke="#191970" d="M107.3954,-174.5C123.3103,-174.5 140.8598,-174.5 157.2548,-174.5"/>
<polygon fill="#191970" stroke="#191970" points="157.2889,-178.0001 167.2889,-174.5 157.2889,-171.0001 157.2889,-178.0001"/>
</g>
<!-- Node185 -->
<g id="node7" class="node">
<title>Node185</title>
<g id="a_node7"><a xlink:href="namespacechig.html#afcb097e8f99cd26ed33dd582f0d952f0" target="_top" xlink:title="Parse a colonated pair Example: lang:i32 would turn into {lang, i32}. ">
<polygon fill="#ffffff" stroke="#000000" points="166,-33 166,-52 273,-52 273,-33 166,-33"/>
<text text-anchor="middle" x="219.5" y="-40" font-family="Helvetica,sans-Serif" font-size="10.00" fill="#000000">chig::parseColonPair</text>
</a>
</g>
</g>
<!-- Node179&#45;&gt;Node185 -->
<g id="edge6" class="edge">
<title>Node179&#45;&gt;Node185</title>
<path fill="none" stroke="#191970" d="M61.1377,-159.4276C74.352,-134.9357 103.8658,-86.7046 143,-61.5 147.0987,-58.8602 151.5381,-56.5872 156.144,-54.63"/>
<polygon fill="#191970" stroke="#191970" points="157.6284,-57.812 165.7763,-51.0398 155.1836,-51.2528 157.6284,-57.812"/>
</g>
<!-- Node188 -->
<g id="node10" class="node">
<title>Node188</title>
<g id="a_node10"><a xlink:href="structchig_1_1GraphModule.html#a64831f6b192140fb9014025717df72ac" target="_top" xlink:title="Get a struct by name. ">
<polygon fill="#ffffff" stroke="#000000" points="167.5,-71.5 167.5,-101.5 271.5,-101.5 271.5,-71.5 167.5,-71.5"/>
<text text-anchor="start" x="175.5" y="-89.5" font-family="Helvetica,sans-Serif" font-size="10.00" fill="#000000">chig::GraphModule::</text>
<text text-anchor="middle" x="219.5" y="-78.5" font-family="Helvetica,sans-Serif" font-size="10.00" fill="#000000">structFromName</text>
</a>
</g>
</g>
<!-- Node179&#45;&gt;Node188 -->
<g id="edge9" class="edge">
<title>Node179&#45;&gt;Node188</title>
<path fill="none" stroke="#191970" d="M71.6696,-159.251C89.0617,-145.2707 116.4995,-124.7819 143,-111.5 147.6433,-109.1728 152.551,-106.9944 157.5486,-104.9705"/>
<polygon fill="#191970" stroke="#191970" points="159.1337,-108.1116 167.2239,-101.2707 156.6333,-101.5734 159.1337,-108.1116"/>
</g>
<!-- Node189 -->
<g id="node11" class="node">
<title>Node189</title>
<g id="a_node11"><a xlink:href="structchig_1_1Context.html#aa484ef2c16aaa4d97a21632af4122bd8" target="_top" xlink:title="Gets a DataType from a module. ">
<polygon fill="#ffffff" stroke="#000000" points="143,-121 143,-140 296,-140 296,-121 143,-121"/>
<text text-anchor="middle" x="219.5" y="-128" font-family="Helvetica,sans-Serif" font-size="10.00" fill="#000000">chig::Context::typeFromModule</text>
</a>
</g>
</g>
<!-- Node179&#45;&gt;Node189 -->
<g id="edge10" class="edge">
<title>Node179&#45;&gt;Node189</title>
<path fill="none" stroke="#191970" d="M106.4358,-159.4402C118.4401,-156.1012 131.1445,-152.6274 143,-149.5 151.8428,-147.1674 161.2819,-144.7578 170.4035,-142.4705"/>
<polygon fill="#191970" stroke="#191970" points="171.2765,-145.8601 180.1335,-140.0459 169.5839,-139.0678 171.2765,-145.8601"/>
</g>
<!-- Node182 -->
<g id="node4" class="node">
<title>Node182</title>
<g id="a_node4"><a xlink:href="structchig_1_1ChigModule.html#a7864ea1e3388965d05103768757962a4" target="_top" xlink:title="Generate a llvm::Module from the module. ">
<polygon fill="#ffffff" stroke="#000000" points="346.5,-279.5 346.5,-309.5 481.5,-309.5 481.5,-279.5 346.5,-279.5"/>
<text text-anchor="start" x="354.5" y="-297.5" font-family="Helvetica,sans-Serif" font-size="10.00" fill="#000000">chig::ChigModule::generate</text>
<text text-anchor="middle" x="414" y="-286.5" font-family="Helvetica,sans-Serif" font-size="10.00" fill="#000000">Module</text>
</a>
</g>
</g>
<!-- Node181&#45;&gt;Node182 -->
<g id="edge3" class="edge">
<title>Node181&#45;&gt;Node182</title>
<path fill="none" stroke="#191970" d="M284.5361,-294.5C300.9978,-294.5 318.8477,-294.5 335.8823,-294.5"/>
<polygon fill="#191970" stroke="#191970" points="336.3637,-298.0001 346.3636,-294.5 336.3636,-291.0001 336.3637,-298.0001"/>
</g>
<!-- Node186 -->
<g id="node8" class="node">
<title>Node186</title>
<g id="a_node8"><a xlink:href="structchig_1_1GraphFunction.html#a2eddb58def91a9e0fce7212db3834827" target="_top" xlink:title="Get the GraphModule that contains this GraphFunction. ">
<polygon fill="#ffffff" stroke="#000000" points="362,-.5 362,-30.5 466,-30.5 466,-.5 362,-.5"/>
<text text-anchor="start" x="370" y="-18.5" font-family="Helvetica,sans-Serif" font-size="10.00" fill="#000000">chig::GraphFunction</text>
<text text-anchor="middle" x="414" y="-7.5" font-family="Helvetica,sans-Serif" font-size="10.00" fill="#000000">::module</text>
</a>
</g>
</g>
<!-- Node185&#45;&gt;Node186 -->
<g id="edge7" class="edge">
<title>Node185&#45;&gt;Node186</title>
<path fill="none" stroke="#191970" d="M273.1628,-35.0507C297.4743,-31.6758 326.3679,-27.6649 351.6383,-24.1569"/>
<polygon fill="#191970" stroke="#191970" points="352.4319,-27.5804 361.8556,-22.7386 351.4693,-20.6469 352.4319,-27.5804"/>
</g>
<!-- Node187 -->
<g id="node9" class="node">
<title>Node187</title>
<g id="a_node9"><a xlink:href="structchig_1_1GraphFunction.html#a3291c0b882b4f73e5d60af4ca75b1a37" target="_top" xlink:title="Get the name of the function. ">
<polygon fill="#ffffff" stroke="#000000" points="362,-49.5 362,-79.5 466,-79.5 466,-49.5 362,-49.5"/>
<text text-anchor="start" x="370" y="-67.5" font-family="Helvetica,sans-Serif" font-size="10.00" fill="#000000">chig::GraphFunction</text>
<text text-anchor="middle" x="414" y="-56.5" font-family="Helvetica,sans-Serif" font-size="10.00" fill="#000000">::name</text>
</a>
</g>
</g>
<!-- Node185&#45;&gt;Node187 -->
<g id="edge8" class="edge">
<title>Node185&#45;&gt;Node187</title>
<path fill="none" stroke="#191970" d="M273.1628,-48.5698C297.4743,-51.3197 326.3679,-54.5879 351.6383,-57.4462"/>
<polygon fill="#191970" stroke="#191970" points="351.5255,-60.9557 361.8556,-58.6019 352.3124,-54.0001 351.5255,-60.9557"/>
</g>
<!-- Node189&#45;&gt;Node180 -->
<g id="edge11" class="edge">
<title>Node189&#45;&gt;Node180</title>
<path fill="none" stroke="#191970" d="M265.3231,-140.0811C275.5539,-142.7154 286.2551,-145.8662 296,-149.5 329.4995,-161.9917 365.8596,-181.4581 389.2331,-194.8094"/>
<polygon fill="#191970" stroke="#191970" points="387.7043,-197.9685 398.1131,-199.9455 391.2091,-191.909 387.7043,-197.9685"/>
</g>
<!-- Node190 -->
<g id="node12" class="node">
<title>Node190</title>
<g id="a_node12"><a xlink:href="structchig_1_1ChigModule.html#a7bb138db48ea320a09312ffd1af0999a" target="_top" xlink:title="Get a DataType from the name. ">
<polygon fill="#ffffff" stroke="#000000" points="332,-121 332,-140 496,-140 496,-121 332,-121"/>
<text text-anchor="middle" x="414" y="-128" font-family="Helvetica,sans-Serif" font-size="10.00" fill="#000000">chig::ChigModule::typeFromName</text>
</a>
</g>
</g>
<!-- Node189&#45;&gt;Node190 -->
<g id="edge12" class="edge">
<title>Node189&#45;&gt;Node190</title>
<path fill="none" stroke="#191970" d="M296.0924,-130.5C304.4971,-130.5 313.1177,-130.5 321.6871,-130.5"/>
<polygon fill="#191970" stroke="#191970" points="321.7073,-134.0001 331.7072,-130.5 321.7072,-127.0001 321.7073,-134.0001"/>
</g>
</g>
</svg>
        <g id="navigator" transform="translate(0 0)" fill="#404254">
                <rect fill="#f2f5e9" fill-opacity="0.5" stroke="#606060" stroke-width=".5" x="0" y="0" width="60" height="60"/>
                <use id="zoomplus" xlink:href="#zoomPlus" x="17" y="9" onmousedown="handleZoom(evt,'in')"/>
                <use id="zoomminus" xlink:href="#zoomMin" x="42" y="9" onmousedown="handleZoom(evt,'out')"/>
                <use id="reset" xlink:href="#resetDef" x="30" y="36" onmousedown="handleReset()"/>
                <g id="arrowUp" xlink:href="#dirArrow" transform="translate(30 24)" onmousedown="handlePan(0,-1)">
                  <use xlink:href="#rim" fill="#404040">
                        <set attributeName="fill" to="#808080" begin="arrowUp.mouseover" end="arrowUp.mouseout"/>
                  </use>
                  <path fill="none" stroke="white" stroke-width="1.5" d="M0,-3.0v7 M-2.5,-0.5L0,-3.0L2.5,-0.5"/>
                </g>
                <g id="arrowRight" xlink:href="#dirArrow" transform="rotate(90) translate(36 -43)" onmousedown="handlePan(1,0)">
                  <use xlink:href="#rim" fill="#404040">
                        <set attributeName="fill" to="#808080" begin="arrowRight.mouseover" end="arrowRight.mouseout"/>
                  </use>
                  <path fill="none" stroke="white" stroke-width="1.5" d="M0,-3.0v7 M-2.5,-0.5L0,-3.0L2.5,-0.5"/>
                </g>
                <g id="arrowDown" xlink:href="#dirArrow" transform="rotate(180) translate(-30 -48)" onmousedown="handlePan(0,1)">
                  <use xlink:href="#rim" fill="#404040">
                        <set attributeName="fill" to="#808080" begin="arrowDown.mouseover" end="arrowDown.mouseout"/>
                  </use>
                  <path fill="none" stroke="white" stroke-width="1.5" d="M0,-3.0v7 M-2.5,-0.5L0,-3.0L2.5,-0.5"/>
                </g>
                <g id="arrowLeft" xlink:href="#dirArrow" transform="rotate(270) translate(-36 17)" onmousedown="handlePan(-1,0)">
                  <use xlink:href="#rim" fill="#404040">
                        <set attributeName="fill" to="#808080" begin="arrowLeft.mouseover" end="arrowLeft.mouseout"/>
                  </use>
                  <path fill="none" stroke="white" stroke-width="1.5" d="M0,-3.0v7 M-2.5,-0.5L0,-3.0L2.5,-0.5"/>
                </g>
        </g>
        <svg viewBox="0 0 15 15" width="100%" height="30px" preserveAspectRatio="xMaxYMin meet">
         <g id="arrow_out" transform="scale(0.3 0.3)">
          <a xlink:href="structchig_1_1GraphModule_a3a3e16c194c091ee109eabaca14e3c43_cgraph_org.svg" target="_base">
           <rect id="button" ry="5" rx="5" y="6" x="6" height="38" width="38"
                fill="#f2f5e9" fill-opacity="0.5" stroke="#606060" stroke-width="1.0"/>
           <path id="arrow"
             d="M 11.500037,31.436501 C 11.940474,20.09759 22.043105,11.32322 32.158766,21.979434 L 37.068811,17.246167 C 37.068811,17.246167 37.088388,32 37.088388,32 L 22.160133,31.978069 C 22.160133,31.978069 26.997745,27.140456 26.997745,27.140456 C 18.528582,18.264221 13.291696,25.230495 11.500037,31.436501 z"
             style="fill:#404040;"/>
          </a>
         </g>
        </svg>
</svg>
