<?xml version="1.0" encoding="UTF-8" standalone="no"?>
<!DOCTYPE svg PUBLIC "-//W3C//DTD SVG 1.1//EN"
 "http://www.w3.org/Graphics/SVG/1.1/DTD/svg11.dtd">
<!-- Generated by graphviz version 2.40.1 (20161225.0304)
 -->
<!-- Title: chig::GraphFunction::removeNode Pages: 1 -->
<svg width="1138pt" height="700pt"
 viewBox="0.00 0.00 1138.00 699.71" xmlns="http://www.w3.org/2000/svg" xmlns:xlink="http://www.w3.org/1999/xlink">
<g id="graph0" class="graph" transform="scale(1 1) rotate(0) translate(4 695.7052)">
<title>chig::GraphFunction::removeNode</title>
<polygon fill="#ffffff" stroke="transparent" points="-4,4 -4,-695.7052 1134,-695.7052 1134,4 -4,4"/>
<!-- Node624 -->
<g id="node1" class="node">
<title>Node624</title>
<polygon fill="#bfbfbf" stroke="#000000" points="0,-82.5 0,-112.5 113,-112.5 113,-82.5 0,-82.5"/>
<text text-anchor="start" x="8" y="-100.5" font-family="Helvetica,sans-Serif" font-size="10.00" fill="#000000">chig::GraphFunction</text>
<text text-anchor="middle" x="56.5" y="-89.5" font-family="Helvetica,sans-Serif" font-size="10.00" fill="#000000">::removeNode</text>
</g>
<!-- Node625 -->
<g id="node2" class="node">
<title>Node625</title>
<g id="a_node2"><a xlink:href="namespacechig.html#a26aa6586df79345493de9fc130291c18" target="_top" xlink:title="Disconnect a data connection. ">
<polygon fill="#ffffff" stroke="#000000" points="149,-430 149,-449 268,-449 268,-430 149,-430"/>
<text text-anchor="middle" x="208.5" y="-437" font-family="Helvetica,sans-Serif" font-size="10.00" fill="#000000">chig::disconnectData</text>
</a>
</g>
</g>
<!-- Node624&#45;&gt;Node625 -->
<g id="edge1" class="edge">
<title>Node624&#45;&gt;Node625</title>
<path fill="none" stroke="#191970" d="M63.2274,-112.6366C87.8308,-167.9943 172.9014,-359.4031 200.0812,-420.5577"/>
<polygon fill="#191970" stroke="#191970" points="196.9344,-422.0953 204.1942,-429.812 203.3311,-419.2523 196.9344,-422.0953"/>
</g>
<!-- Node640 -->
<g id="node17" class="node">
<title>Node640</title>
<g id="a_node17"><a xlink:href="namespacechig.html#ad24a330508033631ef29b2f6e5cf6210" target="_top" xlink:title="Disconnect a exec connection. ">
<polygon fill="#ffffff" stroke="#000000" points="609.5,-126 609.5,-145 728.5,-145 728.5,-126 609.5,-126"/>
<text text-anchor="middle" x="669" y="-133" font-family="Helvetica,sans-Serif" font-size="10.00" fill="#000000">chig::disconnectExec</text>
</a>
</g>
</g>
<!-- Node624&#45;&gt;Node640 -->
<g id="edge39" class="edge">
<title>Node624&#45;&gt;Node640</title>
<path fill="none" stroke="#191970" d="M113.0247,-101.0068C225.5096,-107.9855 477.0711,-123.5926 599.4605,-131.1857"/>
<polygon fill="#191970" stroke="#191970" points="599.2727,-134.6807 609.4702,-131.8067 599.7062,-127.6941 599.2727,-134.6807"/>
</g>
<!-- Node642 -->
<g id="node19" class="node">
<title>Node642</title>
<g id="a_node19"><a xlink:href="structchig_1_1NodeInstance.html#a1468afe4799106831566bd283332a516" target="_top" xlink:title="Get the ID of the instance, unique to the graph. ">
<polygon fill="#ffffff" stroke="#000000" points="806.5,-88 806.5,-107 931.5,-107 931.5,-88 806.5,-88"/>
<text text-anchor="middle" x="869" y="-95" font-family="Helvetica,sans-Serif" font-size="10.00" fill="#000000">chig::NodeInstance::id</text>
</a>
</g>
</g>
<!-- Node624&#45;&gt;Node642 -->
<g id="edge40" class="edge">
<title>Node624&#45;&gt;Node642</title>
<path fill="none" stroke="#191970" d="M113.1016,-86.0987C173.6783,-74.9056 272.7239,-59.5 359,-59.5 359,-59.5 359,-59.5 502,-59.5 607.3798,-59.5 728.8793,-75.1928 802.2621,-86.4092"/>
<polygon fill="#191970" stroke="#191970" points="801.8733,-89.8906 812.2907,-87.96 802.9431,-82.9728 801.8733,-89.8906"/>
</g>
<!-- Node644 -->
<g id="node21" class="node">
<title>Node644</title>
<g id="a_node21"><a xlink:href="structchig_1_1GraphFunction.html#a13cb6ea56ea3161cf0983a3922ac3b06" target="_top" xlink:title="Get the nodes in the function Usually called by connectData or connectExec or GraphFunction. ">
<polygon fill="#ffffff" stroke="#000000" points="152,-.5 152,-30.5 265,-30.5 265,-.5 152,-.5"/>
<text text-anchor="start" x="160" y="-18.5" font-family="Helvetica,sans-Serif" font-size="10.00" fill="#000000">chig::GraphFunction</text>
<text text-anchor="middle" x="208.5" y="-7.5" font-family="Helvetica,sans-Serif" font-size="10.00" fill="#000000">::nodes</text>
</a>
</g>
</g>
<!-- Node624&#45;&gt;Node644 -->
<g id="edge41" class="edge">
<title>Node624&#45;&gt;Node644</title>
<path fill="none" stroke="#191970" d="M82.6412,-82.3891C101.0723,-71.8373 126.4005,-57.5418 149,-45.5 155.3875,-42.0966 162.2065,-38.5649 168.8647,-35.1709"/>
<polygon fill="#191970" stroke="#191970" points="170.4477,-38.2926 177.7887,-30.6532 167.286,-32.0473 170.4477,-38.2926"/>
</g>
<!-- Node626 -->
<g id="node3" class="node">
<title>Node626</title>
<g id="a_node3"><a xlink:href="structchig_1_1Result.html#aabb30a56760c3a817518912d9eabb491" target="_top" xlink:title="Add a entry to the result, either a warning or an error. ">
<polygon fill="#ffffff" stroke="#000000" points="807.5,-374 807.5,-393 930.5,-393 930.5,-374 807.5,-374"/>
<text text-anchor="middle" x="869" y="-381" font-family="Helvetica,sans-Serif" font-size="10.00" fill="#000000">chig::Result::addEntry</text>
</a>
</g>
</g>
<!-- Node625&#45;&gt;Node626 -->
<g id="edge2" class="edge">
<title>Node625&#45;&gt;Node626</title>
<path fill="none" stroke="#191970" d="M268.2799,-434.4316C389.9429,-424.1165 665.8935,-400.7202 797.1042,-389.5956"/>
<polygon fill="#191970" stroke="#191970" points="797.7713,-393.0517 807.4399,-388.7193 797.1799,-386.0767 797.7713,-393.0517"/>
</g>
<!-- Node627 -->
<g id="node4" class="node">
<title>Node627</title>
<g id="a_node4"><a xlink:href="structchig_1_1NodeType.html#ae03c2c70c06ea281a87b1b40c0514064" target="_top" xlink:title="Get the data inputs for the node. ">
<polygon fill="#ffffff" stroke="#000000" points="594,-582 594,-601 744,-601 744,-582 594,-582"/>
<text text-anchor="middle" x="669" y="-589" font-family="Helvetica,sans-Serif" font-size="10.00" fill="#000000">chig::NodeType::dataInputs</text>
</a>
</g>
</g>
<!-- Node625&#45;&gt;Node627 -->
<g id="edge3" class="edge">
<title>Node625&#45;&gt;Node627</title>
<path fill="none" stroke="#191970" d="M220.0894,-449.0787C237.3311,-462.861 271.2333,-488.1964 304,-502.5 398.1084,-543.5811 514.5071,-567.7936 590.1901,-580.3485"/>
<polygon fill="#191970" stroke="#191970" points="589.6993,-583.8146 600.1322,-581.9695 590.8258,-576.9058 589.6993,-583.8146"/>
</g>
<!-- Node628 -->
<g id="node5" class="node">
<title>Node628</title>
<g id="a_node5"><a xlink:href="structchig_1_1NodeType.html#aed44920726e20a4403f3d43f88cadb54" target="_top" xlink:title="Get the data outputs for the node. ">
<polygon fill="#ffffff" stroke="#000000" points="590,-544 590,-563 748,-563 748,-544 590,-544"/>
<text text-anchor="middle" x="669" y="-551" font-family="Helvetica,sans-Serif" font-size="10.00" fill="#000000">chig::NodeType::dataOutputs</text>
</a>
</g>
</g>
<!-- Node625&#45;&gt;Node628 -->
<g id="edge4" class="edge">
<title>Node625&#45;&gt;Node628</title>
<path fill="none" stroke="#191970" d="M231.7477,-449.0458C250.9028,-456.6611 278.8997,-467.2219 304,-474.5 407.3345,-504.4629 530.0716,-528.7757 603.6366,-542.1733"/>
<polygon fill="#191970" stroke="#191970" points="603.2201,-545.6547 613.6835,-543.9908 604.4662,-538.7665 603.2201,-545.6547"/>
</g>
<!-- Node629 -->
<g id="node6" class="node">
<title>Node629</title>
<g id="a_node6"><a xlink:href="structchig_1_1NodeInstance.html#ac06ee5988ee5f130088fee83a550f4d2" target="_top" xlink:title="Get the containing GraphFunction. ">
<polygon fill="#ffffff" stroke="#000000" points="304,-266.5 304,-296.5 414,-296.5 414,-266.5 304,-266.5"/>
<text text-anchor="start" x="312" y="-284.5" font-family="Helvetica,sans-Serif" font-size="10.00" fill="#000000">chig::NodeInstance</text>
<text text-anchor="middle" x="359" y="-273.5" font-family="Helvetica,sans-Serif" font-size="10.00" fill="#000000">::function</text>
</a>
</g>
</g>
<!-- Node625&#45;&gt;Node629 -->
<g id="edge5" class="edge">
<title>Node625&#45;&gt;Node629</title>
<path fill="none" stroke="#191970" d="M211.749,-429.6915C222.0314,-405.9232 255.6665,-347.4732 304.0164,-303.2597"/>
<polygon fill="#191970" stroke="#191970" points="306.4074,-305.8175 311.5777,-296.5698 301.769,-300.5749 306.4074,-305.8175"/>
</g>
<!-- Node631 -->
<g id="node8" class="node">
<title>Node631</title>
<g id="a_node8"><a xlink:href="structchig_1_1NodeType.html#aec01c9c30813ec9f0e15dda0f7ae34f3" target="_top" xlink:title="Get the qualified name of the node type, like module.name():name() ">
<polygon fill="#ffffff" stroke="#000000" points="784,-447 784,-466 954,-466 954,-447 784,-447"/>
<text text-anchor="middle" x="869" y="-454" font-family="Helvetica,sans-Serif" font-size="10.00" fill="#000000">chig::NodeType::qualifiedName</text>
</a>
</g>
</g>
<!-- Node625&#45;&gt;Node631 -->
<g id="edge36" class="edge">
<title>Node625&#45;&gt;Node631</title>
<path fill="none" stroke="#191970" d="M215.2307,-449.0039C229.3938,-468.2911 264.2648,-512.1709 304,-535.5 417.3215,-602.0325 459.5222,-594.8832 590,-610.5 659.7246,-618.8453 684.8425,-641.1968 748,-610.5 806.4764,-582.0784 845.1048,-510.1943 860.9103,-475.6334"/>
<polygon fill="#191970" stroke="#191970" points="864.2402,-476.7569 865.0794,-466.1953 857.8371,-473.9284 864.2402,-476.7569"/>
</g>
<!-- Node636 -->
<g id="node13" class="node">
<title>Node636</title>
<g id="a_node13"><a xlink:href="structchig_1_1NodeType.html#ae32c95d458c85ea3633a3e5cb9fd321c" target="_top" xlink:title="Create the JSON necessary to store the object. ">
<polygon fill="#ffffff" stroke="#000000" points="603,-658 603,-677 735,-677 735,-658 603,-658"/>
<text text-anchor="middle" x="669" y="-665" font-family="Helvetica,sans-Serif" font-size="10.00" fill="#000000">chig::NodeType::toJSON</text>
</a>
</g>
</g>
<!-- Node625&#45;&gt;Node636 -->
<g id="edge37" class="edge">
<title>Node625&#45;&gt;Node636</title>
<path fill="none" stroke="#191970" d="M209.6576,-449.3953C214.2163,-483.3802 234.253,-595.854 304,-643.5 399.2809,-708.5888 543.1873,-693.3711 618.691,-679.0558"/>
<polygon fill="#191970" stroke="#191970" points="619.7431,-682.4159 628.8788,-677.0503 618.391,-675.5478 619.7431,-682.4159"/>
</g>
<!-- Node638 -->
<g id="node15" class="node">
<title>Node638</title>
<g id="a_node15"><a xlink:href="structchig_1_1NodeInstance.html#a5c9d6934e14f56ff4317ff08e170e83a" target="_top" xlink:title="Get the type of the instance. ">
<polygon fill="#ffffff" stroke="#000000" points="814,-272.5 814,-302.5 924,-302.5 924,-272.5 814,-272.5"/>
<text text-anchor="start" x="822" y="-290.5" font-family="Helvetica,sans-Serif" font-size="10.00" fill="#000000">chig::NodeInstance</text>
<text text-anchor="middle" x="869" y="-279.5" font-family="Helvetica,sans-Serif" font-size="10.00" fill="#000000">::type</text>
</a>
</g>
</g>
<!-- Node625&#45;&gt;Node638 -->
<g id="edge38" class="edge">
<title>Node625&#45;&gt;Node638</title>
<path fill="none" stroke="#191970" d="M248.8515,-429.987C318.442,-413.6032 465.5459,-379.0678 590,-350.5 663.2795,-333.6791 747.4731,-314.7177 804.0372,-302.0318"/>
<polygon fill="#191970" stroke="#191970" points="804.9265,-305.4194 813.9186,-299.8165 803.3952,-298.589 804.9265,-305.4194"/>
</g>
<!-- Node625&#45;&gt;Node642 -->
<g id="edge35" class="edge">
<title>Node625&#45;&gt;Node642</title>
<path fill="none" stroke="#191970" d="M211.539,-429.6545C221.0092,-400.2754 252.4752,-311.8437 304,-256.5 355.9414,-200.7088 381.2862,-199.4997 450,-166.5 509.5591,-137.8968 525.3189,-129.9829 590,-116.5 658.9046,-102.1367 739.2445,-97.9481 795.9693,-97.0166"/>
<polygon fill="#191970" stroke="#191970" points="796.3258,-100.5123 806.2781,-96.8789 796.2322,-93.5129 796.3258,-100.5123"/>
</g>
<!-- Node629&#45;&gt;Node625 -->
<g id="edge33" class="edge">
<title>Node629&#45;&gt;Node625</title>
<path fill="none" stroke="#191970" d="M341.1873,-296.5021C329.78,-303.0614 315.0916,-310.8779 304,-320.5 269.0869,-350.7876 239.1476,-395.9068 222.509,-421.2131"/>
<polygon fill="#191970" stroke="#191970" points="219.3838,-419.5945 216.8007,-429.8696 225.2277,-423.4481 219.3838,-419.5945"/>
</g>
<!-- Node630 -->
<g id="node7" class="node">
<title>Node630</title>
<g id="a_node7"><a xlink:href="namespacechig.html#ad3c2fc880f6843f9a8a0f5ee0d62249d" target="_top" xlink:title="Connects two nodes&#39; data connections. ">
<polygon fill="#ffffff" stroke="#000000" points="450,-468 450,-487 554,-487 554,-468 450,-468"/>
<text text-anchor="middle" x="502" y="-475" font-family="Helvetica,sans-Serif" font-size="10.00" fill="#000000">chig::connectData</text>
</a>
</g>
</g>
<!-- Node629&#45;&gt;Node630 -->
<g id="edge6" class="edge">
<title>Node629&#45;&gt;Node630</title>
<path fill="none" stroke="#191970" d="M373.2342,-296.7663C401.8895,-332.5458 465.9596,-420.5236 491.3456,-459.1374"/>
<polygon fill="#191970" stroke="#191970" points="488.5757,-461.3018 496.9211,-467.8291 494.4677,-457.5222 488.5757,-461.3018"/>
</g>
<!-- Node639 -->
<g id="node16" class="node">
<title>Node639</title>
<g id="a_node16"><a xlink:href="namespacechig.html#a8a2e0029b591b2c20b39d570753f123f" target="_top" xlink:title="Connects two nodes&#39; exec connections. ">
<polygon fill="#ffffff" stroke="#000000" points="450,-256 450,-275 554,-275 554,-256 450,-256"/>
<text text-anchor="middle" x="502" y="-263" font-family="Helvetica,sans-Serif" font-size="10.00" fill="#000000">chig::connectExec</text>
</a>
</g>
</g>
<!-- Node629&#45;&gt;Node639 -->
<g id="edge20" class="edge">
<title>Node629&#45;&gt;Node639</title>
<path fill="none" stroke="#191970" d="M414.2875,-268.7206C422.5571,-267.633 431.1321,-266.6374 439.5378,-265.7869"/>
<polygon fill="#191970" stroke="#191970" points="440.0503,-269.2541 449.6749,-264.8251 439.389,-262.2854 440.0503,-269.2541"/>
</g>
<!-- Node629&#45;&gt;Node640 -->
<g id="edge34" class="edge">
<title>Node629&#45;&gt;Node640</title>
<path fill="none" stroke="#191970" d="M381.2345,-266.354C421.2587,-239.75 508.8392,-184.5142 590,-153.5 595.5558,-151.377 601.4314,-149.4642 607.3695,-147.7502"/>
<polygon fill="#191970" stroke="#191970" points="608.6331,-151.0345 617.3767,-145.0511 606.8103,-144.276 608.6331,-151.0345"/>
</g>
<!-- Node630&#45;&gt;Node625 -->
<g id="edge10" class="edge">
<title>Node630&#45;&gt;Node625</title>
<path fill="none" stroke="#191970" d="M449.8445,-471.5377C409.8921,-466.8834 353.4213,-460.1167 304,-453.5 295.6437,-452.3812 286.8832,-451.1614 278.2002,-449.9236"/>
<polygon fill="#191970" stroke="#191970" points="278.468,-446.4262 268.0716,-448.4671 277.4716,-453.3549 278.468,-446.4262"/>
</g>
<!-- Node630&#45;&gt;Node626 -->
<g id="edge7" class="edge">
<title>Node630&#45;&gt;Node626</title>
<path fill="none" stroke="#191970" d="M554.1711,-478.7589C604.8725,-478.52 683.4501,-474.2385 748,-453.5 768.0154,-447.0695 816.3577,-417.2827 845.519,-398.6979"/>
<polygon fill="#191970" stroke="#191970" points="847.7215,-401.4436 854.2528,-393.1013 843.9447,-395.5498 847.7215,-401.4436"/>
</g>
<!-- Node630&#45;&gt;Node627 -->
<g id="edge8" class="edge">
<title>Node630&#45;&gt;Node627</title>
<path fill="none" stroke="#191970" d="M507.97,-487.0395C520.5928,-506.374 551.9771,-550.2306 590,-572.5 593.6973,-574.6655 597.6295,-576.5846 601.6886,-578.2852"/>
<polygon fill="#191970" stroke="#191970" points="600.7469,-581.669 611.3398,-581.8703 603.1844,-575.1071 600.7469,-581.669"/>
</g>
<!-- Node630&#45;&gt;Node628 -->
<g id="edge9" class="edge">
<title>Node630&#45;&gt;Node628</title>
<path fill="none" stroke="#191970" d="M515.7715,-487.0507C532.6399,-498.4094 562.3848,-517.3554 590,-529.5 599.8441,-533.8292 610.7033,-537.6823 621.137,-540.9664"/>
<polygon fill="#191970" stroke="#191970" points="620.3782,-544.3933 630.9632,-543.9377 622.4043,-537.693 620.3782,-544.3933"/>
</g>
<!-- Node630&#45;&gt;Node629 -->
<g id="edge11" class="edge">
<title>Node630&#45;&gt;Node629</title>
<path fill="none" stroke="#191970" d="M492.2273,-467.728C467.4398,-437.7106 402.0394,-348.2726 373.1092,-305.0666"/>
<polygon fill="#191970" stroke="#191970" points="375.9442,-303.008 367.5171,-296.5866 370.1004,-306.8617 375.9442,-303.008"/>
</g>
<!-- Node630&#45;&gt;Node631 -->
<g id="edge12" class="edge">
<title>Node630&#45;&gt;Node631</title>
<path fill="none" stroke="#191970" d="M553.0233,-487.0138C565.1027,-488.878 577.971,-490.5491 590,-491.5 660.0038,-497.0337 678.4726,-501.3537 748,-491.5 777.5546,-487.3114 809.993,-477.6389 833.8373,-469.5213"/>
<polygon fill="#191970" stroke="#191970" points="835.2036,-472.7518 843.4967,-466.1581 832.9019,-466.141 835.2036,-472.7518"/>
</g>
<!-- Node630&#45;&gt;Node636 -->
<g id="edge17" class="edge">
<title>Node630&#45;&gt;Node636</title>
<path fill="none" stroke="#191970" d="M506.7479,-487.0287C518.5463,-510.0839 551.0702,-569.9607 590,-610.5 605.9133,-627.0712 627.1829,-642.1057 643.6433,-652.5683"/>
<polygon fill="#191970" stroke="#191970" points="641.8854,-655.5964 652.2287,-657.8912 645.5739,-649.6471 641.8854,-655.5964"/>
</g>
<!-- Node630&#45;&gt;Node638 -->
<g id="edge19" class="edge">
<title>Node630&#45;&gt;Node638</title>
<path fill="none" stroke="#191970" d="M520.4511,-467.9477C577.6485,-438.3359 752.8101,-347.6528 830.8243,-307.264"/>
<polygon fill="#191970" stroke="#191970" points="832.5709,-310.3011 839.8422,-302.5953 829.3526,-304.0847 832.5709,-310.3011"/>
</g>
<!-- Node632 -->
<g id="node9" class="node">
<title>Node632</title>
<g id="a_node9"><a xlink:href="structchig_1_1NodeType.html#ad18d6f37b20e92bcd580bcf7c7504e64" target="_top" xlink:title="Get the ChigModule this NodeType belongs to. ">
<polygon fill="#ffffff" stroke="#000000" points="992.5,-504 992.5,-523 1127.5,-523 1127.5,-504 992.5,-504"/>
<text text-anchor="middle" x="1060" y="-511" font-family="Helvetica,sans-Serif" font-size="10.00" fill="#000000">chig::NodeType::module</text>
</a>
</g>
</g>
<!-- Node631&#45;&gt;Node632 -->
<g id="edge13" class="edge">
<title>Node631&#45;&gt;Node632</title>
<path fill="none" stroke="#191970" d="M898.2427,-466.0373C922.6886,-473.925 958.5128,-485.2863 990,-494.5 997.648,-496.7379 1005.7922,-499.0304 1013.72,-501.2138"/>
<polygon fill="#191970" stroke="#191970" points="1013.0238,-504.6517 1023.5925,-503.9087 1014.8672,-497.8988 1013.0238,-504.6517"/>
</g>
<!-- Node633 -->
<g id="node10" class="node">
<title>Node633</title>
<g id="a_node10"><a xlink:href="structchig_1_1ChigModule.html#a1fe8df6ff170ecd33057387571bb5cd2" target="_top" xlink:title="Get the short name of the module (the last bit) ">
<polygon fill="#ffffff" stroke="#000000" points="993,-466 993,-485 1127,-485 1127,-466 993,-466"/>
<text text-anchor="middle" x="1060" y="-473" font-family="Helvetica,sans-Serif" font-size="10.00" fill="#000000">chig::ChigModule::name</text>
</a>
</g>
</g>
<!-- Node631&#45;&gt;Node633 -->
<g id="edge14" class="edge">
<title>Node631&#45;&gt;Node633</title>
<path fill="none" stroke="#191970" d="M954.166,-464.972C963.6631,-465.9167 973.2982,-466.8752 982.6896,-467.8094"/>
<polygon fill="#191970" stroke="#191970" points="982.4692,-471.3047 992.7665,-468.8119 983.1621,-464.3391 982.4692,-471.3047"/>
</g>
<!-- Node634 -->
<g id="node11" class="node">
<title>Node634</title>
<g id="a_node11"><a xlink:href="structchig_1_1NodeType.html#aeba0c62eaae2a477171d83a65c877f53" target="_top" xlink:title="Get the name of the NodeType in the ChigModule. ">
<polygon fill="#ffffff" stroke="#000000" points="997,-428 997,-447 1123,-447 1123,-428 997,-428"/>
<text text-anchor="middle" x="1060" y="-435" font-family="Helvetica,sans-Serif" font-size="10.00" fill="#000000">chig::NodeType::name</text>
</a>
</g>
</g>
<!-- Node631&#45;&gt;Node634 -->
<g id="edge15" class="edge">
<title>Node631&#45;&gt;Node634</title>
<path fill="none" stroke="#191970" d="M954.166,-448.028C965.0216,-446.9481 976.0575,-445.8503 986.7037,-444.7913"/>
<polygon fill="#191970" stroke="#191970" points="987.1684,-448.2624 996.7728,-443.7896 986.4754,-441.2968 987.1684,-448.2624"/>
</g>
<!-- Node635 -->
<g id="node12" class="node">
<title>Node635</title>
<g id="a_node12"><a xlink:href="structchig_1_1NodeType.html#ab5f582da82b3e6bf14fe51e9cde43075" target="_top" xlink:title="A virtual function that is called when this node needs to be called. ">
<polygon fill="#ffffff" stroke="#000000" points="990,-390 990,-409 1130,-409 1130,-390 990,-390"/>
<text text-anchor="middle" x="1060" y="-397" font-family="Helvetica,sans-Serif" font-size="10.00" fill="#000000">chig::NodeType::codegen</text>
</a>
</g>
</g>
<!-- Node631&#45;&gt;Node635 -->
<g id="edge16" class="edge">
<title>Node631&#45;&gt;Node635</title>
<path fill="none" stroke="#191970" d="M898.2427,-446.9627C922.6886,-439.075 958.5128,-427.7137 990,-418.5 997.648,-416.2621 1005.7922,-413.9696 1013.72,-411.7862"/>
<polygon fill="#191970" stroke="#191970" points="1014.8672,-415.1012 1023.5925,-409.0913 1013.0238,-408.3483 1014.8672,-415.1012"/>
</g>
<!-- Node637 -->
<g id="node14" class="node">
<title>Node637</title>
<g id="a_node14"><a xlink:href="structchig_1_1NodeType.html#a4225c75840cda9382e6f5ff169d59513" target="_top" xlink:title="Clones the type. ">
<polygon fill="#ffffff" stroke="#000000" points="806.5,-658 806.5,-677 931.5,-677 931.5,-658 806.5,-658"/>
<text text-anchor="middle" x="869" y="-665" font-family="Helvetica,sans-Serif" font-size="10.00" fill="#000000">chig::NodeType::clone</text>
</a>
</g>
</g>
<!-- Node636&#45;&gt;Node637 -->
<g id="edge18" class="edge">
<title>Node636&#45;&gt;Node637</title>
<path fill="none" stroke="#191970" d="M735.0418,-667.5C754.7036,-667.5 776.3528,-667.5 796.4082,-667.5"/>
<polygon fill="#191970" stroke="#191970" points="796.4195,-671.0001 806.4195,-667.5 796.4194,-664.0001 796.4195,-671.0001"/>
</g>
<!-- Node639&#45;&gt;Node626 -->
<g id="edge21" class="edge">
<title>Node639&#45;&gt;Node626</title>
<path fill="none" stroke="#191970" d="M531.7223,-275.0565C597.4843,-296.2007 755.3292,-346.9519 829.382,-370.7618"/>
<polygon fill="#191970" stroke="#191970" points="828.6654,-374.2078 839.2568,-373.9368 830.8081,-367.5438 828.6654,-374.2078"/>
</g>
<!-- Node639&#45;&gt;Node629 -->
<g id="edge30" class="edge">
<title>Node639&#45;&gt;Node629</title>
<path fill="none" stroke="#191970" d="M468.7702,-275.0223C455.4893,-277.2359 439.7109,-279.3091 424.3175,-280.9193"/>
<polygon fill="#191970" stroke="#191970" points="423.8962,-277.4437 414.2875,-281.9073 424.5825,-284.41 423.8962,-277.4437"/>
</g>
<!-- Node639&#45;&gt;Node631 -->
<g id="edge31" class="edge">
<title>Node639&#45;&gt;Node631</title>
<path fill="none" stroke="#191970" d="M512.7984,-275.0538C528.8342,-288.9224 560.257,-314.8936 590,-332.5 672.6611,-381.4312 778.1022,-423.2243 832.6492,-443.4652"/>
<polygon fill="#191970" stroke="#191970" points="831.6316,-446.8202 842.2251,-446.9907 834.0501,-440.2512 831.6316,-446.8202"/>
</g>
<!-- Node639&#45;&gt;Node638 -->
<g id="edge32" class="edge">
<title>Node639&#45;&gt;Node638</title>
<path fill="none" stroke="#191970" d="M554.3743,-265.95C604.2221,-266.6747 681.3084,-268.5659 748,-273.5 766.1546,-274.8432 785.7817,-276.866 803.8382,-278.9596"/>
<polygon fill="#191970" stroke="#191970" points="803.6333,-282.4598 813.9757,-280.1609 804.4571,-275.5084 803.6333,-282.4598"/>
</g>
<!-- Node639&#45;&gt;Node640 -->
<g id="edge22" class="edge">
<title>Node639&#45;&gt;Node640</title>
<path fill="none" stroke="#191970" d="M511.0457,-255.6595C521.5913,-244.0914 539.434,-224.2197 554,-206.5 570.7088,-186.1736 568.3737,-174.4882 590,-159.5 596.3785,-155.0794 603.5925,-151.4551 611.0033,-148.4881"/>
<polygon fill="#191970" stroke="#191970" points="612.2349,-151.7646 620.4474,-145.0709 609.8532,-145.1822 612.2349,-151.7646"/>
</g>
<!-- Node641 -->
<g id="node18" class="node">
<title>Node641</title>
<g id="a_node18"><a xlink:href="structchig_1_1NodeType.html#afc4ee5b526c87f79a4b4e2a902e209a8" target="_top" xlink:title="Get the execution outputs for the node. ">
<polygon fill="#ffffff" stroke="#000000" points="789,-145 789,-164 949,-164 949,-145 789,-145"/>
<text text-anchor="middle" x="869" y="-152" font-family="Helvetica,sans-Serif" font-size="10.00" fill="#000000">chig::NodeType::execOutputs</text>
</a>
</g>
</g>
<!-- Node639&#45;&gt;Node641 -->
<g id="edge29" class="edge">
<title>Node639&#45;&gt;Node641</title>
<path fill="none" stroke="#191970" d="M510.0964,-255.9615C524.39,-239.8434 555.8333,-207.51 590,-192.5 649.4086,-166.4009 722.219,-157.1507 778.5612,-154.2935"/>
<polygon fill="#191970" stroke="#191970" points="779.0494,-157.7753 788.8829,-153.8318 778.7365,-150.7823 779.0494,-157.7753"/>
</g>
<!-- Node643 -->
<g id="node20" class="node">
<title>Node643</title>
<g id="a_node20"><a xlink:href="structchig_1_1NodeType.html#ad5ef2ca8fec103e87c31ed39564fa050" target="_top" xlink:title="Get the execution inputs for the node. ">
<polygon fill="#ffffff" stroke="#000000" points="593,-202 593,-221 745,-221 745,-202 593,-202"/>
<text text-anchor="middle" x="669" y="-209" font-family="Helvetica,sans-Serif" font-size="10.00" fill="#000000">chig::NodeType::execInputs</text>
</a>
</g>
</g>
<!-- Node639&#45;&gt;Node643 -->
<g id="edge28" class="edge">
<title>Node639&#45;&gt;Node643</title>
<path fill="none" stroke="#191970" d="M529.2723,-255.9386C546.6128,-249.9248 569.567,-242.0846 590,-235.5 601.9379,-231.653 614.9443,-227.632 626.8942,-224.0053"/>
<polygon fill="#191970" stroke="#191970" points="628.0751,-227.3049 636.6369,-221.0642 626.052,-220.6036 628.0751,-227.3049"/>
</g>
<!-- Node640&#45;&gt;Node626 -->
<g id="edge23" class="edge">
<title>Node640&#45;&gt;Node626</title>
<path fill="none" stroke="#191970" d="M689.077,-145.1516C707.0244,-154.7665 732.7733,-171.1611 748,-192.5 780.0954,-237.4791 753.6772,-265.3073 784,-311.5 799.5753,-335.2269 825.2273,-355.412 844.284,-368.3185"/>
<polygon fill="#191970" stroke="#191970" points="842.4941,-371.3302 852.7756,-373.8881 846.3333,-365.4769 842.4941,-371.3302"/>
</g>
<!-- Node640&#45;&gt;Node631 -->
<g id="edge26" class="edge">
<title>Node640&#45;&gt;Node631</title>
<path fill="none" stroke="#191970" d="M690.4234,-145.0946C708.7605,-154.4736 734.3037,-170.5457 748,-192.5 798.122,-272.8424 731.5279,-323.6724 784,-402.5 795.934,-420.4282 816.0649,-433.6062 833.7405,-442.4542"/>
<polygon fill="#191970" stroke="#191970" points="832.7018,-445.8337 843.24,-446.927 835.6837,-439.5006 832.7018,-445.8337"/>
</g>
<!-- Node640&#45;&gt;Node638 -->
<g id="edge27" class="edge">
<title>Node640&#45;&gt;Node638</title>
<path fill="none" stroke="#191970" d="M682.5403,-145.0176C698.3716,-156.2034 725.3004,-175.4109 748,-192.5 780.8294,-217.2151 817.9042,-246.5376 842.2628,-266.0018"/>
<polygon fill="#191970" stroke="#191970" points="840.3264,-268.935 850.3206,-272.4516 844.7008,-263.4701 840.3264,-268.935"/>
</g>
<!-- Node640&#45;&gt;Node641 -->
<g id="edge24" class="edge">
<title>Node640&#45;&gt;Node641</title>
<path fill="none" stroke="#191970" d="M728.7357,-141.1749C744.3683,-142.66 761.5768,-144.2948 778.4252,-145.8954"/>
<polygon fill="#191970" stroke="#191970" points="778.5657,-149.4244 788.852,-146.8859 779.2278,-142.4558 778.5657,-149.4244"/>
</g>
<!-- Node640&#45;&gt;Node642 -->
<g id="edge25" class="edge">
<title>Node640&#45;&gt;Node642</title>
<path fill="none" stroke="#191970" d="M719.2103,-125.96C746.4326,-120.7878 780.2639,-114.3599 808.8829,-108.9222"/>
<polygon fill="#191970" stroke="#191970" points="809.5981,-112.3491 818.7691,-107.0439 808.2915,-105.4721 809.5981,-112.3491"/>
</g>
</g>
</svg>
