<?xml version="1.0" encoding="UTF-8" standalone="no"?>
<!DOCTYPE svg PUBLIC "-//W3C//DTD SVG 1.1//EN"
 "http://www.w3.org/Graphics/SVG/1.1/DTD/svg11.dtd">
<!-- Generated by graphviz version 2.40.1 (20161225.0304)
 -->
<!-- Title: chig::JsonModule::saveToDisk Pages: 1 -->
<svg width="368pt" height="66pt"
 viewBox="0.00 0.00 368.00 66.00" xmlns="http://www.w3.org/2000/svg" xmlns:xlink="http://www.w3.org/1999/xlink">
<g id="graph0" class="graph" transform="scale(1 1) rotate(0) translate(4 62)">
<title>chig::JsonModule::saveToDisk</title>
<polygon fill="#ffffff" stroke="transparent" points="-4,4 -4,-62 364,-62 364,4 -4,4"/>
<!-- Node170 -->
<g id="node1" class="node">
<title>Node170</title>
<polygon fill="#bfbfbf" stroke="#000000" points="0,-19.5 0,-38.5 161,-38.5 161,-19.5 0,-19.5"/>
<text text-anchor="middle" x="80.5" y="-26.5" font-family="Helvetica,sans-Serif" font-size="10.00" fill="#000000">chig::JsonModule::saveToDisk</text>
</g>
<!-- Node171 -->
<g id="node2" class="node">
<title>Node171</title>
<g id="a_node2"><a xlink:href="structchig_1_1Context.html#a9c11bfd47be5c451906840f293fa82c2" target="_top" xlink:title="chig::Context::newJsonModule">
<polygon fill="#ffffff" stroke="#000000" points="197,-38.5 197,-57.5 360,-57.5 360,-38.5 197,-38.5"/>
<text text-anchor="middle" x="278.5" y="-45.5" font-family="Helvetica,sans-Serif" font-size="10.00" fill="#000000">chig::Context::newJsonModule</text>
</a>
</g>
</g>
<!-- Node170&#45;&gt;Node171 -->
<g id="edge1" class="edge">
<title>Node170&#45;&gt;Node171</title>
<path fill="none" stroke="#191970" d="M171.0414,-37.6883C179.6126,-38.5108 188.2691,-39.3415 196.7512,-40.1554"/>
<polygon fill="#191970" stroke="#191970" points="171.3228,-34.1993 161.0342,-36.728 170.6541,-41.1673 171.3228,-34.1993"/>
</g>
<!-- Node172 -->
<g id="node3" class="node">
<title>Node172</title>
<g id="a_node3"><a xlink:href="structchig_1_1JsonModule.html#a51d5244f14c8b1e94cdd3985e3ae3db3" target="_top" xlink:title="Get the possible DataType names. ">
<polygon fill="#ffffff" stroke="#000000" points="198,-.5 198,-19.5 359,-19.5 359,-.5 198,-.5"/>
<text text-anchor="middle" x="278.5" y="-7.5" font-family="Helvetica,sans-Serif" font-size="10.00" fill="#000000">chig::JsonModule::typeNames</text>
</a>
</g>
</g>
<!-- Node170&#45;&gt;Node172 -->
<g id="edge2" class="edge">
<title>Node170&#45;&gt;Node172</title>
<path fill="none" stroke="#191970" d="M171.0287,-20.3129C179.9293,-19.4588 188.9219,-18.5959 197.7159,-17.752"/>
<polygon fill="#191970" stroke="#191970" points="170.6541,-16.8327 161.0342,-21.272 171.3228,-23.8007 170.6541,-16.8327"/>
</g>
</g>
</svg>
