<?xml version="1.0" encoding="UTF-8" standalone="no"?>
<!DOCTYPE svg PUBLIC "-//W3C//DTD SVG 1.1//EN"
 "http://www.w3.org/Graphics/SVG/1.1/DTD/svg11.dtd">
<!-- Generated by graphviz version 2.40.1 (20161225.0304)
 -->
<!-- Title: chig::NodeType::qualifiedName Pages: 1 -->
<svg width="2023pt" height="290pt"
 viewBox="0.00 0.00 2023.00 290.00" xmlns="http://www.w3.org/2000/svg" xmlns:xlink="http://www.w3.org/1999/xlink">
<g id="graph0" class="graph" transform="scale(1 1) rotate(0) translate(4 286)">
<title>chig::NodeType::qualifiedName</title>
<polygon fill="#ffffff" stroke="transparent" points="-4,4 -4,-286 2019,-286 2019,4 -4,4"/>
<!-- Node211 -->
<g id="node1" class="node">
<title>Node211</title>
<polygon fill="#bfbfbf" stroke="#000000" points="0,-164 0,-183 152,-183 152,-164 0,-164"/>
<text text-anchor="middle" x="76" y="-171" font-family="Helvetica,sans-Serif" font-size="10.00" fill="#000000">chig::NodeType::qualifiedName</text>
</g>
<!-- Node212 -->
<g id="node2" class="node">
<title>Node212</title>
<g id="a_node2"><a xlink:href="namespacechig.html#ad3c2fc880f6843f9a8a0f5ee0d62249d" target="_top" xlink:title="Connects two nodes&#39; data connections. ">
<polygon fill="#ffffff" stroke="#000000" points="223.5,-164 223.5,-183 318.5,-183 318.5,-164 223.5,-164"/>
<text text-anchor="middle" x="271" y="-171" font-family="Helvetica,sans-Serif" font-size="10.00" fill="#000000">chig::connectData</text>
</a>
</g>
</g>
<!-- Node211&#45;&gt;Node212 -->
<g id="edge1" class="edge">
<title>Node211&#45;&gt;Node212</title>
<path fill="none" stroke="#191970" d="M162.4139,-173.5C183.3064,-173.5 204.8869,-173.5 223.2508,-173.5"/>
<polygon fill="#191970" stroke="#191970" points="162.2299,-170.0001 152.2299,-173.5 162.2299,-177.0001 162.2299,-170.0001"/>
</g>
<!-- Node214 -->
<g id="node4" class="node">
<title>Node214</title>
<g id="a_node4"><a xlink:href="namespacechig.html#a8a2e0029b591b2c20b39d570753f123f" target="_top" xlink:title="Connects two nodes&#39; exec connections. ">
<polygon fill="#ffffff" stroke="#000000" points="545,-120 545,-139 643,-139 643,-120 545,-120"/>
<text text-anchor="middle" x="594" y="-127" font-family="Helvetica,sans-Serif" font-size="10.00" fill="#000000">chig::connectExec</text>
</a>
</g>
</g>
<!-- Node211&#45;&gt;Node214 -->
<g id="edge26" class="edge">
<title>Node211&#45;&gt;Node214</title>
<path fill="none" stroke="#191970" d="M127.7786,-161.8043C189.7392,-148.4591 296.8099,-127.4548 390,-119.5 439.5974,-115.2663 452.2951,-116.8066 502,-119.5 515.9572,-120.2563 531.0533,-121.6535 544.9022,-123.1686"/>
<polygon fill="#191970" stroke="#191970" points="126.8896,-158.4158 117.8602,-163.9583 128.3752,-165.2563 126.8896,-158.4158"/>
</g>
<!-- Node224 -->
<g id="node14" class="node">
<title>Node224</title>
<g id="a_node14"><a xlink:href="namespacechig.html#a26aa6586df79345493de9fc130291c18" target="_top" xlink:title="Disconnect a data connection. ">
<polygon fill="#ffffff" stroke="#000000" points="540,-208 540,-227 648,-227 648,-208 540,-208"/>
<text text-anchor="middle" x="594" y="-215" font-family="Helvetica,sans-Serif" font-size="10.00" fill="#000000">chig::disconnectData</text>
</a>
</g>
</g>
<!-- Node211&#45;&gt;Node224 -->
<g id="edge27" class="edge">
<title>Node211&#45;&gt;Node224</title>
<path fill="none" stroke="#191970" d="M98.1425,-188.7626C119.8923,-202.7578 154.5846,-222.486 188,-230.5 314.6971,-260.8855 469.9783,-240.6431 546.5999,-227.0217"/>
<polygon fill="#191970" stroke="#191970" points="99.9303,-185.7491 89.655,-183.1666 96.0771,-191.5932 99.9303,-185.7491"/>
</g>
<!-- Node231 -->
<g id="node21" class="node">
<title>Node231</title>
<g id="a_node21"><a xlink:href="namespacechig.html#ad24a330508033631ef29b2f6e5cf6210" target="_top" xlink:title="Disconnect a exec connection. ">
<polygon fill="#ffffff" stroke="#000000" points="216,-202 216,-221 326,-221 326,-202 216,-202"/>
<text text-anchor="middle" x="271" y="-209" font-family="Helvetica,sans-Serif" font-size="10.00" fill="#000000">chig::disconnectExec</text>
</a>
</g>
</g>
<!-- Node211&#45;&gt;Node231 -->
<g id="edge28" class="edge">
<title>Node211&#45;&gt;Node231</title>
<path fill="none" stroke="#191970" d="M134.9588,-184.9894C162.782,-190.4114 195.5957,-196.8058 222.0248,-201.9561"/>
<polygon fill="#191970" stroke="#191970" points="135.4399,-181.5174 124.955,-183.04 134.1009,-188.3882 135.4399,-181.5174"/>
</g>
<!-- Node232 -->
<g id="node22" class="node">
<title>Node232</title>
<g id="a_node22"><a xlink:href="namespacechig.html#ae2ff27777b91f651f86d9a8e8ef0b986" target="_top" xlink:title="Make sure that connections connect back and that they have the same types. ">
<polygon fill="#ffffff" stroke="#000000" points="188,-16.5 188,-46.5 354,-46.5 354,-16.5 188,-16.5"/>
<text text-anchor="start" x="196" y="-34.5" font-family="Helvetica,sans-Serif" font-size="10.00" fill="#000000">chig::validateFunctionConnections</text>
<text text-anchor="middle" x="271" y="-23.5" font-family="Helvetica,sans-Serif" font-size="10.00" fill="#000000">AreTwoWay</text>
</a>
</g>
</g>
<!-- Node211&#45;&gt;Node232 -->
<g id="edge33" class="edge">
<title>Node211&#45;&gt;Node232</title>
<path fill="none" stroke="#191970" d="M93.2291,-156.7779C114.4795,-136.628 152.1967,-102.3827 188,-77.5 204.5047,-66.0295 224.1287,-55.0447 240.1504,-46.6877"/>
<polygon fill="#191970" stroke="#191970" points="90.7357,-154.3196 85.9293,-163.7615 95.5746,-159.3778 90.7357,-154.3196"/>
</g>
<!-- Node213 -->
<g id="node3" class="node">
<title>Node213</title>
<g id="a_node3"><a xlink:href="structchig_1_1NodeInstance.html#ac06ee5988ee5f130088fee83a550f4d2" target="_top" xlink:title="Get the containing GraphFunction. ">
<polygon fill="#ffffff" stroke="#000000" points="395.5,-158.5 395.5,-188.5 496.5,-188.5 496.5,-158.5 395.5,-158.5"/>
<text text-anchor="start" x="403.5" y="-176.5" font-family="Helvetica,sans-Serif" font-size="10.00" fill="#000000">chig::NodeInstance</text>
<text text-anchor="middle" x="446" y="-165.5" font-family="Helvetica,sans-Serif" font-size="10.00" fill="#000000">::function</text>
</a>
</g>
</g>
<!-- Node212&#45;&gt;Node213 -->
<g id="edge2" class="edge">
<title>Node212&#45;&gt;Node213</title>
<path fill="none" stroke="#191970" d="M328.8276,-167.1075C350.375,-166.5689 374.6455,-166.6389 395.4855,-167.3174"/>
<polygon fill="#191970" stroke="#191970" points="328.7095,-163.6094 318.8195,-167.4092 328.9205,-170.6062 328.7095,-163.6094"/>
</g>
<!-- Node215 -->
<g id="node5" class="node">
<title>Node215</title>
<g id="a_node5"><a xlink:href="namespacechig.html#a62056798e67720d435705b99f7e16cd0" target="_top" xlink:title="Load a GraphFunction–must already exist (use createGraphFunctionDeclarationFromJson) ...">
<polygon fill="#ffffff" stroke="#000000" points="686,-120 686,-139 820,-139 820,-120 686,-120"/>
<text text-anchor="middle" x="753" y="-127" font-family="Helvetica,sans-Serif" font-size="10.00" fill="#000000">chig::jsonToGraphFunction</text>
</a>
</g>
</g>
<!-- Node212&#45;&gt;Node215 -->
<g id="edge25" class="edge">
<title>Node212&#45;&gt;Node215</title>
<path fill="none" stroke="#191970" d="M296.1578,-158.7952C319.5924,-145.9098 355.9397,-127.9567 390,-119.5 502.2176,-91.6379 534.8558,-99.9687 650,-110.5 670.281,-112.3549 692.531,-116.2235 711.1452,-119.9888"/>
<polygon fill="#191970" stroke="#191970" points="294.2555,-155.8492 287.2467,-163.7945 297.6804,-161.9541 294.2555,-155.8492"/>
</g>
<!-- Node213&#45;&gt;Node212 -->
<g id="edge3" class="edge">
<title>Node213&#45;&gt;Node212</title>
<path fill="none" stroke="#191970" d="M385.3504,-179.9592C363.5782,-180.4449 339.35,-180.3221 318.8195,-179.5908"/>
<polygon fill="#191970" stroke="#191970" points="385.5847,-183.4542 395.4855,-179.6826 385.3937,-176.4568 385.5847,-183.4542"/>
</g>
<!-- Node213&#45;&gt;Node214 -->
<g id="edge4" class="edge">
<title>Node213&#45;&gt;Node214</title>
<path fill="none" stroke="#191970" d="M487.3043,-155.0938C505.1544,-149.0601 526.1813,-142.7176 544.829,-137.7181"/>
<polygon fill="#191970" stroke="#191970" points="486.0532,-151.8231 477.7497,-158.4036 488.3445,-158.4375 486.0532,-151.8231"/>
</g>
<!-- Node213&#45;&gt;Node224 -->
<g id="edge15" class="edge">
<title>Node213&#45;&gt;Node224</title>
<path fill="none" stroke="#191970" d="M506.1897,-184.7498C531.7837,-191.9634 559.6628,-200.9673 576.9875,-207.9446"/>
<polygon fill="#191970" stroke="#191970" points="507.0901,-181.3675 496.5193,-182.0808 505.2277,-188.1152 507.0901,-181.3675"/>
</g>
<!-- Node214&#45;&gt;Node213 -->
<g id="edge5" class="edge">
<title>Node214&#45;&gt;Node213</title>
<path fill="none" stroke="#191970" d="M567.46,-142.7119C547.7741,-149.9614 520.3365,-158.4908 496.5193,-164.9192"/>
<polygon fill="#191970" stroke="#191970" points="568.9055,-145.9061 576.9875,-139.0554 566.3974,-139.3708 568.9055,-145.9061"/>
</g>
<!-- Node214&#45;&gt;Node215 -->
<g id="edge6" class="edge">
<title>Node214&#45;&gt;Node215</title>
<path fill="none" stroke="#191970" d="M653.0305,-129.5C663.6866,-129.5 674.8691,-129.5 685.7389,-129.5"/>
<polygon fill="#191970" stroke="#191970" points="653.0027,-126.0001 643.0026,-129.5 653.0026,-133.0001 653.0027,-126.0001"/>
</g>
<!-- Node216 -->
<g id="node6" class="node">
<title>Node216</title>
<g id="a_node6"><a xlink:href="namespacechig.html#a3b1bc50c9d7b3cdb17ffcb3ad602f7ab" target="_top" xlink:title="Load a GraphModule from json. ">
<polygon fill="#ffffff" stroke="#000000" points="856,-126 856,-145 984,-145 984,-126 856,-126"/>
<text text-anchor="middle" x="920" y="-133" font-family="Helvetica,sans-Serif" font-size="10.00" fill="#000000">chig::jsonToGraphModule</text>
</a>
</g>
</g>
<!-- Node215&#45;&gt;Node216 -->
<g id="edge7" class="edge">
<title>Node215&#45;&gt;Node216</title>
<path fill="none" stroke="#191970" d="M830.6566,-132.2901C839.0806,-132.5927 847.5843,-132.8982 855.8225,-133.1942"/>
<polygon fill="#191970" stroke="#191970" points="830.5632,-128.7845 820.4439,-131.9231 830.3118,-135.78 830.5632,-128.7845"/>
</g>
<!-- Node217 -->
<g id="node7" class="node">
<title>Node217</title>
<g id="a_node7"><a xlink:href="structchig_1_1Context.html#a077f8ef8c0dd541ec2e2d64bcd8f9fc0" target="_top" xlink:title="Load a module from JSON – avoid this use the string overload. ">
<polygon fill="#ffffff" stroke="#000000" points="1020,-132.5 1020,-162.5 1148,-162.5 1148,-132.5 1020,-132.5"/>
<text text-anchor="start" x="1028" y="-150.5" font-family="Helvetica,sans-Serif" font-size="10.00" fill="#000000">chig::Context::addModule</text>
<text text-anchor="middle" x="1084" y="-139.5" font-family="Helvetica,sans-Serif" font-size="10.00" fill="#000000">FromJson</text>
</a>
</g>
</g>
<!-- Node216&#45;&gt;Node217 -->
<g id="edge8" class="edge">
<title>Node216&#45;&gt;Node217</title>
<path fill="none" stroke="#191970" d="M994.5641,-140.9559C1003.0037,-141.5734 1011.5492,-142.1987 1019.8391,-142.8053"/>
<polygon fill="#191970" stroke="#191970" points="994.5752,-137.4475 984.3464,-140.2083 994.0643,-144.4288 994.5752,-137.4475"/>
</g>
<!-- Node218 -->
<g id="node8" class="node">
<title>Node218</title>
<g id="a_node8"><a xlink:href="structchig_1_1Context.html#a75ab64b58e168998761ed6ebd5e493b2" target="_top" xlink:title="Load a module from disk. ">
<polygon fill="#ffffff" stroke="#000000" points="1184,-162 1184,-181 1314,-181 1314,-162 1184,-162"/>
<text text-anchor="middle" x="1249" y="-169" font-family="Helvetica,sans-Serif" font-size="10.00" fill="#000000">chig::Context::loadModule</text>
</a>
</g>
</g>
<!-- Node217&#45;&gt;Node218 -->
<g id="edge9" class="edge">
<title>Node217&#45;&gt;Node218</title>
<path fill="none" stroke="#191970" d="M1158.2141,-158.2948C1166.7544,-159.537 1175.4143,-160.7966 1183.8228,-162.0197"/>
<polygon fill="#191970" stroke="#191970" points="1158.6655,-154.8237 1148.2658,-156.8477 1157.6578,-161.7508 1158.6655,-154.8237"/>
</g>
<!-- Node219 -->
<g id="node9" class="node">
<title>Node219</title>
<g id="a_node9"><a xlink:href="structchig_1_1ChigModule.html#ad5feee65f261f3777edddd027eb89400" target="_top" xlink:title="Add a dependency to the module Loads the module from context() if it isn&#39;t already loaded...">
<polygon fill="#ffffff" stroke="#000000" points="1350,-163 1350,-182 1517,-182 1517,-163 1350,-163"/>
<text text-anchor="middle" x="1433.5" y="-170" font-family="Helvetica,sans-Serif" font-size="10.00" fill="#000000">chig::ChigModule::addDependency</text>
</a>
</g>
</g>
<!-- Node218&#45;&gt;Node219 -->
<g id="edge10" class="edge">
<title>Node218&#45;&gt;Node219</title>
<path fill="none" stroke="#191970" d="M1324.2627,-171.9079C1332.734,-171.9538 1341.4033,-172.0008 1349.9713,-172.0473"/>
<polygon fill="#191970" stroke="#191970" points="1324.0667,-168.4069 1314.0478,-171.8526 1324.0286,-175.4068 1324.0667,-168.4069"/>
</g>
<!-- Node220 -->
<g id="node10" class="node">
<title>Node220</title>
<g id="a_node10"><a xlink:href="structchig_1_1ChigModule.html#a7f239dc07b0a4d74d6907da6f25127dc" target="_top" xlink:title="Get the dependencies. ">
<polygon fill="#ffffff" stroke="#000000" points="1553,-163 1553,-182 1711,-182 1711,-163 1553,-163"/>
<text text-anchor="middle" x="1632" y="-170" font-family="Helvetica,sans-Serif" font-size="10.00" fill="#000000">chig::ChigModule::dependencies</text>
</a>
</g>
</g>
<!-- Node219&#45;&gt;Node220 -->
<g id="edge11" class="edge">
<title>Node219&#45;&gt;Node220</title>
<path fill="none" stroke="#191970" d="M1527.1763,-172.5C1535.7894,-172.5 1544.4588,-172.5 1552.9237,-172.5"/>
<polygon fill="#191970" stroke="#191970" points="1527.1066,-169.0001 1517.1066,-172.5 1527.1065,-176.0001 1527.1066,-169.0001"/>
</g>
<!-- Node223 -->
<g id="node13" class="node">
<title>Node223</title>
<g id="a_node13"><a xlink:href="structchig_1_1GraphModule.html#a65458343d0344b6b806f9b0b780b32f4" target="_top" xlink:title="Construct a GraphModule. ">
<polygon fill="#ffffff" stroke="#000000" points="1580,-201.5 1580,-231.5 1684,-231.5 1684,-201.5 1580,-201.5"/>
<text text-anchor="start" x="1588" y="-219.5" font-family="Helvetica,sans-Serif" font-size="10.00" fill="#000000">chig::GraphModule::</text>
<text text-anchor="middle" x="1632" y="-208.5" font-family="Helvetica,sans-Serif" font-size="10.00" fill="#000000">GraphModule</text>
</a>
</g>
</g>
<!-- Node219&#45;&gt;Node223 -->
<g id="edge14" class="edge">
<title>Node219&#45;&gt;Node223</title>
<path fill="none" stroke="#191970" d="M1486.4943,-184.2468C1515.4058,-190.6554 1551.0626,-198.5592 1579.8424,-204.9386"/>
<polygon fill="#191970" stroke="#191970" points="1487.092,-180.7945 1476.5715,-182.0473 1485.5771,-187.6286 1487.092,-180.7945"/>
</g>
<!-- Node221 -->
<g id="node11" class="node">
<title>Node221</title>
<g id="a_node11"><a xlink:href="namespacechig.html#aaef3bb08f472ae32b2d3b292e69a007a" target="_top" xlink:title="Serialize a JsonModule to json. ">
<polygon fill="#ffffff" stroke="#000000" points="1747,-207 1747,-226 1875,-226 1875,-207 1747,-207"/>
<text text-anchor="middle" x="1811" y="-214" font-family="Helvetica,sans-Serif" font-size="10.00" fill="#000000">chig::graphModuleToJson</text>
</a>
</g>
</g>
<!-- Node220&#45;&gt;Node221 -->
<g id="edge12" class="edge">
<title>Node220&#45;&gt;Node221</title>
<path fill="none" stroke="#191970" d="M1680.692,-184.469C1709.4638,-191.5414 1745.3949,-200.3736 1772.2355,-206.9713"/>
<polygon fill="#191970" stroke="#191970" points="1681.3868,-181.0356 1670.8403,-182.0473 1679.7158,-187.8333 1681.3868,-181.0356"/>
</g>
<!-- Node222 -->
<g id="node12" class="node">
<title>Node222</title>
<g id="a_node12"><a xlink:href="structchig_1_1GraphModule.html#accb1a64da697a29e28d78a9a09bd52ff" target="_top" xlink:title="Serialize to disk in the context. ">
<polygon fill="#ffffff" stroke="#000000" points="1911,-201.5 1911,-231.5 2015,-231.5 2015,-201.5 1911,-201.5"/>
<text text-anchor="start" x="1919" y="-219.5" font-family="Helvetica,sans-Serif" font-size="10.00" fill="#000000">chig::GraphModule::</text>
<text text-anchor="middle" x="1963" y="-208.5" font-family="Helvetica,sans-Serif" font-size="10.00" fill="#000000">saveToDisk</text>
</a>
</g>
</g>
<!-- Node221&#45;&gt;Node222 -->
<g id="edge13" class="edge">
<title>Node221&#45;&gt;Node222</title>
<path fill="none" stroke="#191970" d="M1885.0838,-216.5C1893.6912,-216.5 1902.3313,-216.5 1910.5622,-216.5"/>
<polygon fill="#191970" stroke="#191970" points="1885.0212,-213.0001 1875.0211,-216.5 1885.0211,-220.0001 1885.0212,-213.0001"/>
</g>
<!-- Node224&#45;&gt;Node212 -->
<g id="edge16" class="edge">
<title>Node224&#45;&gt;Node212</title>
<path fill="none" stroke="#191970" d="M529.4645,-213.3834C489.2189,-210.3481 436.4284,-205.5156 390,-198.5 363.386,-194.4785 333.764,-188.2615 310.7319,-183.0335"/>
<polygon fill="#191970" stroke="#191970" points="529.4468,-216.8915 539.6769,-214.1355 529.961,-209.9104 529.4468,-216.8915"/>
</g>
<!-- Node224&#45;&gt;Node213 -->
<g id="edge17" class="edge">
<title>Node224&#45;&gt;Node213</title>
<path fill="none" stroke="#191970" d="M530.2026,-205.2259C512.0608,-200.0375 493.085,-194.0509 477.7497,-188.5964"/>
<polygon fill="#191970" stroke="#191970" points="529.3037,-208.6087 539.8773,-207.9382 531.1934,-201.8686 529.3037,-208.6087"/>
</g>
<!-- Node225 -->
<g id="node15" class="node">
<title>Node225</title>
<g id="a_node15"><a xlink:href="structchig_1_1GraphFunction.html#a398599d8fe1982a3c76462b1b2375a6e" target="_top" xlink:title="Remove a node from the function. ">
<polygon fill="#ffffff" stroke="#000000" points="701,-251.5 701,-281.5 805,-281.5 805,-251.5 701,-251.5"/>
<text text-anchor="start" x="709" y="-269.5" font-family="Helvetica,sans-Serif" font-size="10.00" fill="#000000">chig::GraphFunction</text>
<text text-anchor="middle" x="753" y="-258.5" font-family="Helvetica,sans-Serif" font-size="10.00" fill="#000000">::removeNode</text>
</a>
</g>
</g>
<!-- Node224&#45;&gt;Node225 -->
<g id="edge18" class="edge">
<title>Node224&#45;&gt;Node225</title>
<path fill="none" stroke="#191970" d="M634.6995,-230.0426C655.8864,-236.5719 681.9444,-244.6024 704.2066,-251.463"/>
<polygon fill="#191970" stroke="#191970" points="635.6215,-226.6644 625.0343,-227.064 633.5599,-233.3539 635.6215,-226.6644"/>
</g>
<!-- Node230 -->
<g id="node20" class="node">
<title>Node230</title>
<g id="a_node20"><a xlink:href="structchig_1_1NodeInstance.html#ab7b23fb84fff7176f7a6e62ce3762153" target="_top" xlink:title="Set the type of the node instance. ">
<polygon fill="#ffffff" stroke="#000000" points="702.5,-202.5 702.5,-232.5 803.5,-232.5 803.5,-202.5 702.5,-202.5"/>
<text text-anchor="start" x="710.5" y="-220.5" font-family="Helvetica,sans-Serif" font-size="10.00" fill="#000000">chig::NodeInstance</text>
<text text-anchor="middle" x="753" y="-209.5" font-family="Helvetica,sans-Serif" font-size="10.00" fill="#000000">::setType</text>
</a>
</g>
</g>
<!-- Node224&#45;&gt;Node230 -->
<g id="edge24" class="edge">
<title>Node224&#45;&gt;Node230</title>
<path fill="none" stroke="#191970" d="M658.3088,-217.5C673.0069,-217.5 688.4245,-217.5 702.4499,-217.5"/>
<polygon fill="#191970" stroke="#191970" points="658.2741,-214.0001 648.2741,-217.5 658.274,-221.0001 658.2741,-214.0001"/>
</g>
<!-- Node226 -->
<g id="node16" class="node">
<title>Node226</title>
<g id="a_node16"><a xlink:href="structchig_1_1GraphFunction.html#a79cbfaf26d9a966ae8048c81dc09777e" target="_top" xlink:title="chig::GraphFunction\l::nodes">
<polygon fill="#ffffff" stroke="#000000" points="868,-207.5 868,-237.5 972,-237.5 972,-207.5 868,-207.5"/>
<text text-anchor="start" x="876" y="-225.5" font-family="Helvetica,sans-Serif" font-size="10.00" fill="#000000">chig::GraphFunction</text>
<text text-anchor="middle" x="920" y="-214.5" font-family="Helvetica,sans-Serif" font-size="10.00" fill="#000000">::nodes</text>
</a>
</g>
</g>
<!-- Node225&#45;&gt;Node226 -->
<g id="edge19" class="edge">
<title>Node225&#45;&gt;Node226</title>
<path fill="none" stroke="#191970" d="M815.3721,-250.0666C832.6346,-245.5184 851.1865,-240.6305 867.8042,-236.2522"/>
<polygon fill="#191970" stroke="#191970" points="814.1599,-246.7665 805.3816,-252.6988 815.9434,-253.5355 814.1599,-246.7665"/>
</g>
<!-- Node227 -->
<g id="node17" class="node">
<title>Node227</title>
<g id="a_node17"><a xlink:href="structchig_1_1GraphFunction.html#a1c45651f8ac9b7bf9cebcd11d91763f0" target="_top" xlink:title="Remove a local variable from the function by name. ">
<polygon fill="#ffffff" stroke="#000000" points="1027.5,-248.5 1027.5,-278.5 1140.5,-278.5 1140.5,-248.5 1027.5,-248.5"/>
<text text-anchor="start" x="1035.5" y="-266.5" font-family="Helvetica,sans-Serif" font-size="10.00" fill="#000000">chig::GraphFunction</text>
<text text-anchor="middle" x="1084" y="-255.5" font-family="Helvetica,sans-Serif" font-size="10.00" fill="#000000">::removeLocalVariable</text>
</a>
</g>
</g>
<!-- Node225&#45;&gt;Node227 -->
<g id="edge20" class="edge">
<title>Node225&#45;&gt;Node227</title>
<path fill="none" stroke="#191970" d="M815.3359,-265.935C876.2804,-265.3827 968.2699,-264.5489 1027.2314,-264.0145"/>
<polygon fill="#191970" stroke="#191970" points="815.0507,-262.4374 805.0829,-266.0279 815.1142,-269.4371 815.0507,-262.4374"/>
</g>
<!-- Node228 -->
<g id="node18" class="node">
<title>Node228</title>
<g id="a_node18"><a xlink:href="structchig_1_1GraphFunction.html#a72a81861d1331948804b2a267598ec79" target="_top" xlink:title="Get the local variables. ">
<polygon fill="#ffffff" stroke="#000000" points="1197,-246.5 1197,-276.5 1301,-276.5 1301,-246.5 1197,-246.5"/>
<text text-anchor="start" x="1205" y="-264.5" font-family="Helvetica,sans-Serif" font-size="10.00" fill="#000000">chig::GraphFunction</text>
<text text-anchor="middle" x="1249" y="-253.5" font-family="Helvetica,sans-Serif" font-size="10.00" fill="#000000">::localVariables</text>
</a>
</g>
</g>
<!-- Node227&#45;&gt;Node228 -->
<g id="edge21" class="edge">
<title>Node227&#45;&gt;Node228</title>
<path fill="none" stroke="#191970" d="M1151.1772,-262.6857C1166.3951,-262.5013 1182.3338,-262.3081 1196.8231,-262.1324"/>
<polygon fill="#191970" stroke="#191970" points="1150.7405,-259.1907 1140.7836,-262.8117 1150.8254,-266.1902 1150.7405,-259.1907"/>
</g>
<!-- Node229 -->
<g id="node19" class="node">
<title>Node229</title>
<g id="a_node19"><a xlink:href="namespacechig.html#ad0fd9448ab1cd1d73351fad5967a7b9b" target="_top" xlink:title="Serialize a GraphFunction to json. ">
<polygon fill="#ffffff" stroke="#000000" points="1366.5,-251 1366.5,-270 1500.5,-270 1500.5,-251 1366.5,-251"/>
<text text-anchor="middle" x="1433.5" y="-258" font-family="Helvetica,sans-Serif" font-size="10.00" fill="#000000">chig::graphFunctionToJson</text>
</a>
</g>
</g>
<!-- Node228&#45;&gt;Node229 -->
<g id="edge22" class="edge">
<title>Node228&#45;&gt;Node229</title>
<path fill="none" stroke="#191970" d="M1311.5729,-261.1609C1329.2481,-261.0651 1348.55,-260.9604 1366.4754,-260.8633"/>
<polygon fill="#191970" stroke="#191970" points="1311.3576,-257.6619 1301.3768,-261.2161 1311.3956,-264.6618 1311.3576,-257.6619"/>
</g>
<!-- Node229&#45;&gt;Node221 -->
<g id="edge23" class="edge">
<title>Node229&#45;&gt;Node221</title>
<path fill="none" stroke="#191970" d="M1510.7787,-258.8625C1566.6784,-256.7915 1643.8691,-252.1043 1711,-241.5 1733.9791,-237.8701 1759.4074,-231.48 1778.8718,-226.069"/>
<polygon fill="#191970" stroke="#191970" points="1510.4672,-255.3711 1500.5961,-259.2196 1510.7126,-262.3668 1510.4672,-255.3711"/>
</g>
<!-- Node231&#45;&gt;Node213 -->
<g id="edge30" class="edge">
<title>Node231&#45;&gt;Node213</title>
<path fill="none" stroke="#191970" d="M325.1751,-199.7363C347.5531,-194.877 373.3499,-189.2754 395.346,-184.4991"/>
<polygon fill="#191970" stroke="#191970" points="324.1894,-196.3686 315.1599,-201.911 325.6749,-203.2092 324.1894,-196.3686"/>
</g>
<!-- Node231&#45;&gt;Node214 -->
<g id="edge29" class="edge">
<title>Node231&#45;&gt;Node214</title>
<path fill="none" stroke="#191970" d="M335.6391,-201.1365C342.0792,-198.8151 348.3249,-195.9748 354,-192.5 375.2565,-179.4849 367.9586,-161.1366 390,-149.5 438.1491,-124.0801 501.6123,-121.901 544.886,-124.2626"/>
<polygon fill="#191970" stroke="#191970" points="334.5698,-197.8038 326.1084,-204.1799 336.6992,-204.4721 334.5698,-197.8038"/>
</g>
<!-- Node231&#45;&gt;Node225 -->
<g id="edge31" class="edge">
<title>Node231&#45;&gt;Node225</title>
<path fill="none" stroke="#191970" d="M305.6098,-224.3937C329.0722,-232.5293 360.9772,-242.4274 390,-247.5 499.41,-266.6225 629.9554,-268.4321 700.8618,-267.6956"/>
<polygon fill="#191970" stroke="#191970" points="306.6993,-221.0667 296.1045,-221.0342 304.3666,-227.6666 306.6993,-221.0667"/>
</g>
<!-- Node231&#45;&gt;Node230 -->
<g id="edge32" class="edge">
<title>Node231&#45;&gt;Node230</title>
<path fill="none" stroke="#191970" d="M336.6204,-222.074C412.252,-232.8125 540.2442,-246.5384 650,-236.5 667.2027,-234.9266 685.8219,-231.9045 702.4374,-228.7255"/>
<polygon fill="#191970" stroke="#191970" points="336.7015,-218.5494 326.3033,-220.5814 335.6991,-225.4773 336.7015,-218.5494"/>
</g>
<!-- Node233 -->
<g id="node23" class="node">
<title>Node233</title>
<g id="a_node23"><a xlink:href="namespacechig.html#afccf44a2370371aae836862d9731155e" target="_top" xlink:title="Validate that a function is compilable. ">
<polygon fill="#ffffff" stroke="#000000" points="390,-6 390,-25 502,-25 502,-6 390,-6"/>
<text text-anchor="middle" x="446" y="-13" font-family="Helvetica,sans-Serif" font-size="10.00" fill="#000000">chig::validateFunction</text>
</a>
</g>
</g>
<!-- Node232&#45;&gt;Node233 -->
<g id="edge34" class="edge">
<title>Node232&#45;&gt;Node233</title>
<path fill="none" stroke="#191970" d="M364.2692,-22.9725C372.8825,-22.185 381.421,-21.4044 389.5487,-20.6613"/>
<polygon fill="#191970" stroke="#191970" points="363.7835,-19.5023 354.1437,-23.8983 364.4209,-26.4732 363.7835,-19.5023"/>
</g>
<!-- Node234 -->
<g id="node24" class="node">
<title>Node234</title>
<g id="a_node24"><a xlink:href="namespacechig.html#a4f26546c4bc76c31cc822d0365be0f30" target="_top" xlink:title="Compile the graph to an llvm::Function (usually called from JsonModule::generateModule) ...">
<polygon fill="#ffffff" stroke="#000000" points="538,-6 538,-25 650,-25 650,-6 538,-6"/>
<text text-anchor="middle" x="594" y="-13" font-family="Helvetica,sans-Serif" font-size="10.00" fill="#000000">chig::compileFunction</text>
</a>
</g>
</g>
<!-- Node233&#45;&gt;Node234 -->
<g id="edge35" class="edge">
<title>Node233&#45;&gt;Node234</title>
<path fill="none" stroke="#191970" d="M512.5579,-15.5C520.9836,-15.5 529.5393,-15.5 537.7821,-15.5"/>
<polygon fill="#191970" stroke="#191970" points="512.3747,-12.0001 502.3747,-15.5 512.3746,-19.0001 512.3747,-12.0001"/>
</g>
<!-- Node235 -->
<g id="node25" class="node">
<title>Node235</title>
<g id="a_node25"><a xlink:href="structchig_1_1GraphModule.html#a4c3a1ba833c0bd7e9a3daf0fd42eb6c6" target="_top" xlink:title="Generate a llvm::Module from the module. ">
<polygon fill="#ffffff" stroke="#000000" points="701,-.5 701,-30.5 805,-30.5 805,-.5 701,-.5"/>
<text text-anchor="start" x="709" y="-18.5" font-family="Helvetica,sans-Serif" font-size="10.00" fill="#000000">chig::GraphModule::</text>
<text text-anchor="middle" x="753" y="-7.5" font-family="Helvetica,sans-Serif" font-size="10.00" fill="#000000">generateModule</text>
</a>
</g>
</g>
<!-- Node234&#45;&gt;Node235 -->
<g id="edge36" class="edge">
<title>Node234&#45;&gt;Node235</title>
<path fill="none" stroke="#191970" d="M660.2938,-15.5C673.8495,-15.5 687.9323,-15.5 700.9056,-15.5"/>
<polygon fill="#191970" stroke="#191970" points="660.0575,-12.0001 650.0575,-15.5 660.0574,-19.0001 660.0575,-12.0001"/>
</g>
</g>
</svg>
