<?xml version="1.0" encoding="UTF-8" standalone="no"?>
<!DOCTYPE svg PUBLIC "-//W3C//DTD SVG 1.1//EN"
 "http://www.w3.org/Graphics/SVG/1.1/DTD/svg11.dtd">
<!-- Generated by graphviz version 2.40.1 (20161225.0304)
 -->
<!-- Title: chig::GraphFunction::addDataOutput Pages: 1 -->
<!--zoomable 215 -->
<svg id="main" version="1.1" xmlns="http://www.w3.org/2000/svg" xmlns:xlink="http://www.w3.org/1999/xlink" xml:space="preserve" onload="init(evt)">
<style type="text/css"><![CDATA[
.edge:hover path { stroke: red; }
.edge:hover polygon { stroke: red; fill: red; }
]]></style>
<script type="text/javascript"><![CDATA[
var edges = document.getElementsByTagName('g');
if (edges && edges.length) {
  for (var i=0;i<edges.length;i++) {
    if (edges[i].id.substr(0,4)=='edge') {
      edges[i].setAttribute('class','edge');
    }
  }
}
]]></script>
        <defs>
                <circle id="rim" cx="0" cy="0" r="7"/>
                <circle id="rim2" cx="0" cy="0" r="3.5"/>
                <g id="zoomPlus">
                        <use xlink:href="#rim" fill="#404040">
                                <set attributeName="fill" to="#808080" begin="zoomplus.mouseover" end="zoomplus.mouseout"/>
                        </use>
                        <path d="M-4,0h8M0,-4v8" fill="none" stroke="white" stroke-width="1.5" pointer-events="none"/>
                </g>
                <g id="zoomMin">
                        <use xlink:href="#rim" fill="#404040">
                                <set attributeName="fill" to="#808080" begin="zoomminus.mouseover" end="zoomminus.mouseout"/>
                        </use>
                        <path d="M-4,0h8" fill="none" stroke="white" stroke-width="1.5" pointer-events="none"/>
                </g>
                <g id="dirArrow">
                        <path fill="none" stroke="white" stroke-width="1.5" d="M0,-3.0v7 M-2.5,-0.5L0,-3.0L2.5,-0.5"/>
                </g>
               <g id="resetDef">
                       <use xlink:href="#rim2" fill="#404040">
                               <set attributeName="fill" to="#808080" begin="reset.mouseover" end="reset.mouseout"/>
                       </use>
               </g>
        </defs>

<script type="text/javascript">
var viewWidth = 788;
var viewHeight = 215;
var sectionId = 'dynsection-2';
</script>
<script xlink:href="svgpan.js"/>
<svg id="graph" class="graph">
<g id="viewport">
<title>chig::GraphFunction::addDataOutput</title>
<polygon fill="#ffffff" stroke="transparent" points="-4,4 -4,-211 784,-211 784,4 -4,4"/>
<!-- Node20 -->
<g id="node1" class="node">
<title>Node20</title>
<polygon fill="#bfbfbf" stroke="#000000" points="0,-88.5 0,-118.5 113,-118.5 113,-88.5 0,-88.5"/>
<text text-anchor="start" x="8" y="-106.5" font-family="Helvetica,sans-Serif" font-size="10.00" fill="#000000">chig::GraphFunction</text>
<text text-anchor="middle" x="56.5" y="-95.5" font-family="Helvetica,sans-Serif" font-size="10.00" fill="#000000">::addDataOutput</text>
</g>
<!-- Node21 -->
<g id="node2" class="node">
<title>Node21</title>
<g id="a_node2"><a xlink:href="structchig_1_1GraphFunction.html#ae734c04f29489efeb96227a20e2ada22" target="_top" xlink:title="chig::GraphFunction\l::dataOutputs">
<polygon fill="#ffffff" stroke="#000000" points="149,-88.5 149,-118.5 262,-118.5 262,-88.5 149,-88.5"/>
<text text-anchor="start" x="157" y="-106.5" font-family="Helvetica,sans-Serif" font-size="10.00" fill="#000000">chig::GraphFunction</text>
<text text-anchor="middle" x="205.5" y="-95.5" font-family="Helvetica,sans-Serif" font-size="10.00" fill="#000000">::dataOutputs</text>
</a>
</g>
</g>
<!-- Node20&#45;&gt;Node21 -->
<g id="edge1" class="edge">
<title>Node20&#45;&gt;Node21</title>
<path fill="none" stroke="#191970" d="M123.5076,-103.5C131.9902,-103.5 140.6037,-103.5 148.9022,-103.5"/>
<polygon fill="#191970" stroke="#191970" points="123.2556,-100.0001 113.2556,-103.5 123.2555,-107.0001 123.2556,-100.0001"/>
</g>
<!-- Node22 -->
<g id="node3" class="node">
<title>Node22</title>
<g id="a_node3"><a xlink:href="structchig_1_1GraphFunction.html#af4417b3cb4bb432656d8d929a81a07f8" target="_top" xlink:title="chig::GraphFunction\l::fromJSON">
<polygon fill="#ffffff" stroke="#000000" points="302.5,-176.5 302.5,-206.5 415.5,-206.5 415.5,-176.5 302.5,-176.5"/>
<text text-anchor="start" x="310.5" y="-194.5" font-family="Helvetica,sans-Serif" font-size="10.00" fill="#000000">chig::GraphFunction</text>
<text text-anchor="middle" x="359" y="-183.5" font-family="Helvetica,sans-Serif" font-size="10.00" fill="#000000">::fromJSON</text>
</a>
</g>
</g>
<!-- Node21&#45;&gt;Node22 -->
<g id="edge2" class="edge">
<title>Node21&#45;&gt;Node22</title>
<path fill="none" stroke="#191970" d="M237.0422,-124.4071C254.7014,-135.8239 277.2752,-149.9465 298,-161.5 307.1743,-166.6144 317.3423,-171.7986 326.7043,-176.386"/>
<polygon fill="#191970" stroke="#191970" points="238.5818,-121.2332 228.2914,-118.7115 234.7633,-127.0999 238.5818,-121.2332"/>
</g>
<!-- Node24 -->
<g id="node5" class="node">
<title>Node24</title>
<g id="a_node5"><a xlink:href="structchig_1_1GraphFunction.html#ac808aecb5fec9cd3a2a1f59e18c90eee" target="_top" xlink:title="chig::GraphFunction\l::compile">
<polygon fill="#ffffff" stroke="#000000" points="479.5,-127.5 479.5,-157.5 592.5,-157.5 592.5,-127.5 479.5,-127.5"/>
<text text-anchor="start" x="487.5" y="-145.5" font-family="Helvetica,sans-Serif" font-size="10.00" fill="#000000">chig::GraphFunction</text>
<text text-anchor="middle" x="536" y="-134.5" font-family="Helvetica,sans-Serif" font-size="10.00" fill="#000000">::compile</text>
</a>
</g>
</g>
<!-- Node21&#45;&gt;Node24 -->
<g id="edge4" class="edge">
<title>Node21&#45;&gt;Node24</title>
<path fill="none" stroke="#191970" d="M263.7926,-121.1971C275.0533,-124.062 286.8247,-126.6809 298,-128.5 359.4841,-138.5081 430.9328,-141.5874 479.3801,-142.4258"/>
<polygon fill="#191970" stroke="#191970" points="264.6181,-117.7952 254.0562,-118.63 262.8334,-124.5639 264.6181,-117.7952"/>
</g>
<!-- Node25 -->
<g id="node6" class="node">
<title>Node25</title>
<g id="a_node6"><a xlink:href="structchig_1_1GraphFunction.html#ac7c52122fef0c74d9d0ee04af9a741c4" target="_top" xlink:title="chig::GraphFunction\l::createExitNodeType">
<polygon fill="#ffffff" stroke="#000000" points="298,-39.5 298,-69.5 420,-69.5 420,-39.5 298,-39.5"/>
<text text-anchor="start" x="306" y="-57.5" font-family="Helvetica,sans-Serif" font-size="10.00" fill="#000000">chig::GraphFunction</text>
<text text-anchor="middle" x="359" y="-46.5" font-family="Helvetica,sans-Serif" font-size="10.00" fill="#000000">::createExitNodeType</text>
</a>
</g>
</g>
<!-- Node21&#45;&gt;Node25 -->
<g id="edge5" class="edge">
<title>Node21&#45;&gt;Node25</title>
<path fill="none" stroke="#191970" d="M262.6994,-85.2409C278.8895,-80.0727 296.3232,-74.5076 311.8486,-69.5516"/>
<polygon fill="#191970" stroke="#191970" points="261.2696,-82.0233 252.8076,-88.3986 263.3984,-88.6917 261.2696,-82.0233"/>
</g>
<!-- Node30 -->
<g id="node11" class="node">
<title>Node30</title>
<g id="a_node11"><a xlink:href="structchig_1_1GraphFunction.html#a6aae3374651aca2f0973c81ecae2d848" target="_top" xlink:title="chig::GraphFunction\l::functionType">
<polygon fill="#ffffff" stroke="#000000" points="302.5,-88.5 302.5,-118.5 415.5,-118.5 415.5,-88.5 302.5,-88.5"/>
<text text-anchor="start" x="310.5" y="-106.5" font-family="Helvetica,sans-Serif" font-size="10.00" fill="#000000">chig::GraphFunction</text>
<text text-anchor="middle" x="359" y="-95.5" font-family="Helvetica,sans-Serif" font-size="10.00" fill="#000000">::functionType</text>
</a>
</g>
</g>
<!-- Node21&#45;&gt;Node30 -->
<g id="edge12" class="edge">
<title>Node21&#45;&gt;Node30</title>
<path fill="none" stroke="#191970" d="M272.4654,-103.5C282.3999,-103.5 292.5567,-103.5 302.2554,-103.5"/>
<polygon fill="#191970" stroke="#191970" points="272.2217,-100.0001 262.2216,-103.5 272.2216,-107.0001 272.2217,-100.0001"/>
</g>
<!-- Node23 -->
<g id="node4" class="node">
<title>Node23</title>
<g id="a_node4"><a xlink:href="structchig_1_1JsonModule.html#ae9d14a6f432082a9489d3b5ccf5ae338" target="_top" xlink:title="chig::JsonModule::JsonModule">
<polygon fill="#ffffff" stroke="#000000" points="456,-182 456,-201 616,-201 616,-182 456,-182"/>
<text text-anchor="middle" x="536" y="-189" font-family="Helvetica,sans-Serif" font-size="10.00" fill="#000000">chig::JsonModule::JsonModule</text>
</a>
</g>
</g>
<!-- Node22&#45;&gt;Node23 -->
<g id="edge3" class="edge">
<title>Node22&#45;&gt;Node23</title>
<path fill="none" stroke="#191970" d="M426.0049,-191.5C435.7764,-191.5 445.9202,-191.5 455.9192,-191.5"/>
<polygon fill="#191970" stroke="#191970" points="425.9782,-188.0001 415.9782,-191.5 425.9782,-195.0001 425.9782,-188.0001"/>
</g>
<!-- Node26 -->
<g id="node7" class="node">
<title>Node26</title>
<g id="a_node7"><a xlink:href="structchig_1_1GraphFunction.html#a70b74dd7330f7afb2b3ab38feebd57c5" target="_top" xlink:title="chig::GraphFunction\l::insertNode">
<polygon fill="#ffffff" stroke="#000000" points="479.5,-68.5 479.5,-98.5 592.5,-98.5 592.5,-68.5 479.5,-68.5"/>
<text text-anchor="start" x="487.5" y="-86.5" font-family="Helvetica,sans-Serif" font-size="10.00" fill="#000000">chig::GraphFunction</text>
<text text-anchor="middle" x="536" y="-75.5" font-family="Helvetica,sans-Serif" font-size="10.00" fill="#000000">::insertNode</text>
</a>
</g>
</g>
<!-- Node25&#45;&gt;Node26 -->
<g id="edge6" class="edge">
<title>Node25&#45;&gt;Node26</title>
<path fill="none" stroke="#191970" d="M430.4397,-66.2048C446.7493,-68.877 463.8624,-71.6808 479.4485,-74.2345"/>
<polygon fill="#191970" stroke="#191970" points="430.8436,-62.7244 420.4093,-64.5614 429.7118,-69.6323 430.8436,-62.7244"/>
</g>
<!-- Node29 -->
<g id="node10" class="node">
<title>Node29</title>
<g id="a_node10"><a xlink:href="structchig_1_1GraphFunction.html#a3765dc838314ff13457ac933b043f711" target="_top" xlink:title="chig::GraphFunction\l::modifyDataOutput">
<polygon fill="#ffffff" stroke="#000000" points="479.5,-.5 479.5,-30.5 592.5,-30.5 592.5,-.5 479.5,-.5"/>
<text text-anchor="start" x="487.5" y="-18.5" font-family="Helvetica,sans-Serif" font-size="10.00" fill="#000000">chig::GraphFunction</text>
<text text-anchor="middle" x="536" y="-7.5" font-family="Helvetica,sans-Serif" font-size="10.00" fill="#000000">::modifyDataOutput</text>
</a>
</g>
</g>
<!-- Node25&#45;&gt;Node29 -->
<g id="edge10" class="edge">
<title>Node25&#45;&gt;Node29</title>
<path fill="none" stroke="#191970" d="M430.4397,-38.7591C446.7493,-35.1654 463.8624,-31.3947 479.4485,-27.9605"/>
<polygon fill="#191970" stroke="#191970" points="429.4219,-35.3993 420.4093,-40.9691 430.9282,-42.2353 429.4219,-35.3993"/>
</g>
<!-- Node27 -->
<g id="node8" class="node">
<title>Node27</title>
<g id="a_node8"><a xlink:href="structchig_1_1GraphFunction.html#a449ab966907b5e32dd00d5f6bb1b3ede" target="_top" xlink:title="chig::GraphFunction\l::insertNode">
<polygon fill="#ffffff" stroke="#000000" points="659.5,-117.5 659.5,-147.5 772.5,-147.5 772.5,-117.5 659.5,-117.5"/>
<text text-anchor="start" x="667.5" y="-135.5" font-family="Helvetica,sans-Serif" font-size="10.00" fill="#000000">chig::GraphFunction</text>
<text text-anchor="middle" x="716" y="-124.5" font-family="Helvetica,sans-Serif" font-size="10.00" fill="#000000">::insertNode</text>
</a>
</g>
</g>
<!-- Node26&#45;&gt;Node27 -->
<g id="edge7" class="edge">
<title>Node26&#45;&gt;Node27</title>
<path fill="none" stroke="#191970" d="M601.1985,-101.2485C620.7069,-106.5591 641.9016,-112.3288 660.7085,-117.4484"/>
<polygon fill="#191970" stroke="#191970" points="602.0429,-97.851 591.4747,-98.6014 600.2042,-104.6053 602.0429,-97.851"/>
</g>
<!-- Node28 -->
<g id="node9" class="node">
<title>Node28</title>
<g id="a_node9"><a xlink:href="structchig_1_1GraphFunction.html#a1fd77fbd5bb46690fdc79cd9c6d35917" target="_top" xlink:title="chig::GraphFunction\l::getOrInsertEntryNode">
<polygon fill="#ffffff" stroke="#000000" points="652,-68.5 652,-98.5 780,-98.5 780,-68.5 652,-68.5"/>
<text text-anchor="start" x="660" y="-86.5" font-family="Helvetica,sans-Serif" font-size="10.00" fill="#000000">chig::GraphFunction</text>
<text text-anchor="middle" x="716" y="-75.5" font-family="Helvetica,sans-Serif" font-size="10.00" fill="#000000">::getOrInsertEntryNode</text>
</a>
</g>
</g>
<!-- Node26&#45;&gt;Node28 -->
<g id="edge8" class="edge">
<title>Node26&#45;&gt;Node28</title>
<path fill="none" stroke="#191970" d="M603.2503,-76.9454C619.1777,-76.6663 636.1223,-76.6862 651.9051,-77.0049"/>
<polygon fill="#191970" stroke="#191970" points="602.8737,-73.4528 592.9531,-77.1719 603.0277,-80.4511 602.8737,-73.4528"/>
</g>
<!-- Node28&#45;&gt;Node26 -->
<g id="edge9" class="edge">
<title>Node28&#45;&gt;Node26</title>
<path fill="none" stroke="#191970" d="M641.8515,-90.1561C625.5235,-90.3514 608.4767,-90.2421 592.9531,-89.8281"/>
<polygon fill="#191970" stroke="#191970" points="641.9624,-93.6548 651.9051,-89.9951 641.8503,-86.6557 641.9624,-93.6548"/>
</g>
<!-- Node29&#45;&gt;Node21 -->
<g id="edge11" class="edge">
<title>Node29&#45;&gt;Node21</title>
<path fill="none" stroke="#191970" d="M468.9891,-8.8133C420.004,-6.4246 352.8302,-8.4382 298,-29.5 265.3635,-42.0366 235.2818,-70.5555 218.7538,-88.3018"/>
<polygon fill="#191970" stroke="#191970" points="468.9742,-12.3179 479.1549,-9.3845 469.367,-5.3289 468.9742,-12.3179"/>
</g>
<!-- Node30&#45;&gt;Node24 -->
<g id="edge14" class="edge">
<title>Node30&#45;&gt;Node24</title>
<path fill="none" stroke="#191970" d="M426.1592,-118.2978C443.7232,-122.1678 462.4798,-126.3006 479.4314,-130.0357"/>
<polygon fill="#191970" stroke="#191970" points="426.4971,-114.7884 415.9782,-116.0545 424.9908,-121.6244 426.4971,-114.7884"/>
</g>
<!-- Node30&#45;&gt;Node26 -->
<g id="edge13" class="edge">
<title>Node30&#45;&gt;Node26</title>
<path fill="none" stroke="#191970" d="M426.1592,-95.9114C443.7232,-93.9268 462.4798,-91.8074 479.4314,-89.8919"/>
<polygon fill="#191970" stroke="#191970" points="425.522,-92.461 415.9782,-97.0618 426.308,-99.4168 425.522,-92.461"/>
</g>
</g>
</svg>
        <g id="navigator" transform="translate(0 0)" fill="#404254">
                <rect fill="#f2f5e9" fill-opacity="0.5" stroke="#606060" stroke-width=".5" x="0" y="0" width="60" height="60"/>
                <use id="zoomplus" xlink:href="#zoomPlus" x="17" y="9" onmousedown="handleZoom(evt,'in')"/>
                <use id="zoomminus" xlink:href="#zoomMin" x="42" y="9" onmousedown="handleZoom(evt,'out')"/>
                <use id="reset" xlink:href="#resetDef" x="30" y="36" onmousedown="handleReset()"/>
                <g id="arrowUp" xlink:href="#dirArrow" transform="translate(30 24)" onmousedown="handlePan(0,-1)">
                  <use xlink:href="#rim" fill="#404040">
                        <set attributeName="fill" to="#808080" begin="arrowUp.mouseover" end="arrowUp.mouseout"/>
                  </use>
                  <path fill="none" stroke="white" stroke-width="1.5" d="M0,-3.0v7 M-2.5,-0.5L0,-3.0L2.5,-0.5"/>
                </g>
                <g id="arrowRight" xlink:href="#dirArrow" transform="rotate(90) translate(36 -43)" onmousedown="handlePan(1,0)">
                  <use xlink:href="#rim" fill="#404040">
                        <set attributeName="fill" to="#808080" begin="arrowRight.mouseover" end="arrowRight.mouseout"/>
                  </use>
                  <path fill="none" stroke="white" stroke-width="1.5" d="M0,-3.0v7 M-2.5,-0.5L0,-3.0L2.5,-0.5"/>
                </g>
                <g id="arrowDown" xlink:href="#dirArrow" transform="rotate(180) translate(-30 -48)" onmousedown="handlePan(0,1)">
                  <use xlink:href="#rim" fill="#404040">
                        <set attributeName="fill" to="#808080" begin="arrowDown.mouseover" end="arrowDown.mouseout"/>
                  </use>
                  <path fill="none" stroke="white" stroke-width="1.5" d="M0,-3.0v7 M-2.5,-0.5L0,-3.0L2.5,-0.5"/>
                </g>
                <g id="arrowLeft" xlink:href="#dirArrow" transform="rotate(270) translate(-36 17)" onmousedown="handlePan(-1,0)">
                  <use xlink:href="#rim" fill="#404040">
                        <set attributeName="fill" to="#808080" begin="arrowLeft.mouseover" end="arrowLeft.mouseout"/>
                  </use>
                  <path fill="none" stroke="white" stroke-width="1.5" d="M0,-3.0v7 M-2.5,-0.5L0,-3.0L2.5,-0.5"/>
                </g>
        </g>
        <svg viewBox="0 0 15 15" width="100%" height="30px" preserveAspectRatio="xMaxYMin meet">
         <g id="arrow_out" transform="scale(0.3 0.3)">
          <a xlink:href="structchig_1_1GraphFunction_af76e111d051ead319035f83785b932e2_icgraph_org.svg" target="_base">
           <rect id="button" ry="5" rx="5" y="6" x="6" height="38" width="38"
                fill="#f2f5e9" fill-opacity="0.5" stroke="#606060" stroke-width="1.0"/>
           <path id="arrow"
             d="M 11.500037,31.436501 C 11.940474,20.09759 22.043105,11.32322 32.158766,21.979434 L 37.068811,17.246167 C 37.068811,17.246167 37.088388,32 37.088388,32 L 22.160133,31.978069 C 22.160133,31.978069 26.997745,27.140456 26.997745,27.140456 C 18.528582,18.264221 13.291696,25.230495 11.500037,31.436501 z"
             style="fill:#404040;"/>
          </a>
         </g>
        </svg>
</svg>
