<?xml version="1.0" encoding="UTF-8" standalone="no"?>
<!DOCTYPE svg PUBLIC "-//W3C//DTD SVG 1.1//EN"
 "http://www.w3.org/Graphics/SVG/1.1/DTD/svg11.dtd">
<!-- Generated by graphviz version 2.40.1 (20161225.0304)
 -->
<!-- Title: chig::GraphFunction::insertNode Pages: 1 -->
<svg width="1477pt" height="193pt"
 viewBox="0.00 0.00 1477.00 193.00" xmlns="http://www.w3.org/2000/svg" xmlns:xlink="http://www.w3.org/1999/xlink">
<g id="graph0" class="graph" transform="scale(1 1) rotate(0) translate(4 189)">
<title>chig::GraphFunction::insertNode</title>
<polygon fill="#ffffff" stroke="transparent" points="-4,4 -4,-189 1473,-189 1473,4 -4,4"/>
<!-- Node310 -->
<g id="node1" class="node">
<title>Node310</title>
<polygon fill="#bfbfbf" stroke="#000000" points="0,-88.5 0,-118.5 104,-118.5 104,-88.5 0,-88.5"/>
<text text-anchor="start" x="8" y="-106.5" font-family="Helvetica,sans-Serif" font-size="10.00" fill="#000000">chig::GraphFunction</text>
<text text-anchor="middle" x="52" y="-95.5" font-family="Helvetica,sans-Serif" font-size="10.00" fill="#000000">::insertNode</text>
</g>
<!-- Node311 -->
<g id="node2" class="node">
<title>Node311</title>
<g id="a_node2"><a xlink:href="structchig_1_1GraphFunction.html#a1fd77fbd5bb46690fdc79cd9c6d35917" target="_top" xlink:title="Creates an entry node if it doesn&#39;t already exist, else just return it. ">
<polygon fill="#ffffff" stroke="#000000" points="148.5,-154.5 148.5,-184.5 265.5,-184.5 265.5,-154.5 148.5,-154.5"/>
<text text-anchor="start" x="156.5" y="-172.5" font-family="Helvetica,sans-Serif" font-size="10.00" fill="#000000">chig::GraphFunction</text>
<text text-anchor="middle" x="207" y="-161.5" font-family="Helvetica,sans-Serif" font-size="10.00" fill="#000000">::getOrInsertEntryNode</text>
</a>
</g>
</g>
<!-- Node310&#45;&gt;Node311 -->
<g id="edge1" class="edge">
<title>Node310&#45;&gt;Node311</title>
<path fill="none" stroke="#191970" d="M97.0589,-122.6864C120.7952,-132.7934 149.4856,-145.01 171.6053,-154.4287"/>
<polygon fill="#191970" stroke="#191970" points="98.132,-119.3393 87.5601,-118.6417 95.3896,-125.7797 98.132,-119.3393"/>
</g>
<!-- Node312 -->
<g id="node3" class="node">
<title>Node312</title>
<g id="a_node3"><a xlink:href="structchig_1_1GraphFunction.html#a79cbfaf26d9a966ae8048c81dc09777e" target="_top" xlink:title="chig::GraphFunction\l::nodes">
<polygon fill="#ffffff" stroke="#000000" points="322,-132.5 322,-162.5 426,-162.5 426,-132.5 322,-132.5"/>
<text text-anchor="start" x="330" y="-150.5" font-family="Helvetica,sans-Serif" font-size="10.00" fill="#000000">chig::GraphFunction</text>
<text text-anchor="middle" x="374" y="-139.5" font-family="Helvetica,sans-Serif" font-size="10.00" fill="#000000">::nodes</text>
</a>
</g>
</g>
<!-- Node310&#45;&gt;Node312 -->
<g id="edge13" class="edge">
<title>Node310&#45;&gt;Node312</title>
<path fill="none" stroke="#191970" d="M114.2621,-112.0079C174.6767,-120.2633 265.3084,-132.6477 321.9821,-140.392"/>
<polygon fill="#191970" stroke="#191970" points="114.4746,-108.5045 104.0927,-110.6183 113.5268,-115.44 114.4746,-108.5045"/>
</g>
<!-- Node313 -->
<g id="node4" class="node">
<title>Node313</title>
<g id="a_node4"><a xlink:href="structchig_1_1GraphFunction.html#a7c6aa1623effa0be176211a9f4d852aa" target="_top" xlink:title="Add a node to the graph using module, type, and json. ">
<polygon fill="#ffffff" stroke="#000000" points="155,-66.5 155,-96.5 259,-96.5 259,-66.5 155,-66.5"/>
<text text-anchor="start" x="163" y="-84.5" font-family="Helvetica,sans-Serif" font-size="10.00" fill="#000000">chig::GraphFunction</text>
<text text-anchor="middle" x="207" y="-73.5" font-family="Helvetica,sans-Serif" font-size="10.00" fill="#000000">::insertNode</text>
</a>
</g>
</g>
<!-- Node310&#45;&gt;Node313 -->
<g id="edge3" class="edge">
<title>Node310&#45;&gt;Node313</title>
<path fill="none" stroke="#191970" d="M114.1945,-94.6724C127.6694,-92.7598 141.7871,-90.756 154.8296,-88.9048"/>
<polygon fill="#191970" stroke="#191970" points="113.4528,-91.2425 104.0439,-96.1131 114.4366,-98.173 113.4528,-91.2425"/>
</g>
<!-- Node314 -->
<g id="node5" class="node">
<title>Node314</title>
<g id="a_node5"><a xlink:href="namespacechig.html#a62056798e67720d435705b99f7e16cd0" target="_top" xlink:title="Load a GraphFunction–must already exist (use createGraphFunctionDeclarationFromJson) ...">
<polygon fill="#ffffff" stroke="#000000" points="140,-28 140,-47 274,-47 274,-28 140,-28"/>
<text text-anchor="middle" x="207" y="-35" font-family="Helvetica,sans-Serif" font-size="10.00" fill="#000000">chig::jsonToGraphFunction</text>
</a>
</g>
</g>
<!-- Node310&#45;&gt;Node314 -->
<g id="edge4" class="edge">
<title>Node310&#45;&gt;Node314</title>
<path fill="none" stroke="#191970" d="M86.5151,-83.4971C102.4569,-74.7732 121.8423,-64.8764 140,-57.5 149.672,-53.5708 160.4069,-50.0245 170.3989,-47.0472"/>
<polygon fill="#191970" stroke="#191970" points="84.6045,-80.5546 77.5621,-88.4701 88.0036,-86.6739 84.6045,-80.5546"/>
</g>
<!-- Node311&#45;&gt;Node312 -->
<g id="edge2" class="edge">
<title>Node311&#45;&gt;Node312</title>
<path fill="none" stroke="#191970" d="M275.8422,-160.431C291.1891,-158.4092 307.218,-156.2976 321.7667,-154.381"/>
<polygon fill="#191970" stroke="#191970" points="275.3351,-156.9674 265.878,-161.7436 276.2495,-163.9075 275.3351,-156.9674"/>
</g>
<!-- Node315 -->
<g id="node6" class="node">
<title>Node315</title>
<g id="a_node6"><a xlink:href="namespacechig.html#a3b1bc50c9d7b3cdb17ffcb3ad602f7ab" target="_top" xlink:title="Load a GraphModule from json. ">
<polygon fill="#ffffff" stroke="#000000" points="310,-28 310,-47 438,-47 438,-28 310,-28"/>
<text text-anchor="middle" x="374" y="-35" font-family="Helvetica,sans-Serif" font-size="10.00" fill="#000000">chig::jsonToGraphModule</text>
</a>
</g>
</g>
<!-- Node314&#45;&gt;Node315 -->
<g id="edge5" class="edge">
<title>Node314&#45;&gt;Node315</title>
<path fill="none" stroke="#191970" d="M284.6566,-37.5C293.0806,-37.5 301.5843,-37.5 309.8225,-37.5"/>
<polygon fill="#191970" stroke="#191970" points="284.444,-34.0001 274.4439,-37.5 284.4439,-41.0001 284.444,-34.0001"/>
</g>
<!-- Node316 -->
<g id="node7" class="node">
<title>Node316</title>
<g id="a_node7"><a xlink:href="structchig_1_1Context.html#a077f8ef8c0dd541ec2e2d64bcd8f9fc0" target="_top" xlink:title="Load a module from JSON – avoid this use the string overload. ">
<polygon fill="#ffffff" stroke="#000000" points="474,-22.5 474,-52.5 602,-52.5 602,-22.5 474,-22.5"/>
<text text-anchor="start" x="482" y="-40.5" font-family="Helvetica,sans-Serif" font-size="10.00" fill="#000000">chig::Context::addModule</text>
<text text-anchor="middle" x="538" y="-29.5" font-family="Helvetica,sans-Serif" font-size="10.00" fill="#000000">FromJson</text>
</a>
</g>
</g>
<!-- Node315&#45;&gt;Node316 -->
<g id="edge6" class="edge">
<title>Node315&#45;&gt;Node316</title>
<path fill="none" stroke="#191970" d="M448.5641,-37.5C457.0037,-37.5 465.5492,-37.5 473.8391,-37.5"/>
<polygon fill="#191970" stroke="#191970" points="448.3465,-34.0001 438.3464,-37.5 448.3464,-41.0001 448.3465,-34.0001"/>
</g>
<!-- Node317 -->
<g id="node8" class="node">
<title>Node317</title>
<g id="a_node8"><a xlink:href="structchig_1_1Context.html#a75ab64b58e168998761ed6ebd5e493b2" target="_top" xlink:title="Load a module from disk. ">
<polygon fill="#ffffff" stroke="#000000" points="638,-28 638,-47 768,-47 768,-28 638,-28"/>
<text text-anchor="middle" x="703" y="-35" font-family="Helvetica,sans-Serif" font-size="10.00" fill="#000000">chig::Context::loadModule</text>
</a>
</g>
</g>
<!-- Node316&#45;&gt;Node317 -->
<g id="edge7" class="edge">
<title>Node316&#45;&gt;Node317</title>
<path fill="none" stroke="#191970" d="M612.4926,-37.5C620.9426,-37.5 629.5057,-37.5 637.8228,-37.5"/>
<polygon fill="#191970" stroke="#191970" points="612.2658,-34.0001 602.2658,-37.5 612.2657,-41.0001 612.2658,-34.0001"/>
</g>
<!-- Node318 -->
<g id="node9" class="node">
<title>Node318</title>
<g id="a_node9"><a xlink:href="structchig_1_1ChigModule.html#ad5feee65f261f3777edddd027eb89400" target="_top" xlink:title="Add a dependency to the module Loads the module from context() if it isn&#39;t already loaded...">
<polygon fill="#ffffff" stroke="#000000" points="804,-28 804,-47 971,-47 971,-28 804,-28"/>
<text text-anchor="middle" x="887.5" y="-35" font-family="Helvetica,sans-Serif" font-size="10.00" fill="#000000">chig::ChigModule::addDependency</text>
</a>
</g>
</g>
<!-- Node317&#45;&gt;Node318 -->
<g id="edge8" class="edge">
<title>Node317&#45;&gt;Node318</title>
<path fill="none" stroke="#191970" d="M778.2627,-37.5C786.734,-37.5 795.4033,-37.5 803.9713,-37.5"/>
<polygon fill="#191970" stroke="#191970" points="778.0478,-34.0001 768.0478,-37.5 778.0478,-41.0001 778.0478,-34.0001"/>
</g>
<!-- Node319 -->
<g id="node10" class="node">
<title>Node319</title>
<g id="a_node10"><a xlink:href="structchig_1_1ChigModule.html#a7f239dc07b0a4d74d6907da6f25127dc" target="_top" xlink:title="Get the dependencies. ">
<polygon fill="#ffffff" stroke="#000000" points="1007,-50 1007,-69 1165,-69 1165,-50 1007,-50"/>
<text text-anchor="middle" x="1086" y="-57" font-family="Helvetica,sans-Serif" font-size="10.00" fill="#000000">chig::ChigModule::dependencies</text>
</a>
</g>
</g>
<!-- Node318&#45;&gt;Node319 -->
<g id="edge9" class="edge">
<title>Node318&#45;&gt;Node319</title>
<path fill="none" stroke="#191970" d="M981.1763,-47.8823C989.7894,-48.8369 998.4588,-49.7977 1006.9237,-50.7359"/>
<polygon fill="#191970" stroke="#191970" points="981.4313,-44.3892 971.1066,-46.7662 980.6601,-51.3466 981.4313,-44.3892"/>
</g>
<!-- Node322 -->
<g id="node13" class="node">
<title>Node322</title>
<g id="a_node13"><a xlink:href="structchig_1_1GraphModule.html#a65458343d0344b6b806f9b0b780b32f4" target="_top" xlink:title="Construct a GraphModule. ">
<polygon fill="#ffffff" stroke="#000000" points="1034,-.5 1034,-30.5 1138,-30.5 1138,-.5 1034,-.5"/>
<text text-anchor="start" x="1042" y="-18.5" font-family="Helvetica,sans-Serif" font-size="10.00" fill="#000000">chig::GraphModule::</text>
<text text-anchor="middle" x="1086" y="-7.5" font-family="Helvetica,sans-Serif" font-size="10.00" fill="#000000">GraphModule</text>
</a>
</g>
</g>
<!-- Node318&#45;&gt;Node322 -->
<g id="edge12" class="edge">
<title>Node318&#45;&gt;Node322</title>
<path fill="none" stroke="#191970" d="M981.1462,-27.1211C999.2917,-25.11 1017.6879,-23.0711 1033.8981,-21.2745"/>
<polygon fill="#191970" stroke="#191970" points="980.6601,-23.6534 971.1066,-28.2338 981.4313,-30.6108 980.6601,-23.6534"/>
</g>
<!-- Node320 -->
<g id="node11" class="node">
<title>Node320</title>
<g id="a_node11"><a xlink:href="namespacechig.html#aaef3bb08f472ae32b2d3b292e69a007a" target="_top" xlink:title="Serialize a JsonModule to json. ">
<polygon fill="#ffffff" stroke="#000000" points="1201,-50 1201,-69 1329,-69 1329,-50 1201,-50"/>
<text text-anchor="middle" x="1265" y="-57" font-family="Helvetica,sans-Serif" font-size="10.00" fill="#000000">chig::graphModuleToJson</text>
</a>
</g>
</g>
<!-- Node319&#45;&gt;Node320 -->
<g id="edge10" class="edge">
<title>Node319&#45;&gt;Node320</title>
<path fill="none" stroke="#191970" d="M1175.1886,-59.5C1183.8578,-59.5 1192.5309,-59.5 1200.8825,-59.5"/>
<polygon fill="#191970" stroke="#191970" points="1175.0331,-56.0001 1165.0331,-59.5 1175.033,-63.0001 1175.0331,-56.0001"/>
</g>
<!-- Node321 -->
<g id="node12" class="node">
<title>Node321</title>
<g id="a_node12"><a xlink:href="structchig_1_1GraphModule.html#accb1a64da697a29e28d78a9a09bd52ff" target="_top" xlink:title="Serialize to disk in the context. ">
<polygon fill="#ffffff" stroke="#000000" points="1365,-44.5 1365,-74.5 1469,-74.5 1469,-44.5 1365,-44.5"/>
<text text-anchor="start" x="1373" y="-62.5" font-family="Helvetica,sans-Serif" font-size="10.00" fill="#000000">chig::GraphModule::</text>
<text text-anchor="middle" x="1417" y="-51.5" font-family="Helvetica,sans-Serif" font-size="10.00" fill="#000000">saveToDisk</text>
</a>
</g>
</g>
<!-- Node320&#45;&gt;Node321 -->
<g id="edge11" class="edge">
<title>Node320&#45;&gt;Node321</title>
<path fill="none" stroke="#191970" d="M1339.0838,-59.5C1347.6912,-59.5 1356.3313,-59.5 1364.5622,-59.5"/>
<polygon fill="#191970" stroke="#191970" points="1339.0212,-56.0001 1329.0211,-59.5 1339.0211,-63.0001 1339.0212,-56.0001"/>
</g>
</g>
</svg>
