<?xml version="1.0" encoding="UTF-8" standalone="no"?>
<!DOCTYPE svg PUBLIC "-//W3C//DTD SVG 1.1//EN"
 "http://www.w3.org/Graphics/SVG/1.1/DTD/svg11.dtd">
<!-- Generated by graphviz version 2.40.1 (20161225.0304)
 -->
<!-- Title: chig::NodeType::name Pages: 1 -->
<svg width="1258pt" height="233pt"
 viewBox="0.00 0.00 1258.00 233.09" xmlns="http://www.w3.org/2000/svg" xmlns:xlink="http://www.w3.org/1999/xlink">
<g id="graph0" class="graph" transform="scale(1 1) rotate(0) translate(4 229.0893)">
<title>chig::NodeType::name</title>
<polygon fill="#ffffff" stroke="transparent" points="-4,4 -4,-229.0893 1254,-229.0893 1254,4 -4,4"/>
<!-- Node104 -->
<g id="node1" class="node">
<title>Node104</title>
<polygon fill="#bfbfbf" stroke="#000000" points="0,-148 0,-167 126,-167 126,-148 0,-148"/>
<text text-anchor="middle" x="63" y="-155" font-family="Helvetica,sans-Serif" font-size="10.00" fill="#000000">chig::NodeType::name</text>
</g>
<!-- Node105 -->
<g id="node2" class="node">
<title>Node105</title>
<g id="a_node2"><a xlink:href="structchig_1_1NodeType.html#a83c7ce04c8c7b38c1a3fac17bf0dbe3d" target="_top" xlink:title="Constructor. ">
<polygon fill="#ffffff" stroke="#000000" points="173,-167 173,-186 321,-186 321,-167 173,-167"/>
<text text-anchor="middle" x="247" y="-174" font-family="Helvetica,sans-Serif" font-size="10.00" fill="#000000">chig::NodeType::NodeType</text>
</a>
</g>
</g>
<!-- Node104&#45;&gt;Node105 -->
<g id="edge1" class="edge">
<title>Node104&#45;&gt;Node105</title>
<path fill="none" stroke="#191970" d="M136.1106,-165.0495C148.2207,-166.3 160.7871,-167.5976 172.9208,-168.8505"/>
<polygon fill="#191970" stroke="#191970" points="136.3716,-161.5579 126.0649,-164.0121 135.6525,-168.5209 136.3716,-161.5579"/>
</g>
<!-- Node106 -->
<g id="node3" class="node">
<title>Node106</title>
<g id="a_node3"><a xlink:href="structchig_1_1NodeType.html#aec01c9c30813ec9f0e15dda0f7ae34f3" target="_top" xlink:title="Get the qualified name of the node type, like module.name():name() ">
<polygon fill="#ffffff" stroke="#000000" points="162,-129 162,-148 332,-148 332,-129 162,-129"/>
<text text-anchor="middle" x="247" y="-136" font-family="Helvetica,sans-Serif" font-size="10.00" fill="#000000">chig::NodeType::qualifiedName</text>
</a>
</g>
</g>
<!-- Node104&#45;&gt;Node106 -->
<g id="edge2" class="edge">
<title>Node104&#45;&gt;Node106</title>
<path fill="none" stroke="#191970" d="M136.2283,-149.9384C144.6665,-149.067 153.3248,-148.173 161.9025,-147.2872"/>
<polygon fill="#191970" stroke="#191970" points="135.6525,-146.4791 126.0649,-150.9879 136.3716,-153.4421 135.6525,-146.4791"/>
</g>
<!-- Node107 -->
<g id="node4" class="node">
<title>Node107</title>
<g id="a_node4"><a xlink:href="namespacechig.html#ad3c2fc880f6843f9a8a0f5ee0d62249d" target="_top" xlink:title="Connects two nodes&#39; data connections. ">
<polygon fill="#ffffff" stroke="#000000" points="375.5,-170 375.5,-189 479.5,-189 479.5,-170 375.5,-170"/>
<text text-anchor="middle" x="427.5" y="-177" font-family="Helvetica,sans-Serif" font-size="10.00" fill="#000000">chig::connectData</text>
</a>
</g>
</g>
<!-- Node106&#45;&gt;Node107 -->
<g id="edge3" class="edge">
<title>Node106&#45;&gt;Node107</title>
<path fill="none" stroke="#191970" d="M299.8464,-150.2568C310.4949,-152.6415 321.6074,-155.1415 332,-157.5 349.7536,-161.5291 369.35,-166.0335 386.1471,-169.912"/>
<polygon fill="#191970" stroke="#191970" points="300.3407,-146.781 289.8179,-148.0141 298.813,-153.6122 300.3407,-146.781"/>
</g>
<!-- Node109 -->
<g id="node6" class="node">
<title>Node109</title>
<g id="a_node6"><a xlink:href="namespacechig.html#a8a2e0029b591b2c20b39d570753f123f" target="_top" xlink:title="Connects two nodes&#39; exec connections. ">
<polygon fill="#ffffff" stroke="#000000" points="676.5,-170 676.5,-189 780.5,-189 780.5,-170 676.5,-170"/>
<text text-anchor="middle" x="728.5" y="-177" font-family="Helvetica,sans-Serif" font-size="10.00" fill="#000000">chig::connectExec</text>
</a>
</g>
</g>
<!-- Node106&#45;&gt;Node109 -->
<g id="edge19" class="edge">
<title>Node106&#45;&gt;Node109</title>
<path fill="none" stroke="#191970" d="M320.4515,-151.7077C324.4611,-153.4101 328.3416,-155.3315 332,-157.5 352.8603,-169.8651 346.1064,-188.0732 368,-198.5 482.0174,-252.8006 639.8911,-209.8489 701.9432,-189.0998"/>
<polygon fill="#191970" stroke="#191970" points="321.4971,-148.3617 310.905,-148.1198 319.0344,-154.9142 321.4971,-148.3617"/>
</g>
<!-- Node111 -->
<g id="node8" class="node">
<title>Node111</title>
<g id="a_node8"><a xlink:href="namespacechig.html#a26aa6586df79345493de9fc130291c18" target="_top" xlink:title="Disconnect a data connection. ">
<polygon fill="#ffffff" stroke="#000000" points="669,-113 669,-132 788,-132 788,-113 669,-113"/>
<text text-anchor="middle" x="728.5" y="-120" font-family="Helvetica,sans-Serif" font-size="10.00" fill="#000000">chig::disconnectData</text>
</a>
</g>
</g>
<!-- Node106&#45;&gt;Node111 -->
<g id="edge20" class="edge">
<title>Node106&#45;&gt;Node111</title>
<path fill="none" stroke="#191970" d="M269.5805,-123.3122C293.0188,-108.5359 331.3195,-87.095 368,-78.5 490.7769,-49.7308 641.7467,-92.7689 701.9208,-112.9748"/>
<polygon fill="#191970" stroke="#191970" points="267.5789,-120.4382 261.0709,-128.7986 271.3721,-126.3215 267.5789,-120.4382"/>
</g>
<!-- Node117 -->
<g id="node14" class="node">
<title>Node117</title>
<g id="a_node14"><a xlink:href="namespacechig.html#ad24a330508033631ef29b2f6e5cf6210" target="_top" xlink:title="Disconnect a exec connection. ">
<polygon fill="#ffffff" stroke="#000000" points="368,-88 368,-107 487,-107 487,-88 368,-88"/>
<text text-anchor="middle" x="427.5" y="-95" font-family="Helvetica,sans-Serif" font-size="10.00" fill="#000000">chig::disconnectExec</text>
</a>
</g>
</g>
<!-- Node106&#45;&gt;Node117 -->
<g id="edge21" class="edge">
<title>Node106&#45;&gt;Node117</title>
<path fill="none" stroke="#191970" d="M298.7141,-126.7533C326.2408,-120.5007 359.6562,-112.9105 385.5508,-107.0286"/>
<polygon fill="#191970" stroke="#191970" points="297.8403,-123.3625 288.864,-128.9907 299.3909,-130.1887 297.8403,-123.3625"/>
</g>
<!-- Node108 -->
<g id="node5" class="node">
<title>Node108</title>
<g id="a_node5"><a xlink:href="structchig_1_1NodeInstance.html#ac06ee5988ee5f130088fee83a550f4d2" target="_top" xlink:title="Get the containing GraphFunction. ">
<polygon fill="#ffffff" stroke="#000000" points="523,-164.5 523,-194.5 633,-194.5 633,-164.5 523,-164.5"/>
<text text-anchor="start" x="531" y="-182.5" font-family="Helvetica,sans-Serif" font-size="10.00" fill="#000000">chig::NodeInstance</text>
<text text-anchor="middle" x="578" y="-171.5" font-family="Helvetica,sans-Serif" font-size="10.00" fill="#000000">::function</text>
</a>
</g>
</g>
<!-- Node107&#45;&gt;Node108 -->
<g id="edge4" class="edge">
<title>Node107&#45;&gt;Node108</title>
<path fill="none" stroke="#191970" d="M490.0054,-172.8368C500.8874,-172.6873 512.1357,-172.7309 522.8039,-172.9677"/>
<polygon fill="#191970" stroke="#191970" points="489.6444,-169.3431 479.7152,-173.0393 489.7822,-176.3418 489.6444,-169.3431"/>
</g>
<!-- Node110 -->
<g id="node7" class="node">
<title>Node110</title>
<g id="a_node7"><a xlink:href="structchig_1_1Graph.html#a1b1c12b94544f6bb8eb7b807ef2c0f7e" target="_top" xlink:title="Normal constructor (don&#39;t call this, let GraphFunction call it) ">
<polygon fill="#ffffff" stroke="#000000" points="827,-176 827,-195 934,-195 934,-176 827,-176"/>
<text text-anchor="middle" x="880.5" y="-183" font-family="Helvetica,sans-Serif" font-size="10.00" fill="#000000">chig::Graph::Graph</text>
</a>
</g>
</g>
<!-- Node107&#45;&gt;Node110 -->
<g id="edge18" class="edge">
<title>Node107&#45;&gt;Node110</title>
<path fill="none" stroke="#191970" d="M466.078,-192.0033C483.2971,-196.9565 503.9592,-202.049 523,-204.5 630.2622,-218.3069 756.871,-204.5675 826.9746,-194.3491"/>
<polygon fill="#191970" stroke="#191970" points="466.9583,-188.6138 456.3758,-189.1241 464.9668,-195.3245 466.9583,-188.6138"/>
</g>
<!-- Node108&#45;&gt;Node107 -->
<g id="edge5" class="edge">
<title>Node108&#45;&gt;Node107</title>
<path fill="none" stroke="#191970" d="M512.7671,-186.1966C501.7179,-186.3151 490.3753,-186.2365 479.7152,-185.9607"/>
<polygon fill="#191970" stroke="#191970" points="512.8626,-189.6956 522.8039,-186.0323 512.748,-182.6965 512.8626,-189.6956"/>
</g>
<!-- Node108&#45;&gt;Node109 -->
<g id="edge6" class="edge">
<title>Node108&#45;&gt;Node109</title>
<path fill="none" stroke="#191970" d="M643.2346,-172.8034C654.297,-172.6848 665.6534,-172.7638 676.3243,-173.0403"/>
<polygon fill="#191970" stroke="#191970" points="643.1274,-169.3046 633.1861,-172.9679 643.2421,-176.3037 643.1274,-169.3046"/>
</g>
<!-- Node108&#45;&gt;Node111 -->
<g id="edge9" class="edge">
<title>Node108&#45;&gt;Node111</title>
<path fill="none" stroke="#191970" d="M613.2162,-160.3454C635.3129,-150.8363 663.9068,-139.9115 687.089,-132.0813"/>
<polygon fill="#191970" stroke="#191970" points="611.6139,-157.2266 603.8719,-164.4593 614.4345,-163.6332 611.6139,-157.2266"/>
</g>
<!-- Node109&#45;&gt;Node108 -->
<g id="edge7" class="edge">
<title>Node109&#45;&gt;Node108</title>
<path fill="none" stroke="#191970" d="M666.023,-186.1628C655.1288,-186.3128 643.8665,-186.2692 633.1861,-186.0321"/>
<polygon fill="#191970" stroke="#191970" points="666.3953,-189.6562 676.3243,-185.9597 666.2572,-182.6576 666.3953,-189.6562"/>
</g>
<!-- Node109&#45;&gt;Node110 -->
<g id="edge8" class="edge">
<title>Node109&#45;&gt;Node110</title>
<path fill="none" stroke="#191970" d="M791.0839,-181.9704C802.9414,-182.4385 815.2488,-182.9243 826.8019,-183.3803"/>
<polygon fill="#191970" stroke="#191970" points="790.9401,-178.4621 780.8098,-181.5649 790.6639,-185.4567 790.9401,-178.4621"/>
</g>
<!-- Node111&#45;&gt;Node107 -->
<g id="edge10" class="edge">
<title>Node111&#45;&gt;Node107</title>
<path fill="none" stroke="#191970" d="M658.9939,-132.1247C619.0527,-138.0388 568.0281,-146.2449 523,-155.5 502.7381,-159.6646 480.295,-165.2541 462.2591,-169.9911"/>
<polygon fill="#191970" stroke="#191970" points="659.5133,-135.5861 668.8992,-130.6713 658.497,-128.6602 659.5133,-135.5861"/>
</g>
<!-- Node111&#45;&gt;Node108 -->
<g id="edge11" class="edge">
<title>Node111&#45;&gt;Node108</title>
<path fill="none" stroke="#191970" d="M704.9155,-136.5003C685.7378,-145.2886 657.904,-156.3183 633.1861,-165.131"/>
<polygon fill="#191970" stroke="#191970" points="706.5675,-139.5903 714.0929,-132.1325 703.5592,-133.2697 706.5675,-139.5903"/>
</g>
<!-- Node112 -->
<g id="node9" class="node">
<title>Node112</title>
<g id="a_node9"><a xlink:href="structchig_1_1GraphFunction.html#a398599d8fe1982a3c76462b1b2375a6e" target="_top" xlink:title="Remove a node from the function. ">
<polygon fill="#ffffff" stroke="#000000" points="824,-100.5 824,-130.5 937,-130.5 937,-100.5 824,-100.5"/>
<text text-anchor="start" x="832" y="-118.5" font-family="Helvetica,sans-Serif" font-size="10.00" fill="#000000">chig::GraphFunction</text>
<text text-anchor="middle" x="880.5" y="-107.5" font-family="Helvetica,sans-Serif" font-size="10.00" fill="#000000">::removeNode</text>
</a>
</g>
</g>
<!-- Node111&#45;&gt;Node112 -->
<g id="edge12" class="edge">
<title>Node111&#45;&gt;Node112</title>
<path fill="none" stroke="#191970" d="M798.3424,-119.2836C806.7724,-118.8953 815.3042,-118.5024 823.5191,-118.1241"/>
<polygon fill="#191970" stroke="#191970" points="797.9665,-115.7971 788.1382,-119.7535 798.2886,-122.7897 797.9665,-115.7971"/>
</g>
<!-- Node116 -->
<g id="node13" class="node">
<title>Node116</title>
<g id="a_node13"><a xlink:href="structchig_1_1NodeInstance.html#ab7b23fb84fff7176f7a6e62ce3762153" target="_top" xlink:title="Set the type of the node instance. ">
<polygon fill="#ffffff" stroke="#000000" points="825.5,-.5 825.5,-30.5 935.5,-30.5 935.5,-.5 825.5,-.5"/>
<text text-anchor="start" x="833.5" y="-18.5" font-family="Helvetica,sans-Serif" font-size="10.00" fill="#000000">chig::NodeInstance</text>
<text text-anchor="middle" x="880.5" y="-7.5" font-family="Helvetica,sans-Serif" font-size="10.00" fill="#000000">::setType</text>
</a>
</g>
</g>
<!-- Node111&#45;&gt;Node116 -->
<g id="edge17" class="edge">
<title>Node111&#45;&gt;Node116</title>
<path fill="none" stroke="#191970" d="M750.5101,-107.006C779.5005,-86.5983 830.162,-50.9353 858.9307,-30.6836"/>
<polygon fill="#191970" stroke="#191970" points="748.4195,-104.1974 742.2571,-112.8157 752.4489,-109.9214 748.4195,-104.1974"/>
</g>
<!-- Node113 -->
<g id="node10" class="node">
<title>Node113</title>
<g id="a_node10"><a xlink:href="structchig_1_1GraphFunction.html#a70b74dd7330f7afb2b3ab38feebd57c5" target="_top" xlink:title="Add a node to the graph. ">
<polygon fill="#ffffff" stroke="#000000" points="973,-100.5 973,-130.5 1086,-130.5 1086,-100.5 973,-100.5"/>
<text text-anchor="start" x="981" y="-118.5" font-family="Helvetica,sans-Serif" font-size="10.00" fill="#000000">chig::GraphFunction</text>
<text text-anchor="middle" x="1029.5" y="-107.5" font-family="Helvetica,sans-Serif" font-size="10.00" fill="#000000">::insertNode</text>
</a>
</g>
</g>
<!-- Node112&#45;&gt;Node113 -->
<g id="edge13" class="edge">
<title>Node112&#45;&gt;Node113</title>
<path fill="none" stroke="#191970" d="M947.5076,-115.5C955.9902,-115.5 964.6037,-115.5 972.9022,-115.5"/>
<polygon fill="#191970" stroke="#191970" points="947.2556,-112.0001 937.2556,-115.5 947.2555,-119.0001 947.2556,-112.0001"/>
</g>
<!-- Node114 -->
<g id="node11" class="node">
<title>Node114</title>
<g id="a_node11"><a xlink:href="structchig_1_1GraphFunction.html#a1fd77fbd5bb46690fdc79cd9c6d35917" target="_top" xlink:title="Creates an entry node if it doesn&#39;t already exist, else just return it. ">
<polygon fill="#ffffff" stroke="#000000" points="1122,-100.5 1122,-130.5 1250,-130.5 1250,-100.5 1122,-100.5"/>
<text text-anchor="start" x="1130" y="-118.5" font-family="Helvetica,sans-Serif" font-size="10.00" fill="#000000">chig::GraphFunction</text>
<text text-anchor="middle" x="1186" y="-107.5" font-family="Helvetica,sans-Serif" font-size="10.00" fill="#000000">::getOrInsertEntryNode</text>
</a>
</g>
</g>
<!-- Node113&#45;&gt;Node114 -->
<g id="edge14" class="edge">
<title>Node113&#45;&gt;Node114</title>
<path fill="none" stroke="#191970" d="M1096.2454,-108.8153C1104.7427,-108.7182 1113.4251,-108.7294 1121.8798,-108.8488"/>
<polygon fill="#191970" stroke="#191970" points="1095.9399,-105.3198 1086.0001,-108.9873 1096.0575,-112.3188 1095.9399,-105.3198"/>
</g>
<!-- Node115 -->
<g id="node12" class="node">
<title>Node115</title>
<g id="a_node12"><a xlink:href="structchig_1_1GraphFunction.html#a449ab966907b5e32dd00d5f6bb1b3ede" target="_top" xlink:title="Add a node to the graph using module, type, and json. ">
<polygon fill="#ffffff" stroke="#000000" points="1129.5,-51.5 1129.5,-81.5 1242.5,-81.5 1242.5,-51.5 1129.5,-51.5"/>
<text text-anchor="start" x="1137.5" y="-69.5" font-family="Helvetica,sans-Serif" font-size="10.00" fill="#000000">chig::GraphFunction</text>
<text text-anchor="middle" x="1186" y="-58.5" font-family="Helvetica,sans-Serif" font-size="10.00" fill="#000000">::insertNode</text>
</a>
</g>
</g>
<!-- Node113&#45;&gt;Node115 -->
<g id="edge16" class="edge">
<title>Node113&#45;&gt;Node115</title>
<path fill="none" stroke="#191970" d="M1087.3504,-97.3871C1103.9883,-92.1778 1121.9489,-86.5543 1137.9271,-81.5516"/>
<polygon fill="#191970" stroke="#191970" points="1086.2295,-94.0704 1077.7322,-100.3986 1088.3211,-100.7506 1086.2295,-94.0704"/>
</g>
<!-- Node114&#45;&gt;Node113 -->
<g id="edge15" class="edge">
<title>Node114&#45;&gt;Node113</title>
<path fill="none" stroke="#191970" d="M1111.7643,-122.2421C1103.0999,-122.2762 1094.3697,-122.1998 1086.0001,-122.0127"/>
<polygon fill="#191970" stroke="#191970" points="1111.9117,-125.741 1121.8798,-122.1512 1111.8487,-118.7413 1111.9117,-125.741"/>
</g>
<!-- Node117&#45;&gt;Node108 -->
<g id="edge23" class="edge">
<title>Node117&#45;&gt;Node108</title>
<path fill="none" stroke="#191970" d="M453.9657,-111.9198C481.0262,-126.6638 522.8795,-149.4676 550.359,-164.4398"/>
<polygon fill="#191970" stroke="#191970" points="455.5146,-108.778 445.0588,-107.0669 452.1654,-114.9248 455.5146,-108.778"/>
</g>
<!-- Node117&#45;&gt;Node109 -->
<g id="edge22" class="edge">
<title>Node117&#45;&gt;Node109</title>
<path fill="none" stroke="#191970" d="M472.6271,-109.7938C533.0389,-126.2515 638.9176,-155.0955 693.6061,-169.994"/>
<polygon fill="#191970" stroke="#191970" points="473.186,-106.3185 462.6176,-107.0669 471.346,-113.0724 473.186,-106.3185"/>
</g>
<!-- Node117&#45;&gt;Node112 -->
<g id="edge24" class="edge">
<title>Node117&#45;&gt;Node112</title>
<path fill="none" stroke="#191970" d="M497.6354,-96.34C570.3568,-95.6827 687.2909,-96.1528 788,-103.5 799.6285,-104.3484 812.0328,-105.6687 823.8568,-107.1285"/>
<polygon fill="#191970" stroke="#191970" points="497.1983,-92.8441 487.234,-96.4445 497.2687,-99.8438 497.1983,-92.8441"/>
</g>
<!-- Node117&#45;&gt;Node116 -->
<g id="edge25" class="edge">
<title>Node117&#45;&gt;Node116</title>
<path fill="none" stroke="#191970" d="M490.3043,-86.1314C579.248,-70.0313 740.4852,-40.8448 825.1622,-25.517"/>
<polygon fill="#191970" stroke="#191970" points="489.5681,-82.7078 480.3514,-87.9331 490.815,-89.5958 489.5681,-82.7078"/>
</g>
</g>
</svg>
