<?xml version="1.0" encoding="UTF-8" standalone="no"?>
<!DOCTYPE svg PUBLIC "-//W3C//DTD SVG 1.1//EN"
 "http://www.w3.org/Graphics/SVG/1.1/DTD/svg11.dtd">
<!-- Generated by graphviz version 2.40.1 (20161225.0304)
 -->
<!-- Title: chi::GraphModule::removeStruct Pages: 1 -->
<svg width="660pt" height="39pt"
 viewBox="0.00 0.00 660.00 39.00" xmlns="http://www.w3.org/2000/svg" xmlns:xlink="http://www.w3.org/1999/xlink">
<g id="graph0" class="graph" transform="scale(1 1) rotate(0) translate(4 35)">
<title>chi::GraphModule::removeStruct</title>
<polygon fill="#ffffff" stroke="transparent" points="-4,4 -4,-35 656,-35 656,4 -4,4"/>
<!-- Node248 -->
<g id="node1" class="node">
<title>Node248</title>
<polygon fill="#bfbfbf" stroke="#000000" points="0,-.5 0,-30.5 131,-30.5 131,-.5 0,-.5"/>
<text text-anchor="start" x="8" y="-18.5" font-family="Helvetica,sans-Serif" font-size="10.00" fill="#000000">chi::GraphModule::remove</text>
<text text-anchor="middle" x="65.5" y="-7.5" font-family="Helvetica,sans-Serif" font-size="10.00" fill="#000000">Struct</text>
</g>
<!-- Node249 -->
<g id="node2" class="node">
<title>Node249</title>
<g id="a_node2"><a xlink:href="structchi_1_1GraphModule.html#a45255dbf09b56ac93b35ebc4d77bba5c" target="_top" xlink:title="Get functions. ">
<polygon fill="#ffffff" stroke="#000000" points="167,-6 167,-25 306,-25 306,-6 167,-6"/>
<text text-anchor="middle" x="236.5" y="-13" font-family="Helvetica,sans-Serif" font-size="10.00" fill="#000000">chi::GraphModule::functions</text>
</a>
</g>
</g>
<!-- Node248&#45;&gt;Node249 -->
<g id="edge1" class="edge">
<title>Node248&#45;&gt;Node249</title>
<path fill="none" stroke="#191970" d="M141.3605,-15.5C149.8231,-15.5 158.4132,-15.5 166.7936,-15.5"/>
<polygon fill="#191970" stroke="#191970" points="141.124,-12.0001 131.124,-15.5 141.124,-19.0001 141.124,-12.0001"/>
</g>
<!-- Node250 -->
<g id="node3" class="node">
<title>Node250</title>
<g id="a_node3"><a xlink:href="namespacechi.html#a9a4f3fa54c612f0c559a353bb7382d5a" target="_top" xlink:title="Serialize a JsonModule to json. ">
<polygon fill="#ffffff" stroke="#000000" points="342,-6 342,-25 465,-25 465,-6 342,-6"/>
<text text-anchor="middle" x="403.5" y="-13" font-family="Helvetica,sans-Serif" font-size="10.00" fill="#000000">chi::graphModuleToJson</text>
</a>
</g>
</g>
<!-- Node249&#45;&gt;Node250 -->
<g id="edge2" class="edge">
<title>Node249&#45;&gt;Node250</title>
<path fill="none" stroke="#191970" d="M316.377,-15.5C324.9523,-15.5 333.5788,-15.5 341.8935,-15.5"/>
<polygon fill="#191970" stroke="#191970" points="316.3554,-12.0001 306.3554,-15.5 316.3554,-19.0001 316.3554,-12.0001"/>
</g>
<!-- Node251 -->
<g id="node4" class="node">
<title>Node251</title>
<g id="a_node4"><a xlink:href="structchi_1_1GraphModule.html#a5cd9fb1738336d5d382ebb50753bda3e" target="_top" xlink:title="Serialize to disk in the context. ">
<polygon fill="#ffffff" stroke="#000000" points="501,-6 501,-25 652,-25 652,-6 501,-6"/>
<text text-anchor="middle" x="576.5" y="-13" font-family="Helvetica,sans-Serif" font-size="10.00" fill="#000000">chi::GraphModule::saveToDisk</text>
</a>
</g>
</g>
<!-- Node250&#45;&gt;Node251 -->
<g id="edge3" class="edge">
<title>Node250&#45;&gt;Node251</title>
<path fill="none" stroke="#191970" d="M475.5243,-15.5C483.8612,-15.5 492.3827,-15.5 500.7672,-15.5"/>
<polygon fill="#191970" stroke="#191970" points="475.4684,-12.0001 465.4683,-15.5 475.4683,-19.0001 475.4684,-12.0001"/>
</g>
</g>
</svg>
