<?xml version="1.0" encoding="UTF-8" standalone="no"?>
<!DOCTYPE svg PUBLIC "-//W3C//DTD SVG 1.1//EN"
 "http://www.w3.org/Graphics/SVG/1.1/DTD/svg11.dtd">
<!-- Generated by graphviz version 2.40.1 (20161225.0304)
 -->
<!-- Title: chi::GraphStruct::types Pages: 1 -->
<svg width="472pt" height="161pt"
 viewBox="0.00 0.00 472.00 161.00" xmlns="http://www.w3.org/2000/svg" xmlns:xlink="http://www.w3.org/1999/xlink">
<g id="graph0" class="graph" transform="scale(1 1) rotate(0) translate(4 157)">
<title>chi::GraphStruct::types</title>
<polygon fill="#ffffff" stroke="transparent" points="-4,4 -4,-157 468,-157 468,4 -4,4"/>
<!-- Node86 -->
<g id="node1" class="node">
<title>Node86</title>
<polygon fill="#bfbfbf" stroke="#000000" points="0,-76.5 0,-95.5 118,-95.5 118,-76.5 0,-76.5"/>
<text text-anchor="middle" x="59" y="-83.5" font-family="Helvetica,sans-Serif" font-size="10.00" fill="#000000">chi::GraphStruct::types</text>
</g>
<!-- Node87 -->
<g id="node2" class="node">
<title>Node87</title>
<g id="a_node2"><a xlink:href="structchi_1_1GraphStruct.html#ad2857a2f5fec097866d903468e4e4b85" target="_top" xlink:title="Add a new type to the struct. ">
<polygon fill="#ffffff" stroke="#000000" points="162.5,-133.5 162.5,-152.5 293.5,-152.5 293.5,-133.5 162.5,-133.5"/>
<text text-anchor="middle" x="228" y="-140.5" font-family="Helvetica,sans-Serif" font-size="10.00" fill="#000000">chi::GraphStruct::addType</text>
</a>
</g>
</g>
<!-- Node86&#45;&gt;Node87 -->
<g id="edge1" class="edge">
<title>Node86&#45;&gt;Node87</title>
<path fill="none" stroke="#191970" d="M100.6607,-95.6386C117.104,-101.7712 136.2713,-109.2051 154,-115 170.7394,-120.4715 190.0207,-125.3784 204.7044,-130.0901"/>
<polygon fill="#191970" stroke="#191970" points="203.887,-133.5114 214.4818,-133.4917 206.1872,-126.9001 203.887,-133.5114"/>
</g>
<!-- Node89 -->
<g id="node4" class="node">
<title>Node89</title>
<g id="a_node4"><a xlink:href="structchi_1_1GraphStruct.html#a27c5062196f73eae3125c0baeb592d00" target="_top" xlink:title="Get the DataType of the struct. ">
<polygon fill="#ffffff" stroke="#000000" points="161,-57.5 161,-76.5 295,-76.5 295,-57.5 161,-57.5"/>
<text text-anchor="middle" x="228" y="-64.5" font-family="Helvetica,sans-Serif" font-size="10.00" fill="#000000">chi::GraphStruct::dataType</text>
</a>
</g>
</g>
<!-- Node86&#45;&gt;Node89 -->
<g id="edge4" class="edge">
<title>Node86&#45;&gt;Node89</title>
<path fill="none" stroke="#191970" d="M94.0169,-76.4705C110.5586,-73.7303 131.0065,-71.0533 150.9028,-68.9408"/>
<polygon fill="#191970" stroke="#191970" points="151.3246,-72.4161 160.9185,-67.9208 150.6153,-65.4521 151.3246,-72.4161"/>
</g>
<!-- Node93 -->
<g id="node8" class="node">
<title>Node93</title>
<g id="a_node8"><a xlink:href="structchi_1_1GraphStruct.html#a14ceb731adea8daa0edd34c22d9fab6a" target="_top" xlink:title="Change the type and name of a type. ">
<polygon fill="#ffffff" stroke="#000000" points="155.5,-95.5 155.5,-114.5 300.5,-114.5 300.5,-95.5 155.5,-95.5"/>
<text text-anchor="middle" x="228" y="-102.5" font-family="Helvetica,sans-Serif" font-size="10.00" fill="#000000">chi::GraphStruct::modifyType</text>
</a>
</g>
</g>
<!-- Node86&#45;&gt;Node93 -->
<g id="edge10" class="edge">
<title>Node86&#45;&gt;Node93</title>
<path fill="none" stroke="#191970" d="M118.108,-86.1738C139.3447,-88.0821 162.9402,-90.8741 182.8063,-93.8652"/>
<polygon fill="#191970" stroke="#191970" points="182.3997,-97.3443 192.8227,-95.4439 183.4896,-90.4296 182.3997,-97.3443"/>
</g>
<!-- Node94 -->
<g id="node9" class="node">
<title>Node94</title>
<g id="a_node9"><a xlink:href="structchi_1_1GraphStruct.html#a02b93bf782565092d7ef58e2320f7589" target="_top" xlink:title="Remove a type from a struct. ">
<polygon fill="#ffffff" stroke="#000000" points="154,-19.5 154,-38.5 302,-38.5 302,-19.5 154,-19.5"/>
<text text-anchor="middle" x="228" y="-26.5" font-family="Helvetica,sans-Serif" font-size="10.00" fill="#000000">chi::GraphStruct::removeType</text>
</a>
</g>
</g>
<!-- Node86&#45;&gt;Node94 -->
<g id="edge13" class="edge">
<title>Node86&#45;&gt;Node94</title>
<path fill="none" stroke="#191970" d="M68.2904,-76.4954C83.5499,-66.3848 115.1965,-52.4171 146.0045,-41.7155"/>
<polygon fill="#191970" stroke="#191970" points="147.1622,-45.0189 155.5196,-38.5071 144.9255,-38.3858 147.1622,-45.0189"/>
</g>
<!-- Node87&#45;&gt;Node86 -->
<g id="edge2" class="edge">
<title>Node87&#45;&gt;Node86</title>
<path fill="none" stroke="#191970" d="M162.4978,-135.6636C159.6171,-134.7977 156.7737,-133.9066 154,-133 126.6814,-124.0705 95.947,-111.2492 77.0269,-100.7502"/>
<polygon fill="#191970" stroke="#191970" points="78.6654,-97.6517 68.2904,-95.5046 75.062,-103.653 78.6654,-97.6517"/>
</g>
<!-- Node88 -->
<g id="node3" class="node">
<title>Node88</title>
<g id="a_node3"><a xlink:href="structchi_1_1DataType.html#a03384814dde82f88fb097d556cb1da66" target="_top" xlink:title="Check if the DataType is valid (if it&#39;s actually bound to a type and module) ">
<polygon fill="#ffffff" stroke="#000000" points="349,-114.5 349,-133.5 453,-133.5 453,-114.5 349,-114.5"/>
<text text-anchor="middle" x="401" y="-121.5" font-family="Helvetica,sans-Serif" font-size="10.00" fill="#000000">chi::DataType::valid</text>
</a>
</g>
</g>
<!-- Node87&#45;&gt;Node88 -->
<g id="edge3" class="edge">
<title>Node87&#45;&gt;Node88</title>
<path fill="none" stroke="#191970" d="M293.8974,-135.7627C308.7159,-134.1352 324.3909,-132.4137 339.0419,-130.8047"/>
<polygon fill="#191970" stroke="#191970" points="339.44,-134.2821 348.9981,-129.7112 338.6757,-127.3239 339.44,-134.2821"/>
</g>
<!-- Node89&#45;&gt;Node86 -->
<g id="edge6" class="edge">
<title>Node89&#45;&gt;Node86</title>
<path fill="none" stroke="#191970" d="M192.8227,-76.5561C174.1046,-79.6516 150.4183,-82.6644 128.1935,-84.8714"/>
<polygon fill="#191970" stroke="#191970" points="127.7336,-81.3992 118.108,-85.8262 128.3934,-88.3681 127.7336,-81.3992"/>
</g>
<!-- Node89&#45;&gt;Node88 -->
<g id="edge5" class="edge">
<title>Node89&#45;&gt;Node88</title>
<path fill="none" stroke="#191970" d="M272.359,-76.5853C282.2537,-79.2194 292.596,-82.369 302,-86 318.8773,-92.5165 321.2618,-98.134 338,-105 343.4845,-107.2497 349.3341,-109.3681 355.1754,-111.3159"/>
<polygon fill="#191970" stroke="#191970" points="354.3415,-114.7235 364.9321,-114.4259 356.4674,-108.0542 354.3415,-114.7235"/>
</g>
<!-- Node90 -->
<g id="node5" class="node">
<title>Node90</title>
<g id="a_node5"><a xlink:href="structchi_1_1GraphStruct.html#a262915d6d2148d7234525e9ccfa5c9d5" target="_top" xlink:title="Get the context. ">
<polygon fill="#ffffff" stroke="#000000" points="338,-76.5 338,-95.5 464,-95.5 464,-76.5 338,-76.5"/>
<text text-anchor="middle" x="401" y="-83.5" font-family="Helvetica,sans-Serif" font-size="10.00" fill="#000000">chi::GraphStruct::context</text>
</a>
</g>
</g>
<!-- Node89&#45;&gt;Node90 -->
<g id="edge7" class="edge">
<title>Node89&#45;&gt;Node90</title>
<path fill="none" stroke="#191970" d="M295.3817,-74.4003C305.9505,-75.561 316.9202,-76.7658 327.6159,-77.9405"/>
<polygon fill="#191970" stroke="#191970" points="327.4423,-81.4424 337.7646,-79.0551 328.2065,-74.4842 327.4423,-81.4424"/>
</g>
<!-- Node91 -->
<g id="node6" class="node">
<title>Node91</title>
<g id="a_node6"><a xlink:href="structchi_1_1GraphStruct.html#ad25ddcbdf75436b9a0f76720d34257d4" target="_top" xlink:title="Get the name of the type. ">
<polygon fill="#ffffff" stroke="#000000" points="342,-38.5 342,-57.5 460,-57.5 460,-38.5 342,-38.5"/>
<text text-anchor="middle" x="401" y="-45.5" font-family="Helvetica,sans-Serif" font-size="10.00" fill="#000000">chi::GraphStruct::name</text>
</a>
</g>
</g>
<!-- Node89&#45;&gt;Node91 -->
<g id="edge8" class="edge">
<title>Node89&#45;&gt;Node91</title>
<path fill="none" stroke="#191970" d="M295.3817,-59.5997C307.3892,-58.281 319.9141,-56.9054 331.9668,-55.5817"/>
<polygon fill="#191970" stroke="#191970" points="332.4003,-59.0552 341.9584,-54.4843 331.6361,-52.097 332.4003,-59.0552"/>
</g>
<!-- Node92 -->
<g id="node7" class="node">
<title>Node92</title>
<g id="a_node7"><a xlink:href="structchi_1_1GraphStruct.html#a82a1da52a4bf23e1e7fef4d7228603b1" target="_top" xlink:title="Get the module. ">
<polygon fill="#ffffff" stroke="#000000" points="338.5,-.5 338.5,-19.5 463.5,-19.5 463.5,-.5 338.5,-.5"/>
<text text-anchor="middle" x="401" y="-7.5" font-family="Helvetica,sans-Serif" font-size="10.00" fill="#000000">chi::GraphStruct::module</text>
</a>
</g>
</g>
<!-- Node89&#45;&gt;Node92 -->
<g id="edge9" class="edge">
<title>Node89&#45;&gt;Node92</title>
<path fill="none" stroke="#191970" d="M272.359,-57.4147C282.2537,-54.7806 292.596,-51.631 302,-48 318.8773,-41.4835 321.2618,-35.866 338,-29 343.4845,-26.7503 349.3341,-24.6319 355.1754,-22.6841"/>
<polygon fill="#191970" stroke="#191970" points="356.4674,-25.9458 364.9321,-19.5741 354.3415,-19.2765 356.4674,-25.9458"/>
</g>
<!-- Node93&#45;&gt;Node86 -->
<g id="edge11" class="edge">
<title>Node93&#45;&gt;Node86</title>
<path fill="none" stroke="#191970" d="M155.394,-103.5274C137.9375,-101.7414 119.7899,-99.4867 104.012,-97.1074"/>
<polygon fill="#191970" stroke="#191970" points="104.4404,-93.6318 94.0169,-95.5295 103.3488,-100.5461 104.4404,-93.6318"/>
</g>
<!-- Node93&#45;&gt;Node88 -->
<g id="edge12" class="edge">
<title>Node93&#45;&gt;Node88</title>
<path fill="none" stroke="#191970" d="M300.6156,-112.9751C313.2576,-114.3636 326.306,-115.7966 338.6421,-117.1514"/>
<polygon fill="#191970" stroke="#191970" points="338.4901,-120.6557 348.8125,-118.2684 339.2544,-113.6976 338.4901,-120.6557"/>
</g>
<!-- Node94&#45;&gt;Node86 -->
<g id="edge14" class="edge">
<title>Node94&#45;&gt;Node86</title>
<path fill="none" stroke="#191970" d="M214.4818,-38.5083C199.5303,-44.2729 174.8024,-50.2004 154,-57 139.5954,-61.7083 124.2412,-67.4987 110.1699,-72.794"/>
<polygon fill="#191970" stroke="#191970" points="108.7941,-69.5718 100.6607,-76.3614 111.2529,-76.1258 108.7941,-69.5718"/>
</g>
</g>
</svg>
