<?xml version="1.0" encoding="UTF-8" standalone="no"?>
<!DOCTYPE svg PUBLIC "-//W3C//DTD SVG 1.1//EN"
 "http://www.w3.org/Graphics/SVG/1.1/DTD/svg11.dtd">
<!-- Generated by graphviz version 2.40.1 (20161225.0304)
 -->
<!-- Title: chi::GraphFunction::addDataOutput Pages: 1 -->
<svg width="1178pt" height="181pt"
 viewBox="0.00 0.00 1178.00 181.00" xmlns="http://www.w3.org/2000/svg" xmlns:xlink="http://www.w3.org/1999/xlink">
<g id="graph0" class="graph" transform="scale(1 1) rotate(0) translate(4 177)">
<title>chi::GraphFunction::addDataOutput</title>
<polygon fill="#ffffff" stroke="transparent" points="-4,4 -4,-177 1174,-177 1174,4 -4,4"/>
<!-- Node36 -->
<g id="node1" class="node">
<title>Node36</title>
<polygon fill="#bfbfbf" stroke="#000000" points="0,-79 0,-109 99,-109 99,-79 0,-79"/>
<text text-anchor="start" x="8" y="-97" font-family="Helvetica,sans-Serif" font-size="10.00" fill="#000000">chi::GraphFunction</text>
<text text-anchor="middle" x="49.5" y="-86" font-family="Helvetica,sans-Serif" font-size="10.00" fill="#000000">::addDataOutput</text>
</g>
<!-- Node37 -->
<g id="node2" class="node">
<title>Node37</title>
<g id="a_node2"><a xlink:href="structchi_1_1GraphFunction.html#ab0bf0d819ff062c01220614f617d5965" target="_top" xlink:title="Get the function data outputs in the format {type, docstring}. ">
<polygon fill="#ffffff" stroke="#000000" points="135,-79 135,-109 234,-109 234,-79 135,-79"/>
<text text-anchor="start" x="143" y="-97" font-family="Helvetica,sans-Serif" font-size="10.00" fill="#000000">chi::GraphFunction</text>
<text text-anchor="middle" x="184.5" y="-86" font-family="Helvetica,sans-Serif" font-size="10.00" fill="#000000">::dataOutputs</text>
</a>
</g>
</g>
<!-- Node36&#45;&gt;Node37 -->
<g id="edge1" class="edge">
<title>Node36&#45;&gt;Node37</title>
<path fill="none" stroke="#191970" d="M109.2071,-94C117.6702,-94 126.299,-94 134.5516,-94"/>
<polygon fill="#191970" stroke="#191970" points="109.0025,-90.5001 99.0024,-94 109.0024,-97.5001 109.0025,-90.5001"/>
</g>
<!-- Node38 -->
<g id="node3" class="node">
<title>Node38</title>
<g id="a_node3"><a xlink:href="namespacechi.html#a8329038fce8125396cc9775460aa427b" target="_top" xlink:title="Compile the graph to an llvm::Function (usually called from JsonModule::generateModule) ...">
<polygon fill="#ffffff" stroke="#000000" points="272,-153.5 272,-172.5 379,-172.5 379,-153.5 272,-153.5"/>
<text text-anchor="middle" x="325.5" y="-160.5" font-family="Helvetica,sans-Serif" font-size="10.00" fill="#000000">chi::compileFunction</text>
</a>
</g>
</g>
<!-- Node37&#45;&gt;Node38 -->
<g id="edge2" class="edge">
<title>Node37&#45;&gt;Node38</title>
<path fill="none" stroke="#191970" d="M216.2206,-114.5906C231.9894,-124.2927 251.5729,-135.5601 270,-144 277.5927,-147.4776 286.0156,-150.6767 293.9579,-153.419"/>
<polygon fill="#191970" stroke="#191970" points="217.7507,-111.4197 207.4146,-109.0922 214.0433,-117.3573 217.7507,-111.4197"/>
</g>
<!-- Node39 -->
<g id="node4" class="node">
<title>Node39</title>
<g id="a_node4"><a xlink:href="structchi_1_1GraphFunction.html#af14ad950cfff4ad3091827f9b6ad1cd2" target="_top" xlink:title="Create a fresh NodeType for an exit. ">
<polygon fill="#ffffff" stroke="#000000" points="270,-55 270,-85 381,-85 381,-55 270,-55"/>
<text text-anchor="start" x="278" y="-73" font-family="Helvetica,sans-Serif" font-size="10.00" fill="#000000">chi::GraphFunction</text>
<text text-anchor="middle" x="325.5" y="-62" font-family="Helvetica,sans-Serif" font-size="10.00" fill="#000000">::createExitNodeType</text>
</a>
</g>
</g>
<!-- Node37&#45;&gt;Node39 -->
<g id="edge3" class="edge">
<title>Node37&#45;&gt;Node39</title>
<path fill="none" stroke="#191970" d="M244.142,-83.8482C252.714,-82.3891 261.5054,-80.8927 269.9929,-79.448"/>
<polygon fill="#191970" stroke="#191970" points="243.4822,-80.41 234.2113,-85.5385 244.6569,-87.3108 243.4822,-80.41"/>
</g>
<!-- Node43 -->
<g id="node8" class="node">
<title>Node43</title>
<g id="a_node8"><a xlink:href="namespacechi.html#afd8b8d8a207d88359ad1e6a48d8f3bb1" target="_top" xlink:title="Serialize a GraphFunction to json. ">
<polygon fill="#ffffff" stroke="#000000" points="695,-.5 695,-19.5 824,-19.5 824,-.5 695,-.5"/>
<text text-anchor="middle" x="759.5" y="-7.5" font-family="Helvetica,sans-Serif" font-size="10.00" fill="#000000">chi::graphFunctionToJson</text>
</a>
</g>
</g>
<!-- Node37&#45;&gt;Node43 -->
<g id="edge13" class="edge">
<title>Node37&#45;&gt;Node43</title>
<path fill="none" stroke="#191970" d="M214.6922,-73.3007C230.4922,-63.4618 250.5548,-52.4639 270,-46 415.9552,2.5177 599.4384,.5148 694.9698,-4.8867"/>
<polygon fill="#191970" stroke="#191970" points="212.4542,-70.5776 205.9189,-78.9167 216.2281,-76.4732 212.4542,-70.5776"/>
</g>
<!-- Node46 -->
<g id="node11" class="node">
<title>Node46</title>
<g id="a_node11"><a xlink:href="structchi_1_1GraphFunction.html#aa2c89c659786c9928a616a81dab267e4" target="_top" xlink:title="Get the LLVM function type for the function. ">
<polygon fill="#ffffff" stroke="#000000" points="276,-104 276,-134 375,-134 375,-104 276,-104"/>
<text text-anchor="start" x="284" y="-122" font-family="Helvetica,sans-Serif" font-size="10.00" fill="#000000">chi::GraphFunction</text>
<text text-anchor="middle" x="325.5" y="-111" font-family="Helvetica,sans-Serif" font-size="10.00" fill="#000000">::functionType</text>
</a>
</g>
</g>
<!-- Node37&#45;&gt;Node46 -->
<g id="edge11" class="edge">
<title>Node37&#45;&gt;Node46</title>
<path fill="none" stroke="#191970" d="M244.1688,-104.5796C254.6929,-106.4455 265.5469,-108.37 275.7623,-110.1813"/>
<polygon fill="#191970" stroke="#191970" points="244.6688,-101.1137 234.2113,-102.8141 243.4467,-108.0062 244.6688,-101.1137"/>
</g>
<!-- Node40 -->
<g id="node5" class="node">
<title>Node40</title>
<g id="a_node5"><a xlink:href="structchi_1_1GraphFunction.html#a900c0b670ad04a76b6add803ade7ae0d" target="_top" xlink:title="Get the nodes in the function Usually called by connectData or connectExec or GraphFunction. ">
<polygon fill="#ffffff" stroke="#000000" points="421,-104 421,-134 520,-134 520,-104 421,-104"/>
<text text-anchor="start" x="429" y="-122" font-family="Helvetica,sans-Serif" font-size="10.00" fill="#000000">chi::GraphFunction</text>
<text text-anchor="middle" x="470.5" y="-111" font-family="Helvetica,sans-Serif" font-size="10.00" fill="#000000">::nodes</text>
</a>
</g>
</g>
<!-- Node39&#45;&gt;Node40 -->
<g id="edge4" class="edge">
<title>Node39&#45;&gt;Node40</title>
<path fill="none" stroke="#191970" d="M379.9183,-88.3896C395.0158,-93.4916 411.2308,-98.9711 425.71,-103.8641"/>
<polygon fill="#191970" stroke="#191970" points="380.7822,-84.9872 370.1879,-85.1014 378.5411,-91.6187 380.7822,-84.9872"/>
</g>
<!-- Node41 -->
<g id="node6" class="node">
<title>Node41</title>
<g id="a_node6"><a xlink:href="structchi_1_1GraphFunction.html#a3c10d56dd68371400993b4a3c120f585" target="_top" xlink:title="Rename an exec output If idx is out of range, this function does nothing. ">
<polygon fill="#ffffff" stroke="#000000" points="417,-55 417,-85 524,-85 524,-55 417,-55"/>
<text text-anchor="start" x="425" y="-73" font-family="Helvetica,sans-Serif" font-size="10.00" fill="#000000">chi::GraphFunction</text>
<text text-anchor="middle" x="470.5" y="-62" font-family="Helvetica,sans-Serif" font-size="10.00" fill="#000000">::renameExecOutput</text>
</a>
</g>
</g>
<!-- Node39&#45;&gt;Node41 -->
<g id="edge5" class="edge">
<title>Node39&#45;&gt;Node41</title>
<path fill="none" stroke="#191970" d="M391.3807,-70C399.8463,-70 408.4333,-70 416.6748,-70"/>
<polygon fill="#191970" stroke="#191970" points="391.1461,-66.5001 381.1461,-70 391.1461,-73.5001 391.1461,-66.5001"/>
</g>
<!-- Node42 -->
<g id="node7" class="node">
<title>Node42</title>
<g id="a_node7"><a xlink:href="structchi_1_1GraphFunction.html#ab47bbbd84f14240b824c1a780b125207" target="_top" xlink:title="Get the function exec outputs. ">
<polygon fill="#ffffff" stroke="#000000" points="560,-17 560,-47 659,-47 659,-17 560,-17"/>
<text text-anchor="start" x="568" y="-35" font-family="Helvetica,sans-Serif" font-size="10.00" fill="#000000">chi::GraphFunction</text>
<text text-anchor="middle" x="609.5" y="-24" font-family="Helvetica,sans-Serif" font-size="10.00" fill="#000000">::execOutputs</text>
</a>
</g>
</g>
<!-- Node41&#45;&gt;Node42 -->
<g id="edge6" class="edge">
<title>Node41&#45;&gt;Node42</title>
<path fill="none" stroke="#191970" d="M534.005,-52.6389C542.7271,-50.2545 551.576,-47.8353 559.9968,-45.5332"/>
<polygon fill="#191970" stroke="#191970" points="532.9641,-49.295 524.241,-55.3082 534.8101,-56.0472 532.9641,-49.295"/>
</g>
<!-- Node42&#45;&gt;Node39 -->
<g id="edge7" class="edge">
<title>Node42&#45;&gt;Node39</title>
<path fill="none" stroke="#191970" d="M549.3308,-33.5341C511.202,-35.2059 460.9628,-38.6995 417,-46 403.5532,-48.233 389.2076,-51.5408 375.9594,-54.9918"/>
<polygon fill="#191970" stroke="#191970" points="549.8996,-37.0139 559.7487,-33.1092 549.6143,-30.0197 549.8996,-37.0139"/>
</g>
<!-- Node42&#45;&gt;Node43 -->
<g id="edge8" class="edge">
<title>Node42&#45;&gt;Node43</title>
<path fill="none" stroke="#191970" d="M669.142,-23.2525C677.5655,-22.0171 686.259,-20.742 694.7726,-19.4934"/>
<polygon fill="#191970" stroke="#191970" points="668.4175,-19.8212 659.0313,-24.7354 669.4334,-26.7471 668.4175,-19.8212"/>
</g>
<!-- Node44 -->
<g id="node9" class="node">
<title>Node44</title>
<g id="a_node9"><a xlink:href="namespacechi.html#a9a4f3fa54c612f0c559a353bb7382d5a" target="_top" xlink:title="Serialize a JsonModule to json. ">
<polygon fill="#ffffff" stroke="#000000" points="860,-.5 860,-19.5 983,-19.5 983,-.5 860,-.5"/>
<text text-anchor="middle" x="921.5" y="-7.5" font-family="Helvetica,sans-Serif" font-size="10.00" fill="#000000">chi::graphModuleToJson</text>
</a>
</g>
</g>
<!-- Node43&#45;&gt;Node44 -->
<g id="edge9" class="edge">
<title>Node43&#45;&gt;Node44</title>
<path fill="none" stroke="#191970" d="M834.7026,-10C843.1561,-10 851.6942,-10 859.9461,-10"/>
<polygon fill="#191970" stroke="#191970" points="834.4582,-6.5001 824.4582,-10 834.4581,-13.5001 834.4582,-6.5001"/>
</g>
<!-- Node45 -->
<g id="node10" class="node">
<title>Node45</title>
<g id="a_node10"><a xlink:href="structchi_1_1GraphModule.html#a5cd9fb1738336d5d382ebb50753bda3e" target="_top" xlink:title="Serialize to disk in the context. ">
<polygon fill="#ffffff" stroke="#000000" points="1019,-.5 1019,-19.5 1170,-19.5 1170,-.5 1019,-.5"/>
<text text-anchor="middle" x="1094.5" y="-7.5" font-family="Helvetica,sans-Serif" font-size="10.00" fill="#000000">chi::GraphModule::saveToDisk</text>
</a>
</g>
</g>
<!-- Node44&#45;&gt;Node45 -->
<g id="edge10" class="edge">
<title>Node44&#45;&gt;Node45</title>
<path fill="none" stroke="#191970" d="M993.5243,-10C1001.8612,-10 1010.3827,-10 1018.7672,-10"/>
<polygon fill="#191970" stroke="#191970" points="993.4684,-6.5001 983.4683,-10 993.4683,-13.5001 993.4684,-6.5001"/>
</g>
<!-- Node46&#45;&gt;Node40 -->
<g id="edge12" class="edge">
<title>Node46&#45;&gt;Node40</title>
<path fill="none" stroke="#191970" d="M385.6041,-119C397.3836,-119 409.6131,-119 420.9984,-119"/>
<polygon fill="#191970" stroke="#191970" points="385.4008,-115.5001 375.4008,-119 385.4007,-122.5001 385.4008,-115.5001"/>
</g>
</g>
</svg>
