<?xml version="1.0" encoding="UTF-8" standalone="no"?>
<!DOCTYPE svg PUBLIC "-//W3C//DTD SVG 1.1//EN"
 "http://www.w3.org/Graphics/SVG/1.1/DTD/svg11.dtd">
<!-- Generated by graphviz version 2.40.1 (20161225.0304)
 -->
<!-- Title: chig::NodeInstance Pages: 1 -->
<svg width="444pt" height="110pt"
 viewBox="0.00 0.00 444.00 110.00" xmlns="http://www.w3.org/2000/svg" xmlns:xlink="http://www.w3.org/1999/xlink">
<g id="graph0" class="graph" transform="scale(1 1) rotate(0) translate(4 106)">
<title>chig::NodeInstance</title>
<polygon fill="#ffffff" stroke="transparent" points="-4,4 -4,-106 440,-106 440,4 -4,4"/>
<!-- Node1 -->
<g id="node1" class="node">
<title>Node1</title>
<polygon fill="#bfbfbf" stroke="#000000" points="326,-41.5 326,-60.5 436,-60.5 436,-41.5 326,-41.5"/>
<text text-anchor="middle" x="381" y="-48.5" font-family="Helvetica,sans-Serif" font-size="10.00" fill="#000000">chig::NodeInstance</text>
</g>
<!-- Node2 -->
<g id="node2" class="node">
<title>Node2</title>
<polygon fill="#ffffff" stroke="#bfbfbf" points="20,-60.5 20,-101.5 152,-101.5 152,-60.5 20,-60.5"/>
<text text-anchor="start" x="28" y="-89.5" font-family="Helvetica,sans-Serif" font-size="10.00" fill="#000000">std::vector&lt; std::pair</text>
<text text-anchor="start" x="28" y="-78.5" font-family="Helvetica,sans-Serif" font-size="10.00" fill="#000000">&lt; chig::NodeInstance *,</text>
<text text-anchor="middle" x="86" y="-67.5" font-family="Helvetica,sans-Serif" font-size="10.00" fill="#000000"> size_t &gt; &gt;</text>
</g>
<!-- Node2&#45;&gt;Node1 -->
<g id="edge1" class="edge">
<title>Node2&#45;&gt;Node1</title>
<path fill="none" stroke="#9a32cd" stroke-dasharray="5,2" d="M162.2361,-73.2472C213.4565,-68.0383 279.7688,-61.2947 325.8966,-56.6037"/>
<polygon fill="#9a32cd" stroke="#9a32cd" points="161.7983,-69.7736 152.2038,-74.2674 162.5066,-76.7376 161.7983,-69.7736"/>
<text text-anchor="middle" x="249" y="-83" font-family="Helvetica,sans-Serif" font-size="10.00" fill="#000000"> outputExecConnections</text>
<text text-anchor="middle" x="249" y="-72" font-family="Helvetica,sans-Serif" font-size="10.00" fill="#000000">inputDataConnections</text>
</g>
<!-- Node3 -->
<g id="node3" class="node">
<title>Node3</title>
<polygon fill="#ffffff" stroke="#bfbfbf" points="0,-.5 0,-41.5 172,-41.5 172,-.5 0,-.5"/>
<text text-anchor="start" x="8" y="-29.5" font-family="Helvetica,sans-Serif" font-size="10.00" fill="#000000">std::vector&lt; std::vector</text>
<text text-anchor="start" x="8" y="-18.5" font-family="Helvetica,sans-Serif" font-size="10.00" fill="#000000">&lt; std::pair&lt; chig::NodeInstance</text>
<text text-anchor="middle" x="86" y="-7.5" font-family="Helvetica,sans-Serif" font-size="10.00" fill="#000000"> *, size_t &gt; &gt; &gt;</text>
</g>
<!-- Node3&#45;&gt;Node1 -->
<g id="edge2" class="edge">
<title>Node3&#45;&gt;Node1</title>
<path fill="none" stroke="#9a32cd" stroke-dasharray="5,2" d="M182.1179,-22.2619C221.3253,-23.7971 266.9979,-26.8921 308,-33 321.169,-34.9617 335.4328,-38.2177 347.8285,-41.4252"/>
<polygon fill="#9a32cd" stroke="#9a32cd" points="182.1539,-18.761 172.0333,-21.8955 181.8996,-25.7564 182.1539,-18.761"/>
<text text-anchor="middle" x="249" y="-47" font-family="Helvetica,sans-Serif" font-size="10.00" fill="#000000"> inputExecConnections</text>
<text text-anchor="middle" x="249" y="-36" font-family="Helvetica,sans-Serif" font-size="10.00" fill="#000000">outputDataConnections</text>
</g>
</g>
</svg>
