<?xml version="1.0" encoding="UTF-8" standalone="no"?>
<!DOCTYPE svg PUBLIC "-//W3C//DTD SVG 1.1//EN"
 "http://www.w3.org/Graphics/SVG/1.1/DTD/svg11.dtd">
<!-- Generated by graphviz version 2.40.1 (20161225.0304)
 -->
<!-- Title: chi::GraphStruct::removeType Pages: 1 -->
<svg width="837pt" height="142pt"
 viewBox="0.00 0.00 837.00 142.00" xmlns="http://www.w3.org/2000/svg" xmlns:xlink="http://www.w3.org/1999/xlink">
<g id="graph0" class="graph" transform="scale(1 1) rotate(0) translate(4 138)">
<title>chi::GraphStruct::removeType</title>
<polygon fill="#ffffff" stroke="transparent" points="-4,4 -4,-138 833,-138 833,4 -4,4"/>
<!-- Node258 -->
<g id="node1" class="node">
<title>Node258</title>
<polygon fill="#bfbfbf" stroke="#000000" points="0,-76.5 0,-95.5 148,-95.5 148,-76.5 0,-76.5"/>
<text text-anchor="middle" x="74" y="-83.5" font-family="Helvetica,sans-Serif" font-size="10.00" fill="#000000">chi::GraphStruct::removeType</text>
</g>
<!-- Node259 -->
<g id="node2" class="node">
<title>Node259</title>
<g id="a_node2"><a xlink:href="structchi_1_1GraphStruct.html#ae1895cfaebac03e21d35ec2a155b3c10" target="_top" xlink:title="Get the types the struct contains. ">
<polygon fill="#ffffff" stroke="#000000" points="184,-76.5 184,-95.5 302,-95.5 302,-76.5 184,-76.5"/>
<text text-anchor="middle" x="243" y="-83.5" font-family="Helvetica,sans-Serif" font-size="10.00" fill="#000000">chi::GraphStruct::types</text>
</a>
</g>
</g>
<!-- Node258&#45;&gt;Node259 -->
<g id="edge1" class="edge">
<title>Node258&#45;&gt;Node259</title>
<path fill="none" stroke="#191970" d="M158.2731,-79.25C166.9368,-79.2484 175.6038,-79.3413 183.9096,-79.5289"/>
<polygon fill="#191970" stroke="#191970" points="158.1101,-75.7506 148.1259,-79.2954 158.1415,-82.7505 158.1101,-75.7506"/>
</g>
<!-- Node259&#45;&gt;Node258 -->
<g id="edge6" class="edge">
<title>Node259&#45;&gt;Node258</title>
<path fill="none" stroke="#191970" d="M173.7369,-92.6515C165.2924,-92.7618 156.6378,-92.7795 148.1259,-92.7046"/>
<polygon fill="#191970" stroke="#191970" points="173.9733,-96.148 183.9096,-92.4711 173.8491,-89.1491 173.9733,-96.148"/>
</g>
<!-- Node260 -->
<g id="node3" class="node">
<title>Node260</title>
<g id="a_node3"><a xlink:href="structchi_1_1GraphStruct.html#aba05cdce9627a23da0449801e068d85d" target="_top" xlink:title="Add a new type to the struct. ">
<polygon fill="#ffffff" stroke="#000000" points="345,-114.5 345,-133.5 476,-133.5 476,-114.5 345,-114.5"/>
<text text-anchor="middle" x="410.5" y="-121.5" font-family="Helvetica,sans-Serif" font-size="10.00" fill="#000000">chi::GraphStruct::addType</text>
</a>
</g>
</g>
<!-- Node259&#45;&gt;Node260 -->
<g id="edge2" class="edge">
<title>Node259&#45;&gt;Node260</title>
<path fill="none" stroke="#191970" d="M312.0891,-95.0167C339.6578,-100.9189 369.4143,-108.3201 388.9025,-114.3943"/>
<polygon fill="#191970" stroke="#191970" points="312.5593,-91.5394 302.0542,-92.9153 311.1245,-98.3907 312.5593,-91.5394"/>
</g>
<!-- Node261 -->
<g id="node4" class="node">
<title>Node261</title>
<g id="a_node4"><a xlink:href="structchi_1_1GraphStruct.html#a89d3ea5e72ed6e7d8380fb82fa5eb521" target="_top" xlink:title="Change the type and name of a type. ">
<polygon fill="#ffffff" stroke="#000000" points="338,-76.5 338,-95.5 483,-95.5 483,-76.5 338,-76.5"/>
<text text-anchor="middle" x="410.5" y="-83.5" font-family="Helvetica,sans-Serif" font-size="10.00" fill="#000000">chi::GraphStruct::modifyType</text>
</a>
</g>
</g>
<!-- Node259&#45;&gt;Node261 -->
<g id="edge4" class="edge">
<title>Node259&#45;&gt;Node261</title>
<path fill="none" stroke="#191970" d="M312.2501,-79.3407C320.7115,-79.2339 329.3766,-79.2214 337.8855,-79.3033"/>
<polygon fill="#191970" stroke="#191970" points="311.9919,-75.8446 302.0542,-79.5179 312.1136,-82.8435 311.9919,-75.8446"/>
</g>
<!-- Node262 -->
<g id="node5" class="node">
<title>Node262</title>
<g id="a_node5"><a xlink:href="structchi_1_1GraphStruct.html#a27c5062196f73eae3125c0baeb592d00" target="_top" xlink:title="Get the DataType of the struct. ">
<polygon fill="#ffffff" stroke="#000000" points="343.5,-38.5 343.5,-57.5 477.5,-57.5 477.5,-38.5 343.5,-38.5"/>
<text text-anchor="middle" x="410.5" y="-45.5" font-family="Helvetica,sans-Serif" font-size="10.00" fill="#000000">chi::GraphStruct::dataType</text>
</a>
</g>
</g>
<!-- Node259&#45;&gt;Node262 -->
<g id="edge7" class="edge">
<title>Node259&#45;&gt;Node262</title>
<path fill="none" stroke="#191970" d="M274.3861,-73.4752C293.8398,-67.896 319.5883,-61.6463 343.4513,-56.5818"/>
<polygon fill="#191970" stroke="#191970" points="273.1372,-70.1953 264.5548,-76.4076 275.138,-76.9033 273.1372,-70.1953"/>
</g>
<!-- Node263 -->
<g id="node6" class="node">
<title>Node263</title>
<g id="a_node6"><a xlink:href="namespacechi.html#af74872167b12e4ad8a387faab1f03fbb" target="_top" xlink:title="Serialize a GraphStruct to json. ">
<polygon fill="#ffffff" stroke="#000000" points="351.5,-.5 351.5,-19.5 469.5,-19.5 469.5,-.5 351.5,-.5"/>
<text text-anchor="middle" x="410.5" y="-7.5" font-family="Helvetica,sans-Serif" font-size="10.00" fill="#000000">chi::graphStructToJson</text>
</a>
</g>
</g>
<!-- Node259&#45;&gt;Node263 -->
<g id="edge9" class="edge">
<title>Node259&#45;&gt;Node263</title>
<path fill="none" stroke="#191970" d="M264.5515,-70.6307C283.2168,-57.9294 311.3388,-40.2207 338,-29 346.7549,-25.3154 356.412,-22.1872 365.745,-19.5977"/>
<polygon fill="#191970" stroke="#191970" points="262.427,-67.8445 256.196,-76.4133 266.4106,-73.6005 262.427,-67.8445"/>
</g>
<!-- Node260&#45;&gt;Node259 -->
<g id="edge3" class="edge">
<title>Node260&#45;&gt;Node259</title>
<path fill="none" stroke="#191970" d="M335.1471,-113.6248C309.3958,-107.9688 282.5749,-101.2115 264.5548,-95.5924"/>
<polygon fill="#191970" stroke="#191970" points="334.4309,-117.0507 344.9436,-115.7339 335.9042,-110.2075 334.4309,-117.0507"/>
</g>
<!-- Node261&#45;&gt;Node259 -->
<g id="edge5" class="edge">
<title>Node261&#45;&gt;Node259</title>
<path fill="none" stroke="#191970" d="M327.7359,-92.7496C319.0655,-92.7569 310.381,-92.6677 302.0542,-92.4821"/>
<polygon fill="#191970" stroke="#191970" points="327.9039,-96.2489 337.8855,-92.6967 327.8674,-89.2489 327.9039,-96.2489"/>
</g>
<!-- Node262&#45;&gt;Node259 -->
<g id="edge8" class="edge">
<title>Node262&#45;&gt;Node259</title>
<path fill="none" stroke="#191970" d="M379.2468,-60.4866C357.5857,-66.7047 328.0737,-73.7619 302.0542,-79.0847"/>
<polygon fill="#191970" stroke="#191970" points="380.3206,-63.8188 388.9025,-57.6057 378.3192,-57.111 380.3206,-63.8188"/>
</g>
<!-- Node264 -->
<g id="node7" class="node">
<title>Node264</title>
<g id="a_node7"><a xlink:href="namespacechi.html#a9a4f3fa54c612f0c559a353bb7382d5a" target="_top" xlink:title="Serialize a JsonModule to json. ">
<polygon fill="#ffffff" stroke="#000000" points="519,-.5 519,-19.5 642,-19.5 642,-.5 519,-.5"/>
<text text-anchor="middle" x="580.5" y="-7.5" font-family="Helvetica,sans-Serif" font-size="10.00" fill="#000000">chi::graphModuleToJson</text>
</a>
</g>
</g>
<!-- Node263&#45;&gt;Node264 -->
<g id="edge10" class="edge">
<title>Node263&#45;&gt;Node264</title>
<path fill="none" stroke="#191970" d="M480.1052,-10C492.9162,-10 506.2099,-10 518.7692,-10"/>
<polygon fill="#191970" stroke="#191970" points="479.9578,-6.5001 469.9578,-10 479.9577,-13.5001 479.9578,-6.5001"/>
</g>
<!-- Node265 -->
<g id="node8" class="node">
<title>Node265</title>
<g id="a_node8"><a xlink:href="structchi_1_1GraphModule.html#a5cd9fb1738336d5d382ebb50753bda3e" target="_top" xlink:title="Serialize to disk in the context. ">
<polygon fill="#ffffff" stroke="#000000" points="678,-.5 678,-19.5 829,-19.5 829,-.5 678,-.5"/>
<text text-anchor="middle" x="753.5" y="-7.5" font-family="Helvetica,sans-Serif" font-size="10.00" fill="#000000">chi::GraphModule::saveToDisk</text>
</a>
</g>
</g>
<!-- Node264&#45;&gt;Node265 -->
<g id="edge11" class="edge">
<title>Node264&#45;&gt;Node265</title>
<path fill="none" stroke="#191970" d="M652.5243,-10C660.8612,-10 669.3827,-10 677.7672,-10"/>
<polygon fill="#191970" stroke="#191970" points="652.4684,-6.5001 642.4683,-10 652.4683,-13.5001 652.4684,-6.5001"/>
</g>
</g>
</svg>
