<?xml version="1.0" encoding="UTF-8" standalone="no"?>
<!DOCTYPE svg PUBLIC "-//W3C//DTD SVG 1.1//EN"
 "http://www.w3.org/Graphics/SVG/1.1/DTD/svg11.dtd">
<!-- Generated by graphviz version 2.40.1 (20161225.0304)
 -->
<!-- Title: chig::NodeType Pages: 1 -->
<svg width="290pt" height="294pt"
 viewBox="0.00 0.00 290.00 294.00" xmlns="http://www.w3.org/2000/svg" xmlns:xlink="http://www.w3.org/1999/xlink">
<g id="graph0" class="graph" transform="scale(1 1) rotate(0) translate(4 290)">
<title>chig::NodeType</title>
<polygon fill="#ffffff" stroke="transparent" points="-4,4 -4,-290 286,-290 286,4 -4,4"/>
<!-- Node0 -->
<g id="node1" class="node">
<title>Node0</title>
<polygon fill="#bfbfbf" stroke="#000000" points="0,-133.5 0,-152.5 92,-152.5 92,-133.5 0,-133.5"/>
<text text-anchor="middle" x="46" y="-140.5" font-family="Helvetica,sans-Serif" font-size="10.00" fill="#000000">chig::NodeType</text>
</g>
<!-- Node1 -->
<g id="node2" class="node">
<title>Node1</title>
<g id="a_node2"><a xlink:title="The NodeType for calling C functions. ">
<polygon fill="#ffffff" stroke="#bfbfbf" points="169.5,-266.5 169.5,-285.5 240.5,-285.5 240.5,-266.5 169.5,-266.5"/>
<text text-anchor="middle" x="205" y="-273.5" font-family="Helvetica,sans-Serif" font-size="10.00" fill="#000000">CFuncNode</text>
</a>
</g>
</g>
<!-- Node0&#45;&gt;Node1 -->
<g id="edge1" class="edge">
<title>Node0&#45;&gt;Node1</title>
<path fill="none" stroke="#191970" d="M54.4658,-162.1104C66.8361,-187.758 92.3219,-232.8742 128,-257 140.0904,-265.1756 155.3699,-269.8383 169.1247,-272.4955"/>
<polygon fill="#191970" stroke="#191970" points="57.4933,-160.3198 50.1073,-152.7239 51.1444,-163.2679 57.4933,-160.3198"/>
</g>
<!-- Node2 -->
<g id="node3" class="node">
<title>Node2</title>
<polygon fill="#ffffff" stroke="#bfbfbf" points="134,-228.5 134,-247.5 276,-247.5 276,-228.5 134,-228.5"/>
<text text-anchor="middle" x="205" y="-235.5" font-family="Helvetica,sans-Serif" font-size="10.00" fill="#000000">chig::ConstBoolNodeType</text>
</g>
<!-- Node0&#45;&gt;Node2 -->
<g id="edge2" class="edge">
<title>Node0&#45;&gt;Node2</title>
<path fill="none" stroke="#191970" d="M59.9759,-160.3186C74.9767,-177.7455 100.3996,-204.1119 128,-219 135.1498,-222.8567 143.094,-225.945 151.0865,-228.4141"/>
<polygon fill="#191970" stroke="#191970" points="62.5901,-157.9889 53.4851,-152.5712 57.2243,-162.4843 62.5901,-157.9889"/>
</g>
<!-- Node3 -->
<g id="node4" class="node">
<title>Node3</title>
<polygon fill="#ffffff" stroke="#bfbfbf" points="138.5,-190.5 138.5,-209.5 271.5,-209.5 271.5,-190.5 138.5,-190.5"/>
<text text-anchor="middle" x="205" y="-197.5" font-family="Helvetica,sans-Serif" font-size="10.00" fill="#000000">chig::ConstIntNodeType</text>
</g>
<!-- Node0&#45;&gt;Node3 -->
<g id="edge3" class="edge">
<title>Node0&#45;&gt;Node3</title>
<path fill="none" stroke="#191970" d="M73.2697,-157.2447C88.9674,-165.0336 109.2441,-174.4089 128,-181 138.2623,-184.6063 149.5235,-187.7963 160.1899,-190.4834"/>
<polygon fill="#191970" stroke="#191970" points="74.6465,-154.0191 64.1419,-152.6391 71.4931,-160.2687 74.6465,-154.0191"/>
</g>
<!-- Node4 -->
<g id="node5" class="node">
<title>Node4</title>
<polygon fill="#ffffff" stroke="#bfbfbf" points="146,-152.5 146,-171.5 264,-171.5 264,-152.5 146,-152.5"/>
<text text-anchor="middle" x="205" y="-159.5" font-family="Helvetica,sans-Serif" font-size="10.00" fill="#000000">chig::EntryNodeType</text>
</g>
<!-- Node0&#45;&gt;Node4 -->
<g id="edge4" class="edge">
<title>Node0&#45;&gt;Node4</title>
<path fill="none" stroke="#191970" d="M102.4342,-149.7437C116.4857,-151.4228 131.5896,-153.2277 145.7713,-154.9224"/>
<polygon fill="#191970" stroke="#191970" points="102.7615,-146.258 92.4168,-148.5467 101.9309,-153.2086 102.7615,-146.258"/>
</g>
<!-- Node5 -->
<g id="node6" class="node">
<title>Node5</title>
<polygon fill="#ffffff" stroke="#bfbfbf" points="149.5,-114.5 149.5,-133.5 260.5,-133.5 260.5,-114.5 149.5,-114.5"/>
<text text-anchor="middle" x="205" y="-121.5" font-family="Helvetica,sans-Serif" font-size="10.00" fill="#000000">chig::ExitNodeType</text>
</g>
<!-- Node0&#45;&gt;Node5 -->
<g id="edge5" class="edge">
<title>Node0&#45;&gt;Node5</title>
<path fill="none" stroke="#191970" d="M102.6727,-136.2278C117.8087,-134.4191 134.1511,-132.4662 149.2377,-130.6634"/>
<polygon fill="#191970" stroke="#191970" points="101.9309,-132.7914 92.4168,-137.4533 102.7615,-139.742 101.9309,-132.7914"/>
</g>
<!-- Node6 -->
<g id="node7" class="node">
<title>Node6</title>
<g id="a_node7"><a xlink:title="NodeType for conditionals. ">
<polygon fill="#ffffff" stroke="#bfbfbf" points="155.5,-76.5 155.5,-95.5 254.5,-95.5 254.5,-76.5 155.5,-76.5"/>
<text text-anchor="middle" x="205" y="-83.5" font-family="Helvetica,sans-Serif" font-size="10.00" fill="#000000">chig::IfNodeType</text>
</a>
</g>
</g>
<!-- Node0&#45;&gt;Node6 -->
<g id="edge6" class="edge">
<title>Node0&#45;&gt;Node6</title>
<path fill="none" stroke="#191970" d="M73.2697,-128.7553C88.9674,-120.9664 109.2441,-111.5911 128,-105 138.2623,-101.3937 149.5235,-98.2037 160.1899,-95.5166"/>
<polygon fill="#191970" stroke="#191970" points="71.4931,-125.7313 64.1419,-133.3609 74.6465,-131.9809 71.4931,-125.7313"/>
</g>
<!-- Node7 -->
<g id="node8" class="node">
<title>Node7</title>
<polygon fill="#ffffff" stroke="#bfbfbf" points="128,-38.5 128,-57.5 282,-57.5 282,-38.5 128,-38.5"/>
<text text-anchor="middle" x="205" y="-45.5" font-family="Helvetica,sans-Serif" font-size="10.00" fill="#000000">chig::JsonFuncCallNodeType</text>
</g>
<!-- Node0&#45;&gt;Node7 -->
<g id="edge7" class="edge">
<title>Node0&#45;&gt;Node7</title>
<path fill="none" stroke="#191970" d="M59.9759,-125.6814C74.9767,-108.2545 100.3996,-81.8881 128,-67 135.1498,-63.1433 143.094,-60.055 151.0865,-57.5859"/>
<polygon fill="#191970" stroke="#191970" points="57.2243,-123.5157 53.4851,-133.4288 62.5901,-128.0111 57.2243,-123.5157"/>
</g>
<!-- Node8 -->
<g id="node9" class="node">
<title>Node8</title>
<polygon fill="#ffffff" stroke="#bfbfbf" points="129,-.5 129,-19.5 281,-19.5 281,-.5 129,-.5"/>
<text text-anchor="middle" x="205" y="-7.5" font-family="Helvetica,sans-Serif" font-size="10.00" fill="#000000">chig::StringLiteralNodeType</text>
</g>
<!-- Node0&#45;&gt;Node8 -->
<g id="edge8" class="edge">
<title>Node0&#45;&gt;Node8</title>
<path fill="none" stroke="#191970" d="M54.4658,-123.8896C66.8361,-98.242 92.3219,-53.1258 128,-29 133.703,-25.1436 140.1156,-22.0688 146.7431,-19.6174"/>
<polygon fill="#191970" stroke="#191970" points="51.1444,-122.7321 50.1073,-133.2761 57.4933,-125.6802 51.1444,-122.7321"/>
</g>
</g>
</svg>
