<?xml version="1.0" encoding="UTF-8" standalone="no"?>
<!DOCTYPE svg PUBLIC "-//W3C//DTD SVG 1.1//EN"
 "http://www.w3.org/Graphics/SVG/1.1/DTD/svg11.dtd">
<!-- Generated by graphviz version 2.40.1 (20161225.0304)
 -->
<!-- Title: chi::NodeInstance::setType Pages: 1 -->
<svg width="1038pt" height="847pt"
 viewBox="0.00 0.00 1038.00 846.50" xmlns="http://www.w3.org/2000/svg" xmlns:xlink="http://www.w3.org/1999/xlink">
<g id="graph0" class="graph" transform="scale(1 1) rotate(0) translate(4 842.5)">
<title>chi::NodeInstance::setType</title>
<polygon fill="#ffffff" stroke="transparent" points="-4,4 -4,-842.5 1034,-842.5 1034,4 -4,4"/>
<!-- Node119 -->
<g id="node1" class="node">
<title>Node119</title>
<polygon fill="#bfbfbf" stroke="#000000" points="0,-223 0,-253 101,-253 101,-223 0,-223"/>
<text text-anchor="start" x="8" y="-241" font-family="Helvetica,sans-Serif" font-size="10.00" fill="#000000">chi::NodeInstance::</text>
<text text-anchor="middle" x="50.5" y="-230" font-family="Helvetica,sans-Serif" font-size="10.00" fill="#000000">setType</text>
</g>
<!-- Node120 -->
<g id="node2" class="node">
<title>Node120</title>
<g id="a_node2"><a xlink:href="structchi_1_1NodeType.html#a7d2edfc21ff54a1ff8ad98fffb969268" target="_top" xlink:title="Get the data inputs for the node. ">
<polygon fill="#ffffff" stroke="#000000" points="551,-114.5 551,-133.5 682,-133.5 682,-114.5 551,-114.5"/>
<text text-anchor="middle" x="616.5" y="-121.5" font-family="Helvetica,sans-Serif" font-size="10.00" fill="#000000">chi::NodeType::dataInputs</text>
</a>
</g>
</g>
<!-- Node119&#45;&gt;Node120 -->
<g id="edge1" class="edge">
<title>Node119&#45;&gt;Node120</title>
<path fill="none" stroke="#191970" d="M101.2268,-227.7829C206.608,-206.5577 448.6003,-157.8173 559.3166,-135.5175"/>
<polygon fill="#191970" stroke="#191970" points="560.1818,-138.9136 569.2938,-133.508 558.7996,-132.0514 560.1818,-138.9136"/>
</g>
<!-- Node121 -->
<g id="node3" class="node">
<title>Node121</title>
<g id="a_node3"><a xlink:href="structchi_1_1NodeType.html#aade37588d98e93b19a9a47e16c850684" target="_top" xlink:title="Get the data outputs for the node. ">
<polygon fill="#ffffff" stroke="#000000" points="547,-76.5 547,-95.5 686,-95.5 686,-76.5 547,-76.5"/>
<text text-anchor="middle" x="616.5" y="-83.5" font-family="Helvetica,sans-Serif" font-size="10.00" fill="#000000">chi::NodeType::dataOutputs</text>
</a>
</g>
</g>
<!-- Node119&#45;&gt;Node121 -->
<g id="edge2" class="edge">
<title>Node119&#45;&gt;Node121</title>
<path fill="none" stroke="#191970" d="M77.4767,-222.9363C94.2066,-214.0952 116.3738,-203.2675 137,-196 277.8727,-146.3643 450.0384,-113.2112 545.0055,-97.1841"/>
<polygon fill="#191970" stroke="#191970" points="545.7881,-100.6019 555.0738,-95.5004 544.6334,-93.6978 545.7881,-100.6019"/>
</g>
<!-- Node122 -->
<g id="node4" class="node">
<title>Node122</title>
<g id="a_node4"><a xlink:href="namespacechi.html#a4694f9910cf90fd7c202fe117c4f257e" target="_top" xlink:title="Disconnect a data connection. ">
<polygon fill="#ffffff" stroke="#000000" points="140,-342.5 140,-361.5 243,-361.5 243,-342.5 140,-342.5"/>
<text text-anchor="middle" x="191.5" y="-349.5" font-family="Helvetica,sans-Serif" font-size="10.00" fill="#000000">chi::disconnectData</text>
</a>
</g>
</g>
<!-- Node119&#45;&gt;Node122 -->
<g id="edge3" class="edge">
<title>Node119&#45;&gt;Node122</title>
<path fill="none" stroke="#191970" d="M69.2237,-253.1383C95.8566,-274.6713 144.4601,-313.9678 171.6809,-335.976"/>
<polygon fill="#191970" stroke="#191970" points="169.7356,-338.9041 179.7124,-342.4696 174.1367,-333.4607 169.7356,-338.9041"/>
</g>
<!-- Node126 -->
<g id="node8" class="node">
<title>Node126</title>
<g id="a_node8"><a xlink:href="structchi_1_1NodeInstance.html#a72d113cfee45f4017adf28b034c6f215" target="_top" xlink:title="Get the containing GraphModule. ">
<polygon fill="#ffffff" stroke="#000000" points="282,-579 282,-609 383,-609 383,-579 282,-579"/>
<text text-anchor="start" x="290" y="-597" font-family="Helvetica,sans-Serif" font-size="10.00" fill="#000000">chi::NodeInstance::</text>
<text text-anchor="middle" x="332.5" y="-586" font-family="Helvetica,sans-Serif" font-size="10.00" fill="#000000">module</text>
</a>
</g>
</g>
<!-- Node119&#45;&gt;Node126 -->
<g id="edge51" class="edge">
<title>Node119&#45;&gt;Node126</title>
<path fill="none" stroke="#191970" d="M58.041,-253.0845C83.5399,-302.8899 171.1703,-464.5661 282,-564 285.6506,-567.2752 289.7118,-570.3786 293.9007,-573.2592"/>
<polygon fill="#191970" stroke="#191970" points="292.2826,-576.3798 302.5872,-578.8427 296.0675,-570.4913 292.2826,-576.3798"/>
</g>
<!-- Node134 -->
<g id="node16" class="node">
<title>Node134</title>
<g id="a_node16"><a xlink:href="structchi_1_1NodeInstance.html#a5d6678d5a90e6b1adb7dafb868b974b1" target="_top" xlink:title="Get the type of the instance. ">
<polygon fill="#ffffff" stroke="#000000" points="735.5,-734.5 735.5,-753.5 855.5,-753.5 855.5,-734.5 735.5,-734.5"/>
<text text-anchor="middle" x="795.5" y="-741.5" font-family="Helvetica,sans-Serif" font-size="10.00" fill="#000000">chi::NodeInstance::type</text>
</a>
</g>
</g>
<!-- Node119&#45;&gt;Node134 -->
<g id="edge52" class="edge">
<title>Node119&#45;&gt;Node134</title>
<path fill="none" stroke="#191970" d="M52.8498,-253.0277C60.3834,-298.7266 86.4467,-439.357 137,-545 201.7306,-680.2697 182.5402,-820 332.5,-820 332.5,-820 332.5,-820 465,-820 575.7559,-820 702.2008,-778.9616 761.4712,-757.1975"/>
<polygon fill="#191970" stroke="#191970" points="762.9166,-760.3942 771.0673,-753.6255 760.4745,-753.8339 762.9166,-760.3942"/>
</g>
<!-- Node135 -->
<g id="node17" class="node">
<title>Node135</title>
<g id="a_node17"><a xlink:href="structchi_1_1ChiModule.html#af3cdb7e3d333fedc74ad862dcc5bca9f" target="_top" xlink:title="Update the last edit time, signifying that it&#39;s been edited. ">
<polygon fill="#ffffff" stroke="#000000" points="728,-261 728,-291 863,-291 863,-261 728,-261"/>
<text text-anchor="start" x="736" y="-279" font-family="Helvetica,sans-Serif" font-size="10.00" fill="#000000">chi::ChiModule::updateLast</text>
<text text-anchor="middle" x="795.5" y="-268" font-family="Helvetica,sans-Serif" font-size="10.00" fill="#000000">EditTime</text>
</a>
</g>
</g>
<!-- Node119&#45;&gt;Node135 -->
<g id="edge53" class="edge">
<title>Node119&#45;&gt;Node135</title>
<path fill="none" stroke="#191970" d="M61.7825,-222.7727C96.6109,-177.6864 207.6433,-48 332.5,-48 332.5,-48 332.5,-48 465,-48 563.5846,-48 609.0553,-5.3686 686,-67 727.47,-100.2167 697.3615,-133.925 722,-181 736.0039,-207.7562 757.6853,-234.6423 773.8762,-252.9487"/>
<polygon fill="#191970" stroke="#191970" points="771.5878,-255.6377 780.8816,-260.7247 776.7886,-250.9524 771.5878,-255.6377"/>
</g>
<!-- Node137 -->
<g id="node19" class="node">
<title>Node137</title>
<g id="a_node19"><a xlink:href="namespacechi.html#a103b99abd766aa4d303a5004fe783c03" target="_top" xlink:title="Disconnect a exec connection. ">
<polygon fill="#ffffff" stroke="#000000" points="564,-734.5 564,-753.5 669,-753.5 669,-734.5 564,-734.5"/>
<text text-anchor="middle" x="616.5" y="-741.5" font-family="Helvetica,sans-Serif" font-size="10.00" fill="#000000">chi::disconnectExec</text>
</a>
</g>
</g>
<!-- Node119&#45;&gt;Node137 -->
<g id="edge49" class="edge">
<title>Node119&#45;&gt;Node137</title>
<path fill="none" stroke="#191970" d="M53.7895,-253.1642C62.6522,-291.8279 89.6159,-396.3066 137,-471 186.3289,-548.759 207.6518,-564.6663 282,-619 367.0385,-681.1462 486.5298,-715.8597 557.291,-732.1807"/>
<polygon fill="#191970" stroke="#191970" points="556.8423,-735.6675 567.3677,-734.4564 558.3844,-728.8394 556.8423,-735.6675"/>
</g>
<!-- Node141 -->
<g id="node23" class="node">
<title>Node141</title>
<g id="a_node23"><a xlink:href="structchi_1_1NodeInstance.html#aa82e9350339e553aa56d2bac1d3a3834" target="_top" xlink:title="Get the ID of the instance, unique to the graph. ">
<polygon fill="#ffffff" stroke="#000000" points="137,-.5 137,-19.5 246,-19.5 246,-.5 137,-.5"/>
<text text-anchor="middle" x="191.5" y="-7.5" font-family="Helvetica,sans-Serif" font-size="10.00" fill="#000000">chi::NodeInstance::id</text>
</a>
</g>
</g>
<!-- Node119&#45;&gt;Node141 -->
<g id="edge50" class="edge">
<title>Node119&#45;&gt;Node141</title>
<path fill="none" stroke="#191970" d="M52.9857,-222.8123C59.7931,-185.768 82.0272,-89.7353 137,-34 140.7162,-30.2323 145.1252,-27.0117 149.8014,-24.2702"/>
<polygon fill="#191970" stroke="#191970" points="151.6949,-27.2334 159.0114,-19.5705 148.5132,-20.9982 151.6949,-27.2334"/>
</g>
<!-- Node122&#45;&gt;Node120 -->
<g id="edge6" class="edge">
<title>Node122&#45;&gt;Node120</title>
<path fill="none" stroke="#191970" d="M196.0362,-342.1979C207.179,-319.2556 238.2099,-261.8327 282,-233 369.5997,-175.3217 418.604,-225.6335 511,-176 530.1209,-165.7286 527.998,-153.4898 547,-143 551.1614,-140.7028 555.6186,-138.6689 560.1923,-136.8708"/>
<polygon fill="#191970" stroke="#191970" points="561.4323,-140.1447 569.6864,-133.5023 559.0916,-133.5476 561.4323,-140.1447"/>
</g>
<!-- Node122&#45;&gt;Node121 -->
<g id="edge7" class="edge">
<title>Node122&#45;&gt;Node121</title>
<path fill="none" stroke="#191970" d="M194.4704,-342.4978C203.3029,-315.7652 231.9517,-239.1811 282,-198 355.7339,-137.3297 463.7323,-109.0164 536.9068,-96.1512"/>
<polygon fill="#191970" stroke="#191970" points="537.7217,-99.563 546.9937,-94.4366 536.5486,-92.662 537.7217,-99.563"/>
</g>
<!-- Node123 -->
<g id="node5" class="node">
<title>Node123</title>
<g id="a_node5"><a xlink:href="structchi_1_1Result.html#a59ef40f4a327cbdea263d6e4b5af2ad8" target="_top" xlink:title="Add a entry to the result, either a warning or an error. ">
<polygon fill="#ffffff" stroke="#000000" points="741.5,-408.5 741.5,-427.5 849.5,-427.5 849.5,-408.5 741.5,-408.5"/>
<text text-anchor="middle" x="795.5" y="-415.5" font-family="Helvetica,sans-Serif" font-size="10.00" fill="#000000">chi::Result::addEntry</text>
</a>
</g>
</g>
<!-- Node122&#45;&gt;Node123 -->
<g id="edge4" class="edge">
<title>Node122&#45;&gt;Node123</title>
<path fill="none" stroke="#191970" d="M220.3019,-342.464C298.3088,-318.2652 519.0254,-260.6633 686,-323 727.3964,-338.4545 763.5152,-377.3943 782.1245,-400.3369"/>
<polygon fill="#191970" stroke="#191970" points="779.4343,-402.5779 788.3739,-408.2643 784.9316,-398.2443 779.4343,-402.5779"/>
</g>
<!-- Node125 -->
<g id="node7" class="node">
<title>Node125</title>
<g id="a_node7"><a xlink:href="structchi_1_1NodeInstance.html#a8f64930fd9578431a11cad0702b4100c" target="_top" xlink:title="Get the containing GraphFunction. ">
<polygon fill="#ffffff" stroke="#000000" points="566,-419 566,-449 667,-449 667,-419 566,-419"/>
<text text-anchor="start" x="574" y="-437" font-family="Helvetica,sans-Serif" font-size="10.00" fill="#000000">chi::NodeInstance::</text>
<text text-anchor="middle" x="616.5" y="-426" font-family="Helvetica,sans-Serif" font-size="10.00" fill="#000000">function</text>
</a>
</g>
</g>
<!-- Node122&#45;&gt;Node125 -->
<g id="edge8" class="edge">
<title>Node122&#45;&gt;Node125</title>
<path fill="none" stroke="#191970" d="M241.0847,-361.5669C319.358,-376.6691 471.3322,-405.9912 555.9393,-422.3153"/>
<polygon fill="#191970" stroke="#191970" points="555.4318,-425.7819 565.9138,-424.2398 556.758,-418.9087 555.4318,-425.7819"/>
</g>
<!-- Node122&#45;&gt;Node126 -->
<g id="edge9" class="edge">
<title>Node122&#45;&gt;Node126</title>
<path fill="none" stroke="#191970" d="M198.5124,-361.7846C209.0163,-382.0546 229.3779,-427.8172 246,-467 262.5029,-505.9016 254.406,-522.9961 282,-555 288.3574,-562.3734 296.9963,-568.4195 305.3309,-573.5696"/>
<polygon fill="#191970" stroke="#191970" points="303.7531,-576.704 314.1331,-578.8269 307.3425,-570.6943 303.7531,-576.704"/>
</g>
<!-- Node128 -->
<g id="node10" class="node">
<title>Node128</title>
<g id="a_node10"><a xlink:href="structchi_1_1NodeType.html#a7031e3c04e9a0227b09f8f854ce8b7f9" target="_top" xlink:title="Get the qualified name of the node type, like module.name():name() ">
<polygon fill="#ffffff" stroke="#000000" points="722,-563.5 722,-582.5 869,-582.5 869,-563.5 722,-563.5"/>
<text text-anchor="middle" x="795.5" y="-570.5" font-family="Helvetica,sans-Serif" font-size="10.00" fill="#000000">chi::NodeType::qualifiedName</text>
</a>
</g>
</g>
<!-- Node122&#45;&gt;Node128 -->
<g id="edge44" class="edge">
<title>Node122&#45;&gt;Node128</title>
<path fill="none" stroke="#191970" d="M211.7967,-361.5101C230.0142,-369.9162 257.5684,-382.3117 282,-392 456.7496,-461.2969 669.8896,-532.1612 756.3093,-560.3363"/>
<polygon fill="#191970" stroke="#191970" points="755.3759,-563.7131 765.9682,-563.4794 757.5421,-557.0567 755.3759,-563.7131"/>
</g>
<!-- Node132 -->
<g id="node14" class="node">
<title>Node132</title>
<g id="a_node14"><a xlink:href="structchi_1_1NodeType.html#ac99bef32e3e5e564119dbb8de69d2273" target="_top" xlink:title="Create the JSON necessary to store the object. ">
<polygon fill="#ffffff" stroke="#000000" points="556.5,-152.5 556.5,-171.5 676.5,-171.5 676.5,-152.5 556.5,-152.5"/>
<text text-anchor="middle" x="616.5" y="-159.5" font-family="Helvetica,sans-Serif" font-size="10.00" fill="#000000">chi::NodeType::toJSON</text>
</a>
</g>
</g>
<!-- Node122&#45;&gt;Node132 -->
<g id="edge46" class="edge">
<title>Node122&#45;&gt;Node132</title>
<path fill="none" stroke="#191970" d="M198.1959,-342.3109C211.7011,-323.5694 244.1645,-282.4062 282,-262 373.5262,-212.6363 416.6438,-257.7119 511,-214 529.392,-205.4796 529.1803,-195.6604 547,-186 554.8275,-181.7566 563.5489,-178.0439 572.0961,-174.8876"/>
<polygon fill="#191970" stroke="#191970" points="573.3291,-178.1644 581.6152,-171.562 571.0203,-171.5561 573.3291,-178.1644"/>
</g>
<!-- Node122&#45;&gt;Node134 -->
<g id="edge47" class="edge">
<title>Node122&#45;&gt;Node134</title>
<path fill="none" stroke="#191970" d="M192.2742,-361.7239C195.733,-399.2762 212.7963,-536.8248 282,-619 368.3446,-721.5291 417.0867,-729.9827 547,-763 616.8335,-780.7481 700.966,-767.3662 751.2447,-755.8442"/>
<polygon fill="#191970" stroke="#191970" points="752.2149,-759.2114 761.1386,-753.5002 750.601,-752.3999 752.2149,-759.2114"/>
</g>
<!-- Node122&#45;&gt;Node135 -->
<g id="edge48" class="edge">
<title>Node122&#45;&gt;Node135</title>
<path fill="none" stroke="#191970" d="M204.1704,-342.4778C220.9661,-330.4372 251.99,-310.1731 282,-301 430.7464,-255.5331 614.9303,-260.3823 717.3787,-268.1136"/>
<polygon fill="#191970" stroke="#191970" points="717.3969,-271.6257 727.64,-268.9185 717.9443,-264.6472 717.3969,-271.6257"/>
</g>
<!-- Node139 -->
<g id="node21" class="node">
<title>Node139</title>
<g id="a_node21"><a xlink:href="structchi_1_1NodeInstance.html#a993d848a1b95077007e232d177f58308" target="_top" xlink:title="Get the ID as a string. ">
<polygon fill="#ffffff" stroke="#000000" points="745,-808 745,-838 846,-838 846,-808 745,-808"/>
<text text-anchor="start" x="753" y="-826" font-family="Helvetica,sans-Serif" font-size="10.00" fill="#000000">chi::NodeInstance::</text>
<text text-anchor="middle" x="795.5" y="-815" font-family="Helvetica,sans-Serif" font-size="10.00" fill="#000000">stringId</text>
</a>
</g>
</g>
<!-- Node122&#45;&gt;Node139 -->
<g id="edge45" class="edge">
<title>Node122&#45;&gt;Node139</title>
<path fill="none" stroke="#191970" d="M193.1414,-361.5533C201.5469,-409.6118 240.9708,-624.6947 282,-677 391.3067,-816.3475 623.534,-829.0137 734.2778,-826.4776"/>
<polygon fill="#191970" stroke="#191970" points="734.7094,-829.9669 744.6075,-826.1884 734.5135,-822.9697 734.7094,-829.9669"/>
</g>
<!-- Node124 -->
<g id="node6" class="node">
<title>Node124</title>
<g id="a_node6"><a xlink:href="structchi_1_1Result.html#aa078d3cb3dfb2fb63e81b71acea036e0" target="_top" xlink:title="Get the JSON associated with the context that&#39;s been added. ">
<polygon fill="#ffffff" stroke="#000000" points="906.5,-408.5 906.5,-427.5 1028.5,-427.5 1028.5,-408.5 906.5,-408.5"/>
<text text-anchor="middle" x="967.5" y="-415.5" font-family="Helvetica,sans-Serif" font-size="10.00" fill="#000000">chi::Result::contextJson</text>
</a>
</g>
</g>
<!-- Node123&#45;&gt;Node124 -->
<g id="edge5" class="edge">
<title>Node123&#45;&gt;Node124</title>
<path fill="none" stroke="#191970" d="M849.9219,-418C864.6156,-418 880.7374,-418 896.2052,-418"/>
<polygon fill="#191970" stroke="#191970" points="896.2538,-421.5001 906.2537,-418 896.2537,-414.5001 896.2538,-421.5001"/>
</g>
<!-- Node126&#45;&gt;Node122 -->
<g id="edge42" class="edge">
<title>Node126&#45;&gt;Node122</title>
<path fill="none" stroke="#191970" d="M287.6495,-578.7187C285.632,-576.9177 283.7314,-575.0081 282,-573 254.406,-540.9961 262.5029,-523.9016 246,-485 228.8885,-444.6638 207.8143,-397.3546 197.6107,-371.1211"/>
<polygon fill="#191970" stroke="#191970" points="200.8179,-369.7039 194.0511,-361.5515 194.2571,-372.1444 200.8179,-369.7039"/>
</g>
<!-- Node127 -->
<g id="node9" class="node">
<title>Node127</title>
<g id="a_node9"><a xlink:href="namespacechi.html#ab69b013712d615bf9901d7bf2b0b11fb" target="_top" xlink:title="Connects two nodes&#39; data connections. ">
<polygon fill="#ffffff" stroke="#000000" points="420,-342.5 420,-361.5 510,-361.5 510,-342.5 420,-342.5"/>
<text text-anchor="middle" x="465" y="-349.5" font-family="Helvetica,sans-Serif" font-size="10.00" fill="#000000">chi::connectData</text>
</a>
</g>
</g>
<!-- Node126&#45;&gt;Node127 -->
<g id="edge10" class="edge">
<title>Node126&#45;&gt;Node127</title>
<path fill="none" stroke="#191970" d="M339.0707,-578.8509C359.9847,-536.2035 425.2367,-416.6996 452.6624,-370.4051"/>
<polygon fill="#191970" stroke="#191970" points="455.7493,-372.0635 457.911,-361.6915 449.7531,-368.4516 455.7493,-372.0635"/>
</g>
<!-- Node136 -->
<g id="node18" class="node">
<title>Node136</title>
<g id="a_node18"><a xlink:href="namespacechi.html#a79423caa23a58e57b775c5137a03ee31" target="_top" xlink:title="Connects two nodes&#39; exec connections. ">
<polygon fill="#ffffff" stroke="#000000" points="419,-584.5 419,-603.5 511,-603.5 511,-584.5 419,-584.5"/>
<text text-anchor="middle" x="465" y="-591.5" font-family="Helvetica,sans-Serif" font-size="10.00" fill="#000000">chi::connectExec</text>
</a>
</g>
</g>
<!-- Node126&#45;&gt;Node136 -->
<g id="edge25" class="edge">
<title>Node126&#45;&gt;Node136</title>
<path fill="none" stroke="#191970" d="M383.349,-587.4148C391.6505,-587.2342 400.2935,-587.202 408.7165,-587.3184"/>
<polygon fill="#191970" stroke="#191970" points="408.7717,-590.8202 418.8439,-587.5339 408.9207,-583.8218 408.7717,-590.8202"/>
</g>
<!-- Node126&#45;&gt;Node137 -->
<g id="edge43" class="edge">
<title>Node126&#45;&gt;Node137</title>
<path fill="none" stroke="#191970" d="M375.6436,-609.161C412.1651,-626.5863 465.6544,-655.5065 511,-683 527.4433,-692.9697 529.9925,-698.0266 547,-707 563.1091,-715.4994 582.387,-723.0774 596.5487,-729.6719"/>
<polygon fill="#191970" stroke="#191970" points="595.3263,-732.9732 605.8379,-734.2991 598.4474,-726.7075 595.3263,-732.9732"/>
</g>
<!-- Node127&#45;&gt;Node120 -->
<g id="edge12" class="edge">
<title>Node127&#45;&gt;Node120</title>
<path fill="none" stroke="#191970" d="M468.1915,-342.4215C481.2846,-303.3515 530.9434,-157.4239 547,-143 548.739,-141.4379 550.5944,-140.0026 552.54,-138.6839"/>
<polygon fill="#191970" stroke="#191970" points="554.5594,-141.5641 561.5668,-133.6175 551.1333,-135.4598 554.5594,-141.5641"/>
</g>
<!-- Node127&#45;&gt;Node121 -->
<g id="edge13" class="edge">
<title>Node127&#45;&gt;Node121</title>
<path fill="none" stroke="#191970" d="M467.583,-342.4935C479.4085,-299.2474 528.5937,-122.444 547,-105 548.6598,-103.427 550.4369,-101.9818 552.3062,-100.6541"/>
<polygon fill="#191970" stroke="#191970" points="554.154,-103.628 561.014,-95.5539 550.6162,-97.5878 554.154,-103.628"/>
</g>
<!-- Node127&#45;&gt;Node122 -->
<g id="edge14" class="edge">
<title>Node127&#45;&gt;Node122</title>
<path fill="none" stroke="#191970" d="M419.7957,-352C374.3717,-352 304.0261,-352 253.4269,-352"/>
<polygon fill="#191970" stroke="#191970" points="253.2648,-348.5001 243.2648,-352 253.2648,-355.5001 253.2648,-348.5001"/>
</g>
<!-- Node127&#45;&gt;Node123 -->
<g id="edge11" class="edge">
<title>Node127&#45;&gt;Node123</title>
<path fill="none" stroke="#191970" d="M498.1648,-342.4127C542.253,-331.3323 622.0417,-317.1251 686,-338 723.9656,-350.3913 759.6948,-381.4858 779.4824,-401.0571"/>
<polygon fill="#191970" stroke="#191970" points="777.2093,-403.7373 786.7175,-408.4112 782.1993,-398.8281 777.2093,-403.7373"/>
</g>
<!-- Node127&#45;&gt;Node125 -->
<g id="edge15" class="edge">
<title>Node127&#45;&gt;Node125</title>
<path fill="none" stroke="#191970" d="M478.5315,-361.5171C494.4728,-372.5056 521.9633,-390.7638 547,-404 554.0255,-407.7142 561.6097,-411.3475 569.0967,-414.731"/>
<polygon fill="#191970" stroke="#191970" points="567.9169,-418.036 578.4788,-418.8704 570.7425,-411.6316 567.9169,-418.036"/>
</g>
<!-- Node127&#45;&gt;Node126 -->
<g id="edge16" class="edge">
<title>Node127&#45;&gt;Node126</title>
<path fill="none" stroke="#191970" d="M461.0345,-361.7482C444.259,-397.2555 378.592,-517.8712 348.1513,-569.9608"/>
<polygon fill="#191970" stroke="#191970" points="344.9706,-568.4637 342.8971,-578.8537 350.9973,-572.0246 344.9706,-568.4637"/>
</g>
<!-- Node127&#45;&gt;Node128 -->
<g id="edge17" class="edge">
<title>Node127&#45;&gt;Node128</title>
<path fill="none" stroke="#191970" d="M510.1152,-345.4712C557.8573,-340.9986 633.4211,-341.1123 686,-376 690.2228,-378.802 759.3577,-506.1495 785.5493,-554.5755"/>
<polygon fill="#191970" stroke="#191970" points="782.4817,-556.2611 790.3158,-563.3939 788.6397,-552.9325 782.4817,-556.2611"/>
</g>
<!-- Node127&#45;&gt;Node132 -->
<g id="edge21" class="edge">
<title>Node127&#45;&gt;Node132</title>
<path fill="none" stroke="#191970" d="M472.7212,-342.3167C496.8264,-312.0857 570.9421,-219.1353 602.2773,-179.8371"/>
<polygon fill="#191970" stroke="#191970" points="605.1148,-181.8925 608.6127,-171.8917 599.6417,-177.5284 605.1148,-181.8925"/>
</g>
<!-- Node127&#45;&gt;Node134 -->
<g id="edge23" class="edge">
<title>Node127&#45;&gt;Node134</title>
<path fill="none" stroke="#191970" d="M501.8347,-361.5282C564.5041,-377.7579 685.2309,-409.1123 686,-410 778.2739,-516.4966 629.5298,-618.6738 722,-725 723.5109,-726.7373 725.1578,-728.3259 726.9152,-729.7781"/>
<polygon fill="#191970" stroke="#191970" points="724.9811,-732.6952 735.2483,-735.3093 728.8522,-726.863 724.9811,-732.6952"/>
</g>
<!-- Node127&#45;&gt;Node135 -->
<g id="edge24" class="edge">
<title>Node127&#45;&gt;Node135</title>
<path fill="none" stroke="#191970" d="M489.0912,-342.3826C505.2689,-336.1978 527.1722,-328.3475 547,-323 603.5158,-307.7579 668.5607,-295.6447 717.9247,-287.5352"/>
<polygon fill="#191970" stroke="#191970" points="718.5862,-290.9737 727.8961,-285.9164 717.4644,-284.0642 718.5862,-290.9737"/>
</g>
<!-- Node129 -->
<g id="node11" class="node">
<title>Node129</title>
<g id="a_node11"><a xlink:href="structchi_1_1NodeType.html#a4fd551737d6b3bb4d6609f1ee8e054aa" target="_top" xlink:title="Get the ChiModule this NodeType belongs to. ">
<polygon fill="#ffffff" stroke="#000000" points="909,-563.5 909,-582.5 1026,-582.5 1026,-563.5 909,-563.5"/>
<text text-anchor="middle" x="967.5" y="-570.5" font-family="Helvetica,sans-Serif" font-size="10.00" fill="#000000">chi::NodeType::module</text>
</a>
</g>
</g>
<!-- Node128&#45;&gt;Node129 -->
<g id="edge18" class="edge">
<title>Node128&#45;&gt;Node129</title>
<path fill="none" stroke="#191970" d="M869.4417,-573C879.1371,-573 889.0412,-573 898.6477,-573"/>
<polygon fill="#191970" stroke="#191970" points="898.9311,-576.5001 908.9311,-573 898.931,-569.5001 898.9311,-576.5001"/>
</g>
<!-- Node130 -->
<g id="node12" class="node">
<title>Node130</title>
<g id="a_node12"><a xlink:href="structchi_1_1ChiModule.html#a92ab6d528ac41a91b6ac21ededfccc38" target="_top" xlink:title="Get the full name of the module. ">
<polygon fill="#ffffff" stroke="#000000" points="905,-525.5 905,-544.5 1030,-544.5 1030,-525.5 905,-525.5"/>
<text text-anchor="middle" x="967.5" y="-532.5" font-family="Helvetica,sans-Serif" font-size="10.00" fill="#000000">chi::ChiModule::fullName</text>
</a>
</g>
</g>
<!-- Node128&#45;&gt;Node130 -->
<g id="edge19" class="edge">
<title>Node128&#45;&gt;Node130</title>
<path fill="none" stroke="#191970" d="M838.9029,-563.411C861.9068,-558.3287 890.3509,-552.0446 914.6342,-546.6797"/>
<polygon fill="#191970" stroke="#191970" points="915.3998,-550.095 924.4092,-544.5201 913.8896,-543.2598 915.3998,-550.095"/>
</g>
<!-- Node131 -->
<g id="node13" class="node">
<title>Node131</title>
<g id="a_node13"><a xlink:href="structchi_1_1NodeType.html#ad301375a4b84ddc699337e285ee78cc3" target="_top" xlink:title="Get the name of the NodeType in the ChiModule. ">
<polygon fill="#ffffff" stroke="#000000" points="912.5,-601.5 912.5,-620.5 1022.5,-620.5 1022.5,-601.5 912.5,-601.5"/>
<text text-anchor="middle" x="967.5" y="-608.5" font-family="Helvetica,sans-Serif" font-size="10.00" fill="#000000">chi::NodeType::name</text>
</a>
</g>
</g>
<!-- Node128&#45;&gt;Node131 -->
<g id="edge20" class="edge">
<title>Node128&#45;&gt;Node131</title>
<path fill="none" stroke="#191970" d="M838.9029,-582.589C861.9068,-587.6713 890.3509,-593.9554 914.6342,-599.3203"/>
<polygon fill="#191970" stroke="#191970" points="913.8896,-602.7402 924.4092,-601.4799 915.3998,-595.905 913.8896,-602.7402"/>
</g>
<!-- Node133 -->
<g id="node15" class="node">
<title>Node133</title>
<g id="a_node15"><a xlink:href="structchi_1_1NodeType.html#a9de5373607ac5fb322665c487010ecf2" target="_top" xlink:title="Clones the type. ">
<polygon fill="#ffffff" stroke="#000000" points="741,-152.5 741,-171.5 850,-171.5 850,-152.5 741,-152.5"/>
<text text-anchor="middle" x="795.5" y="-159.5" font-family="Helvetica,sans-Serif" font-size="10.00" fill="#000000">chi::NodeType::clone</text>
</a>
</g>
</g>
<!-- Node132&#45;&gt;Node133 -->
<g id="edge22" class="edge">
<title>Node132&#45;&gt;Node133</title>
<path fill="none" stroke="#191970" d="M676.6024,-162C694.0073,-162 713.0809,-162 730.7562,-162"/>
<polygon fill="#191970" stroke="#191970" points="730.9785,-165.5001 740.9785,-162 730.9785,-158.5001 730.9785,-165.5001"/>
</g>
<!-- Node136&#45;&gt;Node123 -->
<g id="edge26" class="edge">
<title>Node136&#45;&gt;Node123</title>
<path fill="none" stroke="#191970" d="M488.8469,-584.4913C530.0487,-567.736 616.7961,-531.015 686,-492 718.147,-473.8765 753.123,-449.3158 774.6836,-433.5606"/>
<polygon fill="#191970" stroke="#191970" points="776.8134,-436.3388 782.7888,-427.5898 772.6616,-430.7029 776.8134,-436.3388"/>
</g>
<!-- Node136&#45;&gt;Node125 -->
<g id="edge37" class="edge">
<title>Node136&#45;&gt;Node125</title>
<path fill="none" stroke="#191970" d="M468.6558,-584.4684C478.1264,-560.9289 505.6392,-499.3912 547,-464 551.4779,-460.1684 556.5195,-456.7587 561.7901,-453.7405"/>
<polygon fill="#191970" stroke="#191970" points="563.5737,-456.7576 570.817,-449.0256 560.3329,-450.553 563.5737,-456.7576"/>
</g>
<!-- Node136&#45;&gt;Node126 -->
<g id="edge38" class="edge">
<title>Node136&#45;&gt;Node126</title>
<path fill="none" stroke="#191970" d="M418.8439,-600.4661C410.6926,-600.7032 402.093,-600.7918 393.6066,-600.7319"/>
<polygon fill="#191970" stroke="#191970" points="393.3981,-597.2286 383.349,-600.5852 393.2979,-604.2279 393.3981,-597.2286"/>
</g>
<!-- Node136&#45;&gt;Node128 -->
<g id="edge39" class="edge">
<title>Node136&#45;&gt;Node128</title>
<path fill="none" stroke="#191970" d="M511.3026,-591.0579C563.1568,-587.7631 648.2522,-582.3561 711.8354,-578.3161"/>
<polygon fill="#191970" stroke="#191970" points="712.0891,-581.8071 721.847,-577.6799 711.6452,-574.8212 712.0891,-581.8071"/>
</g>
<!-- Node136&#45;&gt;Node134 -->
<g id="edge40" class="edge">
<title>Node136&#45;&gt;Node134</title>
<path fill="none" stroke="#191970" d="M511.2849,-600.7622C567.9157,-609.8317 659.5396,-627.3312 686,-649 714.9168,-672.6803 693.1907,-701.189 722,-725 724.0445,-726.6898 726.2218,-728.2313 728.4984,-729.6375"/>
<polygon fill="#191970" stroke="#191970" points="727.2129,-732.9137 737.7005,-734.4171 730.4395,-726.7017 727.2129,-732.9137"/>
</g>
<!-- Node136&#45;&gt;Node135 -->
<g id="edge41" class="edge">
<title>Node136&#45;&gt;Node135</title>
<path fill="none" stroke="#191970" d="M469.863,-584.365C480.7124,-563.9036 508.9648,-516.0257 547,-492 600.682,-458.0906 634.782,-496.5276 686,-459 686.2307,-458.831 751.4464,-349.7223 781.1102,-300.0823"/>
<polygon fill="#191970" stroke="#191970" points="784.2506,-301.6502 786.3757,-291.2707 778.2416,-298.0595 784.2506,-301.6502"/>
</g>
<!-- Node136&#45;&gt;Node137 -->
<g id="edge27" class="edge">
<title>Node136&#45;&gt;Node137</title>
<path fill="none" stroke="#191970" d="M481.7344,-603.5341C491.3811,-609.7401 503.1202,-618.6032 511,-629 537.2717,-663.6634 515.5726,-689.9322 547,-720 551.2544,-724.0704 556.2319,-727.4531 561.5339,-730.2638"/>
<polygon fill="#191970" stroke="#191970" points="560.1447,-733.4773 570.6926,-734.4745 563.0688,-727.1172 560.1447,-733.4773"/>
</g>
<!-- Node138 -->
<g id="node20" class="node">
<title>Node138</title>
<g id="a_node20"><a xlink:href="structchi_1_1NodeType.html#ad64eac82c28fd530c943a4605a76c4af" target="_top" xlink:title="Get the execution outputs for the node. ">
<polygon fill="#ffffff" stroke="#000000" points="725,-696.5 725,-715.5 866,-715.5 866,-696.5 725,-696.5"/>
<text text-anchor="middle" x="795.5" y="-703.5" font-family="Helvetica,sans-Serif" font-size="10.00" fill="#000000">chi::NodeType::execOutputs</text>
</a>
</g>
</g>
<!-- Node136&#45;&gt;Node138 -->
<g id="edge36" class="edge">
<title>Node136&#45;&gt;Node138</title>
<path fill="none" stroke="#191970" d="M480.6498,-603.7819C490.137,-610.2005 502.0885,-619.1997 511,-629 531.4113,-651.4471 521.0684,-671.2505 547,-687 601.4591,-720.0757 675.4915,-721.386 728.5588,-716.5313"/>
<polygon fill="#191970" stroke="#191970" points="728.9494,-720.0098 738.5471,-715.5227 728.2461,-713.0452 728.9494,-720.0098"/>
</g>
<!-- Node140 -->
<g id="node22" class="node">
<title>Node140</title>
<g id="a_node22"><a xlink:href="structchi_1_1NodeType.html#a436716b15e57346da8e824c157f926a5" target="_top" xlink:title="Get the execution inputs for the node. ">
<polygon fill="#ffffff" stroke="#000000" points="549.5,-658.5 549.5,-677.5 683.5,-677.5 683.5,-658.5 549.5,-658.5"/>
<text text-anchor="middle" x="616.5" y="-665.5" font-family="Helvetica,sans-Serif" font-size="10.00" fill="#000000">chi::NodeType::execInputs</text>
</a>
</g>
</g>
<!-- Node136&#45;&gt;Node140 -->
<g id="edge35" class="edge">
<title>Node136&#45;&gt;Node140</title>
<path fill="none" stroke="#191970" d="M478.7068,-603.627C494.5878,-614.4751 521.8072,-632.1387 547,-644 555.651,-648.0731 565.1897,-651.8173 574.356,-655.0765"/>
<polygon fill="#191970" stroke="#191970" points="573.502,-658.4836 584.0966,-658.4153 575.7717,-651.8618 573.502,-658.4836"/>
</g>
<!-- Node137&#45;&gt;Node123 -->
<g id="edge28" class="edge">
<title>Node137&#45;&gt;Node123</title>
<path fill="none" stroke="#191970" d="M633.37,-734.4378C649.274,-724.5631 672.6096,-707.7028 686,-687 719.2581,-635.58 699.2907,-610.8719 722,-554 739.6505,-509.7971 768.119,-461.5706 783.9467,-436.1083"/>
<polygon fill="#191970" stroke="#191970" points="786.9865,-437.8491 789.345,-427.5201 781.06,-434.1239 786.9865,-437.8491"/>
</g>
<!-- Node137&#45;&gt;Node126 -->
<g id="edge30" class="edge">
<title>Node137&#45;&gt;Node126</title>
<path fill="none" stroke="#191970" d="M566.9483,-734.4072C560.1447,-731.5352 553.3279,-728.3387 547,-725 529.9925,-716.0266 527.4433,-710.9697 511,-701 458.6902,-669.2841 395.5431,-635.6695 360.1083,-614.4339"/>
<polygon fill="#191970" stroke="#191970" points="361.6574,-611.2787 351.3001,-609.0477 358.0055,-617.2507 361.6574,-611.2787"/>
</g>
<!-- Node137&#45;&gt;Node128 -->
<g id="edge31" class="edge">
<title>Node137&#45;&gt;Node128</title>
<path fill="none" stroke="#191970" d="M629.1774,-734.3391C643.4034,-723.3317 666.9795,-704.5855 686,-687 721.3542,-654.3132 759.6821,-612.8826 780.3009,-590.0473"/>
<polygon fill="#191970" stroke="#191970" points="782.9783,-592.3043 787.0578,-582.5263 777.7711,-587.6261 782.9783,-592.3043"/>
</g>
<!-- Node137&#45;&gt;Node134 -->
<g id="edge33" class="edge">
<title>Node137&#45;&gt;Node134</title>
<path fill="none" stroke="#191970" d="M669.2378,-744C686.7273,-744 706.4838,-744 725.0864,-744"/>
<polygon fill="#191970" stroke="#191970" points="725.2808,-747.5001 735.2808,-744 725.2808,-740.5001 725.2808,-747.5001"/>
</g>
<!-- Node137&#45;&gt;Node135 -->
<g id="edge34" class="edge">
<title>Node137&#45;&gt;Node135</title>
<path fill="none" stroke="#191970" d="M634.6467,-734.4598C651.0053,-724.8189 674.241,-708.3153 686,-687 748.3103,-574.0512 680.018,-520.9734 722,-399 734.9068,-361.5008 760.2423,-323.006 777.5213,-299.298"/>
<polygon fill="#191970" stroke="#191970" points="780.3362,-301.3779 783.4848,-291.2617 774.7149,-297.2064 780.3362,-301.3779"/>
</g>
<!-- Node137&#45;&gt;Node138 -->
<g id="edge29" class="edge">
<title>Node137&#45;&gt;Node138</title>
<path fill="none" stroke="#191970" d="M661.6693,-734.411C685.7159,-729.3061 715.4744,-722.9887 740.8194,-717.6082"/>
<polygon fill="#191970" stroke="#191970" points="741.6004,-721.0205 750.6556,-715.5201 740.1467,-714.1731 741.6004,-721.0205"/>
</g>
<!-- Node137&#45;&gt;Node139 -->
<g id="edge32" class="edge">
<title>Node137&#45;&gt;Node139</title>
<path fill="none" stroke="#191970" d="M638.0916,-753.5292C666.1743,-765.9233 715.896,-787.8675 751.9573,-803.7828"/>
<polygon fill="#191970" stroke="#191970" points="750.7105,-807.0582 761.2723,-807.8939 753.5369,-800.6542 750.7105,-807.0582"/>
</g>
</g>
</svg>
