<?xml version="1.0" encoding="UTF-8" standalone="no"?>
<!DOCTYPE svg PUBLIC "-//W3C//DTD SVG 1.1//EN"
 "http://www.w3.org/Graphics/SVG/1.1/DTD/svg11.dtd">
<!-- Generated by graphviz version 2.40.1 (20161225.0304)
 -->
<!-- Title: chi::GraphFunction::nodes Pages: 1 -->
<!--zoomable 354 -->
<svg id="main" version="1.1" xmlns="http://www.w3.org/2000/svg" xmlns:xlink="http://www.w3.org/1999/xlink" xml:space="preserve" onload="init(evt)">
<style type="text/css"><![CDATA[
.edge:hover path { stroke: red; }
.edge:hover polygon { stroke: red; fill: red; }
]]></style>
<script type="text/javascript"><![CDATA[
var edges = document.getElementsByTagName('g');
if (edges && edges.length) {
  for (var i=0;i<edges.length;i++) {
    if (edges[i].id.substr(0,4)=='edge') {
      edges[i].setAttribute('class','edge');
    }
  }
}
]]></script>
        <defs>
                <circle id="rim" cx="0" cy="0" r="7"/>
                <circle id="rim2" cx="0" cy="0" r="3.5"/>
                <g id="zoomPlus">
                        <use xlink:href="#rim" fill="#404040">
                                <set attributeName="fill" to="#808080" begin="zoomplus.mouseover" end="zoomplus.mouseout"/>
                        </use>
                        <path d="M-4,0h8M0,-4v8" fill="none" stroke="white" stroke-width="1.5" pointer-events="none"/>
                </g>
                <g id="zoomMin">
                        <use xlink:href="#rim" fill="#404040">
                                <set attributeName="fill" to="#808080" begin="zoomminus.mouseover" end="zoomminus.mouseout"/>
                        </use>
                        <path d="M-4,0h8" fill="none" stroke="white" stroke-width="1.5" pointer-events="none"/>
                </g>
                <g id="dirArrow">
                        <path fill="none" stroke="white" stroke-width="1.5" d="M0,-3.0v7 M-2.5,-0.5L0,-3.0L2.5,-0.5"/>
                </g>
               <g id="resetDef">
                       <use xlink:href="#rim2" fill="#404040">
                               <set attributeName="fill" to="#808080" begin="reset.mouseover" end="reset.mouseout"/>
                       </use>
               </g>
        </defs>

<script type="text/javascript">
var viewWidth = 1738;
var viewHeight = 354;
var sectionId = 'dynsection-35';
</script>
<script xlink:href="svgpan.js"/>
<svg id="graph" class="graph">
<g id="viewport">
<title>chi::GraphFunction::nodes</title>
<polygon fill="#ffffff" stroke="transparent" points="-4,4 -4,-349.5 1734,-349.5 1734,4 -4,4"/>
<!-- Node464 -->
<g id="node1" class="node">
<title>Node464</title>
<polygon fill="#bfbfbf" stroke="#000000" points="0,-194.5 0,-224.5 99,-224.5 99,-194.5 0,-194.5"/>
<text text-anchor="start" x="8" y="-212.5" font-family="Helvetica,sans-Serif" font-size="10.00" fill="#000000">chi::GraphFunction</text>
<text text-anchor="middle" x="49.5" y="-201.5" font-family="Helvetica,sans-Serif" font-size="10.00" fill="#000000">::nodes</text>
</g>
<!-- Node465 -->
<g id="node2" class="node">
<title>Node465</title>
<g id="a_node2"><a xlink:href="namespacechi.html#afd8b8d8a207d88359ad1e6a48d8f3bb1" target="_top" xlink:title="Serialize a GraphFunction to json. ">
<polygon fill="#ffffff" stroke="#000000" points="672.5,-250 672.5,-269 801.5,-269 801.5,-250 672.5,-250"/>
<text text-anchor="middle" x="737" y="-257" font-family="Helvetica,sans-Serif" font-size="10.00" fill="#000000">chi::graphFunctionToJson</text>
</a>
</g>
</g>
<!-- Node464&#45;&gt;Node465 -->
<g id="edge1" class="edge">
<title>Node464&#45;&gt;Node465</title>
<path fill="none" stroke="#191970" d="M106.0531,-227.399C115.6485,-230.0429 125.5609,-232.534 135,-234.5 327.2677,-274.5463 561.3175,-269.2997 672.4478,-263.6558"/>
<polygon fill="#191970" stroke="#191970" points="106.7772,-223.9664 96.2015,-224.6041 104.8666,-230.7006 106.7772,-223.9664"/>
</g>
<!-- Node468 -->
<g id="node5" class="node">
<title>Node468</title>
<g id="a_node5"><a xlink:href="structchi_1_1GraphFunction.html#ac75470b92fcf30495c7daab64d999ed8" target="_top" xlink:title="Add a node to the graph. ">
<polygon fill="#ffffff" stroke="#000000" points="166,-194.5 166,-224.5 265,-224.5 265,-194.5 166,-194.5"/>
<text text-anchor="start" x="174" y="-212.5" font-family="Helvetica,sans-Serif" font-size="10.00" fill="#000000">chi::GraphFunction</text>
<text text-anchor="middle" x="215.5" y="-201.5" font-family="Helvetica,sans-Serif" font-size="10.00" fill="#000000">::insertNode</text>
</a>
</g>
</g>
<!-- Node464&#45;&gt;Node468 -->
<g id="edge4" class="edge">
<title>Node464&#45;&gt;Node468</title>
<path fill="none" stroke="#191970" d="M109.3769,-209.5C127.86,-209.5 148.0056,-209.5 165.7297,-209.5"/>
<polygon fill="#191970" stroke="#191970" points="109.3055,-206.0001 99.3055,-209.5 109.3054,-213.0001 109.3055,-206.0001"/>
</g>
<!-- Node472 -->
<g id="node9" class="node">
<title>Node472</title>
<g id="a_node9"><a xlink:href="namespacechi.html#a6a3fedb48e6702c016f996d8a7f445fc" target="_top" xlink:title="Load a GraphFunction–must already exist (use createGraphFunctionDeclarationFromJson) ...">
<polygon fill="#ffffff" stroke="#000000" points="332,-307 332,-326 460,-326 460,-307 332,-307"/>
<text text-anchor="middle" x="396" y="-314" font-family="Helvetica,sans-Serif" font-size="10.00" fill="#000000">chi::jsonToGraphFunction</text>
</a>
</g>
</g>
<!-- Node464&#45;&gt;Node472 -->
<g id="edge18" class="edge">
<title>Node464&#45;&gt;Node472</title>
<path fill="none" stroke="#191970" d="M66.0889,-232.788C81.5027,-252.4066 106.3493,-279.321 135,-292.5 197.4231,-321.2139 277.0125,-324.4044 331.7993,-322.191"/>
<polygon fill="#191970" stroke="#191970" points="68.7222,-230.4686 59.884,-224.6259 63.1497,-234.7049 68.7222,-230.4686"/>
</g>
<!-- Node480 -->
<g id="node17" class="node">
<title>Node480</title>
<g id="a_node17"><a xlink:href="structchi_1_1GraphFunction.html#ad4c3e2b91ad53ad79513e3dfdc07a36c" target="_top" xlink:title="Remove a node from the function. ">
<polygon fill="#ffffff" stroke="#000000" points="166,-88.5 166,-118.5 265,-118.5 265,-88.5 166,-88.5"/>
<text text-anchor="start" x="174" y="-106.5" font-family="Helvetica,sans-Serif" font-size="10.00" fill="#000000">chi::GraphFunction</text>
<text text-anchor="middle" x="215.5" y="-95.5" font-family="Helvetica,sans-Serif" font-size="10.00" fill="#000000">::removeNode</text>
</a>
</g>
</g>
<!-- Node464&#45;&gt;Node480 -->
<g id="edge19" class="edge">
<title>Node464&#45;&gt;Node480</title>
<path fill="none" stroke="#191970" d="M81.9171,-188.7999C114.1836,-168.196 162.936,-137.065 191.7604,-118.659"/>
<polygon fill="#191970" stroke="#191970" points="79.8283,-185.981 73.2838,-194.3128 83.5957,-191.8807 79.8283,-185.981"/>
</g>
<!-- Node483 -->
<g id="node20" class="node">
<title>Node483</title>
<g id="a_node20"><a xlink:href="namespacechi.html#a3e66ba93ae2a152ebc13ec75a15b6e74" target="_top" xlink:title="Make sure that connections connect back and that they have the same types. ">
<polygon fill="#ffffff" stroke="#000000" points="135,-20.5 135,-50.5 296,-50.5 296,-20.5 135,-20.5"/>
<text text-anchor="start" x="143" y="-38.5" font-family="Helvetica,sans-Serif" font-size="10.00" fill="#000000">chi::validateFunctionConnections</text>
<text text-anchor="middle" x="215.5" y="-27.5" font-family="Helvetica,sans-Serif" font-size="10.00" fill="#000000">AreTwoWay</text>
</a>
</g>
</g>
<!-- Node464&#45;&gt;Node483 -->
<g id="edge24" class="edge">
<title>Node464&#45;&gt;Node483</title>
<path fill="none" stroke="#191970" d="M60.9898,-184.9661C75.1813,-156.7256 101.5943,-110.2869 135,-79.5 147.8831,-67.6269 164.5576,-57.8335 179.3866,-50.5246"/>
<polygon fill="#191970" stroke="#191970" points="57.751,-183.6214 56.4883,-194.1407 64.0353,-186.7048 57.751,-183.6214"/>
</g>
<!-- Node466 -->
<g id="node3" class="node">
<title>Node466</title>
<g id="a_node3"><a xlink:href="namespacechi.html#a9a4f3fa54c612f0c559a353bb7382d5a" target="_top" xlink:title="Serialize a JsonModule to json. ">
<polygon fill="#ffffff" stroke="#000000" points="1411.5,-250 1411.5,-269 1534.5,-269 1534.5,-250 1411.5,-250"/>
<text text-anchor="middle" x="1473" y="-257" font-family="Helvetica,sans-Serif" font-size="10.00" fill="#000000">chi::graphModuleToJson</text>
</a>
</g>
</g>
<!-- Node465&#45;&gt;Node466 -->
<g id="edge2" class="edge">
<title>Node465&#45;&gt;Node466</title>
<path fill="none" stroke="#191970" d="M811.8577,-259.5C957.5875,-259.5 1276.8582,-259.5 1411.3407,-259.5"/>
<polygon fill="#191970" stroke="#191970" points="811.6701,-256.0001 801.67,-259.5 811.67,-263.0001 811.6701,-256.0001"/>
</g>
<!-- Node467 -->
<g id="node4" class="node">
<title>Node467</title>
<g id="a_node4"><a xlink:href="structchi_1_1GraphModule.html#a5cd9fb1738336d5d382ebb50753bda3e" target="_top" xlink:title="Serialize to disk in the context. ">
<polygon fill="#ffffff" stroke="#000000" points="1579,-250 1579,-269 1730,-269 1730,-250 1579,-250"/>
<text text-anchor="middle" x="1654.5" y="-257" font-family="Helvetica,sans-Serif" font-size="10.00" fill="#000000">chi::GraphModule::saveToDisk</text>
</a>
</g>
</g>
<!-- Node466&#45;&gt;Node467 -->
<g id="edge3" class="edge">
<title>Node466&#45;&gt;Node467</title>
<path fill="none" stroke="#191970" d="M1544.8263,-259.5C1555.9968,-259.5 1567.5676,-259.5 1578.8204,-259.5"/>
<polygon fill="#191970" stroke="#191970" points="1544.7009,-256.0001 1534.7009,-259.5 1544.7008,-263.0001 1544.7009,-256.0001"/>
</g>
<!-- Node469 -->
<g id="node6" class="node">
<title>Node469</title>
<g id="a_node6"><a xlink:href="structchi_1_1GraphFunction.html#a0e722c9bae3101c4bb54ad9baae6f841" target="_top" xlink:title="Creates an entry node if it doesn&#39;t already exist, else just return it. ">
<polygon fill="#ffffff" stroke="#000000" points="337.5,-219.5 337.5,-249.5 454.5,-249.5 454.5,-219.5 337.5,-219.5"/>
<text text-anchor="start" x="345.5" y="-237.5" font-family="Helvetica,sans-Serif" font-size="10.00" fill="#000000">chi::GraphFunction</text>
<text text-anchor="middle" x="396" y="-226.5" font-family="Helvetica,sans-Serif" font-size="10.00" fill="#000000">::getOrInsertEntryNode</text>
</a>
</g>
</g>
<!-- Node468&#45;&gt;Node469 -->
<g id="edge5" class="edge">
<title>Node468&#45;&gt;Node469</title>
<path fill="none" stroke="#191970" d="M275.2215,-217.7717C295.223,-220.542 317.4922,-223.6263 337.4066,-226.3846"/>
<polygon fill="#191970" stroke="#191970" points="275.6859,-214.3027 265.3002,-216.3975 274.7255,-221.2365 275.6859,-214.3027"/>
</g>
<!-- Node470 -->
<g id="node7" class="node">
<title>Node470</title>
<g id="a_node7"><a xlink:href="structchi_1_1GraphFunction.html#a900c0b670ad04a76b6add803ade7ae0d" target="_top" xlink:title="chi::GraphFunction\l::nodes">
<polygon fill="#ffffff" stroke="#000000" points="507.5,-126.5 507.5,-156.5 606.5,-156.5 606.5,-126.5 507.5,-126.5"/>
<text text-anchor="start" x="515.5" y="-144.5" font-family="Helvetica,sans-Serif" font-size="10.00" fill="#000000">chi::GraphFunction</text>
<text text-anchor="middle" x="557" y="-133.5" font-family="Helvetica,sans-Serif" font-size="10.00" fill="#000000">::nodes</text>
</a>
</g>
</g>
<!-- Node468&#45;&gt;Node470 -->
<g id="edge17" class="edge">
<title>Node468&#45;&gt;Node470</title>
<path fill="none" stroke="#191970" d="M254.4019,-190.0007C276.5853,-179.7749 305.2256,-168.0448 332,-161.5 391.0471,-147.0665 461.0752,-142.7792 507.1407,-141.6429"/>
<polygon fill="#191970" stroke="#191970" points="252.876,-186.8505 245.3143,-194.2716 255.8534,-193.1858 252.876,-186.8505"/>
</g>
<!-- Node471 -->
<g id="node8" class="node">
<title>Node471</title>
<g id="a_node8"><a xlink:href="structchi_1_1GraphFunction.html#abcd2e1de52782e5a16aca65b9af328ca" target="_top" xlink:title="Add a node to the graph using module, type, and json. ">
<polygon fill="#ffffff" stroke="#000000" points="346.5,-170.5 346.5,-200.5 445.5,-200.5 445.5,-170.5 346.5,-170.5"/>
<text text-anchor="start" x="354.5" y="-188.5" font-family="Helvetica,sans-Serif" font-size="10.00" fill="#000000">chi::GraphFunction</text>
<text text-anchor="middle" x="396" y="-177.5" font-family="Helvetica,sans-Serif" font-size="10.00" fill="#000000">::insertNode</text>
</a>
</g>
</g>
<!-- Node468&#45;&gt;Node471 -->
<g id="edge7" class="edge">
<title>Node468&#45;&gt;Node471</title>
<path fill="none" stroke="#191970" d="M275.3086,-201.5476C298.3478,-198.4842 324.3849,-195.0222 346.3623,-192.1"/>
<polygon fill="#191970" stroke="#191970" points="274.7516,-198.0908 265.3002,-202.8784 275.6743,-205.0297 274.7516,-198.0908"/>
</g>
<!-- Node468&#45;&gt;Node472 -->
<g id="edge8" class="edge">
<title>Node468&#45;&gt;Node472</title>
<path fill="none" stroke="#191970" d="M249.8719,-229.8756C288.8024,-252.9535 350.6049,-289.5899 379.7608,-306.8734"/>
<polygon fill="#191970" stroke="#191970" points="251.3653,-226.6922 240.9784,-224.6035 247.7958,-232.7137 251.3653,-226.6922"/>
</g>
<!-- Node469&#45;&gt;Node470 -->
<g id="edge6" class="edge">
<title>Node469&#45;&gt;Node470</title>
<path fill="none" stroke="#191970" d="M449.947,-215.4429C453.3927,-213.8667 456.7713,-212.2161 460,-210.5 489.3805,-194.8841 520.1716,-171.619 538.9783,-156.5024"/>
<polygon fill="#191970" stroke="#191970" points="448.5127,-212.2498 440.7262,-219.4346 451.2937,-218.6737 448.5127,-212.2498"/>
</g>
<!-- Node473 -->
<g id="node10" class="node">
<title>Node473</title>
<g id="a_node10"><a xlink:href="namespacechi.html#a4489e333fecc4168278e94f8b3f81e3c" target="_top" xlink:title="Load a GraphModule from json. ">
<polygon fill="#ffffff" stroke="#000000" points="496,-307 496,-326 618,-326 618,-307 496,-307"/>
<text text-anchor="middle" x="557" y="-314" font-family="Helvetica,sans-Serif" font-size="10.00" fill="#000000">chi::jsonToGraphModule</text>
</a>
</g>
</g>
<!-- Node472&#45;&gt;Node473 -->
<g id="edge9" class="edge">
<title>Node472&#45;&gt;Node473</title>
<path fill="none" stroke="#191970" d="M470.1006,-316.5C478.683,-316.5 487.363,-316.5 495.7471,-316.5"/>
<polygon fill="#191970" stroke="#191970" points="470.0941,-313.0001 460.0941,-316.5 470.094,-320.0001 470.0941,-313.0001"/>
</g>
<!-- Node474 -->
<g id="node11" class="node">
<title>Node474</title>
<g id="a_node11"><a xlink:href="structchi_1_1Context.html#a2db103f3a2f77710dfa51489f63ec97f" target="_top" xlink:title="Load a module from JSON – avoid this use the string overload. ">
<polygon fill="#ffffff" stroke="#000000" points="654,-307 654,-326 820,-326 820,-307 654,-307"/>
<text text-anchor="middle" x="737" y="-314" font-family="Helvetica,sans-Serif" font-size="10.00" fill="#000000">chi::Context::addModuleFromJson</text>
</a>
</g>
</g>
<!-- Node473&#45;&gt;Node474 -->
<g id="edge10" class="edge">
<title>Node473&#45;&gt;Node474</title>
<path fill="none" stroke="#191970" d="M628.3335,-316.5C636.7586,-316.5 645.412,-316.5 653.9806,-316.5"/>
<polygon fill="#191970" stroke="#191970" points="628.191,-313.0001 618.191,-316.5 628.1909,-320.0001 628.191,-313.0001"/>
</g>
<!-- Node475 -->
<g id="node12" class="node">
<title>Node475</title>
<g id="a_node12"><a xlink:href="structchi_1_1Context.html#a844bdec56838399cb4d7a5f7ea223834" target="_top" xlink:title="Load a module from disk. ">
<polygon fill="#ffffff" stroke="#000000" points="856,-307 856,-326 981,-326 981,-307 856,-307"/>
<text text-anchor="middle" x="918.5" y="-314" font-family="Helvetica,sans-Serif" font-size="10.00" fill="#000000">chi::Context::loadModule</text>
</a>
</g>
</g>
<!-- Node474&#45;&gt;Node475 -->
<g id="edge11" class="edge">
<title>Node474&#45;&gt;Node475</title>
<path fill="none" stroke="#191970" d="M830.2319,-316.5C838.9115,-316.5 847.5607,-316.5 855.8618,-316.5"/>
<polygon fill="#191970" stroke="#191970" points="830.0481,-313.0001 820.048,-316.5 830.048,-320.0001 830.0481,-313.0001"/>
</g>
<!-- Node476 -->
<g id="node13" class="node">
<title>Node476</title>
<g id="a_node13"><a xlink:href="structchi_1_1ChiModule.html#aab11d61e0c0138e5fc5ce176c20e3bec" target="_top" xlink:title="Add a dependency to the module Loads the module from context() if it isn&#39;t already loaded...">
<polygon fill="#ffffff" stroke="#000000" points="1017,-307 1017,-326 1174,-326 1174,-307 1017,-307"/>
<text text-anchor="middle" x="1095.5" y="-314" font-family="Helvetica,sans-Serif" font-size="10.00" fill="#000000">chi::ChiModule::addDependency</text>
</a>
</g>
</g>
<!-- Node475&#45;&gt;Node476 -->
<g id="edge12" class="edge">
<title>Node475&#45;&gt;Node476</title>
<path fill="none" stroke="#191970" d="M991.4468,-316.5C999.7758,-316.5 1008.2946,-316.5 1016.6954,-316.5"/>
<polygon fill="#191970" stroke="#191970" points="991.402,-313.0001 981.402,-316.5 991.4019,-320.0001 991.402,-313.0001"/>
</g>
<!-- Node477 -->
<g id="node14" class="node">
<title>Node477</title>
<g id="a_node14"><a xlink:href="structchi_1_1ChiModule.html#a049b38139577f02a6c19d260010efeff" target="_top" xlink:title="Get the dependencies. ">
<polygon fill="#ffffff" stroke="#000000" points="1215,-288 1215,-307 1362,-307 1362,-288 1215,-288"/>
<text text-anchor="middle" x="1288.5" y="-295" font-family="Helvetica,sans-Serif" font-size="10.00" fill="#000000">chi::ChiModule::dependencies</text>
</a>
</g>
</g>
<!-- Node476&#45;&gt;Node477 -->
<g id="edge13" class="edge">
<title>Node476&#45;&gt;Node477</title>
<path fill="none" stroke="#191970" d="M1184.1712,-307.7707C1194.3983,-306.7639 1204.7436,-305.7455 1214.7433,-304.761"/>
<polygon fill="#191970" stroke="#191970" points="1183.6094,-304.309 1174.0005,-308.772 1184.2953,-311.2753 1183.6094,-304.309"/>
</g>
<!-- Node479 -->
<g id="node16" class="node">
<title>Node479</title>
<g id="a_node16"><a xlink:href="structchi_1_1GraphModule.html#a1f776646b9c9bdd615f7e35cebf7760a" target="_top" xlink:title="Construct a GraphModule. ">
<polygon fill="#ffffff" stroke="#000000" points="1210,-326 1210,-345 1367,-345 1367,-326 1210,-326"/>
<text text-anchor="middle" x="1288.5" y="-333" font-family="Helvetica,sans-Serif" font-size="10.00" fill="#000000">chi::GraphModule::GraphModule</text>
</a>
</g>
</g>
<!-- Node476&#45;&gt;Node479 -->
<g id="edge16" class="edge">
<title>Node476&#45;&gt;Node479</title>
<path fill="none" stroke="#191970" d="M1184.0225,-325.2147C1192.607,-326.0598 1201.2762,-326.9132 1209.7559,-327.748"/>
<polygon fill="#191970" stroke="#191970" points="1184.2953,-321.7247 1174.0005,-324.228 1183.6094,-328.691 1184.2953,-321.7247"/>
</g>
<!-- Node477&#45;&gt;Node466 -->
<g id="edge15" class="edge">
<title>Node477&#45;&gt;Node466</title>
<path fill="none" stroke="#191970" d="M1344.8672,-285.8905C1371.1074,-280.486 1401.936,-274.1365 1426.7776,-269.0201"/>
<polygon fill="#191970" stroke="#191970" points="1344.1455,-282.4656 1335.0571,-287.911 1345.5576,-289.3217 1344.1455,-282.4656"/>
</g>
<!-- Node478 -->
<g id="node15" class="node">
<title>Node478</title>
<g id="a_node15"><a xlink:href="structchi_1_1Context.html#ad535dc768a4386dbd06c8b769c5d549f" target="_top" xlink:title="Compile a module to a llvm::Module. ">
<polygon fill="#ffffff" stroke="#000000" points="1403,-288 1403,-307 1543,-307 1543,-288 1403,-288"/>
<text text-anchor="middle" x="1473" y="-295" font-family="Helvetica,sans-Serif" font-size="10.00" fill="#000000">chi::Context::compileModule</text>
</a>
</g>
</g>
<!-- Node477&#45;&gt;Node478 -->
<g id="edge14" class="edge">
<title>Node477&#45;&gt;Node478</title>
<path fill="none" stroke="#191970" d="M1372.3096,-297.5C1382.4689,-297.5 1392.7658,-297.5 1402.7021,-297.5"/>
<polygon fill="#191970" stroke="#191970" points="1372.2147,-294.0001 1362.2147,-297.5 1372.2147,-301.0001 1372.2147,-294.0001"/>
</g>
<!-- Node480&#45;&gt;Node470 -->
<g id="edge20" class="edge">
<title>Node480&#45;&gt;Node470</title>
<path fill="none" stroke="#191970" d="M275.4284,-108.6162C324.9772,-113.0303 397.1467,-119.8834 460,-127.5 475.371,-129.3627 492.0709,-131.6701 507.2127,-133.8708"/>
<polygon fill="#191970" stroke="#191970" points="275.4797,-105.1072 265.21,-107.712 274.8626,-112.0799 275.4797,-105.1072"/>
</g>
<!-- Node481 -->
<g id="node18" class="node">
<title>Node481</title>
<g id="a_node18"><a xlink:href="structchi_1_1GraphFunction.html#a81f2a4203abba46ff8494a6a7e192094" target="_top" xlink:title="Remove a local variable from the function by name. ">
<polygon fill="#ffffff" stroke="#000000" points="339.5,-44.5 339.5,-74.5 452.5,-74.5 452.5,-44.5 339.5,-44.5"/>
<text text-anchor="start" x="347.5" y="-62.5" font-family="Helvetica,sans-Serif" font-size="10.00" fill="#000000">chi::GraphFunction</text>
<text text-anchor="middle" x="396" y="-51.5" font-family="Helvetica,sans-Serif" font-size="10.00" fill="#000000">::removeLocalVariable</text>
</a>
</g>
</g>
<!-- Node480&#45;&gt;Node481 -->
<g id="edge21" class="edge">
<title>Node480&#45;&gt;Node481</title>
<path fill="none" stroke="#191970" d="M275.224,-88.9412C295.8804,-83.9059 318.9552,-78.281 339.3569,-73.3077"/>
<polygon fill="#191970" stroke="#191970" points="274.1868,-85.5915 265.3002,-91.3603 275.8447,-92.3924 274.1868,-85.5915"/>
</g>
<!-- Node482 -->
<g id="node19" class="node">
<title>Node482</title>
<g id="a_node19"><a xlink:href="structchi_1_1GraphFunction.html#a44f8f791775e4878b6bde37140cd131d" target="_top" xlink:title="Get the local variables. ">
<polygon fill="#ffffff" stroke="#000000" points="507.5,-61.5 507.5,-91.5 606.5,-91.5 606.5,-61.5 507.5,-61.5"/>
<text text-anchor="start" x="515.5" y="-79.5" font-family="Helvetica,sans-Serif" font-size="10.00" fill="#000000">chi::GraphFunction</text>
<text text-anchor="middle" x="557" y="-68.5" font-family="Helvetica,sans-Serif" font-size="10.00" fill="#000000">::localVariables</text>
</a>
</g>
</g>
<!-- Node481&#45;&gt;Node482 -->
<g id="edge22" class="edge">
<title>Node481&#45;&gt;Node482</title>
<path fill="none" stroke="#191970" d="M462.9488,-66.5691C477.8469,-68.1422 493.3826,-69.7826 507.435,-71.2664"/>
<polygon fill="#191970" stroke="#191970" points="463.0748,-63.0631 452.7626,-65.4936 462.3397,-70.0244 463.0748,-63.0631"/>
</g>
<!-- Node482&#45;&gt;Node465 -->
<g id="edge23" class="edge">
<title>Node482&#45;&gt;Node465</title>
<path fill="none" stroke="#191970" d="M591.2961,-97.0973C600.3617,-103.1863 609.8761,-110.1926 618,-117.5 666.7846,-161.3814 713.3849,-225.4982 730.3034,-249.7351"/>
<polygon fill="#191970" stroke="#191970" points="593.0905,-94.0891 582.8018,-91.5606 589.2681,-99.9534 593.0905,-94.0891"/>
</g>
<!-- Node484 -->
<g id="node21" class="node">
<title>Node484</title>
<g id="a_node21"><a xlink:href="namespacechi.html#acdc71d0d7f04f55316cc16af79b7f5b1" target="_top" xlink:title="Validate that a function is compilable. ">
<polygon fill="#ffffff" stroke="#000000" points="342.5,-6 342.5,-25 449.5,-25 449.5,-6 342.5,-6"/>
<text text-anchor="middle" x="396" y="-13" font-family="Helvetica,sans-Serif" font-size="10.00" fill="#000000">chi::validateFunction</text>
</a>
</g>
</g>
<!-- Node483&#45;&gt;Node484 -->
<g id="edge25" class="edge">
<title>Node483&#45;&gt;Node484</title>
<path fill="none" stroke="#191970" d="M306.5077,-25.416C318.741,-24.0606 330.9557,-22.7071 342.2527,-21.4554"/>
<polygon fill="#191970" stroke="#191970" points="305.8008,-21.9729 296.2471,-26.5529 306.5718,-28.9303 305.8008,-21.9729"/>
</g>
<!-- Node485 -->
<g id="node22" class="node">
<title>Node485</title>
<g id="a_node22"><a xlink:href="namespacechi.html#a8329038fce8125396cc9775460aa427b" target="_top" xlink:title="Compile the graph to an llvm::Function (usually called from JsonModule::generateModule) ...">
<polygon fill="#ffffff" stroke="#000000" points="503.5,-6 503.5,-25 610.5,-25 610.5,-6 503.5,-6"/>
<text text-anchor="middle" x="557" y="-13" font-family="Helvetica,sans-Serif" font-size="10.00" fill="#000000">chi::compileFunction</text>
</a>
</g>
</g>
<!-- Node484&#45;&gt;Node485 -->
<g id="edge26" class="edge">
<title>Node484&#45;&gt;Node485</title>
<path fill="none" stroke="#191970" d="M459.9269,-15.5C474.3118,-15.5 489.4348,-15.5 503.3491,-15.5"/>
<polygon fill="#191970" stroke="#191970" points="459.6107,-12.0001 449.6107,-15.5 459.6106,-19.0001 459.6107,-12.0001"/>
</g>
<!-- Node486 -->
<g id="node23" class="node">
<title>Node486</title>
<g id="a_node23"><a xlink:href="structchi_1_1GraphModule.html#a9b73bbbfa91d6a2f92bcca270bdb7b2f" target="_top" xlink:title="Generate a llvm::Module from the module. ">
<polygon fill="#ffffff" stroke="#000000" points="668.5,-.5 668.5,-30.5 805.5,-30.5 805.5,-.5 668.5,-.5"/>
<text text-anchor="start" x="676.5" y="-18.5" font-family="Helvetica,sans-Serif" font-size="10.00" fill="#000000">chi::GraphModule::generate</text>
<text text-anchor="middle" x="737" y="-7.5" font-family="Helvetica,sans-Serif" font-size="10.00" fill="#000000">Module</text>
</a>
</g>
</g>
<!-- Node485&#45;&gt;Node486 -->
<g id="edge27" class="edge">
<title>Node485&#45;&gt;Node486</title>
<path fill="none" stroke="#191970" d="M620.946,-15.5C636.2989,-15.5 652.7587,-15.5 668.3168,-15.5"/>
<polygon fill="#191970" stroke="#191970" points="620.5186,-12.0001 610.5186,-15.5 620.5186,-19.0001 620.5186,-12.0001"/>
</g>
</g>
</svg>
        <g id="navigator" transform="translate(0 0)" fill="#404254">
                <rect fill="#f2f5e9" fill-opacity="0.5" stroke="#606060" stroke-width=".5" x="0" y="0" width="60" height="60"/>
                <use id="zoomplus" xlink:href="#zoomPlus" x="17" y="9" onmousedown="handleZoom(evt,'in')"/>
                <use id="zoomminus" xlink:href="#zoomMin" x="42" y="9" onmousedown="handleZoom(evt,'out')"/>
                <use id="reset" xlink:href="#resetDef" x="30" y="36" onmousedown="handleReset()"/>
                <g id="arrowUp" xlink:href="#dirArrow" transform="translate(30 24)" onmousedown="handlePan(0,-1)">
                  <use xlink:href="#rim" fill="#404040">
                        <set attributeName="fill" to="#808080" begin="arrowUp.mouseover" end="arrowUp.mouseout"/>
                  </use>
                  <path fill="none" stroke="white" stroke-width="1.5" d="M0,-3.0v7 M-2.5,-0.5L0,-3.0L2.5,-0.5"/>
                </g>
                <g id="arrowRight" xlink:href="#dirArrow" transform="rotate(90) translate(36 -43)" onmousedown="handlePan(1,0)">
                  <use xlink:href="#rim" fill="#404040">
                        <set attributeName="fill" to="#808080" begin="arrowRight.mouseover" end="arrowRight.mouseout"/>
                  </use>
                  <path fill="none" stroke="white" stroke-width="1.5" d="M0,-3.0v7 M-2.5,-0.5L0,-3.0L2.5,-0.5"/>
                </g>
                <g id="arrowDown" xlink:href="#dirArrow" transform="rotate(180) translate(-30 -48)" onmousedown="handlePan(0,1)">
                  <use xlink:href="#rim" fill="#404040">
                        <set attributeName="fill" to="#808080" begin="arrowDown.mouseover" end="arrowDown.mouseout"/>
                  </use>
                  <path fill="none" stroke="white" stroke-width="1.5" d="M0,-3.0v7 M-2.5,-0.5L0,-3.0L2.5,-0.5"/>
                </g>
                <g id="arrowLeft" xlink:href="#dirArrow" transform="rotate(270) translate(-36 17)" onmousedown="handlePan(-1,0)">
                  <use xlink:href="#rim" fill="#404040">
                        <set attributeName="fill" to="#808080" begin="arrowLeft.mouseover" end="arrowLeft.mouseout"/>
                  </use>
                  <path fill="none" stroke="white" stroke-width="1.5" d="M0,-3.0v7 M-2.5,-0.5L0,-3.0L2.5,-0.5"/>
                </g>
        </g>
        <svg viewBox="0 0 15 15" width="100%" height="30px" preserveAspectRatio="xMaxYMin meet">
         <g id="arrow_out" transform="scale(0.3 0.3)">
          <a xlink:href="structchi_1_1GraphFunction_aa5985d96d7564d7ee7f240fdb02b41a6_icgraph_org.svg" target="_base">
           <rect id="button" ry="5" rx="5" y="6" x="6" height="38" width="38"
                fill="#f2f5e9" fill-opacity="0.5" stroke="#606060" stroke-width="1.0"/>
           <path id="arrow"
             d="M 11.500037,31.436501 C 11.940474,20.09759 22.043105,11.32322 32.158766,21.979434 L 37.068811,17.246167 C 37.068811,17.246167 37.088388,32 37.088388,32 L 22.160133,31.978069 C 22.160133,31.978069 26.997745,27.140456 26.997745,27.140456 C 18.528582,18.264221 13.291696,25.230495 11.500037,31.436501 z"
             style="fill:#404040;"/>
          </a>
         </g>
        </svg>
</svg>
