<?xml version="1.0" encoding="UTF-8" standalone="no"?>
<!DOCTYPE svg PUBLIC "-//W3C//DTD SVG 1.1//EN"
 "http://www.w3.org/Graphics/SVG/1.1/DTD/svg11.dtd">
<!-- Generated by graphviz version 2.40.1 (20161225.0304)
 -->
<!-- Title: chig::GraphStruct::modifyType Pages: 1 -->
<!--zoomable 220 -->
<svg id="main" version="1.1" xmlns="http://www.w3.org/2000/svg" xmlns:xlink="http://www.w3.org/1999/xlink" xml:space="preserve" onload="init(evt)">
<style type="text/css"><![CDATA[
.edge:hover path { stroke: red; }
.edge:hover polygon { stroke: red; fill: red; }
]]></style>
<script type="text/javascript"><![CDATA[
var edges = document.getElementsByTagName('g');
if (edges && edges.length) {
  for (var i=0;i<edges.length;i++) {
    if (edges[i].id.substr(0,4)=='edge') {
      edges[i].setAttribute('class','edge');
    }
  }
}
]]></script>
        <defs>
                <circle id="rim" cx="0" cy="0" r="7"/>
                <circle id="rim2" cx="0" cy="0" r="3.5"/>
                <g id="zoomPlus">
                        <use xlink:href="#rim" fill="#404040">
                                <set attributeName="fill" to="#808080" begin="zoomplus.mouseover" end="zoomplus.mouseout"/>
                        </use>
                        <path d="M-4,0h8M0,-4v8" fill="none" stroke="white" stroke-width="1.5" pointer-events="none"/>
                </g>
                <g id="zoomMin">
                        <use xlink:href="#rim" fill="#404040">
                                <set attributeName="fill" to="#808080" begin="zoomminus.mouseover" end="zoomminus.mouseout"/>
                        </use>
                        <path d="M-4,0h8" fill="none" stroke="white" stroke-width="1.5" pointer-events="none"/>
                </g>
                <g id="dirArrow">
                        <path fill="none" stroke="white" stroke-width="1.5" d="M0,-3.0v7 M-2.5,-0.5L0,-3.0L2.5,-0.5"/>
                </g>
               <g id="resetDef">
                       <use xlink:href="#rim2" fill="#404040">
                               <set attributeName="fill" to="#808080" begin="reset.mouseover" end="reset.mouseout"/>
                       </use>
               </g>
        </defs>

<script type="text/javascript">
var viewWidth = 571;
var viewHeight = 220;
var sectionId = 'dynsection-4';
</script>
<script xlink:href="svgpan.js"/>
<svg id="graph" class="graph">
<g id="viewport">
<title>chig::GraphStruct::modifyType</title>
<polygon fill="#ffffff" stroke="transparent" points="-4,4 -4,-215.8218 567,-215.8218 567,4 -4,4"/>
<!-- Node32 -->
<g id="node1" class="node">
<title>Node32</title>
<polygon fill="#bfbfbf" stroke="#000000" points="0,-67.3218 0,-97.3218 107,-97.3218 107,-67.3218 0,-67.3218"/>
<text text-anchor="start" x="8" y="-85.3218" font-family="Helvetica,sans-Serif" font-size="10.00" fill="#000000">chig::GraphStruct::</text>
<text text-anchor="middle" x="53.5" y="-74.3218" font-family="Helvetica,sans-Serif" font-size="10.00" fill="#000000">modifyType</text>
</g>
<!-- Node33 -->
<g id="node2" class="node">
<title>Node33</title>
<g id="a_node2"><a xlink:href="structchig_1_1GraphStruct.html#a2aa8870b0c3e262f49ac574b96a0fe8b" target="_top" xlink:title="Get the types the struct contains. ">
<polygon fill="#ffffff" stroke="#000000" points="143,-67.3218 143,-97.3218 250,-97.3218 250,-67.3218 143,-67.3218"/>
<text text-anchor="start" x="151" y="-85.3218" font-family="Helvetica,sans-Serif" font-size="10.00" fill="#000000">chig::GraphStruct::</text>
<text text-anchor="middle" x="196.5" y="-74.3218" font-family="Helvetica,sans-Serif" font-size="10.00" fill="#000000">types</text>
</a>
</g>
</g>
<!-- Node32&#45;&gt;Node33 -->
<g id="edge1" class="edge">
<title>Node32&#45;&gt;Node33</title>
<path fill="none" stroke="#191970" d="M107.1548,-75.7622C115.3808,-75.5832 123.9436,-75.5304 132.3684,-75.6037"/>
<polygon fill="#191970" stroke="#191970" points="132.4933,-79.1059 142.5445,-75.7557 132.5979,-72.1067 132.4933,-79.1059"/>
</g>
<!-- Node35 -->
<g id="node4" class="node">
<title>Node35</title>
<g id="a_node4"><a xlink:href="structchig_1_1DataType.html#a307eaa94c9f2d408c7a204e364b02b22" target="_top" xlink:title="Check if the DataType is valid. ">
<polygon fill="#ffffff" stroke="#000000" points="436,-55.8218 436,-74.8218 556,-74.8218 556,-55.8218 436,-55.8218"/>
<text text-anchor="middle" x="496" y="-62.8218" font-family="Helvetica,sans-Serif" font-size="10.00" fill="#000000">chig::DataType::valid</text>
</a>
</g>
</g>
<!-- Node32&#45;&gt;Node35 -->
<g id="edge14" class="edge">
<title>Node32&#45;&gt;Node35</title>
<path fill="none" stroke="#191970" d="M81.8401,-67.1604C140.3284,-37.841 278.5191,21.2424 393,-8.3218 423.8883,-16.2985 455.4026,-35.7395 475.2958,-49.6986"/>
<polygon fill="#191970" stroke="#191970" points="473.4153,-52.6576 483.5742,-55.6656 477.5084,-46.979 473.4153,-52.6576"/>
</g>
<!-- Node33&#45;&gt;Node32 -->
<g id="edge5" class="edge">
<title>Node33&#45;&gt;Node32</title>
<path fill="none" stroke="#191970" d="M142.5445,-88.8878C134.3103,-89.0637 125.7452,-89.1135 117.3238,-89.0371"/>
<polygon fill="#191970" stroke="#191970" points="117.2072,-85.535 107.1548,-88.8813 117.1,-92.5342 117.2072,-85.535"/>
</g>
<!-- Node34 -->
<g id="node3" class="node">
<title>Node34</title>
<g id="a_node3"><a xlink:href="structchig_1_1GraphStruct.html#a1fd6254fcd1bc4497fb66b0a8f92eb0b" target="_top" xlink:title="Add a new type to the struct. ">
<polygon fill="#ffffff" stroke="#000000" points="286,-67.3218 286,-97.3218 393,-97.3218 393,-67.3218 286,-67.3218"/>
<text text-anchor="start" x="294" y="-85.3218" font-family="Helvetica,sans-Serif" font-size="10.00" fill="#000000">chig::GraphStruct::</text>
<text text-anchor="middle" x="339.5" y="-74.3218" font-family="Helvetica,sans-Serif" font-size="10.00" fill="#000000">addType</text>
</a>
</g>
</g>
<!-- Node33&#45;&gt;Node34 -->
<g id="edge2" class="edge">
<title>Node33&#45;&gt;Node34</title>
<path fill="none" stroke="#191970" d="M250.1548,-75.7622C258.3808,-75.5832 266.9436,-75.5304 275.3684,-75.6037"/>
<polygon fill="#191970" stroke="#191970" points="275.4933,-79.1059 285.5445,-75.7557 275.5979,-72.1067 275.4933,-79.1059"/>
</g>
<!-- Node36 -->
<g id="node5" class="node">
<title>Node36</title>
<g id="a_node5"><a xlink:href="structchig_1_1GraphStruct.html#abefe7c0c45f61546d82649a27bea2119" target="_top" xlink:title="Remove a type from a struct. ">
<polygon fill="#ffffff" stroke="#000000" points="286,-18.3218 286,-48.3218 393,-48.3218 393,-18.3218 286,-18.3218"/>
<text text-anchor="start" x="294" y="-36.3218" font-family="Helvetica,sans-Serif" font-size="10.00" fill="#000000">chig::GraphStruct::</text>
<text text-anchor="middle" x="339.5" y="-25.3218" font-family="Helvetica,sans-Serif" font-size="10.00" fill="#000000">removeType</text>
</a>
</g>
</g>
<!-- Node33&#45;&gt;Node36 -->
<g id="edge6" class="edge">
<title>Node33&#45;&gt;Node36</title>
<path fill="none" stroke="#191970" d="M224.4113,-67.2768C239.2244,-61.2053 258.0738,-54.3367 276.2092,-48.2985"/>
<polygon fill="#191970" stroke="#191970" points="277.4736,-51.5675 285.8906,-45.1329 275.298,-44.9142 277.4736,-51.5675"/>
</g>
<!-- Node37 -->
<g id="node6" class="node">
<title>Node37</title>
<g id="a_node6"><a xlink:href="structchig_1_1GraphStruct.html#ab62184ef12dfbc341714656505a037cf" target="_top" xlink:title="Get the DataType of the struct. ">
<polygon fill="#ffffff" stroke="#000000" points="286,-116.3218 286,-146.3218 393,-146.3218 393,-116.3218 286,-116.3218"/>
<text text-anchor="start" x="294" y="-134.3218" font-family="Helvetica,sans-Serif" font-size="10.00" fill="#000000">chig::GraphStruct::</text>
<text text-anchor="middle" x="339.5" y="-123.3218" font-family="Helvetica,sans-Serif" font-size="10.00" fill="#000000">dataType</text>
</a>
</g>
</g>
<!-- Node33&#45;&gt;Node37 -->
<g id="edge8" class="edge">
<title>Node33&#45;&gt;Node37</title>
<path fill="none" stroke="#191970" d="M250.1548,-94.1474C267.4812,-99.7075 286.3011,-106.3389 302.18,-112.5222"/>
<polygon fill="#191970" stroke="#191970" points="301.0621,-115.8445 311.6471,-116.3007 303.657,-109.3432 301.0621,-115.8445"/>
</g>
<!-- Node34&#45;&gt;Node33 -->
<g id="edge3" class="edge">
<title>Node34&#45;&gt;Node33</title>
<path fill="none" stroke="#191970" d="M285.5445,-88.8878C277.3103,-89.0637 268.7452,-89.1135 260.3238,-89.0371"/>
<polygon fill="#191970" stroke="#191970" points="260.2072,-85.535 250.1548,-88.8813 260.1,-92.5342 260.2072,-85.535"/>
</g>
<!-- Node34&#45;&gt;Node35 -->
<g id="edge4" class="edge">
<title>Node34&#45;&gt;Node35</title>
<path fill="none" stroke="#191970" d="M393.3584,-76.4713C403.8511,-75.3316 414.994,-74.1211 425.9219,-72.9341"/>
<polygon fill="#191970" stroke="#191970" points="426.3089,-76.4127 435.8724,-71.8532 425.5529,-69.4537 426.3089,-76.4127"/>
</g>
<!-- Node36&#45;&gt;Node33 -->
<g id="edge7" class="edge">
<title>Node36&#45;&gt;Node33</title>
<path fill="none" stroke="#191970" d="M311.6471,-48.3428C296.8389,-54.4145 277.9849,-61.2863 259.841,-67.3283"/>
<polygon fill="#191970" stroke="#191970" points="258.5714,-64.061 250.1548,-70.4961 260.7474,-70.7142 258.5714,-64.061"/>
</g>
<!-- Node37&#45;&gt;Node33 -->
<g id="edge10" class="edge">
<title>Node37&#45;&gt;Node33</title>
<path fill="none" stroke="#191970" d="M285.8906,-119.5107C268.5736,-113.9547 249.7603,-107.3268 233.8803,-101.1448"/>
<polygon fill="#191970" stroke="#191970" points="234.9964,-97.8218 224.4113,-97.3668 232.4023,-104.3234 234.9964,-97.8218"/>
</g>
<!-- Node37&#45;&gt;Node35 -->
<g id="edge9" class="edge">
<title>Node37&#45;&gt;Node35</title>
<path fill="none" stroke="#191970" d="M374.9665,-116.2955C381.057,-113.4651 387.2672,-110.4173 393,-107.3218 409.7067,-98.3007 411.6823,-92.1058 429,-84.3218 434.1004,-82.0292 439.5447,-79.9449 445.0422,-78.0684"/>
<polygon fill="#191970" stroke="#191970" points="446.4681,-81.2874 454.9323,-74.915 444.3416,-74.6182 446.4681,-81.2874"/>
</g>
<!-- Node38 -->
<g id="node7" class="node">
<title>Node38</title>
<g id="a_node7"><a xlink:href="structchig_1_1GraphStruct.html#ab8b1de2bd9ebcaa89c793bcb6ea8029e" target="_top" xlink:title="Get the context. ">
<polygon fill="#ffffff" stroke="#000000" points="442.5,-132.3218 442.5,-162.3218 549.5,-162.3218 549.5,-132.3218 442.5,-132.3218"/>
<text text-anchor="start" x="450.5" y="-150.3218" font-family="Helvetica,sans-Serif" font-size="10.00" fill="#000000">chig::GraphStruct::</text>
<text text-anchor="middle" x="496" y="-139.3218" font-family="Helvetica,sans-Serif" font-size="10.00" fill="#000000">context</text>
</a>
</g>
</g>
<!-- Node37&#45;&gt;Node38 -->
<g id="edge11" class="edge">
<title>Node37&#45;&gt;Node38</title>
<path fill="none" stroke="#191970" d="M393.3584,-136.8281C405.8467,-138.1048 419.256,-139.4757 432.1277,-140.7917"/>
<polygon fill="#191970" stroke="#191970" points="432.0034,-144.2971 442.3075,-141.8324 432.7154,-137.3334 432.0034,-144.2971"/>
</g>
<!-- Node39 -->
<g id="node8" class="node">
<title>Node39</title>
<g id="a_node8"><a xlink:href="structchig_1_1GraphStruct.html#ac791660a36070de71e34e03c2a96233d" target="_top" xlink:title="Get the name of the type. ">
<polygon fill="#ffffff" stroke="#000000" points="429,-93.8218 429,-112.8218 563,-112.8218 563,-93.8218 429,-93.8218"/>
<text text-anchor="middle" x="496" y="-100.8218" font-family="Helvetica,sans-Serif" font-size="10.00" fill="#000000">chig::GraphStruct::name</text>
</a>
</g>
</g>
<!-- Node37&#45;&gt;Node39 -->
<g id="edge12" class="edge">
<title>Node37&#45;&gt;Node39</title>
<path fill="none" stroke="#191970" d="M393.3584,-121.6858C406.1113,-119.4041 419.8246,-116.9506 432.9451,-114.6032"/>
<polygon fill="#191970" stroke="#191970" points="433.6099,-118.0399 442.8371,-112.8333 432.377,-111.1493 433.6099,-118.0399"/>
</g>
<!-- Node40 -->
<g id="node9" class="node">
<title>Node40</title>
<g id="a_node9"><a xlink:href="structchig_1_1GraphStruct.html#ab37cc6a31a9d9f63b555ba0e07fa80c7" target="_top" xlink:title="Get the module. ">
<polygon fill="#ffffff" stroke="#000000" points="442.5,-181.3218 442.5,-211.3218 549.5,-211.3218 549.5,-181.3218 442.5,-181.3218"/>
<text text-anchor="start" x="450.5" y="-199.3218" font-family="Helvetica,sans-Serif" font-size="10.00" fill="#000000">chig::GraphStruct::</text>
<text text-anchor="middle" x="496" y="-188.3218" font-family="Helvetica,sans-Serif" font-size="10.00" fill="#000000">module</text>
</a>
</g>
</g>
<!-- Node37&#45;&gt;Node40 -->
<g id="edge13" class="edge">
<title>Node37&#45;&gt;Node40</title>
<path fill="none" stroke="#191970" d="M370.692,-146.4064C387.7609,-154.4587 409.3726,-164.3279 429,-172.3218 433.4163,-174.1204 438.0238,-175.9223 442.6644,-177.6854"/>
<polygon fill="#191970" stroke="#191970" points="441.5932,-181.0213 452.1859,-181.2367 444.0395,-174.4627 441.5932,-181.0213"/>
</g>
</g>
</svg>
        <g id="navigator" transform="translate(0 0)" fill="#404254">
                <rect fill="#f2f5e9" fill-opacity="0.5" stroke="#606060" stroke-width=".5" x="0" y="0" width="60" height="60"/>
                <use id="zoomplus" xlink:href="#zoomPlus" x="17" y="9" onmousedown="handleZoom(evt,'in')"/>
                <use id="zoomminus" xlink:href="#zoomMin" x="42" y="9" onmousedown="handleZoom(evt,'out')"/>
                <use id="reset" xlink:href="#resetDef" x="30" y="36" onmousedown="handleReset()"/>
                <g id="arrowUp" xlink:href="#dirArrow" transform="translate(30 24)" onmousedown="handlePan(0,-1)">
                  <use xlink:href="#rim" fill="#404040">
                        <set attributeName="fill" to="#808080" begin="arrowUp.mouseover" end="arrowUp.mouseout"/>
                  </use>
                  <path fill="none" stroke="white" stroke-width="1.5" d="M0,-3.0v7 M-2.5,-0.5L0,-3.0L2.5,-0.5"/>
                </g>
                <g id="arrowRight" xlink:href="#dirArrow" transform="rotate(90) translate(36 -43)" onmousedown="handlePan(1,0)">
                  <use xlink:href="#rim" fill="#404040">
                        <set attributeName="fill" to="#808080" begin="arrowRight.mouseover" end="arrowRight.mouseout"/>
                  </use>
                  <path fill="none" stroke="white" stroke-width="1.5" d="M0,-3.0v7 M-2.5,-0.5L0,-3.0L2.5,-0.5"/>
                </g>
                <g id="arrowDown" xlink:href="#dirArrow" transform="rotate(180) translate(-30 -48)" onmousedown="handlePan(0,1)">
                  <use xlink:href="#rim" fill="#404040">
                        <set attributeName="fill" to="#808080" begin="arrowDown.mouseover" end="arrowDown.mouseout"/>
                  </use>
                  <path fill="none" stroke="white" stroke-width="1.5" d="M0,-3.0v7 M-2.5,-0.5L0,-3.0L2.5,-0.5"/>
                </g>
                <g id="arrowLeft" xlink:href="#dirArrow" transform="rotate(270) translate(-36 17)" onmousedown="handlePan(-1,0)">
                  <use xlink:href="#rim" fill="#404040">
                        <set attributeName="fill" to="#808080" begin="arrowLeft.mouseover" end="arrowLeft.mouseout"/>
                  </use>
                  <path fill="none" stroke="white" stroke-width="1.5" d="M0,-3.0v7 M-2.5,-0.5L0,-3.0L2.5,-0.5"/>
                </g>
        </g>
        <svg viewBox="0 0 15 15" width="100%" height="30px" preserveAspectRatio="xMaxYMin meet">
         <g id="arrow_out" transform="scale(0.3 0.3)">
          <a xlink:href="structchig_1_1GraphStruct_a40f421df5b78913f266df3aefb8a3fd3_cgraph_org.svg" target="_base">
           <rect id="button" ry="5" rx="5" y="6" x="6" height="38" width="38"
                fill="#f2f5e9" fill-opacity="0.5" stroke="#606060" stroke-width="1.0"/>
           <path id="arrow"
             d="M 11.500037,31.436501 C 11.940474,20.09759 22.043105,11.32322 32.158766,21.979434 L 37.068811,17.246167 C 37.068811,17.246167 37.088388,32 37.088388,32 L 22.160133,31.978069 C 22.160133,31.978069 26.997745,27.140456 26.997745,27.140456 C 18.528582,18.264221 13.291696,25.230495 11.500037,31.436501 z"
             style="fill:#404040;"/>
          </a>
         </g>
        </svg>
</svg>
