<?xml version="1.0" encoding="UTF-8" standalone="no"?>
<!DOCTYPE svg PUBLIC "-//W3C//DTD SVG 1.1//EN"
 "http://www.w3.org/Graphics/SVG/1.1/DTD/svg11.dtd">
<!-- Generated by graphviz version 2.40.1 (20161225.0304)
 -->
<!-- Title: chi::ChiModule::addDependency Pages: 1 -->
<svg width="721pt" height="85pt"
 viewBox="0.00 0.00 721.00 85.00" xmlns="http://www.w3.org/2000/svg" xmlns:xlink="http://www.w3.org/1999/xlink">
<g id="graph0" class="graph" transform="scale(1 1) rotate(0) translate(4 81)">
<title>chi::ChiModule::addDependency</title>
<polygon fill="#ffffff" stroke="transparent" points="-4,4 -4,-81 717,-81 717,4 -4,4"/>
<!-- Node74 -->
<g id="node1" class="node">
<title>Node74</title>
<polygon fill="#bfbfbf" stroke="#000000" points="0,-19.5 0,-38.5 157,-38.5 157,-19.5 0,-19.5"/>
<text text-anchor="middle" x="78.5" y="-26.5" font-family="Helvetica,sans-Serif" font-size="10.00" fill="#000000">chi::ChiModule::addDependency</text>
</g>
<!-- Node75 -->
<g id="node2" class="node">
<title>Node75</title>
<g id="a_node2"><a xlink:href="structchi_1_1ChiModule.html#a9c0d4b1b54bca0194ea4061ae4883779" target="_top" xlink:title="Get the dependencies. ">
<polygon fill="#ffffff" stroke="#000000" points="198,-38.5 198,-57.5 345,-57.5 345,-38.5 198,-38.5"/>
<text text-anchor="middle" x="271.5" y="-45.5" font-family="Helvetica,sans-Serif" font-size="10.00" fill="#000000">chi::ChiModule::dependencies</text>
</a>
</g>
</g>
<!-- Node74&#45;&gt;Node75 -->
<g id="edge1" class="edge">
<title>Node74&#45;&gt;Node75</title>
<path fill="none" stroke="#191970" d="M167.1712,-37.7293C177.3983,-38.7361 187.7436,-39.7545 197.7433,-40.739"/>
<polygon fill="#191970" stroke="#191970" points="167.2953,-34.2247 157.0005,-36.728 166.6094,-41.191 167.2953,-34.2247"/>
</g>
<!-- Node79 -->
<g id="node6" class="node">
<title>Node79</title>
<g id="a_node6"><a xlink:href="structchi_1_1GraphModule.html#adeeeec5c69812ddeb43a64d3009a4eda" target="_top" xlink:title="Construct a GraphModule. ">
<polygon fill="#ffffff" stroke="#000000" points="193,-.5 193,-19.5 350,-19.5 350,-.5 193,-.5"/>
<text text-anchor="middle" x="271.5" y="-7.5" font-family="Helvetica,sans-Serif" font-size="10.00" fill="#000000">chi::GraphModule::GraphModule</text>
</a>
</g>
</g>
<!-- Node74&#45;&gt;Node79 -->
<g id="edge5" class="edge">
<title>Node74&#45;&gt;Node79</title>
<path fill="none" stroke="#191970" d="M167.0225,-20.2853C175.607,-19.4402 184.2762,-18.5868 192.7559,-17.752"/>
<polygon fill="#191970" stroke="#191970" points="166.6094,-16.809 157.0005,-21.272 167.2953,-23.7753 166.6094,-16.809"/>
</g>
<!-- Node76 -->
<g id="node3" class="node">
<title>Node76</title>
<g id="a_node3"><a xlink:href="structchi_1_1Context.html#ae21e68cd2d6ec6a8d6923fa330b36827" target="_top" xlink:title="Compile a module to a llvm::Module. ">
<polygon fill="#ffffff" stroke="#000000" points="386,-57.5 386,-76.5 526,-76.5 526,-57.5 386,-57.5"/>
<text text-anchor="middle" x="456" y="-64.5" font-family="Helvetica,sans-Serif" font-size="10.00" fill="#000000">chi::Context::compileModule</text>
</a>
</g>
</g>
<!-- Node75&#45;&gt;Node76 -->
<g id="edge2" class="edge">
<title>Node75&#45;&gt;Node76</title>
<path fill="none" stroke="#191970" d="M355.3096,-56.6308C365.4689,-57.677 375.7658,-58.7374 385.7021,-59.7606"/>
<polygon fill="#191970" stroke="#191970" points="355.5207,-53.1341 345.2147,-55.5912 354.8035,-60.0973 355.5207,-53.1341"/>
</g>
<!-- Node77 -->
<g id="node4" class="node">
<title>Node77</title>
<g id="a_node4"><a xlink:href="namespacechi.html#a9a4f3fa54c612f0c559a353bb7382d5a" target="_top" xlink:title="Serialize a JsonModule to json. ">
<polygon fill="#ffffff" stroke="#000000" points="394.5,-19.5 394.5,-38.5 517.5,-38.5 517.5,-19.5 394.5,-19.5"/>
<text text-anchor="middle" x="456" y="-26.5" font-family="Helvetica,sans-Serif" font-size="10.00" fill="#000000">chi::graphModuleToJson</text>
</a>
</g>
</g>
<!-- Node75&#45;&gt;Node77 -->
<g id="edge3" class="edge">
<title>Node75&#45;&gt;Node77</title>
<path fill="none" stroke="#191970" d="M355.2046,-39.38C368.3512,-38.0262 381.7313,-36.6483 394.2646,-35.3576"/>
<polygon fill="#191970" stroke="#191970" points="354.8035,-35.9027 345.2147,-40.4088 355.5207,-42.8659 354.8035,-35.9027"/>
</g>
<!-- Node78 -->
<g id="node5" class="node">
<title>Node78</title>
<g id="a_node5"><a xlink:href="structchi_1_1GraphModule.html#a5cd9fb1738336d5d382ebb50753bda3e" target="_top" xlink:title="Serialize to disk in the context. ">
<polygon fill="#ffffff" stroke="#000000" points="562,-19.5 562,-38.5 713,-38.5 713,-19.5 562,-19.5"/>
<text text-anchor="middle" x="637.5" y="-26.5" font-family="Helvetica,sans-Serif" font-size="10.00" fill="#000000">chi::GraphModule::saveToDisk</text>
</a>
</g>
</g>
<!-- Node77&#45;&gt;Node78 -->
<g id="edge4" class="edge">
<title>Node77&#45;&gt;Node78</title>
<path fill="none" stroke="#191970" d="M527.8263,-29C538.9968,-29 550.5676,-29 561.8204,-29"/>
<polygon fill="#191970" stroke="#191970" points="527.7009,-25.5001 517.7009,-29 527.7008,-32.5001 527.7009,-25.5001"/>
</g>
</g>
</svg>
