<?xml version="1.0" encoding="UTF-8" standalone="no"?>
<!DOCTYPE svg PUBLIC "-//W3C//DTD SVG 1.1//EN"
 "http://www.w3.org/Graphics/SVG/1.1/DTD/svg11.dtd">
<!-- Generated by graphviz version 2.40.1 (20161225.0304)
 -->
<!-- Title: chi::Context::typeFromModule Pages: 1 -->
<svg width="1647pt" height="285pt"
 viewBox="0.00 0.00 1647.00 285.00" xmlns="http://www.w3.org/2000/svg" xmlns:xlink="http://www.w3.org/1999/xlink">
<g id="graph0" class="graph" transform="scale(1 1) rotate(0) translate(4 281)">
<title>chi::Context::typeFromModule</title>
<polygon fill="#ffffff" stroke="transparent" points="-4,4 -4,-281 1643,-281 1643,4 -4,4"/>
<!-- Node322 -->
<g id="node1" class="node">
<title>Node322</title>
<polygon fill="#bfbfbf" stroke="#000000" points="0,-126 0,-145 148,-145 148,-126 0,-126"/>
<text text-anchor="middle" x="74" y="-133" font-family="Helvetica,sans-Serif" font-size="10.00" fill="#000000">chi::Context::typeFromModule</text>
</g>
<!-- Node323 -->
<g id="node2" class="node">
<title>Node323</title>
<g id="a_node2"><a xlink:href="namespacechi.html#a8329038fce8125396cc9775460aa427b" target="_top" xlink:title="Compile the graph to an llvm::Function (usually called from JsonModule::generateModule) ...">
<polygon fill="#ffffff" stroke="#000000" points="215.5,-252 215.5,-271 322.5,-271 322.5,-252 215.5,-252"/>
<text text-anchor="middle" x="269" y="-259" font-family="Helvetica,sans-Serif" font-size="10.00" fill="#000000">chi::compileFunction</text>
</a>
</g>
</g>
<!-- Node322&#45;&gt;Node323 -->
<g id="edge1" class="edge">
<title>Node322&#45;&gt;Node323</title>
<path fill="none" stroke="#191970" d="M87.0363,-153.2757C105.7177,-177.3923 142.4659,-220.0388 184,-242.5 193.5765,-247.6789 204.4899,-251.4476 215.2306,-254.1897"/>
<polygon fill="#191970" stroke="#191970" points="89.8237,-151.1589 80.9957,-145.3008 84.2437,-155.3855 89.8237,-151.1589"/>
</g>
<!-- Node325 -->
<g id="node4" class="node">
<title>Node325</title>
<g id="a_node4"><a xlink:href="namespacechi.html#af483dab3c6b3b1ee261f223bd83d5670" target="_top" xlink:title="Create a forward declaration of a function in a module with an empty graph. ">
<polygon fill="#ffffff" stroke="#000000" points="206,-202.5 206,-232.5 332,-232.5 332,-202.5 206,-202.5"/>
<text text-anchor="start" x="214" y="-220.5" font-family="Helvetica,sans-Serif" font-size="10.00" fill="#000000">chi::createGraphFunction</text>
<text text-anchor="middle" x="269" y="-209.5" font-family="Helvetica,sans-Serif" font-size="10.00" fill="#000000">DeclarationFromJson</text>
</a>
</g>
</g>
<!-- Node322&#45;&gt;Node325 -->
<g id="edge3" class="edge">
<title>Node322&#45;&gt;Node325</title>
<path fill="none" stroke="#191970" d="M98.8784,-150.1489C120.7597,-162.602 153.7496,-180.345 184,-192.5 192.9919,-196.1131 202.7059,-199.4619 212.242,-202.4577"/>
<polygon fill="#191970" stroke="#191970" points="100.3518,-146.9586 89.939,-145.0031 96.8597,-153.0253 100.3518,-146.9586"/>
</g>
<!-- Node335 -->
<g id="node14" class="node">
<title>Node335</title>
<g id="a_node14"><a xlink:href="namespacechi.html#a6a3fedb48e6702c016f996d8a7f445fc" target="_top" xlink:title="Load a GraphFunction–must already exist (use createGraphFunctionDeclarationFromJson) ...">
<polygon fill="#ffffff" stroke="#000000" points="205,-164 205,-183 333,-183 333,-164 205,-164"/>
<text text-anchor="middle" x="269" y="-171" font-family="Helvetica,sans-Serif" font-size="10.00" fill="#000000">chi::jsonToGraphFunction</text>
</a>
</g>
</g>
<!-- Node322&#45;&gt;Node335 -->
<g id="edge13" class="edge">
<title>Node322&#45;&gt;Node335</title>
<path fill="none" stroke="#191970" d="M132.9588,-146.9894C160.782,-152.4114 193.5957,-158.8058 220.0248,-163.9561"/>
<polygon fill="#191970" stroke="#191970" points="133.4399,-143.5174 122.955,-145.04 132.1009,-150.3882 133.4399,-143.5174"/>
</g>
<!-- Node336 -->
<g id="node15" class="node">
<title>Node336</title>
<g id="a_node15"><a xlink:href="namespacechi.html#a629f77832b6e7a6e0eaab123c4be1cda" target="_top" xlink:title="Load a GraphStruct from json. ">
<polygon fill="#ffffff" stroke="#000000" points="210.5,-126 210.5,-145 327.5,-145 327.5,-126 210.5,-126"/>
<text text-anchor="middle" x="269" y="-133" font-family="Helvetica,sans-Serif" font-size="10.00" fill="#000000">chi::jsonToGraphStruct</text>
</a>
</g>
</g>
<!-- Node322&#45;&gt;Node336 -->
<g id="edge15" class="edge">
<title>Node322&#45;&gt;Node336</title>
<path fill="none" stroke="#191970" d="M158.4962,-135.5C175.9931,-135.5 194.059,-135.5 210.3851,-135.5"/>
<polygon fill="#191970" stroke="#191970" points="158.2774,-132.0001 148.2774,-135.5 158.2774,-139.0001 158.2774,-132.0001"/>
</g>
<!-- Node337 -->
<g id="node16" class="node">
<title>Node337</title>
<g id="a_node16"><a xlink:href="structchi_1_1LangModule.html#a0d623aa2342eec20ab11150e793f6b9e" target="_top" xlink:title="Default constructor, usually called from Context::loadModule(&quot;lang&quot;) ">
<polygon fill="#ffffff" stroke="#000000" points="196,-88 196,-107 342,-107 342,-88 196,-88"/>
<text text-anchor="middle" x="269" y="-95" font-family="Helvetica,sans-Serif" font-size="10.00" fill="#000000">chi::LangModule::LangModule</text>
</a>
</g>
</g>
<!-- Node322&#45;&gt;Node337 -->
<g id="edge17" class="edge">
<title>Node322&#45;&gt;Node337</title>
<path fill="none" stroke="#191970" d="M132.9588,-124.0106C160.782,-118.5886 193.5957,-112.1942 220.0248,-107.0439"/>
<polygon fill="#191970" stroke="#191970" points="132.1009,-120.6118 122.955,-125.96 133.4399,-127.4826 132.1009,-120.6118"/>
</g>
<!-- Node338 -->
<g id="node17" class="node">
<title>Node338</title>
<g id="a_node17"><a xlink:href="structchi_1_1CModule.html#a85955d3046f14df8957f1248285a3228" target="_top" xlink:title="Create a node type that is in the module from the name and json. ">
<polygon fill="#ffffff" stroke="#000000" points="184,-50 184,-69 354,-69 354,-50 184,-50"/>
<text text-anchor="middle" x="269" y="-57" font-family="Helvetica,sans-Serif" font-size="10.00" fill="#000000">chi::CModule::nodeTypeFromName</text>
</a>
</g>
</g>
<!-- Node322&#45;&gt;Node338 -->
<g id="edge18" class="edge">
<title>Node322&#45;&gt;Node338</title>
<path fill="none" stroke="#191970" d="M98.312,-120.5682C120.0668,-107.7829 153.1882,-89.7123 184,-78.5 194.2309,-74.777 205.4305,-71.6453 216.2447,-69.0667"/>
<polygon fill="#191970" stroke="#191970" points="96.2401,-117.7287 89.4451,-125.8576 99.8262,-123.7403 96.2401,-117.7287"/>
</g>
<!-- Node339 -->
<g id="node18" class="node">
<title>Node339</title>
<g id="a_node18"><a xlink:href="structchi_1_1GraphModule.html#a133c0595e0bb888f958e9769838f6c0c" target="_top" xlink:title="Create a node type that is in the module from the name and json. ">
<polygon fill="#ffffff" stroke="#000000" points="198,-.5 198,-30.5 340,-30.5 340,-.5 198,-.5"/>
<text text-anchor="start" x="206" y="-18.5" font-family="Helvetica,sans-Serif" font-size="10.00" fill="#000000">chi::GraphModule::nodeType</text>
<text text-anchor="middle" x="269" y="-7.5" font-family="Helvetica,sans-Serif" font-size="10.00" fill="#000000">FromName</text>
</a>
</g>
</g>
<!-- Node322&#45;&gt;Node339 -->
<g id="edge19" class="edge">
<title>Node322&#45;&gt;Node339</title>
<path fill="none" stroke="#191970" d="M89.3984,-118.2935C109.2748,-97.0814 145.8622,-61.2954 184,-40.5 191.0225,-36.6708 198.6992,-33.3658 206.4746,-30.5299"/>
<polygon fill="#191970" stroke="#191970" points="86.5949,-116.1714 82.4018,-125.9012 91.7473,-120.9099 86.5949,-116.1714"/>
</g>
<!-- Node324 -->
<g id="node3" class="node">
<title>Node324</title>
<g id="a_node3"><a xlink:href="structchi_1_1GraphModule.html#a9b73bbbfa91d6a2f92bcca270bdb7b2f" target="_top" xlink:title="Generate a llvm::Module from the module. ">
<polygon fill="#ffffff" stroke="#000000" points="390,-246.5 390,-276.5 527,-276.5 527,-246.5 390,-246.5"/>
<text text-anchor="start" x="398" y="-264.5" font-family="Helvetica,sans-Serif" font-size="10.00" fill="#000000">chi::GraphModule::generate</text>
<text text-anchor="middle" x="458.5" y="-253.5" font-family="Helvetica,sans-Serif" font-size="10.00" fill="#000000">Module</text>
</a>
</g>
</g>
<!-- Node323&#45;&gt;Node324 -->
<g id="edge2" class="edge">
<title>Node323&#45;&gt;Node324</title>
<path fill="none" stroke="#191970" d="M332.5651,-261.5C350.9686,-261.5 371.1388,-261.5 389.8386,-261.5"/>
<polygon fill="#191970" stroke="#191970" points="332.5433,-258.0001 322.5432,-261.5 332.5432,-265.0001 332.5433,-258.0001"/>
</g>
<!-- Node326 -->
<g id="node5" class="node">
<title>Node326</title>
<g id="a_node5"><a xlink:href="namespacechi.html#a4489e333fecc4168278e94f8b3f81e3c" target="_top" xlink:title="Load a GraphModule from json. ">
<polygon fill="#ffffff" stroke="#000000" points="397.5,-163 397.5,-182 519.5,-182 519.5,-163 397.5,-163"/>
<text text-anchor="middle" x="458.5" y="-170" font-family="Helvetica,sans-Serif" font-size="10.00" fill="#000000">chi::jsonToGraphModule</text>
</a>
</g>
</g>
<!-- Node325&#45;&gt;Node326 -->
<g id="edge4" class="edge">
<title>Node325&#45;&gt;Node326</title>
<path fill="none" stroke="#191970" d="M341.9084,-200.1867C367.8388,-194.0291 396.0773,-187.3233 418.2685,-182.0537"/>
<polygon fill="#191970" stroke="#191970" points="341.0215,-196.7999 332.1008,-202.5157 342.6389,-203.6105 341.0215,-196.7999"/>
</g>
<!-- Node327 -->
<g id="node6" class="node">
<title>Node327</title>
<g id="a_node6"><a xlink:href="structchi_1_1Context.html#a2db103f3a2f77710dfa51489f63ec97f" target="_top" xlink:title="Load a module from JSON – avoid this use the string overload. ">
<polygon fill="#ffffff" stroke="#000000" points="563,-162 563,-181 729,-181 729,-162 563,-162"/>
<text text-anchor="middle" x="646" y="-169" font-family="Helvetica,sans-Serif" font-size="10.00" fill="#000000">chi::Context::addModuleFromJson</text>
</a>
</g>
</g>
<!-- Node326&#45;&gt;Node327 -->
<g id="edge5" class="edge">
<title>Node326&#45;&gt;Node327</title>
<path fill="none" stroke="#191970" d="M529.8204,-172.1196C540.5991,-172.0621 551.7981,-172.0024 562.8007,-171.9437"/>
<polygon fill="#191970" stroke="#191970" points="529.6162,-168.6206 519.6351,-172.1739 529.6536,-175.6205 529.6162,-168.6206"/>
</g>
<!-- Node328 -->
<g id="node7" class="node">
<title>Node328</title>
<g id="a_node7"><a xlink:href="structchi_1_1Context.html#a508c786fe61ffa67c2a44850ecac4a7b" target="_top" xlink:title="Load a module from disk, also loads dependencies. ">
<polygon fill="#ffffff" stroke="#000000" points="765,-162 765,-181 890,-181 890,-162 765,-162"/>
<text text-anchor="middle" x="827.5" y="-169" font-family="Helvetica,sans-Serif" font-size="10.00" fill="#000000">chi::Context::loadModule</text>
</a>
</g>
</g>
<!-- Node327&#45;&gt;Node328 -->
<g id="edge6" class="edge">
<title>Node327&#45;&gt;Node328</title>
<path fill="none" stroke="#191970" d="M739.2319,-171.5C747.9115,-171.5 756.5607,-171.5 764.8618,-171.5"/>
<polygon fill="#191970" stroke="#191970" points="739.0481,-168.0001 729.048,-171.5 739.048,-175.0001 739.0481,-168.0001"/>
</g>
<!-- Node329 -->
<g id="node8" class="node">
<title>Node329</title>
<g id="a_node8"><a xlink:href="structchi_1_1ChiModule.html#aab11d61e0c0138e5fc5ce176c20e3bec" target="_top" xlink:title="Add a dependency to the module Loads the module from context() if it isn&#39;t already loaded...">
<polygon fill="#ffffff" stroke="#000000" points="926,-161 926,-180 1083,-180 1083,-161 926,-161"/>
<text text-anchor="middle" x="1004.5" y="-168" font-family="Helvetica,sans-Serif" font-size="10.00" fill="#000000">chi::ChiModule::addDependency</text>
</a>
</g>
</g>
<!-- Node328&#45;&gt;Node329 -->
<g id="edge7" class="edge">
<title>Node328&#45;&gt;Node329</title>
<path fill="none" stroke="#191970" d="M900.4468,-171.0879C908.7758,-171.0408 917.2946,-170.9927 925.6954,-170.9452"/>
<polygon fill="#191970" stroke="#191970" points="900.382,-167.5881 890.402,-171.1446 900.4216,-174.588 900.382,-167.5881"/>
</g>
<!-- Node330 -->
<g id="node9" class="node">
<title>Node330</title>
<g id="a_node9"><a xlink:href="structchi_1_1ChiModule.html#a9c0d4b1b54bca0194ea4061ae4883779" target="_top" xlink:title="Get the dependencies. ">
<polygon fill="#ffffff" stroke="#000000" points="1124,-161 1124,-180 1271,-180 1271,-161 1124,-161"/>
<text text-anchor="middle" x="1197.5" y="-168" font-family="Helvetica,sans-Serif" font-size="10.00" fill="#000000">chi::ChiModule::dependencies</text>
</a>
</g>
</g>
<!-- Node329&#45;&gt;Node330 -->
<g id="edge8" class="edge">
<title>Node329&#45;&gt;Node330</title>
<path fill="none" stroke="#191970" d="M1093.1712,-170.5C1103.3983,-170.5 1113.7436,-170.5 1123.7433,-170.5"/>
<polygon fill="#191970" stroke="#191970" points="1093.0005,-167.0001 1083.0005,-170.5 1093.0005,-174.0001 1093.0005,-167.0001"/>
</g>
<!-- Node334 -->
<g id="node13" class="node">
<title>Node334</title>
<g id="a_node13"><a xlink:href="structchi_1_1GraphModule.html#a1f776646b9c9bdd615f7e35cebf7760a" target="_top" xlink:title="Construct a GraphModule. ">
<polygon fill="#ffffff" stroke="#000000" points="1119,-123 1119,-142 1276,-142 1276,-123 1119,-123"/>
<text text-anchor="middle" x="1197.5" y="-130" font-family="Helvetica,sans-Serif" font-size="10.00" fill="#000000">chi::GraphModule::GraphModule</text>
</a>
</g>
</g>
<!-- Node329&#45;&gt;Node334 -->
<g id="edge12" class="edge">
<title>Node329&#45;&gt;Node334</title>
<path fill="none" stroke="#191970" d="M1063.1016,-158.9619C1090.6289,-153.542 1123.0476,-147.159 1149.1482,-142.0201"/>
<polygon fill="#191970" stroke="#191970" points="1062.3375,-155.545 1053.202,-160.911 1063.6898,-162.4132 1062.3375,-155.545"/>
</g>
<!-- Node331 -->
<g id="node10" class="node">
<title>Node331</title>
<g id="a_node10"><a xlink:href="structchi_1_1Context.html#ad535dc768a4386dbd06c8b769c5d549f" target="_top" xlink:title="Compile a module to a llvm::Module. ">
<polygon fill="#ffffff" stroke="#000000" points="1312,-161 1312,-180 1452,-180 1452,-161 1312,-161"/>
<text text-anchor="middle" x="1382" y="-168" font-family="Helvetica,sans-Serif" font-size="10.00" fill="#000000">chi::Context::compileModule</text>
</a>
</g>
</g>
<!-- Node330&#45;&gt;Node331 -->
<g id="edge9" class="edge">
<title>Node330&#45;&gt;Node331</title>
<path fill="none" stroke="#191970" d="M1281.3096,-170.5C1291.4689,-170.5 1301.7658,-170.5 1311.7021,-170.5"/>
<polygon fill="#191970" stroke="#191970" points="1281.2147,-167.0001 1271.2147,-170.5 1281.2147,-174.0001 1281.2147,-167.0001"/>
</g>
<!-- Node332 -->
<g id="node11" class="node">
<title>Node332</title>
<g id="a_node11"><a xlink:href="namespacechi.html#a9a4f3fa54c612f0c559a353bb7382d5a" target="_top" xlink:title="Serialize a JsonModule to json. ">
<polygon fill="#ffffff" stroke="#000000" points="1320.5,-104 1320.5,-123 1443.5,-123 1443.5,-104 1320.5,-104"/>
<text text-anchor="middle" x="1382" y="-111" font-family="Helvetica,sans-Serif" font-size="10.00" fill="#000000">chi::graphModuleToJson</text>
</a>
</g>
</g>
<!-- Node330&#45;&gt;Node332 -->
<g id="edge10" class="edge">
<title>Node330&#45;&gt;Node332</title>
<path fill="none" stroke="#191970" d="M1250.4502,-158.5017C1259.0327,-156.3227 1267.7932,-153.9566 1276,-151.5 1304.2801,-143.0348 1336.0776,-131.3351 1357.4039,-123.1618"/>
<polygon fill="#191970" stroke="#191970" points="1249.3648,-155.1647 1240.5006,-160.9679 1251.049,-161.9591 1249.3648,-155.1647"/>
</g>
<!-- Node333 -->
<g id="node12" class="node">
<title>Node333</title>
<g id="a_node12"><a xlink:href="structchi_1_1GraphModule.html#a5cd9fb1738336d5d382ebb50753bda3e" target="_top" xlink:title="Serialize to disk in the context. ">
<polygon fill="#ffffff" stroke="#000000" points="1488,-104 1488,-123 1639,-123 1639,-104 1488,-104"/>
<text text-anchor="middle" x="1563.5" y="-111" font-family="Helvetica,sans-Serif" font-size="10.00" fill="#000000">chi::GraphModule::saveToDisk</text>
</a>
</g>
</g>
<!-- Node332&#45;&gt;Node333 -->
<g id="edge11" class="edge">
<title>Node332&#45;&gt;Node333</title>
<path fill="none" stroke="#191970" d="M1453.8263,-113.5C1464.9968,-113.5 1476.5676,-113.5 1487.8204,-113.5"/>
<polygon fill="#191970" stroke="#191970" points="1453.7009,-110.0001 1443.7009,-113.5 1453.7008,-117.0001 1453.7009,-110.0001"/>
</g>
<!-- Node335&#45;&gt;Node326 -->
<g id="edge14" class="edge">
<title>Node335&#45;&gt;Node326</title>
<path fill="none" stroke="#191970" d="M343.5121,-173.1068C361.3319,-173.0128 380.1536,-172.9134 397.2937,-172.823"/>
<polygon fill="#191970" stroke="#191970" points="343.1374,-169.6086 333.1561,-173.1614 343.1744,-176.6085 343.1374,-169.6086"/>
</g>
<!-- Node336&#45;&gt;Node326 -->
<g id="edge16" class="edge">
<title>Node336&#45;&gt;Node326</title>
<path fill="none" stroke="#191970" d="M327.6337,-146.9483C353.8996,-152.0767 384.5202,-158.0554 409.5354,-162.9396"/>
<polygon fill="#191970" stroke="#191970" points="328.2864,-143.5097 317.801,-145.0284 326.9449,-150.38 328.2864,-143.5097"/>
</g>
<!-- Node340 -->
<g id="node19" class="node">
<title>Node340</title>
<g id="a_node19"><a xlink:href="structchi_1_1GraphFunction.html#a60bc423cb4fed3605a446da112949483" target="_top" xlink:title="Rename a local variable. ">
<polygon fill="#ffffff" stroke="#000000" points="402,-49.5 402,-79.5 515,-79.5 515,-49.5 402,-49.5"/>
<text text-anchor="start" x="410" y="-67.5" font-family="Helvetica,sans-Serif" font-size="10.00" fill="#000000">chi::GraphFunction</text>
<text text-anchor="middle" x="458.5" y="-56.5" font-family="Helvetica,sans-Serif" font-size="10.00" fill="#000000">::renameLocalVariable</text>
</a>
</g>
</g>
<!-- Node339&#45;&gt;Node340 -->
<g id="edge20" class="edge">
<title>Node339&#45;&gt;Node340</title>
<path fill="none" stroke="#191970" d="M337.056,-33.0976C358.2658,-38.5819 381.4187,-44.5687 401.7671,-49.8303"/>
<polygon fill="#191970" stroke="#191970" points="337.7019,-29.6496 327.1441,-30.5346 335.9494,-36.4267 337.7019,-29.6496"/>
</g>
<!-- Node343 -->
<g id="node22" class="node">
<title>Node343</title>
<g id="a_node22"><a xlink:href="structchi_1_1GraphFunction.html#a4c38679ec5e727bfb71c8eaaa5a8ca1a" target="_top" xlink:title="Set a new type to a local variable. ">
<polygon fill="#ffffff" stroke="#000000" points="404.5,-.5 404.5,-30.5 512.5,-30.5 512.5,-.5 404.5,-.5"/>
<text text-anchor="start" x="412.5" y="-18.5" font-family="Helvetica,sans-Serif" font-size="10.00" fill="#000000">chi::GraphFunction</text>
<text text-anchor="middle" x="458.5" y="-7.5" font-family="Helvetica,sans-Serif" font-size="10.00" fill="#000000">::retypeLocalVariable</text>
</a>
</g>
</g>
<!-- Node339&#45;&gt;Node343 -->
<g id="edge24" class="edge">
<title>Node339&#45;&gt;Node343</title>
<path fill="none" stroke="#191970" d="M350.2025,-15.5C368.5439,-15.5 387.5768,-15.5 404.4753,-15.5"/>
<polygon fill="#191970" stroke="#191970" points="350.102,-12.0001 340.102,-15.5 350.1019,-19.0001 350.102,-12.0001"/>
</g>
<!-- Node341 -->
<g id="node20" class="node">
<title>Node341</title>
<g id="a_node20"><a xlink:href="structchi_1_1GraphFunction.html#a44f8f791775e4878b6bde37140cd131d" target="_top" xlink:title="Get the local variables. ">
<polygon fill="#ffffff" stroke="#000000" points="596.5,-49.5 596.5,-79.5 695.5,-79.5 695.5,-49.5 596.5,-49.5"/>
<text text-anchor="start" x="604.5" y="-67.5" font-family="Helvetica,sans-Serif" font-size="10.00" fill="#000000">chi::GraphFunction</text>
<text text-anchor="middle" x="646" y="-56.5" font-family="Helvetica,sans-Serif" font-size="10.00" fill="#000000">::localVariables</text>
</a>
</g>
</g>
<!-- Node340&#45;&gt;Node341 -->
<g id="edge21" class="edge">
<title>Node340&#45;&gt;Node341</title>
<path fill="none" stroke="#191970" d="M525.2223,-64.5C548.6367,-64.5 574.5106,-64.5 596.2841,-64.5"/>
<polygon fill="#191970" stroke="#191970" points="525.0105,-61.0001 515.0105,-64.5 525.0104,-68.0001 525.0105,-61.0001"/>
</g>
<!-- Node342 -->
<g id="node21" class="node">
<title>Node342</title>
<g id="a_node21"><a xlink:href="namespacechi.html#afd8b8d8a207d88359ad1e6a48d8f3bb1" target="_top" xlink:title="Serialize a GraphFunction to json. ">
<polygon fill="#ffffff" stroke="#000000" points="940,-79 940,-98 1069,-98 1069,-79 940,-79"/>
<text text-anchor="middle" x="1004.5" y="-86" font-family="Helvetica,sans-Serif" font-size="10.00" fill="#000000">chi::graphFunctionToJson</text>
</a>
</g>
</g>
<!-- Node341&#45;&gt;Node342 -->
<g id="edge22" class="edge">
<title>Node341&#45;&gt;Node342</title>
<path fill="none" stroke="#191970" d="M705.8991,-68.51C770.6332,-72.8436 873.4297,-79.7254 939.9286,-84.1772"/>
<polygon fill="#191970" stroke="#191970" points="706.0594,-65.013 695.8479,-67.8371 705.5917,-71.9973 706.0594,-65.013"/>
</g>
<!-- Node342&#45;&gt;Node332 -->
<g id="edge23" class="edge">
<title>Node342&#45;&gt;Node332</title>
<path fill="none" stroke="#191970" d="M1079.5586,-93.4708C1150.1708,-98.1471 1254.6187,-105.0642 1320.452,-109.424"/>
<polygon fill="#191970" stroke="#191970" points="1079.604,-89.9662 1069.3946,-92.7977 1079.1414,-96.9509 1079.604,-89.9662"/>
</g>
<!-- Node343&#45;&gt;Node341 -->
<g id="edge25" class="edge">
<title>Node343&#45;&gt;Node341</title>
<path fill="none" stroke="#191970" d="M522.5254,-32.232C546.6682,-38.5413 573.7446,-45.6172 596.3762,-51.5317"/>
<polygon fill="#191970" stroke="#191970" points="523.2928,-28.815 512.7328,-29.6728 521.5229,-35.5876 523.2928,-28.815"/>
</g>
</g>
</svg>
