<?xml version="1.0" encoding="UTF-8" standalone="no"?>
<!DOCTYPE svg PUBLIC "-//W3C//DTD SVG 1.1//EN"
 "http://www.w3.org/Graphics/SVG/1.1/DTD/svg11.dtd">
<!-- Generated by graphviz version 2.40.1 (20161225.0304)
 -->
<!-- Title: chi::GraphModule::getOrCreateStruct Pages: 1 -->
<svg width="1621pt" height="241pt"
 viewBox="0.00 0.00 1621.00 240.50" xmlns="http://www.w3.org/2000/svg" xmlns:xlink="http://www.w3.org/1999/xlink">
<g id="graph0" class="graph" transform="scale(1 1) rotate(0) translate(4 236.5)">
<title>chi::GraphModule::getOrCreateStruct</title>
<polygon fill="#ffffff" stroke="transparent" points="-4,4 -4,-236.5 1617,-236.5 1617,4 -4,4"/>
<!-- Node324 -->
<g id="node1" class="node">
<title>Node324</title>
<polygon fill="#bfbfbf" stroke="#000000" points="0,-52 0,-82 152,-82 152,-52 0,-52"/>
<text text-anchor="start" x="8" y="-70" font-family="Helvetica,sans-Serif" font-size="10.00" fill="#000000">chi::GraphModule::getOrCreate</text>
<text text-anchor="middle" x="76" y="-59" font-family="Helvetica,sans-Serif" font-size="10.00" fill="#000000">Struct</text>
</g>
<!-- Node325 -->
<g id="node2" class="node">
<title>Node325</title>
<g id="a_node2"><a xlink:href="structchi_1_1GraphModule.html#a45255dbf09b56ac93b35ebc4d77bba5c" target="_top" xlink:title="Get functions. ">
<polygon fill="#ffffff" stroke="#000000" points="188,-76.5 188,-95.5 327,-95.5 327,-76.5 188,-76.5"/>
<text text-anchor="middle" x="257.5" y="-83.5" font-family="Helvetica,sans-Serif" font-size="10.00" fill="#000000">chi::GraphModule::functions</text>
</a>
</g>
</g>
<!-- Node324&#45;&gt;Node325 -->
<g id="edge1" class="edge">
<title>Node324&#45;&gt;Node325</title>
<path fill="none" stroke="#191970" d="M162.2315,-76.027C170.8279,-76.9269 179.4785,-77.8325 187.8738,-78.7113"/>
<polygon fill="#191970" stroke="#191970" points="162.4935,-72.5354 152.1834,-74.9751 161.7647,-79.4973 162.4935,-72.5354"/>
</g>
<!-- Node334 -->
<g id="node11" class="node">
<title>Node334</title>
<g id="a_node11"><a xlink:href="namespacechi.html#a629f77832b6e7a6e0eaab123c4be1cda" target="_top" xlink:title="Load a GraphStruct from json. ">
<polygon fill="#ffffff" stroke="#000000" points="199,-38.5 199,-57.5 316,-57.5 316,-38.5 199,-38.5"/>
<text text-anchor="middle" x="257.5" y="-45.5" font-family="Helvetica,sans-Serif" font-size="10.00" fill="#000000">chi::jsonToGraphStruct</text>
</a>
</g>
</g>
<!-- Node324&#45;&gt;Node334 -->
<g id="edge11" class="edge">
<title>Node324&#45;&gt;Node334</title>
<path fill="none" stroke="#191970" d="M162.498,-57.9451C174.8305,-56.6541 187.268,-55.3521 198.8967,-54.1348"/>
<polygon fill="#191970" stroke="#191970" points="161.7647,-54.5027 152.1834,-59.0249 162.4935,-61.4646 161.7647,-54.5027"/>
</g>
<!-- Node326 -->
<g id="node3" class="node">
<title>Node326</title>
<g id="a_node3"><a xlink:href="structchi_1_1GraphModule.html#a0f4f97f458bbbacd6ff3c1be55441b98" target="_top" xlink:title="Create the associations from line number and function in debug info. ">
<polygon fill="#ffffff" stroke="#000000" points="363,-127 363,-157 489,-157 489,-127 363,-127"/>
<text text-anchor="start" x="371" y="-145" font-family="Helvetica,sans-Serif" font-size="10.00" fill="#000000">chi::GraphModule::create</text>
<text text-anchor="middle" x="426" y="-134" font-family="Helvetica,sans-Serif" font-size="10.00" fill="#000000">LineNumberAssoc</text>
</a>
</g>
</g>
<!-- Node325&#45;&gt;Node326 -->
<g id="edge2" class="edge">
<title>Node325&#45;&gt;Node326</title>
<path fill="none" stroke="#191970" d="M296.0429,-98.8095C321.2114,-107.1741 354.1845,-118.1325 380.6191,-126.9179"/>
<polygon fill="#191970" stroke="#191970" points="297.0597,-95.4593 286.4662,-95.6267 294.852,-102.102 297.0597,-95.4593"/>
</g>
<!-- Node332 -->
<g id="node9" class="node">
<title>Node332</title>
<g id="a_node9"><a xlink:href="namespacechi.html#a9a4f3fa54c612f0c559a353bb7382d5a" target="_top" xlink:title="Serialize a JsonModule to json. ">
<polygon fill="#ffffff" stroke="#000000" points="1294.5,-76.5 1294.5,-95.5 1417.5,-95.5 1417.5,-76.5 1294.5,-76.5"/>
<text text-anchor="middle" x="1356" y="-83.5" font-family="Helvetica,sans-Serif" font-size="10.00" fill="#000000">chi::graphModuleToJson</text>
</a>
</g>
</g>
<!-- Node325&#45;&gt;Node332 -->
<g id="edge9" class="edge">
<title>Node325&#45;&gt;Node332</title>
<path fill="none" stroke="#191970" d="M337.5437,-86C408.5855,-86 515.2027,-86 608,-86 608,-86 608,-86 978.5,-86 1089.7511,-86 1219.4444,-86 1294.2072,-86"/>
<polygon fill="#191970" stroke="#191970" points="337.3262,-82.5001 327.3262,-86 337.3261,-89.5001 337.3262,-82.5001"/>
</g>
<!-- Node327 -->
<g id="node4" class="node">
<title>Node327</title>
<g id="a_node4"><a xlink:href="namespacechi.html#a8329038fce8125396cc9775460aa427b" target="_top" xlink:title="Compile the graph to an llvm::Function (usually called from JsonModule::generateModule) ...">
<polygon fill="#ffffff" stroke="#000000" points="554.5,-194.5 554.5,-213.5 661.5,-213.5 661.5,-194.5 554.5,-194.5"/>
<text text-anchor="middle" x="608" y="-201.5" font-family="Helvetica,sans-Serif" font-size="10.00" fill="#000000">chi::compileFunction</text>
</a>
</g>
</g>
<!-- Node326&#45;&gt;Node327 -->
<g id="edge3" class="edge">
<title>Node326&#45;&gt;Node327</title>
<path fill="none" stroke="#191970" d="M479.5462,-160.241C512.4414,-171.4471 553.2464,-185.3477 579.9209,-194.4346"/>
<polygon fill="#191970" stroke="#191970" points="480.6516,-156.9201 470.0571,-157.0085 478.3943,-163.5462 480.6516,-156.9201"/>
</g>
<!-- Node329 -->
<g id="node6" class="node">
<title>Node329</title>
<g id="a_node6"><a xlink:href="classchi_1_1Debugger.html#ae142902fa85248f40cbeea7199c86ad9" target="_top" xlink:title="Get a NodeInstance from a frame. ">
<polygon fill="#ffffff" stroke="#000000" points="531,-132.5 531,-151.5 685,-151.5 685,-132.5 531,-132.5"/>
<text text-anchor="middle" x="608" y="-139.5" font-family="Helvetica,sans-Serif" font-size="10.00" fill="#000000">chi::Debugger::nodeFromFrame</text>
</a>
</g>
</g>
<!-- Node326&#45;&gt;Node329 -->
<g id="edge5" class="edge">
<title>Node326&#45;&gt;Node329</title>
<path fill="none" stroke="#191970" d="M499.3786,-142C509.7398,-142 520.4179,-142 530.8476,-142"/>
<polygon fill="#191970" stroke="#191970" points="499.144,-138.5001 489.144,-142 499.144,-145.5001 499.144,-138.5001"/>
</g>
<!-- Node328 -->
<g id="node5" class="node">
<title>Node328</title>
<g id="a_node5"><a xlink:href="structchi_1_1GraphModule.html#a9b73bbbfa91d6a2f92bcca270bdb7b2f" target="_top" xlink:title="Generate a llvm::Module from the module. ">
<polygon fill="#ffffff" stroke="#000000" points="727,-202 727,-232 864,-232 864,-202 727,-202"/>
<text text-anchor="start" x="735" y="-220" font-family="Helvetica,sans-Serif" font-size="10.00" fill="#000000">chi::GraphModule::generate</text>
<text text-anchor="middle" x="795.5" y="-209" font-family="Helvetica,sans-Serif" font-size="10.00" fill="#000000">Module</text>
</a>
</g>
</g>
<!-- Node327&#45;&gt;Node328 -->
<g id="edge4" class="edge">
<title>Node327&#45;&gt;Node328</title>
<path fill="none" stroke="#191970" d="M671.9154,-208.4315C689.5605,-209.6549 708.7798,-210.9874 726.6895,-212.2291"/>
<polygon fill="#191970" stroke="#191970" points="671.9481,-204.9254 661.73,-207.7253 671.4639,-211.9087 671.9481,-204.9254"/>
</g>
<!-- Node330 -->
<g id="node7" class="node">
<title>Node330</title>
<g id="a_node7"><a xlink:href="classchi_1_1Debugger.html#a7b4b8117f767d7fc591ff1f54516c681" target="_top" xlink:title="Get the output of a node. ">
<polygon fill="#ffffff" stroke="#000000" points="727,-153 727,-183 864,-183 864,-153 727,-153"/>
<text text-anchor="start" x="735" y="-171" font-family="Helvetica,sans-Serif" font-size="10.00" fill="#000000">chi::Debugger::inspectNode</text>
<text text-anchor="middle" x="795.5" y="-160" font-family="Helvetica,sans-Serif" font-size="10.00" fill="#000000">Output</text>
</a>
</g>
</g>
<!-- Node329&#45;&gt;Node330 -->
<g id="edge6" class="edge">
<title>Node329&#45;&gt;Node330</title>
<path fill="none" stroke="#191970" d="M686.8054,-152.9277C700.0789,-154.7683 713.7625,-156.6657 726.7549,-158.4673"/>
<polygon fill="#191970" stroke="#191970" points="687.1394,-149.4406 676.7534,-151.5338 686.1779,-156.3742 687.1394,-149.4406"/>
</g>
<!-- Node331 -->
<g id="node8" class="node">
<title>Node331</title>
<g id="a_node8"><a xlink:href="classchi_1_1Debugger.html#a50f4de4ab6a18afa2eb82f5a5f43b06a" target="_top" xlink:title="Check if the process is executing. ">
<polygon fill="#ffffff" stroke="#000000" points="921.5,-136.5 921.5,-155.5 1035.5,-155.5 1035.5,-136.5 921.5,-136.5"/>
<text text-anchor="middle" x="978.5" y="-143.5" font-family="Helvetica,sans-Serif" font-size="10.00" fill="#000000">chi::Debugger::running</text>
</a>
</g>
</g>
<!-- Node329&#45;&gt;Node331 -->
<g id="edge8" class="edge">
<title>Node329&#45;&gt;Node331</title>
<path fill="none" stroke="#191970" d="M695.0529,-142.4718C744.5803,-142.7925 807.766,-143.2892 864,-144 882.6871,-144.2362 903.0885,-144.5686 921.4258,-144.8947"/>
<polygon fill="#191970" stroke="#191970" points="695.0398,-138.9718 685.0177,-142.408 694.9953,-145.9716 695.0398,-138.9718"/>
</g>
<!-- Node330&#45;&gt;Node331 -->
<g id="edge7" class="edge">
<title>Node330&#45;&gt;Node331</title>
<path fill="none" stroke="#191970" d="M874.4458,-158.5093C890.2355,-156.611 906.5336,-154.6517 921.4111,-152.8632"/>
<polygon fill="#191970" stroke="#191970" points="873.6738,-155.0768 864.1631,-159.7454 874.5094,-162.0267 873.6738,-155.0768"/>
</g>
<!-- Node333 -->
<g id="node10" class="node">
<title>Node333</title>
<g id="a_node10"><a xlink:href="structchi_1_1GraphModule.html#a5cd9fb1738336d5d382ebb50753bda3e" target="_top" xlink:title="Serialize to disk in the context. ">
<polygon fill="#ffffff" stroke="#000000" points="1462,-76.5 1462,-95.5 1613,-95.5 1613,-76.5 1462,-76.5"/>
<text text-anchor="middle" x="1537.5" y="-83.5" font-family="Helvetica,sans-Serif" font-size="10.00" fill="#000000">chi::GraphModule::saveToDisk</text>
</a>
</g>
</g>
<!-- Node332&#45;&gt;Node333 -->
<g id="edge10" class="edge">
<title>Node332&#45;&gt;Node333</title>
<path fill="none" stroke="#191970" d="M1427.8263,-86C1438.9968,-86 1450.5676,-86 1461.8204,-86"/>
<polygon fill="#191970" stroke="#191970" points="1427.7009,-82.5001 1417.7009,-86 1427.7008,-89.5001 1427.7009,-82.5001"/>
</g>
<!-- Node335 -->
<g id="node12" class="node">
<title>Node335</title>
<g id="a_node12"><a xlink:href="namespacechi.html#a4489e333fecc4168278e94f8b3f81e3c" target="_top" xlink:title="Load a GraphModule from json. ">
<polygon fill="#ffffff" stroke="#000000" points="365,-38.5 365,-57.5 487,-57.5 487,-38.5 365,-38.5"/>
<text text-anchor="middle" x="426" y="-45.5" font-family="Helvetica,sans-Serif" font-size="10.00" fill="#000000">chi::jsonToGraphModule</text>
</a>
</g>
</g>
<!-- Node334&#45;&gt;Node335 -->
<g id="edge12" class="edge">
<title>Node334&#45;&gt;Node335</title>
<path fill="none" stroke="#191970" d="M326.491,-48C339.189,-48 352.3654,-48 364.8139,-48"/>
<polygon fill="#191970" stroke="#191970" points="326.4332,-44.5001 316.4331,-48 326.4331,-51.5001 326.4332,-44.5001"/>
</g>
<!-- Node336 -->
<g id="node13" class="node">
<title>Node336</title>
<g id="a_node13"><a xlink:href="structchi_1_1Context.html#a2db103f3a2f77710dfa51489f63ec97f" target="_top" xlink:title="Load a module from JSON – avoid this use the string overload. ">
<polygon fill="#ffffff" stroke="#000000" points="525,-38.5 525,-57.5 691,-57.5 691,-38.5 525,-38.5"/>
<text text-anchor="middle" x="608" y="-45.5" font-family="Helvetica,sans-Serif" font-size="10.00" fill="#000000">chi::Context::addModuleFromJson</text>
</a>
</g>
</g>
<!-- Node335&#45;&gt;Node336 -->
<g id="edge13" class="edge">
<title>Node335&#45;&gt;Node336</title>
<path fill="none" stroke="#191970" d="M497.178,-48C506.2169,-48 515.53,-48 524.7367,-48"/>
<polygon fill="#191970" stroke="#191970" points="497.1097,-44.5001 487.1097,-48 497.1096,-51.5001 497.1097,-44.5001"/>
</g>
<!-- Node337 -->
<g id="node14" class="node">
<title>Node337</title>
<g id="a_node14"><a xlink:href="structchi_1_1Context.html#a508c786fe61ffa67c2a44850ecac4a7b" target="_top" xlink:title="Load a module from disk, also loads dependencies. ">
<polygon fill="#ffffff" stroke="#000000" points="733,-38.5 733,-57.5 858,-57.5 858,-38.5 733,-38.5"/>
<text text-anchor="middle" x="795.5" y="-45.5" font-family="Helvetica,sans-Serif" font-size="10.00" fill="#000000">chi::Context::loadModule</text>
</a>
</g>
</g>
<!-- Node336&#45;&gt;Node337 -->
<g id="edge14" class="edge">
<title>Node336&#45;&gt;Node337</title>
<path fill="none" stroke="#191970" d="M701.2751,-48C711.952,-48 722.6371,-48 732.7765,-48"/>
<polygon fill="#191970" stroke="#191970" points="701.0591,-44.5001 691.059,-48 701.059,-51.5001 701.0591,-44.5001"/>
</g>
<!-- Node338 -->
<g id="node15" class="node">
<title>Node338</title>
<g id="a_node15"><a xlink:href="structchi_1_1ChiModule.html#aab11d61e0c0138e5fc5ce176c20e3bec" target="_top" xlink:title="Add a dependency to the module Loads the module from context() if it isn&#39;t already loaded...">
<polygon fill="#ffffff" stroke="#000000" points="900,-38.5 900,-57.5 1057,-57.5 1057,-38.5 900,-38.5"/>
<text text-anchor="middle" x="978.5" y="-45.5" font-family="Helvetica,sans-Serif" font-size="10.00" fill="#000000">chi::ChiModule::addDependency</text>
</a>
</g>
</g>
<!-- Node337&#45;&gt;Node338 -->
<g id="edge15" class="edge">
<title>Node337&#45;&gt;Node338</title>
<path fill="none" stroke="#191970" d="M868.3827,-48C878.673,-48 889.2913,-48 899.6868,-48"/>
<polygon fill="#191970" stroke="#191970" points="868.2222,-44.5001 858.2222,-48 868.2222,-51.5001 868.2222,-44.5001"/>
</g>
<!-- Node339 -->
<g id="node16" class="node">
<title>Node339</title>
<g id="a_node16"><a xlink:href="structchi_1_1ChiModule.html#a9c0d4b1b54bca0194ea4061ae4883779" target="_top" xlink:title="Get the dependencies. ">
<polygon fill="#ffffff" stroke="#000000" points="1098,-38.5 1098,-57.5 1245,-57.5 1245,-38.5 1098,-38.5"/>
<text text-anchor="middle" x="1171.5" y="-45.5" font-family="Helvetica,sans-Serif" font-size="10.00" fill="#000000">chi::ChiModule::dependencies</text>
</a>
</g>
</g>
<!-- Node338&#45;&gt;Node339 -->
<g id="edge16" class="edge">
<title>Node338&#45;&gt;Node339</title>
<path fill="none" stroke="#191970" d="M1067.1712,-48C1077.3983,-48 1087.7436,-48 1097.7433,-48"/>
<polygon fill="#191970" stroke="#191970" points="1067.0005,-44.5001 1057.0005,-48 1067.0005,-51.5001 1067.0005,-44.5001"/>
</g>
<!-- Node341 -->
<g id="node18" class="node">
<title>Node341</title>
<g id="a_node18"><a xlink:href="structchi_1_1GraphModule.html#a1f776646b9c9bdd615f7e35cebf7760a" target="_top" xlink:title="Construct a GraphModule. ">
<polygon fill="#ffffff" stroke="#000000" points="1093,-.5 1093,-19.5 1250,-19.5 1250,-.5 1093,-.5"/>
<text text-anchor="middle" x="1171.5" y="-7.5" font-family="Helvetica,sans-Serif" font-size="10.00" fill="#000000">chi::GraphModule::GraphModule</text>
</a>
</g>
</g>
<!-- Node338&#45;&gt;Node341 -->
<g id="edge19" class="edge">
<title>Node338&#45;&gt;Node341</title>
<path fill="none" stroke="#191970" d="M1037.1016,-36.4619C1064.6289,-31.042 1097.0476,-24.659 1123.1482,-19.5201"/>
<polygon fill="#191970" stroke="#191970" points="1036.3375,-33.045 1027.202,-38.411 1037.6898,-39.9132 1036.3375,-33.045"/>
</g>
<!-- Node339&#45;&gt;Node332 -->
<g id="edge18" class="edge">
<title>Node339&#45;&gt;Node332</title>
<path fill="none" stroke="#191970" d="M1227.8672,-59.6095C1254.1074,-65.014 1284.936,-71.3635 1309.7776,-76.4799"/>
<polygon fill="#191970" stroke="#191970" points="1228.5576,-56.1783 1218.0571,-57.589 1227.1455,-63.0344 1228.5576,-56.1783"/>
</g>
<!-- Node340 -->
<g id="node17" class="node">
<title>Node340</title>
<g id="a_node17"><a xlink:href="structchi_1_1Context.html#ad535dc768a4386dbd06c8b769c5d549f" target="_top" xlink:title="Compile a module to a llvm::Module. ">
<polygon fill="#ffffff" stroke="#000000" points="1286,-38.5 1286,-57.5 1426,-57.5 1426,-38.5 1286,-38.5"/>
<text text-anchor="middle" x="1356" y="-45.5" font-family="Helvetica,sans-Serif" font-size="10.00" fill="#000000">chi::Context::compileModule</text>
</a>
</g>
</g>
<!-- Node339&#45;&gt;Node340 -->
<g id="edge17" class="edge">
<title>Node339&#45;&gt;Node340</title>
<path fill="none" stroke="#191970" d="M1255.3096,-48C1265.4689,-48 1275.7658,-48 1285.7021,-48"/>
<polygon fill="#191970" stroke="#191970" points="1255.2147,-44.5001 1245.2147,-48 1255.2147,-51.5001 1255.2147,-44.5001"/>
</g>
</g>
</svg>
