<?xml version="1.0" encoding="UTF-8" standalone="no"?>
<!DOCTYPE svg PUBLIC "-//W3C//DTD SVG 1.1//EN"
 "http://www.w3.org/Graphics/SVG/1.1/DTD/svg11.dtd">
<!-- Generated by graphviz version 2.40.1 (20161225.0304)
 -->
<!-- Title: chig::GraphFunction::addExecOutput Pages: 1 -->
<!--zoomable 161 -->
<svg id="main" version="1.1" xmlns="http://www.w3.org/2000/svg" xmlns:xlink="http://www.w3.org/1999/xlink" xml:space="preserve" onload="init(evt)">
<style type="text/css"><![CDATA[
.edge:hover path { stroke: red; }
.edge:hover polygon { stroke: red; fill: red; }
]]></style>
<script type="text/javascript"><![CDATA[
var edges = document.getElementsByTagName('g');
if (edges && edges.length) {
  for (var i=0;i<edges.length;i++) {
    if (edges[i].id.substr(0,4)=='edge') {
      edges[i].setAttribute('class','edge');
    }
  }
}
]]></script>
        <defs>
                <circle id="rim" cx="0" cy="0" r="7"/>
                <circle id="rim2" cx="0" cy="0" r="3.5"/>
                <g id="zoomPlus">
                        <use xlink:href="#rim" fill="#404040">
                                <set attributeName="fill" to="#808080" begin="zoomplus.mouseover" end="zoomplus.mouseout"/>
                        </use>
                        <path d="M-4,0h8M0,-4v8" fill="none" stroke="white" stroke-width="1.5" pointer-events="none"/>
                </g>
                <g id="zoomMin">
                        <use xlink:href="#rim" fill="#404040">
                                <set attributeName="fill" to="#808080" begin="zoomminus.mouseover" end="zoomminus.mouseout"/>
                        </use>
                        <path d="M-4,0h8" fill="none" stroke="white" stroke-width="1.5" pointer-events="none"/>
                </g>
                <g id="dirArrow">
                        <path fill="none" stroke="white" stroke-width="1.5" d="M0,-3.0v7 M-2.5,-0.5L0,-3.0L2.5,-0.5"/>
                </g>
               <g id="resetDef">
                       <use xlink:href="#rim2" fill="#404040">
                               <set attributeName="fill" to="#808080" begin="reset.mouseover" end="reset.mouseout"/>
                       </use>
               </g>
        </defs>

<script type="text/javascript">
var viewWidth = 1235;
var viewHeight = 161;
var sectionId = 'dynsection-4';
</script>
<script xlink:href="svgpan.js"/>
<svg id="graph" class="graph">
<g id="viewport">
<title>chig::GraphFunction::addExecOutput</title>
<polygon fill="#ffffff" stroke="transparent" points="-4,4 -4,-157.3979 1231,-157.3979 1231,4 -4,4"/>
<!-- Node47 -->
<g id="node1" class="node">
<title>Node47</title>
<polygon fill="#bfbfbf" stroke="#000000" points="0,-80.8979 0,-110.8979 113,-110.8979 113,-80.8979 0,-80.8979"/>
<text text-anchor="start" x="8" y="-98.8979" font-family="Helvetica,sans-Serif" font-size="10.00" fill="#000000">chig::GraphFunction</text>
<text text-anchor="middle" x="56.5" y="-87.8979" font-family="Helvetica,sans-Serif" font-size="10.00" fill="#000000">::addExecOutput</text>
</g>
<!-- Node48 -->
<g id="node2" class="node">
<title>Node48</title>
<g id="a_node2"><a xlink:href="structchig_1_1GraphFunction.html#ae155f716b072ef5f8e3ba064ae7ef8c0" target="_top" xlink:title="chig::GraphFunction\l::execOutputs">
<polygon fill="#ffffff" stroke="#000000" points="149,-80.8979 149,-110.8979 262,-110.8979 262,-80.8979 149,-80.8979"/>
<text text-anchor="start" x="157" y="-98.8979" font-family="Helvetica,sans-Serif" font-size="10.00" fill="#000000">chig::GraphFunction</text>
<text text-anchor="middle" x="205.5" y="-87.8979" font-family="Helvetica,sans-Serif" font-size="10.00" fill="#000000">::execOutputs</text>
</a>
</g>
</g>
<!-- Node47&#45;&gt;Node48 -->
<g id="edge1" class="edge">
<title>Node47&#45;&gt;Node48</title>
<path fill="none" stroke="#191970" d="M123.5076,-95.8979C131.9902,-95.8979 140.6037,-95.8979 148.9022,-95.8979"/>
<polygon fill="#191970" stroke="#191970" points="123.2556,-92.398 113.2556,-95.8979 123.2555,-99.398 123.2556,-92.398"/>
</g>
<!-- Node49 -->
<g id="node3" class="node">
<title>Node49</title>
<g id="a_node3"><a xlink:href="structchig_1_1GraphFunction.html#af4417b3cb4bb432656d8d929a81a07f8" target="_top" xlink:title="chig::GraphFunction\l::fromJSON">
<polygon fill="#ffffff" stroke="#000000" points="754,-122.8979 754,-152.8979 867,-152.8979 867,-122.8979 754,-122.8979"/>
<text text-anchor="start" x="762" y="-140.8979" font-family="Helvetica,sans-Serif" font-size="10.00" fill="#000000">chig::GraphFunction</text>
<text text-anchor="middle" x="810.5" y="-129.8979" font-family="Helvetica,sans-Serif" font-size="10.00" fill="#000000">::fromJSON</text>
</a>
</g>
</g>
<!-- Node48&#45;&gt;Node49 -->
<g id="edge2" class="edge">
<title>Node48&#45;&gt;Node49</title>
<path fill="none" stroke="#191970" d="M272.2841,-100.5342C392.0955,-108.8517 641.4907,-126.1651 753.6716,-133.9528"/>
<polygon fill="#191970" stroke="#191970" points="272.3634,-97.0314 262.145,-99.8303 271.8786,-104.0146 272.3634,-97.0314"/>
</g>
<!-- Node51 -->
<g id="node5" class="node">
<title>Node51</title>
<g id="a_node5"><a xlink:href="structchig_1_1GraphFunction.html#ac7c52122fef0c74d9d0ee04af9a741c4" target="_top" xlink:title="chig::GraphFunction\l::createExitNodeType">
<polygon fill="#ffffff" stroke="#000000" points="298,-58.8979 298,-88.8979 420,-88.8979 420,-58.8979 298,-58.8979"/>
<text text-anchor="start" x="306" y="-76.8979" font-family="Helvetica,sans-Serif" font-size="10.00" fill="#000000">chig::GraphFunction</text>
<text text-anchor="middle" x="359" y="-65.8979" font-family="Helvetica,sans-Serif" font-size="10.00" fill="#000000">::createExitNodeType</text>
</a>
</g>
</g>
<!-- Node48&#45;&gt;Node51 -->
<g id="edge4" class="edge">
<title>Node48&#45;&gt;Node51</title>
<path fill="none" stroke="#191970" d="M272.1518,-86.3453C280.6995,-85.1202 289.4172,-83.8707 297.871,-82.6591"/>
<polygon fill="#191970" stroke="#191970" points="271.6239,-82.8851 262.2216,-87.7685 272.6171,-89.8142 271.6239,-82.8851"/>
</g>
<!-- Node50 -->
<g id="node4" class="node">
<title>Node50</title>
<g id="a_node4"><a xlink:href="structchig_1_1JsonModule.html#ae9d14a6f432082a9489d3b5ccf5ae338" target="_top" xlink:title="chig::JsonModule::JsonModule">
<polygon fill="#ffffff" stroke="#000000" points="903,-128.3979 903,-147.3979 1063,-147.3979 1063,-128.3979 903,-128.3979"/>
<text text-anchor="middle" x="983" y="-135.3979" font-family="Helvetica,sans-Serif" font-size="10.00" fill="#000000">chig::JsonModule::JsonModule</text>
</a>
</g>
</g>
<!-- Node49&#45;&gt;Node50 -->
<g id="edge3" class="edge">
<title>Node49&#45;&gt;Node50</title>
<path fill="none" stroke="#191970" d="M877.5039,-137.8979C885.859,-137.8979 894.468,-137.8979 902.9952,-137.8979"/>
<polygon fill="#191970" stroke="#191970" points="877.4611,-134.398 867.461,-137.8979 877.461,-141.398 877.4611,-134.398"/>
</g>
<!-- Node52 -->
<g id="node6" class="node">
<title>Node52</title>
<g id="a_node6"><a xlink:href="structchig_1_1GraphFunction.html#a70b74dd7330f7afb2b3ab38feebd57c5" target="_top" xlink:title="chig::GraphFunction\l::insertNode">
<polygon fill="#ffffff" stroke="#000000" points="926.5,-.8979 926.5,-30.8979 1039.5,-30.8979 1039.5,-.8979 926.5,-.8979"/>
<text text-anchor="start" x="934.5" y="-18.8979" font-family="Helvetica,sans-Serif" font-size="10.00" fill="#000000">chig::GraphFunction</text>
<text text-anchor="middle" x="983" y="-7.8979" font-family="Helvetica,sans-Serif" font-size="10.00" fill="#000000">::insertNode</text>
</a>
</g>
</g>
<!-- Node51&#45;&gt;Node52 -->
<g id="edge5" class="edge">
<title>Node51&#45;&gt;Node52</title>
<path fill="none" stroke="#191970" d="M392.4443,-53.7435C410.5717,-43.9463 433.7617,-33.1704 456,-27.8979 623.188,11.7407 828.6044,-.308 926.2499,-9.5498"/>
<polygon fill="#191970" stroke="#191970" points="390.4949,-50.8228 383.4581,-58.7433 393.8983,-56.9397 390.4949,-50.8228"/>
</g>
<!-- Node55 -->
<g id="node9" class="node">
<title>Node55</title>
<g id="a_node9"><a xlink:href="structchig_1_1GraphFunction.html#a3765dc838314ff13457ac933b043f711" target="_top" xlink:title="chig::GraphFunction\l::modifyDataOutput">
<polygon fill="#ffffff" stroke="#000000" points="456,-37.8979 456,-67.8979 569,-67.8979 569,-37.8979 456,-37.8979"/>
<text text-anchor="start" x="464" y="-55.8979" font-family="Helvetica,sans-Serif" font-size="10.00" fill="#000000">chig::GraphFunction</text>
<text text-anchor="middle" x="512.5" y="-44.8979" font-family="Helvetica,sans-Serif" font-size="10.00" fill="#000000">::modifyDataOutput</text>
</a>
</g>
</g>
<!-- Node51&#45;&gt;Node55 -->
<g id="edge9" class="edge">
<title>Node51&#45;&gt;Node55</title>
<path fill="none" stroke="#191970" d="M430.0789,-64.1738C438.6312,-63.0038 447.2778,-61.8208 455.5911,-60.6835"/>
<polygon fill="#191970" stroke="#191970" points="429.5416,-60.7146 420.1083,-65.5379 430.4905,-67.65 429.5416,-60.7146"/>
</g>
<!-- Node53 -->
<g id="node7" class="node">
<title>Node53</title>
<g id="a_node7"><a xlink:href="structchig_1_1GraphFunction.html#a449ab966907b5e32dd00d5f6bb1b3ede" target="_top" xlink:title="chig::GraphFunction\l::insertNode">
<polygon fill="#ffffff" stroke="#000000" points="1106.5,-49.8979 1106.5,-79.8979 1219.5,-79.8979 1219.5,-49.8979 1106.5,-49.8979"/>
<text text-anchor="start" x="1114.5" y="-67.8979" font-family="Helvetica,sans-Serif" font-size="10.00" fill="#000000">chig::GraphFunction</text>
<text text-anchor="middle" x="1163" y="-56.8979" font-family="Helvetica,sans-Serif" font-size="10.00" fill="#000000">::insertNode</text>
</a>
</g>
</g>
<!-- Node52&#45;&gt;Node53 -->
<g id="edge6" class="edge">
<title>Node52&#45;&gt;Node53</title>
<path fill="none" stroke="#191970" d="M1048.1985,-33.6464C1067.7069,-38.957 1088.9016,-44.7267 1107.7085,-49.8464"/>
<polygon fill="#191970" stroke="#191970" points="1049.0429,-30.249 1038.4747,-30.9994 1047.2042,-37.0032 1049.0429,-30.249"/>
</g>
<!-- Node54 -->
<g id="node8" class="node">
<title>Node54</title>
<g id="a_node8"><a xlink:href="structchig_1_1GraphFunction.html#a1fd77fbd5bb46690fdc79cd9c6d35917" target="_top" xlink:title="chig::GraphFunction\l::getOrInsertEntryNode">
<polygon fill="#ffffff" stroke="#000000" points="1099,-.8979 1099,-30.8979 1227,-30.8979 1227,-.8979 1099,-.8979"/>
<text text-anchor="start" x="1107" y="-18.8979" font-family="Helvetica,sans-Serif" font-size="10.00" fill="#000000">chig::GraphFunction</text>
<text text-anchor="middle" x="1163" y="-7.8979" font-family="Helvetica,sans-Serif" font-size="10.00" fill="#000000">::getOrInsertEntryNode</text>
</a>
</g>
</g>
<!-- Node52&#45;&gt;Node54 -->
<g id="edge7" class="edge">
<title>Node52&#45;&gt;Node54</title>
<path fill="none" stroke="#191970" d="M1050.2503,-9.3434C1066.1777,-9.0643 1083.1223,-9.0841 1098.9051,-9.4029"/>
<polygon fill="#191970" stroke="#191970" points="1049.8737,-5.8507 1039.9531,-9.5698 1050.0277,-12.849 1049.8737,-5.8507"/>
</g>
<!-- Node54&#45;&gt;Node52 -->
<g id="edge8" class="edge">
<title>Node54&#45;&gt;Node52</title>
<path fill="none" stroke="#191970" d="M1088.8515,-22.554C1072.5235,-22.7493 1055.4767,-22.64 1039.9531,-22.2261"/>
<polygon fill="#191970" stroke="#191970" points="1088.9624,-26.0528 1098.9051,-22.393 1088.8503,-19.0537 1088.9624,-26.0528"/>
</g>
<!-- Node56 -->
<g id="node10" class="node">
<title>Node56</title>
<g id="a_node10"><a xlink:href="structchig_1_1GraphFunction.html#ae734c04f29489efeb96227a20e2ada22" target="_top" xlink:title="chig::GraphFunction\l::dataOutputs">
<polygon fill="#ffffff" stroke="#000000" points="605,-78.8979 605,-108.8979 718,-108.8979 718,-78.8979 605,-78.8979"/>
<text text-anchor="start" x="613" y="-96.8979" font-family="Helvetica,sans-Serif" font-size="10.00" fill="#000000">chig::GraphFunction</text>
<text text-anchor="middle" x="661.5" y="-85.8979" font-family="Helvetica,sans-Serif" font-size="10.00" fill="#000000">::dataOutputs</text>
</a>
</g>
</g>
<!-- Node55&#45;&gt;Node56 -->
<g id="edge10" class="edge">
<title>Node55&#45;&gt;Node56</title>
<path fill="none" stroke="#191970" d="M576.9887,-70.6432C586.9494,-73.384 597.1533,-76.1918 606.8706,-78.8657"/>
<polygon fill="#191970" stroke="#191970" points="577.7063,-67.2106 567.136,-67.932 575.8491,-73.9597 577.7063,-67.2106"/>
</g>
<!-- Node56&#45;&gt;Node49 -->
<g id="edge11" class="edge">
<title>Node56&#45;&gt;Node49</title>
<path fill="none" stroke="#191970" d="M722.1862,-111.8187C734.6144,-115.4888 747.5741,-119.3158 759.6158,-122.8717"/>
<polygon fill="#191970" stroke="#191970" points="722.9425,-108.3927 712.3606,-108.9172 720.9599,-115.1061 722.9425,-108.3927"/>
</g>
<!-- Node56&#45;&gt;Node51 -->
<g id="edge13" class="edge">
<title>Node56&#45;&gt;Node51</title>
<path fill="none" stroke="#191970" d="M594.8273,-89.4898C542.7199,-86.0447 470.8743,-81.2946 420.2154,-77.9452"/>
<polygon fill="#191970" stroke="#191970" points="594.7644,-92.9932 604.9735,-90.1607 595.2263,-86.0085 594.7644,-92.9932"/>
</g>
<!-- Node57 -->
<g id="node11" class="node">
<title>Node57</title>
<g id="a_node11"><a xlink:href="structchig_1_1GraphFunction.html#ac808aecb5fec9cd3a2a1f59e18c90eee" target="_top" xlink:title="chig::GraphFunction\l::compile">
<polygon fill="#ffffff" stroke="#000000" points="926.5,-68.8979 926.5,-98.8979 1039.5,-98.8979 1039.5,-68.8979 926.5,-68.8979"/>
<text text-anchor="start" x="934.5" y="-86.8979" font-family="Helvetica,sans-Serif" font-size="10.00" fill="#000000">chig::GraphFunction</text>
<text text-anchor="middle" x="983" y="-75.8979" font-family="Helvetica,sans-Serif" font-size="10.00" fill="#000000">::compile</text>
</a>
</g>
</g>
<!-- Node56&#45;&gt;Node57 -->
<g id="edge12" class="edge">
<title>Node56&#45;&gt;Node57</title>
<path fill="none" stroke="#191970" d="M728.492,-91.8142C787.0166,-89.9939 871.0311,-87.3807 926.2897,-85.6619"/>
<polygon fill="#191970" stroke="#191970" points="728.124,-88.3239 718.2377,-92.1332 728.3417,-95.3205 728.124,-88.3239"/>
</g>
<!-- Node58 -->
<g id="node12" class="node">
<title>Node58</title>
<g id="a_node12"><a xlink:href="structchig_1_1GraphFunction.html#a6aae3374651aca2f0973c81ecae2d848" target="_top" xlink:title="chig::GraphFunction\l::functionType">
<polygon fill="#ffffff" stroke="#000000" points="754,-34.8979 754,-64.8979 867,-64.8979 867,-34.8979 754,-34.8979"/>
<text text-anchor="start" x="762" y="-52.8979" font-family="Helvetica,sans-Serif" font-size="10.00" fill="#000000">chig::GraphFunction</text>
<text text-anchor="middle" x="810.5" y="-41.8979" font-family="Helvetica,sans-Serif" font-size="10.00" fill="#000000">::functionType</text>
</a>
</g>
</g>
<!-- Node56&#45;&gt;Node58 -->
<g id="edge14" class="edge">
<title>Node56&#45;&gt;Node58</title>
<path fill="none" stroke="#191970" d="M722.1862,-75.9772C734.6144,-72.3071 747.5741,-68.4801 759.6158,-64.9242"/>
<polygon fill="#191970" stroke="#191970" points="720.9599,-72.6898 712.3606,-78.8787 722.9425,-79.4032 720.9599,-72.6898"/>
</g>
<!-- Node58&#45;&gt;Node52 -->
<g id="edge15" class="edge">
<title>Node58&#45;&gt;Node52</title>
<path fill="none" stroke="#191970" d="M877.3947,-36.7129C893.5829,-33.5222 910.7303,-30.1424 926.393,-27.0553"/>
<polygon fill="#191970" stroke="#191970" points="876.5954,-33.303 867.461,-38.6708 877.9491,-40.1709 876.5954,-33.303"/>
</g>
<!-- Node58&#45;&gt;Node57 -->
<g id="edge16" class="edge">
<title>Node58&#45;&gt;Node57</title>
<path fill="none" stroke="#191970" d="M877.3947,-63.083C893.5829,-66.2737 910.7303,-69.6535 926.393,-72.7406"/>
<polygon fill="#191970" stroke="#191970" points="877.9491,-59.625 867.461,-61.125 876.5954,-66.4929 877.9491,-59.625"/>
</g>
</g>
</svg>
        <g id="navigator" transform="translate(0 0)" fill="#404254">
                <rect fill="#f2f5e9" fill-opacity="0.5" stroke="#606060" stroke-width=".5" x="0" y="0" width="60" height="60"/>
                <use id="zoomplus" xlink:href="#zoomPlus" x="17" y="9" onmousedown="handleZoom(evt,'in')"/>
                <use id="zoomminus" xlink:href="#zoomMin" x="42" y="9" onmousedown="handleZoom(evt,'out')"/>
                <use id="reset" xlink:href="#resetDef" x="30" y="36" onmousedown="handleReset()"/>
                <g id="arrowUp" xlink:href="#dirArrow" transform="translate(30 24)" onmousedown="handlePan(0,-1)">
                  <use xlink:href="#rim" fill="#404040">
                        <set attributeName="fill" to="#808080" begin="arrowUp.mouseover" end="arrowUp.mouseout"/>
                  </use>
                  <path fill="none" stroke="white" stroke-width="1.5" d="M0,-3.0v7 M-2.5,-0.5L0,-3.0L2.5,-0.5"/>
                </g>
                <g id="arrowRight" xlink:href="#dirArrow" transform="rotate(90) translate(36 -43)" onmousedown="handlePan(1,0)">
                  <use xlink:href="#rim" fill="#404040">
                        <set attributeName="fill" to="#808080" begin="arrowRight.mouseover" end="arrowRight.mouseout"/>
                  </use>
                  <path fill="none" stroke="white" stroke-width="1.5" d="M0,-3.0v7 M-2.5,-0.5L0,-3.0L2.5,-0.5"/>
                </g>
                <g id="arrowDown" xlink:href="#dirArrow" transform="rotate(180) translate(-30 -48)" onmousedown="handlePan(0,1)">
                  <use xlink:href="#rim" fill="#404040">
                        <set attributeName="fill" to="#808080" begin="arrowDown.mouseover" end="arrowDown.mouseout"/>
                  </use>
                  <path fill="none" stroke="white" stroke-width="1.5" d="M0,-3.0v7 M-2.5,-0.5L0,-3.0L2.5,-0.5"/>
                </g>
                <g id="arrowLeft" xlink:href="#dirArrow" transform="rotate(270) translate(-36 17)" onmousedown="handlePan(-1,0)">
                  <use xlink:href="#rim" fill="#404040">
                        <set attributeName="fill" to="#808080" begin="arrowLeft.mouseover" end="arrowLeft.mouseout"/>
                  </use>
                  <path fill="none" stroke="white" stroke-width="1.5" d="M0,-3.0v7 M-2.5,-0.5L0,-3.0L2.5,-0.5"/>
                </g>
        </g>
        <svg viewBox="0 0 15 15" width="100%" height="30px" preserveAspectRatio="xMaxYMin meet">
         <g id="arrow_out" transform="scale(0.3 0.3)">
          <a xlink:href="structchig_1_1GraphFunction_abbe7b69cdd8a02210fd2d5a580f1f80a_icgraph_org.svg" target="_base">
           <rect id="button" ry="5" rx="5" y="6" x="6" height="38" width="38"
                fill="#f2f5e9" fill-opacity="0.5" stroke="#606060" stroke-width="1.0"/>
           <path id="arrow"
             d="M 11.500037,31.436501 C 11.940474,20.09759 22.043105,11.32322 32.158766,21.979434 L 37.068811,17.246167 C 37.068811,17.246167 37.088388,32 37.088388,32 L 22.160133,31.978069 C 22.160133,31.978069 26.997745,27.140456 26.997745,27.140456 C 18.528582,18.264221 13.291696,25.230495 11.500037,31.436501 z"
             style="fill:#404040;"/>
          </a>
         </g>
        </svg>
</svg>
