<?xml version="1.0" encoding="UTF-8" standalone="no"?>
<!DOCTYPE svg PUBLIC "-//W3C//DTD SVG 1.1//EN"
 "http://www.w3.org/Graphics/SVG/1.1/DTD/svg11.dtd">
<!-- Generated by graphviz version 2.40.1 (20161225.0304)
 -->
<!-- Title: chig::ChigModule::generateModule Pages: 1 -->
<!--zoomable 509 -->
<svg id="main" version="1.1" xmlns="http://www.w3.org/2000/svg" xmlns:xlink="http://www.w3.org/1999/xlink" xml:space="preserve" onload="init(evt)">
<style type="text/css"><![CDATA[
.edge:hover path { stroke: red; }
.edge:hover polygon { stroke: red; fill: red; }
]]></style>
<script type="text/javascript"><![CDATA[
var edges = document.getElementsByTagName('g');
if (edges && edges.length) {
  for (var i=0;i<edges.length;i++) {
    if (edges[i].id.substr(0,4)=='edge') {
      edges[i].setAttribute('class','edge');
    }
  }
}
]]></script>
        <defs>
                <circle id="rim" cx="0" cy="0" r="7"/>
                <circle id="rim2" cx="0" cy="0" r="3.5"/>
                <g id="zoomPlus">
                        <use xlink:href="#rim" fill="#404040">
                                <set attributeName="fill" to="#808080" begin="zoomplus.mouseover" end="zoomplus.mouseout"/>
                        </use>
                        <path d="M-4,0h8M0,-4v8" fill="none" stroke="white" stroke-width="1.5" pointer-events="none"/>
                </g>
                <g id="zoomMin">
                        <use xlink:href="#rim" fill="#404040">
                                <set attributeName="fill" to="#808080" begin="zoomminus.mouseover" end="zoomminus.mouseout"/>
                        </use>
                        <path d="M-4,0h8" fill="none" stroke="white" stroke-width="1.5" pointer-events="none"/>
                </g>
                <g id="dirArrow">
                        <path fill="none" stroke="white" stroke-width="1.5" d="M0,-3.0v7 M-2.5,-0.5L0,-3.0L2.5,-0.5"/>
                </g>
               <g id="resetDef">
                       <use xlink:href="#rim2" fill="#404040">
                               <set attributeName="fill" to="#808080" begin="reset.mouseover" end="reset.mouseout"/>
                       </use>
               </g>
        </defs>

<script type="text/javascript">
var viewWidth = 1758;
var viewHeight = 509;
var sectionId = 'dynsection-7';
</script>
<script xlink:href="svgpan.js"/>
<svg id="graph" class="graph">
<g id="viewport">
<title>chig::ChigModule::generateModule</title>
<polygon fill="#ffffff" stroke="transparent" points="-4,4 -4,-504.906 1754,-504.906 1754,4 -4,4"/>
<!-- Node142 -->
<g id="node1" class="node">
<title>Node142</title>
<polygon fill="#bfbfbf" stroke="#000000" points="0,-362.906 0,-392.906 135,-392.906 135,-362.906 0,-362.906"/>
<text text-anchor="start" x="8" y="-380.906" font-family="Helvetica,sans-Serif" font-size="10.00" fill="#000000">chig::ChigModule::generate</text>
<text text-anchor="middle" x="67.5" y="-369.906" font-family="Helvetica,sans-Serif" font-size="10.00" fill="#000000">Module</text>
</g>
<!-- Node143 -->
<g id="node2" class="node">
<title>Node143</title>
<g id="a_node2"><a xlink:href="structchig_1_1Context.html#ac585794db13b27b3f69a51aa9d7fd01c" target="_top" xlink:title="Compile a module to a llvm::Module. ">
<polygon fill="#ffffff" stroke="#000000" points="1464,-425.406 1464,-444.406 1610,-444.406 1610,-425.406 1464,-425.406"/>
<text text-anchor="middle" x="1537" y="-432.406" font-family="Helvetica,sans-Serif" font-size="10.00" fill="#000000">chig::Context::compileModule</text>
</a>
</g>
</g>
<!-- Node142&#45;&gt;Node143 -->
<g id="edge1" class="edge">
<title>Node142&#45;&gt;Node143</title>
<path fill="none" stroke="#191970" d="M101.437,-398.0878C163.4335,-432.9851 300.1363,-500.906 425,-500.906 425,-500.906 425,-500.906 1150.5,-500.906 1283.0702,-500.906 1437.6156,-462.7099 1503.979,-444.4325"/>
<polygon fill="#191970" stroke="#191970" points="102.9125,-394.9002 92.4916,-392.9882 99.4457,-400.9814 102.9125,-394.9002"/>
</g>
<!-- Node144 -->
<g id="node3" class="node">
<title>Node144</title>
<g id="a_node3"><a xlink:href="structchig_1_1ChigModule.html#aad81aae17452ddc5fc43809924236385" target="_top" xlink:title="Get the Context that this module belongs to. ">
<polygon fill="#ffffff" stroke="#000000" points="171,-267.406 171,-286.406 301,-286.406 301,-267.406 171,-267.406"/>
<text text-anchor="middle" x="236" y="-274.406" font-family="Helvetica,sans-Serif" font-size="10.00" fill="#000000">chig::ChigModule::context</text>
</a>
</g>
</g>
<!-- Node142&#45;&gt;Node144 -->
<g id="edge2" class="edge">
<title>Node142&#45;&gt;Node144</title>
<path fill="none" stroke="#191970" d="M101.4192,-357.5746C137.3599,-336.0315 192.5924,-302.9248 219.7634,-286.6383"/>
<polygon fill="#191970" stroke="#191970" points="99.5039,-354.642 92.7262,-362.7853 103.1028,-360.646 99.5039,-354.642"/>
</g>
<!-- Node145 -->
<g id="node4" class="node">
<title>Node145</title>
<g id="a_node4"><a xlink:href="structchig_1_1ChigModule.html#ad5feee65f261f3777edddd027eb89400" target="_top" xlink:title="Add a dependency to the module Loads the module from context() if it isn&#39;t already loaded...">
<polygon fill="#ffffff" stroke="#000000" points="1067,-403.406 1067,-422.406 1234,-422.406 1234,-403.406 1067,-403.406"/>
<text text-anchor="middle" x="1150.5" y="-410.406" font-family="Helvetica,sans-Serif" font-size="10.00" fill="#000000">chig::ChigModule::addDependency</text>
</a>
</g>
</g>
<!-- Node144&#45;&gt;Node145 -->
<g id="edge3" class="edge">
<title>Node144&#45;&gt;Node145</title>
<path fill="none" stroke="#191970" d="M311.5788,-283.7151C389.9079,-290.1764 515.9196,-298.906 625,-298.906 625,-298.906 625,-298.906 801,-298.906 935.3481,-298.906 1085.0608,-375.9838 1134.0349,-403.3825"/>
<polygon fill="#191970" stroke="#191970" points="311.579,-280.203 301.3226,-282.8595 310.997,-287.1788 311.579,-280.203"/>
</g>
<!-- Node148 -->
<g id="node7" class="node">
<title>Node148</title>
<g id="a_node7"><a xlink:href="structchig_1_1GraphModule.html#accb1a64da697a29e28d78a9a09bd52ff" target="_top" xlink:title="Serialize to disk in the context. ">
<polygon fill="#ffffff" stroke="#000000" points="1646,-119.906 1646,-149.906 1750,-149.906 1750,-119.906 1646,-119.906"/>
<text text-anchor="start" x="1654" y="-137.906" font-family="Helvetica,sans-Serif" font-size="10.00" fill="#000000">chig::GraphModule::</text>
<text text-anchor="middle" x="1698" y="-126.906" font-family="Helvetica,sans-Serif" font-size="10.00" fill="#000000">saveToDisk</text>
</a>
</g>
</g>
<!-- Node144&#45;&gt;Node148 -->
<g id="edge26" class="edge">
<title>Node144&#45;&gt;Node148</title>
<path fill="none" stroke="#191970" d="M245.0851,-258.0457C259.8873,-229.6933 292.1275,-176.9593 337,-153.906 451.1011,-95.2865 496.7218,-134.906 625,-134.906 625,-134.906 625,-134.906 1349,-134.906 1454.4271,-134.906 1577.7685,-134.906 1645.9673,-134.906"/>
<polygon fill="#191970" stroke="#191970" points="241.8024,-256.7825 240.4295,-267.288 248.0541,-259.9316 241.8024,-256.7825"/>
</g>
<!-- Node150 -->
<g id="node9" class="node">
<title>Node150</title>
<g id="a_node9"><a xlink:href="namespacechig.html#a860a6f4d8180f1fb71729896291891b7" target="_top" xlink:title="Create a forward declaration of a function in a module with an empty graph. ">
<polygon fill="#ffffff" stroke="#000000" points="359.5,-441.906 359.5,-471.906 490.5,-471.906 490.5,-441.906 359.5,-441.906"/>
<text text-anchor="start" x="367.5" y="-459.906" font-family="Helvetica,sans-Serif" font-size="10.00" fill="#000000">chig::createGraphFunction</text>
<text text-anchor="middle" x="425" y="-448.906" font-family="Helvetica,sans-Serif" font-size="10.00" fill="#000000">DeclarationFromJson</text>
</a>
</g>
</g>
<!-- Node144&#45;&gt;Node150 -->
<g id="edge9" class="edge">
<title>Node144&#45;&gt;Node150</title>
<path fill="none" stroke="#191970" d="M243.1778,-296.0137C256.5068,-328.8647 288.2365,-395.9738 337,-431.906 343.6487,-436.8052 351.2273,-440.7456 359.0836,-443.9146"/>
<polygon fill="#191970" stroke="#191970" points="246.4087,-294.6657 239.4985,-286.6345 239.8922,-297.222 246.4087,-294.6657"/>
</g>
<!-- Node154 -->
<g id="node13" class="node">
<title>Node154</title>
<g id="a_node13"><a xlink:href="namespacechig.html#a2af3c68005d33184e5e66b35c4737902" target="_top" xlink:title="Load a GraphStruct from json. ">
<polygon fill="#ffffff" stroke="#000000" points="364,-403.406 364,-422.406 486,-422.406 486,-403.406 364,-403.406"/>
<text text-anchor="middle" x="425" y="-410.406" font-family="Helvetica,sans-Serif" font-size="10.00" fill="#000000">chig::jsonToGraphStruct</text>
</a>
</g>
</g>
<!-- Node144&#45;&gt;Node154 -->
<g id="edge14" class="edge">
<title>Node144&#45;&gt;Node154</title>
<path fill="none" stroke="#191970" d="M246.4622,-295.2413C262.4396,-321.475 295.4857,-369.2658 337,-393.906 345.1988,-398.7723 354.4868,-402.3982 363.8794,-405.0987"/>
<polygon fill="#191970" stroke="#191970" points="249.4718,-293.4545 241.364,-286.6344 243.4491,-297.022 249.4718,-293.4545"/>
</g>
<!-- Node155 -->
<g id="node14" class="node">
<title>Node155</title>
<g id="a_node14"><a xlink:href="structchig_1_1LangModule.html#adab4150aa733a4aa66bc0ede5654dcaa" target="_top" xlink:title="Default constructor, usually called from Context::loadModule(&quot;lang&quot;) ">
<polygon fill="#ffffff" stroke="#000000" points="549,-346.406 549,-365.406 701,-365.406 701,-346.406 549,-346.406"/>
<text text-anchor="middle" x="625" y="-353.406" font-family="Helvetica,sans-Serif" font-size="10.00" fill="#000000">chig::LangModule::LangModule</text>
</a>
</g>
</g>
<!-- Node144&#45;&gt;Node155 -->
<g id="edge16" class="edge">
<title>Node144&#45;&gt;Node155</title>
<path fill="none" stroke="#191970" d="M268.2417,-290.2076C287.8338,-297.833 313.5189,-307.0276 337,-312.906 407.7414,-330.6158 490.2022,-342.0202 548.7144,-348.6022"/>
<polygon fill="#191970" stroke="#191970" points="269.4596,-286.9255 258.8733,-286.5006 266.884,-293.4345 269.4596,-286.9255"/>
</g>
<!-- Node156 -->
<g id="node15" class="node">
<title>Node156</title>
<g id="a_node15"><a xlink:href="structchig_1_1NodeType.html#a83c7ce04c8c7b38c1a3fac17bf0dbe3d" target="_top" xlink:title="Constructor. ">
<polygon fill="#ffffff" stroke="#000000" points="357.5,-201.406 357.5,-220.406 492.5,-220.406 492.5,-201.406 357.5,-201.406"/>
<text text-anchor="middle" x="425" y="-208.406" font-family="Helvetica,sans-Serif" font-size="10.00" fill="#000000">chig::NodeType::NodeType</text>
</a>
</g>
</g>
<!-- Node144&#45;&gt;Node156 -->
<g id="edge17" class="edge">
<title>Node144&#45;&gt;Node156</title>
<path fill="none" stroke="#191970" d="M263.2759,-262.6428C283.2583,-252.6526 311.2698,-239.5879 337,-230.906 349.0245,-226.8487 362.2497,-223.3566 374.712,-220.4783"/>
<polygon fill="#191970" stroke="#191970" points="261.4922,-259.623 254.1566,-267.2675 264.6583,-265.8661 261.4922,-259.623"/>
</g>
<!-- Node157 -->
<g id="node16" class="node">
<title>Node157</title>
<g id="a_node16"><a xlink:href="structchig_1_1CModule.html#a2cabea4f20241d1c2451fd5b9c4dc9c7" target="_top" xlink:title="Create a node type that is in the module from the name and json. ">
<polygon fill="#ffffff" stroke="#000000" points="337,-163.406 337,-182.406 513,-182.406 513,-163.406 337,-163.406"/>
<text text-anchor="middle" x="425" y="-170.406" font-family="Helvetica,sans-Serif" font-size="10.00" fill="#000000">chig::CModule::nodeTypeFromName</text>
</a>
</g>
</g>
<!-- Node144&#45;&gt;Node157 -->
<g id="edge18" class="edge">
<title>Node144&#45;&gt;Node157</title>
<path fill="none" stroke="#191970" d="M251.3453,-259.6912C269.7387,-240.1717 302.4339,-208.8649 337,-191.906 344.8579,-188.0507 353.4889,-184.973 362.1788,-182.517"/>
<polygon fill="#191970" stroke="#191970" points="248.5752,-257.5324 244.3742,-267.2588 253.7237,-262.2751 248.5752,-257.5324"/>
</g>
<!-- Node158 -->
<g id="node17" class="node">
<title>Node158</title>
<g id="a_node17"><a xlink:href="structchig_1_1GraphModule.html#a3a3e16c194c091ee109eabaca14e3c43" target="_top" xlink:title="Create a node type that is in the module from the name and json. ">
<polygon fill="#ffffff" stroke="#000000" points="371.5,-239.906 371.5,-269.906 478.5,-269.906 478.5,-239.906 371.5,-239.906"/>
<text text-anchor="start" x="379.5" y="-257.906" font-family="Helvetica,sans-Serif" font-size="10.00" fill="#000000">chig::GraphModule::</text>
<text text-anchor="middle" x="425" y="-246.906" font-family="Helvetica,sans-Serif" font-size="10.00" fill="#000000">nodeTypeFromName</text>
</a>
</g>
</g>
<!-- Node144&#45;&gt;Node158 -->
<g id="edge19" class="edge">
<title>Node144&#45;&gt;Node158</title>
<path fill="none" stroke="#191970" d="M311.1401,-268.1595C331.3058,-265.8122 352.7004,-263.3218 371.4345,-261.1411"/>
<polygon fill="#191970" stroke="#191970" points="310.5713,-264.702 301.0431,-269.3348 311.3807,-271.6551 310.5713,-264.702"/>
</g>
<!-- Node163 -->
<g id="node22" class="node">
<title>Node163</title>
<g id="a_node22"><a xlink:href="structchig_1_1GraphModule.html#a2b80440a0bdf4c760a12ea0309d68060" target="_top" xlink:title="Get the path to the source file It&#39;s not garunteed to exist, because it could have not been saved...">
<polygon fill="#ffffff" stroke="#000000" points="373,-75.906 373,-105.906 477,-105.906 477,-75.906 373,-75.906"/>
<text text-anchor="start" x="381" y="-93.906" font-family="Helvetica,sans-Serif" font-size="10.00" fill="#000000">chig::GraphModule::</text>
<text text-anchor="middle" x="425" y="-82.906" font-family="Helvetica,sans-Serif" font-size="10.00" fill="#000000">sourceFilePath</text>
</a>
</g>
</g>
<!-- Node144&#45;&gt;Node163 -->
<g id="edge27" class="edge">
<title>Node144&#45;&gt;Node163</title>
<path fill="none" stroke="#191970" d="M243.3409,-257.9365C256.9198,-225.274 289.0207,-158.327 337,-120.906 347.4367,-112.766 360.2162,-106.7626 372.7669,-102.3624"/>
<polygon fill="#191970" stroke="#191970" points="240.077,-256.6721 239.5863,-267.2556 246.5698,-259.288 240.077,-256.6721"/>
</g>
<!-- Node167 -->
<g id="node26" class="node">
<title>Node167</title>
<g id="a_node26"><a xlink:href="classchig_1_1Debugger.html#abb630c53f98a284547956128c120bef2" target="_top" xlink:title="Start debugging the process. ">
<polygon fill="#ffffff" stroke="#000000" points="371.5,-37.406 371.5,-56.406 478.5,-56.406 478.5,-37.406 371.5,-37.406"/>
<text text-anchor="middle" x="425" y="-44.406" font-family="Helvetica,sans-Serif" font-size="10.00" fill="#000000">chig::Debugger::start</text>
</a>
</g>
</g>
<!-- Node144&#45;&gt;Node167 -->
<g id="edge32" class="edge">
<title>Node144&#45;&gt;Node167</title>
<path fill="none" stroke="#191970" d="M239.5768,-257.0514C248.236,-215.0141 274.4073,-116.8006 337,-66.906 346.801,-59.0933 359.0702,-54.2104 371.3077,-51.1891"/>
<polygon fill="#191970" stroke="#191970" points="236.0928,-256.6329 237.6221,-267.1167 242.9644,-257.9674 236.0928,-256.6329"/>
</g>
<!-- Node168 -->
<g id="node27" class="node">
<title>Node168</title>
<g id="a_node27"><a xlink:href="structchig_1_1LangModule.html#a8c6c7b9ada9f7dc770842e9a065ca1b2" target="_top" xlink:title="Get a DataType from the name. ">
<polygon fill="#ffffff" stroke="#000000" points="342,-365.406 342,-384.406 508,-384.406 508,-365.406 342,-365.406"/>
<text text-anchor="middle" x="425" y="-372.406" font-family="Helvetica,sans-Serif" font-size="10.00" fill="#000000">chig::LangModule::typeFromName</text>
</a>
</g>
</g>
<!-- Node144&#45;&gt;Node168 -->
<g id="edge33" class="edge">
<title>Node144&#45;&gt;Node168</title>
<path fill="none" stroke="#191970" d="M254.0137,-293.3169C273.2508,-310.0333 305.2755,-335.6093 337,-350.906 349.5525,-356.9585 363.8736,-361.6858 377.2641,-365.2839"/>
<polygon fill="#191970" stroke="#191970" points="256.1641,-290.5462 246.356,-286.5399 251.525,-295.7882 256.1641,-290.5462"/>
</g>
<!-- Node146 -->
<g id="node5" class="node">
<title>Node146</title>
<g id="a_node5"><a xlink:href="structchig_1_1ChigModule.html#a7f239dc07b0a4d74d6907da6f25127dc" target="_top" xlink:title="Get the dependencies. ">
<polygon fill="#ffffff" stroke="#000000" points="1270,-381.406 1270,-400.406 1428,-400.406 1428,-381.406 1270,-381.406"/>
<text text-anchor="middle" x="1349" y="-388.406" font-family="Helvetica,sans-Serif" font-size="10.00" fill="#000000">chig::ChigModule::dependencies</text>
</a>
</g>
</g>
<!-- Node145&#45;&gt;Node146 -->
<g id="edge4" class="edge">
<title>Node145&#45;&gt;Node146</title>
<path fill="none" stroke="#191970" d="M1244.1763,-402.5237C1252.7894,-401.5691 1261.4588,-400.6083 1269.9237,-399.6701"/>
<polygon fill="#191970" stroke="#191970" points="1243.6601,-399.0594 1234.1066,-403.6398 1244.4313,-406.0168 1243.6601,-399.0594"/>
</g>
<!-- Node149 -->
<g id="node8" class="node">
<title>Node149</title>
<g id="a_node8"><a xlink:href="structchig_1_1GraphModule.html#a65458343d0344b6b806f9b0b780b32f4" target="_top" xlink:title="Construct a GraphModule. ">
<polygon fill="#ffffff" stroke="#000000" points="1297,-419.906 1297,-449.906 1401,-449.906 1401,-419.906 1297,-419.906"/>
<text text-anchor="start" x="1305" y="-437.906" font-family="Helvetica,sans-Serif" font-size="10.00" fill="#000000">chig::GraphModule::</text>
<text text-anchor="middle" x="1349" y="-426.906" font-family="Helvetica,sans-Serif" font-size="10.00" fill="#000000">GraphModule</text>
</a>
</g>
</g>
<!-- Node145&#45;&gt;Node149 -->
<g id="edge8" class="edge">
<title>Node145&#45;&gt;Node149</title>
<path fill="none" stroke="#191970" d="M1244.1462,-423.2849C1262.2917,-425.296 1280.6879,-427.3349 1296.8981,-429.1315"/>
<polygon fill="#191970" stroke="#191970" points="1244.4313,-419.7952 1234.1066,-422.1722 1243.6601,-426.7526 1244.4313,-419.7952"/>
</g>
<!-- Node146&#45;&gt;Node143 -->
<g id="edge5" class="edge">
<title>Node146&#45;&gt;Node143</title>
<path fill="none" stroke="#191970" d="M1399.7448,-402.7824C1430.0289,-409.8702 1467.9732,-418.7508 1496.2864,-425.3773"/>
<polygon fill="#191970" stroke="#191970" points="1400.3277,-399.3243 1389.7932,-400.4533 1398.7325,-406.1402 1400.3277,-399.3243"/>
</g>
<!-- Node147 -->
<g id="node6" class="node">
<title>Node147</title>
<g id="a_node6"><a xlink:href="namespacechig.html#aaef3bb08f472ae32b2d3b292e69a007a" target="_top" xlink:title="Serialize a JsonModule to json. ">
<polygon fill="#ffffff" stroke="#000000" points="1473,-221.406 1473,-240.406 1601,-240.406 1601,-221.406 1473,-221.406"/>
<text text-anchor="middle" x="1537" y="-228.406" font-family="Helvetica,sans-Serif" font-size="10.00" fill="#000000">chig::graphModuleToJson</text>
</a>
</g>
</g>
<!-- Node146&#45;&gt;Node147 -->
<g id="edge6" class="edge">
<title>Node146&#45;&gt;Node147</title>
<path fill="none" stroke="#191970" d="M1368.1544,-374.6043C1407.0834,-341.4733 1494.3952,-267.1654 1525.6237,-240.5879"/>
<polygon fill="#191970" stroke="#191970" points="1365.5442,-372.2298 1360.1972,-381.3764 1370.0811,-377.5606 1365.5442,-372.2298"/>
</g>
<!-- Node147&#45;&gt;Node148 -->
<g id="edge7" class="edge">
<title>Node147&#45;&gt;Node148</title>
<path fill="none" stroke="#191970" d="M1561.6469,-216.2097C1591.6872,-198.2975 1642.1905,-168.1837 1672.5779,-150.0645"/>
<polygon fill="#191970" stroke="#191970" points="1559.8224,-213.2226 1553.0259,-221.3502 1563.4074,-219.2349 1559.8224,-213.2226"/>
</g>
<!-- Node151 -->
<g id="node10" class="node">
<title>Node151</title>
<g id="a_node10"><a xlink:href="namespacechig.html#a3b1bc50c9d7b3cdb17ffcb3ad602f7ab" target="_top" xlink:title="Load a GraphModule from json. ">
<polygon fill="#ffffff" stroke="#000000" points="561,-403.406 561,-422.406 689,-422.406 689,-403.406 561,-403.406"/>
<text text-anchor="middle" x="625" y="-410.406" font-family="Helvetica,sans-Serif" font-size="10.00" fill="#000000">chig::jsonToGraphModule</text>
</a>
</g>
</g>
<!-- Node150&#45;&gt;Node151 -->
<g id="edge10" class="edge">
<title>Node150&#45;&gt;Node151</title>
<path fill="none" stroke="#191970" d="M500.7017,-440.2516C528.0352,-434.2382 557.947,-427.6577 581.577,-422.4591"/>
<polygon fill="#191970" stroke="#191970" points="499.7789,-436.8709 490.7645,-442.4378 501.283,-443.7074 499.7789,-436.8709"/>
</g>
<!-- Node152 -->
<g id="node11" class="node">
<title>Node152</title>
<g id="a_node11"><a xlink:href="structchig_1_1Context.html#a077f8ef8c0dd541ec2e2d64bcd8f9fc0" target="_top" xlink:title="Load a module from JSON – avoid this use the string overload. ">
<polygon fill="#ffffff" stroke="#000000" points="737,-397.906 737,-427.906 865,-427.906 865,-397.906 737,-397.906"/>
<text text-anchor="start" x="745" y="-415.906" font-family="Helvetica,sans-Serif" font-size="10.00" fill="#000000">chig::Context::addModule</text>
<text text-anchor="middle" x="801" y="-404.906" font-family="Helvetica,sans-Serif" font-size="10.00" fill="#000000">FromJson</text>
</a>
</g>
</g>
<!-- Node151&#45;&gt;Node152 -->
<g id="edge11" class="edge">
<title>Node151&#45;&gt;Node152</title>
<path fill="none" stroke="#191970" d="M699.3613,-412.906C711.7817,-412.906 724.5737,-412.906 736.7148,-412.906"/>
<polygon fill="#191970" stroke="#191970" points="699.0379,-409.4061 689.0379,-412.906 699.0379,-416.4061 699.0379,-409.4061"/>
</g>
<!-- Node153 -->
<g id="node12" class="node">
<title>Node153</title>
<g id="a_node12"><a xlink:href="structchig_1_1Context.html#a75ab64b58e168998761ed6ebd5e493b2" target="_top" xlink:title="Load a module from disk. ">
<polygon fill="#ffffff" stroke="#000000" points="901,-403.406 901,-422.406 1031,-422.406 1031,-403.406 901,-403.406"/>
<text text-anchor="middle" x="966" y="-410.406" font-family="Helvetica,sans-Serif" font-size="10.00" fill="#000000">chig::Context::loadModule</text>
</a>
</g>
</g>
<!-- Node152&#45;&gt;Node153 -->
<g id="edge12" class="edge">
<title>Node152&#45;&gt;Node153</title>
<path fill="none" stroke="#191970" d="M875.4926,-412.906C883.9426,-412.906 892.5057,-412.906 900.8228,-412.906"/>
<polygon fill="#191970" stroke="#191970" points="875.2658,-409.4061 865.2658,-412.906 875.2657,-416.4061 875.2658,-409.4061"/>
</g>
<!-- Node153&#45;&gt;Node145 -->
<g id="edge13" class="edge">
<title>Node153&#45;&gt;Node145</title>
<path fill="none" stroke="#191970" d="M1041.2627,-412.906C1049.734,-412.906 1058.4033,-412.906 1066.9713,-412.906"/>
<polygon fill="#191970" stroke="#191970" points="1041.0478,-409.4061 1031.0478,-412.906 1041.0478,-416.4061 1041.0478,-409.4061"/>
</g>
<!-- Node154&#45;&gt;Node151 -->
<g id="edge15" class="edge">
<title>Node154&#45;&gt;Node151</title>
<path fill="none" stroke="#191970" d="M496.2627,-412.906C517.3195,-412.906 540.2339,-412.906 560.816,-412.906"/>
<polygon fill="#191970" stroke="#191970" points="496.0934,-409.4061 486.0933,-412.906 496.0933,-416.4061 496.0934,-409.4061"/>
</g>
<!-- Node159 -->
<g id="node18" class="node">
<title>Node159</title>
<g id="a_node18"><a xlink:href="structchig_1_1GraphFunction.html#a9eff598c36c450953054331757bf6d6b" target="_top" xlink:title="Rename a local variable. ">
<polygon fill="#ffffff" stroke="#000000" points="568.5,-239.906 568.5,-269.906 681.5,-269.906 681.5,-239.906 568.5,-239.906"/>
<text text-anchor="start" x="576.5" y="-257.906" font-family="Helvetica,sans-Serif" font-size="10.00" fill="#000000">chig::GraphFunction</text>
<text text-anchor="middle" x="625" y="-246.906" font-family="Helvetica,sans-Serif" font-size="10.00" fill="#000000">::renameLocalVariable</text>
</a>
</g>
</g>
<!-- Node158&#45;&gt;Node159 -->
<g id="edge20" class="edge">
<title>Node158&#45;&gt;Node159</title>
<path fill="none" stroke="#191970" d="M488.9334,-254.906C514.4936,-254.906 543.6838,-254.906 568.4566,-254.906"/>
<polygon fill="#191970" stroke="#191970" points="488.5964,-251.4061 478.5963,-254.906 488.5963,-258.4061 488.5964,-251.4061"/>
</g>
<!-- Node162 -->
<g id="node21" class="node">
<title>Node162</title>
<g id="a_node21"><a xlink:href="structchig_1_1GraphFunction.html#a905a09106e02a246daac43a37c42b97b" target="_top" xlink:title="Set a new type to a local variable. ">
<polygon fill="#ffffff" stroke="#000000" points="571,-190.906 571,-220.906 679,-220.906 679,-190.906 571,-190.906"/>
<text text-anchor="start" x="579" y="-208.906" font-family="Helvetica,sans-Serif" font-size="10.00" fill="#000000">chig::GraphFunction</text>
<text text-anchor="middle" x="625" y="-197.906" font-family="Helvetica,sans-Serif" font-size="10.00" fill="#000000">::retypeLocalVariable</text>
</a>
</g>
</g>
<!-- Node158&#45;&gt;Node162 -->
<g id="edge24" class="edge">
<title>Node158&#45;&gt;Node162</title>
<path fill="none" stroke="#191970" d="M488.5404,-239.3386C515.041,-232.846 545.4996,-225.3836 570.908,-219.1585"/>
<polygon fill="#191970" stroke="#191970" points="487.4762,-235.9957 478.5963,-241.7749 489.142,-242.7947 487.4762,-235.9957"/>
</g>
<!-- Node160 -->
<g id="node19" class="node">
<title>Node160</title>
<g id="a_node19"><a xlink:href="structchig_1_1GraphFunction.html#a72a81861d1331948804b2a267598ec79" target="_top" xlink:title="Get the local variables. ">
<polygon fill="#ffffff" stroke="#000000" points="749,-215.906 749,-245.906 853,-245.906 853,-215.906 749,-215.906"/>
<text text-anchor="start" x="757" y="-233.906" font-family="Helvetica,sans-Serif" font-size="10.00" fill="#000000">chig::GraphFunction</text>
<text text-anchor="middle" x="801" y="-222.906" font-family="Helvetica,sans-Serif" font-size="10.00" fill="#000000">::localVariables</text>
</a>
</g>
</g>
<!-- Node159&#45;&gt;Node160 -->
<g id="edge21" class="edge">
<title>Node159&#45;&gt;Node160</title>
<path fill="none" stroke="#191970" d="M691.7103,-245.8091C710.65,-243.2264 730.9895,-240.4529 748.9253,-238.0071"/>
<polygon fill="#191970" stroke="#191970" points="691.0917,-242.361 681.6563,-247.1801 692.0375,-249.2968 691.0917,-242.361"/>
</g>
<!-- Node161 -->
<g id="node20" class="node">
<title>Node161</title>
<g id="a_node20"><a xlink:href="namespacechig.html#ad0fd9448ab1cd1d73351fad5967a7b9b" target="_top" xlink:title="Serialize a GraphFunction to json. ">
<polygon fill="#ffffff" stroke="#000000" points="1083.5,-221.406 1083.5,-240.406 1217.5,-240.406 1217.5,-221.406 1083.5,-221.406"/>
<text text-anchor="middle" x="1150.5" y="-228.406" font-family="Helvetica,sans-Serif" font-size="10.00" fill="#000000">chig::graphFunctionToJson</text>
</a>
</g>
</g>
<!-- Node160&#45;&gt;Node161 -->
<g id="edge22" class="edge">
<title>Node160&#45;&gt;Node161</title>
<path fill="none" stroke="#191970" d="M863.3505,-230.906C925.2744,-230.906 1019.9093,-230.906 1083.4328,-230.906"/>
<polygon fill="#191970" stroke="#191970" points="863.3237,-227.4061 853.3237,-230.906 863.3236,-234.4061 863.3237,-227.4061"/>
</g>
<!-- Node161&#45;&gt;Node147 -->
<g id="edge23" class="edge">
<title>Node161&#45;&gt;Node147</title>
<path fill="none" stroke="#191970" d="M1228.1669,-230.906C1299.9885,-230.906 1405.4812,-230.906 1472.696,-230.906"/>
<polygon fill="#191970" stroke="#191970" points="1227.8232,-227.4061 1217.8232,-230.906 1227.8231,-234.4061 1227.8232,-227.4061"/>
</g>
<!-- Node162&#45;&gt;Node160 -->
<g id="edge25" class="edge">
<title>Node162&#45;&gt;Node160</title>
<path fill="none" stroke="#191970" d="M689.291,-215.0382C708.8453,-217.8158 730.0872,-220.8332 748.746,-223.4835"/>
<polygon fill="#191970" stroke="#191970" points="689.6348,-211.552 679.2419,-213.6108 688.6503,-218.4824 689.6348,-211.552"/>
</g>
<!-- Node163&#45;&gt;Node148 -->
<g id="edge29" class="edge">
<title>Node163&#45;&gt;Node148</title>
<path fill="none" stroke="#191970" d="M486.7196,-77.9631C495.8759,-74.7557 504.9341,-70.7916 513,-65.906 532.8988,-53.8531 527.9896,-37.8959 549,-27.906 650.4355,20.3241 688.6821,-8.906 801,-8.906 801,-8.906 801,-8.906 1349,-8.906 1478.1584,-8.906 1619.0814,-86.1953 1674.1141,-119.7074"/>
<polygon fill="#191970" stroke="#191970" points="485.6236,-74.639 477.1798,-81.0384 487.7713,-81.3014 485.6236,-74.639"/>
</g>
<!-- Node164 -->
<g id="node23" class="node">
<title>Node164</title>
<g id="a_node23"><a xlink:href="structchig_1_1GraphModule.html#a4c3a1ba833c0bd7e9a3daf0fd42eb6c6" target="_top" xlink:title="Generate a llvm::Module from the module. ">
<polygon fill="#ffffff" stroke="#000000" points="573,-75.906 573,-105.906 677,-105.906 677,-75.906 573,-75.906"/>
<text text-anchor="start" x="581" y="-93.906" font-family="Helvetica,sans-Serif" font-size="10.00" fill="#000000">chig::GraphModule::</text>
<text text-anchor="middle" x="625" y="-82.906" font-family="Helvetica,sans-Serif" font-size="10.00" fill="#000000">generateModule</text>
</a>
</g>
</g>
<!-- Node163&#45;&gt;Node164 -->
<g id="edge28" class="edge">
<title>Node163&#45;&gt;Node164</title>
<path fill="none" stroke="#191970" d="M487.3157,-90.906C514.7879,-90.906 546.7048,-90.906 572.8879,-90.906"/>
<polygon fill="#191970" stroke="#191970" points="487.0256,-87.4061 477.0255,-90.906 487.0255,-94.4061 487.0256,-87.4061"/>
</g>
<!-- Node165 -->
<g id="node24" class="node">
<title>Node165</title>
<g id="a_node24"><a xlink:href="classchig_1_1Debugger.html#a14ba3a1e81f210a2055f7f80f3c26088" target="_top" xlink:title="Set a breakpoint on a given node. ">
<polygon fill="#ffffff" stroke="#000000" points="551,-37.406 551,-56.406 699,-56.406 699,-37.406 551,-37.406"/>
<text text-anchor="middle" x="625" y="-44.406" font-family="Helvetica,sans-Serif" font-size="10.00" fill="#000000">chig::Debugger::setBreakpoint</text>
</a>
</g>
</g>
<!-- Node163&#45;&gt;Node165 -->
<g id="edge30" class="edge">
<title>Node163&#45;&gt;Node165</title>
<path fill="none" stroke="#191970" d="M487.189,-77.2244C517.8471,-70.4796 554.0656,-62.5116 581.6771,-56.437"/>
<polygon fill="#191970" stroke="#191970" points="486.04,-73.8934 477.0255,-79.4604 487.544,-80.7299 486.04,-73.8934"/>
</g>
<!-- Node166 -->
<g id="node25" class="node">
<title>Node166</title>
<g id="a_node25"><a xlink:href="classchig_1_1Debugger.html#a9c77e0119f3b81fabce49ea20879fd33" target="_top" xlink:title="Check if the process is executing. ">
<polygon fill="#ffffff" stroke="#000000" points="741.5,-37.406 741.5,-56.406 860.5,-56.406 860.5,-37.406 741.5,-37.406"/>
<text text-anchor="middle" x="801" y="-44.406" font-family="Helvetica,sans-Serif" font-size="10.00" fill="#000000">chig::Debugger::running</text>
</a>
</g>
</g>
<!-- Node165&#45;&gt;Node166 -->
<g id="edge31" class="edge">
<title>Node165&#45;&gt;Node166</title>
<path fill="none" stroke="#191970" d="M709.4326,-46.906C720.2237,-46.906 731.0864,-46.906 741.3703,-46.906"/>
<polygon fill="#191970" stroke="#191970" points="709.1298,-43.4061 699.1297,-46.906 709.1297,-50.4061 709.1298,-43.4061"/>
</g>
<!-- Node168&#45;&gt;Node155 -->
<g id="edge34" class="edge">
<title>Node168&#45;&gt;Node155</title>
<path fill="none" stroke="#191970" d="M518.2862,-366.0438C528.5396,-365.0697 538.8874,-364.0867 548.8961,-363.1359"/>
<polygon fill="#191970" stroke="#191970" points="517.7046,-362.5832 508.0805,-367.0133 518.3667,-369.5518 517.7046,-362.5832"/>
</g>
</g>
</svg>
        <g id="navigator" transform="translate(0 0)" fill="#404254">
                <rect fill="#f2f5e9" fill-opacity="0.5" stroke="#606060" stroke-width=".5" x="0" y="0" width="60" height="60"/>
                <use id="zoomplus" xlink:href="#zoomPlus" x="17" y="9" onmousedown="handleZoom(evt,'in')"/>
                <use id="zoomminus" xlink:href="#zoomMin" x="42" y="9" onmousedown="handleZoom(evt,'out')"/>
                <use id="reset" xlink:href="#resetDef" x="30" y="36" onmousedown="handleReset()"/>
                <g id="arrowUp" xlink:href="#dirArrow" transform="translate(30 24)" onmousedown="handlePan(0,-1)">
                  <use xlink:href="#rim" fill="#404040">
                        <set attributeName="fill" to="#808080" begin="arrowUp.mouseover" end="arrowUp.mouseout"/>
                  </use>
                  <path fill="none" stroke="white" stroke-width="1.5" d="M0,-3.0v7 M-2.5,-0.5L0,-3.0L2.5,-0.5"/>
                </g>
                <g id="arrowRight" xlink:href="#dirArrow" transform="rotate(90) translate(36 -43)" onmousedown="handlePan(1,0)">
                  <use xlink:href="#rim" fill="#404040">
                        <set attributeName="fill" to="#808080" begin="arrowRight.mouseover" end="arrowRight.mouseout"/>
                  </use>
                  <path fill="none" stroke="white" stroke-width="1.5" d="M0,-3.0v7 M-2.5,-0.5L0,-3.0L2.5,-0.5"/>
                </g>
                <g id="arrowDown" xlink:href="#dirArrow" transform="rotate(180) translate(-30 -48)" onmousedown="handlePan(0,1)">
                  <use xlink:href="#rim" fill="#404040">
                        <set attributeName="fill" to="#808080" begin="arrowDown.mouseover" end="arrowDown.mouseout"/>
                  </use>
                  <path fill="none" stroke="white" stroke-width="1.5" d="M0,-3.0v7 M-2.5,-0.5L0,-3.0L2.5,-0.5"/>
                </g>
                <g id="arrowLeft" xlink:href="#dirArrow" transform="rotate(270) translate(-36 17)" onmousedown="handlePan(-1,0)">
                  <use xlink:href="#rim" fill="#404040">
                        <set attributeName="fill" to="#808080" begin="arrowLeft.mouseover" end="arrowLeft.mouseout"/>
                  </use>
                  <path fill="none" stroke="white" stroke-width="1.5" d="M0,-3.0v7 M-2.5,-0.5L0,-3.0L2.5,-0.5"/>
                </g>
        </g>
        <svg viewBox="0 0 15 15" width="100%" height="30px" preserveAspectRatio="xMaxYMin meet">
         <g id="arrow_out" transform="scale(0.3 0.3)">
          <a xlink:href="structchig_1_1ChigModule_a7864ea1e3388965d05103768757962a4_icgraph_org.svg" target="_base">
           <rect id="button" ry="5" rx="5" y="6" x="6" height="38" width="38"
                fill="#f2f5e9" fill-opacity="0.5" stroke="#606060" stroke-width="1.0"/>
           <path id="arrow"
             d="M 11.500037,31.436501 C 11.940474,20.09759 22.043105,11.32322 32.158766,21.979434 L 37.068811,17.246167 C 37.068811,17.246167 37.088388,32 37.088388,32 L 22.160133,31.978069 C 22.160133,31.978069 26.997745,27.140456 26.997745,27.140456 C 18.528582,18.264221 13.291696,25.230495 11.500037,31.436501 z"
             style="fill:#404040;"/>
          </a>
         </g>
        </svg>
</svg>
