<?xml version="1.0" encoding="UTF-8" standalone="no"?>
<!DOCTYPE svg PUBLIC "-//W3C//DTD SVG 1.1//EN"
 "http://www.w3.org/Graphics/SVG/1.1/DTD/svg11.dtd">
<!-- Generated by graphviz version 2.40.1 (20161225.0304)
 -->
<!-- Title: chi::GraphFunction::addDataOutput Pages: 1 -->
<svg width="1203pt" height="232pt"
 viewBox="0.00 0.00 1203.00 232.01" xmlns="http://www.w3.org/2000/svg" xmlns:xlink="http://www.w3.org/1999/xlink">
<g id="graph0" class="graph" transform="scale(1 1) rotate(0) translate(4 228.0065)">
<title>chi::GraphFunction::addDataOutput</title>
<polygon fill="#ffffff" stroke="transparent" points="-4,4 -4,-228.0065 1199,-228.0065 1199,4 -4,4"/>
<!-- Node38 -->
<g id="node1" class="node">
<title>Node38</title>
<polygon fill="#bfbfbf" stroke="#000000" points="0,-105.5065 0,-135.5065 99,-135.5065 99,-105.5065 0,-105.5065"/>
<text text-anchor="start" x="8" y="-123.5065" font-family="Helvetica,sans-Serif" font-size="10.00" fill="#000000">chi::GraphFunction</text>
<text text-anchor="middle" x="49.5" y="-112.5065" font-family="Helvetica,sans-Serif" font-size="10.00" fill="#000000">::addDataOutput</text>
</g>
<!-- Node39 -->
<g id="node2" class="node">
<title>Node39</title>
<g id="a_node2"><a xlink:href="structchi_1_1GraphFunction.html#ab0bf0d819ff062c01220614f617d5965" target="_top" xlink:title="Get the function data outputs in the format {type, docstring}. ">
<polygon fill="#ffffff" stroke="#000000" points="135,-105.5065 135,-135.5065 234,-135.5065 234,-105.5065 135,-105.5065"/>
<text text-anchor="start" x="143" y="-123.5065" font-family="Helvetica,sans-Serif" font-size="10.00" fill="#000000">chi::GraphFunction</text>
<text text-anchor="middle" x="184.5" y="-112.5065" font-family="Helvetica,sans-Serif" font-size="10.00" fill="#000000">::dataOutputs</text>
</a>
</g>
</g>
<!-- Node38&#45;&gt;Node39 -->
<g id="edge1" class="edge">
<title>Node38&#45;&gt;Node39</title>
<path fill="none" stroke="#191970" d="M109.2071,-120.5065C117.6702,-120.5065 126.299,-120.5065 134.5516,-120.5065"/>
<polygon fill="#191970" stroke="#191970" points="109.0025,-117.0066 99.0024,-120.5065 109.0024,-124.0066 109.0025,-117.0066"/>
</g>
<!-- Node40 -->
<g id="node3" class="node">
<title>Node40</title>
<g id="a_node3"><a xlink:href="namespacechi.html#af52d66c93c9e19da67c21bbb5747f5a4" target="_top" xlink:title="Make sure the function exit types align with the function type. ">
<polygon fill="#ffffff" stroke="#000000" points="560,-193.5065 560,-223.5065 684,-223.5065 684,-193.5065 560,-193.5065"/>
<text text-anchor="start" x="568" y="-211.5065" font-family="Helvetica,sans-Serif" font-size="10.00" fill="#000000">chi::validateFunctionExit</text>
<text text-anchor="middle" x="622" y="-200.5065" font-family="Helvetica,sans-Serif" font-size="10.00" fill="#000000">Types</text>
</a>
</g>
</g>
<!-- Node39&#45;&gt;Node40 -->
<g id="edge2" class="edge">
<title>Node39&#45;&gt;Node40</title>
<path fill="none" stroke="#191970" d="M208.921,-142.0878C225.0826,-155.0343 247.3964,-170.497 270,-178.5065 366.9773,-212.8697 488.0042,-215.0798 559.9222,-212.52"/>
<polygon fill="#191970" stroke="#191970" points="211.0014,-139.2667 201.0613,-135.5998 206.5451,-144.665 211.0014,-139.2667"/>
</g>
<!-- Node43 -->
<g id="node6" class="node">
<title>Node43</title>
<g id="a_node6"><a xlink:href="namespacechi.html#a6e8d6d34851f9df4edc4b82fedf424ce" target="_top" xlink:title="Make sure it&#39;s a valid signautre for a main function. ">
<polygon fill="#ffffff" stroke="#000000" points="720.5,-149.5065 720.5,-179.5065 848.5,-179.5065 848.5,-149.5065 720.5,-149.5065"/>
<text text-anchor="start" x="728.5" y="-167.5065" font-family="Helvetica,sans-Serif" font-size="10.00" fill="#000000">chi::validateFunctionMain</text>
<text text-anchor="middle" x="784.5" y="-156.5065" font-family="Helvetica,sans-Serif" font-size="10.00" fill="#000000">Signature</text>
</a>
</g>
</g>
<!-- Node39&#45;&gt;Node43 -->
<g id="edge5" class="edge">
<title>Node39&#45;&gt;Node43</title>
<path fill="none" stroke="#191970" d="M238.2183,-138.404C248.6553,-141.2559 259.5881,-143.8188 270,-145.5065 430.3622,-171.4992 622.3535,-170.1611 720.2334,-167.1984"/>
<polygon fill="#191970" stroke="#191970" points="238.9734,-134.9798 228.3967,-135.6002 237.0518,-141.7109 238.9734,-134.9798"/>
</g>
<!-- Node44 -->
<g id="node7" class="node">
<title>Node44</title>
<g id="a_node7"><a xlink:href="structchi_1_1GraphFunction.html#af14ad950cfff4ad3091827f9b6ad1cd2" target="_top" xlink:title="Create a fresh NodeType for an exit. ">
<polygon fill="#ffffff" stroke="#000000" points="270,-56.5065 270,-86.5065 381,-86.5065 381,-56.5065 270,-56.5065"/>
<text text-anchor="start" x="278" y="-74.5065" font-family="Helvetica,sans-Serif" font-size="10.00" fill="#000000">chi::GraphFunction</text>
<text text-anchor="middle" x="325.5" y="-63.5065" font-family="Helvetica,sans-Serif" font-size="10.00" fill="#000000">::createExitNodeType</text>
</a>
</g>
</g>
<!-- Node39&#45;&gt;Node44 -->
<g id="edge7" class="edge">
<title>Node39&#45;&gt;Node44</title>
<path fill="none" stroke="#191970" d="M237.4171,-102.1168C252.0981,-97.0149 267.8658,-91.5354 281.9456,-86.6424"/>
<polygon fill="#191970" stroke="#191970" points="236.2521,-98.8163 227.9552,-105.405 238.55,-105.4284 236.2521,-98.8163"/>
</g>
<!-- Node48 -->
<g id="node11" class="node">
<title>Node48</title>
<g id="a_node11"><a xlink:href="namespacechi.html#afd8b8d8a207d88359ad1e6a48d8f3bb1" target="_top" xlink:title="Serialize a GraphFunction to json. ">
<polygon fill="#ffffff" stroke="#000000" points="720,-12.0065 720,-31.0065 849,-31.0065 849,-12.0065 720,-12.0065"/>
<text text-anchor="middle" x="784.5" y="-19.0065" font-family="Helvetica,sans-Serif" font-size="10.00" fill="#000000">chi::graphFunctionToJson</text>
</a>
</g>
</g>
<!-- Node39&#45;&gt;Node48 -->
<g id="edge18" class="edge">
<title>Node39&#45;&gt;Node48</title>
<path fill="none" stroke="#191970" d="M203.1457,-97.7926C218.9348,-80.3669 243.226,-57.494 270,-46.5065 424.0896,16.7289 626.2984,1.1847 725.0475,-11.98"/>
<polygon fill="#191970" stroke="#191970" points="200.476,-95.5285 196.5112,-105.3535 205.7376,-100.1455 200.476,-95.5285"/>
</g>
<!-- Node51 -->
<g id="node14" class="node">
<title>Node51</title>
<g id="a_node14"><a xlink:href="structchi_1_1GraphFunction.html#aa2c89c659786c9928a616a81dab267e4" target="_top" xlink:title="Get the LLVM function type for the function. ">
<polygon fill="#ffffff" stroke="#000000" points="276,-105.5065 276,-135.5065 375,-135.5065 375,-105.5065 276,-105.5065"/>
<text text-anchor="start" x="284" y="-123.5065" font-family="Helvetica,sans-Serif" font-size="10.00" fill="#000000">chi::GraphFunction</text>
<text text-anchor="middle" x="325.5" y="-112.5065" font-family="Helvetica,sans-Serif" font-size="10.00" fill="#000000">::functionType</text>
</a>
</g>
</g>
<!-- Node39&#45;&gt;Node51 -->
<g id="edge16" class="edge">
<title>Node39&#45;&gt;Node51</title>
<path fill="none" stroke="#191970" d="M244.4944,-120.5065C254.9166,-120.5065 265.6522,-120.5065 275.7623,-120.5065"/>
<polygon fill="#191970" stroke="#191970" points="244.2114,-117.0066 234.2113,-120.5065 244.2113,-124.0066 244.2114,-117.0066"/>
</g>
<!-- Node41 -->
<g id="node4" class="node">
<title>Node41</title>
<g id="a_node4"><a xlink:href="namespacechi.html#acdc71d0d7f04f55316cc16af79b7f5b1" target="_top" xlink:title="Validate that a function is compilable. ">
<polygon fill="#ffffff" stroke="#000000" points="893,-177.0065 893,-196.0065 1000,-196.0065 1000,-177.0065 893,-177.0065"/>
<text text-anchor="middle" x="946.5" y="-184.0065" font-family="Helvetica,sans-Serif" font-size="10.00" fill="#000000">chi::validateFunction</text>
</a>
</g>
</g>
<!-- Node40&#45;&gt;Node41 -->
<g id="edge3" class="edge">
<title>Node40&#45;&gt;Node41</title>
<path fill="none" stroke="#191970" d="M694.3636,-203.6005C754.4751,-199.5251 838.637,-193.8192 892.8646,-190.1428"/>
<polygon fill="#191970" stroke="#191970" points="693.9232,-200.1222 684.1829,-204.2907 694.3968,-207.1062 693.9232,-200.1222"/>
</g>
<!-- Node42 -->
<g id="node5" class="node">
<title>Node42</title>
<g id="a_node5"><a xlink:href="structchi_1_1FunctionCompiler.html#a344523ec8a120e2001436268bd47de52" target="_top" xlink:title="Creates the function, but don&#39;t actually generate into it. ">
<polygon fill="#ffffff" stroke="#000000" points="1064,-171.5065 1064,-201.5065 1175,-201.5065 1175,-171.5065 1064,-171.5065"/>
<text text-anchor="start" x="1072" y="-189.5065" font-family="Helvetica,sans-Serif" font-size="10.00" fill="#000000">chi::FunctionCompiler</text>
<text text-anchor="middle" x="1119.5" y="-178.5065" font-family="Helvetica,sans-Serif" font-size="10.00" fill="#000000">::initialize</text>
</a>
</g>
</g>
<!-- Node41&#45;&gt;Node42 -->
<g id="edge4" class="edge">
<title>Node41&#45;&gt;Node42</title>
<path fill="none" stroke="#191970" d="M1010.4512,-186.5065C1028.0116,-186.5065 1046.9049,-186.5065 1063.951,-186.5065"/>
<polygon fill="#191970" stroke="#191970" points="1010.29,-183.0066 1000.29,-186.5065 1010.2899,-190.0066 1010.29,-183.0066"/>
</g>
<!-- Node43&#45;&gt;Node41 -->
<g id="edge6" class="edge">
<title>Node43&#45;&gt;Node41</title>
<path fill="none" stroke="#191970" d="M858.6014,-174.5696C870.1481,-176.1377 881.8831,-177.7313 892.8587,-179.2218"/>
<polygon fill="#191970" stroke="#191970" points="858.9068,-171.079 848.5267,-173.2014 857.9647,-178.0154 858.9068,-171.079"/>
</g>
<!-- Node45 -->
<g id="node8" class="node">
<title>Node45</title>
<g id="a_node8"><a xlink:href="structchi_1_1GraphFunction.html#a900c0b670ad04a76b6add803ade7ae0d" target="_top" xlink:title="Get the nodes in the function Usually called by connectData or connectExec or GraphFunction. ">
<polygon fill="#ffffff" stroke="#000000" points="421,-105.5065 421,-135.5065 520,-135.5065 520,-105.5065 421,-105.5065"/>
<text text-anchor="start" x="429" y="-123.5065" font-family="Helvetica,sans-Serif" font-size="10.00" fill="#000000">chi::GraphFunction</text>
<text text-anchor="middle" x="470.5" y="-112.5065" font-family="Helvetica,sans-Serif" font-size="10.00" fill="#000000">::nodes</text>
</a>
</g>
</g>
<!-- Node44&#45;&gt;Node45 -->
<g id="edge8" class="edge">
<title>Node44&#45;&gt;Node45</title>
<path fill="none" stroke="#191970" d="M379.9183,-89.8961C395.0158,-94.998 411.2308,-100.4776 425.71,-105.3705"/>
<polygon fill="#191970" stroke="#191970" points="380.7822,-86.4936 370.1879,-86.6079 378.5411,-93.1252 380.7822,-86.4936"/>
</g>
<!-- Node46 -->
<g id="node9" class="node">
<title>Node46</title>
<g id="a_node9"><a xlink:href="structchi_1_1GraphFunction.html#a3c10d56dd68371400993b4a3c120f585" target="_top" xlink:title="Rename an exec output If idx is out of range, this function does nothing. ">
<polygon fill="#ffffff" stroke="#000000" points="417,-56.5065 417,-86.5065 524,-86.5065 524,-56.5065 417,-56.5065"/>
<text text-anchor="start" x="425" y="-74.5065" font-family="Helvetica,sans-Serif" font-size="10.00" fill="#000000">chi::GraphFunction</text>
<text text-anchor="middle" x="470.5" y="-63.5065" font-family="Helvetica,sans-Serif" font-size="10.00" fill="#000000">::renameExecOutput</text>
</a>
</g>
</g>
<!-- Node44&#45;&gt;Node46 -->
<g id="edge9" class="edge">
<title>Node44&#45;&gt;Node46</title>
<path fill="none" stroke="#191970" d="M391.3807,-71.5065C399.8463,-71.5065 408.4333,-71.5065 416.6748,-71.5065"/>
<polygon fill="#191970" stroke="#191970" points="391.1461,-68.0066 381.1461,-71.5065 391.1461,-75.0066 391.1461,-68.0066"/>
</g>
<!-- Node47 -->
<g id="node10" class="node">
<title>Node47</title>
<g id="a_node10"><a xlink:href="structchi_1_1GraphFunction.html#ab47bbbd84f14240b824c1a780b125207" target="_top" xlink:title="Get the function exec outputs. ">
<polygon fill="#ffffff" stroke="#000000" points="572.5,-37.5065 572.5,-67.5065 671.5,-67.5065 671.5,-37.5065 572.5,-37.5065"/>
<text text-anchor="start" x="580.5" y="-55.5065" font-family="Helvetica,sans-Serif" font-size="10.00" fill="#000000">chi::GraphFunction</text>
<text text-anchor="middle" x="622" y="-44.5065" font-family="Helvetica,sans-Serif" font-size="10.00" fill="#000000">::execOutputs</text>
</a>
</g>
</g>
<!-- Node46&#45;&gt;Node47 -->
<g id="edge10" class="edge">
<title>Node46&#45;&gt;Node47</title>
<path fill="none" stroke="#191970" d="M534.3968,-63.493C547.094,-61.9006 560.2467,-60.2511 572.3801,-58.7294"/>
<polygon fill="#191970" stroke="#191970" points="533.8265,-60.037 524.3398,-64.7543 534.6976,-66.9826 533.8265,-60.037"/>
</g>
<!-- Node47&#45;&gt;Node43 -->
<g id="edge11" class="edge">
<title>Node47&#45;&gt;Node43</title>
<path fill="none" stroke="#191970" d="M652.4663,-73.5048C684.5564,-95.6223 734.2889,-129.8994 762.6728,-149.4625"/>
<polygon fill="#191970" stroke="#191970" points="654.1355,-70.4045 643.9155,-67.6113 650.163,-76.1681 654.1355,-70.4045"/>
</g>
<!-- Node47&#45;&gt;Node44 -->
<g id="edge12" class="edge">
<title>Node47&#45;&gt;Node44</title>
<path fill="none" stroke="#191970" d="M562.3673,-45.6796C521.3201,-42.2214 465.6359,-39.9818 417,-46.5065 401.821,-48.5428 385.595,-52.3989 371.0858,-56.4839"/>
<polygon fill="#191970" stroke="#191970" points="562.2032,-49.1788 572.4744,-46.5805 562.8247,-42.2064 562.2032,-49.1788"/>
</g>
<!-- Node47&#45;&gt;Node48 -->
<g id="edge13" class="edge">
<title>Node47&#45;&gt;Node48</title>
<path fill="none" stroke="#191970" d="M681.6866,-41.1201C699.0765,-37.8026 717.8872,-34.2141 734.6057,-31.0248"/>
<polygon fill="#191970" stroke="#191970" points="680.8053,-37.725 671.6383,-43.037 682.1171,-44.601 680.8053,-37.725"/>
</g>
<!-- Node49 -->
<g id="node12" class="node">
<title>Node49</title>
<g id="a_node12"><a xlink:href="namespacechi.html#a9a4f3fa54c612f0c559a353bb7382d5a" target="_top" xlink:title="Serialize a JsonModule to json. ">
<polygon fill="#ffffff" stroke="#000000" points="885,-12.0065 885,-31.0065 1008,-31.0065 1008,-12.0065 885,-12.0065"/>
<text text-anchor="middle" x="946.5" y="-19.0065" font-family="Helvetica,sans-Serif" font-size="10.00" fill="#000000">chi::graphModuleToJson</text>
</a>
</g>
</g>
<!-- Node48&#45;&gt;Node49 -->
<g id="edge14" class="edge">
<title>Node48&#45;&gt;Node49</title>
<path fill="none" stroke="#191970" d="M859.7026,-21.5065C868.1561,-21.5065 876.6942,-21.5065 884.9461,-21.5065"/>
<polygon fill="#191970" stroke="#191970" points="859.4582,-18.0066 849.4582,-21.5065 859.4581,-25.0066 859.4582,-18.0066"/>
</g>
<!-- Node50 -->
<g id="node13" class="node">
<title>Node50</title>
<g id="a_node13"><a xlink:href="structchi_1_1GraphModule.html#a5cd9fb1738336d5d382ebb50753bda3e" target="_top" xlink:title="Serialize to disk in the context. ">
<polygon fill="#ffffff" stroke="#000000" points="1044,-12.0065 1044,-31.0065 1195,-31.0065 1195,-12.0065 1044,-12.0065"/>
<text text-anchor="middle" x="1119.5" y="-19.0065" font-family="Helvetica,sans-Serif" font-size="10.00" fill="#000000">chi::GraphModule::saveToDisk</text>
</a>
</g>
</g>
<!-- Node49&#45;&gt;Node50 -->
<g id="edge15" class="edge">
<title>Node49&#45;&gt;Node50</title>
<path fill="none" stroke="#191970" d="M1018.5243,-21.5065C1026.8612,-21.5065 1035.3827,-21.5065 1043.7672,-21.5065"/>
<polygon fill="#191970" stroke="#191970" points="1018.4684,-18.0066 1008.4683,-21.5065 1018.4683,-25.0066 1018.4684,-18.0066"/>
</g>
<!-- Node51&#45;&gt;Node45 -->
<g id="edge17" class="edge">
<title>Node51&#45;&gt;Node45</title>
<path fill="none" stroke="#191970" d="M385.6041,-120.5065C397.3836,-120.5065 409.6131,-120.5065 420.9984,-120.5065"/>
<polygon fill="#191970" stroke="#191970" points="385.4008,-117.0066 375.4008,-120.5065 385.4007,-124.0066 385.4008,-117.0066"/>
</g>
</g>
</svg>
