<?xml version="1.0" encoding="UTF-8" standalone="no"?>
<!DOCTYPE svg PUBLIC "-//W3C//DTD SVG 1.1//EN"
 "http://www.w3.org/Graphics/SVG/1.1/DTD/svg11.dtd">
<!-- Generated by graphviz version 2.40.1 (20161225.0304)
 -->
<!-- Title: chi::Subprocess::kill Pages: 1 -->
<svg width="784pt" height="183pt"
 viewBox="0.00 0.00 784.00 182.61" xmlns="http://www.w3.org/2000/svg" xmlns:xlink="http://www.w3.org/1999/xlink">
<g id="graph0" class="graph" transform="scale(1 1) rotate(0) translate(4 178.6091)">
<title>chi::Subprocess::kill</title>
<polygon fill="#ffffff" stroke="transparent" points="-4,4 -4,-178.6091 780,-178.6091 780,4 -4,4"/>
<!-- Node137 -->
<g id="node1" class="node">
<title>Node137</title>
<polygon fill="#bfbfbf" stroke="#000000" points="0,-144.1091 0,-163.1091 105,-163.1091 105,-144.1091 0,-144.1091"/>
<text text-anchor="middle" x="52.5" y="-151.1091" font-family="Helvetica,sans-Serif" font-size="10.00" fill="#000000">chi::Subprocess::kill</text>
</g>
<!-- Node138 -->
<g id="node2" class="node">
<title>Node138</title>
<g id="a_node2"><a xlink:href="structchi_1_1Subprocess.html#a9b2f4ecd9a0239232deaf3ff46c48bf0" target="_top" xlink:title="Check if the child has started (start() has been called) ">
<polygon fill="#ffffff" stroke="#000000" points="141,-84.1091 141,-103.1091 264,-103.1091 264,-84.1091 141,-84.1091"/>
<text text-anchor="middle" x="202.5" y="-91.1091" font-family="Helvetica,sans-Serif" font-size="10.00" fill="#000000">chi::Subprocess::started</text>
</a>
</g>
</g>
<!-- Node137&#45;&gt;Node138 -->
<g id="edge1" class="edge">
<title>Node137&#45;&gt;Node138</title>
<path fill="none" stroke="#191970" d="M76.2679,-144.1019C101.245,-134.1111 140.743,-118.3119 168.9018,-107.0484"/>
<polygon fill="#191970" stroke="#191970" points="170.3617,-110.2341 178.3466,-103.2705 167.7619,-103.7348 170.3617,-110.2341"/>
</g>
<!-- Node139 -->
<g id="node3" class="node">
<title>Node139</title>
<g id="a_node3"><a xlink:href="structchi_1_1Subprocess.html#a62114d525126e682028af5a906f771a6" target="_top" xlink:title="Pushes data to the stdin stream of the child process. ">
<polygon fill="#ffffff" stroke="#000000" points="300,-84.1091 300,-103.1091 449,-103.1091 449,-84.1091 300,-84.1091"/>
<text text-anchor="middle" x="374.5" y="-91.1091" font-family="Helvetica,sans-Serif" font-size="10.00" fill="#000000">chi::Subprocess::pushToStdIn</text>
</a>
</g>
</g>
<!-- Node138&#45;&gt;Node139 -->
<g id="edge2" class="edge">
<title>Node138&#45;&gt;Node139</title>
<path fill="none" stroke="#191970" d="M264.1101,-87.1064C272.4241,-86.9335 281.0696,-86.8513 289.699,-86.8597"/>
<polygon fill="#191970" stroke="#191970" points="289.7831,-90.3601 299.8009,-86.9112 289.8189,-83.3602 289.7831,-90.3601"/>
</g>
<!-- Node146 -->
<g id="node10" class="node">
<title>Node146</title>
<g id="a_node10"><a xlink:href="structchi_1_1Subprocess.html#a45fd483d620609100cdd6065ce4751f2" target="_top" xlink:title="Close the STDIN stream (send an EOF) ">
<polygon fill="#ffffff" stroke="#000000" points="304.5,-43.1091 304.5,-62.1091 444.5,-62.1091 444.5,-43.1091 304.5,-43.1091"/>
<text text-anchor="middle" x="374.5" y="-50.1091" font-family="Helvetica,sans-Serif" font-size="10.00" fill="#000000">chi::Subprocess::closeStdIn</text>
</a>
</g>
</g>
<!-- Node138&#45;&gt;Node146 -->
<g id="edge14" class="edge">
<title>Node138&#45;&gt;Node146</title>
<path fill="none" stroke="#191970" d="M242.3926,-84.0998C266.9439,-78.2475 298.6129,-70.6985 324.7891,-64.4588"/>
<polygon fill="#191970" stroke="#191970" points="325.6103,-67.8612 334.5262,-62.1377 323.9872,-61.052 325.6103,-67.8612"/>
</g>
<!-- Node139&#45;&gt;Node138 -->
<g id="edge3" class="edge">
<title>Node139&#45;&gt;Node138</title>
<path fill="none" stroke="#191970" d="M299.8009,-100.307C291.3304,-100.3855 282.7111,-100.3753 274.2794,-100.2764"/>
<polygon fill="#191970" stroke="#191970" points="274.1655,-96.7742 264.1101,-100.1118 274.0521,-103.7733 274.1655,-96.7742"/>
</g>
<!-- Node140 -->
<g id="node4" class="node">
<title>Node140</title>
<g id="a_node4"><a xlink:href="structchi_1_1Subprocess.html#a9497b25fd496cd7a0ad464dfeb6e242d" target="_top" xlink:title="Checks if the stdin is closed. ">
<polygon fill="#ffffff" stroke="#000000" points="485,-78.6091 485,-108.6091 609,-108.6091 609,-78.6091 485,-78.6091"/>
<text text-anchor="start" x="493" y="-96.6091" font-family="Helvetica,sans-Serif" font-size="10.00" fill="#000000">chi::Subprocess::isStdIn</text>
<text text-anchor="middle" x="547" y="-85.6091" font-family="Helvetica,sans-Serif" font-size="10.00" fill="#000000">Closed</text>
</a>
</g>
</g>
<!-- Node139&#45;&gt;Node140 -->
<g id="edge4" class="edge">
<title>Node139&#45;&gt;Node140</title>
<path fill="none" stroke="#191970" d="M449.1577,-93.6091C457.6379,-93.6091 466.2704,-93.6091 474.7192,-93.6091"/>
<polygon fill="#191970" stroke="#191970" points="474.9111,-97.1092 484.9111,-93.6091 474.9111,-90.1092 474.9111,-97.1092"/>
</g>
<!-- Node144 -->
<g id="node8" class="node">
<title>Node144</title>
<g id="a_node8"><a xlink:href="structchi_1_1Result.html#a59ef40f4a327cbdea263d6e4b5af2ad8" target="_top" xlink:title="Add a entry to the result, either a warning or an error. ">
<polygon fill="#ffffff" stroke="#000000" points="493,-40.1091 493,-59.1091 601,-59.1091 601,-40.1091 493,-40.1091"/>
<text text-anchor="middle" x="547" y="-47.1091" font-family="Helvetica,sans-Serif" font-size="10.00" fill="#000000">chi::Result::addEntry</text>
</a>
</g>
</g>
<!-- Node139&#45;&gt;Node144 -->
<g id="edge12" class="edge">
<title>Node139&#45;&gt;Node144</title>
<path fill="none" stroke="#191970" d="M411.9299,-84.0618C437.6993,-77.4887 472.1381,-68.7043 499.7909,-61.6508"/>
<polygon fill="#191970" stroke="#191970" points="500.8184,-65.0009 509.6431,-59.1378 499.0883,-58.2181 500.8184,-65.0009"/>
</g>
<!-- Node140&#45;&gt;Node137 -->
<g id="edge7" class="edge">
<title>Node140&#45;&gt;Node137</title>
<path fill="none" stroke="#191970" d="M484.9309,-106.5017C473.0362,-108.7286 460.6573,-110.8798 449,-112.6091 331.7311,-130.0053 193.8585,-142.4789 115.4694,-148.8281"/>
<polygon fill="#191970" stroke="#191970" points="114.9658,-145.3572 105.2779,-149.6462 115.5259,-152.3347 114.9658,-145.3572"/>
</g>
<!-- Node141 -->
<g id="node5" class="node">
<title>Node141</title>
<g id="a_node5"><a xlink:href="structchi_1_1Subprocess.html#a2f57bcbe46b93798d8ca769dc7aab4c9" target="_top" xlink:title="Wait and gets the exit code. ">
<polygon fill="#ffffff" stroke="#000000" points="645,-95.1091 645,-114.1091 776,-114.1091 776,-95.1091 645,-95.1091"/>
<text text-anchor="middle" x="710.5" y="-102.1091" font-family="Helvetica,sans-Serif" font-size="10.00" fill="#000000">chi::Subprocess::exitCode</text>
</a>
</g>
</g>
<!-- Node140&#45;&gt;Node141 -->
<g id="edge5" class="edge">
<title>Node140&#45;&gt;Node141</title>
<path fill="none" stroke="#191970" d="M609.2788,-97.7991C617.6461,-98.3621 626.3024,-98.9444 634.8686,-99.5208"/>
<polygon fill="#191970" stroke="#191970" points="634.648,-103.0137 644.8604,-100.193 635.1179,-96.0295 634.648,-103.0137"/>
</g>
<!-- Node142 -->
<g id="node6" class="node">
<title>Node142</title>
<g id="a_node6"><a xlink:href="structchi_1_1Subprocess.html#ae9bc9855657b24db334384661644a80b" target="_top" xlink:title="Check if the process is still running. ">
<polygon fill="#ffffff" stroke="#000000" points="648,-2.1091 648,-21.1091 773,-21.1091 773,-2.1091 648,-2.1091"/>
<text text-anchor="middle" x="710.5" y="-9.1091" font-family="Helvetica,sans-Serif" font-size="10.00" fill="#000000">chi::Subprocess::running</text>
</a>
</g>
</g>
<!-- Node140&#45;&gt;Node142 -->
<g id="edge8" class="edge">
<title>Node140&#45;&gt;Node142</title>
<path fill="none" stroke="#191970" d="M591.2354,-78.5255C597.4253,-75.6375 603.532,-72.3327 609,-68.6091 628.2292,-55.5143 625.1346,-42.717 645,-30.6091 648.428,-28.5197 652.097,-26.6505 655.883,-24.9798"/>
<polygon fill="#191970" stroke="#191970" points="657.4318,-28.132 665.4642,-21.2233 654.8766,-21.615 657.4318,-28.132"/>
</g>
<!-- Node143 -->
<g id="node7" class="node">
<title>Node143</title>
<g id="a_node7"><a xlink:href="structchi_1_1Subprocess.html#aeea9178c987445e45d97e4d4210a983c" target="_top" xlink:title="Wait for the process to complete. ">
<polygon fill="#ffffff" stroke="#000000" points="655.5,-155.1091 655.5,-174.1091 765.5,-174.1091 765.5,-155.1091 655.5,-155.1091"/>
<text text-anchor="middle" x="710.5" y="-162.1091" font-family="Helvetica,sans-Serif" font-size="10.00" fill="#000000">chi::Subprocess::wait</text>
</a>
</g>
</g>
<!-- Node140&#45;&gt;Node143 -->
<g id="edge10" class="edge">
<title>Node140&#45;&gt;Node143</title>
<path fill="none" stroke="#191970" d="M581.6741,-108.6664C610.5191,-121.1923 651.2258,-138.8692 679.1167,-150.9809"/>
<polygon fill="#191970" stroke="#191970" points="677.8406,-154.2424 688.4072,-155.0153 680.6288,-147.8217 677.8406,-154.2424"/>
</g>
<!-- Node141&#45;&gt;Node138 -->
<g id="edge6" class="edge">
<title>Node141&#45;&gt;Node138</title>
<path fill="none" stroke="#191970" d="M645.9139,-114.1328C633.6804,-115.5813 620.9674,-116.8458 609,-117.6091 471.9272,-126.3515 436.5251,-127.6518 300,-112.6091 284.8188,-110.9364 268.4727,-108.1471 253.5845,-105.214"/>
<polygon fill="#191970" stroke="#191970" points="254.0393,-101.7349 243.5424,-103.1724 252.6446,-108.5946 254.0393,-101.7349"/>
</g>
<!-- Node142&#45;&gt;Node138 -->
<g id="edge9" class="edge">
<title>Node142&#45;&gt;Node138</title>
<path fill="none" stroke="#191970" d="M647.6821,-4.6863C565.4036,2.0955 417.7717,6.3362 300,-33.6091 270.752,-43.5293 241.0876,-63.5131 222.2885,-77.6883"/>
<polygon fill="#191970" stroke="#191970" points="219.9925,-75.0393 214.2192,-83.923 224.2723,-80.5785 219.9925,-75.0393"/>
</g>
<!-- Node143&#45;&gt;Node138 -->
<g id="edge11" class="edge">
<title>Node143&#45;&gt;Node138</title>
<path fill="none" stroke="#191970" d="M655.248,-165.5541C575.6574,-165.7387 424.6108,-161.6744 300,-132.6091 275.8095,-126.9667 249.7504,-116.2831 230.6639,-107.5226"/>
<polygon fill="#191970" stroke="#191970" points="231.9045,-104.2385 221.3653,-103.1536 228.9277,-110.574 231.9045,-104.2385"/>
</g>
<!-- Node145 -->
<g id="node9" class="node">
<title>Node145</title>
<g id="a_node9"><a xlink:href="structchi_1_1Result.html#aa078d3cb3dfb2fb63e81b71acea036e0" target="_top" xlink:title="Get the JSON associated with the context that&#39;s been added. ">
<polygon fill="#ffffff" stroke="#000000" points="649.5,-40.1091 649.5,-59.1091 771.5,-59.1091 771.5,-40.1091 649.5,-40.1091"/>
<text text-anchor="middle" x="710.5" y="-47.1091" font-family="Helvetica,sans-Serif" font-size="10.00" fill="#000000">chi::Result::contextJson</text>
</a>
</g>
</g>
<!-- Node144&#45;&gt;Node145 -->
<g id="edge13" class="edge">
<title>Node144&#45;&gt;Node145</title>
<path fill="none" stroke="#191970" d="M601.4431,-49.6091C613.5376,-49.6091 626.533,-49.6091 639.1891,-49.6091"/>
<polygon fill="#191970" stroke="#191970" points="639.2426,-53.1092 649.2425,-49.6091 639.2425,-46.1092 639.2426,-53.1092"/>
</g>
<!-- Node146&#45;&gt;Node140 -->
<g id="edge16" class="edge">
<title>Node146&#45;&gt;Node140</title>
<path fill="none" stroke="#191970" d="M414.5085,-62.1184C432.5519,-66.4069 454.4284,-71.6066 475.1616,-76.5345"/>
<polygon fill="#191970" stroke="#191970" points="474.368,-79.9433 484.9063,-78.8506 475.9867,-73.133 474.368,-79.9433"/>
</g>
<!-- Node146&#45;&gt;Node142 -->
<g id="edge17" class="edge">
<title>Node146&#45;&gt;Node142</title>
<path fill="none" stroke="#191970" d="M416.5496,-43.0807C437.0966,-38.7213 462.2422,-33.823 485,-30.6091 535.7075,-23.4482 593.2389,-18.6537 637.4992,-15.6723"/>
<polygon fill="#191970" stroke="#191970" points="637.8425,-19.1574 647.5911,-15.0084 637.3829,-12.1725 637.8425,-19.1574"/>
</g>
<!-- Node146&#45;&gt;Node144 -->
<g id="edge15" class="edge">
<title>Node146&#45;&gt;Node144</title>
<path fill="none" stroke="#191970" d="M444.6624,-51.3889C457.1964,-51.1709 470.2004,-50.9448 482.5642,-50.7297"/>
<polygon fill="#191970" stroke="#191970" points="482.8374,-54.2256 492.775,-50.5522 482.7156,-47.2267 482.8374,-54.2256"/>
</g>
</g>
</svg>
