<?xml version="1.0" encoding="UTF-8" standalone="no"?>
<!DOCTYPE svg PUBLIC "-//W3C//DTD SVG 1.1//EN"
 "http://www.w3.org/Graphics/SVG/1.1/DTD/svg11.dtd">
<!-- Generated by graphviz version 2.40.1 (20161225.0304)
 -->
<!-- Title: chig::GraphFunction::compile Pages: 1 -->
<!--zoomable 662 -->
<svg id="main" version="1.1" xmlns="http://www.w3.org/2000/svg" xmlns:xlink="http://www.w3.org/1999/xlink" xml:space="preserve" onload="init(evt)">
<style type="text/css"><![CDATA[
.edge:hover path { stroke: red; }
.edge:hover polygon { stroke: red; fill: red; }
]]></style>
<script type="text/javascript"><![CDATA[
var edges = document.getElementsByTagName('g');
if (edges && edges.length) {
  for (var i=0;i<edges.length;i++) {
    if (edges[i].id.substr(0,4)=='edge') {
      edges[i].setAttribute('class','edge');
    }
  }
}
]]></script>
        <defs>
                <circle id="rim" cx="0" cy="0" r="7"/>
                <circle id="rim2" cx="0" cy="0" r="3.5"/>
                <g id="zoomPlus">
                        <use xlink:href="#rim" fill="#404040">
                                <set attributeName="fill" to="#808080" begin="zoomplus.mouseover" end="zoomplus.mouseout"/>
                        </use>
                        <path d="M-4,0h8M0,-4v8" fill="none" stroke="white" stroke-width="1.5" pointer-events="none"/>
                </g>
                <g id="zoomMin">
                        <use xlink:href="#rim" fill="#404040">
                                <set attributeName="fill" to="#808080" begin="zoomminus.mouseover" end="zoomminus.mouseout"/>
                        </use>
                        <path d="M-4,0h8" fill="none" stroke="white" stroke-width="1.5" pointer-events="none"/>
                </g>
                <g id="dirArrow">
                        <path fill="none" stroke="white" stroke-width="1.5" d="M0,-3.0v7 M-2.5,-0.5L0,-3.0L2.5,-0.5"/>
                </g>
               <g id="resetDef">
                       <use xlink:href="#rim2" fill="#404040">
                               <set attributeName="fill" to="#808080" begin="reset.mouseover" end="reset.mouseout"/>
                       </use>
               </g>
        </defs>

<script type="text/javascript">
var viewWidth = 1283;
var viewHeight = 662;
var sectionId = 'dynsection-5';
</script>
<script xlink:href="svgpan.js"/>
<svg id="graph" class="graph">
<g id="viewport">
<title>chig::GraphFunction::compile</title>
<polygon fill="#ffffff" stroke="transparent" points="-4,4 -4,-658 1279,-658 1279,4 -4,4"/>
<!-- Node59 -->
<g id="node1" class="node">
<title>Node59</title>
<polygon fill="#bfbfbf" stroke="#000000" points="0,-128 0,-158 113,-158 113,-128 0,-128"/>
<text text-anchor="start" x="8" y="-146" font-family="Helvetica,sans-Serif" font-size="10.00" fill="#000000">chig::GraphFunction</text>
<text text-anchor="middle" x="56.5" y="-135" font-family="Helvetica,sans-Serif" font-size="10.00" fill="#000000">::compile</text>
</g>
<!-- Node60 -->
<g id="node2" class="node">
<title>Node60</title>
<g id="a_node2"><a xlink:href="structchig_1_1Result.html#aabb30a56760c3a817518912d9eabb491" target="_top" xlink:title="chig::Result::addEntry">
<polygon fill="#ffffff" stroke="#000000" points="996,-634.5 996,-653.5 1119,-653.5 1119,-634.5 996,-634.5"/>
<text text-anchor="middle" x="1057.5" y="-641.5" font-family="Helvetica,sans-Serif" font-size="10.00" fill="#000000">chig::Result::addEntry</text>
</a>
</g>
</g>
<!-- Node59&#45;&gt;Node60 -->
<g id="edge1" class="edge">
<title>Node59&#45;&gt;Node60</title>
<path fill="none" stroke="#191970" d="M59.2217,-158.0319C74.811,-238.9426 160.3409,-619 391.5,-619 391.5,-619 391.5,-619 700,-619 799.1811,-619 913.4636,-628.6938 985.5828,-636.0087"/>
<polygon fill="#191970" stroke="#191970" points="985.6053,-639.5294 995.9106,-637.0693 986.3205,-632.566 985.6053,-639.5294"/>
</g>
<!-- Node61 -->
<g id="node3" class="node">
<title>Node61</title>
<g id="a_node3"><a xlink:href="structchig_1_1GraphFunction.html#ad871a4642c83ead67062eb907b55443f" target="_top" xlink:title="chig::GraphFunction\l::dataInputs">
<polygon fill="#ffffff" stroke="#000000" points="823.5,-174 823.5,-204 936.5,-204 936.5,-174 823.5,-174"/>
<text text-anchor="start" x="831.5" y="-192" font-family="Helvetica,sans-Serif" font-size="10.00" fill="#000000">chig::GraphFunction</text>
<text text-anchor="middle" x="880" y="-181" font-family="Helvetica,sans-Serif" font-size="10.00" fill="#000000">::dataInputs</text>
</a>
</g>
</g>
<!-- Node59&#45;&gt;Node61 -->
<g id="edge2" class="edge">
<title>Node59&#45;&gt;Node61</title>
<path fill="none" stroke="#191970" d="M113.0507,-137.8333C179.6067,-132.207 293.489,-124 391.5,-124 391.5,-124 391.5,-124 542,-124 642.0349,-124 755.7754,-151.7956 822.519,-171.0341"/>
<polygon fill="#191970" stroke="#191970" points="821.8378,-174.4813 832.418,-173.9243 823.7998,-167.7618 821.8378,-174.4813"/>
</g>
<!-- Node66 -->
<g id="node8" class="node">
<title>Node66</title>
<g id="a_node8"><a xlink:href="structchig_1_1GraphFunction.html#a3291c0b882b4f73e5d60af4ca75b1a37" target="_top" xlink:title="chig::GraphFunction\l::name">
<polygon fill="#ffffff" stroke="#000000" points="1158.5,-166 1158.5,-196 1271.5,-196 1271.5,-166 1158.5,-166"/>
<text text-anchor="start" x="1166.5" y="-184" font-family="Helvetica,sans-Serif" font-size="10.00" fill="#000000">chig::GraphFunction</text>
<text text-anchor="middle" x="1215" y="-173" font-family="Helvetica,sans-Serif" font-size="10.00" fill="#000000">::name</text>
</a>
</g>
</g>
<!-- Node59&#45;&gt;Node66 -->
<g id="edge45" class="edge">
<title>Node59&#45;&gt;Node66</title>
<path fill="none" stroke="#191970" d="M110.8528,-127.9494C176.7257,-111.0619 291.355,-86 391.5,-86 391.5,-86 391.5,-86 880,-86 986.5935,-86 1019.7495,-67.1219 1119,-106 1148.2933,-117.4747 1175.9565,-140.9364 1193.9939,-158.5807"/>
<polygon fill="#191970" stroke="#191970" points="1191.5772,-161.1141 1201.1115,-165.7345 1196.5395,-156.1769 1191.5772,-161.1141"/>
</g>
<!-- Node67 -->
<g id="node9" class="node">
<title>Node67</title>
<g id="a_node9"><a xlink:href="structchig_1_1GraphFunction.html#ae734c04f29489efeb96227a20e2ada22" target="_top" xlink:title="chig::GraphFunction\l::dataOutputs">
<polygon fill="#ffffff" stroke="#000000" points="335,-439 335,-469 448,-469 448,-439 335,-439"/>
<text text-anchor="start" x="343" y="-457" font-family="Helvetica,sans-Serif" font-size="10.00" fill="#000000">chig::GraphFunction</text>
<text text-anchor="middle" x="391.5" y="-446" font-family="Helvetica,sans-Serif" font-size="10.00" fill="#000000">::dataOutputs</text>
</a>
</g>
</g>
<!-- Node59&#45;&gt;Node67 -->
<g id="edge8" class="edge">
<title>Node59&#45;&gt;Node67</title>
<path fill="none" stroke="#191970" d="M64.8422,-158.3981C79.6128,-184.8448 112.2916,-239.8291 149,-279 220.6747,-355.4827 247.0452,-366.984 335,-424 340.3207,-427.4491 346.0784,-430.8519 351.8135,-434.0576"/>
<polygon fill="#191970" stroke="#191970" points="350.2838,-437.2097 360.7412,-438.911 353.6272,-431.0597 350.2838,-437.2097"/>
</g>
<!-- Node71 -->
<g id="node13" class="node">
<title>Node71</title>
<g id="a_node13"><a xlink:href="structchig_1_1GraphFunction.html#aa47e30665a08b671950c4e8411c7a4ba" target="_top" xlink:title="chig::GraphFunction\l::entryNode">
<polygon fill="#ffffff" stroke="#000000" points="643.5,-225 643.5,-255 756.5,-255 756.5,-225 643.5,-225"/>
<text text-anchor="start" x="651.5" y="-243" font-family="Helvetica,sans-Serif" font-size="10.00" fill="#000000">chig::GraphFunction</text>
<text text-anchor="middle" x="700" y="-232" font-family="Helvetica,sans-Serif" font-size="10.00" fill="#000000">::entryNode</text>
</a>
</g>
</g>
<!-- Node59&#45;&gt;Node71 -->
<g id="edge37" class="edge">
<title>Node59&#45;&gt;Node71</title>
<path fill="none" stroke="#191970" d="M113.0423,-151.5231C231.7377,-169.415 506.3659,-210.8119 633.3686,-229.9561"/>
<polygon fill="#191970" stroke="#191970" points="632.9459,-233.4319 643.3559,-231.4616 633.9894,-226.51 632.9459,-233.4319"/>
</g>
<!-- Node86 -->
<g id="node28" class="node">
<title>Node86</title>
<g id="a_node28"><a xlink:href="structchig_1_1GraphFunction.html#a6aae3374651aca2f0973c81ecae2d848" target="_top" xlink:title="chig::GraphFunction\l::functionType">
<polygon fill="#ffffff" stroke="#000000" points="167.5,-239 167.5,-269 280.5,-269 280.5,-239 167.5,-239"/>
<text text-anchor="start" x="175.5" y="-257" font-family="Helvetica,sans-Serif" font-size="10.00" fill="#000000">chig::GraphFunction</text>
<text text-anchor="middle" x="224" y="-246" font-family="Helvetica,sans-Serif" font-size="10.00" fill="#000000">::functionType</text>
</a>
</g>
</g>
<!-- Node59&#45;&gt;Node86 -->
<g id="edge38" class="edge">
<title>Node59&#45;&gt;Node86</title>
<path fill="none" stroke="#191970" d="M79.439,-158.2013C108.8837,-177.714 160.0866,-211.6455 192.9855,-233.4471"/>
<polygon fill="#191970" stroke="#191970" points="191.0689,-236.3757 201.3381,-238.9823 194.9357,-230.5407 191.0689,-236.3757"/>
</g>
<!-- Node87 -->
<g id="node29" class="node">
<title>Node87</title>
<g id="a_node29"><a xlink:href="namespacechig.html#a2a1a14d23516a3c3d5df010cb9d14edf" target="_top" xlink:title="chig::mangleFunctionName">
<polygon fill="#ffffff" stroke="#000000" points="149,-.5 149,-19.5 299,-19.5 299,-.5 149,-.5"/>
<text text-anchor="middle" x="224" y="-7.5" font-family="Helvetica,sans-Serif" font-size="10.00" fill="#000000">chig::mangleFunctionName</text>
</a>
</g>
</g>
<!-- Node59&#45;&gt;Node87 -->
<g id="edge42" class="edge">
<title>Node59&#45;&gt;Node87</title>
<path fill="none" stroke="#191970" d="M65.3203,-127.9986C79.8464,-104.5672 111.0125,-59.3469 149,-34 155.5567,-29.625 162.9644,-26.0034 170.507,-23.0176"/>
<polygon fill="#191970" stroke="#191970" points="171.8589,-26.2508 180.0794,-19.5668 169.485,-19.6656 171.8589,-26.2508"/>
</g>
<!-- Node88 -->
<g id="node30" class="node">
<title>Node88</title>
<g id="a_node30"><a xlink:href="structchig_1_1GraphFunction.html#a1a331d17f2229f78a0b9c9407f500b07" target="_top" xlink:title="chig::GraphFunction\l::module">
<polygon fill="#ffffff" stroke="#000000" points="335,-27 335,-57 448,-57 448,-27 335,-27"/>
<text text-anchor="start" x="343" y="-45" font-family="Helvetica,sans-Serif" font-size="10.00" fill="#000000">chig::GraphFunction</text>
<text text-anchor="middle" x="391.5" y="-34" font-family="Helvetica,sans-Serif" font-size="10.00" fill="#000000">::module</text>
</a>
</g>
</g>
<!-- Node59&#45;&gt;Node88 -->
<g id="edge43" class="edge">
<title>Node59&#45;&gt;Node88</title>
<path fill="none" stroke="#191970" d="M70.923,-127.8703C87.8843,-111.1267 117.7161,-84.818 149,-72 205.3718,-48.9026 274.8084,-42.2784 324.9129,-40.914"/>
<polygon fill="#191970" stroke="#191970" points="325.0582,-44.4118 334.9827,-40.7032 324.9116,-37.4133 325.0582,-44.4118"/>
</g>
<!-- Node62 -->
<g id="node4" class="node">
<title>Node62</title>
<g id="a_node4"><a xlink:href="structchig_1_1GraphFunction.html#a58da0f0d53f153a37bb4ba7bdc00df75" target="_top" xlink:title="chig::GraphFunction\l::addDataInput">
<polygon fill="#ffffff" stroke="#000000" points="1001,-164 1001,-194 1114,-194 1114,-164 1001,-164"/>
<text text-anchor="start" x="1009" y="-182" font-family="Helvetica,sans-Serif" font-size="10.00" fill="#000000">chig::GraphFunction</text>
<text text-anchor="middle" x="1057.5" y="-171" font-family="Helvetica,sans-Serif" font-size="10.00" fill="#000000">::addDataInput</text>
</a>
</g>
</g>
<!-- Node61&#45;&gt;Node62 -->
<g id="edge3" class="edge">
<title>Node61&#45;&gt;Node62</title>
<path fill="none" stroke="#191970" d="M936.6501,-185.8084C953.7823,-184.8433 972.7589,-183.7741 990.4997,-182.7747"/>
<polygon fill="#191970" stroke="#191970" points="990.992,-186.2526 1000.7792,-182.1955 990.5982,-179.2637 990.992,-186.2526"/>
</g>
<!-- Node63 -->
<g id="node5" class="node">
<title>Node63</title>
<g id="a_node5"><a xlink:href="structchig_1_1GraphFunction.html#a9698f54861e9997f2690e10e0e8316c8" target="_top" xlink:title="chig::GraphFunction\l::removeDataInput">
<polygon fill="#ffffff" stroke="#000000" points="1001,-115 1001,-145 1114,-145 1114,-115 1001,-115"/>
<text text-anchor="start" x="1009" y="-133" font-family="Helvetica,sans-Serif" font-size="10.00" fill="#000000">chig::GraphFunction</text>
<text text-anchor="middle" x="1057.5" y="-122" font-family="Helvetica,sans-Serif" font-size="10.00" fill="#000000">::removeDataInput</text>
</a>
</g>
</g>
<!-- Node61&#45;&gt;Node63 -->
<g id="edge4" class="edge">
<title>Node61&#45;&gt;Node63</title>
<path fill="none" stroke="#191970" d="M925.25,-173.9592C948.8257,-166.1227 977.8424,-156.4777 1002.6834,-148.2207"/>
<polygon fill="#191970" stroke="#191970" points="1003.9471,-151.489 1012.3326,-145.0134 1001.7391,-144.8464 1003.9471,-151.489"/>
</g>
<!-- Node64 -->
<g id="node6" class="node">
<title>Node64</title>
<g id="a_node6"><a xlink:href="structchig_1_1GraphFunction.html#a452c6ff0834f1acdb6740267ef468250" target="_top" xlink:title="chig::GraphFunction\l::modifyDataInput">
<polygon fill="#ffffff" stroke="#000000" points="1001,-213 1001,-243 1114,-243 1114,-213 1001,-213"/>
<text text-anchor="start" x="1009" y="-231" font-family="Helvetica,sans-Serif" font-size="10.00" fill="#000000">chig::GraphFunction</text>
<text text-anchor="middle" x="1057.5" y="-220" font-family="Helvetica,sans-Serif" font-size="10.00" fill="#000000">::modifyDataInput</text>
</a>
</g>
</g>
<!-- Node61&#45;&gt;Node64 -->
<g id="edge5" class="edge">
<title>Node61&#45;&gt;Node64</title>
<path fill="none" stroke="#191970" d="M936.6501,-201.4471C953.9424,-205.2465 973.1137,-209.4588 990.9968,-213.388"/>
<polygon fill="#191970" stroke="#191970" points="990.2611,-216.8098 1000.7792,-215.5374 991.7634,-209.9729 990.2611,-216.8098"/>
</g>
<!-- Node65 -->
<g id="node7" class="node">
<title>Node65</title>
<g id="a_node7"><a xlink:href="structchig_1_1DataType.html#a307eaa94c9f2d408c7a204e364b02b22" target="_top" xlink:title="Check if the DataType is valid. ">
<polygon fill="#ffffff" stroke="#000000" points="1155,-264.5 1155,-283.5 1275,-283.5 1275,-264.5 1155,-264.5"/>
<text text-anchor="middle" x="1215" y="-271.5" font-family="Helvetica,sans-Serif" font-size="10.00" fill="#000000">chig::DataType::valid</text>
</a>
</g>
</g>
<!-- Node64&#45;&gt;Node65 -->
<g id="edge6" class="edge">
<title>Node64&#45;&gt;Node65</title>
<path fill="none" stroke="#191970" d="M1109.0714,-243.0621C1129.5458,-249.042 1152.8141,-255.8378 1172.3175,-261.534"/>
<polygon fill="#191970" stroke="#191970" points="1171.5584,-264.9585 1182.1386,-264.4024 1173.5209,-258.2392 1171.5584,-264.9585"/>
</g>
<!-- Node64&#45;&gt;Node66 -->
<g id="edge7" class="edge">
<title>Node64&#45;&gt;Node66</title>
<path fill="none" stroke="#191970" d="M1107.767,-212.9997C1122.6847,-208.5481 1139.1783,-203.6262 1154.6652,-199.0047"/>
<polygon fill="#191970" stroke="#191970" points="1156.0887,-202.2325 1164.6703,-196.019 1154.087,-195.5248 1156.0887,-202.2325"/>
</g>
<!-- Node68 -->
<g id="node10" class="node">
<title>Node68</title>
<g id="a_node10"><a xlink:href="structchig_1_1GraphFunction.html#af76e111d051ead319035f83785b932e2" target="_top" xlink:title="chig::GraphFunction\l::addDataOutput">
<polygon fill="#ffffff" stroke="#000000" points="485.5,-439 485.5,-469 598.5,-469 598.5,-439 485.5,-439"/>
<text text-anchor="start" x="493.5" y="-457" font-family="Helvetica,sans-Serif" font-size="10.00" fill="#000000">chig::GraphFunction</text>
<text text-anchor="middle" x="542" y="-446" font-family="Helvetica,sans-Serif" font-size="10.00" fill="#000000">::addDataOutput</text>
</a>
</g>
</g>
<!-- Node67&#45;&gt;Node68 -->
<g id="edge9" class="edge">
<title>Node67&#45;&gt;Node68</title>
<path fill="none" stroke="#191970" d="M448.3976,-454C457.013,-454 465.9701,-454 474.7788,-454"/>
<polygon fill="#191970" stroke="#191970" points="475.022,-457.5001 485.0219,-454 475.0219,-450.5001 475.022,-457.5001"/>
</g>
<!-- Node69 -->
<g id="node11" class="node">
<title>Node69</title>
<g id="a_node11"><a xlink:href="structchig_1_1GraphFunction.html#ae6fc3833c6e0631177efb4e35e7f59e4" target="_top" xlink:title="chig::GraphFunction\l::removeDataOutput">
<polygon fill="#ffffff" stroke="#000000" points="484,-527 484,-557 600,-557 600,-527 484,-527"/>
<text text-anchor="start" x="492" y="-545" font-family="Helvetica,sans-Serif" font-size="10.00" fill="#000000">chig::GraphFunction</text>
<text text-anchor="middle" x="542" y="-534" font-family="Helvetica,sans-Serif" font-size="10.00" fill="#000000">::removeDataOutput</text>
</a>
</g>
</g>
<!-- Node67&#45;&gt;Node69 -->
<g id="edge10" class="edge">
<title>Node67&#45;&gt;Node69</title>
<path fill="none" stroke="#191970" d="M414.3669,-469.0777C432.8937,-481.1128 459.8014,-498.1866 484,-512 489.9535,-515.3985 496.3304,-518.8652 502.5987,-522.1785"/>
<polygon fill="#191970" stroke="#191970" points="501.1578,-525.3744 511.6427,-526.897 504.3958,-519.1683 501.1578,-525.3744"/>
</g>
<!-- Node70 -->
<g id="node12" class="node">
<title>Node70</title>
<g id="a_node12"><a xlink:href="structchig_1_1GraphFunction.html#a3765dc838314ff13457ac933b043f711" target="_top" xlink:title="chig::GraphFunction\l::modifyDataOutput">
<polygon fill="#ffffff" stroke="#000000" points="485.5,-347 485.5,-377 598.5,-377 598.5,-347 485.5,-347"/>
<text text-anchor="start" x="493.5" y="-365" font-family="Helvetica,sans-Serif" font-size="10.00" fill="#000000">chig::GraphFunction</text>
<text text-anchor="middle" x="542" y="-354" font-family="Helvetica,sans-Serif" font-size="10.00" fill="#000000">::modifyDataOutput</text>
</a>
</g>
</g>
<!-- Node67&#45;&gt;Node70 -->
<g id="edge11" class="edge">
<title>Node67&#45;&gt;Node70</title>
<path fill="none" stroke="#191970" d="M416.352,-438.8081C441.5894,-423.3806 480.8239,-399.3967 508.7307,-382.3374"/>
<polygon fill="#191970" stroke="#191970" points="510.6546,-385.2635 517.3612,-377.0616 507.0036,-379.291 510.6546,-385.2635"/>
</g>
<!-- Node70&#45;&gt;Node65 -->
<g id="edge12" class="edge">
<title>Node70&#45;&gt;Node65</title>
<path fill="none" stroke="#191970" d="M598.8588,-364.8385C643.8799,-367.6348 708.2465,-372.8537 764,-382 775.0499,-383.8127 949.1593,-426.1955 960,-429 976.0766,-433.159 979.5463,-436.7572 996,-439 1050.1658,-446.3832 1071.6116,-466.2541 1119,-439 1174.1958,-407.2557 1200.6143,-330.2254 1210.3615,-293.7618"/>
<polygon fill="#191970" stroke="#191970" points="1213.8113,-294.3954 1212.8647,-283.843 1207.0241,-292.6825 1213.8113,-294.3954"/>
</g>
<!-- Node70&#45;&gt;Node66 -->
<g id="edge13" class="edge">
<title>Node70&#45;&gt;Node66</title>
<path fill="none" stroke="#191970" d="M598.6247,-356.7112C679.4657,-348.5203 832.3116,-330.6547 960,-302 969.019,-299.976 1110.7641,-257.1962 1119,-253 1145.5187,-239.4886 1172.3359,-218.6354 1190.8601,-202.8421"/>
<polygon fill="#191970" stroke="#191970" points="1193.252,-205.4006 1198.5112,-196.2033 1188.6643,-200.1134 1193.252,-205.4006"/>
</g>
<!-- Node70&#45;&gt;Node71 -->
<g id="edge14" class="edge">
<title>Node70&#45;&gt;Node71</title>
<path fill="none" stroke="#191970" d="M554.7061,-346.7002C571.6601,-327.0101 603.3534,-292.6473 636,-270 641.2934,-266.3279 647.1074,-262.9002 653.0057,-259.7712"/>
<polygon fill="#191970" stroke="#191970" points="654.9192,-262.7267 662.2813,-255.1076 651.7748,-256.4726 654.9192,-262.7267"/>
</g>
<!-- Node72 -->
<g id="node14" class="node">
<title>Node72</title>
<g id="a_node14"><a xlink:href="structchig_1_1GraphFunction.html#a5a5eed54a181b865e7bd842a40f5e1f1" target="_top" xlink:title="chig::GraphFunction\l::graph">
<polygon fill="#ffffff" stroke="#000000" points="823.5,-262 823.5,-292 936.5,-292 936.5,-262 823.5,-262"/>
<text text-anchor="start" x="831.5" y="-280" font-family="Helvetica,sans-Serif" font-size="10.00" fill="#000000">chig::GraphFunction</text>
<text text-anchor="middle" x="880" y="-269" font-family="Helvetica,sans-Serif" font-size="10.00" fill="#000000">::graph</text>
</a>
</g>
</g>
<!-- Node70&#45;&gt;Node72 -->
<g id="edge28" class="edge">
<title>Node70&#45;&gt;Node72</title>
<path fill="none" stroke="#191970" d="M562.8715,-346.7639C581.1956,-334.2071 609.0587,-317.0449 636,-308 693.9442,-288.5466 763.3734,-281.1557 813.329,-278.42"/>
<polygon fill="#191970" stroke="#191970" points="813.5536,-281.9133 823.3665,-277.9185 813.2042,-274.922 813.5536,-281.9133"/>
</g>
<!-- Node78 -->
<g id="node20" class="node">
<title>Node78</title>
<g id="a_node20"><a xlink:href="structchig_1_1GraphFunction.html#abc41f524da8fd9b7308cb7abaa2b28c9" target="_top" xlink:title="chig::GraphFunction\l::createEntryNodeType">
<polygon fill="#ffffff" stroke="#000000" points="636,-391 636,-421 764,-421 764,-391 636,-391"/>
<text text-anchor="start" x="644" y="-409" font-family="Helvetica,sans-Serif" font-size="10.00" fill="#000000">chig::GraphFunction</text>
<text text-anchor="middle" x="700" y="-398" font-family="Helvetica,sans-Serif" font-size="10.00" fill="#000000">::createEntryNodeType</text>
</a>
</g>
</g>
<!-- Node70&#45;&gt;Node78 -->
<g id="edge22" class="edge">
<title>Node70&#45;&gt;Node78</title>
<path fill="none" stroke="#191970" d="M595.9327,-377.0192C608.9533,-380.6452 622.9874,-384.5534 636.4047,-388.2899"/>
<polygon fill="#191970" stroke="#191970" points="635.4699,-391.6627 646.0423,-390.9738 637.3478,-384.9193 635.4699,-391.6627"/>
</g>
<!-- Node81 -->
<g id="node23" class="node">
<title>Node81</title>
<g id="a_node23"><a xlink:href="structchig_1_1GraphFunction.html#ac7c52122fef0c74d9d0ee04af9a741c4" target="_top" xlink:title="chig::GraphFunction\l::createExitNodeType">
<polygon fill="#ffffff" stroke="#000000" points="639,-483 639,-513 761,-513 761,-483 639,-483"/>
<text text-anchor="start" x="647" y="-501" font-family="Helvetica,sans-Serif" font-size="10.00" fill="#000000">chig::GraphFunction</text>
<text text-anchor="middle" x="700" y="-490" font-family="Helvetica,sans-Serif" font-size="10.00" fill="#000000">::createExitNodeType</text>
</a>
</g>
</g>
<!-- Node70&#45;&gt;Node81 -->
<g id="edge29" class="edge">
<title>Node70&#45;&gt;Node81</title>
<path fill="none" stroke="#191970" d="M559.5125,-377.074C587.5106,-401.1737 642.4742,-448.4841 674.7284,-476.2472"/>
<polygon fill="#191970" stroke="#191970" points="672.5468,-478.9874 682.4091,-482.8585 677.1134,-473.6821 672.5468,-478.9874"/>
</g>
<!-- Node71&#45;&gt;Node61 -->
<g id="edge17" class="edge">
<title>Node71&#45;&gt;Node61</title>
<path fill="none" stroke="#191970" d="M753.0324,-224.9742C773.1753,-219.267 796.3085,-212.7126 817.264,-206.7752"/>
<polygon fill="#191970" stroke="#191970" points="818.3688,-210.1 827.0359,-204.0065 816.4605,-203.3651 818.3688,-210.1"/>
</g>
<!-- Node71&#45;&gt;Node72 -->
<g id="edge15" class="edge">
<title>Node71&#45;&gt;Node72</title>
<path fill="none" stroke="#191970" d="M756.9531,-251.707C774.9381,-255.404 794.9677,-259.5211 813.5554,-263.3419"/>
<polygon fill="#191970" stroke="#191970" points="812.9174,-266.7839 823.4174,-265.3691 814.3269,-259.9273 812.9174,-266.7839"/>
</g>
<!-- Node73 -->
<g id="node15" class="node">
<title>Node73</title>
<g id="a_node15"><a xlink:href="structchig_1_1Graph.html#a41afa4af0758e9665d4acba867175369" target="_top" xlink:title="chig::Graph::nodesWithType">
<polygon fill="#ffffff" stroke="#000000" points="803,-223.5 803,-242.5 957,-242.5 957,-223.5 803,-223.5"/>
<text text-anchor="middle" x="880" y="-230.5" font-family="Helvetica,sans-Serif" font-size="10.00" fill="#000000">chig::Graph::nodesWithType</text>
</a>
</g>
</g>
<!-- Node71&#45;&gt;Node73 -->
<g id="edge16" class="edge">
<title>Node71&#45;&gt;Node73</title>
<path fill="none" stroke="#191970" d="M756.9531,-237.7852C768.2989,-237.3439 780.4583,-236.8711 792.5561,-236.4006"/>
<polygon fill="#191970" stroke="#191970" points="792.8281,-239.8928 802.6845,-236.0067 792.556,-232.898 792.8281,-239.8928"/>
</g>
<!-- Node74 -->
<g id="node16" class="node">
<title>Node74</title>
<g id="a_node16"><a xlink:href="structchig_1_1GraphFunction.html#a217197f9e54f57cd7a8751a335f4710b" target="_top" xlink:title="chig::GraphFunction\l::execInputs">
<polygon fill="#ffffff" stroke="#000000" points="823.5,-350 823.5,-380 936.5,-380 936.5,-350 823.5,-350"/>
<text text-anchor="start" x="831.5" y="-368" font-family="Helvetica,sans-Serif" font-size="10.00" fill="#000000">chig::GraphFunction</text>
<text text-anchor="middle" x="880" y="-357" font-family="Helvetica,sans-Serif" font-size="10.00" fill="#000000">::execInputs</text>
</a>
</g>
</g>
<!-- Node71&#45;&gt;Node74 -->
<g id="edge18" class="edge">
<title>Node71&#45;&gt;Node74</title>
<path fill="none" stroke="#191970" d="M721.7122,-255.0779C753.7413,-277.3203 813.7621,-319.0015 849.9846,-344.156"/>
<polygon fill="#191970" stroke="#191970" points="848.0007,-347.0394 858.2108,-349.8686 851.9935,-341.2898 848.0007,-347.0394"/>
</g>
<!-- Node75 -->
<g id="node17" class="node">
<title>Node75</title>
<g id="a_node17"><a xlink:href="structchig_1_1GraphFunction.html#a61a90781bcdc650d6b2446dd16d8a079" target="_top" xlink:title="chig::GraphFunction\l::addExecInput">
<polygon fill="#ffffff" stroke="#000000" points="1001,-350 1001,-380 1114,-380 1114,-350 1001,-350"/>
<text text-anchor="start" x="1009" y="-368" font-family="Helvetica,sans-Serif" font-size="10.00" fill="#000000">chig::GraphFunction</text>
<text text-anchor="middle" x="1057.5" y="-357" font-family="Helvetica,sans-Serif" font-size="10.00" fill="#000000">::addExecInput</text>
</a>
</g>
</g>
<!-- Node74&#45;&gt;Node75 -->
<g id="edge19" class="edge">
<title>Node74&#45;&gt;Node75</title>
<path fill="none" stroke="#191970" d="M936.6501,-365C953.7823,-365 972.7589,-365 990.4997,-365"/>
<polygon fill="#191970" stroke="#191970" points="990.7793,-368.5001 1000.7792,-365 990.7792,-361.5001 990.7793,-368.5001"/>
</g>
<!-- Node76 -->
<g id="node18" class="node">
<title>Node76</title>
<g id="a_node18"><a xlink:href="structchig_1_1GraphFunction.html#a390ce7b4174a06ecd00ae7c72af9e157" target="_top" xlink:title="chig::GraphFunction\l::removeExecInput">
<polygon fill="#ffffff" stroke="#000000" points="1001,-301 1001,-331 1114,-331 1114,-301 1001,-301"/>
<text text-anchor="start" x="1009" y="-319" font-family="Helvetica,sans-Serif" font-size="10.00" fill="#000000">chig::GraphFunction</text>
<text text-anchor="middle" x="1057.5" y="-308" font-family="Helvetica,sans-Serif" font-size="10.00" fill="#000000">::removeExecInput</text>
</a>
</g>
</g>
<!-- Node74&#45;&gt;Node76 -->
<g id="edge20" class="edge">
<title>Node74&#45;&gt;Node76</title>
<path fill="none" stroke="#191970" d="M934.7042,-349.8986C953.1803,-344.7981 973.9768,-339.0571 993.1308,-333.7695"/>
<polygon fill="#191970" stroke="#191970" points="994.2684,-337.0865 1002.9764,-331.0516 992.4056,-330.3389 994.2684,-337.0865"/>
</g>
<!-- Node77 -->
<g id="node19" class="node">
<title>Node77</title>
<g id="a_node19"><a xlink:href="structchig_1_1GraphFunction.html#a66359dd63933d9c37b00d3894c979b11" target="_top" xlink:title="chig::GraphFunction\l::modifyExecInput">
<polygon fill="#ffffff" stroke="#000000" points="1001,-399 1001,-429 1114,-429 1114,-399 1001,-399"/>
<text text-anchor="start" x="1009" y="-417" font-family="Helvetica,sans-Serif" font-size="10.00" fill="#000000">chig::GraphFunction</text>
<text text-anchor="middle" x="1057.5" y="-406" font-family="Helvetica,sans-Serif" font-size="10.00" fill="#000000">::modifyExecInput</text>
</a>
</g>
</g>
<!-- Node74&#45;&gt;Node77 -->
<g id="edge21" class="edge">
<title>Node74&#45;&gt;Node77</title>
<path fill="none" stroke="#191970" d="M934.7042,-380.1014C953.1803,-385.2019 973.9768,-390.9429 993.1308,-396.2305"/>
<polygon fill="#191970" stroke="#191970" points="992.4056,-399.6611 1002.9764,-398.9484 994.2684,-392.9135 992.4056,-399.6611"/>
</g>
<!-- Node78&#45;&gt;Node61 -->
<g id="edge23" class="edge">
<title>Node78&#45;&gt;Node61</title>
<path fill="none" stroke="#191970" d="M706.0669,-390.9267C722.7431,-350.1562 770.0231,-239.0832 800,-214 804.2547,-210.4399 809.0164,-207.3857 814.0398,-204.7657"/>
<polygon fill="#191970" stroke="#191970" points="815.6877,-207.8603 823.3115,-200.5031 812.7636,-201.5002 815.6877,-207.8603"/>
</g>
<!-- Node78&#45;&gt;Node74 -->
<g id="edge24" class="edge">
<title>Node78&#45;&gt;Node74</title>
<path fill="none" stroke="#191970" d="M764.2218,-391.3717C780.1914,-387.7342 797.3436,-383.8273 813.4237,-380.1646"/>
<polygon fill="#191970" stroke="#191970" points="814.3041,-383.5538 823.2771,-377.9202 812.7495,-376.7286 814.3041,-383.5538"/>
</g>
<!-- Node79 -->
<g id="node21" class="node">
<title>Node79</title>
<g id="a_node21"><a xlink:href="structchig_1_1GraphFunction.html#a1e937f70e87b2d783211f31a6ddfb91c" target="_top" xlink:title="chig::GraphFunction\l::context">
<polygon fill="#ffffff" stroke="#000000" points="823.5,-438 823.5,-468 936.5,-468 936.5,-438 823.5,-438"/>
<text text-anchor="start" x="831.5" y="-456" font-family="Helvetica,sans-Serif" font-size="10.00" fill="#000000">chig::GraphFunction</text>
<text text-anchor="middle" x="880" y="-445" font-family="Helvetica,sans-Serif" font-size="10.00" fill="#000000">::context</text>
</a>
</g>
</g>
<!-- Node78&#45;&gt;Node79 -->
<g id="edge25" class="edge">
<title>Node78&#45;&gt;Node79</title>
<path fill="none" stroke="#191970" d="M757.448,-421.0003C775.3267,-425.6686 795.1861,-430.8541 813.6223,-435.668"/>
<polygon fill="#191970" stroke="#191970" points="812.845,-439.0824 823.4048,-438.2224 814.6135,-432.3094 812.845,-439.0824"/>
</g>
<!-- Node80 -->
<g id="node22" class="node">
<title>Node80</title>
<g id="a_node22"><a xlink:href="structchig_1_1Context.html#ab1cfbdb1646a75316dfa60f117576f37" target="_top" xlink:title="chig::Context::nodeTypeFrom\lModule">
<polygon fill="#ffffff" stroke="#000000" points="800,-536 800,-566 960,-566 960,-536 800,-536"/>
<text text-anchor="start" x="808" y="-554" font-family="Helvetica,sans-Serif" font-size="10.00" fill="#000000">chig::Context::nodeTypeFrom</text>
<text text-anchor="middle" x="880" y="-543" font-family="Helvetica,sans-Serif" font-size="10.00" fill="#000000">Module</text>
</a>
</g>
</g>
<!-- Node78&#45;&gt;Node80 -->
<g id="edge26" class="edge">
<title>Node78&#45;&gt;Node80</title>
<path fill="none" stroke="#191970" d="M715.4728,-421.0311C728.9122,-434.4072 748.5842,-454.7753 764,-474 781.814,-496.2154 777.0379,-510.1594 800,-527 801.9001,-528.3935 803.8813,-529.7069 805.9257,-530.9445"/>
<polygon fill="#191970" stroke="#191970" points="804.7661,-534.2922 815.2382,-535.9008 808.0549,-528.1129 804.7661,-534.2922"/>
</g>
<!-- Node80&#45;&gt;Node60 -->
<g id="edge27" class="edge">
<title>Node80&#45;&gt;Node60</title>
<path fill="none" stroke="#191970" d="M902.2759,-566.2249C930.33,-585.2185 977.1421,-616.2658 996,-625 1000.758,-627.2037 1005.8379,-629.2379 1010.9618,-631.0906"/>
<polygon fill="#191970" stroke="#191970" points="1010.2023,-634.5288 1020.7967,-634.4268 1012.4511,-627.8999 1010.2023,-634.5288"/>
</g>
<!-- Node81&#45;&gt;Node67 -->
<g id="edge30" class="edge">
<title>Node81&#45;&gt;Node67</title>
<path fill="none" stroke="#191970" d="M638.639,-495.4847C595.1983,-493.0036 535.7046,-488.1872 484,-479 473.2157,-477.0838 461.8597,-474.4994 450.9396,-471.7174"/>
<polygon fill="#191970" stroke="#191970" points="451.6236,-468.2784 441.0623,-469.1205 449.8436,-475.0483 451.6236,-468.2784"/>
</g>
<!-- Node81&#45;&gt;Node79 -->
<g id="edge35" class="edge">
<title>Node81&#45;&gt;Node79</title>
<path fill="none" stroke="#191970" d="M760.1876,-482.9531C777.1891,-478.7027 795.7906,-474.0524 813.1577,-469.7106"/>
<polygon fill="#191970" stroke="#191970" points="814.3666,-473.0161 823.2192,-467.1952 812.6688,-466.2251 814.3666,-473.0161"/>
</g>
<!-- Node81&#45;&gt;Node80 -->
<g id="edge36" class="edge">
<title>Node81&#45;&gt;Node80</title>
<path fill="none" stroke="#191970" d="M751.0993,-513.0459C772.2855,-519.284 797.0329,-526.5708 819.148,-533.0825"/>
<polygon fill="#191970" stroke="#191970" points="818.1915,-536.4493 828.7729,-535.9165 820.1687,-529.7344 818.1915,-536.4493"/>
</g>
<!-- Node82 -->
<g id="node24" class="node">
<title>Node82</title>
<g id="a_node24"><a xlink:href="structchig_1_1GraphFunction.html#ae155f716b072ef5f8e3ba064ae7ef8c0" target="_top" xlink:title="chig::GraphFunction\l::execOutputs">
<polygon fill="#ffffff" stroke="#000000" points="823.5,-487 823.5,-517 936.5,-517 936.5,-487 823.5,-487"/>
<text text-anchor="start" x="831.5" y="-505" font-family="Helvetica,sans-Serif" font-size="10.00" fill="#000000">chig::GraphFunction</text>
<text text-anchor="middle" x="880" y="-494" font-family="Helvetica,sans-Serif" font-size="10.00" fill="#000000">::execOutputs</text>
</a>
</g>
</g>
<!-- Node81&#45;&gt;Node82 -->
<g id="edge31" class="edge">
<title>Node81&#45;&gt;Node82</title>
<path fill="none" stroke="#191970" d="M761.191,-499.3598C777.818,-499.7293 795.9116,-500.1314 812.849,-500.5078"/>
<polygon fill="#191970" stroke="#191970" points="813.1467,-504.0151 823.2221,-500.7383 813.3023,-497.0169 813.1467,-504.0151"/>
</g>
<!-- Node83 -->
<g id="node25" class="node">
<title>Node83</title>
<g id="a_node25"><a xlink:href="structchig_1_1GraphFunction.html#abbe7b69cdd8a02210fd2d5a580f1f80a" target="_top" xlink:title="chig::GraphFunction\l::addExecOutput">
<polygon fill="#ffffff" stroke="#000000" points="1001,-487 1001,-517 1114,-517 1114,-487 1001,-487"/>
<text text-anchor="start" x="1009" y="-505" font-family="Helvetica,sans-Serif" font-size="10.00" fill="#000000">chig::GraphFunction</text>
<text text-anchor="middle" x="1057.5" y="-494" font-family="Helvetica,sans-Serif" font-size="10.00" fill="#000000">::addExecOutput</text>
</a>
</g>
</g>
<!-- Node82&#45;&gt;Node83 -->
<g id="edge32" class="edge">
<title>Node82&#45;&gt;Node83</title>
<path fill="none" stroke="#191970" d="M936.6501,-502C953.7823,-502 972.7589,-502 990.4997,-502"/>
<polygon fill="#191970" stroke="#191970" points="990.7793,-505.5001 1000.7792,-502 990.7792,-498.5001 990.7793,-505.5001"/>
</g>
<!-- Node84 -->
<g id="node26" class="node">
<title>Node84</title>
<g id="a_node26"><a xlink:href="structchig_1_1GraphFunction.html#a90a589106d823501ecb6450636a19e64" target="_top" xlink:title="chig::GraphFunction\l::removeExecOutput">
<polygon fill="#ffffff" stroke="#000000" points="999.5,-585 999.5,-615 1115.5,-615 1115.5,-585 999.5,-585"/>
<text text-anchor="start" x="1007.5" y="-603" font-family="Helvetica,sans-Serif" font-size="10.00" fill="#000000">chig::GraphFunction</text>
<text text-anchor="middle" x="1057.5" y="-592" font-family="Helvetica,sans-Serif" font-size="10.00" fill="#000000">::removeExecOutput</text>
</a>
</g>
</g>
<!-- Node82&#45;&gt;Node84 -->
<g id="edge33" class="edge">
<title>Node82&#45;&gt;Node84</title>
<path fill="none" stroke="#191970" d="M936.7978,-514.7661C944.997,-517.9945 953.0128,-522.0115 960,-527 981.9935,-542.7022 974.5627,-559.5466 996,-576 997.7729,-577.3608 999.6326,-578.6535 1001.5555,-579.8806"/>
<polygon fill="#191970" stroke="#191970" points="999.8932,-582.9615 1010.3187,-584.8485 1003.3455,-576.872 999.8932,-582.9615"/>
</g>
<!-- Node85 -->
<g id="node27" class="node">
<title>Node85</title>
<g id="a_node27"><a xlink:href="structchig_1_1GraphFunction.html#ae355b017f2859dabff4fa17791317d77" target="_top" xlink:title="chig::GraphFunction\l::modifyExecOutput">
<polygon fill="#ffffff" stroke="#000000" points="1001,-536 1001,-566 1114,-566 1114,-536 1001,-536"/>
<text text-anchor="start" x="1009" y="-554" font-family="Helvetica,sans-Serif" font-size="10.00" fill="#000000">chig::GraphFunction</text>
<text text-anchor="middle" x="1057.5" y="-543" font-family="Helvetica,sans-Serif" font-size="10.00" fill="#000000">::modifyExecOutput</text>
</a>
</g>
</g>
<!-- Node82&#45;&gt;Node85 -->
<g id="edge34" class="edge">
<title>Node82&#45;&gt;Node85</title>
<path fill="none" stroke="#191970" d="M934.7042,-517.1014C953.1803,-522.2019 973.9768,-527.9429 993.1308,-533.2305"/>
<polygon fill="#191970" stroke="#191970" points="992.4056,-536.6611 1002.9764,-535.9484 994.2684,-529.9135 992.4056,-536.6611"/>
</g>
<!-- Node86&#45;&gt;Node61 -->
<g id="edge39" class="edge">
<title>Node86&#45;&gt;Node61</title>
<path fill="none" stroke="#191970" d="M280.7827,-248.3737C401.6983,-236.3927 684.0941,-208.4114 813.3132,-195.6077"/>
<polygon fill="#191970" stroke="#191970" points="813.862,-199.0705 823.4681,-194.6015 813.1717,-192.1046 813.862,-199.0705"/>
</g>
<!-- Node86&#45;&gt;Node67 -->
<g id="edge40" class="edge">
<title>Node86&#45;&gt;Node67</title>
<path fill="none" stroke="#191970" d="M241.074,-269.2348C257.63,-284.7292 282.5868,-310.085 299,-336 321.6102,-371.6995 306.6472,-392.6664 335,-424 338.1018,-427.4279 341.6886,-430.5341 345.5207,-433.3328"/>
<polygon fill="#191970" stroke="#191970" points="343.9155,-436.4635 354.2088,-438.9735 347.7274,-430.5924 343.9155,-436.4635"/>
</g>
<!-- Node86&#45;&gt;Node79 -->
<g id="edge41" class="edge">
<title>Node86&#45;&gt;Node79</title>
<path fill="none" stroke="#191970" d="M280.6833,-268.0863C286.9498,-270.1683 293.1683,-272.4744 299,-275 387.2,-313.1979 395.9682,-348.416 484,-387 548.4136,-415.2322 566.882,-418.0047 636,-431 695.3176,-442.1527 763.8476,-447.701 813.15,-450.4313"/>
<polygon fill="#191970" stroke="#191970" points="813.1975,-453.9386 823.3686,-450.9721 813.5676,-446.9484 813.1975,-453.9386"/>
</g>
<!-- Node88&#45;&gt;Node66 -->
<g id="edge44" class="edge">
<title>Node88&#45;&gt;Node66</title>
<path fill="none" stroke="#191970" d="M448.0747,-42.8798C509.9451,-43.765 612.0251,-45 700,-45 700,-45 700,-45 880,-45 986.8979,-45 1024.2123,-22.5789 1119,-72 1156.0407,-91.3125 1185.3419,-131.2727 1201.4099,-157.0718"/>
<polygon fill="#191970" stroke="#191970" points="1198.5571,-159.1185 1206.7208,-165.8716 1204.5502,-155.5015 1198.5571,-159.1185"/>
</g>
</g>
</svg>
        <g id="navigator" transform="translate(0 0)" fill="#404254">
                <rect fill="#f2f5e9" fill-opacity="0.5" stroke="#606060" stroke-width=".5" x="0" y="0" width="60" height="60"/>
                <use id="zoomplus" xlink:href="#zoomPlus" x="17" y="9" onmousedown="handleZoom(evt,'in')"/>
                <use id="zoomminus" xlink:href="#zoomMin" x="42" y="9" onmousedown="handleZoom(evt,'out')"/>
                <use id="reset" xlink:href="#resetDef" x="30" y="36" onmousedown="handleReset()"/>
                <g id="arrowUp" xlink:href="#dirArrow" transform="translate(30 24)" onmousedown="handlePan(0,-1)">
                  <use xlink:href="#rim" fill="#404040">
                        <set attributeName="fill" to="#808080" begin="arrowUp.mouseover" end="arrowUp.mouseout"/>
                  </use>
                  <path fill="none" stroke="white" stroke-width="1.5" d="M0,-3.0v7 M-2.5,-0.5L0,-3.0L2.5,-0.5"/>
                </g>
                <g id="arrowRight" xlink:href="#dirArrow" transform="rotate(90) translate(36 -43)" onmousedown="handlePan(1,0)">
                  <use xlink:href="#rim" fill="#404040">
                        <set attributeName="fill" to="#808080" begin="arrowRight.mouseover" end="arrowRight.mouseout"/>
                  </use>
                  <path fill="none" stroke="white" stroke-width="1.5" d="M0,-3.0v7 M-2.5,-0.5L0,-3.0L2.5,-0.5"/>
                </g>
                <g id="arrowDown" xlink:href="#dirArrow" transform="rotate(180) translate(-30 -48)" onmousedown="handlePan(0,1)">
                  <use xlink:href="#rim" fill="#404040">
                        <set attributeName="fill" to="#808080" begin="arrowDown.mouseover" end="arrowDown.mouseout"/>
                  </use>
                  <path fill="none" stroke="white" stroke-width="1.5" d="M0,-3.0v7 M-2.5,-0.5L0,-3.0L2.5,-0.5"/>
                </g>
                <g id="arrowLeft" xlink:href="#dirArrow" transform="rotate(270) translate(-36 17)" onmousedown="handlePan(-1,0)">
                  <use xlink:href="#rim" fill="#404040">
                        <set attributeName="fill" to="#808080" begin="arrowLeft.mouseover" end="arrowLeft.mouseout"/>
                  </use>
                  <path fill="none" stroke="white" stroke-width="1.5" d="M0,-3.0v7 M-2.5,-0.5L0,-3.0L2.5,-0.5"/>
                </g>
        </g>
        <svg viewBox="0 0 15 15" width="100%" height="30px" preserveAspectRatio="xMaxYMin meet">
         <g id="arrow_out" transform="scale(0.3 0.3)">
          <a xlink:href="structchig_1_1GraphFunction_ac808aecb5fec9cd3a2a1f59e18c90eee_cgraph_org.svg" target="_base">
           <rect id="button" ry="5" rx="5" y="6" x="6" height="38" width="38"
                fill="#f2f5e9" fill-opacity="0.5" stroke="#606060" stroke-width="1.0"/>
           <path id="arrow"
             d="M 11.500037,31.436501 C 11.940474,20.09759 22.043105,11.32322 32.158766,21.979434 L 37.068811,17.246167 C 37.068811,17.246167 37.088388,32 37.088388,32 L 22.160133,31.978069 C 22.160133,31.978069 26.997745,27.140456 26.997745,27.140456 C 18.528582,18.264221 13.291696,25.230495 11.500037,31.436501 z"
             style="fill:#404040;"/>
          </a>
         </g>
        </svg>
</svg>
