<?xml version="1.0" encoding="UTF-8" standalone="no"?>
<!DOCTYPE svg PUBLIC "-//W3C//DTD SVG 1.1//EN"
 "http://www.w3.org/Graphics/SVG/1.1/DTD/svg11.dtd">
<!-- Generated by graphviz version 2.40.1 (20161225.0304)
 -->
<!-- Title: chi::GraphFunction::insertNode Pages: 1 -->
<!--zoomable 166 -->
<svg id="main" version="1.1" xmlns="http://www.w3.org/2000/svg" xmlns:xlink="http://www.w3.org/1999/xlink" xml:space="preserve" onload="init(evt)">
<style type="text/css"><![CDATA[
.edge:hover path { stroke: red; }
.edge:hover polygon { stroke: red; fill: red; }
]]></style>
<script type="text/javascript"><![CDATA[
var edges = document.getElementsByTagName('g');
if (edges && edges.length) {
  for (var i=0;i<edges.length;i++) {
    if (edges[i].id.substr(0,4)=='edge') {
      edges[i].setAttribute('class','edge');
    }
  }
}
]]></script>
        <defs>
                <circle id="rim" cx="0" cy="0" r="7"/>
                <circle id="rim2" cx="0" cy="0" r="3.5"/>
                <g id="zoomPlus">
                        <use xlink:href="#rim" fill="#404040">
                                <set attributeName="fill" to="#808080" begin="zoomplus.mouseover" end="zoomplus.mouseout"/>
                        </use>
                        <path d="M-4,0h8M0,-4v8" fill="none" stroke="white" stroke-width="1.5" pointer-events="none"/>
                </g>
                <g id="zoomMin">
                        <use xlink:href="#rim" fill="#404040">
                                <set attributeName="fill" to="#808080" begin="zoomminus.mouseover" end="zoomminus.mouseout"/>
                        </use>
                        <path d="M-4,0h8" fill="none" stroke="white" stroke-width="1.5" pointer-events="none"/>
                </g>
                <g id="dirArrow">
                        <path fill="none" stroke="white" stroke-width="1.5" d="M0,-3.0v7 M-2.5,-0.5L0,-3.0L2.5,-0.5"/>
                </g>
               <g id="resetDef">
                       <use xlink:href="#rim2" fill="#404040">
                               <set attributeName="fill" to="#808080" begin="reset.mouseover" end="reset.mouseout"/>
                       </use>
               </g>
        </defs>

<script type="text/javascript">
var viewWidth = 631;
var viewHeight = 166;
var sectionId = 'dynsection-32';
</script>
<script xlink:href="svgpan.js"/>
<svg id="graph" class="graph">
<g id="viewport">
<title>chi::GraphFunction::insertNode</title>
<polygon fill="#ffffff" stroke="transparent" points="-4,4 -4,-161.5 627,-161.5 627,4 -4,4"/>
<!-- Node402 -->
<g id="node1" class="node">
<title>Node402</title>
<polygon fill="#bfbfbf" stroke="#000000" points="0,-61 0,-91 99,-91 99,-61 0,-61"/>
<text text-anchor="start" x="8" y="-79" font-family="Helvetica,sans-Serif" font-size="10.00" fill="#000000">chi::GraphFunction</text>
<text text-anchor="middle" x="49.5" y="-68" font-family="Helvetica,sans-Serif" font-size="10.00" fill="#000000">::insertNode</text>
</g>
<!-- Node403 -->
<g id="node2" class="node">
<title>Node403</title>
<g id="a_node2"><a xlink:href="structchi_1_1GraphFunction.html#a0e722c9bae3101c4bb54ad9baae6f841" target="_top" xlink:title="Creates an entry node if it doesn&#39;t already exist, else just return it. ">
<polygon fill="#ffffff" stroke="#000000" points="140.5,-127 140.5,-157 257.5,-157 257.5,-127 140.5,-127"/>
<text text-anchor="start" x="148.5" y="-145" font-family="Helvetica,sans-Serif" font-size="10.00" fill="#000000">chi::GraphFunction</text>
<text text-anchor="middle" x="199" y="-134" font-family="Helvetica,sans-Serif" font-size="10.00" fill="#000000">::getOrInsertEntryNode</text>
</a>
</g>
</g>
<!-- Node402&#45;&gt;Node403 -->
<g id="edge1" class="edge">
<title>Node402&#45;&gt;Node403</title>
<path fill="none" stroke="#191970" d="M92.96,-95.1864C115.854,-105.2934 143.5265,-117.51 164.8613,-126.9287"/>
<polygon fill="#191970" stroke="#191970" points="94.3601,-91.9786 83.7983,-91.1417 91.533,-98.3823 94.3601,-91.9786"/>
</g>
<!-- Node404 -->
<g id="node3" class="node">
<title>Node404</title>
<g id="a_node3"><a xlink:href="structchi_1_1GraphFunction.html#a900c0b670ad04a76b6add803ade7ae0d" target="_top" xlink:title="chi::GraphFunction\l::nodes">
<polygon fill="#ffffff" stroke="#000000" points="310.5,-105 310.5,-135 409.5,-135 409.5,-105 310.5,-105"/>
<text text-anchor="start" x="318.5" y="-123" font-family="Helvetica,sans-Serif" font-size="10.00" fill="#000000">chi::GraphFunction</text>
<text text-anchor="middle" x="360" y="-112" font-family="Helvetica,sans-Serif" font-size="10.00" fill="#000000">::nodes</text>
</a>
</g>
</g>
<!-- Node402&#45;&gt;Node404 -->
<g id="edge7" class="edge">
<title>Node402&#45;&gt;Node404</title>
<path fill="none" stroke="#191970" d="M109.2377,-84.4652C167.6851,-92.7476 255.6703,-105.2158 310.3768,-112.968"/>
<polygon fill="#191970" stroke="#191970" points="109.4352,-80.9583 99.043,-83.0206 108.453,-87.8891 109.4352,-80.9583"/>
</g>
<!-- Node405 -->
<g id="node4" class="node">
<title>Node405</title>
<g id="a_node4"><a xlink:href="structchi_1_1GraphFunction.html#abcd2e1de52782e5a16aca65b9af328ca" target="_top" xlink:title="Add a node to the graph using module, type, and json. ">
<polygon fill="#ffffff" stroke="#000000" points="149.5,-39 149.5,-69 248.5,-69 248.5,-39 149.5,-39"/>
<text text-anchor="start" x="157.5" y="-57" font-family="Helvetica,sans-Serif" font-size="10.00" fill="#000000">chi::GraphFunction</text>
<text text-anchor="middle" x="199" y="-46" font-family="Helvetica,sans-Serif" font-size="10.00" fill="#000000">::insertNode</text>
</a>
</g>
</g>
<!-- Node402&#45;&gt;Node405 -->
<g id="edge3" class="edge">
<title>Node402&#45;&gt;Node405</title>
<path fill="none" stroke="#191970" d="M109.3035,-67.1995C122.6161,-65.2404 136.5881,-63.1844 149.436,-61.2937"/>
<polygon fill="#191970" stroke="#191970" points="108.6652,-63.7556 99.2813,-68.6743 109.6844,-70.6811 108.6652,-63.7556"/>
</g>
<!-- Node406 -->
<g id="node5" class="node">
<title>Node406</title>
<g id="a_node5"><a xlink:href="namespacechi.html#a6a3fedb48e6702c016f996d8a7f445fc" target="_top" xlink:title="Load a GraphFunction–must already exist (use createGraphFunctionDeclarationFromJson) ...">
<polygon fill="#ffffff" stroke="#000000" points="135,-.5 135,-19.5 263,-19.5 263,-.5 135,-.5"/>
<text text-anchor="middle" x="199" y="-7.5" font-family="Helvetica,sans-Serif" font-size="10.00" fill="#000000">chi::jsonToGraphFunction</text>
</a>
</g>
</g>
<!-- Node402&#45;&gt;Node406 -->
<g id="edge4" class="edge">
<title>Node402&#45;&gt;Node406</title>
<path fill="none" stroke="#191970" d="M82.2359,-55.8484C97.8265,-46.8176 116.9689,-36.5302 135,-29 143.5562,-25.4268 153.0147,-22.2313 161.9761,-19.5265"/>
<polygon fill="#191970" stroke="#191970" points="80.344,-52.9006 73.502,-60.9899 83.8952,-58.9329 80.344,-52.9006"/>
</g>
<!-- Node403&#45;&gt;Node404 -->
<g id="edge2" class="edge">
<title>Node403&#45;&gt;Node404</title>
<path fill="none" stroke="#191970" d="M267.8894,-132.5865C282.2055,-130.6303 297.0219,-128.6057 310.4762,-126.7672"/>
<polygon fill="#191970" stroke="#191970" points="267.0142,-129.1735 257.5801,-133.9953 267.9619,-136.1091 267.0142,-129.1735"/>
</g>
<!-- Node407 -->
<g id="node6" class="node">
<title>Node407</title>
<g id="a_node6"><a xlink:href="namespacechi.html#a4489e333fecc4168278e94f8b3f81e3c" target="_top" xlink:title="Load a GraphModule from json. ">
<polygon fill="#ffffff" stroke="#000000" points="299,-.5 299,-19.5 421,-19.5 421,-.5 299,-.5"/>
<text text-anchor="middle" x="360" y="-7.5" font-family="Helvetica,sans-Serif" font-size="10.00" fill="#000000">chi::jsonToGraphModule</text>
</a>
</g>
</g>
<!-- Node406&#45;&gt;Node407 -->
<g id="edge5" class="edge">
<title>Node406&#45;&gt;Node407</title>
<path fill="none" stroke="#191970" d="M273.1006,-10C281.683,-10 290.363,-10 298.7471,-10"/>
<polygon fill="#191970" stroke="#191970" points="273.0941,-6.5001 263.0941,-10 273.094,-13.5001 273.0941,-6.5001"/>
</g>
<!-- Node408 -->
<g id="node7" class="node">
<title>Node408</title>
<g id="a_node7"><a xlink:href="structchi_1_1Context.html#a2db103f3a2f77710dfa51489f63ec97f" target="_top" xlink:title="Load a module from JSON – avoid this use the string overload. ">
<polygon fill="#ffffff" stroke="#000000" points="457,-.5 457,-19.5 623,-19.5 623,-.5 457,-.5"/>
<text text-anchor="middle" x="540" y="-7.5" font-family="Helvetica,sans-Serif" font-size="10.00" fill="#000000">chi::Context::addModuleFromJson</text>
</a>
</g>
</g>
<!-- Node407&#45;&gt;Node408 -->
<g id="edge6" class="edge">
<title>Node407&#45;&gt;Node408</title>
<path fill="none" stroke="#191970" d="M431.3335,-10C439.7586,-10 448.412,-10 456.9806,-10"/>
<polygon fill="#191970" stroke="#191970" points="431.191,-6.5001 421.191,-10 431.1909,-13.5001 431.191,-6.5001"/>
</g>
</g>
</svg>
        <g id="navigator" transform="translate(0 0)" fill="#404254">
                <rect fill="#f2f5e9" fill-opacity="0.5" stroke="#606060" stroke-width=".5" x="0" y="0" width="60" height="60"/>
                <use id="zoomplus" xlink:href="#zoomPlus" x="17" y="9" onmousedown="handleZoom(evt,'in')"/>
                <use id="zoomminus" xlink:href="#zoomMin" x="42" y="9" onmousedown="handleZoom(evt,'out')"/>
                <use id="reset" xlink:href="#resetDef" x="30" y="36" onmousedown="handleReset()"/>
                <g id="arrowUp" xlink:href="#dirArrow" transform="translate(30 24)" onmousedown="handlePan(0,-1)">
                  <use xlink:href="#rim" fill="#404040">
                        <set attributeName="fill" to="#808080" begin="arrowUp.mouseover" end="arrowUp.mouseout"/>
                  </use>
                  <path fill="none" stroke="white" stroke-width="1.5" d="M0,-3.0v7 M-2.5,-0.5L0,-3.0L2.5,-0.5"/>
                </g>
                <g id="arrowRight" xlink:href="#dirArrow" transform="rotate(90) translate(36 -43)" onmousedown="handlePan(1,0)">
                  <use xlink:href="#rim" fill="#404040">
                        <set attributeName="fill" to="#808080" begin="arrowRight.mouseover" end="arrowRight.mouseout"/>
                  </use>
                  <path fill="none" stroke="white" stroke-width="1.5" d="M0,-3.0v7 M-2.5,-0.5L0,-3.0L2.5,-0.5"/>
                </g>
                <g id="arrowDown" xlink:href="#dirArrow" transform="rotate(180) translate(-30 -48)" onmousedown="handlePan(0,1)">
                  <use xlink:href="#rim" fill="#404040">
                        <set attributeName="fill" to="#808080" begin="arrowDown.mouseover" end="arrowDown.mouseout"/>
                  </use>
                  <path fill="none" stroke="white" stroke-width="1.5" d="M0,-3.0v7 M-2.5,-0.5L0,-3.0L2.5,-0.5"/>
                </g>
                <g id="arrowLeft" xlink:href="#dirArrow" transform="rotate(270) translate(-36 17)" onmousedown="handlePan(-1,0)">
                  <use xlink:href="#rim" fill="#404040">
                        <set attributeName="fill" to="#808080" begin="arrowLeft.mouseover" end="arrowLeft.mouseout"/>
                  </use>
                  <path fill="none" stroke="white" stroke-width="1.5" d="M0,-3.0v7 M-2.5,-0.5L0,-3.0L2.5,-0.5"/>
                </g>
        </g>
        <svg viewBox="0 0 15 15" width="100%" height="30px" preserveAspectRatio="xMaxYMin meet">
         <g id="arrow_out" transform="scale(0.3 0.3)">
          <a xlink:href="structchi_1_1GraphFunction_ac75470b92fcf30495c7daab64d999ed8_icgraph_org.svg" target="_base">
           <rect id="button" ry="5" rx="5" y="6" x="6" height="38" width="38"
                fill="#f2f5e9" fill-opacity="0.5" stroke="#606060" stroke-width="1.0"/>
           <path id="arrow"
             d="M 11.500037,31.436501 C 11.940474,20.09759 22.043105,11.32322 32.158766,21.979434 L 37.068811,17.246167 C 37.068811,17.246167 37.088388,32 37.088388,32 L 22.160133,31.978069 C 22.160133,31.978069 26.997745,27.140456 26.997745,27.140456 C 18.528582,18.264221 13.291696,25.230495 11.500037,31.436501 z"
             style="fill:#404040;"/>
          </a>
         </g>
        </svg>
</svg>
