<?xml version="1.0" encoding="UTF-8" standalone="no"?>
<!DOCTYPE svg PUBLIC "-//W3C//DTD SVG 1.1//EN"
 "http://www.w3.org/Graphics/SVG/1.1/DTD/svg11.dtd">
<!-- Generated by graphviz version 2.40.1 (20161225.0304)
 -->
<!-- Title: chi::GraphModule::functions Pages: 1 -->
<svg width="1121pt" height="284pt"
 viewBox="0.00 0.00 1121.00 284.00" xmlns="http://www.w3.org/2000/svg" xmlns:xlink="http://www.w3.org/1999/xlink">
<g id="graph0" class="graph" transform="scale(1 1) rotate(0) translate(4 280)">
<title>chi::GraphModule::functions</title>
<polygon fill="#ffffff" stroke="transparent" points="-4,4 -4,-280 1117,-280 1117,4 -4,4"/>
<!-- Node102 -->
<g id="node1" class="node">
<title>Node102</title>
<polygon fill="#bfbfbf" stroke="#000000" points="0,-202 0,-221 139,-221 139,-202 0,-202"/>
<text text-anchor="middle" x="69.5" y="-209" font-family="Helvetica,sans-Serif" font-size="10.00" fill="#000000">chi::GraphModule::functions</text>
</g>
<!-- Node103 -->
<g id="node2" class="node">
<title>Node103</title>
<g id="a_node2"><a xlink:href="structchi_1_1GraphModule.html#a63117b26fc55e86e740926994f54fe55" target="_top" xlink:title="Create a new struct in the module. ">
<polygon fill="#ffffff" stroke="#000000" points="175,-245.5 175,-275.5 327,-275.5 327,-245.5 175,-245.5"/>
<text text-anchor="start" x="183" y="-263.5" font-family="Helvetica,sans-Serif" font-size="10.00" fill="#000000">chi::GraphModule::getOrCreate</text>
<text text-anchor="middle" x="251" y="-252.5" font-family="Helvetica,sans-Serif" font-size="10.00" fill="#000000">Struct</text>
</a>
</g>
</g>
<!-- Node102&#45;&gt;Node103 -->
<g id="edge1" class="edge">
<title>Node102&#45;&gt;Node103</title>
<path fill="none" stroke="#191970" d="M104.9259,-221.064C127.8041,-227.2405 158.268,-235.4649 185.4543,-242.8045"/>
<polygon fill="#191970" stroke="#191970" points="184.7352,-246.2356 195.3019,-245.463 186.5598,-239.4775 184.7352,-246.2356"/>
</g>
<!-- Node104 -->
<g id="node3" class="node">
<title>Node104</title>
<g id="a_node3"><a xlink:href="structchi_1_1GraphModule.html#a779d5c125ca7b556b114bb448f83dc3b" target="_top" xlink:title="Remove a struct from the module by name. ">
<polygon fill="#ffffff" stroke="#000000" points="185.5,-196.5 185.5,-226.5 316.5,-226.5 316.5,-196.5 185.5,-196.5"/>
<text text-anchor="start" x="193.5" y="-214.5" font-family="Helvetica,sans-Serif" font-size="10.00" fill="#000000">chi::GraphModule::remove</text>
<text text-anchor="middle" x="251" y="-203.5" font-family="Helvetica,sans-Serif" font-size="10.00" fill="#000000">Struct</text>
</a>
</g>
</g>
<!-- Node102&#45;&gt;Node104 -->
<g id="edge2" class="edge">
<title>Node102&#45;&gt;Node104</title>
<path fill="none" stroke="#191970" d="M139.1536,-211.5C150.9061,-211.5 163.1584,-211.5 175.0613,-211.5"/>
<polygon fill="#191970" stroke="#191970" points="175.4102,-215.0001 185.4102,-211.5 175.4102,-208.0001 175.4102,-215.0001"/>
</g>
<!-- Node118 -->
<g id="node17" class="node">
<title>Node118</title>
<g id="a_node17"><a xlink:href="structchi_1_1GraphModule.html#aad5b2fd794606b66cec221408cf07af4" target="_top" xlink:title="Get a struct by name. ">
<polygon fill="#ffffff" stroke="#000000" points="189,-147.5 189,-177.5 313,-177.5 313,-147.5 189,-147.5"/>
<text text-anchor="start" x="197" y="-165.5" font-family="Helvetica,sans-Serif" font-size="10.00" fill="#000000">chi::GraphModule::struct</text>
<text text-anchor="middle" x="251" y="-154.5" font-family="Helvetica,sans-Serif" font-size="10.00" fill="#000000">FromName</text>
</a>
</g>
</g>
<!-- Node102&#45;&gt;Node118 -->
<g id="edge20" class="edge">
<title>Node102&#45;&gt;Node118</title>
<path fill="none" stroke="#191970" d="M104.9259,-201.936C127.8041,-195.7595 158.268,-187.5351 185.4543,-180.1955"/>
<polygon fill="#191970" stroke="#191970" points="186.5598,-183.5225 195.3019,-177.537 184.7352,-176.7644 186.5598,-183.5225"/>
</g>
<!-- Node105 -->
<g id="node4" class="node">
<title>Node105</title>
<g id="a_node4"><a xlink:href="structchi_1_1GraphFunction.html#a89069f6e08f71cfbafb245ea16c8d69f" target="_top" xlink:title="Get the name of the function. ">
<polygon fill="#ffffff" stroke="#000000" points="363,-171.5 363,-201.5 462,-201.5 462,-171.5 363,-171.5"/>
<text text-anchor="start" x="371" y="-189.5" font-family="Helvetica,sans-Serif" font-size="10.00" fill="#000000">chi::GraphFunction</text>
<text text-anchor="middle" x="412.5" y="-178.5" font-family="Helvetica,sans-Serif" font-size="10.00" fill="#000000">::name</text>
</a>
</g>
</g>
<!-- Node104&#45;&gt;Node105 -->
<g id="edge3" class="edge">
<title>Node104&#45;&gt;Node105</title>
<path fill="none" stroke="#191970" d="M316.6882,-201.3315C328.5758,-199.4914 340.9149,-197.5813 352.6251,-195.7686"/>
<polygon fill="#191970" stroke="#191970" points="353.38,-199.1935 362.7269,-194.2048 352.3091,-192.2759 353.38,-199.1935"/>
</g>
<!-- Node106 -->
<g id="node5" class="node">
<title>Node106</title>
<g id="a_node5"><a xlink:href="structchi_1_1GraphFunction.html#ad739c826ed87035857193995c23cabe2" target="_top" xlink:title="Get the qualified name of the function Same as module().fullName() + &quot;:&quot; + name();. ">
<polygon fill="#ffffff" stroke="#000000" points="498,-196.5 498,-226.5 597,-226.5 597,-196.5 498,-196.5"/>
<text text-anchor="start" x="506" y="-214.5" font-family="Helvetica,sans-Serif" font-size="10.00" fill="#000000">chi::GraphFunction</text>
<text text-anchor="middle" x="547.5" y="-203.5" font-family="Helvetica,sans-Serif" font-size="10.00" fill="#000000">::qualifiedName</text>
</a>
</g>
</g>
<!-- Node105&#45;&gt;Node106 -->
<g id="edge4" class="edge">
<title>Node105&#45;&gt;Node106</title>
<path fill="none" stroke="#191970" d="M462.0024,-189.1351C471.4971,-190.6583 481.5043,-192.4665 491.1948,-194.4063"/>
<polygon fill="#191970" stroke="#191970" points="490.6417,-197.866 501.144,-196.4689 492.0627,-191.0117 490.6417,-197.866"/>
</g>
<!-- Node109 -->
<g id="node8" class="node">
<title>Node109</title>
<g id="a_node8"><a xlink:href="structchi_1_1GraphFunction.html#a27c87614be4357e97c1ececd2228f865" target="_top" xlink:title="Set the name of the function. ">
<polygon fill="#ffffff" stroke="#000000" points="498,-147.5 498,-177.5 597,-177.5 597,-147.5 498,-147.5"/>
<text text-anchor="start" x="506" y="-165.5" font-family="Helvetica,sans-Serif" font-size="10.00" fill="#000000">chi::GraphFunction</text>
<text text-anchor="middle" x="547.5" y="-154.5" font-family="Helvetica,sans-Serif" font-size="10.00" fill="#000000">::setName</text>
</a>
</g>
</g>
<!-- Node105&#45;&gt;Node109 -->
<g id="edge8" class="edge">
<title>Node105&#45;&gt;Node109</title>
<path fill="none" stroke="#191970" d="M460.4761,-171.4784C469.2863,-169.6736 478.582,-167.9482 487.6887,-166.4222"/>
<polygon fill="#191970" stroke="#191970" points="488.5352,-169.8312 497.854,-164.7904 487.4256,-162.9197 488.5352,-169.8312"/>
</g>
<!-- Node106&#45;&gt;Node105 -->
<g id="edge7" class="edge">
<title>Node106&#45;&gt;Node105</title>
<path fill="none" stroke="#191970" d="M497.7283,-208.8217C488.3166,-207.308 478.41,-205.5162 468.8136,-203.5954"/>
<polygon fill="#191970" stroke="#191970" points="469.4615,-200.1554 458.9593,-201.5532 468.041,-207.0097 469.4615,-200.1554"/>
</g>
<!-- Node107 -->
<g id="node6" class="node">
<title>Node107</title>
<g id="a_node6"><a xlink:href="structchi_1_1GraphFunction.html#a0564412e260698bdb3872d3d12dfc3bc" target="_top" xlink:title="Get the GraphModule that contains this GraphFunction. ">
<polygon fill="#ffffff" stroke="#000000" points="653.5,-196.5 653.5,-226.5 752.5,-226.5 752.5,-196.5 653.5,-196.5"/>
<text text-anchor="start" x="661.5" y="-214.5" font-family="Helvetica,sans-Serif" font-size="10.00" fill="#000000">chi::GraphFunction</text>
<text text-anchor="middle" x="703" y="-203.5" font-family="Helvetica,sans-Serif" font-size="10.00" fill="#000000">::module</text>
</a>
</g>
</g>
<!-- Node106&#45;&gt;Node107 -->
<g id="edge5" class="edge">
<title>Node106&#45;&gt;Node107</title>
<path fill="none" stroke="#191970" d="M597.1287,-211.5C611.7166,-211.5 627.831,-211.5 642.9942,-211.5"/>
<polygon fill="#191970" stroke="#191970" points="643.3095,-215.0001 653.3094,-211.5 643.3094,-208.0001 643.3095,-215.0001"/>
</g>
<!-- Node108 -->
<g id="node7" class="node">
<title>Node108</title>
<g id="a_node7"><a xlink:href="structchi_1_1ChiModule.html#a92ab6d528ac41a91b6ac21ededfccc38" target="_top" xlink:title="Get the full name of the module. ">
<polygon fill="#ffffff" stroke="#000000" points="819.5,-232 819.5,-251 944.5,-251 944.5,-232 819.5,-232"/>
<text text-anchor="middle" x="882" y="-239" font-family="Helvetica,sans-Serif" font-size="10.00" fill="#000000">chi::ChiModule::fullName</text>
</a>
</g>
</g>
<!-- Node106&#45;&gt;Node108 -->
<g id="edge6" class="edge">
<title>Node106&#45;&gt;Node108</title>
<path fill="none" stroke="#191970" d="M593.1891,-226.5925C605.9361,-230.1795 619.8877,-233.5333 633,-235.5 691.9105,-244.3357 759.5232,-245.3995 809.4134,-244.4972"/>
<polygon fill="#191970" stroke="#191970" points="809.54,-247.9954 819.4637,-244.2847 809.3919,-240.997 809.54,-247.9954"/>
</g>
<!-- Node109&#45;&gt;Node105 -->
<g id="edge13" class="edge">
<title>Node109&#45;&gt;Node105</title>
<path fill="none" stroke="#191970" d="M499.3545,-177.5563C490.5445,-179.3587 481.2541,-181.0811 472.1563,-182.6038"/>
<polygon fill="#191970" stroke="#191970" points="471.3223,-179.1927 462.0024,-184.2316 472.4304,-186.1044 471.3223,-179.1927"/>
</g>
<!-- Node109&#45;&gt;Node107 -->
<g id="edge12" class="edge">
<title>Node109&#45;&gt;Node107</title>
<path fill="none" stroke="#191970" d="M595.424,-177.6014C611.3131,-182.6083 629.1611,-188.2324 645.6839,-193.439"/>
<polygon fill="#191970" stroke="#191970" points="644.6447,-196.7811 655.2343,-196.4484 646.7485,-190.1047 644.6447,-196.7811"/>
</g>
<!-- Node110 -->
<g id="node9" class="node">
<title>Node110</title>
<g id="a_node9"><a xlink:href="structchi_1_1GraphFunction.html#aca401237496ae311e43c7a43519e4720" target="_top" xlink:title="Get the context. ">
<polygon fill="#ffffff" stroke="#000000" points="653.5,-49.5 653.5,-79.5 752.5,-79.5 752.5,-49.5 653.5,-49.5"/>
<text text-anchor="start" x="661.5" y="-67.5" font-family="Helvetica,sans-Serif" font-size="10.00" fill="#000000">chi::GraphFunction</text>
<text text-anchor="middle" x="703" y="-56.5" font-family="Helvetica,sans-Serif" font-size="10.00" fill="#000000">::context</text>
</a>
</g>
</g>
<!-- Node109&#45;&gt;Node110 -->
<g id="edge9" class="edge">
<title>Node109&#45;&gt;Node110</title>
<path fill="none" stroke="#191970" d="M561.5857,-147.2171C577.5183,-130.7206 604.9199,-104.647 633,-88.5 636.4717,-86.5037 640.1357,-84.6377 643.8939,-82.8999"/>
<polygon fill="#191970" stroke="#191970" points="645.5571,-85.9952 653.3735,-78.8429 642.8029,-79.5598 645.5571,-85.9952"/>
</g>
<!-- Node111 -->
<g id="node10" class="node">
<title>Node111</title>
<g id="a_node10"><a xlink:href="structchi_1_1Context.html#a9ded1e6de886af9e1fb7d42188bba4b3" target="_top" xlink:title="Find all uses of a node type in all the loaded modules. ">
<polygon fill="#ffffff" stroke="#000000" points="636,-.5 636,-30.5 770,-30.5 770,-.5 636,-.5"/>
<text text-anchor="start" x="644" y="-18.5" font-family="Helvetica,sans-Serif" font-size="10.00" fill="#000000">chi::Context::findInstances</text>
<text text-anchor="middle" x="703" y="-7.5" font-family="Helvetica,sans-Serif" font-size="10.00" fill="#000000">OfType</text>
</a>
</g>
</g>
<!-- Node109&#45;&gt;Node111 -->
<g id="edge10" class="edge">
<title>Node109&#45;&gt;Node111</title>
<path fill="none" stroke="#191970" d="M554.1344,-147.3119C566.162,-121.4881 593.984,-68.9651 633,-39.5 634.8326,-38.116 636.7505,-36.8083 638.7329,-35.573"/>
<polygon fill="#191970" stroke="#191970" points="640.6931,-38.4896 647.7734,-30.608 637.3235,-32.354 640.6931,-38.4896"/>
</g>
<!-- Node113 -->
<g id="node12" class="node">
<title>Node113</title>
<g id="a_node12"><a xlink:href="structchi_1_1Context.html#a28706d36f049088c98cd726921512668" target="_top" xlink:title="Gets a NodeType from the JSON and name. ">
<polygon fill="#ffffff" stroke="#000000" points="633,-147.5 633,-177.5 773,-177.5 773,-147.5 633,-147.5"/>
<text text-anchor="start" x="641" y="-165.5" font-family="Helvetica,sans-Serif" font-size="10.00" fill="#000000">chi::Context::nodeTypeFrom</text>
<text text-anchor="middle" x="703" y="-154.5" font-family="Helvetica,sans-Serif" font-size="10.00" fill="#000000">Module</text>
</a>
</g>
</g>
<!-- Node109&#45;&gt;Node113 -->
<g id="edge14" class="edge">
<title>Node109&#45;&gt;Node113</title>
<path fill="none" stroke="#191970" d="M597.1287,-162.5C605.306,-162.5 613.9628,-162.5 622.6629,-162.5"/>
<polygon fill="#191970" stroke="#191970" points="622.8699,-166.0001 632.8698,-162.5 622.8698,-159.0001 622.8699,-166.0001"/>
</g>
<!-- Node117 -->
<g id="node16" class="node">
<title>Node117</title>
<g id="a_node16"><a xlink:href="structchi_1_1ChiModule.html#af3cdb7e3d333fedc74ad862dcc5bca9f" target="_top" xlink:title="Update the last edit time, signifying that it&#39;s been edited. ">
<polygon fill="#ffffff" stroke="#000000" points="635.5,-98.5 635.5,-128.5 770.5,-128.5 770.5,-98.5 635.5,-98.5"/>
<text text-anchor="start" x="643.5" y="-116.5" font-family="Helvetica,sans-Serif" font-size="10.00" fill="#000000">chi::ChiModule::updateLast</text>
<text text-anchor="middle" x="703" y="-105.5" font-family="Helvetica,sans-Serif" font-size="10.00" fill="#000000">EditTime</text>
</a>
</g>
</g>
<!-- Node109&#45;&gt;Node117 -->
<g id="edge19" class="edge">
<title>Node109&#45;&gt;Node117</title>
<path fill="none" stroke="#191970" d="M595.424,-147.3986C611.3131,-142.3917 629.1611,-136.7676 645.6839,-131.561"/>
<polygon fill="#191970" stroke="#191970" points="646.7485,-134.8953 655.2343,-128.5516 644.6447,-128.2189 646.7485,-134.8953"/>
</g>
<!-- Node112 -->
<g id="node11" class="node">
<title>Node112</title>
<g id="a_node11"><a xlink:href="namespacechi.html#a6f41c84de5ee1febedce5a5385f9c632" target="_top" xlink:title="Get the workspace directory from a child of the workspace directory Example: say you have a workspace...">
<polygon fill="#ffffff" stroke="#000000" points="809,-6 809,-25 955,-25 955,-6 809,-6"/>
<text text-anchor="middle" x="882" y="-13" font-family="Helvetica,sans-Serif" font-size="10.00" fill="#000000">chi::workspaceFromChildPath</text>
</a>
</g>
</g>
<!-- Node111&#45;&gt;Node112 -->
<g id="edge11" class="edge">
<title>Node111&#45;&gt;Node112</title>
<path fill="none" stroke="#191970" d="M770.1623,-15.5C779.4145,-15.5 789.007,-15.5 798.5087,-15.5"/>
<polygon fill="#191970" stroke="#191970" points="798.7632,-19.0001 808.7632,-15.5 798.7631,-12.0001 798.7632,-19.0001"/>
</g>
<!-- Node113&#45;&gt;Node108 -->
<g id="edge18" class="edge">
<title>Node113&#45;&gt;Node108</title>
<path fill="none" stroke="#191970" d="M750.0253,-177.6299C757.7692,-180.4044 765.6598,-183.407 773,-186.5 802.0956,-198.7604 834.2354,-215.3741 856.0261,-227.1241"/>
<polygon fill="#191970" stroke="#191970" points="854.5195,-230.2889 864.9767,-231.9911 857.8635,-224.1392 854.5195,-230.2889"/>
</g>
<!-- Node114 -->
<g id="node13" class="node">
<title>Node114</title>
<g id="a_node13"><a xlink:href="structchi_1_1Result.html#a59ef40f4a327cbdea263d6e4b5af2ad8" target="_top" xlink:title="Add a entry to the result, either a warning or an error. ">
<polygon fill="#ffffff" stroke="#000000" points="828,-167 828,-186 936,-186 936,-167 828,-167"/>
<text text-anchor="middle" x="882" y="-174" font-family="Helvetica,sans-Serif" font-size="10.00" fill="#000000">chi::Result::addEntry</text>
</a>
</g>
</g>
<!-- Node113&#45;&gt;Node114 -->
<g id="edge15" class="edge">
<title>Node113&#45;&gt;Node114</title>
<path fill="none" stroke="#191970" d="M773.2318,-167.993C787.8126,-169.1334 803.1097,-170.3298 817.4738,-171.4533"/>
<polygon fill="#191970" stroke="#191970" points="817.5022,-174.9661 827.7447,-172.2566 818.0481,-167.9874 817.5022,-174.9661"/>
</g>
<!-- Node116 -->
<g id="node15" class="node">
<title>Node116</title>
<g id="a_node15"><a xlink:href="structchi_1_1Context.html#a5fe3b2cbd2805912a9a894494a5c5a13" target="_top" xlink:title="Compile a module to a llvm::Module. ">
<polygon fill="#ffffff" stroke="#000000" points="812,-129 812,-148 952,-148 952,-129 812,-129"/>
<text text-anchor="middle" x="882" y="-136" font-family="Helvetica,sans-Serif" font-size="10.00" fill="#000000">chi::Context::compileModule</text>
</a>
</g>
</g>
<!-- Node113&#45;&gt;Node116 -->
<g id="edge17" class="edge">
<title>Node113&#45;&gt;Node116</title>
<path fill="none" stroke="#191970" d="M773.2318,-153.0834C782.682,-151.8164 792.433,-150.509 802.0359,-149.2214"/>
<polygon fill="#191970" stroke="#191970" points="802.5246,-152.6873 811.9707,-147.8894 801.5943,-145.7494 802.5246,-152.6873"/>
</g>
<!-- Node115 -->
<g id="node14" class="node">
<title>Node115</title>
<g id="a_node14"><a xlink:href="structchi_1_1Result.html#aa078d3cb3dfb2fb63e81b71acea036e0" target="_top" xlink:title="Get the JSON associated with the context that&#39;s been added. ">
<polygon fill="#ffffff" stroke="#000000" points="991,-167 991,-186 1113,-186 1113,-167 991,-167"/>
<text text-anchor="middle" x="1052" y="-174" font-family="Helvetica,sans-Serif" font-size="10.00" fill="#000000">chi::Result::contextJson</text>
</a>
</g>
</g>
<!-- Node114&#45;&gt;Node115 -->
<g id="edge16" class="edge">
<title>Node114&#45;&gt;Node115</title>
<path fill="none" stroke="#191970" d="M936.2565,-176.5C950.3888,-176.5 965.8315,-176.5 980.6999,-176.5"/>
<polygon fill="#191970" stroke="#191970" points="980.8785,-180.0001 990.8785,-176.5 980.8784,-173.0001 980.8785,-180.0001"/>
</g>
<!-- Node118&#45;&gt;Node105 -->
<g id="edge21" class="edge">
<title>Node118&#45;&gt;Node105</title>
<path fill="none" stroke="#191970" d="M313.4401,-171.779C326.3973,-173.7045 340.0184,-175.7287 352.8715,-177.6388"/>
<polygon fill="#191970" stroke="#191970" points="352.5817,-181.1341 362.9875,-179.1421 353.6107,-174.2101 352.5817,-181.1341"/>
</g>
</g>
</svg>
