<?xml version="1.0" encoding="UTF-8" standalone="no"?>
<!DOCTYPE svg PUBLIC "-//W3C//DTD SVG 1.1//EN"
 "http://www.w3.org/Graphics/SVG/1.1/DTD/svg11.dtd">
<!-- Generated by graphviz version 2.40.1 (20161225.0304)
 -->
<!-- Title: chi::GraphModule::createNodeTypeFromCCode Pages: 1 -->
<svg width="1364pt" height="700pt"
 viewBox="0.00 0.00 1364.00 700.00" xmlns="http://www.w3.org/2000/svg" xmlns:xlink="http://www.w3.org/1999/xlink">
<g id="graph0" class="graph" transform="scale(1 1) rotate(0) translate(4 696)">
<title>chi::GraphModule::createNodeTypeFromCCode</title>
<polygon fill="#ffffff" stroke="transparent" points="-4,4 -4,-696 1360,-696 1360,4 -4,4"/>
<!-- Node243 -->
<g id="node1" class="node">
<title>Node243</title>
<polygon fill="#bfbfbf" stroke="#000000" points="0,-178 0,-208 126,-208 126,-178 0,-178"/>
<text text-anchor="start" x="8" y="-196" font-family="Helvetica,sans-Serif" font-size="10.00" fill="#000000">chi::GraphModule::create</text>
<text text-anchor="middle" x="63" y="-185" font-family="Helvetica,sans-Serif" font-size="10.00" fill="#000000">NodeTypeFromCCode</text>
</g>
<!-- Node244 -->
<g id="node2" class="node">
<title>Node244</title>
<g id="a_node2"><a xlink:href="structchi_1_1Result.html#a59ef40f4a327cbdea263d6e4b5af2ad8" target="_top" xlink:title="Add a entry to the result, either a warning or an error. ">
<polygon fill="#ffffff" stroke="#000000" points="1090,-382.5 1090,-401.5 1198,-401.5 1198,-382.5 1090,-382.5"/>
<text text-anchor="middle" x="1144" y="-389.5" font-family="Helvetica,sans-Serif" font-size="10.00" fill="#000000">chi::Result::addEntry</text>
</a>
</g>
</g>
<!-- Node243&#45;&gt;Node244 -->
<g id="edge1" class="edge">
<title>Node243&#45;&gt;Node244</title>
<path fill="none" stroke="#191970" d="M66.0174,-208.2065C83.5725,-291.8348 180.4057,-692 426,-692 426,-692 426,-692 800.5,-692 972.2329,-692 1099.5403,-476.6493 1134.4254,-410.8604"/>
<polygon fill="#191970" stroke="#191970" points="1137.7113,-412.1281 1139.2234,-401.6418 1131.5019,-408.8964 1137.7113,-412.1281"/>
</g>
<!-- Node246 -->
<g id="node4" class="node">
<title>Node246</title>
<g id="a_node4"><a xlink:href="namespacechi.html#af2fbd3aba94ecac3f7b70548da25f4ee" target="_top" xlink:title="Use chi&#45;ctollvm to compile C source code to a llvm module It also uses stdCIncludePaths to find basic...">
<polygon fill="#ffffff" stroke="#000000" points="179.5,-398.5 179.5,-417.5 292.5,-417.5 292.5,-398.5 179.5,-398.5"/>
<text text-anchor="middle" x="236" y="-405.5" font-family="Helvetica,sans-Serif" font-size="10.00" fill="#000000">chi::compileCToLLVM</text>
</a>
</g>
</g>
<!-- Node243&#45;&gt;Node246 -->
<g id="edge3" class="edge">
<title>Node243&#45;&gt;Node246</title>
<path fill="none" stroke="#191970" d="M75.165,-208.1184C106.3278,-246.8467 188.8929,-349.4565 221.9881,-390.5864"/>
<polygon fill="#191970" stroke="#191970" points="219.2672,-392.788 228.2631,-398.3848 224.7209,-388.3996 219.2672,-392.788"/>
</g>
<!-- Node261 -->
<g id="node19" class="node">
<title>Node261</title>
<g id="a_node19"><a xlink:href="structchi_1_1ChiModule.html#a5c28c9fe74ad3cb704b613843b267512" target="_top" xlink:title="Get the Context that this module belongs to. ">
<polygon fill="#ffffff" stroke="#000000" points="559.5,-96.5 559.5,-115.5 678.5,-115.5 678.5,-96.5 559.5,-96.5"/>
<text text-anchor="middle" x="619" y="-103.5" font-family="Helvetica,sans-Serif" font-size="10.00" fill="#000000">chi::ChiModule::context</text>
</a>
</g>
</g>
<!-- Node243&#45;&gt;Node261 -->
<g id="edge27" class="edge">
<title>Node243&#45;&gt;Node261</title>
<path fill="none" stroke="#191970" d="M126.1018,-196.3154C176.1047,-198.1439 247.6791,-198.9856 310,-193 398.3267,-184.5167 421.2386,-181.2503 506,-155 535.8921,-145.7425 568.5355,-131.0565 591.0162,-120.1737"/>
<polygon fill="#191970" stroke="#191970" points="592.8529,-123.1711 600.2869,-115.6221 589.7679,-116.8876 592.8529,-123.1711"/>
</g>
<!-- Node264 -->
<g id="node22" class="node">
<title>Node264</title>
<g id="a_node22"><a xlink:href="structchi_1_1GraphModule.html#a10cfac308c6e0f1fa38be5513b2380cc" target="_top" xlink:title="Get the path to the .c directory. It is not garunteed to exist, even if cEnabled() is true...">
<polygon fill="#ffffff" stroke="#000000" points="171.5,-39 171.5,-69 300.5,-69 300.5,-39 171.5,-39"/>
<text text-anchor="start" x="179.5" y="-57" font-family="Helvetica,sans-Serif" font-size="10.00" fill="#000000">chi::GraphModule::pathTo</text>
<text text-anchor="middle" x="236" y="-46" font-family="Helvetica,sans-Serif" font-size="10.00" fill="#000000">CSources</text>
</a>
</g>
</g>
<!-- Node243&#45;&gt;Node264 -->
<g id="edge30" class="edge">
<title>Node243&#45;&gt;Node264</title>
<path fill="none" stroke="#191970" d="M81.8434,-177.86C112.6516,-153.1065 173.902,-103.8938 209.2158,-75.5202"/>
<polygon fill="#191970" stroke="#191970" points="211.5766,-78.1133 217.1799,-69.1214 207.1922,-72.6564 211.5766,-78.1133"/>
</g>
<!-- Node269 -->
<g id="node27" class="node">
<title>Node269</title>
<g id="a_node27"><a xlink:href="namespacechi.html#a29ff9f3364b9ad0f25a990b8373971b4" target="_top" xlink:title="Turns a type into a string. ">
<polygon fill="#ffffff" stroke="#000000" points="177.5,-126.5 177.5,-145.5 294.5,-145.5 294.5,-126.5 177.5,-126.5"/>
<text text-anchor="middle" x="236" y="-133.5" font-family="Helvetica,sans-Serif" font-size="10.00" fill="#000000">chi::stringifyLLVMType</text>
</a>
</g>
</g>
<!-- Node243&#45;&gt;Node269 -->
<g id="edge36" class="edge">
<title>Node243&#45;&gt;Node269</title>
<path fill="none" stroke="#191970" d="M99.315,-177.9078C117.8852,-170.4859 140.9536,-161.7165 162,-155 169.552,-152.5899 177.6111,-150.2696 185.5289,-148.1285"/>
<polygon fill="#191970" stroke="#191970" points="186.6554,-151.4512 195.4337,-145.519 184.872,-144.6822 186.6554,-151.4512"/>
</g>
<!-- Node270 -->
<g id="node28" class="node">
<title>Node270</title>
<g id="a_node28"><a xlink:href="structchi_1_1Context.html#a9e0b185a1871ebfda5d7bd410bf085f2" target="_top" xlink:title="Gets a DataType from a module. ">
<polygon fill="#ffffff" stroke="#000000" points="162,-164.5 162,-183.5 310,-183.5 310,-164.5 162,-164.5"/>
<text text-anchor="middle" x="236" y="-171.5" font-family="Helvetica,sans-Serif" font-size="10.00" fill="#000000">chi::Context::typeFromModule</text>
</a>
</g>
</g>
<!-- Node243&#45;&gt;Node270 -->
<g id="edge37" class="edge">
<title>Node243&#45;&gt;Node270</title>
<path fill="none" stroke="#191970" d="M126.4365,-186.033C134.6846,-185.1271 143.2345,-184.1881 151.7552,-183.2523"/>
<polygon fill="#191970" stroke="#191970" points="152.1665,-186.7283 161.7246,-182.1574 151.4022,-179.7701 152.1665,-186.7283"/>
</g>
<!-- Node245 -->
<g id="node3" class="node">
<title>Node245</title>
<g id="a_node3"><a xlink:href="structchi_1_1Result.html#aa078d3cb3dfb2fb63e81b71acea036e0" target="_top" xlink:title="Get the JSON associated with the context that&#39;s been added. ">
<polygon fill="#ffffff" stroke="#000000" points="1234,-527.5 1234,-546.5 1356,-546.5 1356,-527.5 1234,-527.5"/>
<text text-anchor="middle" x="1295" y="-534.5" font-family="Helvetica,sans-Serif" font-size="10.00" fill="#000000">chi::Result::contextJson</text>
</a>
</g>
</g>
<!-- Node244&#45;&gt;Node245 -->
<g id="edge2" class="edge">
<title>Node244&#45;&gt;Node245</title>
<path fill="none" stroke="#191970" d="M1153.9075,-401.5139C1179.0698,-425.6763 1245.6958,-489.6549 1277.5539,-520.2472"/>
<polygon fill="#191970" stroke="#191970" points="1275.2208,-522.8592 1284.858,-527.261 1280.0693,-517.8101 1275.2208,-522.8592"/>
</g>
<!-- Node246&#45;&gt;Node244 -->
<g id="edge4" class="edge">
<title>Node246&#45;&gt;Node244</title>
<path fill="none" stroke="#191970" d="M239.9317,-398.4717C251.5126,-371.8054 288.3448,-296.3924 346,-266 453.5177,-209.323 497.4585,-250 619,-250 619,-250 619,-250 800.5,-250 915.5126,-250 952.7303,-247.4808 1054,-302 1086.8803,-319.7013 1115.5693,-353.2514 1131.2724,-374.0122"/>
<polygon fill="#191970" stroke="#191970" points="1128.619,-376.3119 1137.3621,-382.2959 1134.259,-372.1657 1128.619,-376.3119"/>
</g>
<!-- Node247 -->
<g id="node5" class="node">
<title>Node247</title>
<g id="a_node5"><a xlink:href="structchi_1_1Result.html#a5cd21feaa68ac0d813b3eec7d3ea34c6" target="_top" xlink:title="Add a context with a scope Example usage: chi::Result res; res.contextJson(); // returns {} { &#160;&#160;&#160;&#160;aut...">
<polygon fill="#ffffff" stroke="#000000" points="350,-606.5 350,-625.5 502,-625.5 502,-606.5 350,-606.5"/>
<text text-anchor="middle" x="426" y="-613.5" font-family="Helvetica,sans-Serif" font-size="10.00" fill="#000000">chi::Result::addScopedContext</text>
</a>
</g>
</g>
<!-- Node246&#45;&gt;Node247 -->
<g id="edge5" class="edge">
<title>Node246&#45;&gt;Node247</title>
<path fill="none" stroke="#191970" d="M238.9743,-417.7069C248.8395,-448.2572 283.4581,-543.2886 346,-592 351.4572,-596.2504 357.6584,-599.7501 364.1369,-602.6313"/>
<polygon fill="#191970" stroke="#191970" points="363.1856,-606.0182 373.7727,-606.4254 365.7503,-599.505 363.1856,-606.0182"/>
</g>
<!-- Node250 -->
<g id="node8" class="node">
<title>Node250</title>
<g id="a_node8"><a xlink:href="structchi_1_1Subprocess.html#a3f07d6a6acf5e139c5161210ae0726cb" target="_top" xlink:title="Attach a string to stderr. ">
<polygon fill="#ffffff" stroke="#000000" points="353,-481 353,-511 499,-511 499,-481 353,-481"/>
<text text-anchor="start" x="361" y="-499" font-family="Helvetica,sans-Serif" font-size="10.00" fill="#000000">chi::Subprocess::attachString</text>
<text text-anchor="middle" x="426" y="-488" font-family="Helvetica,sans-Serif" font-size="10.00" fill="#000000">ToStdErr</text>
</a>
</g>
</g>
<!-- Node246&#45;&gt;Node250 -->
<g id="edge9" class="edge">
<title>Node246&#45;&gt;Node250</title>
<path fill="none" stroke="#191970" d="M250.4134,-417.6179C270.9409,-430.9938 310.0967,-455.3311 346,-471 351.2971,-473.3118 356.8763,-475.508 362.5224,-477.5689"/>
<polygon fill="#191970" stroke="#191970" points="361.455,-480.9034 372.0498,-480.9059 363.769,-474.2969 361.455,-480.9034"/>
</g>
<!-- Node253 -->
<g id="node11" class="node">
<title>Node253</title>
<g id="a_node11"><a xlink:href="structchi_1_1Subprocess.html#a62114d525126e682028af5a906f771a6" target="_top" xlink:title="Pushes data to the stdin stream of the child process. ">
<polygon fill="#ffffff" stroke="#000000" points="905,-434.5 905,-453.5 1054,-453.5 1054,-434.5 905,-434.5"/>
<text text-anchor="middle" x="979.5" y="-441.5" font-family="Helvetica,sans-Serif" font-size="10.00" fill="#000000">chi::Subprocess::pushToStdIn</text>
</a>
</g>
</g>
<!-- Node246&#45;&gt;Node253 -->
<g id="edge21" class="edge">
<title>Node246&#45;&gt;Node253</title>
<path fill="none" stroke="#191970" d="M240.1608,-417.6123C252.0831,-443.7591 289.2007,-516.0137 346,-543 416.3904,-576.4436 619.4747,-535.7365 696,-521 784.6368,-503.9312 886.2175,-473.6605 940.48,-456.6002"/>
<polygon fill="#191970" stroke="#191970" points="941.5683,-459.9269 950.0476,-453.5745 939.4576,-453.2527 941.5683,-459.9269"/>
</g>
<!-- Node254 -->
<g id="node12" class="node">
<title>Node254</title>
<g id="a_node12"><a xlink:href="structchi_1_1Subprocess.html#a45fd483d620609100cdd6065ce4751f2" target="_top" xlink:title="Close the STDIN stream (send an EOF) ">
<polygon fill="#ffffff" stroke="#000000" points="909.5,-382.5 909.5,-401.5 1049.5,-401.5 1049.5,-382.5 909.5,-382.5"/>
<text text-anchor="middle" x="979.5" y="-389.5" font-family="Helvetica,sans-Serif" font-size="10.00" fill="#000000">chi::Subprocess::closeStdIn</text>
</a>
</g>
</g>
<!-- Node246&#45;&gt;Node254 -->
<g id="edge19" class="edge">
<title>Node246&#45;&gt;Node254</title>
<path fill="none" stroke="#191970" d="M270.8575,-398.3852C292.3342,-392.9652 320.5417,-386.745 346,-384 543.9102,-362.6608 778.5972,-375.4905 899.1564,-384.8431"/>
<polygon fill="#191970" stroke="#191970" points="899.1589,-388.3541 909.4031,-385.6511 899.7092,-381.3758 899.1589,-388.3541"/>
</g>
<!-- Node255 -->
<g id="node13" class="node">
<title>Node255</title>
<g id="a_node13"><a xlink:href="structchi_1_1Subprocess.html#a1b08709bbb208a970888ebcccc58906c" target="_top" xlink:title="Attach a string to stdout. ">
<polygon fill="#ffffff" stroke="#000000" points="353,-393 353,-423 499,-423 499,-393 353,-393"/>
<text text-anchor="start" x="361" y="-411" font-family="Helvetica,sans-Serif" font-size="10.00" fill="#000000">chi::Subprocess::attachString</text>
<text text-anchor="middle" x="426" y="-400" font-family="Helvetica,sans-Serif" font-size="10.00" fill="#000000">ToStdOut</text>
</a>
</g>
</g>
<!-- Node246&#45;&gt;Node255 -->
<g id="edge16" class="edge">
<title>Node246&#45;&gt;Node255</title>
<path fill="none" stroke="#191970" d="M292.7489,-408C308.4148,-408 325.7467,-408 342.5857,-408"/>
<polygon fill="#191970" stroke="#191970" points="342.9874,-411.5001 352.9874,-408 342.9873,-404.5001 342.9874,-411.5001"/>
</g>
<!-- Node257 -->
<g id="node15" class="node">
<title>Node257</title>
<g id="a_node15"><a xlink:href="structchi_1_1Subprocess.html#a2f57bcbe46b93798d8ca769dc7aab4c9" target="_top" xlink:title="Wait and gets the exit code. ">
<polygon fill="#ffffff" stroke="#000000" points="360.5,-442.5 360.5,-461.5 491.5,-461.5 491.5,-442.5 360.5,-442.5"/>
<text text-anchor="middle" x="426" y="-449.5" font-family="Helvetica,sans-Serif" font-size="10.00" fill="#000000">chi::Subprocess::exitCode</text>
</a>
</g>
</g>
<!-- Node246&#45;&gt;Node257 -->
<g id="edge20" class="edge">
<title>Node246&#45;&gt;Node257</title>
<path fill="none" stroke="#191970" d="M277.2272,-417.5473C305.8598,-424.1781 344.2096,-433.0591 374.8014,-440.1435"/>
<polygon fill="#191970" stroke="#191970" points="374.3214,-443.6249 384.8533,-442.4713 375.9008,-436.8054 374.3214,-443.6249"/>
</g>
<!-- Node258 -->
<g id="node16" class="node">
<title>Node258</title>
<g id="a_node16"><a xlink:href="structchi_1_1Subprocess.html#a38101f1406d62b1dc386072f576b990f" target="_top" xlink:title="Set the arguments for the program with a begin and end iterator. ">
<polygon fill="#ffffff" stroke="#000000" points="542,-492.5 542,-511.5 696,-511.5 696,-492.5 542,-492.5"/>
<text text-anchor="middle" x="619" y="-499.5" font-family="Helvetica,sans-Serif" font-size="10.00" fill="#000000">chi::Subprocess::setArguments</text>
</a>
</g>
</g>
<!-- Node246&#45;&gt;Node258 -->
<g id="edge22" class="edge">
<title>Node246&#45;&gt;Node258</title>
<path fill="none" stroke="#191970" d="M241.6082,-417.7455C255.6308,-440.9963 294.7969,-499.3863 346,-521 424.9514,-554.3266 528.1761,-531.2576 582.2734,-514.7196"/>
<polygon fill="#191970" stroke="#191970" points="583.6169,-517.9659 592.1012,-511.6202 581.5115,-511.29 583.6169,-517.9659"/>
</g>
<!-- Node259 -->
<g id="node17" class="node">
<title>Node259</title>
<g id="a_node17"><a xlink:href="structchi_1_1Subprocess.html#a1a8a312f1f2279a6b0290c3794968136" target="_top" xlink:title="Start the process. ">
<polygon fill="#ffffff" stroke="#000000" points="923,-311.5 923,-330.5 1036,-330.5 1036,-311.5 923,-311.5"/>
<text text-anchor="middle" x="979.5" y="-318.5" font-family="Helvetica,sans-Serif" font-size="10.00" fill="#000000">chi::Subprocess::start</text>
</a>
</g>
</g>
<!-- Node246&#45;&gt;Node259 -->
<g id="edge24" class="edge">
<title>Node246&#45;&gt;Node259</title>
<path fill="none" stroke="#191970" d="M242.552,-398.3168C257.7224,-376.8782 297.6825,-325.8176 346,-307 553.7983,-226.0714 829.7216,-282.0859 935.5901,-308.9126"/>
<polygon fill="#191970" stroke="#191970" points="934.7397,-312.3077 945.2966,-311.412 936.4853,-305.5288 934.7397,-312.3077"/>
</g>
<!-- Node260 -->
<g id="node18" class="node">
<title>Node260</title>
<g id="a_node18"><a xlink:href="namespacechi.html#a2a10381635e0ce797c881880ae0adb55" target="_top" xlink:title="Gets the location of the standard C library to include. ">
<polygon fill="#ffffff" stroke="#000000" points="369.5,-316.5 369.5,-335.5 482.5,-335.5 482.5,-316.5 369.5,-316.5"/>
<text text-anchor="middle" x="426" y="-323.5" font-family="Helvetica,sans-Serif" font-size="10.00" fill="#000000">chi::stdCIncludePaths</text>
</a>
</g>
</g>
<!-- Node246&#45;&gt;Node260 -->
<g id="edge26" class="edge">
<title>Node246&#45;&gt;Node260</title>
<path fill="none" stroke="#191970" d="M251.9263,-398.3381C272.9094,-385.907 311.2318,-364.2243 346,-350 356.4807,-345.7121 368.0117,-341.807 378.9769,-338.45"/>
<polygon fill="#191970" stroke="#191970" points="380.2485,-341.7236 388.8415,-335.5259 378.2591,-335.0123 380.2485,-341.7236"/>
</g>
<!-- Node247&#45;&gt;Node245 -->
<g id="edge8" class="edge">
<title>Node247&#45;&gt;Node245</title>
<path fill="none" stroke="#191970" d="M477.8307,-625.5011C497.8274,-628.9007 520.9237,-632.5044 542,-635 656.3996,-648.5459 685.3012,-654 800.5,-654 800.5,-654 800.5,-654 979.5,-654 1095.5423,-654 1221.4541,-583.5591 1272.0551,-551.9909"/>
<polygon fill="#191970" stroke="#191970" points="1274.0319,-554.8819 1280.6076,-546.5746 1270.2867,-548.9681 1274.0319,-554.8819"/>
</g>
<!-- Node248 -->
<g id="node6" class="node">
<title>Node248</title>
<g id="a_node6"><a xlink:href="structchi_1_1Result.html#a5cbde12f0c21347635469c7acf8d4112" target="_top" xlink:title="Add some json that will ALWAYS be merged with entries that are added and when results are added to th...">
<polygon fill="#ffffff" stroke="#000000" points="559.5,-568.5 559.5,-587.5 678.5,-587.5 678.5,-568.5 559.5,-568.5"/>
<text text-anchor="middle" x="619" y="-575.5" font-family="Helvetica,sans-Serif" font-size="10.00" fill="#000000">chi::Result::addContext</text>
</a>
</g>
</g>
<!-- Node247&#45;&gt;Node248 -->
<g id="edge6" class="edge">
<title>Node247&#45;&gt;Node248</title>
<path fill="none" stroke="#191970" d="M474.702,-606.411C500.8588,-601.261 533.2837,-594.8768 560.7671,-589.4656"/>
<polygon fill="#191970" stroke="#191970" points="561.5127,-592.886 570.6482,-587.5201 560.1604,-586.0179 561.5127,-592.886"/>
</g>
<!-- Node249 -->
<g id="node7" class="node">
<title>Node249</title>
<g id="a_node7"><a xlink:href="structchi_1_1Result.html#ab801a9230e3e46dc771f260992e4e84d" target="_top" xlink:title="Removes a previously added context. ">
<polygon fill="#ffffff" stroke="#000000" points="551.5,-606.5 551.5,-625.5 686.5,-625.5 686.5,-606.5 551.5,-606.5"/>
<text text-anchor="middle" x="619" y="-613.5" font-family="Helvetica,sans-Serif" font-size="10.00" fill="#000000">chi::Result::removeContext</text>
</a>
</g>
</g>
<!-- Node247&#45;&gt;Node249 -->
<g id="edge7" class="edge">
<title>Node247&#45;&gt;Node249</title>
<path fill="none" stroke="#191970" d="M502.0017,-616C514.8198,-616 528.1439,-616 541.0116,-616"/>
<polygon fill="#191970" stroke="#191970" points="541.2152,-619.5001 551.2151,-616 541.2151,-612.5001 541.2152,-619.5001"/>
</g>
<!-- Node251 -->
<g id="node9" class="node">
<title>Node251</title>
<g id="a_node9"><a xlink:href="structchi_1_1Subprocess.html#ad1c5751c1ef62ae1020aafdbeee36fbb" target="_top" xlink:title="Attach a function handler to the child stderr. ">
<polygon fill="#ffffff" stroke="#000000" points="553.5,-443 553.5,-473 684.5,-473 684.5,-443 553.5,-443"/>
<text text-anchor="start" x="561.5" y="-461" font-family="Helvetica,sans-Serif" font-size="10.00" fill="#000000">chi::Subprocess::attachTo</text>
<text text-anchor="middle" x="619" y="-450" font-family="Helvetica,sans-Serif" font-size="10.00" fill="#000000">StdErr</text>
</a>
</g>
</g>
<!-- Node250&#45;&gt;Node251 -->
<g id="edge10" class="edge">
<title>Node250&#45;&gt;Node251</title>
<path fill="none" stroke="#191970" d="M499.2402,-481.5796C513.7096,-478.7308 528.9208,-475.7358 543.4644,-472.8723"/>
<polygon fill="#191970" stroke="#191970" points="544.2737,-476.2802 553.4092,-470.9143 542.9214,-469.4121 544.2737,-476.2802"/>
</g>
<!-- Node252 -->
<g id="node10" class="node">
<title>Node252</title>
<g id="a_node10"><a xlink:href="structchi_1_1Subprocess.html#a9b2f4ecd9a0239232deaf3ff46c48bf0" target="_top" xlink:title="Check if the child has started (start() has been called) ">
<polygon fill="#ffffff" stroke="#000000" points="739,-434.5 739,-453.5 862,-453.5 862,-434.5 739,-434.5"/>
<text text-anchor="middle" x="800.5" y="-441.5" font-family="Helvetica,sans-Serif" font-size="10.00" fill="#000000">chi::Subprocess::started</text>
</a>
</g>
</g>
<!-- Node251&#45;&gt;Node252 -->
<g id="edge11" class="edge">
<title>Node251&#45;&gt;Node252</title>
<path fill="none" stroke="#191970" d="M684.5257,-452.9457C698.7429,-451.849 713.8573,-450.6832 728.3149,-449.568"/>
<polygon fill="#191970" stroke="#191970" points="729.0029,-453.0254 738.7041,-448.7666 728.4645,-446.0461 729.0029,-453.0254"/>
</g>
<!-- Node252&#45;&gt;Node253 -->
<g id="edge12" class="edge">
<title>Node252&#45;&gt;Node253</title>
<path fill="none" stroke="#191970" d="M862.1016,-444C872.6318,-444 883.7343,-444 894.7411,-444"/>
<polygon fill="#191970" stroke="#191970" points="894.8032,-447.5001 904.8031,-444 894.8031,-440.5001 894.8032,-447.5001"/>
</g>
<!-- Node252&#45;&gt;Node254 -->
<g id="edge14" class="edge">
<title>Node252&#45;&gt;Node254</title>
<path fill="none" stroke="#191970" d="M833.3314,-434.4624C862.3836,-426.0226 904.9691,-413.6514 936.6884,-404.4369"/>
<polygon fill="#191970" stroke="#191970" points="937.9476,-407.7159 946.5742,-401.565 935.9948,-400.9938 937.9476,-407.7159"/>
</g>
<!-- Node253&#45;&gt;Node244 -->
<g id="edge13" class="edge">
<title>Node253&#45;&gt;Node244</title>
<path fill="none" stroke="#191970" d="M1009.6718,-434.4624C1036.1395,-426.0957 1074.8298,-413.8654 1103.897,-404.6769"/>
<polygon fill="#191970" stroke="#191970" points="1105.2614,-407.9164 1113.7414,-401.565 1103.1514,-401.242 1105.2614,-407.9164"/>
</g>
<!-- Node254&#45;&gt;Node244 -->
<g id="edge15" class="edge">
<title>Node254&#45;&gt;Node244</title>
<path fill="none" stroke="#191970" d="M1049.74,-392C1059.721,-392 1069.9431,-392 1079.8014,-392"/>
<polygon fill="#191970" stroke="#191970" points="1079.9176,-395.5001 1089.9176,-392 1079.9176,-388.5001 1079.9176,-395.5001"/>
</g>
<!-- Node256 -->
<g id="node14" class="node">
<title>Node256</title>
<g id="a_node14"><a xlink:href="structchi_1_1Subprocess.html#a8a74fc88aa957ff035f446495b7c7a7a" target="_top" xlink:title="Attach a function handler to the child stdout. ">
<polygon fill="#ffffff" stroke="#000000" points="553.5,-393 553.5,-423 684.5,-423 684.5,-393 553.5,-393"/>
<text text-anchor="start" x="561.5" y="-411" font-family="Helvetica,sans-Serif" font-size="10.00" fill="#000000">chi::Subprocess::attachTo</text>
<text text-anchor="middle" x="619" y="-400" font-family="Helvetica,sans-Serif" font-size="10.00" fill="#000000">StdOut</text>
</a>
</g>
</g>
<!-- Node255&#45;&gt;Node256 -->
<g id="edge17" class="edge">
<title>Node255&#45;&gt;Node256</title>
<path fill="none" stroke="#191970" d="M499.2402,-408C513.5704,-408 528.6283,-408 543.0447,-408"/>
<polygon fill="#191970" stroke="#191970" points="543.4092,-411.5001 553.4092,-408 543.4091,-404.5001 543.4092,-411.5001"/>
</g>
<!-- Node256&#45;&gt;Node252 -->
<g id="edge18" class="edge">
<title>Node256&#45;&gt;Node252</title>
<path fill="none" stroke="#191970" d="M684.5257,-420.9968C703.4597,-424.7523 723.9851,-428.8235 742.4312,-432.4822"/>
<polygon fill="#191970" stroke="#191970" points="741.952,-435.9553 752.4419,-434.4678 743.314,-429.089 741.952,-435.9553"/>
</g>
<!-- Node258&#45;&gt;Node252 -->
<g id="edge23" class="edge">
<title>Node258&#45;&gt;Node252</title>
<path fill="none" stroke="#191970" d="M661.604,-492.4167C672.8601,-489.632 684.9491,-486.4131 696,-483 720.3276,-475.4864 747.2321,-465.4028 767.6488,-457.3714"/>
<polygon fill="#191970" stroke="#191970" points="769.1087,-460.5576 777.1107,-453.6137 766.525,-454.0518 769.1087,-460.5576"/>
</g>
<!-- Node259&#45;&gt;Node244 -->
<g id="edge25" class="edge">
<title>Node259&#45;&gt;Node244</title>
<path fill="none" stroke="#191970" d="M1001.6852,-330.5754C1030.2173,-342.8901 1079.9526,-364.3564 1112.4238,-378.3714"/>
<polygon fill="#191970" stroke="#191970" points="1111.3359,-381.7139 1121.9042,-382.4632 1114.1099,-375.2869 1111.3359,-381.7139"/>
</g>
<!-- Node262 -->
<g id="node20" class="node">
<title>Node262</title>
<g id="a_node20"><a xlink:href="structchi_1_1ChiModule.html#a653e3aed05912857334655e06937b28d" target="_top" xlink:title="Adds forward declartions for the functions in this module. ">
<polygon fill="#ffffff" stroke="#000000" points="732,-96 732,-126 869,-126 869,-96 732,-96"/>
<text text-anchor="start" x="740" y="-114" font-family="Helvetica,sans-Serif" font-size="10.00" fill="#000000">chi::ChiModule::addForward</text>
<text text-anchor="middle" x="800.5" y="-103" font-family="Helvetica,sans-Serif" font-size="10.00" fill="#000000">Declarations</text>
</a>
</g>
</g>
<!-- Node261&#45;&gt;Node262 -->
<g id="edge28" class="edge">
<title>Node261&#45;&gt;Node262</title>
<path fill="none" stroke="#191970" d="M678.6813,-107.6441C692.3995,-108.022 707.195,-108.4296 721.5864,-108.8261"/>
<polygon fill="#191970" stroke="#191970" points="721.8804,-112.3354 731.9731,-109.1122 722.0733,-105.3381 721.8804,-112.3354"/>
</g>
<!-- Node263 -->
<g id="node21" class="node">
<title>Node263</title>
<g id="a_node21"><a xlink:href="structchi_1_1ChiModule.html#a987c71edb997c5f041f69622cb0c86fe" target="_top" xlink:title="Generate a llvm::Module from the module. ">
<polygon fill="#ffffff" stroke="#000000" points="738,-47 738,-77 863,-77 863,-47 738,-47"/>
<text text-anchor="start" x="746" y="-65" font-family="Helvetica,sans-Serif" font-size="10.00" fill="#000000">chi::ChiModule::generate</text>
<text text-anchor="middle" x="800.5" y="-54" font-family="Helvetica,sans-Serif" font-size="10.00" fill="#000000">Module</text>
</a>
</g>
</g>
<!-- Node261&#45;&gt;Node263 -->
<g id="edge29" class="edge">
<title>Node261&#45;&gt;Node263</title>
<path fill="none" stroke="#191970" d="M658.3828,-96.4527C678.9088,-91.4767 704.6624,-85.2334 728.5885,-79.4331"/>
<polygon fill="#191970" stroke="#191970" points="729.4615,-82.8229 738.3554,-77.0654 727.8122,-76.02 729.4615,-82.8229"/>
</g>
<!-- Node265 -->
<g id="node23" class="node">
<title>Node265</title>
<g id="a_node23"><a xlink:href="structchi_1_1GraphModule.html#a1c1a23b9aa7967948e97dc9650099188" target="_top" xlink:title="Get the path to the source file It&#39;s not garunteed to exist, because it could have not been saved...">
<polygon fill="#ffffff" stroke="#000000" points="362,-39 362,-69 490,-69 490,-39 362,-39"/>
<text text-anchor="start" x="370" y="-57" font-family="Helvetica,sans-Serif" font-size="10.00" fill="#000000">chi::GraphModule::source</text>
<text text-anchor="middle" x="426" y="-46" font-family="Helvetica,sans-Serif" font-size="10.00" fill="#000000">FilePath</text>
</a>
</g>
</g>
<!-- Node264&#45;&gt;Node265 -->
<g id="edge31" class="edge">
<title>Node264&#45;&gt;Node265</title>
<path fill="none" stroke="#191970" d="M300.5905,-54C316.9831,-54 334.7261,-54 351.5639,-54"/>
<polygon fill="#191970" stroke="#191970" points="351.9106,-57.5001 361.9106,-54 351.9106,-50.5001 351.9106,-57.5001"/>
</g>
<!-- Node268 -->
<g id="node26" class="node">
<title>Node268</title>
<g id="a_node26"><a xlink:href="structchi_1_1ChiModule.html#a22ac89bd0e334cb920847973fa77e8ff" target="_top" xlink:title="Get the short name of the module (the last bit) ">
<polygon fill="#ffffff" stroke="#000000" points="359,-.5 359,-19.5 493,-19.5 493,-.5 359,-.5"/>
<text text-anchor="middle" x="426" y="-7.5" font-family="Helvetica,sans-Serif" font-size="10.00" fill="#000000">chi::ChiModule::shortName</text>
</a>
</g>
</g>
<!-- Node264&#45;&gt;Node268 -->
<g id="edge35" class="edge">
<title>Node264&#45;&gt;Node268</title>
<path fill="none" stroke="#191970" d="M300.5905,-39.0422C324.8621,-33.4214 352.0943,-27.115 374.9649,-21.8186"/>
<polygon fill="#191970" stroke="#191970" points="375.8555,-25.2051 384.808,-19.5392 374.2762,-18.3856 375.8555,-25.2051"/>
</g>
<!-- Node265&#45;&gt;Node261 -->
<g id="edge32" class="edge">
<title>Node265&#45;&gt;Node261</title>
<path fill="none" stroke="#191970" d="M481.8236,-69.0406C511.0734,-76.9213 546.4261,-86.4464 573.916,-93.853"/>
<polygon fill="#191970" stroke="#191970" points="573.096,-97.2568 583.6622,-96.4789 574.9171,-90.4979 573.096,-97.2568"/>
</g>
<!-- Node266 -->
<g id="node24" class="node">
<title>Node266</title>
<g id="a_node24"><a xlink:href="structchi_1_1Context.html#a24fd4f52e8cc081116a45de3a698d846" target="_top" xlink:title="Get the workspace path of the Context. ">
<polygon fill="#ffffff" stroke="#000000" points="548,-11.5 548,-30.5 690,-30.5 690,-11.5 548,-11.5"/>
<text text-anchor="middle" x="619" y="-18.5" font-family="Helvetica,sans-Serif" font-size="10.00" fill="#000000">chi::Context::workspacePath</text>
</a>
</g>
</g>
<!-- Node265&#45;&gt;Node266 -->
<g id="edge33" class="edge">
<title>Node265&#45;&gt;Node266</title>
<path fill="none" stroke="#191970" d="M490.2662,-43.0115C510.5286,-39.5469 532.933,-35.7161 553.2942,-32.2347"/>
<polygon fill="#191970" stroke="#191970" points="554.1521,-35.6389 563.4192,-30.5035 552.9723,-28.739 554.1521,-35.6389"/>
</g>
<!-- Node267 -->
<g id="node25" class="node">
<title>Node267</title>
<g id="a_node25"><a xlink:href="structchi_1_1ChiModule.html#a92ab6d528ac41a91b6ac21ededfccc38" target="_top" xlink:title="Get the full name of the module. ">
<polygon fill="#ffffff" stroke="#000000" points="556.5,-49.5 556.5,-68.5 681.5,-68.5 681.5,-49.5 556.5,-49.5"/>
<text text-anchor="middle" x="619" y="-56.5" font-family="Helvetica,sans-Serif" font-size="10.00" fill="#000000">chi::ChiModule::fullName</text>
</a>
</g>
</g>
<!-- Node265&#45;&gt;Node267 -->
<g id="edge34" class="edge">
<title>Node265&#45;&gt;Node267</title>
<path fill="none" stroke="#191970" d="M490.2662,-55.6649C508.2155,-56.1299 527.8458,-56.6385 546.2476,-57.1152"/>
<polygon fill="#191970" stroke="#191970" points="546.2386,-60.6161 556.3259,-57.3763 546.42,-53.6184 546.2386,-60.6161"/>
</g>
<!-- Node270&#45;&gt;Node244 -->
<g id="edge38" class="edge">
<title>Node270&#45;&gt;Node244</title>
<path fill="none" stroke="#191970" d="M310.1389,-174C387.291,-174 511.6137,-174 619,-174 619,-174 619,-174 800.5,-174 917.8689,-174 960.4304,-177.1467 1054,-248 1097.5204,-280.9547 1125.1694,-341.5744 1137.1379,-372.5969"/>
<polygon fill="#191970" stroke="#191970" points="1133.9567,-374.0846 1140.7177,-382.2417 1140.5192,-371.6488 1133.9567,-374.0846"/>
</g>
<!-- Node271 -->
<g id="node29" class="node">
<title>Node271</title>
<g id="a_node29"><a xlink:href="structchi_1_1Context.html#a8628a178e0a8a944065f2605d01a36d5" target="_top" xlink:title="Gets the module by the full name. ">
<polygon fill="#ffffff" stroke="#000000" points="346,-126.5 346,-145.5 506,-145.5 506,-126.5 346,-126.5"/>
<text text-anchor="middle" x="426" y="-133.5" font-family="Helvetica,sans-Serif" font-size="10.00" fill="#000000">chi::Context::moduleByFullName</text>
</a>
</g>
</g>
<!-- Node270&#45;&gt;Node271 -->
<g id="edge39" class="edge">
<title>Node270&#45;&gt;Node271</title>
<path fill="none" stroke="#191970" d="M283.945,-164.411C309.5823,-159.2835 341.3362,-152.9328 368.316,-147.5368"/>
<polygon fill="#191970" stroke="#191970" points="369.2804,-150.9133 378.3997,-145.5201 367.9075,-144.0493 369.2804,-150.9133"/>
</g>
<!-- Node272 -->
<g id="node30" class="node">
<title>Node272</title>
<g id="a_node30"><a xlink:href="structchi_1_1ChiModule.html#a03aa9f90fafd384094861dfff13eba77" target="_top" xlink:title="Get a DataType from the name. ">
<polygon fill="#ffffff" stroke="#000000" points="349,-88.5 349,-107.5 503,-107.5 503,-88.5 349,-88.5"/>
<text text-anchor="middle" x="426" y="-95.5" font-family="Helvetica,sans-Serif" font-size="10.00" fill="#000000">chi::ChiModule::typeFromName</text>
</a>
</g>
</g>
<!-- Node270&#45;&gt;Node272 -->
<g id="edge40" class="edge">
<title>Node270&#45;&gt;Node272</title>
<path fill="none" stroke="#191970" d="M288.4269,-164.4857C295.9452,-162.0105 303.3697,-158.9015 310,-155 330.0507,-143.2015 325.8431,-128.6161 346,-117 349.8613,-114.7748 353.9705,-112.8098 358.2098,-111.0746"/>
<polygon fill="#191970" stroke="#191970" points="359.4567,-114.3454 367.6523,-107.6311 357.0584,-107.769 359.4567,-114.3454"/>
</g>
</g>
</svg>
