<?xml version="1.0" encoding="UTF-8" standalone="no"?>
<!DOCTYPE svg PUBLIC "-//W3C//DTD SVG 1.1//EN"
 "http://www.w3.org/Graphics/SVG/1.1/DTD/svg11.dtd">
<!-- Generated by graphviz version 2.40.1 (20161225.0304)
 -->
<!-- Title: chi::ModuleCache::context Pages: 1 -->
<svg width="708pt" height="185pt"
 viewBox="0.00 0.00 708.00 184.81" xmlns="http://www.w3.org/2000/svg" xmlns:xlink="http://www.w3.org/1999/xlink">
<g id="graph0" class="graph" transform="scale(1 1) rotate(0) translate(4 180.8078)">
<title>chi::ModuleCache::context</title>
<polygon fill="#ffffff" stroke="transparent" points="-4,4 -4,-180.8078 704,-180.8078 704,4 -4,4"/>
<!-- Node20 -->
<g id="node1" class="node">
<title>Node20</title>
<polygon fill="#bfbfbf" stroke="#000000" points="0,-37.3078 0,-56.3078 133,-56.3078 133,-37.3078 0,-37.3078"/>
<text text-anchor="middle" x="66.5" y="-44.3078" font-family="Helvetica,sans-Serif" font-size="10.00" fill="#000000">chi::ModuleCache::context</text>
</g>
<!-- Node21 -->
<g id="node2" class="node">
<title>Node21</title>
<g id="a_node2"><a xlink:href="structchi_1_1ModuleCache.html#a7533652808cf359ed6ea975dbe11dd43" target="_top" xlink:title="Get the cache name for a module. ">
<polygon fill="#ffffff" stroke="#000000" points="169,-75.8078 169,-105.8078 316,-105.8078 316,-75.8078 169,-75.8078"/>
<text text-anchor="start" x="177" y="-93.8078" font-family="Helvetica,sans-Serif" font-size="10.00" fill="#000000">chi::ModuleCache::cachePath</text>
<text text-anchor="middle" x="242.5" y="-82.8078" font-family="Helvetica,sans-Serif" font-size="10.00" fill="#000000">ForModule</text>
</a>
</g>
</g>
<!-- Node20&#45;&gt;Node21 -->
<g id="edge1" class="edge">
<title>Node20&#45;&gt;Node21</title>
<path fill="none" stroke="#191970" d="M114.6046,-58.834C135.4811,-64.0531 160.1576,-70.2222 182.2385,-75.7425"/>
<polygon fill="#191970" stroke="#191970" points="115.2397,-55.3851 104.6894,-56.3552 113.5419,-62.1761 115.2397,-55.3851"/>
</g>
<!-- Node24 -->
<g id="node5" class="node">
<title>Node24</title>
<g id="a_node5"><a xlink:href="structchi_1_1ModuleCache.html#a9822fcf51ebd701cb2dc59a858080bf0" target="_top" xlink:title="Retrieve a module from the cache. ">
<polygon fill="#ffffff" stroke="#000000" points="567,-75.8078 567,-105.8078 700,-105.8078 700,-75.8078 567,-75.8078"/>
<text text-anchor="start" x="575" y="-93.8078" font-family="Helvetica,sans-Serif" font-size="10.00" fill="#000000">chi::ModuleCache::retrieve</text>
<text text-anchor="middle" x="633.5" y="-82.8078" font-family="Helvetica,sans-Serif" font-size="10.00" fill="#000000">FromCache</text>
</a>
</g>
</g>
<!-- Node20&#45;&gt;Node24 -->
<g id="edge7" class="edge">
<title>Node20&#45;&gt;Node24</title>
<path fill="none" stroke="#191970" d="M110.0248,-34.7281C193.7103,-13.6032 381.9616,23.6828 531,-21.8078 565.4687,-32.3286 598.8403,-58.7567 617.7103,-75.6828"/>
<polygon fill="#191970" stroke="#191970" points="108.9217,-31.3978 100.1096,-37.2799 110.6664,-38.1769 108.9217,-31.3978"/>
</g>
<!-- Node22 -->
<g id="node3" class="node">
<title>Node22</title>
<g id="a_node3"><a xlink:href="structchi_1_1ModuleCache.html#ae3f34f212105d721e10e9b24f005b977" target="_top" xlink:title="Cache a module. ">
<polygon fill="#ffffff" stroke="#000000" points="362.5,-157.3078 362.5,-176.3078 520.5,-176.3078 520.5,-157.3078 362.5,-157.3078"/>
<text text-anchor="middle" x="441.5" y="-164.3078" font-family="Helvetica,sans-Serif" font-size="10.00" fill="#000000">chi::ModuleCache::cacheModule</text>
</a>
</g>
</g>
<!-- Node21&#45;&gt;Node22 -->
<g id="edge2" class="edge">
<title>Node21&#45;&gt;Node22</title>
<path fill="none" stroke="#191970" d="M275.7476,-111.1341C296.9182,-123.3044 325.2909,-138.2224 352,-147.8078 362.4656,-151.5638 373.8995,-154.6863 384.9898,-157.2409"/>
<polygon fill="#191970" stroke="#191970" points="277.2512,-107.9591 266.8509,-105.9379 273.7208,-114.0036 277.2512,-107.9591"/>
</g>
<!-- Node23 -->
<g id="node4" class="node">
<title>Node23</title>
<g id="a_node4"><a xlink:href="structchi_1_1ModuleCache.html#a84d4740ea3a35529be3797456995cf3f" target="_top" xlink:title="Get the time that a cache was updated. ">
<polygon fill="#ffffff" stroke="#000000" points="352,-119.3078 352,-138.3078 531,-138.3078 531,-119.3078 352,-119.3078"/>
<text text-anchor="middle" x="441.5" y="-126.3078" font-family="Helvetica,sans-Serif" font-size="10.00" fill="#000000">chi::ModuleCache::cacheUpdateTime</text>
</a>
</g>
</g>
<!-- Node21&#45;&gt;Node23 -->
<g id="edge3" class="edge">
<title>Node21&#45;&gt;Node23</title>
<path fill="none" stroke="#191970" d="M325.8576,-106.7254C348.1825,-110.9884 371.6214,-115.4642 391.5157,-119.2631"/>
<polygon fill="#191970" stroke="#191970" points="326.5139,-103.2875 316.0349,-104.8497 325.2009,-110.1633 326.5139,-103.2875"/>
</g>
<!-- Node21&#45;&gt;Node24 -->
<g id="edge6" class="edge">
<title>Node21&#45;&gt;Node24</title>
<path fill="none" stroke="#191970" d="M326.4207,-90.8078C398.2914,-90.8078 500.407,-90.8078 566.8052,-90.8078"/>
<polygon fill="#191970" stroke="#191970" points="326.0441,-87.3079 316.0441,-90.8078 326.0441,-94.3079 326.0441,-87.3079"/>
</g>
<!-- Node25 -->
<g id="node6" class="node">
<title>Node25</title>
<g id="a_node6"><a xlink:href="structchi_1_1ModuleCache.html#a28ab26c3bd85a4795d9c04809f9a687b" target="_top" xlink:title="Inavlidate the cache, as it delete the cache file. ">
<polygon fill="#ffffff" stroke="#000000" points="370.5,-31.8078 370.5,-61.8078 512.5,-61.8078 512.5,-31.8078 370.5,-31.8078"/>
<text text-anchor="start" x="378.5" y="-49.8078" font-family="Helvetica,sans-Serif" font-size="10.00" fill="#000000">chi::ModuleCache::invalidate</text>
<text text-anchor="middle" x="441.5" y="-38.8078" font-family="Helvetica,sans-Serif" font-size="10.00" fill="#000000">Cache</text>
</a>
</g>
</g>
<!-- Node21&#45;&gt;Node25 -->
<g id="edge5" class="edge">
<title>Node21&#45;&gt;Node25</title>
<path fill="none" stroke="#191970" d="M320.6004,-73.5394C338.0886,-69.6727 356.5027,-65.6012 373.5406,-61.834"/>
<polygon fill="#191970" stroke="#191970" points="319.4365,-70.2122 310.4279,-75.7886 320.9477,-77.0471 319.4365,-70.2122"/>
</g>
<!-- Node23&#45;&gt;Node24 -->
<g id="edge4" class="edge">
<title>Node23&#45;&gt;Node24</title>
<path fill="none" stroke="#191970" d="M499.7788,-117.2735C520.9718,-113.0791 545.0812,-108.3074 566.937,-103.9818"/>
<polygon fill="#191970" stroke="#191970" points="499.0799,-113.8439 489.9497,-119.2188 500.439,-120.7107 499.0799,-113.8439"/>
</g>
</g>
</svg>
