<?xml version="1.0" encoding="UTF-8" standalone="no"?>
<!DOCTYPE svg PUBLIC "-//W3C//DTD SVG 1.1//EN"
 "http://www.w3.org/Graphics/SVG/1.1/DTD/svg11.dtd">
<!-- Generated by graphviz version 2.40.1 (20161225.0304)
 -->
<!-- Title: chig::Context::hasWorkspace Pages: 1 -->
<svg width="485pt" height="66pt"
 viewBox="0.00 0.00 485.00 66.00" xmlns="http://www.w3.org/2000/svg" xmlns:xlink="http://www.w3.org/1999/xlink">
<g id="graph0" class="graph" transform="scale(1 1) rotate(0) translate(4 62)">
<title>chig::Context::hasWorkspace</title>
<polygon fill="#ffffff" stroke="transparent" points="-4,4 -4,-62 481,-62 481,4 -4,4"/>
<!-- Node58 -->
<g id="node1" class="node">
<title>Node58</title>
<polygon fill="#bfbfbf" stroke="#000000" points="0,-19.5 0,-38.5 145,-38.5 145,-19.5 0,-19.5"/>
<text text-anchor="middle" x="72.5" y="-26.5" font-family="Helvetica,sans-Serif" font-size="10.00" fill="#000000">chig::Context::hasWorkspace</text>
</g>
<!-- Node59 -->
<g id="node2" class="node">
<title>Node59</title>
<g id="a_node2"><a xlink:href="structchig_1_1Context.html#a8987940286a7a67313b635891d8f51e8" target="_top" xlink:title="Compile a module to a llvm::Module. ">
<polygon fill="#ffffff" stroke="#000000" points="181.5,-38.5 181.5,-57.5 327.5,-57.5 327.5,-38.5 181.5,-38.5"/>
<text text-anchor="middle" x="254.5" y="-45.5" font-family="Helvetica,sans-Serif" font-size="10.00" fill="#000000">chig::Context::compileModule</text>
</a>
</g>
</g>
<!-- Node58&#45;&gt;Node59 -->
<g id="edge1" class="edge">
<title>Node58&#45;&gt;Node59</title>
<path fill="none" stroke="#191970" d="M145.2159,-36.5912C153.7556,-37.4827 162.5195,-38.3976 171.1896,-39.3028"/>
<polygon fill="#191970" stroke="#191970" points="170.996,-42.8015 181.3054,-40.3588 171.7229,-35.8393 170.996,-42.8015"/>
</g>
<!-- Node61 -->
<g id="node4" class="node">
<title>Node61</title>
<g id="a_node4"><a xlink:href="structchig_1_1Context.html#a21a5a702d92a00b87700e03782f9cb5f" target="_top" xlink:title="Get the workspace path of the Context. ">
<polygon fill="#ffffff" stroke="#000000" points="181,-.5 181,-19.5 328,-19.5 328,-.5 181,-.5"/>
<text text-anchor="middle" x="254.5" y="-7.5" font-family="Helvetica,sans-Serif" font-size="10.00" fill="#000000">chig::Context::workspacePath</text>
</a>
</g>
</g>
<!-- Node58&#45;&gt;Node61 -->
<g id="edge3" class="edge">
<title>Node58&#45;&gt;Node61</title>
<path fill="none" stroke="#191970" d="M145.2159,-21.4088C153.6133,-20.5321 162.2274,-19.6329 170.756,-18.7425"/>
<polygon fill="#191970" stroke="#191970" points="171.1279,-22.2228 180.7104,-17.7033 170.401,-15.2606 171.1279,-22.2228"/>
</g>
<!-- Node60 -->
<g id="node3" class="node">
<title>Node60</title>
<g id="a_node3"><a xlink:href="structchig_1_1Result.html#aabb30a56760c3a817518912d9eabb491" target="_top" xlink:title="Add a entry to the result, either a warning or an error. ">
<polygon fill="#ffffff" stroke="#000000" points="364,-38.5 364,-57.5 477,-57.5 477,-38.5 364,-38.5"/>
<text text-anchor="middle" x="420.5" y="-45.5" font-family="Helvetica,sans-Serif" font-size="10.00" fill="#000000">chig::Result::addEntry</text>
</a>
</g>
</g>
<!-- Node59&#45;&gt;Node60 -->
<g id="edge2" class="edge">
<title>Node59&#45;&gt;Node60</title>
<path fill="none" stroke="#191970" d="M327.7932,-48C336.3761,-48 345.0994,-48 353.5892,-48"/>
<polygon fill="#191970" stroke="#191970" points="353.8039,-51.5001 363.8039,-48 353.8039,-44.5001 353.8039,-51.5001"/>
</g>
</g>
</svg>
