<?xml version="1.0" encoding="UTF-8" standalone="no"?>
<!DOCTYPE svg PUBLIC "-//W3C//DTD SVG 1.1//EN"
 "http://www.w3.org/Graphics/SVG/1.1/DTD/svg11.dtd">
<!-- Generated by graphviz version 2.40.1 (20161225.0304)
 -->
<!-- Title: chig::NodeType::codegen Pages: 1 -->
<!--zoomable 318 -->
<svg id="main" version="1.1" xmlns="http://www.w3.org/2000/svg" xmlns:xlink="http://www.w3.org/1999/xlink" xml:space="preserve" onload="init(evt)">
<style type="text/css"><![CDATA[
.edge:hover path { stroke: red; }
.edge:hover polygon { stroke: red; fill: red; }
]]></style>
<script type="text/javascript"><![CDATA[
var edges = document.getElementsByTagName('g');
if (edges && edges.length) {
  for (var i=0;i<edges.length;i++) {
    if (edges[i].id.substr(0,4)=='edge') {
      edges[i].setAttribute('class','edge');
    }
  }
}
]]></script>
        <defs>
                <circle id="rim" cx="0" cy="0" r="7"/>
                <circle id="rim2" cx="0" cy="0" r="3.5"/>
                <g id="zoomPlus">
                        <use xlink:href="#rim" fill="#404040">
                                <set attributeName="fill" to="#808080" begin="zoomplus.mouseover" end="zoomplus.mouseout"/>
                        </use>
                        <path d="M-4,0h8M0,-4v8" fill="none" stroke="white" stroke-width="1.5" pointer-events="none"/>
                </g>
                <g id="zoomMin">
                        <use xlink:href="#rim" fill="#404040">
                                <set attributeName="fill" to="#808080" begin="zoomminus.mouseover" end="zoomminus.mouseout"/>
                        </use>
                        <path d="M-4,0h8" fill="none" stroke="white" stroke-width="1.5" pointer-events="none"/>
                </g>
                <g id="dirArrow">
                        <path fill="none" stroke="white" stroke-width="1.5" d="M0,-3.0v7 M-2.5,-0.5L0,-3.0L2.5,-0.5"/>
                </g>
               <g id="resetDef">
                       <use xlink:href="#rim2" fill="#404040">
                               <set attributeName="fill" to="#808080" begin="reset.mouseover" end="reset.mouseout"/>
                       </use>
               </g>
        </defs>

<script type="text/javascript">
var viewWidth = 2080;
var viewHeight = 318;
var sectionId = 'dynsection-3';
</script>
<script xlink:href="svgpan.js"/>
<svg id="graph" class="graph">
<g id="viewport">
<title>chig::NodeType::codegen</title>
<polygon fill="#ffffff" stroke="transparent" points="-4,4 -4,-314 2076,-314 2076,4 -4,4"/>
<!-- Node34 -->
<g id="node1" class="node">
<title>Node34</title>
<polygon fill="#bfbfbf" stroke="#000000" points="0,-203 0,-222 128,-222 128,-203 0,-203"/>
<text text-anchor="middle" x="64" y="-210" font-family="Helvetica,sans-Serif" font-size="10.00" fill="#000000">chig::NodeType::codegen</text>
</g>
<!-- Node35 -->
<g id="node2" class="node">
<title>Node35</title>
<g id="a_node2"><a xlink:href="structchig_1_1NodeType.html#aec01c9c30813ec9f0e15dda0f7ae34f3" target="_top" xlink:title="Get the qualified name of the node type, like module.name():name() ">
<polygon fill="#ffffff" stroke="#000000" points="164,-203 164,-222 316,-222 316,-203 164,-203"/>
<text text-anchor="middle" x="240" y="-210" font-family="Helvetica,sans-Serif" font-size="10.00" fill="#000000">chig::NodeType::qualifiedName</text>
</a>
</g>
</g>
<!-- Node34&#45;&gt;Node35 -->
<g id="edge1" class="edge">
<title>Node34&#45;&gt;Node35</title>
<path fill="none" stroke="#191970" d="M138.2245,-212.5C146.6638,-212.5 155.2765,-212.5 163.7416,-212.5"/>
<polygon fill="#191970" stroke="#191970" points="138.0379,-209.0001 128.0379,-212.5 138.0379,-216.0001 138.0379,-209.0001"/>
</g>
<!-- Node36 -->
<g id="node3" class="node">
<title>Node36</title>
<g id="a_node3"><a xlink:href="namespacechig.html#ae2ff27777b91f651f86d9a8e8ef0b986" target="_top" xlink:title="Make sure that connections connect back and that they have the same types. ">
<polygon fill="#ffffff" stroke="#000000" points="352,-279.5 352,-309.5 518,-309.5 518,-279.5 352,-279.5"/>
<text text-anchor="start" x="360" y="-297.5" font-family="Helvetica,sans-Serif" font-size="10.00" fill="#000000">chig::validateFunctionConnections</text>
<text text-anchor="middle" x="435" y="-286.5" font-family="Helvetica,sans-Serif" font-size="10.00" fill="#000000">AreTwoWay</text>
</a>
</g>
</g>
<!-- Node35&#45;&gt;Node36 -->
<g id="edge2" class="edge">
<title>Node35&#45;&gt;Node36</title>
<path fill="none" stroke="#191970" d="M268.4794,-226.5667C290.9345,-237.4517 323.1643,-252.6216 352,-264.5 364.6088,-269.694 378.4823,-274.9025 391.2172,-279.4876"/>
<polygon fill="#191970" stroke="#191970" points="269.7178,-223.2768 259.1953,-222.0405 266.6502,-229.5688 269.7178,-223.2768"/>
</g>
<!-- Node40 -->
<g id="node7" class="node">
<title>Node40</title>
<g id="a_node7"><a xlink:href="namespacechig.html#ad3c2fc880f6843f9a8a0f5ee0d62249d" target="_top" xlink:title="Connects two nodes&#39; data connections. ">
<polygon fill="#ffffff" stroke="#000000" points="562.5,-203 562.5,-222 657.5,-222 657.5,-203 562.5,-203"/>
<text text-anchor="middle" x="610" y="-210" font-family="Helvetica,sans-Serif" font-size="10.00" fill="#000000">chig::connectData</text>
</a>
</g>
</g>
<!-- Node35&#45;&gt;Node40 -->
<g id="edge6" class="edge">
<title>Node35&#45;&gt;Node40</title>
<path fill="none" stroke="#191970" d="M326.3897,-212.5C399.9285,-212.5 502.8402,-212.5 562.3477,-212.5"/>
<polygon fill="#191970" stroke="#191970" points="326.2156,-209.0001 316.2156,-212.5 326.2156,-216.0001 326.2156,-209.0001"/>
</g>
<!-- Node56 -->
<g id="node23" class="node">
<title>Node56</title>
<g id="a_node23"><a xlink:href="namespacechig.html#a8a2e0029b591b2c20b39d570753f123f" target="_top" xlink:title="Connects two nodes&#39; exec connections. ">
<polygon fill="#ffffff" stroke="#000000" points="561,-241 561,-260 659,-260 659,-241 561,-241"/>
<text text-anchor="middle" x="610" y="-248" font-family="Helvetica,sans-Serif" font-size="10.00" fill="#000000">chig::connectExec</text>
</a>
</g>
</g>
<!-- Node35&#45;&gt;Node56 -->
<g id="edge24" class="edge">
<title>Node35&#45;&gt;Node56</title>
<path fill="none" stroke="#191970" d="M323.4493,-223.2261C333.0715,-224.3753 342.7468,-225.4915 352,-226.5 424.6704,-234.4199 509.0387,-241.9555 560.9732,-246.4035"/>
<polygon fill="#191970" stroke="#191970" points="323.8087,-219.7441 313.4611,-222.0196 322.9692,-226.6936 323.8087,-219.7441"/>
</g>
<!-- Node57 -->
<g id="node24" class="node">
<title>Node57</title>
<g id="a_node24"><a xlink:href="namespacechig.html#a26aa6586df79345493de9fc130291c18" target="_top" xlink:title="Disconnect a data connection. ">
<polygon fill="#ffffff" stroke="#000000" points="381,-121 381,-140 489,-140 489,-121 381,-121"/>
<text text-anchor="middle" x="435" y="-128" font-family="Helvetica,sans-Serif" font-size="10.00" fill="#000000">chig::disconnectData</text>
</a>
</g>
</g>
<!-- Node35&#45;&gt;Node57 -->
<g id="edge27" class="edge">
<title>Node35&#45;&gt;Node57</title>
<path fill="none" stroke="#191970" d="M265.4723,-197.8841C287.7867,-185.4846 321.3498,-167.8012 352,-155.5 366.8043,-149.5584 383.579,-144.251 398.1541,-140.0713"/>
<polygon fill="#191970" stroke="#191970" points="263.6451,-194.896 256.6389,-202.8435 267.0721,-200.9997 263.6451,-194.896"/>
</g>
<!-- Node64 -->
<g id="node31" class="node">
<title>Node64</title>
<g id="a_node31"><a xlink:href="namespacechig.html#ad24a330508033631ef29b2f6e5cf6210" target="_top" xlink:title="Disconnect a exec connection. ">
<polygon fill="#ffffff" stroke="#000000" points="380,-165 380,-184 490,-184 490,-165 380,-165"/>
<text text-anchor="middle" x="435" y="-172" font-family="Helvetica,sans-Serif" font-size="10.00" fill="#000000">chig::disconnectExec</text>
</a>
</g>
</g>
<!-- Node35&#45;&gt;Node64 -->
<g id="edge37" class="edge">
<title>Node35&#45;&gt;Node64</title>
<path fill="none" stroke="#191970" d="M298.9588,-201.0106C326.782,-195.5886 359.5957,-189.1942 386.0248,-184.0439"/>
<polygon fill="#191970" stroke="#191970" points="298.1009,-197.6118 288.955,-202.96 299.4399,-204.4826 298.1009,-197.6118"/>
</g>
<!-- Node37 -->
<g id="node4" class="node">
<title>Node37</title>
<g id="a_node4"><a xlink:href="namespacechig.html#afccf44a2370371aae836862d9731155e" target="_top" xlink:title="Validate that a function is compilable. ">
<polygon fill="#ffffff" stroke="#000000" points="554,-285 554,-304 666,-304 666,-285 554,-285"/>
<text text-anchor="middle" x="610" y="-292" font-family="Helvetica,sans-Serif" font-size="10.00" fill="#000000">chig::validateFunction</text>
</a>
</g>
</g>
<!-- Node36&#45;&gt;Node37 -->
<g id="edge3" class="edge">
<title>Node36&#45;&gt;Node37</title>
<path fill="none" stroke="#191970" d="M528.2692,-294.5C536.8825,-294.5 545.421,-294.5 553.5487,-294.5"/>
<polygon fill="#191970" stroke="#191970" points="528.1437,-291.0001 518.1437,-294.5 528.1437,-298.0001 528.1437,-291.0001"/>
</g>
<!-- Node38 -->
<g id="node5" class="node">
<title>Node38</title>
<g id="a_node5"><a xlink:href="namespacechig.html#a4f26546c4bc76c31cc822d0365be0f30" target="_top" xlink:title="Compile the graph to an llvm::Function (usually called from JsonModule::generateModule) ...">
<polygon fill="#ffffff" stroke="#000000" points="713,-285 713,-304 825,-304 825,-285 713,-285"/>
<text text-anchor="middle" x="769" y="-292" font-family="Helvetica,sans-Serif" font-size="10.00" fill="#000000">chig::compileFunction</text>
</a>
</g>
</g>
<!-- Node37&#45;&gt;Node38 -->
<g id="edge4" class="edge">
<title>Node37&#45;&gt;Node38</title>
<path fill="none" stroke="#191970" d="M676.186,-294.5C688.3959,-294.5 701.037,-294.5 712.9128,-294.5"/>
<polygon fill="#191970" stroke="#191970" points="676.0575,-291.0001 666.0575,-294.5 676.0574,-298.0001 676.0575,-291.0001"/>
</g>
<!-- Node39 -->
<g id="node6" class="node">
<title>Node39</title>
<g id="a_node6"><a xlink:href="structchig_1_1GraphModule.html#a4c3a1ba833c0bd7e9a3daf0fd42eb6c6" target="_top" xlink:title="Generate a llvm::Module from the module. ">
<polygon fill="#ffffff" stroke="#000000" points="885.5,-279.5 885.5,-309.5 989.5,-309.5 989.5,-279.5 885.5,-279.5"/>
<text text-anchor="start" x="893.5" y="-297.5" font-family="Helvetica,sans-Serif" font-size="10.00" fill="#000000">chig::GraphModule::</text>
<text text-anchor="middle" x="937.5" y="-286.5" font-family="Helvetica,sans-Serif" font-size="10.00" fill="#000000">generateModule</text>
</a>
</g>
</g>
<!-- Node38&#45;&gt;Node39 -->
<g id="edge5" class="edge">
<title>Node38&#45;&gt;Node39</title>
<path fill="none" stroke="#191970" d="M835.3043,-294.5C851.9224,-294.5 869.5174,-294.5 885.3377,-294.5"/>
<polygon fill="#191970" stroke="#191970" points="835.1081,-291.0001 825.1081,-294.5 835.108,-298.0001 835.1081,-291.0001"/>
</g>
<!-- Node41 -->
<g id="node8" class="node">
<title>Node41</title>
<g id="a_node8"><a xlink:href="namespacechig.html#a62056798e67720d435705b99f7e16cd0" target="_top" xlink:title="Load a GraphFunction–must already exist (use createGraphFunctionDeclarationFromJson) ...">
<polygon fill="#ffffff" stroke="#000000" points="702,-225 702,-244 836,-244 836,-225 702,-225"/>
<text text-anchor="middle" x="769" y="-232" font-family="Helvetica,sans-Serif" font-size="10.00" fill="#000000">chig::jsonToGraphFunction</text>
</a>
</g>
</g>
<!-- Node40&#45;&gt;Node41 -->
<g id="edge7" class="edge">
<title>Node40&#45;&gt;Node41</title>
<path fill="none" stroke="#191970" d="M667.7098,-220.485C678.8222,-222.0226 690.5502,-223.6453 701.9297,-225.2198"/>
<polygon fill="#191970" stroke="#191970" points="668.0906,-217.0044 657.7052,-219.1007 667.1311,-223.9384 668.0906,-217.0044"/>
</g>
<!-- Node51 -->
<g id="node18" class="node">
<title>Node51</title>
<g id="a_node18"><a xlink:href="structchig_1_1NodeInstance.html#acb8bab6d96bbfa9facdfb5aca22d43a1" target="_top" xlink:title="Get the containing GraphModule. ">
<polygon fill="#ffffff" stroke="#000000" points="718.5,-167.5 718.5,-197.5 819.5,-197.5 819.5,-167.5 718.5,-167.5"/>
<text text-anchor="start" x="726.5" y="-185.5" font-family="Helvetica,sans-Serif" font-size="10.00" fill="#000000">chig::NodeInstance</text>
<text text-anchor="middle" x="769" y="-174.5" font-family="Helvetica,sans-Serif" font-size="10.00" fill="#000000">::module</text>
</a>
</g>
</g>
<!-- Node40&#45;&gt;Node51 -->
<g id="edge17" class="edge">
<title>Node40&#45;&gt;Node51</title>
<path fill="none" stroke="#191970" d="M667.7949,-201.5953C684.3264,-198.4761 702.214,-195.1011 718.2867,-192.0685"/>
<polygon fill="#191970" stroke="#191970" points="666.8829,-198.2055 657.7052,-203.499 668.1808,-205.0842 666.8829,-198.2055"/>
</g>
<!-- Node42 -->
<g id="node9" class="node">
<title>Node42</title>
<g id="a_node9"><a xlink:href="namespacechig.html#a3b1bc50c9d7b3cdb17ffcb3ad602f7ab" target="_top" xlink:title="Load a GraphModule from json. ">
<polygon fill="#ffffff" stroke="#000000" points="873.5,-225 873.5,-244 1001.5,-244 1001.5,-225 873.5,-225"/>
<text text-anchor="middle" x="937.5" y="-232" font-family="Helvetica,sans-Serif" font-size="10.00" fill="#000000">chig::jsonToGraphModule</text>
</a>
</g>
</g>
<!-- Node41&#45;&gt;Node42 -->
<g id="edge8" class="edge">
<title>Node41&#45;&gt;Node42</title>
<path fill="none" stroke="#191970" d="M846.2597,-234.5C855.3372,-234.5 864.5237,-234.5 873.3937,-234.5"/>
<polygon fill="#191970" stroke="#191970" points="846.0799,-231.0001 836.0798,-234.5 846.0798,-238.0001 846.0799,-231.0001"/>
</g>
<!-- Node43 -->
<g id="node10" class="node">
<title>Node43</title>
<g id="a_node10"><a xlink:href="structchig_1_1Context.html#a077f8ef8c0dd541ec2e2d64bcd8f9fc0" target="_top" xlink:title="Load a module from JSON – avoid this use the string overload. ">
<polygon fill="#ffffff" stroke="#000000" points="1049,-219.5 1049,-249.5 1177,-249.5 1177,-219.5 1049,-219.5"/>
<text text-anchor="start" x="1057" y="-237.5" font-family="Helvetica,sans-Serif" font-size="10.00" fill="#000000">chig::Context::addModule</text>
<text text-anchor="middle" x="1113" y="-226.5" font-family="Helvetica,sans-Serif" font-size="10.00" fill="#000000">FromJson</text>
</a>
</g>
</g>
<!-- Node42&#45;&gt;Node43 -->
<g id="edge9" class="edge">
<title>Node42&#45;&gt;Node43</title>
<path fill="none" stroke="#191970" d="M1012.0588,-234.5C1024.3329,-234.5 1036.9594,-234.5 1048.9479,-234.5"/>
<polygon fill="#191970" stroke="#191970" points="1011.8532,-231.0001 1001.8532,-234.5 1011.8531,-238.0001 1011.8532,-231.0001"/>
</g>
<!-- Node44 -->
<g id="node11" class="node">
<title>Node44</title>
<g id="a_node11"><a xlink:href="structchig_1_1Context.html#a75ab64b58e168998761ed6ebd5e493b2" target="_top" xlink:title="Load a module from disk. ">
<polygon fill="#ffffff" stroke="#000000" points="1223,-203 1223,-222 1353,-222 1353,-203 1223,-203"/>
<text text-anchor="middle" x="1288" y="-210" font-family="Helvetica,sans-Serif" font-size="10.00" fill="#000000">chig::Context::loadModule</text>
</a>
</g>
</g>
<!-- Node43&#45;&gt;Node44 -->
<g id="edge10" class="edge">
<title>Node43&#45;&gt;Node44</title>
<path fill="none" stroke="#191970" d="M1187.4423,-225.1415C1199.2521,-223.6569 1211.3866,-222.1314 1222.9589,-220.6766"/>
<polygon fill="#191970" stroke="#191970" points="1186.6552,-221.7129 1177.1698,-226.4329 1187.5283,-228.6582 1186.6552,-221.7129"/>
</g>
<!-- Node45 -->
<g id="node12" class="node">
<title>Node45</title>
<g id="a_node12"><a xlink:href="structchig_1_1ChigModule.html#ad5feee65f261f3777edddd027eb89400" target="_top" xlink:title="Add a dependency to the module Loads the module from context() if it isn&#39;t already loaded...">
<polygon fill="#ffffff" stroke="#000000" points="1389,-191 1389,-210 1556,-210 1556,-191 1389,-191"/>
<text text-anchor="middle" x="1472.5" y="-198" font-family="Helvetica,sans-Serif" font-size="10.00" fill="#000000">chig::ChigModule::addDependency</text>
</a>
</g>
</g>
<!-- Node44&#45;&gt;Node45 -->
<g id="edge11" class="edge">
<title>Node44&#45;&gt;Node45</title>
<path fill="none" stroke="#191970" d="M1363.2627,-207.6049C1371.734,-207.0539 1380.4033,-206.49 1388.9713,-205.9328"/>
<polygon fill="#191970" stroke="#191970" points="1362.7995,-204.1275 1353.0478,-208.2692 1363.2539,-211.1127 1362.7995,-204.1275"/>
</g>
<!-- Node46 -->
<g id="node13" class="node">
<title>Node46</title>
<g id="a_node13"><a xlink:href="structchig_1_1ChigModule.html#a7f239dc07b0a4d74d6907da6f25127dc" target="_top" xlink:title="Get the dependencies. ">
<polygon fill="#ffffff" stroke="#000000" points="1592,-145 1592,-164 1750,-164 1750,-145 1592,-145"/>
<text text-anchor="middle" x="1671" y="-152" font-family="Helvetica,sans-Serif" font-size="10.00" fill="#000000">chig::ChigModule::dependencies</text>
</a>
</g>
</g>
<!-- Node45&#45;&gt;Node46 -->
<g id="edge12" class="edge">
<title>Node45&#45;&gt;Node46</title>
<path fill="none" stroke="#191970" d="M1523.5595,-188.6676C1556.6053,-181.0096 1599.0629,-171.1706 1629.9234,-164.019"/>
<polygon fill="#191970" stroke="#191970" points="1522.581,-185.3015 1513.6293,-190.9688 1524.1613,-192.1208 1522.581,-185.3015"/>
</g>
<!-- Node50 -->
<g id="node17" class="node">
<title>Node50</title>
<g id="a_node17"><a xlink:href="structchig_1_1GraphModule.html#a65458343d0344b6b806f9b0b780b32f4" target="_top" xlink:title="Construct a GraphModule. ">
<polygon fill="#ffffff" stroke="#000000" points="1619,-185.5 1619,-215.5 1723,-215.5 1723,-185.5 1619,-185.5"/>
<text text-anchor="start" x="1627" y="-203.5" font-family="Helvetica,sans-Serif" font-size="10.00" fill="#000000">chig::GraphModule::</text>
<text text-anchor="middle" x="1671" y="-192.5" font-family="Helvetica,sans-Serif" font-size="10.00" fill="#000000">GraphModule</text>
</a>
</g>
</g>
<!-- Node45&#45;&gt;Node50 -->
<g id="edge16" class="edge">
<title>Node45&#45;&gt;Node50</title>
<path fill="none" stroke="#191970" d="M1566.1462,-200.5C1584.2917,-200.5 1602.6879,-200.5 1618.8981,-200.5"/>
<polygon fill="#191970" stroke="#191970" points="1566.1066,-197.0001 1556.1066,-200.5 1566.1065,-204.0001 1566.1066,-197.0001"/>
</g>
<!-- Node47 -->
<g id="node14" class="node">
<title>Node47</title>
<g id="a_node14"><a xlink:href="structchig_1_1Context.html#ac585794db13b27b3f69a51aa9d7fd01c" target="_top" xlink:title="Compile a module to a llvm::Module. ">
<polygon fill="#ffffff" stroke="#000000" points="1786,-145 1786,-164 1932,-164 1932,-145 1786,-145"/>
<text text-anchor="middle" x="1859" y="-152" font-family="Helvetica,sans-Serif" font-size="10.00" fill="#000000">chig::Context::compileModule</text>
</a>
</g>
</g>
<!-- Node46&#45;&gt;Node47 -->
<g id="edge13" class="edge">
<title>Node46&#45;&gt;Node47</title>
<path fill="none" stroke="#191970" d="M1760.2342,-154.5C1768.831,-154.5 1777.4811,-154.5 1785.8959,-154.5"/>
<polygon fill="#191970" stroke="#191970" points="1760.1841,-151.0001 1750.184,-154.5 1760.184,-158.0001 1760.1841,-151.0001"/>
</g>
<!-- Node48 -->
<g id="node15" class="node">
<title>Node48</title>
<g id="a_node15"><a xlink:href="namespacechig.html#aaef3bb08f472ae32b2d3b292e69a007a" target="_top" xlink:title="Serialize a JsonModule to json. ">
<polygon fill="#ffffff" stroke="#000000" points="1795,-104 1795,-123 1923,-123 1923,-104 1795,-104"/>
<text text-anchor="middle" x="1859" y="-111" font-family="Helvetica,sans-Serif" font-size="10.00" fill="#000000">chig::graphModuleToJson</text>
</a>
</g>
</g>
<!-- Node46&#45;&gt;Node48 -->
<g id="edge14" class="edge">
<title>Node46&#45;&gt;Node48</title>
<path fill="none" stroke="#191970" d="M1724.486,-142.8355C1753.2279,-136.5673 1788.2189,-128.9363 1815.3077,-123.0286"/>
<polygon fill="#191970" stroke="#191970" points="1723.6281,-139.4403 1714.6035,-144.9907 1725.1197,-146.2795 1723.6281,-139.4403"/>
</g>
<!-- Node49 -->
<g id="node16" class="node">
<title>Node49</title>
<g id="a_node16"><a xlink:href="structchig_1_1GraphModule.html#accb1a64da697a29e28d78a9a09bd52ff" target="_top" xlink:title="Serialize to disk in the context. ">
<polygon fill="#ffffff" stroke="#000000" points="1968,-98.5 1968,-128.5 2072,-128.5 2072,-98.5 1968,-98.5"/>
<text text-anchor="start" x="1976" y="-116.5" font-family="Helvetica,sans-Serif" font-size="10.00" fill="#000000">chig::GraphModule::</text>
<text text-anchor="middle" x="2020" y="-105.5" font-family="Helvetica,sans-Serif" font-size="10.00" fill="#000000">saveToDisk</text>
</a>
</g>
</g>
<!-- Node48&#45;&gt;Node49 -->
<g id="edge15" class="edge">
<title>Node48&#45;&gt;Node49</title>
<path fill="none" stroke="#191970" d="M1933.2614,-113.5C1944.9107,-113.5 1956.7352,-113.5 1967.7514,-113.5"/>
<polygon fill="#191970" stroke="#191970" points="1933.0941,-110.0001 1923.0941,-113.5 1933.094,-117.0001 1933.0941,-110.0001"/>
</g>
<!-- Node52 -->
<g id="node19" class="node">
<title>Node52</title>
<g id="a_node19"><a xlink:href="classchig_1_1Debugger.html#ae6e3f0998c8c53ebc4fb273996ba4907" target="_top" xlink:title="Set a breakpoint on a given node. ">
<polygon fill="#ffffff" stroke="#000000" points="1039,-181 1039,-200 1187,-200 1187,-181 1039,-181"/>
<text text-anchor="middle" x="1113" y="-188" font-family="Helvetica,sans-Serif" font-size="10.00" fill="#000000">chig::Debugger::setBreakpoint</text>
</a>
</g>
</g>
<!-- Node51&#45;&gt;Node52 -->
<g id="edge18" class="edge">
<title>Node51&#45;&gt;Node52</title>
<path fill="none" stroke="#191970" d="M829.9335,-183.9171C888.2782,-185.2739 976.4139,-187.3236 1038.817,-188.7748"/>
<polygon fill="#191970" stroke="#191970" points="829.8371,-180.414 819.7584,-183.6804 829.6743,-187.4121 829.8371,-180.414"/>
</g>
<!-- Node54 -->
<g id="node21" class="node">
<title>Node54</title>
<g id="a_node21"><a xlink:href="classchig_1_1Debugger.html#a0a1845b9f4c58bf2d989431ad3b82fc4" target="_top" xlink:title="Get a NodeInstance from a frame. ">
<polygon fill="#ffffff" stroke="#000000" points="872,-131.5 872,-161.5 1003,-161.5 1003,-131.5 872,-131.5"/>
<text text-anchor="start" x="880" y="-149.5" font-family="Helvetica,sans-Serif" font-size="10.00" fill="#000000">chig::Debugger::nodeFrom</text>
<text text-anchor="middle" x="937.5" y="-138.5" font-family="Helvetica,sans-Serif" font-size="10.00" fill="#000000">Frame</text>
</a>
</g>
</g>
<!-- Node51&#45;&gt;Node54 -->
<g id="edge20" class="edge">
<title>Node51&#45;&gt;Node54</title>
<path fill="none" stroke="#191970" d="M829.4235,-169.5905C843.234,-166.6399 857.9752,-163.4905 871.9879,-160.4966"/>
<polygon fill="#191970" stroke="#191970" points="828.6036,-166.1866 819.5556,-171.6988 830.0662,-173.0321 828.6036,-166.1866"/>
</g>
<!-- Node53 -->
<g id="node20" class="node">
<title>Node53</title>
<g id="a_node20"><a xlink:href="classchig_1_1Debugger.html#a9c77e0119f3b81fabce49ea20879fd33" target="_top" xlink:title="Check if the process is executing. ">
<polygon fill="#ffffff" stroke="#000000" points="1228.5,-143 1228.5,-162 1347.5,-162 1347.5,-143 1228.5,-143"/>
<text text-anchor="middle" x="1288" y="-150" font-family="Helvetica,sans-Serif" font-size="10.00" fill="#000000">chig::Debugger::running</text>
</a>
</g>
</g>
<!-- Node52&#45;&gt;Node53 -->
<g id="edge19" class="edge">
<title>Node52&#45;&gt;Node53</title>
<path fill="none" stroke="#191970" d="M1167.1237,-178.7474C1191.8687,-173.3742 1220.8028,-167.0914 1244.1577,-162.0201"/>
<polygon fill="#191970" stroke="#191970" points="1166.1894,-175.3686 1157.1599,-180.911 1167.6749,-182.2092 1166.1894,-175.3686"/>
</g>
<!-- Node54&#45;&gt;Node53 -->
<g id="edge23" class="edge">
<title>Node54&#45;&gt;Node53</title>
<path fill="none" stroke="#191970" d="M1013.1199,-147.7945C1077.5769,-148.8979 1168.9602,-150.4622 1228.3567,-151.479"/>
<polygon fill="#191970" stroke="#191970" points="1013.0737,-144.2933 1003.0152,-147.6215 1012.9538,-151.2923 1013.0737,-144.2933"/>
</g>
<!-- Node55 -->
<g id="node22" class="node">
<title>Node55</title>
<g id="a_node22"><a xlink:href="classchig_1_1Debugger.html#a4cb57c7595304ab8f85144e4fc24ae94" target="_top" xlink:title="Get the output of a node. ">
<polygon fill="#ffffff" stroke="#000000" points="1042,-93.5 1042,-123.5 1184,-123.5 1184,-93.5 1042,-93.5"/>
<text text-anchor="start" x="1050" y="-111.5" font-family="Helvetica,sans-Serif" font-size="10.00" fill="#000000">chig::Debugger::inspectNode</text>
<text text-anchor="middle" x="1113" y="-100.5" font-family="Helvetica,sans-Serif" font-size="10.00" fill="#000000">Output</text>
</a>
</g>
</g>
<!-- Node54&#45;&gt;Node55 -->
<g id="edge21" class="edge">
<title>Node54&#45;&gt;Node55</title>
<path fill="none" stroke="#191970" d="M1013.308,-130.0857C1023.3579,-127.9097 1033.6208,-125.6875 1043.556,-123.5363"/>
<polygon fill="#191970" stroke="#191970" points="1012.3819,-126.7051 1003.349,-132.2421 1013.8633,-133.5465 1012.3819,-126.7051"/>
</g>
<!-- Node55&#45;&gt;Node53 -->
<g id="edge22" class="edge">
<title>Node55&#45;&gt;Node53</title>
<path fill="none" stroke="#191970" d="M1182.4991,-125.9741C1205.5763,-131.7763 1230.3995,-138.0176 1250.1665,-142.9876"/>
<polygon fill="#191970" stroke="#191970" points="1183.2872,-122.5634 1172.7356,-123.5192 1181.5803,-129.3521 1183.2872,-122.5634"/>
</g>
<!-- Node56&#45;&gt;Node41 -->
<g id="edge25" class="edge">
<title>Node56&#45;&gt;Node41</title>
<path fill="none" stroke="#191970" d="M669.0305,-244.5598C679.6866,-243.4875 690.8691,-242.3622 701.7389,-241.2684"/>
<polygon fill="#191970" stroke="#191970" points="668.6019,-241.0852 659.0026,-245.5689 669.3028,-248.05 668.6019,-241.0852"/>
</g>
<!-- Node56&#45;&gt;Node51 -->
<g id="edge26" class="edge">
<title>Node56&#45;&gt;Node51</title>
<path fill="none" stroke="#191970" d="M649.8681,-237.6144C655.3257,-235.6643 660.8274,-233.5995 666,-231.5 679.8531,-225.8772 713.1992,-209.8397 738.2229,-197.6298"/>
<polygon fill="#191970" stroke="#191970" points="648.4697,-234.395 640.1726,-240.9835 650.7674,-241.0071 648.4697,-234.395"/>
</g>
<!-- Node57&#45;&gt;Node40 -->
<g id="edge28" class="edge">
<title>Node57&#45;&gt;Node40</title>
<path fill="none" stroke="#191970" d="M484.0083,-142.9374C495.3783,-146.4564 507.2832,-150.6675 518,-155.5 547.8036,-168.9391 579.5946,-190.442 596.9029,-202.8385"/>
<polygon fill="#191970" stroke="#191970" points="484.78,-139.5156 474.1975,-140.025 482.7879,-146.2262 484.78,-139.5156"/>
</g>
<!-- Node57&#45;&gt;Node51 -->
<g id="edge29" class="edge">
<title>Node57&#45;&gt;Node51</title>
<path fill="none" stroke="#191970" d="M469.8759,-117.8059C515.9657,-103.0172 599.1346,-83.2693 666,-105.5 702.6521,-117.6857 736.8047,-148.5661 755.0977,-167.3091"/>
<polygon fill="#191970" stroke="#191970" points="468.7416,-114.4945 460.3503,-120.9627 470.9437,-121.1392 468.7416,-114.4945"/>
</g>
<!-- Node58 -->
<g id="node25" class="node">
<title>Node58</title>
<g id="a_node25"><a xlink:href="structchig_1_1GraphFunction.html#a398599d8fe1982a3c76462b1b2375a6e" target="_top" xlink:title="Remove a node from the function. ">
<polygon fill="#ffffff" stroke="#000000" points="558,-27.5 558,-57.5 662,-57.5 662,-27.5 558,-27.5"/>
<text text-anchor="start" x="566" y="-45.5" font-family="Helvetica,sans-Serif" font-size="10.00" fill="#000000">chig::GraphFunction</text>
<text text-anchor="middle" x="610" y="-34.5" font-family="Helvetica,sans-Serif" font-size="10.00" fill="#000000">::removeNode</text>
</a>
</g>
</g>
<!-- Node57&#45;&gt;Node58 -->
<g id="edge30" class="edge">
<title>Node57&#45;&gt;Node58</title>
<path fill="none" stroke="#191970" d="M463.3063,-116.266C495.2903,-100.1826 547.1419,-74.1086 579.862,-57.6551"/>
<polygon fill="#191970" stroke="#191970" points="461.4228,-113.2954 454.0612,-120.9149 464.5677,-119.5493 461.4228,-113.2954"/>
</g>
<!-- Node63 -->
<g id="node30" class="node">
<title>Node63</title>
<g id="a_node30"><a xlink:href="structchig_1_1NodeInstance.html#ab7b23fb84fff7176f7a6e62ce3762153" target="_top" xlink:title="Set the type of the node instance. ">
<polygon fill="#ffffff" stroke="#000000" points="559.5,-115.5 559.5,-145.5 660.5,-145.5 660.5,-115.5 559.5,-115.5"/>
<text text-anchor="start" x="567.5" y="-133.5" font-family="Helvetica,sans-Serif" font-size="10.00" fill="#000000">chig::NodeInstance</text>
<text text-anchor="middle" x="610" y="-122.5" font-family="Helvetica,sans-Serif" font-size="10.00" fill="#000000">::setType</text>
</a>
</g>
</g>
<!-- Node57&#45;&gt;Node63 -->
<g id="edge36" class="edge">
<title>Node57&#45;&gt;Node63</title>
<path fill="none" stroke="#191970" d="M499.5758,-130.5C519.3502,-130.5 540.805,-130.5 559.4983,-130.5"/>
<polygon fill="#191970" stroke="#191970" points="499.4118,-127.0001 489.4118,-130.5 499.4118,-134.0001 499.4118,-127.0001"/>
</g>
<!-- Node59 -->
<g id="node26" class="node">
<title>Node59</title>
<g id="a_node26"><a xlink:href="structchig_1_1GraphFunction.html#aed770126edca8a167de5e44582e646de" target="_top" xlink:title="chig::GraphFunction\l::nodes">
<polygon fill="#ffffff" stroke="#000000" points="717,-.5 717,-30.5 821,-30.5 821,-.5 717,-.5"/>
<text text-anchor="start" x="725" y="-18.5" font-family="Helvetica,sans-Serif" font-size="10.00" fill="#000000">chig::GraphFunction</text>
<text text-anchor="middle" x="769" y="-7.5" font-family="Helvetica,sans-Serif" font-size="10.00" fill="#000000">::nodes</text>
</a>
</g>
</g>
<!-- Node58&#45;&gt;Node59 -->
<g id="edge31" class="edge">
<title>Node58&#45;&gt;Node59</title>
<path fill="none" stroke="#191970" d="M672.134,-31.9489C686.9146,-29.439 702.5373,-26.7861 716.8205,-24.3607"/>
<polygon fill="#191970" stroke="#191970" points="671.3354,-28.5344 662.0625,-33.6592 672.5074,-35.4356 671.3354,-28.5344"/>
</g>
<!-- Node60 -->
<g id="node27" class="node">
<title>Node60</title>
<g id="a_node27"><a xlink:href="structchig_1_1GraphFunction.html#a3e78eef24b40dd2a1b03e58ba96ebccd" target="_top" xlink:title="Remove a local variable from the function by name. ">
<polygon fill="#ffffff" stroke="#000000" points="881,-44.5 881,-74.5 994,-74.5 994,-44.5 881,-44.5"/>
<text text-anchor="start" x="889" y="-62.5" font-family="Helvetica,sans-Serif" font-size="10.00" fill="#000000">chig::GraphFunction</text>
<text text-anchor="middle" x="937.5" y="-51.5" font-family="Helvetica,sans-Serif" font-size="10.00" fill="#000000">::removeLocalVariable</text>
</a>
</g>
</g>
<!-- Node58&#45;&gt;Node60 -->
<g id="edge32" class="edge">
<title>Node58&#45;&gt;Node60</title>
<path fill="none" stroke="#191970" d="M672.3732,-45.7377C732.4777,-48.8576 822.6234,-53.5369 880.7581,-56.5546"/>
<polygon fill="#191970" stroke="#191970" points="672.4235,-42.2357 662.2555,-45.2125 672.0606,-49.2263 672.4235,-42.2357"/>
</g>
<!-- Node61 -->
<g id="node28" class="node">
<title>Node61</title>
<g id="a_node28"><a xlink:href="structchig_1_1GraphFunction.html#a72a81861d1331948804b2a267598ec79" target="_top" xlink:title="Get the local variables. ">
<polygon fill="#ffffff" stroke="#000000" points="1061,-44.5 1061,-74.5 1165,-74.5 1165,-44.5 1061,-44.5"/>
<text text-anchor="start" x="1069" y="-62.5" font-family="Helvetica,sans-Serif" font-size="10.00" fill="#000000">chig::GraphFunction</text>
<text text-anchor="middle" x="1113" y="-51.5" font-family="Helvetica,sans-Serif" font-size="10.00" fill="#000000">::localVariables</text>
</a>
</g>
</g>
<!-- Node60&#45;&gt;Node61 -->
<g id="edge33" class="edge">
<title>Node60&#45;&gt;Node61</title>
<path fill="none" stroke="#191970" d="M1004.6533,-59.5C1023.2489,-59.5 1043.1524,-59.5 1060.761,-59.5"/>
<polygon fill="#191970" stroke="#191970" points="1004.4799,-56.0001 994.4798,-59.5 1004.4798,-63.0001 1004.4799,-56.0001"/>
</g>
<!-- Node62 -->
<g id="node29" class="node">
<title>Node62</title>
<g id="a_node29"><a xlink:href="namespacechig.html#ad0fd9448ab1cd1d73351fad5967a7b9b" target="_top" xlink:title="Serialize a GraphFunction to json. ">
<polygon fill="#ffffff" stroke="#000000" points="1405.5,-86 1405.5,-105 1539.5,-105 1539.5,-86 1405.5,-86"/>
<text text-anchor="middle" x="1472.5" y="-93" font-family="Helvetica,sans-Serif" font-size="10.00" fill="#000000">chig::graphFunctionToJson</text>
</a>
</g>
</g>
<!-- Node61&#45;&gt;Node62 -->
<g id="edge34" class="edge">
<title>Node61&#45;&gt;Node62</title>
<path fill="none" stroke="#191970" d="M1175.2734,-65.736C1239.549,-72.1725 1339.4823,-82.1797 1405.4571,-88.7864"/>
<polygon fill="#191970" stroke="#191970" points="1175.5734,-62.2486 1165.2744,-64.7347 1174.8758,-69.2138 1175.5734,-62.2486"/>
</g>
<!-- Node62&#45;&gt;Node48 -->
<g id="edge35" class="edge">
<title>Node62&#45;&gt;Node48</title>
<path fill="none" stroke="#191970" d="M1550.1669,-99.1171C1621.9885,-102.462 1727.4812,-107.3749 1794.696,-110.5052"/>
<polygon fill="#191970" stroke="#191970" points="1549.9752,-95.6045 1539.8232,-98.6354 1549.6495,-102.5969 1549.9752,-95.6045"/>
</g>
<!-- Node64&#45;&gt;Node51 -->
<g id="edge39" class="edge">
<title>Node64&#45;&gt;Node51</title>
<path fill="none" stroke="#191970" d="M500.5135,-176.0692C564.3955,-177.5993 660.1925,-179.8938 718.4172,-181.2884"/>
<polygon fill="#191970" stroke="#191970" points="500.2343,-172.5616 490.1533,-175.821 500.0666,-179.5596 500.2343,-172.5616"/>
</g>
<!-- Node64&#45;&gt;Node56 -->
<g id="edge38" class="edge">
<title>Node64&#45;&gt;Node56</title>
<path fill="none" stroke="#191970" d="M462.3873,-188.7727C486.2394,-200.9226 521.9301,-218.4336 554,-231.5 562.2717,-234.8702 571.3889,-238.1441 579.8215,-240.9979"/>
<polygon fill="#191970" stroke="#191970" points="463.7381,-185.532 453.243,-184.0816 460.543,-191.7603 463.7381,-185.532"/>
</g>
<!-- Node64&#45;&gt;Node58 -->
<g id="edge40" class="edge">
<title>Node64&#45;&gt;Node58</title>
<path fill="none" stroke="#191970" d="M493.7531,-161.6078C502.2695,-158.3972 510.6348,-154.4188 518,-149.5 539.012,-135.4673 537.6033,-124.7242 554,-105.5 568.1497,-88.9102 584.7989,-70.2901 596.2446,-57.623"/>
<polygon fill="#191970" stroke="#191970" points="492.4405,-158.3578 484.119,-164.9154 494.7136,-164.9785 492.4405,-158.3578"/>
</g>
<!-- Node64&#45;&gt;Node63 -->
<g id="edge41" class="edge">
<title>Node64&#45;&gt;Node63</title>
<path fill="none" stroke="#191970" d="M482.8313,-162.4739C506.6085,-156.4956 535.3432,-149.2709 559.4782,-143.2026"/>
<polygon fill="#191970" stroke="#191970" points="481.8171,-159.1198 472.9724,-164.9527 483.524,-165.9085 481.8171,-159.1198"/>
</g>
</g>
</svg>
        <g id="navigator" transform="translate(0 0)" fill="#404254">
                <rect fill="#f2f5e9" fill-opacity="0.5" stroke="#606060" stroke-width=".5" x="0" y="0" width="60" height="60"/>
                <use id="zoomplus" xlink:href="#zoomPlus" x="17" y="9" onmousedown="handleZoom(evt,'in')"/>
                <use id="zoomminus" xlink:href="#zoomMin" x="42" y="9" onmousedown="handleZoom(evt,'out')"/>
                <use id="reset" xlink:href="#resetDef" x="30" y="36" onmousedown="handleReset()"/>
                <g id="arrowUp" xlink:href="#dirArrow" transform="translate(30 24)" onmousedown="handlePan(0,-1)">
                  <use xlink:href="#rim" fill="#404040">
                        <set attributeName="fill" to="#808080" begin="arrowUp.mouseover" end="arrowUp.mouseout"/>
                  </use>
                  <path fill="none" stroke="white" stroke-width="1.5" d="M0,-3.0v7 M-2.5,-0.5L0,-3.0L2.5,-0.5"/>
                </g>
                <g id="arrowRight" xlink:href="#dirArrow" transform="rotate(90) translate(36 -43)" onmousedown="handlePan(1,0)">
                  <use xlink:href="#rim" fill="#404040">
                        <set attributeName="fill" to="#808080" begin="arrowRight.mouseover" end="arrowRight.mouseout"/>
                  </use>
                  <path fill="none" stroke="white" stroke-width="1.5" d="M0,-3.0v7 M-2.5,-0.5L0,-3.0L2.5,-0.5"/>
                </g>
                <g id="arrowDown" xlink:href="#dirArrow" transform="rotate(180) translate(-30 -48)" onmousedown="handlePan(0,1)">
                  <use xlink:href="#rim" fill="#404040">
                        <set attributeName="fill" to="#808080" begin="arrowDown.mouseover" end="arrowDown.mouseout"/>
                  </use>
                  <path fill="none" stroke="white" stroke-width="1.5" d="M0,-3.0v7 M-2.5,-0.5L0,-3.0L2.5,-0.5"/>
                </g>
                <g id="arrowLeft" xlink:href="#dirArrow" transform="rotate(270) translate(-36 17)" onmousedown="handlePan(-1,0)">
                  <use xlink:href="#rim" fill="#404040">
                        <set attributeName="fill" to="#808080" begin="arrowLeft.mouseover" end="arrowLeft.mouseout"/>
                  </use>
                  <path fill="none" stroke="white" stroke-width="1.5" d="M0,-3.0v7 M-2.5,-0.5L0,-3.0L2.5,-0.5"/>
                </g>
        </g>
        <svg viewBox="0 0 15 15" width="100%" height="30px" preserveAspectRatio="xMaxYMin meet">
         <g id="arrow_out" transform="scale(0.3 0.3)">
          <a xlink:href="structchig_1_1NodeType_a07fe116ce84fbf50afd292e82203aedf_icgraph_org.svg" target="_base">
           <rect id="button" ry="5" rx="5" y="6" x="6" height="38" width="38"
                fill="#f2f5e9" fill-opacity="0.5" stroke="#606060" stroke-width="1.0"/>
           <path id="arrow"
             d="M 11.500037,31.436501 C 11.940474,20.09759 22.043105,11.32322 32.158766,21.979434 L 37.068811,17.246167 C 37.068811,17.246167 37.088388,32 37.088388,32 L 22.160133,31.978069 C 22.160133,31.978069 26.997745,27.140456 26.997745,27.140456 C 18.528582,18.264221 13.291696,25.230495 11.500037,31.436501 z"
             style="fill:#404040;"/>
          </a>
         </g>
        </svg>
</svg>
