<?xml version="1.0" encoding="UTF-8" standalone="no"?>
<!DOCTYPE svg PUBLIC "-//W3C//DTD SVG 1.1//EN"
 "http://www.w3.org/Graphics/SVG/1.1/DTD/svg11.dtd">
<!-- Generated by graphviz version 2.40.1 (20161225.0304)
 -->
<!-- Title: chig::GraphModule::createLineNumberAssoc Pages: 1 -->
<svg width="760pt" height="97pt"
 viewBox="0.00 0.00 760.00 97.14" xmlns="http://www.w3.org/2000/svg" xmlns:xlink="http://www.w3.org/1999/xlink">
<g id="graph0" class="graph" transform="scale(1 1) rotate(0) translate(4 93.1389)">
<title>chig::GraphModule::createLineNumberAssoc</title>
<polygon fill="#ffffff" stroke="transparent" points="-4,4 -4,-93.1389 756,-93.1389 756,4 -4,4"/>
<!-- Node34 -->
<g id="node1" class="node">
<title>Node34</title>
<polygon fill="#bfbfbf" stroke="#000000" points="0,-44.5 0,-74.5 135,-74.5 135,-44.5 0,-44.5"/>
<text text-anchor="start" x="8" y="-62.5" font-family="Helvetica,sans-Serif" font-size="10.00" fill="#000000">chig::GraphModule::</text>
<text text-anchor="middle" x="67.5" y="-51.5" font-family="Helvetica,sans-Serif" font-size="10.00" fill="#000000">createLineNumberAssoc</text>
</g>
<!-- Node35 -->
<g id="node2" class="node">
<title>Node35</title>
<g id="a_node2"><a xlink:href="structchig_1_1GraphModule.html#a3aca789690eb2e7dedc764ae20154c9d" target="_top" xlink:title="Get functions. ">
<polygon fill="#ffffff" stroke="#000000" points="171,-44.5 171,-74.5 284,-74.5 284,-44.5 171,-44.5"/>
<text text-anchor="start" x="179" y="-62.5" font-family="Helvetica,sans-Serif" font-size="10.00" fill="#000000">chig::GraphModule::</text>
<text text-anchor="middle" x="227.5" y="-51.5" font-family="Helvetica,sans-Serif" font-size="10.00" fill="#000000">functions</text>
</a>
</g>
</g>
<!-- Node34&#45;&gt;Node35 -->
<g id="edge1" class="edge">
<title>Node34&#45;&gt;Node35</title>
<path fill="none" stroke="#191970" d="M135.3544,-59.5C143.7106,-59.5 152.2477,-59.5 160.5897,-59.5"/>
<polygon fill="#191970" stroke="#191970" points="160.643,-63.0001 170.643,-59.5 160.643,-56.0001 160.643,-63.0001"/>
</g>
<!-- Node36 -->
<g id="node3" class="node">
<title>Node36</title>
<g id="a_node3"><a xlink:href="structchig_1_1GraphModule.html#a64831f6b192140fb9014025717df72ac" target="_top" xlink:title="Get a struct by name. ">
<polygon fill="#ffffff" stroke="#000000" points="469,-49.5 469,-79.5 582,-79.5 582,-49.5 469,-49.5"/>
<text text-anchor="start" x="477" y="-67.5" font-family="Helvetica,sans-Serif" font-size="10.00" fill="#000000">chig::GraphModule::</text>
<text text-anchor="middle" x="525.5" y="-56.5" font-family="Helvetica,sans-Serif" font-size="10.00" fill="#000000">structFromName</text>
</a>
</g>
</g>
<!-- Node35&#45;&gt;Node36 -->
<g id="edge2" class="edge">
<title>Node35&#45;&gt;Node36</title>
<path fill="none" stroke="#191970" d="M273.5946,-74.523C288.2628,-78.608 304.6638,-82.4641 320,-84.5 369.7854,-91.1092 383.0622,-89.837 433,-84.5 441.337,-83.609 450.0259,-82.2785 458.595,-80.7191"/>
<polygon fill="#191970" stroke="#191970" points="459.4145,-84.1256 468.5712,-78.796 458.0894,-77.2522 459.4145,-84.1256"/>
</g>
<!-- Node38 -->
<g id="node5" class="node">
<title>Node38</title>
<g id="a_node5"><a xlink:href="structchig_1_1GraphModule.html#af766a22d33074aafe823b19218321d6e" target="_top" xlink:title="Create a new struct in the module. ">
<polygon fill="#ffffff" stroke="#000000" points="320,-44.5 320,-74.5 433,-74.5 433,-44.5 320,-44.5"/>
<text text-anchor="start" x="328" y="-62.5" font-family="Helvetica,sans-Serif" font-size="10.00" fill="#000000">chig::GraphModule::</text>
<text text-anchor="middle" x="376.5" y="-51.5" font-family="Helvetica,sans-Serif" font-size="10.00" fill="#000000">getOrCreateStruct</text>
</a>
</g>
</g>
<!-- Node35&#45;&gt;Node38 -->
<g id="edge4" class="edge">
<title>Node35&#45;&gt;Node38</title>
<path fill="none" stroke="#191970" d="M284.2556,-59.5C292.558,-59.5 301.1727,-59.5 309.6536,-59.5"/>
<polygon fill="#191970" stroke="#191970" points="309.9023,-63.0001 319.9022,-59.5 309.9022,-56.0001 309.9023,-63.0001"/>
</g>
<!-- Node39 -->
<g id="node6" class="node">
<title>Node39</title>
<g id="a_node6"><a xlink:href="structchig_1_1GraphModule.html#a7d3e60b0ac5dcc4304c4cfc0a8b13d07" target="_top" xlink:title="Remove a struct from the module by name. ">
<polygon fill="#ffffff" stroke="#000000" points="469,-.5 469,-30.5 582,-30.5 582,-.5 469,-.5"/>
<text text-anchor="start" x="477" y="-18.5" font-family="Helvetica,sans-Serif" font-size="10.00" fill="#000000">chig::GraphModule::</text>
<text text-anchor="middle" x="525.5" y="-7.5" font-family="Helvetica,sans-Serif" font-size="10.00" fill="#000000">removeStruct</text>
</a>
</g>
</g>
<!-- Node35&#45;&gt;Node39 -->
<g id="edge6" class="edge">
<title>Node35&#45;&gt;Node39</title>
<path fill="none" stroke="#191970" d="M279.5285,-44.4759C292.6486,-41.1096 306.7678,-37.8456 320,-35.5 366.0412,-27.3386 418.5183,-22.3017 458.9182,-19.3241"/>
<polygon fill="#191970" stroke="#191970" points="459.1923,-22.8135 468.9179,-18.6108 458.6942,-15.8313 459.1923,-22.8135"/>
</g>
<!-- Node37 -->
<g id="node4" class="node">
<title>Node37</title>
<g id="a_node4"><a xlink:href="structchig_1_1ChigModule.html#a1fe8df6ff170ecd33057387571bb5cd2" target="_top" xlink:title="Get the short name of the module (the last bit) ">
<polygon fill="#ffffff" stroke="#000000" points="618,-30 618,-49 752,-49 752,-30 618,-30"/>
<text text-anchor="middle" x="685" y="-37" font-family="Helvetica,sans-Serif" font-size="10.00" fill="#000000">chig::ChigModule::name</text>
</a>
</g>
</g>
<!-- Node36&#45;&gt;Node37 -->
<g id="edge3" class="edge">
<title>Node36&#45;&gt;Node37</title>
<path fill="none" stroke="#191970" d="M582.1828,-55.6155C592.4968,-53.9989 603.374,-52.294 614.0389,-50.6224"/>
<polygon fill="#191970" stroke="#191970" points="614.8364,-54.0403 624.1737,-49.0339 613.7524,-47.1247 614.8364,-54.0403"/>
</g>
<!-- Node38&#45;&gt;Node36 -->
<g id="edge5" class="edge">
<title>Node38&#45;&gt;Node36</title>
<path fill="none" stroke="#191970" d="M433.2556,-61.4045C441.558,-61.6832 450.1727,-61.9722 458.6536,-62.2568"/>
<polygon fill="#191970" stroke="#191970" points="458.7904,-65.7633 468.9022,-62.6007 459.0253,-58.7672 458.7904,-65.7633"/>
</g>
<!-- Node39&#45;&gt;Node37 -->
<g id="edge7" class="edge">
<title>Node39&#45;&gt;Node37</title>
<path fill="none" stroke="#191970" d="M582.1828,-24.0291C591.686,-25.459 601.6674,-26.9609 611.5203,-28.4435"/>
<polygon fill="#191970" stroke="#191970" points="611.3067,-31.9507 621.7162,-29.9777 612.3483,-25.0286 611.3067,-31.9507"/>
</g>
</g>
</svg>
