<?xml version="1.0" encoding="UTF-8" standalone="no"?>
<!DOCTYPE svg PUBLIC "-//W3C//DTD SVG 1.1//EN"
 "http://www.w3.org/Graphics/SVG/1.1/DTD/svg11.dtd">
<!-- Generated by graphviz version 2.40.1 (20161225.0304)
 -->
<!-- Title: chig::GraphFunction::modifyExecOutput Pages: 1 -->
<svg width="726pt" height="83pt"
 viewBox="0.00 0.00 726.00 83.00" xmlns="http://www.w3.org/2000/svg" xmlns:xlink="http://www.w3.org/1999/xlink">
<g id="graph0" class="graph" transform="scale(1 1) rotate(0) translate(4 79)">
<title>chig::GraphFunction::modifyExecOutput</title>
<polygon fill="#ffffff" stroke="transparent" points="-4,4 -4,-79 722,-79 722,4 -4,4"/>
<!-- Node409 -->
<g id="node1" class="node">
<title>Node409</title>
<polygon fill="#bfbfbf" stroke="#000000" points="0,-22.5 0,-52.5 104,-52.5 104,-22.5 0,-22.5"/>
<text text-anchor="start" x="8" y="-40.5" font-family="Helvetica,sans-Serif" font-size="10.00" fill="#000000">chig::GraphFunction</text>
<text text-anchor="middle" x="52" y="-29.5" font-family="Helvetica,sans-Serif" font-size="10.00" fill="#000000">::modifyExecOutput</text>
</g>
<!-- Node410 -->
<g id="node2" class="node">
<title>Node410</title>
<g id="a_node2"><a xlink:href="structchig_1_1GraphFunction.html#ae155f716b072ef5f8e3ba064ae7ef8c0" target="_top" xlink:title="Get the function exec outputs. ">
<polygon fill="#ffffff" stroke="#000000" points="140,-.5 140,-30.5 244,-30.5 244,-.5 140,-.5"/>
<text text-anchor="start" x="148" y="-18.5" font-family="Helvetica,sans-Serif" font-size="10.00" fill="#000000">chig::GraphFunction</text>
<text text-anchor="middle" x="192" y="-7.5" font-family="Helvetica,sans-Serif" font-size="10.00" fill="#000000">::execOutputs</text>
</a>
</g>
</g>
<!-- Node409&#45;&gt;Node410 -->
<g id="edge1" class="edge">
<title>Node409&#45;&gt;Node410</title>
<path fill="none" stroke="#191970" d="M114.1068,-27.7404C122.6945,-26.3909 131.4428,-25.0161 139.8256,-23.6988"/>
<polygon fill="#191970" stroke="#191970" points="113.4662,-24.298 104.1308,-29.308 114.553,-31.2131 113.4662,-24.298"/>
</g>
<!-- Node411 -->
<g id="node3" class="node">
<title>Node411</title>
<g id="a_node3"><a xlink:href="structchig_1_1GraphFunction.html#ac7c52122fef0c74d9d0ee04af9a741c4" target="_top" xlink:title="Create a fresh NodeType for an exit. ">
<polygon fill="#ffffff" stroke="#000000" points="291.5,-44.5 291.5,-74.5 402.5,-74.5 402.5,-44.5 291.5,-44.5"/>
<text text-anchor="start" x="299.5" y="-62.5" font-family="Helvetica,sans-Serif" font-size="10.00" fill="#000000">chig::GraphFunction</text>
<text text-anchor="middle" x="347" y="-51.5" font-family="Helvetica,sans-Serif" font-size="10.00" fill="#000000">::createExitNodeType</text>
</a>
</g>
</g>
<!-- Node410&#45;&gt;Node411 -->
<g id="edge2" class="edge">
<title>Node410&#45;&gt;Node411</title>
<path fill="none" stroke="#191970" d="M254.0283,-33.108C267.2806,-36.87 281.1621,-40.8105 294.0363,-44.4651"/>
<polygon fill="#191970" stroke="#191970" points="254.6197,-29.6377 244.0439,-30.2738 252.7081,-36.3716 254.6197,-29.6377"/>
</g>
<!-- Node413 -->
<g id="node5" class="node">
<title>Node413</title>
<g id="a_node5"><a xlink:href="namespacechig.html#ad0fd9448ab1cd1d73351fad5967a7b9b" target="_top" xlink:title="Serialize a GraphFunction to json. ">
<polygon fill="#ffffff" stroke="#000000" points="280,-6 280,-25 414,-25 414,-6 280,-6"/>
<text text-anchor="middle" x="347" y="-13" font-family="Helvetica,sans-Serif" font-size="10.00" fill="#000000">chig::graphFunctionToJson</text>
</a>
</g>
</g>
<!-- Node410&#45;&gt;Node413 -->
<g id="edge5" class="edge">
<title>Node410&#45;&gt;Node413</title>
<path fill="none" stroke="#191970" d="M254.2179,-15.5C262.6853,-15.5 271.4061,-15.5 279.9541,-15.5"/>
<polygon fill="#191970" stroke="#191970" points="254.044,-12.0001 244.0439,-15.5 254.0439,-19.0001 254.044,-12.0001"/>
</g>
<!-- Node411&#45;&gt;Node409 -->
<g id="edge3" class="edge">
<title>Node411&#45;&gt;Node409</title>
<path fill="none" stroke="#191970" d="M281.3894,-54.607C227.9354,-50.6206 153.4759,-45.0677 104.061,-41.3825"/>
<polygon fill="#191970" stroke="#191970" points="281.2179,-58.1038 291.4505,-55.3573 281.7385,-51.1232 281.2179,-58.1038"/>
</g>
<!-- Node412 -->
<g id="node4" class="node">
<title>Node412</title>
<g id="a_node4"><a xlink:href="structchig_1_1GraphFunction.html#a79cbfaf26d9a966ae8048c81dc09777e" target="_top" xlink:title="chig::GraphFunction\l::nodes">
<polygon fill="#ffffff" stroke="#000000" points="462,-44.5 462,-74.5 566,-74.5 566,-44.5 462,-44.5"/>
<text text-anchor="start" x="470" y="-62.5" font-family="Helvetica,sans-Serif" font-size="10.00" fill="#000000">chig::GraphFunction</text>
<text text-anchor="middle" x="514" y="-51.5" font-family="Helvetica,sans-Serif" font-size="10.00" fill="#000000">::nodes</text>
</a>
</g>
</g>
<!-- Node411&#45;&gt;Node412 -->
<g id="edge4" class="edge">
<title>Node411&#45;&gt;Node412</title>
<path fill="none" stroke="#191970" d="M412.6131,-59.5C428.917,-59.5 446.1757,-59.5 461.7417,-59.5"/>
<polygon fill="#191970" stroke="#191970" points="412.6086,-56.0001 402.6086,-59.5 412.6085,-63.0001 412.6086,-56.0001"/>
</g>
<!-- Node414 -->
<g id="node6" class="node">
<title>Node414</title>
<g id="a_node6"><a xlink:href="namespacechig.html#aaef3bb08f472ae32b2d3b292e69a007a" target="_top" xlink:title="Serialize a JsonModule to json. ">
<polygon fill="#ffffff" stroke="#000000" points="450,-6 450,-25 578,-25 578,-6 450,-6"/>
<text text-anchor="middle" x="514" y="-13" font-family="Helvetica,sans-Serif" font-size="10.00" fill="#000000">chig::graphModuleToJson</text>
</a>
</g>
</g>
<!-- Node413&#45;&gt;Node414 -->
<g id="edge6" class="edge">
<title>Node413&#45;&gt;Node414</title>
<path fill="none" stroke="#191970" d="M424.6566,-15.5C433.0806,-15.5 441.5843,-15.5 449.8225,-15.5"/>
<polygon fill="#191970" stroke="#191970" points="424.444,-12.0001 414.4439,-15.5 424.4439,-19.0001 424.444,-12.0001"/>
</g>
<!-- Node415 -->
<g id="node7" class="node">
<title>Node415</title>
<g id="a_node7"><a xlink:href="structchig_1_1GraphModule.html#accb1a64da697a29e28d78a9a09bd52ff" target="_top" xlink:title="Serialize to disk in the context. ">
<polygon fill="#ffffff" stroke="#000000" points="614,-.5 614,-30.5 718,-30.5 718,-.5 614,-.5"/>
<text text-anchor="start" x="622" y="-18.5" font-family="Helvetica,sans-Serif" font-size="10.00" fill="#000000">chig::GraphModule::</text>
<text text-anchor="middle" x="666" y="-7.5" font-family="Helvetica,sans-Serif" font-size="10.00" fill="#000000">saveToDisk</text>
</a>
</g>
</g>
<!-- Node414&#45;&gt;Node415 -->
<g id="edge7" class="edge">
<title>Node414&#45;&gt;Node415</title>
<path fill="none" stroke="#191970" d="M588.0838,-15.5C596.6912,-15.5 605.3313,-15.5 613.5622,-15.5"/>
<polygon fill="#191970" stroke="#191970" points="588.0212,-12.0001 578.0211,-15.5 588.0211,-19.0001 588.0212,-12.0001"/>
</g>
</g>
</svg>
