<?xml version="1.0" encoding="UTF-8" standalone="no"?>
<!DOCTYPE svg PUBLIC "-//W3C//DTD SVG 1.1//EN"
 "http://www.w3.org/Graphics/SVG/1.1/DTD/svg11.dtd">
<!-- Generated by graphviz version 2.40.1 (20161225.0304)
 -->
<!-- Title: chi::GraphModule::cEnabled Pages: 1 -->
<!--zoomable 243 -->
<svg id="main" version="1.1" xmlns="http://www.w3.org/2000/svg" xmlns:xlink="http://www.w3.org/1999/xlink" xml:space="preserve" onload="init(evt)">
<style type="text/css"><![CDATA[
.edge:hover path { stroke: red; }
.edge:hover polygon { stroke: red; fill: red; }
]]></style>
<script type="text/javascript"><![CDATA[
var edges = document.getElementsByTagName('g');
if (edges && edges.length) {
  for (var i=0;i<edges.length;i++) {
    if (edges[i].id.substr(0,4)=='edge') {
      edges[i].setAttribute('class','edge');
    }
  }
}
]]></script>
        <defs>
                <circle id="rim" cx="0" cy="0" r="7"/>
                <circle id="rim2" cx="0" cy="0" r="3.5"/>
                <g id="zoomPlus">
                        <use xlink:href="#rim" fill="#404040">
                                <set attributeName="fill" to="#808080" begin="zoomplus.mouseover" end="zoomplus.mouseout"/>
                        </use>
                        <path d="M-4,0h8M0,-4v8" fill="none" stroke="white" stroke-width="1.5" pointer-events="none"/>
                </g>
                <g id="zoomMin">
                        <use xlink:href="#rim" fill="#404040">
                                <set attributeName="fill" to="#808080" begin="zoomminus.mouseover" end="zoomminus.mouseout"/>
                        </use>
                        <path d="M-4,0h8" fill="none" stroke="white" stroke-width="1.5" pointer-events="none"/>
                </g>
                <g id="dirArrow">
                        <path fill="none" stroke="white" stroke-width="1.5" d="M0,-3.0v7 M-2.5,-0.5L0,-3.0L2.5,-0.5"/>
                </g>
               <g id="resetDef">
                       <use xlink:href="#rim2" fill="#404040">
                               <set attributeName="fill" to="#808080" begin="reset.mouseover" end="reset.mouseout"/>
                       </use>
               </g>
        </defs>

<script type="text/javascript">
var viewWidth = 1041;
var viewHeight = 243;
var sectionId = 'dynsection-6';
</script>
<script xlink:href="svgpan.js"/>
<svg id="graph" class="graph">
<g id="viewport">
<title>chi::GraphModule::cEnabled</title>
<polygon fill="#ffffff" stroke="transparent" points="-4,4 -4,-239 1037,-239 1037,4 -4,4"/>
<!-- Node136 -->
<g id="node1" class="node">
<title>Node136</title>
<polygon fill="#bfbfbf" stroke="#000000" points="0,-76.5 0,-95.5 140,-95.5 140,-76.5 0,-76.5"/>
<text text-anchor="middle" x="70" y="-83.5" font-family="Helvetica,sans-Serif" font-size="10.00" fill="#000000">chi::GraphModule::cEnabled</text>
</g>
<!-- Node137 -->
<g id="node2" class="node">
<title>Node137</title>
<g id="a_node2"><a xlink:href="structchi_1_1GraphModule.html#a24162d01532244d8945128b71af5fc48" target="_top" xlink:title="From C code, create a NodeType. ">
<polygon fill="#ffffff" stroke="#000000" points="176,-71 176,-101 302,-101 302,-71 176,-71"/>
<text text-anchor="start" x="184" y="-89" font-family="Helvetica,sans-Serif" font-size="10.00" fill="#000000">chi::GraphModule::create</text>
<text text-anchor="middle" x="239" y="-78" font-family="Helvetica,sans-Serif" font-size="10.00" fill="#000000">NodeTypeFromCCode</text>
</a>
</g>
</g>
<!-- Node136&#45;&gt;Node137 -->
<g id="edge1" class="edge">
<title>Node136&#45;&gt;Node137</title>
<path fill="none" stroke="#191970" d="M140.203,-86C148.5846,-86 157.1595,-86 165.5848,-86"/>
<polygon fill="#191970" stroke="#191970" points="165.7646,-89.5001 175.7646,-86 165.7645,-82.5001 165.7646,-89.5001"/>
</g>
<!-- Node138 -->
<g id="node3" class="node">
<title>Node138</title>
<g id="a_node3"><a xlink:href="structchi_1_1GraphModule.html#a10cfac308c6e0f1fa38be5513b2380cc" target="_top" xlink:title="Get the path to the .c directory. It is not garunteed to exist, even if cEnabled() is true...">
<polygon fill="#ffffff" stroke="#000000" points="347.5,-153 347.5,-183 476.5,-183 476.5,-153 347.5,-153"/>
<text text-anchor="start" x="355.5" y="-171" font-family="Helvetica,sans-Serif" font-size="10.00" fill="#000000">chi::GraphModule::pathTo</text>
<text text-anchor="middle" x="412" y="-160" font-family="Helvetica,sans-Serif" font-size="10.00" fill="#000000">CSources</text>
</a>
</g>
</g>
<!-- Node137&#45;&gt;Node138 -->
<g id="edge2" class="edge">
<title>Node137&#45;&gt;Node138</title>
<path fill="none" stroke="#191970" d="M265.9521,-101.0781C285.6577,-111.8745 313.1684,-126.4792 338,-138 346.1317,-141.7728 354.8768,-145.5537 363.4067,-149.0979"/>
<polygon fill="#191970" stroke="#191970" points="362.3209,-152.4354 372.9015,-152.9859 364.9736,-145.9574 362.3209,-152.4354"/>
</g>
<!-- Node140 -->
<g id="node5" class="node">
<title>Node140</title>
<g id="a_node5"><a xlink:href="structchi_1_1ChiModule.html#a5c28c9fe74ad3cb704b613843b267512" target="_top" xlink:title="Get the Context that this module belongs to. ">
<polygon fill="#ffffff" stroke="#000000" points="729.5,-126.5 729.5,-145.5 848.5,-145.5 848.5,-126.5 729.5,-126.5"/>
<text text-anchor="middle" x="789" y="-133.5" font-family="Helvetica,sans-Serif" font-size="10.00" fill="#000000">chi::ChiModule::context</text>
</a>
</g>
</g>
<!-- Node137&#45;&gt;Node140 -->
<g id="edge10" class="edge">
<title>Node137&#45;&gt;Node140</title>
<path fill="none" stroke="#191970" d="M302.0385,-95.4999C313.9666,-97.1313 326.3539,-98.7129 338,-100 472.6147,-114.8769 630.4874,-126.0448 719.2217,-131.7512"/>
<polygon fill="#191970" stroke="#191970" points="719.2281,-135.2587 729.4308,-132.4032 719.6743,-128.2729 719.2281,-135.2587"/>
</g>
<!-- Node146 -->
<g id="node11" class="node">
<title>Node146</title>
<g id="a_node11"><a xlink:href="structchi_1_1Result.html#a59ef40f4a327cbdea263d6e4b5af2ad8" target="_top" xlink:title="Add a entry to the result, either a warning or an error. ">
<polygon fill="#ffffff" stroke="#000000" points="548,-76.5 548,-95.5 656,-95.5 656,-76.5 548,-76.5"/>
<text text-anchor="middle" x="602" y="-83.5" font-family="Helvetica,sans-Serif" font-size="10.00" fill="#000000">chi::Result::addEntry</text>
</a>
</g>
</g>
<!-- Node137&#45;&gt;Node146 -->
<g id="edge11" class="edge">
<title>Node137&#45;&gt;Node146</title>
<path fill="none" stroke="#191970" d="M302.2298,-86C368.172,-86 471.006,-86 537.4394,-86"/>
<polygon fill="#191970" stroke="#191970" points="537.7779,-89.5001 547.7778,-86 537.7778,-82.5001 537.7779,-89.5001"/>
</g>
<!-- Node148 -->
<g id="node13" class="node">
<title>Node148</title>
<g id="a_node13"><a xlink:href="structchi_1_1Context.html#a9e0b185a1871ebfda5d7bd410bf085f2" target="_top" xlink:title="Gets a DataType from a module. ">
<polygon fill="#ffffff" stroke="#000000" points="338,-38.5 338,-57.5 486,-57.5 486,-38.5 338,-38.5"/>
<text text-anchor="middle" x="412" y="-45.5" font-family="Helvetica,sans-Serif" font-size="10.00" fill="#000000">chi::Context::typeFromModule</text>
</a>
</g>
</g>
<!-- Node137&#45;&gt;Node148 -->
<g id="edge13" class="edge">
<title>Node137&#45;&gt;Node148</title>
<path fill="none" stroke="#191970" d="M302.4365,-72.066C320.8162,-68.0288 340.6945,-63.6625 358.4089,-59.7715"/>
<polygon fill="#191970" stroke="#191970" points="359.5449,-63.1055 368.5611,-57.5415 358.0431,-56.2684 359.5449,-63.1055"/>
</g>
<!-- Node151 -->
<g id="node16" class="node">
<title>Node151</title>
<g id="a_node16"><a xlink:href="namespacechi.html#a29ff9f3364b9ad0f25a990b8373971b4" target="_top" xlink:title="Turns a type into a string. ">
<polygon fill="#ffffff" stroke="#000000" points="353.5,-.5 353.5,-19.5 470.5,-19.5 470.5,-.5 353.5,-.5"/>
<text text-anchor="middle" x="412" y="-7.5" font-family="Helvetica,sans-Serif" font-size="10.00" fill="#000000">chi::stringifyLLVMType</text>
</a>
</g>
</g>
<!-- Node137&#45;&gt;Node151 -->
<g id="edge17" class="edge">
<title>Node137&#45;&gt;Node151</title>
<path fill="none" stroke="#191970" d="M261.3048,-70.8013C280.8056,-58.0997 310.2658,-40.2988 338,-29 343.9653,-26.5698 350.3302,-24.3779 356.7286,-22.4213"/>
<polygon fill="#191970" stroke="#191970" points="358.1132,-25.6651 366.758,-19.5399 356.1803,-18.9373 358.1132,-25.6651"/>
</g>
<!-- Node139 -->
<g id="node4" class="node">
<title>Node139</title>
<g id="a_node4"><a xlink:href="structchi_1_1GraphModule.html#a1c1a23b9aa7967948e97dc9650099188" target="_top" xlink:title="Get the path to the source file It&#39;s not garunteed to exist, because it could have not been saved...">
<polygon fill="#ffffff" stroke="#000000" points="538,-191 538,-221 666,-221 666,-191 538,-191"/>
<text text-anchor="start" x="546" y="-209" font-family="Helvetica,sans-Serif" font-size="10.00" fill="#000000">chi::GraphModule::source</text>
<text text-anchor="middle" x="602" y="-198" font-family="Helvetica,sans-Serif" font-size="10.00" fill="#000000">FilePath</text>
</a>
</g>
</g>
<!-- Node138&#45;&gt;Node139 -->
<g id="edge3" class="edge">
<title>Node138&#45;&gt;Node139</title>
<path fill="none" stroke="#191970" d="M476.5905,-180.9181C493.1377,-184.2275 511.061,-187.8122 528.0401,-191.208"/>
<polygon fill="#191970" stroke="#191970" points="527.4183,-194.6529 537.9106,-193.1821 528.7912,-187.7888 527.4183,-194.6529"/>
</g>
<!-- Node145 -->
<g id="node10" class="node">
<title>Node145</title>
<g id="a_node10"><a xlink:href="structchi_1_1ChiModule.html#a22ac89bd0e334cb920847973fa77e8ff" target="_top" xlink:title="Get the short name of the module (the last bit) ">
<polygon fill="#ffffff" stroke="#000000" points="535,-152.5 535,-171.5 669,-171.5 669,-152.5 535,-152.5"/>
<text text-anchor="middle" x="602" y="-159.5" font-family="Helvetica,sans-Serif" font-size="10.00" fill="#000000">chi::ChiModule::shortName</text>
</a>
</g>
</g>
<!-- Node138&#45;&gt;Node145 -->
<g id="edge9" class="edge">
<title>Node138&#45;&gt;Node145</title>
<path fill="none" stroke="#191970" d="M476.5905,-165.9603C492.0342,-165.4726 508.6765,-164.9471 524.6312,-164.4432"/>
<polygon fill="#191970" stroke="#191970" points="525.1124,-167.9299 534.9969,-164.1159 524.8914,-160.9334 525.1124,-167.9299"/>
</g>
<!-- Node139&#45;&gt;Node140 -->
<g id="edge4" class="edge">
<title>Node139&#45;&gt;Node140</title>
<path fill="none" stroke="#191970" d="M652.6026,-190.9881C662.4117,-187.8527 672.5701,-184.4475 682,-181 708.2614,-171.3991 737.4877,-158.9864 758.7506,-149.6302"/>
<polygon fill="#191970" stroke="#191970" points="760.1953,-152.8183 767.9204,-145.5676 757.3597,-146.4183 760.1953,-152.8183"/>
</g>
<!-- Node143 -->
<g id="node8" class="node">
<title>Node143</title>
<g id="a_node8"><a xlink:href="structchi_1_1Context.html#a24fd4f52e8cc081116a45de3a698d846" target="_top" xlink:title="Get the workspace path of the Context. ">
<polygon fill="#ffffff" stroke="#000000" points="718,-215.5 718,-234.5 860,-234.5 860,-215.5 718,-215.5"/>
<text text-anchor="middle" x="789" y="-222.5" font-family="Helvetica,sans-Serif" font-size="10.00" fill="#000000">chi::Context::workspacePath</text>
</a>
</g>
</g>
<!-- Node139&#45;&gt;Node143 -->
<g id="edge7" class="edge">
<title>Node139&#45;&gt;Node143</title>
<path fill="none" stroke="#191970" d="M666.0932,-212.5121C679.5355,-213.8779 693.8807,-215.3355 707.8514,-216.755"/>
<polygon fill="#191970" stroke="#191970" points="707.6372,-220.2511 717.9398,-217.78 708.3448,-213.287 707.6372,-220.2511"/>
</g>
<!-- Node144 -->
<g id="node9" class="node">
<title>Node144</title>
<g id="a_node9"><a xlink:href="structchi_1_1ChiModule.html#a92ab6d528ac41a91b6ac21ededfccc38" target="_top" xlink:title="Get the full name of the module. ">
<polygon fill="#ffffff" stroke="#000000" points="726.5,-177.5 726.5,-196.5 851.5,-196.5 851.5,-177.5 726.5,-177.5"/>
<text text-anchor="middle" x="789" y="-184.5" font-family="Helvetica,sans-Serif" font-size="10.00" fill="#000000">chi::ChiModule::fullName</text>
</a>
</g>
</g>
<!-- Node139&#45;&gt;Node144 -->
<g id="edge8" class="edge">
<title>Node139&#45;&gt;Node144</title>
<path fill="none" stroke="#191970" d="M666.0932,-199.4879C682.2035,-197.851 699.6106,-196.0823 716.1157,-194.4054"/>
<polygon fill="#191970" stroke="#191970" points="716.6613,-197.868 726.2562,-193.375 715.9536,-190.9039 716.6613,-197.868"/>
</g>
<!-- Node141 -->
<g id="node6" class="node">
<title>Node141</title>
<g id="a_node6"><a xlink:href="structchi_1_1ChiModule.html#a653e3aed05912857334655e06937b28d" target="_top" xlink:title="Adds forward declartions for the functions in this module. ">
<polygon fill="#ffffff" stroke="#000000" points="896,-146 896,-176 1033,-176 1033,-146 896,-146"/>
<text text-anchor="start" x="904" y="-164" font-family="Helvetica,sans-Serif" font-size="10.00" fill="#000000">chi::ChiModule::addForward</text>
<text text-anchor="middle" x="964.5" y="-153" font-family="Helvetica,sans-Serif" font-size="10.00" fill="#000000">Declarations</text>
</a>
</g>
</g>
<!-- Node140&#45;&gt;Node141 -->
<g id="edge5" class="edge">
<title>Node140&#45;&gt;Node141</title>
<path fill="none" stroke="#191970" d="M848.9063,-144.5337C860.698,-146.2134 873.2381,-147.9997 885.5451,-149.7529"/>
<polygon fill="#191970" stroke="#191970" points="885.4129,-153.2693 895.8066,-151.2146 886.4002,-146.3392 885.4129,-153.2693"/>
</g>
<!-- Node142 -->
<g id="node7" class="node">
<title>Node142</title>
<g id="a_node7"><a xlink:href="structchi_1_1ChiModule.html#a987c71edb997c5f041f69622cb0c86fe" target="_top" xlink:title="Generate a llvm::Module from the module. ">
<polygon fill="#ffffff" stroke="#000000" points="902,-97 902,-127 1027,-127 1027,-97 902,-97"/>
<text text-anchor="start" x="910" y="-115" font-family="Helvetica,sans-Serif" font-size="10.00" fill="#000000">chi::ChiModule::generate</text>
<text text-anchor="middle" x="964.5" y="-104" font-family="Helvetica,sans-Serif" font-size="10.00" fill="#000000">Module</text>
</a>
</g>
</g>
<!-- Node140&#45;&gt;Node142 -->
<g id="edge6" class="edge">
<title>Node140&#45;&gt;Node142</title>
<path fill="none" stroke="#191970" d="M848.9063,-127.8077C862.6499,-125.9282 877.41,-123.9097 891.6329,-121.9647"/>
<polygon fill="#191970" stroke="#191970" points="892.4386,-125.3872 901.8721,-120.5645 891.4901,-118.4518 892.4386,-125.3872"/>
</g>
<!-- Node147 -->
<g id="node12" class="node">
<title>Node147</title>
<g id="a_node12"><a xlink:href="structchi_1_1Result.html#aa078d3cb3dfb2fb63e81b71acea036e0" target="_top" xlink:title="Get the JSON associated with the context that&#39;s been added. ">
<polygon fill="#ffffff" stroke="#000000" points="728,-76.5 728,-95.5 850,-95.5 850,-76.5 728,-76.5"/>
<text text-anchor="middle" x="789" y="-83.5" font-family="Helvetica,sans-Serif" font-size="10.00" fill="#000000">chi::Result::contextJson</text>
</a>
</g>
</g>
<!-- Node146&#45;&gt;Node147 -->
<g id="edge12" class="edge">
<title>Node146&#45;&gt;Node147</title>
<path fill="none" stroke="#191970" d="M656.0881,-86C675.2818,-86 697.1877,-86 717.6024,-86"/>
<polygon fill="#191970" stroke="#191970" points="717.8016,-89.5001 727.8016,-86 717.8015,-82.5001 717.8016,-89.5001"/>
</g>
<!-- Node148&#45;&gt;Node146 -->
<g id="edge14" class="edge">
<title>Node148&#45;&gt;Node146</title>
<path fill="none" stroke="#191970" d="M459.945,-57.589C485.5823,-62.7165 517.3362,-69.0672 544.316,-74.4632"/>
<polygon fill="#191970" stroke="#191970" points="543.9075,-77.9507 554.3997,-76.4799 545.2804,-71.0867 543.9075,-77.9507"/>
</g>
<!-- Node149 -->
<g id="node14" class="node">
<title>Node149</title>
<g id="a_node14"><a xlink:href="structchi_1_1Context.html#a8628a178e0a8a944065f2605d01a36d5" target="_top" xlink:title="Gets the module by the full name. ">
<polygon fill="#ffffff" stroke="#000000" points="522,-38.5 522,-57.5 682,-57.5 682,-38.5 522,-38.5"/>
<text text-anchor="middle" x="602" y="-45.5" font-family="Helvetica,sans-Serif" font-size="10.00" fill="#000000">chi::Context::moduleByFullName</text>
</a>
</g>
</g>
<!-- Node148&#45;&gt;Node149 -->
<g id="edge15" class="edge">
<title>Node148&#45;&gt;Node149</title>
<path fill="none" stroke="#191970" d="M486.003,-48C494.4658,-48 503.1625,-48 511.8061,-48"/>
<polygon fill="#191970" stroke="#191970" points="511.9112,-51.5001 521.9112,-48 511.9112,-44.5001 511.9112,-51.5001"/>
</g>
<!-- Node150 -->
<g id="node15" class="node">
<title>Node150</title>
<g id="a_node15"><a xlink:href="structchi_1_1ChiModule.html#a03aa9f90fafd384094861dfff13eba77" target="_top" xlink:title="Get a DataType from the name. ">
<polygon fill="#ffffff" stroke="#000000" points="525,-.5 525,-19.5 679,-19.5 679,-.5 525,-.5"/>
<text text-anchor="middle" x="602" y="-7.5" font-family="Helvetica,sans-Serif" font-size="10.00" fill="#000000">chi::ChiModule::typeFromName</text>
</a>
</g>
</g>
<!-- Node148&#45;&gt;Node150 -->
<g id="edge16" class="edge">
<title>Node148&#45;&gt;Node150</title>
<path fill="none" stroke="#191970" d="M459.945,-38.411C485.5823,-33.2835 517.3362,-26.9328 544.316,-21.5368"/>
<polygon fill="#191970" stroke="#191970" points="545.2804,-24.9133 554.3997,-19.5201 543.9075,-18.0493 545.2804,-24.9133"/>
</g>
</g>
</svg>
        <g id="navigator" transform="translate(0 0)" fill="#404254">
                <rect fill="#f2f5e9" fill-opacity="0.5" stroke="#606060" stroke-width=".5" x="0" y="0" width="60" height="60"/>
                <use id="zoomplus" xlink:href="#zoomPlus" x="17" y="9" onmousedown="handleZoom(evt,'in')"/>
                <use id="zoomminus" xlink:href="#zoomMin" x="42" y="9" onmousedown="handleZoom(evt,'out')"/>
                <use id="reset" xlink:href="#resetDef" x="30" y="36" onmousedown="handleReset()"/>
                <g id="arrowUp" xlink:href="#dirArrow" transform="translate(30 24)" onmousedown="handlePan(0,-1)">
                  <use xlink:href="#rim" fill="#404040">
                        <set attributeName="fill" to="#808080" begin="arrowUp.mouseover" end="arrowUp.mouseout"/>
                  </use>
                  <path fill="none" stroke="white" stroke-width="1.5" d="M0,-3.0v7 M-2.5,-0.5L0,-3.0L2.5,-0.5"/>
                </g>
                <g id="arrowRight" xlink:href="#dirArrow" transform="rotate(90) translate(36 -43)" onmousedown="handlePan(1,0)">
                  <use xlink:href="#rim" fill="#404040">
                        <set attributeName="fill" to="#808080" begin="arrowRight.mouseover" end="arrowRight.mouseout"/>
                  </use>
                  <path fill="none" stroke="white" stroke-width="1.5" d="M0,-3.0v7 M-2.5,-0.5L0,-3.0L2.5,-0.5"/>
                </g>
                <g id="arrowDown" xlink:href="#dirArrow" transform="rotate(180) translate(-30 -48)" onmousedown="handlePan(0,1)">
                  <use xlink:href="#rim" fill="#404040">
                        <set attributeName="fill" to="#808080" begin="arrowDown.mouseover" end="arrowDown.mouseout"/>
                  </use>
                  <path fill="none" stroke="white" stroke-width="1.5" d="M0,-3.0v7 M-2.5,-0.5L0,-3.0L2.5,-0.5"/>
                </g>
                <g id="arrowLeft" xlink:href="#dirArrow" transform="rotate(270) translate(-36 17)" onmousedown="handlePan(-1,0)">
                  <use xlink:href="#rim" fill="#404040">
                        <set attributeName="fill" to="#808080" begin="arrowLeft.mouseover" end="arrowLeft.mouseout"/>
                  </use>
                  <path fill="none" stroke="white" stroke-width="1.5" d="M0,-3.0v7 M-2.5,-0.5L0,-3.0L2.5,-0.5"/>
                </g>
        </g>
        <svg viewBox="0 0 15 15" width="100%" height="30px" preserveAspectRatio="xMaxYMin meet">
         <g id="arrow_out" transform="scale(0.3 0.3)">
          <a xlink:href="structchi_1_1GraphModule_ac251cc6b4242642f6601c8c3607f5747_cgraph_org.svg" target="_base">
           <rect id="button" ry="5" rx="5" y="6" x="6" height="38" width="38"
                fill="#f2f5e9" fill-opacity="0.5" stroke="#606060" stroke-width="1.0"/>
           <path id="arrow"
             d="M 11.500037,31.436501 C 11.940474,20.09759 22.043105,11.32322 32.158766,21.979434 L 37.068811,17.246167 C 37.068811,17.246167 37.088388,32 37.088388,32 L 22.160133,31.978069 C 22.160133,31.978069 26.997745,27.140456 26.997745,27.140456 C 18.528582,18.264221 13.291696,25.230495 11.500037,31.436501 z"
             style="fill:#404040;"/>
          </a>
         </g>
        </svg>
</svg>
