<?xml version="1.0" encoding="UTF-8" standalone="no"?>
<!DOCTYPE svg PUBLIC "-//W3C//DTD SVG 1.1//EN"
 "http://www.w3.org/Graphics/SVG/1.1/DTD/svg11.dtd">
<!-- Generated by graphviz version 2.40.1 (20161225.0304)
 -->
<!-- Title: chig::GraphModule::functions Pages: 1 -->
<svg width="603pt" height="83pt"
 viewBox="0.00 0.00 603.00 83.00" xmlns="http://www.w3.org/2000/svg" xmlns:xlink="http://www.w3.org/1999/xlink">
<g id="graph0" class="graph" transform="scale(1 1) rotate(0) translate(4 79)">
<title>chig::GraphModule::functions</title>
<polygon fill="#ffffff" stroke="transparent" points="-4,4 -4,-79 599,-79 599,4 -4,4"/>
<!-- Node77 -->
<g id="node1" class="node">
<title>Node77</title>
<polygon fill="#bfbfbf" stroke="#000000" points="0,-22.5 0,-52.5 113,-52.5 113,-22.5 0,-22.5"/>
<text text-anchor="start" x="8" y="-40.5" font-family="Helvetica,sans-Serif" font-size="10.00" fill="#000000">chig::GraphModule::</text>
<text text-anchor="middle" x="56.5" y="-29.5" font-family="Helvetica,sans-Serif" font-size="10.00" fill="#000000">functions</text>
</g>
<!-- Node78 -->
<g id="node2" class="node">
<title>Node78</title>
<g id="a_node2"><a xlink:href="structchig_1_1GraphModule.html#a292eaf6be61fdccb79b54341a34ca6d7" target="_top" xlink:title="Create the associations from line number and function in debug info. ">
<polygon fill="#ffffff" stroke="#000000" points="150.5,-44.5 150.5,-74.5 285.5,-74.5 285.5,-44.5 150.5,-44.5"/>
<text text-anchor="start" x="158.5" y="-62.5" font-family="Helvetica,sans-Serif" font-size="10.00" fill="#000000">chig::GraphModule::</text>
<text text-anchor="middle" x="218" y="-51.5" font-family="Helvetica,sans-Serif" font-size="10.00" fill="#000000">createLineNumberAssoc</text>
</a>
</g>
</g>
<!-- Node77&#45;&gt;Node78 -->
<g id="edge1" class="edge">
<title>Node77&#45;&gt;Node78</title>
<path fill="none" stroke="#191970" d="M123.6304,-46.6447C132.421,-47.8422 141.4333,-49.0699 150.2343,-50.2688"/>
<polygon fill="#191970" stroke="#191970" points="123.8198,-43.1383 113.4389,-45.2564 122.8749,-50.0742 123.8198,-43.1383"/>
</g>
<!-- Node81 -->
<g id="node5" class="node">
<title>Node81</title>
<g id="a_node5"><a xlink:href="namespacechig.html#aaef3bb08f472ae32b2d3b292e69a007a" target="_top" xlink:title="Serialize a JsonModule to json. ">
<polygon fill="#ffffff" stroke="#000000" points="149,-6 149,-25 287,-25 287,-6 149,-6"/>
<text text-anchor="middle" x="218" y="-13" font-family="Helvetica,sans-Serif" font-size="10.00" fill="#000000">chig::graphModuleToJson</text>
</a>
</g>
</g>
<!-- Node77&#45;&gt;Node81 -->
<g id="edge4" class="edge">
<title>Node77&#45;&gt;Node81</title>
<path fill="none" stroke="#191970" d="M123.5123,-28.3714C131.8735,-27.2324 140.4372,-26.0658 148.8305,-24.9225"/>
<polygon fill="#191970" stroke="#191970" points="122.8749,-24.9258 113.4389,-29.7436 123.8198,-31.8617 122.8749,-24.9258"/>
</g>
<!-- Node79 -->
<g id="node3" class="node">
<title>Node79</title>
<g id="a_node3"><a xlink:href="namespacechig.html#a4f26546c4bc76c31cc822d0365be0f30" target="_top" xlink:title="Compile the graph to an llvm::Function (usually called from JsonModule::generateModule) ...">
<polygon fill="#ffffff" stroke="#000000" points="323,-50 323,-69 446,-69 446,-50 323,-50"/>
<text text-anchor="middle" x="384.5" y="-57" font-family="Helvetica,sans-Serif" font-size="10.00" fill="#000000">chig::compileFunction</text>
</a>
</g>
</g>
<!-- Node78&#45;&gt;Node79 -->
<g id="edge2" class="edge">
<title>Node78&#45;&gt;Node79</title>
<path fill="none" stroke="#191970" d="M295.8476,-59.5C304.8682,-59.5 313.9737,-59.5 322.7382,-59.5"/>
<polygon fill="#191970" stroke="#191970" points="295.722,-56.0001 285.7219,-59.5 295.7219,-63.0001 295.722,-56.0001"/>
</g>
<!-- Node80 -->
<g id="node4" class="node">
<title>Node80</title>
<g id="a_node4"><a xlink:href="structchig_1_1GraphModule.html#a4c3a1ba833c0bd7e9a3daf0fd42eb6c6" target="_top" xlink:title="Generate a llvm::Module from the module. ">
<polygon fill="#ffffff" stroke="#000000" points="482,-44.5 482,-74.5 595,-74.5 595,-44.5 482,-44.5"/>
<text text-anchor="start" x="490" y="-62.5" font-family="Helvetica,sans-Serif" font-size="10.00" fill="#000000">chig::GraphModule::</text>
<text text-anchor="middle" x="538.5" y="-51.5" font-family="Helvetica,sans-Serif" font-size="10.00" fill="#000000">generateModule</text>
</a>
</g>
</g>
<!-- Node79&#45;&gt;Node80 -->
<g id="edge3" class="edge">
<title>Node79&#45;&gt;Node80</title>
<path fill="none" stroke="#191970" d="M456.5049,-59.5C464.9673,-59.5 473.5105,-59.5 481.7234,-59.5"/>
<polygon fill="#191970" stroke="#191970" points="456.2504,-56.0001 446.2504,-59.5 456.2503,-63.0001 456.2504,-56.0001"/>
</g>
<!-- Node82 -->
<g id="node6" class="node">
<title>Node82</title>
<g id="a_node6"><a xlink:href="structchig_1_1GraphModule.html#accb1a64da697a29e28d78a9a09bd52ff" target="_top" xlink:title="Serialize to disk in the context. ">
<polygon fill="#ffffff" stroke="#000000" points="328,-.5 328,-30.5 441,-30.5 441,-.5 328,-.5"/>
<text text-anchor="start" x="336" y="-18.5" font-family="Helvetica,sans-Serif" font-size="10.00" fill="#000000">chig::GraphModule::</text>
<text text-anchor="middle" x="384.5" y="-7.5" font-family="Helvetica,sans-Serif" font-size="10.00" fill="#000000">saveToDisk</text>
</a>
</g>
</g>
<!-- Node81&#45;&gt;Node82 -->
<g id="edge5" class="edge">
<title>Node81&#45;&gt;Node82</title>
<path fill="none" stroke="#191970" d="M297.4232,-15.5C307.7314,-15.5 318.1181,-15.5 327.9492,-15.5"/>
<polygon fill="#191970" stroke="#191970" points="297.1645,-12.0001 287.1645,-15.5 297.1645,-19.0001 297.1645,-12.0001"/>
</g>
</g>
</svg>
