<?xml version="1.0" encoding="UTF-8" standalone="no"?>
<!DOCTYPE svg PUBLIC "-//W3C//DTD SVG 1.1//EN"
 "http://www.w3.org/Graphics/SVG/1.1/DTD/svg11.dtd">
<!-- Generated by graphviz version 2.40.1 (20161225.0304)
 -->
<!-- Title: chig::NodeType::dataOutputs Pages: 1 -->
<!--zoomable 176 -->
<svg id="main" version="1.1" xmlns="http://www.w3.org/2000/svg" xmlns:xlink="http://www.w3.org/1999/xlink" xml:space="preserve" onload="init(evt)">
<style type="text/css"><![CDATA[
.edge:hover path { stroke: red; }
.edge:hover polygon { stroke: red; fill: red; }
]]></style>
<script type="text/javascript"><![CDATA[
var edges = document.getElementsByTagName('g');
if (edges && edges.length) {
  for (var i=0;i<edges.length;i++) {
    if (edges[i].id.substr(0,4)=='edge') {
      edges[i].setAttribute('class','edge');
    }
  }
}
]]></script>
        <defs>
                <circle id="rim" cx="0" cy="0" r="7"/>
                <circle id="rim2" cx="0" cy="0" r="3.5"/>
                <g id="zoomPlus">
                        <use xlink:href="#rim" fill="#404040">
                                <set attributeName="fill" to="#808080" begin="zoomplus.mouseover" end="zoomplus.mouseout"/>
                        </use>
                        <path d="M-4,0h8M0,-4v8" fill="none" stroke="white" stroke-width="1.5" pointer-events="none"/>
                </g>
                <g id="zoomMin">
                        <use xlink:href="#rim" fill="#404040">
                                <set attributeName="fill" to="#808080" begin="zoomminus.mouseover" end="zoomminus.mouseout"/>
                        </use>
                        <path d="M-4,0h8" fill="none" stroke="white" stroke-width="1.5" pointer-events="none"/>
                </g>
                <g id="dirArrow">
                        <path fill="none" stroke="white" stroke-width="1.5" d="M0,-3.0v7 M-2.5,-0.5L0,-3.0L2.5,-0.5"/>
                </g>
               <g id="resetDef">
                       <use xlink:href="#rim2" fill="#404040">
                               <set attributeName="fill" to="#808080" begin="reset.mouseover" end="reset.mouseout"/>
                       </use>
               </g>
        </defs>

<script type="text/javascript">
var viewWidth = 1843;
var viewHeight = 176;
var sectionId = 'dynsection-5';
</script>
<script xlink:href="svgpan.js"/>
<svg id="graph" class="graph">
<g id="viewport">
<title>chig::NodeType::dataOutputs</title>
<polygon fill="#ffffff" stroke="transparent" points="-4,4 -4,-171.5 1839,-171.5 1839,4 -4,4"/>
<!-- Node90 -->
<g id="node1" class="node">
<title>Node90</title>
<polygon fill="#bfbfbf" stroke="#000000" points="0,-66 0,-85 144,-85 144,-66 0,-66"/>
<text text-anchor="middle" x="72" y="-73" font-family="Helvetica,sans-Serif" font-size="10.00" fill="#000000">chig::NodeType::dataOutputs</text>
</g>
<!-- Node91 -->
<g id="node2" class="node">
<title>Node91</title>
<g id="a_node2"><a xlink:href="namespacechig.html#ad3c2fc880f6843f9a8a0f5ee0d62249d" target="_top" xlink:title="Connects two nodes&#39; data connections. ">
<polygon fill="#ffffff" stroke="#000000" points="328.5,-137 328.5,-156 423.5,-156 423.5,-137 328.5,-137"/>
<text text-anchor="middle" x="376" y="-144" font-family="Helvetica,sans-Serif" font-size="10.00" fill="#000000">chig::connectData</text>
</a>
</g>
</g>
<!-- Node90&#45;&gt;Node91 -->
<g id="edge1" class="edge">
<title>Node90&#45;&gt;Node91</title>
<path fill="none" stroke="#191970" d="M122.6276,-87.3242C182.2267,-101.2437 280.0384,-124.0879 335.0721,-136.9412"/>
<polygon fill="#191970" stroke="#191970" points="123.2173,-83.8678 112.6834,-85.0017 121.6253,-90.6844 123.2173,-83.8678"/>
</g>
<!-- Node106 -->
<g id="node17" class="node">
<title>Node106</title>
<g id="a_node17"><a xlink:href="namespacechig.html#a26aa6586df79345493de9fc130291c18" target="_top" xlink:title="Disconnect a data connection. ">
<polygon fill="#ffffff" stroke="#000000" points="180,-66 180,-85 288,-85 288,-66 180,-66"/>
<text text-anchor="middle" x="234" y="-73" font-family="Helvetica,sans-Serif" font-size="10.00" fill="#000000">chig::disconnectData</text>
</a>
</g>
</g>
<!-- Node90&#45;&gt;Node106 -->
<g id="edge17" class="edge">
<title>Node90&#45;&gt;Node106</title>
<path fill="none" stroke="#191970" d="M154.7356,-75.5C163.1605,-75.5 171.5604,-75.5 179.5704,-75.5"/>
<polygon fill="#191970" stroke="#191970" points="154.4711,-72.0001 144.4711,-75.5 154.4711,-79.0001 154.4711,-72.0001"/>
</g>
<!-- Node112 -->
<g id="node23" class="node">
<title>Node112</title>
<g id="a_node23"><a xlink:href="structchig_1_1NodeInstance.html#ab7b23fb84fff7176f7a6e62ce3762153" target="_top" xlink:title="Set the type of the node instance. ">
<polygon fill="#ffffff" stroke="#000000" points="325.5,-.5 325.5,-30.5 426.5,-30.5 426.5,-.5 325.5,-.5"/>
<text text-anchor="start" x="333.5" y="-18.5" font-family="Helvetica,sans-Serif" font-size="10.00" fill="#000000">chig::NodeInstance</text>
<text text-anchor="middle" x="376" y="-7.5" font-family="Helvetica,sans-Serif" font-size="10.00" fill="#000000">::setType</text>
</a>
</g>
</g>
<!-- Node90&#45;&gt;Node112 -->
<g id="edge27" class="edge">
<title>Node90&#45;&gt;Node112</title>
<path fill="none" stroke="#191970" d="M130.0195,-64.0488C186.4845,-52.9044 271.4276,-36.1393 325.269,-25.5127"/>
<polygon fill="#191970" stroke="#191970" points="129.3027,-60.6227 120.1697,-65.9928 130.6582,-67.4902 129.3027,-60.6227"/>
</g>
<!-- Node92 -->
<g id="node3" class="node">
<title>Node92</title>
<g id="a_node3"><a xlink:href="namespacechig.html#a62056798e67720d435705b99f7e16cd0" target="_top" xlink:title="Load a GraphFunction–must already exist (use createGraphFunctionDeclarationFromJson) ...">
<polygon fill="#ffffff" stroke="#000000" points="464,-148 464,-167 598,-167 598,-148 464,-148"/>
<text text-anchor="middle" x="531" y="-155" font-family="Helvetica,sans-Serif" font-size="10.00" fill="#000000">chig::jsonToGraphFunction</text>
</a>
</g>
</g>
<!-- Node91&#45;&gt;Node92 -->
<g id="edge2" class="edge">
<title>Node91&#45;&gt;Node92</title>
<path fill="none" stroke="#191970" d="M433.7583,-150.599C443.5262,-151.2922 453.7423,-152.0172 463.7279,-152.7259"/>
<polygon fill="#191970" stroke="#191970" points="433.9926,-147.1069 423.7699,-149.8901 433.497,-154.0893 433.9926,-147.1069"/>
</g>
<!-- Node102 -->
<g id="node13" class="node">
<title>Node102</title>
<g id="a_node13"><a xlink:href="structchig_1_1NodeInstance.html#acb8bab6d96bbfa9facdfb5aca22d43a1" target="_top" xlink:title="Get the containing GraphModule. ">
<polygon fill="#ffffff" stroke="#000000" points="480.5,-98.5 480.5,-128.5 581.5,-128.5 581.5,-98.5 480.5,-98.5"/>
<text text-anchor="start" x="488.5" y="-116.5" font-family="Helvetica,sans-Serif" font-size="10.00" fill="#000000">chig::NodeInstance</text>
<text text-anchor="middle" x="531" y="-105.5" font-family="Helvetica,sans-Serif" font-size="10.00" fill="#000000">::module</text>
</a>
</g>
</g>
<!-- Node91&#45;&gt;Node102 -->
<g id="edge12" class="edge">
<title>Node91&#45;&gt;Node102</title>
<path fill="none" stroke="#191970" d="M430.6655,-134.8615C446.8045,-131.4255 464.3942,-127.6806 480.274,-124.2997"/>
<polygon fill="#191970" stroke="#191970" points="429.8844,-131.4493 420.8324,-136.955 431.3421,-138.2959 429.8844,-131.4493"/>
</g>
<!-- Node93 -->
<g id="node4" class="node">
<title>Node93</title>
<g id="a_node4"><a xlink:href="namespacechig.html#a3b1bc50c9d7b3cdb17ffcb3ad602f7ab" target="_top" xlink:title="Load a GraphModule from json. ">
<polygon fill="#ffffff" stroke="#000000" points="644,-147 644,-166 772,-166 772,-147 644,-147"/>
<text text-anchor="middle" x="708" y="-154" font-family="Helvetica,sans-Serif" font-size="10.00" fill="#000000">chig::jsonToGraphModule</text>
</a>
</g>
</g>
<!-- Node92&#45;&gt;Node93 -->
<g id="edge3" class="edge">
<title>Node92&#45;&gt;Node93</title>
<path fill="none" stroke="#191970" d="M608.4503,-157.0624C620.2527,-156.9957 632.3216,-156.9276 643.7993,-156.8627"/>
<polygon fill="#191970" stroke="#191970" points="608.1485,-153.564 598.1685,-157.1205 608.1881,-160.5639 608.1485,-153.564"/>
</g>
<!-- Node94 -->
<g id="node5" class="node">
<title>Node94</title>
<g id="a_node5"><a xlink:href="structchig_1_1Context.html#a077f8ef8c0dd541ec2e2d64bcd8f9fc0" target="_top" xlink:title="Load a module from JSON – avoid this use the string overload. ">
<polygon fill="#ffffff" stroke="#000000" points="818,-122.5 818,-152.5 946,-152.5 946,-122.5 818,-122.5"/>
<text text-anchor="start" x="826" y="-140.5" font-family="Helvetica,sans-Serif" font-size="10.00" fill="#000000">chig::Context::addModule</text>
<text text-anchor="middle" x="882" y="-129.5" font-family="Helvetica,sans-Serif" font-size="10.00" fill="#000000">FromJson</text>
</a>
</g>
</g>
<!-- Node93&#45;&gt;Node94 -->
<g id="edge4" class="edge">
<title>Node93&#45;&gt;Node94</title>
<path fill="none" stroke="#191970" d="M782.5549,-148.359C794.3445,-147.0716 806.4454,-145.7502 817.9675,-144.4921"/>
<polygon fill="#191970" stroke="#191970" points="781.8578,-144.9142 772.2968,-149.4791 782.6177,-151.8728 781.8578,-144.9142"/>
</g>
<!-- Node95 -->
<g id="node6" class="node">
<title>Node95</title>
<g id="a_node6"><a xlink:href="structchig_1_1Context.html#a75ab64b58e168998761ed6ebd5e493b2" target="_top" xlink:title="Load a module from disk. ">
<polygon fill="#ffffff" stroke="#000000" points="984,-127 984,-146 1114,-146 1114,-127 984,-127"/>
<text text-anchor="middle" x="1049" y="-134" font-family="Helvetica,sans-Serif" font-size="10.00" fill="#000000">chig::Context::loadModule</text>
</a>
</g>
</g>
<!-- Node94&#45;&gt;Node95 -->
<g id="edge5" class="edge">
<title>Node94&#45;&gt;Node95</title>
<path fill="none" stroke="#191970" d="M956.0904,-137.0563C965.3848,-137.0007 974.8368,-136.9441 983.9777,-136.8894"/>
<polygon fill="#191970" stroke="#191970" points="956.0678,-133.5563 946.089,-137.1162 956.1098,-140.5562 956.0678,-133.5563"/>
</g>
<!-- Node96 -->
<g id="node7" class="node">
<title>Node96</title>
<g id="a_node7"><a xlink:href="structchig_1_1ChigModule.html#ad5feee65f261f3777edddd027eb89400" target="_top" xlink:title="Add a dependency to the module Loads the module from context() if it isn&#39;t already loaded...">
<polygon fill="#ffffff" stroke="#000000" points="1152,-125 1152,-144 1319,-144 1319,-125 1152,-125"/>
<text text-anchor="middle" x="1235.5" y="-132" font-family="Helvetica,sans-Serif" font-size="10.00" fill="#000000">chig::ChigModule::addDependency</text>
</a>
</g>
</g>
<!-- Node95&#45;&gt;Node96 -->
<g id="edge6" class="edge">
<title>Node95&#45;&gt;Node96</title>
<path fill="none" stroke="#191970" d="M1124.3625,-135.6918C1133.4439,-135.5944 1142.7603,-135.4945 1151.9498,-135.396"/>
<polygon fill="#191970" stroke="#191970" points="1124.1905,-132.1934 1114.2286,-135.8005 1124.2656,-139.193 1124.1905,-132.1934"/>
</g>
<!-- Node97 -->
<g id="node8" class="node">
<title>Node97</title>
<g id="a_node8"><a xlink:href="structchig_1_1ChigModule.html#a7f239dc07b0a4d74d6907da6f25127dc" target="_top" xlink:title="Get the dependencies. ">
<polygon fill="#ffffff" stroke="#000000" points="1355,-125 1355,-144 1513,-144 1513,-125 1355,-125"/>
<text text-anchor="middle" x="1434" y="-132" font-family="Helvetica,sans-Serif" font-size="10.00" fill="#000000">chig::ChigModule::dependencies</text>
</a>
</g>
</g>
<!-- Node96&#45;&gt;Node97 -->
<g id="edge7" class="edge">
<title>Node96&#45;&gt;Node97</title>
<path fill="none" stroke="#191970" d="M1329.1763,-134.5C1337.7894,-134.5 1346.4588,-134.5 1354.9237,-134.5"/>
<polygon fill="#191970" stroke="#191970" points="1329.1066,-131.0001 1319.1066,-134.5 1329.1065,-138.0001 1329.1066,-131.0001"/>
</g>
<!-- Node101 -->
<g id="node12" class="node">
<title>Node101</title>
<g id="a_node12"><a xlink:href="structchig_1_1GraphModule.html#a65458343d0344b6b806f9b0b780b32f4" target="_top" xlink:title="Construct a GraphModule. ">
<polygon fill="#ffffff" stroke="#000000" points="1382,-75.5 1382,-105.5 1486,-105.5 1486,-75.5 1382,-75.5"/>
<text text-anchor="start" x="1390" y="-93.5" font-family="Helvetica,sans-Serif" font-size="10.00" fill="#000000">chig::GraphModule::</text>
<text text-anchor="middle" x="1434" y="-82.5" font-family="Helvetica,sans-Serif" font-size="10.00" fill="#000000">GraphModule</text>
</a>
</g>
</g>
<!-- Node96&#45;&gt;Node101 -->
<g id="edge11" class="edge">
<title>Node96&#45;&gt;Node101</title>
<path fill="none" stroke="#191970" d="M1288.4943,-122.7532C1317.4058,-116.3446 1353.0626,-108.4408 1381.8424,-102.0614"/>
<polygon fill="#191970" stroke="#191970" points="1287.5771,-119.3714 1278.5715,-124.9527 1289.092,-126.2055 1287.5771,-119.3714"/>
</g>
<!-- Node98 -->
<g id="node9" class="node">
<title>Node98</title>
<g id="a_node9"><a xlink:href="structchig_1_1Context.html#ac585794db13b27b3f69a51aa9d7fd01c" target="_top" xlink:title="Compile a module to a llvm::Module. ">
<polygon fill="#ffffff" stroke="#000000" points="1549,-125 1549,-144 1695,-144 1695,-125 1549,-125"/>
<text text-anchor="middle" x="1622" y="-132" font-family="Helvetica,sans-Serif" font-size="10.00" fill="#000000">chig::Context::compileModule</text>
</a>
</g>
</g>
<!-- Node97&#45;&gt;Node98 -->
<g id="edge8" class="edge">
<title>Node97&#45;&gt;Node98</title>
<path fill="none" stroke="#191970" d="M1523.2342,-134.5C1531.831,-134.5 1540.4811,-134.5 1548.8959,-134.5"/>
<polygon fill="#191970" stroke="#191970" points="1523.1841,-131.0001 1513.184,-134.5 1523.184,-138.0001 1523.1841,-131.0001"/>
</g>
<!-- Node99 -->
<g id="node10" class="node">
<title>Node99</title>
<g id="a_node10"><a xlink:href="namespacechig.html#aaef3bb08f472ae32b2d3b292e69a007a" target="_top" xlink:title="Serialize a JsonModule to json. ">
<polygon fill="#ffffff" stroke="#000000" points="1558,-62 1558,-81 1686,-81 1686,-62 1558,-62"/>
<text text-anchor="middle" x="1622" y="-69" font-family="Helvetica,sans-Serif" font-size="10.00" fill="#000000">chig::graphModuleToJson</text>
</a>
</g>
</g>
<!-- Node97&#45;&gt;Node99 -->
<g id="edge9" class="edge">
<title>Node97&#45;&gt;Node99</title>
<path fill="none" stroke="#191970" d="M1488.5624,-122.4936C1496.8063,-120.3582 1505.168,-118.0075 1513,-115.5 1544.2911,-105.482 1579.3359,-90.6617 1601.0366,-81.0419"/>
<polygon fill="#191970" stroke="#191970" points="1487.4579,-119.162 1478.6084,-124.9875 1489.1592,-125.9521 1487.4579,-119.162"/>
</g>
<!-- Node100 -->
<g id="node11" class="node">
<title>Node100</title>
<g id="a_node11"><a xlink:href="structchig_1_1GraphModule.html#accb1a64da697a29e28d78a9a09bd52ff" target="_top" xlink:title="Serialize to disk in the context. ">
<polygon fill="#ffffff" stroke="#000000" points="1731,-56.5 1731,-86.5 1835,-86.5 1835,-56.5 1731,-56.5"/>
<text text-anchor="start" x="1739" y="-74.5" font-family="Helvetica,sans-Serif" font-size="10.00" fill="#000000">chig::GraphModule::</text>
<text text-anchor="middle" x="1783" y="-63.5" font-family="Helvetica,sans-Serif" font-size="10.00" fill="#000000">saveToDisk</text>
</a>
</g>
</g>
<!-- Node99&#45;&gt;Node100 -->
<g id="edge10" class="edge">
<title>Node99&#45;&gt;Node100</title>
<path fill="none" stroke="#191970" d="M1696.2614,-71.5C1707.9107,-71.5 1719.7352,-71.5 1730.7514,-71.5"/>
<polygon fill="#191970" stroke="#191970" points="1696.0941,-68.0001 1686.0941,-71.5 1696.094,-75.0001 1696.0941,-68.0001"/>
</g>
<!-- Node103 -->
<g id="node14" class="node">
<title>Node103</title>
<g id="a_node14"><a xlink:href="classchig_1_1Debugger.html#a14ba3a1e81f210a2055f7f80f3c26088" target="_top" xlink:title="Set a breakpoint on a given node. ">
<polygon fill="#ffffff" stroke="#000000" points="634,-108 634,-127 782,-127 782,-108 634,-108"/>
<text text-anchor="middle" x="708" y="-115" font-family="Helvetica,sans-Serif" font-size="10.00" fill="#000000">chig::Debugger::setBreakpoint</text>
</a>
</g>
</g>
<!-- Node102&#45;&gt;Node103 -->
<g id="edge13" class="edge">
<title>Node102&#45;&gt;Node103</title>
<path fill="none" stroke="#191970" d="M591.8536,-114.8752C605.3794,-115.1809 619.8629,-115.5082 633.8545,-115.8244"/>
<polygon fill="#191970" stroke="#191970" points="591.7977,-111.3732 581.7211,-114.6462 591.6394,-118.3714 591.7977,-111.3732"/>
</g>
<!-- Node105 -->
<g id="node16" class="node">
<title>Node105</title>
<g id="a_node16"><a xlink:href="classchig_1_1Debugger.html#a4cb57c7595304ab8f85144e4fc24ae94" target="_top" xlink:title="Get the output of a node. ">
<polygon fill="#ffffff" stroke="#000000" points="637,-58.5 637,-88.5 779,-88.5 779,-58.5 637,-58.5"/>
<text text-anchor="start" x="645" y="-76.5" font-family="Helvetica,sans-Serif" font-size="10.00" fill="#000000">chig::Debugger::inspectNode</text>
<text text-anchor="middle" x="708" y="-65.5" font-family="Helvetica,sans-Serif" font-size="10.00" fill="#000000">Output</text>
</a>
</g>
</g>
<!-- Node102&#45;&gt;Node105 -->
<g id="edge15" class="edge">
<title>Node102&#45;&gt;Node105</title>
<path fill="none" stroke="#191970" d="M591.5285,-99.8212C607.5996,-96.1893 625.0424,-92.2475 641.4169,-88.547"/>
<polygon fill="#191970" stroke="#191970" points="590.7036,-96.4193 581.7211,-102.0376 592.2467,-103.2471 590.7036,-96.4193"/>
</g>
<!-- Node104 -->
<g id="node15" class="node">
<title>Node104</title>
<g id="a_node15"><a xlink:href="classchig_1_1Debugger.html#a9c77e0119f3b81fabce49ea20879fd33" target="_top" xlink:title="Check if the process is executing. ">
<polygon fill="#ffffff" stroke="#000000" points="822.5,-82 822.5,-101 941.5,-101 941.5,-82 822.5,-82"/>
<text text-anchor="middle" x="882" y="-89" font-family="Helvetica,sans-Serif" font-size="10.00" fill="#000000">chig::Debugger::running</text>
</a>
</g>
</g>
<!-- Node103&#45;&gt;Node104 -->
<g id="edge14" class="edge">
<title>Node103&#45;&gt;Node104</title>
<path fill="none" stroke="#191970" d="M781.9774,-106.4459C795.4189,-104.4374 809.2848,-102.3655 822.2522,-100.4278"/>
<polygon fill="#191970" stroke="#191970" points="781.1761,-103.0267 771.8032,-107.9662 782.2106,-109.9498 781.1761,-103.0267"/>
</g>
<!-- Node105&#45;&gt;Node104 -->
<g id="edge16" class="edge">
<title>Node105&#45;&gt;Node104</title>
<path fill="none" stroke="#191970" d="M789.2108,-81.9011C800.3657,-83.0551 811.6482,-84.2222 822.3202,-85.3262"/>
<polygon fill="#191970" stroke="#191970" points="789.3305,-78.3949 779.0234,-80.8473 788.6102,-85.3578 789.3305,-78.3949"/>
</g>
<!-- Node106&#45;&gt;Node91 -->
<g id="edge18" class="edge">
<title>Node106&#45;&gt;Node91</title>
<path fill="none" stroke="#191970" d="M260.9989,-90.0389C278.7832,-99.5067 302.6435,-112.0029 324,-122.5 333.9941,-127.4123 345.1965,-132.62 354.637,-136.9245"/>
<polygon fill="#191970" stroke="#191970" points="262.2676,-86.7486 251.7983,-85.1226 258.9686,-92.9224 262.2676,-86.7486"/>
</g>
<!-- Node106&#45;&gt;Node102 -->
<g id="edge19" class="edge">
<title>Node106&#45;&gt;Node102</title>
<path fill="none" stroke="#191970" d="M298.2863,-84.9716C306.926,-86.1901 315.6761,-87.3963 324,-88.5 377.2886,-95.5656 438.4077,-102.8462 480.3415,-107.715"/>
<polygon fill="#191970" stroke="#191970" points="298.6199,-81.4839 288.2267,-83.5409 297.6342,-88.4142 298.6199,-81.4839"/>
</g>
<!-- Node107 -->
<g id="node18" class="node">
<title>Node107</title>
<g id="a_node18"><a xlink:href="structchig_1_1GraphFunction.html#a398599d8fe1982a3c76462b1b2375a6e" target="_top" xlink:title="Remove a node from the function. ">
<polygon fill="#ffffff" stroke="#000000" points="324,-49.5 324,-79.5 428,-79.5 428,-49.5 324,-49.5"/>
<text text-anchor="start" x="332" y="-67.5" font-family="Helvetica,sans-Serif" font-size="10.00" fill="#000000">chig::GraphFunction</text>
<text text-anchor="middle" x="376" y="-56.5" font-family="Helvetica,sans-Serif" font-size="10.00" fill="#000000">::removeNode</text>
</a>
</g>
</g>
<!-- Node106&#45;&gt;Node107 -->
<g id="edge20" class="edge">
<title>Node106&#45;&gt;Node107</title>
<path fill="none" stroke="#191970" d="M298.1337,-70.5319C306.77,-69.8629 315.5431,-69.1833 323.9355,-68.5332"/>
<polygon fill="#191970" stroke="#191970" points="297.789,-67.048 288.0892,-71.31 298.3297,-74.0271 297.789,-67.048"/>
</g>
<!-- Node106&#45;&gt;Node112 -->
<g id="edge26" class="edge">
<title>Node106&#45;&gt;Node112</title>
<path fill="none" stroke="#191970" d="M265.7867,-62.069C287.9008,-52.725 317.4095,-40.2565 340.3278,-30.5728"/>
<polygon fill="#191970" stroke="#191970" points="264.3495,-58.8766 256.5003,-65.9928 267.0741,-65.3246 264.3495,-58.8766"/>
</g>
<!-- Node108 -->
<g id="node19" class="node">
<title>Node108</title>
<g id="a_node19"><a xlink:href="structchig_1_1GraphFunction.html#aed770126edca8a167de5e44582e646de" target="_top" xlink:title="chig::GraphFunction\l::nodes">
<polygon fill="#ffffff" stroke="#000000" points="479,-49.5 479,-79.5 583,-79.5 583,-49.5 479,-49.5"/>
<text text-anchor="start" x="487" y="-67.5" font-family="Helvetica,sans-Serif" font-size="10.00" fill="#000000">chig::GraphFunction</text>
<text text-anchor="middle" x="531" y="-56.5" font-family="Helvetica,sans-Serif" font-size="10.00" fill="#000000">::nodes</text>
</a>
</g>
</g>
<!-- Node107&#45;&gt;Node108 -->
<g id="edge21" class="edge">
<title>Node107&#45;&gt;Node108</title>
<path fill="none" stroke="#191970" d="M438.1945,-64.5C451.6694,-64.5 465.7871,-64.5 478.8296,-64.5"/>
<polygon fill="#191970" stroke="#191970" points="438.044,-61.0001 428.0439,-64.5 438.0439,-68.0001 438.044,-61.0001"/>
</g>
<!-- Node109 -->
<g id="node20" class="node">
<title>Node109</title>
<g id="a_node20"><a xlink:href="structchig_1_1GraphFunction.html#a1c45651f8ac9b7bf9cebcd11d91763f0" target="_top" xlink:title="Remove a local variable from the function by name. ">
<polygon fill="#ffffff" stroke="#000000" points="651.5,-8.5 651.5,-38.5 764.5,-38.5 764.5,-8.5 651.5,-8.5"/>
<text text-anchor="start" x="659.5" y="-26.5" font-family="Helvetica,sans-Serif" font-size="10.00" fill="#000000">chig::GraphFunction</text>
<text text-anchor="middle" x="708" y="-15.5" font-family="Helvetica,sans-Serif" font-size="10.00" fill="#000000">::removeLocalVariable</text>
</a>
</g>
</g>
<!-- Node107&#45;&gt;Node109 -->
<g id="edge22" class="edge">
<title>Node107&#45;&gt;Node109</title>
<path fill="none" stroke="#191970" d="M432.0738,-46.6649C442.5923,-43.8643 453.5632,-41.3038 464,-39.5 527.5845,-28.5107 601.682,-24.9306 651.3922,-23.8354"/>
<polygon fill="#191970" stroke="#191970" points="430.8652,-43.3677 422.1599,-49.4066 432.7311,-50.1144 430.8652,-43.3677"/>
</g>
<!-- Node110 -->
<g id="node21" class="node">
<title>Node110</title>
<g id="a_node21"><a xlink:href="structchig_1_1GraphFunction.html#a72a81861d1331948804b2a267598ec79" target="_top" xlink:title="Get the local variables. ">
<polygon fill="#ffffff" stroke="#000000" points="830,-27.5 830,-57.5 934,-57.5 934,-27.5 830,-27.5"/>
<text text-anchor="start" x="838" y="-45.5" font-family="Helvetica,sans-Serif" font-size="10.00" fill="#000000">chig::GraphFunction</text>
<text text-anchor="middle" x="882" y="-34.5" font-family="Helvetica,sans-Serif" font-size="10.00" fill="#000000">::localVariables</text>
</a>
</g>
</g>
<!-- Node109&#45;&gt;Node110 -->
<g id="edge23" class="edge">
<title>Node109&#45;&gt;Node110</title>
<path fill="none" stroke="#191970" d="M774.9484,-30.8105C793.1712,-32.8003 812.6353,-34.9257 829.9011,-36.811"/>
<polygon fill="#191970" stroke="#191970" points="775.295,-27.3276 764.9741,-29.7213 774.5351,-34.2862 775.295,-27.3276"/>
</g>
<!-- Node111 -->
<g id="node22" class="node">
<title>Node111</title>
<g id="a_node22"><a xlink:href="namespacechig.html#ad0fd9448ab1cd1d73351fad5967a7b9b" target="_top" xlink:title="Serialize a GraphFunction to json. ">
<polygon fill="#ffffff" stroke="#000000" points="982,-35 982,-54 1116,-54 1116,-35 982,-35"/>
<text text-anchor="middle" x="1049" y="-42" font-family="Helvetica,sans-Serif" font-size="10.00" fill="#000000">chig::graphFunctionToJson</text>
</a>
</g>
</g>
<!-- Node110&#45;&gt;Node111 -->
<g id="edge24" class="edge">
<title>Node110&#45;&gt;Node111</title>
<path fill="none" stroke="#191970" d="M944.4373,-43.2478C956.617,-43.3936 969.4363,-43.5471 981.7637,-43.6948"/>
<polygon fill="#191970" stroke="#191970" points="944.4229,-39.7474 934.3816,-43.1273 944.339,-46.7469 944.4229,-39.7474"/>
</g>
<!-- Node111&#45;&gt;Node99 -->
<g id="edge25" class="edge">
<title>Node111&#45;&gt;Node99</title>
<path fill="none" stroke="#191970" d="M1126.3194,-47.7683C1218.43,-51.7154 1376.9591,-58.6774 1513,-65.5 1527.4803,-66.2262 1543.0398,-67.0542 1557.7406,-67.8582"/>
<polygon fill="#191970" stroke="#191970" points="1126.3857,-44.2681 1116.2452,-47.3373 1126.0864,-51.2617 1126.3857,-44.2681"/>
</g>
</g>
</svg>
        <g id="navigator" transform="translate(0 0)" fill="#404254">
                <rect fill="#f2f5e9" fill-opacity="0.5" stroke="#606060" stroke-width=".5" x="0" y="0" width="60" height="60"/>
                <use id="zoomplus" xlink:href="#zoomPlus" x="17" y="9" onmousedown="handleZoom(evt,'in')"/>
                <use id="zoomminus" xlink:href="#zoomMin" x="42" y="9" onmousedown="handleZoom(evt,'out')"/>
                <use id="reset" xlink:href="#resetDef" x="30" y="36" onmousedown="handleReset()"/>
                <g id="arrowUp" xlink:href="#dirArrow" transform="translate(30 24)" onmousedown="handlePan(0,-1)">
                  <use xlink:href="#rim" fill="#404040">
                        <set attributeName="fill" to="#808080" begin="arrowUp.mouseover" end="arrowUp.mouseout"/>
                  </use>
                  <path fill="none" stroke="white" stroke-width="1.5" d="M0,-3.0v7 M-2.5,-0.5L0,-3.0L2.5,-0.5"/>
                </g>
                <g id="arrowRight" xlink:href="#dirArrow" transform="rotate(90) translate(36 -43)" onmousedown="handlePan(1,0)">
                  <use xlink:href="#rim" fill="#404040">
                        <set attributeName="fill" to="#808080" begin="arrowRight.mouseover" end="arrowRight.mouseout"/>
                  </use>
                  <path fill="none" stroke="white" stroke-width="1.5" d="M0,-3.0v7 M-2.5,-0.5L0,-3.0L2.5,-0.5"/>
                </g>
                <g id="arrowDown" xlink:href="#dirArrow" transform="rotate(180) translate(-30 -48)" onmousedown="handlePan(0,1)">
                  <use xlink:href="#rim" fill="#404040">
                        <set attributeName="fill" to="#808080" begin="arrowDown.mouseover" end="arrowDown.mouseout"/>
                  </use>
                  <path fill="none" stroke="white" stroke-width="1.5" d="M0,-3.0v7 M-2.5,-0.5L0,-3.0L2.5,-0.5"/>
                </g>
                <g id="arrowLeft" xlink:href="#dirArrow" transform="rotate(270) translate(-36 17)" onmousedown="handlePan(-1,0)">
                  <use xlink:href="#rim" fill="#404040">
                        <set attributeName="fill" to="#808080" begin="arrowLeft.mouseover" end="arrowLeft.mouseout"/>
                  </use>
                  <path fill="none" stroke="white" stroke-width="1.5" d="M0,-3.0v7 M-2.5,-0.5L0,-3.0L2.5,-0.5"/>
                </g>
        </g>
        <svg viewBox="0 0 15 15" width="100%" height="30px" preserveAspectRatio="xMaxYMin meet">
         <g id="arrow_out" transform="scale(0.3 0.3)">
          <a xlink:href="structchig_1_1NodeType_aed44920726e20a4403f3d43f88cadb54_icgraph_org.svg" target="_base">
           <rect id="button" ry="5" rx="5" y="6" x="6" height="38" width="38"
                fill="#f2f5e9" fill-opacity="0.5" stroke="#606060" stroke-width="1.0"/>
           <path id="arrow"
             d="M 11.500037,31.436501 C 11.940474,20.09759 22.043105,11.32322 32.158766,21.979434 L 37.068811,17.246167 C 37.068811,17.246167 37.088388,32 37.088388,32 L 22.160133,31.978069 C 22.160133,31.978069 26.997745,27.140456 26.997745,27.140456 C 18.528582,18.264221 13.291696,25.230495 11.500037,31.436501 z"
             style="fill:#404040;"/>
          </a>
         </g>
        </svg>
</svg>
