<?xml version="1.0" encoding="UTF-8" standalone="no"?>
<!DOCTYPE svg PUBLIC "-//W3C//DTD SVG 1.1//EN"
 "http://www.w3.org/Graphics/SVG/1.1/DTD/svg11.dtd">
<!-- Generated by graphviz version 2.40.1 (20161225.0304)
 -->
<!-- Title: chi::Context::nodeTypeFromModule Pages: 1 -->
<svg width="1582pt" height="219pt"
 viewBox="0.00 0.00 1582.00 219.00" xmlns="http://www.w3.org/2000/svg" xmlns:xlink="http://www.w3.org/1999/xlink">
<g id="graph0" class="graph" transform="scale(1 1) rotate(0) translate(4 215)">
<title>chi::Context::nodeTypeFromModule</title>
<polygon fill="#ffffff" stroke="transparent" points="-4,4 -4,-215 1578,-215 1578,4 -4,4"/>
<!-- Node269 -->
<g id="node1" class="node">
<title>Node269</title>
<polygon fill="#bfbfbf" stroke="#000000" points="0,-66.5 0,-96.5 140,-96.5 140,-66.5 0,-66.5"/>
<text text-anchor="start" x="8" y="-84.5" font-family="Helvetica,sans-Serif" font-size="10.00" fill="#000000">chi::Context::nodeTypeFrom</text>
<text text-anchor="middle" x="70" y="-73.5" font-family="Helvetica,sans-Serif" font-size="10.00" fill="#000000">Module</text>
</g>
<!-- Node270 -->
<g id="node2" class="node">
<title>Node270</title>
<g id="a_node2"><a xlink:href="structchi_1_1GraphFunction.html#a1d740529978bdf31284b6b815ec0426b" target="_top" xlink:title="Create a fresh NodeType for an entry. ">
<polygon fill="#ffffff" stroke="#000000" points="181.5,-88.5 181.5,-118.5 298.5,-118.5 298.5,-88.5 181.5,-88.5"/>
<text text-anchor="start" x="189.5" y="-106.5" font-family="Helvetica,sans-Serif" font-size="10.00" fill="#000000">chi::GraphFunction</text>
<text text-anchor="middle" x="240" y="-95.5" font-family="Helvetica,sans-Serif" font-size="10.00" fill="#000000">::createEntryNodeType</text>
</a>
</g>
</g>
<!-- Node269&#45;&gt;Node270 -->
<g id="edge1" class="edge">
<title>Node269&#45;&gt;Node270</title>
<path fill="none" stroke="#191970" d="M150.1676,-91.8746C160.6938,-93.2369 171.3192,-94.6119 181.3952,-95.9159"/>
<polygon fill="#191970" stroke="#191970" points="150.4935,-88.3877 140.127,-90.5753 149.5951,-95.3298 150.4935,-88.3877"/>
</g>
<!-- Node275 -->
<g id="node7" class="node">
<title>Node275</title>
<g id="a_node7"><a xlink:href="structchi_1_1GraphFunction.html#af14ad950cfff4ad3091827f9b6ad1cd2" target="_top" xlink:title="Create a fresh NodeType for an exit. ">
<polygon fill="#ffffff" stroke="#000000" points="707,-180.5 707,-210.5 818,-210.5 818,-180.5 707,-180.5"/>
<text text-anchor="start" x="715" y="-198.5" font-family="Helvetica,sans-Serif" font-size="10.00" fill="#000000">chi::GraphFunction</text>
<text text-anchor="middle" x="762.5" y="-187.5" font-family="Helvetica,sans-Serif" font-size="10.00" fill="#000000">::createExitNodeType</text>
</a>
</g>
</g>
<!-- Node269&#45;&gt;Node275 -->
<g id="edge13" class="edge">
<title>Node269&#45;&gt;Node275</title>
<path fill="none" stroke="#191970" d="M111.264,-100.7042C130.6964,-109.4118 154.3205,-119.5204 176,-127.5 381.6823,-203.2056 444.853,-201.8365 664,-198.5 677.8564,-198.289 692.8054,-197.9112 706.7684,-197.4933"/>
<polygon fill="#191970" stroke="#191970" points="112.6421,-97.4862 102.0881,-96.5576 109.7595,-103.8651 112.6421,-97.4862"/>
</g>
<!-- Node279 -->
<g id="node11" class="node">
<title>Node279</title>
<g id="a_node11"><a xlink:href="structchi_1_1GraphFunction.html#abcd2e1de52782e5a16aca65b9af328ca" target="_top" xlink:title="Add a node to the graph using module, type, and json. ">
<polygon fill="#ffffff" stroke="#000000" points="190.5,-.5 190.5,-30.5 289.5,-30.5 289.5,-.5 190.5,-.5"/>
<text text-anchor="start" x="198.5" y="-18.5" font-family="Helvetica,sans-Serif" font-size="10.00" fill="#000000">chi::GraphFunction</text>
<text text-anchor="middle" x="240" y="-7.5" font-family="Helvetica,sans-Serif" font-size="10.00" fill="#000000">::insertNode</text>
</a>
</g>
</g>
<!-- Node269&#45;&gt;Node279 -->
<g id="edge14" class="edge">
<title>Node269&#45;&gt;Node279</title>
<path fill="none" stroke="#191970" d="M118.381,-62.7168C144.6123,-52.5329 176.5963,-40.1156 201.18,-30.5713"/>
<polygon fill="#191970" stroke="#191970" points="117.0568,-59.4763 109.0014,-66.3583 119.5903,-66.0018 117.0568,-59.4763"/>
</g>
<!-- Node280 -->
<g id="node12" class="node">
<title>Node280</title>
<g id="a_node12"><a xlink:href="namespacechi.html#a6a3fedb48e6702c016f996d8a7f445fc" target="_top" xlink:title="Load a GraphFunction–must already exist (use createGraphFunctionDeclarationFromJson) ...">
<polygon fill="#ffffff" stroke="#000000" points="176,-50 176,-69 304,-69 304,-50 176,-50"/>
<text text-anchor="middle" x="240" y="-57" font-family="Helvetica,sans-Serif" font-size="10.00" fill="#000000">chi::jsonToGraphFunction</text>
</a>
</g>
</g>
<!-- Node269&#45;&gt;Node280 -->
<g id="edge15" class="edge">
<title>Node269&#45;&gt;Node280</title>
<path fill="none" stroke="#191970" d="M150.1546,-71.1271C158.7405,-70.0159 167.3925,-68.8963 175.7587,-67.8136"/>
<polygon fill="#191970" stroke="#191970" points="149.5951,-67.6702 140.127,-72.4247 150.4935,-74.6123 149.5951,-67.6702"/>
</g>
<!-- Node271 -->
<g id="node3" class="node">
<title>Node271</title>
<g id="a_node3"><a xlink:href="structchi_1_1GraphFunction.html#a900c0b670ad04a76b6add803ade7ae0d" target="_top" xlink:title="chi::GraphFunction\l::nodes">
<polygon fill="#ffffff" stroke="#000000" points="890,-88.5 890,-118.5 989,-118.5 989,-88.5 890,-88.5"/>
<text text-anchor="start" x="898" y="-106.5" font-family="Helvetica,sans-Serif" font-size="10.00" fill="#000000">chi::GraphFunction</text>
<text text-anchor="middle" x="939.5" y="-95.5" font-family="Helvetica,sans-Serif" font-size="10.00" fill="#000000">::nodes</text>
</a>
</g>
</g>
<!-- Node270&#45;&gt;Node271 -->
<g id="edge2" class="edge">
<title>Node270&#45;&gt;Node271</title>
<path fill="none" stroke="#191970" d="M308.6359,-95.0286C360.5451,-89.0646 433.6317,-81.6113 498,-78.5 571.6917,-74.938 590.2977,-75.1628 664,-78.5 743.1624,-82.0844 834.7279,-91.4338 889.8224,-97.6277"/>
<polygon fill="#191970" stroke="#191970" points="308.075,-91.5702 298.5453,-96.1999 308.8821,-98.5235 308.075,-91.5702"/>
</g>
<!-- Node272 -->
<g id="node4" class="node">
<title>Node272</title>
<g id="a_node4"><a xlink:href="structchi_1_1GraphFunction.html#a0e722c9bae3101c4bb54ad9baae6f841" target="_top" xlink:title="Creates an entry node if it doesn&#39;t already exist, else just return it. ">
<polygon fill="#ffffff" stroke="#000000" points="522.5,-88.5 522.5,-118.5 639.5,-118.5 639.5,-88.5 522.5,-88.5"/>
<text text-anchor="start" x="530.5" y="-106.5" font-family="Helvetica,sans-Serif" font-size="10.00" fill="#000000">chi::GraphFunction</text>
<text text-anchor="middle" x="581" y="-95.5" font-family="Helvetica,sans-Serif" font-size="10.00" fill="#000000">::getOrInsertEntryNode</text>
</a>
</g>
</g>
<!-- Node270&#45;&gt;Node272 -->
<g id="edge3" class="edge">
<title>Node270&#45;&gt;Node272</title>
<path fill="none" stroke="#191970" d="M308.8058,-103.5C371.4657,-103.5 463.0017,-103.5 522.2898,-103.5"/>
<polygon fill="#191970" stroke="#191970" points="308.62,-100.0001 298.62,-103.5 308.62,-107.0001 308.62,-100.0001"/>
</g>
<!-- Node273 -->
<g id="node5" class="node">
<title>Node273</title>
<g id="a_node5"><a xlink:href="structchi_1_1GraphFunction.html#a3c10d56dd68371400993b4a3c120f585" target="_top" xlink:title="Rename an exec output If idx is out of range, this function does nothing. ">
<polygon fill="#ffffff" stroke="#000000" points="347.5,-137.5 347.5,-167.5 454.5,-167.5 454.5,-137.5 347.5,-137.5"/>
<text text-anchor="start" x="355.5" y="-155.5" font-family="Helvetica,sans-Serif" font-size="10.00" fill="#000000">chi::GraphFunction</text>
<text text-anchor="middle" x="401" y="-144.5" font-family="Helvetica,sans-Serif" font-size="10.00" fill="#000000">::renameExecOutput</text>
</a>
</g>
</g>
<!-- Node270&#45;&gt;Node273 -->
<g id="edge5" class="edge">
<title>Node270&#45;&gt;Node273</title>
<path fill="none" stroke="#191970" d="M299.5139,-121.6129C316.6301,-126.8222 335.1072,-132.4457 351.5448,-137.4484"/>
<polygon fill="#191970" stroke="#191970" points="300.2049,-118.1648 289.619,-118.6014 298.1667,-124.8615 300.2049,-118.1648"/>
</g>
<!-- Node272&#45;&gt;Node271 -->
<g id="edge4" class="edge">
<title>Node272&#45;&gt;Node271</title>
<path fill="none" stroke="#191970" d="M649.891,-103.5C720.1917,-103.5 827.5662,-103.5 889.9161,-103.5"/>
<polygon fill="#191970" stroke="#191970" points="649.7976,-100.0001 639.7975,-103.5 649.7975,-107.0001 649.7976,-100.0001"/>
</g>
<!-- Node274 -->
<g id="node6" class="node">
<title>Node274</title>
<g id="a_node6"><a xlink:href="structchi_1_1GraphFunction.html#ab47bbbd84f14240b824c1a780b125207" target="_top" xlink:title="Get the function exec outputs. ">
<polygon fill="#ffffff" stroke="#000000" points="531.5,-137.5 531.5,-167.5 630.5,-167.5 630.5,-137.5 531.5,-137.5"/>
<text text-anchor="start" x="539.5" y="-155.5" font-family="Helvetica,sans-Serif" font-size="10.00" fill="#000000">chi::GraphFunction</text>
<text text-anchor="middle" x="581" y="-144.5" font-family="Helvetica,sans-Serif" font-size="10.00" fill="#000000">::execOutputs</text>
</a>
</g>
</g>
<!-- Node273&#45;&gt;Node274 -->
<g id="edge6" class="edge">
<title>Node273&#45;&gt;Node274</title>
<path fill="none" stroke="#191970" d="M464.7246,-152.5C486.6147,-152.5 510.7778,-152.5 531.3797,-152.5"/>
<polygon fill="#191970" stroke="#191970" points="464.5186,-149.0001 454.5186,-152.5 464.5186,-156.0001 464.5186,-149.0001"/>
</g>
<!-- Node274&#45;&gt;Node275 -->
<g id="edge7" class="edge">
<title>Node274&#45;&gt;Node275</title>
<path fill="none" stroke="#191970" d="M640.5241,-166.6021C661.8841,-171.6626 685.8725,-177.3458 706.8878,-182.3247"/>
<polygon fill="#191970" stroke="#191970" points="641.1332,-163.1496 630.5957,-164.2499 639.5194,-169.9611 641.1332,-163.1496"/>
</g>
<!-- Node276 -->
<g id="node8" class="node">
<title>Node276</title>
<g id="a_node8"><a xlink:href="namespacechi.html#afd8b8d8a207d88359ad1e6a48d8f3bb1" target="_top" xlink:title="Serialize a GraphFunction to json. ">
<polygon fill="#ffffff" stroke="#000000" points="875,-139 875,-158 1004,-158 1004,-139 875,-139"/>
<text text-anchor="middle" x="939.5" y="-146" font-family="Helvetica,sans-Serif" font-size="10.00" fill="#000000">chi::graphFunctionToJson</text>
</a>
</g>
</g>
<!-- Node274&#45;&gt;Node276 -->
<g id="edge10" class="edge">
<title>Node274&#45;&gt;Node276</title>
<path fill="none" stroke="#191970" d="M640.8991,-151.8317C705.6332,-151.1094 808.4297,-149.9624 874.9286,-149.2205"/>
<polygon fill="#191970" stroke="#191970" points="640.8082,-148.3324 630.8479,-151.9438 640.8864,-155.3319 640.8082,-148.3324"/>
</g>
<!-- Node275&#45;&gt;Node271 -->
<g id="edge8" class="edge">
<title>Node275&#45;&gt;Node271</title>
<path fill="none" stroke="#191970" d="M789.7756,-174.2818C808.9001,-160.1585 835.5061,-141.9754 861,-129.5 870.0268,-125.0828 879.9863,-121.1372 889.6936,-117.7357"/>
<polygon fill="#191970" stroke="#191970" points="787.4487,-171.6518 781.546,-180.4501 791.647,-177.2531 787.4487,-171.6518"/>
</g>
<!-- Node275&#45;&gt;Node273 -->
<g id="edge9" class="edge">
<title>Node275&#45;&gt;Node273</title>
<path fill="none" stroke="#191970" d="M696.8605,-194.389C643.1058,-192.6763 565.2315,-188.3564 498,-177.5 482.892,-175.0604 466.7088,-171.3439 451.9749,-167.5167"/>
<polygon fill="#191970" stroke="#191970" points="696.8444,-197.8899 706.944,-194.6887 697.0524,-190.893 696.8444,-197.8899"/>
</g>
<!-- Node277 -->
<g id="node9" class="node">
<title>Node277</title>
<g id="a_node9"><a xlink:href="namespacechi.html#a9a4f3fa54c612f0c559a353bb7382d5a" target="_top" xlink:title="Serialize a JsonModule to json. ">
<polygon fill="#ffffff" stroke="#000000" points="1255.5,-88 1255.5,-107 1378.5,-107 1378.5,-88 1255.5,-88"/>
<text text-anchor="middle" x="1317" y="-95" font-family="Helvetica,sans-Serif" font-size="10.00" fill="#000000">chi::graphModuleToJson</text>
</a>
</g>
</g>
<!-- Node276&#45;&gt;Node277 -->
<g id="edge11" class="edge">
<title>Node276&#45;&gt;Node277</title>
<path fill="none" stroke="#191970" d="M1014.5586,-138.3596C1085.1708,-128.82 1189.6187,-114.7091 1255.452,-105.8151"/>
<polygon fill="#191970" stroke="#191970" points="1013.8359,-134.9254 1004.3946,-139.7328 1014.7732,-141.8624 1013.8359,-134.9254"/>
</g>
<!-- Node278 -->
<g id="node10" class="node">
<title>Node278</title>
<g id="a_node10"><a xlink:href="structchi_1_1GraphModule.html#a5cd9fb1738336d5d382ebb50753bda3e" target="_top" xlink:title="Serialize to disk in the context. ">
<polygon fill="#ffffff" stroke="#000000" points="1423,-88 1423,-107 1574,-107 1574,-88 1423,-88"/>
<text text-anchor="middle" x="1498.5" y="-95" font-family="Helvetica,sans-Serif" font-size="10.00" fill="#000000">chi::GraphModule::saveToDisk</text>
</a>
</g>
</g>
<!-- Node277&#45;&gt;Node278 -->
<g id="edge12" class="edge">
<title>Node277&#45;&gt;Node278</title>
<path fill="none" stroke="#191970" d="M1388.8263,-97.5C1399.9968,-97.5 1411.5676,-97.5 1422.8204,-97.5"/>
<polygon fill="#191970" stroke="#191970" points="1388.7009,-94.0001 1378.7009,-97.5 1388.7008,-101.0001 1388.7009,-94.0001"/>
</g>
<!-- Node281 -->
<g id="node13" class="node">
<title>Node281</title>
<g id="a_node13"><a xlink:href="namespacechi.html#a4489e333fecc4168278e94f8b3f81e3c" target="_top" xlink:title="Load a GraphModule from json. ">
<polygon fill="#ffffff" stroke="#000000" points="340,-12 340,-31 462,-31 462,-12 340,-12"/>
<text text-anchor="middle" x="401" y="-19" font-family="Helvetica,sans-Serif" font-size="10.00" fill="#000000">chi::jsonToGraphModule</text>
</a>
</g>
</g>
<!-- Node280&#45;&gt;Node281 -->
<g id="edge16" class="edge">
<title>Node280&#45;&gt;Node281</title>
<path fill="none" stroke="#191970" d="M290.4018,-47.6039C313.032,-42.2626 339.3695,-36.0463 360.665,-31.0201"/>
<polygon fill="#191970" stroke="#191970" points="289.5557,-44.2074 280.6271,-49.911 291.1637,-51.0202 289.5557,-44.2074"/>
</g>
<!-- Node282 -->
<g id="node14" class="node">
<title>Node282</title>
<g id="a_node14"><a xlink:href="structchi_1_1Context.html#a2db103f3a2f77710dfa51489f63ec97f" target="_top" xlink:title="Load a module from JSON – avoid this use the string overload. ">
<polygon fill="#ffffff" stroke="#000000" points="498,-12 498,-31 664,-31 664,-12 498,-12"/>
<text text-anchor="middle" x="581" y="-19" font-family="Helvetica,sans-Serif" font-size="10.00" fill="#000000">chi::Context::addModuleFromJson</text>
</a>
</g>
</g>
<!-- Node281&#45;&gt;Node282 -->
<g id="edge17" class="edge">
<title>Node281&#45;&gt;Node282</title>
<path fill="none" stroke="#191970" d="M472.3335,-21.5C480.7586,-21.5 489.412,-21.5 497.9806,-21.5"/>
<polygon fill="#191970" stroke="#191970" points="472.191,-18.0001 462.191,-21.5 472.1909,-25.0001 472.191,-18.0001"/>
</g>
<!-- Node283 -->
<g id="node15" class="node">
<title>Node283</title>
<g id="a_node15"><a xlink:href="structchi_1_1Context.html#a844bdec56838399cb4d7a5f7ea223834" target="_top" xlink:title="Load a module from disk. ">
<polygon fill="#ffffff" stroke="#000000" points="700,-12 700,-31 825,-31 825,-12 700,-12"/>
<text text-anchor="middle" x="762.5" y="-19" font-family="Helvetica,sans-Serif" font-size="10.00" fill="#000000">chi::Context::loadModule</text>
</a>
</g>
</g>
<!-- Node282&#45;&gt;Node283 -->
<g id="edge18" class="edge">
<title>Node282&#45;&gt;Node283</title>
<path fill="none" stroke="#191970" d="M674.2319,-21.5C682.9115,-21.5 691.5607,-21.5 699.8618,-21.5"/>
<polygon fill="#191970" stroke="#191970" points="674.0481,-18.0001 664.048,-21.5 674.048,-25.0001 674.0481,-18.0001"/>
</g>
<!-- Node284 -->
<g id="node16" class="node">
<title>Node284</title>
<g id="a_node16"><a xlink:href="structchi_1_1ChiModule.html#aab11d61e0c0138e5fc5ce176c20e3bec" target="_top" xlink:title="Add a dependency to the module Loads the module from context() if it isn&#39;t already loaded...">
<polygon fill="#ffffff" stroke="#000000" points="861,-31 861,-50 1018,-50 1018,-31 861,-31"/>
<text text-anchor="middle" x="939.5" y="-38" font-family="Helvetica,sans-Serif" font-size="10.00" fill="#000000">chi::ChiModule::addDependency</text>
</a>
</g>
</g>
<!-- Node283&#45;&gt;Node284 -->
<g id="edge19" class="edge">
<title>Node283&#45;&gt;Node284</title>
<path fill="none" stroke="#191970" d="M835.4468,-29.3304C843.7758,-30.2245 852.2946,-31.139 860.6954,-32.0408"/>
<polygon fill="#191970" stroke="#191970" points="835.7184,-25.8396 825.402,-28.2522 834.9712,-32.7996 835.7184,-25.8396"/>
</g>
<!-- Node285 -->
<g id="node17" class="node">
<title>Node285</title>
<g id="a_node17"><a xlink:href="structchi_1_1ChiModule.html#a049b38139577f02a6c19d260010efeff" target="_top" xlink:title="Get the dependencies. ">
<polygon fill="#ffffff" stroke="#000000" points="1059,-31 1059,-50 1206,-50 1206,-31 1059,-31"/>
<text text-anchor="middle" x="1132.5" y="-38" font-family="Helvetica,sans-Serif" font-size="10.00" fill="#000000">chi::ChiModule::dependencies</text>
</a>
</g>
</g>
<!-- Node284&#45;&gt;Node285 -->
<g id="edge20" class="edge">
<title>Node284&#45;&gt;Node285</title>
<path fill="none" stroke="#191970" d="M1028.1712,-40.5C1038.3983,-40.5 1048.7436,-40.5 1058.7433,-40.5"/>
<polygon fill="#191970" stroke="#191970" points="1028.0005,-37.0001 1018.0005,-40.5 1028.0005,-44.0001 1028.0005,-37.0001"/>
</g>
<!-- Node287 -->
<g id="node19" class="node">
<title>Node287</title>
<g id="a_node19"><a xlink:href="structchi_1_1GraphModule.html#a1f776646b9c9bdd615f7e35cebf7760a" target="_top" xlink:title="Construct a GraphModule. ">
<polygon fill="#ffffff" stroke="#000000" points="1054,-69 1054,-88 1211,-88 1211,-69 1054,-69"/>
<text text-anchor="middle" x="1132.5" y="-76" font-family="Helvetica,sans-Serif" font-size="10.00" fill="#000000">chi::GraphModule::GraphModule</text>
</a>
</g>
</g>
<!-- Node284&#45;&gt;Node287 -->
<g id="edge23" class="edge">
<title>Node284&#45;&gt;Node287</title>
<path fill="none" stroke="#191970" d="M998.1016,-52.0381C1025.6289,-57.458 1058.0476,-63.841 1084.1482,-68.9799"/>
<polygon fill="#191970" stroke="#191970" points="998.6898,-48.5868 988.202,-50.089 997.3375,-55.455 998.6898,-48.5868"/>
</g>
<!-- Node285&#45;&gt;Node277 -->
<g id="edge22" class="edge">
<title>Node285&#45;&gt;Node277</title>
<path fill="none" stroke="#191970" d="M1185.4502,-52.4983C1194.0327,-54.6773 1202.7932,-57.0434 1211,-59.5 1239.2801,-67.9652 1271.0776,-79.6649 1292.4039,-87.8382"/>
<polygon fill="#191970" stroke="#191970" points="1186.049,-49.0409 1175.5006,-50.0321 1184.3648,-55.8353 1186.049,-49.0409"/>
</g>
<!-- Node286 -->
<g id="node18" class="node">
<title>Node286</title>
<g id="a_node18"><a xlink:href="structchi_1_1Context.html#ad535dc768a4386dbd06c8b769c5d549f" target="_top" xlink:title="Compile a module to a llvm::Module. ">
<polygon fill="#ffffff" stroke="#000000" points="1247,-31 1247,-50 1387,-50 1387,-31 1247,-31"/>
<text text-anchor="middle" x="1317" y="-38" font-family="Helvetica,sans-Serif" font-size="10.00" fill="#000000">chi::Context::compileModule</text>
</a>
</g>
</g>
<!-- Node285&#45;&gt;Node286 -->
<g id="edge21" class="edge">
<title>Node285&#45;&gt;Node286</title>
<path fill="none" stroke="#191970" d="M1216.3096,-40.5C1226.4689,-40.5 1236.7658,-40.5 1246.7021,-40.5"/>
<polygon fill="#191970" stroke="#191970" points="1216.2147,-37.0001 1206.2147,-40.5 1216.2147,-44.0001 1216.2147,-37.0001"/>
</g>
</g>
</svg>
