<?xml version="1.0" encoding="UTF-8" standalone="no"?>
<!DOCTYPE svg PUBLIC "-//W3C//DTD SVG 1.1//EN"
 "http://www.w3.org/Graphics/SVG/1.1/DTD/svg11.dtd">
<!-- Generated by graphviz version 2.40.1 (20161225.0304)
 -->
<!-- Title: chig::Context::workspacePath Pages: 1 -->
<svg width="709pt" height="94pt"
 viewBox="0.00 0.00 709.00 94.00" xmlns="http://www.w3.org/2000/svg" xmlns:xlink="http://www.w3.org/1999/xlink">
<g id="graph0" class="graph" transform="scale(1 1) rotate(0) translate(4 90)">
<title>chig::Context::workspacePath</title>
<polygon fill="#ffffff" stroke="transparent" points="-4,4 -4,-90 705,-90 705,4 -4,4"/>
<!-- Node85 -->
<g id="node1" class="node">
<title>Node85</title>
<polygon fill="#bfbfbf" stroke="#000000" points="0,-44.5 0,-63.5 147,-63.5 147,-44.5 0,-44.5"/>
<text text-anchor="middle" x="73.5" y="-51.5" font-family="Helvetica,sans-Serif" font-size="10.00" fill="#000000">chig::Context::workspacePath</text>
</g>
<!-- Node86 -->
<g id="node2" class="node">
<title>Node86</title>
<g id="a_node2"><a xlink:href="structchig_1_1Context.html#aa4fb30ced50d32c629ad50669b8b1e05" target="_top" xlink:title="chig::Context::hasWorkspace">
<polygon fill="#ffffff" stroke="#000000" points="183,-66.5 183,-85.5 328,-85.5 328,-66.5 183,-66.5"/>
<text text-anchor="middle" x="255.5" y="-73.5" font-family="Helvetica,sans-Serif" font-size="10.00" fill="#000000">chig::Context::hasWorkspace</text>
</a>
</g>
</g>
<!-- Node85&#45;&gt;Node86 -->
<g id="edge1" class="edge">
<title>Node85&#45;&gt;Node86</title>
<path fill="none" stroke="#191970" d="M157.0693,-64.1018C165.6965,-65.1446 174.4133,-66.1983 182.9068,-67.225"/>
<polygon fill="#191970" stroke="#191970" points="157.3495,-60.6103 147.0018,-62.8848 156.5094,-67.5597 157.3495,-60.6103"/>
</g>
<!-- Node87 -->
<g id="node3" class="node">
<title>Node87</title>
<g id="a_node3"><a xlink:href="structchig_1_1JsonModule.html#a8633e9bfc529b8a88a6a12c253f99e53" target="_top" xlink:title="chig::JsonModule::source\lFilePath">
<polygon fill="#ffffff" stroke="#000000" points="191.5,-17 191.5,-47 319.5,-47 319.5,-17 191.5,-17"/>
<text text-anchor="start" x="199.5" y="-35" font-family="Helvetica,sans-Serif" font-size="10.00" fill="#000000">chig::JsonModule::source</text>
<text text-anchor="middle" x="255.5" y="-24" font-family="Helvetica,sans-Serif" font-size="10.00" fill="#000000">FilePath</text>
</a>
</g>
</g>
<!-- Node85&#45;&gt;Node87 -->
<g id="edge2" class="edge">
<title>Node85&#45;&gt;Node87</title>
<path fill="none" stroke="#191970" d="M157.0717,-43.8979C168.5988,-42.5045 180.2859,-41.0918 191.3866,-39.75"/>
<polygon fill="#191970" stroke="#191970" points="156.5094,-40.4403 147.0018,-45.1152 157.3495,-47.3897 156.5094,-40.4403"/>
</g>
<!-- Node88 -->
<g id="node4" class="node">
<title>Node88</title>
<g id="a_node4"><a xlink:href="structchig_1_1JsonModule.html#a073e960b2d6f07ffaa983a61f8b0f635" target="_top" xlink:title="chig::JsonModule::generate\lModule">
<polygon fill="#ffffff" stroke="#000000" points="371,-39 371,-69 508,-69 508,-39 371,-39"/>
<text text-anchor="start" x="379" y="-57" font-family="Helvetica,sans-Serif" font-size="10.00" fill="#000000">chig::JsonModule::generate</text>
<text text-anchor="middle" x="439.5" y="-46" font-family="Helvetica,sans-Serif" font-size="10.00" fill="#000000">Module</text>
</a>
</g>
</g>
<!-- Node87&#45;&gt;Node88 -->
<g id="edge3" class="edge">
<title>Node87&#45;&gt;Node88</title>
<path fill="none" stroke="#191970" d="M329.8532,-40.8901C343.4292,-42.5133 357.5379,-44.2002 370.9361,-45.8021"/>
<polygon fill="#191970" stroke="#191970" points="329.9408,-37.3757 319.596,-39.6636 329.1097,-44.3262 329.9408,-37.3757"/>
</g>
<!-- Node90 -->
<g id="node6" class="node">
<title>Node90</title>
<g id="a_node6"><a xlink:href="structchig_1_1JsonModule.html#ae0301727a42a28a7ec2b7116f6d54e04" target="_top" xlink:title="chig::JsonModule::saveToDisk">
<polygon fill="#ffffff" stroke="#000000" points="364,-.5 364,-19.5 515,-19.5 515,-.5 364,-.5"/>
<text text-anchor="middle" x="439.5" y="-7.5" font-family="Helvetica,sans-Serif" font-size="10.00" fill="#000000">chig::JsonModule::saveToDisk</text>
</a>
</g>
</g>
<!-- Node87&#45;&gt;Node90 -->
<g id="edge5" class="edge">
<title>Node87&#45;&gt;Node90</title>
<path fill="none" stroke="#191970" d="M329.8033,-23.1159C341.0524,-21.7709 352.6682,-20.3821 363.9435,-19.0339"/>
<polygon fill="#191970" stroke="#191970" points="329.1097,-19.6738 319.596,-24.3364 329.9408,-26.6243 329.1097,-19.6738"/>
</g>
<!-- Node89 -->
<g id="node5" class="node">
<title>Node89</title>
<g id="a_node5"><a xlink:href="structchig_1_1JsonModule.html#ac0085e28a8ff704511c0a4bb1f8eb42d" target="_top" xlink:title="Get the possible DataType names. ">
<polygon fill="#ffffff" stroke="#000000" points="551.5,-41.5 551.5,-60.5 700.5,-60.5 700.5,-41.5 551.5,-41.5"/>
<text text-anchor="middle" x="626" y="-48.5" font-family="Helvetica,sans-Serif" font-size="10.00" fill="#000000">chig::JsonModule::typeNames</text>
</a>
</g>
</g>
<!-- Node88&#45;&gt;Node89 -->
<g id="edge4" class="edge">
<title>Node88&#45;&gt;Node89</title>
<path fill="none" stroke="#191970" d="M518.4593,-52.7299C529.3162,-52.5552 540.4377,-52.3763 551.2163,-52.203"/>
<polygon fill="#191970" stroke="#191970" points="518.0936,-49.2352 508.1512,-52.8957 518.2062,-56.2343 518.0936,-49.2352"/>
</g>
<!-- Node90&#45;&gt;Node89 -->
<g id="edge6" class="edge">
<title>Node90&#45;&gt;Node89</title>
<path fill="none" stroke="#191970" d="M492.5593,-21.6645C521.0718,-27.9327 555.7836,-35.5637 582.6563,-41.4714"/>
<polygon fill="#191970" stroke="#191970" points="493.2739,-18.2381 482.7556,-19.5093 491.7709,-25.0748 493.2739,-18.2381"/>
</g>
<!-- Node91 -->
<g id="node7" class="node">
<title>Node91</title>
<g id="a_node7"><a xlink:href="structchig_1_1Context.html#a9c11bfd47be5c451906840f293fa82c2" target="_top" xlink:title="chig::Context::newJsonModule">
<polygon fill="#ffffff" stroke="#000000" points="551,-.5 551,-19.5 701,-19.5 701,-.5 551,-.5"/>
<text text-anchor="middle" x="626" y="-7.5" font-family="Helvetica,sans-Serif" font-size="10.00" fill="#000000">chig::Context::newJsonModule</text>
</a>
</g>
</g>
<!-- Node90&#45;&gt;Node91 -->
<g id="edge7" class="edge">
<title>Node90&#45;&gt;Node91</title>
<path fill="none" stroke="#191970" d="M525.131,-10C533.7355,-10 542.4271,-10 550.9101,-10"/>
<polygon fill="#191970" stroke="#191970" points="525.0879,-6.5001 515.0878,-10 525.0878,-13.5001 525.0879,-6.5001"/>
</g>
</g>
</svg>
