<?xml version="1.0" encoding="UTF-8" standalone="no"?>
<!DOCTYPE svg PUBLIC "-//W3C//DTD SVG 1.1//EN"
 "http://www.w3.org/Graphics/SVG/1.1/DTD/svg11.dtd">
<!-- Generated by graphviz version 2.40.1 (20161225.0304)
 -->
<!-- Title: chi::GraphFunction::removeDataOutput Pages: 1 -->
<svg width="1208pt" height="214pt"
 viewBox="0.00 0.00 1208.00 214.00" xmlns="http://www.w3.org/2000/svg" xmlns:xlink="http://www.w3.org/1999/xlink">
<g id="graph0" class="graph" transform="scale(1 1) rotate(0) translate(4 210)">
<title>chi::GraphFunction::removeDataOutput</title>
<polygon fill="#ffffff" stroke="transparent" points="-4,4 -4,-210 1204,-210 1204,4 -4,4"/>
<!-- Node842 -->
<g id="node1" class="node">
<title>Node842</title>
<polygon fill="#bfbfbf" stroke="#000000" points="0,-66.5 0,-96.5 104,-96.5 104,-66.5 0,-66.5"/>
<text text-anchor="start" x="8" y="-84.5" font-family="Helvetica,sans-Serif" font-size="10.00" fill="#000000">chi::GraphFunction</text>
<text text-anchor="middle" x="52" y="-73.5" font-family="Helvetica,sans-Serif" font-size="10.00" fill="#000000">::removeDataOutput</text>
</g>
<!-- Node843 -->
<g id="node2" class="node">
<title>Node843</title>
<g id="a_node2"><a xlink:href="structchi_1_1GraphFunction.html#ab0bf0d819ff062c01220614f617d5965" target="_top" xlink:title="Get the function data outputs in the format {type, docstring}. ">
<polygon fill="#ffffff" stroke="#000000" points="140,-66.5 140,-96.5 239,-96.5 239,-66.5 140,-66.5"/>
<text text-anchor="start" x="148" y="-84.5" font-family="Helvetica,sans-Serif" font-size="10.00" fill="#000000">chi::GraphFunction</text>
<text text-anchor="middle" x="189.5" y="-73.5" font-family="Helvetica,sans-Serif" font-size="10.00" fill="#000000">::dataOutputs</text>
</a>
</g>
</g>
<!-- Node842&#45;&gt;Node843 -->
<g id="edge1" class="edge">
<title>Node842&#45;&gt;Node843</title>
<path fill="none" stroke="#191970" d="M114.6432,-81.5C123.1411,-81.5 131.7644,-81.5 139.9884,-81.5"/>
<polygon fill="#191970" stroke="#191970" points="114.3751,-78.0001 104.3751,-81.5 114.3751,-85.0001 114.3751,-78.0001"/>
</g>
<!-- Node844 -->
<g id="node3" class="node">
<title>Node844</title>
<g id="a_node3"><a xlink:href="structchi_1_1GraphFunction.html#af14ad950cfff4ad3091827f9b6ad1cd2" target="_top" xlink:title="Create a fresh NodeType for an exit. ">
<polygon fill="#ffffff" stroke="#000000" points="281.5,-107.5 281.5,-137.5 392.5,-137.5 392.5,-107.5 281.5,-107.5"/>
<text text-anchor="start" x="289.5" y="-125.5" font-family="Helvetica,sans-Serif" font-size="10.00" fill="#000000">chi::GraphFunction</text>
<text text-anchor="middle" x="337" y="-114.5" font-family="Helvetica,sans-Serif" font-size="10.00" fill="#000000">::createExitNodeType</text>
</a>
</g>
</g>
<!-- Node843&#45;&gt;Node844 -->
<g id="edge2" class="edge">
<title>Node843&#45;&gt;Node844</title>
<path fill="none" stroke="#191970" d="M248.7581,-97.9717C260.0014,-101.097 271.7125,-104.3523 282.7898,-107.4314"/>
<polygon fill="#191970" stroke="#191970" points="249.5978,-94.5725 239.0257,-95.2665 247.723,-101.3168 249.5978,-94.5725"/>
</g>
<!-- Node848 -->
<g id="node7" class="node">
<title>Node848</title>
<g id="a_node7"><a xlink:href="namespacechi.html#afd8b8d8a207d88359ad1e6a48d8f3bb1" target="_top" xlink:title="Serialize a GraphFunction to json. ">
<polygon fill="#ffffff" stroke="#000000" points="725,-72 725,-91 854,-91 854,-72 725,-72"/>
<text text-anchor="middle" x="789.5" y="-79" font-family="Helvetica,sans-Serif" font-size="10.00" fill="#000000">chi::graphFunctionToJson</text>
</a>
</g>
</g>
<!-- Node843&#45;&gt;Node848 -->
<g id="edge12" class="edge">
<title>Node843&#45;&gt;Node848</title>
<path fill="none" stroke="#191970" d="M249.2672,-80.7221C342.977,-79.6241 530.1944,-77.92 689,-79.5 700.6046,-79.6155 712.9618,-79.8059 724.8975,-80.0245"/>
<polygon fill="#191970" stroke="#191970" points="249.0866,-77.2239 239.1291,-80.8429 249.1701,-84.2235 249.0866,-77.2239"/>
</g>
<!-- Node851 -->
<g id="node10" class="node">
<title>Node851</title>
<g id="a_node10"><a xlink:href="structchi_1_1GraphFunction.html#aa2c89c659786c9928a616a81dab267e4" target="_top" xlink:title="Get the LLVM function type for the function. ">
<polygon fill="#ffffff" stroke="#000000" points="287.5,-165.5 287.5,-195.5 386.5,-195.5 386.5,-165.5 287.5,-165.5"/>
<text text-anchor="start" x="295.5" y="-183.5" font-family="Helvetica,sans-Serif" font-size="10.00" fill="#000000">chi::GraphFunction</text>
<text text-anchor="middle" x="337" y="-172.5" font-family="Helvetica,sans-Serif" font-size="10.00" fill="#000000">::functionType</text>
</a>
</g>
</g>
<!-- Node843&#45;&gt;Node851 -->
<g id="edge10" class="edge">
<title>Node843&#45;&gt;Node851</title>
<path fill="none" stroke="#191970" d="M215.2937,-103.2471C231.8402,-116.7281 254.0716,-133.9893 275,-147.5 284.8346,-153.8489 296.012,-160.0768 306.1421,-165.3815"/>
<polygon fill="#191970" stroke="#191970" points="217.1414,-100.2347 207.1962,-96.5818 212.6927,-105.6393 217.1414,-100.2347"/>
</g>
<!-- Node852 -->
<g id="node11" class="node">
<title>Node852</title>
<g id="a_node11"><a xlink:href="namespacechi.html#af52d66c93c9e19da67c21bbb5747f5a4" target="_top" xlink:title="Make sure the function exit types align with the function type. ">
<polygon fill="#ffffff" stroke="#000000" points="275,-.5 275,-30.5 399,-30.5 399,-.5 275,-.5"/>
<text text-anchor="start" x="283" y="-18.5" font-family="Helvetica,sans-Serif" font-size="10.00" fill="#000000">chi::validateFunctionExit</text>
<text text-anchor="middle" x="337" y="-7.5" font-family="Helvetica,sans-Serif" font-size="10.00" fill="#000000">Types</text>
</a>
</g>
</g>
<!-- Node843&#45;&gt;Node852 -->
<g id="edge13" class="edge">
<title>Node843&#45;&gt;Node852</title>
<path fill="none" stroke="#191970" d="M232.68,-62.1788C255.2089,-52.098 282.3622,-39.9481 303.318,-30.5713"/>
<polygon fill="#191970" stroke="#191970" points="231.0378,-59.0791 223.3395,-66.3583 233.8969,-65.4686 231.0378,-59.0791"/>
</g>
<!-- Node845 -->
<g id="node4" class="node">
<title>Node845</title>
<g id="a_node4"><a xlink:href="structchi_1_1GraphFunction.html#a900c0b670ad04a76b6add803ade7ae0d" target="_top" xlink:title="Get the nodes in the function Usually called by connectData or connectExec or GraphFunction. ">
<polygon fill="#ffffff" stroke="#000000" points="439,-175.5 439,-205.5 538,-205.5 538,-175.5 439,-175.5"/>
<text text-anchor="start" x="447" y="-193.5" font-family="Helvetica,sans-Serif" font-size="10.00" fill="#000000">chi::GraphFunction</text>
<text text-anchor="middle" x="488.5" y="-182.5" font-family="Helvetica,sans-Serif" font-size="10.00" fill="#000000">::nodes</text>
</a>
</g>
</g>
<!-- Node844&#45;&gt;Node845 -->
<g id="edge3" class="edge">
<title>Node844&#45;&gt;Node845</title>
<path fill="none" stroke="#191970" d="M379.7929,-141.7074C403.6102,-152.3977 432.8272,-165.5115 454.9712,-175.4508"/>
<polygon fill="#191970" stroke="#191970" points="381.1792,-138.4932 370.6228,-137.5914 378.3127,-144.8795 381.1792,-138.4932"/>
</g>
<!-- Node846 -->
<g id="node5" class="node">
<title>Node846</title>
<g id="a_node5"><a xlink:href="structchi_1_1GraphFunction.html#a3c10d56dd68371400993b4a3c120f585" target="_top" xlink:title="Rename an exec output If idx is out of range, this function does nothing. ">
<polygon fill="#ffffff" stroke="#000000" points="435,-126.5 435,-156.5 542,-156.5 542,-126.5 435,-126.5"/>
<text text-anchor="start" x="443" y="-144.5" font-family="Helvetica,sans-Serif" font-size="10.00" fill="#000000">chi::GraphFunction</text>
<text text-anchor="middle" x="488.5" y="-133.5" font-family="Helvetica,sans-Serif" font-size="10.00" fill="#000000">::renameExecOutput</text>
</a>
</g>
</g>
<!-- Node844&#45;&gt;Node846 -->
<g id="edge4" class="edge">
<title>Node844&#45;&gt;Node846</title>
<path fill="none" stroke="#191970" d="M402.7574,-130.7468C413.5187,-132.0964 424.5539,-133.4804 434.9735,-134.7871"/>
<polygon fill="#191970" stroke="#191970" points="402.9106,-127.2387 392.5527,-129.467 402.0395,-134.1843 402.9106,-127.2387"/>
</g>
<!-- Node847 -->
<g id="node6" class="node">
<title>Node847</title>
<g id="a_node6"><a xlink:href="structchi_1_1GraphFunction.html#ab47bbbd84f14240b824c1a780b125207" target="_top" xlink:title="Get the function exec outputs. ">
<polygon fill="#ffffff" stroke="#000000" points="584,-88.5 584,-118.5 683,-118.5 683,-88.5 584,-88.5"/>
<text text-anchor="start" x="592" y="-106.5" font-family="Helvetica,sans-Serif" font-size="10.00" fill="#000000">chi::GraphFunction</text>
<text text-anchor="middle" x="633.5" y="-95.5" font-family="Helvetica,sans-Serif" font-size="10.00" fill="#000000">::execOutputs</text>
</a>
</g>
</g>
<!-- Node846&#45;&gt;Node847 -->
<g id="edge5" class="edge">
<title>Node846&#45;&gt;Node847</title>
<path fill="none" stroke="#191970" d="M551.856,-124.8964C562.6141,-122.077 573.6451,-119.1861 583.981,-116.4774"/>
<polygon fill="#191970" stroke="#191970" points="550.8667,-121.5373 542.0807,-127.4582 552.6413,-128.3087 550.8667,-121.5373"/>
</g>
<!-- Node847&#45;&gt;Node844 -->
<g id="edge6" class="edge">
<title>Node847&#45;&gt;Node844</title>
<path fill="none" stroke="#191970" d="M573.6535,-107.335C520.8082,-110.7214 444.353,-115.6207 392.7694,-118.9262"/>
<polygon fill="#191970" stroke="#191970" points="574.1378,-110.8113 583.8934,-106.6788 573.6901,-103.8256 574.1378,-110.8113"/>
</g>
<!-- Node847&#45;&gt;Node848 -->
<g id="edge7" class="edge">
<title>Node847&#45;&gt;Node848</title>
<path fill="none" stroke="#191970" d="M693.391,-95.0538C703.6703,-93.6042 714.3937,-92.0919 724.7924,-90.6254"/>
<polygon fill="#191970" stroke="#191970" points="692.7015,-91.6163 683.2883,-96.4786 693.6791,-98.5478 692.7015,-91.6163"/>
</g>
<!-- Node849 -->
<g id="node8" class="node">
<title>Node849</title>
<g id="a_node8"><a xlink:href="namespacechi.html#a9a4f3fa54c612f0c559a353bb7382d5a" target="_top" xlink:title="Serialize a JsonModule to json. ">
<polygon fill="#ffffff" stroke="#000000" points="890,-72 890,-91 1013,-91 1013,-72 890,-72"/>
<text text-anchor="middle" x="951.5" y="-79" font-family="Helvetica,sans-Serif" font-size="10.00" fill="#000000">chi::graphModuleToJson</text>
</a>
</g>
</g>
<!-- Node848&#45;&gt;Node849 -->
<g id="edge8" class="edge">
<title>Node848&#45;&gt;Node849</title>
<path fill="none" stroke="#191970" d="M864.7026,-81.5C873.1561,-81.5 881.6942,-81.5 889.9461,-81.5"/>
<polygon fill="#191970" stroke="#191970" points="864.4582,-78.0001 854.4582,-81.5 864.4581,-85.0001 864.4582,-78.0001"/>
</g>
<!-- Node850 -->
<g id="node9" class="node">
<title>Node850</title>
<g id="a_node9"><a xlink:href="structchi_1_1GraphModule.html#a5cd9fb1738336d5d382ebb50753bda3e" target="_top" xlink:title="Serialize to disk in the context. ">
<polygon fill="#ffffff" stroke="#000000" points="1049,-72 1049,-91 1200,-91 1200,-72 1049,-72"/>
<text text-anchor="middle" x="1124.5" y="-79" font-family="Helvetica,sans-Serif" font-size="10.00" fill="#000000">chi::GraphModule::saveToDisk</text>
</a>
</g>
</g>
<!-- Node849&#45;&gt;Node850 -->
<g id="edge9" class="edge">
<title>Node849&#45;&gt;Node850</title>
<path fill="none" stroke="#191970" d="M1023.5243,-81.5C1031.8612,-81.5 1040.3827,-81.5 1048.7672,-81.5"/>
<polygon fill="#191970" stroke="#191970" points="1023.4684,-78.0001 1013.4683,-81.5 1023.4683,-85.0001 1023.4684,-78.0001"/>
</g>
<!-- Node851&#45;&gt;Node845 -->
<g id="edge11" class="edge">
<title>Node851&#45;&gt;Node845</title>
<path fill="none" stroke="#191970" d="M396.6096,-184.4346C410.5727,-185.3563 425.3032,-186.3286 438.7818,-187.2183"/>
<polygon fill="#191970" stroke="#191970" points="396.8156,-180.9407 386.6068,-183.7744 396.3545,-187.9255 396.8156,-180.9407"/>
</g>
<!-- Node853 -->
<g id="node12" class="node">
<title>Node853</title>
<g id="a_node12"><a xlink:href="namespacechi.html#acdc71d0d7f04f55316cc16af79b7f5b1" target="_top" xlink:title="Validate that a function is compilable. ">
<polygon fill="#ffffff" stroke="#000000" points="435,-6 435,-25 542,-25 542,-6 435,-6"/>
<text text-anchor="middle" x="488.5" y="-13" font-family="Helvetica,sans-Serif" font-size="10.00" fill="#000000">chi::validateFunction</text>
</a>
</g>
</g>
<!-- Node852&#45;&gt;Node853 -->
<g id="edge14" class="edge">
<title>Node852&#45;&gt;Node853</title>
<path fill="none" stroke="#191970" d="M409.0683,-15.5C417.6428,-15.5 426.2803,-15.5 434.5401,-15.5"/>
<polygon fill="#191970" stroke="#191970" points="409.058,-12.0001 399.058,-15.5 409.0579,-19.0001 409.058,-12.0001"/>
</g>
<!-- Node854 -->
<g id="node13" class="node">
<title>Node854</title>
<g id="a_node13"><a xlink:href="structchi_1_1FunctionCompiler.html#a344523ec8a120e2001436268bd47de52" target="_top" xlink:title="Creates the function, but don&#39;t actually generate into it. ">
<polygon fill="#ffffff" stroke="#000000" points="578,-.5 578,-30.5 689,-30.5 689,-.5 578,-.5"/>
<text text-anchor="start" x="586" y="-18.5" font-family="Helvetica,sans-Serif" font-size="10.00" fill="#000000">chi::FunctionCompiler</text>
<text text-anchor="middle" x="633.5" y="-7.5" font-family="Helvetica,sans-Serif" font-size="10.00" fill="#000000">::initialize</text>
</a>
</g>
</g>
<!-- Node853&#45;&gt;Node854 -->
<g id="edge15" class="edge">
<title>Node853&#45;&gt;Node854</title>
<path fill="none" stroke="#191970" d="M552.2979,-15.5C560.7654,-15.5 569.3936,-15.5 577.7114,-15.5"/>
<polygon fill="#191970" stroke="#191970" points="552.0807,-12.0001 542.0807,-15.5 552.0806,-19.0001 552.0807,-12.0001"/>
</g>
</g>
</svg>
