<?xml version="1.0" encoding="UTF-8" standalone="no"?>
<!DOCTYPE svg PUBLIC "-//W3C//DTD SVG 1.1//EN"
 "http://www.w3.org/Graphics/SVG/1.1/DTD/svg11.dtd">
<!-- Generated by graphviz version 2.40.1 (20161225.0304)
 -->
<!-- Title: chig::NodeType::dataInputs Pages: 1 -->
<!--zoomable 167 -->
<svg id="main" version="1.1" xmlns="http://www.w3.org/2000/svg" xmlns:xlink="http://www.w3.org/1999/xlink" xml:space="preserve" onload="init(evt)">
<style type="text/css"><![CDATA[
.edge:hover path { stroke: red; }
.edge:hover polygon { stroke: red; fill: red; }
]]></style>
<script type="text/javascript"><![CDATA[
var edges = document.getElementsByTagName('g');
if (edges && edges.length) {
  for (var i=0;i<edges.length;i++) {
    if (edges[i].id.substr(0,4)=='edge') {
      edges[i].setAttribute('class','edge');
    }
  }
}
]]></script>
        <defs>
                <circle id="rim" cx="0" cy="0" r="7"/>
                <circle id="rim2" cx="0" cy="0" r="3.5"/>
                <g id="zoomPlus">
                        <use xlink:href="#rim" fill="#404040">
                                <set attributeName="fill" to="#808080" begin="zoomplus.mouseover" end="zoomplus.mouseout"/>
                        </use>
                        <path d="M-4,0h8M0,-4v8" fill="none" stroke="white" stroke-width="1.5" pointer-events="none"/>
                </g>
                <g id="zoomMin">
                        <use xlink:href="#rim" fill="#404040">
                                <set attributeName="fill" to="#808080" begin="zoomminus.mouseover" end="zoomminus.mouseout"/>
                        </use>
                        <path d="M-4,0h8" fill="none" stroke="white" stroke-width="1.5" pointer-events="none"/>
                </g>
                <g id="dirArrow">
                        <path fill="none" stroke="white" stroke-width="1.5" d="M0,-3.0v7 M-2.5,-0.5L0,-3.0L2.5,-0.5"/>
                </g>
               <g id="resetDef">
                       <use xlink:href="#rim2" fill="#404040">
                               <set attributeName="fill" to="#808080" begin="reset.mouseover" end="reset.mouseout"/>
                       </use>
               </g>
        </defs>

<script type="text/javascript">
var viewWidth = 1133;
var viewHeight = 167;
var sectionId = 'dynsection-4';
</script>
<script xlink:href="svgpan.js"/>
<svg id="graph" class="graph">
<g id="viewport">
<title>chig::NodeType::dataInputs</title>
<polygon fill="#ffffff" stroke="transparent" points="-4,4 -4,-163 1129,-163 1129,4 -4,4"/>
<!-- Node38 -->
<g id="node1" class="node">
<title>Node38</title>
<polygon fill="#bfbfbf" stroke="#000000" points="0,-30 0,-49 150,-49 150,-30 0,-30"/>
<text text-anchor="middle" x="75" y="-37" font-family="Helvetica,sans-Serif" font-size="10.00" fill="#000000">chig::NodeType::dataInputs</text>
</g>
<!-- Node39 -->
<g id="node2" class="node">
<title>Node39</title>
<g id="a_node2"><a xlink:href="namespacechig.html#ad3c2fc880f6843f9a8a0f5ee0d62249d" target="_top" xlink:title="Connects two nodes&#39; data connections. ">
<polygon fill="#ffffff" stroke="#000000" points="186,-112 186,-131 290,-131 290,-112 186,-112"/>
<text text-anchor="middle" x="238" y="-119" font-family="Helvetica,sans-Serif" font-size="10.00" fill="#000000">chig::connectData</text>
</a>
</g>
</g>
<!-- Node38&#45;&gt;Node39 -->
<g id="edge1" class="edge">
<title>Node38&#45;&gt;Node39</title>
<path fill="none" stroke="#191970" d="M103.1871,-53.68C136.3787,-70.3776 190.59,-97.6496 219.1039,-111.994"/>
<polygon fill="#191970" stroke="#191970" points="104.5234,-50.4344 94.0172,-49.0669 101.3775,-56.6877 104.5234,-50.4344"/>
</g>
<!-- Node45 -->
<g id="node8" class="node">
<title>Node45</title>
<g id="a_node8"><a xlink:href="namespacechig.html#a26aa6586df79345493de9fc130291c18" target="_top" xlink:title="Disconnect a data connection. ">
<polygon fill="#ffffff" stroke="#000000" points="472,-68 472,-87 591,-87 591,-68 472,-68"/>
<text text-anchor="middle" x="531.5" y="-75" font-family="Helvetica,sans-Serif" font-size="10.00" fill="#000000">chig::disconnectData</text>
</a>
</g>
</g>
<!-- Node38&#45;&gt;Node45 -->
<g id="edge16" class="edge">
<title>Node38&#45;&gt;Node45</title>
<path fill="none" stroke="#191970" d="M160.1182,-46.5854C250.9208,-54.144 392.3927,-65.9204 471.9542,-72.5433"/>
<polygon fill="#191970" stroke="#191970" points="160.3819,-43.0953 150.1259,-45.7536 159.8011,-50.0712 160.3819,-43.0953"/>
</g>
<!-- Node48 -->
<g id="node11" class="node">
<title>Node48</title>
<g id="a_node11"><a xlink:href="structchig_1_1NodeInstance.html#ab7b23fb84fff7176f7a6e62ce3762153" target="_top" xlink:title="Set the type of the node instance. ">
<polygon fill="#ffffff" stroke="#000000" points="645,-.5 645,-30.5 755,-30.5 755,-.5 645,-.5"/>
<text text-anchor="start" x="653" y="-18.5" font-family="Helvetica,sans-Serif" font-size="10.00" fill="#000000">chig::NodeInstance</text>
<text text-anchor="middle" x="700" y="-7.5" font-family="Helvetica,sans-Serif" font-size="10.00" fill="#000000">::setType</text>
</a>
</g>
</g>
<!-- Node38&#45;&gt;Node48 -->
<g id="edge17" class="edge">
<title>Node38&#45;&gt;Node48</title>
<path fill="none" stroke="#191970" d="M160.4109,-36.2202C290.7469,-31.2153 535.6401,-21.8114 644.9179,-17.6152"/>
<polygon fill="#191970" stroke="#191970" points="159.9373,-32.7357 150.079,-36.617 160.2059,-39.7306 159.9373,-32.7357"/>
</g>
<!-- Node40 -->
<g id="node3" class="node">
<title>Node40</title>
<g id="a_node3"><a xlink:href="structchig_1_1NodeInstance.html#ac06ee5988ee5f130088fee83a550f4d2" target="_top" xlink:title="Get the containing GraphFunction. ">
<polygon fill="#ffffff" stroke="#000000" points="326,-106.5 326,-136.5 436,-136.5 436,-106.5 326,-106.5"/>
<text text-anchor="start" x="334" y="-124.5" font-family="Helvetica,sans-Serif" font-size="10.00" fill="#000000">chig::NodeInstance</text>
<text text-anchor="middle" x="381" y="-113.5" font-family="Helvetica,sans-Serif" font-size="10.00" fill="#000000">::function</text>
</a>
</g>
</g>
<!-- Node39&#45;&gt;Node40 -->
<g id="edge2" class="edge">
<title>Node39&#45;&gt;Node40</title>
<path fill="none" stroke="#191970" d="M300.2958,-114.8C308.8104,-114.7071 317.5022,-114.7437 325.8771,-114.9099"/>
<polygon fill="#191970" stroke="#191970" points="299.9687,-111.305 290.0308,-114.9775 300.0899,-118.304 299.9687,-111.305"/>
</g>
<!-- Node42 -->
<g id="node5" class="node">
<title>Node42</title>
<g id="a_node5"><a xlink:href="namespacechig.html#a62056798e67720d435705b99f7e16cd0" target="_top" xlink:title="Load a GraphFunction–must already exist (use createGraphFunctionDeclarationFromJson) ...">
<polygon fill="#ffffff" stroke="#000000" points="627,-134 627,-153 773,-153 773,-134 627,-134"/>
<text text-anchor="middle" x="700" y="-141" font-family="Helvetica,sans-Serif" font-size="10.00" fill="#000000">chig::jsonToGraphFunction</text>
</a>
</g>
</g>
<!-- Node39&#45;&gt;Node42 -->
<g id="edge15" class="edge">
<title>Node39&#45;&gt;Node42</title>
<path fill="none" stroke="#191970" d="M274.3692,-134.2779C290.0422,-139.1421 308.7088,-144.0915 326,-146.5 429.7027,-160.9447 551.1497,-156.0022 626.843,-150.3649"/>
<polygon fill="#191970" stroke="#191970" points="275.1381,-130.8488 264.5468,-131.1213 272.9964,-137.5131 275.1381,-130.8488"/>
</g>
<!-- Node40&#45;&gt;Node39 -->
<g id="edge3" class="edge">
<title>Node40&#45;&gt;Node39</title>
<path fill="none" stroke="#191970" d="M315.8194,-128.2265C307.1772,-128.2909 298.4109,-128.2229 290.0308,-128.0225"/>
<polygon fill="#191970" stroke="#191970" points="315.9255,-131.7255 325.8771,-128.0901 315.8305,-124.7261 315.9255,-131.7255"/>
</g>
<!-- Node41 -->
<g id="node4" class="node">
<title>Node41</title>
<g id="a_node4"><a xlink:href="namespacechig.html#a8a2e0029b591b2c20b39d570753f123f" target="_top" xlink:title="Connects two nodes&#39; exec connections. ">
<polygon fill="#ffffff" stroke="#000000" points="479.5,-112 479.5,-131 583.5,-131 583.5,-112 479.5,-112"/>
<text text-anchor="middle" x="531.5" y="-119" font-family="Helvetica,sans-Serif" font-size="10.00" fill="#000000">chig::connectExec</text>
</a>
</g>
</g>
<!-- Node40&#45;&gt;Node41 -->
<g id="edge4" class="edge">
<title>Node40&#45;&gt;Node41</title>
<path fill="none" stroke="#191970" d="M446.2346,-114.8034C457.297,-114.6848 468.6534,-114.7638 479.3243,-115.0403"/>
<polygon fill="#191970" stroke="#191970" points="446.1274,-111.3046 436.1861,-114.9679 446.2421,-118.3037 446.1274,-111.3046"/>
</g>
<!-- Node40&#45;&gt;Node45 -->
<g id="edge9" class="edge">
<title>Node40&#45;&gt;Node45</title>
<path fill="none" stroke="#191970" d="M423.1907,-103.0311C439.7096,-97.5449 458.8813,-91.8084 476.4631,-87.0618"/>
<polygon fill="#191970" stroke="#191970" points="421.6242,-99.8671 413.286,-106.4036 423.8805,-106.4935 421.6242,-99.8671"/>
</g>
<!-- Node41&#45;&gt;Node40 -->
<g id="edge5" class="edge">
<title>Node41&#45;&gt;Node40</title>
<path fill="none" stroke="#191970" d="M469.023,-128.1628C458.1288,-128.3128 446.8665,-128.2692 436.1861,-128.0321"/>
<polygon fill="#191970" stroke="#191970" points="469.3953,-131.6562 479.3243,-127.9597 469.2572,-124.6576 469.3953,-131.6562"/>
</g>
<!-- Node41&#45;&gt;Node42 -->
<g id="edge6" class="edge">
<title>Node41&#45;&gt;Node42</title>
<path fill="none" stroke="#191970" d="M594.0652,-129.6688C604.8669,-131.0791 616.1787,-132.556 627.2226,-133.9979"/>
<polygon fill="#191970" stroke="#191970" points="594.2598,-126.1645 583.8908,-128.3403 593.3535,-133.1056 594.2598,-126.1645"/>
</g>
<!-- Node43 -->
<g id="node6" class="node">
<title>Node43</title>
<g id="a_node6"><a xlink:href="namespacechig.html#a1f28de74faa271cf31249935c9640c58" target="_top" xlink:title="Load a GraphModule from json. ">
<polygon fill="#ffffff" stroke="#000000" points="809,-134 809,-153 949,-153 949,-134 809,-134"/>
<text text-anchor="middle" x="879" y="-141" font-family="Helvetica,sans-Serif" font-size="10.00" fill="#000000">chig::jsonToGraphModule</text>
</a>
</g>
</g>
<!-- Node42&#45;&gt;Node43 -->
<g id="edge7" class="edge">
<title>Node42&#45;&gt;Node43</title>
<path fill="none" stroke="#191970" d="M783.0899,-143.5C791.6774,-143.5 800.3439,-143.5 808.7712,-143.5"/>
<polygon fill="#191970" stroke="#191970" points="783.0644,-140.0001 773.0643,-143.5 783.0643,-147.0001 783.0644,-140.0001"/>
</g>
<!-- Node44 -->
<g id="node7" class="node">
<title>Node44</title>
<g id="a_node7"><a xlink:href="structchig_1_1Context.html#a0d9ec5f2803a5777d2e389256ccb3e3b" target="_top" xlink:title="Load a module from JSON – avoid this use the string overload. ">
<polygon fill="#ffffff" stroke="#000000" points="985,-128.5 985,-158.5 1125,-158.5 1125,-128.5 985,-128.5"/>
<text text-anchor="start" x="993" y="-146.5" font-family="Helvetica,sans-Serif" font-size="10.00" fill="#000000">chig::Context::addModule</text>
<text text-anchor="middle" x="1055" y="-135.5" font-family="Helvetica,sans-Serif" font-size="10.00" fill="#000000">FromJson</text>
</a>
</g>
</g>
<!-- Node43&#45;&gt;Node44 -->
<g id="edge8" class="edge">
<title>Node43&#45;&gt;Node44</title>
<path fill="none" stroke="#191970" d="M959.1006,-143.5C967.7058,-143.5 976.4124,-143.5 984.888,-143.5"/>
<polygon fill="#191970" stroke="#191970" points="959.0656,-140.0001 949.0656,-143.5 959.0655,-147.0001 959.0656,-140.0001"/>
</g>
<!-- Node45&#45;&gt;Node39 -->
<g id="edge10" class="edge">
<title>Node45&#45;&gt;Node39</title>
<path fill="none" stroke="#191970" d="M461.6061,-81.3564C421.6596,-84.2942 370.7572,-89.2799 326,-97.5 306.5309,-101.0757 285.0938,-106.8815 268.2523,-111.8871"/>
<polygon fill="#191970" stroke="#191970" points="462.0503,-84.8338 471.7776,-80.635 461.555,-77.8514 462.0503,-84.8338"/>
</g>
<!-- Node45&#45;&gt;Node40 -->
<g id="edge11" class="edge">
<title>Node45&#45;&gt;Node40</title>
<path fill="none" stroke="#191970" d="M504.5919,-90.6828C485.6096,-97.5611 459.5106,-105.5968 436.1861,-111.8979"/>
<polygon fill="#191970" stroke="#191970" points="505.9588,-93.908 514.0795,-87.1032 503.4877,-87.3586 505.9588,-93.908"/>
</g>
<!-- Node46 -->
<g id="node9" class="node">
<title>Node46</title>
<g id="a_node9"><a xlink:href="structchig_1_1GraphFunction.html#a398599d8fe1982a3c76462b1b2375a6e" target="_top" xlink:title="Remove a node from the function. ">
<polygon fill="#ffffff" stroke="#000000" points="643.5,-62.5 643.5,-92.5 756.5,-92.5 756.5,-62.5 643.5,-62.5"/>
<text text-anchor="start" x="651.5" y="-80.5" font-family="Helvetica,sans-Serif" font-size="10.00" fill="#000000">chig::GraphFunction</text>
<text text-anchor="middle" x="700" y="-69.5" font-family="Helvetica,sans-Serif" font-size="10.00" fill="#000000">::removeNode</text>
</a>
</g>
</g>
<!-- Node45&#45;&gt;Node46 -->
<g id="edge12" class="edge">
<title>Node45&#45;&gt;Node46</title>
<path fill="none" stroke="#191970" d="M601.444,-77.5C615.4264,-77.5 629.9503,-77.5 643.414,-77.5"/>
<polygon fill="#191970" stroke="#191970" points="601.3813,-74.0001 591.3812,-77.5 601.3812,-81.0001 601.3813,-74.0001"/>
</g>
<!-- Node45&#45;&gt;Node48 -->
<g id="edge14" class="edge">
<title>Node45&#45;&gt;Node48</title>
<path fill="none" stroke="#191970" d="M566.8633,-64.488C593.7304,-54.6022 630.7392,-40.9847 658.9192,-30.6158"/>
<polygon fill="#191970" stroke="#191970" points="565.6351,-61.2104 557.4589,-67.9484 568.0524,-67.7798 565.6351,-61.2104"/>
</g>
<!-- Node47 -->
<g id="node10" class="node">
<title>Node47</title>
<g id="a_node10"><a xlink:href="structchig_1_1GraphFunction.html#a79cbfaf26d9a966ae8048c81dc09777e" target="_top" xlink:title="chig::GraphFunction\l::nodes">
<polygon fill="#ffffff" stroke="#000000" points="822.5,-62.5 822.5,-92.5 935.5,-92.5 935.5,-62.5 822.5,-62.5"/>
<text text-anchor="start" x="830.5" y="-80.5" font-family="Helvetica,sans-Serif" font-size="10.00" fill="#000000">chig::GraphFunction</text>
<text text-anchor="middle" x="879" y="-69.5" font-family="Helvetica,sans-Serif" font-size="10.00" fill="#000000">::nodes</text>
</a>
</g>
</g>
<!-- Node46&#45;&gt;Node47 -->
<g id="edge13" class="edge">
<title>Node46&#45;&gt;Node47</title>
<path fill="none" stroke="#191970" d="M766.6629,-77.5C785.0025,-77.5 804.7131,-77.5 822.4247,-77.5"/>
<polygon fill="#191970" stroke="#191970" points="766.6368,-74.0001 756.6367,-77.5 766.6367,-81.0001 766.6368,-74.0001"/>
</g>
</g>
</svg>
        <g id="navigator" transform="translate(0 0)" fill="#404254">
                <rect fill="#f2f5e9" fill-opacity="0.5" stroke="#606060" stroke-width=".5" x="0" y="0" width="60" height="60"/>
                <use id="zoomplus" xlink:href="#zoomPlus" x="17" y="9" onmousedown="handleZoom(evt,'in')"/>
                <use id="zoomminus" xlink:href="#zoomMin" x="42" y="9" onmousedown="handleZoom(evt,'out')"/>
                <use id="reset" xlink:href="#resetDef" x="30" y="36" onmousedown="handleReset()"/>
                <g id="arrowUp" xlink:href="#dirArrow" transform="translate(30 24)" onmousedown="handlePan(0,-1)">
                  <use xlink:href="#rim" fill="#404040">
                        <set attributeName="fill" to="#808080" begin="arrowUp.mouseover" end="arrowUp.mouseout"/>
                  </use>
                  <path fill="none" stroke="white" stroke-width="1.5" d="M0,-3.0v7 M-2.5,-0.5L0,-3.0L2.5,-0.5"/>
                </g>
                <g id="arrowRight" xlink:href="#dirArrow" transform="rotate(90) translate(36 -43)" onmousedown="handlePan(1,0)">
                  <use xlink:href="#rim" fill="#404040">
                        <set attributeName="fill" to="#808080" begin="arrowRight.mouseover" end="arrowRight.mouseout"/>
                  </use>
                  <path fill="none" stroke="white" stroke-width="1.5" d="M0,-3.0v7 M-2.5,-0.5L0,-3.0L2.5,-0.5"/>
                </g>
                <g id="arrowDown" xlink:href="#dirArrow" transform="rotate(180) translate(-30 -48)" onmousedown="handlePan(0,1)">
                  <use xlink:href="#rim" fill="#404040">
                        <set attributeName="fill" to="#808080" begin="arrowDown.mouseover" end="arrowDown.mouseout"/>
                  </use>
                  <path fill="none" stroke="white" stroke-width="1.5" d="M0,-3.0v7 M-2.5,-0.5L0,-3.0L2.5,-0.5"/>
                </g>
                <g id="arrowLeft" xlink:href="#dirArrow" transform="rotate(270) translate(-36 17)" onmousedown="handlePan(-1,0)">
                  <use xlink:href="#rim" fill="#404040">
                        <set attributeName="fill" to="#808080" begin="arrowLeft.mouseover" end="arrowLeft.mouseout"/>
                  </use>
                  <path fill="none" stroke="white" stroke-width="1.5" d="M0,-3.0v7 M-2.5,-0.5L0,-3.0L2.5,-0.5"/>
                </g>
        </g>
        <svg viewBox="0 0 15 15" width="100%" height="30px" preserveAspectRatio="xMaxYMin meet">
         <g id="arrow_out" transform="scale(0.3 0.3)">
          <a xlink:href="structchig_1_1NodeType_a3dfb8b1b093b9de0ee59e8eee7ab84e1_icgraph_org.svg" target="_base">
           <rect id="button" ry="5" rx="5" y="6" x="6" height="38" width="38"
                fill="#f2f5e9" fill-opacity="0.5" stroke="#606060" stroke-width="1.0"/>
           <path id="arrow"
             d="M 11.500037,31.436501 C 11.940474,20.09759 22.043105,11.32322 32.158766,21.979434 L 37.068811,17.246167 C 37.068811,17.246167 37.088388,32 37.088388,32 L 22.160133,31.978069 C 22.160133,31.978069 26.997745,27.140456 26.997745,27.140456 C 18.528582,18.264221 13.291696,25.230495 11.500037,31.436501 z"
             style="fill:#404040;"/>
          </a>
         </g>
        </svg>
</svg>
