<?xml version="1.0" encoding="UTF-8" standalone="no"?>
<!DOCTYPE svg PUBLIC "-//W3C//DTD SVG 1.1//EN"
 "http://www.w3.org/Graphics/SVG/1.1/DTD/svg11.dtd">
<!-- Generated by graphviz version 2.40.1 (20161225.0304)
 -->
<!-- Title: chi::NodeCompiler::codeBlock Pages: 1 -->
<svg width="1201pt" height="686pt"
 viewBox="0.00 0.00 1201.00 685.50" xmlns="http://www.w3.org/2000/svg" xmlns:xlink="http://www.w3.org/1999/xlink">
<g id="graph0" class="graph" transform="scale(1 1) rotate(0) translate(4 681.5)">
<title>chi::NodeCompiler::codeBlock</title>
<polygon fill="#ffffff" stroke="transparent" points="-4,4 -4,-681.5 1197,-681.5 1197,4 -4,4"/>
<!-- Node27 -->
<g id="node1" class="node">
<title>Node27</title>
<polygon fill="#bfbfbf" stroke="#000000" points="0,-298 0,-328 102,-328 102,-298 0,-298"/>
<text text-anchor="start" x="8" y="-316" font-family="Helvetica,sans-Serif" font-size="10.00" fill="#000000">chi::NodeCompiler::</text>
<text text-anchor="middle" x="51" y="-305" font-family="Helvetica,sans-Serif" font-size="10.00" fill="#000000">codeBlock</text>
</g>
<!-- Node28 -->
<g id="node2" class="node">
<title>Node28</title>
<g id="a_node2"><a xlink:href="structchi_1_1NodeCompiler.html#a4599a3322541fe67adfa343c19b00dc4" target="_top" xlink:title="The number of input execs that we can compile If it&#39;s pure or an entry node, this is 1...">
<polygon fill="#ffffff" stroke="#000000" points="138,-298 138,-328 240,-328 240,-298 138,-298"/>
<text text-anchor="start" x="146" y="-316" font-family="Helvetica,sans-Serif" font-size="10.00" fill="#000000">chi::NodeCompiler::</text>
<text text-anchor="middle" x="189" y="-305" font-family="Helvetica,sans-Serif" font-size="10.00" fill="#000000">inputExecs</text>
</a>
</g>
</g>
<!-- Node27&#45;&gt;Node28 -->
<g id="edge1" class="edge">
<title>Node27&#45;&gt;Node28</title>
<path fill="none" stroke="#191970" d="M102.3861,-313C110.5581,-313 119.0834,-313 127.4603,-313"/>
<polygon fill="#191970" stroke="#191970" points="127.571,-316.5001 137.571,-313 127.5709,-309.5001 127.571,-316.5001"/>
</g>
<!-- Node29 -->
<g id="node3" class="node">
<title>Node29</title>
<g id="a_node3"><a xlink:href="structchi_1_1NodeCompiler.html#aa31a7c7955b51e5610b966f81bdc989d" target="_top" xlink:title="node().type().pure() ">
<polygon fill="#ffffff" stroke="#000000" points="276,-256.5 276,-275.5 397,-275.5 397,-256.5 276,-256.5"/>
<text text-anchor="middle" x="336.5" y="-263.5" font-family="Helvetica,sans-Serif" font-size="10.00" fill="#000000">chi::NodeCompiler::pure</text>
</a>
</g>
</g>
<!-- Node28&#45;&gt;Node29 -->
<g id="edge2" class="edge">
<title>Node28&#45;&gt;Node29</title>
<path fill="none" stroke="#191970" d="M236.0755,-297.9997C255.6572,-291.7601 278.1385,-284.5965 296.8592,-278.6313"/>
<polygon fill="#191970" stroke="#191970" points="298.0845,-281.9143 306.5498,-275.5434 295.9592,-275.2448 298.0845,-281.9143"/>
</g>
<!-- Node30 -->
<g id="node4" class="node">
<title>Node30</title>
<g id="a_node4"><a xlink:href="structchi_1_1NodeCompiler.html#a8a595537ffd4b3116059d59e3fd61f8b" target="_top" xlink:title="The node we&#39;re compiling. ">
<polygon fill="#ffffff" stroke="#000000" points="433,-303.5 433,-322.5 556,-322.5 556,-303.5 433,-303.5"/>
<text text-anchor="middle" x="494.5" y="-310.5" font-family="Helvetica,sans-Serif" font-size="10.00" fill="#000000">chi::NodeCompiler::node</text>
</a>
</g>
</g>
<!-- Node28&#45;&gt;Node30 -->
<g id="edge47" class="edge">
<title>Node28&#45;&gt;Node30</title>
<path fill="none" stroke="#191970" d="M240.1338,-307.8082C290.1049,-305.969 366.6299,-305.7579 422.6956,-307.175"/>
<polygon fill="#191970" stroke="#191970" points="422.8219,-310.6798 432.9152,-307.4586 423.0161,-303.6825 422.8219,-310.6798"/>
</g>
<!-- Node29&#45;&gt;Node30 -->
<g id="edge3" class="edge">
<title>Node29&#45;&gt;Node30</title>
<path fill="none" stroke="#191970" d="M390.4327,-275.6048C416.3998,-282.6629 446.398,-291.9889 467.4958,-299.736"/>
<polygon fill="#191970" stroke="#191970" points="466.4906,-303.0986 477.0813,-303.3954 468.9873,-296.5589 466.4906,-303.0986"/>
</g>
<!-- Node43 -->
<g id="node17" class="node">
<title>Node43</title>
<g id="a_node17"><a xlink:href="structchi_1_1NodeInstance.html#a5d6678d5a90e6b1adb7dafb868b974b1" target="_top" xlink:title="Get the type of the instance. ">
<polygon fill="#ffffff" stroke="#000000" points="735.5,-318.5 735.5,-337.5 855.5,-337.5 855.5,-318.5 735.5,-318.5"/>
<text text-anchor="middle" x="795.5" y="-325.5" font-family="Helvetica,sans-Serif" font-size="10.00" fill="#000000">chi::NodeInstance::type</text>
</a>
</g>
</g>
<!-- Node29&#45;&gt;Node43 -->
<g id="edge45" class="edge">
<title>Node29&#45;&gt;Node43</title>
<path fill="none" stroke="#191970" d="M397.0891,-273.4951C441.1826,-279.0067 502.318,-286.7661 556,-294 613.1193,-301.6972 677.8265,-310.9129 725.5706,-317.8069"/>
<polygon fill="#191970" stroke="#191970" points="725.0944,-321.2743 735.4924,-319.2414 726.0961,-314.3464 725.0944,-321.2743"/>
</g>
<!-- Node48 -->
<g id="node22" class="node">
<title>Node48</title>
<g id="a_node22"><a xlink:href="structchi_1_1NodeType.html#a0e5eb5e2862761cd67f3ff4761175dd5" target="_top" xlink:title="Get if this node is pure. ">
<polygon fill="#ffffff" stroke="#000000" points="442.5,-180.5 442.5,-199.5 546.5,-199.5 546.5,-180.5 442.5,-180.5"/>
<text text-anchor="middle" x="494.5" y="-187.5" font-family="Helvetica,sans-Serif" font-size="10.00" fill="#000000">chi::NodeType::pure</text>
</a>
</g>
</g>
<!-- Node29&#45;&gt;Node48 -->
<g id="edge46" class="edge">
<title>Node29&#45;&gt;Node48</title>
<path fill="none" stroke="#191970" d="M352.921,-256.3521C371.8768,-245.4043 404.1534,-227.3401 433,-214 441.0752,-210.2656 449.9077,-206.5893 458.2959,-203.2792"/>
<polygon fill="#191970" stroke="#191970" points="459.801,-206.4498 467.8668,-199.58 457.2774,-199.9205 459.801,-206.4498"/>
</g>
<!-- Node30&#45;&gt;Node27 -->
<g id="edge39" class="edge">
<title>Node30&#45;&gt;Node27</title>
<path fill="none" stroke="#191970" d="M462.3279,-322.5176C443.4789,-327.6068 419.1039,-333.3568 397,-336 370.3959,-339.1813 161.0471,-340.1206 138,-337 127.6457,-335.598 116.7821,-333.2978 106.3774,-330.6625"/>
<polygon fill="#191970" stroke="#191970" points="107.1377,-327.2431 96.5738,-328.0516 105.3362,-334.0073 107.1377,-327.2431"/>
</g>
<!-- Node30&#45;&gt;Node28 -->
<g id="edge44" class="edge">
<title>Node30&#45;&gt;Node28</title>
<path fill="none" stroke="#191970" d="M432.9152,-318.5414C379.7997,-320.1545 303.4925,-320.1529 250.4239,-318.5366"/>
<polygon fill="#191970" stroke="#191970" points="250.2455,-315.0287 240.1338,-318.1918 250.011,-322.0248 250.2455,-315.0287"/>
</g>
<!-- Node30&#45;&gt;Node29 -->
<g id="edge4" class="edge">
<title>Node30&#45;&gt;Node29</title>
<path fill="none" stroke="#191970" d="M440.8672,-303.4766C414.7581,-296.3891 384.5135,-286.9882 363.3256,-279.1984"/>
<polygon fill="#191970" stroke="#191970" points="364.3,-275.8239 353.7095,-275.5209 361.7996,-282.3621 364.3,-275.8239"/>
</g>
<!-- Node31 -->
<g id="node5" class="node">
<title>Node31</title>
<g id="a_node5"><a xlink:href="structchi_1_1NodeCompiler.html#af391b4e8ecebe8859490749bac0425de" target="_top" xlink:title="Add the basic blocks and fill the pure blocks, but don&#39;t fill the code block nop if its already been ...">
<polygon fill="#ffffff" stroke="#000000" points="744.5,-213 744.5,-243 846.5,-243 846.5,-213 744.5,-213"/>
<text text-anchor="start" x="752.5" y="-231" font-family="Helvetica,sans-Serif" font-size="10.00" fill="#000000">chi::NodeCompiler::</text>
<text text-anchor="middle" x="795.5" y="-220" font-family="Helvetica,sans-Serif" font-size="10.00" fill="#000000">compile_stage1</text>
</a>
</g>
</g>
<!-- Node30&#45;&gt;Node31 -->
<g id="edge5" class="edge">
<title>Node30&#45;&gt;Node31</title>
<path fill="none" stroke="#191970" d="M515.6657,-303.3556C560.5611,-287.3381 666.7752,-256.7179 734.6695,-239.6319"/>
<polygon fill="#191970" stroke="#191970" points="735.5373,-243.0228 744.3968,-237.2126 733.8477,-236.2297 735.5373,-243.0228"/>
</g>
<!-- Node32 -->
<g id="node6" class="node">
<title>Node32</title>
<g id="a_node6"><a xlink:href="structchi_1_1NodeCompiler.html#a7b0bd7aecf8cfc98804b31b21066b6d1" target="_top" xlink:title="Just node().context() ">
<polygon fill="#ffffff" stroke="#000000" points="901.5,-270 901.5,-300 1003.5,-300 1003.5,-270 901.5,-270"/>
<text text-anchor="start" x="909.5" y="-288" font-family="Helvetica,sans-Serif" font-size="10.00" fill="#000000">chi::NodeCompiler::</text>
<text text-anchor="middle" x="952.5" y="-277" font-family="Helvetica,sans-Serif" font-size="10.00" fill="#000000">context</text>
</a>
</g>
</g>
<!-- Node30&#45;&gt;Node32 -->
<g id="edge43" class="edge">
<title>Node30&#45;&gt;Node32</title>
<path fill="none" stroke="#191970" d="M556.2679,-304.4353C643.9916,-296.4525 803.7051,-286.6928 891.1819,-283.9737"/>
<polygon fill="#191970" stroke="#191970" points="891.3289,-287.471 901.2239,-283.6843 891.1272,-280.4739 891.3289,-287.471"/>
</g>
<!-- Node39 -->
<g id="node13" class="node">
<title>Node39</title>
<g id="a_node13"><a xlink:href="structchi_1_1NodeCompiler.html#a12c42cfcd23400c523184966ed238806" target="_top" xlink:title="Get the first block to jump to for the node If there are dependent pures, it&#39;s the first pure block O...">
<polygon fill="#ffffff" stroke="#000000" points="901.5,-51 901.5,-81 1003.5,-81 1003.5,-51 901.5,-51"/>
<text text-anchor="start" x="909.5" y="-69" font-family="Helvetica,sans-Serif" font-size="10.00" fill="#000000">chi::NodeCompiler::</text>
<text text-anchor="middle" x="952.5" y="-58" font-family="Helvetica,sans-Serif" font-size="10.00" fill="#000000">firstBlock</text>
</a>
</g>
</g>
<!-- Node30&#45;&gt;Node39 -->
<g id="edge38" class="edge">
<title>Node30&#45;&gt;Node39</title>
<path fill="none" stroke="#191970" d="M509.8564,-303.2923C528.9163,-291.3403 562.5134,-270.5882 592,-254 706.6328,-189.5115 845.3825,-119.2994 912.4082,-85.8619"/>
<polygon fill="#191970" stroke="#191970" points="914.3753,-88.7923 921.7654,-81.2004 911.2539,-82.5267 914.3753,-88.7923"/>
</g>
<!-- Node40 -->
<g id="node14" class="node">
<title>Node40</title>
<g id="a_node14"><a xlink:href="structchi_1_1NodeCompiler.html#ac3f5bd1f1f84fc1b35fc8ad54db3c844" target="_top" xlink:title="Fill the codegen block If compile_stage1 hasn&#39;t been called for this inputExecID, then it will be cal...">
<polygon fill="#ffffff" stroke="#000000" points="592,-456 592,-486 694,-486 694,-456 592,-456"/>
<text text-anchor="start" x="600" y="-474" font-family="Helvetica,sans-Serif" font-size="10.00" fill="#000000">chi::NodeCompiler::</text>
<text text-anchor="middle" x="643" y="-463" font-family="Helvetica,sans-Serif" font-size="10.00" fill="#000000">compile_stage2</text>
</a>
</g>
</g>
<!-- Node30&#45;&gt;Node40 -->
<g id="edge23" class="edge">
<title>Node30&#45;&gt;Node40</title>
<path fill="none" stroke="#191970" d="M550.0921,-322.7066C552.2017,-324.3244 554.1861,-326.0872 556,-328 591.1055,-365.0199 558.4742,-398.5437 592,-437 597.034,-442.7743 603.7094,-447.3463 610.5664,-451.1655"/>
<polygon fill="#191970" stroke="#191970" points="609.3971,-454.4993 619.8923,-455.949 612.5919,-448.2708 609.3971,-454.4993"/>
</g>
<!-- Node41 -->
<g id="node15" class="node">
<title>Node41</title>
<g id="a_node15"><a xlink:href="structchi_1_1NodeCompiler.html#ab3db1222a66ea1767cd6dbc8a8a10963" target="_top" xlink:title="Get if compile_stage2 has been called for a given inputExecID. ">
<polygon fill="#ffffff" stroke="#000000" points="744.5,-647 744.5,-677 846.5,-677 846.5,-647 744.5,-647"/>
<text text-anchor="start" x="752.5" y="-665" font-family="Helvetica,sans-Serif" font-size="10.00" fill="#000000">chi::NodeCompiler::</text>
<text text-anchor="middle" x="795.5" y="-654" font-family="Helvetica,sans-Serif" font-size="10.00" fill="#000000">compiled</text>
</a>
</g>
</g>
<!-- Node30&#45;&gt;Node41 -->
<g id="edge37" class="edge">
<title>Node30&#45;&gt;Node41</title>
<path fill="none" stroke="#191970" d="M497.1915,-322.7246C505.8998,-352.5118 536.0419,-443.5841 592,-495 628.3551,-528.4042 660.0661,-503.1389 694,-539 725.8926,-572.7039 697.3961,-603.9837 730,-637 731.796,-638.8187 733.7381,-640.5073 735.7903,-642.0748"/>
<polygon fill="#191970" stroke="#191970" points="733.8861,-645.0115 744.1748,-647.5401 737.7086,-639.1473 733.8861,-645.0115"/>
</g>
<!-- Node46 -->
<g id="node20" class="node">
<title>Node46</title>
<g id="a_node20"><a xlink:href="structchi_1_1NodeCompiler.html#a3825379c4840a017b6ab91ec5b42cc6c" target="_top" xlink:title="Get the module being generated. ">
<polygon fill="#ffffff" stroke="#000000" points="592,-407 592,-437 694,-437 694,-407 592,-407"/>
<text text-anchor="start" x="600" y="-425" font-family="Helvetica,sans-Serif" font-size="10.00" fill="#000000">chi::NodeCompiler::</text>
<text text-anchor="middle" x="643" y="-414" font-family="Helvetica,sans-Serif" font-size="10.00" fill="#000000">llvmModule</text>
</a>
</g>
</g>
<!-- Node30&#45;&gt;Node46 -->
<g id="edge40" class="edge">
<title>Node30&#45;&gt;Node46</title>
<path fill="none" stroke="#191970" d="M530.036,-322.6031C539.1135,-326.1538 548.4349,-330.8617 556,-337 578.6866,-355.4078 570.8535,-371.8417 592,-392 595.5318,-395.3668 599.5088,-398.517 603.6441,-401.4151"/>
<polygon fill="#191970" stroke="#191970" points="601.9673,-404.499 612.2631,-406.9983 605.7731,-398.6239 601.9673,-404.499"/>
</g>
<!-- Node31&#45;&gt;Node27 -->
<g id="edge7" class="edge">
<title>Node31&#45;&gt;Node27</title>
<path fill="none" stroke="#191970" d="M777.4803,-212.7649C758.2218,-197.5077 726.1034,-174.9122 694,-165 516.4049,-110.1661 451.8129,-117.6959 276,-178 198.1577,-204.7 118.1348,-260.9426 77.7715,-291.7378"/>
<polygon fill="#191970" stroke="#191970" points="75.5576,-289.0251 69.7754,-297.9031 79.8319,-294.5687 75.5576,-289.0251"/>
</g>
<!-- Node31&#45;&gt;Node28 -->
<g id="edge6" class="edge">
<title>Node31&#45;&gt;Node28</title>
<path fill="none" stroke="#191970" d="M758.6464,-212.9971C692.7646,-188.2143 550.6712,-144.0167 433,-171 344.3222,-191.3348 255.9575,-256.839 214.0756,-291.3168"/>
<polygon fill="#191970" stroke="#191970" points="211.7695,-288.6826 206.3327,-297.7761 216.2537,-294.0578 211.7695,-288.6826"/>
</g>
<!-- Node31&#45;&gt;Node29 -->
<g id="edge13" class="edge">
<title>Node31&#45;&gt;Node29</title>
<path fill="none" stroke="#191970" d="M744.3649,-230.1276C674.0726,-233.3389 543.7076,-240.3226 433,-252 424.6507,-252.8807 415.9147,-253.9456 407.2552,-255.0902"/>
<polygon fill="#191970" stroke="#191970" points="406.5896,-251.6484 397.1526,-256.4643 407.5331,-258.5846 406.5896,-251.6484"/>
</g>
<!-- Node31&#45;&gt;Node30 -->
<g id="edge11" class="edge">
<title>Node31&#45;&gt;Node30</title>
<path fill="none" stroke="#191970" d="M758.3746,-243.1088C708.0767,-259.7757 617.5968,-285.6484 556.7965,-300.9986"/>
<polygon fill="#191970" stroke="#191970" points="555.785,-297.6436 546.9302,-303.461 557.4801,-304.4352 555.785,-297.6436"/>
</g>
<!-- Node31&#45;&gt;Node32 -->
<g id="edge8" class="edge">
<title>Node31&#45;&gt;Node32</title>
<path fill="none" stroke="#191970" d="M837.1609,-243.1253C856.8453,-250.2719 880.5264,-258.8695 901.2958,-266.4099"/>
<polygon fill="#191970" stroke="#191970" points="900.3229,-269.7802 910.917,-269.903 902.7118,-263.2004 900.3229,-269.7802"/>
</g>
<!-- Node34 -->
<g id="node8" class="node">
<title>Node34</title>
<g id="a_node8"><a xlink:href="structchi_1_1NodeCompiler.html#afd650ba41704bbeca337cbadb18f03cf" target="_top" xlink:title="Get the function compiler. ">
<polygon fill="#ffffff" stroke="#000000" points="901.5,-439 901.5,-469 1003.5,-469 1003.5,-439 901.5,-439"/>
<text text-anchor="start" x="909.5" y="-457" font-family="Helvetica,sans-Serif" font-size="10.00" fill="#000000">chi::NodeCompiler::</text>
<text text-anchor="middle" x="952.5" y="-446" font-family="Helvetica,sans-Serif" font-size="10.00" fill="#000000">funcCompiler</text>
</a>
</g>
</g>
<!-- Node31&#45;&gt;Node34 -->
<g id="edge12" class="edge">
<title>Node31&#45;&gt;Node34</title>
<path fill="none" stroke="#191970" d="M808.6086,-243.1081C822.2437,-259.0707 843.9423,-285.1801 861,-309 890.5565,-350.2735 921.3406,-400.9066 938.5995,-430.1117"/>
<polygon fill="#191970" stroke="#191970" points="935.6235,-431.9556 943.7091,-438.8019 941.6577,-428.4076 935.6235,-431.9556"/>
</g>
<!-- Node35 -->
<g id="node9" class="node">
<title>Node35</title>
<g id="a_node9"><a xlink:href="namespacechi.html#a00be19cc8464681f474ecbcd27abe13c" target="_top" xlink:title="Get the pures a NodeInstance relies on These are all the dependent pures (it&#39;s fetched recursively) T...">
<polygon fill="#ffffff" stroke="#000000" points="1044,-160.5 1044,-179.5 1193,-179.5 1193,-160.5 1044,-160.5"/>
<text text-anchor="middle" x="1118.5" y="-167.5" font-family="Helvetica,sans-Serif" font-size="10.00" fill="#000000">chi::dependentPuresRecursive</text>
</a>
</g>
</g>
<!-- Node31&#45;&gt;Node35 -->
<g id="edge14" class="edge">
<title>Node31&#45;&gt;Node35</title>
<path fill="none" stroke="#191970" d="M846.6803,-218.8097C903.2978,-208.6431 994.5656,-192.2545 1055.5242,-181.3084"/>
<polygon fill="#191970" stroke="#191970" points="1056.1879,-184.7452 1065.4119,-179.5329 1054.9507,-177.8554 1056.1879,-184.7452"/>
</g>
<!-- Node36 -->
<g id="node10" class="node">
<title>Node36</title>
<g id="a_node10"><a xlink:href="structchi_1_1FunctionCompiler.html#a85f29ea79e8fab1c963f096be468a1a5" target="_top" xlink:title="Get a node compile for a certain node. ">
<polygon fill="#ffffff" stroke="#000000" points="897,-221 897,-251 1008,-251 1008,-221 897,-221"/>
<text text-anchor="start" x="905" y="-239" font-family="Helvetica,sans-Serif" font-size="10.00" fill="#000000">chi::FunctionCompiler</text>
<text text-anchor="middle" x="952.5" y="-228" font-family="Helvetica,sans-Serif" font-size="10.00" fill="#000000">::nodeCompiler</text>
</a>
</g>
</g>
<!-- Node31&#45;&gt;Node36 -->
<g id="edge15" class="edge">
<title>Node31&#45;&gt;Node36</title>
<path fill="none" stroke="#191970" d="M846.9077,-230.6195C859.6639,-231.2695 873.5081,-231.9749 886.8439,-232.6545"/>
<polygon fill="#191970" stroke="#191970" points="886.7512,-236.1542 896.9164,-233.1677 887.1075,-229.1633 886.7512,-236.1542"/>
</g>
<!-- Node38 -->
<g id="node12" class="node">
<title>Node38</title>
<g id="a_node12"><a xlink:href="structchi_1_1NodeCompiler.html#a7dc06ad0390f2113fbeb5e7c0cf3dd06" target="_top" xlink:title="Get the IndirectBrInst* for the pure. ">
<polygon fill="#ffffff" stroke="#000000" points="901.5,-133 901.5,-163 1003.5,-163 1003.5,-133 901.5,-133"/>
<text text-anchor="start" x="909.5" y="-151" font-family="Helvetica,sans-Serif" font-size="10.00" fill="#000000">chi::NodeCompiler::</text>
<text text-anchor="middle" x="952.5" y="-140" font-family="Helvetica,sans-Serif" font-size="10.00" fill="#000000">jumpBackInst</text>
</a>
</g>
</g>
<!-- Node31&#45;&gt;Node38 -->
<g id="edge17" class="edge">
<title>Node31&#45;&gt;Node38</title>
<path fill="none" stroke="#191970" d="M825.0305,-212.9526C850.169,-200.1432 886.463,-181.6494 913.8994,-167.6691"/>
<polygon fill="#191970" stroke="#191970" points="915.5145,-170.7744 922.8354,-163.1157 912.3364,-164.5374 915.5145,-170.7744"/>
</g>
<!-- Node31&#45;&gt;Node39 -->
<g id="edge20" class="edge">
<title>Node31&#45;&gt;Node39</title>
<path fill="none" stroke="#191970" d="M810.275,-212.6808C830.0181,-192.2186 866.1047,-154.8453 897,-123 907.9895,-111.6726 920.2259,-99.1011 930.4066,-88.6529"/>
<polygon fill="#191970" stroke="#191970" points="932.9357,-91.0726 937.4092,-81.4684 927.9229,-86.1867 932.9357,-91.0726"/>
</g>
<!-- Node32&#45;&gt;Node30 -->
<g id="edge9" class="edge">
<title>Node32&#45;&gt;Node30</title>
<path fill="none" stroke="#191970" d="M901.2239,-292.5852C819.5279,-300.4221 659.5679,-310.4087 566.4506,-313.6739"/>
<polygon fill="#191970" stroke="#191970" points="566.1461,-310.182 556.2679,-314.0123 566.3787,-317.1781 566.1461,-310.182"/>
</g>
<!-- Node33 -->
<g id="node7" class="node">
<title>Node33</title>
<g id="a_node7"><a xlink:href="structchi_1_1NodeInstance.html#ac2ada83d65425a80a4af74da5414fd75" target="_top" xlink:title="Get the containing Context object. ">
<polygon fill="#ffffff" stroke="#000000" points="1068,-270 1068,-300 1169,-300 1169,-270 1068,-270"/>
<text text-anchor="start" x="1076" y="-288" font-family="Helvetica,sans-Serif" font-size="10.00" fill="#000000">chi::NodeInstance::</text>
<text text-anchor="middle" x="1118.5" y="-277" font-family="Helvetica,sans-Serif" font-size="10.00" fill="#000000">context</text>
</a>
</g>
</g>
<!-- Node32&#45;&gt;Node33 -->
<g id="edge10" class="edge">
<title>Node32&#45;&gt;Node33</title>
<path fill="none" stroke="#191970" d="M1003.66,-285C1020.7017,-285 1039.8541,-285 1057.562,-285"/>
<polygon fill="#191970" stroke="#191970" points="1057.7943,-288.5001 1067.7943,-285 1057.7943,-281.5001 1057.7943,-288.5001"/>
</g>
<!-- Node37 -->
<g id="node11" class="node">
<title>Node37</title>
<g id="a_node11"><a xlink:href="structchi_1_1NodeInstance.html#a8f64930fd9578431a11cad0702b4100c" target="_top" xlink:title="Get the containing GraphFunction. ">
<polygon fill="#ffffff" stroke="#000000" points="1068,-221 1068,-251 1169,-251 1169,-221 1068,-221"/>
<text text-anchor="start" x="1076" y="-239" font-family="Helvetica,sans-Serif" font-size="10.00" fill="#000000">chi::NodeInstance::</text>
<text text-anchor="middle" x="1118.5" y="-228" font-family="Helvetica,sans-Serif" font-size="10.00" fill="#000000">function</text>
</a>
</g>
</g>
<!-- Node36&#45;&gt;Node37 -->
<g id="edge16" class="edge">
<title>Node36&#45;&gt;Node37</title>
<path fill="none" stroke="#191970" d="M1008.2374,-236C1024.0766,-236 1041.4059,-236 1057.5378,-236"/>
<polygon fill="#191970" stroke="#191970" points="1057.9382,-239.5001 1067.9382,-236 1057.9381,-232.5001 1057.9382,-239.5001"/>
</g>
<!-- Node38&#45;&gt;Node29 -->
<g id="edge18" class="edge">
<title>Node38&#45;&gt;Node29</title>
<path fill="none" stroke="#191970" d="M901.4995,-138.671C805.2268,-123.5005 592.1146,-101.6726 433,-171 395.4934,-187.3419 364.3866,-225.3655 348.3105,-248.0417"/>
<polygon fill="#191970" stroke="#191970" points="345.317,-246.2181 342.5442,-256.4436 351.0886,-250.1791 345.317,-246.2181"/>
</g>
<!-- Node38&#45;&gt;Node35 -->
<g id="edge19" class="edge">
<title>Node38&#45;&gt;Node35</title>
<path fill="none" stroke="#191970" d="M1003.66,-154.7802C1014.0898,-156.1625 1025.3103,-157.6496 1036.5063,-159.1334"/>
<polygon fill="#191970" stroke="#191970" points="1036.385,-162.6478 1046.7581,-160.492 1037.3047,-155.7085 1036.385,-162.6478"/>
</g>
<!-- Node39&#45;&gt;Node27 -->
<g id="edge22" class="edge">
<title>Node39&#45;&gt;Node27</title>
<path fill="none" stroke="#191970" d="M909.801,-50.941C850.6599,-31.4617 740.1078,0 643,0 336.5,0 336.5,0 336.5,0 180.5532,0 87.0828,-214.708 59.5734,-288.468"/>
<polygon fill="#191970" stroke="#191970" points="56.2704,-287.3095 56.1298,-297.9034 62.8462,-289.7094 56.2704,-287.3095"/>
</g>
<!-- Node39&#45;&gt;Node28 -->
<g id="edge21" class="edge">
<title>Node39&#45;&gt;Node28</title>
<path fill="none" stroke="#191970" d="M901.1987,-61.0687C780.9832,-52.163 476.1353,-45.2195 276,-178 251.0324,-194.5649 256.1991,-209.7935 240,-235 228.2275,-253.3185 214.7374,-273.9342 204.5895,-289.3688"/>
<polygon fill="#191970" stroke="#191970" points="201.6137,-287.5239 199.039,-297.8011 207.4607,-291.3726 201.6137,-287.5239"/>
</g>
<!-- Node40&#45;&gt;Node27 -->
<g id="edge27" class="edge">
<title>Node40&#45;&gt;Node27</title>
<path fill="none" stroke="#191970" d="M591.8025,-463.3985C549.1104,-456.7209 486.7967,-446.1861 433,-434 300.2804,-403.9363 266.0049,-398.1852 138,-352 122.2902,-346.3318 105.4492,-339.0733 90.8091,-332.3587"/>
<polygon fill="#191970" stroke="#191970" points="92.0835,-329.0914 81.5403,-328.0469 89.131,-335.4382 92.0835,-329.0914"/>
</g>
<!-- Node40&#45;&gt;Node28 -->
<g id="edge26" class="edge">
<title>Node40&#45;&gt;Node28</title>
<path fill="none" stroke="#191970" d="M599.8358,-455.9781C516.1928,-426.8689 332.3086,-362.8739 241.6499,-331.3231"/>
<polygon fill="#191970" stroke="#191970" points="242.7153,-327.988 232.1205,-328.0067 240.4145,-334.5991 242.7153,-327.988"/>
</g>
<!-- Node40&#45;&gt;Node29 -->
<g id="edge24" class="edge">
<title>Node40&#45;&gt;Node29</title>
<path fill="none" stroke="#191970" d="M604.9305,-455.8531C600.2511,-453.0141 595.7905,-449.7397 592,-446 566.8143,-421.1518 582.6241,-398.3004 556,-375 512.4211,-336.8614 484.6816,-358.1283 433,-332 404.8529,-317.7698 375.3214,-296.4977 356.4567,-281.9755"/>
<polygon fill="#191970" stroke="#191970" points="358.3795,-279.0363 348.3443,-275.6385 354.0703,-284.5527 358.3795,-279.0363"/>
</g>
<!-- Node40&#45;&gt;Node30 -->
<g id="edge25" class="edge">
<title>Node40&#45;&gt;Node30</title>
<path fill="none" stroke="#191970" d="M592.7904,-455.8824C592.5227,-455.5914 592.2592,-455.2973 592,-455 558.4742,-416.5437 591.1055,-383.0199 556,-346 546.6348,-336.1241 532.7249,-330.2463 520.5017,-325.8841"/>
<polygon fill="#191970" stroke="#191970" points="521.3625,-322.4785 510.7677,-322.5218 519.077,-329.095 521.3625,-322.4785"/>
</g>
<!-- Node40&#45;&gt;Node31 -->
<g id="edge30" class="edge">
<title>Node40&#45;&gt;Node31</title>
<path fill="none" stroke="#191970" d="M682.8566,-455.8995C687.0283,-453.0936 690.8769,-449.8151 694,-446 733.879,-397.2853 701.5737,-365.1729 730,-309 741.0564,-287.1515 758.74,-265.7558 772.9477,-250.4457"/>
<polygon fill="#191970" stroke="#191970" points="775.651,-252.682 780.0071,-243.0241 770.579,-247.8576 775.651,-252.682"/>
</g>
<!-- Node40&#45;&gt;Node32 -->
<g id="edge35" class="edge">
<title>Node40&#45;&gt;Node32</title>
<path fill="none" stroke="#191970" d="M694.2185,-461.6988C740.8583,-451.3917 810.0223,-431.3549 861,-396 894.6301,-372.6763 922.6989,-333.7283 938.5456,-308.7168"/>
<polygon fill="#191970" stroke="#191970" points="941.5372,-310.5337 943.8185,-300.1874 935.5831,-306.8528 941.5372,-310.5337"/>
</g>
<!-- Node40&#45;&gt;Node34 -->
<g id="edge31" class="edge">
<title>Node40&#45;&gt;Node34</title>
<path fill="none" stroke="#191970" d="M668.9325,-486.2554C694.4166,-501.2392 729.5697,-521.8832 730,-522 786.1882,-537.255 805.7253,-540.2903 861,-522 888.2116,-512.9957 913.9177,-492.4175 931.1134,-476.2418"/>
<polygon fill="#191970" stroke="#191970" points="933.6534,-478.6539 938.39,-469.1769 928.7772,-473.6316 933.6534,-478.6539"/>
</g>
<!-- Node40&#45;&gt;Node41 -->
<g id="edge28" class="edge">
<title>Node40&#45;&gt;Node41</title>
<path fill="none" stroke="#191970" d="M677.2395,-486.083C683.5406,-490.1561 689.5303,-495.1072 694,-501 731.7863,-550.8169 688.1879,-590.5105 730,-637 731.7805,-638.9797 733.7349,-640.8035 735.8206,-642.4838"/>
<polygon fill="#191970" stroke="#191970" points="734.1759,-645.5958 744.4255,-648.2785 738.0859,-639.7896 734.1759,-645.5958"/>
</g>
<!-- Node42 -->
<g id="node16" class="node">
<title>Node42</title>
<g id="a_node16"><a xlink:href="structchi_1_1NodeCompiler.html#a4798bbddf994de6c4e3f607991456e09" target="_top" xlink:title="Get return values. ">
<polygon fill="#ffffff" stroke="#000000" points="744.5,-483 744.5,-513 846.5,-513 846.5,-483 744.5,-483"/>
<text text-anchor="start" x="752.5" y="-501" font-family="Helvetica,sans-Serif" font-size="10.00" fill="#000000">chi::NodeCompiler::</text>
<text text-anchor="middle" x="795.5" y="-490" font-family="Helvetica,sans-Serif" font-size="10.00" fill="#000000">returnValues</text>
</a>
</g>
</g>
<!-- Node40&#45;&gt;Node42 -->
<g id="edge32" class="edge">
<title>Node40&#45;&gt;Node42</title>
<path fill="none" stroke="#191970" d="M694.2045,-480.0657C707.0987,-482.3486 721.0678,-484.8218 734.3939,-487.1812"/>
<polygon fill="#191970" stroke="#191970" points="733.9735,-490.6611 744.4306,-488.9582 735.194,-483.7683 733.9735,-490.6611"/>
</g>
<!-- Node40&#45;&gt;Node43 -->
<g id="edge33" class="edge">
<title>Node40&#45;&gt;Node43</title>
<path fill="none" stroke="#191970" d="M682.0142,-455.9421C686.4345,-453.1108 690.5733,-449.8145 694,-446 725.2882,-411.1711 695.8127,-378.988 730,-347 731.6859,-345.4225 733.4951,-343.9751 735.3989,-342.6471"/>
<polygon fill="#191970" stroke="#191970" points="737.3348,-345.5715 744.2636,-337.5564 733.8488,-339.5012 737.3348,-345.5715"/>
</g>
<!-- Node44 -->
<g id="node18" class="node">
<title>Node44</title>
<g id="a_node18"><a xlink:href="structchi_1_1NodeType.html#a7d2edfc21ff54a1ff8ad98fffb969268" target="_top" xlink:title="Get the data inputs for the node. ">
<polygon fill="#ffffff" stroke="#000000" points="730,-608.5 730,-627.5 861,-627.5 861,-608.5 730,-608.5"/>
<text text-anchor="middle" x="795.5" y="-615.5" font-family="Helvetica,sans-Serif" font-size="10.00" fill="#000000">chi::NodeType::dataInputs</text>
</a>
</g>
</g>
<!-- Node40&#45;&gt;Node44 -->
<g id="edge34" class="edge">
<title>Node40&#45;&gt;Node44</title>
<path fill="none" stroke="#191970" d="M676.2932,-486.0804C682.8123,-490.1956 689.1288,-495.1643 694,-501 723.7346,-536.6221 696.0657,-567.3527 730,-599 731.6885,-600.5747 733.4998,-602.0198 735.4055,-603.3458"/>
<polygon fill="#191970" stroke="#191970" points="733.8598,-606.494 744.2762,-608.4302 737.3407,-600.4208 733.8598,-606.494"/>
</g>
<!-- Node45 -->
<g id="node19" class="node">
<title>Node45</title>
<g id="a_node19"><a xlink:href="structchi_1_1NodeType.html#ac6662ce1a327258cd1f879b63cfbfa06" target="_top" xlink:title="A virtual function that is called when this node needs to be called. ">
<polygon fill="#ffffff" stroke="#000000" points="734.5,-570.5 734.5,-589.5 856.5,-589.5 856.5,-570.5 734.5,-570.5"/>
<text text-anchor="middle" x="795.5" y="-577.5" font-family="Helvetica,sans-Serif" font-size="10.00" fill="#000000">chi::NodeType::codegen</text>
</a>
</g>
</g>
<!-- Node40&#45;&gt;Node45 -->
<g id="edge36" class="edge">
<title>Node40&#45;&gt;Node45</title>
<path fill="none" stroke="#191970" d="M673.7369,-486.0017C680.8406,-490.2736 688.0517,-495.3297 694,-501 715.1465,-521.1583 707.1227,-537.8297 730,-556 735.2885,-560.2004 741.3811,-563.7097 747.6765,-566.6296"/>
<polygon fill="#191970" stroke="#191970" points="746.3977,-569.8884 756.975,-570.4978 749.0864,-563.4253 746.3977,-569.8884"/>
</g>
<!-- Node41&#45;&gt;Node28 -->
<g id="edge29" class="edge">
<title>Node41&#45;&gt;Node28</title>
<path fill="none" stroke="#191970" d="M753.172,-646.9291C745.3775,-643.8489 737.3759,-640.4787 730,-637 520.0906,-538.0012 465.7148,-512.6825 276,-379 258.74,-366.8378 256.7297,-360.8819 240,-348 233.9164,-343.3156 227.2527,-338.5176 220.8075,-334.035"/>
<polygon fill="#191970" stroke="#191970" points="222.4569,-330.9224 212.2291,-328.1579 218.5007,-336.6972 222.4569,-330.9224"/>
</g>
<!-- Node46&#45;&gt;Node34 -->
<g id="edge41" class="edge">
<title>Node46&#45;&gt;Node34</title>
<path fill="none" stroke="#191970" d="M694.1076,-427.2841C748.2049,-432.8774 833.5758,-441.7041 891.2418,-447.6664"/>
<polygon fill="#191970" stroke="#191970" points="891.0095,-451.1609 901.3164,-448.708 891.7295,-444.198 891.0095,-451.1609"/>
</g>
<!-- Node47 -->
<g id="node21" class="node">
<title>Node47</title>
<g id="a_node21"><a xlink:href="structchi_1_1FunctionCompiler.html#a3bc147aa1b93c8e8c08c91ade3e13024" target="_top" xlink:title="Get the module being generated. ">
<polygon fill="#ffffff" stroke="#000000" points="740,-357 740,-387 851,-387 851,-357 740,-357"/>
<text text-anchor="start" x="748" y="-375" font-family="Helvetica,sans-Serif" font-size="10.00" fill="#000000">chi::FunctionCompiler</text>
<text text-anchor="middle" x="795.5" y="-364" font-family="Helvetica,sans-Serif" font-size="10.00" fill="#000000">::llvmModule</text>
</a>
</g>
</g>
<!-- Node46&#45;&gt;Node47 -->
<g id="edge42" class="edge">
<title>Node46&#45;&gt;Node47</title>
<path fill="none" stroke="#191970" d="M688.755,-406.9984C704.8165,-401.7323 723.0393,-395.7576 739.8244,-390.2543"/>
<polygon fill="#191970" stroke="#191970" points="741.1021,-393.5188 749.5139,-387.0774 738.9212,-386.8672 741.1021,-393.5188"/>
</g>
</g>
</svg>
