<?xml version="1.0" encoding="UTF-8" standalone="no"?>
<!DOCTYPE svg PUBLIC "-//W3C//DTD SVG 1.1//EN"
 "http://www.w3.org/Graphics/SVG/1.1/DTD/svg11.dtd">
<!-- Generated by graphviz version 2.40.1 (20161225.0304)
 -->
<!-- Title: chig::NodeInstance::type Pages: 1 -->
<!--zoomable 404 -->
<svg id="main" version="1.1" xmlns="http://www.w3.org/2000/svg" xmlns:xlink="http://www.w3.org/1999/xlink" xml:space="preserve" onload="init(evt)">
<style type="text/css"><![CDATA[
.edge:hover path { stroke: red; }
.edge:hover polygon { stroke: red; fill: red; }
]]></style>
<script type="text/javascript"><![CDATA[
var edges = document.getElementsByTagName('g');
if (edges && edges.length) {
  for (var i=0;i<edges.length;i++) {
    if (edges[i].id.substr(0,4)=='edge') {
      edges[i].setAttribute('class','edge');
    }
  }
}
]]></script>
        <defs>
                <circle id="rim" cx="0" cy="0" r="7"/>
                <circle id="rim2" cx="0" cy="0" r="3.5"/>
                <g id="zoomPlus">
                        <use xlink:href="#rim" fill="#404040">
                                <set attributeName="fill" to="#808080" begin="zoomplus.mouseover" end="zoomplus.mouseout"/>
                        </use>
                        <path d="M-4,0h8M0,-4v8" fill="none" stroke="white" stroke-width="1.5" pointer-events="none"/>
                </g>
                <g id="zoomMin">
                        <use xlink:href="#rim" fill="#404040">
                                <set attributeName="fill" to="#808080" begin="zoomminus.mouseover" end="zoomminus.mouseout"/>
                        </use>
                        <path d="M-4,0h8" fill="none" stroke="white" stroke-width="1.5" pointer-events="none"/>
                </g>
                <g id="dirArrow">
                        <path fill="none" stroke="white" stroke-width="1.5" d="M0,-3.0v7 M-2.5,-0.5L0,-3.0L2.5,-0.5"/>
                </g>
               <g id="resetDef">
                       <use xlink:href="#rim2" fill="#404040">
                               <set attributeName="fill" to="#808080" begin="reset.mouseover" end="reset.mouseout"/>
                       </use>
               </g>
        </defs>

<script type="text/javascript">
var viewWidth = 1508;
var viewHeight = 404;
var sectionId = 'dynsection-4';
</script>
<script xlink:href="svgpan.js"/>
<svg id="graph" class="graph">
<g id="viewport">
<title>chig::NodeInstance::type</title>
<polygon fill="#ffffff" stroke="transparent" points="-4,4 -4,-400 1504,-400 1504,4 -4,4"/>
<!-- Node52 -->
<g id="node1" class="node">
<title>Node52</title>
<polygon fill="#bfbfbf" stroke="#000000" points="0,-207.5 0,-237.5 101,-237.5 101,-207.5 0,-207.5"/>
<text text-anchor="start" x="8" y="-225.5" font-family="Helvetica,sans-Serif" font-size="10.00" fill="#000000">chig::NodeInstance</text>
<text text-anchor="middle" x="50.5" y="-214.5" font-family="Helvetica,sans-Serif" font-size="10.00" fill="#000000">::type</text>
</g>
<!-- Node53 -->
<g id="node2" class="node">
<title>Node53</title>
<g id="a_node2"><a xlink:href="namespacechig.html#ad3c2fc880f6843f9a8a0f5ee0d62249d" target="_top" xlink:title="Connects two nodes&#39; data connections. ">
<polygon fill="#ffffff" stroke="#000000" points="144.5,-333 144.5,-352 239.5,-352 239.5,-333 144.5,-333"/>
<text text-anchor="middle" x="192" y="-340" font-family="Helvetica,sans-Serif" font-size="10.00" fill="#000000">chig::connectData</text>
</a>
</g>
</g>
<!-- Node52&#45;&gt;Node53 -->
<g id="edge1" class="edge">
<title>Node52&#45;&gt;Node53</title>
<path fill="none" stroke="#191970" d="M76.249,-244.3366C107.3494,-270.7115 158.2833,-313.9063 180.7507,-332.9599"/>
<polygon fill="#191970" stroke="#191970" points="78.3116,-241.4966 68.4211,-237.6981 73.784,-246.8353 78.3116,-241.4966"/>
</g>
<!-- Node55 -->
<g id="node4" class="node">
<title>Node55</title>
<g id="a_node4"><a xlink:href="namespacechig.html#a8a2e0029b591b2c20b39d570753f123f" target="_top" xlink:title="Connects two nodes&#39; exec connections. ">
<polygon fill="#ffffff" stroke="#000000" points="425,-333 425,-352 523,-352 523,-333 425,-333"/>
<text text-anchor="middle" x="474" y="-340" font-family="Helvetica,sans-Serif" font-size="10.00" fill="#000000">chig::connectExec</text>
</a>
</g>
</g>
<!-- Node52&#45;&gt;Node55 -->
<g id="edge21" class="edge">
<title>Node52&#45;&gt;Node55</title>
<path fill="none" stroke="#191970" d="M57.9078,-247.3841C69.1135,-280.0872 93.7885,-336.3204 137,-361.5 240.0344,-421.5387 392.2108,-374.1191 450.2935,-352.1447"/>
<polygon fill="#191970" stroke="#191970" points="61.1652,-246.0837 54.7364,-237.6622 54.5103,-248.2546 61.1652,-246.0837"/>
</g>
<!-- Node59 -->
<g id="node8" class="node">
<title>Node59</title>
<g id="a_node8"><a xlink:href="namespacechig.html#a26aa6586df79345493de9fc130291c18" target="_top" xlink:title="Disconnect a data connection. ">
<polygon fill="#ffffff" stroke="#000000" points="420,-287 420,-306 528,-306 528,-287 420,-287"/>
<text text-anchor="middle" x="474" y="-294" font-family="Helvetica,sans-Serif" font-size="10.00" fill="#000000">chig::disconnectData</text>
</a>
</g>
</g>
<!-- Node52&#45;&gt;Node59 -->
<g id="edge22" class="edge">
<title>Node52&#45;&gt;Node59</title>
<path fill="none" stroke="#191970" d="M111.3717,-226.1577C150.3331,-229.0473 201.8598,-233.8883 247,-241.5 316.7747,-253.2656 396.8988,-274.5462 440.8434,-286.9036"/>
<polygon fill="#191970" stroke="#191970" points="111.4666,-222.6556 101.2412,-225.4292 110.9644,-229.6376 111.4666,-222.6556"/>
</g>
<!-- Node67 -->
<g id="node16" class="node">
<title>Node67</title>
<g id="a_node16"><a xlink:href="structchig_1_1NodeInstance.html#ab7b23fb84fff7176f7a6e62ce3762153" target="_top" xlink:title="Set the type of the node instance. ">
<polygon fill="#ffffff" stroke="#000000" points="580.5,-131.5 580.5,-161.5 681.5,-161.5 681.5,-131.5 580.5,-131.5"/>
<text text-anchor="start" x="588.5" y="-149.5" font-family="Helvetica,sans-Serif" font-size="10.00" fill="#000000">chig::NodeInstance</text>
<text text-anchor="middle" x="631" y="-138.5" font-family="Helvetica,sans-Serif" font-size="10.00" fill="#000000">::setType</text>
</a>
</g>
</g>
<!-- Node52&#45;&gt;Node67 -->
<g id="edge30" class="edge">
<title>Node52&#45;&gt;Node67</title>
<path fill="none" stroke="#191970" d="M111.2251,-213.7538C184.4021,-203.2986 311.1108,-185.4642 420,-171.5 474.6999,-164.4852 537.471,-157.1375 580.2316,-152.2381"/>
<polygon fill="#191970" stroke="#191970" points="110.6658,-210.2981 101.2622,-215.179 111.6571,-217.2276 110.6658,-210.2981"/>
</g>
<!-- Node68 -->
<g id="node17" class="node">
<title>Node68</title>
<g id="a_node17"><a xlink:href="namespacechig.html#ad24a330508033631ef29b2f6e5cf6210" target="_top" xlink:title="Disconnect a exec connection. ">
<polygon fill="#ffffff" stroke="#000000" points="137,-251 137,-270 247,-270 247,-251 137,-251"/>
<text text-anchor="middle" x="192" y="-258" font-family="Helvetica,sans-Serif" font-size="10.00" fill="#000000">chig::disconnectExec</text>
</a>
</g>
</g>
<!-- Node52&#45;&gt;Node68 -->
<g id="edge23" class="edge">
<title>Node52&#45;&gt;Node68</title>
<path fill="none" stroke="#191970" d="M111.1735,-238.7939C126.5634,-242.9269 142.6027,-247.2343 156.2979,-250.9121"/>
<polygon fill="#191970" stroke="#191970" points="111.7507,-235.325 101.1851,-236.1115 109.9351,-242.0855 111.7507,-235.325"/>
</g>
<!-- Node69 -->
<g id="node18" class="node">
<title>Node69</title>
<g id="a_node18"><a xlink:href="structchig_1_1NodeInstance.html#a9ee27647d679d01276868af2a04163ff" target="_top" xlink:title="Construct a nodeinstace with a type location and an ID, usually called from GraphFunction::insertNode...">
<polygon fill="#ffffff" stroke="#000000" points="141.5,-49.5 141.5,-79.5 242.5,-79.5 242.5,-49.5 141.5,-49.5"/>
<text text-anchor="start" x="149.5" y="-67.5" font-family="Helvetica,sans-Serif" font-size="10.00" fill="#000000">chig::NodeInstance</text>
<text text-anchor="middle" x="192" y="-56.5" font-family="Helvetica,sans-Serif" font-size="10.00" fill="#000000">::NodeInstance</text>
</a>
</g>
</g>
<!-- Node52&#45;&gt;Node69 -->
<g id="edge28" class="edge">
<title>Node52&#45;&gt;Node69</title>
<path fill="none" stroke="#191970" d="M62.2742,-198.3546C76.7733,-170.559 103.6286,-124.8446 137,-94.5 143.2769,-88.7924 150.8347,-83.7779 158.3101,-79.5639"/>
<polygon fill="#191970" stroke="#191970" points="59.0945,-196.8857 57.6706,-207.3844 65.3308,-200.0652 59.0945,-196.8857"/>
</g>
<!-- Node70 -->
<g id="node19" class="node">
<title>Node70</title>
<g id="a_node19"><a xlink:href="structchig_1_1NodeInstance.html#a3c1b4ddc0c288cbacf6e4aaa7810a349" target="_top" xlink:title="Copy assignment operator. ">
<polygon fill="#ffffff" stroke="#000000" points="141.5,-.5 141.5,-30.5 242.5,-30.5 242.5,-.5 141.5,-.5"/>
<text text-anchor="start" x="149.5" y="-18.5" font-family="Helvetica,sans-Serif" font-size="10.00" fill="#000000">chig::NodeInstance</text>
<text text-anchor="middle" x="192" y="-7.5" font-family="Helvetica,sans-Serif" font-size="10.00" fill="#000000">::operator=</text>
</a>
</g>
</g>
<!-- Node52&#45;&gt;Node70 -->
<g id="edge29" class="edge">
<title>Node52&#45;&gt;Node70</title>
<path fill="none" stroke="#191970" d="M56.2864,-197.4405C66.4055,-158.7728 90.78,-84.3495 137,-39.5 140.5141,-36.0901 144.5917,-33.1234 148.9075,-30.5519"/>
<polygon fill="#191970" stroke="#191970" points="52.8404,-196.7935 53.8041,-207.3444 59.6304,-198.4954 52.8404,-196.7935"/>
</g>
<!-- Node54 -->
<g id="node3" class="node">
<title>Node54</title>
<g id="a_node3"><a xlink:href="structchig_1_1NodeInstance.html#ac06ee5988ee5f130088fee83a550f4d2" target="_top" xlink:title="Get the containing GraphFunction. ">
<polygon fill="#ffffff" stroke="#000000" points="283,-327.5 283,-357.5 384,-357.5 384,-327.5 283,-327.5"/>
<text text-anchor="start" x="291" y="-345.5" font-family="Helvetica,sans-Serif" font-size="10.00" fill="#000000">chig::NodeInstance</text>
<text text-anchor="middle" x="333.5" y="-334.5" font-family="Helvetica,sans-Serif" font-size="10.00" fill="#000000">::function</text>
</a>
</g>
</g>
<!-- Node53&#45;&gt;Node54 -->
<g id="edge2" class="edge">
<title>Node53&#45;&gt;Node54</title>
<path fill="none" stroke="#191970" d="M249.5252,-335.8559C260.6023,-335.6766 272.1279,-335.725 282.9631,-336.0011"/>
<polygon fill="#191970" stroke="#191970" points="249.4285,-332.3571 239.5111,-336.0846 249.5884,-339.3553 249.4285,-332.3571"/>
</g>
<!-- Node56 -->
<g id="node5" class="node">
<title>Node56</title>
<g id="a_node5"><a xlink:href="namespacechig.html#a62056798e67720d435705b99f7e16cd0" target="_top" xlink:title="Load a GraphFunction–must already exist (use createGraphFunctionDeclarationFromJson) ...">
<polygon fill="#ffffff" stroke="#000000" points="564,-371 564,-390 698,-390 698,-371 564,-371"/>
<text text-anchor="middle" x="631" y="-378" font-family="Helvetica,sans-Serif" font-size="10.00" fill="#000000">chig::jsonToGraphFunction</text>
</a>
</g>
</g>
<!-- Node53&#45;&gt;Node56 -->
<g id="edge20" class="edge">
<title>Node53&#45;&gt;Node56</title>
<path fill="none" stroke="#191970" d="M229.9581,-355.0343C246.1223,-359.8193 265.2987,-364.7754 283,-367.5 379.8032,-382.4003 493.447,-383.6483 563.8526,-382.5558"/>
<polygon fill="#191970" stroke="#191970" points="230.9088,-351.6652 220.3229,-352.0985 228.8685,-358.3612 230.9088,-351.6652"/>
</g>
<!-- Node54&#45;&gt;Node53 -->
<g id="edge3" class="edge">
<title>Node54&#45;&gt;Node53</title>
<path fill="none" stroke="#191970" d="M272.851,-349.1885C261.6998,-349.3251 250.2069,-349.2341 239.5111,-348.9154"/>
<polygon fill="#191970" stroke="#191970" points="273.0305,-352.6858 282.9631,-348.9989 272.8992,-345.6871 273.0305,-352.6858"/>
</g>
<!-- Node54&#45;&gt;Node55 -->
<g id="edge4" class="edge">
<title>Node54&#45;&gt;Node55</title>
<path fill="none" stroke="#191970" d="M394.2827,-335.8048C404.4642,-335.6863 414.9159,-335.76 424.7612,-336.0258"/>
<polygon fill="#191970" stroke="#191970" points="394.1585,-332.3064 384.2237,-335.9873 394.2856,-339.3052 394.1585,-332.3064"/>
</g>
<!-- Node54&#45;&gt;Node59 -->
<g id="edge9" class="edge">
<title>Node54&#45;&gt;Node59</title>
<path fill="none" stroke="#191970" d="M372.3464,-323.6708C388.6375,-317.6276 407.7658,-311.2461 425.0079,-306.0727"/>
<polygon fill="#191970" stroke="#191970" points="370.7126,-320.5477 362.6117,-327.376 373.2027,-327.0898 370.7126,-320.5477"/>
</g>
<!-- Node55&#45;&gt;Node54 -->
<g id="edge5" class="edge">
<title>Node55&#45;&gt;Node54</title>
<path fill="none" stroke="#191970" d="M414.7462,-349.176C404.594,-349.3137 394.1277,-349.2593 384.2237,-349.0127"/>
<polygon fill="#191970" stroke="#191970" points="414.8338,-352.675 424.7612,-348.9742 414.6927,-345.6764 414.8338,-352.675"/>
</g>
<!-- Node55&#45;&gt;Node56 -->
<g id="edge6" class="edge">
<title>Node55&#45;&gt;Node56</title>
<path fill="none" stroke="#191970" d="M523.4467,-354.468C545.4478,-359.7931 570.9938,-365.9762 591.6672,-370.9799"/>
<polygon fill="#191970" stroke="#191970" points="524.1605,-351.0398 513.6177,-352.089 522.5137,-357.8433 524.1605,-351.0398"/>
</g>
<!-- Node57 -->
<g id="node6" class="node">
<title>Node57</title>
<g id="a_node6"><a xlink:href="namespacechig.html#a1f28de74faa271cf31249935c9640c58" target="_top" xlink:title="Load a GraphModule from json. ">
<polygon fill="#ffffff" stroke="#000000" points="734,-371 734,-390 862,-390 862,-371 734,-371"/>
<text text-anchor="middle" x="798" y="-378" font-family="Helvetica,sans-Serif" font-size="10.00" fill="#000000">chig::jsonToGraphModule</text>
</a>
</g>
</g>
<!-- Node56&#45;&gt;Node57 -->
<g id="edge7" class="edge">
<title>Node56&#45;&gt;Node57</title>
<path fill="none" stroke="#191970" d="M708.6566,-380.5C717.0806,-380.5 725.5843,-380.5 733.8225,-380.5"/>
<polygon fill="#191970" stroke="#191970" points="708.444,-377.0001 698.4439,-380.5 708.4439,-384.0001 708.444,-377.0001"/>
</g>
<!-- Node58 -->
<g id="node7" class="node">
<title>Node58</title>
<g id="a_node7"><a xlink:href="structchig_1_1Context.html#a0d9ec5f2803a5777d2e389256ccb3e3b" target="_top" xlink:title="Load a module from JSON – avoid this use the string overload. ">
<polygon fill="#ffffff" stroke="#000000" points="898,-365.5 898,-395.5 1026,-395.5 1026,-365.5 898,-365.5"/>
<text text-anchor="start" x="906" y="-383.5" font-family="Helvetica,sans-Serif" font-size="10.00" fill="#000000">chig::Context::addModule</text>
<text text-anchor="middle" x="962" y="-372.5" font-family="Helvetica,sans-Serif" font-size="10.00" fill="#000000">FromJson</text>
</a>
</g>
</g>
<!-- Node57&#45;&gt;Node58 -->
<g id="edge8" class="edge">
<title>Node57&#45;&gt;Node58</title>
<path fill="none" stroke="#191970" d="M872.5641,-380.5C881.0037,-380.5 889.5492,-380.5 897.8391,-380.5"/>
<polygon fill="#191970" stroke="#191970" points="872.3465,-377.0001 862.3464,-380.5 872.3464,-384.0001 872.3465,-377.0001"/>
</g>
<!-- Node59&#45;&gt;Node53 -->
<g id="edge10" class="edge">
<title>Node59&#45;&gt;Node53</title>
<path fill="none" stroke="#191970" d="M409.5627,-301.606C372.3718,-305.1295 324.8258,-310.6177 283,-318.5 263.0903,-322.2521 241.1178,-328.0002 223.752,-332.9304"/>
<polygon fill="#191970" stroke="#191970" points="410.1287,-305.0687 419.7645,-300.664 409.485,-298.0984 410.1287,-305.0687"/>
</g>
<!-- Node59&#45;&gt;Node54 -->
<g id="edge11" class="edge">
<title>Node59&#45;&gt;Node54</title>
<path fill="none" stroke="#191970" d="M448.7368,-310.0979C430.8113,-317.3031 406.1403,-325.7757 384.2237,-332.4056"/>
<polygon fill="#191970" stroke="#191970" points="450.3203,-313.2293 458.19,-306.1358 447.6143,-306.7734 450.3203,-313.2293"/>
</g>
<!-- Node60 -->
<g id="node9" class="node">
<title>Node60</title>
<g id="a_node9"><a xlink:href="structchig_1_1GraphFunction.html#a398599d8fe1982a3c76462b1b2375a6e" target="_top" xlink:title="Remove a node from the function. ">
<polygon fill="#ffffff" stroke="#000000" points="579,-243.5 579,-273.5 683,-273.5 683,-243.5 579,-243.5"/>
<text text-anchor="start" x="587" y="-261.5" font-family="Helvetica,sans-Serif" font-size="10.00" fill="#000000">chig::GraphFunction</text>
<text text-anchor="middle" x="631" y="-250.5" font-family="Helvetica,sans-Serif" font-size="10.00" fill="#000000">::removeNode</text>
</a>
</g>
</g>
<!-- Node59&#45;&gt;Node60 -->
<g id="edge12" class="edge">
<title>Node59&#45;&gt;Node60</title>
<path fill="none" stroke="#191970" d="M523.6887,-284.4734C541.2889,-280.2135 561.1326,-275.4106 578.9257,-271.104"/>
<polygon fill="#191970" stroke="#191970" points="522.5137,-281.1567 513.6177,-286.911 524.1605,-287.9602 522.5137,-281.1567"/>
</g>
<!-- Node59&#45;&gt;Node67 -->
<g id="edge19" class="edge">
<title>Node59&#45;&gt;Node67</title>
<path fill="none" stroke="#191970" d="M491.7448,-279.5463C522.554,-250.1109 585.4684,-190.0015 615.0091,-161.7779"/>
<polygon fill="#191970" stroke="#191970" points="489.1138,-277.2194 484.3012,-286.6581 493.9495,-282.2807 489.1138,-277.2194"/>
</g>
<!-- Node61 -->
<g id="node10" class="node">
<title>Node61</title>
<g id="a_node10"><a xlink:href="structchig_1_1GraphFunction.html#a79cbfaf26d9a966ae8048c81dc09777e" target="_top" xlink:title="chig::GraphFunction\l::nodes">
<polygon fill="#ffffff" stroke="#000000" points="746,-218.5 746,-248.5 850,-248.5 850,-218.5 746,-218.5"/>
<text text-anchor="start" x="754" y="-236.5" font-family="Helvetica,sans-Serif" font-size="10.00" fill="#000000">chig::GraphFunction</text>
<text text-anchor="middle" x="798" y="-225.5" font-family="Helvetica,sans-Serif" font-size="10.00" fill="#000000">::nodes</text>
</a>
</g>
</g>
<!-- Node60&#45;&gt;Node61 -->
<g id="edge13" class="edge">
<title>Node60&#45;&gt;Node61</title>
<path fill="none" stroke="#191970" d="M693.3721,-249.1629C710.6346,-246.5787 729.1865,-243.8014 745.8042,-241.3137"/>
<polygon fill="#191970" stroke="#191970" points="692.7532,-245.7164 683.3816,-250.6584 693.7897,-252.6393 692.7532,-245.7164"/>
</g>
<!-- Node62 -->
<g id="node11" class="node">
<title>Node62</title>
<g id="a_node11"><a xlink:href="structchig_1_1GraphFunction.html#a1c45651f8ac9b7bf9cebcd11d91763f0" target="_top" xlink:title="Remove a local variable from the function by name. ">
<polygon fill="#ffffff" stroke="#000000" points="741.5,-267.5 741.5,-297.5 854.5,-297.5 854.5,-267.5 741.5,-267.5"/>
<text text-anchor="start" x="749.5" y="-285.5" font-family="Helvetica,sans-Serif" font-size="10.00" fill="#000000">chig::GraphFunction</text>
<text text-anchor="middle" x="798" y="-274.5" font-family="Helvetica,sans-Serif" font-size="10.00" fill="#000000">::removeLocalVariable</text>
</a>
</g>
</g>
<!-- Node60&#45;&gt;Node62 -->
<g id="edge14" class="edge">
<title>Node60&#45;&gt;Node62</title>
<path fill="none" stroke="#191970" d="M693.5374,-267.4874C709.263,-269.7474 726.0492,-272.1598 741.4623,-274.3748"/>
<polygon fill="#191970" stroke="#191970" points="693.7779,-263.9861 683.3816,-266.0279 692.782,-270.9149 693.7779,-263.9861"/>
</g>
<!-- Node63 -->
<g id="node12" class="node">
<title>Node63</title>
<g id="a_node12"><a xlink:href="structchig_1_1GraphFunction.html#a72a81861d1331948804b2a267598ec79" target="_top" xlink:title="Get the local variables. ">
<polygon fill="#ffffff" stroke="#000000" points="910,-267.5 910,-297.5 1014,-297.5 1014,-267.5 910,-267.5"/>
<text text-anchor="start" x="918" y="-285.5" font-family="Helvetica,sans-Serif" font-size="10.00" fill="#000000">chig::GraphFunction</text>
<text text-anchor="middle" x="962" y="-274.5" font-family="Helvetica,sans-Serif" font-size="10.00" fill="#000000">::localVariables</text>
</a>
</g>
</g>
<!-- Node62&#45;&gt;Node63 -->
<g id="edge15" class="edge">
<title>Node62&#45;&gt;Node63</title>
<path fill="none" stroke="#191970" d="M865.1024,-282.5C880.0348,-282.5 895.6493,-282.5 909.8744,-282.5"/>
<polygon fill="#191970" stroke="#191970" points="864.899,-279.0001 854.899,-282.5 864.8989,-286.0001 864.899,-279.0001"/>
</g>
<!-- Node64 -->
<g id="node13" class="node">
<title>Node64</title>
<g id="a_node13"><a xlink:href="namespacechig.html#ad0fd9448ab1cd1d73351fad5967a7b9b" target="_top" xlink:title="Serialize a GraphFunction to json. ">
<polygon fill="#ffffff" stroke="#000000" points="1062,-273 1062,-292 1196,-292 1196,-273 1062,-273"/>
<text text-anchor="middle" x="1129" y="-280" font-family="Helvetica,sans-Serif" font-size="10.00" fill="#000000">chig::graphFunctionToJson</text>
</a>
</g>
</g>
<!-- Node63&#45;&gt;Node64 -->
<g id="edge16" class="edge">
<title>Node63&#45;&gt;Node64</title>
<path fill="none" stroke="#191970" d="M1024.4373,-282.5C1036.617,-282.5 1049.4363,-282.5 1061.7637,-282.5"/>
<polygon fill="#191970" stroke="#191970" points="1024.3817,-279.0001 1014.3816,-282.5 1024.3816,-286.0001 1024.3817,-279.0001"/>
</g>
<!-- Node65 -->
<g id="node14" class="node">
<title>Node65</title>
<g id="a_node14"><a xlink:href="namespacechig.html#aaef3bb08f472ae32b2d3b292e69a007a" target="_top" xlink:title="Serialize a JsonModule to json. ">
<polygon fill="#ffffff" stroke="#000000" points="1232,-273 1232,-292 1360,-292 1360,-273 1232,-273"/>
<text text-anchor="middle" x="1296" y="-280" font-family="Helvetica,sans-Serif" font-size="10.00" fill="#000000">chig::graphModuleToJson</text>
</a>
</g>
</g>
<!-- Node64&#45;&gt;Node65 -->
<g id="edge17" class="edge">
<title>Node64&#45;&gt;Node65</title>
<path fill="none" stroke="#191970" d="M1206.6566,-282.5C1215.0806,-282.5 1223.5843,-282.5 1231.8225,-282.5"/>
<polygon fill="#191970" stroke="#191970" points="1206.444,-279.0001 1196.4439,-282.5 1206.4439,-286.0001 1206.444,-279.0001"/>
</g>
<!-- Node66 -->
<g id="node15" class="node">
<title>Node66</title>
<g id="a_node15"><a xlink:href="structchig_1_1GraphModule.html#accb1a64da697a29e28d78a9a09bd52ff" target="_top" xlink:title="Serialize to disk in the context. ">
<polygon fill="#ffffff" stroke="#000000" points="1396,-267.5 1396,-297.5 1500,-297.5 1500,-267.5 1396,-267.5"/>
<text text-anchor="start" x="1404" y="-285.5" font-family="Helvetica,sans-Serif" font-size="10.00" fill="#000000">chig::GraphModule::</text>
<text text-anchor="middle" x="1448" y="-274.5" font-family="Helvetica,sans-Serif" font-size="10.00" fill="#000000">saveToDisk</text>
</a>
</g>
</g>
<!-- Node65&#45;&gt;Node66 -->
<g id="edge18" class="edge">
<title>Node65&#45;&gt;Node66</title>
<path fill="none" stroke="#191970" d="M1370.0838,-282.5C1378.6912,-282.5 1387.3313,-282.5 1395.5622,-282.5"/>
<polygon fill="#191970" stroke="#191970" points="1370.0212,-279.0001 1360.0211,-282.5 1370.0211,-286.0001 1370.0212,-279.0001"/>
</g>
<!-- Node68&#45;&gt;Node54 -->
<g id="edge25" class="edge">
<title>Node68&#45;&gt;Node54</title>
<path fill="none" stroke="#191970" d="M217.2171,-275.1135C242.6687,-289.8628 281.7886,-312.533 307.512,-327.4398"/>
<polygon fill="#191970" stroke="#191970" points="218.9159,-272.0527 208.5088,-270.0669 215.4061,-278.1092 218.9159,-272.0527"/>
</g>
<!-- Node68&#45;&gt;Node55 -->
<g id="edge24" class="edge">
<title>Node68&#45;&gt;Node55</title>
<path fill="none" stroke="#191970" d="M234.6299,-272.8959C291.2867,-289.3706 390.1781,-318.1263 441.3087,-332.994"/>
<polygon fill="#191970" stroke="#191970" points="235.4805,-269.4983 224.9009,-270.0669 233.5259,-276.22 235.4805,-269.4983"/>
</g>
<!-- Node68&#45;&gt;Node60 -->
<g id="edge26" class="edge">
<title>Node68&#45;&gt;Node60</title>
<path fill="none" stroke="#191970" d="M257.2324,-260.2028C344.7645,-259.804 498.4929,-259.1037 578.8021,-258.7378"/>
<polygon fill="#191970" stroke="#191970" points="257.1391,-256.7031 247.1551,-260.2487 257.171,-263.703 257.1391,-256.7031"/>
</g>
<!-- Node68&#45;&gt;Node67 -->
<g id="edge27" class="edge">
<title>Node68&#45;&gt;Node67</title>
<path fill="none" stroke="#191970" d="M238.5739,-248.4056C321.5398,-226.861 494.2533,-182.0105 580.1787,-159.6973"/>
<polygon fill="#191970" stroke="#191970" points="237.4731,-245.0753 228.6738,-250.9765 239.2325,-251.8506 237.4731,-245.0753"/>
</g>
</g>
</svg>
        <g id="navigator" transform="translate(0 0)" fill="#404254">
                <rect fill="#f2f5e9" fill-opacity="0.5" stroke="#606060" stroke-width=".5" x="0" y="0" width="60" height="60"/>
                <use id="zoomplus" xlink:href="#zoomPlus" x="17" y="9" onmousedown="handleZoom(evt,'in')"/>
                <use id="zoomminus" xlink:href="#zoomMin" x="42" y="9" onmousedown="handleZoom(evt,'out')"/>
                <use id="reset" xlink:href="#resetDef" x="30" y="36" onmousedown="handleReset()"/>
                <g id="arrowUp" xlink:href="#dirArrow" transform="translate(30 24)" onmousedown="handlePan(0,-1)">
                  <use xlink:href="#rim" fill="#404040">
                        <set attributeName="fill" to="#808080" begin="arrowUp.mouseover" end="arrowUp.mouseout"/>
                  </use>
                  <path fill="none" stroke="white" stroke-width="1.5" d="M0,-3.0v7 M-2.5,-0.5L0,-3.0L2.5,-0.5"/>
                </g>
                <g id="arrowRight" xlink:href="#dirArrow" transform="rotate(90) translate(36 -43)" onmousedown="handlePan(1,0)">
                  <use xlink:href="#rim" fill="#404040">
                        <set attributeName="fill" to="#808080" begin="arrowRight.mouseover" end="arrowRight.mouseout"/>
                  </use>
                  <path fill="none" stroke="white" stroke-width="1.5" d="M0,-3.0v7 M-2.5,-0.5L0,-3.0L2.5,-0.5"/>
                </g>
                <g id="arrowDown" xlink:href="#dirArrow" transform="rotate(180) translate(-30 -48)" onmousedown="handlePan(0,1)">
                  <use xlink:href="#rim" fill="#404040">
                        <set attributeName="fill" to="#808080" begin="arrowDown.mouseover" end="arrowDown.mouseout"/>
                  </use>
                  <path fill="none" stroke="white" stroke-width="1.5" d="M0,-3.0v7 M-2.5,-0.5L0,-3.0L2.5,-0.5"/>
                </g>
                <g id="arrowLeft" xlink:href="#dirArrow" transform="rotate(270) translate(-36 17)" onmousedown="handlePan(-1,0)">
                  <use xlink:href="#rim" fill="#404040">
                        <set attributeName="fill" to="#808080" begin="arrowLeft.mouseover" end="arrowLeft.mouseout"/>
                  </use>
                  <path fill="none" stroke="white" stroke-width="1.5" d="M0,-3.0v7 M-2.5,-0.5L0,-3.0L2.5,-0.5"/>
                </g>
        </g>
        <svg viewBox="0 0 15 15" width="100%" height="30px" preserveAspectRatio="xMaxYMin meet">
         <g id="arrow_out" transform="scale(0.3 0.3)">
          <a xlink:href="structchig_1_1NodeInstance_a5c9d6934e14f56ff4317ff08e170e83a_icgraph_org.svg" target="_base">
           <rect id="button" ry="5" rx="5" y="6" x="6" height="38" width="38"
                fill="#f2f5e9" fill-opacity="0.5" stroke="#606060" stroke-width="1.0"/>
           <path id="arrow"
             d="M 11.500037,31.436501 C 11.940474,20.09759 22.043105,11.32322 32.158766,21.979434 L 37.068811,17.246167 C 37.068811,17.246167 37.088388,32 37.088388,32 L 22.160133,31.978069 C 22.160133,31.978069 26.997745,27.140456 26.997745,27.140456 C 18.528582,18.264221 13.291696,25.230495 11.500037,31.436501 z"
             style="fill:#404040;"/>
          </a>
         </g>
        </svg>
</svg>
