<?xml version="1.0" encoding="UTF-8" standalone="no"?>
<!DOCTYPE svg PUBLIC "-//W3C//DTD SVG 1.1//EN"
 "http://www.w3.org/Graphics/SVG/1.1/DTD/svg11.dtd">
<!-- Generated by graphviz version 2.40.1 (20161225.0304)
 -->
<!-- Title: chi::Context::typeFromModule Pages: 1 -->
<!--zoomable 443 -->
<svg id="main" version="1.1" xmlns="http://www.w3.org/2000/svg" xmlns:xlink="http://www.w3.org/1999/xlink" xml:space="preserve" onload="init(evt)">
<style type="text/css"><![CDATA[
.edge:hover path { stroke: red; }
.edge:hover polygon { stroke: red; fill: red; }
]]></style>
<script type="text/javascript"><![CDATA[
var edges = document.getElementsByTagName('g');
if (edges && edges.length) {
  for (var i=0;i<edges.length;i++) {
    if (edges[i].id.substr(0,4)=='edge') {
      edges[i].setAttribute('class','edge');
    }
  }
}
]]></script>
        <defs>
                <circle id="rim" cx="0" cy="0" r="7"/>
                <circle id="rim2" cx="0" cy="0" r="3.5"/>
                <g id="zoomPlus">
                        <use xlink:href="#rim" fill="#404040">
                                <set attributeName="fill" to="#808080" begin="zoomplus.mouseover" end="zoomplus.mouseout"/>
                        </use>
                        <path d="M-4,0h8M0,-4v8" fill="none" stroke="white" stroke-width="1.5" pointer-events="none"/>
                </g>
                <g id="zoomMin">
                        <use xlink:href="#rim" fill="#404040">
                                <set attributeName="fill" to="#808080" begin="zoomminus.mouseover" end="zoomminus.mouseout"/>
                        </use>
                        <path d="M-4,0h8" fill="none" stroke="white" stroke-width="1.5" pointer-events="none"/>
                </g>
                <g id="dirArrow">
                        <path fill="none" stroke="white" stroke-width="1.5" d="M0,-3.0v7 M-2.5,-0.5L0,-3.0L2.5,-0.5"/>
                </g>
               <g id="resetDef">
                       <use xlink:href="#rim2" fill="#404040">
                               <set attributeName="fill" to="#808080" begin="reset.mouseover" end="reset.mouseout"/>
                       </use>
               </g>
        </defs>

<script type="text/javascript">
var viewWidth = 1977;
var viewHeight = 443;
var sectionId = 'dynsection-25';
</script>
<script xlink:href="svgpan.js"/>
<svg id="graph" class="graph">
<g id="viewport">
<title>chi::Context::typeFromModule</title>
<polygon fill="#ffffff" stroke="transparent" points="-4,4 -4,-438.5 1973,-438.5 1973,4 -4,4"/>
<!-- Node478 -->
<g id="node1" class="node">
<title>Node478</title>
<polygon fill="#bfbfbf" stroke="#000000" points="0,-158.5 0,-177.5 148,-177.5 148,-158.5 0,-158.5"/>
<text text-anchor="middle" x="74" y="-165.5" font-family="Helvetica,sans-Serif" font-size="10.00" fill="#000000">chi::Context::typeFromModule</text>
</g>
<!-- Node479 -->
<g id="node2" class="node">
<title>Node479</title>
<g id="a_node2"><a xlink:href="namespacechi.html#a8329038fce8125396cc9775460aa427b" target="_top" xlink:title="Compile the graph to an llvm::Function (usually called from JsonModule::generateModule) ...">
<polygon fill="#ffffff" stroke="#000000" points="203.5,-290.5 203.5,-309.5 310.5,-309.5 310.5,-290.5 203.5,-290.5"/>
<text text-anchor="middle" x="257" y="-297.5" font-family="Helvetica,sans-Serif" font-size="10.00" fill="#000000">chi::compileFunction</text>
</a>
</g>
</g>
<!-- Node478&#45;&gt;Node479 -->
<g id="edge1" class="edge">
<title>Node478&#45;&gt;Node479</title>
<path fill="none" stroke="#191970" d="M86.3655,-185.8262C104.729,-210.9251 141.632,-256.3612 184,-281 190.6792,-284.8843 198.1572,-287.9873 205.711,-290.4629"/>
<polygon fill="#191970" stroke="#191970" points="89.128,-183.6722 80.4631,-177.5755 83.4349,-187.745 89.128,-183.6722"/>
</g>
<!-- Node480 -->
<g id="node3" class="node">
<title>Node480</title>
<g id="a_node3"><a xlink:href="namespacechi.html#af483dab3c6b3b1ee261f223bd83d5670" target="_top" xlink:title="Create a forward declaration of a function in a module with an empty graph. ">
<polygon fill="#ffffff" stroke="#000000" points="194,-153 194,-183 320,-183 320,-153 194,-153"/>
<text text-anchor="start" x="202" y="-171" font-family="Helvetica,sans-Serif" font-size="10.00" fill="#000000">chi::createGraphFunction</text>
<text text-anchor="middle" x="257" y="-160" font-family="Helvetica,sans-Serif" font-size="10.00" fill="#000000">DeclarationFromJson</text>
</a>
</g>
</g>
<!-- Node478&#45;&gt;Node480 -->
<g id="edge2" class="edge">
<title>Node478&#45;&gt;Node480</title>
<path fill="none" stroke="#191970" d="M158.1935,-168C170.196,-168 182.3673,-168 193.8742,-168"/>
<polygon fill="#191970" stroke="#191970" points="158.1693,-164.5001 148.1693,-168 158.1693,-171.5001 158.1693,-164.5001"/>
</g>
<!-- Node490 -->
<g id="node13" class="node">
<title>Node490</title>
<g id="a_node13"><a xlink:href="structchi_1_1GraphModule.html#a24162d01532244d8945128b71af5fc48" target="_top" xlink:title="From C code, create a NodeType. ">
<polygon fill="#ffffff" stroke="#000000" points="194,-241 194,-271 320,-271 320,-241 194,-241"/>
<text text-anchor="start" x="202" y="-259" font-family="Helvetica,sans-Serif" font-size="10.00" fill="#000000">chi::GraphModule::create</text>
<text text-anchor="middle" x="257" y="-248" font-family="Helvetica,sans-Serif" font-size="10.00" fill="#000000">NodeTypeFromCCode</text>
</a>
</g>
</g>
<!-- Node478&#45;&gt;Node490 -->
<g id="edge12" class="edge">
<title>Node478&#45;&gt;Node490</title>
<path fill="none" stroke="#191970" d="M99.6525,-182.4174C121.7251,-194.6063 154.5694,-212.2318 184,-226 195.0459,-231.1675 207.2346,-236.3679 218.4364,-240.9538"/>
<polygon fill="#191970" stroke="#191970" points="101.3353,-179.3484 90.8936,-177.5535 97.9369,-185.4682 101.3353,-179.3484"/>
</g>
<!-- Node493 -->
<g id="node16" class="node">
<title>Node493</title>
<g id="a_node16"><a xlink:href="structchi_1_1GraphModule.html#a133c0595e0bb888f958e9769838f6c0c" target="_top" xlink:title="Create a node type that is in the module from the name and json. ">
<polygon fill="#ffffff" stroke="#000000" points="554,-197 554,-227 696,-227 696,-197 554,-197"/>
<text text-anchor="start" x="562" y="-215" font-family="Helvetica,sans-Serif" font-size="10.00" fill="#000000">chi::GraphModule::nodeType</text>
<text text-anchor="middle" x="625" y="-204" font-family="Helvetica,sans-Serif" font-size="10.00" fill="#000000">FromName</text>
</a>
</g>
</g>
<!-- Node478&#45;&gt;Node493 -->
<g id="edge48" class="edge">
<title>Node478&#45;&gt;Node493</title>
<path fill="none" stroke="#191970" d="M118.5876,-180.0564C138.4598,-184.93 162.2473,-190.0838 184,-193 313.5016,-210.3612 466.1204,-213.0247 553.6197,-212.8673"/>
<polygon fill="#191970" stroke="#191970" points="119.4303,-176.6594 108.8793,-177.6224 117.7279,-183.4493 119.4303,-176.6594"/>
</g>
<!-- Node508 -->
<g id="node31" class="node">
<title>Node508</title>
<g id="a_node31"><a xlink:href="namespacechi.html#a6a3fedb48e6702c016f996d8a7f445fc" target="_top" xlink:title="Load a GraphFunction–must already exist (use createGraphFunctionDeclarationFromJson) ...">
<polygon fill="#ffffff" stroke="#000000" points="193,-114.5 193,-133.5 321,-133.5 321,-114.5 193,-114.5"/>
<text text-anchor="middle" x="257" y="-121.5" font-family="Helvetica,sans-Serif" font-size="10.00" fill="#000000">chi::jsonToGraphFunction</text>
</a>
</g>
</g>
<!-- Node478&#45;&gt;Node508 -->
<g id="edge43" class="edge">
<title>Node478&#45;&gt;Node508</title>
<path fill="none" stroke="#191970" d="M123.7801,-156.031C153.1949,-148.9586 189.9289,-140.1264 217.3692,-133.5287"/>
<polygon fill="#191970" stroke="#191970" points="122.6129,-152.7118 113.7083,-158.4527 124.2494,-159.5179 122.6129,-152.7118"/>
</g>
<!-- Node509 -->
<g id="node32" class="node">
<title>Node509</title>
<g id="a_node32"><a xlink:href="namespacechi.html#a629f77832b6e7a6e0eaab123c4be1cda" target="_top" xlink:title="Load a GraphStruct from json. ">
<polygon fill="#ffffff" stroke="#000000" points="198.5,-76.5 198.5,-95.5 315.5,-95.5 315.5,-76.5 198.5,-76.5"/>
<text text-anchor="middle" x="257" y="-83.5" font-family="Helvetica,sans-Serif" font-size="10.00" fill="#000000">chi::jsonToGraphStruct</text>
</a>
</g>
</g>
<!-- Node478&#45;&gt;Node509 -->
<g id="edge45" class="edge">
<title>Node478&#45;&gt;Node509</title>
<path fill="none" stroke="#191970" d="M96.4302,-152.7768C118.0469,-138.6913 152.0847,-118.0211 184,-105 192.9729,-101.3392 202.858,-98.2072 212.3782,-95.6042"/>
<polygon fill="#191970" stroke="#191970" points="94.3818,-149.9353 87.9689,-158.3688 98.2413,-155.7752 94.3818,-149.9353"/>
</g>
<!-- Node510 -->
<g id="node33" class="node">
<title>Node510</title>
<g id="a_node33"><a xlink:href="structchi_1_1LangModule.html#a0d623aa2342eec20ab11150e793f6b9e" target="_top" xlink:title="Default constructor, usually called from Context::loadModule(&quot;lang&quot;) ">
<polygon fill="#ffffff" stroke="#000000" points="184,-38.5 184,-57.5 330,-57.5 330,-38.5 184,-38.5"/>
<text text-anchor="middle" x="257" y="-45.5" font-family="Helvetica,sans-Serif" font-size="10.00" fill="#000000">chi::LangModule::LangModule</text>
</a>
</g>
</g>
<!-- Node478&#45;&gt;Node510 -->
<g id="edge47" class="edge">
<title>Node478&#45;&gt;Node510</title>
<path fill="none" stroke="#191970" d="M88.2062,-150.4588C107.5155,-127.7876 144.227,-88.6609 184,-67 191.1305,-63.1166 199.089,-59.9998 207.0562,-57.5061"/>
<polygon fill="#191970" stroke="#191970" points="85.4069,-148.3506 81.6877,-158.2712 90.7817,-152.8352 85.4069,-148.3506"/>
</g>
<!-- Node481 -->
<g id="node4" class="node">
<title>Node481</title>
<g id="a_node4"><a xlink:href="namespacechi.html#a4489e333fecc4168278e94f8b3f81e3c" target="_top" xlink:title="Load a GraphModule from json. ">
<polygon fill="#ffffff" stroke="#000000" points="375,-95.5 375,-114.5 497,-114.5 497,-95.5 375,-95.5"/>
<text text-anchor="middle" x="436" y="-102.5" font-family="Helvetica,sans-Serif" font-size="10.00" fill="#000000">chi::jsonToGraphModule</text>
</a>
</g>
</g>
<!-- Node480&#45;&gt;Node481 -->
<g id="edge3" class="edge">
<title>Node480&#45;&gt;Node481</title>
<path fill="none" stroke="#191970" d="M311.2822,-149.5062C317.5974,-147.3262 323.9435,-145.1225 330,-143 357.1206,-133.4954 388.046,-122.3766 409.4642,-114.6313"/>
<polygon fill="#191970" stroke="#191970" points="309.746,-146.3333 301.4296,-152.8975 312.0243,-152.9522 309.746,-146.3333"/>
</g>
<!-- Node482 -->
<g id="node5" class="node">
<title>Node482</title>
<g id="a_node5"><a xlink:href="structchi_1_1Context.html#a2db103f3a2f77710dfa51489f63ec97f" target="_top" xlink:title="Load a module from JSON – avoid this use the string overload. ">
<polygon fill="#ffffff" stroke="#000000" points="542,-67.5 542,-86.5 708,-86.5 708,-67.5 542,-67.5"/>
<text text-anchor="middle" x="625" y="-74.5" font-family="Helvetica,sans-Serif" font-size="10.00" fill="#000000">chi::Context::addModuleFromJson</text>
</a>
</g>
</g>
<!-- Node481&#45;&gt;Node482 -->
<g id="edge4" class="edge">
<title>Node481&#45;&gt;Node482</title>
<path fill="none" stroke="#191970" d="M507.3065,-94.4361C524.8965,-91.8301 543.6292,-89.0549 560.8561,-86.5028"/>
<polygon fill="#191970" stroke="#191970" points="506.481,-91.0201 497.1019,-95.9479 507.5069,-97.9445 506.481,-91.0201"/>
</g>
<!-- Node483 -->
<g id="node6" class="node">
<title>Node483</title>
<g id="a_node6"><a xlink:href="structchi_1_1Context.html#a508c786fe61ffa67c2a44850ecac4a7b" target="_top" xlink:title="Load a module from disk, also loads dependencies. ">
<polygon fill="#ffffff" stroke="#000000" points="748,-52.5 748,-71.5 873,-71.5 873,-52.5 748,-52.5"/>
<text text-anchor="middle" x="810.5" y="-59.5" font-family="Helvetica,sans-Serif" font-size="10.00" fill="#000000">chi::Context::loadModule</text>
</a>
</g>
</g>
<!-- Node482&#45;&gt;Node483 -->
<g id="edge5" class="edge">
<title>Node482&#45;&gt;Node483</title>
<path fill="none" stroke="#191970" d="M718.255,-69.4592C728.2703,-68.6493 738.2778,-67.8401 747.8103,-67.0692"/>
<polygon fill="#191970" stroke="#191970" points="717.9397,-65.9731 708.2543,-70.2678 718.5039,-72.9504 717.9397,-65.9731"/>
</g>
<!-- Node484 -->
<g id="node7" class="node">
<title>Node484</title>
<g id="a_node7"><a xlink:href="structchi_1_1ChiModule.html#aab11d61e0c0138e5fc5ce176c20e3bec" target="_top" xlink:title="Add a dependency to the module Loads the module from context() if it isn&#39;t already loaded...">
<polygon fill="#ffffff" stroke="#000000" points="913,-38.5 913,-57.5 1070,-57.5 1070,-38.5 913,-38.5"/>
<text text-anchor="middle" x="991.5" y="-45.5" font-family="Helvetica,sans-Serif" font-size="10.00" fill="#000000">chi::ChiModule::addDependency</text>
</a>
</g>
</g>
<!-- Node483&#45;&gt;Node484 -->
<g id="edge6" class="edge">
<title>Node483&#45;&gt;Node484</title>
<path fill="none" stroke="#191970" d="M883.1478,-56.3808C892.965,-55.6215 903.0741,-54.8396 912.9878,-54.0728"/>
<polygon fill="#191970" stroke="#191970" points="882.7437,-52.9015 873.0434,-57.1624 883.2835,-59.8807 882.7437,-52.9015"/>
</g>
<!-- Node485 -->
<g id="node8" class="node">
<title>Node485</title>
<g id="a_node8"><a xlink:href="structchi_1_1ChiModule.html#a9c0d4b1b54bca0194ea4061ae4883779" target="_top" xlink:title="Get the dependencies. ">
<polygon fill="#ffffff" stroke="#000000" points="1111,-38.5 1111,-57.5 1258,-57.5 1258,-38.5 1111,-38.5"/>
<text text-anchor="middle" x="1184.5" y="-45.5" font-family="Helvetica,sans-Serif" font-size="10.00" fill="#000000">chi::ChiModule::dependencies</text>
</a>
</g>
</g>
<!-- Node484&#45;&gt;Node485 -->
<g id="edge7" class="edge">
<title>Node484&#45;&gt;Node485</title>
<path fill="none" stroke="#191970" d="M1080.1712,-48C1090.3983,-48 1100.7436,-48 1110.7433,-48"/>
<polygon fill="#191970" stroke="#191970" points="1080.0005,-44.5001 1070.0005,-48 1080.0005,-51.5001 1080.0005,-44.5001"/>
</g>
<!-- Node489 -->
<g id="node12" class="node">
<title>Node489</title>
<g id="a_node12"><a xlink:href="structchi_1_1GraphModule.html#adeeeec5c69812ddeb43a64d3009a4eda" target="_top" xlink:title="Construct a GraphModule. ">
<polygon fill="#ffffff" stroke="#000000" points="1106,-.5 1106,-19.5 1263,-19.5 1263,-.5 1106,-.5"/>
<text text-anchor="middle" x="1184.5" y="-7.5" font-family="Helvetica,sans-Serif" font-size="10.00" fill="#000000">chi::GraphModule::GraphModule</text>
</a>
</g>
</g>
<!-- Node484&#45;&gt;Node489 -->
<g id="edge11" class="edge">
<title>Node484&#45;&gt;Node489</title>
<path fill="none" stroke="#191970" d="M1050.1016,-36.4619C1077.6289,-31.042 1110.0476,-24.659 1136.1482,-19.5201"/>
<polygon fill="#191970" stroke="#191970" points="1049.3375,-33.045 1040.202,-38.411 1050.6898,-39.9132 1049.3375,-33.045"/>
</g>
<!-- Node486 -->
<g id="node9" class="node">
<title>Node486</title>
<g id="a_node9"><a xlink:href="structchi_1_1Context.html#a1a0ed6a11af4c2625955bc5df77e135c" target="_top" xlink:title="Compile a module to a llvm::Module. ">
<polygon fill="#ffffff" stroke="#000000" points="1299,-38.5 1299,-57.5 1439,-57.5 1439,-38.5 1299,-38.5"/>
<text text-anchor="middle" x="1369" y="-45.5" font-family="Helvetica,sans-Serif" font-size="10.00" fill="#000000">chi::Context::compileModule</text>
</a>
</g>
</g>
<!-- Node485&#45;&gt;Node486 -->
<g id="edge8" class="edge">
<title>Node485&#45;&gt;Node486</title>
<path fill="none" stroke="#191970" d="M1268.3096,-48C1278.4689,-48 1288.7658,-48 1298.7021,-48"/>
<polygon fill="#191970" stroke="#191970" points="1268.2147,-44.5001 1258.2147,-48 1268.2147,-51.5001 1268.2147,-44.5001"/>
</g>
<!-- Node487 -->
<g id="node10" class="node">
<title>Node487</title>
<g id="a_node10"><a xlink:href="namespacechi.html#a9a4f3fa54c612f0c559a353bb7382d5a" target="_top" xlink:title="Serialize a JsonModule to json. ">
<polygon fill="#ffffff" stroke="#000000" points="1659,-187.5 1659,-206.5 1782,-206.5 1782,-187.5 1659,-187.5"/>
<text text-anchor="middle" x="1720.5" y="-194.5" font-family="Helvetica,sans-Serif" font-size="10.00" fill="#000000">chi::graphModuleToJson</text>
</a>
</g>
</g>
<!-- Node485&#45;&gt;Node487 -->
<g id="edge9" class="edge">
<title>Node485&#45;&gt;Node487</title>
<path fill="none" stroke="#191970" d="M1251.85,-59.1987C1366.1707,-78.4375 1589.1466,-117.0421 1623,-131 1657.5823,-145.2584 1692.5453,-172.8579 1709.6732,-187.4388"/>
<polygon fill="#191970" stroke="#191970" points="1252.2459,-55.7162 1241.8041,-57.5109 1251.086,-62.6195 1252.2459,-55.7162"/>
</g>
<!-- Node488 -->
<g id="node11" class="node">
<title>Node488</title>
<g id="a_node11"><a xlink:href="structchi_1_1GraphModule.html#a5cd9fb1738336d5d382ebb50753bda3e" target="_top" xlink:title="Serialize to disk in the context. ">
<polygon fill="#ffffff" stroke="#000000" points="1818,-187.5 1818,-206.5 1969,-206.5 1969,-187.5 1818,-187.5"/>
<text text-anchor="middle" x="1893.5" y="-194.5" font-family="Helvetica,sans-Serif" font-size="10.00" fill="#000000">chi::GraphModule::saveToDisk</text>
</a>
</g>
</g>
<!-- Node487&#45;&gt;Node488 -->
<g id="edge10" class="edge">
<title>Node487&#45;&gt;Node488</title>
<path fill="none" stroke="#191970" d="M1792.5243,-197C1800.8612,-197 1809.3827,-197 1817.7672,-197"/>
<polygon fill="#191970" stroke="#191970" points="1792.4684,-193.5001 1782.4683,-197 1792.4683,-200.5001 1792.4684,-193.5001"/>
</g>
<!-- Node491 -->
<g id="node14" class="node">
<title>Node491</title>
<g id="a_node14"><a xlink:href="structchi_1_1GraphModule.html#ac251cc6b4242642f6601c8c3607f5747" target="_top" xlink:title="Gets if C support is enabled. ">
<polygon fill="#ffffff" stroke="#000000" points="366,-316.5 366,-335.5 506,-335.5 506,-316.5 366,-316.5"/>
<text text-anchor="middle" x="436" y="-323.5" font-family="Helvetica,sans-Serif" font-size="10.00" fill="#000000">chi::GraphModule::cEnabled</text>
</a>
</g>
</g>
<!-- Node490&#45;&gt;Node491 -->
<g id="edge13" class="edge">
<title>Node490&#45;&gt;Node491</title>
<path fill="none" stroke="#191970" d="M312.1834,-274.4286C318.218,-276.5834 324.2531,-278.7993 330,-281 359.6858,-292.3677 393.3866,-306.9737 414.6634,-316.4102"/>
<polygon fill="#191970" stroke="#191970" points="313.3369,-271.1242 302.742,-271.1038 311.0117,-277.7268 313.3369,-271.1242"/>
</g>
<!-- Node491&#45;&gt;Node487 -->
<g id="edge42" class="edge">
<title>Node491&#45;&gt;Node487</title>
<path fill="none" stroke="#191970" d="M516.4808,-326C592.3192,-326 709.1272,-326 810.5,-326 810.5,-326 810.5,-326 1369,-326 1482.2043,-326 1521.5688,-357.2685 1623,-307 1669.1878,-284.1097 1703.1909,-228.855 1715.4808,-206.5629"/>
<polygon fill="#191970" stroke="#191970" points="516.0575,-322.5001 506.0574,-326 516.0574,-329.5001 516.0575,-322.5001"/>
</g>
<!-- Node492 -->
<g id="node15" class="node">
<title>Node492</title>
<g id="a_node15"><a xlink:href="structchi_1_1GraphModule.html#a9b73bbbfa91d6a2f92bcca270bdb7b2f" target="_top" xlink:title="Generate a llvm::Module from the module. ">
<polygon fill="#ffffff" stroke="#000000" points="556.5,-355 556.5,-385 693.5,-385 693.5,-355 556.5,-355"/>
<text text-anchor="start" x="564.5" y="-373" font-family="Helvetica,sans-Serif" font-size="10.00" fill="#000000">chi::GraphModule::generate</text>
<text text-anchor="middle" x="625" y="-362" font-family="Helvetica,sans-Serif" font-size="10.00" fill="#000000">Module</text>
</a>
</g>
</g>
<!-- Node491&#45;&gt;Node492 -->
<g id="edge14" class="edge">
<title>Node491&#45;&gt;Node492</title>
<path fill="none" stroke="#191970" d="M487.0474,-337.884C509.5943,-343.1331 536.3599,-349.3642 560.2874,-354.9346"/>
<polygon fill="#191970" stroke="#191970" points="487.5434,-334.406 477.0102,-335.5473 485.9561,-341.2237 487.5434,-334.406"/>
</g>
<!-- Node491&#45;&gt;Node493 -->
<g id="edge15" class="edge">
<title>Node491&#45;&gt;Node493</title>
<path fill="none" stroke="#191970" d="M460.6918,-311.1065C496.8131,-289.3191 563.6972,-248.9763 599.9952,-227.0822"/>
<polygon fill="#191970" stroke="#191970" points="458.5441,-308.3145 451.789,-316.4765 462.1596,-314.3085 458.5441,-308.3145"/>
</g>
<!-- Node507 -->
<g id="node30" class="node">
<title>Node507</title>
<g id="a_node30"><a xlink:href="structchi_1_1GraphModule.html#a53a1a284ab878783e74a957bb3b711b3" target="_top" xlink:title="Get the possible node type names. ">
<polygon fill="#ffffff" stroke="#000000" points="554,-404 554,-434 696,-434 696,-404 554,-404"/>
<text text-anchor="start" x="562" y="-422" font-family="Helvetica,sans-Serif" font-size="10.00" fill="#000000">chi::GraphModule::nodeType</text>
<text text-anchor="middle" x="625" y="-411" font-family="Helvetica,sans-Serif" font-size="10.00" fill="#000000">Names</text>
</a>
</g>
</g>
<!-- Node491&#45;&gt;Node507 -->
<g id="edge41" class="edge">
<title>Node491&#45;&gt;Node507</title>
<path fill="none" stroke="#191970" d="M456.0138,-341.6271C476.5823,-357.0437 510.0294,-380.3663 542,-395 549.2288,-398.3088 557.0219,-401.2762 564.8359,-403.9018"/>
<polygon fill="#191970" stroke="#191970" points="458.1069,-338.8218 448.0291,-335.5524 453.8685,-344.3928 458.1069,-338.8218"/>
</g>
<!-- Node494 -->
<g id="node17" class="node">
<title>Node494</title>
<g id="a_node17"><a xlink:href="structchi_1_1GraphFunction.html#a60bc423cb4fed3605a446da112949483" target="_top" xlink:title="Rename a local variable. ">
<polygon fill="#ffffff" stroke="#000000" points="754,-153 754,-183 867,-183 867,-153 754,-153"/>
<text text-anchor="start" x="762" y="-171" font-family="Helvetica,sans-Serif" font-size="10.00" fill="#000000">chi::GraphFunction</text>
<text text-anchor="middle" x="810.5" y="-160" font-family="Helvetica,sans-Serif" font-size="10.00" fill="#000000">::renameLocalVariable</text>
</a>
</g>
</g>
<!-- Node493&#45;&gt;Node494 -->
<g id="edge16" class="edge">
<title>Node493&#45;&gt;Node494</title>
<path fill="none" stroke="#191970" d="M698.2,-194.6372C716.7554,-190.2359 736.4044,-185.5752 753.9908,-181.4038"/>
<polygon fill="#191970" stroke="#191970" points="697.242,-191.2672 688.3198,-196.9808 698.8576,-198.0783 697.242,-191.2672"/>
</g>
<!-- Node497 -->
<g id="node20" class="node">
<title>Node497</title>
<g id="a_node20"><a xlink:href="structchi_1_1GraphFunction.html#a4c38679ec5e727bfb71c8eaaa5a8ca1a" target="_top" xlink:title="Set a new type to a local variable. ">
<polygon fill="#ffffff" stroke="#000000" points="756.5,-104 756.5,-134 864.5,-134 864.5,-104 756.5,-104"/>
<text text-anchor="start" x="764.5" y="-122" font-family="Helvetica,sans-Serif" font-size="10.00" fill="#000000">chi::GraphFunction</text>
<text text-anchor="middle" x="810.5" y="-111" font-family="Helvetica,sans-Serif" font-size="10.00" fill="#000000">::retypeLocalVariable</text>
</a>
</g>
</g>
<!-- Node493&#45;&gt;Node497 -->
<g id="edge20" class="edge">
<title>Node493&#45;&gt;Node497</title>
<path fill="none" stroke="#191970" d="M656.5515,-191.6171C680.0665,-176.9477 713.2865,-157.306 744,-143 750.787,-139.8387 758.1153,-136.8213 765.3416,-134.0587"/>
<polygon fill="#191970" stroke="#191970" points="654.6386,-188.6854 648.0398,-196.9743 658.3674,-194.6097 654.6386,-188.6854"/>
</g>
<!-- Node498 -->
<g id="node21" class="node">
<title>Node498</title>
<g id="a_node21"><a xlink:href="structchi_1_1GraphStruct.html#a464c5edd4ebcb07161c3d05312f1fc33" target="_top" xlink:title="Set the name of the struct, and optionally update all references in the context. ">
<polygon fill="#ffffff" stroke="#000000" points="744,-202.5 744,-221.5 877,-221.5 877,-202.5 744,-202.5"/>
<text text-anchor="middle" x="810.5" y="-209.5" font-family="Helvetica,sans-Serif" font-size="10.00" fill="#000000">chi::GraphStruct::setName</text>
</a>
</g>
</g>
<!-- Node493&#45;&gt;Node498 -->
<g id="edge22" class="edge">
<title>Node493&#45;&gt;Node498</title>
<path fill="none" stroke="#191970" d="M706.5515,-212C718.9884,-212 731.6979,-212 743.7678,-212"/>
<polygon fill="#191970" stroke="#191970" points="706.1887,-208.5001 696.1886,-212 706.1886,-215.5001 706.1887,-208.5001"/>
</g>
<!-- Node505 -->
<g id="node28" class="node">
<title>Node505</title>
<g id="a_node28"><a xlink:href="structchi_1_1GraphStruct.html#a27c5062196f73eae3125c0baeb592d00" target="_top" xlink:title="Get the DataType of the struct. ">
<polygon fill="#ffffff" stroke="#000000" points="1117.5,-240.5 1117.5,-259.5 1251.5,-259.5 1251.5,-240.5 1117.5,-240.5"/>
<text text-anchor="middle" x="1184.5" y="-247.5" font-family="Helvetica,sans-Serif" font-size="10.00" fill="#000000">chi::GraphStruct::dataType</text>
</a>
</g>
</g>
<!-- Node493&#45;&gt;Node505 -->
<g id="edge40" class="edge">
<title>Node493&#45;&gt;Node505</title>
<path fill="none" stroke="#191970" d="M706.2715,-226.2529C718.8721,-228.0929 731.7636,-229.7634 744,-231 875.7549,-244.315 1030.6025,-248.3109 1117.1617,-249.5023"/>
<polygon fill="#191970" stroke="#191970" points="706.6557,-222.7714 696.2465,-224.746 705.6152,-229.6936 706.6557,-222.7714"/>
</g>
<!-- Node495 -->
<g id="node18" class="node">
<title>Node495</title>
<g id="a_node18"><a xlink:href="structchi_1_1GraphFunction.html#a44f8f791775e4878b6bde37140cd131d" target="_top" xlink:title="Get the local variables. ">
<polygon fill="#ffffff" stroke="#000000" points="942,-104 942,-134 1041,-134 1041,-104 942,-104"/>
<text text-anchor="start" x="950" y="-122" font-family="Helvetica,sans-Serif" font-size="10.00" fill="#000000">chi::GraphFunction</text>
<text text-anchor="middle" x="991.5" y="-111" font-family="Helvetica,sans-Serif" font-size="10.00" fill="#000000">::localVariables</text>
</a>
</g>
</g>
<!-- Node494&#45;&gt;Node495 -->
<g id="edge17" class="edge">
<title>Node494&#45;&gt;Node495</title>
<path fill="none" stroke="#191970" d="M876.0695,-150.2491C897.7294,-144.3854 921.4558,-137.9622 941.7342,-132.4725"/>
<polygon fill="#191970" stroke="#191970" points="875.0208,-146.907 866.2829,-152.8986 876.85,-153.6638 875.0208,-146.907"/>
</g>
<!-- Node496 -->
<g id="node19" class="node">
<title>Node496</title>
<g id="a_node19"><a xlink:href="namespacechi.html#afd8b8d8a207d88359ad1e6a48d8f3bb1" target="_top" xlink:title="Serialize a GraphFunction to json. ">
<polygon fill="#ffffff" stroke="#000000" points="1304.5,-123.5 1304.5,-142.5 1433.5,-142.5 1433.5,-123.5 1304.5,-123.5"/>
<text text-anchor="middle" x="1369" y="-130.5" font-family="Helvetica,sans-Serif" font-size="10.00" fill="#000000">chi::graphFunctionToJson</text>
</a>
</g>
</g>
<!-- Node495&#45;&gt;Node496 -->
<g id="edge18" class="edge">
<title>Node495&#45;&gt;Node496</title>
<path fill="none" stroke="#191970" d="M1051.2057,-109.7641C1106.376,-102.6864 1190.517,-95.5882 1263,-105 1289.992,-108.5049 1319.9037,-116.8309 1341.0511,-123.4983"/>
<polygon fill="#191970" stroke="#191970" points="1050.7051,-106.2997 1041.2507,-111.0814 1051.6235,-113.2392 1050.7051,-106.2997"/>
</g>
<!-- Node496&#45;&gt;Node487 -->
<g id="edge19" class="edge">
<title>Node496&#45;&gt;Node487</title>
<path fill="none" stroke="#191970" d="M1443.9208,-133.2279C1495.0594,-134.8989 1563.9692,-140.1423 1623,-155 1652.3123,-162.3777 1684.0823,-177.5396 1703.1312,-187.4843"/>
<polygon fill="#191970" stroke="#191970" points="1443.71,-129.7205 1433.6135,-132.9314 1443.5087,-136.7176 1443.71,-129.7205"/>
</g>
<!-- Node497&#45;&gt;Node495 -->
<g id="edge21" class="edge">
<title>Node497&#45;&gt;Node495</title>
<path fill="none" stroke="#191970" d="M875.0567,-119C897.0337,-119 921.2402,-119 941.8633,-119"/>
<polygon fill="#191970" stroke="#191970" points="874.806,-115.5001 864.806,-119 874.8059,-122.5001 874.806,-115.5001"/>
</g>
<!-- Node499 -->
<g id="node22" class="node">
<title>Node499</title>
<g id="a_node22"><a xlink:href="structchi_1_1GraphStruct.html#a82a1da52a4bf23e1e7fef4d7228603b1" target="_top" xlink:title="Get the module. ">
<polygon fill="#ffffff" stroke="#000000" points="929,-202.5 929,-221.5 1054,-221.5 1054,-202.5 929,-202.5"/>
<text text-anchor="middle" x="991.5" y="-209.5" font-family="Helvetica,sans-Serif" font-size="10.00" fill="#000000">chi::GraphStruct::module</text>
</a>
</g>
</g>
<!-- Node498&#45;&gt;Node499 -->
<g id="edge23" class="edge">
<title>Node498&#45;&gt;Node499</title>
<path fill="none" stroke="#191970" d="M887.167,-205.3206C901.0911,-205.1775 915.4627,-205.252 928.921,-205.544"/>
<polygon fill="#191970" stroke="#191970" points="887.0759,-201.8214 877.1266,-205.4632 887.1754,-208.8207 887.0759,-201.8214"/>
</g>
<!-- Node499&#45;&gt;Node498 -->
<g id="edge25" class="edge">
<title>Node499&#45;&gt;Node498</title>
<path fill="none" stroke="#191970" d="M918.5765,-218.6356C904.8782,-218.816 890.6211,-218.7831 877.1266,-218.5368"/>
<polygon fill="#191970" stroke="#191970" points="918.9833,-222.1291 928.921,-218.456 918.8617,-215.1302 918.9833,-222.1291"/>
</g>
<!-- Node500 -->
<g id="node23" class="node">
<title>Node500</title>
<g id="a_node23"><a xlink:href="structchi_1_1GraphModule.html#ac7147fb4875838de42b33a72834f3203" target="_top" xlink:title="Remove a struct from the module by pointer. ">
<polygon fill="#ffffff" stroke="#000000" points="1119,-115 1119,-145 1250,-145 1250,-115 1119,-115"/>
<text text-anchor="start" x="1127" y="-133" font-family="Helvetica,sans-Serif" font-size="10.00" fill="#000000">chi::GraphModule::remove</text>
<text text-anchor="middle" x="1184.5" y="-122" font-family="Helvetica,sans-Serif" font-size="10.00" fill="#000000">Struct</text>
</a>
</g>
</g>
<!-- Node499&#45;&gt;Node500 -->
<g id="edge24" class="edge">
<title>Node499&#45;&gt;Node500</title>
<path fill="none" stroke="#191970" d="M1020.8175,-198.0866C1043.8217,-187.3153 1076.7385,-172.2224 1106,-160 1118.1163,-154.9391 1131.4156,-149.7287 1143.5687,-145.0995"/>
<polygon fill="#191970" stroke="#191970" points="1019.1659,-194.9955 1011.605,-202.4173 1022.144,-201.3305 1019.1659,-194.9955"/>
</g>
<!-- Node501 -->
<g id="node24" class="node">
<title>Node501</title>
<g id="a_node24"><a xlink:href="structchi_1_1GraphStruct.html#aba05cdce9627a23da0449801e068d85d" target="_top" xlink:title="Add a new type to the struct. ">
<polygon fill="#ffffff" stroke="#000000" points="1483.5,-164.5 1483.5,-183.5 1614.5,-183.5 1614.5,-164.5 1483.5,-164.5"/>
<text text-anchor="middle" x="1549" y="-171.5" font-family="Helvetica,sans-Serif" font-size="10.00" fill="#000000">chi::GraphStruct::addType</text>
</a>
</g>
</g>
<!-- Node499&#45;&gt;Node501 -->
<g id="edge26" class="edge">
<title>Node499&#45;&gt;Node501</title>
<path fill="none" stroke="#191970" d="M1064.37,-207.0331C1173.6505,-199.5844 1378.3292,-185.6332 1483.2728,-178.4801"/>
<polygon fill="#191970" stroke="#191970" points="1063.8377,-203.5611 1054.0989,-207.7332 1064.3138,-210.5449 1063.8377,-203.5611"/>
</g>
<!-- Node503 -->
<g id="node26" class="node">
<title>Node503</title>
<g id="a_node26"><a xlink:href="structchi_1_1GraphStruct.html#a89d3ea5e72ed6e7d8380fb82fa5eb521" target="_top" xlink:title="Change the type and name of a type. ">
<polygon fill="#ffffff" stroke="#000000" points="1476.5,-278.5 1476.5,-297.5 1621.5,-297.5 1621.5,-278.5 1476.5,-278.5"/>
<text text-anchor="middle" x="1549" y="-285.5" font-family="Helvetica,sans-Serif" font-size="10.00" fill="#000000">chi::GraphStruct::modifyType</text>
</a>
</g>
</g>
<!-- Node499&#45;&gt;Node503 -->
<g id="edge37" class="edge">
<title>Node499&#45;&gt;Node503</title>
<path fill="none" stroke="#191970" d="M1014.6415,-227.1731C1036.9944,-240.9212 1072.3225,-260.3153 1106,-269 1233.0936,-301.7749 1387.3991,-299.3206 1476.2936,-294.0253"/>
<polygon fill="#191970" stroke="#191970" points="1016.2271,-224.0356 1005.8987,-221.6743 1012.5002,-229.9611 1016.2271,-224.0356"/>
</g>
<!-- Node504 -->
<g id="node27" class="node">
<title>Node504</title>
<g id="a_node27"><a xlink:href="structchi_1_1GraphStruct.html#a759b0b44c984d7aaa6c2fb32e035264b" target="_top" xlink:title="Remove a type from a struct. ">
<polygon fill="#ffffff" stroke="#000000" points="1475,-202.5 1475,-221.5 1623,-221.5 1623,-202.5 1475,-202.5"/>
<text text-anchor="middle" x="1549" y="-209.5" font-family="Helvetica,sans-Serif" font-size="10.00" fill="#000000">chi::GraphStruct::removeType</text>
</a>
</g>
</g>
<!-- Node499&#45;&gt;Node504 -->
<g id="edge38" class="edge">
<title>Node499&#45;&gt;Node504</title>
<path fill="none" stroke="#191970" d="M1064.1012,-212C1170.4495,-212 1367.5567,-212 1474.804,-212"/>
<polygon fill="#191970" stroke="#191970" points="1064.0989,-208.5001 1054.0989,-212 1064.0988,-215.5001 1064.0989,-208.5001"/>
</g>
<!-- Node499&#45;&gt;Node505 -->
<g id="edge39" class="edge">
<title>Node499&#45;&gt;Node505</title>
<path fill="none" stroke="#191970" d="M1050.1016,-223.5381C1077.6289,-228.958 1110.0476,-235.341 1136.1482,-240.4799"/>
<polygon fill="#191970" stroke="#191970" points="1050.6898,-220.0868 1040.202,-221.589 1049.3375,-226.955 1050.6898,-220.0868"/>
</g>
<!-- Node502 -->
<g id="node25" class="node">
<title>Node502</title>
<g id="a_node25"><a xlink:href="structchi_1_1GraphStruct.html#ae1895cfaebac03e21d35ec2a155b3c10" target="_top" xlink:title="Get the types the struct contains. ">
<polygon fill="#ffffff" stroke="#000000" points="1310,-240.5 1310,-259.5 1428,-259.5 1428,-240.5 1310,-240.5"/>
<text text-anchor="middle" x="1369" y="-247.5" font-family="Helvetica,sans-Serif" font-size="10.00" fill="#000000">chi::GraphStruct::types</text>
</a>
</g>
</g>
<!-- Node501&#45;&gt;Node502 -->
<g id="edge27" class="edge">
<title>Node501&#45;&gt;Node502</title>
<path fill="none" stroke="#191970" d="M1524.1161,-186.6664C1509.5313,-191.0177 1490.9071,-195.7871 1475,-202 1446.9734,-212.9464 1416.9377,-229.6133 1396.0209,-240.4997"/>
<polygon fill="#191970" stroke="#191970" points="1525.4505,-189.9151 1533.9256,-183.5572 1523.3354,-183.2423 1525.4505,-189.9151"/>
</g>
<!-- Node502&#45;&gt;Node501 -->
<g id="edge28" class="edge">
<title>Node502&#45;&gt;Node501</title>
<path fill="none" stroke="#191970" d="M1384.1601,-234.1568C1404.2431,-218.8603 1441.092,-197.2435 1475,-184 1477.7181,-182.9384 1480.5155,-181.9189 1483.3586,-180.9479"/>
<polygon fill="#191970" stroke="#191970" points="1381.9423,-231.4491 1376.4097,-240.4847 1386.3694,-236.8714 1381.9423,-231.4491"/>
</g>
<!-- Node502&#45;&gt;Node503 -->
<g id="edge29" class="edge">
<title>Node502&#45;&gt;Node503</title>
<path fill="none" stroke="#191970" d="M1438.3798,-258.0568C1469.4386,-264.1239 1503.9599,-272.0465 1526.0444,-278.468"/>
<polygon fill="#191970" stroke="#191970" points="1438.9169,-254.5962 1428.4376,-256.1565 1437.6026,-261.4717 1438.9169,-254.5962"/>
</g>
<!-- Node502&#45;&gt;Node504 -->
<g id="edge31" class="edge">
<title>Node502&#45;&gt;Node504</title>
<path fill="none" stroke="#191970" d="M1401.9172,-237.6923C1422.3736,-232.2038 1449.5297,-226.0386 1474.9358,-220.9807"/>
<polygon fill="#191970" stroke="#191970" points="1400.8583,-234.3539 1392.1634,-240.4076 1402.7357,-241.0975 1400.8583,-234.3539"/>
</g>
<!-- Node502&#45;&gt;Node505 -->
<g id="edge33" class="edge">
<title>Node502&#45;&gt;Node505</title>
<path fill="none" stroke="#191970" d="M1299.6742,-256.5612C1283.9451,-256.8252 1267.2668,-256.8123 1251.6307,-256.5225"/>
<polygon fill="#191970" stroke="#191970" points="1299.9284,-260.0568 1309.8528,-256.3479 1299.7816,-253.0583 1299.9284,-260.0568"/>
</g>
<!-- Node506 -->
<g id="node29" class="node">
<title>Node506</title>
<g id="a_node29"><a xlink:href="namespacechi.html#af74872167b12e4ad8a387faab1f03fbb" target="_top" xlink:title="Serialize a GraphStruct to json. ">
<polygon fill="#ffffff" stroke="#000000" points="1490,-240.5 1490,-259.5 1608,-259.5 1608,-240.5 1490,-240.5"/>
<text text-anchor="middle" x="1549" y="-247.5" font-family="Helvetica,sans-Serif" font-size="10.00" fill="#000000">chi::graphStructToJson</text>
</a>
</g>
</g>
<!-- Node502&#45;&gt;Node506 -->
<g id="edge35" class="edge">
<title>Node502&#45;&gt;Node506</title>
<path fill="none" stroke="#191970" d="M1438.8032,-250C1455.6952,-250 1473.5882,-250 1489.9318,-250"/>
<polygon fill="#191970" stroke="#191970" points="1438.4376,-246.5001 1428.4376,-250 1438.4376,-253.5001 1438.4376,-246.5001"/>
</g>
<!-- Node503&#45;&gt;Node502 -->
<g id="edge30" class="edge">
<title>Node503&#45;&gt;Node502</title>
<path fill="none" stroke="#191970" d="M1466.2127,-277.2534C1439.0988,-271.6747 1411.1062,-265.0891 1392.1634,-259.5924"/>
<polygon fill="#191970" stroke="#191970" points="1465.6489,-280.7101 1476.1439,-279.2592 1467.0347,-273.8486 1465.6489,-280.7101"/>
</g>
<!-- Node504&#45;&gt;Node502 -->
<g id="edge32" class="edge">
<title>Node504&#45;&gt;Node502</title>
<path fill="none" stroke="#191970" d="M1516.1927,-224.2782C1491.732,-230.8459 1457.6479,-238.3879 1428.4376,-243.8435"/>
<polygon fill="#191970" stroke="#191970" points="1517.3514,-227.5887 1526.0444,-221.532 1515.4718,-220.8458 1517.3514,-227.5887"/>
</g>
<!-- Node505&#45;&gt;Node502 -->
<g id="edge34" class="edge">
<title>Node505&#45;&gt;Node502</title>
<path fill="none" stroke="#191970" d="M1262.0349,-243.3269C1278.0321,-243.1584 1294.6352,-243.2668 1309.8528,-243.6521"/>
<polygon fill="#191970" stroke="#191970" points="1261.5789,-239.8331 1251.6307,-243.4775 1261.6803,-246.8323 1261.5789,-239.8331"/>
</g>
<!-- Node506&#45;&gt;Node487 -->
<g id="edge36" class="edge">
<title>Node506&#45;&gt;Node487</title>
<path fill="none" stroke="#191970" d="M1598.5776,-237.8858C1606.7686,-235.7083 1615.1467,-233.3729 1623,-231 1647.7112,-223.5335 1675.4719,-213.709 1695.0326,-206.5417"/>
<polygon fill="#191970" stroke="#191970" points="1597.5198,-234.5445 1588.7271,-240.4554 1599.2868,-241.3178 1597.5198,-234.5445"/>
</g>
<!-- Node508&#45;&gt;Node481 -->
<g id="edge44" class="edge">
<title>Node508&#45;&gt;Node481</title>
<path fill="none" stroke="#191970" d="M331.0645,-116.1384C345.5898,-114.5966 360.6744,-112.9955 374.725,-111.504"/>
<polygon fill="#191970" stroke="#191970" points="330.6922,-112.6582 321.1175,-117.1942 331.4311,-119.6191 330.6922,-112.6582"/>
</g>
<!-- Node509&#45;&gt;Node481 -->
<g id="edge46" class="edge">
<title>Node509&#45;&gt;Node481</title>
<path fill="none" stroke="#191970" d="M325.5564,-93.2769C341.7632,-94.9972 358.9408,-96.8205 374.7974,-98.5036"/>
<polygon fill="#191970" stroke="#191970" points="325.9249,-89.7965 315.6113,-92.2213 325.186,-96.7574 325.9249,-89.7965"/>
</g>
</g>
</svg>
        <g id="navigator" transform="translate(0 0)" fill="#404254">
                <rect fill="#f2f5e9" fill-opacity="0.5" stroke="#606060" stroke-width=".5" x="0" y="0" width="60" height="60"/>
                <use id="zoomplus" xlink:href="#zoomPlus" x="17" y="9" onmousedown="handleZoom(evt,'in')"/>
                <use id="zoomminus" xlink:href="#zoomMin" x="42" y="9" onmousedown="handleZoom(evt,'out')"/>
                <use id="reset" xlink:href="#resetDef" x="30" y="36" onmousedown="handleReset()"/>
                <g id="arrowUp" xlink:href="#dirArrow" transform="translate(30 24)" onmousedown="handlePan(0,-1)">
                  <use xlink:href="#rim" fill="#404040">
                        <set attributeName="fill" to="#808080" begin="arrowUp.mouseover" end="arrowUp.mouseout"/>
                  </use>
                  <path fill="none" stroke="white" stroke-width="1.5" d="M0,-3.0v7 M-2.5,-0.5L0,-3.0L2.5,-0.5"/>
                </g>
                <g id="arrowRight" xlink:href="#dirArrow" transform="rotate(90) translate(36 -43)" onmousedown="handlePan(1,0)">
                  <use xlink:href="#rim" fill="#404040">
                        <set attributeName="fill" to="#808080" begin="arrowRight.mouseover" end="arrowRight.mouseout"/>
                  </use>
                  <path fill="none" stroke="white" stroke-width="1.5" d="M0,-3.0v7 M-2.5,-0.5L0,-3.0L2.5,-0.5"/>
                </g>
                <g id="arrowDown" xlink:href="#dirArrow" transform="rotate(180) translate(-30 -48)" onmousedown="handlePan(0,1)">
                  <use xlink:href="#rim" fill="#404040">
                        <set attributeName="fill" to="#808080" begin="arrowDown.mouseover" end="arrowDown.mouseout"/>
                  </use>
                  <path fill="none" stroke="white" stroke-width="1.5" d="M0,-3.0v7 M-2.5,-0.5L0,-3.0L2.5,-0.5"/>
                </g>
                <g id="arrowLeft" xlink:href="#dirArrow" transform="rotate(270) translate(-36 17)" onmousedown="handlePan(-1,0)">
                  <use xlink:href="#rim" fill="#404040">
                        <set attributeName="fill" to="#808080" begin="arrowLeft.mouseover" end="arrowLeft.mouseout"/>
                  </use>
                  <path fill="none" stroke="white" stroke-width="1.5" d="M0,-3.0v7 M-2.5,-0.5L0,-3.0L2.5,-0.5"/>
                </g>
        </g>
        <svg viewBox="0 0 15 15" width="100%" height="30px" preserveAspectRatio="xMaxYMin meet">
         <g id="arrow_out" transform="scale(0.3 0.3)">
          <a xlink:href="structchi_1_1Context_a9e0b185a1871ebfda5d7bd410bf085f2_icgraph_org.svg" target="_base">
           <rect id="button" ry="5" rx="5" y="6" x="6" height="38" width="38"
                fill="#f2f5e9" fill-opacity="0.5" stroke="#606060" stroke-width="1.0"/>
           <path id="arrow"
             d="M 11.500037,31.436501 C 11.940474,20.09759 22.043105,11.32322 32.158766,21.979434 L 37.068811,17.246167 C 37.068811,17.246167 37.088388,32 37.088388,32 L 22.160133,31.978069 C 22.160133,31.978069 26.997745,27.140456 26.997745,27.140456 C 18.528582,18.264221 13.291696,25.230495 11.500037,31.436501 z"
             style="fill:#404040;"/>
          </a>
         </g>
        </svg>
</svg>
