<?xml version="1.0" encoding="UTF-8" standalone="no"?>
<!DOCTYPE svg PUBLIC "-//W3C//DTD SVG 1.1//EN"
 "http://www.w3.org/Graphics/SVG/1.1/DTD/svg11.dtd">
<!-- Generated by graphviz version 2.40.1 (20161225.0304)
 -->
<!-- Title: chig::GraphFunction::removeLocalVariable Pages: 1 -->
<svg width="734pt" height="39pt"
 viewBox="0.00 0.00 734.00 39.00" xmlns="http://www.w3.org/2000/svg" xmlns:xlink="http://www.w3.org/1999/xlink">
<g id="graph0" class="graph" transform="scale(1 1) rotate(0) translate(4 35)">
<title>chig::GraphFunction::removeLocalVariable</title>
<polygon fill="#ffffff" stroke="transparent" points="-4,4 -4,-35 730,-35 730,4 -4,4"/>
<!-- Node681 -->
<g id="node1" class="node">
<title>Node681</title>
<polygon fill="#bfbfbf" stroke="#000000" points="0,-.5 0,-30.5 113,-30.5 113,-.5 0,-.5"/>
<text text-anchor="start" x="8" y="-18.5" font-family="Helvetica,sans-Serif" font-size="10.00" fill="#000000">chig::GraphFunction</text>
<text text-anchor="middle" x="56.5" y="-7.5" font-family="Helvetica,sans-Serif" font-size="10.00" fill="#000000">::removeLocalVariable</text>
</g>
<!-- Node682 -->
<g id="node2" class="node">
<title>Node682</title>
<g id="a_node2"><a xlink:href="structchig_1_1GraphFunction.html#a72a81861d1331948804b2a267598ec79" target="_top" xlink:title="Get the local variables. ">
<polygon fill="#ffffff" stroke="#000000" points="149,-.5 149,-30.5 253,-30.5 253,-.5 149,-.5"/>
<text text-anchor="start" x="157" y="-18.5" font-family="Helvetica,sans-Serif" font-size="10.00" fill="#000000">chig::GraphFunction</text>
<text text-anchor="middle" x="201" y="-7.5" font-family="Helvetica,sans-Serif" font-size="10.00" fill="#000000">::localVariables</text>
</a>
</g>
</g>
<!-- Node681&#45;&gt;Node682 -->
<g id="edge1" class="edge">
<title>Node681&#45;&gt;Node682</title>
<path fill="none" stroke="#191970" d="M123.455,-15.5C131.9315,-15.5 140.5058,-15.5 148.7077,-15.5"/>
<polygon fill="#191970" stroke="#191970" points="123.1955,-12.0001 113.1955,-15.5 123.1955,-19.0001 123.1955,-12.0001"/>
</g>
<!-- Node683 -->
<g id="node3" class="node">
<title>Node683</title>
<g id="a_node3"><a xlink:href="namespacechig.html#ad0fd9448ab1cd1d73351fad5967a7b9b" target="_top" xlink:title="Serialize a GraphFunction to json. ">
<polygon fill="#ffffff" stroke="#000000" points="289,-6 289,-25 422,-25 422,-6 289,-6"/>
<text text-anchor="middle" x="355.5" y="-13" font-family="Helvetica,sans-Serif" font-size="10.00" fill="#000000">chig::graphFunctionToJson</text>
</a>
</g>
</g>
<!-- Node682&#45;&gt;Node683 -->
<g id="edge2" class="edge">
<title>Node682&#45;&gt;Node683</title>
<path fill="none" stroke="#191970" d="M263.3508,-15.5C271.7062,-15.5 280.3033,-15.5 288.7308,-15.5"/>
<polygon fill="#191970" stroke="#191970" points="263.3067,-12.0001 253.3067,-15.5 263.3066,-19.0001 263.3067,-12.0001"/>
</g>
<!-- Node684 -->
<g id="node4" class="node">
<title>Node684</title>
<g id="a_node4"><a xlink:href="namespacechig.html#aaef3bb08f472ae32b2d3b292e69a007a" target="_top" xlink:title="Serialize a JsonModule to json. ">
<polygon fill="#ffffff" stroke="#000000" points="458,-6 458,-25 586,-25 586,-6 458,-6"/>
<text text-anchor="middle" x="522" y="-13" font-family="Helvetica,sans-Serif" font-size="10.00" fill="#000000">chig::graphModuleToJson</text>
</a>
</g>
</g>
<!-- Node683&#45;&gt;Node684 -->
<g id="edge3" class="edge">
<title>Node683&#45;&gt;Node684</title>
<path fill="none" stroke="#191970" d="M432.2727,-15.5C440.8547,-15.5 449.5292,-15.5 457.9282,-15.5"/>
<polygon fill="#191970" stroke="#191970" points="432.2626,-12.0001 422.2626,-15.5 432.2625,-19.0001 432.2626,-12.0001"/>
</g>
<!-- Node685 -->
<g id="node5" class="node">
<title>Node685</title>
<g id="a_node5"><a xlink:href="structchig_1_1GraphModule.html#accb1a64da697a29e28d78a9a09bd52ff" target="_top" xlink:title="Serialize to disk in the context. ">
<polygon fill="#ffffff" stroke="#000000" points="622,-.5 622,-30.5 726,-30.5 726,-.5 622,-.5"/>
<text text-anchor="start" x="630" y="-18.5" font-family="Helvetica,sans-Serif" font-size="10.00" fill="#000000">chig::GraphModule::</text>
<text text-anchor="middle" x="674" y="-7.5" font-family="Helvetica,sans-Serif" font-size="10.00" fill="#000000">saveToDisk</text>
</a>
</g>
</g>
<!-- Node684&#45;&gt;Node685 -->
<g id="edge4" class="edge">
<title>Node684&#45;&gt;Node685</title>
<path fill="none" stroke="#191970" d="M596.0838,-15.5C604.6912,-15.5 613.3313,-15.5 621.5622,-15.5"/>
<polygon fill="#191970" stroke="#191970" points="596.0212,-12.0001 586.0211,-15.5 596.0211,-19.0001 596.0212,-12.0001"/>
</g>
</g>
</svg>
