<?xml version="1.0" encoding="UTF-8" standalone="no"?>
<!DOCTYPE svg PUBLIC "-//W3C//DTD SVG 1.1//EN"
 "http://www.w3.org/Graphics/SVG/1.1/DTD/svg11.dtd">
<!-- Generated by graphviz version 2.40.1 (20161225.0304)
 -->
<!-- Title: chig::GraphStruct::context Pages: 1 -->
<svg width="840pt" height="181pt"
 viewBox="0.00 0.00 840.00 181.00" xmlns="http://www.w3.org/2000/svg" xmlns:xlink="http://www.w3.org/1999/xlink">
<g id="graph0" class="graph" transform="scale(1 1) rotate(0) translate(4 177)">
<title>chig::GraphStruct::context</title>
<polygon fill="#ffffff" stroke="transparent" points="-4,4 -4,-177 836,-177 836,4 -4,4"/>
<!-- Node21 -->
<g id="node1" class="node">
<title>Node21</title>
<polygon fill="#bfbfbf" stroke="#000000" points="0,-93.5 0,-123.5 99,-123.5 99,-93.5 0,-93.5"/>
<text text-anchor="start" x="8" y="-111.5" font-family="Helvetica,sans-Serif" font-size="10.00" fill="#000000">chig::GraphStruct::</text>
<text text-anchor="middle" x="49.5" y="-100.5" font-family="Helvetica,sans-Serif" font-size="10.00" fill="#000000">context</text>
</g>
<!-- Node22 -->
<g id="node2" class="node">
<title>Node22</title>
<g id="a_node2"><a xlink:href="structchig_1_1GraphStruct.html#ab62184ef12dfbc341714656505a037cf" target="_top" xlink:title="Get the DataType of the struct. ">
<polygon fill="#ffffff" stroke="#000000" points="135,-93.5 135,-123.5 234,-123.5 234,-93.5 135,-93.5"/>
<text text-anchor="start" x="143" y="-111.5" font-family="Helvetica,sans-Serif" font-size="10.00" fill="#000000">chig::GraphStruct::</text>
<text text-anchor="middle" x="184.5" y="-100.5" font-family="Helvetica,sans-Serif" font-size="10.00" fill="#000000">dataType</text>
</a>
</g>
</g>
<!-- Node21&#45;&gt;Node22 -->
<g id="edge1" class="edge">
<title>Node21&#45;&gt;Node22</title>
<path fill="none" stroke="#191970" d="M109.2071,-108.5C117.6702,-108.5 126.299,-108.5 134.5516,-108.5"/>
<polygon fill="#191970" stroke="#191970" points="109.0025,-105.0001 99.0024,-108.5 109.0024,-112.0001 109.0025,-105.0001"/>
</g>
<!-- Node23 -->
<g id="node3" class="node">
<title>Node23</title>
<g id="a_node3"><a xlink:href="structchig_1_1GraphStruct.html#a7c1a043c5bd131f444ebee3d9fac44ed" target="_top" xlink:title="Get the types the struct contains. ">
<polygon fill="#ffffff" stroke="#000000" points="270,-93.5 270,-123.5 369,-123.5 369,-93.5 270,-93.5"/>
<text text-anchor="start" x="278" y="-111.5" font-family="Helvetica,sans-Serif" font-size="10.00" fill="#000000">chig::GraphStruct::</text>
<text text-anchor="middle" x="319.5" y="-100.5" font-family="Helvetica,sans-Serif" font-size="10.00" fill="#000000">types</text>
</a>
</g>
</g>
<!-- Node22&#45;&gt;Node23 -->
<g id="edge2" class="edge">
<title>Node22&#45;&gt;Node23</title>
<path fill="none" stroke="#191970" d="M244.2071,-101.7901C252.6702,-101.7026 261.299,-101.7582 269.5516,-101.9571"/>
<polygon fill="#191970" stroke="#191970" points="243.9399,-98.2942 234.0024,-101.9679 244.0619,-105.2931 243.9399,-98.2942"/>
</g>
<!-- Node23&#45;&gt;Node22 -->
<g id="edge9" class="edge">
<title>Node23&#45;&gt;Node22</title>
<path fill="none" stroke="#191970" d="M259.3351,-115.2144C250.8662,-115.2968 242.2413,-115.236 234.0024,-115.0321"/>
<polygon fill="#191970" stroke="#191970" points="259.6118,-118.7104 269.5516,-115.0429 259.4943,-111.7114 259.6118,-118.7104"/>
</g>
<!-- Node24 -->
<g id="node4" class="node">
<title>Node24</title>
<g id="a_node4"><a xlink:href="structchig_1_1GraphStruct.html#a1fd6254fcd1bc4497fb66b0a8f92eb0b" target="_top" xlink:title="Add a new type to the struct. ">
<polygon fill="#ffffff" stroke="#000000" points="417,-142.5 417,-172.5 516,-172.5 516,-142.5 417,-142.5"/>
<text text-anchor="start" x="425" y="-160.5" font-family="Helvetica,sans-Serif" font-size="10.00" fill="#000000">chig::GraphStruct::</text>
<text text-anchor="middle" x="466.5" y="-149.5" font-family="Helvetica,sans-Serif" font-size="10.00" fill="#000000">addType</text>
</a>
</g>
</g>
<!-- Node23&#45;&gt;Node24 -->
<g id="edge3" class="edge">
<title>Node23&#45;&gt;Node24</title>
<path fill="none" stroke="#191970" d="M379.0701,-121.7156C399.3362,-128.1506 421.0689,-135.7813 437.797,-142.4507"/>
<polygon fill="#191970" stroke="#191970" points="379.856,-118.2946 369.2675,-118.6622 377.7741,-124.9779 379.856,-118.2946"/>
</g>
<!-- Node25 -->
<g id="node5" class="node">
<title>Node25</title>
<g id="a_node5"><a xlink:href="structchig_1_1GraphStruct.html#a40f421df5b78913f266df3aefb8a3fd3" target="_top" xlink:title="Change the type and name of a type. ">
<polygon fill="#ffffff" stroke="#000000" points="417,-93.5 417,-123.5 516,-123.5 516,-93.5 417,-93.5"/>
<text text-anchor="start" x="425" y="-111.5" font-family="Helvetica,sans-Serif" font-size="10.00" fill="#000000">chig::GraphStruct::</text>
<text text-anchor="middle" x="466.5" y="-100.5" font-family="Helvetica,sans-Serif" font-size="10.00" fill="#000000">modifyType</text>
</a>
</g>
</g>
<!-- Node23&#45;&gt;Node25 -->
<g id="edge5" class="edge">
<title>Node23&#45;&gt;Node25</title>
<path fill="none" stroke="#191970" d="M379.5141,-101.852C391.8991,-101.6627 404.8131,-101.7369 416.7838,-102.0744"/>
<polygon fill="#191970" stroke="#191970" points="379.1897,-98.3581 369.2675,-102.073 379.3407,-105.3565 379.1897,-98.3581"/>
</g>
<!-- Node26 -->
<g id="node6" class="node">
<title>Node26</title>
<g id="a_node6"><a xlink:href="structchig_1_1GraphStruct.html#abefe7c0c45f61546d82649a27bea2119" target="_top" xlink:title="Remove a type from a struct. ">
<polygon fill="#ffffff" stroke="#000000" points="417,-44.5 417,-74.5 516,-74.5 516,-44.5 417,-44.5"/>
<text text-anchor="start" x="425" y="-62.5" font-family="Helvetica,sans-Serif" font-size="10.00" fill="#000000">chig::GraphStruct::</text>
<text text-anchor="middle" x="466.5" y="-51.5" font-family="Helvetica,sans-Serif" font-size="10.00" fill="#000000">removeType</text>
</a>
</g>
</g>
<!-- Node23&#45;&gt;Node26 -->
<g id="edge7" class="edge">
<title>Node23&#45;&gt;Node26</title>
<path fill="none" stroke="#191970" d="M357.7755,-89.734C375.7798,-82.911 397.4772,-75.5388 416.7381,-69.6605"/>
<polygon fill="#191970" stroke="#191970" points="356.2472,-86.5727 348.192,-93.455 358.7809,-93.0981 356.2472,-86.5727"/>
</g>
<!-- Node27 -->
<g id="node7" class="node">
<title>Node27</title>
<g id="a_node7"><a xlink:href="namespacechig.html#a47dace3c5d5158aba08f3ee10dd100e9" target="_top" xlink:title="Serialize a GraphStruct to json. ">
<polygon fill="#ffffff" stroke="#000000" points="405,-6 405,-25 528,-25 528,-6 405,-6"/>
<text text-anchor="middle" x="466.5" y="-13" font-family="Helvetica,sans-Serif" font-size="10.00" fill="#000000">chig::graphStructToJson</text>
</a>
</g>
</g>
<!-- Node23&#45;&gt;Node27 -->
<g id="edge10" class="edge">
<title>Node23&#45;&gt;Node27</title>
<path fill="none" stroke="#191970" d="M340.9485,-85.953C357.2248,-69.9628 380.8534,-49.0243 405,-35.5 412.4447,-31.3303 420.8894,-27.8737 429.0842,-25.0742"/>
<polygon fill="#191970" stroke="#191970" points="338.1568,-83.7962 333.579,-93.351 343.1161,-88.7364 338.1568,-83.7962"/>
</g>
<!-- Node24&#45;&gt;Node23 -->
<g id="edge4" class="edge">
<title>Node24&#45;&gt;Node23</title>
<path fill="none" stroke="#191970" d="M406.933,-144.2854C386.6616,-137.8488 364.9224,-130.2157 348.192,-123.545"/>
<polygon fill="#191970" stroke="#191970" points="406.1497,-147.7072 416.7381,-147.3395 408.2315,-141.0239 406.1497,-147.7072"/>
</g>
<!-- Node25&#45;&gt;Node23 -->
<g id="edge6" class="edge">
<title>Node25&#45;&gt;Node23</title>
<path fill="none" stroke="#191970" d="M406.5389,-115.1472C394.1554,-115.3372 381.2408,-115.2638 369.2675,-114.927"/>
<polygon fill="#191970" stroke="#191970" points="406.8618,-118.6411 416.7838,-114.9256 406.7104,-111.6427 406.8618,-118.6411"/>
</g>
<!-- Node26&#45;&gt;Node23 -->
<g id="edge8" class="edge">
<title>Node26&#45;&gt;Node23</title>
<path fill="none" stroke="#191970" d="M428.2152,-78.2696C410.2145,-85.0909 388.5237,-92.4608 369.2675,-98.3378"/>
<polygon fill="#191970" stroke="#191970" points="429.7418,-81.4315 437.797,-74.5493 427.2082,-74.906 429.7418,-81.4315"/>
</g>
<!-- Node28 -->
<g id="node8" class="node">
<title>Node28</title>
<g id="a_node8"><a xlink:href="namespacechig.html#aaef3bb08f472ae32b2d3b292e69a007a" target="_top" xlink:title="Serialize a JsonModule to json. ">
<polygon fill="#ffffff" stroke="#000000" points="564,-6 564,-25 692,-25 692,-6 564,-6"/>
<text text-anchor="middle" x="628" y="-13" font-family="Helvetica,sans-Serif" font-size="10.00" fill="#000000">chig::graphModuleToJson</text>
</a>
</g>
</g>
<!-- Node27&#45;&gt;Node28 -->
<g id="edge11" class="edge">
<title>Node27&#45;&gt;Node28</title>
<path fill="none" stroke="#191970" d="M538.0582,-15.5C546.6878,-15.5 555.4593,-15.5 563.9716,-15.5"/>
<polygon fill="#191970" stroke="#191970" points="538.017,-12.0001 528.0169,-15.5 538.0169,-19.0001 538.017,-12.0001"/>
</g>
<!-- Node29 -->
<g id="node9" class="node">
<title>Node29</title>
<g id="a_node9"><a xlink:href="structchig_1_1GraphModule.html#accb1a64da697a29e28d78a9a09bd52ff" target="_top" xlink:title="Serialize to disk in the context. ">
<polygon fill="#ffffff" stroke="#000000" points="728,-.5 728,-30.5 832,-30.5 832,-.5 728,-.5"/>
<text text-anchor="start" x="736" y="-18.5" font-family="Helvetica,sans-Serif" font-size="10.00" fill="#000000">chig::GraphModule::</text>
<text text-anchor="middle" x="780" y="-7.5" font-family="Helvetica,sans-Serif" font-size="10.00" fill="#000000">saveToDisk</text>
</a>
</g>
</g>
<!-- Node28&#45;&gt;Node29 -->
<g id="edge12" class="edge">
<title>Node28&#45;&gt;Node29</title>
<path fill="none" stroke="#191970" d="M702.0838,-15.5C710.6912,-15.5 719.3313,-15.5 727.5622,-15.5"/>
<polygon fill="#191970" stroke="#191970" points="702.0212,-12.0001 692.0211,-15.5 702.0211,-19.0001 702.0212,-12.0001"/>
</g>
</g>
</svg>
