<?xml version="1.0" encoding="UTF-8" standalone="no"?>
<!DOCTYPE svg PUBLIC "-//W3C//DTD SVG 1.1//EN"
 "http://www.w3.org/Graphics/SVG/1.1/DTD/svg11.dtd">
<!-- Generated by graphviz version 2.40.1 (20161225.0304)
 -->
<!-- Title: chi::GraphModule::removeStruct Pages: 1 -->
<!--zoomable 203 -->
<svg id="main" version="1.1" xmlns="http://www.w3.org/2000/svg" xmlns:xlink="http://www.w3.org/1999/xlink" xml:space="preserve" onload="init(evt)">
<style type="text/css"><![CDATA[
.edge:hover path { stroke: red; }
.edge:hover polygon { stroke: red; fill: red; }
]]></style>
<script type="text/javascript"><![CDATA[
var edges = document.getElementsByTagName('g');
if (edges && edges.length) {
  for (var i=0;i<edges.length;i++) {
    if (edges[i].id.substr(0,4)=='edge') {
      edges[i].setAttribute('class','edge');
    }
  }
}
]]></script>
        <defs>
                <circle id="rim" cx="0" cy="0" r="7"/>
                <circle id="rim2" cx="0" cy="0" r="3.5"/>
                <g id="zoomPlus">
                        <use xlink:href="#rim" fill="#404040">
                                <set attributeName="fill" to="#808080" begin="zoomplus.mouseover" end="zoomplus.mouseout"/>
                        </use>
                        <path d="M-4,0h8M0,-4v8" fill="none" stroke="white" stroke-width="1.5" pointer-events="none"/>
                </g>
                <g id="zoomMin">
                        <use xlink:href="#rim" fill="#404040">
                                <set attributeName="fill" to="#808080" begin="zoomminus.mouseover" end="zoomminus.mouseout"/>
                        </use>
                        <path d="M-4,0h8" fill="none" stroke="white" stroke-width="1.5" pointer-events="none"/>
                </g>
                <g id="dirArrow">
                        <path fill="none" stroke="white" stroke-width="1.5" d="M0,-3.0v7 M-2.5,-0.5L0,-3.0L2.5,-0.5"/>
                </g>
               <g id="resetDef">
                       <use xlink:href="#rim2" fill="#404040">
                               <set attributeName="fill" to="#808080" begin="reset.mouseover" end="reset.mouseout"/>
                       </use>
               </g>
        </defs>

<script type="text/javascript">
var viewWidth = 995;
var viewHeight = 203;
var sectionId = 'dynsection-34';
</script>
<script xlink:href="svgpan.js"/>
<svg id="graph" class="graph">
<g id="viewport">
<title>chi::GraphModule::removeStruct</title>
<polygon fill="#ffffff" stroke="transparent" points="-4,4 -4,-199 991,-199 991,4 -4,4"/>
<!-- Node639 -->
<g id="node1" class="node">
<title>Node639</title>
<polygon fill="#bfbfbf" stroke="#000000" points="0,-44.5 0,-74.5 131,-74.5 131,-44.5 0,-44.5"/>
<text text-anchor="start" x="8" y="-62.5" font-family="Helvetica,sans-Serif" font-size="10.00" fill="#000000">chi::GraphModule::remove</text>
<text text-anchor="middle" x="65.5" y="-51.5" font-family="Helvetica,sans-Serif" font-size="10.00" fill="#000000">Struct</text>
</g>
<!-- Node640 -->
<g id="node2" class="node">
<title>Node640</title>
<g id="a_node2"><a xlink:href="structchi_1_1GraphModule.html#a45255dbf09b56ac93b35ebc4d77bba5c" target="_top" xlink:title="Get functions. ">
<polygon fill="#ffffff" stroke="#000000" points="167,-50 167,-69 306,-69 306,-50 167,-50"/>
<text text-anchor="middle" x="236.5" y="-57" font-family="Helvetica,sans-Serif" font-size="10.00" fill="#000000">chi::GraphModule::functions</text>
</a>
</g>
</g>
<!-- Node639&#45;&gt;Node640 -->
<g id="edge1" class="edge">
<title>Node639&#45;&gt;Node640</title>
<path fill="none" stroke="#191970" d="M141.3605,-59.5C149.8231,-59.5 158.4132,-59.5 166.7936,-59.5"/>
<polygon fill="#191970" stroke="#191970" points="141.124,-56.0001 131.124,-59.5 141.124,-63.0001 141.124,-56.0001"/>
</g>
<!-- Node641 -->
<g id="node3" class="node">
<title>Node641</title>
<g id="a_node3"><a xlink:href="structchi_1_1GraphModule.html#a0f4f97f458bbbacd6ff3c1be55441b98" target="_top" xlink:title="Create the associations from line number and function in debug info. ">
<polygon fill="#ffffff" stroke="#000000" points="342,-74.5 342,-104.5 468,-104.5 468,-74.5 342,-74.5"/>
<text text-anchor="start" x="350" y="-92.5" font-family="Helvetica,sans-Serif" font-size="10.00" fill="#000000">chi::GraphModule::create</text>
<text text-anchor="middle" x="405" y="-81.5" font-family="Helvetica,sans-Serif" font-size="10.00" fill="#000000">LineNumberAssoc</text>
</a>
</g>
</g>
<!-- Node640&#45;&gt;Node641 -->
<g id="edge2" class="edge">
<title>Node640&#45;&gt;Node641</title>
<path fill="none" stroke="#191970" d="M300.4499,-70.8857C313.9738,-73.2936 328.2398,-75.8335 341.7381,-78.2367"/>
<polygon fill="#191970" stroke="#191970" points="300.7364,-67.3818 290.2777,-69.0747 299.5094,-74.2734 300.7364,-67.3818"/>
</g>
<!-- Node650 -->
<g id="node12" class="node">
<title>Node650</title>
<g id="a_node12"><a xlink:href="namespacechi.html#a9a4f3fa54c612f0c559a353bb7382d5a" target="_top" xlink:title="Serialize a JsonModule to json. ">
<polygon fill="#ffffff" stroke="#000000" points="343.5,-28 343.5,-47 466.5,-47 466.5,-28 343.5,-28"/>
<text text-anchor="middle" x="405" y="-35" font-family="Helvetica,sans-Serif" font-size="10.00" fill="#000000">chi::graphModuleToJson</text>
</a>
</g>
</g>
<!-- Node640&#45;&gt;Node650 -->
<g id="edge13" class="edge">
<title>Node640&#45;&gt;Node650</title>
<path fill="none" stroke="#191970" d="M315.9775,-49.1231C325.212,-47.9174 334.5232,-46.7017 343.4654,-45.5342"/>
<polygon fill="#191970" stroke="#191970" points="315.4709,-45.6595 306.0082,-50.4247 316.3772,-52.6006 315.4709,-45.6595"/>
</g>
<!-- Node642 -->
<g id="node4" class="node">
<title>Node642</title>
<g id="a_node4"><a xlink:href="namespacechi.html#a8329038fce8125396cc9775460aa427b" target="_top" xlink:title="Compile the graph to an llvm::Function (usually called from JsonModule::generateModule) ...">
<polygon fill="#ffffff" stroke="#000000" points="527.5,-148 527.5,-167 634.5,-167 634.5,-148 527.5,-148"/>
<text text-anchor="middle" x="581" y="-155" font-family="Helvetica,sans-Serif" font-size="10.00" fill="#000000">chi::compileFunction</text>
</a>
</g>
</g>
<!-- Node641&#45;&gt;Node642 -->
<g id="edge3" class="edge">
<title>Node641&#45;&gt;Node642</title>
<path fill="none" stroke="#191970" d="M453.6122,-108.282C486.8855,-121.1376 529.6246,-137.6504 556.1626,-147.9037"/>
<polygon fill="#191970" stroke="#191970" points="454.6495,-104.9307 444.0601,-104.5914 452.1267,-111.4603 454.6495,-104.9307"/>
</g>
<!-- Node644 -->
<g id="node6" class="node">
<title>Node644</title>
<g id="a_node6"><a xlink:href="namespacechi.html#a46ba4fa933baeba58beefc9e573b0668" target="_top" xlink:title="Get the mapped line number from a node. ">
<polygon fill="#ffffff" stroke="#000000" points="516.5,-88 516.5,-107 645.5,-107 645.5,-88 516.5,-88"/>
<text text-anchor="middle" x="581" y="-95" font-family="Helvetica,sans-Serif" font-size="10.00" fill="#000000">chi::lineNumberFromNode</text>
</a>
</g>
</g>
<!-- Node641&#45;&gt;Node644 -->
<g id="edge5" class="edge">
<title>Node641&#45;&gt;Node644</title>
<path fill="none" stroke="#191970" d="M478.1003,-92.8227C490.7807,-93.3991 503.8863,-93.9948 516.3221,-94.5601"/>
<polygon fill="#191970" stroke="#191970" points="478.1916,-89.3234 468.0429,-92.3656 477.8736,-96.3161 478.1916,-89.3234"/>
</g>
<!-- Node648 -->
<g id="node10" class="node">
<title>Node648</title>
<g id="a_node10"><a xlink:href="classchi_1_1Debugger.html#ae142902fa85248f40cbeea7199c86ad9" target="_top" xlink:title="Get a NodeInstance from a frame. ">
<polygon fill="#ffffff" stroke="#000000" points="504,-50 504,-69 658,-69 658,-50 504,-50"/>
<text text-anchor="middle" x="581" y="-57" font-family="Helvetica,sans-Serif" font-size="10.00" fill="#000000">chi::Debugger::nodeFromFrame</text>
</a>
</g>
</g>
<!-- Node641&#45;&gt;Node648 -->
<g id="edge9" class="edge">
<title>Node641&#45;&gt;Node648</title>
<path fill="none" stroke="#191970" d="M478.2282,-77.0179C493.9017,-74.3463 510.2187,-71.565 525.1132,-69.0262"/>
<polygon fill="#191970" stroke="#191970" points="477.3126,-73.6234 468.0429,-78.754 478.4889,-80.5239 477.3126,-73.6234"/>
</g>
<!-- Node643 -->
<g id="node5" class="node">
<title>Node643</title>
<g id="a_node5"><a xlink:href="structchi_1_1GraphModule.html#a9b73bbbfa91d6a2f92bcca270bdb7b2f" target="_top" xlink:title="Generate a llvm::Module from the module. ">
<polygon fill="#ffffff" stroke="#000000" points="697,-164.5 697,-194.5 834,-194.5 834,-164.5 697,-164.5"/>
<text text-anchor="start" x="705" y="-182.5" font-family="Helvetica,sans-Serif" font-size="10.00" fill="#000000">chi::GraphModule::generate</text>
<text text-anchor="middle" x="765.5" y="-171.5" font-family="Helvetica,sans-Serif" font-size="10.00" fill="#000000">Module</text>
</a>
</g>
</g>
<!-- Node642&#45;&gt;Node643 -->
<g id="edge4" class="edge">
<title>Node642&#45;&gt;Node643</title>
<path fill="none" stroke="#191970" d="M645.0634,-165.139C661.7681,-167.1309 679.8369,-169.2854 696.7724,-171.3048"/>
<polygon fill="#191970" stroke="#191970" points="645.2051,-161.6312 634.861,-163.9225 644.3762,-168.5819 645.2051,-161.6312"/>
</g>
<!-- Node645 -->
<g id="node7" class="node">
<title>Node645</title>
<g id="a_node7"><a xlink:href="classchi_1_1Debugger.html#a4bd2c4dcced3e704b6a4d71b7c2d53d4" target="_top" xlink:title="Get the debugger This should probably be valid...not sure why it wouldn&#39;t be. ">
<polygon fill="#ffffff" stroke="#000000" points="696,-126 696,-145 835,-145 835,-126 696,-126"/>
<text text-anchor="middle" x="765.5" y="-133" font-family="Helvetica,sans-Serif" font-size="10.00" fill="#000000">chi::Debugger::lldbDebugger</text>
</a>
</g>
</g>
<!-- Node644&#45;&gt;Node645 -->
<g id="edge6" class="edge">
<title>Node644&#45;&gt;Node645</title>
<path fill="none" stroke="#191970" d="M637.3672,-109.1095C663.6074,-114.514 694.436,-120.8635 719.2776,-125.9799"/>
<polygon fill="#191970" stroke="#191970" points="638.0576,-105.6783 627.5571,-107.089 636.6455,-112.5344 638.0576,-105.6783"/>
</g>
<!-- Node646 -->
<g id="node8" class="node">
<title>Node646</title>
<g id="a_node8"><a xlink:href="classchi_1_1Debugger.html#a91a4d103d38bb2b1132ec7f83f4d77e2" target="_top" xlink:title="Set a breakpoint on a given node. ">
<polygon fill="#ffffff" stroke="#000000" points="694,-88 694,-107 837,-107 837,-88 694,-88"/>
<text text-anchor="middle" x="765.5" y="-95" font-family="Helvetica,sans-Serif" font-size="10.00" fill="#000000">chi::Debugger::setBreakpoint</text>
</a>
</g>
</g>
<!-- Node644&#45;&gt;Node646 -->
<g id="edge7" class="edge">
<title>Node644&#45;&gt;Node646</title>
<path fill="none" stroke="#191970" d="M655.5294,-97.5C668.1453,-97.5 681.2206,-97.5 693.7631,-97.5"/>
<polygon fill="#191970" stroke="#191970" points="655.5292,-94.0001 645.5291,-97.5 655.5291,-101.0001 655.5292,-94.0001"/>
</g>
<!-- Node647 -->
<g id="node9" class="node">
<title>Node647</title>
<g id="a_node9"><a xlink:href="classchi_1_1Debugger.html#a50f4de4ab6a18afa2eb82f5a5f43b06a" target="_top" xlink:title="Check if the process is executing. ">
<polygon fill="#ffffff" stroke="#000000" points="873,-50 873,-69 987,-69 987,-50 873,-50"/>
<text text-anchor="middle" x="930" y="-57" font-family="Helvetica,sans-Serif" font-size="10.00" fill="#000000">chi::Debugger::running</text>
</a>
</g>
</g>
<!-- Node646&#45;&gt;Node647 -->
<g id="edge8" class="edge">
<title>Node646&#45;&gt;Node647</title>
<path fill="none" stroke="#191970" d="M816.9975,-85.6039C840.1197,-80.2626 867.0297,-74.0463 888.7882,-69.0201"/>
<polygon fill="#191970" stroke="#191970" points="815.9659,-82.25 807.0103,-87.911 817.5415,-89.0704 815.9659,-82.25"/>
</g>
<!-- Node648&#45;&gt;Node647 -->
<g id="edge12" class="edge">
<title>Node648&#45;&gt;Node647</title>
<path fill="none" stroke="#191970" d="M668.1119,-59.5C732.1633,-59.5 817.3883,-59.5 872.9552,-59.5"/>
<polygon fill="#191970" stroke="#191970" points="668.0216,-56.0001 658.0216,-59.5 668.0215,-63.0001 668.0216,-56.0001"/>
</g>
<!-- Node649 -->
<g id="node11" class="node">
<title>Node649</title>
<g id="a_node11"><a xlink:href="classchi_1_1Debugger.html#a7b4b8117f767d7fc591ff1f54516c681" target="_top" xlink:title="Get the output of a node. ">
<polygon fill="#ffffff" stroke="#000000" points="697,-.5 697,-30.5 834,-30.5 834,-.5 697,-.5"/>
<text text-anchor="start" x="705" y="-18.5" font-family="Helvetica,sans-Serif" font-size="10.00" fill="#000000">chi::Debugger::inspectNode</text>
<text text-anchor="middle" x="765.5" y="-7.5" font-family="Helvetica,sans-Serif" font-size="10.00" fill="#000000">Output</text>
</a>
</g>
</g>
<!-- Node648&#45;&gt;Node649 -->
<g id="edge10" class="edge">
<title>Node648&#45;&gt;Node649</title>
<path fill="none" stroke="#191970" d="M630.832,-47.616C652.842,-42.3669 678.9704,-36.1358 702.3282,-30.5654"/>
<polygon fill="#191970" stroke="#191970" points="629.949,-44.2283 621.0338,-49.9527 631.5729,-51.0373 629.949,-44.2283"/>
</g>
<!-- Node649&#45;&gt;Node647 -->
<g id="edge11" class="edge">
<title>Node649&#45;&gt;Node647</title>
<path fill="none" stroke="#191970" d="M831.3724,-33.1194C852.8149,-38.8547 875.805,-45.0041 894.1903,-49.9217"/>
<polygon fill="#191970" stroke="#191970" points="832.2163,-29.7221 821.6515,-30.5192 830.4075,-36.4844 832.2163,-29.7221"/>
</g>
<!-- Node651 -->
<g id="node13" class="node">
<title>Node651</title>
<g id="a_node13"><a xlink:href="structchi_1_1GraphModule.html#a5cd9fb1738336d5d382ebb50753bda3e" target="_top" xlink:title="Serialize to disk in the context. ">
<polygon fill="#ffffff" stroke="#000000" points="505.5,-12 505.5,-31 656.5,-31 656.5,-12 505.5,-12"/>
<text text-anchor="middle" x="581" y="-19" font-family="Helvetica,sans-Serif" font-size="10.00" fill="#000000">chi::GraphModule::saveToDisk</text>
</a>
</g>
</g>
<!-- Node650&#45;&gt;Node651 -->
<g id="edge14" class="edge">
<title>Node650&#45;&gt;Node651</title>
<path fill="none" stroke="#191970" d="M476.6537,-30.986C486.0726,-30.1298 495.7505,-29.25 505.2349,-28.3877"/>
<polygon fill="#191970" stroke="#191970" points="476.1983,-27.5129 466.5563,-31.904 476.8321,-34.4842 476.1983,-27.5129"/>
</g>
</g>
</svg>
        <g id="navigator" transform="translate(0 0)" fill="#404254">
                <rect fill="#f2f5e9" fill-opacity="0.5" stroke="#606060" stroke-width=".5" x="0" y="0" width="60" height="60"/>
                <use id="zoomplus" xlink:href="#zoomPlus" x="17" y="9" onmousedown="handleZoom(evt,'in')"/>
                <use id="zoomminus" xlink:href="#zoomMin" x="42" y="9" onmousedown="handleZoom(evt,'out')"/>
                <use id="reset" xlink:href="#resetDef" x="30" y="36" onmousedown="handleReset()"/>
                <g id="arrowUp" xlink:href="#dirArrow" transform="translate(30 24)" onmousedown="handlePan(0,-1)">
                  <use xlink:href="#rim" fill="#404040">
                        <set attributeName="fill" to="#808080" begin="arrowUp.mouseover" end="arrowUp.mouseout"/>
                  </use>
                  <path fill="none" stroke="white" stroke-width="1.5" d="M0,-3.0v7 M-2.5,-0.5L0,-3.0L2.5,-0.5"/>
                </g>
                <g id="arrowRight" xlink:href="#dirArrow" transform="rotate(90) translate(36 -43)" onmousedown="handlePan(1,0)">
                  <use xlink:href="#rim" fill="#404040">
                        <set attributeName="fill" to="#808080" begin="arrowRight.mouseover" end="arrowRight.mouseout"/>
                  </use>
                  <path fill="none" stroke="white" stroke-width="1.5" d="M0,-3.0v7 M-2.5,-0.5L0,-3.0L2.5,-0.5"/>
                </g>
                <g id="arrowDown" xlink:href="#dirArrow" transform="rotate(180) translate(-30 -48)" onmousedown="handlePan(0,1)">
                  <use xlink:href="#rim" fill="#404040">
                        <set attributeName="fill" to="#808080" begin="arrowDown.mouseover" end="arrowDown.mouseout"/>
                  </use>
                  <path fill="none" stroke="white" stroke-width="1.5" d="M0,-3.0v7 M-2.5,-0.5L0,-3.0L2.5,-0.5"/>
                </g>
                <g id="arrowLeft" xlink:href="#dirArrow" transform="rotate(270) translate(-36 17)" onmousedown="handlePan(-1,0)">
                  <use xlink:href="#rim" fill="#404040">
                        <set attributeName="fill" to="#808080" begin="arrowLeft.mouseover" end="arrowLeft.mouseout"/>
                  </use>
                  <path fill="none" stroke="white" stroke-width="1.5" d="M0,-3.0v7 M-2.5,-0.5L0,-3.0L2.5,-0.5"/>
                </g>
        </g>
        <svg viewBox="0 0 15 15" width="100%" height="30px" preserveAspectRatio="xMaxYMin meet">
         <g id="arrow_out" transform="scale(0.3 0.3)">
          <a xlink:href="structchi_1_1GraphModule_a779d5c125ca7b556b114bb448f83dc3b_icgraph_org.svg" target="_base">
           <rect id="button" ry="5" rx="5" y="6" x="6" height="38" width="38"
                fill="#f2f5e9" fill-opacity="0.5" stroke="#606060" stroke-width="1.0"/>
           <path id="arrow"
             d="M 11.500037,31.436501 C 11.940474,20.09759 22.043105,11.32322 32.158766,21.979434 L 37.068811,17.246167 C 37.068811,17.246167 37.088388,32 37.088388,32 L 22.160133,31.978069 C 22.160133,31.978069 26.997745,27.140456 26.997745,27.140456 C 18.528582,18.264221 13.291696,25.230495 11.500037,31.436501 z"
             style="fill:#404040;"/>
          </a>
         </g>
        </svg>
</svg>
