<?xml version="1.0" encoding="UTF-8" standalone="no"?>
<!DOCTYPE svg PUBLIC "-//W3C//DTD SVG 1.1//EN"
 "http://www.w3.org/Graphics/SVG/1.1/DTD/svg11.dtd">
<!-- Generated by graphviz version 2.40.1 (20161225.0304)
 -->
<!-- Title: chi::NodeType::execInputs Pages: 1 -->
<svg width="976pt" height="157pt"
 viewBox="0.00 0.00 976.00 156.50" xmlns="http://www.w3.org/2000/svg" xmlns:xlink="http://www.w3.org/1999/xlink">
<g id="graph0" class="graph" transform="scale(1 1) rotate(0) translate(4 152.5)">
<title>chi::NodeType::execInputs</title>
<polygon fill="#ffffff" stroke="transparent" points="-4,4 -4,-152.5 972,-152.5 972,4 -4,4"/>
<!-- Node101 -->
<g id="node1" class="node">
<title>Node101</title>
<polygon fill="#bfbfbf" stroke="#000000" points="0,-107 0,-126 134,-126 134,-107 0,-107"/>
<text text-anchor="middle" x="67" y="-114" font-family="Helvetica,sans-Serif" font-size="10.00" fill="#000000">chi::NodeType::execInputs</text>
</g>
<!-- Node102 -->
<g id="node2" class="node">
<title>Node102</title>
<g id="a_node2"><a xlink:href="namespacechi.html#a79423caa23a58e57b775c5137a03ee31" target="_top" xlink:title="Connects two nodes&#39; exec connections. ">
<polygon fill="#ffffff" stroke="#000000" points="170,-107 170,-126 262,-126 262,-107 170,-107"/>
<text text-anchor="middle" x="216" y="-114" font-family="Helvetica,sans-Serif" font-size="10.00" fill="#000000">chi::connectExec</text>
</a>
</g>
</g>
<!-- Node101&#45;&gt;Node102 -->
<g id="edge1" class="edge">
<title>Node101&#45;&gt;Node102</title>
<path fill="none" stroke="#191970" d="M144.2907,-116.5C152.9845,-116.5 161.6276,-116.5 169.7454,-116.5"/>
<polygon fill="#191970" stroke="#191970" points="144.09,-113.0001 134.09,-116.5 144.09,-120.0001 144.09,-113.0001"/>
</g>
<!-- Node103 -->
<g id="node3" class="node">
<title>Node103</title>
<g id="a_node3"><a xlink:href="namespacechi.html#a6a3fedb48e6702c016f996d8a7f445fc" target="_top" xlink:title="Load a GraphFunction–must already exist (use createGraphFunctionDeclarationFromJson) ...">
<polygon fill="#ffffff" stroke="#000000" points="298,-129 298,-148 426,-148 426,-129 298,-129"/>
<text text-anchor="middle" x="362" y="-136" font-family="Helvetica,sans-Serif" font-size="10.00" fill="#000000">chi::jsonToGraphFunction</text>
</a>
</g>
</g>
<!-- Node102&#45;&gt;Node103 -->
<g id="edge2" class="edge">
<title>Node102&#45;&gt;Node103</title>
<path fill="none" stroke="#191970" d="M272.2108,-124.9701C280.901,-126.2796 289.9267,-127.6396 298.7584,-128.9704"/>
<polygon fill="#191970" stroke="#191970" points="272.6052,-121.4901 262.1953,-123.4609 271.5621,-128.412 272.6052,-121.4901"/>
</g>
<!-- Node106 -->
<g id="node6" class="node">
<title>Node106</title>
<g id="a_node6"><a xlink:href="structchi_1_1NodeInstance.html#a72d113cfee45f4017adf28b034c6f215" target="_top" xlink:title="Get the containing GraphModule. ">
<polygon fill="#ffffff" stroke="#000000" points="311.5,-79.5 311.5,-109.5 412.5,-109.5 412.5,-79.5 311.5,-79.5"/>
<text text-anchor="start" x="319.5" y="-97.5" font-family="Helvetica,sans-Serif" font-size="10.00" fill="#000000">chi::NodeInstance::</text>
<text text-anchor="middle" x="362" y="-86.5" font-family="Helvetica,sans-Serif" font-size="10.00" fill="#000000">module</text>
</a>
</g>
</g>
<!-- Node102&#45;&gt;Node106 -->
<g id="edge5" class="edge">
<title>Node102&#45;&gt;Node106</title>
<path fill="none" stroke="#191970" d="M272.3026,-108.016C285.1408,-106.0815 298.707,-104.0373 311.2948,-102.1405"/>
<polygon fill="#191970" stroke="#191970" points="271.5621,-104.588 262.1953,-109.5391 272.6052,-111.5099 271.5621,-104.588"/>
</g>
<!-- Node104 -->
<g id="node4" class="node">
<title>Node104</title>
<g id="a_node4"><a xlink:href="namespacechi.html#a4489e333fecc4168278e94f8b3f81e3c" target="_top" xlink:title="Load a GraphModule from json. ">
<polygon fill="#ffffff" stroke="#000000" points="478,-129 478,-148 600,-148 600,-129 478,-129"/>
<text text-anchor="middle" x="539" y="-136" font-family="Helvetica,sans-Serif" font-size="10.00" fill="#000000">chi::jsonToGraphModule</text>
</a>
</g>
</g>
<!-- Node103&#45;&gt;Node104 -->
<g id="edge3" class="edge">
<title>Node103&#45;&gt;Node104</title>
<path fill="none" stroke="#191970" d="M436.5351,-138.5C450.2608,-138.5 464.4461,-138.5 477.7254,-138.5"/>
<polygon fill="#191970" stroke="#191970" points="436.1514,-135.0001 426.1513,-138.5 436.1513,-142.0001 436.1514,-135.0001"/>
</g>
<!-- Node105 -->
<g id="node5" class="node">
<title>Node105</title>
<g id="a_node5"><a xlink:href="structchi_1_1Context.html#a2db103f3a2f77710dfa51489f63ec97f" target="_top" xlink:title="Load a module from JSON – avoid this use the string overload. ">
<polygon fill="#ffffff" stroke="#000000" points="652,-129 652,-148 818,-148 818,-129 652,-129"/>
<text text-anchor="middle" x="735" y="-136" font-family="Helvetica,sans-Serif" font-size="10.00" fill="#000000">chi::Context::addModuleFromJson</text>
</a>
</g>
</g>
<!-- Node104&#45;&gt;Node105 -->
<g id="edge4" class="edge">
<title>Node104&#45;&gt;Node105</title>
<path fill="none" stroke="#191970" d="M610.3827,-138.5C623.8971,-138.5 638.1423,-138.5 651.9794,-138.5"/>
<polygon fill="#191970" stroke="#191970" points="610.2094,-135.0001 600.2094,-138.5 610.2094,-142.0001 610.2094,-135.0001"/>
</g>
<!-- Node107 -->
<g id="node7" class="node">
<title>Node107</title>
<g id="a_node7"><a xlink:href="classchi_1_1Debugger.html#a91a4d103d38bb2b1132ec7f83f4d77e2" target="_top" xlink:title="Set a breakpoint on a given node. ">
<polygon fill="#ffffff" stroke="#000000" points="663.5,-88 663.5,-107 806.5,-107 806.5,-88 663.5,-88"/>
<text text-anchor="middle" x="735" y="-95" font-family="Helvetica,sans-Serif" font-size="10.00" fill="#000000">chi::Debugger::setBreakpoint</text>
</a>
</g>
</g>
<!-- Node106&#45;&gt;Node107 -->
<g id="edge6" class="edge">
<title>Node106&#45;&gt;Node107</title>
<path fill="none" stroke="#191970" d="M422.9124,-94.9899C488.7463,-95.5194 593.5787,-96.3626 663.3294,-96.9236"/>
<polygon fill="#191970" stroke="#191970" points="422.7205,-91.4884 412.6926,-94.9077 422.6641,-98.4881 422.7205,-91.4884"/>
</g>
<!-- Node109 -->
<g id="node9" class="node">
<title>Node109</title>
<g id="a_node9"><a xlink:href="classchi_1_1Debugger.html#ae142902fa85248f40cbeea7199c86ad9" target="_top" xlink:title="Get a NodeInstance from a frame. ">
<polygon fill="#ffffff" stroke="#000000" points="462,-50 462,-69 616,-69 616,-50 462,-50"/>
<text text-anchor="middle" x="539" y="-57" font-family="Helvetica,sans-Serif" font-size="10.00" fill="#000000">chi::Debugger::nodeFromFrame</text>
</a>
</g>
</g>
<!-- Node106&#45;&gt;Node109 -->
<g id="edge8" class="edge">
<title>Node106&#45;&gt;Node109</title>
<path fill="none" stroke="#191970" d="M422.7185,-82.4935C444.9257,-78.1023 469.73,-73.1974 490.7071,-69.0494"/>
<polygon fill="#191970" stroke="#191970" points="421.8522,-79.097 412.7211,-84.4704 423.2101,-85.964 421.8522,-79.097"/>
</g>
<!-- Node108 -->
<g id="node8" class="node">
<title>Node108</title>
<g id="a_node8"><a xlink:href="classchi_1_1Debugger.html#a50f4de4ab6a18afa2eb82f5a5f43b06a" target="_top" xlink:title="Check if the process is executing. ">
<polygon fill="#ffffff" stroke="#000000" points="854,-50 854,-69 968,-69 968,-50 854,-50"/>
<text text-anchor="middle" x="911" y="-57" font-family="Helvetica,sans-Serif" font-size="10.00" fill="#000000">chi::Debugger::running</text>
</a>
</g>
</g>
<!-- Node107&#45;&gt;Node108 -->
<g id="edge7" class="edge">
<title>Node107&#45;&gt;Node108</title>
<path fill="none" stroke="#191970" d="M789.433,-85.7474C814.3194,-80.3742 843.4188,-74.0914 866.9071,-69.0201"/>
<polygon fill="#191970" stroke="#191970" points="788.4483,-82.3793 779.4122,-87.911 789.9257,-89.2216 788.4483,-82.3793"/>
</g>
<!-- Node109&#45;&gt;Node108 -->
<g id="edge11" class="edge">
<title>Node109&#45;&gt;Node108</title>
<path fill="none" stroke="#191970" d="M626.236,-59.5C696.4308,-59.5 793.0593,-59.5 853.7617,-59.5"/>
<polygon fill="#191970" stroke="#191970" points="626.0787,-56.0001 616.0786,-59.5 626.0786,-63.0001 626.0787,-56.0001"/>
</g>
<!-- Node110 -->
<g id="node10" class="node">
<title>Node110</title>
<g id="a_node10"><a xlink:href="classchi_1_1Debugger.html#a7b4b8117f767d7fc591ff1f54516c681" target="_top" xlink:title="Get the output of a node. ">
<polygon fill="#ffffff" stroke="#000000" points="666.5,-.5 666.5,-30.5 803.5,-30.5 803.5,-.5 666.5,-.5"/>
<text text-anchor="start" x="674.5" y="-18.5" font-family="Helvetica,sans-Serif" font-size="10.00" fill="#000000">chi::Debugger::inspectNode</text>
<text text-anchor="middle" x="735" y="-7.5" font-family="Helvetica,sans-Serif" font-size="10.00" fill="#000000">Output</text>
</a>
</g>
</g>
<!-- Node109&#45;&gt;Node110 -->
<g id="edge9" class="edge">
<title>Node109&#45;&gt;Node110</title>
<path fill="none" stroke="#191970" d="M591.3071,-47.7576C614.8196,-42.4793 642.8534,-36.186 667.8907,-30.5654"/>
<polygon fill="#191970" stroke="#191970" points="590.5196,-44.3472 581.5291,-49.9527 592.0529,-51.1772 590.5196,-44.3472"/>
</g>
<!-- Node110&#45;&gt;Node108 -->
<g id="edge10" class="edge">
<title>Node110&#45;&gt;Node108</title>
<path fill="none" stroke="#191970" d="M804.8962,-32.9741C828.1053,-38.7763 853.0704,-45.0176 872.9503,-49.9876"/>
<polygon fill="#191970" stroke="#191970" points="805.6273,-29.5492 795.077,-30.5192 803.9295,-36.3402 805.6273,-29.5492"/>
</g>
</g>
</svg>
