<?xml version="1.0" encoding="UTF-8" standalone="no"?>
<!DOCTYPE svg PUBLIC "-//W3C//DTD SVG 1.1//EN"
 "http://www.w3.org/Graphics/SVG/1.1/DTD/svg11.dtd">
<!-- Generated by graphviz version 2.40.1 (20161225.0304)
 -->
<!-- Title: chig::ChigModule::addDependency Pages: 1 -->
<svg width="673pt" height="83pt"
 viewBox="0.00 0.00 673.00 83.00" xmlns="http://www.w3.org/2000/svg" xmlns:xlink="http://www.w3.org/1999/xlink">
<g id="graph0" class="graph" transform="scale(1 1) rotate(0) translate(4 79)">
<title>chig::ChigModule::addDependency</title>
<polygon fill="#ffffff" stroke="transparent" points="-4,4 -4,-79 669,-79 669,4 -4,4"/>
<!-- Node50 -->
<g id="node1" class="node">
<title>Node50</title>
<polygon fill="#bfbfbf" stroke="#000000" points="0,-28 0,-47 167,-47 167,-28 0,-28"/>
<text text-anchor="middle" x="83.5" y="-35" font-family="Helvetica,sans-Serif" font-size="10.00" fill="#000000">chig::ChigModule::addDependency</text>
</g>
<!-- Node51 -->
<g id="node2" class="node">
<title>Node51</title>
<g id="a_node2"><a xlink:href="structchig_1_1ChigModule.html#a7f239dc07b0a4d74d6907da6f25127dc" target="_top" xlink:title="Get the dependencies. ">
<polygon fill="#ffffff" stroke="#000000" points="203,-50 203,-69 361,-69 361,-50 203,-50"/>
<text text-anchor="middle" x="282" y="-57" font-family="Helvetica,sans-Serif" font-size="10.00" fill="#000000">chig::ChigModule::dependencies</text>
</a>
</g>
</g>
<!-- Node50&#45;&gt;Node51 -->
<g id="edge1" class="edge">
<title>Node50&#45;&gt;Node51</title>
<path fill="none" stroke="#191970" d="M177.1763,-47.8823C185.7894,-48.8369 194.4588,-49.7977 202.9237,-50.7359"/>
<polygon fill="#191970" stroke="#191970" points="177.4313,-44.3892 167.1066,-46.7662 176.6601,-51.3466 177.4313,-44.3892"/>
</g>
<!-- Node54 -->
<g id="node5" class="node">
<title>Node54</title>
<g id="a_node5"><a xlink:href="structchig_1_1GraphModule.html#a65458343d0344b6b806f9b0b780b32f4" target="_top" xlink:title="Construct a GraphModule. ">
<polygon fill="#ffffff" stroke="#000000" points="230,-.5 230,-30.5 334,-30.5 334,-.5 230,-.5"/>
<text text-anchor="start" x="238" y="-18.5" font-family="Helvetica,sans-Serif" font-size="10.00" fill="#000000">chig::GraphModule::</text>
<text text-anchor="middle" x="282" y="-7.5" font-family="Helvetica,sans-Serif" font-size="10.00" fill="#000000">GraphModule</text>
</a>
</g>
</g>
<!-- Node50&#45;&gt;Node54 -->
<g id="edge4" class="edge">
<title>Node50&#45;&gt;Node54</title>
<path fill="none" stroke="#191970" d="M177.1462,-27.1211C195.2917,-25.11 213.6879,-23.0711 229.8981,-21.2745"/>
<polygon fill="#191970" stroke="#191970" points="176.6601,-23.6534 167.1066,-28.2338 177.4313,-30.6108 176.6601,-23.6534"/>
</g>
<!-- Node52 -->
<g id="node3" class="node">
<title>Node52</title>
<g id="a_node3"><a xlink:href="namespacechig.html#aaef3bb08f472ae32b2d3b292e69a007a" target="_top" xlink:title="Serialize a JsonModule to json. ">
<polygon fill="#ffffff" stroke="#000000" points="397,-50 397,-69 525,-69 525,-50 397,-50"/>
<text text-anchor="middle" x="461" y="-57" font-family="Helvetica,sans-Serif" font-size="10.00" fill="#000000">chig::graphModuleToJson</text>
</a>
</g>
</g>
<!-- Node51&#45;&gt;Node52 -->
<g id="edge2" class="edge">
<title>Node51&#45;&gt;Node52</title>
<path fill="none" stroke="#191970" d="M371.1886,-59.5C379.8578,-59.5 388.5309,-59.5 396.8825,-59.5"/>
<polygon fill="#191970" stroke="#191970" points="371.0331,-56.0001 361.0331,-59.5 371.033,-63.0001 371.0331,-56.0001"/>
</g>
<!-- Node53 -->
<g id="node4" class="node">
<title>Node53</title>
<g id="a_node4"><a xlink:href="structchig_1_1GraphModule.html#accb1a64da697a29e28d78a9a09bd52ff" target="_top" xlink:title="Serialize to disk in the context. ">
<polygon fill="#ffffff" stroke="#000000" points="561,-44.5 561,-74.5 665,-74.5 665,-44.5 561,-44.5"/>
<text text-anchor="start" x="569" y="-62.5" font-family="Helvetica,sans-Serif" font-size="10.00" fill="#000000">chig::GraphModule::</text>
<text text-anchor="middle" x="613" y="-51.5" font-family="Helvetica,sans-Serif" font-size="10.00" fill="#000000">saveToDisk</text>
</a>
</g>
</g>
<!-- Node52&#45;&gt;Node53 -->
<g id="edge3" class="edge">
<title>Node52&#45;&gt;Node53</title>
<path fill="none" stroke="#191970" d="M535.0838,-59.5C543.6912,-59.5 552.3313,-59.5 560.5622,-59.5"/>
<polygon fill="#191970" stroke="#191970" points="535.0212,-56.0001 525.0211,-59.5 535.0211,-63.0001 535.0212,-56.0001"/>
</g>
</g>
</svg>
