<?xml version="1.0" encoding="UTF-8" standalone="no"?>
<!DOCTYPE svg PUBLIC "-//W3C//DTD SVG 1.1//EN"
 "http://www.w3.org/Graphics/SVG/1.1/DTD/svg11.dtd">
<!-- Generated by graphviz version 2.40.1 (20161225.0304)
 -->
<!-- Title: lib/support/include/chi/Support/Subprocess.hpp Pages: 1 -->
<svg width="735pt" height="95pt"
 viewBox="0.00 0.00 735.00 95.00" xmlns="http://www.w3.org/2000/svg" xmlns:xlink="http://www.w3.org/1999/xlink">
<g id="graph0" class="graph" transform="scale(1 1) rotate(0) translate(4 91)">
<title>lib/support/include/chi/Support/Subprocess.hpp</title>
<polygon fill="#ffffff" stroke="transparent" points="-4,4 -4,-91 731,-91 731,4 -4,4"/>
<!-- Node0 -->
<g id="node1" class="node">
<title>Node0</title>
<polygon fill="#bfbfbf" stroke="#000000" points="421.5,-56.5 421.5,-86.5 564.5,-86.5 564.5,-56.5 421.5,-56.5"/>
<text text-anchor="start" x="429.5" y="-74.5" font-family="Helvetica,sans-Serif" font-size="10.00" fill="#000000">lib/support/include</text>
<text text-anchor="middle" x="493" y="-63.5" font-family="Helvetica,sans-Serif" font-size="10.00" fill="#000000">/chi/Support/Subprocess.hpp</text>
</g>
<!-- Node1 -->
<g id="node2" class="node">
<title>Node1</title>
<g id="a_node2"><a xlink:href="support_2include_2chi_2Support_2Fwd_8hpp.html" target="_top" xlink:title="chi/Support/Fwd.hpp">
<polygon fill="#ffffff" stroke="#000000" points="0,-.5 0,-19.5 106,-19.5 106,-.5 0,-.5"/>
<text text-anchor="middle" x="53" y="-7.5" font-family="Helvetica,sans-Serif" font-size="10.00" fill="#000000">chi/Support/Fwd.hpp</text>
</a>
</g>
</g>
<!-- Node0&#45;&gt;Node1 -->
<g id="edge1" class="edge">
<title>Node0&#45;&gt;Node1</title>
<path fill="none" stroke="#191970" d="M421.1636,-62.2453C347.2977,-52.6082 228.6568,-36.7947 116.2462,-20.1584"/>
<polygon fill="#191970" stroke="#191970" points="116.4922,-16.6567 106.0866,-18.6501 115.4641,-23.5808 116.4922,-16.6567"/>
</g>
<!-- Node2 -->
<g id="node3" class="node">
<title>Node2</title>
<polygon fill="#ffffff" stroke="#bfbfbf" points="124.5,-.5 124.5,-19.5 279.5,-19.5 279.5,-.5 124.5,-.5"/>
<text text-anchor="middle" x="202" y="-7.5" font-family="Helvetica,sans-Serif" font-size="10.00" fill="#000000">boost/filesystem/operations.hpp</text>
</g>
<!-- Node0&#45;&gt;Node2 -->
<g id="edge2" class="edge">
<title>Node0&#45;&gt;Node2</title>
<path fill="none" stroke="#191970" d="M421.8134,-56.4554C371.0232,-45.7214 303.7188,-31.4973 257.0255,-21.6291"/>
<polygon fill="#191970" stroke="#191970" points="257.6023,-18.1738 247.0947,-19.5303 256.1548,-25.0225 257.6023,-18.1738"/>
</g>
<!-- Node3 -->
<g id="node4" class="node">
<title>Node3</title>
<polygon fill="#ffffff" stroke="#bfbfbf" points="297.5,-.5 297.5,-19.5 426.5,-19.5 426.5,-.5 297.5,-.5"/>
<text text-anchor="middle" x="362" y="-7.5" font-family="Helvetica,sans-Serif" font-size="10.00" fill="#000000">boost/filesystem/path.hpp</text>
</g>
<!-- Node0&#45;&gt;Node3 -->
<g id="edge3" class="edge">
<title>Node0&#45;&gt;Node3</title>
<path fill="none" stroke="#191970" d="M460.9538,-56.4554C439.7672,-46.509 412.1972,-33.5659 391.5412,-23.8686"/>
<polygon fill="#191970" stroke="#191970" points="392.8399,-20.6118 382.3004,-19.5303 389.8651,-26.9483 392.8399,-20.6118"/>
</g>
<!-- Node4 -->
<g id="node5" class="node">
<title>Node4</title>
<polygon fill="#ffffff" stroke="#bfbfbf" points="445,-.5 445,-19.5 541,-19.5 541,-.5 445,-.5"/>
<text text-anchor="middle" x="493" y="-7.5" font-family="Helvetica,sans-Serif" font-size="10.00" fill="#000000">boost/optional.hpp</text>
</g>
<!-- Node0&#45;&gt;Node4 -->
<g id="edge4" class="edge">
<title>Node0&#45;&gt;Node4</title>
<path fill="none" stroke="#191970" d="M493,-56.2977C493,-48.3834 493,-38.6043 493,-30.0759"/>
<polygon fill="#191970" stroke="#191970" points="496.5001,-29.8469 493,-19.8469 489.5001,-29.847 496.5001,-29.8469"/>
</g>
<!-- Node5 -->
<g id="node6" class="node">
<title>Node5</title>
<polygon fill="#ffffff" stroke="#bfbfbf" points="559,-.5 559,-19.5 605,-19.5 605,-.5 559,-.5"/>
<text text-anchor="middle" x="582" y="-7.5" font-family="Helvetica,sans-Serif" font-size="10.00" fill="#000000">chrono</text>
</g>
<!-- Node0&#45;&gt;Node5 -->
<g id="edge5" class="edge">
<title>Node0&#45;&gt;Node5</title>
<path fill="none" stroke="#191970" d="M515,-56.2977C528.5968,-46.9022 545.9966,-34.8787 559.6567,-25.4395"/>
<polygon fill="#191970" stroke="#191970" points="561.7785,-28.2276 568.0158,-19.6633 557.7991,-22.4688 561.7785,-28.2276"/>
</g>
<!-- Node6 -->
<g id="node7" class="node">
<title>Node6</title>
<polygon fill="#ffffff" stroke="#bfbfbf" points="623.5,-.5 623.5,-19.5 664.5,-19.5 664.5,-.5 623.5,-.5"/>
<text text-anchor="middle" x="644" y="-7.5" font-family="Helvetica,sans-Serif" font-size="10.00" fill="#000000">string</text>
</g>
<!-- Node0&#45;&gt;Node6 -->
<g id="edge6" class="edge">
<title>Node0&#45;&gt;Node6</title>
<path fill="none" stroke="#191970" d="M529.9388,-56.4554C555.7228,-45.9539 589.709,-32.1119 613.8577,-22.2765"/>
<polygon fill="#191970" stroke="#191970" points="615.2907,-25.4721 623.2318,-18.4586 612.6503,-18.9891 615.2907,-25.4721"/>
</g>
<!-- Node7 -->
<g id="node8" class="node">
<title>Node7</title>
<polygon fill="#ffffff" stroke="#bfbfbf" points="683,-.5 683,-19.5 727,-19.5 727,-.5 683,-.5"/>
<text text-anchor="middle" x="705" y="-7.5" font-family="Helvetica,sans-Serif" font-size="10.00" fill="#000000">vector</text>
</g>
<!-- Node0&#45;&gt;Node7 -->
<g id="edge7" class="edge">
<title>Node0&#45;&gt;Node7</title>
<path fill="none" stroke="#191970" d="M547.7971,-56.4439C581.4499,-47.0742 625.654,-34.5483 672.8774,-20.2771"/>
<polygon fill="#191970" stroke="#191970" points="674.1253,-23.5561 682.6781,-17.3031 672.0927,-16.8577 674.1253,-23.5561"/>
</g>
</g>
</svg>
